[
    {
        "changes": {
            "tree": 1
        },
        "timeout": 2.5609744999999995,
        "raw": {
            "tree": {
                "pinValue": 1,
                "ticks": 3360,
                "event": {
                    "deltaTime": 3360,
                    "type": "channel",
                    "subtype": "noteOn",
                    "channel": 1,
                    "noteNumber": 59,
                    "velocity": 111,
                    "lightChannels": [
                        9
                    ]
                }
            }
        }
    },
    {
        "changes": {
            "tree": 0,
            "col-1": 1
        },
        "timeout": 0.36585349999999994,
        "raw": {
            "tree": {
                "pinValue": 0,
                "ticks": 480,
                "event": {
                    "deltaTime": 480,
                    "type": "channel",
                    "subtype": "noteOff",
                    "channel": 1,
                    "noteNumber": 59,
                    "velocity": 0,
                    "lightChannels": [
                        9
                    ]
                }
            },
            "col-1": {
                "pinValue": 1,
                "ticks": 0,
                "event": {
                    "deltaTime": 0,
                    "type": "channel",
                    "subtype": "noteOn",
                    "channel": 1,
                    "noteNumber": 64,
                    "velocity": 111,
                    "lightChannels": [
                        3
                    ]
                }
            }
        }
    },
    {
        "changes": {
            "col-1": 0,
            "col-3": 1
        },
        "timeout": 0.36585349999999994,
        "raw": {
            "col-1": {
                "pinValue": 0,
                "ticks": 480,
                "event": {
                    "deltaTime": 480,
                    "type": "channel",
                    "subtype": "noteOff",
                    "channel": 1,
                    "noteNumber": 64,
                    "velocity": 0,
                    "lightChannels": [
                        3
                    ]
                }
            },
            "col-3": {
                "pinValue": 1,
                "ticks": 0,
                "event": {
                    "deltaTime": 0,
                    "type": "channel",
                    "subtype": "noteOn",
                    "channel": 1,
                    "noteNumber": 67,
                    "velocity": 111,
                    "lightChannels": [
                        5
                    ]
                }
            }
        }
    },
    {
        "changes": {
            "col-3": 0,
            "col-2": 1
        },
        "timeout": 0.36585349999999994,
        "raw": {
            "col-3": {
                "pinValue": 0,
                "ticks": 480,
                "event": {
                    "deltaTime": 480,
                    "type": "channel",
                    "subtype": "noteOff",
                    "channel": 1,
                    "noteNumber": 67,
                    "velocity": 0,
                    "lightChannels": [
                        5
                    ]
                }
            },
            "col-2": {
                "pinValue": 1,
                "ticks": 0,
                "event": {
                    "deltaTime": 0,
                    "type": "channel",
                    "subtype": "noteOn",
                    "channel": 1,
                    "noteNumber": 66,
                    "velocity": 111,
                    "lightChannels": [
                        4
                    ]
                }
            }
        }
    },
    {
        "changes": {
            "col-2": 0,
            "tree": 1
        },
        "timeout": 0.36585349999999994,
        "raw": {
            "col-2": {
                "pinValue": 0,
                "ticks": 480,
                "event": {
                    "deltaTime": 480,
                    "type": "channel",
                    "subtype": "noteOff",
                    "channel": 1,
                    "noteNumber": 66,
                    "velocity": 0,
                    "lightChannels": [
                        4
                    ]
                }
            },
            "tree": {
                "pinValue": 1,
                "ticks": 0,
                "event": {
                    "deltaTime": 0,
                    "type": "channel",
                    "subtype": "noteOn",
                    "channel": 1,
                    "noteNumber": 59,
                    "velocity": 111,
                    "lightChannels": [
                        9
                    ]
                }
            }
        }
    },
    {
        "changes": {
            "tree": 0,
            "col-1": 1
        },
        "timeout": 0.36585349999999994,
        "raw": {
            "tree": {
                "pinValue": 0,
                "ticks": 480,
                "event": {
                    "deltaTime": 480,
                    "type": "channel",
                    "subtype": "noteOff",
                    "channel": 1,
                    "noteNumber": 59,
                    "velocity": 0,
                    "lightChannels": [
                        9
                    ]
                }
            },
            "col-1": {
                "pinValue": 1,
                "ticks": 0,
                "event": {
                    "deltaTime": 0,
                    "type": "channel",
                    "subtype": "noteOn",
                    "channel": 1,
                    "noteNumber": 64,
                    "velocity": 111,
                    "lightChannels": [
                        3
                    ]
                }
            }
        }
    },
    {
        "changes": {
            "col-1": 0,
            "col-3": 1
        },
        "timeout": 0.36585349999999994,
        "raw": {
            "col-1": {
                "pinValue": 0,
                "ticks": 480,
                "event": {
                    "deltaTime": 480,
                    "type": "channel",
                    "subtype": "noteOff",
                    "channel": 1,
                    "noteNumber": 64,
                    "velocity": 0,
                    "lightChannels": [
                        3
                    ]
                }
            },
            "col-3": {
                "pinValue": 1,
                "ticks": 0,
                "event": {
                    "deltaTime": 0,
                    "type": "channel",
                    "subtype": "noteOn",
                    "channel": 1,
                    "noteNumber": 67,
                    "velocity": 111,
                    "lightChannels": [
                        5
                    ]
                }
            }
        }
    },
    {
        "changes": {
            "col-3": 0,
            "col-2": 1
        },
        "timeout": 0.36585349999999994,
        "raw": {
            "col-3": {
                "pinValue": 0,
                "ticks": 480,
                "event": {
                    "deltaTime": 480,
                    "type": "channel",
                    "subtype": "noteOff",
                    "channel": 1,
                    "noteNumber": 67,
                    "velocity": 0,
                    "lightChannels": [
                        5
                    ]
                }
            },
            "col-2": {
                "pinValue": 1,
                "ticks": 0,
                "event": {
                    "deltaTime": 0,
                    "type": "channel",
                    "subtype": "noteOn",
                    "channel": 1,
                    "noteNumber": 66,
                    "velocity": 111,
                    "lightChannels": [
                        4
                    ]
                }
            }
        }
    },
    {
        "changes": {
            "col-2": 0,
            "tree": 1
        },
        "timeout": 0.36585349999999994,
        "raw": {
            "col-2": {
                "pinValue": 0,
                "ticks": 480,
                "event": {
                    "deltaTime": 480,
                    "type": "channel",
                    "subtype": "noteOff",
                    "channel": 1,
                    "noteNumber": 66,
                    "velocity": 0,
                    "lightChannels": [
                        4
                    ]
                }
            },
            "tree": {
                "pinValue": 1,
                "ticks": 0,
                "event": {
                    "deltaTime": 0,
                    "type": "channel",
                    "subtype": "noteOn",
                    "channel": 1,
                    "noteNumber": 59,
                    "velocity": 111,
                    "lightChannels": [
                        9
                    ]
                }
            }
        }
    },
    {
        "changes": {
            "tree": 0,
            "col-1": 1
        },
        "timeout": 0.36585349999999994,
        "raw": {
            "tree": {
                "pinValue": 0,
                "ticks": 480,
                "event": {
                    "deltaTime": 480,
                    "type": "channel",
                    "subtype": "noteOff",
                    "channel": 1,
                    "noteNumber": 59,
                    "velocity": 0,
                    "lightChannels": [
                        9
                    ]
                }
            },
            "col-1": {
                "pinValue": 1,
                "ticks": 0,
                "event": {
                    "deltaTime": 0,
                    "type": "channel",
                    "subtype": "noteOn",
                    "channel": 1,
                    "noteNumber": 64,
                    "velocity": 111,
                    "lightChannels": [
                        3
                    ]
                }
            }
        }
    },
    {
        "changes": {
            "col-1": 0,
            "col-3": 1
        },
        "timeout": 0.36585349999999994,
        "raw": {
            "col-1": {
                "pinValue": 0,
                "ticks": 480,
                "event": {
                    "deltaTime": 480,
                    "type": "channel",
                    "subtype": "noteOff",
                    "channel": 1,
                    "noteNumber": 64,
                    "velocity": 0,
                    "lightChannels": [
                        3
                    ]
                }
            },
            "col-3": {
                "pinValue": 1,
                "ticks": 0,
                "event": {
                    "deltaTime": 0,
                    "type": "channel",
                    "subtype": "noteOn",
                    "channel": 1,
                    "noteNumber": 67,
                    "velocity": 111,
                    "lightChannels": [
                        5
                    ]
                }
            }
        }
    },
    {
        "changes": {
            "col-3": 0,
            "col-2": 1
        },
        "timeout": 0.36585349999999994,
        "raw": {
            "col-3": {
                "pinValue": 0,
                "ticks": 480,
                "event": {
                    "deltaTime": 480,
                    "type": "channel",
                    "subtype": "noteOff",
                    "channel": 1,
                    "noteNumber": 67,
                    "velocity": 0,
                    "lightChannels": [
                        5
                    ]
                }
            },
            "col-2": {
                "pinValue": 1,
                "ticks": 0,
                "event": {
                    "deltaTime": 0,
                    "type": "channel",
                    "subtype": "noteOn",
                    "channel": 1,
                    "noteNumber": 66,
                    "velocity": 111,
                    "lightChannels": [
                        4
                    ]
                }
            }
        }
    },
    {
        "changes": {
            "col-2": 0,
            "tree": 1
        },
        "timeout": 0.36585349999999994,
        "raw": {
            "col-2": {
                "pinValue": 0,
                "ticks": 480,
                "event": {
                    "deltaTime": 480,
                    "type": "channel",
                    "subtype": "noteOff",
                    "channel": 1,
                    "noteNumber": 66,
                    "velocity": 0,
                    "lightChannels": [
                        4
                    ]
                }
            },
            "tree": {
                "pinValue": 1,
                "ticks": 0,
                "event": {
                    "deltaTime": 0,
                    "type": "channel",
                    "subtype": "noteOn",
                    "channel": 1,
                    "noteNumber": 59,
                    "velocity": 111,
                    "lightChannels": [
                        9
                    ]
                }
            }
        }
    },
    {
        "changes": {
            "tree": 0,
            "col-1": 1
        },
        "timeout": 0.36585349999999994,
        "raw": {
            "tree": {
                "pinValue": 0,
                "ticks": 480,
                "event": {
                    "deltaTime": 480,
                    "type": "channel",
                    "subtype": "noteOff",
                    "channel": 1,
                    "noteNumber": 59,
                    "velocity": 0,
                    "lightChannels": [
                        9
                    ]
                }
            },
            "col-1": {
                "pinValue": 1,
                "ticks": 0,
                "event": {
                    "deltaTime": 0,
                    "type": "channel",
                    "subtype": "noteOn",
                    "channel": 1,
                    "noteNumber": 64,
                    "velocity": 111,
                    "lightChannels": [
                        3
                    ]
                }
            }
        }
    },
    {
        "changes": {
            "col-1": 0,
            "col-3": 1
        },
        "timeout": 0.36585349999999994,
        "raw": {
            "col-1": {
                "pinValue": 0,
                "ticks": 480,
                "event": {
                    "deltaTime": 480,
                    "type": "channel",
                    "subtype": "noteOff",
                    "channel": 1,
                    "noteNumber": 64,
                    "velocity": 0,
                    "lightChannels": [
                        3
                    ]
                }
            },
            "col-3": {
                "pinValue": 1,
                "ticks": 0,
                "event": {
                    "deltaTime": 0,
                    "type": "channel",
                    "subtype": "noteOn",
                    "channel": 1,
                    "noteNumber": 67,
                    "velocity": 111,
                    "lightChannels": [
                        5
                    ]
                }
            }
        }
    },
    {
        "changes": {
            "col-3": 0,
            "col-2": 1
        },
        "timeout": 0.36585349999999994,
        "raw": {
            "col-3": {
                "pinValue": 0,
                "ticks": 480,
                "event": {
                    "deltaTime": 480,
                    "type": "channel",
                    "subtype": "noteOff",
                    "channel": 1,
                    "noteNumber": 67,
                    "velocity": 0,
                    "lightChannels": [
                        5
                    ]
                }
            },
            "col-2": {
                "pinValue": 1,
                "ticks": 0,
                "event": {
                    "deltaTime": 0,
                    "type": "channel",
                    "subtype": "noteOn",
                    "channel": 1,
                    "noteNumber": 66,
                    "velocity": 111,
                    "lightChannels": [
                        4
                    ]
                }
            }
        }
    },
    {
        "changes": {
            "col-2": 0,
            "tree": 1
        },
        "timeout": 0.36585349999999994,
        "raw": {
            "col-2": {
                "pinValue": 0,
                "ticks": 0,
                "event": {
                    "deltaTime": 0,
                    "type": "channel",
                    "subtype": "noteOff",
                    "channel": 1,
                    "noteNumber": 66,
                    "velocity": 0,
                    "lightChannels": [
                        4
                    ]
                }
            },
            "tree": {
                "pinValue": 1,
                "ticks": 0,
                "event": {
                    "deltaTime": 0,
                    "type": "channel",
                    "subtype": "noteOn",
                    "channel": 1,
                    "noteNumber": 59,
                    "velocity": 111,
                    "lightChannels": [
                        9
                    ]
                }
            }
        }
    },
    {
        "changes": {
            "tree": 0,
            "col-1": 1
        },
        "timeout": 0.36585349999999994,
        "raw": {
            "tree": {
                "pinValue": 0,
                "ticks": 0,
                "event": {
                    "deltaTime": 0,
                    "type": "channel",
                    "subtype": "noteOff",
                    "channel": 1,
                    "noteNumber": 59,
                    "velocity": 0,
                    "lightChannels": [
                        9
                    ]
                }
            },
            "col-1": {
                "pinValue": 1,
                "ticks": 0,
                "event": {
                    "deltaTime": 0,
                    "type": "channel",
                    "subtype": "noteOn",
                    "channel": 1,
                    "noteNumber": 64,
                    "velocity": 111,
                    "lightChannels": [
                        3
                    ]
                }
            }
        }
    },
    {
        "changes": {
            "col-1": 0,
            "col-3": 1
        },
        "timeout": 0.36585349999999994,
        "raw": {
            "col-1": {
                "pinValue": 0,
                "ticks": 0,
                "event": {
                    "deltaTime": 0,
                    "type": "channel",
                    "subtype": "noteOff",
                    "channel": 1,
                    "noteNumber": 64,
                    "velocity": 0,
                    "lightChannels": [
                        3
                    ]
                }
            },
            "col-3": {
                "pinValue": 1,
                "ticks": 0,
                "event": {
                    "deltaTime": 0,
                    "type": "channel",
                    "subtype": "noteOn",
                    "channel": 1,
                    "noteNumber": 67,
                    "velocity": 111,
                    "lightChannels": [
                        5
                    ]
                }
            }
        }
    },
    {
        "changes": {
            "col-3": 0,
            "col-2": 1
        },
        "timeout": 0.36585349999999994,
        "raw": {
            "col-3": {
                "pinValue": 0,
                "ticks": 0,
                "event": {
                    "deltaTime": 0,
                    "type": "channel",
                    "subtype": "noteOff",
                    "channel": 1,
                    "noteNumber": 67,
                    "velocity": 0,
                    "lightChannels": [
                        5
                    ]
                }
            },
            "col-2": {
                "pinValue": 1,
                "ticks": 0,
                "event": {
                    "deltaTime": 0,
                    "type": "channel",
                    "subtype": "noteOn",
                    "channel": 1,
                    "noteNumber": 66,
                    "velocity": 111,
                    "lightChannels": [
                        4
                    ]
                }
            }
        }
    },
    {
        "changes": {
            "col-2": 0,
            "tree": 1
        },
        "timeout": 0.36585349999999994,
        "raw": {
            "col-2": {
                "pinValue": 0,
                "ticks": 0,
                "event": {
                    "deltaTime": 0,
                    "type": "channel",
                    "subtype": "noteOff",
                    "channel": 1,
                    "noteNumber": 66,
                    "velocity": 0,
                    "lightChannels": [
                        4
                    ]
                }
            },
            "tree": {
                "pinValue": 1,
                "ticks": 0,
                "event": {
                    "deltaTime": 0,
                    "type": "channel",
                    "subtype": "noteOn",
                    "channel": 1,
                    "noteNumber": 59,
                    "velocity": 111,
                    "lightChannels": [
                        9
                    ]
                }
            }
        }
    },
    {
        "changes": {
            "tree": 0,
            "col-1": 1
        },
        "timeout": 0.36585349999999994,
        "raw": {
            "tree": {
                "pinValue": 0,
                "ticks": 0,
                "event": {
                    "deltaTime": 0,
                    "type": "channel",
                    "subtype": "noteOff",
                    "channel": 1,
                    "noteNumber": 59,
                    "velocity": 0,
                    "lightChannels": [
                        9
                    ]
                }
            },
            "col-1": {
                "pinValue": 1,
                "ticks": 0,
                "event": {
                    "deltaTime": 0,
                    "type": "channel",
                    "subtype": "noteOn",
                    "channel": 1,
                    "noteNumber": 64,
                    "velocity": 111,
                    "lightChannels": [
                        3
                    ]
                }
            }
        }
    },
    {
        "changes": {
            "col-1": 0,
            "col-3": 1
        },
        "timeout": 0.36585349999999994,
        "raw": {
            "col-1": {
                "pinValue": 0,
                "ticks": 0,
                "event": {
                    "deltaTime": 0,
                    "type": "channel",
                    "subtype": "noteOff",
                    "channel": 1,
                    "noteNumber": 64,
                    "velocity": 0,
                    "lightChannels": [
                        3
                    ]
                }
            },
            "col-3": {
                "pinValue": 1,
                "ticks": 0,
                "event": {
                    "deltaTime": 0,
                    "type": "channel",
                    "subtype": "noteOn",
                    "channel": 1,
                    "noteNumber": 67,
                    "velocity": 111,
                    "lightChannels": [
                        5
                    ]
                }
            }
        }
    },
    {
        "changes": {
            "col-3": 0,
            "col-2": 1
        },
        "timeout": 0.36585349999999994,
        "raw": {
            "col-3": {
                "pinValue": 0,
                "ticks": 0,
                "event": {
                    "deltaTime": 0,
                    "type": "channel",
                    "subtype": "noteOff",
                    "channel": 1,
                    "noteNumber": 67,
                    "velocity": 0,
                    "lightChannels": [
                        5
                    ]
                }
            },
            "col-2": {
                "pinValue": 1,
                "ticks": 0,
                "event": {
                    "deltaTime": 0,
                    "type": "channel",
                    "subtype": "noteOn",
                    "channel": 1,
                    "noteNumber": 66,
                    "velocity": 111,
                    "lightChannels": [
                        4
                    ]
                }
            }
        }
    },
    {
        "changes": {
            "col-2": 0,
            "tree": 1
        },
        "timeout": 0.36585349999999994,
        "raw": {
            "col-2": {
                "pinValue": 0,
                "ticks": 0,
                "event": {
                    "deltaTime": 0,
                    "type": "channel",
                    "subtype": "noteOff",
                    "channel": 1,
                    "noteNumber": 66,
                    "velocity": 0,
                    "lightChannels": [
                        4
                    ]
                }
            },
            "tree": {
                "pinValue": 1,
                "ticks": 0,
                "event": {
                    "deltaTime": 0,
                    "type": "channel",
                    "subtype": "noteOn",
                    "channel": 1,
                    "noteNumber": 59,
                    "velocity": 111,
                    "lightChannels": [
                        9
                    ]
                }
            }
        }
    },
    {
        "changes": {
            "tree": 0,
            "col-1": 1
        },
        "timeout": 0.36585349999999994,
        "raw": {
            "tree": {
                "pinValue": 0,
                "ticks": 0,
                "event": {
                    "deltaTime": 0,
                    "type": "channel",
                    "subtype": "noteOff",
                    "channel": 1,
                    "noteNumber": 59,
                    "velocity": 0,
                    "lightChannels": [
                        9
                    ]
                }
            },
            "col-1": {
                "pinValue": 1,
                "ticks": 0,
                "event": {
                    "deltaTime": 0,
                    "type": "channel",
                    "subtype": "noteOn",
                    "channel": 1,
                    "noteNumber": 64,
                    "velocity": 111,
                    "lightChannels": [
                        3
                    ]
                }
            }
        }
    },
    {
        "changes": {
            "col-1": 0,
            "col-3": 1
        },
        "timeout": 0.36585349999999994,
        "raw": {
            "col-1": {
                "pinValue": 0,
                "ticks": 0,
                "event": {
                    "deltaTime": 0,
                    "type": "channel",
                    "subtype": "noteOff",
                    "channel": 1,
                    "noteNumber": 64,
                    "velocity": 0,
                    "lightChannels": [
                        3
                    ]
                }
            },
            "col-3": {
                "pinValue": 1,
                "ticks": 0,
                "event": {
                    "deltaTime": 0,
                    "type": "channel",
                    "subtype": "noteOn",
                    "channel": 1,
                    "noteNumber": 67,
                    "velocity": 111,
                    "lightChannels": [
                        5
                    ]
                }
            }
        }
    },
    {
        "changes": {
            "col-3": 0,
            "col-2": 1
        },
        "timeout": 0.36585349999999994,
        "raw": {
            "col-3": {
                "pinValue": 0,
                "ticks": 0,
                "event": {
                    "deltaTime": 0,
                    "type": "channel",
                    "subtype": "noteOff",
                    "channel": 1,
                    "noteNumber": 67,
                    "velocity": 0,
                    "lightChannels": [
                        5
                    ]
                }
            },
            "col-2": {
                "pinValue": 1,
                "ticks": 0,
                "event": {
                    "deltaTime": 0,
                    "type": "channel",
                    "subtype": "noteOn",
                    "channel": 1,
                    "noteNumber": 66,
                    "velocity": 111,
                    "lightChannels": [
                        4
                    ]
                }
            }
        }
    },
    {
        "changes": {
            "col-2": 0,
            "tree": 1
        },
        "timeout": 0.36585349999999994,
        "raw": {
            "col-2": {
                "pinValue": 0,
                "ticks": 0,
                "event": {
                    "deltaTime": 0,
                    "type": "channel",
                    "subtype": "noteOff",
                    "channel": 1,
                    "noteNumber": 66,
                    "velocity": 0,
                    "lightChannels": [
                        4
                    ]
                }
            },
            "tree": {
                "pinValue": 1,
                "ticks": 0,
                "event": {
                    "deltaTime": 0,
                    "type": "channel",
                    "subtype": "noteOn",
                    "channel": 1,
                    "noteNumber": 59,
                    "velocity": 111,
                    "lightChannels": [
                        9
                    ]
                }
            }
        }
    },
    {
        "changes": {
            "tree": 0,
            "col-1": 1
        },
        "timeout": 0.36585349999999994,
        "raw": {
            "tree": {
                "pinValue": 0,
                "ticks": 0,
                "event": {
                    "deltaTime": 0,
                    "type": "channel",
                    "subtype": "noteOff",
                    "channel": 1,
                    "noteNumber": 59,
                    "velocity": 0,
                    "lightChannels": [
                        9
                    ]
                }
            },
            "col-1": {
                "pinValue": 1,
                "ticks": 0,
                "event": {
                    "deltaTime": 0,
                    "type": "channel",
                    "subtype": "noteOn",
                    "channel": 1,
                    "noteNumber": 64,
                    "velocity": 111,
                    "lightChannels": [
                        3
                    ]
                }
            }
        }
    },
    {
        "changes": {
            "col-1": 0,
            "col-3": 1
        },
        "timeout": 0.36585349999999994,
        "raw": {
            "col-1": {
                "pinValue": 0,
                "ticks": 480,
                "event": {
                    "deltaTime": 480,
                    "type": "channel",
                    "subtype": "noteOff",
                    "channel": 1,
                    "noteNumber": 64,
                    "velocity": 0,
                    "lightChannels": [
                        3
                    ]
                }
            },
            "col-3": {
                "pinValue": 1,
                "ticks": 0,
                "event": {
                    "deltaTime": 0,
                    "type": "channel",
                    "subtype": "noteOn",
                    "channel": 1,
                    "noteNumber": 67,
                    "velocity": 111,
                    "lightChannels": [
                        5
                    ]
                }
            }
        }
    },
    {
        "changes": {
            "col-3": 0,
            "col-2": 1
        },
        "timeout": 0.36585349999999994,
        "raw": {
            "col-3": {
                "pinValue": 0,
                "ticks": 480,
                "event": {
                    "deltaTime": 480,
                    "type": "channel",
                    "subtype": "noteOff",
                    "channel": 1,
                    "noteNumber": 67,
                    "velocity": 0,
                    "lightChannels": [
                        5
                    ]
                }
            },
            "col-2": {
                "pinValue": 1,
                "ticks": 0,
                "event": {
                    "deltaTime": 0,
                    "type": "channel",
                    "subtype": "noteOn",
                    "channel": 1,
                    "noteNumber": 66,
                    "velocity": 111,
                    "lightChannels": [
                        4
                    ]
                }
            }
        }
    },
    {
        "changes": {
            "col-2": 0,
            "tree": 1
        },
        "timeout": 0.36585349999999994,
        "raw": {
            "col-2": {
                "pinValue": 0,
                "ticks": 480,
                "event": {
                    "deltaTime": 480,
                    "type": "channel",
                    "subtype": "noteOff",
                    "channel": 1,
                    "noteNumber": 66,
                    "velocity": 0,
                    "lightChannels": [
                        4
                    ]
                }
            },
            "tree": {
                "pinValue": 1,
                "ticks": 0,
                "event": {
                    "deltaTime": 0,
                    "type": "channel",
                    "subtype": "noteOn",
                    "channel": 1,
                    "noteNumber": 59,
                    "velocity": 111,
                    "lightChannels": [
                        9
                    ]
                }
            }
        }
    },
    {
        "changes": {
            "tree": 0,
            "col-1": 1
        },
        "timeout": 0.36585349999999994,
        "raw": {
            "tree": {
                "pinValue": 0,
                "ticks": 480,
                "event": {
                    "deltaTime": 480,
                    "type": "channel",
                    "subtype": "noteOff",
                    "channel": 1,
                    "noteNumber": 59,
                    "velocity": 0,
                    "lightChannels": [
                        9
                    ]
                }
            },
            "col-1": {
                "pinValue": 1,
                "ticks": 0,
                "event": {
                    "deltaTime": 0,
                    "type": "channel",
                    "subtype": "noteOn",
                    "channel": 1,
                    "noteNumber": 64,
                    "velocity": 111,
                    "lightChannels": [
                        3
                    ]
                }
            }
        }
    },
    {
        "changes": {
            "col-1": 0,
            "col-3": 1
        },
        "timeout": 0.36585349999999994,
        "raw": {
            "col-1": {
                "pinValue": 0,
                "ticks": 480,
                "event": {
                    "deltaTime": 480,
                    "type": "channel",
                    "subtype": "noteOff",
                    "channel": 1,
                    "noteNumber": 64,
                    "velocity": 0,
                    "lightChannels": [
                        3
                    ]
                }
            },
            "col-3": {
                "pinValue": 1,
                "ticks": 0,
                "event": {
                    "deltaTime": 0,
                    "type": "channel",
                    "subtype": "noteOn",
                    "channel": 1,
                    "noteNumber": 67,
                    "velocity": 111,
                    "lightChannels": [
                        5
                    ]
                }
            }
        }
    },
    {
        "changes": {
            "col-3": 0,
            "col-2": 1
        },
        "timeout": 0.36585349999999994,
        "raw": {
            "col-3": {
                "pinValue": 0,
                "ticks": 480,
                "event": {
                    "deltaTime": 480,
                    "type": "channel",
                    "subtype": "noteOff",
                    "channel": 1,
                    "noteNumber": 67,
                    "velocity": 0,
                    "lightChannels": [
                        5
                    ]
                }
            },
            "col-2": {
                "pinValue": 1,
                "ticks": 0,
                "event": {
                    "deltaTime": 0,
                    "type": "channel",
                    "subtype": "noteOn",
                    "channel": 1,
                    "noteNumber": 66,
                    "velocity": 111,
                    "lightChannels": [
                        4
                    ]
                }
            }
        }
    },
    {
        "changes": {
            "col-2": 0,
            "tree": 1
        },
        "timeout": 0.36585349999999994,
        "raw": {
            "col-2": {
                "pinValue": 0,
                "ticks": 480,
                "event": {
                    "deltaTime": 480,
                    "type": "channel",
                    "subtype": "noteOff",
                    "channel": 1,
                    "noteNumber": 66,
                    "velocity": 0,
                    "lightChannels": [
                        4
                    ]
                }
            },
            "tree": {
                "pinValue": 1,
                "ticks": 0,
                "event": {
                    "deltaTime": 0,
                    "type": "channel",
                    "subtype": "noteOn",
                    "channel": 1,
                    "noteNumber": 59,
                    "velocity": 111,
                    "lightChannels": [
                        9
                    ]
                }
            }
        }
    },
    {
        "changes": {
            "tree": 0,
            "col-1": 1
        },
        "timeout": 0.36585349999999994,
        "raw": {
            "tree": {
                "pinValue": 0,
                "ticks": 480,
                "event": {
                    "deltaTime": 480,
                    "type": "channel",
                    "subtype": "noteOff",
                    "channel": 1,
                    "noteNumber": 59,
                    "velocity": 0,
                    "lightChannels": [
                        9
                    ]
                }
            },
            "col-1": {
                "pinValue": 1,
                "ticks": 0,
                "event": {
                    "deltaTime": 0,
                    "type": "channel",
                    "subtype": "noteOn",
                    "channel": 1,
                    "noteNumber": 64,
                    "velocity": 111,
                    "lightChannels": [
                        3
                    ]
                }
            }
        }
    },
    {
        "changes": {
            "col-1": 0,
            "col-3": 1
        },
        "timeout": 0.36585349999999994,
        "raw": {
            "col-1": {
                "pinValue": 0,
                "ticks": 480,
                "event": {
                    "deltaTime": 480,
                    "type": "channel",
                    "subtype": "noteOff",
                    "channel": 1,
                    "noteNumber": 64,
                    "velocity": 0,
                    "lightChannels": [
                        3
                    ]
                }
            },
            "col-3": {
                "pinValue": 1,
                "ticks": 0,
                "event": {
                    "deltaTime": 0,
                    "type": "channel",
                    "subtype": "noteOn",
                    "channel": 1,
                    "noteNumber": 67,
                    "velocity": 111,
                    "lightChannels": [
                        5
                    ]
                }
            }
        }
    },
    {
        "changes": {
            "col-3": 0,
            "col-2": 1
        },
        "timeout": 0.36585349999999994,
        "raw": {
            "col-3": {
                "pinValue": 0,
                "ticks": 480,
                "event": {
                    "deltaTime": 480,
                    "type": "channel",
                    "subtype": "noteOff",
                    "channel": 1,
                    "noteNumber": 67,
                    "velocity": 0,
                    "lightChannels": [
                        5
                    ]
                }
            },
            "col-2": {
                "pinValue": 1,
                "ticks": 0,
                "event": {
                    "deltaTime": 0,
                    "type": "channel",
                    "subtype": "noteOn",
                    "channel": 1,
                    "noteNumber": 66,
                    "velocity": 111,
                    "lightChannels": [
                        4
                    ]
                }
            }
        }
    },
    {
        "changes": {
            "col-2": 0,
            "tree": 1
        },
        "timeout": 0.36585349999999994,
        "raw": {
            "col-2": {
                "pinValue": 0,
                "ticks": 480,
                "event": {
                    "deltaTime": 480,
                    "type": "channel",
                    "subtype": "noteOff",
                    "channel": 1,
                    "noteNumber": 66,
                    "velocity": 0,
                    "lightChannels": [
                        4
                    ]
                }
            },
            "tree": {
                "pinValue": 1,
                "ticks": 0,
                "event": {
                    "deltaTime": 0,
                    "type": "channel",
                    "subtype": "noteOn",
                    "channel": 1,
                    "noteNumber": 59,
                    "velocity": 111,
                    "lightChannels": [
                        9
                    ]
                }
            }
        }
    },
    {
        "changes": {
            "tree": 0,
            "col-1": 1
        },
        "timeout": 0.36585349999999994,
        "raw": {
            "tree": {
                "pinValue": 0,
                "ticks": 0,
                "event": {
                    "deltaTime": 0,
                    "type": "channel",
                    "subtype": "noteOff",
                    "channel": 1,
                    "noteNumber": 59,
                    "velocity": 0,
                    "lightChannels": [
                        9
                    ]
                }
            },
            "col-1": {
                "pinValue": 1,
                "ticks": 0,
                "event": {
                    "deltaTime": 0,
                    "type": "channel",
                    "subtype": "noteOn",
                    "channel": 1,
                    "noteNumber": 64,
                    "velocity": 111,
                    "lightChannels": [
                        3
                    ]
                }
            }
        }
    },
    {
        "changes": {
            "col-1": 0,
            "col-3": 1
        },
        "timeout": 0.36585349999999994,
        "raw": {
            "col-1": {
                "pinValue": 0,
                "ticks": 480,
                "event": {
                    "deltaTime": 480,
                    "type": "channel",
                    "subtype": "noteOff",
                    "channel": 1,
                    "noteNumber": 64,
                    "velocity": 0,
                    "lightChannels": [
                        3
                    ]
                }
            },
            "col-3": {
                "pinValue": 1,
                "ticks": 0,
                "event": {
                    "deltaTime": 0,
                    "type": "channel",
                    "subtype": "noteOn",
                    "channel": 1,
                    "noteNumber": 67,
                    "velocity": 111,
                    "lightChannels": [
                        5
                    ]
                }
            }
        }
    },
    {
        "changes": {
            "col-3": 0,
            "col-2": 1
        },
        "timeout": 0.36585349999999994,
        "raw": {
            "col-3": {
                "pinValue": 0,
                "ticks": 480,
                "event": {
                    "deltaTime": 480,
                    "type": "channel",
                    "subtype": "noteOff",
                    "channel": 1,
                    "noteNumber": 67,
                    "velocity": 0,
                    "lightChannels": [
                        5
                    ]
                }
            },
            "col-2": {
                "pinValue": 1,
                "ticks": 0,
                "event": {
                    "deltaTime": 0,
                    "type": "channel",
                    "subtype": "noteOn",
                    "channel": 1,
                    "noteNumber": 66,
                    "velocity": 111,
                    "lightChannels": [
                        4
                    ]
                }
            }
        }
    },
    {
        "changes": {
            "col-2": 0,
            "tree": 1
        },
        "timeout": 0.36585349999999994,
        "raw": {
            "col-2": {
                "pinValue": 0,
                "ticks": 0,
                "event": {
                    "deltaTime": 0,
                    "type": "channel",
                    "subtype": "noteOff",
                    "channel": 1,
                    "noteNumber": 66,
                    "velocity": 0,
                    "lightChannels": [
                        4
                    ]
                }
            },
            "tree": {
                "pinValue": 1,
                "ticks": 0,
                "event": {
                    "deltaTime": 0,
                    "type": "channel",
                    "subtype": "noteOn",
                    "channel": 1,
                    "noteNumber": 59,
                    "velocity": 111,
                    "lightChannels": [
                        9
                    ]
                }
            }
        }
    },
    {
        "changes": {
            "tree": 0,
            "col-1": 1
        },
        "timeout": 0.36585349999999994,
        "raw": {
            "tree": {
                "pinValue": 0,
                "ticks": 0,
                "event": {
                    "deltaTime": 0,
                    "type": "channel",
                    "subtype": "noteOff",
                    "channel": 1,
                    "noteNumber": 59,
                    "velocity": 0,
                    "lightChannels": [
                        9
                    ]
                }
            },
            "col-1": {
                "pinValue": 1,
                "ticks": 0,
                "event": {
                    "deltaTime": 0,
                    "type": "channel",
                    "subtype": "noteOn",
                    "channel": 1,
                    "noteNumber": 64,
                    "velocity": 111,
                    "lightChannels": [
                        3
                    ]
                }
            }
        }
    },
    {
        "changes": {
            "col-1": 0,
            "col-3": 1
        },
        "timeout": 0.36585349999999994,
        "raw": {
            "col-1": {
                "pinValue": 0,
                "ticks": 0,
                "event": {
                    "deltaTime": 0,
                    "type": "channel",
                    "subtype": "noteOff",
                    "channel": 1,
                    "noteNumber": 64,
                    "velocity": 0,
                    "lightChannels": [
                        3
                    ]
                }
            },
            "col-3": {
                "pinValue": 1,
                "ticks": 0,
                "event": {
                    "deltaTime": 0,
                    "type": "channel",
                    "subtype": "noteOn",
                    "channel": 1,
                    "noteNumber": 67,
                    "velocity": 111,
                    "lightChannels": [
                        5
                    ]
                }
            }
        }
    },
    {
        "changes": {
            "col-3": 0,
            "col-2": 1
        },
        "timeout": 0.36585349999999994,
        "raw": {
            "col-3": {
                "pinValue": 0,
                "ticks": 0,
                "event": {
                    "deltaTime": 0,
                    "type": "channel",
                    "subtype": "noteOff",
                    "channel": 1,
                    "noteNumber": 67,
                    "velocity": 0,
                    "lightChannels": [
                        5
                    ]
                }
            },
            "col-2": {
                "pinValue": 1,
                "ticks": 0,
                "event": {
                    "deltaTime": 0,
                    "type": "channel",
                    "subtype": "noteOn",
                    "channel": 1,
                    "noteNumber": 66,
                    "velocity": 111,
                    "lightChannels": [
                        4
                    ]
                }
            }
        }
    },
    {
        "changes": {
            "col-2": 0,
            "tree": 1
        },
        "timeout": 0.36585349999999994,
        "raw": {
            "col-2": {
                "pinValue": 0,
                "ticks": 0,
                "event": {
                    "deltaTime": 0,
                    "type": "channel",
                    "subtype": "noteOff",
                    "channel": 1,
                    "noteNumber": 66,
                    "velocity": 0,
                    "lightChannels": [
                        4
                    ]
                }
            },
            "tree": {
                "pinValue": 1,
                "ticks": 0,
                "event": {
                    "deltaTime": 0,
                    "type": "channel",
                    "subtype": "noteOn",
                    "channel": 1,
                    "noteNumber": 59,
                    "velocity": 111,
                    "lightChannels": [
                        9
                    ]
                }
            }
        }
    },
    {
        "changes": {
            "tree": 0,
            "col-1": 1
        },
        "timeout": 0.36585349999999994,
        "raw": {
            "tree": {
                "pinValue": 0,
                "ticks": 0,
                "event": {
                    "deltaTime": 0,
                    "type": "channel",
                    "subtype": "noteOff",
                    "channel": 1,
                    "noteNumber": 59,
                    "velocity": 0,
                    "lightChannels": [
                        9
                    ]
                }
            },
            "col-1": {
                "pinValue": 1,
                "ticks": 0,
                "event": {
                    "deltaTime": 0,
                    "type": "channel",
                    "subtype": "noteOn",
                    "channel": 1,
                    "noteNumber": 64,
                    "velocity": 111,
                    "lightChannels": [
                        3
                    ]
                }
            }
        }
    },
    {
        "changes": {
            "col-1": 0,
            "col-3": 1
        },
        "timeout": 0.36585349999999994,
        "raw": {
            "col-1": {
                "pinValue": 0,
                "ticks": 0,
                "event": {
                    "deltaTime": 0,
                    "type": "channel",
                    "subtype": "noteOff",
                    "channel": 1,
                    "noteNumber": 64,
                    "velocity": 0,
                    "lightChannels": [
                        3
                    ]
                }
            },
            "col-3": {
                "pinValue": 1,
                "ticks": 0,
                "event": {
                    "deltaTime": 0,
                    "type": "channel",
                    "subtype": "noteOn",
                    "channel": 1,
                    "noteNumber": 67,
                    "velocity": 111,
                    "lightChannels": [
                        5
                    ]
                }
            }
        }
    },
    {
        "changes": {
            "col-3": 0,
            "col-2": 1
        },
        "timeout": 0.36585349999999994,
        "raw": {
            "col-3": {
                "pinValue": 0,
                "ticks": 0,
                "event": {
                    "deltaTime": 0,
                    "type": "channel",
                    "subtype": "noteOff",
                    "channel": 1,
                    "noteNumber": 67,
                    "velocity": 0,
                    "lightChannels": [
                        5
                    ]
                }
            },
            "col-2": {
                "pinValue": 1,
                "ticks": 0,
                "event": {
                    "deltaTime": 0,
                    "type": "channel",
                    "subtype": "noteOn",
                    "channel": 1,
                    "noteNumber": 66,
                    "velocity": 111,
                    "lightChannels": [
                        4
                    ]
                }
            }
        }
    },
    {
        "changes": {
            "col-2": 0,
            "tree": 1
        },
        "timeout": 0.36585349999999994,
        "raw": {
            "col-2": {
                "pinValue": 0,
                "ticks": 0,
                "event": {
                    "deltaTime": 0,
                    "type": "channel",
                    "subtype": "noteOff",
                    "channel": 1,
                    "noteNumber": 66,
                    "velocity": 0,
                    "lightChannels": [
                        4
                    ]
                }
            },
            "tree": {
                "pinValue": 1,
                "ticks": 0,
                "event": {
                    "deltaTime": 0,
                    "type": "channel",
                    "subtype": "noteOn",
                    "channel": 1,
                    "noteNumber": 59,
                    "velocity": 111,
                    "lightChannels": [
                        9
                    ]
                }
            }
        }
    },
    {
        "changes": {
            "tree": 0,
            "col-1": 1
        },
        "timeout": 0.36585349999999994,
        "raw": {
            "tree": {
                "pinValue": 0,
                "ticks": 0,
                "event": {
                    "deltaTime": 0,
                    "type": "channel",
                    "subtype": "noteOff",
                    "channel": 1,
                    "noteNumber": 59,
                    "velocity": 0,
                    "lightChannels": [
                        9
                    ]
                }
            },
            "col-1": {
                "pinValue": 1,
                "ticks": 0,
                "event": {
                    "deltaTime": 0,
                    "type": "channel",
                    "subtype": "noteOn",
                    "channel": 1,
                    "noteNumber": 64,
                    "velocity": 111,
                    "lightChannels": [
                        3
                    ]
                }
            }
        }
    },
    {
        "changes": {
            "col-1": 0,
            "col-3": 1
        },
        "timeout": 0.36585349999999994,
        "raw": {
            "col-1": {
                "pinValue": 0,
                "ticks": 480,
                "event": {
                    "deltaTime": 480,
                    "type": "channel",
                    "subtype": "noteOff",
                    "channel": 1,
                    "noteNumber": 64,
                    "velocity": 0,
                    "lightChannels": [
                        3
                    ]
                }
            },
            "col-3": {
                "pinValue": 1,
                "ticks": 0,
                "event": {
                    "deltaTime": 0,
                    "type": "channel",
                    "subtype": "noteOn",
                    "channel": 1,
                    "noteNumber": 67,
                    "velocity": 111,
                    "lightChannels": [
                        5
                    ]
                }
            }
        }
    },
    {
        "changes": {
            "col-3": 0,
            "col-2": 1
        },
        "timeout": 0.36585349999999994,
        "raw": {
            "col-3": {
                "pinValue": 0,
                "ticks": 480,
                "event": {
                    "deltaTime": 480,
                    "type": "channel",
                    "subtype": "noteOff",
                    "channel": 1,
                    "noteNumber": 67,
                    "velocity": 0,
                    "lightChannels": [
                        5
                    ]
                }
            },
            "col-2": {
                "pinValue": 1,
                "ticks": 0,
                "event": {
                    "deltaTime": 0,
                    "type": "channel",
                    "subtype": "noteOn",
                    "channel": 1,
                    "noteNumber": 66,
                    "velocity": 111,
                    "lightChannels": [
                        4
                    ]
                }
            }
        }
    },
    {
        "changes": {
            "col-2": 0,
            "tree": 1
        },
        "timeout": 0.36585349999999994,
        "raw": {
            "col-2": {
                "pinValue": 0,
                "ticks": 480,
                "event": {
                    "deltaTime": 480,
                    "type": "channel",
                    "subtype": "noteOff",
                    "channel": 1,
                    "noteNumber": 66,
                    "velocity": 0,
                    "lightChannels": [
                        4
                    ]
                }
            },
            "tree": {
                "pinValue": 1,
                "ticks": 0,
                "event": {
                    "deltaTime": 0,
                    "type": "channel",
                    "subtype": "noteOn",
                    "channel": 1,
                    "noteNumber": 59,
                    "velocity": 111,
                    "lightChannels": [
                        9
                    ]
                }
            }
        }
    },
    {
        "changes": {
            "tree": 0,
            "col-1": 1
        },
        "timeout": 0.36585349999999994,
        "raw": {
            "tree": {
                "pinValue": 0,
                "ticks": 480,
                "event": {
                    "deltaTime": 480,
                    "type": "channel",
                    "subtype": "noteOff",
                    "channel": 1,
                    "noteNumber": 59,
                    "velocity": 0,
                    "lightChannels": [
                        9
                    ]
                }
            },
            "col-1": {
                "pinValue": 1,
                "ticks": 0,
                "event": {
                    "deltaTime": 0,
                    "type": "channel",
                    "subtype": "noteOn",
                    "channel": 1,
                    "noteNumber": 64,
                    "velocity": 111,
                    "lightChannels": [
                        3
                    ]
                }
            }
        }
    },
    {
        "changes": {
            "col-1": 0,
            "col-3": 1
        },
        "timeout": 0.36585349999999994,
        "raw": {
            "col-1": {
                "pinValue": 0,
                "ticks": 480,
                "event": {
                    "deltaTime": 480,
                    "type": "channel",
                    "subtype": "noteOff",
                    "channel": 1,
                    "noteNumber": 64,
                    "velocity": 0,
                    "lightChannels": [
                        3
                    ]
                }
            },
            "col-3": {
                "pinValue": 1,
                "ticks": 0,
                "event": {
                    "deltaTime": 0,
                    "type": "channel",
                    "subtype": "noteOn",
                    "channel": 1,
                    "noteNumber": 67,
                    "velocity": 111,
                    "lightChannels": [
                        5
                    ]
                }
            }
        }
    },
    {
        "changes": {
            "col-3": 0,
            "col-2": 1
        },
        "timeout": 0.36585349999999994,
        "raw": {
            "col-3": {
                "pinValue": 0,
                "ticks": 480,
                "event": {
                    "deltaTime": 480,
                    "type": "channel",
                    "subtype": "noteOff",
                    "channel": 1,
                    "noteNumber": 67,
                    "velocity": 0,
                    "lightChannels": [
                        5
                    ]
                }
            },
            "col-2": {
                "pinValue": 1,
                "ticks": 0,
                "event": {
                    "deltaTime": 0,
                    "type": "channel",
                    "subtype": "noteOn",
                    "channel": 1,
                    "noteNumber": 66,
                    "velocity": 111,
                    "lightChannels": [
                        4
                    ]
                }
            }
        }
    },
    {
        "changes": {
            "col-2": 0,
            "tree": 1
        },
        "timeout": 0.36585349999999994,
        "raw": {
            "col-2": {
                "pinValue": 0,
                "ticks": 0,
                "event": {
                    "deltaTime": 0,
                    "type": "channel",
                    "subtype": "noteOff",
                    "channel": 1,
                    "noteNumber": 66,
                    "velocity": 0,
                    "lightChannels": [
                        4
                    ]
                }
            },
            "tree": {
                "pinValue": 1,
                "ticks": 0,
                "event": {
                    "deltaTime": 0,
                    "type": "channel",
                    "subtype": "noteOn",
                    "channel": 1,
                    "noteNumber": 59,
                    "velocity": 111,
                    "lightChannels": [
                        9
                    ]
                }
            }
        }
    },
    {
        "changes": {
            "tree": 0,
            "col-1": 1
        },
        "timeout": 0.36585349999999994,
        "raw": {
            "tree": {
                "pinValue": 0,
                "ticks": 0,
                "event": {
                    "deltaTime": 0,
                    "type": "channel",
                    "subtype": "noteOff",
                    "channel": 1,
                    "noteNumber": 59,
                    "velocity": 0,
                    "lightChannels": [
                        9
                    ]
                }
            },
            "col-1": {
                "pinValue": 1,
                "ticks": 0,
                "event": {
                    "deltaTime": 0,
                    "type": "channel",
                    "subtype": "noteOn",
                    "channel": 1,
                    "noteNumber": 64,
                    "velocity": 111,
                    "lightChannels": [
                        3
                    ]
                }
            }
        }
    },
    {
        "changes": {
            "col-1": 0,
            "col-3": 1
        },
        "timeout": 0.36585349999999994,
        "raw": {
            "col-1": {
                "pinValue": 0,
                "ticks": 0,
                "event": {
                    "deltaTime": 0,
                    "type": "channel",
                    "subtype": "noteOff",
                    "channel": 1,
                    "noteNumber": 64,
                    "velocity": 0,
                    "lightChannels": [
                        3
                    ]
                }
            },
            "col-3": {
                "pinValue": 1,
                "ticks": 0,
                "event": {
                    "deltaTime": 0,
                    "type": "channel",
                    "subtype": "noteOn",
                    "channel": 1,
                    "noteNumber": 67,
                    "velocity": 111,
                    "lightChannels": [
                        5
                    ]
                }
            }
        }
    },
    {
        "changes": {
            "col-3": 0,
            "col-2": 1
        },
        "timeout": 0.36585349999999994,
        "raw": {
            "col-3": {
                "pinValue": 0,
                "ticks": 0,
                "event": {
                    "deltaTime": 0,
                    "type": "channel",
                    "subtype": "noteOff",
                    "channel": 1,
                    "noteNumber": 67,
                    "velocity": 0,
                    "lightChannels": [
                        5
                    ]
                }
            },
            "col-2": {
                "pinValue": 1,
                "ticks": 0,
                "event": {
                    "deltaTime": 0,
                    "type": "channel",
                    "subtype": "noteOn",
                    "channel": 1,
                    "noteNumber": 66,
                    "velocity": 111,
                    "lightChannels": [
                        4
                    ]
                }
            }
        }
    },
    {
        "changes": {
            "col-2": 0,
            "tree": 1
        },
        "timeout": 0.36585349999999994,
        "raw": {
            "col-2": {
                "pinValue": 0,
                "ticks": 0,
                "event": {
                    "deltaTime": 0,
                    "type": "channel",
                    "subtype": "noteOff",
                    "channel": 1,
                    "noteNumber": 66,
                    "velocity": 0,
                    "lightChannels": [
                        4
                    ]
                }
            },
            "tree": {
                "pinValue": 1,
                "ticks": 0,
                "event": {
                    "deltaTime": 0,
                    "type": "channel",
                    "subtype": "noteOn",
                    "channel": 1,
                    "noteNumber": 59,
                    "velocity": 111,
                    "lightChannels": [
                        9
                    ]
                }
            }
        }
    },
    {
        "changes": {
            "tree": 0,
            "col-1": 1
        },
        "timeout": 0.36585349999999994,
        "raw": {
            "tree": {
                "pinValue": 0,
                "ticks": 0,
                "event": {
                    "deltaTime": 0,
                    "type": "channel",
                    "subtype": "noteOff",
                    "channel": 1,
                    "noteNumber": 59,
                    "velocity": 0,
                    "lightChannels": [
                        9
                    ]
                }
            },
            "col-1": {
                "pinValue": 1,
                "ticks": 0,
                "event": {
                    "deltaTime": 0,
                    "type": "channel",
                    "subtype": "noteOn",
                    "channel": 1,
                    "noteNumber": 64,
                    "velocity": 111,
                    "lightChannels": [
                        3
                    ]
                }
            }
        }
    },
    {
        "changes": {
            "col-1": 0,
            "col-3": 1
        },
        "timeout": 0.36585349999999994,
        "raw": {
            "col-1": {
                "pinValue": 0,
                "ticks": 0,
                "event": {
                    "deltaTime": 0,
                    "type": "channel",
                    "subtype": "noteOff",
                    "channel": 1,
                    "noteNumber": 64,
                    "velocity": 0,
                    "lightChannels": [
                        3
                    ]
                }
            },
            "col-3": {
                "pinValue": 1,
                "ticks": 0,
                "event": {
                    "deltaTime": 0,
                    "type": "channel",
                    "subtype": "noteOn",
                    "channel": 1,
                    "noteNumber": 67,
                    "velocity": 111,
                    "lightChannels": [
                        5
                    ]
                }
            }
        }
    },
    {
        "changes": {
            "col-3": 0,
            "col-2": 1
        },
        "timeout": 0.36585349999999994,
        "raw": {
            "col-3": {
                "pinValue": 0,
                "ticks": 0,
                "event": {
                    "deltaTime": 0,
                    "type": "channel",
                    "subtype": "noteOff",
                    "channel": 1,
                    "noteNumber": 67,
                    "velocity": 0,
                    "lightChannels": [
                        5
                    ]
                }
            },
            "col-2": {
                "pinValue": 1,
                "ticks": 0,
                "event": {
                    "deltaTime": 0,
                    "type": "channel",
                    "subtype": "noteOn",
                    "channel": 1,
                    "noteNumber": 66,
                    "velocity": 111,
                    "lightChannels": [
                        4
                    ]
                }
            }
        }
    },
    {
        "changes": {
            "col-2": 0,
            "tree": 1
        },
        "timeout": 0.36585349999999994,
        "raw": {
            "col-2": {
                "pinValue": 0,
                "ticks": 0,
                "event": {
                    "deltaTime": 0,
                    "type": "channel",
                    "subtype": "noteOff",
                    "channel": 1,
                    "noteNumber": 66,
                    "velocity": 0,
                    "lightChannels": [
                        4
                    ]
                }
            },
            "tree": {
                "pinValue": 1,
                "ticks": 0,
                "event": {
                    "deltaTime": 0,
                    "type": "channel",
                    "subtype": "noteOn",
                    "channel": 1,
                    "noteNumber": 59,
                    "velocity": 111,
                    "lightChannels": [
                        9
                    ]
                }
            }
        }
    },
    {
        "changes": {
            "tree": 0,
            "col-1": 1
        },
        "timeout": 0.36585349999999994,
        "raw": {
            "tree": {
                "pinValue": 0,
                "ticks": 0,
                "event": {
                    "deltaTime": 0,
                    "type": "channel",
                    "subtype": "noteOff",
                    "channel": 1,
                    "noteNumber": 59,
                    "velocity": 0,
                    "lightChannels": [
                        9
                    ]
                }
            },
            "col-1": {
                "pinValue": 1,
                "ticks": 0,
                "event": {
                    "deltaTime": 0,
                    "type": "channel",
                    "subtype": "noteOn",
                    "channel": 1,
                    "noteNumber": 64,
                    "velocity": 111,
                    "lightChannels": [
                        3
                    ]
                }
            }
        }
    },
    {
        "changes": {
            "col-1": 0,
            "col-3": 1
        },
        "timeout": 0.36585349999999994,
        "raw": {
            "col-1": {
                "pinValue": 0,
                "ticks": 480,
                "event": {
                    "deltaTime": 480,
                    "type": "channel",
                    "subtype": "noteOff",
                    "channel": 1,
                    "noteNumber": 64,
                    "velocity": 0,
                    "lightChannels": [
                        3
                    ]
                }
            },
            "col-3": {
                "pinValue": 1,
                "ticks": 0,
                "event": {
                    "deltaTime": 0,
                    "type": "channel",
                    "subtype": "noteOn",
                    "channel": 1,
                    "noteNumber": 67,
                    "velocity": 111,
                    "lightChannels": [
                        5
                    ]
                }
            }
        }
    },
    {
        "changes": {
            "col-3": 0,
            "col-2": 1
        },
        "timeout": 0.36585349999999994,
        "raw": {
            "col-3": {
                "pinValue": 0,
                "ticks": 480,
                "event": {
                    "deltaTime": 480,
                    "type": "channel",
                    "subtype": "noteOff",
                    "channel": 1,
                    "noteNumber": 67,
                    "velocity": 0,
                    "lightChannels": [
                        5
                    ]
                }
            },
            "col-2": {
                "pinValue": 1,
                "ticks": 0,
                "event": {
                    "deltaTime": 0,
                    "type": "channel",
                    "subtype": "noteOn",
                    "channel": 1,
                    "noteNumber": 66,
                    "velocity": 111,
                    "lightChannels": [
                        4
                    ]
                }
            }
        }
    },
    {
        "changes": {
            "col-2": 0,
            "tree": 1
        },
        "timeout": 0.36585349999999994,
        "raw": {
            "col-2": {
                "pinValue": 0,
                "ticks": 480,
                "event": {
                    "deltaTime": 480,
                    "type": "channel",
                    "subtype": "noteOff",
                    "channel": 1,
                    "noteNumber": 66,
                    "velocity": 0,
                    "lightChannels": [
                        4
                    ]
                }
            },
            "tree": {
                "pinValue": 1,
                "ticks": 0,
                "event": {
                    "deltaTime": 0,
                    "type": "channel",
                    "subtype": "noteOn",
                    "channel": 1,
                    "noteNumber": 59,
                    "velocity": 111,
                    "lightChannels": [
                        9
                    ]
                }
            }
        }
    },
    {
        "changes": {
            "tree": 0,
            "col-1": 1
        },
        "timeout": 0.36585349999999994,
        "raw": {
            "tree": {
                "pinValue": 0,
                "ticks": 480,
                "event": {
                    "deltaTime": 480,
                    "type": "channel",
                    "subtype": "noteOff",
                    "channel": 1,
                    "noteNumber": 59,
                    "velocity": 0,
                    "lightChannels": [
                        9
                    ]
                }
            },
            "col-1": {
                "pinValue": 1,
                "ticks": 0,
                "event": {
                    "deltaTime": 0,
                    "type": "channel",
                    "subtype": "noteOn",
                    "channel": 1,
                    "noteNumber": 64,
                    "velocity": 111,
                    "lightChannels": [
                        3
                    ]
                }
            }
        }
    },
    {
        "changes": {
            "col-1": 0,
            "col-3": 1
        },
        "timeout": 0.54878025,
        "raw": {
            "col-1": {
                "pinValue": 0,
                "ticks": 720,
                "event": {
                    "deltaTime": 720,
                    "type": "channel",
                    "subtype": "noteOff",
                    "channel": 1,
                    "noteNumber": 64,
                    "velocity": 0,
                    "lightChannels": [
                        3
                    ]
                }
            },
            "col-3": {
                "pinValue": 1,
                "ticks": 0,
                "event": {
                    "deltaTime": 0,
                    "type": "channel",
                    "subtype": "noteOn",
                    "channel": 1,
                    "noteNumber": 67,
                    "velocity": 111,
                    "lightChannels": [
                        5
                    ]
                }
            }
        }
    },
    {
        "changes": {
            "col-3": 0,
            "col-2": 1
        },
        "timeout": 0.5487802499999999,
        "raw": {
            "col-3": {
                "pinValue": 0,
                "ticks": 240,
                "event": {
                    "deltaTime": 240,
                    "type": "channel",
                    "subtype": "noteOff",
                    "channel": 1,
                    "noteNumber": 67,
                    "velocity": 0,
                    "lightChannels": [
                        5
                    ]
                }
            },
            "col-2": {
                "pinValue": 1,
                "ticks": 0,
                "event": {
                    "deltaTime": 0,
                    "type": "channel",
                    "subtype": "noteOn",
                    "channel": 1,
                    "noteNumber": 66,
                    "velocity": 111,
                    "lightChannels": [
                        4
                    ]
                }
            }
        }
    },
    {
        "changes": {
            "col-2": 1,
            "col-1": 1,
            "col-3": 1,
            "garden": 1,
            "tree": 1
        },
        "timeout": 0.36585349999999994,
        "raw": {
            "col-2": {
                "pinValue": 1,
                "ticks": 0,
                "event": {
                    "deltaTime": 0,
                    "type": "channel",
                    "subtype": "noteOn",
                    "channel": 1,
                    "noteNumber": 59,
                    "velocity": 111,
                    "lightChannels": [
                        3,
                        4,
                        5,
                        8,
                        9
                    ]
                }
            },
            "col-1": {
                "pinValue": 1,
                "ticks": 0,
                "event": {
                    "deltaTime": 0,
                    "type": "channel",
                    "subtype": "noteOn",
                    "channel": 1,
                    "noteNumber": 59,
                    "velocity": 111,
                    "lightChannels": [
                        3,
                        4,
                        5,
                        8,
                        9
                    ]
                }
            },
            "col-3": {
                "pinValue": 1,
                "ticks": 0,
                "event": {
                    "deltaTime": 0,
                    "type": "channel",
                    "subtype": "noteOn",
                    "channel": 1,
                    "noteNumber": 59,
                    "velocity": 111,
                    "lightChannels": [
                        3,
                        4,
                        5,
                        8,
                        9
                    ]
                }
            },
            "garden": {
                "pinValue": 1,
                "ticks": 0,
                "event": {
                    "deltaTime": 0,
                    "type": "channel",
                    "subtype": "noteOn",
                    "channel": 1,
                    "noteNumber": 59,
                    "velocity": 111,
                    "lightChannels": [
                        3,
                        4,
                        5,
                        8,
                        9
                    ]
                }
            },
            "tree": {
                "pinValue": 1,
                "ticks": 0,
                "event": {
                    "deltaTime": 0,
                    "type": "channel",
                    "subtype": "noteOn",
                    "channel": 1,
                    "noteNumber": 59,
                    "velocity": 111,
                    "lightChannels": [
                        3,
                        4,
                        5,
                        8,
                        9
                    ]
                }
            }
        }
    },
    {
        "changes": {
            "garage": 1,
            "top-right": 1,
            "bottom-right": 1,
            "window": 1,
            "outline": 1,
            "col-1": 0,
            "col-2": 0,
            "col-3": 0,
            "garden": 0,
            "tree": 0
        },
        "timeout": 1.4634139999999998,
        "raw": {
            "garage": {
                "pinValue": 1,
                "ticks": 0,
                "event": {
                    "deltaTime": 0,
                    "type": "channel",
                    "subtype": "noteOn",
                    "channel": 0,
                    "noteNumber": 52,
                    "velocity": 95,
                    "lightChannels": [
                        0,
                        1,
                        2,
                        6,
                        7
                    ]
                }
            },
            "top-right": {
                "pinValue": 1,
                "ticks": 0,
                "event": {
                    "deltaTime": 0,
                    "type": "channel",
                    "subtype": "noteOn",
                    "channel": 0,
                    "noteNumber": 52,
                    "velocity": 95,
                    "lightChannels": [
                        0,
                        1,
                        2,
                        6,
                        7
                    ]
                }
            },
            "bottom-right": {
                "pinValue": 1,
                "ticks": 0,
                "event": {
                    "deltaTime": 0,
                    "type": "channel",
                    "subtype": "noteOn",
                    "channel": 0,
                    "noteNumber": 52,
                    "velocity": 95,
                    "lightChannels": [
                        0,
                        1,
                        2,
                        6,
                        7
                    ]
                }
            },
            "window": {
                "pinValue": 1,
                "ticks": 0,
                "event": {
                    "deltaTime": 0,
                    "type": "channel",
                    "subtype": "noteOn",
                    "channel": 0,
                    "noteNumber": 52,
                    "velocity": 95,
                    "lightChannels": [
                        0,
                        1,
                        2,
                        6,
                        7
                    ]
                }
            },
            "outline": {
                "pinValue": 1,
                "ticks": 0,
                "event": {
                    "deltaTime": 0,
                    "type": "channel",
                    "subtype": "noteOn",
                    "channel": 0,
                    "noteNumber": 52,
                    "velocity": 95,
                    "lightChannels": [
                        0,
                        1,
                        2,
                        6,
                        7
                    ]
                }
            },
            "col-1": {
                "pinValue": 0,
                "ticks": 0,
                "event": {
                    "deltaTime": 0,
                    "type": "channel",
                    "subtype": "noteOff",
                    "channel": 1,
                    "noteNumber": 59,
                    "velocity": 0,
                    "lightChannels": [
                        3,
                        4,
                        5,
                        8,
                        9
                    ]
                }
            },
            "col-2": {
                "pinValue": 0,
                "ticks": 0,
                "event": {
                    "deltaTime": 0,
                    "type": "channel",
                    "subtype": "noteOff",
                    "channel": 1,
                    "noteNumber": 59,
                    "velocity": 0,
                    "lightChannels": [
                        3,
                        4,
                        5,
                        8,
                        9
                    ]
                }
            },
            "col-3": {
                "pinValue": 0,
                "ticks": 0,
                "event": {
                    "deltaTime": 0,
                    "type": "channel",
                    "subtype": "noteOff",
                    "channel": 1,
                    "noteNumber": 59,
                    "velocity": 0,
                    "lightChannels": [
                        3,
                        4,
                        5,
                        8,
                        9
                    ]
                }
            },
            "garden": {
                "pinValue": 0,
                "ticks": 0,
                "event": {
                    "deltaTime": 0,
                    "type": "channel",
                    "subtype": "noteOff",
                    "channel": 1,
                    "noteNumber": 59,
                    "velocity": 0,
                    "lightChannels": [
                        3,
                        4,
                        5,
                        8,
                        9
                    ]
                }
            },
            "tree": {
                "pinValue": 0,
                "ticks": 0,
                "event": {
                    "deltaTime": 0,
                    "type": "channel",
                    "subtype": "noteOff",
                    "channel": 1,
                    "noteNumber": 59,
                    "velocity": 0,
                    "lightChannels": [
                        3,
                        4,
                        5,
                        8,
                        9
                    ]
                }
            }
        }
    },
    {
        "changes": {
            "garage": 0,
            "top-right": 0,
            "bottom-right": 0,
            "window": 0,
            "outline": 0,
            "col-1": 1
        },
        "timeout": 2.9268279999999995,
        "raw": {
            "garage": {
                "pinValue": 0,
                "ticks": 3840,
                "event": {
                    "deltaTime": 3840,
                    "type": "channel",
                    "subtype": "noteOff",
                    "channel": 0,
                    "noteNumber": 52,
                    "velocity": 0,
                    "lightChannels": [
                        0,
                        1,
                        2,
                        6,
                        7
                    ]
                }
            },
            "top-right": {
                "pinValue": 0,
                "ticks": 3840,
                "event": {
                    "deltaTime": 3840,
                    "type": "channel",
                    "subtype": "noteOff",
                    "channel": 0,
                    "noteNumber": 52,
                    "velocity": 0,
                    "lightChannels": [
                        0,
                        1,
                        2,
                        6,
                        7
                    ]
                }
            },
            "bottom-right": {
                "pinValue": 0,
                "ticks": 3840,
                "event": {
                    "deltaTime": 3840,
                    "type": "channel",
                    "subtype": "noteOff",
                    "channel": 0,
                    "noteNumber": 52,
                    "velocity": 0,
                    "lightChannels": [
                        0,
                        1,
                        2,
                        6,
                        7
                    ]
                }
            },
            "window": {
                "pinValue": 0,
                "ticks": 3840,
                "event": {
                    "deltaTime": 3840,
                    "type": "channel",
                    "subtype": "noteOff",
                    "channel": 0,
                    "noteNumber": 52,
                    "velocity": 0,
                    "lightChannels": [
                        0,
                        1,
                        2,
                        6,
                        7
                    ]
                }
            },
            "outline": {
                "pinValue": 0,
                "ticks": 3840,
                "event": {
                    "deltaTime": 3840,
                    "type": "channel",
                    "subtype": "noteOff",
                    "channel": 0,
                    "noteNumber": 52,
                    "velocity": 0,
                    "lightChannels": [
                        0,
                        1,
                        2,
                        6,
                        7
                    ]
                }
            },
            "col-1": {
                "pinValue": 1,
                "ticks": 0,
                "event": {
                    "deltaTime": 0,
                    "type": "channel",
                    "subtype": "noteOn",
                    "channel": 5,
                    "noteNumber": 64,
                    "velocity": 111,
                    "lightChannels": [
                        3
                    ]
                }
            }
        }
    },
    {
        "changes": {
            "col-1": 0
        },
        "timeout": 0.1578945,
        "raw": {
            "col-1": {
                "pinValue": 0,
                "ticks": 240,
                "event": {
                    "deltaTime": 240,
                    "type": "channel",
                    "subtype": "noteOff",
                    "channel": 5,
                    "noteNumber": 64,
                    "velocity": 0,
                    "lightChannels": [
                        3
                    ]
                }
            }
        }
    },
    {
        "changes": {
            "tree": 1
        },
        "timeout": 0.1578945,
        "raw": {
            "tree": {
                "pinValue": 1,
                "ticks": 240,
                "event": {
                    "deltaTime": 240,
                    "type": "channel",
                    "subtype": "noteOn",
                    "channel": 5,
                    "noteNumber": 59,
                    "velocity": 111,
                    "lightChannels": [
                        9
                    ]
                }
            }
        }
    },
    {
        "changes": {
            "tree": 0,
            "col-3": 1
        },
        "timeout": 0.1578945,
        "raw": {
            "tree": {
                "pinValue": 0,
                "ticks": 240,
                "event": {
                    "deltaTime": 240,
                    "type": "channel",
                    "subtype": "noteOff",
                    "channel": 5,
                    "noteNumber": 59,
                    "velocity": 0,
                    "lightChannels": [
                        9
                    ]
                }
            },
            "col-3": {
                "pinValue": 1,
                "ticks": 0,
                "event": {
                    "deltaTime": 0,
                    "type": "channel",
                    "subtype": "noteOn",
                    "channel": 5,
                    "noteNumber": 64,
                    "velocity": 111,
                    "lightChannels": [
                        5
                    ]
                }
            }
        }
    },
    {
        "changes": {
            "col-3": 0,
            "garden": 1
        },
        "timeout": 0.1578945,
        "raw": {
            "col-3": {
                "pinValue": 0,
                "ticks": 240,
                "event": {
                    "deltaTime": 240,
                    "type": "channel",
                    "subtype": "noteOff",
                    "channel": 5,
                    "noteNumber": 64,
                    "velocity": 0,
                    "lightChannels": [
                        5
                    ]
                }
            },
            "garden": {
                "pinValue": 1,
                "ticks": 0,
                "event": {
                    "deltaTime": 0,
                    "type": "channel",
                    "subtype": "noteOn",
                    "channel": 5,
                    "noteNumber": 59,
                    "velocity": 111,
                    "lightChannels": [
                        8
                    ]
                }
            }
        }
    },
    {
        "changes": {
            "garden": 0,
            "tree": 1
        },
        "timeout": 0.1578945,
        "raw": {
            "garden": {
                "pinValue": 0,
                "ticks": 240,
                "event": {
                    "deltaTime": 240,
                    "type": "channel",
                    "subtype": "noteOff",
                    "channel": 5,
                    "noteNumber": 59,
                    "velocity": 0,
                    "lightChannels": [
                        8
                    ]
                }
            },
            "tree": {
                "pinValue": 1,
                "ticks": 0,
                "event": {
                    "deltaTime": 0,
                    "type": "channel",
                    "subtype": "noteOn",
                    "channel": 5,
                    "noteNumber": 59,
                    "velocity": 111,
                    "lightChannels": [
                        9
                    ]
                }
            }
        }
    },
    {
        "changes": {
            "tree": 0,
            "col-2": 1
        },
        "timeout": 0.1578945,
        "raw": {
            "tree": {
                "pinValue": 0,
                "ticks": 240,
                "event": {
                    "deltaTime": 240,
                    "type": "channel",
                    "subtype": "noteOff",
                    "channel": 5,
                    "noteNumber": 59,
                    "velocity": 0,
                    "lightChannels": [
                        9
                    ]
                }
            },
            "col-2": {
                "pinValue": 1,
                "ticks": 0,
                "event": {
                    "deltaTime": 0,
                    "type": "channel",
                    "subtype": "noteOn",
                    "channel": 5,
                    "noteNumber": 64,
                    "velocity": 111,
                    "lightChannels": [
                        4
                    ]
                }
            }
        }
    },
    {
        "changes": {
            "col-2": 0
        },
        "timeout": 0.1578945,
        "raw": {
            "col-2": {
                "pinValue": 0,
                "ticks": 240,
                "event": {
                    "deltaTime": 240,
                    "type": "channel",
                    "subtype": "noteOff",
                    "channel": 5,
                    "noteNumber": 64,
                    "velocity": 0,
                    "lightChannels": [
                        4
                    ]
                }
            }
        }
    },
    {
        "changes": {
            "col-1": 1
        },
        "timeout": 0.1578945,
        "raw": {
            "col-1": {
                "pinValue": 1,
                "ticks": 240,
                "event": {
                    "deltaTime": 240,
                    "type": "channel",
                    "subtype": "noteOn",
                    "channel": 5,
                    "noteNumber": 64,
                    "velocity": 111,
                    "lightChannels": [
                        3
                    ]
                }
            }
        }
    },
    {
        "changes": {
            "col-1": 0,
            "garden": 1
        },
        "timeout": 0.1578945,
        "raw": {
            "col-1": {
                "pinValue": 0,
                "ticks": 240,
                "event": {
                    "deltaTime": 240,
                    "type": "channel",
                    "subtype": "noteOff",
                    "channel": 5,
                    "noteNumber": 64,
                    "velocity": 0,
                    "lightChannels": [
                        3
                    ]
                }
            },
            "garden": {
                "pinValue": 1,
                "ticks": 0,
                "event": {
                    "deltaTime": 0,
                    "type": "channel",
                    "subtype": "noteOn",
                    "channel": 5,
                    "noteNumber": 64,
                    "velocity": 111,
                    "lightChannels": [
                        8
                    ]
                }
            }
        }
    },
    {
        "changes": {
            "garden": 0,
            "col-3": 1
        },
        "timeout": 0.1578945,
        "raw": {
            "garden": {
                "pinValue": 0,
                "ticks": 240,
                "event": {
                    "deltaTime": 240,
                    "type": "channel",
                    "subtype": "noteOff",
                    "channel": 5,
                    "noteNumber": 64,
                    "velocity": 0,
                    "lightChannels": [
                        8
                    ]
                }
            },
            "col-3": {
                "pinValue": 1,
                "ticks": 0,
                "event": {
                    "deltaTime": 0,
                    "type": "channel",
                    "subtype": "noteOn",
                    "channel": 5,
                    "noteNumber": 59,
                    "velocity": 111,
                    "lightChannels": [
                        5
                    ]
                }
            }
        }
    },
    {
        "changes": {
            "col-3": 0,
            "tree": 1
        },
        "timeout": 0.1578945,
        "raw": {
            "col-3": {
                "pinValue": 0,
                "ticks": 240,
                "event": {
                    "deltaTime": 240,
                    "type": "channel",
                    "subtype": "noteOff",
                    "channel": 5,
                    "noteNumber": 59,
                    "velocity": 0,
                    "lightChannels": [
                        5
                    ]
                }
            },
            "tree": {
                "pinValue": 1,
                "ticks": 0,
                "event": {
                    "deltaTime": 0,
                    "type": "channel",
                    "subtype": "noteOn",
                    "channel": 5,
                    "noteNumber": 59,
                    "velocity": 111,
                    "lightChannels": [
                        9
                    ]
                }
            }
        }
    },
    {
        "changes": {
            "tree": 0,
            "col-1": 1
        },
        "timeout": 0.1578945,
        "raw": {
            "tree": {
                "pinValue": 0,
                "ticks": 240,
                "event": {
                    "deltaTime": 240,
                    "type": "channel",
                    "subtype": "noteOff",
                    "channel": 5,
                    "noteNumber": 59,
                    "velocity": 0,
                    "lightChannels": [
                        9
                    ]
                }
            },
            "col-1": {
                "pinValue": 1,
                "ticks": 0,
                "event": {
                    "deltaTime": 0,
                    "type": "channel",
                    "subtype": "noteOn",
                    "channel": 5,
                    "noteNumber": 64,
                    "velocity": 111,
                    "lightChannels": [
                        3
                    ]
                }
            }
        }
    },
    {
        "changes": {
            "col-1": 0
        },
        "timeout": 0.1578945,
        "raw": {
            "col-1": {
                "pinValue": 0,
                "ticks": 240,
                "event": {
                    "deltaTime": 240,
                    "type": "channel",
                    "subtype": "noteOff",
                    "channel": 5,
                    "noteNumber": 64,
                    "velocity": 0,
                    "lightChannels": [
                        3
                    ]
                }
            }
        }
    },
    {
        "changes": {
            "tree": 1
        },
        "timeout": 0.1578945,
        "raw": {
            "tree": {
                "pinValue": 1,
                "ticks": 240,
                "event": {
                    "deltaTime": 240,
                    "type": "channel",
                    "subtype": "noteOn",
                    "channel": 5,
                    "noteNumber": 59,
                    "velocity": 111,
                    "lightChannels": [
                        9
                    ]
                }
            }
        }
    },
    {
        "changes": {
            "tree": 0,
            "col-3": 1
        },
        "timeout": 0.1578945,
        "raw": {
            "tree": {
                "pinValue": 0,
                "ticks": 240,
                "event": {
                    "deltaTime": 240,
                    "type": "channel",
                    "subtype": "noteOff",
                    "channel": 5,
                    "noteNumber": 59,
                    "velocity": 0,
                    "lightChannels": [
                        9
                    ]
                }
            },
            "col-3": {
                "pinValue": 1,
                "ticks": 0,
                "event": {
                    "deltaTime": 0,
                    "type": "channel",
                    "subtype": "noteOn",
                    "channel": 5,
                    "noteNumber": 64,
                    "velocity": 111,
                    "lightChannels": [
                        5
                    ]
                }
            }
        }
    },
    {
        "changes": {
            "col-3": 0,
            "garden": 1
        },
        "timeout": 0.1578945,
        "raw": {
            "col-3": {
                "pinValue": 0,
                "ticks": 240,
                "event": {
                    "deltaTime": 240,
                    "type": "channel",
                    "subtype": "noteOff",
                    "channel": 5,
                    "noteNumber": 64,
                    "velocity": 0,
                    "lightChannels": [
                        5
                    ]
                }
            },
            "garden": {
                "pinValue": 1,
                "ticks": 0,
                "event": {
                    "deltaTime": 0,
                    "type": "channel",
                    "subtype": "noteOn",
                    "channel": 5,
                    "noteNumber": 59,
                    "velocity": 111,
                    "lightChannels": [
                        8
                    ]
                }
            }
        }
    },
    {
        "changes": {
            "garden": 0,
            "tree": 1
        },
        "timeout": 0.1578945,
        "raw": {
            "garden": {
                "pinValue": 0,
                "ticks": 240,
                "event": {
                    "deltaTime": 240,
                    "type": "channel",
                    "subtype": "noteOff",
                    "channel": 5,
                    "noteNumber": 59,
                    "velocity": 0,
                    "lightChannels": [
                        8
                    ]
                }
            },
            "tree": {
                "pinValue": 1,
                "ticks": 0,
                "event": {
                    "deltaTime": 0,
                    "type": "channel",
                    "subtype": "noteOn",
                    "channel": 5,
                    "noteNumber": 59,
                    "velocity": 111,
                    "lightChannels": [
                        9
                    ]
                }
            }
        }
    },
    {
        "changes": {
            "tree": 0,
            "col-2": 1
        },
        "timeout": 0.1578945,
        "raw": {
            "tree": {
                "pinValue": 0,
                "ticks": 240,
                "event": {
                    "deltaTime": 240,
                    "type": "channel",
                    "subtype": "noteOff",
                    "channel": 5,
                    "noteNumber": 59,
                    "velocity": 0,
                    "lightChannels": [
                        9
                    ]
                }
            },
            "col-2": {
                "pinValue": 1,
                "ticks": 0,
                "event": {
                    "deltaTime": 0,
                    "type": "channel",
                    "subtype": "noteOn",
                    "channel": 5,
                    "noteNumber": 64,
                    "velocity": 111,
                    "lightChannels": [
                        4
                    ]
                }
            }
        }
    },
    {
        "changes": {
            "col-2": 0
        },
        "timeout": 0.1578945,
        "raw": {
            "col-2": {
                "pinValue": 0,
                "ticks": 240,
                "event": {
                    "deltaTime": 240,
                    "type": "channel",
                    "subtype": "noteOff",
                    "channel": 5,
                    "noteNumber": 64,
                    "velocity": 0,
                    "lightChannels": [
                        4
                    ]
                }
            }
        }
    },
    {
        "changes": {
            "col-1": 1
        },
        "timeout": 0.1578945,
        "raw": {
            "col-1": {
                "pinValue": 1,
                "ticks": 240,
                "event": {
                    "deltaTime": 240,
                    "type": "channel",
                    "subtype": "noteOn",
                    "channel": 5,
                    "noteNumber": 64,
                    "velocity": 111,
                    "lightChannels": [
                        3
                    ]
                }
            }
        }
    },
    {
        "changes": {
            "col-1": 0,
            "garden": 1
        },
        "timeout": 0.1578945,
        "raw": {
            "col-1": {
                "pinValue": 0,
                "ticks": 240,
                "event": {
                    "deltaTime": 240,
                    "type": "channel",
                    "subtype": "noteOff",
                    "channel": 5,
                    "noteNumber": 64,
                    "velocity": 0,
                    "lightChannels": [
                        3
                    ]
                }
            },
            "garden": {
                "pinValue": 1,
                "ticks": 0,
                "event": {
                    "deltaTime": 0,
                    "type": "channel",
                    "subtype": "noteOn",
                    "channel": 5,
                    "noteNumber": 64,
                    "velocity": 111,
                    "lightChannels": [
                        8
                    ]
                }
            }
        }
    },
    {
        "changes": {
            "garden": 0,
            "col-3": 1
        },
        "timeout": 0.1578945,
        "raw": {
            "garden": {
                "pinValue": 0,
                "ticks": 240,
                "event": {
                    "deltaTime": 240,
                    "type": "channel",
                    "subtype": "noteOff",
                    "channel": 5,
                    "noteNumber": 64,
                    "velocity": 0,
                    "lightChannels": [
                        8
                    ]
                }
            },
            "col-3": {
                "pinValue": 1,
                "ticks": 0,
                "event": {
                    "deltaTime": 0,
                    "type": "channel",
                    "subtype": "noteOn",
                    "channel": 5,
                    "noteNumber": 59,
                    "velocity": 111,
                    "lightChannels": [
                        5
                    ]
                }
            }
        }
    },
    {
        "changes": {
            "col-3": 0,
            "tree": 1
        },
        "timeout": 0.1578945,
        "raw": {
            "col-3": {
                "pinValue": 0,
                "ticks": 240,
                "event": {
                    "deltaTime": 240,
                    "type": "channel",
                    "subtype": "noteOff",
                    "channel": 5,
                    "noteNumber": 59,
                    "velocity": 0,
                    "lightChannels": [
                        5
                    ]
                }
            },
            "tree": {
                "pinValue": 1,
                "ticks": 0,
                "event": {
                    "deltaTime": 0,
                    "type": "channel",
                    "subtype": "noteOn",
                    "channel": 5,
                    "noteNumber": 59,
                    "velocity": 111,
                    "lightChannels": [
                        9
                    ]
                }
            }
        }
    },
    {
        "changes": {
            "tree": 0,
            "col-1": 1
        },
        "timeout": 0.1578945,
        "raw": {
            "tree": {
                "pinValue": 0,
                "ticks": 240,
                "event": {
                    "deltaTime": 240,
                    "type": "channel",
                    "subtype": "noteOff",
                    "channel": 5,
                    "noteNumber": 59,
                    "velocity": 0,
                    "lightChannels": [
                        9
                    ]
                }
            },
            "col-1": {
                "pinValue": 1,
                "ticks": 0,
                "event": {
                    "deltaTime": 0,
                    "type": "channel",
                    "subtype": "noteOn",
                    "channel": 5,
                    "noteNumber": 64,
                    "velocity": 111,
                    "lightChannels": [
                        3
                    ]
                }
            }
        }
    },
    {
        "changes": {
            "col-1": 0
        },
        "timeout": 0.1578945,
        "raw": {
            "col-1": {
                "pinValue": 0,
                "ticks": 240,
                "event": {
                    "deltaTime": 240,
                    "type": "channel",
                    "subtype": "noteOff",
                    "channel": 5,
                    "noteNumber": 64,
                    "velocity": 0,
                    "lightChannels": [
                        3
                    ]
                }
            }
        }
    },
    {
        "changes": {
            "tree": 1
        },
        "timeout": 0.1578945,
        "raw": {
            "tree": {
                "pinValue": 1,
                "ticks": 240,
                "event": {
                    "deltaTime": 240,
                    "type": "channel",
                    "subtype": "noteOn",
                    "channel": 5,
                    "noteNumber": 59,
                    "velocity": 111,
                    "lightChannels": [
                        9
                    ]
                }
            }
        }
    },
    {
        "changes": {
            "tree": 0,
            "col-3": 1
        },
        "timeout": 0.1578945,
        "raw": {
            "tree": {
                "pinValue": 0,
                "ticks": 240,
                "event": {
                    "deltaTime": 240,
                    "type": "channel",
                    "subtype": "noteOff",
                    "channel": 5,
                    "noteNumber": 59,
                    "velocity": 0,
                    "lightChannels": [
                        9
                    ]
                }
            },
            "col-3": {
                "pinValue": 1,
                "ticks": 0,
                "event": {
                    "deltaTime": 0,
                    "type": "channel",
                    "subtype": "noteOn",
                    "channel": 5,
                    "noteNumber": 64,
                    "velocity": 111,
                    "lightChannels": [
                        5
                    ]
                }
            }
        }
    },
    {
        "changes": {
            "col-3": 0,
            "garden": 1
        },
        "timeout": 0.1578945,
        "raw": {
            "col-3": {
                "pinValue": 0,
                "ticks": 240,
                "event": {
                    "deltaTime": 240,
                    "type": "channel",
                    "subtype": "noteOff",
                    "channel": 5,
                    "noteNumber": 64,
                    "velocity": 0,
                    "lightChannels": [
                        5
                    ]
                }
            },
            "garden": {
                "pinValue": 1,
                "ticks": 0,
                "event": {
                    "deltaTime": 0,
                    "type": "channel",
                    "subtype": "noteOn",
                    "channel": 5,
                    "noteNumber": 59,
                    "velocity": 111,
                    "lightChannels": [
                        8
                    ]
                }
            }
        }
    },
    {
        "changes": {
            "garden": 0,
            "tree": 1
        },
        "timeout": 0.1578945,
        "raw": {
            "garden": {
                "pinValue": 0,
                "ticks": 240,
                "event": {
                    "deltaTime": 240,
                    "type": "channel",
                    "subtype": "noteOff",
                    "channel": 5,
                    "noteNumber": 59,
                    "velocity": 0,
                    "lightChannels": [
                        8
                    ]
                }
            },
            "tree": {
                "pinValue": 1,
                "ticks": 0,
                "event": {
                    "deltaTime": 0,
                    "type": "channel",
                    "subtype": "noteOn",
                    "channel": 5,
                    "noteNumber": 59,
                    "velocity": 111,
                    "lightChannels": [
                        9
                    ]
                }
            }
        }
    },
    {
        "changes": {
            "tree": 0,
            "col-2": 1
        },
        "timeout": 0.1578945,
        "raw": {
            "tree": {
                "pinValue": 0,
                "ticks": 240,
                "event": {
                    "deltaTime": 240,
                    "type": "channel",
                    "subtype": "noteOff",
                    "channel": 5,
                    "noteNumber": 59,
                    "velocity": 0,
                    "lightChannels": [
                        9
                    ]
                }
            },
            "col-2": {
                "pinValue": 1,
                "ticks": 0,
                "event": {
                    "deltaTime": 0,
                    "type": "channel",
                    "subtype": "noteOn",
                    "channel": 5,
                    "noteNumber": 64,
                    "velocity": 111,
                    "lightChannels": [
                        4
                    ]
                }
            }
        }
    },
    {
        "changes": {
            "col-2": 0
        },
        "timeout": 0.1578945,
        "raw": {
            "col-2": {
                "pinValue": 0,
                "ticks": 240,
                "event": {
                    "deltaTime": 240,
                    "type": "channel",
                    "subtype": "noteOff",
                    "channel": 5,
                    "noteNumber": 64,
                    "velocity": 0,
                    "lightChannels": [
                        4
                    ]
                }
            }
        }
    },
    {
        "changes": {
            "col-1": 1
        },
        "timeout": 0.1578945,
        "raw": {
            "col-1": {
                "pinValue": 1,
                "ticks": 240,
                "event": {
                    "deltaTime": 240,
                    "type": "channel",
                    "subtype": "noteOn",
                    "channel": 5,
                    "noteNumber": 64,
                    "velocity": 111,
                    "lightChannels": [
                        3
                    ]
                }
            }
        }
    },
    {
        "changes": {
            "col-1": 0,
            "garden": 1
        },
        "timeout": 0.1578945,
        "raw": {
            "col-1": {
                "pinValue": 0,
                "ticks": 240,
                "event": {
                    "deltaTime": 240,
                    "type": "channel",
                    "subtype": "noteOff",
                    "channel": 5,
                    "noteNumber": 64,
                    "velocity": 0,
                    "lightChannels": [
                        3
                    ]
                }
            },
            "garden": {
                "pinValue": 1,
                "ticks": 0,
                "event": {
                    "deltaTime": 0,
                    "type": "channel",
                    "subtype": "noteOn",
                    "channel": 5,
                    "noteNumber": 64,
                    "velocity": 111,
                    "lightChannels": [
                        8
                    ]
                }
            }
        }
    },
    {
        "changes": {
            "garden": 0,
            "col-3": 1
        },
        "timeout": 0.1578945,
        "raw": {
            "garden": {
                "pinValue": 0,
                "ticks": 240,
                "event": {
                    "deltaTime": 240,
                    "type": "channel",
                    "subtype": "noteOff",
                    "channel": 5,
                    "noteNumber": 64,
                    "velocity": 0,
                    "lightChannels": [
                        8
                    ]
                }
            },
            "col-3": {
                "pinValue": 1,
                "ticks": 0,
                "event": {
                    "deltaTime": 0,
                    "type": "channel",
                    "subtype": "noteOn",
                    "channel": 5,
                    "noteNumber": 59,
                    "velocity": 111,
                    "lightChannels": [
                        5
                    ]
                }
            }
        }
    },
    {
        "changes": {
            "col-3": 0,
            "tree": 1
        },
        "timeout": 0.1578945,
        "raw": {
            "col-3": {
                "pinValue": 0,
                "ticks": 240,
                "event": {
                    "deltaTime": 240,
                    "type": "channel",
                    "subtype": "noteOff",
                    "channel": 5,
                    "noteNumber": 59,
                    "velocity": 0,
                    "lightChannels": [
                        5
                    ]
                }
            },
            "tree": {
                "pinValue": 1,
                "ticks": 0,
                "event": {
                    "deltaTime": 0,
                    "type": "channel",
                    "subtype": "noteOn",
                    "channel": 5,
                    "noteNumber": 59,
                    "velocity": 111,
                    "lightChannels": [
                        9
                    ]
                }
            }
        }
    },
    {
        "changes": {
            "tree": 0,
            "col-1": 1
        },
        "timeout": 0.1578945,
        "raw": {
            "tree": {
                "pinValue": 0,
                "ticks": 240,
                "event": {
                    "deltaTime": 240,
                    "type": "channel",
                    "subtype": "noteOff",
                    "channel": 5,
                    "noteNumber": 59,
                    "velocity": 0,
                    "lightChannels": [
                        9
                    ]
                }
            },
            "col-1": {
                "pinValue": 1,
                "ticks": 0,
                "event": {
                    "deltaTime": 0,
                    "type": "channel",
                    "subtype": "noteOn",
                    "channel": 5,
                    "noteNumber": 64,
                    "velocity": 111,
                    "lightChannels": [
                        3
                    ]
                }
            }
        }
    },
    {
        "changes": {
            "col-1": 0
        },
        "timeout": 0.1578945,
        "raw": {
            "col-1": {
                "pinValue": 0,
                "ticks": 240,
                "event": {
                    "deltaTime": 240,
                    "type": "channel",
                    "subtype": "noteOff",
                    "channel": 5,
                    "noteNumber": 64,
                    "velocity": 0,
                    "lightChannels": [
                        3
                    ]
                }
            }
        }
    },
    {
        "changes": {
            "tree": 1
        },
        "timeout": 0.1578945,
        "raw": {
            "tree": {
                "pinValue": 1,
                "ticks": 240,
                "event": {
                    "deltaTime": 240,
                    "type": "channel",
                    "subtype": "noteOn",
                    "channel": 5,
                    "noteNumber": 59,
                    "velocity": 111,
                    "lightChannels": [
                        9
                    ]
                }
            }
        }
    },
    {
        "changes": {
            "tree": 0,
            "col-3": 1
        },
        "timeout": 0.1578945,
        "raw": {
            "tree": {
                "pinValue": 0,
                "ticks": 240,
                "event": {
                    "deltaTime": 240,
                    "type": "channel",
                    "subtype": "noteOff",
                    "channel": 5,
                    "noteNumber": 59,
                    "velocity": 0,
                    "lightChannels": [
                        9
                    ]
                }
            },
            "col-3": {
                "pinValue": 1,
                "ticks": 0,
                "event": {
                    "deltaTime": 0,
                    "type": "channel",
                    "subtype": "noteOn",
                    "channel": 5,
                    "noteNumber": 64,
                    "velocity": 111,
                    "lightChannels": [
                        5
                    ]
                }
            }
        }
    },
    {
        "changes": {
            "col-3": 0,
            "garden": 1
        },
        "timeout": 0.1578945,
        "raw": {
            "col-3": {
                "pinValue": 0,
                "ticks": 240,
                "event": {
                    "deltaTime": 240,
                    "type": "channel",
                    "subtype": "noteOff",
                    "channel": 5,
                    "noteNumber": 64,
                    "velocity": 0,
                    "lightChannels": [
                        5
                    ]
                }
            },
            "garden": {
                "pinValue": 1,
                "ticks": 0,
                "event": {
                    "deltaTime": 0,
                    "type": "channel",
                    "subtype": "noteOn",
                    "channel": 5,
                    "noteNumber": 59,
                    "velocity": 111,
                    "lightChannels": [
                        8
                    ]
                }
            }
        }
    },
    {
        "changes": {
            "garden": 0,
            "tree": 1
        },
        "timeout": 0.1578945,
        "raw": {
            "garden": {
                "pinValue": 0,
                "ticks": 240,
                "event": {
                    "deltaTime": 240,
                    "type": "channel",
                    "subtype": "noteOff",
                    "channel": 5,
                    "noteNumber": 59,
                    "velocity": 0,
                    "lightChannels": [
                        8
                    ]
                }
            },
            "tree": {
                "pinValue": 1,
                "ticks": 0,
                "event": {
                    "deltaTime": 0,
                    "type": "channel",
                    "subtype": "noteOn",
                    "channel": 5,
                    "noteNumber": 59,
                    "velocity": 111,
                    "lightChannels": [
                        9
                    ]
                }
            }
        }
    },
    {
        "changes": {
            "tree": 0,
            "col-2": 1
        },
        "timeout": 0.1578945,
        "raw": {
            "tree": {
                "pinValue": 0,
                "ticks": 240,
                "event": {
                    "deltaTime": 240,
                    "type": "channel",
                    "subtype": "noteOff",
                    "channel": 5,
                    "noteNumber": 59,
                    "velocity": 0,
                    "lightChannels": [
                        9
                    ]
                }
            },
            "col-2": {
                "pinValue": 1,
                "ticks": 0,
                "event": {
                    "deltaTime": 0,
                    "type": "channel",
                    "subtype": "noteOn",
                    "channel": 5,
                    "noteNumber": 64,
                    "velocity": 111,
                    "lightChannels": [
                        4
                    ]
                }
            }
        }
    },
    {
        "changes": {
            "col-2": 0
        },
        "timeout": 0.1578945,
        "raw": {
            "col-2": {
                "pinValue": 0,
                "ticks": 240,
                "event": {
                    "deltaTime": 240,
                    "type": "channel",
                    "subtype": "noteOff",
                    "channel": 5,
                    "noteNumber": 64,
                    "velocity": 0,
                    "lightChannels": [
                        4
                    ]
                }
            }
        }
    },
    {
        "changes": {
            "col-1": 1
        },
        "timeout": 0.1578945,
        "raw": {
            "col-1": {
                "pinValue": 1,
                "ticks": 240,
                "event": {
                    "deltaTime": 240,
                    "type": "channel",
                    "subtype": "noteOn",
                    "channel": 5,
                    "noteNumber": 64,
                    "velocity": 111,
                    "lightChannels": [
                        3
                    ]
                }
            }
        }
    },
    {
        "changes": {
            "col-1": 0,
            "garden": 1
        },
        "timeout": 0.1578945,
        "raw": {
            "col-1": {
                "pinValue": 0,
                "ticks": 240,
                "event": {
                    "deltaTime": 240,
                    "type": "channel",
                    "subtype": "noteOff",
                    "channel": 5,
                    "noteNumber": 64,
                    "velocity": 0,
                    "lightChannels": [
                        3
                    ]
                }
            },
            "garden": {
                "pinValue": 1,
                "ticks": 0,
                "event": {
                    "deltaTime": 0,
                    "type": "channel",
                    "subtype": "noteOn",
                    "channel": 5,
                    "noteNumber": 64,
                    "velocity": 111,
                    "lightChannels": [
                        8
                    ]
                }
            }
        }
    },
    {
        "changes": {
            "window": 1,
            "outline": 1,
            "garage": 1,
            "garden": 0,
            "col-3": 1
        },
        "timeout": 0.1578945,
        "raw": {
            "window": {
                "pinValue": 1,
                "ticks": 240,
                "event": {
                    "deltaTime": 240,
                    "type": "channel",
                    "subtype": "noteOn",
                    "channel": 3,
                    "noteNumber": 62,
                    "velocity": 111,
                    "lightChannels": [
                        6,
                        7
                    ]
                }
            },
            "outline": {
                "pinValue": 1,
                "ticks": 240,
                "event": {
                    "deltaTime": 240,
                    "type": "channel",
                    "subtype": "noteOn",
                    "channel": 3,
                    "noteNumber": 62,
                    "velocity": 111,
                    "lightChannels": [
                        6,
                        7
                    ]
                }
            },
            "garage": {
                "pinValue": 1,
                "ticks": 0,
                "event": {
                    "deltaTime": 0,
                    "type": "channel",
                    "subtype": "noteOn",
                    "channel": 4,
                    "noteNumber": 64,
                    "velocity": 111,
                    "lightChannels": [
                        0
                    ]
                }
            },
            "garden": {
                "pinValue": 0,
                "ticks": 0,
                "event": {
                    "deltaTime": 0,
                    "type": "channel",
                    "subtype": "noteOff",
                    "channel": 5,
                    "noteNumber": 64,
                    "velocity": 0,
                    "lightChannels": [
                        8
                    ]
                }
            },
            "col-3": {
                "pinValue": 1,
                "ticks": 0,
                "event": {
                    "deltaTime": 0,
                    "type": "channel",
                    "subtype": "noteOn",
                    "channel": 5,
                    "noteNumber": 59,
                    "velocity": 111,
                    "lightChannels": [
                        5
                    ]
                }
            }
        }
    },
    {
        "changes": {
            "col-3": 0,
            "tree": 1
        },
        "timeout": 0.1578945,
        "raw": {
            "col-3": {
                "pinValue": 0,
                "ticks": 240,
                "event": {
                    "deltaTime": 240,
                    "type": "channel",
                    "subtype": "noteOff",
                    "channel": 5,
                    "noteNumber": 59,
                    "velocity": 0,
                    "lightChannels": [
                        5
                    ]
                }
            },
            "tree": {
                "pinValue": 1,
                "ticks": 0,
                "event": {
                    "deltaTime": 0,
                    "type": "channel",
                    "subtype": "noteOn",
                    "channel": 5,
                    "noteNumber": 59,
                    "velocity": 111,
                    "lightChannels": [
                        9
                    ]
                }
            }
        }
    },
    {
        "changes": {
            "window": 1,
            "outline": 1,
            "tree": 0,
            "col-1": 1
        },
        "timeout": 0.1578945,
        "raw": {
            "window": {
                "pinValue": 1,
                "ticks": 0,
                "event": {
                    "deltaTime": 0,
                    "type": "channel",
                    "subtype": "noteOn",
                    "channel": 3,
                    "noteNumber": 64,
                    "velocity": 111,
                    "lightChannels": [
                        6,
                        7
                    ]
                }
            },
            "outline": {
                "pinValue": 1,
                "ticks": 0,
                "event": {
                    "deltaTime": 0,
                    "type": "channel",
                    "subtype": "noteOn",
                    "channel": 3,
                    "noteNumber": 64,
                    "velocity": 111,
                    "lightChannels": [
                        6,
                        7
                    ]
                }
            },
            "tree": {
                "pinValue": 0,
                "ticks": 0,
                "event": {
                    "deltaTime": 0,
                    "type": "channel",
                    "subtype": "noteOff",
                    "channel": 5,
                    "noteNumber": 59,
                    "velocity": 0,
                    "lightChannels": [
                        9
                    ]
                }
            },
            "col-1": {
                "pinValue": 1,
                "ticks": 0,
                "event": {
                    "deltaTime": 0,
                    "type": "channel",
                    "subtype": "noteOn",
                    "channel": 5,
                    "noteNumber": 64,
                    "velocity": 111,
                    "lightChannels": [
                        3
                    ]
                }
            }
        }
    },
    {
        "changes": {
            "col-1": 0
        },
        "timeout": 0.1578945,
        "raw": {
            "col-1": {
                "pinValue": 0,
                "ticks": 240,
                "event": {
                    "deltaTime": 240,
                    "type": "channel",
                    "subtype": "noteOff",
                    "channel": 5,
                    "noteNumber": 64,
                    "velocity": 0,
                    "lightChannels": [
                        3
                    ]
                }
            }
        }
    },
    {
        "changes": {
            "window": 0,
            "outline": 0,
            "tree": 1
        },
        "timeout": 0.1578945,
        "raw": {
            "window": {
                "pinValue": 0,
                "ticks": 240,
                "event": {
                    "deltaTime": 240,
                    "type": "channel",
                    "subtype": "noteOff",
                    "channel": 3,
                    "noteNumber": 64,
                    "velocity": 0,
                    "lightChannels": [
                        6,
                        7
                    ]
                }
            },
            "outline": {
                "pinValue": 0,
                "ticks": 240,
                "event": {
                    "deltaTime": 240,
                    "type": "channel",
                    "subtype": "noteOff",
                    "channel": 3,
                    "noteNumber": 64,
                    "velocity": 0,
                    "lightChannels": [
                        6,
                        7
                    ]
                }
            },
            "tree": {
                "pinValue": 1,
                "ticks": 0,
                "event": {
                    "deltaTime": 0,
                    "type": "channel",
                    "subtype": "noteOn",
                    "channel": 5,
                    "noteNumber": 59,
                    "velocity": 111,
                    "lightChannels": [
                        9
                    ]
                }
            }
        }
    },
    {
        "changes": {
            "tree": 0,
            "col-3": 1
        },
        "timeout": 0.1578945,
        "raw": {
            "tree": {
                "pinValue": 0,
                "ticks": 240,
                "event": {
                    "deltaTime": 240,
                    "type": "channel",
                    "subtype": "noteOff",
                    "channel": 5,
                    "noteNumber": 59,
                    "velocity": 0,
                    "lightChannels": [
                        9
                    ]
                }
            },
            "col-3": {
                "pinValue": 1,
                "ticks": 0,
                "event": {
                    "deltaTime": 0,
                    "type": "channel",
                    "subtype": "noteOn",
                    "channel": 5,
                    "noteNumber": 64,
                    "velocity": 111,
                    "lightChannels": [
                        5
                    ]
                }
            }
        }
    },
    {
        "changes": {
            "window": 1,
            "outline": 1,
            "garage": 0,
            "top-right": 1,
            "col-3": 0,
            "garden": 1
        },
        "timeout": 0.1578945,
        "raw": {
            "window": {
                "pinValue": 1,
                "ticks": 240,
                "event": {
                    "deltaTime": 240,
                    "type": "channel",
                    "subtype": "noteOn",
                    "channel": 3,
                    "noteNumber": 71,
                    "velocity": 111,
                    "lightChannels": [
                        6,
                        7
                    ]
                }
            },
            "outline": {
                "pinValue": 1,
                "ticks": 240,
                "event": {
                    "deltaTime": 240,
                    "type": "channel",
                    "subtype": "noteOn",
                    "channel": 3,
                    "noteNumber": 71,
                    "velocity": 111,
                    "lightChannels": [
                        6,
                        7
                    ]
                }
            },
            "garage": {
                "pinValue": 0,
                "ticks": 0,
                "event": {
                    "deltaTime": 0,
                    "type": "channel",
                    "subtype": "noteOff",
                    "channel": 4,
                    "noteNumber": 64,
                    "velocity": 0,
                    "lightChannels": [
                        0
                    ]
                }
            },
            "top-right": {
                "pinValue": 1,
                "ticks": 0,
                "event": {
                    "deltaTime": 0,
                    "type": "channel",
                    "subtype": "noteOn",
                    "channel": 4,
                    "noteNumber": 62,
                    "velocity": 111,
                    "lightChannels": [
                        1
                    ]
                }
            },
            "col-3": {
                "pinValue": 0,
                "ticks": 0,
                "event": {
                    "deltaTime": 0,
                    "type": "channel",
                    "subtype": "noteOff",
                    "channel": 5,
                    "noteNumber": 64,
                    "velocity": 0,
                    "lightChannels": [
                        5
                    ]
                }
            },
            "garden": {
                "pinValue": 1,
                "ticks": 0,
                "event": {
                    "deltaTime": 0,
                    "type": "channel",
                    "subtype": "noteOn",
                    "channel": 5,
                    "noteNumber": 59,
                    "velocity": 111,
                    "lightChannels": [
                        8
                    ]
                }
            }
        }
    },
    {
        "changes": {
            "garden": 0,
            "tree": 1
        },
        "timeout": 0.1578945,
        "raw": {
            "garden": {
                "pinValue": 0,
                "ticks": 240,
                "event": {
                    "deltaTime": 240,
                    "type": "channel",
                    "subtype": "noteOff",
                    "channel": 5,
                    "noteNumber": 59,
                    "velocity": 0,
                    "lightChannels": [
                        8
                    ]
                }
            },
            "tree": {
                "pinValue": 1,
                "ticks": 0,
                "event": {
                    "deltaTime": 0,
                    "type": "channel",
                    "subtype": "noteOn",
                    "channel": 5,
                    "noteNumber": 59,
                    "velocity": 111,
                    "lightChannels": [
                        9
                    ]
                }
            }
        }
    },
    {
        "changes": {
            "window": 1,
            "outline": 1,
            "tree": 0,
            "col-2": 1
        },
        "timeout": 0.1578945,
        "raw": {
            "window": {
                "pinValue": 1,
                "ticks": 0,
                "event": {
                    "deltaTime": 0,
                    "type": "channel",
                    "subtype": "noteOn",
                    "channel": 3,
                    "noteNumber": 71,
                    "velocity": 111,
                    "lightChannels": [
                        6,
                        7
                    ]
                }
            },
            "outline": {
                "pinValue": 1,
                "ticks": 0,
                "event": {
                    "deltaTime": 0,
                    "type": "channel",
                    "subtype": "noteOn",
                    "channel": 3,
                    "noteNumber": 71,
                    "velocity": 111,
                    "lightChannels": [
                        6,
                        7
                    ]
                }
            },
            "tree": {
                "pinValue": 0,
                "ticks": 0,
                "event": {
                    "deltaTime": 0,
                    "type": "channel",
                    "subtype": "noteOff",
                    "channel": 5,
                    "noteNumber": 59,
                    "velocity": 0,
                    "lightChannels": [
                        9
                    ]
                }
            },
            "col-2": {
                "pinValue": 1,
                "ticks": 0,
                "event": {
                    "deltaTime": 0,
                    "type": "channel",
                    "subtype": "noteOn",
                    "channel": 5,
                    "noteNumber": 64,
                    "velocity": 111,
                    "lightChannels": [
                        4
                    ]
                }
            }
        }
    },
    {
        "changes": {
            "col-2": 0
        },
        "timeout": 0.1578945,
        "raw": {
            "col-2": {
                "pinValue": 0,
                "ticks": 240,
                "event": {
                    "deltaTime": 240,
                    "type": "channel",
                    "subtype": "noteOff",
                    "channel": 5,
                    "noteNumber": 64,
                    "velocity": 0,
                    "lightChannels": [
                        4
                    ]
                }
            }
        }
    },
    {
        "changes": {
            "window": 0,
            "outline": 0,
            "col-1": 1
        },
        "timeout": 0.1578945,
        "raw": {
            "window": {
                "pinValue": 0,
                "ticks": 240,
                "event": {
                    "deltaTime": 240,
                    "type": "channel",
                    "subtype": "noteOff",
                    "channel": 3,
                    "noteNumber": 71,
                    "velocity": 0,
                    "lightChannels": [
                        6,
                        7
                    ]
                }
            },
            "outline": {
                "pinValue": 0,
                "ticks": 240,
                "event": {
                    "deltaTime": 240,
                    "type": "channel",
                    "subtype": "noteOff",
                    "channel": 3,
                    "noteNumber": 71,
                    "velocity": 0,
                    "lightChannels": [
                        6,
                        7
                    ]
                }
            },
            "col-1": {
                "pinValue": 1,
                "ticks": 0,
                "event": {
                    "deltaTime": 0,
                    "type": "channel",
                    "subtype": "noteOn",
                    "channel": 5,
                    "noteNumber": 64,
                    "velocity": 111,
                    "lightChannels": [
                        3
                    ]
                }
            }
        }
    },
    {
        "changes": {
            "col-1": 0,
            "garden": 1
        },
        "timeout": 0.1578945,
        "raw": {
            "col-1": {
                "pinValue": 0,
                "ticks": 240,
                "event": {
                    "deltaTime": 240,
                    "type": "channel",
                    "subtype": "noteOff",
                    "channel": 5,
                    "noteNumber": 64,
                    "velocity": 0,
                    "lightChannels": [
                        3
                    ]
                }
            },
            "garden": {
                "pinValue": 1,
                "ticks": 0,
                "event": {
                    "deltaTime": 0,
                    "type": "channel",
                    "subtype": "noteOn",
                    "channel": 5,
                    "noteNumber": 64,
                    "velocity": 111,
                    "lightChannels": [
                        8
                    ]
                }
            }
        }
    },
    {
        "changes": {
            "window": 1,
            "outline": 1,
            "top-right": 0,
            "bottom-right": 1,
            "garden": 0,
            "col-3": 1
        },
        "timeout": 0.1578945,
        "raw": {
            "window": {
                "pinValue": 1,
                "ticks": 240,
                "event": {
                    "deltaTime": 240,
                    "type": "channel",
                    "subtype": "noteOn",
                    "channel": 3,
                    "noteNumber": 69,
                    "velocity": 111,
                    "lightChannels": [
                        6,
                        7
                    ]
                }
            },
            "outline": {
                "pinValue": 1,
                "ticks": 240,
                "event": {
                    "deltaTime": 240,
                    "type": "channel",
                    "subtype": "noteOn",
                    "channel": 3,
                    "noteNumber": 69,
                    "velocity": 111,
                    "lightChannels": [
                        6,
                        7
                    ]
                }
            },
            "top-right": {
                "pinValue": 0,
                "ticks": 0,
                "event": {
                    "deltaTime": 0,
                    "type": "channel",
                    "subtype": "noteOff",
                    "channel": 4,
                    "noteNumber": 62,
                    "velocity": 0,
                    "lightChannels": [
                        1
                    ]
                }
            },
            "bottom-right": {
                "pinValue": 1,
                "ticks": 0,
                "event": {
                    "deltaTime": 0,
                    "type": "channel",
                    "subtype": "noteOn",
                    "channel": 4,
                    "noteNumber": 60,
                    "velocity": 111,
                    "lightChannels": [
                        2
                    ]
                }
            },
            "garden": {
                "pinValue": 0,
                "ticks": 0,
                "event": {
                    "deltaTime": 0,
                    "type": "channel",
                    "subtype": "noteOff",
                    "channel": 5,
                    "noteNumber": 64,
                    "velocity": 0,
                    "lightChannels": [
                        8
                    ]
                }
            },
            "col-3": {
                "pinValue": 1,
                "ticks": 0,
                "event": {
                    "deltaTime": 0,
                    "type": "channel",
                    "subtype": "noteOn",
                    "channel": 5,
                    "noteNumber": 59,
                    "velocity": 111,
                    "lightChannels": [
                        5
                    ]
                }
            }
        }
    },
    {
        "changes": {
            "col-3": 0,
            "tree": 1
        },
        "timeout": 0.1578945,
        "raw": {
            "col-3": {
                "pinValue": 0,
                "ticks": 240,
                "event": {
                    "deltaTime": 240,
                    "type": "channel",
                    "subtype": "noteOff",
                    "channel": 5,
                    "noteNumber": 59,
                    "velocity": 0,
                    "lightChannels": [
                        5
                    ]
                }
            },
            "tree": {
                "pinValue": 1,
                "ticks": 0,
                "event": {
                    "deltaTime": 0,
                    "type": "channel",
                    "subtype": "noteOn",
                    "channel": 5,
                    "noteNumber": 59,
                    "velocity": 111,
                    "lightChannels": [
                        9
                    ]
                }
            }
        }
    },
    {
        "changes": {
            "window": 1,
            "outline": 1,
            "tree": 0,
            "col-1": 1
        },
        "timeout": 0.1578945,
        "raw": {
            "window": {
                "pinValue": 1,
                "ticks": 0,
                "event": {
                    "deltaTime": 0,
                    "type": "channel",
                    "subtype": "noteOn",
                    "channel": 3,
                    "noteNumber": 67,
                    "velocity": 111,
                    "lightChannels": [
                        6,
                        7
                    ]
                }
            },
            "outline": {
                "pinValue": 1,
                "ticks": 0,
                "event": {
                    "deltaTime": 0,
                    "type": "channel",
                    "subtype": "noteOn",
                    "channel": 3,
                    "noteNumber": 67,
                    "velocity": 111,
                    "lightChannels": [
                        6,
                        7
                    ]
                }
            },
            "tree": {
                "pinValue": 0,
                "ticks": 0,
                "event": {
                    "deltaTime": 0,
                    "type": "channel",
                    "subtype": "noteOff",
                    "channel": 5,
                    "noteNumber": 59,
                    "velocity": 0,
                    "lightChannels": [
                        9
                    ]
                }
            },
            "col-1": {
                "pinValue": 1,
                "ticks": 0,
                "event": {
                    "deltaTime": 0,
                    "type": "channel",
                    "subtype": "noteOn",
                    "channel": 5,
                    "noteNumber": 64,
                    "velocity": 111,
                    "lightChannels": [
                        3
                    ]
                }
            }
        }
    },
    {
        "changes": {
            "col-1": 0
        },
        "timeout": 0.1578945,
        "raw": {
            "col-1": {
                "pinValue": 0,
                "ticks": 240,
                "event": {
                    "deltaTime": 240,
                    "type": "channel",
                    "subtype": "noteOff",
                    "channel": 5,
                    "noteNumber": 64,
                    "velocity": 0,
                    "lightChannels": [
                        3
                    ]
                }
            }
        }
    },
    {
        "changes": {
            "window": 0,
            "outline": 0,
            "tree": 1
        },
        "timeout": 0.1578945,
        "raw": {
            "window": {
                "pinValue": 0,
                "ticks": 240,
                "event": {
                    "deltaTime": 240,
                    "type": "channel",
                    "subtype": "noteOff",
                    "channel": 3,
                    "noteNumber": 67,
                    "velocity": 0,
                    "lightChannels": [
                        6,
                        7
                    ]
                }
            },
            "outline": {
                "pinValue": 0,
                "ticks": 240,
                "event": {
                    "deltaTime": 240,
                    "type": "channel",
                    "subtype": "noteOff",
                    "channel": 3,
                    "noteNumber": 67,
                    "velocity": 0,
                    "lightChannels": [
                        6,
                        7
                    ]
                }
            },
            "tree": {
                "pinValue": 1,
                "ticks": 0,
                "event": {
                    "deltaTime": 0,
                    "type": "channel",
                    "subtype": "noteOn",
                    "channel": 5,
                    "noteNumber": 59,
                    "velocity": 111,
                    "lightChannels": [
                        9
                    ]
                }
            }
        }
    },
    {
        "changes": {
            "tree": 0,
            "col-3": 1
        },
        "timeout": 0.1578945,
        "raw": {
            "tree": {
                "pinValue": 0,
                "ticks": 240,
                "event": {
                    "deltaTime": 240,
                    "type": "channel",
                    "subtype": "noteOff",
                    "channel": 5,
                    "noteNumber": 59,
                    "velocity": 0,
                    "lightChannels": [
                        9
                    ]
                }
            },
            "col-3": {
                "pinValue": 1,
                "ticks": 0,
                "event": {
                    "deltaTime": 0,
                    "type": "channel",
                    "subtype": "noteOn",
                    "channel": 5,
                    "noteNumber": 64,
                    "velocity": 111,
                    "lightChannels": [
                        5
                    ]
                }
            }
        }
    },
    {
        "changes": {
            "window": 1,
            "outline": 1,
            "bottom-right": 1,
            "garage": 1,
            "top-right": 1,
            "col-3": 0,
            "garden": 1
        },
        "timeout": 0.1578945,
        "raw": {
            "window": {
                "pinValue": 1,
                "ticks": 240,
                "event": {
                    "deltaTime": 240,
                    "type": "channel",
                    "subtype": "noteOn",
                    "channel": 3,
                    "noteNumber": 66,
                    "velocity": 111,
                    "lightChannels": [
                        6,
                        7
                    ]
                }
            },
            "outline": {
                "pinValue": 1,
                "ticks": 240,
                "event": {
                    "deltaTime": 240,
                    "type": "channel",
                    "subtype": "noteOn",
                    "channel": 3,
                    "noteNumber": 66,
                    "velocity": 111,
                    "lightChannels": [
                        6,
                        7
                    ]
                }
            },
            "bottom-right": {
                "pinValue": 1,
                "ticks": 0,
                "event": {
                    "deltaTime": 0,
                    "type": "channel",
                    "subtype": "noteOn",
                    "channel": 4,
                    "noteNumber": 59,
                    "velocity": 111,
                    "lightChannels": [
                        0,
                        1,
                        2
                    ]
                }
            },
            "garage": {
                "pinValue": 1,
                "ticks": 0,
                "event": {
                    "deltaTime": 0,
                    "type": "channel",
                    "subtype": "noteOn",
                    "channel": 4,
                    "noteNumber": 59,
                    "velocity": 111,
                    "lightChannels": [
                        0,
                        1,
                        2
                    ]
                }
            },
            "top-right": {
                "pinValue": 1,
                "ticks": 0,
                "event": {
                    "deltaTime": 0,
                    "type": "channel",
                    "subtype": "noteOn",
                    "channel": 4,
                    "noteNumber": 59,
                    "velocity": 111,
                    "lightChannels": [
                        0,
                        1,
                        2
                    ]
                }
            },
            "col-3": {
                "pinValue": 0,
                "ticks": 0,
                "event": {
                    "deltaTime": 0,
                    "type": "channel",
                    "subtype": "noteOff",
                    "channel": 5,
                    "noteNumber": 64,
                    "velocity": 0,
                    "lightChannels": [
                        5
                    ]
                }
            },
            "garden": {
                "pinValue": 1,
                "ticks": 0,
                "event": {
                    "deltaTime": 0,
                    "type": "channel",
                    "subtype": "noteOn",
                    "channel": 5,
                    "noteNumber": 59,
                    "velocity": 111,
                    "lightChannels": [
                        8
                    ]
                }
            }
        }
    },
    {
        "changes": {
            "garden": 0,
            "tree": 1
        },
        "timeout": 0.1578945,
        "raw": {
            "garden": {
                "pinValue": 0,
                "ticks": 240,
                "event": {
                    "deltaTime": 240,
                    "type": "channel",
                    "subtype": "noteOff",
                    "channel": 5,
                    "noteNumber": 59,
                    "velocity": 0,
                    "lightChannels": [
                        8
                    ]
                }
            },
            "tree": {
                "pinValue": 1,
                "ticks": 0,
                "event": {
                    "deltaTime": 0,
                    "type": "channel",
                    "subtype": "noteOn",
                    "channel": 5,
                    "noteNumber": 59,
                    "velocity": 111,
                    "lightChannels": [
                        9
                    ]
                }
            }
        }
    },
    {
        "changes": {
            "window": 1,
            "outline": 1,
            "tree": 0,
            "col-2": 1
        },
        "timeout": 0.1578945,
        "raw": {
            "window": {
                "pinValue": 1,
                "ticks": 0,
                "event": {
                    "deltaTime": 0,
                    "type": "channel",
                    "subtype": "noteOn",
                    "channel": 3,
                    "noteNumber": 64,
                    "velocity": 111,
                    "lightChannels": [
                        6,
                        7
                    ]
                }
            },
            "outline": {
                "pinValue": 1,
                "ticks": 0,
                "event": {
                    "deltaTime": 0,
                    "type": "channel",
                    "subtype": "noteOn",
                    "channel": 3,
                    "noteNumber": 64,
                    "velocity": 111,
                    "lightChannels": [
                        6,
                        7
                    ]
                }
            },
            "tree": {
                "pinValue": 0,
                "ticks": 0,
                "event": {
                    "deltaTime": 0,
                    "type": "channel",
                    "subtype": "noteOff",
                    "channel": 5,
                    "noteNumber": 59,
                    "velocity": 0,
                    "lightChannels": [
                        9
                    ]
                }
            },
            "col-2": {
                "pinValue": 1,
                "ticks": 0,
                "event": {
                    "deltaTime": 0,
                    "type": "channel",
                    "subtype": "noteOn",
                    "channel": 5,
                    "noteNumber": 64,
                    "velocity": 111,
                    "lightChannels": [
                        4
                    ]
                }
            }
        }
    },
    {
        "changes": {
            "col-2": 0
        },
        "timeout": 0.1578945,
        "raw": {
            "col-2": {
                "pinValue": 0,
                "ticks": 240,
                "event": {
                    "deltaTime": 240,
                    "type": "channel",
                    "subtype": "noteOff",
                    "channel": 5,
                    "noteNumber": 64,
                    "velocity": 0,
                    "lightChannels": [
                        4
                    ]
                }
            }
        }
    },
    {
        "changes": {
            "window": 0,
            "outline": 0,
            "col-1": 1
        },
        "timeout": 0.1578945,
        "raw": {
            "window": {
                "pinValue": 0,
                "ticks": 240,
                "event": {
                    "deltaTime": 240,
                    "type": "channel",
                    "subtype": "noteOff",
                    "channel": 3,
                    "noteNumber": 64,
                    "velocity": 0,
                    "lightChannels": [
                        6,
                        7
                    ]
                }
            },
            "outline": {
                "pinValue": 0,
                "ticks": 240,
                "event": {
                    "deltaTime": 240,
                    "type": "channel",
                    "subtype": "noteOff",
                    "channel": 3,
                    "noteNumber": 64,
                    "velocity": 0,
                    "lightChannels": [
                        6,
                        7
                    ]
                }
            },
            "col-1": {
                "pinValue": 1,
                "ticks": 0,
                "event": {
                    "deltaTime": 0,
                    "type": "channel",
                    "subtype": "noteOn",
                    "channel": 5,
                    "noteNumber": 64,
                    "velocity": 111,
                    "lightChannels": [
                        3
                    ]
                }
            }
        }
    },
    {
        "changes": {
            "col-1": 0,
            "garden": 1
        },
        "timeout": 0.1578945,
        "raw": {
            "col-1": {
                "pinValue": 0,
                "ticks": 240,
                "event": {
                    "deltaTime": 240,
                    "type": "channel",
                    "subtype": "noteOff",
                    "channel": 5,
                    "noteNumber": 64,
                    "velocity": 0,
                    "lightChannels": [
                        3
                    ]
                }
            },
            "garden": {
                "pinValue": 1,
                "ticks": 0,
                "event": {
                    "deltaTime": 0,
                    "type": "channel",
                    "subtype": "noteOn",
                    "channel": 5,
                    "noteNumber": 64,
                    "velocity": 111,
                    "lightChannels": [
                        8
                    ]
                }
            }
        }
    },
    {
        "changes": {
            "window": 1,
            "outline": 1,
            "garage": 0,
            "top-right": 0,
            "bottom-right": 0,
            "garden": 0,
            "col-3": 1
        },
        "timeout": 0.1578945,
        "raw": {
            "window": {
                "pinValue": 1,
                "ticks": 240,
                "event": {
                    "deltaTime": 240,
                    "type": "channel",
                    "subtype": "noteOn",
                    "channel": 3,
                    "noteNumber": 62,
                    "velocity": 111,
                    "lightChannels": [
                        6,
                        7
                    ]
                }
            },
            "outline": {
                "pinValue": 1,
                "ticks": 240,
                "event": {
                    "deltaTime": 240,
                    "type": "channel",
                    "subtype": "noteOn",
                    "channel": 3,
                    "noteNumber": 62,
                    "velocity": 111,
                    "lightChannels": [
                        6,
                        7
                    ]
                }
            },
            "garage": {
                "pinValue": 0,
                "ticks": 0,
                "event": {
                    "deltaTime": 0,
                    "type": "channel",
                    "subtype": "noteOff",
                    "channel": 4,
                    "noteNumber": 59,
                    "velocity": 0,
                    "lightChannels": [
                        0,
                        1,
                        2
                    ]
                }
            },
            "top-right": {
                "pinValue": 0,
                "ticks": 0,
                "event": {
                    "deltaTime": 0,
                    "type": "channel",
                    "subtype": "noteOff",
                    "channel": 4,
                    "noteNumber": 59,
                    "velocity": 0,
                    "lightChannels": [
                        0,
                        1,
                        2
                    ]
                }
            },
            "bottom-right": {
                "pinValue": 0,
                "ticks": 0,
                "event": {
                    "deltaTime": 0,
                    "type": "channel",
                    "subtype": "noteOff",
                    "channel": 4,
                    "noteNumber": 59,
                    "velocity": 0,
                    "lightChannels": [
                        0,
                        1,
                        2
                    ]
                }
            },
            "garden": {
                "pinValue": 0,
                "ticks": 0,
                "event": {
                    "deltaTime": 0,
                    "type": "channel",
                    "subtype": "noteOff",
                    "channel": 5,
                    "noteNumber": 64,
                    "velocity": 0,
                    "lightChannels": [
                        8
                    ]
                }
            },
            "col-3": {
                "pinValue": 1,
                "ticks": 0,
                "event": {
                    "deltaTime": 0,
                    "type": "channel",
                    "subtype": "noteOn",
                    "channel": 5,
                    "noteNumber": 59,
                    "velocity": 111,
                    "lightChannels": [
                        5
                    ]
                }
            }
        }
    },
    {
        "changes": {
            "col-3": 0,
            "tree": 1
        },
        "timeout": 0.1578945,
        "raw": {
            "col-3": {
                "pinValue": 0,
                "ticks": 240,
                "event": {
                    "deltaTime": 240,
                    "type": "channel",
                    "subtype": "noteOff",
                    "channel": 5,
                    "noteNumber": 59,
                    "velocity": 0,
                    "lightChannels": [
                        5
                    ]
                }
            },
            "tree": {
                "pinValue": 1,
                "ticks": 0,
                "event": {
                    "deltaTime": 0,
                    "type": "channel",
                    "subtype": "noteOn",
                    "channel": 5,
                    "noteNumber": 59,
                    "velocity": 111,
                    "lightChannels": [
                        9
                    ]
                }
            }
        }
    },
    {
        "changes": {
            "window": 1,
            "outline": 1,
            "tree": 0,
            "col-1": 1
        },
        "timeout": 0.1578945,
        "raw": {
            "window": {
                "pinValue": 1,
                "ticks": 0,
                "event": {
                    "deltaTime": 0,
                    "type": "channel",
                    "subtype": "noteOn",
                    "channel": 3,
                    "noteNumber": 64,
                    "velocity": 111,
                    "lightChannels": [
                        6,
                        7
                    ]
                }
            },
            "outline": {
                "pinValue": 1,
                "ticks": 0,
                "event": {
                    "deltaTime": 0,
                    "type": "channel",
                    "subtype": "noteOn",
                    "channel": 3,
                    "noteNumber": 64,
                    "velocity": 111,
                    "lightChannels": [
                        6,
                        7
                    ]
                }
            },
            "tree": {
                "pinValue": 0,
                "ticks": 0,
                "event": {
                    "deltaTime": 0,
                    "type": "channel",
                    "subtype": "noteOff",
                    "channel": 5,
                    "noteNumber": 59,
                    "velocity": 0,
                    "lightChannels": [
                        9
                    ]
                }
            },
            "col-1": {
                "pinValue": 1,
                "ticks": 0,
                "event": {
                    "deltaTime": 0,
                    "type": "channel",
                    "subtype": "noteOn",
                    "channel": 5,
                    "noteNumber": 64,
                    "velocity": 111,
                    "lightChannels": [
                        3
                    ]
                }
            }
        }
    },
    {
        "changes": {
            "col-1": 0
        },
        "timeout": 0.1578945,
        "raw": {
            "col-1": {
                "pinValue": 0,
                "ticks": 240,
                "event": {
                    "deltaTime": 240,
                    "type": "channel",
                    "subtype": "noteOff",
                    "channel": 5,
                    "noteNumber": 64,
                    "velocity": 0,
                    "lightChannels": [
                        3
                    ]
                }
            }
        }
    },
    {
        "changes": {
            "tree": 1
        },
        "timeout": 0.1578945,
        "raw": {
            "tree": {
                "pinValue": 1,
                "ticks": 240,
                "event": {
                    "deltaTime": 240,
                    "type": "channel",
                    "subtype": "noteOn",
                    "channel": 5,
                    "noteNumber": 59,
                    "velocity": 111,
                    "lightChannels": [
                        9
                    ]
                }
            }
        }
    },
    {
        "changes": {
            "tree": 0,
            "col-3": 1
        },
        "timeout": 0.1578945,
        "raw": {
            "tree": {
                "pinValue": 0,
                "ticks": 240,
                "event": {
                    "deltaTime": 240,
                    "type": "channel",
                    "subtype": "noteOff",
                    "channel": 5,
                    "noteNumber": 59,
                    "velocity": 0,
                    "lightChannels": [
                        9
                    ]
                }
            },
            "col-3": {
                "pinValue": 1,
                "ticks": 0,
                "event": {
                    "deltaTime": 0,
                    "type": "channel",
                    "subtype": "noteOn",
                    "channel": 5,
                    "noteNumber": 64,
                    "velocity": 111,
                    "lightChannels": [
                        5
                    ]
                }
            }
        }
    },
    {
        "changes": {
            "window": 0,
            "outline": 0,
            "col-3": 0,
            "garden": 1
        },
        "timeout": 0.1578945,
        "raw": {
            "window": {
                "pinValue": 0,
                "ticks": 240,
                "event": {
                    "deltaTime": 240,
                    "type": "channel",
                    "subtype": "noteOff",
                    "channel": 3,
                    "noteNumber": 64,
                    "velocity": 0,
                    "lightChannels": [
                        6,
                        7
                    ]
                }
            },
            "outline": {
                "pinValue": 0,
                "ticks": 240,
                "event": {
                    "deltaTime": 240,
                    "type": "channel",
                    "subtype": "noteOff",
                    "channel": 3,
                    "noteNumber": 64,
                    "velocity": 0,
                    "lightChannels": [
                        6,
                        7
                    ]
                }
            },
            "col-3": {
                "pinValue": 0,
                "ticks": 0,
                "event": {
                    "deltaTime": 0,
                    "type": "channel",
                    "subtype": "noteOff",
                    "channel": 5,
                    "noteNumber": 64,
                    "velocity": 0,
                    "lightChannels": [
                        5
                    ]
                }
            },
            "garden": {
                "pinValue": 1,
                "ticks": 0,
                "event": {
                    "deltaTime": 0,
                    "type": "channel",
                    "subtype": "noteOn",
                    "channel": 5,
                    "noteNumber": 59,
                    "velocity": 111,
                    "lightChannels": [
                        8
                    ]
                }
            }
        }
    },
    {
        "changes": {
            "garden": 0,
            "tree": 1
        },
        "timeout": 0.1578945,
        "raw": {
            "garden": {
                "pinValue": 0,
                "ticks": 240,
                "event": {
                    "deltaTime": 240,
                    "type": "channel",
                    "subtype": "noteOff",
                    "channel": 5,
                    "noteNumber": 59,
                    "velocity": 0,
                    "lightChannels": [
                        8
                    ]
                }
            },
            "tree": {
                "pinValue": 1,
                "ticks": 0,
                "event": {
                    "deltaTime": 0,
                    "type": "channel",
                    "subtype": "noteOn",
                    "channel": 5,
                    "noteNumber": 59,
                    "velocity": 111,
                    "lightChannels": [
                        9
                    ]
                }
            }
        }
    },
    {
        "changes": {
            "tree": 0,
            "col-2": 1
        },
        "timeout": 0.1578945,
        "raw": {
            "tree": {
                "pinValue": 0,
                "ticks": 240,
                "event": {
                    "deltaTime": 240,
                    "type": "channel",
                    "subtype": "noteOff",
                    "channel": 5,
                    "noteNumber": 59,
                    "velocity": 0,
                    "lightChannels": [
                        9
                    ]
                }
            },
            "col-2": {
                "pinValue": 1,
                "ticks": 0,
                "event": {
                    "deltaTime": 0,
                    "type": "channel",
                    "subtype": "noteOn",
                    "channel": 5,
                    "noteNumber": 64,
                    "velocity": 111,
                    "lightChannels": [
                        4
                    ]
                }
            }
        }
    },
    {
        "changes": {
            "col-2": 0
        },
        "timeout": 0.1578945,
        "raw": {
            "col-2": {
                "pinValue": 0,
                "ticks": 240,
                "event": {
                    "deltaTime": 240,
                    "type": "channel",
                    "subtype": "noteOff",
                    "channel": 5,
                    "noteNumber": 64,
                    "velocity": 0,
                    "lightChannels": [
                        4
                    ]
                }
            }
        }
    },
    {
        "changes": {
            "col-1": 1
        },
        "timeout": 0.1578945,
        "raw": {
            "col-1": {
                "pinValue": 1,
                "ticks": 240,
                "event": {
                    "deltaTime": 240,
                    "type": "channel",
                    "subtype": "noteOn",
                    "channel": 5,
                    "noteNumber": 64,
                    "velocity": 111,
                    "lightChannels": [
                        3
                    ]
                }
            }
        }
    },
    {
        "changes": {
            "col-1": 0,
            "garden": 1
        },
        "timeout": 0.1578945,
        "raw": {
            "col-1": {
                "pinValue": 0,
                "ticks": 240,
                "event": {
                    "deltaTime": 240,
                    "type": "channel",
                    "subtype": "noteOff",
                    "channel": 5,
                    "noteNumber": 64,
                    "velocity": 0,
                    "lightChannels": [
                        3
                    ]
                }
            },
            "garden": {
                "pinValue": 1,
                "ticks": 0,
                "event": {
                    "deltaTime": 0,
                    "type": "channel",
                    "subtype": "noteOn",
                    "channel": 5,
                    "noteNumber": 64,
                    "velocity": 111,
                    "lightChannels": [
                        8
                    ]
                }
            }
        }
    },
    {
        "changes": {
            "garden": 0,
            "col-3": 1
        },
        "timeout": 0.1578945,
        "raw": {
            "garden": {
                "pinValue": 0,
                "ticks": 240,
                "event": {
                    "deltaTime": 240,
                    "type": "channel",
                    "subtype": "noteOff",
                    "channel": 5,
                    "noteNumber": 64,
                    "velocity": 0,
                    "lightChannels": [
                        8
                    ]
                }
            },
            "col-3": {
                "pinValue": 1,
                "ticks": 0,
                "event": {
                    "deltaTime": 0,
                    "type": "channel",
                    "subtype": "noteOn",
                    "channel": 5,
                    "noteNumber": 59,
                    "velocity": 111,
                    "lightChannels": [
                        5
                    ]
                }
            }
        }
    },
    {
        "changes": {
            "col-3": 0,
            "tree": 1
        },
        "timeout": 0.1578945,
        "raw": {
            "col-3": {
                "pinValue": 0,
                "ticks": 240,
                "event": {
                    "deltaTime": 240,
                    "type": "channel",
                    "subtype": "noteOff",
                    "channel": 5,
                    "noteNumber": 59,
                    "velocity": 0,
                    "lightChannels": [
                        5
                    ]
                }
            },
            "tree": {
                "pinValue": 1,
                "ticks": 0,
                "event": {
                    "deltaTime": 0,
                    "type": "channel",
                    "subtype": "noteOn",
                    "channel": 5,
                    "noteNumber": 59,
                    "velocity": 111,
                    "lightChannels": [
                        9
                    ]
                }
            }
        }
    },
    {
        "changes": {
            "tree": 0,
            "col-1": 1
        },
        "timeout": 0.1578945,
        "raw": {
            "tree": {
                "pinValue": 0,
                "ticks": 240,
                "event": {
                    "deltaTime": 240,
                    "type": "channel",
                    "subtype": "noteOff",
                    "channel": 5,
                    "noteNumber": 59,
                    "velocity": 0,
                    "lightChannels": [
                        9
                    ]
                }
            },
            "col-1": {
                "pinValue": 1,
                "ticks": 0,
                "event": {
                    "deltaTime": 0,
                    "type": "channel",
                    "subtype": "noteOn",
                    "channel": 5,
                    "noteNumber": 64,
                    "velocity": 111,
                    "lightChannels": [
                        3
                    ]
                }
            }
        }
    },
    {
        "changes": {
            "col-1": 0
        },
        "timeout": 0.1578945,
        "raw": {
            "col-1": {
                "pinValue": 0,
                "ticks": 240,
                "event": {
                    "deltaTime": 240,
                    "type": "channel",
                    "subtype": "noteOff",
                    "channel": 5,
                    "noteNumber": 64,
                    "velocity": 0,
                    "lightChannels": [
                        3
                    ]
                }
            }
        }
    },
    {
        "changes": {
            "tree": 1
        },
        "timeout": 0.1578945,
        "raw": {
            "tree": {
                "pinValue": 1,
                "ticks": 240,
                "event": {
                    "deltaTime": 240,
                    "type": "channel",
                    "subtype": "noteOn",
                    "channel": 5,
                    "noteNumber": 59,
                    "velocity": 111,
                    "lightChannels": [
                        9
                    ]
                }
            }
        }
    },
    {
        "changes": {
            "tree": 0,
            "col-3": 1
        },
        "timeout": 0.1578945,
        "raw": {
            "tree": {
                "pinValue": 0,
                "ticks": 240,
                "event": {
                    "deltaTime": 240,
                    "type": "channel",
                    "subtype": "noteOff",
                    "channel": 5,
                    "noteNumber": 59,
                    "velocity": 0,
                    "lightChannels": [
                        9
                    ]
                }
            },
            "col-3": {
                "pinValue": 1,
                "ticks": 0,
                "event": {
                    "deltaTime": 0,
                    "type": "channel",
                    "subtype": "noteOn",
                    "channel": 5,
                    "noteNumber": 64,
                    "velocity": 111,
                    "lightChannels": [
                        5
                    ]
                }
            }
        }
    },
    {
        "changes": {
            "col-3": 0,
            "garden": 1
        },
        "timeout": 0.1578945,
        "raw": {
            "col-3": {
                "pinValue": 0,
                "ticks": 240,
                "event": {
                    "deltaTime": 240,
                    "type": "channel",
                    "subtype": "noteOff",
                    "channel": 5,
                    "noteNumber": 64,
                    "velocity": 0,
                    "lightChannels": [
                        5
                    ]
                }
            },
            "garden": {
                "pinValue": 1,
                "ticks": 0,
                "event": {
                    "deltaTime": 0,
                    "type": "channel",
                    "subtype": "noteOn",
                    "channel": 5,
                    "noteNumber": 59,
                    "velocity": 111,
                    "lightChannels": [
                        8
                    ]
                }
            }
        }
    },
    {
        "changes": {
            "garden": 0,
            "tree": 1
        },
        "timeout": 0.1578945,
        "raw": {
            "garden": {
                "pinValue": 0,
                "ticks": 240,
                "event": {
                    "deltaTime": 240,
                    "type": "channel",
                    "subtype": "noteOff",
                    "channel": 5,
                    "noteNumber": 59,
                    "velocity": 0,
                    "lightChannels": [
                        8
                    ]
                }
            },
            "tree": {
                "pinValue": 1,
                "ticks": 0,
                "event": {
                    "deltaTime": 0,
                    "type": "channel",
                    "subtype": "noteOn",
                    "channel": 5,
                    "noteNumber": 59,
                    "velocity": 111,
                    "lightChannels": [
                        9
                    ]
                }
            }
        }
    },
    {
        "changes": {
            "tree": 0,
            "col-2": 1
        },
        "timeout": 0.1578945,
        "raw": {
            "tree": {
                "pinValue": 0,
                "ticks": 240,
                "event": {
                    "deltaTime": 240,
                    "type": "channel",
                    "subtype": "noteOff",
                    "channel": 5,
                    "noteNumber": 59,
                    "velocity": 0,
                    "lightChannels": [
                        9
                    ]
                }
            },
            "col-2": {
                "pinValue": 1,
                "ticks": 0,
                "event": {
                    "deltaTime": 0,
                    "type": "channel",
                    "subtype": "noteOn",
                    "channel": 5,
                    "noteNumber": 64,
                    "velocity": 111,
                    "lightChannels": [
                        4
                    ]
                }
            }
        }
    },
    {
        "changes": {
            "col-2": 0
        },
        "timeout": 0.1578945,
        "raw": {
            "col-2": {
                "pinValue": 0,
                "ticks": 240,
                "event": {
                    "deltaTime": 240,
                    "type": "channel",
                    "subtype": "noteOff",
                    "channel": 5,
                    "noteNumber": 64,
                    "velocity": 0,
                    "lightChannels": [
                        4
                    ]
                }
            }
        }
    },
    {
        "changes": {
            "col-1": 1
        },
        "timeout": 0.1578945,
        "raw": {
            "col-1": {
                "pinValue": 1,
                "ticks": 240,
                "event": {
                    "deltaTime": 240,
                    "type": "channel",
                    "subtype": "noteOn",
                    "channel": 5,
                    "noteNumber": 64,
                    "velocity": 111,
                    "lightChannels": [
                        3
                    ]
                }
            }
        }
    },
    {
        "changes": {
            "col-1": 0,
            "garden": 1
        },
        "timeout": 0.1578945,
        "raw": {
            "col-1": {
                "pinValue": 0,
                "ticks": 240,
                "event": {
                    "deltaTime": 240,
                    "type": "channel",
                    "subtype": "noteOff",
                    "channel": 5,
                    "noteNumber": 64,
                    "velocity": 0,
                    "lightChannels": [
                        3
                    ]
                }
            },
            "garden": {
                "pinValue": 1,
                "ticks": 0,
                "event": {
                    "deltaTime": 0,
                    "type": "channel",
                    "subtype": "noteOn",
                    "channel": 5,
                    "noteNumber": 64,
                    "velocity": 111,
                    "lightChannels": [
                        8
                    ]
                }
            }
        }
    },
    {
        "changes": {
            "window": 1,
            "outline": 1,
            "garage": 1,
            "garden": 0,
            "col-3": 1
        },
        "timeout": 0.1578945,
        "raw": {
            "window": {
                "pinValue": 1,
                "ticks": 240,
                "event": {
                    "deltaTime": 240,
                    "type": "channel",
                    "subtype": "noteOn",
                    "channel": 3,
                    "noteNumber": 62,
                    "velocity": 111,
                    "lightChannels": [
                        6,
                        7
                    ]
                }
            },
            "outline": {
                "pinValue": 1,
                "ticks": 240,
                "event": {
                    "deltaTime": 240,
                    "type": "channel",
                    "subtype": "noteOn",
                    "channel": 3,
                    "noteNumber": 62,
                    "velocity": 111,
                    "lightChannels": [
                        6,
                        7
                    ]
                }
            },
            "garage": {
                "pinValue": 1,
                "ticks": 0,
                "event": {
                    "deltaTime": 0,
                    "type": "channel",
                    "subtype": "noteOn",
                    "channel": 4,
                    "noteNumber": 64,
                    "velocity": 111,
                    "lightChannels": [
                        0
                    ]
                }
            },
            "garden": {
                "pinValue": 0,
                "ticks": 0,
                "event": {
                    "deltaTime": 0,
                    "type": "channel",
                    "subtype": "noteOff",
                    "channel": 5,
                    "noteNumber": 64,
                    "velocity": 0,
                    "lightChannels": [
                        8
                    ]
                }
            },
            "col-3": {
                "pinValue": 1,
                "ticks": 0,
                "event": {
                    "deltaTime": 0,
                    "type": "channel",
                    "subtype": "noteOn",
                    "channel": 5,
                    "noteNumber": 59,
                    "velocity": 111,
                    "lightChannels": [
                        5
                    ]
                }
            }
        }
    },
    {
        "changes": {
            "col-3": 0,
            "tree": 1
        },
        "timeout": 0.1578945,
        "raw": {
            "col-3": {
                "pinValue": 0,
                "ticks": 240,
                "event": {
                    "deltaTime": 240,
                    "type": "channel",
                    "subtype": "noteOff",
                    "channel": 5,
                    "noteNumber": 59,
                    "velocity": 0,
                    "lightChannels": [
                        5
                    ]
                }
            },
            "tree": {
                "pinValue": 1,
                "ticks": 0,
                "event": {
                    "deltaTime": 0,
                    "type": "channel",
                    "subtype": "noteOn",
                    "channel": 5,
                    "noteNumber": 59,
                    "velocity": 111,
                    "lightChannels": [
                        9
                    ]
                }
            }
        }
    },
    {
        "changes": {
            "window": 1,
            "outline": 1,
            "tree": 0,
            "col-1": 1
        },
        "timeout": 0.1578945,
        "raw": {
            "window": {
                "pinValue": 1,
                "ticks": 0,
                "event": {
                    "deltaTime": 0,
                    "type": "channel",
                    "subtype": "noteOn",
                    "channel": 3,
                    "noteNumber": 64,
                    "velocity": 111,
                    "lightChannels": [
                        6,
                        7
                    ]
                }
            },
            "outline": {
                "pinValue": 1,
                "ticks": 0,
                "event": {
                    "deltaTime": 0,
                    "type": "channel",
                    "subtype": "noteOn",
                    "channel": 3,
                    "noteNumber": 64,
                    "velocity": 111,
                    "lightChannels": [
                        6,
                        7
                    ]
                }
            },
            "tree": {
                "pinValue": 0,
                "ticks": 0,
                "event": {
                    "deltaTime": 0,
                    "type": "channel",
                    "subtype": "noteOff",
                    "channel": 5,
                    "noteNumber": 59,
                    "velocity": 0,
                    "lightChannels": [
                        9
                    ]
                }
            },
            "col-1": {
                "pinValue": 1,
                "ticks": 0,
                "event": {
                    "deltaTime": 0,
                    "type": "channel",
                    "subtype": "noteOn",
                    "channel": 5,
                    "noteNumber": 64,
                    "velocity": 111,
                    "lightChannels": [
                        3
                    ]
                }
            }
        }
    },
    {
        "changes": {
            "col-1": 0
        },
        "timeout": 0.1578945,
        "raw": {
            "col-1": {
                "pinValue": 0,
                "ticks": 240,
                "event": {
                    "deltaTime": 240,
                    "type": "channel",
                    "subtype": "noteOff",
                    "channel": 5,
                    "noteNumber": 64,
                    "velocity": 0,
                    "lightChannels": [
                        3
                    ]
                }
            }
        }
    },
    {
        "changes": {
            "window": 0,
            "outline": 0,
            "tree": 1
        },
        "timeout": 0.1578945,
        "raw": {
            "window": {
                "pinValue": 0,
                "ticks": 240,
                "event": {
                    "deltaTime": 240,
                    "type": "channel",
                    "subtype": "noteOff",
                    "channel": 3,
                    "noteNumber": 64,
                    "velocity": 0,
                    "lightChannels": [
                        6,
                        7
                    ]
                }
            },
            "outline": {
                "pinValue": 0,
                "ticks": 240,
                "event": {
                    "deltaTime": 240,
                    "type": "channel",
                    "subtype": "noteOff",
                    "channel": 3,
                    "noteNumber": 64,
                    "velocity": 0,
                    "lightChannels": [
                        6,
                        7
                    ]
                }
            },
            "tree": {
                "pinValue": 1,
                "ticks": 0,
                "event": {
                    "deltaTime": 0,
                    "type": "channel",
                    "subtype": "noteOn",
                    "channel": 5,
                    "noteNumber": 59,
                    "velocity": 111,
                    "lightChannels": [
                        9
                    ]
                }
            }
        }
    },
    {
        "changes": {
            "tree": 0,
            "col-3": 1
        },
        "timeout": 0.1578945,
        "raw": {
            "tree": {
                "pinValue": 0,
                "ticks": 240,
                "event": {
                    "deltaTime": 240,
                    "type": "channel",
                    "subtype": "noteOff",
                    "channel": 5,
                    "noteNumber": 59,
                    "velocity": 0,
                    "lightChannels": [
                        9
                    ]
                }
            },
            "col-3": {
                "pinValue": 1,
                "ticks": 0,
                "event": {
                    "deltaTime": 0,
                    "type": "channel",
                    "subtype": "noteOn",
                    "channel": 5,
                    "noteNumber": 64,
                    "velocity": 111,
                    "lightChannels": [
                        5
                    ]
                }
            }
        }
    },
    {
        "changes": {
            "window": 1,
            "outline": 1,
            "garage": 0,
            "top-right": 1,
            "col-3": 0,
            "garden": 1
        },
        "timeout": 0.1578945,
        "raw": {
            "window": {
                "pinValue": 1,
                "ticks": 240,
                "event": {
                    "deltaTime": 240,
                    "type": "channel",
                    "subtype": "noteOn",
                    "channel": 3,
                    "noteNumber": 71,
                    "velocity": 111,
                    "lightChannels": [
                        6,
                        7
                    ]
                }
            },
            "outline": {
                "pinValue": 1,
                "ticks": 240,
                "event": {
                    "deltaTime": 240,
                    "type": "channel",
                    "subtype": "noteOn",
                    "channel": 3,
                    "noteNumber": 71,
                    "velocity": 111,
                    "lightChannels": [
                        6,
                        7
                    ]
                }
            },
            "garage": {
                "pinValue": 0,
                "ticks": 0,
                "event": {
                    "deltaTime": 0,
                    "type": "channel",
                    "subtype": "noteOff",
                    "channel": 4,
                    "noteNumber": 64,
                    "velocity": 0,
                    "lightChannels": [
                        0
                    ]
                }
            },
            "top-right": {
                "pinValue": 1,
                "ticks": 0,
                "event": {
                    "deltaTime": 0,
                    "type": "channel",
                    "subtype": "noteOn",
                    "channel": 4,
                    "noteNumber": 62,
                    "velocity": 111,
                    "lightChannels": [
                        1
                    ]
                }
            },
            "col-3": {
                "pinValue": 0,
                "ticks": 0,
                "event": {
                    "deltaTime": 0,
                    "type": "channel",
                    "subtype": "noteOff",
                    "channel": 5,
                    "noteNumber": 64,
                    "velocity": 0,
                    "lightChannels": [
                        5
                    ]
                }
            },
            "garden": {
                "pinValue": 1,
                "ticks": 0,
                "event": {
                    "deltaTime": 0,
                    "type": "channel",
                    "subtype": "noteOn",
                    "channel": 5,
                    "noteNumber": 59,
                    "velocity": 111,
                    "lightChannels": [
                        8
                    ]
                }
            }
        }
    },
    {
        "changes": {
            "garden": 0,
            "tree": 1
        },
        "timeout": 0.1578945,
        "raw": {
            "garden": {
                "pinValue": 0,
                "ticks": 240,
                "event": {
                    "deltaTime": 240,
                    "type": "channel",
                    "subtype": "noteOff",
                    "channel": 5,
                    "noteNumber": 59,
                    "velocity": 0,
                    "lightChannels": [
                        8
                    ]
                }
            },
            "tree": {
                "pinValue": 1,
                "ticks": 0,
                "event": {
                    "deltaTime": 0,
                    "type": "channel",
                    "subtype": "noteOn",
                    "channel": 5,
                    "noteNumber": 59,
                    "velocity": 111,
                    "lightChannels": [
                        9
                    ]
                }
            }
        }
    },
    {
        "changes": {
            "window": 1,
            "outline": 1,
            "tree": 0,
            "col-2": 1
        },
        "timeout": 0.1578945,
        "raw": {
            "window": {
                "pinValue": 1,
                "ticks": 0,
                "event": {
                    "deltaTime": 0,
                    "type": "channel",
                    "subtype": "noteOn",
                    "channel": 3,
                    "noteNumber": 71,
                    "velocity": 111,
                    "lightChannels": [
                        6,
                        7
                    ]
                }
            },
            "outline": {
                "pinValue": 1,
                "ticks": 0,
                "event": {
                    "deltaTime": 0,
                    "type": "channel",
                    "subtype": "noteOn",
                    "channel": 3,
                    "noteNumber": 71,
                    "velocity": 111,
                    "lightChannels": [
                        6,
                        7
                    ]
                }
            },
            "tree": {
                "pinValue": 0,
                "ticks": 0,
                "event": {
                    "deltaTime": 0,
                    "type": "channel",
                    "subtype": "noteOff",
                    "channel": 5,
                    "noteNumber": 59,
                    "velocity": 0,
                    "lightChannels": [
                        9
                    ]
                }
            },
            "col-2": {
                "pinValue": 1,
                "ticks": 0,
                "event": {
                    "deltaTime": 0,
                    "type": "channel",
                    "subtype": "noteOn",
                    "channel": 5,
                    "noteNumber": 64,
                    "velocity": 111,
                    "lightChannels": [
                        4
                    ]
                }
            }
        }
    },
    {
        "changes": {
            "col-2": 0
        },
        "timeout": 0.1578945,
        "raw": {
            "col-2": {
                "pinValue": 0,
                "ticks": 240,
                "event": {
                    "deltaTime": 240,
                    "type": "channel",
                    "subtype": "noteOff",
                    "channel": 5,
                    "noteNumber": 64,
                    "velocity": 0,
                    "lightChannels": [
                        4
                    ]
                }
            }
        }
    },
    {
        "changes": {
            "window": 0,
            "outline": 0,
            "col-1": 1
        },
        "timeout": 0.1578945,
        "raw": {
            "window": {
                "pinValue": 0,
                "ticks": 240,
                "event": {
                    "deltaTime": 240,
                    "type": "channel",
                    "subtype": "noteOff",
                    "channel": 3,
                    "noteNumber": 71,
                    "velocity": 0,
                    "lightChannels": [
                        6,
                        7
                    ]
                }
            },
            "outline": {
                "pinValue": 0,
                "ticks": 240,
                "event": {
                    "deltaTime": 240,
                    "type": "channel",
                    "subtype": "noteOff",
                    "channel": 3,
                    "noteNumber": 71,
                    "velocity": 0,
                    "lightChannels": [
                        6,
                        7
                    ]
                }
            },
            "col-1": {
                "pinValue": 1,
                "ticks": 0,
                "event": {
                    "deltaTime": 0,
                    "type": "channel",
                    "subtype": "noteOn",
                    "channel": 5,
                    "noteNumber": 64,
                    "velocity": 111,
                    "lightChannels": [
                        3
                    ]
                }
            }
        }
    },
    {
        "changes": {
            "col-1": 0,
            "garden": 1
        },
        "timeout": 0.1578945,
        "raw": {
            "col-1": {
                "pinValue": 0,
                "ticks": 240,
                "event": {
                    "deltaTime": 240,
                    "type": "channel",
                    "subtype": "noteOff",
                    "channel": 5,
                    "noteNumber": 64,
                    "velocity": 0,
                    "lightChannels": [
                        3
                    ]
                }
            },
            "garden": {
                "pinValue": 1,
                "ticks": 0,
                "event": {
                    "deltaTime": 0,
                    "type": "channel",
                    "subtype": "noteOn",
                    "channel": 5,
                    "noteNumber": 64,
                    "velocity": 111,
                    "lightChannels": [
                        8
                    ]
                }
            }
        }
    },
    {
        "changes": {
            "window": 1,
            "outline": 1,
            "top-right": 0,
            "bottom-right": 1,
            "garden": 0,
            "col-3": 1
        },
        "timeout": 0.1578945,
        "raw": {
            "window": {
                "pinValue": 1,
                "ticks": 240,
                "event": {
                    "deltaTime": 240,
                    "type": "channel",
                    "subtype": "noteOn",
                    "channel": 3,
                    "noteNumber": 69,
                    "velocity": 111,
                    "lightChannels": [
                        6,
                        7
                    ]
                }
            },
            "outline": {
                "pinValue": 1,
                "ticks": 240,
                "event": {
                    "deltaTime": 240,
                    "type": "channel",
                    "subtype": "noteOn",
                    "channel": 3,
                    "noteNumber": 69,
                    "velocity": 111,
                    "lightChannels": [
                        6,
                        7
                    ]
                }
            },
            "top-right": {
                "pinValue": 0,
                "ticks": 0,
                "event": {
                    "deltaTime": 0,
                    "type": "channel",
                    "subtype": "noteOff",
                    "channel": 4,
                    "noteNumber": 62,
                    "velocity": 0,
                    "lightChannels": [
                        1
                    ]
                }
            },
            "bottom-right": {
                "pinValue": 1,
                "ticks": 0,
                "event": {
                    "deltaTime": 0,
                    "type": "channel",
                    "subtype": "noteOn",
                    "channel": 4,
                    "noteNumber": 60,
                    "velocity": 111,
                    "lightChannels": [
                        2
                    ]
                }
            },
            "garden": {
                "pinValue": 0,
                "ticks": 0,
                "event": {
                    "deltaTime": 0,
                    "type": "channel",
                    "subtype": "noteOff",
                    "channel": 5,
                    "noteNumber": 64,
                    "velocity": 0,
                    "lightChannels": [
                        8
                    ]
                }
            },
            "col-3": {
                "pinValue": 1,
                "ticks": 0,
                "event": {
                    "deltaTime": 0,
                    "type": "channel",
                    "subtype": "noteOn",
                    "channel": 5,
                    "noteNumber": 59,
                    "velocity": 111,
                    "lightChannels": [
                        5
                    ]
                }
            }
        }
    },
    {
        "changes": {
            "col-3": 0,
            "tree": 1
        },
        "timeout": 0.1578945,
        "raw": {
            "col-3": {
                "pinValue": 0,
                "ticks": 240,
                "event": {
                    "deltaTime": 240,
                    "type": "channel",
                    "subtype": "noteOff",
                    "channel": 5,
                    "noteNumber": 59,
                    "velocity": 0,
                    "lightChannels": [
                        5
                    ]
                }
            },
            "tree": {
                "pinValue": 1,
                "ticks": 0,
                "event": {
                    "deltaTime": 0,
                    "type": "channel",
                    "subtype": "noteOn",
                    "channel": 5,
                    "noteNumber": 59,
                    "velocity": 111,
                    "lightChannels": [
                        9
                    ]
                }
            }
        }
    },
    {
        "changes": {
            "window": 1,
            "outline": 1,
            "tree": 0,
            "col-1": 1
        },
        "timeout": 0.1578945,
        "raw": {
            "window": {
                "pinValue": 1,
                "ticks": 0,
                "event": {
                    "deltaTime": 0,
                    "type": "channel",
                    "subtype": "noteOn",
                    "channel": 3,
                    "noteNumber": 67,
                    "velocity": 111,
                    "lightChannels": [
                        6,
                        7
                    ]
                }
            },
            "outline": {
                "pinValue": 1,
                "ticks": 0,
                "event": {
                    "deltaTime": 0,
                    "type": "channel",
                    "subtype": "noteOn",
                    "channel": 3,
                    "noteNumber": 67,
                    "velocity": 111,
                    "lightChannels": [
                        6,
                        7
                    ]
                }
            },
            "tree": {
                "pinValue": 0,
                "ticks": 0,
                "event": {
                    "deltaTime": 0,
                    "type": "channel",
                    "subtype": "noteOff",
                    "channel": 5,
                    "noteNumber": 59,
                    "velocity": 0,
                    "lightChannels": [
                        9
                    ]
                }
            },
            "col-1": {
                "pinValue": 1,
                "ticks": 0,
                "event": {
                    "deltaTime": 0,
                    "type": "channel",
                    "subtype": "noteOn",
                    "channel": 5,
                    "noteNumber": 64,
                    "velocity": 111,
                    "lightChannels": [
                        3
                    ]
                }
            }
        }
    },
    {
        "changes": {
            "col-1": 0
        },
        "timeout": 0.1578945,
        "raw": {
            "col-1": {
                "pinValue": 0,
                "ticks": 240,
                "event": {
                    "deltaTime": 240,
                    "type": "channel",
                    "subtype": "noteOff",
                    "channel": 5,
                    "noteNumber": 64,
                    "velocity": 0,
                    "lightChannels": [
                        3
                    ]
                }
            }
        }
    },
    {
        "changes": {
            "window": 0,
            "outline": 0,
            "tree": 1
        },
        "timeout": 0.1578945,
        "raw": {
            "window": {
                "pinValue": 0,
                "ticks": 240,
                "event": {
                    "deltaTime": 240,
                    "type": "channel",
                    "subtype": "noteOff",
                    "channel": 3,
                    "noteNumber": 67,
                    "velocity": 0,
                    "lightChannels": [
                        6,
                        7
                    ]
                }
            },
            "outline": {
                "pinValue": 0,
                "ticks": 240,
                "event": {
                    "deltaTime": 240,
                    "type": "channel",
                    "subtype": "noteOff",
                    "channel": 3,
                    "noteNumber": 67,
                    "velocity": 0,
                    "lightChannels": [
                        6,
                        7
                    ]
                }
            },
            "tree": {
                "pinValue": 1,
                "ticks": 0,
                "event": {
                    "deltaTime": 0,
                    "type": "channel",
                    "subtype": "noteOn",
                    "channel": 5,
                    "noteNumber": 59,
                    "velocity": 111,
                    "lightChannels": [
                        9
                    ]
                }
            }
        }
    },
    {
        "changes": {
            "tree": 0,
            "col-3": 1
        },
        "timeout": 0.1578945,
        "raw": {
            "tree": {
                "pinValue": 0,
                "ticks": 240,
                "event": {
                    "deltaTime": 240,
                    "type": "channel",
                    "subtype": "noteOff",
                    "channel": 5,
                    "noteNumber": 59,
                    "velocity": 0,
                    "lightChannels": [
                        9
                    ]
                }
            },
            "col-3": {
                "pinValue": 1,
                "ticks": 0,
                "event": {
                    "deltaTime": 0,
                    "type": "channel",
                    "subtype": "noteOn",
                    "channel": 5,
                    "noteNumber": 64,
                    "velocity": 111,
                    "lightChannels": [
                        5
                    ]
                }
            }
        }
    },
    {
        "changes": {
            "window": 1,
            "outline": 1,
            "bottom-right": 1,
            "garage": 1,
            "top-right": 1,
            "col-3": 0,
            "garden": 1
        },
        "timeout": 0.1578945,
        "raw": {
            "window": {
                "pinValue": 1,
                "ticks": 240,
                "event": {
                    "deltaTime": 240,
                    "type": "channel",
                    "subtype": "noteOn",
                    "channel": 3,
                    "noteNumber": 66,
                    "velocity": 111,
                    "lightChannels": [
                        6,
                        7
                    ]
                }
            },
            "outline": {
                "pinValue": 1,
                "ticks": 240,
                "event": {
                    "deltaTime": 240,
                    "type": "channel",
                    "subtype": "noteOn",
                    "channel": 3,
                    "noteNumber": 66,
                    "velocity": 111,
                    "lightChannels": [
                        6,
                        7
                    ]
                }
            },
            "bottom-right": {
                "pinValue": 1,
                "ticks": 0,
                "event": {
                    "deltaTime": 0,
                    "type": "channel",
                    "subtype": "noteOn",
                    "channel": 4,
                    "noteNumber": 59,
                    "velocity": 111,
                    "lightChannels": [
                        0,
                        1,
                        2
                    ]
                }
            },
            "garage": {
                "pinValue": 1,
                "ticks": 0,
                "event": {
                    "deltaTime": 0,
                    "type": "channel",
                    "subtype": "noteOn",
                    "channel": 4,
                    "noteNumber": 59,
                    "velocity": 111,
                    "lightChannels": [
                        0,
                        1,
                        2
                    ]
                }
            },
            "top-right": {
                "pinValue": 1,
                "ticks": 0,
                "event": {
                    "deltaTime": 0,
                    "type": "channel",
                    "subtype": "noteOn",
                    "channel": 4,
                    "noteNumber": 59,
                    "velocity": 111,
                    "lightChannels": [
                        0,
                        1,
                        2
                    ]
                }
            },
            "col-3": {
                "pinValue": 0,
                "ticks": 0,
                "event": {
                    "deltaTime": 0,
                    "type": "channel",
                    "subtype": "noteOff",
                    "channel": 5,
                    "noteNumber": 64,
                    "velocity": 0,
                    "lightChannels": [
                        5
                    ]
                }
            },
            "garden": {
                "pinValue": 1,
                "ticks": 0,
                "event": {
                    "deltaTime": 0,
                    "type": "channel",
                    "subtype": "noteOn",
                    "channel": 5,
                    "noteNumber": 59,
                    "velocity": 111,
                    "lightChannels": [
                        8
                    ]
                }
            }
        }
    },
    {
        "changes": {
            "garden": 0,
            "tree": 1
        },
        "timeout": 0.1578945,
        "raw": {
            "garden": {
                "pinValue": 0,
                "ticks": 240,
                "event": {
                    "deltaTime": 240,
                    "type": "channel",
                    "subtype": "noteOff",
                    "channel": 5,
                    "noteNumber": 59,
                    "velocity": 0,
                    "lightChannels": [
                        8
                    ]
                }
            },
            "tree": {
                "pinValue": 1,
                "ticks": 0,
                "event": {
                    "deltaTime": 0,
                    "type": "channel",
                    "subtype": "noteOn",
                    "channel": 5,
                    "noteNumber": 59,
                    "velocity": 111,
                    "lightChannels": [
                        9
                    ]
                }
            }
        }
    },
    {
        "changes": {
            "window": 1,
            "outline": 1,
            "tree": 0,
            "col-2": 1
        },
        "timeout": 0.1578945,
        "raw": {
            "window": {
                "pinValue": 1,
                "ticks": 0,
                "event": {
                    "deltaTime": 0,
                    "type": "channel",
                    "subtype": "noteOn",
                    "channel": 3,
                    "noteNumber": 64,
                    "velocity": 111,
                    "lightChannels": [
                        6,
                        7
                    ]
                }
            },
            "outline": {
                "pinValue": 1,
                "ticks": 0,
                "event": {
                    "deltaTime": 0,
                    "type": "channel",
                    "subtype": "noteOn",
                    "channel": 3,
                    "noteNumber": 64,
                    "velocity": 111,
                    "lightChannels": [
                        6,
                        7
                    ]
                }
            },
            "tree": {
                "pinValue": 0,
                "ticks": 0,
                "event": {
                    "deltaTime": 0,
                    "type": "channel",
                    "subtype": "noteOff",
                    "channel": 5,
                    "noteNumber": 59,
                    "velocity": 0,
                    "lightChannels": [
                        9
                    ]
                }
            },
            "col-2": {
                "pinValue": 1,
                "ticks": 0,
                "event": {
                    "deltaTime": 0,
                    "type": "channel",
                    "subtype": "noteOn",
                    "channel": 5,
                    "noteNumber": 64,
                    "velocity": 111,
                    "lightChannels": [
                        4
                    ]
                }
            }
        }
    },
    {
        "changes": {
            "col-2": 0
        },
        "timeout": 0.1578945,
        "raw": {
            "col-2": {
                "pinValue": 0,
                "ticks": 240,
                "event": {
                    "deltaTime": 240,
                    "type": "channel",
                    "subtype": "noteOff",
                    "channel": 5,
                    "noteNumber": 64,
                    "velocity": 0,
                    "lightChannels": [
                        4
                    ]
                }
            }
        }
    },
    {
        "changes": {
            "window": 0,
            "outline": 0,
            "col-1": 1
        },
        "timeout": 0.1578945,
        "raw": {
            "window": {
                "pinValue": 0,
                "ticks": 240,
                "event": {
                    "deltaTime": 240,
                    "type": "channel",
                    "subtype": "noteOff",
                    "channel": 3,
                    "noteNumber": 64,
                    "velocity": 0,
                    "lightChannels": [
                        6,
                        7
                    ]
                }
            },
            "outline": {
                "pinValue": 0,
                "ticks": 240,
                "event": {
                    "deltaTime": 240,
                    "type": "channel",
                    "subtype": "noteOff",
                    "channel": 3,
                    "noteNumber": 64,
                    "velocity": 0,
                    "lightChannels": [
                        6,
                        7
                    ]
                }
            },
            "col-1": {
                "pinValue": 1,
                "ticks": 0,
                "event": {
                    "deltaTime": 0,
                    "type": "channel",
                    "subtype": "noteOn",
                    "channel": 5,
                    "noteNumber": 64,
                    "velocity": 111,
                    "lightChannels": [
                        3
                    ]
                }
            }
        }
    },
    {
        "changes": {
            "col-1": 0,
            "garden": 1
        },
        "timeout": 0.1578945,
        "raw": {
            "col-1": {
                "pinValue": 0,
                "ticks": 240,
                "event": {
                    "deltaTime": 240,
                    "type": "channel",
                    "subtype": "noteOff",
                    "channel": 5,
                    "noteNumber": 64,
                    "velocity": 0,
                    "lightChannels": [
                        3
                    ]
                }
            },
            "garden": {
                "pinValue": 1,
                "ticks": 0,
                "event": {
                    "deltaTime": 0,
                    "type": "channel",
                    "subtype": "noteOn",
                    "channel": 5,
                    "noteNumber": 64,
                    "velocity": 111,
                    "lightChannels": [
                        8
                    ]
                }
            }
        }
    },
    {
        "changes": {
            "window": 1,
            "outline": 1,
            "garage": 0,
            "top-right": 0,
            "bottom-right": 0,
            "garden": 0,
            "col-3": 1
        },
        "timeout": 0.1578945,
        "raw": {
            "window": {
                "pinValue": 1,
                "ticks": 240,
                "event": {
                    "deltaTime": 240,
                    "type": "channel",
                    "subtype": "noteOn",
                    "channel": 3,
                    "noteNumber": 62,
                    "velocity": 111,
                    "lightChannels": [
                        6,
                        7
                    ]
                }
            },
            "outline": {
                "pinValue": 1,
                "ticks": 240,
                "event": {
                    "deltaTime": 240,
                    "type": "channel",
                    "subtype": "noteOn",
                    "channel": 3,
                    "noteNumber": 62,
                    "velocity": 111,
                    "lightChannels": [
                        6,
                        7
                    ]
                }
            },
            "garage": {
                "pinValue": 0,
                "ticks": 0,
                "event": {
                    "deltaTime": 0,
                    "type": "channel",
                    "subtype": "noteOff",
                    "channel": 4,
                    "noteNumber": 59,
                    "velocity": 0,
                    "lightChannels": [
                        0,
                        1,
                        2
                    ]
                }
            },
            "top-right": {
                "pinValue": 0,
                "ticks": 0,
                "event": {
                    "deltaTime": 0,
                    "type": "channel",
                    "subtype": "noteOff",
                    "channel": 4,
                    "noteNumber": 59,
                    "velocity": 0,
                    "lightChannels": [
                        0,
                        1,
                        2
                    ]
                }
            },
            "bottom-right": {
                "pinValue": 0,
                "ticks": 0,
                "event": {
                    "deltaTime": 0,
                    "type": "channel",
                    "subtype": "noteOff",
                    "channel": 4,
                    "noteNumber": 59,
                    "velocity": 0,
                    "lightChannels": [
                        0,
                        1,
                        2
                    ]
                }
            },
            "garden": {
                "pinValue": 0,
                "ticks": 0,
                "event": {
                    "deltaTime": 0,
                    "type": "channel",
                    "subtype": "noteOff",
                    "channel": 5,
                    "noteNumber": 64,
                    "velocity": 0,
                    "lightChannels": [
                        8
                    ]
                }
            },
            "col-3": {
                "pinValue": 1,
                "ticks": 0,
                "event": {
                    "deltaTime": 0,
                    "type": "channel",
                    "subtype": "noteOn",
                    "channel": 5,
                    "noteNumber": 59,
                    "velocity": 111,
                    "lightChannels": [
                        5
                    ]
                }
            }
        }
    },
    {
        "changes": {
            "col-3": 0,
            "tree": 1
        },
        "timeout": 0.1578945,
        "raw": {
            "col-3": {
                "pinValue": 0,
                "ticks": 240,
                "event": {
                    "deltaTime": 240,
                    "type": "channel",
                    "subtype": "noteOff",
                    "channel": 5,
                    "noteNumber": 59,
                    "velocity": 0,
                    "lightChannels": [
                        5
                    ]
                }
            },
            "tree": {
                "pinValue": 1,
                "ticks": 0,
                "event": {
                    "deltaTime": 0,
                    "type": "channel",
                    "subtype": "noteOn",
                    "channel": 5,
                    "noteNumber": 59,
                    "velocity": 111,
                    "lightChannels": [
                        9
                    ]
                }
            }
        }
    },
    {
        "changes": {
            "window": 1,
            "outline": 1,
            "tree": 0,
            "col-1": 1
        },
        "timeout": 0.1578945,
        "raw": {
            "window": {
                "pinValue": 1,
                "ticks": 0,
                "event": {
                    "deltaTime": 0,
                    "type": "channel",
                    "subtype": "noteOn",
                    "channel": 3,
                    "noteNumber": 64,
                    "velocity": 111,
                    "lightChannels": [
                        6,
                        7
                    ]
                }
            },
            "outline": {
                "pinValue": 1,
                "ticks": 0,
                "event": {
                    "deltaTime": 0,
                    "type": "channel",
                    "subtype": "noteOn",
                    "channel": 3,
                    "noteNumber": 64,
                    "velocity": 111,
                    "lightChannels": [
                        6,
                        7
                    ]
                }
            },
            "tree": {
                "pinValue": 0,
                "ticks": 0,
                "event": {
                    "deltaTime": 0,
                    "type": "channel",
                    "subtype": "noteOff",
                    "channel": 5,
                    "noteNumber": 59,
                    "velocity": 0,
                    "lightChannels": [
                        9
                    ]
                }
            },
            "col-1": {
                "pinValue": 1,
                "ticks": 0,
                "event": {
                    "deltaTime": 0,
                    "type": "channel",
                    "subtype": "noteOn",
                    "channel": 5,
                    "noteNumber": 64,
                    "velocity": 111,
                    "lightChannels": [
                        3
                    ]
                }
            }
        }
    },
    {
        "changes": {
            "col-1": 0
        },
        "timeout": 0.1578945,
        "raw": {
            "col-1": {
                "pinValue": 0,
                "ticks": 240,
                "event": {
                    "deltaTime": 240,
                    "type": "channel",
                    "subtype": "noteOff",
                    "channel": 5,
                    "noteNumber": 64,
                    "velocity": 0,
                    "lightChannels": [
                        3
                    ]
                }
            }
        }
    },
    {
        "changes": {
            "tree": 1
        },
        "timeout": 0.1578945,
        "raw": {
            "tree": {
                "pinValue": 1,
                "ticks": 240,
                "event": {
                    "deltaTime": 240,
                    "type": "channel",
                    "subtype": "noteOn",
                    "channel": 5,
                    "noteNumber": 59,
                    "velocity": 111,
                    "lightChannels": [
                        9
                    ]
                }
            }
        }
    },
    {
        "changes": {
            "tree": 0,
            "col-3": 1
        },
        "timeout": 0.1578945,
        "raw": {
            "tree": {
                "pinValue": 0,
                "ticks": 240,
                "event": {
                    "deltaTime": 240,
                    "type": "channel",
                    "subtype": "noteOff",
                    "channel": 5,
                    "noteNumber": 59,
                    "velocity": 0,
                    "lightChannels": [
                        9
                    ]
                }
            },
            "col-3": {
                "pinValue": 1,
                "ticks": 0,
                "event": {
                    "deltaTime": 0,
                    "type": "channel",
                    "subtype": "noteOn",
                    "channel": 5,
                    "noteNumber": 64,
                    "velocity": 111,
                    "lightChannels": [
                        5
                    ]
                }
            }
        }
    },
    {
        "changes": {
            "window": 0,
            "outline": 0,
            "col-3": 0,
            "garden": 1
        },
        "timeout": 0.1578945,
        "raw": {
            "window": {
                "pinValue": 0,
                "ticks": 240,
                "event": {
                    "deltaTime": 240,
                    "type": "channel",
                    "subtype": "noteOff",
                    "channel": 3,
                    "noteNumber": 64,
                    "velocity": 0,
                    "lightChannels": [
                        6,
                        7
                    ]
                }
            },
            "outline": {
                "pinValue": 0,
                "ticks": 240,
                "event": {
                    "deltaTime": 240,
                    "type": "channel",
                    "subtype": "noteOff",
                    "channel": 3,
                    "noteNumber": 64,
                    "velocity": 0,
                    "lightChannels": [
                        6,
                        7
                    ]
                }
            },
            "col-3": {
                "pinValue": 0,
                "ticks": 0,
                "event": {
                    "deltaTime": 0,
                    "type": "channel",
                    "subtype": "noteOff",
                    "channel": 5,
                    "noteNumber": 64,
                    "velocity": 0,
                    "lightChannels": [
                        5
                    ]
                }
            },
            "garden": {
                "pinValue": 1,
                "ticks": 0,
                "event": {
                    "deltaTime": 0,
                    "type": "channel",
                    "subtype": "noteOn",
                    "channel": 5,
                    "noteNumber": 59,
                    "velocity": 111,
                    "lightChannels": [
                        8
                    ]
                }
            }
        }
    },
    {
        "changes": {
            "garden": 0,
            "tree": 1
        },
        "timeout": 0.1578945,
        "raw": {
            "garden": {
                "pinValue": 0,
                "ticks": 240,
                "event": {
                    "deltaTime": 240,
                    "type": "channel",
                    "subtype": "noteOff",
                    "channel": 5,
                    "noteNumber": 59,
                    "velocity": 0,
                    "lightChannels": [
                        8
                    ]
                }
            },
            "tree": {
                "pinValue": 1,
                "ticks": 0,
                "event": {
                    "deltaTime": 0,
                    "type": "channel",
                    "subtype": "noteOn",
                    "channel": 5,
                    "noteNumber": 59,
                    "velocity": 111,
                    "lightChannels": [
                        9
                    ]
                }
            }
        }
    },
    {
        "changes": {
            "tree": 0,
            "col-2": 1
        },
        "timeout": 0.1578945,
        "raw": {
            "tree": {
                "pinValue": 0,
                "ticks": 240,
                "event": {
                    "deltaTime": 240,
                    "type": "channel",
                    "subtype": "noteOff",
                    "channel": 5,
                    "noteNumber": 59,
                    "velocity": 0,
                    "lightChannels": [
                        9
                    ]
                }
            },
            "col-2": {
                "pinValue": 1,
                "ticks": 0,
                "event": {
                    "deltaTime": 0,
                    "type": "channel",
                    "subtype": "noteOn",
                    "channel": 5,
                    "noteNumber": 64,
                    "velocity": 111,
                    "lightChannels": [
                        4
                    ]
                }
            }
        }
    },
    {
        "changes": {
            "col-2": 0
        },
        "timeout": 0.1578945,
        "raw": {
            "col-2": {
                "pinValue": 0,
                "ticks": 240,
                "event": {
                    "deltaTime": 240,
                    "type": "channel",
                    "subtype": "noteOff",
                    "channel": 5,
                    "noteNumber": 64,
                    "velocity": 0,
                    "lightChannels": [
                        4
                    ]
                }
            }
        }
    },
    {
        "changes": {
            "col-1": 1
        },
        "timeout": 0.1578945,
        "raw": {
            "col-1": {
                "pinValue": 1,
                "ticks": 240,
                "event": {
                    "deltaTime": 240,
                    "type": "channel",
                    "subtype": "noteOn",
                    "channel": 5,
                    "noteNumber": 64,
                    "velocity": 111,
                    "lightChannels": [
                        3
                    ]
                }
            }
        }
    },
    {
        "changes": {
            "col-1": 0,
            "garden": 1
        },
        "timeout": 0.1578945,
        "raw": {
            "col-1": {
                "pinValue": 0,
                "ticks": 240,
                "event": {
                    "deltaTime": 240,
                    "type": "channel",
                    "subtype": "noteOff",
                    "channel": 5,
                    "noteNumber": 64,
                    "velocity": 0,
                    "lightChannels": [
                        3
                    ]
                }
            },
            "garden": {
                "pinValue": 1,
                "ticks": 0,
                "event": {
                    "deltaTime": 0,
                    "type": "channel",
                    "subtype": "noteOn",
                    "channel": 5,
                    "noteNumber": 64,
                    "velocity": 111,
                    "lightChannels": [
                        8
                    ]
                }
            }
        }
    },
    {
        "changes": {
            "garden": 0,
            "col-3": 1
        },
        "timeout": 0.1578945,
        "raw": {
            "garden": {
                "pinValue": 0,
                "ticks": 240,
                "event": {
                    "deltaTime": 240,
                    "type": "channel",
                    "subtype": "noteOff",
                    "channel": 5,
                    "noteNumber": 64,
                    "velocity": 0,
                    "lightChannels": [
                        8
                    ]
                }
            },
            "col-3": {
                "pinValue": 1,
                "ticks": 0,
                "event": {
                    "deltaTime": 0,
                    "type": "channel",
                    "subtype": "noteOn",
                    "channel": 5,
                    "noteNumber": 59,
                    "velocity": 111,
                    "lightChannels": [
                        5
                    ]
                }
            }
        }
    },
    {
        "changes": {
            "col-3": 0,
            "tree": 1
        },
        "timeout": 0.1578945,
        "raw": {
            "col-3": {
                "pinValue": 0,
                "ticks": 240,
                "event": {
                    "deltaTime": 240,
                    "type": "channel",
                    "subtype": "noteOff",
                    "channel": 5,
                    "noteNumber": 59,
                    "velocity": 0,
                    "lightChannels": [
                        5
                    ]
                }
            },
            "tree": {
                "pinValue": 1,
                "ticks": 0,
                "event": {
                    "deltaTime": 0,
                    "type": "channel",
                    "subtype": "noteOn",
                    "channel": 5,
                    "noteNumber": 59,
                    "velocity": 111,
                    "lightChannels": [
                        9
                    ]
                }
            }
        }
    },
    {
        "changes": {
            "tree": 0,
            "col-1": 1
        },
        "timeout": 0.1578945,
        "raw": {
            "tree": {
                "pinValue": 0,
                "ticks": 240,
                "event": {
                    "deltaTime": 240,
                    "type": "channel",
                    "subtype": "noteOff",
                    "channel": 5,
                    "noteNumber": 59,
                    "velocity": 0,
                    "lightChannels": [
                        9
                    ]
                }
            },
            "col-1": {
                "pinValue": 1,
                "ticks": 0,
                "event": {
                    "deltaTime": 0,
                    "type": "channel",
                    "subtype": "noteOn",
                    "channel": 5,
                    "noteNumber": 64,
                    "velocity": 111,
                    "lightChannels": [
                        3
                    ]
                }
            }
        }
    },
    {
        "changes": {
            "col-1": 0
        },
        "timeout": 0.1578945,
        "raw": {
            "col-1": {
                "pinValue": 0,
                "ticks": 240,
                "event": {
                    "deltaTime": 240,
                    "type": "channel",
                    "subtype": "noteOff",
                    "channel": 5,
                    "noteNumber": 64,
                    "velocity": 0,
                    "lightChannels": [
                        3
                    ]
                }
            }
        }
    },
    {
        "changes": {
            "tree": 1
        },
        "timeout": 0.1578945,
        "raw": {
            "tree": {
                "pinValue": 1,
                "ticks": 240,
                "event": {
                    "deltaTime": 240,
                    "type": "channel",
                    "subtype": "noteOn",
                    "channel": 5,
                    "noteNumber": 59,
                    "velocity": 111,
                    "lightChannels": [
                        9
                    ]
                }
            }
        }
    },
    {
        "changes": {
            "tree": 0,
            "col-3": 1
        },
        "timeout": 0.1578945,
        "raw": {
            "tree": {
                "pinValue": 0,
                "ticks": 240,
                "event": {
                    "deltaTime": 240,
                    "type": "channel",
                    "subtype": "noteOff",
                    "channel": 5,
                    "noteNumber": 59,
                    "velocity": 0,
                    "lightChannels": [
                        9
                    ]
                }
            },
            "col-3": {
                "pinValue": 1,
                "ticks": 0,
                "event": {
                    "deltaTime": 0,
                    "type": "channel",
                    "subtype": "noteOn",
                    "channel": 5,
                    "noteNumber": 64,
                    "velocity": 111,
                    "lightChannels": [
                        5
                    ]
                }
            }
        }
    },
    {
        "changes": {
            "col-3": 0,
            "garden": 1
        },
        "timeout": 0.1578945,
        "raw": {
            "col-3": {
                "pinValue": 0,
                "ticks": 240,
                "event": {
                    "deltaTime": 240,
                    "type": "channel",
                    "subtype": "noteOff",
                    "channel": 5,
                    "noteNumber": 64,
                    "velocity": 0,
                    "lightChannels": [
                        5
                    ]
                }
            },
            "garden": {
                "pinValue": 1,
                "ticks": 0,
                "event": {
                    "deltaTime": 0,
                    "type": "channel",
                    "subtype": "noteOn",
                    "channel": 5,
                    "noteNumber": 59,
                    "velocity": 111,
                    "lightChannels": [
                        8
                    ]
                }
            }
        }
    },
    {
        "changes": {
            "garden": 0,
            "tree": 1
        },
        "timeout": 0.1578945,
        "raw": {
            "garden": {
                "pinValue": 0,
                "ticks": 240,
                "event": {
                    "deltaTime": 240,
                    "type": "channel",
                    "subtype": "noteOff",
                    "channel": 5,
                    "noteNumber": 59,
                    "velocity": 0,
                    "lightChannels": [
                        8
                    ]
                }
            },
            "tree": {
                "pinValue": 1,
                "ticks": 0,
                "event": {
                    "deltaTime": 0,
                    "type": "channel",
                    "subtype": "noteOn",
                    "channel": 5,
                    "noteNumber": 59,
                    "velocity": 111,
                    "lightChannels": [
                        9
                    ]
                }
            }
        }
    },
    {
        "changes": {
            "tree": 0,
            "col-2": 1
        },
        "timeout": 0.1578945,
        "raw": {
            "tree": {
                "pinValue": 0,
                "ticks": 240,
                "event": {
                    "deltaTime": 240,
                    "type": "channel",
                    "subtype": "noteOff",
                    "channel": 5,
                    "noteNumber": 59,
                    "velocity": 0,
                    "lightChannels": [
                        9
                    ]
                }
            },
            "col-2": {
                "pinValue": 1,
                "ticks": 0,
                "event": {
                    "deltaTime": 0,
                    "type": "channel",
                    "subtype": "noteOn",
                    "channel": 5,
                    "noteNumber": 64,
                    "velocity": 111,
                    "lightChannels": [
                        4
                    ]
                }
            }
        }
    },
    {
        "changes": {
            "col-2": 0
        },
        "timeout": 0.1578945,
        "raw": {
            "col-2": {
                "pinValue": 0,
                "ticks": 240,
                "event": {
                    "deltaTime": 240,
                    "type": "channel",
                    "subtype": "noteOff",
                    "channel": 5,
                    "noteNumber": 64,
                    "velocity": 0,
                    "lightChannels": [
                        4
                    ]
                }
            }
        }
    },
    {
        "changes": {
            "col-1": 1
        },
        "timeout": 0.1578945,
        "raw": {
            "col-1": {
                "pinValue": 1,
                "ticks": 240,
                "event": {
                    "deltaTime": 240,
                    "type": "channel",
                    "subtype": "noteOn",
                    "channel": 5,
                    "noteNumber": 64,
                    "velocity": 111,
                    "lightChannels": [
                        3
                    ]
                }
            }
        }
    },
    {
        "changes": {
            "col-1": 0,
            "garden": 1
        },
        "timeout": 0.1578945,
        "raw": {
            "col-1": {
                "pinValue": 0,
                "ticks": 240,
                "event": {
                    "deltaTime": 240,
                    "type": "channel",
                    "subtype": "noteOff",
                    "channel": 5,
                    "noteNumber": 64,
                    "velocity": 0,
                    "lightChannels": [
                        3
                    ]
                }
            },
            "garden": {
                "pinValue": 1,
                "ticks": 0,
                "event": {
                    "deltaTime": 0,
                    "type": "channel",
                    "subtype": "noteOn",
                    "channel": 5,
                    "noteNumber": 64,
                    "velocity": 111,
                    "lightChannels": [
                        8
                    ]
                }
            }
        }
    },
    {
        "changes": {
            "garden": 0,
            "col-3": 1
        },
        "timeout": 0.1578945,
        "raw": {
            "garden": {
                "pinValue": 0,
                "ticks": 240,
                "event": {
                    "deltaTime": 240,
                    "type": "channel",
                    "subtype": "noteOff",
                    "channel": 5,
                    "noteNumber": 64,
                    "velocity": 0,
                    "lightChannels": [
                        8
                    ]
                }
            },
            "col-3": {
                "pinValue": 1,
                "ticks": 0,
                "event": {
                    "deltaTime": 0,
                    "type": "channel",
                    "subtype": "noteOn",
                    "channel": 5,
                    "noteNumber": 59,
                    "velocity": 111,
                    "lightChannels": [
                        5
                    ]
                }
            }
        }
    },
    {
        "changes": {
            "col-3": 0,
            "tree": 1
        },
        "timeout": 0.1578945,
        "raw": {
            "col-3": {
                "pinValue": 0,
                "ticks": 240,
                "event": {
                    "deltaTime": 240,
                    "type": "channel",
                    "subtype": "noteOff",
                    "channel": 5,
                    "noteNumber": 59,
                    "velocity": 0,
                    "lightChannels": [
                        5
                    ]
                }
            },
            "tree": {
                "pinValue": 1,
                "ticks": 0,
                "event": {
                    "deltaTime": 0,
                    "type": "channel",
                    "subtype": "noteOn",
                    "channel": 5,
                    "noteNumber": 59,
                    "velocity": 111,
                    "lightChannels": [
                        9
                    ]
                }
            }
        }
    },
    {
        "changes": {
            "garage": 1,
            "top-right": 1,
            "bottom-right": 1,
            "col-1": 1,
            "col-2": 1,
            "col-3": 1,
            "window": 1,
            "outline": 1,
            "garden": 1,
            "tree": 0
        },
        "timeout": 0.1578945,
        "raw": {
            "garage": {
                "pinValue": 1,
                "ticks": 0,
                "event": {
                    "deltaTime": 0,
                    "type": "channel",
                    "subtype": "noteOn",
                    "channel": 4,
                    "noteNumber": 47,
                    "velocity": 111,
                    "lightChannels": [
                        0,
                        1,
                        2,
                        3,
                        4,
                        5,
                        6,
                        7,
                        8,
                        9
                    ]
                }
            },
            "top-right": {
                "pinValue": 1,
                "ticks": 0,
                "event": {
                    "deltaTime": 0,
                    "type": "channel",
                    "subtype": "noteOn",
                    "channel": 4,
                    "noteNumber": 47,
                    "velocity": 111,
                    "lightChannels": [
                        0,
                        1,
                        2,
                        3,
                        4,
                        5,
                        6,
                        7,
                        8,
                        9
                    ]
                }
            },
            "bottom-right": {
                "pinValue": 1,
                "ticks": 0,
                "event": {
                    "deltaTime": 0,
                    "type": "channel",
                    "subtype": "noteOn",
                    "channel": 4,
                    "noteNumber": 47,
                    "velocity": 111,
                    "lightChannels": [
                        0,
                        1,
                        2,
                        3,
                        4,
                        5,
                        6,
                        7,
                        8,
                        9
                    ]
                }
            },
            "col-1": {
                "pinValue": 1,
                "ticks": 0,
                "event": {
                    "deltaTime": 0,
                    "type": "channel",
                    "subtype": "noteOn",
                    "channel": 4,
                    "noteNumber": 47,
                    "velocity": 111,
                    "lightChannels": [
                        0,
                        1,
                        2,
                        3,
                        4,
                        5,
                        6,
                        7,
                        8,
                        9
                    ]
                }
            },
            "col-2": {
                "pinValue": 1,
                "ticks": 0,
                "event": {
                    "deltaTime": 0,
                    "type": "channel",
                    "subtype": "noteOn",
                    "channel": 4,
                    "noteNumber": 47,
                    "velocity": 111,
                    "lightChannels": [
                        0,
                        1,
                        2,
                        3,
                        4,
                        5,
                        6,
                        7,
                        8,
                        9
                    ]
                }
            },
            "col-3": {
                "pinValue": 1,
                "ticks": 0,
                "event": {
                    "deltaTime": 0,
                    "type": "channel",
                    "subtype": "noteOn",
                    "channel": 4,
                    "noteNumber": 47,
                    "velocity": 111,
                    "lightChannels": [
                        0,
                        1,
                        2,
                        3,
                        4,
                        5,
                        6,
                        7,
                        8,
                        9
                    ]
                }
            },
            "window": {
                "pinValue": 1,
                "ticks": 0,
                "event": {
                    "deltaTime": 0,
                    "type": "channel",
                    "subtype": "noteOn",
                    "channel": 4,
                    "noteNumber": 47,
                    "velocity": 111,
                    "lightChannels": [
                        0,
                        1,
                        2,
                        3,
                        4,
                        5,
                        6,
                        7,
                        8,
                        9
                    ]
                }
            },
            "outline": {
                "pinValue": 1,
                "ticks": 0,
                "event": {
                    "deltaTime": 0,
                    "type": "channel",
                    "subtype": "noteOn",
                    "channel": 4,
                    "noteNumber": 47,
                    "velocity": 111,
                    "lightChannels": [
                        0,
                        1,
                        2,
                        3,
                        4,
                        5,
                        6,
                        7,
                        8,
                        9
                    ]
                }
            },
            "garden": {
                "pinValue": 1,
                "ticks": 0,
                "event": {
                    "deltaTime": 0,
                    "type": "channel",
                    "subtype": "noteOn",
                    "channel": 4,
                    "noteNumber": 47,
                    "velocity": 111,
                    "lightChannels": [
                        0,
                        1,
                        2,
                        3,
                        4,
                        5,
                        6,
                        7,
                        8,
                        9
                    ]
                }
            },
            "tree": {
                "pinValue": 0,
                "ticks": 0,
                "event": {
                    "deltaTime": 0,
                    "type": "channel",
                    "subtype": "noteOff",
                    "channel": 5,
                    "noteNumber": 59,
                    "velocity": 0,
                    "lightChannels": [
                        9
                    ]
                }
            }
        }
    },
    {
        "changes": {
            "garage": 0,
            "top-right": 0,
            "bottom-right": 0,
            "col-1": 1,
            "col-2": 0,
            "col-3": 0,
            "window": 0,
            "outline": 0,
            "garden": 0,
            "tree": 0
        },
        "timeout": 0.315789,
        "raw": {
            "garage": {
                "pinValue": 0,
                "ticks": 0,
                "event": {
                    "deltaTime": 0,
                    "type": "channel",
                    "subtype": "noteOff",
                    "channel": 4,
                    "noteNumber": 47,
                    "velocity": 0,
                    "lightChannels": [
                        0,
                        1,
                        2,
                        3,
                        4,
                        5,
                        6,
                        7,
                        8,
                        9
                    ]
                }
            },
            "top-right": {
                "pinValue": 0,
                "ticks": 0,
                "event": {
                    "deltaTime": 0,
                    "type": "channel",
                    "subtype": "noteOff",
                    "channel": 4,
                    "noteNumber": 47,
                    "velocity": 0,
                    "lightChannels": [
                        0,
                        1,
                        2,
                        3,
                        4,
                        5,
                        6,
                        7,
                        8,
                        9
                    ]
                }
            },
            "bottom-right": {
                "pinValue": 0,
                "ticks": 0,
                "event": {
                    "deltaTime": 0,
                    "type": "channel",
                    "subtype": "noteOff",
                    "channel": 4,
                    "noteNumber": 47,
                    "velocity": 0,
                    "lightChannels": [
                        0,
                        1,
                        2,
                        3,
                        4,
                        5,
                        6,
                        7,
                        8,
                        9
                    ]
                }
            },
            "col-1": {
                "pinValue": 1,
                "ticks": 0,
                "event": {
                    "deltaTime": 0,
                    "type": "channel",
                    "subtype": "noteOn",
                    "channel": 4,
                    "noteNumber": 66,
                    "velocity": 111,
                    "lightChannels": [
                        3
                    ]
                }
            },
            "col-2": {
                "pinValue": 0,
                "ticks": 0,
                "event": {
                    "deltaTime": 0,
                    "type": "channel",
                    "subtype": "noteOff",
                    "channel": 4,
                    "noteNumber": 47,
                    "velocity": 0,
                    "lightChannels": [
                        0,
                        1,
                        2,
                        3,
                        4,
                        5,
                        6,
                        7,
                        8,
                        9
                    ]
                }
            },
            "col-3": {
                "pinValue": 0,
                "ticks": 0,
                "event": {
                    "deltaTime": 0,
                    "type": "channel",
                    "subtype": "noteOff",
                    "channel": 4,
                    "noteNumber": 47,
                    "velocity": 0,
                    "lightChannels": [
                        0,
                        1,
                        2,
                        3,
                        4,
                        5,
                        6,
                        7,
                        8,
                        9
                    ]
                }
            },
            "window": {
                "pinValue": 0,
                "ticks": 0,
                "event": {
                    "deltaTime": 0,
                    "type": "channel",
                    "subtype": "noteOff",
                    "channel": 4,
                    "noteNumber": 47,
                    "velocity": 0,
                    "lightChannels": [
                        0,
                        1,
                        2,
                        3,
                        4,
                        5,
                        6,
                        7,
                        8,
                        9
                    ]
                }
            },
            "outline": {
                "pinValue": 0,
                "ticks": 0,
                "event": {
                    "deltaTime": 0,
                    "type": "channel",
                    "subtype": "noteOff",
                    "channel": 4,
                    "noteNumber": 47,
                    "velocity": 0,
                    "lightChannels": [
                        0,
                        1,
                        2,
                        3,
                        4,
                        5,
                        6,
                        7,
                        8,
                        9
                    ]
                }
            },
            "garden": {
                "pinValue": 0,
                "ticks": 0,
                "event": {
                    "deltaTime": 0,
                    "type": "channel",
                    "subtype": "noteOff",
                    "channel": 4,
                    "noteNumber": 47,
                    "velocity": 0,
                    "lightChannels": [
                        0,
                        1,
                        2,
                        3,
                        4,
                        5,
                        6,
                        7,
                        8,
                        9
                    ]
                }
            },
            "tree": {
                "pinValue": 0,
                "ticks": 0,
                "event": {
                    "deltaTime": 0,
                    "type": "channel",
                    "subtype": "noteOff",
                    "channel": 4,
                    "noteNumber": 47,
                    "velocity": 0,
                    "lightChannels": [
                        0,
                        1,
                        2,
                        3,
                        4,
                        5,
                        6,
                        7,
                        8,
                        9
                    ]
                }
            }
        }
    },
    {
        "changes": {
            "col-1": 0,
            "col-3": 1
        },
        "timeout": 0.1578945,
        "raw": {
            "col-1": {
                "pinValue": 0,
                "ticks": 240,
                "event": {
                    "deltaTime": 240,
                    "type": "channel",
                    "subtype": "noteOff",
                    "channel": 4,
                    "noteNumber": 66,
                    "velocity": 0,
                    "lightChannels": [
                        3
                    ]
                }
            },
            "col-3": {
                "pinValue": 1,
                "ticks": 0,
                "event": {
                    "deltaTime": 0,
                    "type": "channel",
                    "subtype": "noteOn",
                    "channel": 4,
                    "noteNumber": 67,
                    "velocity": 111,
                    "lightChannels": [
                        5
                    ]
                }
            }
        }
    },
    {
        "changes": {
            "col-3": 0,
            "col-2": 1
        },
        "timeout": 0.1578945,
        "raw": {
            "col-3": {
                "pinValue": 0,
                "ticks": 240,
                "event": {
                    "deltaTime": 240,
                    "type": "channel",
                    "subtype": "noteOff",
                    "channel": 4,
                    "noteNumber": 67,
                    "velocity": 0,
                    "lightChannels": [
                        5
                    ]
                }
            },
            "col-2": {
                "pinValue": 1,
                "ticks": 0,
                "event": {
                    "deltaTime": 0,
                    "type": "channel",
                    "subtype": "noteOn",
                    "channel": 4,
                    "noteNumber": 64,
                    "velocity": 111,
                    "lightChannels": [
                        4
                    ]
                }
            }
        }
    },
    {
        "changes": {
            "col-2": 1,
            "garage": 1,
            "top-right": 1,
            "bottom-right": 1,
            "col-1": 1,
            "col-3": 1,
            "window": 1,
            "outline": 1,
            "garden": 1,
            "tree": 1
        },
        "timeout": 0.315789,
        "raw": {
            "col-2": {
                "pinValue": 1,
                "ticks": 0,
                "event": {
                    "deltaTime": 0,
                    "type": "channel",
                    "subtype": "noteOn",
                    "channel": 4,
                    "noteNumber": 47,
                    "velocity": 111,
                    "lightChannels": [
                        0,
                        1,
                        2,
                        3,
                        4,
                        5,
                        6,
                        7,
                        8,
                        9
                    ]
                }
            },
            "garage": {
                "pinValue": 1,
                "ticks": 0,
                "event": {
                    "deltaTime": 0,
                    "type": "channel",
                    "subtype": "noteOn",
                    "channel": 4,
                    "noteNumber": 47,
                    "velocity": 111,
                    "lightChannels": [
                        0,
                        1,
                        2,
                        3,
                        4,
                        5,
                        6,
                        7,
                        8,
                        9
                    ]
                }
            },
            "top-right": {
                "pinValue": 1,
                "ticks": 0,
                "event": {
                    "deltaTime": 0,
                    "type": "channel",
                    "subtype": "noteOn",
                    "channel": 4,
                    "noteNumber": 47,
                    "velocity": 111,
                    "lightChannels": [
                        0,
                        1,
                        2,
                        3,
                        4,
                        5,
                        6,
                        7,
                        8,
                        9
                    ]
                }
            },
            "bottom-right": {
                "pinValue": 1,
                "ticks": 0,
                "event": {
                    "deltaTime": 0,
                    "type": "channel",
                    "subtype": "noteOn",
                    "channel": 4,
                    "noteNumber": 47,
                    "velocity": 111,
                    "lightChannels": [
                        0,
                        1,
                        2,
                        3,
                        4,
                        5,
                        6,
                        7,
                        8,
                        9
                    ]
                }
            },
            "col-1": {
                "pinValue": 1,
                "ticks": 0,
                "event": {
                    "deltaTime": 0,
                    "type": "channel",
                    "subtype": "noteOn",
                    "channel": 4,
                    "noteNumber": 47,
                    "velocity": 111,
                    "lightChannels": [
                        0,
                        1,
                        2,
                        3,
                        4,
                        5,
                        6,
                        7,
                        8,
                        9
                    ]
                }
            },
            "col-3": {
                "pinValue": 1,
                "ticks": 0,
                "event": {
                    "deltaTime": 0,
                    "type": "channel",
                    "subtype": "noteOn",
                    "channel": 4,
                    "noteNumber": 47,
                    "velocity": 111,
                    "lightChannels": [
                        0,
                        1,
                        2,
                        3,
                        4,
                        5,
                        6,
                        7,
                        8,
                        9
                    ]
                }
            },
            "window": {
                "pinValue": 1,
                "ticks": 0,
                "event": {
                    "deltaTime": 0,
                    "type": "channel",
                    "subtype": "noteOn",
                    "channel": 4,
                    "noteNumber": 47,
                    "velocity": 111,
                    "lightChannels": [
                        0,
                        1,
                        2,
                        3,
                        4,
                        5,
                        6,
                        7,
                        8,
                        9
                    ]
                }
            },
            "outline": {
                "pinValue": 1,
                "ticks": 0,
                "event": {
                    "deltaTime": 0,
                    "type": "channel",
                    "subtype": "noteOn",
                    "channel": 4,
                    "noteNumber": 47,
                    "velocity": 111,
                    "lightChannels": [
                        0,
                        1,
                        2,
                        3,
                        4,
                        5,
                        6,
                        7,
                        8,
                        9
                    ]
                }
            },
            "garden": {
                "pinValue": 1,
                "ticks": 0,
                "event": {
                    "deltaTime": 0,
                    "type": "channel",
                    "subtype": "noteOn",
                    "channel": 4,
                    "noteNumber": 47,
                    "velocity": 111,
                    "lightChannels": [
                        0,
                        1,
                        2,
                        3,
                        4,
                        5,
                        6,
                        7,
                        8,
                        9
                    ]
                }
            },
            "tree": {
                "pinValue": 1,
                "ticks": 0,
                "event": {
                    "deltaTime": 0,
                    "type": "channel",
                    "subtype": "noteOn",
                    "channel": 4,
                    "noteNumber": 47,
                    "velocity": 111,
                    "lightChannels": [
                        0,
                        1,
                        2,
                        3,
                        4,
                        5,
                        6,
                        7,
                        8,
                        9
                    ]
                }
            }
        }
    },
    {
        "changes": {
            "garage": 0,
            "top-right": 0,
            "bottom-right": 0,
            "col-1": 1,
            "col-2": 0,
            "col-3": 0,
            "window": 0,
            "outline": 0,
            "garden": 0,
            "tree": 0
        },
        "timeout": 0.315789,
        "raw": {
            "garage": {
                "pinValue": 0,
                "ticks": 0,
                "event": {
                    "deltaTime": 0,
                    "type": "channel",
                    "subtype": "noteOff",
                    "channel": 4,
                    "noteNumber": 47,
                    "velocity": 0,
                    "lightChannels": [
                        0,
                        1,
                        2,
                        3,
                        4,
                        5,
                        6,
                        7,
                        8,
                        9
                    ]
                }
            },
            "top-right": {
                "pinValue": 0,
                "ticks": 0,
                "event": {
                    "deltaTime": 0,
                    "type": "channel",
                    "subtype": "noteOff",
                    "channel": 4,
                    "noteNumber": 47,
                    "velocity": 0,
                    "lightChannels": [
                        0,
                        1,
                        2,
                        3,
                        4,
                        5,
                        6,
                        7,
                        8,
                        9
                    ]
                }
            },
            "bottom-right": {
                "pinValue": 0,
                "ticks": 0,
                "event": {
                    "deltaTime": 0,
                    "type": "channel",
                    "subtype": "noteOff",
                    "channel": 4,
                    "noteNumber": 47,
                    "velocity": 0,
                    "lightChannels": [
                        0,
                        1,
                        2,
                        3,
                        4,
                        5,
                        6,
                        7,
                        8,
                        9
                    ]
                }
            },
            "col-1": {
                "pinValue": 1,
                "ticks": 0,
                "event": {
                    "deltaTime": 0,
                    "type": "channel",
                    "subtype": "noteOn",
                    "channel": 4,
                    "noteNumber": 66,
                    "velocity": 111,
                    "lightChannels": [
                        3
                    ]
                }
            },
            "col-2": {
                "pinValue": 0,
                "ticks": 0,
                "event": {
                    "deltaTime": 0,
                    "type": "channel",
                    "subtype": "noteOff",
                    "channel": 4,
                    "noteNumber": 47,
                    "velocity": 0,
                    "lightChannels": [
                        0,
                        1,
                        2,
                        3,
                        4,
                        5,
                        6,
                        7,
                        8,
                        9
                    ]
                }
            },
            "col-3": {
                "pinValue": 0,
                "ticks": 0,
                "event": {
                    "deltaTime": 0,
                    "type": "channel",
                    "subtype": "noteOff",
                    "channel": 4,
                    "noteNumber": 47,
                    "velocity": 0,
                    "lightChannels": [
                        0,
                        1,
                        2,
                        3,
                        4,
                        5,
                        6,
                        7,
                        8,
                        9
                    ]
                }
            },
            "window": {
                "pinValue": 0,
                "ticks": 0,
                "event": {
                    "deltaTime": 0,
                    "type": "channel",
                    "subtype": "noteOff",
                    "channel": 4,
                    "noteNumber": 47,
                    "velocity": 0,
                    "lightChannels": [
                        0,
                        1,
                        2,
                        3,
                        4,
                        5,
                        6,
                        7,
                        8,
                        9
                    ]
                }
            },
            "outline": {
                "pinValue": 0,
                "ticks": 0,
                "event": {
                    "deltaTime": 0,
                    "type": "channel",
                    "subtype": "noteOff",
                    "channel": 4,
                    "noteNumber": 47,
                    "velocity": 0,
                    "lightChannels": [
                        0,
                        1,
                        2,
                        3,
                        4,
                        5,
                        6,
                        7,
                        8,
                        9
                    ]
                }
            },
            "garden": {
                "pinValue": 0,
                "ticks": 0,
                "event": {
                    "deltaTime": 0,
                    "type": "channel",
                    "subtype": "noteOff",
                    "channel": 4,
                    "noteNumber": 47,
                    "velocity": 0,
                    "lightChannels": [
                        0,
                        1,
                        2,
                        3,
                        4,
                        5,
                        6,
                        7,
                        8,
                        9
                    ]
                }
            },
            "tree": {
                "pinValue": 0,
                "ticks": 0,
                "event": {
                    "deltaTime": 0,
                    "type": "channel",
                    "subtype": "noteOff",
                    "channel": 4,
                    "noteNumber": 47,
                    "velocity": 0,
                    "lightChannels": [
                        0,
                        1,
                        2,
                        3,
                        4,
                        5,
                        6,
                        7,
                        8,
                        9
                    ]
                }
            }
        }
    },
    {
        "changes": {
            "col-1": 0,
            "col-3": 1
        },
        "timeout": 0.1578945,
        "raw": {
            "col-1": {
                "pinValue": 0,
                "ticks": 240,
                "event": {
                    "deltaTime": 240,
                    "type": "channel",
                    "subtype": "noteOff",
                    "channel": 4,
                    "noteNumber": 66,
                    "velocity": 0,
                    "lightChannels": [
                        3
                    ]
                }
            },
            "col-3": {
                "pinValue": 1,
                "ticks": 0,
                "event": {
                    "deltaTime": 0,
                    "type": "channel",
                    "subtype": "noteOn",
                    "channel": 4,
                    "noteNumber": 67,
                    "velocity": 111,
                    "lightChannels": [
                        5
                    ]
                }
            }
        }
    },
    {
        "changes": {
            "col-3": 0,
            "col-2": 1
        },
        "timeout": 0.1578945,
        "raw": {
            "col-3": {
                "pinValue": 0,
                "ticks": 240,
                "event": {
                    "deltaTime": 240,
                    "type": "channel",
                    "subtype": "noteOff",
                    "channel": 4,
                    "noteNumber": 67,
                    "velocity": 0,
                    "lightChannels": [
                        5
                    ]
                }
            },
            "col-2": {
                "pinValue": 1,
                "ticks": 0,
                "event": {
                    "deltaTime": 0,
                    "type": "channel",
                    "subtype": "noteOn",
                    "channel": 4,
                    "noteNumber": 64,
                    "velocity": 111,
                    "lightChannels": [
                        4
                    ]
                }
            }
        }
    },
    {
        "changes": {
            "col-2": 1,
            "garage": 1,
            "top-right": 1,
            "bottom-right": 1,
            "col-1": 1,
            "col-3": 1,
            "window": 1,
            "outline": 1,
            "garden": 1,
            "tree": 1
        },
        "timeout": 0.315789,
        "raw": {
            "col-2": {
                "pinValue": 1,
                "ticks": 0,
                "event": {
                    "deltaTime": 0,
                    "type": "channel",
                    "subtype": "noteOn",
                    "channel": 4,
                    "noteNumber": 47,
                    "velocity": 111,
                    "lightChannels": [
                        0,
                        1,
                        2,
                        3,
                        4,
                        5,
                        6,
                        7,
                        8,
                        9
                    ]
                }
            },
            "garage": {
                "pinValue": 1,
                "ticks": 0,
                "event": {
                    "deltaTime": 0,
                    "type": "channel",
                    "subtype": "noteOn",
                    "channel": 4,
                    "noteNumber": 47,
                    "velocity": 111,
                    "lightChannels": [
                        0,
                        1,
                        2,
                        3,
                        4,
                        5,
                        6,
                        7,
                        8,
                        9
                    ]
                }
            },
            "top-right": {
                "pinValue": 1,
                "ticks": 0,
                "event": {
                    "deltaTime": 0,
                    "type": "channel",
                    "subtype": "noteOn",
                    "channel": 4,
                    "noteNumber": 47,
                    "velocity": 111,
                    "lightChannels": [
                        0,
                        1,
                        2,
                        3,
                        4,
                        5,
                        6,
                        7,
                        8,
                        9
                    ]
                }
            },
            "bottom-right": {
                "pinValue": 1,
                "ticks": 0,
                "event": {
                    "deltaTime": 0,
                    "type": "channel",
                    "subtype": "noteOn",
                    "channel": 4,
                    "noteNumber": 47,
                    "velocity": 111,
                    "lightChannels": [
                        0,
                        1,
                        2,
                        3,
                        4,
                        5,
                        6,
                        7,
                        8,
                        9
                    ]
                }
            },
            "col-1": {
                "pinValue": 1,
                "ticks": 0,
                "event": {
                    "deltaTime": 0,
                    "type": "channel",
                    "subtype": "noteOn",
                    "channel": 4,
                    "noteNumber": 47,
                    "velocity": 111,
                    "lightChannels": [
                        0,
                        1,
                        2,
                        3,
                        4,
                        5,
                        6,
                        7,
                        8,
                        9
                    ]
                }
            },
            "col-3": {
                "pinValue": 1,
                "ticks": 0,
                "event": {
                    "deltaTime": 0,
                    "type": "channel",
                    "subtype": "noteOn",
                    "channel": 4,
                    "noteNumber": 47,
                    "velocity": 111,
                    "lightChannels": [
                        0,
                        1,
                        2,
                        3,
                        4,
                        5,
                        6,
                        7,
                        8,
                        9
                    ]
                }
            },
            "window": {
                "pinValue": 1,
                "ticks": 0,
                "event": {
                    "deltaTime": 0,
                    "type": "channel",
                    "subtype": "noteOn",
                    "channel": 4,
                    "noteNumber": 47,
                    "velocity": 111,
                    "lightChannels": [
                        0,
                        1,
                        2,
                        3,
                        4,
                        5,
                        6,
                        7,
                        8,
                        9
                    ]
                }
            },
            "outline": {
                "pinValue": 1,
                "ticks": 0,
                "event": {
                    "deltaTime": 0,
                    "type": "channel",
                    "subtype": "noteOn",
                    "channel": 4,
                    "noteNumber": 47,
                    "velocity": 111,
                    "lightChannels": [
                        0,
                        1,
                        2,
                        3,
                        4,
                        5,
                        6,
                        7,
                        8,
                        9
                    ]
                }
            },
            "garden": {
                "pinValue": 1,
                "ticks": 0,
                "event": {
                    "deltaTime": 0,
                    "type": "channel",
                    "subtype": "noteOn",
                    "channel": 4,
                    "noteNumber": 47,
                    "velocity": 111,
                    "lightChannels": [
                        0,
                        1,
                        2,
                        3,
                        4,
                        5,
                        6,
                        7,
                        8,
                        9
                    ]
                }
            },
            "tree": {
                "pinValue": 1,
                "ticks": 0,
                "event": {
                    "deltaTime": 0,
                    "type": "channel",
                    "subtype": "noteOn",
                    "channel": 4,
                    "noteNumber": 47,
                    "velocity": 111,
                    "lightChannels": [
                        0,
                        1,
                        2,
                        3,
                        4,
                        5,
                        6,
                        7,
                        8,
                        9
                    ]
                }
            }
        }
    },
    {
        "changes": {
            "garage": 0,
            "top-right": 0,
            "bottom-right": 0,
            "col-1": 1,
            "col-2": 0,
            "col-3": 0,
            "window": 0,
            "outline": 0,
            "garden": 0,
            "tree": 0
        },
        "timeout": 0.315789,
        "raw": {
            "garage": {
                "pinValue": 0,
                "ticks": 0,
                "event": {
                    "deltaTime": 0,
                    "type": "channel",
                    "subtype": "noteOff",
                    "channel": 4,
                    "noteNumber": 47,
                    "velocity": 0,
                    "lightChannels": [
                        0,
                        1,
                        2,
                        3,
                        4,
                        5,
                        6,
                        7,
                        8,
                        9
                    ]
                }
            },
            "top-right": {
                "pinValue": 0,
                "ticks": 0,
                "event": {
                    "deltaTime": 0,
                    "type": "channel",
                    "subtype": "noteOff",
                    "channel": 4,
                    "noteNumber": 47,
                    "velocity": 0,
                    "lightChannels": [
                        0,
                        1,
                        2,
                        3,
                        4,
                        5,
                        6,
                        7,
                        8,
                        9
                    ]
                }
            },
            "bottom-right": {
                "pinValue": 0,
                "ticks": 0,
                "event": {
                    "deltaTime": 0,
                    "type": "channel",
                    "subtype": "noteOff",
                    "channel": 4,
                    "noteNumber": 47,
                    "velocity": 0,
                    "lightChannels": [
                        0,
                        1,
                        2,
                        3,
                        4,
                        5,
                        6,
                        7,
                        8,
                        9
                    ]
                }
            },
            "col-1": {
                "pinValue": 1,
                "ticks": 0,
                "event": {
                    "deltaTime": 0,
                    "type": "channel",
                    "subtype": "noteOn",
                    "channel": 4,
                    "noteNumber": 66,
                    "velocity": 111,
                    "lightChannels": [
                        3
                    ]
                }
            },
            "col-2": {
                "pinValue": 0,
                "ticks": 0,
                "event": {
                    "deltaTime": 0,
                    "type": "channel",
                    "subtype": "noteOff",
                    "channel": 4,
                    "noteNumber": 47,
                    "velocity": 0,
                    "lightChannels": [
                        0,
                        1,
                        2,
                        3,
                        4,
                        5,
                        6,
                        7,
                        8,
                        9
                    ]
                }
            },
            "col-3": {
                "pinValue": 0,
                "ticks": 0,
                "event": {
                    "deltaTime": 0,
                    "type": "channel",
                    "subtype": "noteOff",
                    "channel": 4,
                    "noteNumber": 47,
                    "velocity": 0,
                    "lightChannels": [
                        0,
                        1,
                        2,
                        3,
                        4,
                        5,
                        6,
                        7,
                        8,
                        9
                    ]
                }
            },
            "window": {
                "pinValue": 0,
                "ticks": 0,
                "event": {
                    "deltaTime": 0,
                    "type": "channel",
                    "subtype": "noteOff",
                    "channel": 4,
                    "noteNumber": 47,
                    "velocity": 0,
                    "lightChannels": [
                        0,
                        1,
                        2,
                        3,
                        4,
                        5,
                        6,
                        7,
                        8,
                        9
                    ]
                }
            },
            "outline": {
                "pinValue": 0,
                "ticks": 0,
                "event": {
                    "deltaTime": 0,
                    "type": "channel",
                    "subtype": "noteOff",
                    "channel": 4,
                    "noteNumber": 47,
                    "velocity": 0,
                    "lightChannels": [
                        0,
                        1,
                        2,
                        3,
                        4,
                        5,
                        6,
                        7,
                        8,
                        9
                    ]
                }
            },
            "garden": {
                "pinValue": 0,
                "ticks": 0,
                "event": {
                    "deltaTime": 0,
                    "type": "channel",
                    "subtype": "noteOff",
                    "channel": 4,
                    "noteNumber": 47,
                    "velocity": 0,
                    "lightChannels": [
                        0,
                        1,
                        2,
                        3,
                        4,
                        5,
                        6,
                        7,
                        8,
                        9
                    ]
                }
            },
            "tree": {
                "pinValue": 0,
                "ticks": 0,
                "event": {
                    "deltaTime": 0,
                    "type": "channel",
                    "subtype": "noteOff",
                    "channel": 4,
                    "noteNumber": 47,
                    "velocity": 0,
                    "lightChannels": [
                        0,
                        1,
                        2,
                        3,
                        4,
                        5,
                        6,
                        7,
                        8,
                        9
                    ]
                }
            }
        }
    },
    {
        "changes": {
            "col-1": 0,
            "col-3": 1
        },
        "timeout": 0.1578945,
        "raw": {
            "col-1": {
                "pinValue": 0,
                "ticks": 240,
                "event": {
                    "deltaTime": 240,
                    "type": "channel",
                    "subtype": "noteOff",
                    "channel": 4,
                    "noteNumber": 66,
                    "velocity": 0,
                    "lightChannels": [
                        3
                    ]
                }
            },
            "col-3": {
                "pinValue": 1,
                "ticks": 0,
                "event": {
                    "deltaTime": 0,
                    "type": "channel",
                    "subtype": "noteOn",
                    "channel": 4,
                    "noteNumber": 67,
                    "velocity": 111,
                    "lightChannels": [
                        5
                    ]
                }
            }
        }
    },
    {
        "changes": {
            "col-3": 0,
            "col-2": 1
        },
        "timeout": 0.1578945,
        "raw": {
            "col-3": {
                "pinValue": 0,
                "ticks": 240,
                "event": {
                    "deltaTime": 240,
                    "type": "channel",
                    "subtype": "noteOff",
                    "channel": 4,
                    "noteNumber": 67,
                    "velocity": 0,
                    "lightChannels": [
                        5
                    ]
                }
            },
            "col-2": {
                "pinValue": 1,
                "ticks": 0,
                "event": {
                    "deltaTime": 0,
                    "type": "channel",
                    "subtype": "noteOn",
                    "channel": 4,
                    "noteNumber": 64,
                    "velocity": 111,
                    "lightChannels": [
                        4
                    ]
                }
            }
        }
    },
    {
        "changes": {
            "col-2": 1,
            "garage": 1,
            "top-right": 1,
            "bottom-right": 1,
            "col-1": 1,
            "col-3": 1,
            "window": 1,
            "outline": 1,
            "garden": 1,
            "tree": 1
        },
        "timeout": 0.315789,
        "raw": {
            "col-2": {
                "pinValue": 1,
                "ticks": 0,
                "event": {
                    "deltaTime": 0,
                    "type": "channel",
                    "subtype": "noteOn",
                    "channel": 4,
                    "noteNumber": 47,
                    "velocity": 111,
                    "lightChannels": [
                        0,
                        1,
                        2,
                        3,
                        4,
                        5,
                        6,
                        7,
                        8,
                        9
                    ]
                }
            },
            "garage": {
                "pinValue": 1,
                "ticks": 0,
                "event": {
                    "deltaTime": 0,
                    "type": "channel",
                    "subtype": "noteOn",
                    "channel": 4,
                    "noteNumber": 47,
                    "velocity": 111,
                    "lightChannels": [
                        0,
                        1,
                        2,
                        3,
                        4,
                        5,
                        6,
                        7,
                        8,
                        9
                    ]
                }
            },
            "top-right": {
                "pinValue": 1,
                "ticks": 0,
                "event": {
                    "deltaTime": 0,
                    "type": "channel",
                    "subtype": "noteOn",
                    "channel": 4,
                    "noteNumber": 47,
                    "velocity": 111,
                    "lightChannels": [
                        0,
                        1,
                        2,
                        3,
                        4,
                        5,
                        6,
                        7,
                        8,
                        9
                    ]
                }
            },
            "bottom-right": {
                "pinValue": 1,
                "ticks": 0,
                "event": {
                    "deltaTime": 0,
                    "type": "channel",
                    "subtype": "noteOn",
                    "channel": 4,
                    "noteNumber": 47,
                    "velocity": 111,
                    "lightChannels": [
                        0,
                        1,
                        2,
                        3,
                        4,
                        5,
                        6,
                        7,
                        8,
                        9
                    ]
                }
            },
            "col-1": {
                "pinValue": 1,
                "ticks": 0,
                "event": {
                    "deltaTime": 0,
                    "type": "channel",
                    "subtype": "noteOn",
                    "channel": 4,
                    "noteNumber": 47,
                    "velocity": 111,
                    "lightChannels": [
                        0,
                        1,
                        2,
                        3,
                        4,
                        5,
                        6,
                        7,
                        8,
                        9
                    ]
                }
            },
            "col-3": {
                "pinValue": 1,
                "ticks": 0,
                "event": {
                    "deltaTime": 0,
                    "type": "channel",
                    "subtype": "noteOn",
                    "channel": 4,
                    "noteNumber": 47,
                    "velocity": 111,
                    "lightChannels": [
                        0,
                        1,
                        2,
                        3,
                        4,
                        5,
                        6,
                        7,
                        8,
                        9
                    ]
                }
            },
            "window": {
                "pinValue": 1,
                "ticks": 0,
                "event": {
                    "deltaTime": 0,
                    "type": "channel",
                    "subtype": "noteOn",
                    "channel": 4,
                    "noteNumber": 47,
                    "velocity": 111,
                    "lightChannels": [
                        0,
                        1,
                        2,
                        3,
                        4,
                        5,
                        6,
                        7,
                        8,
                        9
                    ]
                }
            },
            "outline": {
                "pinValue": 1,
                "ticks": 0,
                "event": {
                    "deltaTime": 0,
                    "type": "channel",
                    "subtype": "noteOn",
                    "channel": 4,
                    "noteNumber": 47,
                    "velocity": 111,
                    "lightChannels": [
                        0,
                        1,
                        2,
                        3,
                        4,
                        5,
                        6,
                        7,
                        8,
                        9
                    ]
                }
            },
            "garden": {
                "pinValue": 1,
                "ticks": 0,
                "event": {
                    "deltaTime": 0,
                    "type": "channel",
                    "subtype": "noteOn",
                    "channel": 4,
                    "noteNumber": 47,
                    "velocity": 111,
                    "lightChannels": [
                        0,
                        1,
                        2,
                        3,
                        4,
                        5,
                        6,
                        7,
                        8,
                        9
                    ]
                }
            },
            "tree": {
                "pinValue": 1,
                "ticks": 0,
                "event": {
                    "deltaTime": 0,
                    "type": "channel",
                    "subtype": "noteOn",
                    "channel": 4,
                    "noteNumber": 47,
                    "velocity": 111,
                    "lightChannels": [
                        0,
                        1,
                        2,
                        3,
                        4,
                        5,
                        6,
                        7,
                        8,
                        9
                    ]
                }
            }
        }
    },
    {
        "changes": {
            "garage": 0,
            "top-right": 0,
            "bottom-right": 0,
            "col-1": 1,
            "col-2": 0,
            "col-3": 0,
            "window": 0,
            "outline": 0,
            "garden": 0,
            "tree": 0
        },
        "timeout": 0.315789,
        "raw": {
            "garage": {
                "pinValue": 0,
                "ticks": 0,
                "event": {
                    "deltaTime": 0,
                    "type": "channel",
                    "subtype": "noteOff",
                    "channel": 4,
                    "noteNumber": 47,
                    "velocity": 0,
                    "lightChannels": [
                        0,
                        1,
                        2,
                        3,
                        4,
                        5,
                        6,
                        7,
                        8,
                        9
                    ]
                }
            },
            "top-right": {
                "pinValue": 0,
                "ticks": 0,
                "event": {
                    "deltaTime": 0,
                    "type": "channel",
                    "subtype": "noteOff",
                    "channel": 4,
                    "noteNumber": 47,
                    "velocity": 0,
                    "lightChannels": [
                        0,
                        1,
                        2,
                        3,
                        4,
                        5,
                        6,
                        7,
                        8,
                        9
                    ]
                }
            },
            "bottom-right": {
                "pinValue": 0,
                "ticks": 0,
                "event": {
                    "deltaTime": 0,
                    "type": "channel",
                    "subtype": "noteOff",
                    "channel": 4,
                    "noteNumber": 47,
                    "velocity": 0,
                    "lightChannels": [
                        0,
                        1,
                        2,
                        3,
                        4,
                        5,
                        6,
                        7,
                        8,
                        9
                    ]
                }
            },
            "col-1": {
                "pinValue": 1,
                "ticks": 0,
                "event": {
                    "deltaTime": 0,
                    "type": "channel",
                    "subtype": "noteOn",
                    "channel": 4,
                    "noteNumber": 66,
                    "velocity": 111,
                    "lightChannels": [
                        3
                    ]
                }
            },
            "col-2": {
                "pinValue": 0,
                "ticks": 0,
                "event": {
                    "deltaTime": 0,
                    "type": "channel",
                    "subtype": "noteOff",
                    "channel": 4,
                    "noteNumber": 47,
                    "velocity": 0,
                    "lightChannels": [
                        0,
                        1,
                        2,
                        3,
                        4,
                        5,
                        6,
                        7,
                        8,
                        9
                    ]
                }
            },
            "col-3": {
                "pinValue": 0,
                "ticks": 0,
                "event": {
                    "deltaTime": 0,
                    "type": "channel",
                    "subtype": "noteOff",
                    "channel": 4,
                    "noteNumber": 47,
                    "velocity": 0,
                    "lightChannels": [
                        0,
                        1,
                        2,
                        3,
                        4,
                        5,
                        6,
                        7,
                        8,
                        9
                    ]
                }
            },
            "window": {
                "pinValue": 0,
                "ticks": 0,
                "event": {
                    "deltaTime": 0,
                    "type": "channel",
                    "subtype": "noteOff",
                    "channel": 4,
                    "noteNumber": 47,
                    "velocity": 0,
                    "lightChannels": [
                        0,
                        1,
                        2,
                        3,
                        4,
                        5,
                        6,
                        7,
                        8,
                        9
                    ]
                }
            },
            "outline": {
                "pinValue": 0,
                "ticks": 0,
                "event": {
                    "deltaTime": 0,
                    "type": "channel",
                    "subtype": "noteOff",
                    "channel": 4,
                    "noteNumber": 47,
                    "velocity": 0,
                    "lightChannels": [
                        0,
                        1,
                        2,
                        3,
                        4,
                        5,
                        6,
                        7,
                        8,
                        9
                    ]
                }
            },
            "garden": {
                "pinValue": 0,
                "ticks": 0,
                "event": {
                    "deltaTime": 0,
                    "type": "channel",
                    "subtype": "noteOff",
                    "channel": 4,
                    "noteNumber": 47,
                    "velocity": 0,
                    "lightChannels": [
                        0,
                        1,
                        2,
                        3,
                        4,
                        5,
                        6,
                        7,
                        8,
                        9
                    ]
                }
            },
            "tree": {
                "pinValue": 0,
                "ticks": 0,
                "event": {
                    "deltaTime": 0,
                    "type": "channel",
                    "subtype": "noteOff",
                    "channel": 4,
                    "noteNumber": 47,
                    "velocity": 0,
                    "lightChannels": [
                        0,
                        1,
                        2,
                        3,
                        4,
                        5,
                        6,
                        7,
                        8,
                        9
                    ]
                }
            }
        }
    },
    {
        "changes": {
            "col-1": 0,
            "col-3": 1
        },
        "timeout": 0.1578945,
        "raw": {
            "col-1": {
                "pinValue": 0,
                "ticks": 240,
                "event": {
                    "deltaTime": 240,
                    "type": "channel",
                    "subtype": "noteOff",
                    "channel": 4,
                    "noteNumber": 66,
                    "velocity": 0,
                    "lightChannels": [
                        3
                    ]
                }
            },
            "col-3": {
                "pinValue": 1,
                "ticks": 0,
                "event": {
                    "deltaTime": 0,
                    "type": "channel",
                    "subtype": "noteOn",
                    "channel": 4,
                    "noteNumber": 67,
                    "velocity": 111,
                    "lightChannels": [
                        5
                    ]
                }
            }
        }
    },
    {
        "changes": {
            "col-3": 0,
            "col-2": 1
        },
        "timeout": 0.1578945,
        "raw": {
            "col-3": {
                "pinValue": 0,
                "ticks": 240,
                "event": {
                    "deltaTime": 240,
                    "type": "channel",
                    "subtype": "noteOff",
                    "channel": 4,
                    "noteNumber": 67,
                    "velocity": 0,
                    "lightChannels": [
                        5
                    ]
                }
            },
            "col-2": {
                "pinValue": 1,
                "ticks": 0,
                "event": {
                    "deltaTime": 0,
                    "type": "channel",
                    "subtype": "noteOn",
                    "channel": 4,
                    "noteNumber": 64,
                    "velocity": 111,
                    "lightChannels": [
                        4
                    ]
                }
            }
        }
    },
    {
        "changes": {
            "col-2": 1,
            "garage": 1,
            "top-right": 1,
            "bottom-right": 1,
            "col-1": 1,
            "col-3": 1,
            "window": 1,
            "outline": 1,
            "garden": 1,
            "tree": 1
        },
        "timeout": 0.315789,
        "raw": {
            "col-2": {
                "pinValue": 1,
                "ticks": 0,
                "event": {
                    "deltaTime": 0,
                    "type": "channel",
                    "subtype": "noteOn",
                    "channel": 4,
                    "noteNumber": 47,
                    "velocity": 111,
                    "lightChannels": [
                        0,
                        1,
                        2,
                        3,
                        4,
                        5,
                        6,
                        7,
                        8,
                        9
                    ]
                }
            },
            "garage": {
                "pinValue": 1,
                "ticks": 0,
                "event": {
                    "deltaTime": 0,
                    "type": "channel",
                    "subtype": "noteOn",
                    "channel": 4,
                    "noteNumber": 47,
                    "velocity": 111,
                    "lightChannels": [
                        0,
                        1,
                        2,
                        3,
                        4,
                        5,
                        6,
                        7,
                        8,
                        9
                    ]
                }
            },
            "top-right": {
                "pinValue": 1,
                "ticks": 0,
                "event": {
                    "deltaTime": 0,
                    "type": "channel",
                    "subtype": "noteOn",
                    "channel": 4,
                    "noteNumber": 47,
                    "velocity": 111,
                    "lightChannels": [
                        0,
                        1,
                        2,
                        3,
                        4,
                        5,
                        6,
                        7,
                        8,
                        9
                    ]
                }
            },
            "bottom-right": {
                "pinValue": 1,
                "ticks": 0,
                "event": {
                    "deltaTime": 0,
                    "type": "channel",
                    "subtype": "noteOn",
                    "channel": 4,
                    "noteNumber": 47,
                    "velocity": 111,
                    "lightChannels": [
                        0,
                        1,
                        2,
                        3,
                        4,
                        5,
                        6,
                        7,
                        8,
                        9
                    ]
                }
            },
            "col-1": {
                "pinValue": 1,
                "ticks": 0,
                "event": {
                    "deltaTime": 0,
                    "type": "channel",
                    "subtype": "noteOn",
                    "channel": 4,
                    "noteNumber": 47,
                    "velocity": 111,
                    "lightChannels": [
                        0,
                        1,
                        2,
                        3,
                        4,
                        5,
                        6,
                        7,
                        8,
                        9
                    ]
                }
            },
            "col-3": {
                "pinValue": 1,
                "ticks": 0,
                "event": {
                    "deltaTime": 0,
                    "type": "channel",
                    "subtype": "noteOn",
                    "channel": 4,
                    "noteNumber": 47,
                    "velocity": 111,
                    "lightChannels": [
                        0,
                        1,
                        2,
                        3,
                        4,
                        5,
                        6,
                        7,
                        8,
                        9
                    ]
                }
            },
            "window": {
                "pinValue": 1,
                "ticks": 0,
                "event": {
                    "deltaTime": 0,
                    "type": "channel",
                    "subtype": "noteOn",
                    "channel": 4,
                    "noteNumber": 47,
                    "velocity": 111,
                    "lightChannels": [
                        0,
                        1,
                        2,
                        3,
                        4,
                        5,
                        6,
                        7,
                        8,
                        9
                    ]
                }
            },
            "outline": {
                "pinValue": 1,
                "ticks": 0,
                "event": {
                    "deltaTime": 0,
                    "type": "channel",
                    "subtype": "noteOn",
                    "channel": 4,
                    "noteNumber": 47,
                    "velocity": 111,
                    "lightChannels": [
                        0,
                        1,
                        2,
                        3,
                        4,
                        5,
                        6,
                        7,
                        8,
                        9
                    ]
                }
            },
            "garden": {
                "pinValue": 1,
                "ticks": 0,
                "event": {
                    "deltaTime": 0,
                    "type": "channel",
                    "subtype": "noteOn",
                    "channel": 4,
                    "noteNumber": 47,
                    "velocity": 111,
                    "lightChannels": [
                        0,
                        1,
                        2,
                        3,
                        4,
                        5,
                        6,
                        7,
                        8,
                        9
                    ]
                }
            },
            "tree": {
                "pinValue": 1,
                "ticks": 0,
                "event": {
                    "deltaTime": 0,
                    "type": "channel",
                    "subtype": "noteOn",
                    "channel": 4,
                    "noteNumber": 47,
                    "velocity": 111,
                    "lightChannels": [
                        0,
                        1,
                        2,
                        3,
                        4,
                        5,
                        6,
                        7,
                        8,
                        9
                    ]
                }
            }
        }
    },
    {
        "changes": {
            "garage": 0,
            "top-right": 0,
            "bottom-right": 0,
            "col-1": 1,
            "col-2": 0,
            "col-3": 0,
            "window": 0,
            "outline": 0,
            "garden": 0,
            "tree": 0
        },
        "timeout": 0.315789,
        "raw": {
            "garage": {
                "pinValue": 0,
                "ticks": 0,
                "event": {
                    "deltaTime": 0,
                    "type": "channel",
                    "subtype": "noteOff",
                    "channel": 4,
                    "noteNumber": 47,
                    "velocity": 0,
                    "lightChannels": [
                        0,
                        1,
                        2,
                        3,
                        4,
                        5,
                        6,
                        7,
                        8,
                        9
                    ]
                }
            },
            "top-right": {
                "pinValue": 0,
                "ticks": 0,
                "event": {
                    "deltaTime": 0,
                    "type": "channel",
                    "subtype": "noteOff",
                    "channel": 4,
                    "noteNumber": 47,
                    "velocity": 0,
                    "lightChannels": [
                        0,
                        1,
                        2,
                        3,
                        4,
                        5,
                        6,
                        7,
                        8,
                        9
                    ]
                }
            },
            "bottom-right": {
                "pinValue": 0,
                "ticks": 0,
                "event": {
                    "deltaTime": 0,
                    "type": "channel",
                    "subtype": "noteOff",
                    "channel": 4,
                    "noteNumber": 47,
                    "velocity": 0,
                    "lightChannels": [
                        0,
                        1,
                        2,
                        3,
                        4,
                        5,
                        6,
                        7,
                        8,
                        9
                    ]
                }
            },
            "col-1": {
                "pinValue": 1,
                "ticks": 0,
                "event": {
                    "deltaTime": 0,
                    "type": "channel",
                    "subtype": "noteOn",
                    "channel": 4,
                    "noteNumber": 66,
                    "velocity": 111,
                    "lightChannels": [
                        3
                    ]
                }
            },
            "col-2": {
                "pinValue": 0,
                "ticks": 0,
                "event": {
                    "deltaTime": 0,
                    "type": "channel",
                    "subtype": "noteOff",
                    "channel": 4,
                    "noteNumber": 47,
                    "velocity": 0,
                    "lightChannels": [
                        0,
                        1,
                        2,
                        3,
                        4,
                        5,
                        6,
                        7,
                        8,
                        9
                    ]
                }
            },
            "col-3": {
                "pinValue": 0,
                "ticks": 0,
                "event": {
                    "deltaTime": 0,
                    "type": "channel",
                    "subtype": "noteOff",
                    "channel": 4,
                    "noteNumber": 47,
                    "velocity": 0,
                    "lightChannels": [
                        0,
                        1,
                        2,
                        3,
                        4,
                        5,
                        6,
                        7,
                        8,
                        9
                    ]
                }
            },
            "window": {
                "pinValue": 0,
                "ticks": 0,
                "event": {
                    "deltaTime": 0,
                    "type": "channel",
                    "subtype": "noteOff",
                    "channel": 4,
                    "noteNumber": 47,
                    "velocity": 0,
                    "lightChannels": [
                        0,
                        1,
                        2,
                        3,
                        4,
                        5,
                        6,
                        7,
                        8,
                        9
                    ]
                }
            },
            "outline": {
                "pinValue": 0,
                "ticks": 0,
                "event": {
                    "deltaTime": 0,
                    "type": "channel",
                    "subtype": "noteOff",
                    "channel": 4,
                    "noteNumber": 47,
                    "velocity": 0,
                    "lightChannels": [
                        0,
                        1,
                        2,
                        3,
                        4,
                        5,
                        6,
                        7,
                        8,
                        9
                    ]
                }
            },
            "garden": {
                "pinValue": 0,
                "ticks": 0,
                "event": {
                    "deltaTime": 0,
                    "type": "channel",
                    "subtype": "noteOff",
                    "channel": 4,
                    "noteNumber": 47,
                    "velocity": 0,
                    "lightChannels": [
                        0,
                        1,
                        2,
                        3,
                        4,
                        5,
                        6,
                        7,
                        8,
                        9
                    ]
                }
            },
            "tree": {
                "pinValue": 0,
                "ticks": 0,
                "event": {
                    "deltaTime": 0,
                    "type": "channel",
                    "subtype": "noteOff",
                    "channel": 4,
                    "noteNumber": 47,
                    "velocity": 0,
                    "lightChannels": [
                        0,
                        1,
                        2,
                        3,
                        4,
                        5,
                        6,
                        7,
                        8,
                        9
                    ]
                }
            }
        }
    },
    {
        "changes": {
            "col-1": 0,
            "col-3": 1
        },
        "timeout": 0.1578945,
        "raw": {
            "col-1": {
                "pinValue": 0,
                "ticks": 0,
                "event": {
                    "deltaTime": 0,
                    "type": "channel",
                    "subtype": "noteOff",
                    "channel": 4,
                    "noteNumber": 66,
                    "velocity": 0,
                    "lightChannels": [
                        3
                    ]
                }
            },
            "col-3": {
                "pinValue": 1,
                "ticks": 0,
                "event": {
                    "deltaTime": 0,
                    "type": "channel",
                    "subtype": "noteOn",
                    "channel": 4,
                    "noteNumber": 67,
                    "velocity": 111,
                    "lightChannels": [
                        5
                    ]
                }
            }
        }
    },
    {
        "changes": {
            "col-3": 0,
            "col-2": 1
        },
        "timeout": 0.1578945,
        "raw": {
            "col-3": {
                "pinValue": 0,
                "ticks": 0,
                "event": {
                    "deltaTime": 0,
                    "type": "channel",
                    "subtype": "noteOff",
                    "channel": 4,
                    "noteNumber": 67,
                    "velocity": 0,
                    "lightChannels": [
                        5
                    ]
                }
            },
            "col-2": {
                "pinValue": 1,
                "ticks": 0,
                "event": {
                    "deltaTime": 0,
                    "type": "channel",
                    "subtype": "noteOn",
                    "channel": 4,
                    "noteNumber": 64,
                    "velocity": 111,
                    "lightChannels": [
                        4
                    ]
                }
            }
        }
    },
    {
        "changes": {
            "col-2": 1,
            "garage": 1,
            "top-right": 1,
            "bottom-right": 1,
            "col-1": 1,
            "col-3": 1,
            "window": 1,
            "outline": 1,
            "garden": 1,
            "tree": 1
        },
        "timeout": 0.315789,
        "raw": {
            "col-2": {
                "pinValue": 1,
                "ticks": 0,
                "event": {
                    "deltaTime": 0,
                    "type": "channel",
                    "subtype": "noteOn",
                    "channel": 4,
                    "noteNumber": 47,
                    "velocity": 111,
                    "lightChannels": [
                        0,
                        1,
                        2,
                        3,
                        4,
                        5,
                        6,
                        7,
                        8,
                        9
                    ]
                }
            },
            "garage": {
                "pinValue": 1,
                "ticks": 0,
                "event": {
                    "deltaTime": 0,
                    "type": "channel",
                    "subtype": "noteOn",
                    "channel": 4,
                    "noteNumber": 47,
                    "velocity": 111,
                    "lightChannels": [
                        0,
                        1,
                        2,
                        3,
                        4,
                        5,
                        6,
                        7,
                        8,
                        9
                    ]
                }
            },
            "top-right": {
                "pinValue": 1,
                "ticks": 0,
                "event": {
                    "deltaTime": 0,
                    "type": "channel",
                    "subtype": "noteOn",
                    "channel": 4,
                    "noteNumber": 47,
                    "velocity": 111,
                    "lightChannels": [
                        0,
                        1,
                        2,
                        3,
                        4,
                        5,
                        6,
                        7,
                        8,
                        9
                    ]
                }
            },
            "bottom-right": {
                "pinValue": 1,
                "ticks": 0,
                "event": {
                    "deltaTime": 0,
                    "type": "channel",
                    "subtype": "noteOn",
                    "channel": 4,
                    "noteNumber": 47,
                    "velocity": 111,
                    "lightChannels": [
                        0,
                        1,
                        2,
                        3,
                        4,
                        5,
                        6,
                        7,
                        8,
                        9
                    ]
                }
            },
            "col-1": {
                "pinValue": 1,
                "ticks": 0,
                "event": {
                    "deltaTime": 0,
                    "type": "channel",
                    "subtype": "noteOn",
                    "channel": 4,
                    "noteNumber": 47,
                    "velocity": 111,
                    "lightChannels": [
                        0,
                        1,
                        2,
                        3,
                        4,
                        5,
                        6,
                        7,
                        8,
                        9
                    ]
                }
            },
            "col-3": {
                "pinValue": 1,
                "ticks": 0,
                "event": {
                    "deltaTime": 0,
                    "type": "channel",
                    "subtype": "noteOn",
                    "channel": 4,
                    "noteNumber": 47,
                    "velocity": 111,
                    "lightChannels": [
                        0,
                        1,
                        2,
                        3,
                        4,
                        5,
                        6,
                        7,
                        8,
                        9
                    ]
                }
            },
            "window": {
                "pinValue": 1,
                "ticks": 0,
                "event": {
                    "deltaTime": 0,
                    "type": "channel",
                    "subtype": "noteOn",
                    "channel": 4,
                    "noteNumber": 47,
                    "velocity": 111,
                    "lightChannels": [
                        0,
                        1,
                        2,
                        3,
                        4,
                        5,
                        6,
                        7,
                        8,
                        9
                    ]
                }
            },
            "outline": {
                "pinValue": 1,
                "ticks": 0,
                "event": {
                    "deltaTime": 0,
                    "type": "channel",
                    "subtype": "noteOn",
                    "channel": 4,
                    "noteNumber": 47,
                    "velocity": 111,
                    "lightChannels": [
                        0,
                        1,
                        2,
                        3,
                        4,
                        5,
                        6,
                        7,
                        8,
                        9
                    ]
                }
            },
            "garden": {
                "pinValue": 1,
                "ticks": 0,
                "event": {
                    "deltaTime": 0,
                    "type": "channel",
                    "subtype": "noteOn",
                    "channel": 4,
                    "noteNumber": 47,
                    "velocity": 111,
                    "lightChannels": [
                        0,
                        1,
                        2,
                        3,
                        4,
                        5,
                        6,
                        7,
                        8,
                        9
                    ]
                }
            },
            "tree": {
                "pinValue": 1,
                "ticks": 0,
                "event": {
                    "deltaTime": 0,
                    "type": "channel",
                    "subtype": "noteOn",
                    "channel": 4,
                    "noteNumber": 47,
                    "velocity": 111,
                    "lightChannels": [
                        0,
                        1,
                        2,
                        3,
                        4,
                        5,
                        6,
                        7,
                        8,
                        9
                    ]
                }
            }
        }
    },
    {
        "changes": {
            "garage": 0,
            "top-right": 0,
            "bottom-right": 0,
            "col-1": 1,
            "col-2": 0,
            "col-3": 0,
            "window": 0,
            "outline": 0,
            "garden": 0,
            "tree": 0
        },
        "timeout": 0.315789,
        "raw": {
            "garage": {
                "pinValue": 0,
                "ticks": 0,
                "event": {
                    "deltaTime": 0,
                    "type": "channel",
                    "subtype": "noteOff",
                    "channel": 4,
                    "noteNumber": 47,
                    "velocity": 0,
                    "lightChannels": [
                        0,
                        1,
                        2,
                        3,
                        4,
                        5,
                        6,
                        7,
                        8,
                        9
                    ]
                }
            },
            "top-right": {
                "pinValue": 0,
                "ticks": 0,
                "event": {
                    "deltaTime": 0,
                    "type": "channel",
                    "subtype": "noteOff",
                    "channel": 4,
                    "noteNumber": 47,
                    "velocity": 0,
                    "lightChannels": [
                        0,
                        1,
                        2,
                        3,
                        4,
                        5,
                        6,
                        7,
                        8,
                        9
                    ]
                }
            },
            "bottom-right": {
                "pinValue": 0,
                "ticks": 0,
                "event": {
                    "deltaTime": 0,
                    "type": "channel",
                    "subtype": "noteOff",
                    "channel": 4,
                    "noteNumber": 47,
                    "velocity": 0,
                    "lightChannels": [
                        0,
                        1,
                        2,
                        3,
                        4,
                        5,
                        6,
                        7,
                        8,
                        9
                    ]
                }
            },
            "col-1": {
                "pinValue": 1,
                "ticks": 0,
                "event": {
                    "deltaTime": 0,
                    "type": "channel",
                    "subtype": "noteOn",
                    "channel": 4,
                    "noteNumber": 66,
                    "velocity": 111,
                    "lightChannels": [
                        3
                    ]
                }
            },
            "col-2": {
                "pinValue": 0,
                "ticks": 0,
                "event": {
                    "deltaTime": 0,
                    "type": "channel",
                    "subtype": "noteOff",
                    "channel": 4,
                    "noteNumber": 47,
                    "velocity": 0,
                    "lightChannels": [
                        0,
                        1,
                        2,
                        3,
                        4,
                        5,
                        6,
                        7,
                        8,
                        9
                    ]
                }
            },
            "col-3": {
                "pinValue": 0,
                "ticks": 0,
                "event": {
                    "deltaTime": 0,
                    "type": "channel",
                    "subtype": "noteOff",
                    "channel": 4,
                    "noteNumber": 47,
                    "velocity": 0,
                    "lightChannels": [
                        0,
                        1,
                        2,
                        3,
                        4,
                        5,
                        6,
                        7,
                        8,
                        9
                    ]
                }
            },
            "window": {
                "pinValue": 0,
                "ticks": 0,
                "event": {
                    "deltaTime": 0,
                    "type": "channel",
                    "subtype": "noteOff",
                    "channel": 4,
                    "noteNumber": 47,
                    "velocity": 0,
                    "lightChannels": [
                        0,
                        1,
                        2,
                        3,
                        4,
                        5,
                        6,
                        7,
                        8,
                        9
                    ]
                }
            },
            "outline": {
                "pinValue": 0,
                "ticks": 0,
                "event": {
                    "deltaTime": 0,
                    "type": "channel",
                    "subtype": "noteOff",
                    "channel": 4,
                    "noteNumber": 47,
                    "velocity": 0,
                    "lightChannels": [
                        0,
                        1,
                        2,
                        3,
                        4,
                        5,
                        6,
                        7,
                        8,
                        9
                    ]
                }
            },
            "garden": {
                "pinValue": 0,
                "ticks": 0,
                "event": {
                    "deltaTime": 0,
                    "type": "channel",
                    "subtype": "noteOff",
                    "channel": 4,
                    "noteNumber": 47,
                    "velocity": 0,
                    "lightChannels": [
                        0,
                        1,
                        2,
                        3,
                        4,
                        5,
                        6,
                        7,
                        8,
                        9
                    ]
                }
            },
            "tree": {
                "pinValue": 0,
                "ticks": 0,
                "event": {
                    "deltaTime": 0,
                    "type": "channel",
                    "subtype": "noteOff",
                    "channel": 4,
                    "noteNumber": 47,
                    "velocity": 0,
                    "lightChannels": [
                        0,
                        1,
                        2,
                        3,
                        4,
                        5,
                        6,
                        7,
                        8,
                        9
                    ]
                }
            }
        }
    },
    {
        "changes": {
            "col-1": 0,
            "col-3": 1
        },
        "timeout": 0.1578945,
        "raw": {
            "col-1": {
                "pinValue": 0,
                "ticks": 0,
                "event": {
                    "deltaTime": 0,
                    "type": "channel",
                    "subtype": "noteOff",
                    "channel": 4,
                    "noteNumber": 66,
                    "velocity": 0,
                    "lightChannels": [
                        3
                    ]
                }
            },
            "col-3": {
                "pinValue": 1,
                "ticks": 0,
                "event": {
                    "deltaTime": 0,
                    "type": "channel",
                    "subtype": "noteOn",
                    "channel": 4,
                    "noteNumber": 67,
                    "velocity": 111,
                    "lightChannels": [
                        5
                    ]
                }
            }
        }
    },
    {
        "changes": {
            "col-3": 0,
            "col-2": 1
        },
        "timeout": 0.1578945,
        "raw": {
            "col-3": {
                "pinValue": 0,
                "ticks": 0,
                "event": {
                    "deltaTime": 0,
                    "type": "channel",
                    "subtype": "noteOff",
                    "channel": 4,
                    "noteNumber": 67,
                    "velocity": 0,
                    "lightChannels": [
                        5
                    ]
                }
            },
            "col-2": {
                "pinValue": 1,
                "ticks": 0,
                "event": {
                    "deltaTime": 0,
                    "type": "channel",
                    "subtype": "noteOn",
                    "channel": 4,
                    "noteNumber": 64,
                    "velocity": 111,
                    "lightChannels": [
                        4
                    ]
                }
            }
        }
    },
    {
        "changes": {
            "col-2": 1,
            "garage": 1,
            "top-right": 1,
            "bottom-right": 1,
            "col-1": 1,
            "col-3": 1,
            "window": 1,
            "outline": 1,
            "garden": 1,
            "tree": 1
        },
        "timeout": 0.315789,
        "raw": {
            "col-2": {
                "pinValue": 1,
                "ticks": 0,
                "event": {
                    "deltaTime": 0,
                    "type": "channel",
                    "subtype": "noteOn",
                    "channel": 4,
                    "noteNumber": 47,
                    "velocity": 111,
                    "lightChannels": [
                        0,
                        1,
                        2,
                        3,
                        4,
                        5,
                        6,
                        7,
                        8,
                        9
                    ]
                }
            },
            "garage": {
                "pinValue": 1,
                "ticks": 0,
                "event": {
                    "deltaTime": 0,
                    "type": "channel",
                    "subtype": "noteOn",
                    "channel": 4,
                    "noteNumber": 47,
                    "velocity": 111,
                    "lightChannels": [
                        0,
                        1,
                        2,
                        3,
                        4,
                        5,
                        6,
                        7,
                        8,
                        9
                    ]
                }
            },
            "top-right": {
                "pinValue": 1,
                "ticks": 0,
                "event": {
                    "deltaTime": 0,
                    "type": "channel",
                    "subtype": "noteOn",
                    "channel": 4,
                    "noteNumber": 47,
                    "velocity": 111,
                    "lightChannels": [
                        0,
                        1,
                        2,
                        3,
                        4,
                        5,
                        6,
                        7,
                        8,
                        9
                    ]
                }
            },
            "bottom-right": {
                "pinValue": 1,
                "ticks": 0,
                "event": {
                    "deltaTime": 0,
                    "type": "channel",
                    "subtype": "noteOn",
                    "channel": 4,
                    "noteNumber": 47,
                    "velocity": 111,
                    "lightChannels": [
                        0,
                        1,
                        2,
                        3,
                        4,
                        5,
                        6,
                        7,
                        8,
                        9
                    ]
                }
            },
            "col-1": {
                "pinValue": 1,
                "ticks": 0,
                "event": {
                    "deltaTime": 0,
                    "type": "channel",
                    "subtype": "noteOn",
                    "channel": 4,
                    "noteNumber": 47,
                    "velocity": 111,
                    "lightChannels": [
                        0,
                        1,
                        2,
                        3,
                        4,
                        5,
                        6,
                        7,
                        8,
                        9
                    ]
                }
            },
            "col-3": {
                "pinValue": 1,
                "ticks": 0,
                "event": {
                    "deltaTime": 0,
                    "type": "channel",
                    "subtype": "noteOn",
                    "channel": 4,
                    "noteNumber": 47,
                    "velocity": 111,
                    "lightChannels": [
                        0,
                        1,
                        2,
                        3,
                        4,
                        5,
                        6,
                        7,
                        8,
                        9
                    ]
                }
            },
            "window": {
                "pinValue": 1,
                "ticks": 0,
                "event": {
                    "deltaTime": 0,
                    "type": "channel",
                    "subtype": "noteOn",
                    "channel": 4,
                    "noteNumber": 47,
                    "velocity": 111,
                    "lightChannels": [
                        0,
                        1,
                        2,
                        3,
                        4,
                        5,
                        6,
                        7,
                        8,
                        9
                    ]
                }
            },
            "outline": {
                "pinValue": 1,
                "ticks": 0,
                "event": {
                    "deltaTime": 0,
                    "type": "channel",
                    "subtype": "noteOn",
                    "channel": 4,
                    "noteNumber": 47,
                    "velocity": 111,
                    "lightChannels": [
                        0,
                        1,
                        2,
                        3,
                        4,
                        5,
                        6,
                        7,
                        8,
                        9
                    ]
                }
            },
            "garden": {
                "pinValue": 1,
                "ticks": 0,
                "event": {
                    "deltaTime": 0,
                    "type": "channel",
                    "subtype": "noteOn",
                    "channel": 4,
                    "noteNumber": 47,
                    "velocity": 111,
                    "lightChannels": [
                        0,
                        1,
                        2,
                        3,
                        4,
                        5,
                        6,
                        7,
                        8,
                        9
                    ]
                }
            },
            "tree": {
                "pinValue": 1,
                "ticks": 0,
                "event": {
                    "deltaTime": 0,
                    "type": "channel",
                    "subtype": "noteOn",
                    "channel": 4,
                    "noteNumber": 47,
                    "velocity": 111,
                    "lightChannels": [
                        0,
                        1,
                        2,
                        3,
                        4,
                        5,
                        6,
                        7,
                        8,
                        9
                    ]
                }
            }
        }
    },
    {
        "changes": {
            "garage": 0,
            "top-right": 0,
            "bottom-right": 0,
            "col-1": 1,
            "col-2": 0,
            "col-3": 0,
            "window": 0,
            "outline": 0,
            "garden": 0,
            "tree": 0
        },
        "timeout": 0.315789,
        "raw": {
            "garage": {
                "pinValue": 0,
                "ticks": 0,
                "event": {
                    "deltaTime": 0,
                    "type": "channel",
                    "subtype": "noteOff",
                    "channel": 4,
                    "noteNumber": 47,
                    "velocity": 0,
                    "lightChannels": [
                        0,
                        1,
                        2,
                        3,
                        4,
                        5,
                        6,
                        7,
                        8,
                        9
                    ]
                }
            },
            "top-right": {
                "pinValue": 0,
                "ticks": 0,
                "event": {
                    "deltaTime": 0,
                    "type": "channel",
                    "subtype": "noteOff",
                    "channel": 4,
                    "noteNumber": 47,
                    "velocity": 0,
                    "lightChannels": [
                        0,
                        1,
                        2,
                        3,
                        4,
                        5,
                        6,
                        7,
                        8,
                        9
                    ]
                }
            },
            "bottom-right": {
                "pinValue": 0,
                "ticks": 0,
                "event": {
                    "deltaTime": 0,
                    "type": "channel",
                    "subtype": "noteOff",
                    "channel": 4,
                    "noteNumber": 47,
                    "velocity": 0,
                    "lightChannels": [
                        0,
                        1,
                        2,
                        3,
                        4,
                        5,
                        6,
                        7,
                        8,
                        9
                    ]
                }
            },
            "col-1": {
                "pinValue": 1,
                "ticks": 0,
                "event": {
                    "deltaTime": 0,
                    "type": "channel",
                    "subtype": "noteOn",
                    "channel": 4,
                    "noteNumber": 66,
                    "velocity": 111,
                    "lightChannels": [
                        3
                    ]
                }
            },
            "col-2": {
                "pinValue": 0,
                "ticks": 0,
                "event": {
                    "deltaTime": 0,
                    "type": "channel",
                    "subtype": "noteOff",
                    "channel": 4,
                    "noteNumber": 47,
                    "velocity": 0,
                    "lightChannels": [
                        0,
                        1,
                        2,
                        3,
                        4,
                        5,
                        6,
                        7,
                        8,
                        9
                    ]
                }
            },
            "col-3": {
                "pinValue": 0,
                "ticks": 0,
                "event": {
                    "deltaTime": 0,
                    "type": "channel",
                    "subtype": "noteOff",
                    "channel": 4,
                    "noteNumber": 47,
                    "velocity": 0,
                    "lightChannels": [
                        0,
                        1,
                        2,
                        3,
                        4,
                        5,
                        6,
                        7,
                        8,
                        9
                    ]
                }
            },
            "window": {
                "pinValue": 0,
                "ticks": 0,
                "event": {
                    "deltaTime": 0,
                    "type": "channel",
                    "subtype": "noteOff",
                    "channel": 4,
                    "noteNumber": 47,
                    "velocity": 0,
                    "lightChannels": [
                        0,
                        1,
                        2,
                        3,
                        4,
                        5,
                        6,
                        7,
                        8,
                        9
                    ]
                }
            },
            "outline": {
                "pinValue": 0,
                "ticks": 0,
                "event": {
                    "deltaTime": 0,
                    "type": "channel",
                    "subtype": "noteOff",
                    "channel": 4,
                    "noteNumber": 47,
                    "velocity": 0,
                    "lightChannels": [
                        0,
                        1,
                        2,
                        3,
                        4,
                        5,
                        6,
                        7,
                        8,
                        9
                    ]
                }
            },
            "garden": {
                "pinValue": 0,
                "ticks": 0,
                "event": {
                    "deltaTime": 0,
                    "type": "channel",
                    "subtype": "noteOff",
                    "channel": 4,
                    "noteNumber": 47,
                    "velocity": 0,
                    "lightChannels": [
                        0,
                        1,
                        2,
                        3,
                        4,
                        5,
                        6,
                        7,
                        8,
                        9
                    ]
                }
            },
            "tree": {
                "pinValue": 0,
                "ticks": 0,
                "event": {
                    "deltaTime": 0,
                    "type": "channel",
                    "subtype": "noteOff",
                    "channel": 4,
                    "noteNumber": 47,
                    "velocity": 0,
                    "lightChannels": [
                        0,
                        1,
                        2,
                        3,
                        4,
                        5,
                        6,
                        7,
                        8,
                        9
                    ]
                }
            }
        }
    },
    {
        "changes": {
            "col-1": 0,
            "col-3": 1
        },
        "timeout": 0.1578945,
        "raw": {
            "col-1": {
                "pinValue": 0,
                "ticks": 0,
                "event": {
                    "deltaTime": 0,
                    "type": "channel",
                    "subtype": "noteOff",
                    "channel": 4,
                    "noteNumber": 66,
                    "velocity": 0,
                    "lightChannels": [
                        3
                    ]
                }
            },
            "col-3": {
                "pinValue": 1,
                "ticks": 0,
                "event": {
                    "deltaTime": 0,
                    "type": "channel",
                    "subtype": "noteOn",
                    "channel": 4,
                    "noteNumber": 67,
                    "velocity": 111,
                    "lightChannels": [
                        5
                    ]
                }
            }
        }
    },
    {
        "changes": {
            "col-3": 0,
            "col-2": 1
        },
        "timeout": 0.1578945,
        "raw": {
            "col-3": {
                "pinValue": 0,
                "ticks": 0,
                "event": {
                    "deltaTime": 0,
                    "type": "channel",
                    "subtype": "noteOff",
                    "channel": 4,
                    "noteNumber": 67,
                    "velocity": 0,
                    "lightChannels": [
                        5
                    ]
                }
            },
            "col-2": {
                "pinValue": 1,
                "ticks": 0,
                "event": {
                    "deltaTime": 0,
                    "type": "channel",
                    "subtype": "noteOn",
                    "channel": 4,
                    "noteNumber": 64,
                    "velocity": 111,
                    "lightChannels": [
                        4
                    ]
                }
            }
        }
    },
    {
        "changes": {
            "col-2": 1,
            "garage": 1,
            "top-right": 1,
            "bottom-right": 1,
            "col-1": 1,
            "col-3": 1,
            "window": 1,
            "outline": 1,
            "garden": 1,
            "tree": 1
        },
        "timeout": 0.315789,
        "raw": {
            "col-2": {
                "pinValue": 1,
                "ticks": 0,
                "event": {
                    "deltaTime": 0,
                    "type": "channel",
                    "subtype": "noteOn",
                    "channel": 4,
                    "noteNumber": 47,
                    "velocity": 111,
                    "lightChannels": [
                        0,
                        1,
                        2,
                        3,
                        4,
                        5,
                        6,
                        7,
                        8,
                        9
                    ]
                }
            },
            "garage": {
                "pinValue": 1,
                "ticks": 0,
                "event": {
                    "deltaTime": 0,
                    "type": "channel",
                    "subtype": "noteOn",
                    "channel": 4,
                    "noteNumber": 47,
                    "velocity": 111,
                    "lightChannels": [
                        0,
                        1,
                        2,
                        3,
                        4,
                        5,
                        6,
                        7,
                        8,
                        9
                    ]
                }
            },
            "top-right": {
                "pinValue": 1,
                "ticks": 0,
                "event": {
                    "deltaTime": 0,
                    "type": "channel",
                    "subtype": "noteOn",
                    "channel": 4,
                    "noteNumber": 47,
                    "velocity": 111,
                    "lightChannels": [
                        0,
                        1,
                        2,
                        3,
                        4,
                        5,
                        6,
                        7,
                        8,
                        9
                    ]
                }
            },
            "bottom-right": {
                "pinValue": 1,
                "ticks": 0,
                "event": {
                    "deltaTime": 0,
                    "type": "channel",
                    "subtype": "noteOn",
                    "channel": 4,
                    "noteNumber": 47,
                    "velocity": 111,
                    "lightChannels": [
                        0,
                        1,
                        2,
                        3,
                        4,
                        5,
                        6,
                        7,
                        8,
                        9
                    ]
                }
            },
            "col-1": {
                "pinValue": 1,
                "ticks": 0,
                "event": {
                    "deltaTime": 0,
                    "type": "channel",
                    "subtype": "noteOn",
                    "channel": 4,
                    "noteNumber": 47,
                    "velocity": 111,
                    "lightChannels": [
                        0,
                        1,
                        2,
                        3,
                        4,
                        5,
                        6,
                        7,
                        8,
                        9
                    ]
                }
            },
            "col-3": {
                "pinValue": 1,
                "ticks": 0,
                "event": {
                    "deltaTime": 0,
                    "type": "channel",
                    "subtype": "noteOn",
                    "channel": 4,
                    "noteNumber": 47,
                    "velocity": 111,
                    "lightChannels": [
                        0,
                        1,
                        2,
                        3,
                        4,
                        5,
                        6,
                        7,
                        8,
                        9
                    ]
                }
            },
            "window": {
                "pinValue": 1,
                "ticks": 0,
                "event": {
                    "deltaTime": 0,
                    "type": "channel",
                    "subtype": "noteOn",
                    "channel": 4,
                    "noteNumber": 47,
                    "velocity": 111,
                    "lightChannels": [
                        0,
                        1,
                        2,
                        3,
                        4,
                        5,
                        6,
                        7,
                        8,
                        9
                    ]
                }
            },
            "outline": {
                "pinValue": 1,
                "ticks": 0,
                "event": {
                    "deltaTime": 0,
                    "type": "channel",
                    "subtype": "noteOn",
                    "channel": 4,
                    "noteNumber": 47,
                    "velocity": 111,
                    "lightChannels": [
                        0,
                        1,
                        2,
                        3,
                        4,
                        5,
                        6,
                        7,
                        8,
                        9
                    ]
                }
            },
            "garden": {
                "pinValue": 1,
                "ticks": 0,
                "event": {
                    "deltaTime": 0,
                    "type": "channel",
                    "subtype": "noteOn",
                    "channel": 4,
                    "noteNumber": 47,
                    "velocity": 111,
                    "lightChannels": [
                        0,
                        1,
                        2,
                        3,
                        4,
                        5,
                        6,
                        7,
                        8,
                        9
                    ]
                }
            },
            "tree": {
                "pinValue": 1,
                "ticks": 0,
                "event": {
                    "deltaTime": 0,
                    "type": "channel",
                    "subtype": "noteOn",
                    "channel": 4,
                    "noteNumber": 47,
                    "velocity": 111,
                    "lightChannels": [
                        0,
                        1,
                        2,
                        3,
                        4,
                        5,
                        6,
                        7,
                        8,
                        9
                    ]
                }
            }
        }
    },
    {
        "changes": {
            "garage": 0,
            "top-right": 0,
            "bottom-right": 0,
            "col-1": 1,
            "col-2": 0,
            "col-3": 0,
            "window": 0,
            "outline": 0,
            "garden": 0,
            "tree": 0
        },
        "timeout": 0.315789,
        "raw": {
            "garage": {
                "pinValue": 0,
                "ticks": 0,
                "event": {
                    "deltaTime": 0,
                    "type": "channel",
                    "subtype": "noteOff",
                    "channel": 4,
                    "noteNumber": 47,
                    "velocity": 0,
                    "lightChannels": [
                        0,
                        1,
                        2,
                        3,
                        4,
                        5,
                        6,
                        7,
                        8,
                        9
                    ]
                }
            },
            "top-right": {
                "pinValue": 0,
                "ticks": 0,
                "event": {
                    "deltaTime": 0,
                    "type": "channel",
                    "subtype": "noteOff",
                    "channel": 4,
                    "noteNumber": 47,
                    "velocity": 0,
                    "lightChannels": [
                        0,
                        1,
                        2,
                        3,
                        4,
                        5,
                        6,
                        7,
                        8,
                        9
                    ]
                }
            },
            "bottom-right": {
                "pinValue": 0,
                "ticks": 0,
                "event": {
                    "deltaTime": 0,
                    "type": "channel",
                    "subtype": "noteOff",
                    "channel": 4,
                    "noteNumber": 47,
                    "velocity": 0,
                    "lightChannels": [
                        0,
                        1,
                        2,
                        3,
                        4,
                        5,
                        6,
                        7,
                        8,
                        9
                    ]
                }
            },
            "col-1": {
                "pinValue": 1,
                "ticks": 0,
                "event": {
                    "deltaTime": 0,
                    "type": "channel",
                    "subtype": "noteOn",
                    "channel": 4,
                    "noteNumber": 66,
                    "velocity": 111,
                    "lightChannels": [
                        3
                    ]
                }
            },
            "col-2": {
                "pinValue": 0,
                "ticks": 0,
                "event": {
                    "deltaTime": 0,
                    "type": "channel",
                    "subtype": "noteOff",
                    "channel": 4,
                    "noteNumber": 47,
                    "velocity": 0,
                    "lightChannels": [
                        0,
                        1,
                        2,
                        3,
                        4,
                        5,
                        6,
                        7,
                        8,
                        9
                    ]
                }
            },
            "col-3": {
                "pinValue": 0,
                "ticks": 0,
                "event": {
                    "deltaTime": 0,
                    "type": "channel",
                    "subtype": "noteOff",
                    "channel": 4,
                    "noteNumber": 47,
                    "velocity": 0,
                    "lightChannels": [
                        0,
                        1,
                        2,
                        3,
                        4,
                        5,
                        6,
                        7,
                        8,
                        9
                    ]
                }
            },
            "window": {
                "pinValue": 0,
                "ticks": 0,
                "event": {
                    "deltaTime": 0,
                    "type": "channel",
                    "subtype": "noteOff",
                    "channel": 4,
                    "noteNumber": 47,
                    "velocity": 0,
                    "lightChannels": [
                        0,
                        1,
                        2,
                        3,
                        4,
                        5,
                        6,
                        7,
                        8,
                        9
                    ]
                }
            },
            "outline": {
                "pinValue": 0,
                "ticks": 0,
                "event": {
                    "deltaTime": 0,
                    "type": "channel",
                    "subtype": "noteOff",
                    "channel": 4,
                    "noteNumber": 47,
                    "velocity": 0,
                    "lightChannels": [
                        0,
                        1,
                        2,
                        3,
                        4,
                        5,
                        6,
                        7,
                        8,
                        9
                    ]
                }
            },
            "garden": {
                "pinValue": 0,
                "ticks": 0,
                "event": {
                    "deltaTime": 0,
                    "type": "channel",
                    "subtype": "noteOff",
                    "channel": 4,
                    "noteNumber": 47,
                    "velocity": 0,
                    "lightChannels": [
                        0,
                        1,
                        2,
                        3,
                        4,
                        5,
                        6,
                        7,
                        8,
                        9
                    ]
                }
            },
            "tree": {
                "pinValue": 0,
                "ticks": 0,
                "event": {
                    "deltaTime": 0,
                    "type": "channel",
                    "subtype": "noteOff",
                    "channel": 4,
                    "noteNumber": 47,
                    "velocity": 0,
                    "lightChannels": [
                        0,
                        1,
                        2,
                        3,
                        4,
                        5,
                        6,
                        7,
                        8,
                        9
                    ]
                }
            }
        }
    },
    {
        "changes": {
            "col-1": 0,
            "col-3": 1
        },
        "timeout": 0.1578945,
        "raw": {
            "col-1": {
                "pinValue": 0,
                "ticks": 0,
                "event": {
                    "deltaTime": 0,
                    "type": "channel",
                    "subtype": "noteOff",
                    "channel": 4,
                    "noteNumber": 66,
                    "velocity": 0,
                    "lightChannels": [
                        3
                    ]
                }
            },
            "col-3": {
                "pinValue": 1,
                "ticks": 0,
                "event": {
                    "deltaTime": 0,
                    "type": "channel",
                    "subtype": "noteOn",
                    "channel": 4,
                    "noteNumber": 67,
                    "velocity": 111,
                    "lightChannels": [
                        5
                    ]
                }
            }
        }
    },
    {
        "changes": {
            "col-3": 0,
            "col-2": 1
        },
        "timeout": 0.1578945,
        "raw": {
            "col-3": {
                "pinValue": 0,
                "ticks": 0,
                "event": {
                    "deltaTime": 0,
                    "type": "channel",
                    "subtype": "noteOff",
                    "channel": 4,
                    "noteNumber": 67,
                    "velocity": 0,
                    "lightChannels": [
                        5
                    ]
                }
            },
            "col-2": {
                "pinValue": 1,
                "ticks": 0,
                "event": {
                    "deltaTime": 0,
                    "type": "channel",
                    "subtype": "noteOn",
                    "channel": 4,
                    "noteNumber": 64,
                    "velocity": 111,
                    "lightChannels": [
                        4
                    ]
                }
            }
        }
    },
    {
        "changes": {
            "col-2": 1,
            "garage": 1,
            "top-right": 1,
            "bottom-right": 1,
            "col-1": 1,
            "col-3": 1,
            "window": 1,
            "outline": 1,
            "garden": 1,
            "tree": 1
        },
        "timeout": 0.315789,
        "raw": {
            "col-2": {
                "pinValue": 1,
                "ticks": 0,
                "event": {
                    "deltaTime": 0,
                    "type": "channel",
                    "subtype": "noteOn",
                    "channel": 4,
                    "noteNumber": 47,
                    "velocity": 111,
                    "lightChannels": [
                        0,
                        1,
                        2,
                        3,
                        4,
                        5,
                        6,
                        7,
                        8,
                        9
                    ]
                }
            },
            "garage": {
                "pinValue": 1,
                "ticks": 0,
                "event": {
                    "deltaTime": 0,
                    "type": "channel",
                    "subtype": "noteOn",
                    "channel": 4,
                    "noteNumber": 47,
                    "velocity": 111,
                    "lightChannels": [
                        0,
                        1,
                        2,
                        3,
                        4,
                        5,
                        6,
                        7,
                        8,
                        9
                    ]
                }
            },
            "top-right": {
                "pinValue": 1,
                "ticks": 0,
                "event": {
                    "deltaTime": 0,
                    "type": "channel",
                    "subtype": "noteOn",
                    "channel": 4,
                    "noteNumber": 47,
                    "velocity": 111,
                    "lightChannels": [
                        0,
                        1,
                        2,
                        3,
                        4,
                        5,
                        6,
                        7,
                        8,
                        9
                    ]
                }
            },
            "bottom-right": {
                "pinValue": 1,
                "ticks": 0,
                "event": {
                    "deltaTime": 0,
                    "type": "channel",
                    "subtype": "noteOn",
                    "channel": 4,
                    "noteNumber": 47,
                    "velocity": 111,
                    "lightChannels": [
                        0,
                        1,
                        2,
                        3,
                        4,
                        5,
                        6,
                        7,
                        8,
                        9
                    ]
                }
            },
            "col-1": {
                "pinValue": 1,
                "ticks": 0,
                "event": {
                    "deltaTime": 0,
                    "type": "channel",
                    "subtype": "noteOn",
                    "channel": 4,
                    "noteNumber": 47,
                    "velocity": 111,
                    "lightChannels": [
                        0,
                        1,
                        2,
                        3,
                        4,
                        5,
                        6,
                        7,
                        8,
                        9
                    ]
                }
            },
            "col-3": {
                "pinValue": 1,
                "ticks": 0,
                "event": {
                    "deltaTime": 0,
                    "type": "channel",
                    "subtype": "noteOn",
                    "channel": 4,
                    "noteNumber": 47,
                    "velocity": 111,
                    "lightChannels": [
                        0,
                        1,
                        2,
                        3,
                        4,
                        5,
                        6,
                        7,
                        8,
                        9
                    ]
                }
            },
            "window": {
                "pinValue": 1,
                "ticks": 0,
                "event": {
                    "deltaTime": 0,
                    "type": "channel",
                    "subtype": "noteOn",
                    "channel": 4,
                    "noteNumber": 47,
                    "velocity": 111,
                    "lightChannels": [
                        0,
                        1,
                        2,
                        3,
                        4,
                        5,
                        6,
                        7,
                        8,
                        9
                    ]
                }
            },
            "outline": {
                "pinValue": 1,
                "ticks": 0,
                "event": {
                    "deltaTime": 0,
                    "type": "channel",
                    "subtype": "noteOn",
                    "channel": 4,
                    "noteNumber": 47,
                    "velocity": 111,
                    "lightChannels": [
                        0,
                        1,
                        2,
                        3,
                        4,
                        5,
                        6,
                        7,
                        8,
                        9
                    ]
                }
            },
            "garden": {
                "pinValue": 1,
                "ticks": 0,
                "event": {
                    "deltaTime": 0,
                    "type": "channel",
                    "subtype": "noteOn",
                    "channel": 4,
                    "noteNumber": 47,
                    "velocity": 111,
                    "lightChannels": [
                        0,
                        1,
                        2,
                        3,
                        4,
                        5,
                        6,
                        7,
                        8,
                        9
                    ]
                }
            },
            "tree": {
                "pinValue": 1,
                "ticks": 0,
                "event": {
                    "deltaTime": 0,
                    "type": "channel",
                    "subtype": "noteOn",
                    "channel": 4,
                    "noteNumber": 47,
                    "velocity": 111,
                    "lightChannels": [
                        0,
                        1,
                        2,
                        3,
                        4,
                        5,
                        6,
                        7,
                        8,
                        9
                    ]
                }
            }
        }
    },
    {
        "changes": {
            "garage": 0,
            "top-right": 0,
            "bottom-right": 0,
            "col-1": 0,
            "col-2": 0,
            "col-3": 0,
            "window": 0,
            "outline": 0,
            "garden": 0,
            "tree": 0
        },
        "timeout": 0.315789,
        "raw": {
            "garage": {
                "pinValue": 0,
                "ticks": 0,
                "event": {
                    "deltaTime": 0,
                    "type": "channel",
                    "subtype": "noteOff",
                    "channel": 4,
                    "noteNumber": 47,
                    "velocity": 0,
                    "lightChannels": [
                        0,
                        1,
                        2,
                        3,
                        4,
                        5,
                        6,
                        7,
                        8,
                        9
                    ]
                }
            },
            "top-right": {
                "pinValue": 0,
                "ticks": 0,
                "event": {
                    "deltaTime": 0,
                    "type": "channel",
                    "subtype": "noteOff",
                    "channel": 4,
                    "noteNumber": 47,
                    "velocity": 0,
                    "lightChannels": [
                        0,
                        1,
                        2,
                        3,
                        4,
                        5,
                        6,
                        7,
                        8,
                        9
                    ]
                }
            },
            "bottom-right": {
                "pinValue": 0,
                "ticks": 0,
                "event": {
                    "deltaTime": 0,
                    "type": "channel",
                    "subtype": "noteOff",
                    "channel": 4,
                    "noteNumber": 47,
                    "velocity": 0,
                    "lightChannels": [
                        0,
                        1,
                        2,
                        3,
                        4,
                        5,
                        6,
                        7,
                        8,
                        9
                    ]
                }
            },
            "col-1": {
                "pinValue": 0,
                "ticks": 0,
                "event": {
                    "deltaTime": 0,
                    "type": "channel",
                    "subtype": "noteOff",
                    "channel": 4,
                    "noteNumber": 47,
                    "velocity": 0,
                    "lightChannels": [
                        0,
                        1,
                        2,
                        3,
                        4,
                        5,
                        6,
                        7,
                        8,
                        9
                    ]
                }
            },
            "col-2": {
                "pinValue": 0,
                "ticks": 0,
                "event": {
                    "deltaTime": 0,
                    "type": "channel",
                    "subtype": "noteOff",
                    "channel": 4,
                    "noteNumber": 47,
                    "velocity": 0,
                    "lightChannels": [
                        0,
                        1,
                        2,
                        3,
                        4,
                        5,
                        6,
                        7,
                        8,
                        9
                    ]
                }
            },
            "col-3": {
                "pinValue": 0,
                "ticks": 0,
                "event": {
                    "deltaTime": 0,
                    "type": "channel",
                    "subtype": "noteOff",
                    "channel": 4,
                    "noteNumber": 47,
                    "velocity": 0,
                    "lightChannels": [
                        0,
                        1,
                        2,
                        3,
                        4,
                        5,
                        6,
                        7,
                        8,
                        9
                    ]
                }
            },
            "window": {
                "pinValue": 0,
                "ticks": 0,
                "event": {
                    "deltaTime": 0,
                    "type": "channel",
                    "subtype": "noteOff",
                    "channel": 4,
                    "noteNumber": 47,
                    "velocity": 0,
                    "lightChannels": [
                        0,
                        1,
                        2,
                        3,
                        4,
                        5,
                        6,
                        7,
                        8,
                        9
                    ]
                }
            },
            "outline": {
                "pinValue": 0,
                "ticks": 0,
                "event": {
                    "deltaTime": 0,
                    "type": "channel",
                    "subtype": "noteOff",
                    "channel": 4,
                    "noteNumber": 47,
                    "velocity": 0,
                    "lightChannels": [
                        0,
                        1,
                        2,
                        3,
                        4,
                        5,
                        6,
                        7,
                        8,
                        9
                    ]
                }
            },
            "garden": {
                "pinValue": 0,
                "ticks": 0,
                "event": {
                    "deltaTime": 0,
                    "type": "channel",
                    "subtype": "noteOff",
                    "channel": 4,
                    "noteNumber": 47,
                    "velocity": 0,
                    "lightChannels": [
                        0,
                        1,
                        2,
                        3,
                        4,
                        5,
                        6,
                        7,
                        8,
                        9
                    ]
                }
            },
            "tree": {
                "pinValue": 0,
                "ticks": 0,
                "event": {
                    "deltaTime": 0,
                    "type": "channel",
                    "subtype": "noteOff",
                    "channel": 4,
                    "noteNumber": 47,
                    "velocity": 0,
                    "lightChannels": [
                        0,
                        1,
                        2,
                        3,
                        4,
                        5,
                        6,
                        7,
                        8,
                        9
                    ]
                }
            }
        }
    },
    {
        "changes": {
            "col-1": 1
        },
        "timeout": 0.1578945,
        "raw": {
            "col-1": {
                "pinValue": 1,
                "ticks": 0,
                "event": {
                    "deltaTime": 0,
                    "type": "channel",
                    "subtype": "noteOn",
                    "channel": 4,
                    "noteNumber": 76,
                    "velocity": 111,
                    "lightChannels": [
                        3
                    ]
                }
            }
        }
    },
    {
        "changes": {
            "col-1": 0,
            "col-2": 1
        },
        "timeout": 0.1578945,
        "raw": {
            "col-1": {
                "pinValue": 0,
                "ticks": 240,
                "event": {
                    "deltaTime": 240,
                    "type": "channel",
                    "subtype": "noteOff",
                    "channel": 4,
                    "noteNumber": 76,
                    "velocity": 0,
                    "lightChannels": [
                        3
                    ]
                }
            },
            "col-2": {
                "pinValue": 1,
                "ticks": 0,
                "event": {
                    "deltaTime": 0,
                    "type": "channel",
                    "subtype": "noteOn",
                    "channel": 4,
                    "noteNumber": 74,
                    "velocity": 111,
                    "lightChannels": [
                        4
                    ]
                }
            }
        }
    },
    {
        "changes": {
            "col-2": 0,
            "col-3": 1
        },
        "timeout": 0.1578945,
        "raw": {
            "col-2": {
                "pinValue": 0,
                "ticks": 240,
                "event": {
                    "deltaTime": 240,
                    "type": "channel",
                    "subtype": "noteOff",
                    "channel": 4,
                    "noteNumber": 74,
                    "velocity": 0,
                    "lightChannels": [
                        4
                    ]
                }
            },
            "col-3": {
                "pinValue": 1,
                "ticks": 0,
                "event": {
                    "deltaTime": 0,
                    "type": "channel",
                    "subtype": "noteOn",
                    "channel": 4,
                    "noteNumber": 72,
                    "velocity": 111,
                    "lightChannels": [
                        5
                    ]
                }
            }
        }
    },
    {
        "changes": {
            "col-3": 1,
            "col-1": 1,
            "col-2": 1
        },
        "timeout": 0.1578945,
        "raw": {
            "col-3": {
                "pinValue": 1,
                "ticks": 0,
                "event": {
                    "deltaTime": 0,
                    "type": "channel",
                    "subtype": "noteOn",
                    "channel": 4,
                    "noteNumber": 71,
                    "velocity": 111,
                    "lightChannels": [
                        3,
                        4,
                        5
                    ]
                }
            },
            "col-1": {
                "pinValue": 1,
                "ticks": 0,
                "event": {
                    "deltaTime": 0,
                    "type": "channel",
                    "subtype": "noteOn",
                    "channel": 4,
                    "noteNumber": 71,
                    "velocity": 111,
                    "lightChannels": [
                        3,
                        4,
                        5
                    ]
                }
            },
            "col-2": {
                "pinValue": 1,
                "ticks": 0,
                "event": {
                    "deltaTime": 0,
                    "type": "channel",
                    "subtype": "noteOn",
                    "channel": 4,
                    "noteNumber": 71,
                    "velocity": 111,
                    "lightChannels": [
                        3,
                        4,
                        5
                    ]
                }
            }
        }
    },
    {
        "changes": {
            "col-1": 0,
            "col-2": 0,
            "col-3": 0
        },
        "timeout": 0.315789,
        "raw": {
            "col-1": {
                "pinValue": 0,
                "ticks": 480,
                "event": {
                    "deltaTime": 480,
                    "type": "channel",
                    "subtype": "noteOff",
                    "channel": 4,
                    "noteNumber": 71,
                    "velocity": 0,
                    "lightChannels": [
                        3,
                        4,
                        5
                    ]
                }
            },
            "col-2": {
                "pinValue": 0,
                "ticks": 480,
                "event": {
                    "deltaTime": 480,
                    "type": "channel",
                    "subtype": "noteOff",
                    "channel": 4,
                    "noteNumber": 71,
                    "velocity": 0,
                    "lightChannels": [
                        3,
                        4,
                        5
                    ]
                }
            },
            "col-3": {
                "pinValue": 0,
                "ticks": 480,
                "event": {
                    "deltaTime": 480,
                    "type": "channel",
                    "subtype": "noteOff",
                    "channel": 4,
                    "noteNumber": 71,
                    "velocity": 0,
                    "lightChannels": [
                        3,
                        4,
                        5
                    ]
                }
            }
        }
    },
    {
        "changes": {
            "col-2": 1
        },
        "timeout": 0.1578945,
        "raw": {
            "col-2": {
                "pinValue": 1,
                "ticks": 0,
                "event": {
                    "deltaTime": 0,
                    "type": "channel",
                    "subtype": "noteOn",
                    "channel": 4,
                    "noteNumber": 71,
                    "velocity": 111,
                    "lightChannels": [
                        4
                    ]
                }
            }
        }
    },
    {
        "changes": {
            "col-2": 0,
            "col-3": 1
        },
        "timeout": 0.1578945,
        "raw": {
            "col-2": {
                "pinValue": 0,
                "ticks": 240,
                "event": {
                    "deltaTime": 240,
                    "type": "channel",
                    "subtype": "noteOff",
                    "channel": 4,
                    "noteNumber": 71,
                    "velocity": 0,
                    "lightChannels": [
                        4
                    ]
                }
            },
            "col-3": {
                "pinValue": 1,
                "ticks": 0,
                "event": {
                    "deltaTime": 0,
                    "type": "channel",
                    "subtype": "noteOn",
                    "channel": 4,
                    "noteNumber": 69,
                    "velocity": 111,
                    "lightChannels": [
                        5
                    ]
                }
            }
        }
    },
    {
        "changes": {
            "col-3": 0,
            "garden": 1
        },
        "timeout": 0.1578945,
        "raw": {
            "col-3": {
                "pinValue": 0,
                "ticks": 240,
                "event": {
                    "deltaTime": 240,
                    "type": "channel",
                    "subtype": "noteOff",
                    "channel": 4,
                    "noteNumber": 69,
                    "velocity": 0,
                    "lightChannels": [
                        5
                    ]
                }
            },
            "garden": {
                "pinValue": 1,
                "ticks": 0,
                "event": {
                    "deltaTime": 0,
                    "type": "channel",
                    "subtype": "noteOn",
                    "channel": 4,
                    "noteNumber": 67,
                    "velocity": 111,
                    "lightChannels": [
                        8
                    ]
                }
            }
        }
    },
    {
        "changes": {
            "garden": 0,
            "tree": 1
        },
        "timeout": 0.1578945,
        "raw": {
            "garden": {
                "pinValue": 0,
                "ticks": 240,
                "event": {
                    "deltaTime": 240,
                    "type": "channel",
                    "subtype": "noteOff",
                    "channel": 4,
                    "noteNumber": 67,
                    "velocity": 0,
                    "lightChannels": [
                        8
                    ]
                }
            },
            "tree": {
                "pinValue": 1,
                "ticks": 0,
                "event": {
                    "deltaTime": 0,
                    "type": "channel",
                    "subtype": "noteOn",
                    "channel": 4,
                    "noteNumber": 69,
                    "velocity": 111,
                    "lightChannels": [
                        9
                    ]
                }
            }
        }
    },
    {
        "changes": {
            "tree": 0,
            "col-1": 1
        },
        "timeout": 0.315789,
        "raw": {
            "tree": {
                "pinValue": 0,
                "ticks": 480,
                "event": {
                    "deltaTime": 480,
                    "type": "channel",
                    "subtype": "noteOff",
                    "channel": 4,
                    "noteNumber": 69,
                    "velocity": 0,
                    "lightChannels": [
                        9
                    ]
                }
            },
            "col-1": {
                "pinValue": 1,
                "ticks": 0,
                "event": {
                    "deltaTime": 0,
                    "type": "channel",
                    "subtype": "noteOn",
                    "channel": 4,
                    "noteNumber": 69,
                    "velocity": 111,
                    "lightChannels": [
                        3
                    ]
                }
            }
        }
    },
    {
        "changes": {
            "col-1": 0,
            "col-2": 1
        },
        "timeout": 0.1578945,
        "raw": {
            "col-1": {
                "pinValue": 0,
                "ticks": 240,
                "event": {
                    "deltaTime": 240,
                    "type": "channel",
                    "subtype": "noteOff",
                    "channel": 4,
                    "noteNumber": 69,
                    "velocity": 0,
                    "lightChannels": [
                        3
                    ]
                }
            },
            "col-2": {
                "pinValue": 1,
                "ticks": 0,
                "event": {
                    "deltaTime": 0,
                    "type": "channel",
                    "subtype": "noteOn",
                    "channel": 4,
                    "noteNumber": 69,
                    "velocity": 111,
                    "lightChannels": [
                        4
                    ]
                }
            }
        }
    },
    {
        "changes": {
            "col-2": 0,
            "col-3": 1
        },
        "timeout": 0.1578945,
        "raw": {
            "col-2": {
                "pinValue": 0,
                "ticks": 240,
                "event": {
                    "deltaTime": 240,
                    "type": "channel",
                    "subtype": "noteOff",
                    "channel": 4,
                    "noteNumber": 69,
                    "velocity": 0,
                    "lightChannels": [
                        4
                    ]
                }
            },
            "col-3": {
                "pinValue": 1,
                "ticks": 0,
                "event": {
                    "deltaTime": 0,
                    "type": "channel",
                    "subtype": "noteOn",
                    "channel": 4,
                    "noteNumber": 71,
                    "velocity": 111,
                    "lightChannels": [
                        5
                    ]
                }
            }
        }
    },
    {
        "changes": {
            "col-3": 0,
            "garden": 1
        },
        "timeout": 0.1578945,
        "raw": {
            "col-3": {
                "pinValue": 0,
                "ticks": 240,
                "event": {
                    "deltaTime": 240,
                    "type": "channel",
                    "subtype": "noteOff",
                    "channel": 4,
                    "noteNumber": 71,
                    "velocity": 0,
                    "lightChannels": [
                        5
                    ]
                }
            },
            "garden": {
                "pinValue": 1,
                "ticks": 0,
                "event": {
                    "deltaTime": 0,
                    "type": "channel",
                    "subtype": "noteOn",
                    "channel": 4,
                    "noteNumber": 69,
                    "velocity": 111,
                    "lightChannels": [
                        8
                    ]
                }
            }
        }
    },
    {
        "changes": {
            "garden": 0,
            "outline": 1
        },
        "timeout": 0.1578945,
        "raw": {
            "garden": {
                "pinValue": 0,
                "ticks": 240,
                "event": {
                    "deltaTime": 240,
                    "type": "channel",
                    "subtype": "noteOff",
                    "channel": 4,
                    "noteNumber": 69,
                    "velocity": 0,
                    "lightChannels": [
                        8
                    ]
                }
            },
            "outline": {
                "pinValue": 1,
                "ticks": 0,
                "event": {
                    "deltaTime": 0,
                    "type": "channel",
                    "subtype": "noteOn",
                    "channel": 4,
                    "noteNumber": 64,
                    "velocity": 111,
                    "lightChannels": [
                        7
                    ]
                }
            }
        }
    },
    {
        "changes": {
            "outline": 0,
            "window": 1
        },
        "timeout": 0.315789,
        "raw": {
            "outline": {
                "pinValue": 0,
                "ticks": 480,
                "event": {
                    "deltaTime": 480,
                    "type": "channel",
                    "subtype": "noteOff",
                    "channel": 4,
                    "noteNumber": 64,
                    "velocity": 0,
                    "lightChannels": [
                        7
                    ]
                }
            },
            "window": {
                "pinValue": 1,
                "ticks": 0,
                "event": {
                    "deltaTime": 0,
                    "type": "channel",
                    "subtype": "noteOn",
                    "channel": 4,
                    "noteNumber": 64,
                    "velocity": 111,
                    "lightChannels": [
                        6
                    ]
                }
            }
        }
    },
    {
        "changes": {
            "window": 0,
            "outline": 1
        },
        "timeout": 0.1578945,
        "raw": {
            "window": {
                "pinValue": 0,
                "ticks": 240,
                "event": {
                    "deltaTime": 240,
                    "type": "channel",
                    "subtype": "noteOff",
                    "channel": 4,
                    "noteNumber": 64,
                    "velocity": 0,
                    "lightChannels": [
                        6
                    ]
                }
            },
            "outline": {
                "pinValue": 1,
                "ticks": 0,
                "event": {
                    "deltaTime": 0,
                    "type": "channel",
                    "subtype": "noteOn",
                    "channel": 4,
                    "noteNumber": 64,
                    "velocity": 111,
                    "lightChannels": [
                        7
                    ]
                }
            }
        }
    },
    {
        "changes": {
            "outline": 0,
            "window": 1
        },
        "timeout": 0.1578945,
        "raw": {
            "outline": {
                "pinValue": 0,
                "ticks": 240,
                "event": {
                    "deltaTime": 240,
                    "type": "channel",
                    "subtype": "noteOff",
                    "channel": 4,
                    "noteNumber": 64,
                    "velocity": 0,
                    "lightChannels": [
                        7
                    ]
                }
            },
            "window": {
                "pinValue": 1,
                "ticks": 0,
                "event": {
                    "deltaTime": 0,
                    "type": "channel",
                    "subtype": "noteOn",
                    "channel": 4,
                    "noteNumber": 64,
                    "velocity": 111,
                    "lightChannels": [
                        6
                    ]
                }
            }
        }
    },
    {
        "changes": {
            "window": 0,
            "col-1": 1
        },
        "timeout": 0.315789,
        "raw": {
            "window": {
                "pinValue": 0,
                "ticks": 480,
                "event": {
                    "deltaTime": 480,
                    "type": "channel",
                    "subtype": "noteOff",
                    "channel": 4,
                    "noteNumber": 64,
                    "velocity": 0,
                    "lightChannels": [
                        6
                    ]
                }
            },
            "col-1": {
                "pinValue": 1,
                "ticks": 0,
                "event": {
                    "deltaTime": 0,
                    "type": "channel",
                    "subtype": "noteOn",
                    "channel": 4,
                    "noteNumber": 59,
                    "velocity": 111,
                    "lightChannels": [
                        3
                    ]
                }
            }
        }
    },
    {
        "changes": {
            "col-1": 0,
            "col-2": 1
        },
        "timeout": 0.1578945,
        "raw": {
            "col-1": {
                "pinValue": 0,
                "ticks": 0,
                "event": {
                    "deltaTime": 0,
                    "type": "channel",
                    "subtype": "noteOff",
                    "channel": 4,
                    "noteNumber": 59,
                    "velocity": 0,
                    "lightChannels": [
                        3
                    ]
                }
            },
            "col-2": {
                "pinValue": 1,
                "ticks": 0,
                "event": {
                    "deltaTime": 0,
                    "type": "channel",
                    "subtype": "noteOn",
                    "channel": 4,
                    "noteNumber": 61,
                    "velocity": 111,
                    "lightChannels": [
                        4
                    ]
                }
            }
        }
    },
    {
        "changes": {
            "col-2": 0,
            "col-3": 1
        },
        "timeout": 0.1578945,
        "raw": {
            "col-2": {
                "pinValue": 0,
                "ticks": 240,
                "event": {
                    "deltaTime": 240,
                    "type": "channel",
                    "subtype": "noteOff",
                    "channel": 4,
                    "noteNumber": 61,
                    "velocity": 0,
                    "lightChannels": [
                        4
                    ]
                }
            },
            "col-3": {
                "pinValue": 1,
                "ticks": 0,
                "event": {
                    "deltaTime": 0,
                    "type": "channel",
                    "subtype": "noteOn",
                    "channel": 4,
                    "noteNumber": 62,
                    "velocity": 111,
                    "lightChannels": [
                        5
                    ]
                }
            }
        }
    },
    {
        "changes": {
            "col-3": 0,
            "col-2": 1
        },
        "timeout": 0.1578945,
        "raw": {
            "col-3": {
                "pinValue": 0,
                "ticks": 240,
                "event": {
                    "deltaTime": 240,
                    "type": "channel",
                    "subtype": "noteOff",
                    "channel": 4,
                    "noteNumber": 62,
                    "velocity": 0,
                    "lightChannels": [
                        5
                    ]
                }
            },
            "col-2": {
                "pinValue": 1,
                "ticks": 0,
                "event": {
                    "deltaTime": 0,
                    "type": "channel",
                    "subtype": "noteOn",
                    "channel": 4,
                    "noteNumber": 64,
                    "velocity": 111,
                    "lightChannels": [
                        4
                    ]
                }
            }
        }
    },
    {
        "changes": {
            "col-2": 0,
            "col-3": 1
        },
        "timeout": 0.1578945,
        "raw": {
            "col-2": {
                "pinValue": 0,
                "ticks": 240,
                "event": {
                    "deltaTime": 240,
                    "type": "channel",
                    "subtype": "noteOff",
                    "channel": 4,
                    "noteNumber": 64,
                    "velocity": 0,
                    "lightChannels": [
                        4
                    ]
                }
            },
            "col-3": {
                "pinValue": 1,
                "ticks": 0,
                "event": {
                    "deltaTime": 0,
                    "type": "channel",
                    "subtype": "noteOn",
                    "channel": 4,
                    "noteNumber": 66,
                    "velocity": 111,
                    "lightChannels": [
                        5
                    ]
                }
            }
        }
    },
    {
        "changes": {
            "col-3": 0,
            "garden": 1
        },
        "timeout": 0.1578945,
        "raw": {
            "col-3": {
                "pinValue": 0,
                "ticks": 240,
                "event": {
                    "deltaTime": 240,
                    "type": "channel",
                    "subtype": "noteOff",
                    "channel": 4,
                    "noteNumber": 66,
                    "velocity": 0,
                    "lightChannels": [
                        5
                    ]
                }
            },
            "garden": {
                "pinValue": 1,
                "ticks": 0,
                "event": {
                    "deltaTime": 0,
                    "type": "channel",
                    "subtype": "noteOn",
                    "channel": 4,
                    "noteNumber": 67,
                    "velocity": 111,
                    "lightChannels": [
                        8
                    ]
                }
            }
        }
    },
    {
        "changes": {
            "garden": 0,
            "tree": 1
        },
        "timeout": 0.1578945,
        "raw": {
            "garden": {
                "pinValue": 0,
                "ticks": 240,
                "event": {
                    "deltaTime": 240,
                    "type": "channel",
                    "subtype": "noteOff",
                    "channel": 4,
                    "noteNumber": 67,
                    "velocity": 0,
                    "lightChannels": [
                        8
                    ]
                }
            },
            "tree": {
                "pinValue": 1,
                "ticks": 0,
                "event": {
                    "deltaTime": 0,
                    "type": "channel",
                    "subtype": "noteOn",
                    "channel": 4,
                    "noteNumber": 69,
                    "velocity": 111,
                    "lightChannels": [
                        9
                    ]
                }
            }
        }
    },
    {
        "changes": {
            "tree": 0,
            "outline": 1
        },
        "timeout": 0.1578945,
        "raw": {
            "tree": {
                "pinValue": 0,
                "ticks": 240,
                "event": {
                    "deltaTime": 240,
                    "type": "channel",
                    "subtype": "noteOff",
                    "channel": 4,
                    "noteNumber": 69,
                    "velocity": 0,
                    "lightChannels": [
                        9
                    ]
                }
            },
            "outline": {
                "pinValue": 1,
                "ticks": 0,
                "event": {
                    "deltaTime": 0,
                    "type": "channel",
                    "subtype": "noteOn",
                    "channel": 4,
                    "noteNumber": 71,
                    "velocity": 111,
                    "lightChannels": [
                        7
                    ]
                }
            }
        }
    },
    {
        "changes": {
            "outline": 0,
            "window": 1
        },
        "timeout": 0.1578945,
        "raw": {
            "outline": {
                "pinValue": 0,
                "ticks": 240,
                "event": {
                    "deltaTime": 240,
                    "type": "channel",
                    "subtype": "noteOff",
                    "channel": 4,
                    "noteNumber": 71,
                    "velocity": 0,
                    "lightChannels": [
                        7
                    ]
                }
            },
            "window": {
                "pinValue": 1,
                "ticks": 0,
                "event": {
                    "deltaTime": 0,
                    "type": "channel",
                    "subtype": "noteOn",
                    "channel": 4,
                    "noteNumber": 69,
                    "velocity": 111,
                    "lightChannels": [
                        6
                    ]
                }
            }
        }
    },
    {
        "changes": {
            "window": 1,
            "col-1": 1,
            "col-2": 1,
            "col-3": 1,
            "outline": 1,
            "garden": 1,
            "tree": 1
        },
        "timeout": 0.315789,
        "raw": {
            "window": {
                "pinValue": 1,
                "ticks": 0,
                "event": {
                    "deltaTime": 0,
                    "type": "channel",
                    "subtype": "noteOn",
                    "channel": 4,
                    "noteNumber": 67,
                    "velocity": 111,
                    "lightChannels": [
                        3,
                        4,
                        5,
                        6,
                        7,
                        8,
                        9
                    ]
                }
            },
            "col-1": {
                "pinValue": 1,
                "ticks": 0,
                "event": {
                    "deltaTime": 0,
                    "type": "channel",
                    "subtype": "noteOn",
                    "channel": 4,
                    "noteNumber": 67,
                    "velocity": 111,
                    "lightChannels": [
                        3,
                        4,
                        5,
                        6,
                        7,
                        8,
                        9
                    ]
                }
            },
            "col-2": {
                "pinValue": 1,
                "ticks": 0,
                "event": {
                    "deltaTime": 0,
                    "type": "channel",
                    "subtype": "noteOn",
                    "channel": 4,
                    "noteNumber": 67,
                    "velocity": 111,
                    "lightChannels": [
                        3,
                        4,
                        5,
                        6,
                        7,
                        8,
                        9
                    ]
                }
            },
            "col-3": {
                "pinValue": 1,
                "ticks": 0,
                "event": {
                    "deltaTime": 0,
                    "type": "channel",
                    "subtype": "noteOn",
                    "channel": 4,
                    "noteNumber": 67,
                    "velocity": 111,
                    "lightChannels": [
                        3,
                        4,
                        5,
                        6,
                        7,
                        8,
                        9
                    ]
                }
            },
            "outline": {
                "pinValue": 1,
                "ticks": 0,
                "event": {
                    "deltaTime": 0,
                    "type": "channel",
                    "subtype": "noteOn",
                    "channel": 4,
                    "noteNumber": 67,
                    "velocity": 111,
                    "lightChannels": [
                        3,
                        4,
                        5,
                        6,
                        7,
                        8,
                        9
                    ]
                }
            },
            "garden": {
                "pinValue": 1,
                "ticks": 0,
                "event": {
                    "deltaTime": 0,
                    "type": "channel",
                    "subtype": "noteOn",
                    "channel": 4,
                    "noteNumber": 67,
                    "velocity": 111,
                    "lightChannels": [
                        3,
                        4,
                        5,
                        6,
                        7,
                        8,
                        9
                    ]
                }
            },
            "tree": {
                "pinValue": 1,
                "ticks": 0,
                "event": {
                    "deltaTime": 0,
                    "type": "channel",
                    "subtype": "noteOn",
                    "channel": 4,
                    "noteNumber": 67,
                    "velocity": 111,
                    "lightChannels": [
                        3,
                        4,
                        5,
                        6,
                        7,
                        8,
                        9
                    ]
                }
            }
        }
    },
    {
        "changes": {
            "col-1": 1,
            "col-2": 0,
            "col-3": 0,
            "window": 0,
            "outline": 0,
            "garden": 0,
            "tree": 0
        },
        "timeout": 0.315789,
        "raw": {
            "col-1": {
                "pinValue": 1,
                "ticks": 0,
                "event": {
                    "deltaTime": 0,
                    "type": "channel",
                    "subtype": "noteOn",
                    "channel": 4,
                    "noteNumber": 59,
                    "velocity": 111,
                    "lightChannels": [
                        3
                    ]
                }
            },
            "col-2": {
                "pinValue": 0,
                "ticks": 480,
                "event": {
                    "deltaTime": 480,
                    "type": "channel",
                    "subtype": "noteOff",
                    "channel": 4,
                    "noteNumber": 67,
                    "velocity": 0,
                    "lightChannels": [
                        3,
                        4,
                        5,
                        6,
                        7,
                        8,
                        9
                    ]
                }
            },
            "col-3": {
                "pinValue": 0,
                "ticks": 480,
                "event": {
                    "deltaTime": 480,
                    "type": "channel",
                    "subtype": "noteOff",
                    "channel": 4,
                    "noteNumber": 67,
                    "velocity": 0,
                    "lightChannels": [
                        3,
                        4,
                        5,
                        6,
                        7,
                        8,
                        9
                    ]
                }
            },
            "window": {
                "pinValue": 0,
                "ticks": 480,
                "event": {
                    "deltaTime": 480,
                    "type": "channel",
                    "subtype": "noteOff",
                    "channel": 4,
                    "noteNumber": 67,
                    "velocity": 0,
                    "lightChannels": [
                        3,
                        4,
                        5,
                        6,
                        7,
                        8,
                        9
                    ]
                }
            },
            "outline": {
                "pinValue": 0,
                "ticks": 480,
                "event": {
                    "deltaTime": 480,
                    "type": "channel",
                    "subtype": "noteOff",
                    "channel": 4,
                    "noteNumber": 67,
                    "velocity": 0,
                    "lightChannels": [
                        3,
                        4,
                        5,
                        6,
                        7,
                        8,
                        9
                    ]
                }
            },
            "garden": {
                "pinValue": 0,
                "ticks": 480,
                "event": {
                    "deltaTime": 480,
                    "type": "channel",
                    "subtype": "noteOff",
                    "channel": 4,
                    "noteNumber": 67,
                    "velocity": 0,
                    "lightChannels": [
                        3,
                        4,
                        5,
                        6,
                        7,
                        8,
                        9
                    ]
                }
            },
            "tree": {
                "pinValue": 0,
                "ticks": 480,
                "event": {
                    "deltaTime": 480,
                    "type": "channel",
                    "subtype": "noteOff",
                    "channel": 4,
                    "noteNumber": 67,
                    "velocity": 0,
                    "lightChannels": [
                        3,
                        4,
                        5,
                        6,
                        7,
                        8,
                        9
                    ]
                }
            }
        }
    },
    {
        "changes": {
            "col-1": 0,
            "col-2": 1
        },
        "timeout": 0.1578945,
        "raw": {
            "col-1": {
                "pinValue": 0,
                "ticks": 240,
                "event": {
                    "deltaTime": 240,
                    "type": "channel",
                    "subtype": "noteOff",
                    "channel": 4,
                    "noteNumber": 59,
                    "velocity": 0,
                    "lightChannels": [
                        3
                    ]
                }
            },
            "col-2": {
                "pinValue": 1,
                "ticks": 0,
                "event": {
                    "deltaTime": 0,
                    "type": "channel",
                    "subtype": "noteOn",
                    "channel": 4,
                    "noteNumber": 60,
                    "velocity": 111,
                    "lightChannels": [
                        4
                    ]
                }
            }
        }
    },
    {
        "changes": {
            "col-2": 0,
            "col-3": 1
        },
        "timeout": 0.1578945,
        "raw": {
            "col-2": {
                "pinValue": 0,
                "ticks": 240,
                "event": {
                    "deltaTime": 240,
                    "type": "channel",
                    "subtype": "noteOff",
                    "channel": 4,
                    "noteNumber": 60,
                    "velocity": 0,
                    "lightChannels": [
                        4
                    ]
                }
            },
            "col-3": {
                "pinValue": 1,
                "ticks": 0,
                "event": {
                    "deltaTime": 0,
                    "type": "channel",
                    "subtype": "noteOn",
                    "channel": 4,
                    "noteNumber": 62,
                    "velocity": 111,
                    "lightChannels": [
                        5
                    ]
                }
            }
        }
    },
    {
        "changes": {
            "col-3": 0,
            "col-2": 1
        },
        "timeout": 0.1578945,
        "raw": {
            "col-3": {
                "pinValue": 0,
                "ticks": 240,
                "event": {
                    "deltaTime": 240,
                    "type": "channel",
                    "subtype": "noteOff",
                    "channel": 4,
                    "noteNumber": 62,
                    "velocity": 0,
                    "lightChannels": [
                        5
                    ]
                }
            },
            "col-2": {
                "pinValue": 1,
                "ticks": 0,
                "event": {
                    "deltaTime": 0,
                    "type": "channel",
                    "subtype": "noteOn",
                    "channel": 4,
                    "noteNumber": 64,
                    "velocity": 111,
                    "lightChannels": [
                        4
                    ]
                }
            }
        }
    },
    {
        "changes": {
            "col-2": 0,
            "col-3": 1
        },
        "timeout": 0.1578945,
        "raw": {
            "col-2": {
                "pinValue": 0,
                "ticks": 240,
                "event": {
                    "deltaTime": 240,
                    "type": "channel",
                    "subtype": "noteOff",
                    "channel": 4,
                    "noteNumber": 64,
                    "velocity": 0,
                    "lightChannels": [
                        4
                    ]
                }
            },
            "col-3": {
                "pinValue": 1,
                "ticks": 0,
                "event": {
                    "deltaTime": 0,
                    "type": "channel",
                    "subtype": "noteOn",
                    "channel": 4,
                    "noteNumber": 66,
                    "velocity": 111,
                    "lightChannels": [
                        5
                    ]
                }
            }
        }
    },
    {
        "changes": {
            "col-3": 0,
            "garden": 1
        },
        "timeout": 0.1578945,
        "raw": {
            "col-3": {
                "pinValue": 0,
                "ticks": 240,
                "event": {
                    "deltaTime": 240,
                    "type": "channel",
                    "subtype": "noteOff",
                    "channel": 4,
                    "noteNumber": 66,
                    "velocity": 0,
                    "lightChannels": [
                        5
                    ]
                }
            },
            "garden": {
                "pinValue": 1,
                "ticks": 0,
                "event": {
                    "deltaTime": 0,
                    "type": "channel",
                    "subtype": "noteOn",
                    "channel": 4,
                    "noteNumber": 67,
                    "velocity": 111,
                    "lightChannels": [
                        8
                    ]
                }
            }
        }
    },
    {
        "changes": {
            "garden": 0,
            "tree": 1
        },
        "timeout": 0.1578945,
        "raw": {
            "garden": {
                "pinValue": 0,
                "ticks": 240,
                "event": {
                    "deltaTime": 240,
                    "type": "channel",
                    "subtype": "noteOff",
                    "channel": 4,
                    "noteNumber": 67,
                    "velocity": 0,
                    "lightChannels": [
                        8
                    ]
                }
            },
            "tree": {
                "pinValue": 1,
                "ticks": 0,
                "event": {
                    "deltaTime": 0,
                    "type": "channel",
                    "subtype": "noteOn",
                    "channel": 4,
                    "noteNumber": 69,
                    "velocity": 111,
                    "lightChannels": [
                        9
                    ]
                }
            }
        }
    },
    {
        "changes": {
            "tree": 0,
            "outline": 1
        },
        "timeout": 0.1578945,
        "raw": {
            "tree": {
                "pinValue": 0,
                "ticks": 240,
                "event": {
                    "deltaTime": 240,
                    "type": "channel",
                    "subtype": "noteOff",
                    "channel": 4,
                    "noteNumber": 69,
                    "velocity": 0,
                    "lightChannels": [
                        9
                    ]
                }
            },
            "outline": {
                "pinValue": 1,
                "ticks": 0,
                "event": {
                    "deltaTime": 0,
                    "type": "channel",
                    "subtype": "noteOn",
                    "channel": 4,
                    "noteNumber": 71,
                    "velocity": 111,
                    "lightChannels": [
                        7
                    ]
                }
            }
        }
    },
    {
        "changes": {
            "outline": 0,
            "window": 1
        },
        "timeout": 0.1578945,
        "raw": {
            "outline": {
                "pinValue": 0,
                "ticks": 240,
                "event": {
                    "deltaTime": 240,
                    "type": "channel",
                    "subtype": "noteOff",
                    "channel": 4,
                    "noteNumber": 71,
                    "velocity": 0,
                    "lightChannels": [
                        7
                    ]
                }
            },
            "window": {
                "pinValue": 1,
                "ticks": 0,
                "event": {
                    "deltaTime": 0,
                    "type": "channel",
                    "subtype": "noteOn",
                    "channel": 4,
                    "noteNumber": 69,
                    "velocity": 111,
                    "lightChannels": [
                        6
                    ]
                }
            }
        }
    },
    {
        "changes": {
            "window": 1,
            "col-1": 1,
            "col-2": 1,
            "col-3": 1,
            "outline": 1,
            "garden": 1,
            "tree": 1
        },
        "timeout": 0.315789,
        "raw": {
            "window": {
                "pinValue": 1,
                "ticks": 0,
                "event": {
                    "deltaTime": 0,
                    "type": "channel",
                    "subtype": "noteOn",
                    "channel": 4,
                    "noteNumber": 67,
                    "velocity": 111,
                    "lightChannels": [
                        3,
                        4,
                        5,
                        6,
                        7,
                        8,
                        9
                    ]
                }
            },
            "col-1": {
                "pinValue": 1,
                "ticks": 0,
                "event": {
                    "deltaTime": 0,
                    "type": "channel",
                    "subtype": "noteOn",
                    "channel": 4,
                    "noteNumber": 67,
                    "velocity": 111,
                    "lightChannels": [
                        3,
                        4,
                        5,
                        6,
                        7,
                        8,
                        9
                    ]
                }
            },
            "col-2": {
                "pinValue": 1,
                "ticks": 0,
                "event": {
                    "deltaTime": 0,
                    "type": "channel",
                    "subtype": "noteOn",
                    "channel": 4,
                    "noteNumber": 67,
                    "velocity": 111,
                    "lightChannels": [
                        3,
                        4,
                        5,
                        6,
                        7,
                        8,
                        9
                    ]
                }
            },
            "col-3": {
                "pinValue": 1,
                "ticks": 0,
                "event": {
                    "deltaTime": 0,
                    "type": "channel",
                    "subtype": "noteOn",
                    "channel": 4,
                    "noteNumber": 67,
                    "velocity": 111,
                    "lightChannels": [
                        3,
                        4,
                        5,
                        6,
                        7,
                        8,
                        9
                    ]
                }
            },
            "outline": {
                "pinValue": 1,
                "ticks": 0,
                "event": {
                    "deltaTime": 0,
                    "type": "channel",
                    "subtype": "noteOn",
                    "channel": 4,
                    "noteNumber": 67,
                    "velocity": 111,
                    "lightChannels": [
                        3,
                        4,
                        5,
                        6,
                        7,
                        8,
                        9
                    ]
                }
            },
            "garden": {
                "pinValue": 1,
                "ticks": 0,
                "event": {
                    "deltaTime": 0,
                    "type": "channel",
                    "subtype": "noteOn",
                    "channel": 4,
                    "noteNumber": 67,
                    "velocity": 111,
                    "lightChannels": [
                        3,
                        4,
                        5,
                        6,
                        7,
                        8,
                        9
                    ]
                }
            },
            "tree": {
                "pinValue": 1,
                "ticks": 0,
                "event": {
                    "deltaTime": 0,
                    "type": "channel",
                    "subtype": "noteOn",
                    "channel": 4,
                    "noteNumber": 67,
                    "velocity": 111,
                    "lightChannels": [
                        3,
                        4,
                        5,
                        6,
                        7,
                        8,
                        9
                    ]
                }
            }
        }
    },
    {
        "changes": {
            "col-1": 1,
            "col-2": 0,
            "col-3": 0,
            "window": 0,
            "outline": 0,
            "garden": 0,
            "tree": 0
        },
        "timeout": 0.315789,
        "raw": {
            "col-1": {
                "pinValue": 1,
                "ticks": 0,
                "event": {
                    "deltaTime": 0,
                    "type": "channel",
                    "subtype": "noteOn",
                    "channel": 4,
                    "noteNumber": 59,
                    "velocity": 111,
                    "lightChannels": [
                        3
                    ]
                }
            },
            "col-2": {
                "pinValue": 0,
                "ticks": 480,
                "event": {
                    "deltaTime": 480,
                    "type": "channel",
                    "subtype": "noteOff",
                    "channel": 4,
                    "noteNumber": 67,
                    "velocity": 0,
                    "lightChannels": [
                        3,
                        4,
                        5,
                        6,
                        7,
                        8,
                        9
                    ]
                }
            },
            "col-3": {
                "pinValue": 0,
                "ticks": 480,
                "event": {
                    "deltaTime": 480,
                    "type": "channel",
                    "subtype": "noteOff",
                    "channel": 4,
                    "noteNumber": 67,
                    "velocity": 0,
                    "lightChannels": [
                        3,
                        4,
                        5,
                        6,
                        7,
                        8,
                        9
                    ]
                }
            },
            "window": {
                "pinValue": 0,
                "ticks": 480,
                "event": {
                    "deltaTime": 480,
                    "type": "channel",
                    "subtype": "noteOff",
                    "channel": 4,
                    "noteNumber": 67,
                    "velocity": 0,
                    "lightChannels": [
                        3,
                        4,
                        5,
                        6,
                        7,
                        8,
                        9
                    ]
                }
            },
            "outline": {
                "pinValue": 0,
                "ticks": 480,
                "event": {
                    "deltaTime": 480,
                    "type": "channel",
                    "subtype": "noteOff",
                    "channel": 4,
                    "noteNumber": 67,
                    "velocity": 0,
                    "lightChannels": [
                        3,
                        4,
                        5,
                        6,
                        7,
                        8,
                        9
                    ]
                }
            },
            "garden": {
                "pinValue": 0,
                "ticks": 480,
                "event": {
                    "deltaTime": 480,
                    "type": "channel",
                    "subtype": "noteOff",
                    "channel": 4,
                    "noteNumber": 67,
                    "velocity": 0,
                    "lightChannels": [
                        3,
                        4,
                        5,
                        6,
                        7,
                        8,
                        9
                    ]
                }
            },
            "tree": {
                "pinValue": 0,
                "ticks": 480,
                "event": {
                    "deltaTime": 480,
                    "type": "channel",
                    "subtype": "noteOff",
                    "channel": 4,
                    "noteNumber": 67,
                    "velocity": 0,
                    "lightChannels": [
                        3,
                        4,
                        5,
                        6,
                        7,
                        8,
                        9
                    ]
                }
            }
        }
    },
    {
        "changes": {
            "col-1": 0,
            "col-2": 1
        },
        "timeout": 0.1578945,
        "raw": {
            "col-1": {
                "pinValue": 0,
                "ticks": 240,
                "event": {
                    "deltaTime": 240,
                    "type": "channel",
                    "subtype": "noteOff",
                    "channel": 4,
                    "noteNumber": 59,
                    "velocity": 0,
                    "lightChannels": [
                        3
                    ]
                }
            },
            "col-2": {
                "pinValue": 1,
                "ticks": 0,
                "event": {
                    "deltaTime": 0,
                    "type": "channel",
                    "subtype": "noteOn",
                    "channel": 4,
                    "noteNumber": 60,
                    "velocity": 111,
                    "lightChannels": [
                        4
                    ]
                }
            }
        }
    },
    {
        "changes": {
            "col-2": 0,
            "col-3": 1
        },
        "timeout": 0.1578945,
        "raw": {
            "col-2": {
                "pinValue": 0,
                "ticks": 240,
                "event": {
                    "deltaTime": 240,
                    "type": "channel",
                    "subtype": "noteOff",
                    "channel": 4,
                    "noteNumber": 60,
                    "velocity": 0,
                    "lightChannels": [
                        4
                    ]
                }
            },
            "col-3": {
                "pinValue": 1,
                "ticks": 0,
                "event": {
                    "deltaTime": 0,
                    "type": "channel",
                    "subtype": "noteOn",
                    "channel": 4,
                    "noteNumber": 62,
                    "velocity": 111,
                    "lightChannels": [
                        5
                    ]
                }
            }
        }
    },
    {
        "changes": {
            "col-3": 0,
            "col-2": 1
        },
        "timeout": 0.1578945,
        "raw": {
            "col-3": {
                "pinValue": 0,
                "ticks": 240,
                "event": {
                    "deltaTime": 240,
                    "type": "channel",
                    "subtype": "noteOff",
                    "channel": 4,
                    "noteNumber": 62,
                    "velocity": 0,
                    "lightChannels": [
                        5
                    ]
                }
            },
            "col-2": {
                "pinValue": 1,
                "ticks": 0,
                "event": {
                    "deltaTime": 0,
                    "type": "channel",
                    "subtype": "noteOn",
                    "channel": 4,
                    "noteNumber": 64,
                    "velocity": 111,
                    "lightChannels": [
                        4
                    ]
                }
            }
        }
    },
    {
        "changes": {
            "col-2": 0,
            "col-3": 1
        },
        "timeout": 0.1578945,
        "raw": {
            "col-2": {
                "pinValue": 0,
                "ticks": 240,
                "event": {
                    "deltaTime": 240,
                    "type": "channel",
                    "subtype": "noteOff",
                    "channel": 4,
                    "noteNumber": 64,
                    "velocity": 0,
                    "lightChannels": [
                        4
                    ]
                }
            },
            "col-3": {
                "pinValue": 1,
                "ticks": 0,
                "event": {
                    "deltaTime": 0,
                    "type": "channel",
                    "subtype": "noteOn",
                    "channel": 4,
                    "noteNumber": 66,
                    "velocity": 111,
                    "lightChannels": [
                        5
                    ]
                }
            }
        }
    },
    {
        "changes": {
            "col-3": 0,
            "col-1": 1
        },
        "timeout": 0.1578945,
        "raw": {
            "col-3": {
                "pinValue": 0,
                "ticks": 240,
                "event": {
                    "deltaTime": 240,
                    "type": "channel",
                    "subtype": "noteOff",
                    "channel": 4,
                    "noteNumber": 66,
                    "velocity": 0,
                    "lightChannels": [
                        5
                    ]
                }
            },
            "col-1": {
                "pinValue": 1,
                "ticks": 0,
                "event": {
                    "deltaTime": 0,
                    "type": "channel",
                    "subtype": "noteOn",
                    "channel": 4,
                    "noteNumber": 67,
                    "velocity": 111,
                    "lightChannels": [
                        3
                    ]
                }
            }
        }
    },
    {
        "changes": {
            "col-1": 1
        },
        "timeout": 0.1578945,
        "raw": {
            "col-1": {
                "pinValue": 1,
                "ticks": 0,
                "event": {
                    "deltaTime": 0,
                    "type": "channel",
                    "subtype": "noteOn",
                    "channel": 4,
                    "noteNumber": 59,
                    "velocity": 111,
                    "lightChannels": [
                        3
                    ]
                }
            }
        }
    },
    {
        "changes": {
            "col-1": 0,
            "col-2": 1
        },
        "timeout": 0.1578945,
        "raw": {
            "col-1": {
                "pinValue": 0,
                "ticks": 240,
                "event": {
                    "deltaTime": 240,
                    "type": "channel",
                    "subtype": "noteOff",
                    "channel": 4,
                    "noteNumber": 59,
                    "velocity": 0,
                    "lightChannels": [
                        3
                    ]
                }
            },
            "col-2": {
                "pinValue": 1,
                "ticks": 0,
                "event": {
                    "deltaTime": 0,
                    "type": "channel",
                    "subtype": "noteOn",
                    "channel": 4,
                    "noteNumber": 61,
                    "velocity": 111,
                    "lightChannels": [
                        4
                    ]
                }
            }
        }
    },
    {
        "changes": {
            "col-2": 0,
            "col-3": 1
        },
        "timeout": 0.1578945,
        "raw": {
            "col-2": {
                "pinValue": 0,
                "ticks": 240,
                "event": {
                    "deltaTime": 240,
                    "type": "channel",
                    "subtype": "noteOff",
                    "channel": 4,
                    "noteNumber": 61,
                    "velocity": 0,
                    "lightChannels": [
                        4
                    ]
                }
            },
            "col-3": {
                "pinValue": 1,
                "ticks": 0,
                "event": {
                    "deltaTime": 0,
                    "type": "channel",
                    "subtype": "noteOn",
                    "channel": 4,
                    "noteNumber": 62,
                    "velocity": 111,
                    "lightChannels": [
                        5
                    ]
                }
            }
        }
    },
    {
        "changes": {
            "col-3": 0,
            "col-2": 1
        },
        "timeout": 0.1578945,
        "raw": {
            "col-3": {
                "pinValue": 0,
                "ticks": 240,
                "event": {
                    "deltaTime": 240,
                    "type": "channel",
                    "subtype": "noteOff",
                    "channel": 4,
                    "noteNumber": 62,
                    "velocity": 0,
                    "lightChannels": [
                        5
                    ]
                }
            },
            "col-2": {
                "pinValue": 1,
                "ticks": 0,
                "event": {
                    "deltaTime": 0,
                    "type": "channel",
                    "subtype": "noteOn",
                    "channel": 4,
                    "noteNumber": 64,
                    "velocity": 111,
                    "lightChannels": [
                        4
                    ]
                }
            }
        }
    },
    {
        "changes": {
            "col-2": 0,
            "col-3": 1
        },
        "timeout": 0.1578945,
        "raw": {
            "col-2": {
                "pinValue": 0,
                "ticks": 240,
                "event": {
                    "deltaTime": 240,
                    "type": "channel",
                    "subtype": "noteOff",
                    "channel": 4,
                    "noteNumber": 64,
                    "velocity": 0,
                    "lightChannels": [
                        4
                    ]
                }
            },
            "col-3": {
                "pinValue": 1,
                "ticks": 0,
                "event": {
                    "deltaTime": 0,
                    "type": "channel",
                    "subtype": "noteOn",
                    "channel": 4,
                    "noteNumber": 66,
                    "velocity": 111,
                    "lightChannels": [
                        5
                    ]
                }
            }
        }
    },
    {
        "changes": {
            "col-3": 0,
            "col-1": 1
        },
        "timeout": 0.1578945,
        "raw": {
            "col-3": {
                "pinValue": 0,
                "ticks": 240,
                "event": {
                    "deltaTime": 240,
                    "type": "channel",
                    "subtype": "noteOff",
                    "channel": 4,
                    "noteNumber": 66,
                    "velocity": 0,
                    "lightChannels": [
                        5
                    ]
                }
            },
            "col-1": {
                "pinValue": 1,
                "ticks": 0,
                "event": {
                    "deltaTime": 0,
                    "type": "channel",
                    "subtype": "noteOn",
                    "channel": 4,
                    "noteNumber": 67,
                    "velocity": 111,
                    "lightChannels": [
                        3
                    ]
                }
            }
        }
    },
    {
        "changes": {
            "col-1": 1
        },
        "timeout": 0.1578945,
        "raw": {
            "col-1": {
                "pinValue": 1,
                "ticks": 0,
                "event": {
                    "deltaTime": 0,
                    "type": "channel",
                    "subtype": "noteOn",
                    "channel": 4,
                    "noteNumber": 59,
                    "velocity": 111,
                    "lightChannels": [
                        3
                    ]
                }
            }
        }
    },
    {
        "changes": {
            "col-1": 0,
            "col-2": 1
        },
        "timeout": 0.1578945,
        "raw": {
            "col-1": {
                "pinValue": 0,
                "ticks": 0,
                "event": {
                    "deltaTime": 0,
                    "type": "channel",
                    "subtype": "noteOff",
                    "channel": 4,
                    "noteNumber": 59,
                    "velocity": 0,
                    "lightChannels": [
                        3
                    ]
                }
            },
            "col-2": {
                "pinValue": 1,
                "ticks": 0,
                "event": {
                    "deltaTime": 0,
                    "type": "channel",
                    "subtype": "noteOn",
                    "channel": 4,
                    "noteNumber": 60,
                    "velocity": 111,
                    "lightChannels": [
                        4
                    ]
                }
            }
        }
    },
    {
        "changes": {
            "col-2": 0,
            "col-3": 1
        },
        "timeout": 0.1578945,
        "raw": {
            "col-2": {
                "pinValue": 0,
                "ticks": 0,
                "event": {
                    "deltaTime": 0,
                    "type": "channel",
                    "subtype": "noteOff",
                    "channel": 4,
                    "noteNumber": 60,
                    "velocity": 0,
                    "lightChannels": [
                        4
                    ]
                }
            },
            "col-3": {
                "pinValue": 1,
                "ticks": 0,
                "event": {
                    "deltaTime": 0,
                    "type": "channel",
                    "subtype": "noteOn",
                    "channel": 4,
                    "noteNumber": 62,
                    "velocity": 111,
                    "lightChannels": [
                        5
                    ]
                }
            }
        }
    },
    {
        "changes": {
            "col-3": 0,
            "col-2": 1
        },
        "timeout": 0.1578945,
        "raw": {
            "col-3": {
                "pinValue": 0,
                "ticks": 0,
                "event": {
                    "deltaTime": 0,
                    "type": "channel",
                    "subtype": "noteOff",
                    "channel": 4,
                    "noteNumber": 62,
                    "velocity": 0,
                    "lightChannels": [
                        5
                    ]
                }
            },
            "col-2": {
                "pinValue": 1,
                "ticks": 0,
                "event": {
                    "deltaTime": 0,
                    "type": "channel",
                    "subtype": "noteOn",
                    "channel": 4,
                    "noteNumber": 64,
                    "velocity": 111,
                    "lightChannels": [
                        4
                    ]
                }
            }
        }
    },
    {
        "changes": {
            "col-2": 0,
            "col-3": 1
        },
        "timeout": 0.1578945,
        "raw": {
            "col-2": {
                "pinValue": 0,
                "ticks": 0,
                "event": {
                    "deltaTime": 0,
                    "type": "channel",
                    "subtype": "noteOff",
                    "channel": 4,
                    "noteNumber": 64,
                    "velocity": 0,
                    "lightChannels": [
                        4
                    ]
                }
            },
            "col-3": {
                "pinValue": 1,
                "ticks": 0,
                "event": {
                    "deltaTime": 0,
                    "type": "channel",
                    "subtype": "noteOn",
                    "channel": 4,
                    "noteNumber": 66,
                    "velocity": 111,
                    "lightChannels": [
                        5
                    ]
                }
            }
        }
    },
    {
        "changes": {
            "col-3": 0,
            "col-1": 1
        },
        "timeout": 0.1578945,
        "raw": {
            "col-3": {
                "pinValue": 0,
                "ticks": 0,
                "event": {
                    "deltaTime": 0,
                    "type": "channel",
                    "subtype": "noteOff",
                    "channel": 4,
                    "noteNumber": 66,
                    "velocity": 0,
                    "lightChannels": [
                        5
                    ]
                }
            },
            "col-1": {
                "pinValue": 1,
                "ticks": 0,
                "event": {
                    "deltaTime": 0,
                    "type": "channel",
                    "subtype": "noteOn",
                    "channel": 4,
                    "noteNumber": 67,
                    "velocity": 111,
                    "lightChannels": [
                        3
                    ]
                }
            }
        }
    },
    {
        "changes": {
            "col-1": 1
        },
        "timeout": 0.1578945,
        "raw": {
            "col-1": {
                "pinValue": 1,
                "ticks": 0,
                "event": {
                    "deltaTime": 0,
                    "type": "channel",
                    "subtype": "noteOn",
                    "channel": 4,
                    "noteNumber": 59,
                    "velocity": 111,
                    "lightChannels": [
                        3
                    ]
                }
            }
        }
    },
    {
        "changes": {
            "col-1": 0,
            "col-2": 1
        },
        "timeout": 0.1578945,
        "raw": {
            "col-1": {
                "pinValue": 0,
                "ticks": 0,
                "event": {
                    "deltaTime": 0,
                    "type": "channel",
                    "subtype": "noteOff",
                    "channel": 4,
                    "noteNumber": 59,
                    "velocity": 0,
                    "lightChannels": [
                        3
                    ]
                }
            },
            "col-2": {
                "pinValue": 1,
                "ticks": 0,
                "event": {
                    "deltaTime": 0,
                    "type": "channel",
                    "subtype": "noteOn",
                    "channel": 4,
                    "noteNumber": 60,
                    "velocity": 111,
                    "lightChannels": [
                        4
                    ]
                }
            }
        }
    },
    {
        "changes": {
            "col-2": 0,
            "col-3": 1
        },
        "timeout": 0.1578945,
        "raw": {
            "col-2": {
                "pinValue": 0,
                "ticks": 0,
                "event": {
                    "deltaTime": 0,
                    "type": "channel",
                    "subtype": "noteOff",
                    "channel": 4,
                    "noteNumber": 60,
                    "velocity": 0,
                    "lightChannels": [
                        4
                    ]
                }
            },
            "col-3": {
                "pinValue": 1,
                "ticks": 0,
                "event": {
                    "deltaTime": 0,
                    "type": "channel",
                    "subtype": "noteOn",
                    "channel": 4,
                    "noteNumber": 62,
                    "velocity": 111,
                    "lightChannels": [
                        5
                    ]
                }
            }
        }
    },
    {
        "changes": {
            "col-3": 0,
            "col-2": 1
        },
        "timeout": 0.1578945,
        "raw": {
            "col-3": {
                "pinValue": 0,
                "ticks": 0,
                "event": {
                    "deltaTime": 0,
                    "type": "channel",
                    "subtype": "noteOff",
                    "channel": 4,
                    "noteNumber": 62,
                    "velocity": 0,
                    "lightChannels": [
                        5
                    ]
                }
            },
            "col-2": {
                "pinValue": 1,
                "ticks": 0,
                "event": {
                    "deltaTime": 0,
                    "type": "channel",
                    "subtype": "noteOn",
                    "channel": 4,
                    "noteNumber": 64,
                    "velocity": 111,
                    "lightChannels": [
                        4
                    ]
                }
            }
        }
    },
    {
        "changes": {
            "col-2": 0,
            "col-3": 1
        },
        "timeout": 0.1578945,
        "raw": {
            "col-2": {
                "pinValue": 0,
                "ticks": 0,
                "event": {
                    "deltaTime": 0,
                    "type": "channel",
                    "subtype": "noteOff",
                    "channel": 4,
                    "noteNumber": 64,
                    "velocity": 0,
                    "lightChannels": [
                        4
                    ]
                }
            },
            "col-3": {
                "pinValue": 1,
                "ticks": 0,
                "event": {
                    "deltaTime": 0,
                    "type": "channel",
                    "subtype": "noteOn",
                    "channel": 4,
                    "noteNumber": 66,
                    "velocity": 111,
                    "lightChannels": [
                        5
                    ]
                }
            }
        }
    },
    {
        "changes": {
            "col-3": 0,
            "col-1": 1
        },
        "timeout": 0.1578945,
        "raw": {
            "col-3": {
                "pinValue": 0,
                "ticks": 0,
                "event": {
                    "deltaTime": 0,
                    "type": "channel",
                    "subtype": "noteOff",
                    "channel": 4,
                    "noteNumber": 66,
                    "velocity": 0,
                    "lightChannels": [
                        5
                    ]
                }
            },
            "col-1": {
                "pinValue": 1,
                "ticks": 0,
                "event": {
                    "deltaTime": 0,
                    "type": "channel",
                    "subtype": "noteOn",
                    "channel": 4,
                    "noteNumber": 67,
                    "velocity": 111,
                    "lightChannels": [
                        3
                    ]
                }
            }
        }
    },
    {
        "changes": {
            "col-1": 0,
            "garage": 1,
            "top-right": 1,
            "bottom-right": 1
        },
        "timeout": 0.1578945,
        "raw": {
            "col-1": {
                "pinValue": 0,
                "ticks": 0,
                "event": {
                    "deltaTime": 0,
                    "type": "channel",
                    "subtype": "noteOff",
                    "channel": 4,
                    "noteNumber": 67,
                    "velocity": 0,
                    "lightChannels": [
                        3
                    ]
                }
            },
            "garage": {
                "pinValue": 1,
                "ticks": 0,
                "event": {
                    "deltaTime": 0,
                    "type": "channel",
                    "subtype": "noteOn",
                    "channel": 4,
                    "noteNumber": 64,
                    "velocity": 111,
                    "lightChannels": [
                        0,
                        1,
                        2
                    ]
                }
            },
            "top-right": {
                "pinValue": 1,
                "ticks": 0,
                "event": {
                    "deltaTime": 0,
                    "type": "channel",
                    "subtype": "noteOn",
                    "channel": 4,
                    "noteNumber": 64,
                    "velocity": 111,
                    "lightChannels": [
                        0,
                        1,
                        2
                    ]
                }
            },
            "bottom-right": {
                "pinValue": 1,
                "ticks": 0,
                "event": {
                    "deltaTime": 0,
                    "type": "channel",
                    "subtype": "noteOn",
                    "channel": 4,
                    "noteNumber": 64,
                    "velocity": 111,
                    "lightChannels": [
                        0,
                        1,
                        2
                    ]
                }
            }
        }
    },
    {
        "changes": {
            "col-1": 1
        },
        "timeout": 0.631578,
        "raw": {
            "col-1": {
                "pinValue": 1,
                "ticks": 960,
                "event": {
                    "deltaTime": 960,
                    "type": "channel",
                    "subtype": "noteOn",
                    "channel": 5,
                    "noteNumber": 52,
                    "velocity": 111,
                    "lightChannels": [
                        3
                    ]
                }
            }
        }
    },
    {
        "changes": {
            "col-1": 0,
            "col-2": 1
        },
        "timeout": 0.315789,
        "raw": {
            "col-1": {
                "pinValue": 0,
                "ticks": 480,
                "event": {
                    "deltaTime": 480,
                    "type": "channel",
                    "subtype": "noteOff",
                    "channel": 5,
                    "noteNumber": 52,
                    "velocity": 0,
                    "lightChannels": [
                        3
                    ]
                }
            },
            "col-2": {
                "pinValue": 1,
                "ticks": 0,
                "event": {
                    "deltaTime": 0,
                    "type": "channel",
                    "subtype": "noteOn",
                    "channel": 5,
                    "noteNumber": 50,
                    "velocity": 111,
                    "lightChannels": [
                        4
                    ]
                }
            }
        }
    },
    {
        "changes": {
            "col-2": 0,
            "col-3": 1
        },
        "timeout": 0.315789,
        "raw": {
            "col-2": {
                "pinValue": 0,
                "ticks": 480,
                "event": {
                    "deltaTime": 480,
                    "type": "channel",
                    "subtype": "noteOff",
                    "channel": 5,
                    "noteNumber": 50,
                    "velocity": 0,
                    "lightChannels": [
                        4
                    ]
                }
            },
            "col-3": {
                "pinValue": 1,
                "ticks": 0,
                "event": {
                    "deltaTime": 0,
                    "type": "channel",
                    "subtype": "noteOn",
                    "channel": 5,
                    "noteNumber": 48,
                    "velocity": 111,
                    "lightChannels": [
                        5
                    ]
                }
            }
        }
    },
    {
        "changes": {
            "col-3": 0,
            "window": 1,
            "outline": 1
        },
        "timeout": 0.315789,
        "raw": {
            "col-3": {
                "pinValue": 0,
                "ticks": 480,
                "event": {
                    "deltaTime": 480,
                    "type": "channel",
                    "subtype": "noteOff",
                    "channel": 5,
                    "noteNumber": 48,
                    "velocity": 0,
                    "lightChannels": [
                        5
                    ]
                }
            },
            "window": {
                "pinValue": 1,
                "ticks": 0,
                "event": {
                    "deltaTime": 0,
                    "type": "channel",
                    "subtype": "noteOn",
                    "channel": 5,
                    "noteNumber": 48,
                    "velocity": 111,
                    "lightChannels": [
                        6,
                        7
                    ]
                }
            },
            "outline": {
                "pinValue": 1,
                "ticks": 0,
                "event": {
                    "deltaTime": 0,
                    "type": "channel",
                    "subtype": "noteOn",
                    "channel": 5,
                    "noteNumber": 48,
                    "velocity": 111,
                    "lightChannels": [
                        6,
                        7
                    ]
                }
            }
        }
    },
    {
        "changes": {
            "garage": 0,
            "top-right": 0,
            "bottom-right": 0,
            "window": 0,
            "outline": 0,
            "garden": 1
        },
        "timeout": 0.315789,
        "raw": {
            "garage": {
                "pinValue": 0,
                "ticks": 0,
                "event": {
                    "deltaTime": 0,
                    "type": "channel",
                    "subtype": "noteOff",
                    "channel": 4,
                    "noteNumber": 64,
                    "velocity": 0,
                    "lightChannels": [
                        0,
                        1,
                        2
                    ]
                }
            },
            "top-right": {
                "pinValue": 0,
                "ticks": 0,
                "event": {
                    "deltaTime": 0,
                    "type": "channel",
                    "subtype": "noteOff",
                    "channel": 4,
                    "noteNumber": 64,
                    "velocity": 0,
                    "lightChannels": [
                        0,
                        1,
                        2
                    ]
                }
            },
            "bottom-right": {
                "pinValue": 0,
                "ticks": 0,
                "event": {
                    "deltaTime": 0,
                    "type": "channel",
                    "subtype": "noteOff",
                    "channel": 4,
                    "noteNumber": 64,
                    "velocity": 0,
                    "lightChannels": [
                        0,
                        1,
                        2
                    ]
                }
            },
            "window": {
                "pinValue": 0,
                "ticks": 0,
                "event": {
                    "deltaTime": 0,
                    "type": "channel",
                    "subtype": "noteOff",
                    "channel": 5,
                    "noteNumber": 48,
                    "velocity": 0,
                    "lightChannels": [
                        6,
                        7
                    ]
                }
            },
            "outline": {
                "pinValue": 0,
                "ticks": 0,
                "event": {
                    "deltaTime": 0,
                    "type": "channel",
                    "subtype": "noteOff",
                    "channel": 5,
                    "noteNumber": 48,
                    "velocity": 0,
                    "lightChannels": [
                        6,
                        7
                    ]
                }
            },
            "garden": {
                "pinValue": 1,
                "ticks": 0,
                "event": {
                    "deltaTime": 0,
                    "type": "channel",
                    "subtype": "noteOn",
                    "channel": 5,
                    "noteNumber": 47,
                    "velocity": 111,
                    "lightChannels": [
                        8
                    ]
                }
            }
        }
    },
    {
        "changes": {
            "garden": 0,
            "tree": 1
        },
        "timeout": 0.315789,
        "raw": {
            "garden": {
                "pinValue": 0,
                "ticks": 480,
                "event": {
                    "deltaTime": 480,
                    "type": "channel",
                    "subtype": "noteOff",
                    "channel": 5,
                    "noteNumber": 47,
                    "velocity": 0,
                    "lightChannels": [
                        8
                    ]
                }
            },
            "tree": {
                "pinValue": 1,
                "ticks": 0,
                "event": {
                    "deltaTime": 0,
                    "type": "channel",
                    "subtype": "noteOn",
                    "channel": 5,
                    "noteNumber": 45,
                    "velocity": 111,
                    "lightChannels": [
                        9
                    ]
                }
            }
        }
    },
    {
        "changes": {
            "tree": 0,
            "col-1": 1
        },
        "timeout": 0.315789,
        "raw": {
            "tree": {
                "pinValue": 0,
                "ticks": 480,
                "event": {
                    "deltaTime": 480,
                    "type": "channel",
                    "subtype": "noteOff",
                    "channel": 5,
                    "noteNumber": 45,
                    "velocity": 0,
                    "lightChannels": [
                        9
                    ]
                }
            },
            "col-1": {
                "pinValue": 1,
                "ticks": 0,
                "event": {
                    "deltaTime": 0,
                    "type": "channel",
                    "subtype": "noteOn",
                    "channel": 5,
                    "noteNumber": 47,
                    "velocity": 111,
                    "lightChannels": [
                        3
                    ]
                }
            }
        }
    },
    {
        "changes": {
            "col-1": 0,
            "col-2": 1
        },
        "timeout": 0.315789,
        "raw": {
            "col-1": {
                "pinValue": 0,
                "ticks": 480,
                "event": {
                    "deltaTime": 480,
                    "type": "channel",
                    "subtype": "noteOff",
                    "channel": 5,
                    "noteNumber": 47,
                    "velocity": 0,
                    "lightChannels": [
                        3
                    ]
                }
            },
            "col-2": {
                "pinValue": 1,
                "ticks": 0,
                "event": {
                    "deltaTime": 0,
                    "type": "channel",
                    "subtype": "noteOn",
                    "channel": 5,
                    "noteNumber": 45,
                    "velocity": 111,
                    "lightChannels": [
                        4
                    ]
                }
            }
        }
    },
    {
        "changes": {
            "col-2": 0,
            "col-3": 1
        },
        "timeout": 0.315789,
        "raw": {
            "col-2": {
                "pinValue": 0,
                "ticks": 480,
                "event": {
                    "deltaTime": 480,
                    "type": "channel",
                    "subtype": "noteOff",
                    "channel": 5,
                    "noteNumber": 45,
                    "velocity": 0,
                    "lightChannels": [
                        4
                    ]
                }
            },
            "col-3": {
                "pinValue": 1,
                "ticks": 0,
                "event": {
                    "deltaTime": 0,
                    "type": "channel",
                    "subtype": "noteOn",
                    "channel": 5,
                    "noteNumber": 43,
                    "velocity": 111,
                    "lightChannels": [
                        5
                    ]
                }
            }
        }
    },
    {
        "changes": {
            "col-3": 0,
            "window": 1,
            "outline": 1
        },
        "timeout": 0.315789,
        "raw": {
            "col-3": {
                "pinValue": 0,
                "ticks": 480,
                "event": {
                    "deltaTime": 480,
                    "type": "channel",
                    "subtype": "noteOff",
                    "channel": 5,
                    "noteNumber": 43,
                    "velocity": 0,
                    "lightChannels": [
                        5
                    ]
                }
            },
            "window": {
                "pinValue": 1,
                "ticks": 0,
                "event": {
                    "deltaTime": 0,
                    "type": "channel",
                    "subtype": "noteOn",
                    "channel": 5,
                    "noteNumber": 43,
                    "velocity": 111,
                    "lightChannels": [
                        6,
                        7
                    ]
                }
            },
            "outline": {
                "pinValue": 1,
                "ticks": 0,
                "event": {
                    "deltaTime": 0,
                    "type": "channel",
                    "subtype": "noteOn",
                    "channel": 5,
                    "noteNumber": 43,
                    "velocity": 111,
                    "lightChannels": [
                        6,
                        7
                    ]
                }
            }
        }
    },
    {
        "changes": {
            "window": 0,
            "outline": 0,
            "garden": 1
        },
        "timeout": 0.315789,
        "raw": {
            "window": {
                "pinValue": 0,
                "ticks": 480,
                "event": {
                    "deltaTime": 480,
                    "type": "channel",
                    "subtype": "noteOff",
                    "channel": 5,
                    "noteNumber": 43,
                    "velocity": 0,
                    "lightChannels": [
                        6,
                        7
                    ]
                }
            },
            "outline": {
                "pinValue": 0,
                "ticks": 480,
                "event": {
                    "deltaTime": 480,
                    "type": "channel",
                    "subtype": "noteOff",
                    "channel": 5,
                    "noteNumber": 43,
                    "velocity": 0,
                    "lightChannels": [
                        6,
                        7
                    ]
                }
            },
            "garden": {
                "pinValue": 1,
                "ticks": 0,
                "event": {
                    "deltaTime": 0,
                    "type": "channel",
                    "subtype": "noteOn",
                    "channel": 5,
                    "noteNumber": 42,
                    "velocity": 111,
                    "lightChannels": [
                        8
                    ]
                }
            }
        }
    },
    {
        "changes": {
            "garden": 0,
            "tree": 1
        },
        "timeout": 0.315789,
        "raw": {
            "garden": {
                "pinValue": 0,
                "ticks": 480,
                "event": {
                    "deltaTime": 480,
                    "type": "channel",
                    "subtype": "noteOff",
                    "channel": 5,
                    "noteNumber": 42,
                    "velocity": 0,
                    "lightChannels": [
                        8
                    ]
                }
            },
            "tree": {
                "pinValue": 1,
                "ticks": 0,
                "event": {
                    "deltaTime": 0,
                    "type": "channel",
                    "subtype": "noteOn",
                    "channel": 5,
                    "noteNumber": 40,
                    "velocity": 111,
                    "lightChannels": [
                        9
                    ]
                }
            }
        }
    },
    {
        "changes": {
            "tree": 0,
            "window": 1,
            "outline": 1
        },
        "timeout": 0.315789,
        "raw": {
            "tree": {
                "pinValue": 0,
                "ticks": 0,
                "event": {
                    "deltaTime": 0,
                    "type": "channel",
                    "subtype": "noteOff",
                    "channel": 5,
                    "noteNumber": 40,
                    "velocity": 0,
                    "lightChannels": [
                        9
                    ]
                }
            },
            "window": {
                "pinValue": 1,
                "ticks": 0,
                "event": {
                    "deltaTime": 0,
                    "type": "channel",
                    "subtype": "noteOn",
                    "channel": 5,
                    "noteNumber": 52,
                    "velocity": 111,
                    "lightChannels": [
                        6,
                        7
                    ]
                }
            },
            "outline": {
                "pinValue": 1,
                "ticks": 0,
                "event": {
                    "deltaTime": 0,
                    "type": "channel",
                    "subtype": "noteOn",
                    "channel": 5,
                    "noteNumber": 52,
                    "velocity": 111,
                    "lightChannels": [
                        6,
                        7
                    ]
                }
            }
        }
    },
    {
        "changes": {
            "window": 0,
            "outline": 0,
            "col-1": 1
        },
        "timeout": 0.315789,
        "raw": {
            "window": {
                "pinValue": 0,
                "ticks": 0,
                "event": {
                    "deltaTime": 0,
                    "type": "channel",
                    "subtype": "noteOff",
                    "channel": 5,
                    "noteNumber": 52,
                    "velocity": 0,
                    "lightChannels": [
                        6,
                        7
                    ]
                }
            },
            "outline": {
                "pinValue": 0,
                "ticks": 0,
                "event": {
                    "deltaTime": 0,
                    "type": "channel",
                    "subtype": "noteOff",
                    "channel": 5,
                    "noteNumber": 52,
                    "velocity": 0,
                    "lightChannels": [
                        6,
                        7
                    ]
                }
            },
            "col-1": {
                "pinValue": 1,
                "ticks": 0,
                "event": {
                    "deltaTime": 0,
                    "type": "channel",
                    "subtype": "noteOn",
                    "channel": 5,
                    "noteNumber": 52,
                    "velocity": 111,
                    "lightChannels": [
                        3
                    ]
                }
            }
        }
    },
    {
        "changes": {
            "col-1": 0,
            "col-2": 1
        },
        "timeout": 0.315789,
        "raw": {
            "col-1": {
                "pinValue": 0,
                "ticks": 0,
                "event": {
                    "deltaTime": 0,
                    "type": "channel",
                    "subtype": "noteOff",
                    "channel": 5,
                    "noteNumber": 52,
                    "velocity": 0,
                    "lightChannels": [
                        3
                    ]
                }
            },
            "col-2": {
                "pinValue": 1,
                "ticks": 0,
                "event": {
                    "deltaTime": 0,
                    "type": "channel",
                    "subtype": "noteOn",
                    "channel": 5,
                    "noteNumber": 50,
                    "velocity": 111,
                    "lightChannels": [
                        4
                    ]
                }
            }
        }
    },
    {
        "changes": {
            "col-2": 0,
            "col-3": 1
        },
        "timeout": 0.315789,
        "raw": {
            "col-2": {
                "pinValue": 0,
                "ticks": 0,
                "event": {
                    "deltaTime": 0,
                    "type": "channel",
                    "subtype": "noteOff",
                    "channel": 5,
                    "noteNumber": 50,
                    "velocity": 0,
                    "lightChannels": [
                        4
                    ]
                }
            },
            "col-3": {
                "pinValue": 1,
                "ticks": 0,
                "event": {
                    "deltaTime": 0,
                    "type": "channel",
                    "subtype": "noteOn",
                    "channel": 5,
                    "noteNumber": 48,
                    "velocity": 111,
                    "lightChannels": [
                        5
                    ]
                }
            }
        }
    },
    {
        "changes": {
            "col-3": 0,
            "window": 1,
            "outline": 1
        },
        "timeout": 0.315789,
        "raw": {
            "col-3": {
                "pinValue": 0,
                "ticks": 0,
                "event": {
                    "deltaTime": 0,
                    "type": "channel",
                    "subtype": "noteOff",
                    "channel": 5,
                    "noteNumber": 48,
                    "velocity": 0,
                    "lightChannels": [
                        5
                    ]
                }
            },
            "window": {
                "pinValue": 1,
                "ticks": 0,
                "event": {
                    "deltaTime": 0,
                    "type": "channel",
                    "subtype": "noteOn",
                    "channel": 5,
                    "noteNumber": 48,
                    "velocity": 111,
                    "lightChannels": [
                        6,
                        7
                    ]
                }
            },
            "outline": {
                "pinValue": 1,
                "ticks": 0,
                "event": {
                    "deltaTime": 0,
                    "type": "channel",
                    "subtype": "noteOn",
                    "channel": 5,
                    "noteNumber": 48,
                    "velocity": 111,
                    "lightChannels": [
                        6,
                        7
                    ]
                }
            }
        }
    },
    {
        "changes": {
            "window": 0,
            "outline": 0,
            "garden": 1
        },
        "timeout": 0.315789,
        "raw": {
            "window": {
                "pinValue": 0,
                "ticks": 0,
                "event": {
                    "deltaTime": 0,
                    "type": "channel",
                    "subtype": "noteOff",
                    "channel": 5,
                    "noteNumber": 48,
                    "velocity": 0,
                    "lightChannels": [
                        6,
                        7
                    ]
                }
            },
            "outline": {
                "pinValue": 0,
                "ticks": 0,
                "event": {
                    "deltaTime": 0,
                    "type": "channel",
                    "subtype": "noteOff",
                    "channel": 5,
                    "noteNumber": 48,
                    "velocity": 0,
                    "lightChannels": [
                        6,
                        7
                    ]
                }
            },
            "garden": {
                "pinValue": 1,
                "ticks": 0,
                "event": {
                    "deltaTime": 0,
                    "type": "channel",
                    "subtype": "noteOn",
                    "channel": 5,
                    "noteNumber": 47,
                    "velocity": 111,
                    "lightChannels": [
                        8
                    ]
                }
            }
        }
    },
    {
        "changes": {
            "garden": 0,
            "tree": 1
        },
        "timeout": 0.315789,
        "raw": {
            "garden": {
                "pinValue": 0,
                "ticks": 0,
                "event": {
                    "deltaTime": 0,
                    "type": "channel",
                    "subtype": "noteOff",
                    "channel": 5,
                    "noteNumber": 47,
                    "velocity": 0,
                    "lightChannels": [
                        8
                    ]
                }
            },
            "tree": {
                "pinValue": 1,
                "ticks": 0,
                "event": {
                    "deltaTime": 0,
                    "type": "channel",
                    "subtype": "noteOn",
                    "channel": 5,
                    "noteNumber": 45,
                    "velocity": 111,
                    "lightChannels": [
                        9
                    ]
                }
            }
        }
    },
    {
        "changes": {
            "tree": 0,
            "col-1": 1
        },
        "timeout": 0.315789,
        "raw": {
            "tree": {
                "pinValue": 0,
                "ticks": 0,
                "event": {
                    "deltaTime": 0,
                    "type": "channel",
                    "subtype": "noteOff",
                    "channel": 5,
                    "noteNumber": 45,
                    "velocity": 0,
                    "lightChannels": [
                        9
                    ]
                }
            },
            "col-1": {
                "pinValue": 1,
                "ticks": 0,
                "event": {
                    "deltaTime": 0,
                    "type": "channel",
                    "subtype": "noteOn",
                    "channel": 5,
                    "noteNumber": 47,
                    "velocity": 111,
                    "lightChannels": [
                        3
                    ]
                }
            }
        }
    },
    {
        "changes": {
            "col-1": 0,
            "col-2": 1
        },
        "timeout": 0.315789,
        "raw": {
            "col-1": {
                "pinValue": 0,
                "ticks": 0,
                "event": {
                    "deltaTime": 0,
                    "type": "channel",
                    "subtype": "noteOff",
                    "channel": 5,
                    "noteNumber": 47,
                    "velocity": 0,
                    "lightChannels": [
                        3
                    ]
                }
            },
            "col-2": {
                "pinValue": 1,
                "ticks": 0,
                "event": {
                    "deltaTime": 0,
                    "type": "channel",
                    "subtype": "noteOn",
                    "channel": 5,
                    "noteNumber": 45,
                    "velocity": 111,
                    "lightChannels": [
                        4
                    ]
                }
            }
        }
    },
    {
        "changes": {
            "col-2": 0,
            "col-3": 1
        },
        "timeout": 0.315789,
        "raw": {
            "col-2": {
                "pinValue": 0,
                "ticks": 0,
                "event": {
                    "deltaTime": 0,
                    "type": "channel",
                    "subtype": "noteOff",
                    "channel": 5,
                    "noteNumber": 45,
                    "velocity": 0,
                    "lightChannels": [
                        4
                    ]
                }
            },
            "col-3": {
                "pinValue": 1,
                "ticks": 0,
                "event": {
                    "deltaTime": 0,
                    "type": "channel",
                    "subtype": "noteOn",
                    "channel": 5,
                    "noteNumber": 43,
                    "velocity": 111,
                    "lightChannels": [
                        5
                    ]
                }
            }
        }
    },
    {
        "changes": {
            "col-3": 0,
            "window": 1,
            "outline": 1
        },
        "timeout": 0.315789,
        "raw": {
            "col-3": {
                "pinValue": 0,
                "ticks": 0,
                "event": {
                    "deltaTime": 0,
                    "type": "channel",
                    "subtype": "noteOff",
                    "channel": 5,
                    "noteNumber": 43,
                    "velocity": 0,
                    "lightChannels": [
                        5
                    ]
                }
            },
            "window": {
                "pinValue": 1,
                "ticks": 0,
                "event": {
                    "deltaTime": 0,
                    "type": "channel",
                    "subtype": "noteOn",
                    "channel": 5,
                    "noteNumber": 43,
                    "velocity": 111,
                    "lightChannels": [
                        6,
                        7
                    ]
                }
            },
            "outline": {
                "pinValue": 1,
                "ticks": 0,
                "event": {
                    "deltaTime": 0,
                    "type": "channel",
                    "subtype": "noteOn",
                    "channel": 5,
                    "noteNumber": 43,
                    "velocity": 111,
                    "lightChannels": [
                        6,
                        7
                    ]
                }
            }
        }
    },
    {
        "changes": {
            "window": 0,
            "outline": 0,
            "garden": 1
        },
        "timeout": 0.315789,
        "raw": {
            "window": {
                "pinValue": 0,
                "ticks": 0,
                "event": {
                    "deltaTime": 0,
                    "type": "channel",
                    "subtype": "noteOff",
                    "channel": 5,
                    "noteNumber": 43,
                    "velocity": 0,
                    "lightChannels": [
                        6,
                        7
                    ]
                }
            },
            "outline": {
                "pinValue": 0,
                "ticks": 0,
                "event": {
                    "deltaTime": 0,
                    "type": "channel",
                    "subtype": "noteOff",
                    "channel": 5,
                    "noteNumber": 43,
                    "velocity": 0,
                    "lightChannels": [
                        6,
                        7
                    ]
                }
            },
            "garden": {
                "pinValue": 1,
                "ticks": 0,
                "event": {
                    "deltaTime": 0,
                    "type": "channel",
                    "subtype": "noteOn",
                    "channel": 5,
                    "noteNumber": 42,
                    "velocity": 111,
                    "lightChannels": [
                        8
                    ]
                }
            }
        }
    },
    {
        "changes": {
            "garden": 0,
            "tree": 1
        },
        "timeout": 0.315789,
        "raw": {
            "garden": {
                "pinValue": 0,
                "ticks": 0,
                "event": {
                    "deltaTime": 0,
                    "type": "channel",
                    "subtype": "noteOff",
                    "channel": 5,
                    "noteNumber": 42,
                    "velocity": 0,
                    "lightChannels": [
                        8
                    ]
                }
            },
            "tree": {
                "pinValue": 1,
                "ticks": 0,
                "event": {
                    "deltaTime": 0,
                    "type": "channel",
                    "subtype": "noteOn",
                    "channel": 5,
                    "noteNumber": 40,
                    "velocity": 111,
                    "lightChannels": [
                        9
                    ]
                }
            }
        }
    },
    {
        "changes": {
            "tree": 0,
            "col-1": 1
        },
        "timeout": 0.631578,
        "raw": {
            "tree": {
                "pinValue": 0,
                "ticks": 480,
                "event": {
                    "deltaTime": 480,
                    "type": "channel",
                    "subtype": "noteOff",
                    "channel": 5,
                    "noteNumber": 40,
                    "velocity": 0,
                    "lightChannels": [
                        9
                    ]
                }
            },
            "col-1": {
                "pinValue": 1,
                "ticks": 0,
                "event": {
                    "deltaTime": 0,
                    "type": "channel",
                    "subtype": "noteOn",
                    "channel": 5,
                    "noteNumber": 52,
                    "velocity": 111,
                    "lightChannels": [
                        3
                    ]
                }
            }
        }
    },
    {
        "changes": {
            "col-1": 0,
            "col-2": 1
        },
        "timeout": 0.315789,
        "raw": {
            "col-1": {
                "pinValue": 0,
                "ticks": 480,
                "event": {
                    "deltaTime": 480,
                    "type": "channel",
                    "subtype": "noteOff",
                    "channel": 5,
                    "noteNumber": 52,
                    "velocity": 0,
                    "lightChannels": [
                        3
                    ]
                }
            },
            "col-2": {
                "pinValue": 1,
                "ticks": 0,
                "event": {
                    "deltaTime": 0,
                    "type": "channel",
                    "subtype": "noteOn",
                    "channel": 5,
                    "noteNumber": 50,
                    "velocity": 111,
                    "lightChannels": [
                        4
                    ]
                }
            }
        }
    },
    {
        "changes": {
            "col-2": 0,
            "col-3": 1
        },
        "timeout": 0.315789,
        "raw": {
            "col-2": {
                "pinValue": 0,
                "ticks": 480,
                "event": {
                    "deltaTime": 480,
                    "type": "channel",
                    "subtype": "noteOff",
                    "channel": 5,
                    "noteNumber": 50,
                    "velocity": 0,
                    "lightChannels": [
                        4
                    ]
                }
            },
            "col-3": {
                "pinValue": 1,
                "ticks": 0,
                "event": {
                    "deltaTime": 0,
                    "type": "channel",
                    "subtype": "noteOn",
                    "channel": 5,
                    "noteNumber": 48,
                    "velocity": 111,
                    "lightChannels": [
                        5
                    ]
                }
            }
        }
    },
    {
        "changes": {
            "col-3": 0,
            "window": 1,
            "outline": 1
        },
        "timeout": 0.315789,
        "raw": {
            "col-3": {
                "pinValue": 0,
                "ticks": 480,
                "event": {
                    "deltaTime": 480,
                    "type": "channel",
                    "subtype": "noteOff",
                    "channel": 5,
                    "noteNumber": 48,
                    "velocity": 0,
                    "lightChannels": [
                        5
                    ]
                }
            },
            "window": {
                "pinValue": 1,
                "ticks": 0,
                "event": {
                    "deltaTime": 0,
                    "type": "channel",
                    "subtype": "noteOn",
                    "channel": 5,
                    "noteNumber": 48,
                    "velocity": 111,
                    "lightChannels": [
                        6,
                        7
                    ]
                }
            },
            "outline": {
                "pinValue": 1,
                "ticks": 0,
                "event": {
                    "deltaTime": 0,
                    "type": "channel",
                    "subtype": "noteOn",
                    "channel": 5,
                    "noteNumber": 48,
                    "velocity": 111,
                    "lightChannels": [
                        6,
                        7
                    ]
                }
            }
        }
    },
    {
        "changes": {
            "window": 0,
            "outline": 0,
            "garden": 1
        },
        "timeout": 0.315789,
        "raw": {
            "window": {
                "pinValue": 0,
                "ticks": 480,
                "event": {
                    "deltaTime": 480,
                    "type": "channel",
                    "subtype": "noteOff",
                    "channel": 5,
                    "noteNumber": 48,
                    "velocity": 0,
                    "lightChannels": [
                        6,
                        7
                    ]
                }
            },
            "outline": {
                "pinValue": 0,
                "ticks": 480,
                "event": {
                    "deltaTime": 480,
                    "type": "channel",
                    "subtype": "noteOff",
                    "channel": 5,
                    "noteNumber": 48,
                    "velocity": 0,
                    "lightChannels": [
                        6,
                        7
                    ]
                }
            },
            "garden": {
                "pinValue": 1,
                "ticks": 0,
                "event": {
                    "deltaTime": 0,
                    "type": "channel",
                    "subtype": "noteOn",
                    "channel": 5,
                    "noteNumber": 47,
                    "velocity": 111,
                    "lightChannels": [
                        8
                    ]
                }
            }
        }
    },
    {
        "changes": {
            "garden": 0,
            "tree": 1
        },
        "timeout": 0.315789,
        "raw": {
            "garden": {
                "pinValue": 0,
                "ticks": 480,
                "event": {
                    "deltaTime": 480,
                    "type": "channel",
                    "subtype": "noteOff",
                    "channel": 5,
                    "noteNumber": 47,
                    "velocity": 0,
                    "lightChannels": [
                        8
                    ]
                }
            },
            "tree": {
                "pinValue": 1,
                "ticks": 0,
                "event": {
                    "deltaTime": 0,
                    "type": "channel",
                    "subtype": "noteOn",
                    "channel": 5,
                    "noteNumber": 45,
                    "velocity": 111,
                    "lightChannels": [
                        9
                    ]
                }
            }
        }
    },
    {
        "changes": {
            "tree": 0,
            "col-1": 1
        },
        "timeout": 0.315789,
        "raw": {
            "tree": {
                "pinValue": 0,
                "ticks": 480,
                "event": {
                    "deltaTime": 480,
                    "type": "channel",
                    "subtype": "noteOff",
                    "channel": 5,
                    "noteNumber": 45,
                    "velocity": 0,
                    "lightChannels": [
                        9
                    ]
                }
            },
            "col-1": {
                "pinValue": 1,
                "ticks": 0,
                "event": {
                    "deltaTime": 0,
                    "type": "channel",
                    "subtype": "noteOn",
                    "channel": 5,
                    "noteNumber": 47,
                    "velocity": 111,
                    "lightChannels": [
                        3
                    ]
                }
            }
        }
    },
    {
        "changes": {
            "col-1": 0,
            "col-2": 1
        },
        "timeout": 0.315789,
        "raw": {
            "col-1": {
                "pinValue": 0,
                "ticks": 480,
                "event": {
                    "deltaTime": 480,
                    "type": "channel",
                    "subtype": "noteOff",
                    "channel": 5,
                    "noteNumber": 47,
                    "velocity": 0,
                    "lightChannels": [
                        3
                    ]
                }
            },
            "col-2": {
                "pinValue": 1,
                "ticks": 0,
                "event": {
                    "deltaTime": 0,
                    "type": "channel",
                    "subtype": "noteOn",
                    "channel": 5,
                    "noteNumber": 45,
                    "velocity": 111,
                    "lightChannels": [
                        4
                    ]
                }
            }
        }
    },
    {
        "changes": {
            "col-2": 0,
            "col-3": 1
        },
        "timeout": 0.315789,
        "raw": {
            "col-2": {
                "pinValue": 0,
                "ticks": 480,
                "event": {
                    "deltaTime": 480,
                    "type": "channel",
                    "subtype": "noteOff",
                    "channel": 5,
                    "noteNumber": 45,
                    "velocity": 0,
                    "lightChannels": [
                        4
                    ]
                }
            },
            "col-3": {
                "pinValue": 1,
                "ticks": 0,
                "event": {
                    "deltaTime": 0,
                    "type": "channel",
                    "subtype": "noteOn",
                    "channel": 5,
                    "noteNumber": 43,
                    "velocity": 111,
                    "lightChannels": [
                        5
                    ]
                }
            }
        }
    },
    {
        "changes": {
            "col-3": 0,
            "window": 1,
            "outline": 1
        },
        "timeout": 0.315789,
        "raw": {
            "col-3": {
                "pinValue": 0,
                "ticks": 480,
                "event": {
                    "deltaTime": 480,
                    "type": "channel",
                    "subtype": "noteOff",
                    "channel": 5,
                    "noteNumber": 43,
                    "velocity": 0,
                    "lightChannels": [
                        5
                    ]
                }
            },
            "window": {
                "pinValue": 1,
                "ticks": 0,
                "event": {
                    "deltaTime": 0,
                    "type": "channel",
                    "subtype": "noteOn",
                    "channel": 5,
                    "noteNumber": 43,
                    "velocity": 111,
                    "lightChannels": [
                        6,
                        7
                    ]
                }
            },
            "outline": {
                "pinValue": 1,
                "ticks": 0,
                "event": {
                    "deltaTime": 0,
                    "type": "channel",
                    "subtype": "noteOn",
                    "channel": 5,
                    "noteNumber": 43,
                    "velocity": 111,
                    "lightChannels": [
                        6,
                        7
                    ]
                }
            }
        }
    },
    {
        "changes": {
            "window": 0,
            "outline": 0,
            "garden": 1
        },
        "timeout": 0.315789,
        "raw": {
            "window": {
                "pinValue": 0,
                "ticks": 480,
                "event": {
                    "deltaTime": 480,
                    "type": "channel",
                    "subtype": "noteOff",
                    "channel": 5,
                    "noteNumber": 43,
                    "velocity": 0,
                    "lightChannels": [
                        6,
                        7
                    ]
                }
            },
            "outline": {
                "pinValue": 0,
                "ticks": 480,
                "event": {
                    "deltaTime": 480,
                    "type": "channel",
                    "subtype": "noteOff",
                    "channel": 5,
                    "noteNumber": 43,
                    "velocity": 0,
                    "lightChannels": [
                        6,
                        7
                    ]
                }
            },
            "garden": {
                "pinValue": 1,
                "ticks": 0,
                "event": {
                    "deltaTime": 0,
                    "type": "channel",
                    "subtype": "noteOn",
                    "channel": 5,
                    "noteNumber": 42,
                    "velocity": 111,
                    "lightChannels": [
                        8
                    ]
                }
            }
        }
    },
    {
        "changes": {
            "garden": 0,
            "tree": 1
        },
        "timeout": 0.315789,
        "raw": {
            "garden": {
                "pinValue": 0,
                "ticks": 480,
                "event": {
                    "deltaTime": 480,
                    "type": "channel",
                    "subtype": "noteOff",
                    "channel": 5,
                    "noteNumber": 42,
                    "velocity": 0,
                    "lightChannels": [
                        8
                    ]
                }
            },
            "tree": {
                "pinValue": 1,
                "ticks": 0,
                "event": {
                    "deltaTime": 0,
                    "type": "channel",
                    "subtype": "noteOn",
                    "channel": 5,
                    "noteNumber": 40,
                    "velocity": 111,
                    "lightChannels": [
                        9
                    ]
                }
            }
        }
    },
    {
        "changes": {
            "tree": 0,
            "window": 1,
            "outline": 1
        },
        "timeout": 0.315789,
        "raw": {
            "tree": {
                "pinValue": 0,
                "ticks": 0,
                "event": {
                    "deltaTime": 0,
                    "type": "channel",
                    "subtype": "noteOff",
                    "channel": 5,
                    "noteNumber": 40,
                    "velocity": 0,
                    "lightChannels": [
                        9
                    ]
                }
            },
            "window": {
                "pinValue": 1,
                "ticks": 0,
                "event": {
                    "deltaTime": 0,
                    "type": "channel",
                    "subtype": "noteOn",
                    "channel": 5,
                    "noteNumber": 52,
                    "velocity": 111,
                    "lightChannels": [
                        6,
                        7
                    ]
                }
            },
            "outline": {
                "pinValue": 1,
                "ticks": 0,
                "event": {
                    "deltaTime": 0,
                    "type": "channel",
                    "subtype": "noteOn",
                    "channel": 5,
                    "noteNumber": 52,
                    "velocity": 111,
                    "lightChannels": [
                        6,
                        7
                    ]
                }
            }
        }
    },
    {
        "changes": {
            "window": 0,
            "outline": 0,
            "col-1": 1
        },
        "timeout": 0.315789,
        "raw": {
            "window": {
                "pinValue": 0,
                "ticks": 0,
                "event": {
                    "deltaTime": 0,
                    "type": "channel",
                    "subtype": "noteOff",
                    "channel": 5,
                    "noteNumber": 52,
                    "velocity": 0,
                    "lightChannels": [
                        6,
                        7
                    ]
                }
            },
            "outline": {
                "pinValue": 0,
                "ticks": 0,
                "event": {
                    "deltaTime": 0,
                    "type": "channel",
                    "subtype": "noteOff",
                    "channel": 5,
                    "noteNumber": 52,
                    "velocity": 0,
                    "lightChannels": [
                        6,
                        7
                    ]
                }
            },
            "col-1": {
                "pinValue": 1,
                "ticks": 0,
                "event": {
                    "deltaTime": 0,
                    "type": "channel",
                    "subtype": "noteOn",
                    "channel": 5,
                    "noteNumber": 52,
                    "velocity": 111,
                    "lightChannels": [
                        3
                    ]
                }
            }
        }
    },
    {
        "changes": {
            "col-1": 0,
            "col-2": 1
        },
        "timeout": 0.315789,
        "raw": {
            "col-1": {
                "pinValue": 0,
                "ticks": 0,
                "event": {
                    "deltaTime": 0,
                    "type": "channel",
                    "subtype": "noteOff",
                    "channel": 5,
                    "noteNumber": 52,
                    "velocity": 0,
                    "lightChannels": [
                        3
                    ]
                }
            },
            "col-2": {
                "pinValue": 1,
                "ticks": 0,
                "event": {
                    "deltaTime": 0,
                    "type": "channel",
                    "subtype": "noteOn",
                    "channel": 5,
                    "noteNumber": 50,
                    "velocity": 111,
                    "lightChannels": [
                        4
                    ]
                }
            }
        }
    },
    {
        "changes": {
            "col-2": 0,
            "col-3": 1
        },
        "timeout": 0.315789,
        "raw": {
            "col-2": {
                "pinValue": 0,
                "ticks": 0,
                "event": {
                    "deltaTime": 0,
                    "type": "channel",
                    "subtype": "noteOff",
                    "channel": 5,
                    "noteNumber": 50,
                    "velocity": 0,
                    "lightChannels": [
                        4
                    ]
                }
            },
            "col-3": {
                "pinValue": 1,
                "ticks": 0,
                "event": {
                    "deltaTime": 0,
                    "type": "channel",
                    "subtype": "noteOn",
                    "channel": 5,
                    "noteNumber": 48,
                    "velocity": 111,
                    "lightChannels": [
                        5
                    ]
                }
            }
        }
    },
    {
        "changes": {
            "col-3": 0,
            "window": 1,
            "outline": 1
        },
        "timeout": 0.315789,
        "raw": {
            "col-3": {
                "pinValue": 0,
                "ticks": 0,
                "event": {
                    "deltaTime": 0,
                    "type": "channel",
                    "subtype": "noteOff",
                    "channel": 5,
                    "noteNumber": 48,
                    "velocity": 0,
                    "lightChannels": [
                        5
                    ]
                }
            },
            "window": {
                "pinValue": 1,
                "ticks": 0,
                "event": {
                    "deltaTime": 0,
                    "type": "channel",
                    "subtype": "noteOn",
                    "channel": 5,
                    "noteNumber": 48,
                    "velocity": 111,
                    "lightChannels": [
                        6,
                        7
                    ]
                }
            },
            "outline": {
                "pinValue": 1,
                "ticks": 0,
                "event": {
                    "deltaTime": 0,
                    "type": "channel",
                    "subtype": "noteOn",
                    "channel": 5,
                    "noteNumber": 48,
                    "velocity": 111,
                    "lightChannels": [
                        6,
                        7
                    ]
                }
            }
        }
    },
    {
        "changes": {
            "window": 0,
            "outline": 0,
            "garden": 1
        },
        "timeout": 0.315789,
        "raw": {
            "window": {
                "pinValue": 0,
                "ticks": 0,
                "event": {
                    "deltaTime": 0,
                    "type": "channel",
                    "subtype": "noteOff",
                    "channel": 5,
                    "noteNumber": 48,
                    "velocity": 0,
                    "lightChannels": [
                        6,
                        7
                    ]
                }
            },
            "outline": {
                "pinValue": 0,
                "ticks": 0,
                "event": {
                    "deltaTime": 0,
                    "type": "channel",
                    "subtype": "noteOff",
                    "channel": 5,
                    "noteNumber": 48,
                    "velocity": 0,
                    "lightChannels": [
                        6,
                        7
                    ]
                }
            },
            "garden": {
                "pinValue": 1,
                "ticks": 0,
                "event": {
                    "deltaTime": 0,
                    "type": "channel",
                    "subtype": "noteOn",
                    "channel": 5,
                    "noteNumber": 47,
                    "velocity": 111,
                    "lightChannels": [
                        8
                    ]
                }
            }
        }
    },
    {
        "changes": {
            "garden": 0,
            "tree": 1
        },
        "timeout": 0.315789,
        "raw": {
            "garden": {
                "pinValue": 0,
                "ticks": 0,
                "event": {
                    "deltaTime": 0,
                    "type": "channel",
                    "subtype": "noteOff",
                    "channel": 5,
                    "noteNumber": 47,
                    "velocity": 0,
                    "lightChannels": [
                        8
                    ]
                }
            },
            "tree": {
                "pinValue": 1,
                "ticks": 0,
                "event": {
                    "deltaTime": 0,
                    "type": "channel",
                    "subtype": "noteOn",
                    "channel": 5,
                    "noteNumber": 45,
                    "velocity": 111,
                    "lightChannels": [
                        9
                    ]
                }
            }
        }
    },
    {
        "changes": {
            "tree": 0,
            "col-1": 1
        },
        "timeout": 0.315789,
        "raw": {
            "tree": {
                "pinValue": 0,
                "ticks": 0,
                "event": {
                    "deltaTime": 0,
                    "type": "channel",
                    "subtype": "noteOff",
                    "channel": 5,
                    "noteNumber": 45,
                    "velocity": 0,
                    "lightChannels": [
                        9
                    ]
                }
            },
            "col-1": {
                "pinValue": 1,
                "ticks": 0,
                "event": {
                    "deltaTime": 0,
                    "type": "channel",
                    "subtype": "noteOn",
                    "channel": 5,
                    "noteNumber": 47,
                    "velocity": 111,
                    "lightChannels": [
                        3
                    ]
                }
            }
        }
    },
    {
        "changes": {
            "col-1": 0,
            "col-2": 1
        },
        "timeout": 0.315789,
        "raw": {
            "col-1": {
                "pinValue": 0,
                "ticks": 0,
                "event": {
                    "deltaTime": 0,
                    "type": "channel",
                    "subtype": "noteOff",
                    "channel": 5,
                    "noteNumber": 47,
                    "velocity": 0,
                    "lightChannels": [
                        3
                    ]
                }
            },
            "col-2": {
                "pinValue": 1,
                "ticks": 0,
                "event": {
                    "deltaTime": 0,
                    "type": "channel",
                    "subtype": "noteOn",
                    "channel": 5,
                    "noteNumber": 45,
                    "velocity": 111,
                    "lightChannels": [
                        4
                    ]
                }
            }
        }
    },
    {
        "changes": {
            "col-2": 0,
            "col-3": 1
        },
        "timeout": 0.315789,
        "raw": {
            "col-2": {
                "pinValue": 0,
                "ticks": 0,
                "event": {
                    "deltaTime": 0,
                    "type": "channel",
                    "subtype": "noteOff",
                    "channel": 5,
                    "noteNumber": 45,
                    "velocity": 0,
                    "lightChannels": [
                        4
                    ]
                }
            },
            "col-3": {
                "pinValue": 1,
                "ticks": 0,
                "event": {
                    "deltaTime": 0,
                    "type": "channel",
                    "subtype": "noteOn",
                    "channel": 5,
                    "noteNumber": 43,
                    "velocity": 111,
                    "lightChannels": [
                        5
                    ]
                }
            }
        }
    },
    {
        "changes": {
            "col-3": 0,
            "window": 1,
            "outline": 1
        },
        "timeout": 0.315789,
        "raw": {
            "col-3": {
                "pinValue": 0,
                "ticks": 0,
                "event": {
                    "deltaTime": 0,
                    "type": "channel",
                    "subtype": "noteOff",
                    "channel": 5,
                    "noteNumber": 43,
                    "velocity": 0,
                    "lightChannels": [
                        5
                    ]
                }
            },
            "window": {
                "pinValue": 1,
                "ticks": 0,
                "event": {
                    "deltaTime": 0,
                    "type": "channel",
                    "subtype": "noteOn",
                    "channel": 5,
                    "noteNumber": 43,
                    "velocity": 111,
                    "lightChannels": [
                        6,
                        7
                    ]
                }
            },
            "outline": {
                "pinValue": 1,
                "ticks": 0,
                "event": {
                    "deltaTime": 0,
                    "type": "channel",
                    "subtype": "noteOn",
                    "channel": 5,
                    "noteNumber": 43,
                    "velocity": 111,
                    "lightChannels": [
                        6,
                        7
                    ]
                }
            }
        }
    },
    {
        "changes": {
            "window": 0,
            "outline": 0,
            "garden": 1
        },
        "timeout": 0.315789,
        "raw": {
            "window": {
                "pinValue": 0,
                "ticks": 0,
                "event": {
                    "deltaTime": 0,
                    "type": "channel",
                    "subtype": "noteOff",
                    "channel": 5,
                    "noteNumber": 43,
                    "velocity": 0,
                    "lightChannels": [
                        6,
                        7
                    ]
                }
            },
            "outline": {
                "pinValue": 0,
                "ticks": 0,
                "event": {
                    "deltaTime": 0,
                    "type": "channel",
                    "subtype": "noteOff",
                    "channel": 5,
                    "noteNumber": 43,
                    "velocity": 0,
                    "lightChannels": [
                        6,
                        7
                    ]
                }
            },
            "garden": {
                "pinValue": 1,
                "ticks": 0,
                "event": {
                    "deltaTime": 0,
                    "type": "channel",
                    "subtype": "noteOn",
                    "channel": 5,
                    "noteNumber": 42,
                    "velocity": 111,
                    "lightChannels": [
                        8
                    ]
                }
            }
        }
    },
    {
        "changes": {
            "garden": 0,
            "tree": 1
        },
        "timeout": 0.315789,
        "raw": {
            "garden": {
                "pinValue": 0,
                "ticks": 0,
                "event": {
                    "deltaTime": 0,
                    "type": "channel",
                    "subtype": "noteOff",
                    "channel": 5,
                    "noteNumber": 42,
                    "velocity": 0,
                    "lightChannels": [
                        8
                    ]
                }
            },
            "tree": {
                "pinValue": 1,
                "ticks": 0,
                "event": {
                    "deltaTime": 0,
                    "type": "channel",
                    "subtype": "noteOn",
                    "channel": 5,
                    "noteNumber": 40,
                    "velocity": 111,
                    "lightChannels": [
                        9
                    ]
                }
            }
        }
    },
    {
        "changes": {
            "col-1": 1,
            "tree": 0
        },
        "timeout": 0.631578,
        "raw": {
            "col-1": {
                "pinValue": 1,
                "ticks": 960,
                "event": {
                    "deltaTime": 960,
                    "type": "channel",
                    "subtype": "noteOn",
                    "channel": 1,
                    "noteNumber": 79,
                    "velocity": 111,
                    "lightChannels": [
                        3
                    ]
                }
            },
            "tree": {
                "pinValue": 0,
                "ticks": 0,
                "event": {
                    "deltaTime": 0,
                    "type": "channel",
                    "subtype": "noteOff",
                    "channel": 5,
                    "noteNumber": 40,
                    "velocity": 0,
                    "lightChannels": [
                        9
                    ]
                }
            }
        }
    },
    {
        "changes": {
            "col-1": 0,
            "col-3": 1
        },
        "timeout": 0.315789,
        "raw": {
            "col-1": {
                "pinValue": 0,
                "ticks": 480,
                "event": {
                    "deltaTime": 480,
                    "type": "channel",
                    "subtype": "noteOff",
                    "channel": 1,
                    "noteNumber": 79,
                    "velocity": 0,
                    "lightChannels": [
                        3
                    ]
                }
            },
            "col-3": {
                "pinValue": 1,
                "ticks": 0,
                "event": {
                    "deltaTime": 0,
                    "type": "channel",
                    "subtype": "noteOn",
                    "channel": 1,
                    "noteNumber": 78,
                    "velocity": 111,
                    "lightChannels": [
                        5
                    ]
                }
            }
        }
    },
    {
        "changes": {
            "col-3": 0,
            "col-2": 1
        },
        "timeout": 0.1578945,
        "raw": {
            "col-3": {
                "pinValue": 0,
                "ticks": 240,
                "event": {
                    "deltaTime": 240,
                    "type": "channel",
                    "subtype": "noteOff",
                    "channel": 1,
                    "noteNumber": 78,
                    "velocity": 0,
                    "lightChannels": [
                        5
                    ]
                }
            },
            "col-2": {
                "pinValue": 1,
                "ticks": 0,
                "event": {
                    "deltaTime": 0,
                    "type": "channel",
                    "subtype": "noteOn",
                    "channel": 1,
                    "noteNumber": 79,
                    "velocity": 111,
                    "lightChannels": [
                        4
                    ]
                }
            }
        }
    },
    {
        "changes": {
            "col-2": 0,
            "garden": 1,
            "tree": 1
        },
        "timeout": 0.1578945,
        "raw": {
            "col-2": {
                "pinValue": 0,
                "ticks": 240,
                "event": {
                    "deltaTime": 240,
                    "type": "channel",
                    "subtype": "noteOff",
                    "channel": 1,
                    "noteNumber": 79,
                    "velocity": 0,
                    "lightChannels": [
                        4
                    ]
                }
            },
            "garden": {
                "pinValue": 1,
                "ticks": 0,
                "event": {
                    "deltaTime": 0,
                    "type": "channel",
                    "subtype": "noteOn",
                    "channel": 1,
                    "noteNumber": 76,
                    "velocity": 111,
                    "lightChannels": [
                        8,
                        9
                    ]
                }
            },
            "tree": {
                "pinValue": 1,
                "ticks": 0,
                "event": {
                    "deltaTime": 0,
                    "type": "channel",
                    "subtype": "noteOn",
                    "channel": 1,
                    "noteNumber": 76,
                    "velocity": 111,
                    "lightChannels": [
                        8,
                        9
                    ]
                }
            }
        }
    },
    {
        "changes": {
            "garden": 0,
            "tree": 0,
            "col-1": 1
        },
        "timeout": 0.315789,
        "raw": {
            "garden": {
                "pinValue": 0,
                "ticks": 480,
                "event": {
                    "deltaTime": 480,
                    "type": "channel",
                    "subtype": "noteOff",
                    "channel": 1,
                    "noteNumber": 76,
                    "velocity": 0,
                    "lightChannels": [
                        8,
                        9
                    ]
                }
            },
            "tree": {
                "pinValue": 0,
                "ticks": 480,
                "event": {
                    "deltaTime": 480,
                    "type": "channel",
                    "subtype": "noteOff",
                    "channel": 1,
                    "noteNumber": 76,
                    "velocity": 0,
                    "lightChannels": [
                        8,
                        9
                    ]
                }
            },
            "col-1": {
                "pinValue": 1,
                "ticks": 0,
                "event": {
                    "deltaTime": 0,
                    "type": "channel",
                    "subtype": "noteOn",
                    "channel": 1,
                    "noteNumber": 79,
                    "velocity": 111,
                    "lightChannels": [
                        3
                    ]
                }
            }
        }
    },
    {
        "changes": {
            "col-1": 0,
            "col-3": 1
        },
        "timeout": 0.315789,
        "raw": {
            "col-1": {
                "pinValue": 0,
                "ticks": 480,
                "event": {
                    "deltaTime": 480,
                    "type": "channel",
                    "subtype": "noteOff",
                    "channel": 1,
                    "noteNumber": 79,
                    "velocity": 0,
                    "lightChannels": [
                        3
                    ]
                }
            },
            "col-3": {
                "pinValue": 1,
                "ticks": 0,
                "event": {
                    "deltaTime": 0,
                    "type": "channel",
                    "subtype": "noteOn",
                    "channel": 1,
                    "noteNumber": 78,
                    "velocity": 111,
                    "lightChannels": [
                        5
                    ]
                }
            }
        }
    },
    {
        "changes": {
            "col-3": 0,
            "col-2": 1
        },
        "timeout": 0.1578945,
        "raw": {
            "col-3": {
                "pinValue": 0,
                "ticks": 240,
                "event": {
                    "deltaTime": 240,
                    "type": "channel",
                    "subtype": "noteOff",
                    "channel": 1,
                    "noteNumber": 78,
                    "velocity": 0,
                    "lightChannels": [
                        5
                    ]
                }
            },
            "col-2": {
                "pinValue": 1,
                "ticks": 0,
                "event": {
                    "deltaTime": 0,
                    "type": "channel",
                    "subtype": "noteOn",
                    "channel": 1,
                    "noteNumber": 79,
                    "velocity": 111,
                    "lightChannels": [
                        4
                    ]
                }
            }
        }
    },
    {
        "changes": {
            "col-2": 0,
            "garden": 1,
            "tree": 1
        },
        "timeout": 0.1578945,
        "raw": {
            "col-2": {
                "pinValue": 0,
                "ticks": 240,
                "event": {
                    "deltaTime": 240,
                    "type": "channel",
                    "subtype": "noteOff",
                    "channel": 1,
                    "noteNumber": 79,
                    "velocity": 0,
                    "lightChannels": [
                        4
                    ]
                }
            },
            "garden": {
                "pinValue": 1,
                "ticks": 0,
                "event": {
                    "deltaTime": 0,
                    "type": "channel",
                    "subtype": "noteOn",
                    "channel": 1,
                    "noteNumber": 76,
                    "velocity": 111,
                    "lightChannels": [
                        8,
                        9
                    ]
                }
            },
            "tree": {
                "pinValue": 1,
                "ticks": 0,
                "event": {
                    "deltaTime": 0,
                    "type": "channel",
                    "subtype": "noteOn",
                    "channel": 1,
                    "noteNumber": 76,
                    "velocity": 111,
                    "lightChannels": [
                        8,
                        9
                    ]
                }
            }
        }
    },
    {
        "changes": {
            "garden": 0,
            "tree": 0,
            "col-1": 1
        },
        "timeout": 0.315789,
        "raw": {
            "garden": {
                "pinValue": 0,
                "ticks": 480,
                "event": {
                    "deltaTime": 480,
                    "type": "channel",
                    "subtype": "noteOff",
                    "channel": 1,
                    "noteNumber": 76,
                    "velocity": 0,
                    "lightChannels": [
                        8,
                        9
                    ]
                }
            },
            "tree": {
                "pinValue": 0,
                "ticks": 480,
                "event": {
                    "deltaTime": 480,
                    "type": "channel",
                    "subtype": "noteOff",
                    "channel": 1,
                    "noteNumber": 76,
                    "velocity": 0,
                    "lightChannels": [
                        8,
                        9
                    ]
                }
            },
            "col-1": {
                "pinValue": 1,
                "ticks": 0,
                "event": {
                    "deltaTime": 0,
                    "type": "channel",
                    "subtype": "noteOn",
                    "channel": 1,
                    "noteNumber": 79,
                    "velocity": 111,
                    "lightChannels": [
                        3
                    ]
                }
            }
        }
    },
    {
        "changes": {
            "col-1": 0,
            "col-3": 1
        },
        "timeout": 0.315789,
        "raw": {
            "col-1": {
                "pinValue": 0,
                "ticks": 480,
                "event": {
                    "deltaTime": 480,
                    "type": "channel",
                    "subtype": "noteOff",
                    "channel": 1,
                    "noteNumber": 79,
                    "velocity": 0,
                    "lightChannels": [
                        3
                    ]
                }
            },
            "col-3": {
                "pinValue": 1,
                "ticks": 0,
                "event": {
                    "deltaTime": 0,
                    "type": "channel",
                    "subtype": "noteOn",
                    "channel": 1,
                    "noteNumber": 78,
                    "velocity": 111,
                    "lightChannels": [
                        5
                    ]
                }
            }
        }
    },
    {
        "changes": {
            "col-3": 0,
            "col-2": 1
        },
        "timeout": 0.1578945,
        "raw": {
            "col-3": {
                "pinValue": 0,
                "ticks": 240,
                "event": {
                    "deltaTime": 240,
                    "type": "channel",
                    "subtype": "noteOff",
                    "channel": 1,
                    "noteNumber": 78,
                    "velocity": 0,
                    "lightChannels": [
                        5
                    ]
                }
            },
            "col-2": {
                "pinValue": 1,
                "ticks": 0,
                "event": {
                    "deltaTime": 0,
                    "type": "channel",
                    "subtype": "noteOn",
                    "channel": 1,
                    "noteNumber": 79,
                    "velocity": 111,
                    "lightChannels": [
                        4
                    ]
                }
            }
        }
    },
    {
        "changes": {
            "col-2": 0,
            "garden": 1,
            "tree": 1
        },
        "timeout": 0.1578945,
        "raw": {
            "col-2": {
                "pinValue": 0,
                "ticks": 240,
                "event": {
                    "deltaTime": 240,
                    "type": "channel",
                    "subtype": "noteOff",
                    "channel": 1,
                    "noteNumber": 79,
                    "velocity": 0,
                    "lightChannels": [
                        4
                    ]
                }
            },
            "garden": {
                "pinValue": 1,
                "ticks": 0,
                "event": {
                    "deltaTime": 0,
                    "type": "channel",
                    "subtype": "noteOn",
                    "channel": 1,
                    "noteNumber": 76,
                    "velocity": 111,
                    "lightChannels": [
                        8,
                        9
                    ]
                }
            },
            "tree": {
                "pinValue": 1,
                "ticks": 0,
                "event": {
                    "deltaTime": 0,
                    "type": "channel",
                    "subtype": "noteOn",
                    "channel": 1,
                    "noteNumber": 76,
                    "velocity": 111,
                    "lightChannels": [
                        8,
                        9
                    ]
                }
            }
        }
    },
    {
        "changes": {
            "garden": 0,
            "tree": 0,
            "col-1": 1
        },
        "timeout": 0.315789,
        "raw": {
            "garden": {
                "pinValue": 0,
                "ticks": 480,
                "event": {
                    "deltaTime": 480,
                    "type": "channel",
                    "subtype": "noteOff",
                    "channel": 1,
                    "noteNumber": 76,
                    "velocity": 0,
                    "lightChannels": [
                        8,
                        9
                    ]
                }
            },
            "tree": {
                "pinValue": 0,
                "ticks": 480,
                "event": {
                    "deltaTime": 480,
                    "type": "channel",
                    "subtype": "noteOff",
                    "channel": 1,
                    "noteNumber": 76,
                    "velocity": 0,
                    "lightChannels": [
                        8,
                        9
                    ]
                }
            },
            "col-1": {
                "pinValue": 1,
                "ticks": 0,
                "event": {
                    "deltaTime": 0,
                    "type": "channel",
                    "subtype": "noteOn",
                    "channel": 1,
                    "noteNumber": 79,
                    "velocity": 111,
                    "lightChannels": [
                        3
                    ]
                }
            }
        }
    },
    {
        "changes": {
            "col-1": 0,
            "col-3": 1
        },
        "timeout": 0.315789,
        "raw": {
            "col-1": {
                "pinValue": 0,
                "ticks": 480,
                "event": {
                    "deltaTime": 480,
                    "type": "channel",
                    "subtype": "noteOff",
                    "channel": 1,
                    "noteNumber": 79,
                    "velocity": 0,
                    "lightChannels": [
                        3
                    ]
                }
            },
            "col-3": {
                "pinValue": 1,
                "ticks": 0,
                "event": {
                    "deltaTime": 0,
                    "type": "channel",
                    "subtype": "noteOn",
                    "channel": 1,
                    "noteNumber": 78,
                    "velocity": 111,
                    "lightChannels": [
                        5
                    ]
                }
            }
        }
    },
    {
        "changes": {
            "col-3": 0,
            "col-2": 1
        },
        "timeout": 0.1578945,
        "raw": {
            "col-3": {
                "pinValue": 0,
                "ticks": 240,
                "event": {
                    "deltaTime": 240,
                    "type": "channel",
                    "subtype": "noteOff",
                    "channel": 1,
                    "noteNumber": 78,
                    "velocity": 0,
                    "lightChannels": [
                        5
                    ]
                }
            },
            "col-2": {
                "pinValue": 1,
                "ticks": 0,
                "event": {
                    "deltaTime": 0,
                    "type": "channel",
                    "subtype": "noteOn",
                    "channel": 1,
                    "noteNumber": 79,
                    "velocity": 111,
                    "lightChannels": [
                        4
                    ]
                }
            }
        }
    },
    {
        "changes": {
            "col-2": 0,
            "garden": 1,
            "tree": 1
        },
        "timeout": 0.1578945,
        "raw": {
            "col-2": {
                "pinValue": 0,
                "ticks": 240,
                "event": {
                    "deltaTime": 240,
                    "type": "channel",
                    "subtype": "noteOff",
                    "channel": 1,
                    "noteNumber": 79,
                    "velocity": 0,
                    "lightChannels": [
                        4
                    ]
                }
            },
            "garden": {
                "pinValue": 1,
                "ticks": 0,
                "event": {
                    "deltaTime": 0,
                    "type": "channel",
                    "subtype": "noteOn",
                    "channel": 1,
                    "noteNumber": 76,
                    "velocity": 111,
                    "lightChannels": [
                        8,
                        9
                    ]
                }
            },
            "tree": {
                "pinValue": 1,
                "ticks": 0,
                "event": {
                    "deltaTime": 0,
                    "type": "channel",
                    "subtype": "noteOn",
                    "channel": 1,
                    "noteNumber": 76,
                    "velocity": 111,
                    "lightChannels": [
                        8,
                        9
                    ]
                }
            }
        }
    },
    {
        "changes": {
            "garden": 0,
            "tree": 0,
            "col-1": 1
        },
        "timeout": 0.315789,
        "raw": {
            "garden": {
                "pinValue": 0,
                "ticks": 480,
                "event": {
                    "deltaTime": 480,
                    "type": "channel",
                    "subtype": "noteOff",
                    "channel": 1,
                    "noteNumber": 76,
                    "velocity": 0,
                    "lightChannels": [
                        8,
                        9
                    ]
                }
            },
            "tree": {
                "pinValue": 0,
                "ticks": 480,
                "event": {
                    "deltaTime": 480,
                    "type": "channel",
                    "subtype": "noteOff",
                    "channel": 1,
                    "noteNumber": 76,
                    "velocity": 0,
                    "lightChannels": [
                        8,
                        9
                    ]
                }
            },
            "col-1": {
                "pinValue": 1,
                "ticks": 0,
                "event": {
                    "deltaTime": 0,
                    "type": "channel",
                    "subtype": "noteOn",
                    "channel": 2,
                    "noteNumber": 79,
                    "velocity": 47,
                    "lightChannels": [
                        3
                    ]
                }
            }
        }
    },
    {
        "changes": {
            "col-1": 0,
            "col-2": 1
        },
        "timeout": 0.315789,
        "raw": {
            "col-1": {
                "pinValue": 0,
                "ticks": 0,
                "event": {
                    "deltaTime": 0,
                    "type": "channel",
                    "subtype": "noteOff",
                    "channel": 2,
                    "noteNumber": 79,
                    "velocity": 0,
                    "lightChannels": [
                        3
                    ]
                }
            },
            "col-2": {
                "pinValue": 1,
                "ticks": 0,
                "event": {
                    "deltaTime": 0,
                    "type": "channel",
                    "subtype": "noteOn",
                    "channel": 2,
                    "noteNumber": 78,
                    "velocity": 47,
                    "lightChannels": [
                        4
                    ]
                }
            }
        }
    },
    {
        "changes": {
            "col-2": 0,
            "col-3": 1
        },
        "timeout": 0.1578945,
        "raw": {
            "col-2": {
                "pinValue": 0,
                "ticks": 240,
                "event": {
                    "deltaTime": 240,
                    "type": "channel",
                    "subtype": "noteOff",
                    "channel": 2,
                    "noteNumber": 78,
                    "velocity": 0,
                    "lightChannels": [
                        4
                    ]
                }
            },
            "col-3": {
                "pinValue": 1,
                "ticks": 0,
                "event": {
                    "deltaTime": 0,
                    "type": "channel",
                    "subtype": "noteOn",
                    "channel": 2,
                    "noteNumber": 79,
                    "velocity": 47,
                    "lightChannels": [
                        5
                    ]
                }
            }
        }
    },
    {
        "changes": {
            "col-3": 0,
            "garden": 1,
            "tree": 1
        },
        "timeout": 0.1578945,
        "raw": {
            "col-3": {
                "pinValue": 0,
                "ticks": 240,
                "event": {
                    "deltaTime": 240,
                    "type": "channel",
                    "subtype": "noteOff",
                    "channel": 2,
                    "noteNumber": 79,
                    "velocity": 0,
                    "lightChannels": [
                        5
                    ]
                }
            },
            "garden": {
                "pinValue": 1,
                "ticks": 0,
                "event": {
                    "deltaTime": 0,
                    "type": "channel",
                    "subtype": "noteOn",
                    "channel": 2,
                    "noteNumber": 76,
                    "velocity": 47,
                    "lightChannels": [
                        8,
                        9
                    ]
                }
            },
            "tree": {
                "pinValue": 1,
                "ticks": 0,
                "event": {
                    "deltaTime": 0,
                    "type": "channel",
                    "subtype": "noteOn",
                    "channel": 2,
                    "noteNumber": 76,
                    "velocity": 47,
                    "lightChannels": [
                        8,
                        9
                    ]
                }
            }
        }
    },
    {
        "changes": {
            "garage": 1,
            "garden": 0,
            "tree": 0,
            "col-2": 1
        },
        "timeout": 0.315789,
        "raw": {
            "garage": {
                "pinValue": 1,
                "ticks": 0,
                "event": {
                    "deltaTime": 0,
                    "type": "channel",
                    "subtype": "noteOn",
                    "channel": 1,
                    "noteNumber": 83,
                    "velocity": 111,
                    "lightChannels": [
                        0
                    ]
                }
            },
            "garden": {
                "pinValue": 0,
                "ticks": 0,
                "event": {
                    "deltaTime": 0,
                    "type": "channel",
                    "subtype": "noteOff",
                    "channel": 2,
                    "noteNumber": 76,
                    "velocity": 0,
                    "lightChannels": [
                        8,
                        9
                    ]
                }
            },
            "tree": {
                "pinValue": 0,
                "ticks": 0,
                "event": {
                    "deltaTime": 0,
                    "type": "channel",
                    "subtype": "noteOff",
                    "channel": 2,
                    "noteNumber": 76,
                    "velocity": 0,
                    "lightChannels": [
                        8,
                        9
                    ]
                }
            },
            "col-2": {
                "pinValue": 1,
                "ticks": 0,
                "event": {
                    "deltaTime": 0,
                    "type": "channel",
                    "subtype": "noteOn",
                    "channel": 5,
                    "noteNumber": 64,
                    "velocity": 95,
                    "lightChannels": [
                        4
                    ]
                }
            }
        }
    },
    {
        "changes": {
            "col-2": 0
        },
        "timeout": 0.1578945,
        "raw": {
            "col-2": {
                "pinValue": 0,
                "ticks": 240,
                "event": {
                    "deltaTime": 240,
                    "type": "channel",
                    "subtype": "noteOff",
                    "channel": 5,
                    "noteNumber": 64,
                    "velocity": 0,
                    "lightChannels": [
                        4
                    ]
                }
            }
        }
    },
    {
        "changes": {
            "garage": 1,
            "col-1": 1
        },
        "timeout": 0.1578945,
        "raw": {
            "garage": {
                "pinValue": 1,
                "ticks": 0,
                "event": {
                    "deltaTime": 0,
                    "type": "channel",
                    "subtype": "noteOn",
                    "channel": 1,
                    "noteNumber": 83,
                    "velocity": 111,
                    "lightChannels": [
                        0
                    ]
                }
            },
            "col-1": {
                "pinValue": 1,
                "ticks": 0,
                "event": {
                    "deltaTime": 0,
                    "type": "channel",
                    "subtype": "noteOn",
                    "channel": 5,
                    "noteNumber": 64,
                    "velocity": 95,
                    "lightChannels": [
                        3
                    ]
                }
            }
        }
    },
    {
        "changes": {
            "col-1": 0,
            "garden": 1
        },
        "timeout": 0.1578945,
        "raw": {
            "col-1": {
                "pinValue": 0,
                "ticks": 0,
                "event": {
                    "deltaTime": 0,
                    "type": "channel",
                    "subtype": "noteOff",
                    "channel": 5,
                    "noteNumber": 64,
                    "velocity": 0,
                    "lightChannels": [
                        3
                    ]
                }
            },
            "garden": {
                "pinValue": 1,
                "ticks": 0,
                "event": {
                    "deltaTime": 0,
                    "type": "channel",
                    "subtype": "noteOn",
                    "channel": 5,
                    "noteNumber": 64,
                    "velocity": 95,
                    "lightChannels": [
                        8
                    ]
                }
            }
        }
    },
    {
        "changes": {
            "garden": 0,
            "col-3": 1
        },
        "timeout": 0.1578945,
        "raw": {
            "garden": {
                "pinValue": 0,
                "ticks": 0,
                "event": {
                    "deltaTime": 0,
                    "type": "channel",
                    "subtype": "noteOff",
                    "channel": 5,
                    "noteNumber": 64,
                    "velocity": 0,
                    "lightChannels": [
                        8
                    ]
                }
            },
            "col-3": {
                "pinValue": 1,
                "ticks": 0,
                "event": {
                    "deltaTime": 0,
                    "type": "channel",
                    "subtype": "noteOn",
                    "channel": 5,
                    "noteNumber": 59,
                    "velocity": 95,
                    "lightChannels": [
                        5
                    ]
                }
            }
        }
    },
    {
        "changes": {
            "col-3": 0,
            "tree": 1
        },
        "timeout": 0.1578945,
        "raw": {
            "col-3": {
                "pinValue": 0,
                "ticks": 240,
                "event": {
                    "deltaTime": 240,
                    "type": "channel",
                    "subtype": "noteOff",
                    "channel": 5,
                    "noteNumber": 59,
                    "velocity": 0,
                    "lightChannels": [
                        5
                    ]
                }
            },
            "tree": {
                "pinValue": 1,
                "ticks": 0,
                "event": {
                    "deltaTime": 0,
                    "type": "channel",
                    "subtype": "noteOn",
                    "channel": 5,
                    "noteNumber": 59,
                    "velocity": 95,
                    "lightChannels": [
                        9
                    ]
                }
            }
        }
    },
    {
        "changes": {
            "garage": 0,
            "bottom-right": 1,
            "tree": 0,
            "col-1": 1
        },
        "timeout": 0.1578945,
        "raw": {
            "garage": {
                "pinValue": 0,
                "ticks": 240,
                "event": {
                    "deltaTime": 240,
                    "type": "channel",
                    "subtype": "noteOff",
                    "channel": 1,
                    "noteNumber": 83,
                    "velocity": 0,
                    "lightChannels": [
                        0
                    ]
                }
            },
            "bottom-right": {
                "pinValue": 1,
                "ticks": 0,
                "event": {
                    "deltaTime": 0,
                    "type": "channel",
                    "subtype": "noteOn",
                    "channel": 1,
                    "noteNumber": 81,
                    "velocity": 111,
                    "lightChannels": [
                        2
                    ]
                }
            },
            "tree": {
                "pinValue": 0,
                "ticks": 0,
                "event": {
                    "deltaTime": 0,
                    "type": "channel",
                    "subtype": "noteOff",
                    "channel": 5,
                    "noteNumber": 59,
                    "velocity": 0,
                    "lightChannels": [
                        9
                    ]
                }
            },
            "col-1": {
                "pinValue": 1,
                "ticks": 0,
                "event": {
                    "deltaTime": 0,
                    "type": "channel",
                    "subtype": "noteOn",
                    "channel": 5,
                    "noteNumber": 64,
                    "velocity": 95,
                    "lightChannels": [
                        3
                    ]
                }
            }
        }
    },
    {
        "changes": {
            "col-1": 0
        },
        "timeout": 0.1578945,
        "raw": {
            "col-1": {
                "pinValue": 0,
                "ticks": 240,
                "event": {
                    "deltaTime": 240,
                    "type": "channel",
                    "subtype": "noteOff",
                    "channel": 5,
                    "noteNumber": 64,
                    "velocity": 0,
                    "lightChannels": [
                        3
                    ]
                }
            }
        }
    },
    {
        "changes": {
            "bottom-right": 0,
            "garage": 1,
            "tree": 1
        },
        "timeout": 0.1578945,
        "raw": {
            "bottom-right": {
                "pinValue": 0,
                "ticks": 240,
                "event": {
                    "deltaTime": 240,
                    "type": "channel",
                    "subtype": "noteOff",
                    "channel": 1,
                    "noteNumber": 81,
                    "velocity": 0,
                    "lightChannels": [
                        2
                    ]
                }
            },
            "garage": {
                "pinValue": 1,
                "ticks": 0,
                "event": {
                    "deltaTime": 0,
                    "type": "channel",
                    "subtype": "noteOn",
                    "channel": 1,
                    "noteNumber": 79,
                    "velocity": 111,
                    "lightChannels": [
                        0
                    ]
                }
            },
            "tree": {
                "pinValue": 1,
                "ticks": 0,
                "event": {
                    "deltaTime": 0,
                    "type": "channel",
                    "subtype": "noteOn",
                    "channel": 5,
                    "noteNumber": 59,
                    "velocity": 95,
                    "lightChannels": [
                        9
                    ]
                }
            }
        }
    },
    {
        "changes": {
            "tree": 0,
            "col-3": 1
        },
        "timeout": 0.1578945,
        "raw": {
            "tree": {
                "pinValue": 0,
                "ticks": 0,
                "event": {
                    "deltaTime": 0,
                    "type": "channel",
                    "subtype": "noteOff",
                    "channel": 5,
                    "noteNumber": 59,
                    "velocity": 0,
                    "lightChannels": [
                        9
                    ]
                }
            },
            "col-3": {
                "pinValue": 1,
                "ticks": 0,
                "event": {
                    "deltaTime": 0,
                    "type": "channel",
                    "subtype": "noteOn",
                    "channel": 5,
                    "noteNumber": 64,
                    "velocity": 95,
                    "lightChannels": [
                        5
                    ]
                }
            }
        }
    },
    {
        "changes": {
            "col-3": 0,
            "garden": 1
        },
        "timeout": 0.1578945,
        "raw": {
            "col-3": {
                "pinValue": 0,
                "ticks": 0,
                "event": {
                    "deltaTime": 0,
                    "type": "channel",
                    "subtype": "noteOff",
                    "channel": 5,
                    "noteNumber": 64,
                    "velocity": 0,
                    "lightChannels": [
                        5
                    ]
                }
            },
            "garden": {
                "pinValue": 1,
                "ticks": 0,
                "event": {
                    "deltaTime": 0,
                    "type": "channel",
                    "subtype": "noteOn",
                    "channel": 5,
                    "noteNumber": 59,
                    "velocity": 95,
                    "lightChannels": [
                        8
                    ]
                }
            }
        }
    },
    {
        "changes": {
            "garden": 0,
            "tree": 1
        },
        "timeout": 0.1578945,
        "raw": {
            "garden": {
                "pinValue": 0,
                "ticks": 240,
                "event": {
                    "deltaTime": 240,
                    "type": "channel",
                    "subtype": "noteOff",
                    "channel": 5,
                    "noteNumber": 59,
                    "velocity": 0,
                    "lightChannels": [
                        8
                    ]
                }
            },
            "tree": {
                "pinValue": 1,
                "ticks": 0,
                "event": {
                    "deltaTime": 0,
                    "type": "channel",
                    "subtype": "noteOn",
                    "channel": 5,
                    "noteNumber": 59,
                    "velocity": 95,
                    "lightChannels": [
                        9
                    ]
                }
            }
        }
    },
    {
        "changes": {
            "garage": 0,
            "top-right": 1,
            "tree": 0,
            "col-2": 1
        },
        "timeout": 0.1578945,
        "raw": {
            "garage": {
                "pinValue": 0,
                "ticks": 240,
                "event": {
                    "deltaTime": 240,
                    "type": "channel",
                    "subtype": "noteOff",
                    "channel": 1,
                    "noteNumber": 79,
                    "velocity": 0,
                    "lightChannels": [
                        0
                    ]
                }
            },
            "top-right": {
                "pinValue": 1,
                "ticks": 0,
                "event": {
                    "deltaTime": 0,
                    "type": "channel",
                    "subtype": "noteOn",
                    "channel": 1,
                    "noteNumber": 78,
                    "velocity": 111,
                    "lightChannels": [
                        1
                    ]
                }
            },
            "tree": {
                "pinValue": 0,
                "ticks": 0,
                "event": {
                    "deltaTime": 0,
                    "type": "channel",
                    "subtype": "noteOff",
                    "channel": 5,
                    "noteNumber": 59,
                    "velocity": 0,
                    "lightChannels": [
                        9
                    ]
                }
            },
            "col-2": {
                "pinValue": 1,
                "ticks": 0,
                "event": {
                    "deltaTime": 0,
                    "type": "channel",
                    "subtype": "noteOn",
                    "channel": 5,
                    "noteNumber": 64,
                    "velocity": 95,
                    "lightChannels": [
                        4
                    ]
                }
            }
        }
    },
    {
        "changes": {
            "col-2": 0
        },
        "timeout": 0.1578945,
        "raw": {
            "col-2": {
                "pinValue": 0,
                "ticks": 240,
                "event": {
                    "deltaTime": 240,
                    "type": "channel",
                    "subtype": "noteOff",
                    "channel": 5,
                    "noteNumber": 64,
                    "velocity": 0,
                    "lightChannels": [
                        4
                    ]
                }
            }
        }
    },
    {
        "changes": {
            "top-right": 0,
            "garage": 1,
            "col-1": 1
        },
        "timeout": 0.1578945,
        "raw": {
            "top-right": {
                "pinValue": 0,
                "ticks": 240,
                "event": {
                    "deltaTime": 240,
                    "type": "channel",
                    "subtype": "noteOff",
                    "channel": 1,
                    "noteNumber": 78,
                    "velocity": 0,
                    "lightChannels": [
                        1
                    ]
                }
            },
            "garage": {
                "pinValue": 1,
                "ticks": 0,
                "event": {
                    "deltaTime": 0,
                    "type": "channel",
                    "subtype": "noteOn",
                    "channel": 1,
                    "noteNumber": 76,
                    "velocity": 111,
                    "lightChannels": [
                        0
                    ]
                }
            },
            "col-1": {
                "pinValue": 1,
                "ticks": 0,
                "event": {
                    "deltaTime": 0,
                    "type": "channel",
                    "subtype": "noteOn",
                    "channel": 5,
                    "noteNumber": 64,
                    "velocity": 95,
                    "lightChannels": [
                        3
                    ]
                }
            }
        }
    },
    {
        "changes": {
            "col-1": 0,
            "garden": 1
        },
        "timeout": 0.1578945,
        "raw": {
            "col-1": {
                "pinValue": 0,
                "ticks": 0,
                "event": {
                    "deltaTime": 0,
                    "type": "channel",
                    "subtype": "noteOff",
                    "channel": 5,
                    "noteNumber": 64,
                    "velocity": 0,
                    "lightChannels": [
                        3
                    ]
                }
            },
            "garden": {
                "pinValue": 1,
                "ticks": 0,
                "event": {
                    "deltaTime": 0,
                    "type": "channel",
                    "subtype": "noteOn",
                    "channel": 5,
                    "noteNumber": 64,
                    "velocity": 95,
                    "lightChannels": [
                        8
                    ]
                }
            }
        }
    },
    {
        "changes": {
            "garden": 0,
            "col-3": 1
        },
        "timeout": 0.1578945,
        "raw": {
            "garden": {
                "pinValue": 0,
                "ticks": 0,
                "event": {
                    "deltaTime": 0,
                    "type": "channel",
                    "subtype": "noteOff",
                    "channel": 5,
                    "noteNumber": 64,
                    "velocity": 0,
                    "lightChannels": [
                        8
                    ]
                }
            },
            "col-3": {
                "pinValue": 1,
                "ticks": 0,
                "event": {
                    "deltaTime": 0,
                    "type": "channel",
                    "subtype": "noteOn",
                    "channel": 5,
                    "noteNumber": 59,
                    "velocity": 95,
                    "lightChannels": [
                        5
                    ]
                }
            }
        }
    },
    {
        "changes": {
            "col-3": 0,
            "tree": 1
        },
        "timeout": 0.1578945,
        "raw": {
            "col-3": {
                "pinValue": 0,
                "ticks": 240,
                "event": {
                    "deltaTime": 240,
                    "type": "channel",
                    "subtype": "noteOff",
                    "channel": 5,
                    "noteNumber": 59,
                    "velocity": 0,
                    "lightChannels": [
                        5
                    ]
                }
            },
            "tree": {
                "pinValue": 1,
                "ticks": 0,
                "event": {
                    "deltaTime": 0,
                    "type": "channel",
                    "subtype": "noteOn",
                    "channel": 5,
                    "noteNumber": 59,
                    "velocity": 95,
                    "lightChannels": [
                        9
                    ]
                }
            }
        }
    },
    {
        "changes": {
            "garage": 0,
            "top-right": 1,
            "tree": 0,
            "col-2": 1
        },
        "timeout": 0.1578945,
        "raw": {
            "garage": {
                "pinValue": 0,
                "ticks": 240,
                "event": {
                    "deltaTime": 240,
                    "type": "channel",
                    "subtype": "noteOff",
                    "channel": 1,
                    "noteNumber": 76,
                    "velocity": 0,
                    "lightChannels": [
                        0
                    ]
                }
            },
            "top-right": {
                "pinValue": 1,
                "ticks": 0,
                "event": {
                    "deltaTime": 0,
                    "type": "channel",
                    "subtype": "noteOn",
                    "channel": 1,
                    "noteNumber": 74,
                    "velocity": 111,
                    "lightChannels": [
                        1
                    ]
                }
            },
            "tree": {
                "pinValue": 0,
                "ticks": 0,
                "event": {
                    "deltaTime": 0,
                    "type": "channel",
                    "subtype": "noteOff",
                    "channel": 5,
                    "noteNumber": 59,
                    "velocity": 0,
                    "lightChannels": [
                        9
                    ]
                }
            },
            "col-2": {
                "pinValue": 1,
                "ticks": 0,
                "event": {
                    "deltaTime": 0,
                    "type": "channel",
                    "subtype": "noteOn",
                    "channel": 5,
                    "noteNumber": 64,
                    "velocity": 95,
                    "lightChannels": [
                        4
                    ]
                }
            }
        }
    },
    {
        "changes": {
            "col-2": 0
        },
        "timeout": 0.1578945,
        "raw": {
            "col-2": {
                "pinValue": 0,
                "ticks": 240,
                "event": {
                    "deltaTime": 240,
                    "type": "channel",
                    "subtype": "noteOff",
                    "channel": 5,
                    "noteNumber": 64,
                    "velocity": 0,
                    "lightChannels": [
                        4
                    ]
                }
            }
        }
    },
    {
        "changes": {
            "top-right": 0,
            "bottom-right": 1,
            "col-1": 1
        },
        "timeout": 0.1578945,
        "raw": {
            "top-right": {
                "pinValue": 0,
                "ticks": 240,
                "event": {
                    "deltaTime": 240,
                    "type": "channel",
                    "subtype": "noteOff",
                    "channel": 1,
                    "noteNumber": 74,
                    "velocity": 0,
                    "lightChannels": [
                        1
                    ]
                }
            },
            "bottom-right": {
                "pinValue": 1,
                "ticks": 0,
                "event": {
                    "deltaTime": 0,
                    "type": "channel",
                    "subtype": "noteOn",
                    "channel": 1,
                    "noteNumber": 76,
                    "velocity": 111,
                    "lightChannels": [
                        2
                    ]
                }
            },
            "col-1": {
                "pinValue": 1,
                "ticks": 0,
                "event": {
                    "deltaTime": 0,
                    "type": "channel",
                    "subtype": "noteOn",
                    "channel": 5,
                    "noteNumber": 64,
                    "velocity": 95,
                    "lightChannels": [
                        3
                    ]
                }
            }
        }
    },
    {
        "changes": {
            "col-1": 0,
            "garden": 1
        },
        "timeout": 0.1578945,
        "raw": {
            "col-1": {
                "pinValue": 0,
                "ticks": 0,
                "event": {
                    "deltaTime": 0,
                    "type": "channel",
                    "subtype": "noteOff",
                    "channel": 5,
                    "noteNumber": 64,
                    "velocity": 0,
                    "lightChannels": [
                        3
                    ]
                }
            },
            "garden": {
                "pinValue": 1,
                "ticks": 0,
                "event": {
                    "deltaTime": 0,
                    "type": "channel",
                    "subtype": "noteOn",
                    "channel": 5,
                    "noteNumber": 64,
                    "velocity": 95,
                    "lightChannels": [
                        8
                    ]
                }
            }
        }
    },
    {
        "changes": {
            "garden": 0,
            "col-3": 1
        },
        "timeout": 0.1578945,
        "raw": {
            "garden": {
                "pinValue": 0,
                "ticks": 0,
                "event": {
                    "deltaTime": 0,
                    "type": "channel",
                    "subtype": "noteOff",
                    "channel": 5,
                    "noteNumber": 64,
                    "velocity": 0,
                    "lightChannels": [
                        8
                    ]
                }
            },
            "col-3": {
                "pinValue": 1,
                "ticks": 0,
                "event": {
                    "deltaTime": 0,
                    "type": "channel",
                    "subtype": "noteOn",
                    "channel": 5,
                    "noteNumber": 59,
                    "velocity": 95,
                    "lightChannels": [
                        5
                    ]
                }
            }
        }
    },
    {
        "changes": {
            "col-3": 0,
            "tree": 1
        },
        "timeout": 0.1578945,
        "raw": {
            "col-3": {
                "pinValue": 0,
                "ticks": 240,
                "event": {
                    "deltaTime": 240,
                    "type": "channel",
                    "subtype": "noteOff",
                    "channel": 5,
                    "noteNumber": 59,
                    "velocity": 0,
                    "lightChannels": [
                        5
                    ]
                }
            },
            "tree": {
                "pinValue": 1,
                "ticks": 0,
                "event": {
                    "deltaTime": 0,
                    "type": "channel",
                    "subtype": "noteOn",
                    "channel": 5,
                    "noteNumber": 59,
                    "velocity": 95,
                    "lightChannels": [
                        9
                    ]
                }
            }
        }
    },
    {
        "changes": {
            "bottom-right": 0,
            "garage": 1,
            "tree": 0,
            "col-2": 1
        },
        "timeout": 0.1578945,
        "raw": {
            "bottom-right": {
                "pinValue": 0,
                "ticks": 240,
                "event": {
                    "deltaTime": 240,
                    "type": "channel",
                    "subtype": "noteOff",
                    "channel": 1,
                    "noteNumber": 76,
                    "velocity": 0,
                    "lightChannels": [
                        2
                    ]
                }
            },
            "garage": {
                "pinValue": 1,
                "ticks": 0,
                "event": {
                    "deltaTime": 0,
                    "type": "channel",
                    "subtype": "noteOn",
                    "channel": 1,
                    "noteNumber": 83,
                    "velocity": 111,
                    "lightChannels": [
                        0
                    ]
                }
            },
            "tree": {
                "pinValue": 0,
                "ticks": 0,
                "event": {
                    "deltaTime": 0,
                    "type": "channel",
                    "subtype": "noteOff",
                    "channel": 5,
                    "noteNumber": 59,
                    "velocity": 0,
                    "lightChannels": [
                        9
                    ]
                }
            },
            "col-2": {
                "pinValue": 1,
                "ticks": 0,
                "event": {
                    "deltaTime": 0,
                    "type": "channel",
                    "subtype": "noteOn",
                    "channel": 5,
                    "noteNumber": 64,
                    "velocity": 95,
                    "lightChannels": [
                        4
                    ]
                }
            }
        }
    },
    {
        "changes": {
            "col-2": 0
        },
        "timeout": 0.1578945,
        "raw": {
            "col-2": {
                "pinValue": 0,
                "ticks": 240,
                "event": {
                    "deltaTime": 240,
                    "type": "channel",
                    "subtype": "noteOff",
                    "channel": 5,
                    "noteNumber": 64,
                    "velocity": 0,
                    "lightChannels": [
                        4
                    ]
                }
            }
        }
    },
    {
        "changes": {
            "garage": 1,
            "col-1": 1
        },
        "timeout": 0.1578945,
        "raw": {
            "garage": {
                "pinValue": 1,
                "ticks": 0,
                "event": {
                    "deltaTime": 0,
                    "type": "channel",
                    "subtype": "noteOn",
                    "channel": 1,
                    "noteNumber": 83,
                    "velocity": 111,
                    "lightChannels": [
                        0
                    ]
                }
            },
            "col-1": {
                "pinValue": 1,
                "ticks": 0,
                "event": {
                    "deltaTime": 0,
                    "type": "channel",
                    "subtype": "noteOn",
                    "channel": 5,
                    "noteNumber": 64,
                    "velocity": 95,
                    "lightChannels": [
                        3
                    ]
                }
            }
        }
    },
    {
        "changes": {
            "col-1": 0,
            "garden": 1
        },
        "timeout": 0.1578945,
        "raw": {
            "col-1": {
                "pinValue": 0,
                "ticks": 0,
                "event": {
                    "deltaTime": 0,
                    "type": "channel",
                    "subtype": "noteOff",
                    "channel": 5,
                    "noteNumber": 64,
                    "velocity": 0,
                    "lightChannels": [
                        3
                    ]
                }
            },
            "garden": {
                "pinValue": 1,
                "ticks": 0,
                "event": {
                    "deltaTime": 0,
                    "type": "channel",
                    "subtype": "noteOn",
                    "channel": 5,
                    "noteNumber": 64,
                    "velocity": 95,
                    "lightChannels": [
                        8
                    ]
                }
            }
        }
    },
    {
        "changes": {
            "garden": 0,
            "col-3": 1
        },
        "timeout": 0.1578945,
        "raw": {
            "garden": {
                "pinValue": 0,
                "ticks": 0,
                "event": {
                    "deltaTime": 0,
                    "type": "channel",
                    "subtype": "noteOff",
                    "channel": 5,
                    "noteNumber": 64,
                    "velocity": 0,
                    "lightChannels": [
                        8
                    ]
                }
            },
            "col-3": {
                "pinValue": 1,
                "ticks": 0,
                "event": {
                    "deltaTime": 0,
                    "type": "channel",
                    "subtype": "noteOn",
                    "channel": 5,
                    "noteNumber": 59,
                    "velocity": 95,
                    "lightChannels": [
                        5
                    ]
                }
            }
        }
    },
    {
        "changes": {
            "col-3": 0,
            "tree": 1
        },
        "timeout": 0.1578945,
        "raw": {
            "col-3": {
                "pinValue": 0,
                "ticks": 240,
                "event": {
                    "deltaTime": 240,
                    "type": "channel",
                    "subtype": "noteOff",
                    "channel": 5,
                    "noteNumber": 59,
                    "velocity": 0,
                    "lightChannels": [
                        5
                    ]
                }
            },
            "tree": {
                "pinValue": 1,
                "ticks": 0,
                "event": {
                    "deltaTime": 0,
                    "type": "channel",
                    "subtype": "noteOn",
                    "channel": 5,
                    "noteNumber": 59,
                    "velocity": 95,
                    "lightChannels": [
                        9
                    ]
                }
            }
        }
    },
    {
        "changes": {
            "garage": 0,
            "bottom-right": 1,
            "tree": 0,
            "col-1": 1
        },
        "timeout": 0.1578945,
        "raw": {
            "garage": {
                "pinValue": 0,
                "ticks": 240,
                "event": {
                    "deltaTime": 240,
                    "type": "channel",
                    "subtype": "noteOff",
                    "channel": 1,
                    "noteNumber": 83,
                    "velocity": 0,
                    "lightChannels": [
                        0
                    ]
                }
            },
            "bottom-right": {
                "pinValue": 1,
                "ticks": 0,
                "event": {
                    "deltaTime": 0,
                    "type": "channel",
                    "subtype": "noteOn",
                    "channel": 1,
                    "noteNumber": 81,
                    "velocity": 111,
                    "lightChannels": [
                        2
                    ]
                }
            },
            "tree": {
                "pinValue": 0,
                "ticks": 0,
                "event": {
                    "deltaTime": 0,
                    "type": "channel",
                    "subtype": "noteOff",
                    "channel": 5,
                    "noteNumber": 59,
                    "velocity": 0,
                    "lightChannels": [
                        9
                    ]
                }
            },
            "col-1": {
                "pinValue": 1,
                "ticks": 0,
                "event": {
                    "deltaTime": 0,
                    "type": "channel",
                    "subtype": "noteOn",
                    "channel": 5,
                    "noteNumber": 64,
                    "velocity": 95,
                    "lightChannels": [
                        3
                    ]
                }
            }
        }
    },
    {
        "changes": {
            "col-1": 0
        },
        "timeout": 0.1578945,
        "raw": {
            "col-1": {
                "pinValue": 0,
                "ticks": 240,
                "event": {
                    "deltaTime": 240,
                    "type": "channel",
                    "subtype": "noteOff",
                    "channel": 5,
                    "noteNumber": 64,
                    "velocity": 0,
                    "lightChannels": [
                        3
                    ]
                }
            }
        }
    },
    {
        "changes": {
            "bottom-right": 0,
            "garage": 1,
            "tree": 1
        },
        "timeout": 0.1578945,
        "raw": {
            "bottom-right": {
                "pinValue": 0,
                "ticks": 240,
                "event": {
                    "deltaTime": 240,
                    "type": "channel",
                    "subtype": "noteOff",
                    "channel": 1,
                    "noteNumber": 81,
                    "velocity": 0,
                    "lightChannels": [
                        2
                    ]
                }
            },
            "garage": {
                "pinValue": 1,
                "ticks": 0,
                "event": {
                    "deltaTime": 0,
                    "type": "channel",
                    "subtype": "noteOn",
                    "channel": 1,
                    "noteNumber": 79,
                    "velocity": 111,
                    "lightChannels": [
                        0
                    ]
                }
            },
            "tree": {
                "pinValue": 1,
                "ticks": 0,
                "event": {
                    "deltaTime": 0,
                    "type": "channel",
                    "subtype": "noteOn",
                    "channel": 5,
                    "noteNumber": 59,
                    "velocity": 95,
                    "lightChannels": [
                        9
                    ]
                }
            }
        }
    },
    {
        "changes": {
            "tree": 0,
            "col-3": 1
        },
        "timeout": 0.1578945,
        "raw": {
            "tree": {
                "pinValue": 0,
                "ticks": 0,
                "event": {
                    "deltaTime": 0,
                    "type": "channel",
                    "subtype": "noteOff",
                    "channel": 5,
                    "noteNumber": 59,
                    "velocity": 0,
                    "lightChannels": [
                        9
                    ]
                }
            },
            "col-3": {
                "pinValue": 1,
                "ticks": 0,
                "event": {
                    "deltaTime": 0,
                    "type": "channel",
                    "subtype": "noteOn",
                    "channel": 5,
                    "noteNumber": 64,
                    "velocity": 95,
                    "lightChannels": [
                        5
                    ]
                }
            }
        }
    },
    {
        "changes": {
            "col-3": 0,
            "garden": 1
        },
        "timeout": 0.1578945,
        "raw": {
            "col-3": {
                "pinValue": 0,
                "ticks": 0,
                "event": {
                    "deltaTime": 0,
                    "type": "channel",
                    "subtype": "noteOff",
                    "channel": 5,
                    "noteNumber": 64,
                    "velocity": 0,
                    "lightChannels": [
                        5
                    ]
                }
            },
            "garden": {
                "pinValue": 1,
                "ticks": 0,
                "event": {
                    "deltaTime": 0,
                    "type": "channel",
                    "subtype": "noteOn",
                    "channel": 5,
                    "noteNumber": 59,
                    "velocity": 95,
                    "lightChannels": [
                        8
                    ]
                }
            }
        }
    },
    {
        "changes": {
            "garden": 0,
            "tree": 1
        },
        "timeout": 0.1578945,
        "raw": {
            "garden": {
                "pinValue": 0,
                "ticks": 240,
                "event": {
                    "deltaTime": 240,
                    "type": "channel",
                    "subtype": "noteOff",
                    "channel": 5,
                    "noteNumber": 59,
                    "velocity": 0,
                    "lightChannels": [
                        8
                    ]
                }
            },
            "tree": {
                "pinValue": 1,
                "ticks": 0,
                "event": {
                    "deltaTime": 0,
                    "type": "channel",
                    "subtype": "noteOn",
                    "channel": 5,
                    "noteNumber": 59,
                    "velocity": 95,
                    "lightChannels": [
                        9
                    ]
                }
            }
        }
    },
    {
        "changes": {
            "garage": 0,
            "top-right": 1,
            "tree": 0,
            "col-2": 1
        },
        "timeout": 0.1578945,
        "raw": {
            "garage": {
                "pinValue": 0,
                "ticks": 240,
                "event": {
                    "deltaTime": 240,
                    "type": "channel",
                    "subtype": "noteOff",
                    "channel": 1,
                    "noteNumber": 79,
                    "velocity": 0,
                    "lightChannels": [
                        0
                    ]
                }
            },
            "top-right": {
                "pinValue": 1,
                "ticks": 0,
                "event": {
                    "deltaTime": 0,
                    "type": "channel",
                    "subtype": "noteOn",
                    "channel": 1,
                    "noteNumber": 78,
                    "velocity": 111,
                    "lightChannels": [
                        1
                    ]
                }
            },
            "tree": {
                "pinValue": 0,
                "ticks": 0,
                "event": {
                    "deltaTime": 0,
                    "type": "channel",
                    "subtype": "noteOff",
                    "channel": 5,
                    "noteNumber": 59,
                    "velocity": 0,
                    "lightChannels": [
                        9
                    ]
                }
            },
            "col-2": {
                "pinValue": 1,
                "ticks": 0,
                "event": {
                    "deltaTime": 0,
                    "type": "channel",
                    "subtype": "noteOn",
                    "channel": 5,
                    "noteNumber": 64,
                    "velocity": 95,
                    "lightChannels": [
                        4
                    ]
                }
            }
        }
    },
    {
        "changes": {
            "col-2": 0
        },
        "timeout": 0.1578945,
        "raw": {
            "col-2": {
                "pinValue": 0,
                "ticks": 240,
                "event": {
                    "deltaTime": 240,
                    "type": "channel",
                    "subtype": "noteOff",
                    "channel": 5,
                    "noteNumber": 64,
                    "velocity": 0,
                    "lightChannels": [
                        4
                    ]
                }
            }
        }
    },
    {
        "changes": {
            "top-right": 0,
            "garage": 1,
            "col-1": 1
        },
        "timeout": 0.1578945,
        "raw": {
            "top-right": {
                "pinValue": 0,
                "ticks": 240,
                "event": {
                    "deltaTime": 240,
                    "type": "channel",
                    "subtype": "noteOff",
                    "channel": 1,
                    "noteNumber": 78,
                    "velocity": 0,
                    "lightChannels": [
                        1
                    ]
                }
            },
            "garage": {
                "pinValue": 1,
                "ticks": 0,
                "event": {
                    "deltaTime": 0,
                    "type": "channel",
                    "subtype": "noteOn",
                    "channel": 1,
                    "noteNumber": 76,
                    "velocity": 111,
                    "lightChannels": [
                        0
                    ]
                }
            },
            "col-1": {
                "pinValue": 1,
                "ticks": 0,
                "event": {
                    "deltaTime": 0,
                    "type": "channel",
                    "subtype": "noteOn",
                    "channel": 5,
                    "noteNumber": 64,
                    "velocity": 95,
                    "lightChannels": [
                        3
                    ]
                }
            }
        }
    },
    {
        "changes": {
            "col-1": 0,
            "garden": 1
        },
        "timeout": 0.1578945,
        "raw": {
            "col-1": {
                "pinValue": 0,
                "ticks": 0,
                "event": {
                    "deltaTime": 0,
                    "type": "channel",
                    "subtype": "noteOff",
                    "channel": 5,
                    "noteNumber": 64,
                    "velocity": 0,
                    "lightChannels": [
                        3
                    ]
                }
            },
            "garden": {
                "pinValue": 1,
                "ticks": 0,
                "event": {
                    "deltaTime": 0,
                    "type": "channel",
                    "subtype": "noteOn",
                    "channel": 5,
                    "noteNumber": 64,
                    "velocity": 95,
                    "lightChannels": [
                        8
                    ]
                }
            }
        }
    },
    {
        "changes": {
            "garden": 0,
            "col-3": 1
        },
        "timeout": 0.1578945,
        "raw": {
            "garden": {
                "pinValue": 0,
                "ticks": 0,
                "event": {
                    "deltaTime": 0,
                    "type": "channel",
                    "subtype": "noteOff",
                    "channel": 5,
                    "noteNumber": 64,
                    "velocity": 0,
                    "lightChannels": [
                        8
                    ]
                }
            },
            "col-3": {
                "pinValue": 1,
                "ticks": 0,
                "event": {
                    "deltaTime": 0,
                    "type": "channel",
                    "subtype": "noteOn",
                    "channel": 5,
                    "noteNumber": 59,
                    "velocity": 95,
                    "lightChannels": [
                        5
                    ]
                }
            }
        }
    },
    {
        "changes": {
            "col-3": 0,
            "tree": 1
        },
        "timeout": 0.1578945,
        "raw": {
            "col-3": {
                "pinValue": 0,
                "ticks": 240,
                "event": {
                    "deltaTime": 240,
                    "type": "channel",
                    "subtype": "noteOff",
                    "channel": 5,
                    "noteNumber": 59,
                    "velocity": 0,
                    "lightChannels": [
                        5
                    ]
                }
            },
            "tree": {
                "pinValue": 1,
                "ticks": 0,
                "event": {
                    "deltaTime": 0,
                    "type": "channel",
                    "subtype": "noteOn",
                    "channel": 5,
                    "noteNumber": 59,
                    "velocity": 95,
                    "lightChannels": [
                        9
                    ]
                }
            }
        }
    },
    {
        "changes": {
            "garage": 1,
            "window": 1,
            "outline": 1,
            "tree": 0,
            "col-2": 1
        },
        "timeout": 0.1578945,
        "raw": {
            "garage": {
                "pinValue": 1,
                "ticks": 0,
                "event": {
                    "deltaTime": 0,
                    "type": "channel",
                    "subtype": "noteOn",
                    "channel": 1,
                    "noteNumber": 76,
                    "velocity": 111,
                    "lightChannels": [
                        0
                    ]
                }
            },
            "window": {
                "pinValue": 1,
                "ticks": 0,
                "event": {
                    "deltaTime": 0,
                    "type": "channel",
                    "subtype": "noteOn",
                    "channel": 3,
                    "noteNumber": 76,
                    "velocity": 111,
                    "lightChannels": [
                        6,
                        7
                    ]
                }
            },
            "outline": {
                "pinValue": 1,
                "ticks": 0,
                "event": {
                    "deltaTime": 0,
                    "type": "channel",
                    "subtype": "noteOn",
                    "channel": 3,
                    "noteNumber": 76,
                    "velocity": 111,
                    "lightChannels": [
                        6,
                        7
                    ]
                }
            },
            "tree": {
                "pinValue": 0,
                "ticks": 0,
                "event": {
                    "deltaTime": 0,
                    "type": "channel",
                    "subtype": "noteOff",
                    "channel": 5,
                    "noteNumber": 59,
                    "velocity": 0,
                    "lightChannels": [
                        9
                    ]
                }
            },
            "col-2": {
                "pinValue": 1,
                "ticks": 0,
                "event": {
                    "deltaTime": 0,
                    "type": "channel",
                    "subtype": "noteOn",
                    "channel": 5,
                    "noteNumber": 64,
                    "velocity": 95,
                    "lightChannels": [
                        4
                    ]
                }
            }
        }
    },
    {
        "changes": {
            "col-2": 0
        },
        "timeout": 0.1578945,
        "raw": {
            "col-2": {
                "pinValue": 0,
                "ticks": 240,
                "event": {
                    "deltaTime": 240,
                    "type": "channel",
                    "subtype": "noteOff",
                    "channel": 5,
                    "noteNumber": 64,
                    "velocity": 0,
                    "lightChannels": [
                        4
                    ]
                }
            }
        }
    },
    {
        "changes": {
            "garage": 1,
            "col-1": 1
        },
        "timeout": 0.1578945,
        "raw": {
            "garage": {
                "pinValue": 1,
                "ticks": 0,
                "event": {
                    "deltaTime": 0,
                    "type": "channel",
                    "subtype": "noteOn",
                    "channel": 1,
                    "noteNumber": 76,
                    "velocity": 111,
                    "lightChannels": [
                        0
                    ]
                }
            },
            "col-1": {
                "pinValue": 1,
                "ticks": 0,
                "event": {
                    "deltaTime": 0,
                    "type": "channel",
                    "subtype": "noteOn",
                    "channel": 5,
                    "noteNumber": 64,
                    "velocity": 95,
                    "lightChannels": [
                        3
                    ]
                }
            }
        }
    },
    {
        "changes": {
            "col-1": 0,
            "garden": 1
        },
        "timeout": 0.1578945,
        "raw": {
            "col-1": {
                "pinValue": 0,
                "ticks": 240,
                "event": {
                    "deltaTime": 240,
                    "type": "channel",
                    "subtype": "noteOff",
                    "channel": 5,
                    "noteNumber": 64,
                    "velocity": 0,
                    "lightChannels": [
                        3
                    ]
                }
            },
            "garden": {
                "pinValue": 1,
                "ticks": 0,
                "event": {
                    "deltaTime": 0,
                    "type": "channel",
                    "subtype": "noteOn",
                    "channel": 5,
                    "noteNumber": 64,
                    "velocity": 95,
                    "lightChannels": [
                        8
                    ]
                }
            }
        }
    },
    {
        "changes": {
            "window": 0,
            "outline": 0,
            "garden": 0,
            "col-3": 1
        },
        "timeout": 0.1578945,
        "raw": {
            "window": {
                "pinValue": 0,
                "ticks": 240,
                "event": {
                    "deltaTime": 240,
                    "type": "channel",
                    "subtype": "noteOff",
                    "channel": 3,
                    "noteNumber": 76,
                    "velocity": 0,
                    "lightChannels": [
                        6,
                        7
                    ]
                }
            },
            "outline": {
                "pinValue": 0,
                "ticks": 240,
                "event": {
                    "deltaTime": 240,
                    "type": "channel",
                    "subtype": "noteOff",
                    "channel": 3,
                    "noteNumber": 76,
                    "velocity": 0,
                    "lightChannels": [
                        6,
                        7
                    ]
                }
            },
            "garden": {
                "pinValue": 0,
                "ticks": 0,
                "event": {
                    "deltaTime": 0,
                    "type": "channel",
                    "subtype": "noteOff",
                    "channel": 5,
                    "noteNumber": 64,
                    "velocity": 0,
                    "lightChannels": [
                        8
                    ]
                }
            },
            "col-3": {
                "pinValue": 1,
                "ticks": 0,
                "event": {
                    "deltaTime": 0,
                    "type": "channel",
                    "subtype": "noteOn",
                    "channel": 5,
                    "noteNumber": 59,
                    "velocity": 95,
                    "lightChannels": [
                        5
                    ]
                }
            }
        }
    },
    {
        "changes": {
            "col-3": 0,
            "tree": 1
        },
        "timeout": 0.1578945,
        "raw": {
            "col-3": {
                "pinValue": 0,
                "ticks": 240,
                "event": {
                    "deltaTime": 240,
                    "type": "channel",
                    "subtype": "noteOff",
                    "channel": 5,
                    "noteNumber": 59,
                    "velocity": 0,
                    "lightChannels": [
                        5
                    ]
                }
            },
            "tree": {
                "pinValue": 1,
                "ticks": 0,
                "event": {
                    "deltaTime": 0,
                    "type": "channel",
                    "subtype": "noteOn",
                    "channel": 5,
                    "noteNumber": 59,
                    "velocity": 95,
                    "lightChannels": [
                        9
                    ]
                }
            }
        }
    },
    {
        "changes": {
            "garage": 1,
            "window": 1,
            "outline": 1,
            "tree": 0,
            "col-2": 1
        },
        "timeout": 0.1578945,
        "raw": {
            "garage": {
                "pinValue": 1,
                "ticks": 0,
                "event": {
                    "deltaTime": 0,
                    "type": "channel",
                    "subtype": "noteOn",
                    "channel": 1,
                    "noteNumber": 83,
                    "velocity": 111,
                    "lightChannels": [
                        0
                    ]
                }
            },
            "window": {
                "pinValue": 1,
                "ticks": 0,
                "event": {
                    "deltaTime": 0,
                    "type": "channel",
                    "subtype": "noteOn",
                    "channel": 3,
                    "noteNumber": 74,
                    "velocity": 111,
                    "lightChannels": [
                        6,
                        7
                    ]
                }
            },
            "outline": {
                "pinValue": 1,
                "ticks": 0,
                "event": {
                    "deltaTime": 0,
                    "type": "channel",
                    "subtype": "noteOn",
                    "channel": 3,
                    "noteNumber": 74,
                    "velocity": 111,
                    "lightChannels": [
                        6,
                        7
                    ]
                }
            },
            "tree": {
                "pinValue": 0,
                "ticks": 0,
                "event": {
                    "deltaTime": 0,
                    "type": "channel",
                    "subtype": "noteOff",
                    "channel": 5,
                    "noteNumber": 59,
                    "velocity": 0,
                    "lightChannels": [
                        9
                    ]
                }
            },
            "col-2": {
                "pinValue": 1,
                "ticks": 0,
                "event": {
                    "deltaTime": 0,
                    "type": "channel",
                    "subtype": "noteOn",
                    "channel": 5,
                    "noteNumber": 64,
                    "velocity": 95,
                    "lightChannels": [
                        4
                    ]
                }
            }
        }
    },
    {
        "changes": {
            "col-2": 0
        },
        "timeout": 0.1578945,
        "raw": {
            "col-2": {
                "pinValue": 0,
                "ticks": 240,
                "event": {
                    "deltaTime": 240,
                    "type": "channel",
                    "subtype": "noteOff",
                    "channel": 5,
                    "noteNumber": 64,
                    "velocity": 0,
                    "lightChannels": [
                        4
                    ]
                }
            }
        }
    },
    {
        "changes": {
            "garage": 1,
            "col-1": 1
        },
        "timeout": 0.1578945,
        "raw": {
            "garage": {
                "pinValue": 1,
                "ticks": 0,
                "event": {
                    "deltaTime": 0,
                    "type": "channel",
                    "subtype": "noteOn",
                    "channel": 1,
                    "noteNumber": 83,
                    "velocity": 111,
                    "lightChannels": [
                        0
                    ]
                }
            },
            "col-1": {
                "pinValue": 1,
                "ticks": 0,
                "event": {
                    "deltaTime": 0,
                    "type": "channel",
                    "subtype": "noteOn",
                    "channel": 5,
                    "noteNumber": 64,
                    "velocity": 95,
                    "lightChannels": [
                        3
                    ]
                }
            }
        }
    },
    {
        "changes": {
            "col-1": 0,
            "garden": 1
        },
        "timeout": 0.1578945,
        "raw": {
            "col-1": {
                "pinValue": 0,
                "ticks": 240,
                "event": {
                    "deltaTime": 240,
                    "type": "channel",
                    "subtype": "noteOff",
                    "channel": 5,
                    "noteNumber": 64,
                    "velocity": 0,
                    "lightChannels": [
                        3
                    ]
                }
            },
            "garden": {
                "pinValue": 1,
                "ticks": 0,
                "event": {
                    "deltaTime": 0,
                    "type": "channel",
                    "subtype": "noteOn",
                    "channel": 5,
                    "noteNumber": 64,
                    "velocity": 95,
                    "lightChannels": [
                        8
                    ]
                }
            }
        }
    },
    {
        "changes": {
            "window": 0,
            "outline": 0,
            "garden": 0,
            "col-3": 1
        },
        "timeout": 0.1578945,
        "raw": {
            "window": {
                "pinValue": 0,
                "ticks": 240,
                "event": {
                    "deltaTime": 240,
                    "type": "channel",
                    "subtype": "noteOff",
                    "channel": 3,
                    "noteNumber": 74,
                    "velocity": 0,
                    "lightChannels": [
                        6,
                        7
                    ]
                }
            },
            "outline": {
                "pinValue": 0,
                "ticks": 240,
                "event": {
                    "deltaTime": 240,
                    "type": "channel",
                    "subtype": "noteOff",
                    "channel": 3,
                    "noteNumber": 74,
                    "velocity": 0,
                    "lightChannels": [
                        6,
                        7
                    ]
                }
            },
            "garden": {
                "pinValue": 0,
                "ticks": 0,
                "event": {
                    "deltaTime": 0,
                    "type": "channel",
                    "subtype": "noteOff",
                    "channel": 5,
                    "noteNumber": 64,
                    "velocity": 0,
                    "lightChannels": [
                        8
                    ]
                }
            },
            "col-3": {
                "pinValue": 1,
                "ticks": 0,
                "event": {
                    "deltaTime": 0,
                    "type": "channel",
                    "subtype": "noteOn",
                    "channel": 5,
                    "noteNumber": 59,
                    "velocity": 95,
                    "lightChannels": [
                        5
                    ]
                }
            }
        }
    },
    {
        "changes": {
            "col-3": 0,
            "tree": 1
        },
        "timeout": 0.1578945,
        "raw": {
            "col-3": {
                "pinValue": 0,
                "ticks": 240,
                "event": {
                    "deltaTime": 240,
                    "type": "channel",
                    "subtype": "noteOff",
                    "channel": 5,
                    "noteNumber": 59,
                    "velocity": 0,
                    "lightChannels": [
                        5
                    ]
                }
            },
            "tree": {
                "pinValue": 1,
                "ticks": 0,
                "event": {
                    "deltaTime": 0,
                    "type": "channel",
                    "subtype": "noteOn",
                    "channel": 5,
                    "noteNumber": 59,
                    "velocity": 95,
                    "lightChannels": [
                        9
                    ]
                }
            }
        }
    },
    {
        "changes": {
            "garage": 0,
            "bottom-right": 1,
            "window": 1,
            "outline": 1,
            "tree": 0,
            "col-1": 1
        },
        "timeout": 0.1578945,
        "raw": {
            "garage": {
                "pinValue": 0,
                "ticks": 240,
                "event": {
                    "deltaTime": 240,
                    "type": "channel",
                    "subtype": "noteOff",
                    "channel": 1,
                    "noteNumber": 83,
                    "velocity": 0,
                    "lightChannels": [
                        0
                    ]
                }
            },
            "bottom-right": {
                "pinValue": 1,
                "ticks": 0,
                "event": {
                    "deltaTime": 0,
                    "type": "channel",
                    "subtype": "noteOn",
                    "channel": 1,
                    "noteNumber": 81,
                    "velocity": 111,
                    "lightChannels": [
                        2
                    ]
                }
            },
            "window": {
                "pinValue": 1,
                "ticks": 0,
                "event": {
                    "deltaTime": 0,
                    "type": "channel",
                    "subtype": "noteOn",
                    "channel": 3,
                    "noteNumber": 72,
                    "velocity": 111,
                    "lightChannels": [
                        6,
                        7
                    ]
                }
            },
            "outline": {
                "pinValue": 1,
                "ticks": 0,
                "event": {
                    "deltaTime": 0,
                    "type": "channel",
                    "subtype": "noteOn",
                    "channel": 3,
                    "noteNumber": 72,
                    "velocity": 111,
                    "lightChannels": [
                        6,
                        7
                    ]
                }
            },
            "tree": {
                "pinValue": 0,
                "ticks": 0,
                "event": {
                    "deltaTime": 0,
                    "type": "channel",
                    "subtype": "noteOff",
                    "channel": 5,
                    "noteNumber": 59,
                    "velocity": 0,
                    "lightChannels": [
                        9
                    ]
                }
            },
            "col-1": {
                "pinValue": 1,
                "ticks": 0,
                "event": {
                    "deltaTime": 0,
                    "type": "channel",
                    "subtype": "noteOn",
                    "channel": 5,
                    "noteNumber": 64,
                    "velocity": 95,
                    "lightChannels": [
                        3
                    ]
                }
            }
        }
    },
    {
        "changes": {
            "col-1": 0
        },
        "timeout": 0.1578945,
        "raw": {
            "col-1": {
                "pinValue": 0,
                "ticks": 240,
                "event": {
                    "deltaTime": 240,
                    "type": "channel",
                    "subtype": "noteOff",
                    "channel": 5,
                    "noteNumber": 64,
                    "velocity": 0,
                    "lightChannels": [
                        3
                    ]
                }
            }
        }
    },
    {
        "changes": {
            "bottom-right": 0,
            "garage": 1,
            "tree": 1
        },
        "timeout": 0.1578945,
        "raw": {
            "bottom-right": {
                "pinValue": 0,
                "ticks": 240,
                "event": {
                    "deltaTime": 240,
                    "type": "channel",
                    "subtype": "noteOff",
                    "channel": 1,
                    "noteNumber": 81,
                    "velocity": 0,
                    "lightChannels": [
                        2
                    ]
                }
            },
            "garage": {
                "pinValue": 1,
                "ticks": 0,
                "event": {
                    "deltaTime": 0,
                    "type": "channel",
                    "subtype": "noteOn",
                    "channel": 1,
                    "noteNumber": 79,
                    "velocity": 111,
                    "lightChannels": [
                        0
                    ]
                }
            },
            "tree": {
                "pinValue": 1,
                "ticks": 0,
                "event": {
                    "deltaTime": 0,
                    "type": "channel",
                    "subtype": "noteOn",
                    "channel": 5,
                    "noteNumber": 59,
                    "velocity": 95,
                    "lightChannels": [
                        9
                    ]
                }
            }
        }
    },
    {
        "changes": {
            "tree": 0,
            "col-3": 1
        },
        "timeout": 0.1578945,
        "raw": {
            "tree": {
                "pinValue": 0,
                "ticks": 240,
                "event": {
                    "deltaTime": 240,
                    "type": "channel",
                    "subtype": "noteOff",
                    "channel": 5,
                    "noteNumber": 59,
                    "velocity": 0,
                    "lightChannels": [
                        9
                    ]
                }
            },
            "col-3": {
                "pinValue": 1,
                "ticks": 0,
                "event": {
                    "deltaTime": 0,
                    "type": "channel",
                    "subtype": "noteOn",
                    "channel": 5,
                    "noteNumber": 64,
                    "velocity": 95,
                    "lightChannels": [
                        5
                    ]
                }
            }
        }
    },
    {
        "changes": {
            "window": 0,
            "outline": 0,
            "col-3": 0,
            "garden": 1
        },
        "timeout": 0.1578945,
        "raw": {
            "window": {
                "pinValue": 0,
                "ticks": 240,
                "event": {
                    "deltaTime": 240,
                    "type": "channel",
                    "subtype": "noteOff",
                    "channel": 3,
                    "noteNumber": 72,
                    "velocity": 0,
                    "lightChannels": [
                        6,
                        7
                    ]
                }
            },
            "outline": {
                "pinValue": 0,
                "ticks": 240,
                "event": {
                    "deltaTime": 240,
                    "type": "channel",
                    "subtype": "noteOff",
                    "channel": 3,
                    "noteNumber": 72,
                    "velocity": 0,
                    "lightChannels": [
                        6,
                        7
                    ]
                }
            },
            "col-3": {
                "pinValue": 0,
                "ticks": 0,
                "event": {
                    "deltaTime": 0,
                    "type": "channel",
                    "subtype": "noteOff",
                    "channel": 5,
                    "noteNumber": 64,
                    "velocity": 0,
                    "lightChannels": [
                        5
                    ]
                }
            },
            "garden": {
                "pinValue": 1,
                "ticks": 0,
                "event": {
                    "deltaTime": 0,
                    "type": "channel",
                    "subtype": "noteOn",
                    "channel": 5,
                    "noteNumber": 59,
                    "velocity": 95,
                    "lightChannels": [
                        8
                    ]
                }
            }
        }
    },
    {
        "changes": {
            "garden": 0,
            "tree": 1
        },
        "timeout": 0.1578945,
        "raw": {
            "garden": {
                "pinValue": 0,
                "ticks": 240,
                "event": {
                    "deltaTime": 240,
                    "type": "channel",
                    "subtype": "noteOff",
                    "channel": 5,
                    "noteNumber": 59,
                    "velocity": 0,
                    "lightChannels": [
                        8
                    ]
                }
            },
            "tree": {
                "pinValue": 1,
                "ticks": 0,
                "event": {
                    "deltaTime": 0,
                    "type": "channel",
                    "subtype": "noteOn",
                    "channel": 5,
                    "noteNumber": 59,
                    "velocity": 95,
                    "lightChannels": [
                        9
                    ]
                }
            }
        }
    },
    {
        "changes": {
            "garage": 0,
            "top-right": 1,
            "window": 1,
            "outline": 1,
            "tree": 0,
            "col-2": 1
        },
        "timeout": 0.1578945,
        "raw": {
            "garage": {
                "pinValue": 0,
                "ticks": 240,
                "event": {
                    "deltaTime": 240,
                    "type": "channel",
                    "subtype": "noteOff",
                    "channel": 1,
                    "noteNumber": 79,
                    "velocity": 0,
                    "lightChannels": [
                        0
                    ]
                }
            },
            "top-right": {
                "pinValue": 1,
                "ticks": 0,
                "event": {
                    "deltaTime": 0,
                    "type": "channel",
                    "subtype": "noteOn",
                    "channel": 1,
                    "noteNumber": 78,
                    "velocity": 111,
                    "lightChannels": [
                        1
                    ]
                }
            },
            "window": {
                "pinValue": 1,
                "ticks": 0,
                "event": {
                    "deltaTime": 0,
                    "type": "channel",
                    "subtype": "noteOn",
                    "channel": 3,
                    "noteNumber": 71,
                    "velocity": 111,
                    "lightChannels": [
                        6,
                        7
                    ]
                }
            },
            "outline": {
                "pinValue": 1,
                "ticks": 0,
                "event": {
                    "deltaTime": 0,
                    "type": "channel",
                    "subtype": "noteOn",
                    "channel": 3,
                    "noteNumber": 71,
                    "velocity": 111,
                    "lightChannels": [
                        6,
                        7
                    ]
                }
            },
            "tree": {
                "pinValue": 0,
                "ticks": 0,
                "event": {
                    "deltaTime": 0,
                    "type": "channel",
                    "subtype": "noteOff",
                    "channel": 5,
                    "noteNumber": 59,
                    "velocity": 0,
                    "lightChannels": [
                        9
                    ]
                }
            },
            "col-2": {
                "pinValue": 1,
                "ticks": 0,
                "event": {
                    "deltaTime": 0,
                    "type": "channel",
                    "subtype": "noteOn",
                    "channel": 5,
                    "noteNumber": 64,
                    "velocity": 95,
                    "lightChannels": [
                        4
                    ]
                }
            }
        }
    },
    {
        "changes": {
            "col-2": 0
        },
        "timeout": 0.1578945,
        "raw": {
            "col-2": {
                "pinValue": 0,
                "ticks": 240,
                "event": {
                    "deltaTime": 240,
                    "type": "channel",
                    "subtype": "noteOff",
                    "channel": 5,
                    "noteNumber": 64,
                    "velocity": 0,
                    "lightChannels": [
                        4
                    ]
                }
            }
        }
    },
    {
        "changes": {
            "top-right": 0,
            "garage": 1,
            "col-1": 1
        },
        "timeout": 0.1578945,
        "raw": {
            "top-right": {
                "pinValue": 0,
                "ticks": 240,
                "event": {
                    "deltaTime": 240,
                    "type": "channel",
                    "subtype": "noteOff",
                    "channel": 1,
                    "noteNumber": 78,
                    "velocity": 0,
                    "lightChannels": [
                        1
                    ]
                }
            },
            "garage": {
                "pinValue": 1,
                "ticks": 0,
                "event": {
                    "deltaTime": 0,
                    "type": "channel",
                    "subtype": "noteOn",
                    "channel": 1,
                    "noteNumber": 76,
                    "velocity": 111,
                    "lightChannels": [
                        0
                    ]
                }
            },
            "col-1": {
                "pinValue": 1,
                "ticks": 0,
                "event": {
                    "deltaTime": 0,
                    "type": "channel",
                    "subtype": "noteOn",
                    "channel": 5,
                    "noteNumber": 64,
                    "velocity": 95,
                    "lightChannels": [
                        3
                    ]
                }
            }
        }
    },
    {
        "changes": {
            "col-1": 0,
            "garden": 1
        },
        "timeout": 0.1578945,
        "raw": {
            "col-1": {
                "pinValue": 0,
                "ticks": 240,
                "event": {
                    "deltaTime": 240,
                    "type": "channel",
                    "subtype": "noteOff",
                    "channel": 5,
                    "noteNumber": 64,
                    "velocity": 0,
                    "lightChannels": [
                        3
                    ]
                }
            },
            "garden": {
                "pinValue": 1,
                "ticks": 0,
                "event": {
                    "deltaTime": 0,
                    "type": "channel",
                    "subtype": "noteOn",
                    "channel": 5,
                    "noteNumber": 64,
                    "velocity": 95,
                    "lightChannels": [
                        8
                    ]
                }
            }
        }
    },
    {
        "changes": {
            "window": 0,
            "outline": 0,
            "garden": 0,
            "col-3": 1
        },
        "timeout": 0.1578945,
        "raw": {
            "window": {
                "pinValue": 0,
                "ticks": 240,
                "event": {
                    "deltaTime": 240,
                    "type": "channel",
                    "subtype": "noteOff",
                    "channel": 3,
                    "noteNumber": 71,
                    "velocity": 0,
                    "lightChannels": [
                        6,
                        7
                    ]
                }
            },
            "outline": {
                "pinValue": 0,
                "ticks": 240,
                "event": {
                    "deltaTime": 240,
                    "type": "channel",
                    "subtype": "noteOff",
                    "channel": 3,
                    "noteNumber": 71,
                    "velocity": 0,
                    "lightChannels": [
                        6,
                        7
                    ]
                }
            },
            "garden": {
                "pinValue": 0,
                "ticks": 0,
                "event": {
                    "deltaTime": 0,
                    "type": "channel",
                    "subtype": "noteOff",
                    "channel": 5,
                    "noteNumber": 64,
                    "velocity": 0,
                    "lightChannels": [
                        8
                    ]
                }
            },
            "col-3": {
                "pinValue": 1,
                "ticks": 0,
                "event": {
                    "deltaTime": 0,
                    "type": "channel",
                    "subtype": "noteOn",
                    "channel": 5,
                    "noteNumber": 59,
                    "velocity": 95,
                    "lightChannels": [
                        5
                    ]
                }
            }
        }
    },
    {
        "changes": {
            "col-3": 0,
            "tree": 1
        },
        "timeout": 0.1578945,
        "raw": {
            "col-3": {
                "pinValue": 0,
                "ticks": 240,
                "event": {
                    "deltaTime": 240,
                    "type": "channel",
                    "subtype": "noteOff",
                    "channel": 5,
                    "noteNumber": 59,
                    "velocity": 0,
                    "lightChannels": [
                        5
                    ]
                }
            },
            "tree": {
                "pinValue": 1,
                "ticks": 0,
                "event": {
                    "deltaTime": 0,
                    "type": "channel",
                    "subtype": "noteOn",
                    "channel": 5,
                    "noteNumber": 59,
                    "velocity": 95,
                    "lightChannels": [
                        9
                    ]
                }
            }
        }
    },
    {
        "changes": {
            "garage": 0,
            "top-right": 1,
            "window": 1,
            "outline": 1,
            "tree": 0,
            "col-2": 1
        },
        "timeout": 0.1578945,
        "raw": {
            "garage": {
                "pinValue": 0,
                "ticks": 240,
                "event": {
                    "deltaTime": 240,
                    "type": "channel",
                    "subtype": "noteOff",
                    "channel": 1,
                    "noteNumber": 76,
                    "velocity": 0,
                    "lightChannels": [
                        0
                    ]
                }
            },
            "top-right": {
                "pinValue": 1,
                "ticks": 0,
                "event": {
                    "deltaTime": 0,
                    "type": "channel",
                    "subtype": "noteOn",
                    "channel": 1,
                    "noteNumber": 74,
                    "velocity": 111,
                    "lightChannels": [
                        1
                    ]
                }
            },
            "window": {
                "pinValue": 1,
                "ticks": 0,
                "event": {
                    "deltaTime": 0,
                    "type": "channel",
                    "subtype": "noteOn",
                    "channel": 3,
                    "noteNumber": 76,
                    "velocity": 111,
                    "lightChannels": [
                        6,
                        7
                    ]
                }
            },
            "outline": {
                "pinValue": 1,
                "ticks": 0,
                "event": {
                    "deltaTime": 0,
                    "type": "channel",
                    "subtype": "noteOn",
                    "channel": 3,
                    "noteNumber": 76,
                    "velocity": 111,
                    "lightChannels": [
                        6,
                        7
                    ]
                }
            },
            "tree": {
                "pinValue": 0,
                "ticks": 0,
                "event": {
                    "deltaTime": 0,
                    "type": "channel",
                    "subtype": "noteOff",
                    "channel": 5,
                    "noteNumber": 59,
                    "velocity": 0,
                    "lightChannels": [
                        9
                    ]
                }
            },
            "col-2": {
                "pinValue": 1,
                "ticks": 0,
                "event": {
                    "deltaTime": 0,
                    "type": "channel",
                    "subtype": "noteOn",
                    "channel": 5,
                    "noteNumber": 64,
                    "velocity": 95,
                    "lightChannels": [
                        4
                    ]
                }
            }
        }
    },
    {
        "changes": {
            "col-2": 0
        },
        "timeout": 0.1578945,
        "raw": {
            "col-2": {
                "pinValue": 0,
                "ticks": 240,
                "event": {
                    "deltaTime": 240,
                    "type": "channel",
                    "subtype": "noteOff",
                    "channel": 5,
                    "noteNumber": 64,
                    "velocity": 0,
                    "lightChannels": [
                        4
                    ]
                }
            }
        }
    },
    {
        "changes": {
            "top-right": 0,
            "bottom-right": 1,
            "col-1": 1
        },
        "timeout": 0.1578945,
        "raw": {
            "top-right": {
                "pinValue": 0,
                "ticks": 240,
                "event": {
                    "deltaTime": 240,
                    "type": "channel",
                    "subtype": "noteOff",
                    "channel": 1,
                    "noteNumber": 74,
                    "velocity": 0,
                    "lightChannels": [
                        1
                    ]
                }
            },
            "bottom-right": {
                "pinValue": 1,
                "ticks": 0,
                "event": {
                    "deltaTime": 0,
                    "type": "channel",
                    "subtype": "noteOn",
                    "channel": 1,
                    "noteNumber": 76,
                    "velocity": 111,
                    "lightChannels": [
                        2
                    ]
                }
            },
            "col-1": {
                "pinValue": 1,
                "ticks": 0,
                "event": {
                    "deltaTime": 0,
                    "type": "channel",
                    "subtype": "noteOn",
                    "channel": 5,
                    "noteNumber": 64,
                    "velocity": 95,
                    "lightChannels": [
                        3
                    ]
                }
            }
        }
    },
    {
        "changes": {
            "col-1": 0,
            "garden": 1
        },
        "timeout": 0.1578945,
        "raw": {
            "col-1": {
                "pinValue": 0,
                "ticks": 240,
                "event": {
                    "deltaTime": 240,
                    "type": "channel",
                    "subtype": "noteOff",
                    "channel": 5,
                    "noteNumber": 64,
                    "velocity": 0,
                    "lightChannels": [
                        3
                    ]
                }
            },
            "garden": {
                "pinValue": 1,
                "ticks": 0,
                "event": {
                    "deltaTime": 0,
                    "type": "channel",
                    "subtype": "noteOn",
                    "channel": 5,
                    "noteNumber": 64,
                    "velocity": 95,
                    "lightChannels": [
                        8
                    ]
                }
            }
        }
    },
    {
        "changes": {
            "window": 0,
            "outline": 0,
            "garden": 0,
            "col-3": 1
        },
        "timeout": 0.1578945,
        "raw": {
            "window": {
                "pinValue": 0,
                "ticks": 240,
                "event": {
                    "deltaTime": 240,
                    "type": "channel",
                    "subtype": "noteOff",
                    "channel": 3,
                    "noteNumber": 76,
                    "velocity": 0,
                    "lightChannels": [
                        6,
                        7
                    ]
                }
            },
            "outline": {
                "pinValue": 0,
                "ticks": 240,
                "event": {
                    "deltaTime": 240,
                    "type": "channel",
                    "subtype": "noteOff",
                    "channel": 3,
                    "noteNumber": 76,
                    "velocity": 0,
                    "lightChannels": [
                        6,
                        7
                    ]
                }
            },
            "garden": {
                "pinValue": 0,
                "ticks": 0,
                "event": {
                    "deltaTime": 0,
                    "type": "channel",
                    "subtype": "noteOff",
                    "channel": 5,
                    "noteNumber": 64,
                    "velocity": 0,
                    "lightChannels": [
                        8
                    ]
                }
            },
            "col-3": {
                "pinValue": 1,
                "ticks": 0,
                "event": {
                    "deltaTime": 0,
                    "type": "channel",
                    "subtype": "noteOn",
                    "channel": 5,
                    "noteNumber": 59,
                    "velocity": 95,
                    "lightChannels": [
                        5
                    ]
                }
            }
        }
    },
    {
        "changes": {
            "col-3": 0,
            "tree": 1
        },
        "timeout": 0.1578945,
        "raw": {
            "col-3": {
                "pinValue": 0,
                "ticks": 240,
                "event": {
                    "deltaTime": 240,
                    "type": "channel",
                    "subtype": "noteOff",
                    "channel": 5,
                    "noteNumber": 59,
                    "velocity": 0,
                    "lightChannels": [
                        5
                    ]
                }
            },
            "tree": {
                "pinValue": 1,
                "ticks": 0,
                "event": {
                    "deltaTime": 0,
                    "type": "channel",
                    "subtype": "noteOn",
                    "channel": 5,
                    "noteNumber": 59,
                    "velocity": 95,
                    "lightChannels": [
                        9
                    ]
                }
            }
        }
    },
    {
        "changes": {
            "bottom-right": 0,
            "garage": 1,
            "window": 1,
            "outline": 1,
            "tree": 0,
            "col-2": 1
        },
        "timeout": 0.1578945,
        "raw": {
            "bottom-right": {
                "pinValue": 0,
                "ticks": 240,
                "event": {
                    "deltaTime": 240,
                    "type": "channel",
                    "subtype": "noteOff",
                    "channel": 1,
                    "noteNumber": 76,
                    "velocity": 0,
                    "lightChannels": [
                        2
                    ]
                }
            },
            "garage": {
                "pinValue": 1,
                "ticks": 0,
                "event": {
                    "deltaTime": 0,
                    "type": "channel",
                    "subtype": "noteOn",
                    "channel": 1,
                    "noteNumber": 83,
                    "velocity": 111,
                    "lightChannels": [
                        0
                    ]
                }
            },
            "window": {
                "pinValue": 1,
                "ticks": 0,
                "event": {
                    "deltaTime": 0,
                    "type": "channel",
                    "subtype": "noteOn",
                    "channel": 3,
                    "noteNumber": 74,
                    "velocity": 111,
                    "lightChannels": [
                        6,
                        7
                    ]
                }
            },
            "outline": {
                "pinValue": 1,
                "ticks": 0,
                "event": {
                    "deltaTime": 0,
                    "type": "channel",
                    "subtype": "noteOn",
                    "channel": 3,
                    "noteNumber": 74,
                    "velocity": 111,
                    "lightChannels": [
                        6,
                        7
                    ]
                }
            },
            "tree": {
                "pinValue": 0,
                "ticks": 0,
                "event": {
                    "deltaTime": 0,
                    "type": "channel",
                    "subtype": "noteOff",
                    "channel": 5,
                    "noteNumber": 59,
                    "velocity": 0,
                    "lightChannels": [
                        9
                    ]
                }
            },
            "col-2": {
                "pinValue": 1,
                "ticks": 0,
                "event": {
                    "deltaTime": 0,
                    "type": "channel",
                    "subtype": "noteOn",
                    "channel": 5,
                    "noteNumber": 64,
                    "velocity": 95,
                    "lightChannels": [
                        4
                    ]
                }
            }
        }
    },
    {
        "changes": {
            "col-2": 0
        },
        "timeout": 0.1578945,
        "raw": {
            "col-2": {
                "pinValue": 0,
                "ticks": 240,
                "event": {
                    "deltaTime": 240,
                    "type": "channel",
                    "subtype": "noteOff",
                    "channel": 5,
                    "noteNumber": 64,
                    "velocity": 0,
                    "lightChannels": [
                        4
                    ]
                }
            }
        }
    },
    {
        "changes": {
            "garage": 1,
            "col-1": 1
        },
        "timeout": 0.1578945,
        "raw": {
            "garage": {
                "pinValue": 1,
                "ticks": 0,
                "event": {
                    "deltaTime": 0,
                    "type": "channel",
                    "subtype": "noteOn",
                    "channel": 1,
                    "noteNumber": 83,
                    "velocity": 111,
                    "lightChannels": [
                        0
                    ]
                }
            },
            "col-1": {
                "pinValue": 1,
                "ticks": 0,
                "event": {
                    "deltaTime": 0,
                    "type": "channel",
                    "subtype": "noteOn",
                    "channel": 5,
                    "noteNumber": 64,
                    "velocity": 95,
                    "lightChannels": [
                        3
                    ]
                }
            }
        }
    },
    {
        "changes": {
            "col-1": 0,
            "garden": 1
        },
        "timeout": 0.1578945,
        "raw": {
            "col-1": {
                "pinValue": 0,
                "ticks": 240,
                "event": {
                    "deltaTime": 240,
                    "type": "channel",
                    "subtype": "noteOff",
                    "channel": 5,
                    "noteNumber": 64,
                    "velocity": 0,
                    "lightChannels": [
                        3
                    ]
                }
            },
            "garden": {
                "pinValue": 1,
                "ticks": 0,
                "event": {
                    "deltaTime": 0,
                    "type": "channel",
                    "subtype": "noteOn",
                    "channel": 5,
                    "noteNumber": 64,
                    "velocity": 95,
                    "lightChannels": [
                        8
                    ]
                }
            }
        }
    },
    {
        "changes": {
            "window": 0,
            "outline": 0,
            "garden": 0,
            "col-3": 1
        },
        "timeout": 0.1578945,
        "raw": {
            "window": {
                "pinValue": 0,
                "ticks": 240,
                "event": {
                    "deltaTime": 240,
                    "type": "channel",
                    "subtype": "noteOff",
                    "channel": 3,
                    "noteNumber": 74,
                    "velocity": 0,
                    "lightChannels": [
                        6,
                        7
                    ]
                }
            },
            "outline": {
                "pinValue": 0,
                "ticks": 240,
                "event": {
                    "deltaTime": 240,
                    "type": "channel",
                    "subtype": "noteOff",
                    "channel": 3,
                    "noteNumber": 74,
                    "velocity": 0,
                    "lightChannels": [
                        6,
                        7
                    ]
                }
            },
            "garden": {
                "pinValue": 0,
                "ticks": 0,
                "event": {
                    "deltaTime": 0,
                    "type": "channel",
                    "subtype": "noteOff",
                    "channel": 5,
                    "noteNumber": 64,
                    "velocity": 0,
                    "lightChannels": [
                        8
                    ]
                }
            },
            "col-3": {
                "pinValue": 1,
                "ticks": 0,
                "event": {
                    "deltaTime": 0,
                    "type": "channel",
                    "subtype": "noteOn",
                    "channel": 5,
                    "noteNumber": 59,
                    "velocity": 95,
                    "lightChannels": [
                        5
                    ]
                }
            }
        }
    },
    {
        "changes": {
            "col-3": 0,
            "tree": 1
        },
        "timeout": 0.1578945,
        "raw": {
            "col-3": {
                "pinValue": 0,
                "ticks": 240,
                "event": {
                    "deltaTime": 240,
                    "type": "channel",
                    "subtype": "noteOff",
                    "channel": 5,
                    "noteNumber": 59,
                    "velocity": 0,
                    "lightChannels": [
                        5
                    ]
                }
            },
            "tree": {
                "pinValue": 1,
                "ticks": 0,
                "event": {
                    "deltaTime": 0,
                    "type": "channel",
                    "subtype": "noteOn",
                    "channel": 5,
                    "noteNumber": 59,
                    "velocity": 95,
                    "lightChannels": [
                        9
                    ]
                }
            }
        }
    },
    {
        "changes": {
            "garage": 0,
            "bottom-right": 1,
            "window": 1,
            "outline": 1,
            "tree": 0,
            "col-1": 1
        },
        "timeout": 0.1578945,
        "raw": {
            "garage": {
                "pinValue": 0,
                "ticks": 240,
                "event": {
                    "deltaTime": 240,
                    "type": "channel",
                    "subtype": "noteOff",
                    "channel": 1,
                    "noteNumber": 83,
                    "velocity": 0,
                    "lightChannels": [
                        0
                    ]
                }
            },
            "bottom-right": {
                "pinValue": 1,
                "ticks": 0,
                "event": {
                    "deltaTime": 0,
                    "type": "channel",
                    "subtype": "noteOn",
                    "channel": 1,
                    "noteNumber": 81,
                    "velocity": 111,
                    "lightChannels": [
                        2
                    ]
                }
            },
            "window": {
                "pinValue": 1,
                "ticks": 0,
                "event": {
                    "deltaTime": 0,
                    "type": "channel",
                    "subtype": "noteOn",
                    "channel": 3,
                    "noteNumber": 72,
                    "velocity": 111,
                    "lightChannels": [
                        6,
                        7
                    ]
                }
            },
            "outline": {
                "pinValue": 1,
                "ticks": 0,
                "event": {
                    "deltaTime": 0,
                    "type": "channel",
                    "subtype": "noteOn",
                    "channel": 3,
                    "noteNumber": 72,
                    "velocity": 111,
                    "lightChannels": [
                        6,
                        7
                    ]
                }
            },
            "tree": {
                "pinValue": 0,
                "ticks": 0,
                "event": {
                    "deltaTime": 0,
                    "type": "channel",
                    "subtype": "noteOff",
                    "channel": 5,
                    "noteNumber": 59,
                    "velocity": 0,
                    "lightChannels": [
                        9
                    ]
                }
            },
            "col-1": {
                "pinValue": 1,
                "ticks": 0,
                "event": {
                    "deltaTime": 0,
                    "type": "channel",
                    "subtype": "noteOn",
                    "channel": 5,
                    "noteNumber": 64,
                    "velocity": 95,
                    "lightChannels": [
                        3
                    ]
                }
            }
        }
    },
    {
        "changes": {
            "col-1": 0
        },
        "timeout": 0.1578945,
        "raw": {
            "col-1": {
                "pinValue": 0,
                "ticks": 240,
                "event": {
                    "deltaTime": 240,
                    "type": "channel",
                    "subtype": "noteOff",
                    "channel": 5,
                    "noteNumber": 64,
                    "velocity": 0,
                    "lightChannels": [
                        3
                    ]
                }
            }
        }
    },
    {
        "changes": {
            "bottom-right": 0,
            "garage": 1,
            "tree": 1
        },
        "timeout": 0.1578945,
        "raw": {
            "bottom-right": {
                "pinValue": 0,
                "ticks": 240,
                "event": {
                    "deltaTime": 240,
                    "type": "channel",
                    "subtype": "noteOff",
                    "channel": 1,
                    "noteNumber": 81,
                    "velocity": 0,
                    "lightChannels": [
                        2
                    ]
                }
            },
            "garage": {
                "pinValue": 1,
                "ticks": 0,
                "event": {
                    "deltaTime": 0,
                    "type": "channel",
                    "subtype": "noteOn",
                    "channel": 1,
                    "noteNumber": 79,
                    "velocity": 111,
                    "lightChannels": [
                        0
                    ]
                }
            },
            "tree": {
                "pinValue": 1,
                "ticks": 0,
                "event": {
                    "deltaTime": 0,
                    "type": "channel",
                    "subtype": "noteOn",
                    "channel": 5,
                    "noteNumber": 59,
                    "velocity": 95,
                    "lightChannels": [
                        9
                    ]
                }
            }
        }
    },
    {
        "changes": {
            "tree": 0,
            "col-3": 1
        },
        "timeout": 0.1578945,
        "raw": {
            "tree": {
                "pinValue": 0,
                "ticks": 240,
                "event": {
                    "deltaTime": 240,
                    "type": "channel",
                    "subtype": "noteOff",
                    "channel": 5,
                    "noteNumber": 59,
                    "velocity": 0,
                    "lightChannels": [
                        9
                    ]
                }
            },
            "col-3": {
                "pinValue": 1,
                "ticks": 0,
                "event": {
                    "deltaTime": 0,
                    "type": "channel",
                    "subtype": "noteOn",
                    "channel": 5,
                    "noteNumber": 64,
                    "velocity": 95,
                    "lightChannels": [
                        5
                    ]
                }
            }
        }
    },
    {
        "changes": {
            "window": 0,
            "outline": 0,
            "col-3": 0,
            "garden": 1
        },
        "timeout": 0.1578945,
        "raw": {
            "window": {
                "pinValue": 0,
                "ticks": 240,
                "event": {
                    "deltaTime": 240,
                    "type": "channel",
                    "subtype": "noteOff",
                    "channel": 3,
                    "noteNumber": 72,
                    "velocity": 0,
                    "lightChannels": [
                        6,
                        7
                    ]
                }
            },
            "outline": {
                "pinValue": 0,
                "ticks": 240,
                "event": {
                    "deltaTime": 240,
                    "type": "channel",
                    "subtype": "noteOff",
                    "channel": 3,
                    "noteNumber": 72,
                    "velocity": 0,
                    "lightChannels": [
                        6,
                        7
                    ]
                }
            },
            "col-3": {
                "pinValue": 0,
                "ticks": 0,
                "event": {
                    "deltaTime": 0,
                    "type": "channel",
                    "subtype": "noteOff",
                    "channel": 5,
                    "noteNumber": 64,
                    "velocity": 0,
                    "lightChannels": [
                        5
                    ]
                }
            },
            "garden": {
                "pinValue": 1,
                "ticks": 0,
                "event": {
                    "deltaTime": 0,
                    "type": "channel",
                    "subtype": "noteOn",
                    "channel": 5,
                    "noteNumber": 59,
                    "velocity": 95,
                    "lightChannels": [
                        8
                    ]
                }
            }
        }
    },
    {
        "changes": {
            "garden": 0,
            "tree": 1
        },
        "timeout": 0.1578945,
        "raw": {
            "garden": {
                "pinValue": 0,
                "ticks": 240,
                "event": {
                    "deltaTime": 240,
                    "type": "channel",
                    "subtype": "noteOff",
                    "channel": 5,
                    "noteNumber": 59,
                    "velocity": 0,
                    "lightChannels": [
                        8
                    ]
                }
            },
            "tree": {
                "pinValue": 1,
                "ticks": 0,
                "event": {
                    "deltaTime": 0,
                    "type": "channel",
                    "subtype": "noteOn",
                    "channel": 5,
                    "noteNumber": 59,
                    "velocity": 95,
                    "lightChannels": [
                        9
                    ]
                }
            }
        }
    },
    {
        "changes": {
            "garage": 0,
            "top-right": 1,
            "window": 1,
            "outline": 1,
            "tree": 0,
            "col-2": 1
        },
        "timeout": 0.1578945,
        "raw": {
            "garage": {
                "pinValue": 0,
                "ticks": 240,
                "event": {
                    "deltaTime": 240,
                    "type": "channel",
                    "subtype": "noteOff",
                    "channel": 1,
                    "noteNumber": 79,
                    "velocity": 0,
                    "lightChannels": [
                        0
                    ]
                }
            },
            "top-right": {
                "pinValue": 1,
                "ticks": 0,
                "event": {
                    "deltaTime": 0,
                    "type": "channel",
                    "subtype": "noteOn",
                    "channel": 1,
                    "noteNumber": 78,
                    "velocity": 111,
                    "lightChannels": [
                        1
                    ]
                }
            },
            "window": {
                "pinValue": 1,
                "ticks": 0,
                "event": {
                    "deltaTime": 0,
                    "type": "channel",
                    "subtype": "noteOn",
                    "channel": 3,
                    "noteNumber": 71,
                    "velocity": 111,
                    "lightChannels": [
                        6,
                        7
                    ]
                }
            },
            "outline": {
                "pinValue": 1,
                "ticks": 0,
                "event": {
                    "deltaTime": 0,
                    "type": "channel",
                    "subtype": "noteOn",
                    "channel": 3,
                    "noteNumber": 71,
                    "velocity": 111,
                    "lightChannels": [
                        6,
                        7
                    ]
                }
            },
            "tree": {
                "pinValue": 0,
                "ticks": 0,
                "event": {
                    "deltaTime": 0,
                    "type": "channel",
                    "subtype": "noteOff",
                    "channel": 5,
                    "noteNumber": 59,
                    "velocity": 0,
                    "lightChannels": [
                        9
                    ]
                }
            },
            "col-2": {
                "pinValue": 1,
                "ticks": 0,
                "event": {
                    "deltaTime": 0,
                    "type": "channel",
                    "subtype": "noteOn",
                    "channel": 5,
                    "noteNumber": 64,
                    "velocity": 95,
                    "lightChannels": [
                        4
                    ]
                }
            }
        }
    },
    {
        "changes": {
            "col-2": 0
        },
        "timeout": 0.1578945,
        "raw": {
            "col-2": {
                "pinValue": 0,
                "ticks": 240,
                "event": {
                    "deltaTime": 240,
                    "type": "channel",
                    "subtype": "noteOff",
                    "channel": 5,
                    "noteNumber": 64,
                    "velocity": 0,
                    "lightChannels": [
                        4
                    ]
                }
            }
        }
    },
    {
        "changes": {
            "top-right": 0,
            "garage": 1,
            "col-1": 1
        },
        "timeout": 0.1578945,
        "raw": {
            "top-right": {
                "pinValue": 0,
                "ticks": 240,
                "event": {
                    "deltaTime": 240,
                    "type": "channel",
                    "subtype": "noteOff",
                    "channel": 1,
                    "noteNumber": 78,
                    "velocity": 0,
                    "lightChannels": [
                        1
                    ]
                }
            },
            "garage": {
                "pinValue": 1,
                "ticks": 0,
                "event": {
                    "deltaTime": 0,
                    "type": "channel",
                    "subtype": "noteOn",
                    "channel": 1,
                    "noteNumber": 76,
                    "velocity": 111,
                    "lightChannels": [
                        0
                    ]
                }
            },
            "col-1": {
                "pinValue": 1,
                "ticks": 0,
                "event": {
                    "deltaTime": 0,
                    "type": "channel",
                    "subtype": "noteOn",
                    "channel": 5,
                    "noteNumber": 64,
                    "velocity": 95,
                    "lightChannels": [
                        3
                    ]
                }
            }
        }
    },
    {
        "changes": {
            "col-1": 0,
            "garden": 1
        },
        "timeout": 0.1578945,
        "raw": {
            "col-1": {
                "pinValue": 0,
                "ticks": 240,
                "event": {
                    "deltaTime": 240,
                    "type": "channel",
                    "subtype": "noteOff",
                    "channel": 5,
                    "noteNumber": 64,
                    "velocity": 0,
                    "lightChannels": [
                        3
                    ]
                }
            },
            "garden": {
                "pinValue": 1,
                "ticks": 0,
                "event": {
                    "deltaTime": 0,
                    "type": "channel",
                    "subtype": "noteOn",
                    "channel": 5,
                    "noteNumber": 64,
                    "velocity": 95,
                    "lightChannels": [
                        8
                    ]
                }
            }
        }
    },
    {
        "changes": {
            "window": 0,
            "outline": 0,
            "garden": 0,
            "col-3": 1
        },
        "timeout": 0.1578945,
        "raw": {
            "window": {
                "pinValue": 0,
                "ticks": 240,
                "event": {
                    "deltaTime": 240,
                    "type": "channel",
                    "subtype": "noteOff",
                    "channel": 3,
                    "noteNumber": 71,
                    "velocity": 0,
                    "lightChannels": [
                        6,
                        7
                    ]
                }
            },
            "outline": {
                "pinValue": 0,
                "ticks": 240,
                "event": {
                    "deltaTime": 240,
                    "type": "channel",
                    "subtype": "noteOff",
                    "channel": 3,
                    "noteNumber": 71,
                    "velocity": 0,
                    "lightChannels": [
                        6,
                        7
                    ]
                }
            },
            "garden": {
                "pinValue": 0,
                "ticks": 0,
                "event": {
                    "deltaTime": 0,
                    "type": "channel",
                    "subtype": "noteOff",
                    "channel": 5,
                    "noteNumber": 64,
                    "velocity": 0,
                    "lightChannels": [
                        8
                    ]
                }
            },
            "col-3": {
                "pinValue": 1,
                "ticks": 0,
                "event": {
                    "deltaTime": 0,
                    "type": "channel",
                    "subtype": "noteOn",
                    "channel": 5,
                    "noteNumber": 59,
                    "velocity": 95,
                    "lightChannels": [
                        5
                    ]
                }
            }
        }
    },
    {
        "changes": {
            "col-3": 0,
            "tree": 1
        },
        "timeout": 0.1578945,
        "raw": {
            "col-3": {
                "pinValue": 0,
                "ticks": 240,
                "event": {
                    "deltaTime": 240,
                    "type": "channel",
                    "subtype": "noteOff",
                    "channel": 5,
                    "noteNumber": 59,
                    "velocity": 0,
                    "lightChannels": [
                        5
                    ]
                }
            },
            "tree": {
                "pinValue": 1,
                "ticks": 0,
                "event": {
                    "deltaTime": 0,
                    "type": "channel",
                    "subtype": "noteOn",
                    "channel": 5,
                    "noteNumber": 59,
                    "velocity": 95,
                    "lightChannels": [
                        9
                    ]
                }
            }
        }
    },
    {
        "changes": {
            "garage": 1,
            "col-1": 1,
            "tree": 0,
            "col-2": 1
        },
        "timeout": 0.1578945,
        "raw": {
            "garage": {
                "pinValue": 1,
                "ticks": 0,
                "event": {
                    "deltaTime": 0,
                    "type": "channel",
                    "subtype": "noteOn",
                    "channel": 1,
                    "noteNumber": 76,
                    "velocity": 111,
                    "lightChannels": [
                        0
                    ]
                }
            },
            "col-1": {
                "pinValue": 1,
                "ticks": 0,
                "event": {
                    "deltaTime": 0,
                    "type": "channel",
                    "subtype": "noteOn",
                    "channel": 2,
                    "noteNumber": 79,
                    "velocity": 47,
                    "lightChannels": [
                        3
                    ]
                }
            },
            "tree": {
                "pinValue": 0,
                "ticks": 0,
                "event": {
                    "deltaTime": 0,
                    "type": "channel",
                    "subtype": "noteOff",
                    "channel": 5,
                    "noteNumber": 59,
                    "velocity": 0,
                    "lightChannels": [
                        9
                    ]
                }
            },
            "col-2": {
                "pinValue": 1,
                "ticks": 0,
                "event": {
                    "deltaTime": 0,
                    "type": "channel",
                    "subtype": "noteOn",
                    "channel": 5,
                    "noteNumber": 64,
                    "velocity": 95,
                    "lightChannels": [
                        4
                    ]
                }
            }
        }
    },
    {
        "changes": {
            "col-2": 0
        },
        "timeout": 0.1578945,
        "raw": {
            "col-2": {
                "pinValue": 0,
                "ticks": 240,
                "event": {
                    "deltaTime": 240,
                    "type": "channel",
                    "subtype": "noteOff",
                    "channel": 5,
                    "noteNumber": 64,
                    "velocity": 0,
                    "lightChannels": [
                        4
                    ]
                }
            }
        }
    },
    {
        "changes": {
            "garage": 1,
            "col-1": 1,
            "col-2": 1
        },
        "timeout": 0.1578945,
        "raw": {
            "garage": {
                "pinValue": 1,
                "ticks": 0,
                "event": {
                    "deltaTime": 0,
                    "type": "channel",
                    "subtype": "noteOn",
                    "channel": 1,
                    "noteNumber": 76,
                    "velocity": 111,
                    "lightChannels": [
                        0
                    ]
                }
            },
            "col-1": {
                "pinValue": 1,
                "ticks": 0,
                "event": {
                    "deltaTime": 0,
                    "type": "channel",
                    "subtype": "noteOn",
                    "channel": 5,
                    "noteNumber": 64,
                    "velocity": 95,
                    "lightChannels": [
                        3
                    ]
                }
            },
            "col-2": {
                "pinValue": 1,
                "ticks": 0,
                "event": {
                    "deltaTime": 0,
                    "type": "channel",
                    "subtype": "noteOn",
                    "channel": 2,
                    "noteNumber": 78,
                    "velocity": 47,
                    "lightChannels": [
                        4
                    ]
                }
            }
        }
    },
    {
        "changes": {
            "col-2": 0,
            "col-3": 1,
            "col-1": 0,
            "garden": 1
        },
        "timeout": 0.1578945,
        "raw": {
            "col-2": {
                "pinValue": 0,
                "ticks": 240,
                "event": {
                    "deltaTime": 240,
                    "type": "channel",
                    "subtype": "noteOff",
                    "channel": 2,
                    "noteNumber": 78,
                    "velocity": 0,
                    "lightChannels": [
                        4
                    ]
                }
            },
            "col-3": {
                "pinValue": 1,
                "ticks": 0,
                "event": {
                    "deltaTime": 0,
                    "type": "channel",
                    "subtype": "noteOn",
                    "channel": 2,
                    "noteNumber": 79,
                    "velocity": 47,
                    "lightChannels": [
                        5
                    ]
                }
            },
            "col-1": {
                "pinValue": 0,
                "ticks": 0,
                "event": {
                    "deltaTime": 0,
                    "type": "channel",
                    "subtype": "noteOff",
                    "channel": 5,
                    "noteNumber": 64,
                    "velocity": 0,
                    "lightChannels": [
                        3
                    ]
                }
            },
            "garden": {
                "pinValue": 1,
                "ticks": 0,
                "event": {
                    "deltaTime": 0,
                    "type": "channel",
                    "subtype": "noteOn",
                    "channel": 5,
                    "noteNumber": 64,
                    "velocity": 95,
                    "lightChannels": [
                        8
                    ]
                }
            }
        }
    },
    {
        "changes": {
            "col-3": 1,
            "garden": 0,
            "tree": 1
        },
        "timeout": 0.1578945,
        "raw": {
            "col-3": {
                "pinValue": 1,
                "ticks": 0,
                "event": {
                    "deltaTime": 0,
                    "type": "channel",
                    "subtype": "noteOn",
                    "channel": 5,
                    "noteNumber": 59,
                    "velocity": 95,
                    "lightChannels": [
                        5
                    ]
                }
            },
            "garden": {
                "pinValue": 0,
                "ticks": 0,
                "event": {
                    "deltaTime": 0,
                    "type": "channel",
                    "subtype": "noteOff",
                    "channel": 5,
                    "noteNumber": 64,
                    "velocity": 0,
                    "lightChannels": [
                        8
                    ]
                }
            },
            "tree": {
                "pinValue": 1,
                "ticks": 0,
                "event": {
                    "deltaTime": 0,
                    "type": "channel",
                    "subtype": "noteOn",
                    "channel": 2,
                    "noteNumber": 76,
                    "velocity": 47,
                    "lightChannels": [
                        8,
                        9
                    ]
                }
            }
        }
    },
    {
        "changes": {
            "col-3": 0,
            "tree": 1
        },
        "timeout": 0.1578945,
        "raw": {
            "col-3": {
                "pinValue": 0,
                "ticks": 240,
                "event": {
                    "deltaTime": 240,
                    "type": "channel",
                    "subtype": "noteOff",
                    "channel": 5,
                    "noteNumber": 59,
                    "velocity": 0,
                    "lightChannels": [
                        5
                    ]
                }
            },
            "tree": {
                "pinValue": 1,
                "ticks": 0,
                "event": {
                    "deltaTime": 0,
                    "type": "channel",
                    "subtype": "noteOn",
                    "channel": 5,
                    "noteNumber": 59,
                    "velocity": 95,
                    "lightChannels": [
                        9
                    ]
                }
            }
        }
    },
    {
        "changes": {
            "garage": 1,
            "garden": 0,
            "tree": 0,
            "col-1": 1,
            "col-2": 1
        },
        "timeout": 0.1578945,
        "raw": {
            "garage": {
                "pinValue": 1,
                "ticks": 0,
                "event": {
                    "deltaTime": 0,
                    "type": "channel",
                    "subtype": "noteOn",
                    "channel": 1,
                    "noteNumber": 83,
                    "velocity": 111,
                    "lightChannels": [
                        0
                    ]
                }
            },
            "garden": {
                "pinValue": 0,
                "ticks": 0,
                "event": {
                    "deltaTime": 0,
                    "type": "channel",
                    "subtype": "noteOff",
                    "channel": 2,
                    "noteNumber": 76,
                    "velocity": 0,
                    "lightChannels": [
                        8,
                        9
                    ]
                }
            },
            "tree": {
                "pinValue": 0,
                "ticks": 0,
                "event": {
                    "deltaTime": 0,
                    "type": "channel",
                    "subtype": "noteOff",
                    "channel": 5,
                    "noteNumber": 59,
                    "velocity": 0,
                    "lightChannels": [
                        9
                    ]
                }
            },
            "col-1": {
                "pinValue": 1,
                "ticks": 0,
                "event": {
                    "deltaTime": 0,
                    "type": "channel",
                    "subtype": "noteOn",
                    "channel": 2,
                    "noteNumber": 79,
                    "velocity": 47,
                    "lightChannels": [
                        3
                    ]
                }
            },
            "col-2": {
                "pinValue": 1,
                "ticks": 0,
                "event": {
                    "deltaTime": 0,
                    "type": "channel",
                    "subtype": "noteOn",
                    "channel": 5,
                    "noteNumber": 64,
                    "velocity": 95,
                    "lightChannels": [
                        4
                    ]
                }
            }
        }
    },
    {
        "changes": {
            "col-2": 0
        },
        "timeout": 0.1578945,
        "raw": {
            "col-2": {
                "pinValue": 0,
                "ticks": 240,
                "event": {
                    "deltaTime": 240,
                    "type": "channel",
                    "subtype": "noteOff",
                    "channel": 5,
                    "noteNumber": 64,
                    "velocity": 0,
                    "lightChannels": [
                        4
                    ]
                }
            }
        }
    },
    {
        "changes": {
            "garage": 1,
            "col-1": 1,
            "col-2": 1
        },
        "timeout": 0.1578945,
        "raw": {
            "garage": {
                "pinValue": 1,
                "ticks": 0,
                "event": {
                    "deltaTime": 0,
                    "type": "channel",
                    "subtype": "noteOn",
                    "channel": 1,
                    "noteNumber": 83,
                    "velocity": 111,
                    "lightChannels": [
                        0
                    ]
                }
            },
            "col-1": {
                "pinValue": 1,
                "ticks": 0,
                "event": {
                    "deltaTime": 0,
                    "type": "channel",
                    "subtype": "noteOn",
                    "channel": 5,
                    "noteNumber": 64,
                    "velocity": 95,
                    "lightChannels": [
                        3
                    ]
                }
            },
            "col-2": {
                "pinValue": 1,
                "ticks": 0,
                "event": {
                    "deltaTime": 0,
                    "type": "channel",
                    "subtype": "noteOn",
                    "channel": 2,
                    "noteNumber": 78,
                    "velocity": 47,
                    "lightChannels": [
                        4
                    ]
                }
            }
        }
    },
    {
        "changes": {
            "col-2": 0,
            "col-3": 1,
            "col-1": 0,
            "garden": 1
        },
        "timeout": 0.1578945,
        "raw": {
            "col-2": {
                "pinValue": 0,
                "ticks": 240,
                "event": {
                    "deltaTime": 240,
                    "type": "channel",
                    "subtype": "noteOff",
                    "channel": 2,
                    "noteNumber": 78,
                    "velocity": 0,
                    "lightChannels": [
                        4
                    ]
                }
            },
            "col-3": {
                "pinValue": 1,
                "ticks": 0,
                "event": {
                    "deltaTime": 0,
                    "type": "channel",
                    "subtype": "noteOn",
                    "channel": 2,
                    "noteNumber": 79,
                    "velocity": 47,
                    "lightChannels": [
                        5
                    ]
                }
            },
            "col-1": {
                "pinValue": 0,
                "ticks": 0,
                "event": {
                    "deltaTime": 0,
                    "type": "channel",
                    "subtype": "noteOff",
                    "channel": 5,
                    "noteNumber": 64,
                    "velocity": 0,
                    "lightChannels": [
                        3
                    ]
                }
            },
            "garden": {
                "pinValue": 1,
                "ticks": 0,
                "event": {
                    "deltaTime": 0,
                    "type": "channel",
                    "subtype": "noteOn",
                    "channel": 5,
                    "noteNumber": 64,
                    "velocity": 95,
                    "lightChannels": [
                        8
                    ]
                }
            }
        }
    },
    {
        "changes": {
            "col-3": 1,
            "garden": 0,
            "tree": 1
        },
        "timeout": 0.1578945,
        "raw": {
            "col-3": {
                "pinValue": 1,
                "ticks": 0,
                "event": {
                    "deltaTime": 0,
                    "type": "channel",
                    "subtype": "noteOn",
                    "channel": 5,
                    "noteNumber": 59,
                    "velocity": 95,
                    "lightChannels": [
                        5
                    ]
                }
            },
            "garden": {
                "pinValue": 0,
                "ticks": 0,
                "event": {
                    "deltaTime": 0,
                    "type": "channel",
                    "subtype": "noteOff",
                    "channel": 5,
                    "noteNumber": 64,
                    "velocity": 0,
                    "lightChannels": [
                        8
                    ]
                }
            },
            "tree": {
                "pinValue": 1,
                "ticks": 0,
                "event": {
                    "deltaTime": 0,
                    "type": "channel",
                    "subtype": "noteOn",
                    "channel": 2,
                    "noteNumber": 76,
                    "velocity": 47,
                    "lightChannels": [
                        8,
                        9
                    ]
                }
            }
        }
    },
    {
        "changes": {
            "col-3": 0,
            "tree": 1
        },
        "timeout": 0.1578945,
        "raw": {
            "col-3": {
                "pinValue": 0,
                "ticks": 240,
                "event": {
                    "deltaTime": 240,
                    "type": "channel",
                    "subtype": "noteOff",
                    "channel": 5,
                    "noteNumber": 59,
                    "velocity": 0,
                    "lightChannels": [
                        5
                    ]
                }
            },
            "tree": {
                "pinValue": 1,
                "ticks": 0,
                "event": {
                    "deltaTime": 0,
                    "type": "channel",
                    "subtype": "noteOn",
                    "channel": 5,
                    "noteNumber": 59,
                    "velocity": 95,
                    "lightChannels": [
                        9
                    ]
                }
            }
        }
    },
    {
        "changes": {
            "garage": 0,
            "bottom-right": 1,
            "garden": 0,
            "tree": 0,
            "col-1": 1
        },
        "timeout": 0.1578945,
        "raw": {
            "garage": {
                "pinValue": 0,
                "ticks": 240,
                "event": {
                    "deltaTime": 240,
                    "type": "channel",
                    "subtype": "noteOff",
                    "channel": 1,
                    "noteNumber": 83,
                    "velocity": 0,
                    "lightChannels": [
                        0
                    ]
                }
            },
            "bottom-right": {
                "pinValue": 1,
                "ticks": 0,
                "event": {
                    "deltaTime": 0,
                    "type": "channel",
                    "subtype": "noteOn",
                    "channel": 1,
                    "noteNumber": 81,
                    "velocity": 111,
                    "lightChannels": [
                        2
                    ]
                }
            },
            "garden": {
                "pinValue": 0,
                "ticks": 0,
                "event": {
                    "deltaTime": 0,
                    "type": "channel",
                    "subtype": "noteOff",
                    "channel": 2,
                    "noteNumber": 76,
                    "velocity": 0,
                    "lightChannels": [
                        8,
                        9
                    ]
                }
            },
            "tree": {
                "pinValue": 0,
                "ticks": 0,
                "event": {
                    "deltaTime": 0,
                    "type": "channel",
                    "subtype": "noteOff",
                    "channel": 5,
                    "noteNumber": 59,
                    "velocity": 0,
                    "lightChannels": [
                        9
                    ]
                }
            },
            "col-1": {
                "pinValue": 1,
                "ticks": 0,
                "event": {
                    "deltaTime": 0,
                    "type": "channel",
                    "subtype": "noteOn",
                    "channel": 5,
                    "noteNumber": 64,
                    "velocity": 95,
                    "lightChannels": [
                        3
                    ]
                }
            }
        }
    },
    {
        "changes": {
            "col-1": 0
        },
        "timeout": 0.1578945,
        "raw": {
            "col-1": {
                "pinValue": 0,
                "ticks": 240,
                "event": {
                    "deltaTime": 240,
                    "type": "channel",
                    "subtype": "noteOff",
                    "channel": 5,
                    "noteNumber": 64,
                    "velocity": 0,
                    "lightChannels": [
                        3
                    ]
                }
            }
        }
    },
    {
        "changes": {
            "bottom-right": 0,
            "garage": 1,
            "col-1": 0,
            "col-2": 1,
            "tree": 1
        },
        "timeout": 0.1578945,
        "raw": {
            "bottom-right": {
                "pinValue": 0,
                "ticks": 240,
                "event": {
                    "deltaTime": 240,
                    "type": "channel",
                    "subtype": "noteOff",
                    "channel": 1,
                    "noteNumber": 81,
                    "velocity": 0,
                    "lightChannels": [
                        2
                    ]
                }
            },
            "garage": {
                "pinValue": 1,
                "ticks": 0,
                "event": {
                    "deltaTime": 0,
                    "type": "channel",
                    "subtype": "noteOn",
                    "channel": 1,
                    "noteNumber": 79,
                    "velocity": 111,
                    "lightChannels": [
                        0
                    ]
                }
            },
            "col-1": {
                "pinValue": 0,
                "ticks": 0,
                "event": {
                    "deltaTime": 0,
                    "type": "channel",
                    "subtype": "noteOff",
                    "channel": 2,
                    "noteNumber": 79,
                    "velocity": 0,
                    "lightChannels": [
                        3
                    ]
                }
            },
            "col-2": {
                "pinValue": 1,
                "ticks": 0,
                "event": {
                    "deltaTime": 0,
                    "type": "channel",
                    "subtype": "noteOn",
                    "channel": 2,
                    "noteNumber": 78,
                    "velocity": 47,
                    "lightChannels": [
                        4
                    ]
                }
            },
            "tree": {
                "pinValue": 1,
                "ticks": 0,
                "event": {
                    "deltaTime": 0,
                    "type": "channel",
                    "subtype": "noteOn",
                    "channel": 5,
                    "noteNumber": 59,
                    "velocity": 95,
                    "lightChannels": [
                        9
                    ]
                }
            }
        }
    },
    {
        "changes": {
            "col-2": 0,
            "col-3": 1,
            "tree": 0
        },
        "timeout": 0.1578945,
        "raw": {
            "col-2": {
                "pinValue": 0,
                "ticks": 240,
                "event": {
                    "deltaTime": 240,
                    "type": "channel",
                    "subtype": "noteOff",
                    "channel": 2,
                    "noteNumber": 78,
                    "velocity": 0,
                    "lightChannels": [
                        4
                    ]
                }
            },
            "col-3": {
                "pinValue": 1,
                "ticks": 0,
                "event": {
                    "deltaTime": 0,
                    "type": "channel",
                    "subtype": "noteOn",
                    "channel": 5,
                    "noteNumber": 64,
                    "velocity": 95,
                    "lightChannels": [
                        5
                    ]
                }
            },
            "tree": {
                "pinValue": 0,
                "ticks": 0,
                "event": {
                    "deltaTime": 0,
                    "type": "channel",
                    "subtype": "noteOff",
                    "channel": 5,
                    "noteNumber": 59,
                    "velocity": 0,
                    "lightChannels": [
                        9
                    ]
                }
            }
        }
    },
    {
        "changes": {
            "col-3": 0,
            "garden": 1,
            "tree": 1
        },
        "timeout": 0.1578945,
        "raw": {
            "col-3": {
                "pinValue": 0,
                "ticks": 0,
                "event": {
                    "deltaTime": 0,
                    "type": "channel",
                    "subtype": "noteOff",
                    "channel": 5,
                    "noteNumber": 64,
                    "velocity": 0,
                    "lightChannels": [
                        5
                    ]
                }
            },
            "garden": {
                "pinValue": 1,
                "ticks": 0,
                "event": {
                    "deltaTime": 0,
                    "type": "channel",
                    "subtype": "noteOn",
                    "channel": 5,
                    "noteNumber": 59,
                    "velocity": 95,
                    "lightChannels": [
                        8
                    ]
                }
            },
            "tree": {
                "pinValue": 1,
                "ticks": 0,
                "event": {
                    "deltaTime": 0,
                    "type": "channel",
                    "subtype": "noteOn",
                    "channel": 2,
                    "noteNumber": 76,
                    "velocity": 47,
                    "lightChannels": [
                        8,
                        9
                    ]
                }
            }
        }
    },
    {
        "changes": {
            "garden": 0,
            "tree": 1
        },
        "timeout": 0.1578945,
        "raw": {
            "garden": {
                "pinValue": 0,
                "ticks": 240,
                "event": {
                    "deltaTime": 240,
                    "type": "channel",
                    "subtype": "noteOff",
                    "channel": 5,
                    "noteNumber": 59,
                    "velocity": 0,
                    "lightChannels": [
                        8
                    ]
                }
            },
            "tree": {
                "pinValue": 1,
                "ticks": 0,
                "event": {
                    "deltaTime": 0,
                    "type": "channel",
                    "subtype": "noteOn",
                    "channel": 5,
                    "noteNumber": 59,
                    "velocity": 95,
                    "lightChannels": [
                        9
                    ]
                }
            }
        }
    },
    {
        "changes": {
            "garage": 0,
            "top-right": 1,
            "garden": 0,
            "tree": 0,
            "col-1": 1,
            "col-2": 1
        },
        "timeout": 0.1578945,
        "raw": {
            "garage": {
                "pinValue": 0,
                "ticks": 240,
                "event": {
                    "deltaTime": 240,
                    "type": "channel",
                    "subtype": "noteOff",
                    "channel": 1,
                    "noteNumber": 79,
                    "velocity": 0,
                    "lightChannels": [
                        0
                    ]
                }
            },
            "top-right": {
                "pinValue": 1,
                "ticks": 0,
                "event": {
                    "deltaTime": 0,
                    "type": "channel",
                    "subtype": "noteOn",
                    "channel": 1,
                    "noteNumber": 78,
                    "velocity": 111,
                    "lightChannels": [
                        1
                    ]
                }
            },
            "garden": {
                "pinValue": 0,
                "ticks": 0,
                "event": {
                    "deltaTime": 0,
                    "type": "channel",
                    "subtype": "noteOff",
                    "channel": 2,
                    "noteNumber": 76,
                    "velocity": 0,
                    "lightChannels": [
                        8,
                        9
                    ]
                }
            },
            "tree": {
                "pinValue": 0,
                "ticks": 0,
                "event": {
                    "deltaTime": 0,
                    "type": "channel",
                    "subtype": "noteOff",
                    "channel": 5,
                    "noteNumber": 59,
                    "velocity": 0,
                    "lightChannels": [
                        9
                    ]
                }
            },
            "col-1": {
                "pinValue": 1,
                "ticks": 0,
                "event": {
                    "deltaTime": 0,
                    "type": "channel",
                    "subtype": "noteOn",
                    "channel": 2,
                    "noteNumber": 79,
                    "velocity": 47,
                    "lightChannels": [
                        3
                    ]
                }
            },
            "col-2": {
                "pinValue": 1,
                "ticks": 0,
                "event": {
                    "deltaTime": 0,
                    "type": "channel",
                    "subtype": "noteOn",
                    "channel": 5,
                    "noteNumber": 64,
                    "velocity": 95,
                    "lightChannels": [
                        4
                    ]
                }
            }
        }
    },
    {
        "changes": {
            "col-2": 0
        },
        "timeout": 0.1578945,
        "raw": {
            "col-2": {
                "pinValue": 0,
                "ticks": 240,
                "event": {
                    "deltaTime": 240,
                    "type": "channel",
                    "subtype": "noteOff",
                    "channel": 5,
                    "noteNumber": 64,
                    "velocity": 0,
                    "lightChannels": [
                        4
                    ]
                }
            }
        }
    },
    {
        "changes": {
            "top-right": 0,
            "garage": 1,
            "col-1": 1,
            "col-2": 1
        },
        "timeout": 0.1578945,
        "raw": {
            "top-right": {
                "pinValue": 0,
                "ticks": 240,
                "event": {
                    "deltaTime": 240,
                    "type": "channel",
                    "subtype": "noteOff",
                    "channel": 1,
                    "noteNumber": 78,
                    "velocity": 0,
                    "lightChannels": [
                        1
                    ]
                }
            },
            "garage": {
                "pinValue": 1,
                "ticks": 0,
                "event": {
                    "deltaTime": 0,
                    "type": "channel",
                    "subtype": "noteOn",
                    "channel": 1,
                    "noteNumber": 76,
                    "velocity": 111,
                    "lightChannels": [
                        0
                    ]
                }
            },
            "col-1": {
                "pinValue": 1,
                "ticks": 0,
                "event": {
                    "deltaTime": 0,
                    "type": "channel",
                    "subtype": "noteOn",
                    "channel": 5,
                    "noteNumber": 64,
                    "velocity": 95,
                    "lightChannels": [
                        3
                    ]
                }
            },
            "col-2": {
                "pinValue": 1,
                "ticks": 0,
                "event": {
                    "deltaTime": 0,
                    "type": "channel",
                    "subtype": "noteOn",
                    "channel": 2,
                    "noteNumber": 78,
                    "velocity": 47,
                    "lightChannels": [
                        4
                    ]
                }
            }
        }
    },
    {
        "changes": {
            "col-2": 0,
            "col-3": 1,
            "col-1": 0,
            "garden": 1
        },
        "timeout": 0.1578945,
        "raw": {
            "col-2": {
                "pinValue": 0,
                "ticks": 240,
                "event": {
                    "deltaTime": 240,
                    "type": "channel",
                    "subtype": "noteOff",
                    "channel": 2,
                    "noteNumber": 78,
                    "velocity": 0,
                    "lightChannels": [
                        4
                    ]
                }
            },
            "col-3": {
                "pinValue": 1,
                "ticks": 0,
                "event": {
                    "deltaTime": 0,
                    "type": "channel",
                    "subtype": "noteOn",
                    "channel": 2,
                    "noteNumber": 79,
                    "velocity": 47,
                    "lightChannels": [
                        5
                    ]
                }
            },
            "col-1": {
                "pinValue": 0,
                "ticks": 0,
                "event": {
                    "deltaTime": 0,
                    "type": "channel",
                    "subtype": "noteOff",
                    "channel": 5,
                    "noteNumber": 64,
                    "velocity": 0,
                    "lightChannels": [
                        3
                    ]
                }
            },
            "garden": {
                "pinValue": 1,
                "ticks": 0,
                "event": {
                    "deltaTime": 0,
                    "type": "channel",
                    "subtype": "noteOn",
                    "channel": 5,
                    "noteNumber": 64,
                    "velocity": 95,
                    "lightChannels": [
                        8
                    ]
                }
            }
        }
    },
    {
        "changes": {
            "col-3": 1,
            "garden": 0,
            "tree": 1
        },
        "timeout": 0.1578945,
        "raw": {
            "col-3": {
                "pinValue": 1,
                "ticks": 0,
                "event": {
                    "deltaTime": 0,
                    "type": "channel",
                    "subtype": "noteOn",
                    "channel": 5,
                    "noteNumber": 59,
                    "velocity": 95,
                    "lightChannels": [
                        5
                    ]
                }
            },
            "garden": {
                "pinValue": 0,
                "ticks": 0,
                "event": {
                    "deltaTime": 0,
                    "type": "channel",
                    "subtype": "noteOff",
                    "channel": 5,
                    "noteNumber": 64,
                    "velocity": 0,
                    "lightChannels": [
                        8
                    ]
                }
            },
            "tree": {
                "pinValue": 1,
                "ticks": 0,
                "event": {
                    "deltaTime": 0,
                    "type": "channel",
                    "subtype": "noteOn",
                    "channel": 2,
                    "noteNumber": 76,
                    "velocity": 47,
                    "lightChannels": [
                        8,
                        9
                    ]
                }
            }
        }
    },
    {
        "changes": {
            "col-3": 0,
            "tree": 1
        },
        "timeout": 0.1578945,
        "raw": {
            "col-3": {
                "pinValue": 0,
                "ticks": 240,
                "event": {
                    "deltaTime": 240,
                    "type": "channel",
                    "subtype": "noteOff",
                    "channel": 5,
                    "noteNumber": 59,
                    "velocity": 0,
                    "lightChannels": [
                        5
                    ]
                }
            },
            "tree": {
                "pinValue": 1,
                "ticks": 0,
                "event": {
                    "deltaTime": 0,
                    "type": "channel",
                    "subtype": "noteOn",
                    "channel": 5,
                    "noteNumber": 59,
                    "velocity": 95,
                    "lightChannels": [
                        9
                    ]
                }
            }
        }
    },
    {
        "changes": {
            "garage": 0,
            "top-right": 1,
            "garden": 0,
            "tree": 0,
            "col-1": 1,
            "col-2": 1
        },
        "timeout": 0.1578945,
        "raw": {
            "garage": {
                "pinValue": 0,
                "ticks": 240,
                "event": {
                    "deltaTime": 240,
                    "type": "channel",
                    "subtype": "noteOff",
                    "channel": 1,
                    "noteNumber": 76,
                    "velocity": 0,
                    "lightChannels": [
                        0
                    ]
                }
            },
            "top-right": {
                "pinValue": 1,
                "ticks": 0,
                "event": {
                    "deltaTime": 0,
                    "type": "channel",
                    "subtype": "noteOn",
                    "channel": 1,
                    "noteNumber": 74,
                    "velocity": 111,
                    "lightChannels": [
                        1
                    ]
                }
            },
            "garden": {
                "pinValue": 0,
                "ticks": 0,
                "event": {
                    "deltaTime": 0,
                    "type": "channel",
                    "subtype": "noteOff",
                    "channel": 2,
                    "noteNumber": 76,
                    "velocity": 0,
                    "lightChannels": [
                        8,
                        9
                    ]
                }
            },
            "tree": {
                "pinValue": 0,
                "ticks": 0,
                "event": {
                    "deltaTime": 0,
                    "type": "channel",
                    "subtype": "noteOff",
                    "channel": 5,
                    "noteNumber": 59,
                    "velocity": 0,
                    "lightChannels": [
                        9
                    ]
                }
            },
            "col-1": {
                "pinValue": 1,
                "ticks": 0,
                "event": {
                    "deltaTime": 0,
                    "type": "channel",
                    "subtype": "noteOn",
                    "channel": 2,
                    "noteNumber": 79,
                    "velocity": 47,
                    "lightChannels": [
                        3
                    ]
                }
            },
            "col-2": {
                "pinValue": 1,
                "ticks": 0,
                "event": {
                    "deltaTime": 0,
                    "type": "channel",
                    "subtype": "noteOn",
                    "channel": 5,
                    "noteNumber": 64,
                    "velocity": 95,
                    "lightChannels": [
                        4
                    ]
                }
            }
        }
    },
    {
        "changes": {
            "col-2": 0
        },
        "timeout": 0.1578945,
        "raw": {
            "col-2": {
                "pinValue": 0,
                "ticks": 240,
                "event": {
                    "deltaTime": 240,
                    "type": "channel",
                    "subtype": "noteOff",
                    "channel": 5,
                    "noteNumber": 64,
                    "velocity": 0,
                    "lightChannels": [
                        4
                    ]
                }
            }
        }
    },
    {
        "changes": {
            "top-right": 0,
            "bottom-right": 1,
            "col-1": 1,
            "col-2": 1
        },
        "timeout": 0.1578945,
        "raw": {
            "top-right": {
                "pinValue": 0,
                "ticks": 240,
                "event": {
                    "deltaTime": 240,
                    "type": "channel",
                    "subtype": "noteOff",
                    "channel": 1,
                    "noteNumber": 74,
                    "velocity": 0,
                    "lightChannels": [
                        1
                    ]
                }
            },
            "bottom-right": {
                "pinValue": 1,
                "ticks": 0,
                "event": {
                    "deltaTime": 0,
                    "type": "channel",
                    "subtype": "noteOn",
                    "channel": 1,
                    "noteNumber": 76,
                    "velocity": 111,
                    "lightChannels": [
                        2
                    ]
                }
            },
            "col-1": {
                "pinValue": 1,
                "ticks": 0,
                "event": {
                    "deltaTime": 0,
                    "type": "channel",
                    "subtype": "noteOn",
                    "channel": 5,
                    "noteNumber": 64,
                    "velocity": 95,
                    "lightChannels": [
                        3
                    ]
                }
            },
            "col-2": {
                "pinValue": 1,
                "ticks": 0,
                "event": {
                    "deltaTime": 0,
                    "type": "channel",
                    "subtype": "noteOn",
                    "channel": 2,
                    "noteNumber": 78,
                    "velocity": 47,
                    "lightChannels": [
                        4
                    ]
                }
            }
        }
    },
    {
        "changes": {
            "col-2": 0,
            "col-3": 1,
            "col-1": 0,
            "garden": 1
        },
        "timeout": 0.1578945,
        "raw": {
            "col-2": {
                "pinValue": 0,
                "ticks": 240,
                "event": {
                    "deltaTime": 240,
                    "type": "channel",
                    "subtype": "noteOff",
                    "channel": 2,
                    "noteNumber": 78,
                    "velocity": 0,
                    "lightChannels": [
                        4
                    ]
                }
            },
            "col-3": {
                "pinValue": 1,
                "ticks": 0,
                "event": {
                    "deltaTime": 0,
                    "type": "channel",
                    "subtype": "noteOn",
                    "channel": 2,
                    "noteNumber": 79,
                    "velocity": 47,
                    "lightChannels": [
                        5
                    ]
                }
            },
            "col-1": {
                "pinValue": 0,
                "ticks": 0,
                "event": {
                    "deltaTime": 0,
                    "type": "channel",
                    "subtype": "noteOff",
                    "channel": 5,
                    "noteNumber": 64,
                    "velocity": 0,
                    "lightChannels": [
                        3
                    ]
                }
            },
            "garden": {
                "pinValue": 1,
                "ticks": 0,
                "event": {
                    "deltaTime": 0,
                    "type": "channel",
                    "subtype": "noteOn",
                    "channel": 5,
                    "noteNumber": 64,
                    "velocity": 95,
                    "lightChannels": [
                        8
                    ]
                }
            }
        }
    },
    {
        "changes": {
            "col-3": 1,
            "garden": 0,
            "tree": 1
        },
        "timeout": 0.1578945,
        "raw": {
            "col-3": {
                "pinValue": 1,
                "ticks": 0,
                "event": {
                    "deltaTime": 0,
                    "type": "channel",
                    "subtype": "noteOn",
                    "channel": 5,
                    "noteNumber": 59,
                    "velocity": 95,
                    "lightChannels": [
                        5
                    ]
                }
            },
            "garden": {
                "pinValue": 0,
                "ticks": 0,
                "event": {
                    "deltaTime": 0,
                    "type": "channel",
                    "subtype": "noteOff",
                    "channel": 5,
                    "noteNumber": 64,
                    "velocity": 0,
                    "lightChannels": [
                        8
                    ]
                }
            },
            "tree": {
                "pinValue": 1,
                "ticks": 0,
                "event": {
                    "deltaTime": 0,
                    "type": "channel",
                    "subtype": "noteOn",
                    "channel": 2,
                    "noteNumber": 76,
                    "velocity": 47,
                    "lightChannels": [
                        8,
                        9
                    ]
                }
            }
        }
    },
    {
        "changes": {
            "col-3": 0,
            "tree": 1
        },
        "timeout": 0.1578945,
        "raw": {
            "col-3": {
                "pinValue": 0,
                "ticks": 240,
                "event": {
                    "deltaTime": 240,
                    "type": "channel",
                    "subtype": "noteOff",
                    "channel": 5,
                    "noteNumber": 59,
                    "velocity": 0,
                    "lightChannels": [
                        5
                    ]
                }
            },
            "tree": {
                "pinValue": 1,
                "ticks": 0,
                "event": {
                    "deltaTime": 0,
                    "type": "channel",
                    "subtype": "noteOn",
                    "channel": 5,
                    "noteNumber": 59,
                    "velocity": 95,
                    "lightChannels": [
                        9
                    ]
                }
            }
        }
    },
    {
        "changes": {
            "bottom-right": 0,
            "garage": 1,
            "garden": 0,
            "tree": 0,
            "col-1": 1,
            "col-2": 1
        },
        "timeout": 0.1578945,
        "raw": {
            "bottom-right": {
                "pinValue": 0,
                "ticks": 240,
                "event": {
                    "deltaTime": 240,
                    "type": "channel",
                    "subtype": "noteOff",
                    "channel": 1,
                    "noteNumber": 76,
                    "velocity": 0,
                    "lightChannels": [
                        2
                    ]
                }
            },
            "garage": {
                "pinValue": 1,
                "ticks": 0,
                "event": {
                    "deltaTime": 0,
                    "type": "channel",
                    "subtype": "noteOn",
                    "channel": 1,
                    "noteNumber": 83,
                    "velocity": 111,
                    "lightChannels": [
                        0
                    ]
                }
            },
            "garden": {
                "pinValue": 0,
                "ticks": 0,
                "event": {
                    "deltaTime": 0,
                    "type": "channel",
                    "subtype": "noteOff",
                    "channel": 2,
                    "noteNumber": 76,
                    "velocity": 0,
                    "lightChannels": [
                        8,
                        9
                    ]
                }
            },
            "tree": {
                "pinValue": 0,
                "ticks": 0,
                "event": {
                    "deltaTime": 0,
                    "type": "channel",
                    "subtype": "noteOff",
                    "channel": 5,
                    "noteNumber": 59,
                    "velocity": 0,
                    "lightChannels": [
                        9
                    ]
                }
            },
            "col-1": {
                "pinValue": 1,
                "ticks": 0,
                "event": {
                    "deltaTime": 0,
                    "type": "channel",
                    "subtype": "noteOn",
                    "channel": 2,
                    "noteNumber": 79,
                    "velocity": 47,
                    "lightChannels": [
                        3
                    ]
                }
            },
            "col-2": {
                "pinValue": 1,
                "ticks": 0,
                "event": {
                    "deltaTime": 0,
                    "type": "channel",
                    "subtype": "noteOn",
                    "channel": 5,
                    "noteNumber": 64,
                    "velocity": 95,
                    "lightChannels": [
                        4
                    ]
                }
            }
        }
    },
    {
        "changes": {
            "col-2": 0
        },
        "timeout": 0.1578945,
        "raw": {
            "col-2": {
                "pinValue": 0,
                "ticks": 240,
                "event": {
                    "deltaTime": 240,
                    "type": "channel",
                    "subtype": "noteOff",
                    "channel": 5,
                    "noteNumber": 64,
                    "velocity": 0,
                    "lightChannels": [
                        4
                    ]
                }
            }
        }
    },
    {
        "changes": {
            "garage": 1,
            "col-1": 1,
            "col-2": 1
        },
        "timeout": 0.1578945,
        "raw": {
            "garage": {
                "pinValue": 1,
                "ticks": 0,
                "event": {
                    "deltaTime": 0,
                    "type": "channel",
                    "subtype": "noteOn",
                    "channel": 1,
                    "noteNumber": 83,
                    "velocity": 111,
                    "lightChannels": [
                        0
                    ]
                }
            },
            "col-1": {
                "pinValue": 1,
                "ticks": 0,
                "event": {
                    "deltaTime": 0,
                    "type": "channel",
                    "subtype": "noteOn",
                    "channel": 5,
                    "noteNumber": 64,
                    "velocity": 95,
                    "lightChannels": [
                        3
                    ]
                }
            },
            "col-2": {
                "pinValue": 1,
                "ticks": 0,
                "event": {
                    "deltaTime": 0,
                    "type": "channel",
                    "subtype": "noteOn",
                    "channel": 2,
                    "noteNumber": 78,
                    "velocity": 47,
                    "lightChannels": [
                        4
                    ]
                }
            }
        }
    },
    {
        "changes": {
            "col-2": 0,
            "col-3": 1,
            "col-1": 0,
            "garden": 1
        },
        "timeout": 0.1578945,
        "raw": {
            "col-2": {
                "pinValue": 0,
                "ticks": 240,
                "event": {
                    "deltaTime": 240,
                    "type": "channel",
                    "subtype": "noteOff",
                    "channel": 2,
                    "noteNumber": 78,
                    "velocity": 0,
                    "lightChannels": [
                        4
                    ]
                }
            },
            "col-3": {
                "pinValue": 1,
                "ticks": 0,
                "event": {
                    "deltaTime": 0,
                    "type": "channel",
                    "subtype": "noteOn",
                    "channel": 2,
                    "noteNumber": 79,
                    "velocity": 47,
                    "lightChannels": [
                        5
                    ]
                }
            },
            "col-1": {
                "pinValue": 0,
                "ticks": 0,
                "event": {
                    "deltaTime": 0,
                    "type": "channel",
                    "subtype": "noteOff",
                    "channel": 5,
                    "noteNumber": 64,
                    "velocity": 0,
                    "lightChannels": [
                        3
                    ]
                }
            },
            "garden": {
                "pinValue": 1,
                "ticks": 0,
                "event": {
                    "deltaTime": 0,
                    "type": "channel",
                    "subtype": "noteOn",
                    "channel": 5,
                    "noteNumber": 64,
                    "velocity": 95,
                    "lightChannels": [
                        8
                    ]
                }
            }
        }
    },
    {
        "changes": {
            "col-3": 1,
            "garden": 0,
            "tree": 1
        },
        "timeout": 0.1578945,
        "raw": {
            "col-3": {
                "pinValue": 1,
                "ticks": 0,
                "event": {
                    "deltaTime": 0,
                    "type": "channel",
                    "subtype": "noteOn",
                    "channel": 5,
                    "noteNumber": 59,
                    "velocity": 95,
                    "lightChannels": [
                        5
                    ]
                }
            },
            "garden": {
                "pinValue": 0,
                "ticks": 0,
                "event": {
                    "deltaTime": 0,
                    "type": "channel",
                    "subtype": "noteOff",
                    "channel": 5,
                    "noteNumber": 64,
                    "velocity": 0,
                    "lightChannels": [
                        8
                    ]
                }
            },
            "tree": {
                "pinValue": 1,
                "ticks": 0,
                "event": {
                    "deltaTime": 0,
                    "type": "channel",
                    "subtype": "noteOn",
                    "channel": 2,
                    "noteNumber": 76,
                    "velocity": 47,
                    "lightChannels": [
                        8,
                        9
                    ]
                }
            }
        }
    },
    {
        "changes": {
            "col-3": 0,
            "tree": 1
        },
        "timeout": 0.1578945,
        "raw": {
            "col-3": {
                "pinValue": 0,
                "ticks": 240,
                "event": {
                    "deltaTime": 240,
                    "type": "channel",
                    "subtype": "noteOff",
                    "channel": 5,
                    "noteNumber": 59,
                    "velocity": 0,
                    "lightChannels": [
                        5
                    ]
                }
            },
            "tree": {
                "pinValue": 1,
                "ticks": 0,
                "event": {
                    "deltaTime": 0,
                    "type": "channel",
                    "subtype": "noteOn",
                    "channel": 5,
                    "noteNumber": 59,
                    "velocity": 95,
                    "lightChannels": [
                        9
                    ]
                }
            }
        }
    },
    {
        "changes": {
            "garage": 0,
            "bottom-right": 1,
            "garden": 0,
            "tree": 0,
            "col-1": 1
        },
        "timeout": 0.1578945,
        "raw": {
            "garage": {
                "pinValue": 0,
                "ticks": 240,
                "event": {
                    "deltaTime": 240,
                    "type": "channel",
                    "subtype": "noteOff",
                    "channel": 1,
                    "noteNumber": 83,
                    "velocity": 0,
                    "lightChannels": [
                        0
                    ]
                }
            },
            "bottom-right": {
                "pinValue": 1,
                "ticks": 0,
                "event": {
                    "deltaTime": 0,
                    "type": "channel",
                    "subtype": "noteOn",
                    "channel": 1,
                    "noteNumber": 81,
                    "velocity": 111,
                    "lightChannels": [
                        2
                    ]
                }
            },
            "garden": {
                "pinValue": 0,
                "ticks": 0,
                "event": {
                    "deltaTime": 0,
                    "type": "channel",
                    "subtype": "noteOff",
                    "channel": 2,
                    "noteNumber": 76,
                    "velocity": 0,
                    "lightChannels": [
                        8,
                        9
                    ]
                }
            },
            "tree": {
                "pinValue": 0,
                "ticks": 0,
                "event": {
                    "deltaTime": 0,
                    "type": "channel",
                    "subtype": "noteOff",
                    "channel": 5,
                    "noteNumber": 59,
                    "velocity": 0,
                    "lightChannels": [
                        9
                    ]
                }
            },
            "col-1": {
                "pinValue": 1,
                "ticks": 0,
                "event": {
                    "deltaTime": 0,
                    "type": "channel",
                    "subtype": "noteOn",
                    "channel": 5,
                    "noteNumber": 64,
                    "velocity": 95,
                    "lightChannels": [
                        3
                    ]
                }
            }
        }
    },
    {
        "changes": {
            "col-1": 0
        },
        "timeout": 0.1578945,
        "raw": {
            "col-1": {
                "pinValue": 0,
                "ticks": 240,
                "event": {
                    "deltaTime": 240,
                    "type": "channel",
                    "subtype": "noteOff",
                    "channel": 5,
                    "noteNumber": 64,
                    "velocity": 0,
                    "lightChannels": [
                        3
                    ]
                }
            }
        }
    },
    {
        "changes": {
            "bottom-right": 0,
            "garage": 1,
            "col-1": 0,
            "col-2": 1,
            "tree": 1
        },
        "timeout": 0.1578945,
        "raw": {
            "bottom-right": {
                "pinValue": 0,
                "ticks": 240,
                "event": {
                    "deltaTime": 240,
                    "type": "channel",
                    "subtype": "noteOff",
                    "channel": 1,
                    "noteNumber": 81,
                    "velocity": 0,
                    "lightChannels": [
                        2
                    ]
                }
            },
            "garage": {
                "pinValue": 1,
                "ticks": 0,
                "event": {
                    "deltaTime": 0,
                    "type": "channel",
                    "subtype": "noteOn",
                    "channel": 1,
                    "noteNumber": 79,
                    "velocity": 111,
                    "lightChannels": [
                        0
                    ]
                }
            },
            "col-1": {
                "pinValue": 0,
                "ticks": 0,
                "event": {
                    "deltaTime": 0,
                    "type": "channel",
                    "subtype": "noteOff",
                    "channel": 2,
                    "noteNumber": 79,
                    "velocity": 0,
                    "lightChannels": [
                        3
                    ]
                }
            },
            "col-2": {
                "pinValue": 1,
                "ticks": 0,
                "event": {
                    "deltaTime": 0,
                    "type": "channel",
                    "subtype": "noteOn",
                    "channel": 2,
                    "noteNumber": 78,
                    "velocity": 47,
                    "lightChannels": [
                        4
                    ]
                }
            },
            "tree": {
                "pinValue": 1,
                "ticks": 0,
                "event": {
                    "deltaTime": 0,
                    "type": "channel",
                    "subtype": "noteOn",
                    "channel": 5,
                    "noteNumber": 59,
                    "velocity": 95,
                    "lightChannels": [
                        9
                    ]
                }
            }
        }
    },
    {
        "changes": {
            "col-2": 0,
            "col-3": 1,
            "tree": 0
        },
        "timeout": 0.1578945,
        "raw": {
            "col-2": {
                "pinValue": 0,
                "ticks": 240,
                "event": {
                    "deltaTime": 240,
                    "type": "channel",
                    "subtype": "noteOff",
                    "channel": 2,
                    "noteNumber": 78,
                    "velocity": 0,
                    "lightChannels": [
                        4
                    ]
                }
            },
            "col-3": {
                "pinValue": 1,
                "ticks": 0,
                "event": {
                    "deltaTime": 0,
                    "type": "channel",
                    "subtype": "noteOn",
                    "channel": 5,
                    "noteNumber": 64,
                    "velocity": 95,
                    "lightChannels": [
                        5
                    ]
                }
            },
            "tree": {
                "pinValue": 0,
                "ticks": 0,
                "event": {
                    "deltaTime": 0,
                    "type": "channel",
                    "subtype": "noteOff",
                    "channel": 5,
                    "noteNumber": 59,
                    "velocity": 0,
                    "lightChannels": [
                        9
                    ]
                }
            }
        }
    },
    {
        "changes": {
            "col-3": 0,
            "garden": 1,
            "tree": 1
        },
        "timeout": 0.1578945,
        "raw": {
            "col-3": {
                "pinValue": 0,
                "ticks": 0,
                "event": {
                    "deltaTime": 0,
                    "type": "channel",
                    "subtype": "noteOff",
                    "channel": 5,
                    "noteNumber": 64,
                    "velocity": 0,
                    "lightChannels": [
                        5
                    ]
                }
            },
            "garden": {
                "pinValue": 1,
                "ticks": 0,
                "event": {
                    "deltaTime": 0,
                    "type": "channel",
                    "subtype": "noteOn",
                    "channel": 5,
                    "noteNumber": 59,
                    "velocity": 95,
                    "lightChannels": [
                        8
                    ]
                }
            },
            "tree": {
                "pinValue": 1,
                "ticks": 0,
                "event": {
                    "deltaTime": 0,
                    "type": "channel",
                    "subtype": "noteOn",
                    "channel": 2,
                    "noteNumber": 76,
                    "velocity": 47,
                    "lightChannels": [
                        8,
                        9
                    ]
                }
            }
        }
    },
    {
        "changes": {
            "garden": 0,
            "tree": 1
        },
        "timeout": 0.1578945,
        "raw": {
            "garden": {
                "pinValue": 0,
                "ticks": 240,
                "event": {
                    "deltaTime": 240,
                    "type": "channel",
                    "subtype": "noteOff",
                    "channel": 5,
                    "noteNumber": 59,
                    "velocity": 0,
                    "lightChannels": [
                        8
                    ]
                }
            },
            "tree": {
                "pinValue": 1,
                "ticks": 0,
                "event": {
                    "deltaTime": 0,
                    "type": "channel",
                    "subtype": "noteOn",
                    "channel": 5,
                    "noteNumber": 59,
                    "velocity": 95,
                    "lightChannels": [
                        9
                    ]
                }
            }
        }
    },
    {
        "changes": {
            "garage": 0,
            "top-right": 1,
            "garden": 0,
            "tree": 0,
            "col-1": 1,
            "col-2": 1
        },
        "timeout": 0.1578945,
        "raw": {
            "garage": {
                "pinValue": 0,
                "ticks": 240,
                "event": {
                    "deltaTime": 240,
                    "type": "channel",
                    "subtype": "noteOff",
                    "channel": 1,
                    "noteNumber": 79,
                    "velocity": 0,
                    "lightChannels": [
                        0
                    ]
                }
            },
            "top-right": {
                "pinValue": 1,
                "ticks": 0,
                "event": {
                    "deltaTime": 0,
                    "type": "channel",
                    "subtype": "noteOn",
                    "channel": 1,
                    "noteNumber": 78,
                    "velocity": 111,
                    "lightChannels": [
                        1
                    ]
                }
            },
            "garden": {
                "pinValue": 0,
                "ticks": 0,
                "event": {
                    "deltaTime": 0,
                    "type": "channel",
                    "subtype": "noteOff",
                    "channel": 2,
                    "noteNumber": 76,
                    "velocity": 0,
                    "lightChannels": [
                        8,
                        9
                    ]
                }
            },
            "tree": {
                "pinValue": 0,
                "ticks": 0,
                "event": {
                    "deltaTime": 0,
                    "type": "channel",
                    "subtype": "noteOff",
                    "channel": 5,
                    "noteNumber": 59,
                    "velocity": 0,
                    "lightChannels": [
                        9
                    ]
                }
            },
            "col-1": {
                "pinValue": 1,
                "ticks": 0,
                "event": {
                    "deltaTime": 0,
                    "type": "channel",
                    "subtype": "noteOn",
                    "channel": 2,
                    "noteNumber": 79,
                    "velocity": 47,
                    "lightChannels": [
                        3
                    ]
                }
            },
            "col-2": {
                "pinValue": 1,
                "ticks": 0,
                "event": {
                    "deltaTime": 0,
                    "type": "channel",
                    "subtype": "noteOn",
                    "channel": 5,
                    "noteNumber": 64,
                    "velocity": 95,
                    "lightChannels": [
                        4
                    ]
                }
            }
        }
    },
    {
        "changes": {
            "col-2": 0
        },
        "timeout": 0.1578945,
        "raw": {
            "col-2": {
                "pinValue": 0,
                "ticks": 240,
                "event": {
                    "deltaTime": 240,
                    "type": "channel",
                    "subtype": "noteOff",
                    "channel": 5,
                    "noteNumber": 64,
                    "velocity": 0,
                    "lightChannels": [
                        4
                    ]
                }
            }
        }
    },
    {
        "changes": {
            "top-right": 0,
            "garage": 1,
            "col-1": 1,
            "col-2": 1
        },
        "timeout": 0.1578945,
        "raw": {
            "top-right": {
                "pinValue": 0,
                "ticks": 240,
                "event": {
                    "deltaTime": 240,
                    "type": "channel",
                    "subtype": "noteOff",
                    "channel": 1,
                    "noteNumber": 78,
                    "velocity": 0,
                    "lightChannels": [
                        1
                    ]
                }
            },
            "garage": {
                "pinValue": 1,
                "ticks": 0,
                "event": {
                    "deltaTime": 0,
                    "type": "channel",
                    "subtype": "noteOn",
                    "channel": 1,
                    "noteNumber": 76,
                    "velocity": 111,
                    "lightChannels": [
                        0
                    ]
                }
            },
            "col-1": {
                "pinValue": 1,
                "ticks": 0,
                "event": {
                    "deltaTime": 0,
                    "type": "channel",
                    "subtype": "noteOn",
                    "channel": 5,
                    "noteNumber": 64,
                    "velocity": 95,
                    "lightChannels": [
                        3
                    ]
                }
            },
            "col-2": {
                "pinValue": 1,
                "ticks": 0,
                "event": {
                    "deltaTime": 0,
                    "type": "channel",
                    "subtype": "noteOn",
                    "channel": 2,
                    "noteNumber": 78,
                    "velocity": 47,
                    "lightChannels": [
                        4
                    ]
                }
            }
        }
    },
    {
        "changes": {
            "col-2": 0,
            "col-3": 1,
            "col-1": 0,
            "garden": 1
        },
        "timeout": 0.1578945,
        "raw": {
            "col-2": {
                "pinValue": 0,
                "ticks": 240,
                "event": {
                    "deltaTime": 240,
                    "type": "channel",
                    "subtype": "noteOff",
                    "channel": 2,
                    "noteNumber": 78,
                    "velocity": 0,
                    "lightChannels": [
                        4
                    ]
                }
            },
            "col-3": {
                "pinValue": 1,
                "ticks": 0,
                "event": {
                    "deltaTime": 0,
                    "type": "channel",
                    "subtype": "noteOn",
                    "channel": 2,
                    "noteNumber": 79,
                    "velocity": 47,
                    "lightChannels": [
                        5
                    ]
                }
            },
            "col-1": {
                "pinValue": 0,
                "ticks": 0,
                "event": {
                    "deltaTime": 0,
                    "type": "channel",
                    "subtype": "noteOff",
                    "channel": 5,
                    "noteNumber": 64,
                    "velocity": 0,
                    "lightChannels": [
                        3
                    ]
                }
            },
            "garden": {
                "pinValue": 1,
                "ticks": 0,
                "event": {
                    "deltaTime": 0,
                    "type": "channel",
                    "subtype": "noteOn",
                    "channel": 5,
                    "noteNumber": 64,
                    "velocity": 95,
                    "lightChannels": [
                        8
                    ]
                }
            }
        }
    },
    {
        "changes": {
            "col-3": 1,
            "garden": 0,
            "tree": 1
        },
        "timeout": 0.1578945,
        "raw": {
            "col-3": {
                "pinValue": 1,
                "ticks": 0,
                "event": {
                    "deltaTime": 0,
                    "type": "channel",
                    "subtype": "noteOn",
                    "channel": 5,
                    "noteNumber": 59,
                    "velocity": 95,
                    "lightChannels": [
                        5
                    ]
                }
            },
            "garden": {
                "pinValue": 0,
                "ticks": 0,
                "event": {
                    "deltaTime": 0,
                    "type": "channel",
                    "subtype": "noteOff",
                    "channel": 5,
                    "noteNumber": 64,
                    "velocity": 0,
                    "lightChannels": [
                        8
                    ]
                }
            },
            "tree": {
                "pinValue": 1,
                "ticks": 0,
                "event": {
                    "deltaTime": 0,
                    "type": "channel",
                    "subtype": "noteOn",
                    "channel": 2,
                    "noteNumber": 76,
                    "velocity": 47,
                    "lightChannels": [
                        8,
                        9
                    ]
                }
            }
        }
    },
    {
        "changes": {
            "col-3": 0,
            "tree": 1
        },
        "timeout": 0.1578945,
        "raw": {
            "col-3": {
                "pinValue": 0,
                "ticks": 240,
                "event": {
                    "deltaTime": 240,
                    "type": "channel",
                    "subtype": "noteOff",
                    "channel": 5,
                    "noteNumber": 59,
                    "velocity": 0,
                    "lightChannels": [
                        5
                    ]
                }
            },
            "tree": {
                "pinValue": 1,
                "ticks": 0,
                "event": {
                    "deltaTime": 0,
                    "type": "channel",
                    "subtype": "noteOn",
                    "channel": 5,
                    "noteNumber": 59,
                    "velocity": 95,
                    "lightChannels": [
                        9
                    ]
                }
            }
        }
    },
    {
        "changes": {
            "garage": 0,
            "garden": 0,
            "tree": 0,
            "col-1": 1
        },
        "timeout": 0.1578945,
        "raw": {
            "garage": {
                "pinValue": 0,
                "ticks": 240,
                "event": {
                    "deltaTime": 240,
                    "type": "channel",
                    "subtype": "noteOff",
                    "channel": 1,
                    "noteNumber": 76,
                    "velocity": 0,
                    "lightChannels": [
                        0
                    ]
                }
            },
            "garden": {
                "pinValue": 0,
                "ticks": 0,
                "event": {
                    "deltaTime": 0,
                    "type": "channel",
                    "subtype": "noteOff",
                    "channel": 2,
                    "noteNumber": 76,
                    "velocity": 0,
                    "lightChannels": [
                        8,
                        9
                    ]
                }
            },
            "tree": {
                "pinValue": 0,
                "ticks": 0,
                "event": {
                    "deltaTime": 0,
                    "type": "channel",
                    "subtype": "noteOff",
                    "channel": 5,
                    "noteNumber": 59,
                    "velocity": 0,
                    "lightChannels": [
                        9
                    ]
                }
            },
            "col-1": {
                "pinValue": 1,
                "ticks": 0,
                "event": {
                    "deltaTime": 0,
                    "type": "channel",
                    "subtype": "noteOn",
                    "channel": 5,
                    "noteNumber": 64,
                    "velocity": 111,
                    "lightChannels": [
                        3
                    ]
                }
            }
        }
    },
    {
        "changes": {
            "col-1": 0
        },
        "timeout": 0.1578945,
        "raw": {
            "col-1": {
                "pinValue": 0,
                "ticks": 240,
                "event": {
                    "deltaTime": 240,
                    "type": "channel",
                    "subtype": "noteOff",
                    "channel": 5,
                    "noteNumber": 64,
                    "velocity": 0,
                    "lightChannels": [
                        3
                    ]
                }
            }
        }
    },
    {
        "changes": {
            "tree": 1
        },
        "timeout": 0.1578945,
        "raw": {
            "tree": {
                "pinValue": 1,
                "ticks": 240,
                "event": {
                    "deltaTime": 240,
                    "type": "channel",
                    "subtype": "noteOn",
                    "channel": 5,
                    "noteNumber": 59,
                    "velocity": 111,
                    "lightChannels": [
                        9
                    ]
                }
            }
        }
    },
    {
        "changes": {
            "tree": 0,
            "col-3": 1
        },
        "timeout": 0.1578945,
        "raw": {
            "tree": {
                "pinValue": 0,
                "ticks": 240,
                "event": {
                    "deltaTime": 240,
                    "type": "channel",
                    "subtype": "noteOff",
                    "channel": 5,
                    "noteNumber": 59,
                    "velocity": 0,
                    "lightChannels": [
                        9
                    ]
                }
            },
            "col-3": {
                "pinValue": 1,
                "ticks": 0,
                "event": {
                    "deltaTime": 0,
                    "type": "channel",
                    "subtype": "noteOn",
                    "channel": 5,
                    "noteNumber": 64,
                    "velocity": 111,
                    "lightChannels": [
                        5
                    ]
                }
            }
        }
    },
    {
        "changes": {
            "col-3": 0,
            "garden": 1
        },
        "timeout": 0.1578945,
        "raw": {
            "col-3": {
                "pinValue": 0,
                "ticks": 240,
                "event": {
                    "deltaTime": 240,
                    "type": "channel",
                    "subtype": "noteOff",
                    "channel": 5,
                    "noteNumber": 64,
                    "velocity": 0,
                    "lightChannels": [
                        5
                    ]
                }
            },
            "garden": {
                "pinValue": 1,
                "ticks": 0,
                "event": {
                    "deltaTime": 0,
                    "type": "channel",
                    "subtype": "noteOn",
                    "channel": 5,
                    "noteNumber": 59,
                    "velocity": 111,
                    "lightChannels": [
                        8
                    ]
                }
            }
        }
    },
    {
        "changes": {
            "garden": 0,
            "tree": 1
        },
        "timeout": 0.1578945,
        "raw": {
            "garden": {
                "pinValue": 0,
                "ticks": 240,
                "event": {
                    "deltaTime": 240,
                    "type": "channel",
                    "subtype": "noteOff",
                    "channel": 5,
                    "noteNumber": 59,
                    "velocity": 0,
                    "lightChannels": [
                        8
                    ]
                }
            },
            "tree": {
                "pinValue": 1,
                "ticks": 0,
                "event": {
                    "deltaTime": 0,
                    "type": "channel",
                    "subtype": "noteOn",
                    "channel": 5,
                    "noteNumber": 59,
                    "velocity": 111,
                    "lightChannels": [
                        9
                    ]
                }
            }
        }
    },
    {
        "changes": {
            "tree": 0,
            "col-2": 1
        },
        "timeout": 0.1578945,
        "raw": {
            "tree": {
                "pinValue": 0,
                "ticks": 240,
                "event": {
                    "deltaTime": 240,
                    "type": "channel",
                    "subtype": "noteOff",
                    "channel": 5,
                    "noteNumber": 59,
                    "velocity": 0,
                    "lightChannels": [
                        9
                    ]
                }
            },
            "col-2": {
                "pinValue": 1,
                "ticks": 0,
                "event": {
                    "deltaTime": 0,
                    "type": "channel",
                    "subtype": "noteOn",
                    "channel": 5,
                    "noteNumber": 64,
                    "velocity": 111,
                    "lightChannels": [
                        4
                    ]
                }
            }
        }
    },
    {
        "changes": {
            "col-2": 0
        },
        "timeout": 0.1578945,
        "raw": {
            "col-2": {
                "pinValue": 0,
                "ticks": 240,
                "event": {
                    "deltaTime": 240,
                    "type": "channel",
                    "subtype": "noteOff",
                    "channel": 5,
                    "noteNumber": 64,
                    "velocity": 0,
                    "lightChannels": [
                        4
                    ]
                }
            }
        }
    },
    {
        "changes": {
            "col-1": 1
        },
        "timeout": 0.1578945,
        "raw": {
            "col-1": {
                "pinValue": 1,
                "ticks": 240,
                "event": {
                    "deltaTime": 240,
                    "type": "channel",
                    "subtype": "noteOn",
                    "channel": 5,
                    "noteNumber": 64,
                    "velocity": 111,
                    "lightChannels": [
                        3
                    ]
                }
            }
        }
    },
    {
        "changes": {
            "col-1": 0,
            "garden": 1
        },
        "timeout": 0.1578945,
        "raw": {
            "col-1": {
                "pinValue": 0,
                "ticks": 240,
                "event": {
                    "deltaTime": 240,
                    "type": "channel",
                    "subtype": "noteOff",
                    "channel": 5,
                    "noteNumber": 64,
                    "velocity": 0,
                    "lightChannels": [
                        3
                    ]
                }
            },
            "garden": {
                "pinValue": 1,
                "ticks": 0,
                "event": {
                    "deltaTime": 0,
                    "type": "channel",
                    "subtype": "noteOn",
                    "channel": 5,
                    "noteNumber": 64,
                    "velocity": 111,
                    "lightChannels": [
                        8
                    ]
                }
            }
        }
    },
    {
        "changes": {
            "garden": 0,
            "col-3": 1
        },
        "timeout": 0.1578945,
        "raw": {
            "garden": {
                "pinValue": 0,
                "ticks": 240,
                "event": {
                    "deltaTime": 240,
                    "type": "channel",
                    "subtype": "noteOff",
                    "channel": 5,
                    "noteNumber": 64,
                    "velocity": 0,
                    "lightChannels": [
                        8
                    ]
                }
            },
            "col-3": {
                "pinValue": 1,
                "ticks": 0,
                "event": {
                    "deltaTime": 0,
                    "type": "channel",
                    "subtype": "noteOn",
                    "channel": 5,
                    "noteNumber": 59,
                    "velocity": 111,
                    "lightChannels": [
                        5
                    ]
                }
            }
        }
    },
    {
        "changes": {
            "col-3": 0,
            "tree": 1
        },
        "timeout": 0.1578945,
        "raw": {
            "col-3": {
                "pinValue": 0,
                "ticks": 240,
                "event": {
                    "deltaTime": 240,
                    "type": "channel",
                    "subtype": "noteOff",
                    "channel": 5,
                    "noteNumber": 59,
                    "velocity": 0,
                    "lightChannels": [
                        5
                    ]
                }
            },
            "tree": {
                "pinValue": 1,
                "ticks": 0,
                "event": {
                    "deltaTime": 0,
                    "type": "channel",
                    "subtype": "noteOn",
                    "channel": 5,
                    "noteNumber": 59,
                    "velocity": 111,
                    "lightChannels": [
                        9
                    ]
                }
            }
        }
    },
    {
        "changes": {
            "tree": 0,
            "col-1": 1
        },
        "timeout": 0.1578945,
        "raw": {
            "tree": {
                "pinValue": 0,
                "ticks": 240,
                "event": {
                    "deltaTime": 240,
                    "type": "channel",
                    "subtype": "noteOff",
                    "channel": 5,
                    "noteNumber": 59,
                    "velocity": 0,
                    "lightChannels": [
                        9
                    ]
                }
            },
            "col-1": {
                "pinValue": 1,
                "ticks": 0,
                "event": {
                    "deltaTime": 0,
                    "type": "channel",
                    "subtype": "noteOn",
                    "channel": 5,
                    "noteNumber": 64,
                    "velocity": 111,
                    "lightChannels": [
                        3
                    ]
                }
            }
        }
    },
    {
        "changes": {
            "col-1": 0
        },
        "timeout": 0.1578945,
        "raw": {
            "col-1": {
                "pinValue": 0,
                "ticks": 240,
                "event": {
                    "deltaTime": 240,
                    "type": "channel",
                    "subtype": "noteOff",
                    "channel": 5,
                    "noteNumber": 64,
                    "velocity": 0,
                    "lightChannels": [
                        3
                    ]
                }
            }
        }
    },
    {
        "changes": {
            "tree": 1
        },
        "timeout": 0.1578945,
        "raw": {
            "tree": {
                "pinValue": 1,
                "ticks": 240,
                "event": {
                    "deltaTime": 240,
                    "type": "channel",
                    "subtype": "noteOn",
                    "channel": 5,
                    "noteNumber": 59,
                    "velocity": 111,
                    "lightChannels": [
                        9
                    ]
                }
            }
        }
    },
    {
        "changes": {
            "tree": 0,
            "col-3": 1
        },
        "timeout": 0.1578945,
        "raw": {
            "tree": {
                "pinValue": 0,
                "ticks": 240,
                "event": {
                    "deltaTime": 240,
                    "type": "channel",
                    "subtype": "noteOff",
                    "channel": 5,
                    "noteNumber": 59,
                    "velocity": 0,
                    "lightChannels": [
                        9
                    ]
                }
            },
            "col-3": {
                "pinValue": 1,
                "ticks": 0,
                "event": {
                    "deltaTime": 0,
                    "type": "channel",
                    "subtype": "noteOn",
                    "channel": 5,
                    "noteNumber": 64,
                    "velocity": 111,
                    "lightChannels": [
                        5
                    ]
                }
            }
        }
    },
    {
        "changes": {
            "col-3": 0,
            "garden": 1
        },
        "timeout": 0.1578945,
        "raw": {
            "col-3": {
                "pinValue": 0,
                "ticks": 240,
                "event": {
                    "deltaTime": 240,
                    "type": "channel",
                    "subtype": "noteOff",
                    "channel": 5,
                    "noteNumber": 64,
                    "velocity": 0,
                    "lightChannels": [
                        5
                    ]
                }
            },
            "garden": {
                "pinValue": 1,
                "ticks": 0,
                "event": {
                    "deltaTime": 0,
                    "type": "channel",
                    "subtype": "noteOn",
                    "channel": 5,
                    "noteNumber": 59,
                    "velocity": 111,
                    "lightChannels": [
                        8
                    ]
                }
            }
        }
    },
    {
        "changes": {
            "garden": 0,
            "tree": 1
        },
        "timeout": 0.1578945,
        "raw": {
            "garden": {
                "pinValue": 0,
                "ticks": 240,
                "event": {
                    "deltaTime": 240,
                    "type": "channel",
                    "subtype": "noteOff",
                    "channel": 5,
                    "noteNumber": 59,
                    "velocity": 0,
                    "lightChannels": [
                        8
                    ]
                }
            },
            "tree": {
                "pinValue": 1,
                "ticks": 0,
                "event": {
                    "deltaTime": 0,
                    "type": "channel",
                    "subtype": "noteOn",
                    "channel": 5,
                    "noteNumber": 59,
                    "velocity": 111,
                    "lightChannels": [
                        9
                    ]
                }
            }
        }
    },
    {
        "changes": {
            "tree": 0,
            "col-2": 1
        },
        "timeout": 0.1578945,
        "raw": {
            "tree": {
                "pinValue": 0,
                "ticks": 240,
                "event": {
                    "deltaTime": 240,
                    "type": "channel",
                    "subtype": "noteOff",
                    "channel": 5,
                    "noteNumber": 59,
                    "velocity": 0,
                    "lightChannels": [
                        9
                    ]
                }
            },
            "col-2": {
                "pinValue": 1,
                "ticks": 0,
                "event": {
                    "deltaTime": 0,
                    "type": "channel",
                    "subtype": "noteOn",
                    "channel": 5,
                    "noteNumber": 64,
                    "velocity": 111,
                    "lightChannels": [
                        4
                    ]
                }
            }
        }
    },
    {
        "changes": {
            "col-2": 0
        },
        "timeout": 0.1578945,
        "raw": {
            "col-2": {
                "pinValue": 0,
                "ticks": 240,
                "event": {
                    "deltaTime": 240,
                    "type": "channel",
                    "subtype": "noteOff",
                    "channel": 5,
                    "noteNumber": 64,
                    "velocity": 0,
                    "lightChannels": [
                        4
                    ]
                }
            }
        }
    },
    {
        "changes": {
            "col-1": 1
        },
        "timeout": 0.1578945,
        "raw": {
            "col-1": {
                "pinValue": 1,
                "ticks": 240,
                "event": {
                    "deltaTime": 240,
                    "type": "channel",
                    "subtype": "noteOn",
                    "channel": 5,
                    "noteNumber": 64,
                    "velocity": 111,
                    "lightChannels": [
                        3
                    ]
                }
            }
        }
    },
    {
        "changes": {
            "col-1": 0,
            "garden": 1
        },
        "timeout": 0.1578945,
        "raw": {
            "col-1": {
                "pinValue": 0,
                "ticks": 240,
                "event": {
                    "deltaTime": 240,
                    "type": "channel",
                    "subtype": "noteOff",
                    "channel": 5,
                    "noteNumber": 64,
                    "velocity": 0,
                    "lightChannels": [
                        3
                    ]
                }
            },
            "garden": {
                "pinValue": 1,
                "ticks": 0,
                "event": {
                    "deltaTime": 0,
                    "type": "channel",
                    "subtype": "noteOn",
                    "channel": 5,
                    "noteNumber": 64,
                    "velocity": 111,
                    "lightChannels": [
                        8
                    ]
                }
            }
        }
    },
    {
        "changes": {
            "garden": 0,
            "col-3": 1
        },
        "timeout": 0.1578945,
        "raw": {
            "garden": {
                "pinValue": 0,
                "ticks": 240,
                "event": {
                    "deltaTime": 240,
                    "type": "channel",
                    "subtype": "noteOff",
                    "channel": 5,
                    "noteNumber": 64,
                    "velocity": 0,
                    "lightChannels": [
                        8
                    ]
                }
            },
            "col-3": {
                "pinValue": 1,
                "ticks": 0,
                "event": {
                    "deltaTime": 0,
                    "type": "channel",
                    "subtype": "noteOn",
                    "channel": 5,
                    "noteNumber": 59,
                    "velocity": 111,
                    "lightChannels": [
                        5
                    ]
                }
            }
        }
    },
    {
        "changes": {
            "col-3": 0,
            "tree": 1
        },
        "timeout": 0.1578945,
        "raw": {
            "col-3": {
                "pinValue": 0,
                "ticks": 240,
                "event": {
                    "deltaTime": 240,
                    "type": "channel",
                    "subtype": "noteOff",
                    "channel": 5,
                    "noteNumber": 59,
                    "velocity": 0,
                    "lightChannels": [
                        5
                    ]
                }
            },
            "tree": {
                "pinValue": 1,
                "ticks": 0,
                "event": {
                    "deltaTime": 0,
                    "type": "channel",
                    "subtype": "noteOn",
                    "channel": 5,
                    "noteNumber": 59,
                    "velocity": 111,
                    "lightChannels": [
                        9
                    ]
                }
            }
        }
    },
    {
        "changes": {
            "tree": 0,
            "col-1": 1
        },
        "timeout": 0.1578945,
        "raw": {
            "tree": {
                "pinValue": 0,
                "ticks": 240,
                "event": {
                    "deltaTime": 240,
                    "type": "channel",
                    "subtype": "noteOff",
                    "channel": 5,
                    "noteNumber": 59,
                    "velocity": 0,
                    "lightChannels": [
                        9
                    ]
                }
            },
            "col-1": {
                "pinValue": 1,
                "ticks": 0,
                "event": {
                    "deltaTime": 0,
                    "type": "channel",
                    "subtype": "noteOn",
                    "channel": 5,
                    "noteNumber": 64,
                    "velocity": 111,
                    "lightChannels": [
                        3
                    ]
                }
            }
        }
    },
    {
        "changes": {
            "col-1": 0
        },
        "timeout": 0.1578945,
        "raw": {
            "col-1": {
                "pinValue": 0,
                "ticks": 240,
                "event": {
                    "deltaTime": 240,
                    "type": "channel",
                    "subtype": "noteOff",
                    "channel": 5,
                    "noteNumber": 64,
                    "velocity": 0,
                    "lightChannels": [
                        3
                    ]
                }
            }
        }
    },
    {
        "changes": {
            "tree": 1
        },
        "timeout": 0.1578945,
        "raw": {
            "tree": {
                "pinValue": 1,
                "ticks": 240,
                "event": {
                    "deltaTime": 240,
                    "type": "channel",
                    "subtype": "noteOn",
                    "channel": 5,
                    "noteNumber": 59,
                    "velocity": 111,
                    "lightChannels": [
                        9
                    ]
                }
            }
        }
    },
    {
        "changes": {
            "tree": 0,
            "col-3": 1
        },
        "timeout": 0.1578945,
        "raw": {
            "tree": {
                "pinValue": 0,
                "ticks": 240,
                "event": {
                    "deltaTime": 240,
                    "type": "channel",
                    "subtype": "noteOff",
                    "channel": 5,
                    "noteNumber": 59,
                    "velocity": 0,
                    "lightChannels": [
                        9
                    ]
                }
            },
            "col-3": {
                "pinValue": 1,
                "ticks": 0,
                "event": {
                    "deltaTime": 0,
                    "type": "channel",
                    "subtype": "noteOn",
                    "channel": 5,
                    "noteNumber": 64,
                    "velocity": 111,
                    "lightChannels": [
                        5
                    ]
                }
            }
        }
    },
    {
        "changes": {
            "col-3": 0,
            "garden": 1
        },
        "timeout": 0.1578945,
        "raw": {
            "col-3": {
                "pinValue": 0,
                "ticks": 240,
                "event": {
                    "deltaTime": 240,
                    "type": "channel",
                    "subtype": "noteOff",
                    "channel": 5,
                    "noteNumber": 64,
                    "velocity": 0,
                    "lightChannels": [
                        5
                    ]
                }
            },
            "garden": {
                "pinValue": 1,
                "ticks": 0,
                "event": {
                    "deltaTime": 0,
                    "type": "channel",
                    "subtype": "noteOn",
                    "channel": 5,
                    "noteNumber": 59,
                    "velocity": 111,
                    "lightChannels": [
                        8
                    ]
                }
            }
        }
    },
    {
        "changes": {
            "garden": 0,
            "tree": 1
        },
        "timeout": 0.1578945,
        "raw": {
            "garden": {
                "pinValue": 0,
                "ticks": 240,
                "event": {
                    "deltaTime": 240,
                    "type": "channel",
                    "subtype": "noteOff",
                    "channel": 5,
                    "noteNumber": 59,
                    "velocity": 0,
                    "lightChannels": [
                        8
                    ]
                }
            },
            "tree": {
                "pinValue": 1,
                "ticks": 0,
                "event": {
                    "deltaTime": 0,
                    "type": "channel",
                    "subtype": "noteOn",
                    "channel": 5,
                    "noteNumber": 59,
                    "velocity": 111,
                    "lightChannels": [
                        9
                    ]
                }
            }
        }
    },
    {
        "changes": {
            "tree": 0,
            "col-2": 1
        },
        "timeout": 0.1578945,
        "raw": {
            "tree": {
                "pinValue": 0,
                "ticks": 240,
                "event": {
                    "deltaTime": 240,
                    "type": "channel",
                    "subtype": "noteOff",
                    "channel": 5,
                    "noteNumber": 59,
                    "velocity": 0,
                    "lightChannels": [
                        9
                    ]
                }
            },
            "col-2": {
                "pinValue": 1,
                "ticks": 0,
                "event": {
                    "deltaTime": 0,
                    "type": "channel",
                    "subtype": "noteOn",
                    "channel": 5,
                    "noteNumber": 64,
                    "velocity": 111,
                    "lightChannels": [
                        4
                    ]
                }
            }
        }
    },
    {
        "changes": {
            "col-2": 0
        },
        "timeout": 0.1578945,
        "raw": {
            "col-2": {
                "pinValue": 0,
                "ticks": 240,
                "event": {
                    "deltaTime": 240,
                    "type": "channel",
                    "subtype": "noteOff",
                    "channel": 5,
                    "noteNumber": 64,
                    "velocity": 0,
                    "lightChannels": [
                        4
                    ]
                }
            }
        }
    },
    {
        "changes": {
            "col-1": 1
        },
        "timeout": 0.1578945,
        "raw": {
            "col-1": {
                "pinValue": 1,
                "ticks": 240,
                "event": {
                    "deltaTime": 240,
                    "type": "channel",
                    "subtype": "noteOn",
                    "channel": 5,
                    "noteNumber": 64,
                    "velocity": 111,
                    "lightChannels": [
                        3
                    ]
                }
            }
        }
    },
    {
        "changes": {
            "col-1": 0,
            "garden": 1
        },
        "timeout": 0.1578945,
        "raw": {
            "col-1": {
                "pinValue": 0,
                "ticks": 240,
                "event": {
                    "deltaTime": 240,
                    "type": "channel",
                    "subtype": "noteOff",
                    "channel": 5,
                    "noteNumber": 64,
                    "velocity": 0,
                    "lightChannels": [
                        3
                    ]
                }
            },
            "garden": {
                "pinValue": 1,
                "ticks": 0,
                "event": {
                    "deltaTime": 0,
                    "type": "channel",
                    "subtype": "noteOn",
                    "channel": 5,
                    "noteNumber": 64,
                    "velocity": 111,
                    "lightChannels": [
                        8
                    ]
                }
            }
        }
    },
    {
        "changes": {
            "garden": 0,
            "col-3": 1
        },
        "timeout": 0.1578945,
        "raw": {
            "garden": {
                "pinValue": 0,
                "ticks": 240,
                "event": {
                    "deltaTime": 240,
                    "type": "channel",
                    "subtype": "noteOff",
                    "channel": 5,
                    "noteNumber": 64,
                    "velocity": 0,
                    "lightChannels": [
                        8
                    ]
                }
            },
            "col-3": {
                "pinValue": 1,
                "ticks": 0,
                "event": {
                    "deltaTime": 0,
                    "type": "channel",
                    "subtype": "noteOn",
                    "channel": 5,
                    "noteNumber": 59,
                    "velocity": 111,
                    "lightChannels": [
                        5
                    ]
                }
            }
        }
    },
    {
        "changes": {
            "col-3": 0,
            "tree": 1
        },
        "timeout": 0.1578945,
        "raw": {
            "col-3": {
                "pinValue": 0,
                "ticks": 240,
                "event": {
                    "deltaTime": 240,
                    "type": "channel",
                    "subtype": "noteOff",
                    "channel": 5,
                    "noteNumber": 59,
                    "velocity": 0,
                    "lightChannels": [
                        5
                    ]
                }
            },
            "tree": {
                "pinValue": 1,
                "ticks": 0,
                "event": {
                    "deltaTime": 0,
                    "type": "channel",
                    "subtype": "noteOn",
                    "channel": 5,
                    "noteNumber": 59,
                    "velocity": 111,
                    "lightChannels": [
                        9
                    ]
                }
            }
        }
    },
    {
        "changes": {
            "tree": 0,
            "col-1": 1
        },
        "timeout": 0.1578945,
        "raw": {
            "tree": {
                "pinValue": 0,
                "ticks": 240,
                "event": {
                    "deltaTime": 240,
                    "type": "channel",
                    "subtype": "noteOff",
                    "channel": 5,
                    "noteNumber": 59,
                    "velocity": 0,
                    "lightChannels": [
                        9
                    ]
                }
            },
            "col-1": {
                "pinValue": 1,
                "ticks": 0,
                "event": {
                    "deltaTime": 0,
                    "type": "channel",
                    "subtype": "noteOn",
                    "channel": 5,
                    "noteNumber": 64,
                    "velocity": 111,
                    "lightChannels": [
                        3
                    ]
                }
            }
        }
    },
    {
        "changes": {
            "col-1": 0
        },
        "timeout": 0.1578945,
        "raw": {
            "col-1": {
                "pinValue": 0,
                "ticks": 240,
                "event": {
                    "deltaTime": 240,
                    "type": "channel",
                    "subtype": "noteOff",
                    "channel": 5,
                    "noteNumber": 64,
                    "velocity": 0,
                    "lightChannels": [
                        3
                    ]
                }
            }
        }
    },
    {
        "changes": {
            "tree": 1
        },
        "timeout": 0.1578945,
        "raw": {
            "tree": {
                "pinValue": 1,
                "ticks": 240,
                "event": {
                    "deltaTime": 240,
                    "type": "channel",
                    "subtype": "noteOn",
                    "channel": 5,
                    "noteNumber": 59,
                    "velocity": 111,
                    "lightChannels": [
                        9
                    ]
                }
            }
        }
    },
    {
        "changes": {
            "tree": 0,
            "col-3": 1
        },
        "timeout": 0.1578945,
        "raw": {
            "tree": {
                "pinValue": 0,
                "ticks": 240,
                "event": {
                    "deltaTime": 240,
                    "type": "channel",
                    "subtype": "noteOff",
                    "channel": 5,
                    "noteNumber": 59,
                    "velocity": 0,
                    "lightChannels": [
                        9
                    ]
                }
            },
            "col-3": {
                "pinValue": 1,
                "ticks": 0,
                "event": {
                    "deltaTime": 0,
                    "type": "channel",
                    "subtype": "noteOn",
                    "channel": 5,
                    "noteNumber": 64,
                    "velocity": 111,
                    "lightChannels": [
                        5
                    ]
                }
            }
        }
    },
    {
        "changes": {
            "col-3": 0,
            "garden": 1
        },
        "timeout": 0.1578945,
        "raw": {
            "col-3": {
                "pinValue": 0,
                "ticks": 240,
                "event": {
                    "deltaTime": 240,
                    "type": "channel",
                    "subtype": "noteOff",
                    "channel": 5,
                    "noteNumber": 64,
                    "velocity": 0,
                    "lightChannels": [
                        5
                    ]
                }
            },
            "garden": {
                "pinValue": 1,
                "ticks": 0,
                "event": {
                    "deltaTime": 0,
                    "type": "channel",
                    "subtype": "noteOn",
                    "channel": 5,
                    "noteNumber": 59,
                    "velocity": 111,
                    "lightChannels": [
                        8
                    ]
                }
            }
        }
    },
    {
        "changes": {
            "garden": 0,
            "tree": 1
        },
        "timeout": 0.1578945,
        "raw": {
            "garden": {
                "pinValue": 0,
                "ticks": 240,
                "event": {
                    "deltaTime": 240,
                    "type": "channel",
                    "subtype": "noteOff",
                    "channel": 5,
                    "noteNumber": 59,
                    "velocity": 0,
                    "lightChannels": [
                        8
                    ]
                }
            },
            "tree": {
                "pinValue": 1,
                "ticks": 0,
                "event": {
                    "deltaTime": 0,
                    "type": "channel",
                    "subtype": "noteOn",
                    "channel": 5,
                    "noteNumber": 59,
                    "velocity": 111,
                    "lightChannels": [
                        9
                    ]
                }
            }
        }
    },
    {
        "changes": {
            "tree": 0,
            "col-2": 1
        },
        "timeout": 0.1578945,
        "raw": {
            "tree": {
                "pinValue": 0,
                "ticks": 240,
                "event": {
                    "deltaTime": 240,
                    "type": "channel",
                    "subtype": "noteOff",
                    "channel": 5,
                    "noteNumber": 59,
                    "velocity": 0,
                    "lightChannels": [
                        9
                    ]
                }
            },
            "col-2": {
                "pinValue": 1,
                "ticks": 0,
                "event": {
                    "deltaTime": 0,
                    "type": "channel",
                    "subtype": "noteOn",
                    "channel": 5,
                    "noteNumber": 64,
                    "velocity": 111,
                    "lightChannels": [
                        4
                    ]
                }
            }
        }
    },
    {
        "changes": {
            "col-2": 0
        },
        "timeout": 0.1578945,
        "raw": {
            "col-2": {
                "pinValue": 0,
                "ticks": 240,
                "event": {
                    "deltaTime": 240,
                    "type": "channel",
                    "subtype": "noteOff",
                    "channel": 5,
                    "noteNumber": 64,
                    "velocity": 0,
                    "lightChannels": [
                        4
                    ]
                }
            }
        }
    },
    {
        "changes": {
            "col-1": 1
        },
        "timeout": 0.1578945,
        "raw": {
            "col-1": {
                "pinValue": 1,
                "ticks": 240,
                "event": {
                    "deltaTime": 240,
                    "type": "channel",
                    "subtype": "noteOn",
                    "channel": 5,
                    "noteNumber": 64,
                    "velocity": 111,
                    "lightChannels": [
                        3
                    ]
                }
            }
        }
    },
    {
        "changes": {
            "col-1": 0,
            "garden": 1
        },
        "timeout": 0.1578945,
        "raw": {
            "col-1": {
                "pinValue": 0,
                "ticks": 240,
                "event": {
                    "deltaTime": 240,
                    "type": "channel",
                    "subtype": "noteOff",
                    "channel": 5,
                    "noteNumber": 64,
                    "velocity": 0,
                    "lightChannels": [
                        3
                    ]
                }
            },
            "garden": {
                "pinValue": 1,
                "ticks": 0,
                "event": {
                    "deltaTime": 0,
                    "type": "channel",
                    "subtype": "noteOn",
                    "channel": 5,
                    "noteNumber": 64,
                    "velocity": 111,
                    "lightChannels": [
                        8
                    ]
                }
            }
        }
    },
    {
        "changes": {
            "garden": 0,
            "col-3": 1
        },
        "timeout": 0.1578945,
        "raw": {
            "garden": {
                "pinValue": 0,
                "ticks": 240,
                "event": {
                    "deltaTime": 240,
                    "type": "channel",
                    "subtype": "noteOff",
                    "channel": 5,
                    "noteNumber": 64,
                    "velocity": 0,
                    "lightChannels": [
                        8
                    ]
                }
            },
            "col-3": {
                "pinValue": 1,
                "ticks": 0,
                "event": {
                    "deltaTime": 0,
                    "type": "channel",
                    "subtype": "noteOn",
                    "channel": 5,
                    "noteNumber": 59,
                    "velocity": 111,
                    "lightChannels": [
                        5
                    ]
                }
            }
        }
    },
    {
        "changes": {
            "col-3": 0,
            "tree": 1
        },
        "timeout": 0.1578945,
        "raw": {
            "col-3": {
                "pinValue": 0,
                "ticks": 240,
                "event": {
                    "deltaTime": 240,
                    "type": "channel",
                    "subtype": "noteOff",
                    "channel": 5,
                    "noteNumber": 59,
                    "velocity": 0,
                    "lightChannels": [
                        5
                    ]
                }
            },
            "tree": {
                "pinValue": 1,
                "ticks": 0,
                "event": {
                    "deltaTime": 0,
                    "type": "channel",
                    "subtype": "noteOn",
                    "channel": 5,
                    "noteNumber": 59,
                    "velocity": 111,
                    "lightChannels": [
                        9
                    ]
                }
            }
        }
    },
    {
        "changes": {
            "tree": 0,
            "garage": 1
        },
        "timeout": 0.1578945,
        "raw": {
            "tree": {
                "pinValue": 0,
                "ticks": 240,
                "event": {
                    "deltaTime": 240,
                    "type": "channel",
                    "subtype": "noteOff",
                    "channel": 5,
                    "noteNumber": 59,
                    "velocity": 0,
                    "lightChannels": [
                        9
                    ]
                }
            },
            "garage": {
                "pinValue": 1,
                "ticks": 0,
                "event": {
                    "deltaTime": 0,
                    "type": "channel",
                    "subtype": "noteOn",
                    "channel": 5,
                    "noteNumber": 76,
                    "velocity": 111,
                    "lightChannels": [
                        0
                    ]
                }
            }
        }
    },
    {
        "changes": {
            "garage": 0,
            "col-1": 1
        },
        "timeout": 0.315789,
        "raw": {
            "garage": {
                "pinValue": 0,
                "ticks": 480,
                "event": {
                    "deltaTime": 480,
                    "type": "channel",
                    "subtype": "noteOff",
                    "channel": 5,
                    "noteNumber": 76,
                    "velocity": 0,
                    "lightChannels": [
                        0
                    ]
                }
            },
            "col-1": {
                "pinValue": 1,
                "ticks": 0,
                "event": {
                    "deltaTime": 0,
                    "type": "channel",
                    "subtype": "noteOn",
                    "channel": 5,
                    "noteNumber": 59,
                    "velocity": 111,
                    "lightChannels": [
                        3
                    ]
                }
            }
        }
    },
    {
        "changes": {
            "col-1": 0,
            "garden": 1
        },
        "timeout": 0.1578945,
        "raw": {
            "col-1": {
                "pinValue": 0,
                "ticks": 240,
                "event": {
                    "deltaTime": 240,
                    "type": "channel",
                    "subtype": "noteOff",
                    "channel": 5,
                    "noteNumber": 59,
                    "velocity": 0,
                    "lightChannels": [
                        3
                    ]
                }
            },
            "garden": {
                "pinValue": 1,
                "ticks": 0,
                "event": {
                    "deltaTime": 0,
                    "type": "channel",
                    "subtype": "noteOn",
                    "channel": 5,
                    "noteNumber": 64,
                    "velocity": 111,
                    "lightChannels": [
                        8
                    ]
                }
            }
        }
    },
    {
        "changes": {
            "garden": 0,
            "col-3": 1
        },
        "timeout": 0.1578945,
        "raw": {
            "garden": {
                "pinValue": 0,
                "ticks": 240,
                "event": {
                    "deltaTime": 240,
                    "type": "channel",
                    "subtype": "noteOff",
                    "channel": 5,
                    "noteNumber": 64,
                    "velocity": 0,
                    "lightChannels": [
                        8
                    ]
                }
            },
            "col-3": {
                "pinValue": 1,
                "ticks": 0,
                "event": {
                    "deltaTime": 0,
                    "type": "channel",
                    "subtype": "noteOn",
                    "channel": 5,
                    "noteNumber": 59,
                    "velocity": 111,
                    "lightChannels": [
                        5
                    ]
                }
            }
        }
    },
    {
        "changes": {
            "col-3": 0,
            "tree": 1
        },
        "timeout": 0.1578945,
        "raw": {
            "col-3": {
                "pinValue": 0,
                "ticks": 240,
                "event": {
                    "deltaTime": 240,
                    "type": "channel",
                    "subtype": "noteOff",
                    "channel": 5,
                    "noteNumber": 59,
                    "velocity": 0,
                    "lightChannels": [
                        5
                    ]
                }
            },
            "tree": {
                "pinValue": 1,
                "ticks": 0,
                "event": {
                    "deltaTime": 0,
                    "type": "channel",
                    "subtype": "noteOn",
                    "channel": 5,
                    "noteNumber": 59,
                    "velocity": 111,
                    "lightChannels": [
                        9
                    ]
                }
            }
        }
    },
    {
        "changes": {
            "tree": 0,
            "top-right": 1
        },
        "timeout": 0.1578945,
        "raw": {
            "tree": {
                "pinValue": 0,
                "ticks": 240,
                "event": {
                    "deltaTime": 240,
                    "type": "channel",
                    "subtype": "noteOff",
                    "channel": 5,
                    "noteNumber": 59,
                    "velocity": 0,
                    "lightChannels": [
                        9
                    ]
                }
            },
            "top-right": {
                "pinValue": 1,
                "ticks": 0,
                "event": {
                    "deltaTime": 0,
                    "type": "channel",
                    "subtype": "noteOn",
                    "channel": 5,
                    "noteNumber": 74,
                    "velocity": 111,
                    "lightChannels": [
                        1
                    ]
                }
            }
        }
    },
    {
        "changes": {
            "top-right": 0,
            "col-2": 1
        },
        "timeout": 0.315789,
        "raw": {
            "top-right": {
                "pinValue": 0,
                "ticks": 480,
                "event": {
                    "deltaTime": 480,
                    "type": "channel",
                    "subtype": "noteOff",
                    "channel": 5,
                    "noteNumber": 74,
                    "velocity": 0,
                    "lightChannels": [
                        1
                    ]
                }
            },
            "col-2": {
                "pinValue": 1,
                "ticks": 0,
                "event": {
                    "deltaTime": 0,
                    "type": "channel",
                    "subtype": "noteOn",
                    "channel": 5,
                    "noteNumber": 64,
                    "velocity": 111,
                    "lightChannels": [
                        4
                    ]
                }
            }
        }
    },
    {
        "changes": {
            "col-2": 0,
            "col-1": 1
        },
        "timeout": 0.1578945,
        "raw": {
            "col-2": {
                "pinValue": 0,
                "ticks": 240,
                "event": {
                    "deltaTime": 240,
                    "type": "channel",
                    "subtype": "noteOff",
                    "channel": 5,
                    "noteNumber": 64,
                    "velocity": 0,
                    "lightChannels": [
                        4
                    ]
                }
            },
            "col-1": {
                "pinValue": 1,
                "ticks": 0,
                "event": {
                    "deltaTime": 0,
                    "type": "channel",
                    "subtype": "noteOn",
                    "channel": 5,
                    "noteNumber": 64,
                    "velocity": 111,
                    "lightChannels": [
                        3
                    ]
                }
            }
        }
    },
    {
        "changes": {
            "col-1": 0,
            "garden": 1
        },
        "timeout": 0.1578945,
        "raw": {
            "col-1": {
                "pinValue": 0,
                "ticks": 240,
                "event": {
                    "deltaTime": 240,
                    "type": "channel",
                    "subtype": "noteOff",
                    "channel": 5,
                    "noteNumber": 64,
                    "velocity": 0,
                    "lightChannels": [
                        3
                    ]
                }
            },
            "garden": {
                "pinValue": 1,
                "ticks": 0,
                "event": {
                    "deltaTime": 0,
                    "type": "channel",
                    "subtype": "noteOn",
                    "channel": 5,
                    "noteNumber": 59,
                    "velocity": 111,
                    "lightChannels": [
                        8
                    ]
                }
            }
        }
    },
    {
        "changes": {
            "garden": 0,
            "tree": 1
        },
        "timeout": 0.1578945,
        "raw": {
            "garden": {
                "pinValue": 0,
                "ticks": 240,
                "event": {
                    "deltaTime": 240,
                    "type": "channel",
                    "subtype": "noteOff",
                    "channel": 5,
                    "noteNumber": 59,
                    "velocity": 0,
                    "lightChannels": [
                        8
                    ]
                }
            },
            "tree": {
                "pinValue": 1,
                "ticks": 0,
                "event": {
                    "deltaTime": 0,
                    "type": "channel",
                    "subtype": "noteOn",
                    "channel": 5,
                    "noteNumber": 59,
                    "velocity": 111,
                    "lightChannels": [
                        9
                    ]
                }
            }
        }
    },
    {
        "changes": {
            "tree": 0,
            "bottom-right": 1
        },
        "timeout": 0.1578945,
        "raw": {
            "tree": {
                "pinValue": 0,
                "ticks": 240,
                "event": {
                    "deltaTime": 240,
                    "type": "channel",
                    "subtype": "noteOff",
                    "channel": 5,
                    "noteNumber": 59,
                    "velocity": 0,
                    "lightChannels": [
                        9
                    ]
                }
            },
            "bottom-right": {
                "pinValue": 1,
                "ticks": 0,
                "event": {
                    "deltaTime": 0,
                    "type": "channel",
                    "subtype": "noteOn",
                    "channel": 5,
                    "noteNumber": 72,
                    "velocity": 111,
                    "lightChannels": [
                        2
                    ]
                }
            }
        }
    },
    {
        "changes": {
            "bottom-right": 0,
            "col-3": 1
        },
        "timeout": 0.315789,
        "raw": {
            "bottom-right": {
                "pinValue": 0,
                "ticks": 480,
                "event": {
                    "deltaTime": 480,
                    "type": "channel",
                    "subtype": "noteOff",
                    "channel": 5,
                    "noteNumber": 72,
                    "velocity": 0,
                    "lightChannels": [
                        2
                    ]
                }
            },
            "col-3": {
                "pinValue": 1,
                "ticks": 0,
                "event": {
                    "deltaTime": 0,
                    "type": "channel",
                    "subtype": "noteOn",
                    "channel": 5,
                    "noteNumber": 59,
                    "velocity": 111,
                    "lightChannels": [
                        5
                    ]
                }
            }
        }
    },
    {
        "changes": {
            "col-3": 0,
            "col-1": 1
        },
        "timeout": 0.1578945,
        "raw": {
            "col-3": {
                "pinValue": 0,
                "ticks": 240,
                "event": {
                    "deltaTime": 240,
                    "type": "channel",
                    "subtype": "noteOff",
                    "channel": 5,
                    "noteNumber": 59,
                    "velocity": 0,
                    "lightChannels": [
                        5
                    ]
                }
            },
            "col-1": {
                "pinValue": 1,
                "ticks": 0,
                "event": {
                    "deltaTime": 0,
                    "type": "channel",
                    "subtype": "noteOn",
                    "channel": 5,
                    "noteNumber": 64,
                    "velocity": 111,
                    "lightChannels": [
                        3
                    ]
                }
            }
        }
    },
    {
        "changes": {
            "col-1": 0,
            "tree": 1
        },
        "timeout": 0.1578945,
        "raw": {
            "col-1": {
                "pinValue": 0,
                "ticks": 240,
                "event": {
                    "deltaTime": 240,
                    "type": "channel",
                    "subtype": "noteOff",
                    "channel": 5,
                    "noteNumber": 64,
                    "velocity": 0,
                    "lightChannels": [
                        3
                    ]
                }
            },
            "tree": {
                "pinValue": 1,
                "ticks": 0,
                "event": {
                    "deltaTime": 0,
                    "type": "channel",
                    "subtype": "noteOn",
                    "channel": 5,
                    "noteNumber": 59,
                    "velocity": 111,
                    "lightChannels": [
                        9
                    ]
                }
            }
        }
    },
    {
        "changes": {
            "tree": 0,
            "col-2": 1
        },
        "timeout": 0.1578945,
        "raw": {
            "tree": {
                "pinValue": 0,
                "ticks": 240,
                "event": {
                    "deltaTime": 240,
                    "type": "channel",
                    "subtype": "noteOff",
                    "channel": 5,
                    "noteNumber": 59,
                    "velocity": 0,
                    "lightChannels": [
                        9
                    ]
                }
            },
            "col-2": {
                "pinValue": 1,
                "ticks": 0,
                "event": {
                    "deltaTime": 0,
                    "type": "channel",
                    "subtype": "noteOn",
                    "channel": 5,
                    "noteNumber": 59,
                    "velocity": 111,
                    "lightChannels": [
                        4
                    ]
                }
            }
        }
    },
    {
        "changes": {
            "col-2": 0,
            "garage": 1,
            "top-right": 1,
            "bottom-right": 1
        },
        "timeout": 0.1578945,
        "raw": {
            "col-2": {
                "pinValue": 0,
                "ticks": 240,
                "event": {
                    "deltaTime": 240,
                    "type": "channel",
                    "subtype": "noteOff",
                    "channel": 5,
                    "noteNumber": 59,
                    "velocity": 0,
                    "lightChannels": [
                        4
                    ]
                }
            },
            "garage": {
                "pinValue": 1,
                "ticks": 0,
                "event": {
                    "deltaTime": 0,
                    "type": "channel",
                    "subtype": "noteOn",
                    "channel": 5,
                    "noteNumber": 71,
                    "velocity": 111,
                    "lightChannels": [
                        0,
                        1,
                        2
                    ]
                }
            },
            "top-right": {
                "pinValue": 1,
                "ticks": 0,
                "event": {
                    "deltaTime": 0,
                    "type": "channel",
                    "subtype": "noteOn",
                    "channel": 5,
                    "noteNumber": 71,
                    "velocity": 111,
                    "lightChannels": [
                        0,
                        1,
                        2
                    ]
                }
            },
            "bottom-right": {
                "pinValue": 1,
                "ticks": 0,
                "event": {
                    "deltaTime": 0,
                    "type": "channel",
                    "subtype": "noteOn",
                    "channel": 5,
                    "noteNumber": 71,
                    "velocity": 111,
                    "lightChannels": [
                        0,
                        1,
                        2
                    ]
                }
            }
        }
    },
    {
        "changes": {
            "garage": 0,
            "top-right": 0,
            "bottom-right": 0,
            "col-3": 1
        },
        "timeout": 0.315789,
        "raw": {
            "garage": {
                "pinValue": 0,
                "ticks": 480,
                "event": {
                    "deltaTime": 480,
                    "type": "channel",
                    "subtype": "noteOff",
                    "channel": 5,
                    "noteNumber": 71,
                    "velocity": 0,
                    "lightChannels": [
                        0,
                        1,
                        2
                    ]
                }
            },
            "top-right": {
                "pinValue": 0,
                "ticks": 480,
                "event": {
                    "deltaTime": 480,
                    "type": "channel",
                    "subtype": "noteOff",
                    "channel": 5,
                    "noteNumber": 71,
                    "velocity": 0,
                    "lightChannels": [
                        0,
                        1,
                        2
                    ]
                }
            },
            "bottom-right": {
                "pinValue": 0,
                "ticks": 480,
                "event": {
                    "deltaTime": 480,
                    "type": "channel",
                    "subtype": "noteOff",
                    "channel": 5,
                    "noteNumber": 71,
                    "velocity": 0,
                    "lightChannels": [
                        0,
                        1,
                        2
                    ]
                }
            },
            "col-3": {
                "pinValue": 1,
                "ticks": 0,
                "event": {
                    "deltaTime": 0,
                    "type": "channel",
                    "subtype": "noteOn",
                    "channel": 5,
                    "noteNumber": 64,
                    "velocity": 111,
                    "lightChannels": [
                        5
                    ]
                }
            }
        }
    },
    {
        "changes": {
            "col-3": 0,
            "garden": 1
        },
        "timeout": 0.1578945,
        "raw": {
            "col-3": {
                "pinValue": 0,
                "ticks": 240,
                "event": {
                    "deltaTime": 240,
                    "type": "channel",
                    "subtype": "noteOff",
                    "channel": 5,
                    "noteNumber": 64,
                    "velocity": 0,
                    "lightChannels": [
                        5
                    ]
                }
            },
            "garden": {
                "pinValue": 1,
                "ticks": 0,
                "event": {
                    "deltaTime": 0,
                    "type": "channel",
                    "subtype": "noteOn",
                    "channel": 5,
                    "noteNumber": 64,
                    "velocity": 111,
                    "lightChannels": [
                        8
                    ]
                }
            }
        }
    },
    {
        "changes": {
            "garden": 0,
            "col-1": 1
        },
        "timeout": 0.1578945,
        "raw": {
            "garden": {
                "pinValue": 0,
                "ticks": 240,
                "event": {
                    "deltaTime": 240,
                    "type": "channel",
                    "subtype": "noteOff",
                    "channel": 5,
                    "noteNumber": 64,
                    "velocity": 0,
                    "lightChannels": [
                        8
                    ]
                }
            },
            "col-1": {
                "pinValue": 1,
                "ticks": 0,
                "event": {
                    "deltaTime": 0,
                    "type": "channel",
                    "subtype": "noteOn",
                    "channel": 5,
                    "noteNumber": 59,
                    "velocity": 111,
                    "lightChannels": [
                        3
                    ]
                }
            }
        }
    },
    {
        "changes": {
            "col-1": 0,
            "tree": 1
        },
        "timeout": 0.1578945,
        "raw": {
            "col-1": {
                "pinValue": 0,
                "ticks": 240,
                "event": {
                    "deltaTime": 240,
                    "type": "channel",
                    "subtype": "noteOff",
                    "channel": 5,
                    "noteNumber": 59,
                    "velocity": 0,
                    "lightChannels": [
                        3
                    ]
                }
            },
            "tree": {
                "pinValue": 1,
                "ticks": 0,
                "event": {
                    "deltaTime": 0,
                    "type": "channel",
                    "subtype": "noteOn",
                    "channel": 5,
                    "noteNumber": 59,
                    "velocity": 111,
                    "lightChannels": [
                        9
                    ]
                }
            }
        }
    },
    {
        "changes": {
            "garage": 1,
            "tree": 0
        },
        "timeout": 0.1578945,
        "raw": {
            "garage": {
                "pinValue": 1,
                "ticks": 0,
                "event": {
                    "deltaTime": 0,
                    "type": "channel",
                    "subtype": "noteOn",
                    "channel": 4,
                    "noteNumber": 76,
                    "velocity": 95,
                    "lightChannels": [
                        0
                    ]
                }
            },
            "tree": {
                "pinValue": 0,
                "ticks": 0,
                "event": {
                    "deltaTime": 0,
                    "type": "channel",
                    "subtype": "noteOff",
                    "channel": 5,
                    "noteNumber": 59,
                    "velocity": 0,
                    "lightChannels": [
                        9
                    ]
                }
            }
        }
    },
    {
        "changes": {
            "col-1": 1
        },
        "timeout": 0.315789,
        "raw": {
            "col-1": {
                "pinValue": 1,
                "ticks": 0,
                "event": {
                    "deltaTime": 0,
                    "type": "channel",
                    "subtype": "noteOn",
                    "channel": 5,
                    "noteNumber": 59,
                    "velocity": 111,
                    "lightChannels": [
                        3
                    ]
                }
            }
        }
    },
    {
        "changes": {
            "col-1": 0,
            "garden": 1
        },
        "timeout": 0.1578945,
        "raw": {
            "col-1": {
                "pinValue": 0,
                "ticks": 240,
                "event": {
                    "deltaTime": 240,
                    "type": "channel",
                    "subtype": "noteOff",
                    "channel": 5,
                    "noteNumber": 59,
                    "velocity": 0,
                    "lightChannels": [
                        3
                    ]
                }
            },
            "garden": {
                "pinValue": 1,
                "ticks": 0,
                "event": {
                    "deltaTime": 0,
                    "type": "channel",
                    "subtype": "noteOn",
                    "channel": 5,
                    "noteNumber": 64,
                    "velocity": 111,
                    "lightChannels": [
                        8
                    ]
                }
            }
        }
    },
    {
        "changes": {
            "garden": 0,
            "col-3": 1
        },
        "timeout": 0.1578945,
        "raw": {
            "garden": {
                "pinValue": 0,
                "ticks": 240,
                "event": {
                    "deltaTime": 240,
                    "type": "channel",
                    "subtype": "noteOff",
                    "channel": 5,
                    "noteNumber": 64,
                    "velocity": 0,
                    "lightChannels": [
                        8
                    ]
                }
            },
            "col-3": {
                "pinValue": 1,
                "ticks": 0,
                "event": {
                    "deltaTime": 0,
                    "type": "channel",
                    "subtype": "noteOn",
                    "channel": 5,
                    "noteNumber": 59,
                    "velocity": 111,
                    "lightChannels": [
                        5
                    ]
                }
            }
        }
    },
    {
        "changes": {
            "col-3": 0,
            "tree": 1
        },
        "timeout": 0.1578945,
        "raw": {
            "col-3": {
                "pinValue": 0,
                "ticks": 240,
                "event": {
                    "deltaTime": 240,
                    "type": "channel",
                    "subtype": "noteOff",
                    "channel": 5,
                    "noteNumber": 59,
                    "velocity": 0,
                    "lightChannels": [
                        5
                    ]
                }
            },
            "tree": {
                "pinValue": 1,
                "ticks": 0,
                "event": {
                    "deltaTime": 0,
                    "type": "channel",
                    "subtype": "noteOn",
                    "channel": 5,
                    "noteNumber": 59,
                    "velocity": 111,
                    "lightChannels": [
                        9
                    ]
                }
            }
        }
    },
    {
        "changes": {
            "garage": 0,
            "top-right": 1,
            "tree": 0
        },
        "timeout": 0.1578945,
        "raw": {
            "garage": {
                "pinValue": 0,
                "ticks": 0,
                "event": {
                    "deltaTime": 0,
                    "type": "channel",
                    "subtype": "noteOff",
                    "channel": 4,
                    "noteNumber": 76,
                    "velocity": 0,
                    "lightChannels": [
                        0
                    ]
                }
            },
            "top-right": {
                "pinValue": 1,
                "ticks": 0,
                "event": {
                    "deltaTime": 0,
                    "type": "channel",
                    "subtype": "noteOn",
                    "channel": 4,
                    "noteNumber": 74,
                    "velocity": 95,
                    "lightChannels": [
                        1
                    ]
                }
            },
            "tree": {
                "pinValue": 0,
                "ticks": 0,
                "event": {
                    "deltaTime": 0,
                    "type": "channel",
                    "subtype": "noteOff",
                    "channel": 5,
                    "noteNumber": 59,
                    "velocity": 0,
                    "lightChannels": [
                        9
                    ]
                }
            }
        }
    },
    {
        "changes": {
            "col-2": 1
        },
        "timeout": 0.315789,
        "raw": {
            "col-2": {
                "pinValue": 1,
                "ticks": 0,
                "event": {
                    "deltaTime": 0,
                    "type": "channel",
                    "subtype": "noteOn",
                    "channel": 5,
                    "noteNumber": 64,
                    "velocity": 111,
                    "lightChannels": [
                        4
                    ]
                }
            }
        }
    },
    {
        "changes": {
            "col-2": 0,
            "col-1": 1
        },
        "timeout": 0.1578945,
        "raw": {
            "col-2": {
                "pinValue": 0,
                "ticks": 240,
                "event": {
                    "deltaTime": 240,
                    "type": "channel",
                    "subtype": "noteOff",
                    "channel": 5,
                    "noteNumber": 64,
                    "velocity": 0,
                    "lightChannels": [
                        4
                    ]
                }
            },
            "col-1": {
                "pinValue": 1,
                "ticks": 0,
                "event": {
                    "deltaTime": 0,
                    "type": "channel",
                    "subtype": "noteOn",
                    "channel": 5,
                    "noteNumber": 64,
                    "velocity": 111,
                    "lightChannels": [
                        3
                    ]
                }
            }
        }
    },
    {
        "changes": {
            "col-1": 0,
            "garden": 1
        },
        "timeout": 0.1578945,
        "raw": {
            "col-1": {
                "pinValue": 0,
                "ticks": 240,
                "event": {
                    "deltaTime": 240,
                    "type": "channel",
                    "subtype": "noteOff",
                    "channel": 5,
                    "noteNumber": 64,
                    "velocity": 0,
                    "lightChannels": [
                        3
                    ]
                }
            },
            "garden": {
                "pinValue": 1,
                "ticks": 0,
                "event": {
                    "deltaTime": 0,
                    "type": "channel",
                    "subtype": "noteOn",
                    "channel": 5,
                    "noteNumber": 59,
                    "velocity": 111,
                    "lightChannels": [
                        8
                    ]
                }
            }
        }
    },
    {
        "changes": {
            "garden": 0,
            "tree": 1
        },
        "timeout": 0.1578945,
        "raw": {
            "garden": {
                "pinValue": 0,
                "ticks": 240,
                "event": {
                    "deltaTime": 240,
                    "type": "channel",
                    "subtype": "noteOff",
                    "channel": 5,
                    "noteNumber": 59,
                    "velocity": 0,
                    "lightChannels": [
                        8
                    ]
                }
            },
            "tree": {
                "pinValue": 1,
                "ticks": 0,
                "event": {
                    "deltaTime": 0,
                    "type": "channel",
                    "subtype": "noteOn",
                    "channel": 5,
                    "noteNumber": 59,
                    "velocity": 111,
                    "lightChannels": [
                        9
                    ]
                }
            }
        }
    },
    {
        "changes": {
            "top-right": 0,
            "bottom-right": 1,
            "tree": 0
        },
        "timeout": 0.1578945,
        "raw": {
            "top-right": {
                "pinValue": 0,
                "ticks": 240,
                "event": {
                    "deltaTime": 240,
                    "type": "channel",
                    "subtype": "noteOff",
                    "channel": 4,
                    "noteNumber": 74,
                    "velocity": 0,
                    "lightChannels": [
                        1
                    ]
                }
            },
            "bottom-right": {
                "pinValue": 1,
                "ticks": 0,
                "event": {
                    "deltaTime": 0,
                    "type": "channel",
                    "subtype": "noteOn",
                    "channel": 4,
                    "noteNumber": 72,
                    "velocity": 95,
                    "lightChannels": [
                        2
                    ]
                }
            },
            "tree": {
                "pinValue": 0,
                "ticks": 0,
                "event": {
                    "deltaTime": 0,
                    "type": "channel",
                    "subtype": "noteOff",
                    "channel": 5,
                    "noteNumber": 59,
                    "velocity": 0,
                    "lightChannels": [
                        9
                    ]
                }
            }
        }
    },
    {
        "changes": {
            "col-3": 1
        },
        "timeout": 0.315789,
        "raw": {
            "col-3": {
                "pinValue": 1,
                "ticks": 0,
                "event": {
                    "deltaTime": 0,
                    "type": "channel",
                    "subtype": "noteOn",
                    "channel": 5,
                    "noteNumber": 59,
                    "velocity": 111,
                    "lightChannels": [
                        5
                    ]
                }
            }
        }
    },
    {
        "changes": {
            "col-3": 0,
            "col-1": 1
        },
        "timeout": 0.1578945,
        "raw": {
            "col-3": {
                "pinValue": 0,
                "ticks": 240,
                "event": {
                    "deltaTime": 240,
                    "type": "channel",
                    "subtype": "noteOff",
                    "channel": 5,
                    "noteNumber": 59,
                    "velocity": 0,
                    "lightChannels": [
                        5
                    ]
                }
            },
            "col-1": {
                "pinValue": 1,
                "ticks": 0,
                "event": {
                    "deltaTime": 0,
                    "type": "channel",
                    "subtype": "noteOn",
                    "channel": 5,
                    "noteNumber": 64,
                    "velocity": 111,
                    "lightChannels": [
                        3
                    ]
                }
            }
        }
    },
    {
        "changes": {
            "col-1": 0,
            "tree": 1
        },
        "timeout": 0.1578945,
        "raw": {
            "col-1": {
                "pinValue": 0,
                "ticks": 240,
                "event": {
                    "deltaTime": 240,
                    "type": "channel",
                    "subtype": "noteOff",
                    "channel": 5,
                    "noteNumber": 64,
                    "velocity": 0,
                    "lightChannels": [
                        3
                    ]
                }
            },
            "tree": {
                "pinValue": 1,
                "ticks": 0,
                "event": {
                    "deltaTime": 0,
                    "type": "channel",
                    "subtype": "noteOn",
                    "channel": 5,
                    "noteNumber": 59,
                    "velocity": 111,
                    "lightChannels": [
                        9
                    ]
                }
            }
        }
    },
    {
        "changes": {
            "tree": 0,
            "col-2": 1
        },
        "timeout": 0.1578945,
        "raw": {
            "tree": {
                "pinValue": 0,
                "ticks": 240,
                "event": {
                    "deltaTime": 240,
                    "type": "channel",
                    "subtype": "noteOff",
                    "channel": 5,
                    "noteNumber": 59,
                    "velocity": 0,
                    "lightChannels": [
                        9
                    ]
                }
            },
            "col-2": {
                "pinValue": 1,
                "ticks": 0,
                "event": {
                    "deltaTime": 0,
                    "type": "channel",
                    "subtype": "noteOn",
                    "channel": 5,
                    "noteNumber": 59,
                    "velocity": 111,
                    "lightChannels": [
                        4
                    ]
                }
            }
        }
    },
    {
        "changes": {
            "bottom-right": 1,
            "garage": 1,
            "top-right": 1,
            "col-2": 0
        },
        "timeout": 0.1578945,
        "raw": {
            "bottom-right": {
                "pinValue": 1,
                "ticks": 0,
                "event": {
                    "deltaTime": 0,
                    "type": "channel",
                    "subtype": "noteOn",
                    "channel": 4,
                    "noteNumber": 71,
                    "velocity": 95,
                    "lightChannels": [
                        0,
                        1,
                        2
                    ]
                }
            },
            "garage": {
                "pinValue": 1,
                "ticks": 0,
                "event": {
                    "deltaTime": 0,
                    "type": "channel",
                    "subtype": "noteOn",
                    "channel": 4,
                    "noteNumber": 71,
                    "velocity": 95,
                    "lightChannels": [
                        0,
                        1,
                        2
                    ]
                }
            },
            "top-right": {
                "pinValue": 1,
                "ticks": 0,
                "event": {
                    "deltaTime": 0,
                    "type": "channel",
                    "subtype": "noteOn",
                    "channel": 4,
                    "noteNumber": 71,
                    "velocity": 95,
                    "lightChannels": [
                        0,
                        1,
                        2
                    ]
                }
            },
            "col-2": {
                "pinValue": 0,
                "ticks": 0,
                "event": {
                    "deltaTime": 0,
                    "type": "channel",
                    "subtype": "noteOff",
                    "channel": 5,
                    "noteNumber": 59,
                    "velocity": 0,
                    "lightChannels": [
                        4
                    ]
                }
            }
        }
    },
    {
        "changes": {
            "col-1": 1
        },
        "timeout": 0.315789,
        "raw": {
            "col-1": {
                "pinValue": 1,
                "ticks": 0,
                "event": {
                    "deltaTime": 0,
                    "type": "channel",
                    "subtype": "noteOn",
                    "channel": 5,
                    "noteNumber": 64,
                    "velocity": 111,
                    "lightChannels": [
                        3
                    ]
                }
            }
        }
    },
    {
        "changes": {
            "col-1": 0,
            "garden": 1
        },
        "timeout": 0.1578945,
        "raw": {
            "col-1": {
                "pinValue": 0,
                "ticks": 240,
                "event": {
                    "deltaTime": 240,
                    "type": "channel",
                    "subtype": "noteOff",
                    "channel": 5,
                    "noteNumber": 64,
                    "velocity": 0,
                    "lightChannels": [
                        3
                    ]
                }
            },
            "garden": {
                "pinValue": 1,
                "ticks": 0,
                "event": {
                    "deltaTime": 0,
                    "type": "channel",
                    "subtype": "noteOn",
                    "channel": 5,
                    "noteNumber": 64,
                    "velocity": 111,
                    "lightChannels": [
                        8
                    ]
                }
            }
        }
    },
    {
        "changes": {
            "garden": 0,
            "col-3": 1
        },
        "timeout": 0.1578945,
        "raw": {
            "garden": {
                "pinValue": 0,
                "ticks": 240,
                "event": {
                    "deltaTime": 240,
                    "type": "channel",
                    "subtype": "noteOff",
                    "channel": 5,
                    "noteNumber": 64,
                    "velocity": 0,
                    "lightChannels": [
                        8
                    ]
                }
            },
            "col-3": {
                "pinValue": 1,
                "ticks": 0,
                "event": {
                    "deltaTime": 0,
                    "type": "channel",
                    "subtype": "noteOn",
                    "channel": 5,
                    "noteNumber": 59,
                    "velocity": 111,
                    "lightChannels": [
                        5
                    ]
                }
            }
        }
    },
    {
        "changes": {
            "col-3": 0,
            "tree": 1
        },
        "timeout": 0.1578945,
        "raw": {
            "col-3": {
                "pinValue": 0,
                "ticks": 240,
                "event": {
                    "deltaTime": 240,
                    "type": "channel",
                    "subtype": "noteOff",
                    "channel": 5,
                    "noteNumber": 59,
                    "velocity": 0,
                    "lightChannels": [
                        5
                    ]
                }
            },
            "tree": {
                "pinValue": 1,
                "ticks": 0,
                "event": {
                    "deltaTime": 0,
                    "type": "channel",
                    "subtype": "noteOn",
                    "channel": 5,
                    "noteNumber": 59,
                    "velocity": 111,
                    "lightChannels": [
                        9
                    ]
                }
            }
        }
    },
    {
        "changes": {
            "garage": 1,
            "top-right": 0,
            "bottom-right": 0,
            "tree": 0
        },
        "timeout": 0.1578945,
        "raw": {
            "garage": {
                "pinValue": 1,
                "ticks": 0,
                "event": {
                    "deltaTime": 0,
                    "type": "channel",
                    "subtype": "noteOn",
                    "channel": 4,
                    "noteNumber": 76,
                    "velocity": 95,
                    "lightChannels": [
                        0
                    ]
                }
            },
            "top-right": {
                "pinValue": 0,
                "ticks": 0,
                "event": {
                    "deltaTime": 0,
                    "type": "channel",
                    "subtype": "noteOff",
                    "channel": 4,
                    "noteNumber": 71,
                    "velocity": 0,
                    "lightChannels": [
                        0,
                        1,
                        2
                    ]
                }
            },
            "bottom-right": {
                "pinValue": 0,
                "ticks": 0,
                "event": {
                    "deltaTime": 0,
                    "type": "channel",
                    "subtype": "noteOff",
                    "channel": 4,
                    "noteNumber": 71,
                    "velocity": 0,
                    "lightChannels": [
                        0,
                        1,
                        2
                    ]
                }
            },
            "tree": {
                "pinValue": 0,
                "ticks": 0,
                "event": {
                    "deltaTime": 0,
                    "type": "channel",
                    "subtype": "noteOff",
                    "channel": 5,
                    "noteNumber": 59,
                    "velocity": 0,
                    "lightChannels": [
                        9
                    ]
                }
            }
        }
    },
    {
        "changes": {
            "col-1": 1
        },
        "timeout": 0.315789,
        "raw": {
            "col-1": {
                "pinValue": 1,
                "ticks": 0,
                "event": {
                    "deltaTime": 0,
                    "type": "channel",
                    "subtype": "noteOn",
                    "channel": 5,
                    "noteNumber": 59,
                    "velocity": 111,
                    "lightChannels": [
                        3
                    ]
                }
            }
        }
    },
    {
        "changes": {
            "col-1": 0,
            "garden": 1
        },
        "timeout": 0.1578945,
        "raw": {
            "col-1": {
                "pinValue": 0,
                "ticks": 240,
                "event": {
                    "deltaTime": 240,
                    "type": "channel",
                    "subtype": "noteOff",
                    "channel": 5,
                    "noteNumber": 59,
                    "velocity": 0,
                    "lightChannels": [
                        3
                    ]
                }
            },
            "garden": {
                "pinValue": 1,
                "ticks": 0,
                "event": {
                    "deltaTime": 0,
                    "type": "channel",
                    "subtype": "noteOn",
                    "channel": 5,
                    "noteNumber": 64,
                    "velocity": 111,
                    "lightChannels": [
                        8
                    ]
                }
            }
        }
    },
    {
        "changes": {
            "garden": 0,
            "col-3": 1
        },
        "timeout": 0.1578945,
        "raw": {
            "garden": {
                "pinValue": 0,
                "ticks": 240,
                "event": {
                    "deltaTime": 240,
                    "type": "channel",
                    "subtype": "noteOff",
                    "channel": 5,
                    "noteNumber": 64,
                    "velocity": 0,
                    "lightChannels": [
                        8
                    ]
                }
            },
            "col-3": {
                "pinValue": 1,
                "ticks": 0,
                "event": {
                    "deltaTime": 0,
                    "type": "channel",
                    "subtype": "noteOn",
                    "channel": 5,
                    "noteNumber": 59,
                    "velocity": 111,
                    "lightChannels": [
                        5
                    ]
                }
            }
        }
    },
    {
        "changes": {
            "col-3": 0,
            "tree": 1
        },
        "timeout": 0.1578945,
        "raw": {
            "col-3": {
                "pinValue": 0,
                "ticks": 240,
                "event": {
                    "deltaTime": 240,
                    "type": "channel",
                    "subtype": "noteOff",
                    "channel": 5,
                    "noteNumber": 59,
                    "velocity": 0,
                    "lightChannels": [
                        5
                    ]
                }
            },
            "tree": {
                "pinValue": 1,
                "ticks": 0,
                "event": {
                    "deltaTime": 0,
                    "type": "channel",
                    "subtype": "noteOn",
                    "channel": 5,
                    "noteNumber": 59,
                    "velocity": 111,
                    "lightChannels": [
                        9
                    ]
                }
            }
        }
    },
    {
        "changes": {
            "garage": 0,
            "top-right": 1,
            "tree": 0
        },
        "timeout": 0.1578945,
        "raw": {
            "garage": {
                "pinValue": 0,
                "ticks": 0,
                "event": {
                    "deltaTime": 0,
                    "type": "channel",
                    "subtype": "noteOff",
                    "channel": 4,
                    "noteNumber": 76,
                    "velocity": 0,
                    "lightChannels": [
                        0
                    ]
                }
            },
            "top-right": {
                "pinValue": 1,
                "ticks": 0,
                "event": {
                    "deltaTime": 0,
                    "type": "channel",
                    "subtype": "noteOn",
                    "channel": 4,
                    "noteNumber": 74,
                    "velocity": 95,
                    "lightChannels": [
                        1
                    ]
                }
            },
            "tree": {
                "pinValue": 0,
                "ticks": 0,
                "event": {
                    "deltaTime": 0,
                    "type": "channel",
                    "subtype": "noteOff",
                    "channel": 5,
                    "noteNumber": 59,
                    "velocity": 0,
                    "lightChannels": [
                        9
                    ]
                }
            }
        }
    },
    {
        "changes": {
            "col-2": 1
        },
        "timeout": 0.315789,
        "raw": {
            "col-2": {
                "pinValue": 1,
                "ticks": 0,
                "event": {
                    "deltaTime": 0,
                    "type": "channel",
                    "subtype": "noteOn",
                    "channel": 5,
                    "noteNumber": 64,
                    "velocity": 111,
                    "lightChannels": [
                        4
                    ]
                }
            }
        }
    },
    {
        "changes": {
            "col-2": 0,
            "col-1": 1
        },
        "timeout": 0.1578945,
        "raw": {
            "col-2": {
                "pinValue": 0,
                "ticks": 240,
                "event": {
                    "deltaTime": 240,
                    "type": "channel",
                    "subtype": "noteOff",
                    "channel": 5,
                    "noteNumber": 64,
                    "velocity": 0,
                    "lightChannels": [
                        4
                    ]
                }
            },
            "col-1": {
                "pinValue": 1,
                "ticks": 0,
                "event": {
                    "deltaTime": 0,
                    "type": "channel",
                    "subtype": "noteOn",
                    "channel": 5,
                    "noteNumber": 64,
                    "velocity": 111,
                    "lightChannels": [
                        3
                    ]
                }
            }
        }
    },
    {
        "changes": {
            "col-1": 0,
            "garden": 1
        },
        "timeout": 0.1578945,
        "raw": {
            "col-1": {
                "pinValue": 0,
                "ticks": 240,
                "event": {
                    "deltaTime": 240,
                    "type": "channel",
                    "subtype": "noteOff",
                    "channel": 5,
                    "noteNumber": 64,
                    "velocity": 0,
                    "lightChannels": [
                        3
                    ]
                }
            },
            "garden": {
                "pinValue": 1,
                "ticks": 0,
                "event": {
                    "deltaTime": 0,
                    "type": "channel",
                    "subtype": "noteOn",
                    "channel": 5,
                    "noteNumber": 59,
                    "velocity": 111,
                    "lightChannels": [
                        8
                    ]
                }
            }
        }
    },
    {
        "changes": {
            "garden": 0,
            "tree": 1
        },
        "timeout": 0.1578945,
        "raw": {
            "garden": {
                "pinValue": 0,
                "ticks": 240,
                "event": {
                    "deltaTime": 240,
                    "type": "channel",
                    "subtype": "noteOff",
                    "channel": 5,
                    "noteNumber": 59,
                    "velocity": 0,
                    "lightChannels": [
                        8
                    ]
                }
            },
            "tree": {
                "pinValue": 1,
                "ticks": 0,
                "event": {
                    "deltaTime": 0,
                    "type": "channel",
                    "subtype": "noteOn",
                    "channel": 5,
                    "noteNumber": 59,
                    "velocity": 111,
                    "lightChannels": [
                        9
                    ]
                }
            }
        }
    },
    {
        "changes": {
            "top-right": 0,
            "bottom-right": 1,
            "tree": 0
        },
        "timeout": 0.1578945,
        "raw": {
            "top-right": {
                "pinValue": 0,
                "ticks": 240,
                "event": {
                    "deltaTime": 240,
                    "type": "channel",
                    "subtype": "noteOff",
                    "channel": 4,
                    "noteNumber": 74,
                    "velocity": 0,
                    "lightChannels": [
                        1
                    ]
                }
            },
            "bottom-right": {
                "pinValue": 1,
                "ticks": 0,
                "event": {
                    "deltaTime": 0,
                    "type": "channel",
                    "subtype": "noteOn",
                    "channel": 4,
                    "noteNumber": 72,
                    "velocity": 95,
                    "lightChannels": [
                        2
                    ]
                }
            },
            "tree": {
                "pinValue": 0,
                "ticks": 0,
                "event": {
                    "deltaTime": 0,
                    "type": "channel",
                    "subtype": "noteOff",
                    "channel": 5,
                    "noteNumber": 59,
                    "velocity": 0,
                    "lightChannels": [
                        9
                    ]
                }
            }
        }
    },
    {
        "changes": {
            "col-3": 1
        },
        "timeout": 0.315789,
        "raw": {
            "col-3": {
                "pinValue": 1,
                "ticks": 0,
                "event": {
                    "deltaTime": 0,
                    "type": "channel",
                    "subtype": "noteOn",
                    "channel": 5,
                    "noteNumber": 59,
                    "velocity": 111,
                    "lightChannels": [
                        5
                    ]
                }
            }
        }
    },
    {
        "changes": {
            "col-3": 0,
            "col-1": 1
        },
        "timeout": 0.1578945,
        "raw": {
            "col-3": {
                "pinValue": 0,
                "ticks": 240,
                "event": {
                    "deltaTime": 240,
                    "type": "channel",
                    "subtype": "noteOff",
                    "channel": 5,
                    "noteNumber": 59,
                    "velocity": 0,
                    "lightChannels": [
                        5
                    ]
                }
            },
            "col-1": {
                "pinValue": 1,
                "ticks": 0,
                "event": {
                    "deltaTime": 0,
                    "type": "channel",
                    "subtype": "noteOn",
                    "channel": 5,
                    "noteNumber": 64,
                    "velocity": 111,
                    "lightChannels": [
                        3
                    ]
                }
            }
        }
    },
    {
        "changes": {
            "col-1": 0,
            "tree": 1
        },
        "timeout": 0.1578945,
        "raw": {
            "col-1": {
                "pinValue": 0,
                "ticks": 240,
                "event": {
                    "deltaTime": 240,
                    "type": "channel",
                    "subtype": "noteOff",
                    "channel": 5,
                    "noteNumber": 64,
                    "velocity": 0,
                    "lightChannels": [
                        3
                    ]
                }
            },
            "tree": {
                "pinValue": 1,
                "ticks": 0,
                "event": {
                    "deltaTime": 0,
                    "type": "channel",
                    "subtype": "noteOn",
                    "channel": 5,
                    "noteNumber": 59,
                    "velocity": 111,
                    "lightChannels": [
                        9
                    ]
                }
            }
        }
    },
    {
        "changes": {
            "tree": 0,
            "col-2": 1
        },
        "timeout": 0.1578945,
        "raw": {
            "tree": {
                "pinValue": 0,
                "ticks": 240,
                "event": {
                    "deltaTime": 240,
                    "type": "channel",
                    "subtype": "noteOff",
                    "channel": 5,
                    "noteNumber": 59,
                    "velocity": 0,
                    "lightChannels": [
                        9
                    ]
                }
            },
            "col-2": {
                "pinValue": 1,
                "ticks": 0,
                "event": {
                    "deltaTime": 0,
                    "type": "channel",
                    "subtype": "noteOn",
                    "channel": 5,
                    "noteNumber": 59,
                    "velocity": 111,
                    "lightChannels": [
                        4
                    ]
                }
            }
        }
    },
    {
        "changes": {
            "bottom-right": 1,
            "garage": 1,
            "top-right": 1,
            "col-2": 0
        },
        "timeout": 0.1578945,
        "raw": {
            "bottom-right": {
                "pinValue": 1,
                "ticks": 0,
                "event": {
                    "deltaTime": 0,
                    "type": "channel",
                    "subtype": "noteOn",
                    "channel": 4,
                    "noteNumber": 71,
                    "velocity": 95,
                    "lightChannels": [
                        0,
                        1,
                        2
                    ]
                }
            },
            "garage": {
                "pinValue": 1,
                "ticks": 0,
                "event": {
                    "deltaTime": 0,
                    "type": "channel",
                    "subtype": "noteOn",
                    "channel": 4,
                    "noteNumber": 71,
                    "velocity": 95,
                    "lightChannels": [
                        0,
                        1,
                        2
                    ]
                }
            },
            "top-right": {
                "pinValue": 1,
                "ticks": 0,
                "event": {
                    "deltaTime": 0,
                    "type": "channel",
                    "subtype": "noteOn",
                    "channel": 4,
                    "noteNumber": 71,
                    "velocity": 95,
                    "lightChannels": [
                        0,
                        1,
                        2
                    ]
                }
            },
            "col-2": {
                "pinValue": 0,
                "ticks": 0,
                "event": {
                    "deltaTime": 0,
                    "type": "channel",
                    "subtype": "noteOff",
                    "channel": 5,
                    "noteNumber": 59,
                    "velocity": 0,
                    "lightChannels": [
                        4
                    ]
                }
            }
        }
    },
    {
        "changes": {
            "col-3": 1
        },
        "timeout": 0.315789,
        "raw": {
            "col-3": {
                "pinValue": 1,
                "ticks": 0,
                "event": {
                    "deltaTime": 0,
                    "type": "channel",
                    "subtype": "noteOn",
                    "channel": 5,
                    "noteNumber": 64,
                    "velocity": 111,
                    "lightChannels": [
                        5
                    ]
                }
            }
        }
    },
    {
        "changes": {
            "col-3": 0,
            "garden": 1
        },
        "timeout": 0.1578945,
        "raw": {
            "col-3": {
                "pinValue": 0,
                "ticks": 240,
                "event": {
                    "deltaTime": 240,
                    "type": "channel",
                    "subtype": "noteOff",
                    "channel": 5,
                    "noteNumber": 64,
                    "velocity": 0,
                    "lightChannels": [
                        5
                    ]
                }
            },
            "garden": {
                "pinValue": 1,
                "ticks": 0,
                "event": {
                    "deltaTime": 0,
                    "type": "channel",
                    "subtype": "noteOn",
                    "channel": 5,
                    "noteNumber": 64,
                    "velocity": 111,
                    "lightChannels": [
                        8
                    ]
                }
            }
        }
    },
    {
        "changes": {
            "garden": 0,
            "tree": 1
        },
        "timeout": 0.1578945,
        "raw": {
            "garden": {
                "pinValue": 0,
                "ticks": 240,
                "event": {
                    "deltaTime": 240,
                    "type": "channel",
                    "subtype": "noteOff",
                    "channel": 5,
                    "noteNumber": 64,
                    "velocity": 0,
                    "lightChannels": [
                        8
                    ]
                }
            },
            "tree": {
                "pinValue": 1,
                "ticks": 0,
                "event": {
                    "deltaTime": 0,
                    "type": "channel",
                    "subtype": "noteOn",
                    "channel": 5,
                    "noteNumber": 59,
                    "velocity": 111,
                    "lightChannels": [
                        9
                    ]
                }
            }
        }
    },
    {
        "changes": {
            "tree": 0,
            "col-2": 1
        },
        "timeout": 0.1578945,
        "raw": {
            "tree": {
                "pinValue": 0,
                "ticks": 240,
                "event": {
                    "deltaTime": 240,
                    "type": "channel",
                    "subtype": "noteOff",
                    "channel": 5,
                    "noteNumber": 59,
                    "velocity": 0,
                    "lightChannels": [
                        9
                    ]
                }
            },
            "col-2": {
                "pinValue": 1,
                "ticks": 0,
                "event": {
                    "deltaTime": 0,
                    "type": "channel",
                    "subtype": "noteOn",
                    "channel": 5,
                    "noteNumber": 59,
                    "velocity": 111,
                    "lightChannels": [
                        4
                    ]
                }
            }
        }
    },
    {
        "changes": {
            "garage": 1,
            "top-right": 0,
            "bottom-right": 0,
            "col-2": 0
        },
        "timeout": 0.1578945,
        "raw": {
            "garage": {
                "pinValue": 1,
                "ticks": 0,
                "event": {
                    "deltaTime": 0,
                    "type": "channel",
                    "subtype": "noteOn",
                    "channel": 4,
                    "noteNumber": 76,
                    "velocity": 95,
                    "lightChannels": [
                        0
                    ]
                }
            },
            "top-right": {
                "pinValue": 0,
                "ticks": 0,
                "event": {
                    "deltaTime": 0,
                    "type": "channel",
                    "subtype": "noteOff",
                    "channel": 4,
                    "noteNumber": 71,
                    "velocity": 0,
                    "lightChannels": [
                        0,
                        1,
                        2
                    ]
                }
            },
            "bottom-right": {
                "pinValue": 0,
                "ticks": 0,
                "event": {
                    "deltaTime": 0,
                    "type": "channel",
                    "subtype": "noteOff",
                    "channel": 4,
                    "noteNumber": 71,
                    "velocity": 0,
                    "lightChannels": [
                        0,
                        1,
                        2
                    ]
                }
            },
            "col-2": {
                "pinValue": 0,
                "ticks": 0,
                "event": {
                    "deltaTime": 0,
                    "type": "channel",
                    "subtype": "noteOff",
                    "channel": 5,
                    "noteNumber": 59,
                    "velocity": 0,
                    "lightChannels": [
                        4
                    ]
                }
            }
        }
    },
    {
        "changes": {
            "col-1": 1
        },
        "timeout": 0.315789,
        "raw": {
            "col-1": {
                "pinValue": 1,
                "ticks": 0,
                "event": {
                    "deltaTime": 0,
                    "type": "channel",
                    "subtype": "noteOn",
                    "channel": 5,
                    "noteNumber": 59,
                    "velocity": 111,
                    "lightChannels": [
                        3
                    ]
                }
            }
        }
    },
    {
        "changes": {
            "col-1": 0,
            "garden": 1
        },
        "timeout": 0.1578945,
        "raw": {
            "col-1": {
                "pinValue": 0,
                "ticks": 240,
                "event": {
                    "deltaTime": 240,
                    "type": "channel",
                    "subtype": "noteOff",
                    "channel": 5,
                    "noteNumber": 59,
                    "velocity": 0,
                    "lightChannels": [
                        3
                    ]
                }
            },
            "garden": {
                "pinValue": 1,
                "ticks": 0,
                "event": {
                    "deltaTime": 0,
                    "type": "channel",
                    "subtype": "noteOn",
                    "channel": 5,
                    "noteNumber": 64,
                    "velocity": 111,
                    "lightChannels": [
                        8
                    ]
                }
            }
        }
    },
    {
        "changes": {
            "garden": 0,
            "col-3": 1
        },
        "timeout": 0.1578945,
        "raw": {
            "garden": {
                "pinValue": 0,
                "ticks": 240,
                "event": {
                    "deltaTime": 240,
                    "type": "channel",
                    "subtype": "noteOff",
                    "channel": 5,
                    "noteNumber": 64,
                    "velocity": 0,
                    "lightChannels": [
                        8
                    ]
                }
            },
            "col-3": {
                "pinValue": 1,
                "ticks": 0,
                "event": {
                    "deltaTime": 0,
                    "type": "channel",
                    "subtype": "noteOn",
                    "channel": 5,
                    "noteNumber": 59,
                    "velocity": 111,
                    "lightChannels": [
                        5
                    ]
                }
            }
        }
    },
    {
        "changes": {
            "col-3": 0,
            "tree": 1
        },
        "timeout": 0.1578945,
        "raw": {
            "col-3": {
                "pinValue": 0,
                "ticks": 240,
                "event": {
                    "deltaTime": 240,
                    "type": "channel",
                    "subtype": "noteOff",
                    "channel": 5,
                    "noteNumber": 59,
                    "velocity": 0,
                    "lightChannels": [
                        5
                    ]
                }
            },
            "tree": {
                "pinValue": 1,
                "ticks": 0,
                "event": {
                    "deltaTime": 0,
                    "type": "channel",
                    "subtype": "noteOn",
                    "channel": 5,
                    "noteNumber": 59,
                    "velocity": 111,
                    "lightChannels": [
                        9
                    ]
                }
            }
        }
    },
    {
        "changes": {
            "garage": 0,
            "top-right": 1,
            "tree": 0
        },
        "timeout": 0.1578945,
        "raw": {
            "garage": {
                "pinValue": 0,
                "ticks": 0,
                "event": {
                    "deltaTime": 0,
                    "type": "channel",
                    "subtype": "noteOff",
                    "channel": 4,
                    "noteNumber": 76,
                    "velocity": 0,
                    "lightChannels": [
                        0
                    ]
                }
            },
            "top-right": {
                "pinValue": 1,
                "ticks": 0,
                "event": {
                    "deltaTime": 0,
                    "type": "channel",
                    "subtype": "noteOn",
                    "channel": 4,
                    "noteNumber": 74,
                    "velocity": 95,
                    "lightChannels": [
                        1
                    ]
                }
            },
            "tree": {
                "pinValue": 0,
                "ticks": 0,
                "event": {
                    "deltaTime": 0,
                    "type": "channel",
                    "subtype": "noteOff",
                    "channel": 5,
                    "noteNumber": 59,
                    "velocity": 0,
                    "lightChannels": [
                        9
                    ]
                }
            }
        }
    },
    {
        "changes": {
            "col-2": 1
        },
        "timeout": 0.315789,
        "raw": {
            "col-2": {
                "pinValue": 1,
                "ticks": 0,
                "event": {
                    "deltaTime": 0,
                    "type": "channel",
                    "subtype": "noteOn",
                    "channel": 5,
                    "noteNumber": 64,
                    "velocity": 111,
                    "lightChannels": [
                        4
                    ]
                }
            }
        }
    },
    {
        "changes": {
            "col-2": 0,
            "col-1": 1
        },
        "timeout": 0.1578945,
        "raw": {
            "col-2": {
                "pinValue": 0,
                "ticks": 240,
                "event": {
                    "deltaTime": 240,
                    "type": "channel",
                    "subtype": "noteOff",
                    "channel": 5,
                    "noteNumber": 64,
                    "velocity": 0,
                    "lightChannels": [
                        4
                    ]
                }
            },
            "col-1": {
                "pinValue": 1,
                "ticks": 0,
                "event": {
                    "deltaTime": 0,
                    "type": "channel",
                    "subtype": "noteOn",
                    "channel": 5,
                    "noteNumber": 64,
                    "velocity": 111,
                    "lightChannels": [
                        3
                    ]
                }
            }
        }
    },
    {
        "changes": {
            "col-1": 0,
            "garden": 1
        },
        "timeout": 0.1578945,
        "raw": {
            "col-1": {
                "pinValue": 0,
                "ticks": 240,
                "event": {
                    "deltaTime": 240,
                    "type": "channel",
                    "subtype": "noteOff",
                    "channel": 5,
                    "noteNumber": 64,
                    "velocity": 0,
                    "lightChannels": [
                        3
                    ]
                }
            },
            "garden": {
                "pinValue": 1,
                "ticks": 0,
                "event": {
                    "deltaTime": 0,
                    "type": "channel",
                    "subtype": "noteOn",
                    "channel": 5,
                    "noteNumber": 59,
                    "velocity": 111,
                    "lightChannels": [
                        8
                    ]
                }
            }
        }
    },
    {
        "changes": {
            "garden": 0,
            "tree": 1
        },
        "timeout": 0.1578945,
        "raw": {
            "garden": {
                "pinValue": 0,
                "ticks": 240,
                "event": {
                    "deltaTime": 240,
                    "type": "channel",
                    "subtype": "noteOff",
                    "channel": 5,
                    "noteNumber": 59,
                    "velocity": 0,
                    "lightChannels": [
                        8
                    ]
                }
            },
            "tree": {
                "pinValue": 1,
                "ticks": 0,
                "event": {
                    "deltaTime": 0,
                    "type": "channel",
                    "subtype": "noteOn",
                    "channel": 5,
                    "noteNumber": 59,
                    "velocity": 111,
                    "lightChannels": [
                        9
                    ]
                }
            }
        }
    },
    {
        "changes": {
            "top-right": 0,
            "bottom-right": 1,
            "tree": 0
        },
        "timeout": 0.1578945,
        "raw": {
            "top-right": {
                "pinValue": 0,
                "ticks": 240,
                "event": {
                    "deltaTime": 240,
                    "type": "channel",
                    "subtype": "noteOff",
                    "channel": 4,
                    "noteNumber": 74,
                    "velocity": 0,
                    "lightChannels": [
                        1
                    ]
                }
            },
            "bottom-right": {
                "pinValue": 1,
                "ticks": 0,
                "event": {
                    "deltaTime": 0,
                    "type": "channel",
                    "subtype": "noteOn",
                    "channel": 4,
                    "noteNumber": 72,
                    "velocity": 95,
                    "lightChannels": [
                        2
                    ]
                }
            },
            "tree": {
                "pinValue": 0,
                "ticks": 0,
                "event": {
                    "deltaTime": 0,
                    "type": "channel",
                    "subtype": "noteOff",
                    "channel": 5,
                    "noteNumber": 59,
                    "velocity": 0,
                    "lightChannels": [
                        9
                    ]
                }
            }
        }
    },
    {
        "changes": {
            "col-3": 1
        },
        "timeout": 0.315789,
        "raw": {
            "col-3": {
                "pinValue": 1,
                "ticks": 0,
                "event": {
                    "deltaTime": 0,
                    "type": "channel",
                    "subtype": "noteOn",
                    "channel": 5,
                    "noteNumber": 59,
                    "velocity": 111,
                    "lightChannels": [
                        5
                    ]
                }
            }
        }
    },
    {
        "changes": {
            "col-3": 0,
            "col-1": 1
        },
        "timeout": 0.1578945,
        "raw": {
            "col-3": {
                "pinValue": 0,
                "ticks": 240,
                "event": {
                    "deltaTime": 240,
                    "type": "channel",
                    "subtype": "noteOff",
                    "channel": 5,
                    "noteNumber": 59,
                    "velocity": 0,
                    "lightChannels": [
                        5
                    ]
                }
            },
            "col-1": {
                "pinValue": 1,
                "ticks": 0,
                "event": {
                    "deltaTime": 0,
                    "type": "channel",
                    "subtype": "noteOn",
                    "channel": 5,
                    "noteNumber": 64,
                    "velocity": 111,
                    "lightChannels": [
                        3
                    ]
                }
            }
        }
    },
    {
        "changes": {
            "col-1": 0,
            "tree": 1
        },
        "timeout": 0.1578945,
        "raw": {
            "col-1": {
                "pinValue": 0,
                "ticks": 240,
                "event": {
                    "deltaTime": 240,
                    "type": "channel",
                    "subtype": "noteOff",
                    "channel": 5,
                    "noteNumber": 64,
                    "velocity": 0,
                    "lightChannels": [
                        3
                    ]
                }
            },
            "tree": {
                "pinValue": 1,
                "ticks": 0,
                "event": {
                    "deltaTime": 0,
                    "type": "channel",
                    "subtype": "noteOn",
                    "channel": 5,
                    "noteNumber": 59,
                    "velocity": 111,
                    "lightChannels": [
                        9
                    ]
                }
            }
        }
    },
    {
        "changes": {
            "tree": 0,
            "col-2": 1
        },
        "timeout": 0.1578945,
        "raw": {
            "tree": {
                "pinValue": 0,
                "ticks": 240,
                "event": {
                    "deltaTime": 240,
                    "type": "channel",
                    "subtype": "noteOff",
                    "channel": 5,
                    "noteNumber": 59,
                    "velocity": 0,
                    "lightChannels": [
                        9
                    ]
                }
            },
            "col-2": {
                "pinValue": 1,
                "ticks": 0,
                "event": {
                    "deltaTime": 0,
                    "type": "channel",
                    "subtype": "noteOn",
                    "channel": 5,
                    "noteNumber": 59,
                    "velocity": 111,
                    "lightChannels": [
                        4
                    ]
                }
            }
        }
    },
    {
        "changes": {
            "bottom-right": 1,
            "garage": 1,
            "top-right": 1,
            "col-2": 0
        },
        "timeout": 0.1578945,
        "raw": {
            "bottom-right": {
                "pinValue": 1,
                "ticks": 0,
                "event": {
                    "deltaTime": 0,
                    "type": "channel",
                    "subtype": "noteOn",
                    "channel": 4,
                    "noteNumber": 71,
                    "velocity": 95,
                    "lightChannels": [
                        0,
                        1,
                        2
                    ]
                }
            },
            "garage": {
                "pinValue": 1,
                "ticks": 0,
                "event": {
                    "deltaTime": 0,
                    "type": "channel",
                    "subtype": "noteOn",
                    "channel": 4,
                    "noteNumber": 71,
                    "velocity": 95,
                    "lightChannels": [
                        0,
                        1,
                        2
                    ]
                }
            },
            "top-right": {
                "pinValue": 1,
                "ticks": 0,
                "event": {
                    "deltaTime": 0,
                    "type": "channel",
                    "subtype": "noteOn",
                    "channel": 4,
                    "noteNumber": 71,
                    "velocity": 95,
                    "lightChannels": [
                        0,
                        1,
                        2
                    ]
                }
            },
            "col-2": {
                "pinValue": 0,
                "ticks": 0,
                "event": {
                    "deltaTime": 0,
                    "type": "channel",
                    "subtype": "noteOff",
                    "channel": 5,
                    "noteNumber": 59,
                    "velocity": 0,
                    "lightChannels": [
                        4
                    ]
                }
            }
        }
    },
    {
        "changes": {
            "col-3": 1
        },
        "timeout": 0.315789,
        "raw": {
            "col-3": {
                "pinValue": 1,
                "ticks": 0,
                "event": {
                    "deltaTime": 0,
                    "type": "channel",
                    "subtype": "noteOn",
                    "channel": 5,
                    "noteNumber": 64,
                    "velocity": 111,
                    "lightChannels": [
                        5
                    ]
                }
            }
        }
    },
    {
        "changes": {
            "col-3": 0,
            "garden": 1
        },
        "timeout": 0.1578945,
        "raw": {
            "col-3": {
                "pinValue": 0,
                "ticks": 240,
                "event": {
                    "deltaTime": 240,
                    "type": "channel",
                    "subtype": "noteOff",
                    "channel": 5,
                    "noteNumber": 64,
                    "velocity": 0,
                    "lightChannels": [
                        5
                    ]
                }
            },
            "garden": {
                "pinValue": 1,
                "ticks": 0,
                "event": {
                    "deltaTime": 0,
                    "type": "channel",
                    "subtype": "noteOn",
                    "channel": 5,
                    "noteNumber": 64,
                    "velocity": 111,
                    "lightChannels": [
                        8
                    ]
                }
            }
        }
    },
    {
        "changes": {
            "garden": 0,
            "tree": 1
        },
        "timeout": 0.1578945,
        "raw": {
            "garden": {
                "pinValue": 0,
                "ticks": 240,
                "event": {
                    "deltaTime": 240,
                    "type": "channel",
                    "subtype": "noteOff",
                    "channel": 5,
                    "noteNumber": 64,
                    "velocity": 0,
                    "lightChannels": [
                        8
                    ]
                }
            },
            "tree": {
                "pinValue": 1,
                "ticks": 0,
                "event": {
                    "deltaTime": 0,
                    "type": "channel",
                    "subtype": "noteOn",
                    "channel": 5,
                    "noteNumber": 59,
                    "velocity": 111,
                    "lightChannels": [
                        9
                    ]
                }
            }
        }
    },
    {
        "changes": {
            "tree": 0,
            "col-2": 1
        },
        "timeout": 0.1578945,
        "raw": {
            "tree": {
                "pinValue": 0,
                "ticks": 240,
                "event": {
                    "deltaTime": 240,
                    "type": "channel",
                    "subtype": "noteOff",
                    "channel": 5,
                    "noteNumber": 59,
                    "velocity": 0,
                    "lightChannels": [
                        9
                    ]
                }
            },
            "col-2": {
                "pinValue": 1,
                "ticks": 0,
                "event": {
                    "deltaTime": 0,
                    "type": "channel",
                    "subtype": "noteOn",
                    "channel": 5,
                    "noteNumber": 59,
                    "velocity": 111,
                    "lightChannels": [
                        4
                    ]
                }
            }
        }
    },
    {
        "changes": {
            "garage": 1,
            "top-right": 1,
            "bottom-right": 1,
            "col-1": 1,
            "col-2": 0,
            "col-3": 1,
            "window": 1,
            "outline": 1,
            "garden": 1,
            "tree": 1
        },
        "timeout": 0.1578945,
        "raw": {
            "garage": {
                "pinValue": 1,
                "ticks": 0,
                "event": {
                    "deltaTime": 0,
                    "type": "channel",
                    "subtype": "noteOn",
                    "channel": 4,
                    "noteNumber": 76,
                    "velocity": 111,
                    "lightChannels": [
                        0,
                        1,
                        2,
                        3,
                        4,
                        5,
                        6,
                        7,
                        8,
                        9
                    ]
                }
            },
            "top-right": {
                "pinValue": 1,
                "ticks": 0,
                "event": {
                    "deltaTime": 0,
                    "type": "channel",
                    "subtype": "noteOn",
                    "channel": 4,
                    "noteNumber": 76,
                    "velocity": 111,
                    "lightChannels": [
                        0,
                        1,
                        2,
                        3,
                        4,
                        5,
                        6,
                        7,
                        8,
                        9
                    ]
                }
            },
            "bottom-right": {
                "pinValue": 1,
                "ticks": 0,
                "event": {
                    "deltaTime": 0,
                    "type": "channel",
                    "subtype": "noteOn",
                    "channel": 4,
                    "noteNumber": 76,
                    "velocity": 111,
                    "lightChannels": [
                        0,
                        1,
                        2,
                        3,
                        4,
                        5,
                        6,
                        7,
                        8,
                        9
                    ]
                }
            },
            "col-1": {
                "pinValue": 1,
                "ticks": 0,
                "event": {
                    "deltaTime": 0,
                    "type": "channel",
                    "subtype": "noteOn",
                    "channel": 4,
                    "noteNumber": 76,
                    "velocity": 111,
                    "lightChannels": [
                        0,
                        1,
                        2,
                        3,
                        4,
                        5,
                        6,
                        7,
                        8,
                        9
                    ]
                }
            },
            "col-2": {
                "pinValue": 0,
                "ticks": 0,
                "event": {
                    "deltaTime": 0,
                    "type": "channel",
                    "subtype": "noteOff",
                    "channel": 5,
                    "noteNumber": 59,
                    "velocity": 0,
                    "lightChannels": [
                        4
                    ]
                }
            },
            "col-3": {
                "pinValue": 1,
                "ticks": 0,
                "event": {
                    "deltaTime": 0,
                    "type": "channel",
                    "subtype": "noteOn",
                    "channel": 4,
                    "noteNumber": 76,
                    "velocity": 111,
                    "lightChannels": [
                        0,
                        1,
                        2,
                        3,
                        4,
                        5,
                        6,
                        7,
                        8,
                        9
                    ]
                }
            },
            "window": {
                "pinValue": 1,
                "ticks": 0,
                "event": {
                    "deltaTime": 0,
                    "type": "channel",
                    "subtype": "noteOn",
                    "channel": 4,
                    "noteNumber": 76,
                    "velocity": 111,
                    "lightChannels": [
                        0,
                        1,
                        2,
                        3,
                        4,
                        5,
                        6,
                        7,
                        8,
                        9
                    ]
                }
            },
            "outline": {
                "pinValue": 1,
                "ticks": 0,
                "event": {
                    "deltaTime": 0,
                    "type": "channel",
                    "subtype": "noteOn",
                    "channel": 4,
                    "noteNumber": 76,
                    "velocity": 111,
                    "lightChannels": [
                        0,
                        1,
                        2,
                        3,
                        4,
                        5,
                        6,
                        7,
                        8,
                        9
                    ]
                }
            },
            "garden": {
                "pinValue": 1,
                "ticks": 0,
                "event": {
                    "deltaTime": 0,
                    "type": "channel",
                    "subtype": "noteOn",
                    "channel": 4,
                    "noteNumber": 76,
                    "velocity": 111,
                    "lightChannels": [
                        0,
                        1,
                        2,
                        3,
                        4,
                        5,
                        6,
                        7,
                        8,
                        9
                    ]
                }
            },
            "tree": {
                "pinValue": 1,
                "ticks": 0,
                "event": {
                    "deltaTime": 0,
                    "type": "channel",
                    "subtype": "noteOn",
                    "channel": 4,
                    "noteNumber": 76,
                    "velocity": 111,
                    "lightChannels": [
                        0,
                        1,
                        2,
                        3,
                        4,
                        5,
                        6,
                        7,
                        8,
                        9
                    ]
                }
            }
        }
    },
    {
        "changes": {
            "garage": 0,
            "top-right": 0,
            "bottom-right": 0,
            "col-1": 0,
            "col-2": 0,
            "col-3": 0,
            "window": 0,
            "outline": 0,
            "garden": 0,
            "tree": 0
        },
        "timeout": 0.315789,
        "raw": {
            "garage": {
                "pinValue": 0,
                "ticks": 480,
                "event": {
                    "deltaTime": 480,
                    "type": "channel",
                    "subtype": "noteOff",
                    "channel": 4,
                    "noteNumber": 76,
                    "velocity": 0,
                    "lightChannels": [
                        0,
                        1,
                        2,
                        3,
                        4,
                        5,
                        6,
                        7,
                        8,
                        9
                    ]
                }
            },
            "top-right": {
                "pinValue": 0,
                "ticks": 480,
                "event": {
                    "deltaTime": 480,
                    "type": "channel",
                    "subtype": "noteOff",
                    "channel": 4,
                    "noteNumber": 76,
                    "velocity": 0,
                    "lightChannels": [
                        0,
                        1,
                        2,
                        3,
                        4,
                        5,
                        6,
                        7,
                        8,
                        9
                    ]
                }
            },
            "bottom-right": {
                "pinValue": 0,
                "ticks": 480,
                "event": {
                    "deltaTime": 480,
                    "type": "channel",
                    "subtype": "noteOff",
                    "channel": 4,
                    "noteNumber": 76,
                    "velocity": 0,
                    "lightChannels": [
                        0,
                        1,
                        2,
                        3,
                        4,
                        5,
                        6,
                        7,
                        8,
                        9
                    ]
                }
            },
            "col-1": {
                "pinValue": 0,
                "ticks": 480,
                "event": {
                    "deltaTime": 480,
                    "type": "channel",
                    "subtype": "noteOff",
                    "channel": 4,
                    "noteNumber": 76,
                    "velocity": 0,
                    "lightChannels": [
                        0,
                        1,
                        2,
                        3,
                        4,
                        5,
                        6,
                        7,
                        8,
                        9
                    ]
                }
            },
            "col-2": {
                "pinValue": 0,
                "ticks": 480,
                "event": {
                    "deltaTime": 480,
                    "type": "channel",
                    "subtype": "noteOff",
                    "channel": 4,
                    "noteNumber": 76,
                    "velocity": 0,
                    "lightChannels": [
                        0,
                        1,
                        2,
                        3,
                        4,
                        5,
                        6,
                        7,
                        8,
                        9
                    ]
                }
            },
            "col-3": {
                "pinValue": 0,
                "ticks": 480,
                "event": {
                    "deltaTime": 480,
                    "type": "channel",
                    "subtype": "noteOff",
                    "channel": 4,
                    "noteNumber": 76,
                    "velocity": 0,
                    "lightChannels": [
                        0,
                        1,
                        2,
                        3,
                        4,
                        5,
                        6,
                        7,
                        8,
                        9
                    ]
                }
            },
            "window": {
                "pinValue": 0,
                "ticks": 480,
                "event": {
                    "deltaTime": 480,
                    "type": "channel",
                    "subtype": "noteOff",
                    "channel": 4,
                    "noteNumber": 76,
                    "velocity": 0,
                    "lightChannels": [
                        0,
                        1,
                        2,
                        3,
                        4,
                        5,
                        6,
                        7,
                        8,
                        9
                    ]
                }
            },
            "outline": {
                "pinValue": 0,
                "ticks": 480,
                "event": {
                    "deltaTime": 480,
                    "type": "channel",
                    "subtype": "noteOff",
                    "channel": 4,
                    "noteNumber": 76,
                    "velocity": 0,
                    "lightChannels": [
                        0,
                        1,
                        2,
                        3,
                        4,
                        5,
                        6,
                        7,
                        8,
                        9
                    ]
                }
            },
            "garden": {
                "pinValue": 0,
                "ticks": 480,
                "event": {
                    "deltaTime": 480,
                    "type": "channel",
                    "subtype": "noteOff",
                    "channel": 4,
                    "noteNumber": 76,
                    "velocity": 0,
                    "lightChannels": [
                        0,
                        1,
                        2,
                        3,
                        4,
                        5,
                        6,
                        7,
                        8,
                        9
                    ]
                }
            },
            "tree": {
                "pinValue": 0,
                "ticks": 480,
                "event": {
                    "deltaTime": 480,
                    "type": "channel",
                    "subtype": "noteOff",
                    "channel": 4,
                    "noteNumber": 76,
                    "velocity": 0,
                    "lightChannels": [
                        0,
                        1,
                        2,
                        3,
                        4,
                        5,
                        6,
                        7,
                        8,
                        9
                    ]
                }
            }
        }
    },
    {
        "changes": {
            "col-1": 1
        },
        "timeout": 0.1578945,
        "raw": {
            "col-1": {
                "pinValue": 1,
                "ticks": 0,
                "event": {
                    "deltaTime": 0,
                    "type": "channel",
                    "subtype": "noteOn",
                    "channel": 4,
                    "noteNumber": 76,
                    "velocity": 111,
                    "lightChannels": [
                        3
                    ]
                }
            }
        }
    },
    {
        "changes": {
            "col-1": 0,
            "col-2": 1
        },
        "timeout": 0.1578945,
        "raw": {
            "col-1": {
                "pinValue": 0,
                "ticks": 240,
                "event": {
                    "deltaTime": 240,
                    "type": "channel",
                    "subtype": "noteOff",
                    "channel": 4,
                    "noteNumber": 76,
                    "velocity": 0,
                    "lightChannels": [
                        3
                    ]
                }
            },
            "col-2": {
                "pinValue": 1,
                "ticks": 0,
                "event": {
                    "deltaTime": 0,
                    "type": "channel",
                    "subtype": "noteOn",
                    "channel": 4,
                    "noteNumber": 74,
                    "velocity": 111,
                    "lightChannels": [
                        4
                    ]
                }
            }
        }
    },
    {
        "changes": {
            "col-2": 0,
            "col-3": 1
        },
        "timeout": 0.1578945,
        "raw": {
            "col-2": {
                "pinValue": 0,
                "ticks": 240,
                "event": {
                    "deltaTime": 240,
                    "type": "channel",
                    "subtype": "noteOff",
                    "channel": 4,
                    "noteNumber": 74,
                    "velocity": 0,
                    "lightChannels": [
                        4
                    ]
                }
            },
            "col-3": {
                "pinValue": 1,
                "ticks": 0,
                "event": {
                    "deltaTime": 0,
                    "type": "channel",
                    "subtype": "noteOn",
                    "channel": 4,
                    "noteNumber": 72,
                    "velocity": 111,
                    "lightChannels": [
                        5
                    ]
                }
            }
        }
    },
    {
        "changes": {
            "col-3": 1,
            "col-1": 1,
            "col-2": 1
        },
        "timeout": 0.1578945,
        "raw": {
            "col-3": {
                "pinValue": 1,
                "ticks": 0,
                "event": {
                    "deltaTime": 0,
                    "type": "channel",
                    "subtype": "noteOn",
                    "channel": 4,
                    "noteNumber": 71,
                    "velocity": 111,
                    "lightChannels": [
                        3,
                        4,
                        5
                    ]
                }
            },
            "col-1": {
                "pinValue": 1,
                "ticks": 0,
                "event": {
                    "deltaTime": 0,
                    "type": "channel",
                    "subtype": "noteOn",
                    "channel": 4,
                    "noteNumber": 71,
                    "velocity": 111,
                    "lightChannels": [
                        3,
                        4,
                        5
                    ]
                }
            },
            "col-2": {
                "pinValue": 1,
                "ticks": 0,
                "event": {
                    "deltaTime": 0,
                    "type": "channel",
                    "subtype": "noteOn",
                    "channel": 4,
                    "noteNumber": 71,
                    "velocity": 111,
                    "lightChannels": [
                        3,
                        4,
                        5
                    ]
                }
            }
        }
    },
    {
        "changes": {
            "col-1": 0,
            "col-2": 0,
            "col-3": 0
        },
        "timeout": 0.315789,
        "raw": {
            "col-1": {
                "pinValue": 0,
                "ticks": 480,
                "event": {
                    "deltaTime": 480,
                    "type": "channel",
                    "subtype": "noteOff",
                    "channel": 4,
                    "noteNumber": 71,
                    "velocity": 0,
                    "lightChannels": [
                        3,
                        4,
                        5
                    ]
                }
            },
            "col-2": {
                "pinValue": 0,
                "ticks": 480,
                "event": {
                    "deltaTime": 480,
                    "type": "channel",
                    "subtype": "noteOff",
                    "channel": 4,
                    "noteNumber": 71,
                    "velocity": 0,
                    "lightChannels": [
                        3,
                        4,
                        5
                    ]
                }
            },
            "col-3": {
                "pinValue": 0,
                "ticks": 480,
                "event": {
                    "deltaTime": 480,
                    "type": "channel",
                    "subtype": "noteOff",
                    "channel": 4,
                    "noteNumber": 71,
                    "velocity": 0,
                    "lightChannels": [
                        3,
                        4,
                        5
                    ]
                }
            }
        }
    },
    {
        "changes": {
            "col-2": 1
        },
        "timeout": 0.1578945,
        "raw": {
            "col-2": {
                "pinValue": 1,
                "ticks": 0,
                "event": {
                    "deltaTime": 0,
                    "type": "channel",
                    "subtype": "noteOn",
                    "channel": 4,
                    "noteNumber": 71,
                    "velocity": 111,
                    "lightChannels": [
                        4
                    ]
                }
            }
        }
    },
    {
        "changes": {
            "col-2": 0,
            "col-3": 1
        },
        "timeout": 0.1578945,
        "raw": {
            "col-2": {
                "pinValue": 0,
                "ticks": 240,
                "event": {
                    "deltaTime": 240,
                    "type": "channel",
                    "subtype": "noteOff",
                    "channel": 4,
                    "noteNumber": 71,
                    "velocity": 0,
                    "lightChannels": [
                        4
                    ]
                }
            },
            "col-3": {
                "pinValue": 1,
                "ticks": 0,
                "event": {
                    "deltaTime": 0,
                    "type": "channel",
                    "subtype": "noteOn",
                    "channel": 4,
                    "noteNumber": 69,
                    "velocity": 111,
                    "lightChannels": [
                        5
                    ]
                }
            }
        }
    },
    {
        "changes": {
            "col-3": 0,
            "garden": 1
        },
        "timeout": 0.1578945,
        "raw": {
            "col-3": {
                "pinValue": 0,
                "ticks": 240,
                "event": {
                    "deltaTime": 240,
                    "type": "channel",
                    "subtype": "noteOff",
                    "channel": 4,
                    "noteNumber": 69,
                    "velocity": 0,
                    "lightChannels": [
                        5
                    ]
                }
            },
            "garden": {
                "pinValue": 1,
                "ticks": 0,
                "event": {
                    "deltaTime": 0,
                    "type": "channel",
                    "subtype": "noteOn",
                    "channel": 4,
                    "noteNumber": 67,
                    "velocity": 111,
                    "lightChannels": [
                        8
                    ]
                }
            }
        }
    },
    {
        "changes": {
            "garden": 0,
            "tree": 1
        },
        "timeout": 0.1578945,
        "raw": {
            "garden": {
                "pinValue": 0,
                "ticks": 240,
                "event": {
                    "deltaTime": 240,
                    "type": "channel",
                    "subtype": "noteOff",
                    "channel": 4,
                    "noteNumber": 67,
                    "velocity": 0,
                    "lightChannels": [
                        8
                    ]
                }
            },
            "tree": {
                "pinValue": 1,
                "ticks": 0,
                "event": {
                    "deltaTime": 0,
                    "type": "channel",
                    "subtype": "noteOn",
                    "channel": 4,
                    "noteNumber": 69,
                    "velocity": 111,
                    "lightChannels": [
                        9
                    ]
                }
            }
        }
    },
    {
        "changes": {
            "tree": 0,
            "col-1": 1
        },
        "timeout": 0.315789,
        "raw": {
            "tree": {
                "pinValue": 0,
                "ticks": 480,
                "event": {
                    "deltaTime": 480,
                    "type": "channel",
                    "subtype": "noteOff",
                    "channel": 4,
                    "noteNumber": 69,
                    "velocity": 0,
                    "lightChannels": [
                        9
                    ]
                }
            },
            "col-1": {
                "pinValue": 1,
                "ticks": 0,
                "event": {
                    "deltaTime": 0,
                    "type": "channel",
                    "subtype": "noteOn",
                    "channel": 4,
                    "noteNumber": 69,
                    "velocity": 111,
                    "lightChannels": [
                        3
                    ]
                }
            }
        }
    },
    {
        "changes": {
            "col-1": 0,
            "col-2": 1
        },
        "timeout": 0.1578945,
        "raw": {
            "col-1": {
                "pinValue": 0,
                "ticks": 240,
                "event": {
                    "deltaTime": 240,
                    "type": "channel",
                    "subtype": "noteOff",
                    "channel": 4,
                    "noteNumber": 69,
                    "velocity": 0,
                    "lightChannels": [
                        3
                    ]
                }
            },
            "col-2": {
                "pinValue": 1,
                "ticks": 0,
                "event": {
                    "deltaTime": 0,
                    "type": "channel",
                    "subtype": "noteOn",
                    "channel": 4,
                    "noteNumber": 69,
                    "velocity": 111,
                    "lightChannels": [
                        4
                    ]
                }
            }
        }
    },
    {
        "changes": {
            "col-2": 0,
            "col-3": 1
        },
        "timeout": 0.1578945,
        "raw": {
            "col-2": {
                "pinValue": 0,
                "ticks": 240,
                "event": {
                    "deltaTime": 240,
                    "type": "channel",
                    "subtype": "noteOff",
                    "channel": 4,
                    "noteNumber": 69,
                    "velocity": 0,
                    "lightChannels": [
                        4
                    ]
                }
            },
            "col-3": {
                "pinValue": 1,
                "ticks": 0,
                "event": {
                    "deltaTime": 0,
                    "type": "channel",
                    "subtype": "noteOn",
                    "channel": 4,
                    "noteNumber": 71,
                    "velocity": 111,
                    "lightChannels": [
                        5
                    ]
                }
            }
        }
    },
    {
        "changes": {
            "col-3": 0,
            "garden": 1
        },
        "timeout": 0.1578945,
        "raw": {
            "col-3": {
                "pinValue": 0,
                "ticks": 240,
                "event": {
                    "deltaTime": 240,
                    "type": "channel",
                    "subtype": "noteOff",
                    "channel": 4,
                    "noteNumber": 71,
                    "velocity": 0,
                    "lightChannels": [
                        5
                    ]
                }
            },
            "garden": {
                "pinValue": 1,
                "ticks": 0,
                "event": {
                    "deltaTime": 0,
                    "type": "channel",
                    "subtype": "noteOn",
                    "channel": 4,
                    "noteNumber": 69,
                    "velocity": 111,
                    "lightChannels": [
                        8
                    ]
                }
            }
        }
    },
    {
        "changes": {
            "garden": 0,
            "outline": 1
        },
        "timeout": 0.1578945,
        "raw": {
            "garden": {
                "pinValue": 0,
                "ticks": 240,
                "event": {
                    "deltaTime": 240,
                    "type": "channel",
                    "subtype": "noteOff",
                    "channel": 4,
                    "noteNumber": 69,
                    "velocity": 0,
                    "lightChannels": [
                        8
                    ]
                }
            },
            "outline": {
                "pinValue": 1,
                "ticks": 0,
                "event": {
                    "deltaTime": 0,
                    "type": "channel",
                    "subtype": "noteOn",
                    "channel": 4,
                    "noteNumber": 64,
                    "velocity": 111,
                    "lightChannels": [
                        7
                    ]
                }
            }
        }
    },
    {
        "changes": {
            "outline": 0,
            "window": 1
        },
        "timeout": 0.315789,
        "raw": {
            "outline": {
                "pinValue": 0,
                "ticks": 480,
                "event": {
                    "deltaTime": 480,
                    "type": "channel",
                    "subtype": "noteOff",
                    "channel": 4,
                    "noteNumber": 64,
                    "velocity": 0,
                    "lightChannels": [
                        7
                    ]
                }
            },
            "window": {
                "pinValue": 1,
                "ticks": 0,
                "event": {
                    "deltaTime": 0,
                    "type": "channel",
                    "subtype": "noteOn",
                    "channel": 4,
                    "noteNumber": 64,
                    "velocity": 111,
                    "lightChannels": [
                        6
                    ]
                }
            }
        }
    },
    {
        "changes": {
            "window": 0,
            "outline": 1
        },
        "timeout": 0.1578945,
        "raw": {
            "window": {
                "pinValue": 0,
                "ticks": 240,
                "event": {
                    "deltaTime": 240,
                    "type": "channel",
                    "subtype": "noteOff",
                    "channel": 4,
                    "noteNumber": 64,
                    "velocity": 0,
                    "lightChannels": [
                        6
                    ]
                }
            },
            "outline": {
                "pinValue": 1,
                "ticks": 0,
                "event": {
                    "deltaTime": 0,
                    "type": "channel",
                    "subtype": "noteOn",
                    "channel": 4,
                    "noteNumber": 64,
                    "velocity": 111,
                    "lightChannels": [
                        7
                    ]
                }
            }
        }
    },
    {
        "changes": {
            "outline": 0,
            "window": 1
        },
        "timeout": 0.1578945,
        "raw": {
            "outline": {
                "pinValue": 0,
                "ticks": 240,
                "event": {
                    "deltaTime": 240,
                    "type": "channel",
                    "subtype": "noteOff",
                    "channel": 4,
                    "noteNumber": 64,
                    "velocity": 0,
                    "lightChannels": [
                        7
                    ]
                }
            },
            "window": {
                "pinValue": 1,
                "ticks": 0,
                "event": {
                    "deltaTime": 0,
                    "type": "channel",
                    "subtype": "noteOn",
                    "channel": 4,
                    "noteNumber": 64,
                    "velocity": 111,
                    "lightChannels": [
                        6
                    ]
                }
            }
        }
    },
    {
        "changes": {
            "window": 0
        },
        "timeout": 0.1578945,
        "raw": {
            "window": {
                "pinValue": 0,
                "ticks": 240,
                "event": {
                    "deltaTime": 240,
                    "type": "channel",
                    "subtype": "noteOff",
                    "channel": 4,
                    "noteNumber": 64,
                    "velocity": 0,
                    "lightChannels": [
                        6
                    ]
                }
            }
        }
    },
    {
        "changes": {
            "col-1": 1
        },
        "timeout": 0.1578945,
        "raw": {
            "col-1": {
                "pinValue": 1,
                "ticks": 240,
                "event": {
                    "deltaTime": 240,
                    "type": "channel",
                    "subtype": "noteOn",
                    "channel": 4,
                    "noteNumber": 59,
                    "velocity": 111,
                    "lightChannels": [
                        3
                    ]
                }
            }
        }
    },
    {
        "changes": {
            "col-1": 0,
            "col-2": 1
        },
        "timeout": 0.1578945,
        "raw": {
            "col-1": {
                "pinValue": 0,
                "ticks": 240,
                "event": {
                    "deltaTime": 240,
                    "type": "channel",
                    "subtype": "noteOff",
                    "channel": 4,
                    "noteNumber": 59,
                    "velocity": 0,
                    "lightChannels": [
                        3
                    ]
                }
            },
            "col-2": {
                "pinValue": 1,
                "ticks": 0,
                "event": {
                    "deltaTime": 0,
                    "type": "channel",
                    "subtype": "noteOn",
                    "channel": 4,
                    "noteNumber": 60,
                    "velocity": 111,
                    "lightChannels": [
                        4
                    ]
                }
            }
        }
    },
    {
        "changes": {
            "col-2": 0,
            "col-3": 1
        },
        "timeout": 0.1578945,
        "raw": {
            "col-2": {
                "pinValue": 0,
                "ticks": 240,
                "event": {
                    "deltaTime": 240,
                    "type": "channel",
                    "subtype": "noteOff",
                    "channel": 4,
                    "noteNumber": 60,
                    "velocity": 0,
                    "lightChannels": [
                        4
                    ]
                }
            },
            "col-3": {
                "pinValue": 1,
                "ticks": 0,
                "event": {
                    "deltaTime": 0,
                    "type": "channel",
                    "subtype": "noteOn",
                    "channel": 4,
                    "noteNumber": 62,
                    "velocity": 111,
                    "lightChannels": [
                        5
                    ]
                }
            }
        }
    },
    {
        "changes": {
            "col-3": 0,
            "col-2": 1
        },
        "timeout": 0.1578945,
        "raw": {
            "col-3": {
                "pinValue": 0,
                "ticks": 240,
                "event": {
                    "deltaTime": 240,
                    "type": "channel",
                    "subtype": "noteOff",
                    "channel": 4,
                    "noteNumber": 62,
                    "velocity": 0,
                    "lightChannels": [
                        5
                    ]
                }
            },
            "col-2": {
                "pinValue": 1,
                "ticks": 0,
                "event": {
                    "deltaTime": 0,
                    "type": "channel",
                    "subtype": "noteOn",
                    "channel": 4,
                    "noteNumber": 64,
                    "velocity": 111,
                    "lightChannels": [
                        4
                    ]
                }
            }
        }
    },
    {
        "changes": {
            "col-2": 0,
            "col-3": 1
        },
        "timeout": 0.1578945,
        "raw": {
            "col-2": {
                "pinValue": 0,
                "ticks": 240,
                "event": {
                    "deltaTime": 240,
                    "type": "channel",
                    "subtype": "noteOff",
                    "channel": 4,
                    "noteNumber": 64,
                    "velocity": 0,
                    "lightChannels": [
                        4
                    ]
                }
            },
            "col-3": {
                "pinValue": 1,
                "ticks": 0,
                "event": {
                    "deltaTime": 0,
                    "type": "channel",
                    "subtype": "noteOn",
                    "channel": 4,
                    "noteNumber": 66,
                    "velocity": 111,
                    "lightChannels": [
                        5
                    ]
                }
            }
        }
    },
    {
        "changes": {
            "col-3": 0,
            "garden": 1
        },
        "timeout": 0.1578945,
        "raw": {
            "col-3": {
                "pinValue": 0,
                "ticks": 240,
                "event": {
                    "deltaTime": 240,
                    "type": "channel",
                    "subtype": "noteOff",
                    "channel": 4,
                    "noteNumber": 66,
                    "velocity": 0,
                    "lightChannels": [
                        5
                    ]
                }
            },
            "garden": {
                "pinValue": 1,
                "ticks": 0,
                "event": {
                    "deltaTime": 0,
                    "type": "channel",
                    "subtype": "noteOn",
                    "channel": 4,
                    "noteNumber": 67,
                    "velocity": 111,
                    "lightChannels": [
                        8
                    ]
                }
            }
        }
    },
    {
        "changes": {
            "garden": 0,
            "tree": 1
        },
        "timeout": 0.1578945,
        "raw": {
            "garden": {
                "pinValue": 0,
                "ticks": 240,
                "event": {
                    "deltaTime": 240,
                    "type": "channel",
                    "subtype": "noteOff",
                    "channel": 4,
                    "noteNumber": 67,
                    "velocity": 0,
                    "lightChannels": [
                        8
                    ]
                }
            },
            "tree": {
                "pinValue": 1,
                "ticks": 0,
                "event": {
                    "deltaTime": 0,
                    "type": "channel",
                    "subtype": "noteOn",
                    "channel": 4,
                    "noteNumber": 69,
                    "velocity": 111,
                    "lightChannels": [
                        9
                    ]
                }
            }
        }
    },
    {
        "changes": {
            "tree": 0,
            "outline": 1
        },
        "timeout": 0.1578945,
        "raw": {
            "tree": {
                "pinValue": 0,
                "ticks": 240,
                "event": {
                    "deltaTime": 240,
                    "type": "channel",
                    "subtype": "noteOff",
                    "channel": 4,
                    "noteNumber": 69,
                    "velocity": 0,
                    "lightChannels": [
                        9
                    ]
                }
            },
            "outline": {
                "pinValue": 1,
                "ticks": 0,
                "event": {
                    "deltaTime": 0,
                    "type": "channel",
                    "subtype": "noteOn",
                    "channel": 4,
                    "noteNumber": 71,
                    "velocity": 111,
                    "lightChannels": [
                        7
                    ]
                }
            }
        }
    },
    {
        "changes": {
            "outline": 0,
            "window": 1
        },
        "timeout": 0.1578945,
        "raw": {
            "outline": {
                "pinValue": 0,
                "ticks": 240,
                "event": {
                    "deltaTime": 240,
                    "type": "channel",
                    "subtype": "noteOff",
                    "channel": 4,
                    "noteNumber": 71,
                    "velocity": 0,
                    "lightChannels": [
                        7
                    ]
                }
            },
            "window": {
                "pinValue": 1,
                "ticks": 0,
                "event": {
                    "deltaTime": 0,
                    "type": "channel",
                    "subtype": "noteOn",
                    "channel": 4,
                    "noteNumber": 69,
                    "velocity": 111,
                    "lightChannels": [
                        6
                    ]
                }
            }
        }
    },
    {
        "changes": {
            "window": 1,
            "col-1": 1,
            "col-2": 1,
            "col-3": 1,
            "outline": 1,
            "garden": 1,
            "tree": 1
        },
        "timeout": 0.315789,
        "raw": {
            "window": {
                "pinValue": 1,
                "ticks": 0,
                "event": {
                    "deltaTime": 0,
                    "type": "channel",
                    "subtype": "noteOn",
                    "channel": 4,
                    "noteNumber": 67,
                    "velocity": 111,
                    "lightChannels": [
                        3,
                        4,
                        5,
                        6,
                        7,
                        8,
                        9
                    ]
                }
            },
            "col-1": {
                "pinValue": 1,
                "ticks": 0,
                "event": {
                    "deltaTime": 0,
                    "type": "channel",
                    "subtype": "noteOn",
                    "channel": 4,
                    "noteNumber": 67,
                    "velocity": 111,
                    "lightChannels": [
                        3,
                        4,
                        5,
                        6,
                        7,
                        8,
                        9
                    ]
                }
            },
            "col-2": {
                "pinValue": 1,
                "ticks": 0,
                "event": {
                    "deltaTime": 0,
                    "type": "channel",
                    "subtype": "noteOn",
                    "channel": 4,
                    "noteNumber": 67,
                    "velocity": 111,
                    "lightChannels": [
                        3,
                        4,
                        5,
                        6,
                        7,
                        8,
                        9
                    ]
                }
            },
            "col-3": {
                "pinValue": 1,
                "ticks": 0,
                "event": {
                    "deltaTime": 0,
                    "type": "channel",
                    "subtype": "noteOn",
                    "channel": 4,
                    "noteNumber": 67,
                    "velocity": 111,
                    "lightChannels": [
                        3,
                        4,
                        5,
                        6,
                        7,
                        8,
                        9
                    ]
                }
            },
            "outline": {
                "pinValue": 1,
                "ticks": 0,
                "event": {
                    "deltaTime": 0,
                    "type": "channel",
                    "subtype": "noteOn",
                    "channel": 4,
                    "noteNumber": 67,
                    "velocity": 111,
                    "lightChannels": [
                        3,
                        4,
                        5,
                        6,
                        7,
                        8,
                        9
                    ]
                }
            },
            "garden": {
                "pinValue": 1,
                "ticks": 0,
                "event": {
                    "deltaTime": 0,
                    "type": "channel",
                    "subtype": "noteOn",
                    "channel": 4,
                    "noteNumber": 67,
                    "velocity": 111,
                    "lightChannels": [
                        3,
                        4,
                        5,
                        6,
                        7,
                        8,
                        9
                    ]
                }
            },
            "tree": {
                "pinValue": 1,
                "ticks": 0,
                "event": {
                    "deltaTime": 0,
                    "type": "channel",
                    "subtype": "noteOn",
                    "channel": 4,
                    "noteNumber": 67,
                    "velocity": 111,
                    "lightChannels": [
                        3,
                        4,
                        5,
                        6,
                        7,
                        8,
                        9
                    ]
                }
            }
        }
    },
    {
        "changes": {
            "col-1": 1,
            "col-2": 0,
            "col-3": 0,
            "window": 0,
            "outline": 0,
            "garden": 0,
            "tree": 0
        },
        "timeout": 0.315789,
        "raw": {
            "col-1": {
                "pinValue": 1,
                "ticks": 0,
                "event": {
                    "deltaTime": 0,
                    "type": "channel",
                    "subtype": "noteOn",
                    "channel": 4,
                    "noteNumber": 71,
                    "velocity": 111,
                    "lightChannels": [
                        3
                    ]
                }
            },
            "col-2": {
                "pinValue": 0,
                "ticks": 480,
                "event": {
                    "deltaTime": 480,
                    "type": "channel",
                    "subtype": "noteOff",
                    "channel": 4,
                    "noteNumber": 67,
                    "velocity": 0,
                    "lightChannels": [
                        3,
                        4,
                        5,
                        6,
                        7,
                        8,
                        9
                    ]
                }
            },
            "col-3": {
                "pinValue": 0,
                "ticks": 480,
                "event": {
                    "deltaTime": 480,
                    "type": "channel",
                    "subtype": "noteOff",
                    "channel": 4,
                    "noteNumber": 67,
                    "velocity": 0,
                    "lightChannels": [
                        3,
                        4,
                        5,
                        6,
                        7,
                        8,
                        9
                    ]
                }
            },
            "window": {
                "pinValue": 0,
                "ticks": 480,
                "event": {
                    "deltaTime": 480,
                    "type": "channel",
                    "subtype": "noteOff",
                    "channel": 4,
                    "noteNumber": 67,
                    "velocity": 0,
                    "lightChannels": [
                        3,
                        4,
                        5,
                        6,
                        7,
                        8,
                        9
                    ]
                }
            },
            "outline": {
                "pinValue": 0,
                "ticks": 480,
                "event": {
                    "deltaTime": 480,
                    "type": "channel",
                    "subtype": "noteOff",
                    "channel": 4,
                    "noteNumber": 67,
                    "velocity": 0,
                    "lightChannels": [
                        3,
                        4,
                        5,
                        6,
                        7,
                        8,
                        9
                    ]
                }
            },
            "garden": {
                "pinValue": 0,
                "ticks": 480,
                "event": {
                    "deltaTime": 480,
                    "type": "channel",
                    "subtype": "noteOff",
                    "channel": 4,
                    "noteNumber": 67,
                    "velocity": 0,
                    "lightChannels": [
                        3,
                        4,
                        5,
                        6,
                        7,
                        8,
                        9
                    ]
                }
            },
            "tree": {
                "pinValue": 0,
                "ticks": 480,
                "event": {
                    "deltaTime": 480,
                    "type": "channel",
                    "subtype": "noteOff",
                    "channel": 4,
                    "noteNumber": 67,
                    "velocity": 0,
                    "lightChannels": [
                        3,
                        4,
                        5,
                        6,
                        7,
                        8,
                        9
                    ]
                }
            }
        }
    },
    {
        "changes": {
            "col-1": 0,
            "col-2": 1
        },
        "timeout": 0.1578945,
        "raw": {
            "col-1": {
                "pinValue": 0,
                "ticks": 240,
                "event": {
                    "deltaTime": 240,
                    "type": "channel",
                    "subtype": "noteOff",
                    "channel": 4,
                    "noteNumber": 71,
                    "velocity": 0,
                    "lightChannels": [
                        3
                    ]
                }
            },
            "col-2": {
                "pinValue": 1,
                "ticks": 0,
                "event": {
                    "deltaTime": 0,
                    "type": "channel",
                    "subtype": "noteOn",
                    "channel": 4,
                    "noteNumber": 72,
                    "velocity": 111,
                    "lightChannels": [
                        4
                    ]
                }
            }
        }
    },
    {
        "changes": {
            "col-2": 0,
            "col-3": 1
        },
        "timeout": 0.1578945,
        "raw": {
            "col-2": {
                "pinValue": 0,
                "ticks": 240,
                "event": {
                    "deltaTime": 240,
                    "type": "channel",
                    "subtype": "noteOff",
                    "channel": 4,
                    "noteNumber": 72,
                    "velocity": 0,
                    "lightChannels": [
                        4
                    ]
                }
            },
            "col-3": {
                "pinValue": 1,
                "ticks": 0,
                "event": {
                    "deltaTime": 0,
                    "type": "channel",
                    "subtype": "noteOn",
                    "channel": 4,
                    "noteNumber": 74,
                    "velocity": 111,
                    "lightChannels": [
                        5
                    ]
                }
            }
        }
    },
    {
        "changes": {
            "col-3": 0,
            "col-2": 1
        },
        "timeout": 0.1578945,
        "raw": {
            "col-3": {
                "pinValue": 0,
                "ticks": 240,
                "event": {
                    "deltaTime": 240,
                    "type": "channel",
                    "subtype": "noteOff",
                    "channel": 4,
                    "noteNumber": 74,
                    "velocity": 0,
                    "lightChannels": [
                        5
                    ]
                }
            },
            "col-2": {
                "pinValue": 1,
                "ticks": 0,
                "event": {
                    "deltaTime": 0,
                    "type": "channel",
                    "subtype": "noteOn",
                    "channel": 4,
                    "noteNumber": 76,
                    "velocity": 111,
                    "lightChannels": [
                        4
                    ]
                }
            }
        }
    },
    {
        "changes": {
            "col-2": 0,
            "col-3": 1
        },
        "timeout": 0.1578945,
        "raw": {
            "col-2": {
                "pinValue": 0,
                "ticks": 240,
                "event": {
                    "deltaTime": 240,
                    "type": "channel",
                    "subtype": "noteOff",
                    "channel": 4,
                    "noteNumber": 76,
                    "velocity": 0,
                    "lightChannels": [
                        4
                    ]
                }
            },
            "col-3": {
                "pinValue": 1,
                "ticks": 0,
                "event": {
                    "deltaTime": 0,
                    "type": "channel",
                    "subtype": "noteOn",
                    "channel": 4,
                    "noteNumber": 78,
                    "velocity": 111,
                    "lightChannels": [
                        5
                    ]
                }
            }
        }
    },
    {
        "changes": {
            "col-3": 0,
            "garden": 1
        },
        "timeout": 0.1578945,
        "raw": {
            "col-3": {
                "pinValue": 0,
                "ticks": 240,
                "event": {
                    "deltaTime": 240,
                    "type": "channel",
                    "subtype": "noteOff",
                    "channel": 4,
                    "noteNumber": 78,
                    "velocity": 0,
                    "lightChannels": [
                        5
                    ]
                }
            },
            "garden": {
                "pinValue": 1,
                "ticks": 0,
                "event": {
                    "deltaTime": 0,
                    "type": "channel",
                    "subtype": "noteOn",
                    "channel": 4,
                    "noteNumber": 79,
                    "velocity": 111,
                    "lightChannels": [
                        8
                    ]
                }
            }
        }
    },
    {
        "changes": {
            "garden": 0,
            "tree": 1
        },
        "timeout": 0.1578945,
        "raw": {
            "garden": {
                "pinValue": 0,
                "ticks": 240,
                "event": {
                    "deltaTime": 240,
                    "type": "channel",
                    "subtype": "noteOff",
                    "channel": 4,
                    "noteNumber": 79,
                    "velocity": 0,
                    "lightChannels": [
                        8
                    ]
                }
            },
            "tree": {
                "pinValue": 1,
                "ticks": 0,
                "event": {
                    "deltaTime": 0,
                    "type": "channel",
                    "subtype": "noteOn",
                    "channel": 4,
                    "noteNumber": 81,
                    "velocity": 111,
                    "lightChannels": [
                        9
                    ]
                }
            }
        }
    },
    {
        "changes": {
            "tree": 0,
            "outline": 1
        },
        "timeout": 0.1578945,
        "raw": {
            "tree": {
                "pinValue": 0,
                "ticks": 240,
                "event": {
                    "deltaTime": 240,
                    "type": "channel",
                    "subtype": "noteOff",
                    "channel": 4,
                    "noteNumber": 81,
                    "velocity": 0,
                    "lightChannels": [
                        9
                    ]
                }
            },
            "outline": {
                "pinValue": 1,
                "ticks": 0,
                "event": {
                    "deltaTime": 0,
                    "type": "channel",
                    "subtype": "noteOn",
                    "channel": 4,
                    "noteNumber": 83,
                    "velocity": 111,
                    "lightChannels": [
                        7
                    ]
                }
            }
        }
    },
    {
        "changes": {
            "outline": 0,
            "window": 1
        },
        "timeout": 0.1578945,
        "raw": {
            "outline": {
                "pinValue": 0,
                "ticks": 240,
                "event": {
                    "deltaTime": 240,
                    "type": "channel",
                    "subtype": "noteOff",
                    "channel": 4,
                    "noteNumber": 83,
                    "velocity": 0,
                    "lightChannels": [
                        7
                    ]
                }
            },
            "window": {
                "pinValue": 1,
                "ticks": 0,
                "event": {
                    "deltaTime": 0,
                    "type": "channel",
                    "subtype": "noteOn",
                    "channel": 4,
                    "noteNumber": 81,
                    "velocity": 111,
                    "lightChannels": [
                        6
                    ]
                }
            }
        }
    },
    {
        "changes": {
            "window": 1,
            "col-1": 1,
            "col-2": 1,
            "col-3": 1,
            "outline": 1,
            "garden": 1,
            "tree": 1
        },
        "timeout": 0.315789,
        "raw": {
            "window": {
                "pinValue": 1,
                "ticks": 0,
                "event": {
                    "deltaTime": 0,
                    "type": "channel",
                    "subtype": "noteOn",
                    "channel": 4,
                    "noteNumber": 79,
                    "velocity": 111,
                    "lightChannels": [
                        3,
                        4,
                        5,
                        6,
                        7,
                        8,
                        9
                    ]
                }
            },
            "col-1": {
                "pinValue": 1,
                "ticks": 0,
                "event": {
                    "deltaTime": 0,
                    "type": "channel",
                    "subtype": "noteOn",
                    "channel": 4,
                    "noteNumber": 79,
                    "velocity": 111,
                    "lightChannels": [
                        3,
                        4,
                        5,
                        6,
                        7,
                        8,
                        9
                    ]
                }
            },
            "col-2": {
                "pinValue": 1,
                "ticks": 0,
                "event": {
                    "deltaTime": 0,
                    "type": "channel",
                    "subtype": "noteOn",
                    "channel": 4,
                    "noteNumber": 79,
                    "velocity": 111,
                    "lightChannels": [
                        3,
                        4,
                        5,
                        6,
                        7,
                        8,
                        9
                    ]
                }
            },
            "col-3": {
                "pinValue": 1,
                "ticks": 0,
                "event": {
                    "deltaTime": 0,
                    "type": "channel",
                    "subtype": "noteOn",
                    "channel": 4,
                    "noteNumber": 79,
                    "velocity": 111,
                    "lightChannels": [
                        3,
                        4,
                        5,
                        6,
                        7,
                        8,
                        9
                    ]
                }
            },
            "outline": {
                "pinValue": 1,
                "ticks": 0,
                "event": {
                    "deltaTime": 0,
                    "type": "channel",
                    "subtype": "noteOn",
                    "channel": 4,
                    "noteNumber": 79,
                    "velocity": 111,
                    "lightChannels": [
                        3,
                        4,
                        5,
                        6,
                        7,
                        8,
                        9
                    ]
                }
            },
            "garden": {
                "pinValue": 1,
                "ticks": 0,
                "event": {
                    "deltaTime": 0,
                    "type": "channel",
                    "subtype": "noteOn",
                    "channel": 4,
                    "noteNumber": 79,
                    "velocity": 111,
                    "lightChannels": [
                        3,
                        4,
                        5,
                        6,
                        7,
                        8,
                        9
                    ]
                }
            },
            "tree": {
                "pinValue": 1,
                "ticks": 0,
                "event": {
                    "deltaTime": 0,
                    "type": "channel",
                    "subtype": "noteOn",
                    "channel": 4,
                    "noteNumber": 79,
                    "velocity": 111,
                    "lightChannels": [
                        3,
                        4,
                        5,
                        6,
                        7,
                        8,
                        9
                    ]
                }
            }
        }
    },
    {
        "changes": {
            "col-1": 1,
            "col-2": 0,
            "col-3": 0,
            "window": 0,
            "outline": 0,
            "garden": 0,
            "tree": 0
        },
        "timeout": 0.315789,
        "raw": {
            "col-1": {
                "pinValue": 1,
                "ticks": 0,
                "event": {
                    "deltaTime": 0,
                    "type": "channel",
                    "subtype": "noteOn",
                    "channel": 4,
                    "noteNumber": 67,
                    "velocity": 111,
                    "lightChannels": [
                        3
                    ]
                }
            },
            "col-2": {
                "pinValue": 0,
                "ticks": 480,
                "event": {
                    "deltaTime": 480,
                    "type": "channel",
                    "subtype": "noteOff",
                    "channel": 4,
                    "noteNumber": 79,
                    "velocity": 0,
                    "lightChannels": [
                        3,
                        4,
                        5,
                        6,
                        7,
                        8,
                        9
                    ]
                }
            },
            "col-3": {
                "pinValue": 0,
                "ticks": 480,
                "event": {
                    "deltaTime": 480,
                    "type": "channel",
                    "subtype": "noteOff",
                    "channel": 4,
                    "noteNumber": 79,
                    "velocity": 0,
                    "lightChannels": [
                        3,
                        4,
                        5,
                        6,
                        7,
                        8,
                        9
                    ]
                }
            },
            "window": {
                "pinValue": 0,
                "ticks": 480,
                "event": {
                    "deltaTime": 480,
                    "type": "channel",
                    "subtype": "noteOff",
                    "channel": 4,
                    "noteNumber": 79,
                    "velocity": 0,
                    "lightChannels": [
                        3,
                        4,
                        5,
                        6,
                        7,
                        8,
                        9
                    ]
                }
            },
            "outline": {
                "pinValue": 0,
                "ticks": 480,
                "event": {
                    "deltaTime": 480,
                    "type": "channel",
                    "subtype": "noteOff",
                    "channel": 4,
                    "noteNumber": 79,
                    "velocity": 0,
                    "lightChannels": [
                        3,
                        4,
                        5,
                        6,
                        7,
                        8,
                        9
                    ]
                }
            },
            "garden": {
                "pinValue": 0,
                "ticks": 480,
                "event": {
                    "deltaTime": 480,
                    "type": "channel",
                    "subtype": "noteOff",
                    "channel": 4,
                    "noteNumber": 79,
                    "velocity": 0,
                    "lightChannels": [
                        3,
                        4,
                        5,
                        6,
                        7,
                        8,
                        9
                    ]
                }
            },
            "tree": {
                "pinValue": 0,
                "ticks": 480,
                "event": {
                    "deltaTime": 480,
                    "type": "channel",
                    "subtype": "noteOff",
                    "channel": 4,
                    "noteNumber": 79,
                    "velocity": 0,
                    "lightChannels": [
                        3,
                        4,
                        5,
                        6,
                        7,
                        8,
                        9
                    ]
                }
            }
        }
    },
    {
        "changes": {
            "col-1": 0,
            "col-3": 1
        },
        "timeout": 0.315789,
        "raw": {
            "col-1": {
                "pinValue": 0,
                "ticks": 480,
                "event": {
                    "deltaTime": 480,
                    "type": "channel",
                    "subtype": "noteOff",
                    "channel": 4,
                    "noteNumber": 67,
                    "velocity": 0,
                    "lightChannels": [
                        3
                    ]
                }
            },
            "col-3": {
                "pinValue": 1,
                "ticks": 0,
                "event": {
                    "deltaTime": 0,
                    "type": "channel",
                    "subtype": "noteOn",
                    "channel": 4,
                    "noteNumber": 66,
                    "velocity": 111,
                    "lightChannels": [
                        5
                    ]
                }
            }
        }
    },
    {
        "changes": {
            "col-3": 0,
            "col-2": 1
        },
        "timeout": 0.1578945,
        "raw": {
            "col-3": {
                "pinValue": 0,
                "ticks": 240,
                "event": {
                    "deltaTime": 240,
                    "type": "channel",
                    "subtype": "noteOff",
                    "channel": 4,
                    "noteNumber": 66,
                    "velocity": 0,
                    "lightChannels": [
                        5
                    ]
                }
            },
            "col-2": {
                "pinValue": 1,
                "ticks": 0,
                "event": {
                    "deltaTime": 0,
                    "type": "channel",
                    "subtype": "noteOn",
                    "channel": 4,
                    "noteNumber": 67,
                    "velocity": 111,
                    "lightChannels": [
                        4
                    ]
                }
            }
        }
    },
    {
        "changes": {
            "col-2": 0,
            "garden": 1,
            "tree": 1
        },
        "timeout": 0.1578945,
        "raw": {
            "col-2": {
                "pinValue": 0,
                "ticks": 240,
                "event": {
                    "deltaTime": 240,
                    "type": "channel",
                    "subtype": "noteOff",
                    "channel": 4,
                    "noteNumber": 67,
                    "velocity": 0,
                    "lightChannels": [
                        4
                    ]
                }
            },
            "garden": {
                "pinValue": 1,
                "ticks": 0,
                "event": {
                    "deltaTime": 0,
                    "type": "channel",
                    "subtype": "noteOn",
                    "channel": 4,
                    "noteNumber": 64,
                    "velocity": 111,
                    "lightChannels": [
                        8,
                        9
                    ]
                }
            },
            "tree": {
                "pinValue": 1,
                "ticks": 0,
                "event": {
                    "deltaTime": 0,
                    "type": "channel",
                    "subtype": "noteOn",
                    "channel": 4,
                    "noteNumber": 64,
                    "velocity": 111,
                    "lightChannels": [
                        8,
                        9
                    ]
                }
            }
        }
    },
    {
        "changes": {
            "garden": 0,
            "tree": 0,
            "col-1": 1
        },
        "timeout": 0.315789,
        "raw": {
            "garden": {
                "pinValue": 0,
                "ticks": 480,
                "event": {
                    "deltaTime": 480,
                    "type": "channel",
                    "subtype": "noteOff",
                    "channel": 4,
                    "noteNumber": 64,
                    "velocity": 0,
                    "lightChannels": [
                        8,
                        9
                    ]
                }
            },
            "tree": {
                "pinValue": 0,
                "ticks": 480,
                "event": {
                    "deltaTime": 480,
                    "type": "channel",
                    "subtype": "noteOff",
                    "channel": 4,
                    "noteNumber": 64,
                    "velocity": 0,
                    "lightChannels": [
                        8,
                        9
                    ]
                }
            },
            "col-1": {
                "pinValue": 1,
                "ticks": 0,
                "event": {
                    "deltaTime": 0,
                    "type": "channel",
                    "subtype": "noteOn",
                    "channel": 4,
                    "noteNumber": 79,
                    "velocity": 111,
                    "lightChannels": [
                        3
                    ]
                }
            }
        }
    },
    {
        "changes": {
            "col-1": 0,
            "col-3": 1
        },
        "timeout": 0.315789,
        "raw": {
            "col-1": {
                "pinValue": 0,
                "ticks": 480,
                "event": {
                    "deltaTime": 480,
                    "type": "channel",
                    "subtype": "noteOff",
                    "channel": 4,
                    "noteNumber": 79,
                    "velocity": 0,
                    "lightChannels": [
                        3
                    ]
                }
            },
            "col-3": {
                "pinValue": 1,
                "ticks": 0,
                "event": {
                    "deltaTime": 0,
                    "type": "channel",
                    "subtype": "noteOn",
                    "channel": 4,
                    "noteNumber": 78,
                    "velocity": 111,
                    "lightChannels": [
                        5
                    ]
                }
            }
        }
    },
    {
        "changes": {
            "col-3": 0,
            "col-2": 1
        },
        "timeout": 0.1578945,
        "raw": {
            "col-3": {
                "pinValue": 0,
                "ticks": 240,
                "event": {
                    "deltaTime": 240,
                    "type": "channel",
                    "subtype": "noteOff",
                    "channel": 4,
                    "noteNumber": 78,
                    "velocity": 0,
                    "lightChannels": [
                        5
                    ]
                }
            },
            "col-2": {
                "pinValue": 1,
                "ticks": 0,
                "event": {
                    "deltaTime": 0,
                    "type": "channel",
                    "subtype": "noteOn",
                    "channel": 4,
                    "noteNumber": 79,
                    "velocity": 111,
                    "lightChannels": [
                        4
                    ]
                }
            }
        }
    },
    {
        "changes": {
            "col-2": 0,
            "garden": 1,
            "tree": 1
        },
        "timeout": 0.1578945,
        "raw": {
            "col-2": {
                "pinValue": 0,
                "ticks": 240,
                "event": {
                    "deltaTime": 240,
                    "type": "channel",
                    "subtype": "noteOff",
                    "channel": 4,
                    "noteNumber": 79,
                    "velocity": 0,
                    "lightChannels": [
                        4
                    ]
                }
            },
            "garden": {
                "pinValue": 1,
                "ticks": 0,
                "event": {
                    "deltaTime": 0,
                    "type": "channel",
                    "subtype": "noteOn",
                    "channel": 4,
                    "noteNumber": 76,
                    "velocity": 111,
                    "lightChannels": [
                        8,
                        9
                    ]
                }
            },
            "tree": {
                "pinValue": 1,
                "ticks": 0,
                "event": {
                    "deltaTime": 0,
                    "type": "channel",
                    "subtype": "noteOn",
                    "channel": 4,
                    "noteNumber": 76,
                    "velocity": 111,
                    "lightChannels": [
                        8,
                        9
                    ]
                }
            }
        }
    },
    {
        "changes": {
            "garden": 0,
            "tree": 0,
            "col-1": 1
        },
        "timeout": 0.315789,
        "raw": {
            "garden": {
                "pinValue": 0,
                "ticks": 480,
                "event": {
                    "deltaTime": 480,
                    "type": "channel",
                    "subtype": "noteOff",
                    "channel": 4,
                    "noteNumber": 76,
                    "velocity": 0,
                    "lightChannels": [
                        8,
                        9
                    ]
                }
            },
            "tree": {
                "pinValue": 0,
                "ticks": 480,
                "event": {
                    "deltaTime": 480,
                    "type": "channel",
                    "subtype": "noteOff",
                    "channel": 4,
                    "noteNumber": 76,
                    "velocity": 0,
                    "lightChannels": [
                        8,
                        9
                    ]
                }
            },
            "col-1": {
                "pinValue": 1,
                "ticks": 0,
                "event": {
                    "deltaTime": 0,
                    "type": "channel",
                    "subtype": "noteOn",
                    "channel": 4,
                    "noteNumber": 67,
                    "velocity": 111,
                    "lightChannels": [
                        3
                    ]
                }
            }
        }
    },
    {
        "changes": {
            "col-1": 0,
            "col-3": 1
        },
        "timeout": 0.315789,
        "raw": {
            "col-1": {
                "pinValue": 0,
                "ticks": 480,
                "event": {
                    "deltaTime": 480,
                    "type": "channel",
                    "subtype": "noteOff",
                    "channel": 4,
                    "noteNumber": 67,
                    "velocity": 0,
                    "lightChannels": [
                        3
                    ]
                }
            },
            "col-3": {
                "pinValue": 1,
                "ticks": 0,
                "event": {
                    "deltaTime": 0,
                    "type": "channel",
                    "subtype": "noteOn",
                    "channel": 4,
                    "noteNumber": 66,
                    "velocity": 111,
                    "lightChannels": [
                        5
                    ]
                }
            }
        }
    },
    {
        "changes": {
            "col-3": 0,
            "col-2": 1
        },
        "timeout": 0.1578945,
        "raw": {
            "col-3": {
                "pinValue": 0,
                "ticks": 240,
                "event": {
                    "deltaTime": 240,
                    "type": "channel",
                    "subtype": "noteOff",
                    "channel": 4,
                    "noteNumber": 66,
                    "velocity": 0,
                    "lightChannels": [
                        5
                    ]
                }
            },
            "col-2": {
                "pinValue": 1,
                "ticks": 0,
                "event": {
                    "deltaTime": 0,
                    "type": "channel",
                    "subtype": "noteOn",
                    "channel": 4,
                    "noteNumber": 67,
                    "velocity": 111,
                    "lightChannels": [
                        4
                    ]
                }
            }
        }
    },
    {
        "changes": {
            "col-2": 0,
            "garden": 1,
            "tree": 1
        },
        "timeout": 0.1578945,
        "raw": {
            "col-2": {
                "pinValue": 0,
                "ticks": 240,
                "event": {
                    "deltaTime": 240,
                    "type": "channel",
                    "subtype": "noteOff",
                    "channel": 4,
                    "noteNumber": 67,
                    "velocity": 0,
                    "lightChannels": [
                        4
                    ]
                }
            },
            "garden": {
                "pinValue": 1,
                "ticks": 0,
                "event": {
                    "deltaTime": 0,
                    "type": "channel",
                    "subtype": "noteOn",
                    "channel": 4,
                    "noteNumber": 64,
                    "velocity": 111,
                    "lightChannels": [
                        8,
                        9
                    ]
                }
            },
            "tree": {
                "pinValue": 1,
                "ticks": 0,
                "event": {
                    "deltaTime": 0,
                    "type": "channel",
                    "subtype": "noteOn",
                    "channel": 4,
                    "noteNumber": 64,
                    "velocity": 111,
                    "lightChannels": [
                        8,
                        9
                    ]
                }
            }
        }
    },
    {
        "changes": {
            "garden": 0,
            "tree": 0,
            "col-1": 1
        },
        "timeout": 0.315789,
        "raw": {
            "garden": {
                "pinValue": 0,
                "ticks": 480,
                "event": {
                    "deltaTime": 480,
                    "type": "channel",
                    "subtype": "noteOff",
                    "channel": 4,
                    "noteNumber": 64,
                    "velocity": 0,
                    "lightChannels": [
                        8,
                        9
                    ]
                }
            },
            "tree": {
                "pinValue": 0,
                "ticks": 480,
                "event": {
                    "deltaTime": 480,
                    "type": "channel",
                    "subtype": "noteOff",
                    "channel": 4,
                    "noteNumber": 64,
                    "velocity": 0,
                    "lightChannels": [
                        8,
                        9
                    ]
                }
            },
            "col-1": {
                "pinValue": 1,
                "ticks": 0,
                "event": {
                    "deltaTime": 0,
                    "type": "channel",
                    "subtype": "noteOn",
                    "channel": 4,
                    "noteNumber": 81,
                    "velocity": 111,
                    "lightChannels": [
                        3
                    ]
                }
            }
        }
    },
    {
        "changes": {
            "col-1": 0,
            "col-3": 1
        },
        "timeout": 0.315789,
        "raw": {
            "col-1": {
                "pinValue": 0,
                "ticks": 480,
                "event": {
                    "deltaTime": 480,
                    "type": "channel",
                    "subtype": "noteOff",
                    "channel": 4,
                    "noteNumber": 81,
                    "velocity": 0,
                    "lightChannels": [
                        3
                    ]
                }
            },
            "col-3": {
                "pinValue": 1,
                "ticks": 0,
                "event": {
                    "deltaTime": 0,
                    "type": "channel",
                    "subtype": "noteOn",
                    "channel": 4,
                    "noteNumber": 81,
                    "velocity": 111,
                    "lightChannels": [
                        5
                    ]
                }
            }
        }
    },
    {
        "changes": {
            "col-3": 0,
            "col-2": 1
        },
        "timeout": 0.1578945,
        "raw": {
            "col-3": {
                "pinValue": 0,
                "ticks": 240,
                "event": {
                    "deltaTime": 240,
                    "type": "channel",
                    "subtype": "noteOff",
                    "channel": 4,
                    "noteNumber": 81,
                    "velocity": 0,
                    "lightChannels": [
                        5
                    ]
                }
            },
            "col-2": {
                "pinValue": 1,
                "ticks": 0,
                "event": {
                    "deltaTime": 0,
                    "type": "channel",
                    "subtype": "noteOn",
                    "channel": 4,
                    "noteNumber": 79,
                    "velocity": 111,
                    "lightChannels": [
                        4
                    ]
                }
            }
        }
    },
    {
        "changes": {
            "garden": 1,
            "tree": 1
        },
        "timeout": 0.1578945,
        "raw": {
            "garden": {
                "pinValue": 1,
                "ticks": 240,
                "event": {
                    "deltaTime": 240,
                    "type": "channel",
                    "subtype": "noteOn",
                    "channel": 4,
                    "noteNumber": 76,
                    "velocity": 111,
                    "lightChannels": [
                        8,
                        9
                    ]
                }
            },
            "tree": {
                "pinValue": 1,
                "ticks": 240,
                "event": {
                    "deltaTime": 240,
                    "type": "channel",
                    "subtype": "noteOn",
                    "channel": 4,
                    "noteNumber": 76,
                    "velocity": 111,
                    "lightChannels": [
                        8,
                        9
                    ]
                }
            }
        }
    },
    {
        "changes": {
            "col-2": 0
        },
        "timeout": 0.1578945,
        "raw": {
            "col-2": {
                "pinValue": 0,
                "ticks": 240,
                "event": {
                    "deltaTime": 240,
                    "type": "channel",
                    "subtype": "noteOff",
                    "channel": 4,
                    "noteNumber": 79,
                    "velocity": 0,
                    "lightChannels": [
                        4
                    ]
                }
            }
        }
    },
    {
        "changes": {
            "garden": 0,
            "tree": 0,
            "garage": 1,
            "top-right": 1,
            "bottom-right": 1,
            "col-1": 1
        },
        "timeout": 0.1578945,
        "raw": {
            "garden": {
                "pinValue": 0,
                "ticks": 240,
                "event": {
                    "deltaTime": 240,
                    "type": "channel",
                    "subtype": "noteOff",
                    "channel": 4,
                    "noteNumber": 76,
                    "velocity": 0,
                    "lightChannels": [
                        8,
                        9
                    ]
                }
            },
            "tree": {
                "pinValue": 0,
                "ticks": 240,
                "event": {
                    "deltaTime": 240,
                    "type": "channel",
                    "subtype": "noteOff",
                    "channel": 4,
                    "noteNumber": 76,
                    "velocity": 0,
                    "lightChannels": [
                        8,
                        9
                    ]
                }
            },
            "garage": {
                "pinValue": 1,
                "ticks": 0,
                "event": {
                    "deltaTime": 0,
                    "type": "channel",
                    "subtype": "noteOn",
                    "channel": 4,
                    "noteNumber": 79,
                    "velocity": 111,
                    "lightChannels": [
                        0,
                        1,
                        2
                    ]
                }
            },
            "top-right": {
                "pinValue": 1,
                "ticks": 0,
                "event": {
                    "deltaTime": 0,
                    "type": "channel",
                    "subtype": "noteOn",
                    "channel": 4,
                    "noteNumber": 79,
                    "velocity": 111,
                    "lightChannels": [
                        0,
                        1,
                        2
                    ]
                }
            },
            "bottom-right": {
                "pinValue": 1,
                "ticks": 0,
                "event": {
                    "deltaTime": 0,
                    "type": "channel",
                    "subtype": "noteOn",
                    "channel": 4,
                    "noteNumber": 79,
                    "velocity": 111,
                    "lightChannels": [
                        0,
                        1,
                        2
                    ]
                }
            },
            "col-1": {
                "pinValue": 1,
                "ticks": 0,
                "event": {
                    "deltaTime": 0,
                    "type": "channel",
                    "subtype": "noteOn",
                    "channel": 4,
                    "noteNumber": 67,
                    "velocity": 111,
                    "lightChannels": [
                        3
                    ]
                }
            }
        }
    },
    {
        "changes": {
            "garage": 0,
            "top-right": 0,
            "bottom-right": 0,
            "col-1": 0,
            "col-3": 1
        },
        "timeout": 0.315789,
        "raw": {
            "garage": {
                "pinValue": 0,
                "ticks": 480,
                "event": {
                    "deltaTime": 480,
                    "type": "channel",
                    "subtype": "noteOff",
                    "channel": 4,
                    "noteNumber": 79,
                    "velocity": 0,
                    "lightChannels": [
                        0,
                        1,
                        2
                    ]
                }
            },
            "top-right": {
                "pinValue": 0,
                "ticks": 480,
                "event": {
                    "deltaTime": 480,
                    "type": "channel",
                    "subtype": "noteOff",
                    "channel": 4,
                    "noteNumber": 79,
                    "velocity": 0,
                    "lightChannels": [
                        0,
                        1,
                        2
                    ]
                }
            },
            "bottom-right": {
                "pinValue": 0,
                "ticks": 480,
                "event": {
                    "deltaTime": 480,
                    "type": "channel",
                    "subtype": "noteOff",
                    "channel": 4,
                    "noteNumber": 79,
                    "velocity": 0,
                    "lightChannels": [
                        0,
                        1,
                        2
                    ]
                }
            },
            "col-1": {
                "pinValue": 0,
                "ticks": 0,
                "event": {
                    "deltaTime": 0,
                    "type": "channel",
                    "subtype": "noteOff",
                    "channel": 4,
                    "noteNumber": 67,
                    "velocity": 0,
                    "lightChannels": [
                        3
                    ]
                }
            },
            "col-3": {
                "pinValue": 1,
                "ticks": 0,
                "event": {
                    "deltaTime": 0,
                    "type": "channel",
                    "subtype": "noteOn",
                    "channel": 4,
                    "noteNumber": 66,
                    "velocity": 111,
                    "lightChannels": [
                        5
                    ]
                }
            }
        }
    },
    {
        "changes": {
            "col-3": 0,
            "col-2": 1
        },
        "timeout": 0.1578945,
        "raw": {
            "col-3": {
                "pinValue": 0,
                "ticks": 240,
                "event": {
                    "deltaTime": 240,
                    "type": "channel",
                    "subtype": "noteOff",
                    "channel": 4,
                    "noteNumber": 66,
                    "velocity": 0,
                    "lightChannels": [
                        5
                    ]
                }
            },
            "col-2": {
                "pinValue": 1,
                "ticks": 0,
                "event": {
                    "deltaTime": 0,
                    "type": "channel",
                    "subtype": "noteOn",
                    "channel": 4,
                    "noteNumber": 67,
                    "velocity": 111,
                    "lightChannels": [
                        4
                    ]
                }
            }
        }
    },
    {
        "changes": {
            "col-2": 0,
            "garden": 1,
            "tree": 1
        },
        "timeout": 0.1578945,
        "raw": {
            "col-2": {
                "pinValue": 0,
                "ticks": 240,
                "event": {
                    "deltaTime": 240,
                    "type": "channel",
                    "subtype": "noteOff",
                    "channel": 4,
                    "noteNumber": 67,
                    "velocity": 0,
                    "lightChannels": [
                        4
                    ]
                }
            },
            "garden": {
                "pinValue": 1,
                "ticks": 0,
                "event": {
                    "deltaTime": 0,
                    "type": "channel",
                    "subtype": "noteOn",
                    "channel": 4,
                    "noteNumber": 64,
                    "velocity": 111,
                    "lightChannels": [
                        8,
                        9
                    ]
                }
            },
            "tree": {
                "pinValue": 1,
                "ticks": 0,
                "event": {
                    "deltaTime": 0,
                    "type": "channel",
                    "subtype": "noteOn",
                    "channel": 4,
                    "noteNumber": 64,
                    "velocity": 111,
                    "lightChannels": [
                        8,
                        9
                    ]
                }
            }
        }
    },
    {
        "changes": {
            "garden": 0,
            "tree": 0,
            "garage": 1,
            "top-right": 1,
            "bottom-right": 1,
            "col-1": 1
        },
        "timeout": 0.315789,
        "raw": {
            "garden": {
                "pinValue": 0,
                "ticks": 480,
                "event": {
                    "deltaTime": 480,
                    "type": "channel",
                    "subtype": "noteOff",
                    "channel": 4,
                    "noteNumber": 64,
                    "velocity": 0,
                    "lightChannels": [
                        8,
                        9
                    ]
                }
            },
            "tree": {
                "pinValue": 0,
                "ticks": 480,
                "event": {
                    "deltaTime": 480,
                    "type": "channel",
                    "subtype": "noteOff",
                    "channel": 4,
                    "noteNumber": 64,
                    "velocity": 0,
                    "lightChannels": [
                        8,
                        9
                    ]
                }
            },
            "garage": {
                "pinValue": 1,
                "ticks": 0,
                "event": {
                    "deltaTime": 0,
                    "type": "channel",
                    "subtype": "noteOn",
                    "channel": 4,
                    "noteNumber": 81,
                    "velocity": 111,
                    "lightChannels": [
                        0,
                        1,
                        2
                    ]
                }
            },
            "top-right": {
                "pinValue": 1,
                "ticks": 0,
                "event": {
                    "deltaTime": 0,
                    "type": "channel",
                    "subtype": "noteOn",
                    "channel": 4,
                    "noteNumber": 81,
                    "velocity": 111,
                    "lightChannels": [
                        0,
                        1,
                        2
                    ]
                }
            },
            "bottom-right": {
                "pinValue": 1,
                "ticks": 0,
                "event": {
                    "deltaTime": 0,
                    "type": "channel",
                    "subtype": "noteOn",
                    "channel": 4,
                    "noteNumber": 81,
                    "velocity": 111,
                    "lightChannels": [
                        0,
                        1,
                        2
                    ]
                }
            },
            "col-1": {
                "pinValue": 1,
                "ticks": 0,
                "event": {
                    "deltaTime": 0,
                    "type": "channel",
                    "subtype": "noteOn",
                    "channel": 4,
                    "noteNumber": 67,
                    "velocity": 111,
                    "lightChannels": [
                        3
                    ]
                }
            }
        }
    },
    {
        "changes": {
            "garage": 0,
            "top-right": 0,
            "bottom-right": 0,
            "col-1": 0,
            "col-3": 1
        },
        "timeout": 0.315789,
        "raw": {
            "garage": {
                "pinValue": 0,
                "ticks": 480,
                "event": {
                    "deltaTime": 480,
                    "type": "channel",
                    "subtype": "noteOff",
                    "channel": 4,
                    "noteNumber": 81,
                    "velocity": 0,
                    "lightChannels": [
                        0,
                        1,
                        2
                    ]
                }
            },
            "top-right": {
                "pinValue": 0,
                "ticks": 480,
                "event": {
                    "deltaTime": 480,
                    "type": "channel",
                    "subtype": "noteOff",
                    "channel": 4,
                    "noteNumber": 81,
                    "velocity": 0,
                    "lightChannels": [
                        0,
                        1,
                        2
                    ]
                }
            },
            "bottom-right": {
                "pinValue": 0,
                "ticks": 480,
                "event": {
                    "deltaTime": 480,
                    "type": "channel",
                    "subtype": "noteOff",
                    "channel": 4,
                    "noteNumber": 81,
                    "velocity": 0,
                    "lightChannels": [
                        0,
                        1,
                        2
                    ]
                }
            },
            "col-1": {
                "pinValue": 0,
                "ticks": 0,
                "event": {
                    "deltaTime": 0,
                    "type": "channel",
                    "subtype": "noteOff",
                    "channel": 4,
                    "noteNumber": 67,
                    "velocity": 0,
                    "lightChannels": [
                        3
                    ]
                }
            },
            "col-3": {
                "pinValue": 1,
                "ticks": 0,
                "event": {
                    "deltaTime": 0,
                    "type": "channel",
                    "subtype": "noteOn",
                    "channel": 4,
                    "noteNumber": 66,
                    "velocity": 111,
                    "lightChannels": [
                        5
                    ]
                }
            }
        }
    },
    {
        "changes": {
            "col-3": 0,
            "col-2": 1
        },
        "timeout": 0.1578945,
        "raw": {
            "col-3": {
                "pinValue": 0,
                "ticks": 240,
                "event": {
                    "deltaTime": 240,
                    "type": "channel",
                    "subtype": "noteOff",
                    "channel": 4,
                    "noteNumber": 66,
                    "velocity": 0,
                    "lightChannels": [
                        5
                    ]
                }
            },
            "col-2": {
                "pinValue": 1,
                "ticks": 0,
                "event": {
                    "deltaTime": 0,
                    "type": "channel",
                    "subtype": "noteOn",
                    "channel": 4,
                    "noteNumber": 67,
                    "velocity": 111,
                    "lightChannels": [
                        4
                    ]
                }
            }
        }
    },
    {
        "changes": {
            "col-2": 0,
            "garden": 1,
            "tree": 1
        },
        "timeout": 0.1578945,
        "raw": {
            "col-2": {
                "pinValue": 0,
                "ticks": 240,
                "event": {
                    "deltaTime": 240,
                    "type": "channel",
                    "subtype": "noteOff",
                    "channel": 4,
                    "noteNumber": 67,
                    "velocity": 0,
                    "lightChannels": [
                        4
                    ]
                }
            },
            "garden": {
                "pinValue": 1,
                "ticks": 0,
                "event": {
                    "deltaTime": 0,
                    "type": "channel",
                    "subtype": "noteOn",
                    "channel": 4,
                    "noteNumber": 64,
                    "velocity": 111,
                    "lightChannels": [
                        8,
                        9
                    ]
                }
            },
            "tree": {
                "pinValue": 1,
                "ticks": 0,
                "event": {
                    "deltaTime": 0,
                    "type": "channel",
                    "subtype": "noteOn",
                    "channel": 4,
                    "noteNumber": 64,
                    "velocity": 111,
                    "lightChannels": [
                        8,
                        9
                    ]
                }
            }
        }
    },
    {
        "changes": {
            "garden": 0,
            "tree": 0,
            "garage": 1,
            "top-right": 1,
            "bottom-right": 1,
            "col-1": 1
        },
        "timeout": 0.315789,
        "raw": {
            "garden": {
                "pinValue": 0,
                "ticks": 480,
                "event": {
                    "deltaTime": 480,
                    "type": "channel",
                    "subtype": "noteOff",
                    "channel": 4,
                    "noteNumber": 64,
                    "velocity": 0,
                    "lightChannels": [
                        8,
                        9
                    ]
                }
            },
            "tree": {
                "pinValue": 0,
                "ticks": 480,
                "event": {
                    "deltaTime": 480,
                    "type": "channel",
                    "subtype": "noteOff",
                    "channel": 4,
                    "noteNumber": 64,
                    "velocity": 0,
                    "lightChannels": [
                        8,
                        9
                    ]
                }
            },
            "garage": {
                "pinValue": 1,
                "ticks": 0,
                "event": {
                    "deltaTime": 0,
                    "type": "channel",
                    "subtype": "noteOn",
                    "channel": 4,
                    "noteNumber": 83,
                    "velocity": 111,
                    "lightChannels": [
                        0,
                        1,
                        2
                    ]
                }
            },
            "top-right": {
                "pinValue": 1,
                "ticks": 0,
                "event": {
                    "deltaTime": 0,
                    "type": "channel",
                    "subtype": "noteOn",
                    "channel": 4,
                    "noteNumber": 83,
                    "velocity": 111,
                    "lightChannels": [
                        0,
                        1,
                        2
                    ]
                }
            },
            "bottom-right": {
                "pinValue": 1,
                "ticks": 0,
                "event": {
                    "deltaTime": 0,
                    "type": "channel",
                    "subtype": "noteOn",
                    "channel": 4,
                    "noteNumber": 83,
                    "velocity": 111,
                    "lightChannels": [
                        0,
                        1,
                        2
                    ]
                }
            },
            "col-1": {
                "pinValue": 1,
                "ticks": 0,
                "event": {
                    "deltaTime": 0,
                    "type": "channel",
                    "subtype": "noteOn",
                    "channel": 4,
                    "noteNumber": 67,
                    "velocity": 111,
                    "lightChannels": [
                        3
                    ]
                }
            }
        }
    },
    {
        "changes": {
            "garage": 0,
            "top-right": 0,
            "bottom-right": 0,
            "col-1": 0,
            "col-3": 1
        },
        "timeout": 0.315789,
        "raw": {
            "garage": {
                "pinValue": 0,
                "ticks": 480,
                "event": {
                    "deltaTime": 480,
                    "type": "channel",
                    "subtype": "noteOff",
                    "channel": 4,
                    "noteNumber": 83,
                    "velocity": 0,
                    "lightChannels": [
                        0,
                        1,
                        2
                    ]
                }
            },
            "top-right": {
                "pinValue": 0,
                "ticks": 480,
                "event": {
                    "deltaTime": 480,
                    "type": "channel",
                    "subtype": "noteOff",
                    "channel": 4,
                    "noteNumber": 83,
                    "velocity": 0,
                    "lightChannels": [
                        0,
                        1,
                        2
                    ]
                }
            },
            "bottom-right": {
                "pinValue": 0,
                "ticks": 480,
                "event": {
                    "deltaTime": 480,
                    "type": "channel",
                    "subtype": "noteOff",
                    "channel": 4,
                    "noteNumber": 83,
                    "velocity": 0,
                    "lightChannels": [
                        0,
                        1,
                        2
                    ]
                }
            },
            "col-1": {
                "pinValue": 0,
                "ticks": 0,
                "event": {
                    "deltaTime": 0,
                    "type": "channel",
                    "subtype": "noteOff",
                    "channel": 4,
                    "noteNumber": 67,
                    "velocity": 0,
                    "lightChannels": [
                        3
                    ]
                }
            },
            "col-3": {
                "pinValue": 1,
                "ticks": 0,
                "event": {
                    "deltaTime": 0,
                    "type": "channel",
                    "subtype": "noteOn",
                    "channel": 4,
                    "noteNumber": 66,
                    "velocity": 111,
                    "lightChannels": [
                        5
                    ]
                }
            }
        }
    },
    {
        "changes": {
            "col-3": 0,
            "col-2": 1
        },
        "timeout": 0.1578945,
        "raw": {
            "col-3": {
                "pinValue": 0,
                "ticks": 240,
                "event": {
                    "deltaTime": 240,
                    "type": "channel",
                    "subtype": "noteOff",
                    "channel": 4,
                    "noteNumber": 66,
                    "velocity": 0,
                    "lightChannels": [
                        5
                    ]
                }
            },
            "col-2": {
                "pinValue": 1,
                "ticks": 0,
                "event": {
                    "deltaTime": 0,
                    "type": "channel",
                    "subtype": "noteOn",
                    "channel": 4,
                    "noteNumber": 67,
                    "velocity": 111,
                    "lightChannels": [
                        4
                    ]
                }
            }
        }
    },
    {
        "changes": {
            "col-2": 0,
            "garden": 1,
            "tree": 1
        },
        "timeout": 0.1578945,
        "raw": {
            "col-2": {
                "pinValue": 0,
                "ticks": 240,
                "event": {
                    "deltaTime": 240,
                    "type": "channel",
                    "subtype": "noteOff",
                    "channel": 4,
                    "noteNumber": 67,
                    "velocity": 0,
                    "lightChannels": [
                        4
                    ]
                }
            },
            "garden": {
                "pinValue": 1,
                "ticks": 0,
                "event": {
                    "deltaTime": 0,
                    "type": "channel",
                    "subtype": "noteOn",
                    "channel": 4,
                    "noteNumber": 64,
                    "velocity": 111,
                    "lightChannels": [
                        8,
                        9
                    ]
                }
            },
            "tree": {
                "pinValue": 1,
                "ticks": 0,
                "event": {
                    "deltaTime": 0,
                    "type": "channel",
                    "subtype": "noteOn",
                    "channel": 4,
                    "noteNumber": 64,
                    "velocity": 111,
                    "lightChannels": [
                        8,
                        9
                    ]
                }
            }
        }
    },
    {
        "changes": {
            "garden": 0,
            "tree": 0,
            "garage": 1,
            "top-right": 1,
            "bottom-right": 1,
            "col-1": 1
        },
        "timeout": 0.315789,
        "raw": {
            "garden": {
                "pinValue": 0,
                "ticks": 480,
                "event": {
                    "deltaTime": 480,
                    "type": "channel",
                    "subtype": "noteOff",
                    "channel": 4,
                    "noteNumber": 64,
                    "velocity": 0,
                    "lightChannels": [
                        8,
                        9
                    ]
                }
            },
            "tree": {
                "pinValue": 0,
                "ticks": 480,
                "event": {
                    "deltaTime": 480,
                    "type": "channel",
                    "subtype": "noteOff",
                    "channel": 4,
                    "noteNumber": 64,
                    "velocity": 0,
                    "lightChannels": [
                        8,
                        9
                    ]
                }
            },
            "garage": {
                "pinValue": 1,
                "ticks": 0,
                "event": {
                    "deltaTime": 0,
                    "type": "channel",
                    "subtype": "noteOn",
                    "channel": 4,
                    "noteNumber": 86,
                    "velocity": 111,
                    "lightChannels": [
                        0,
                        1,
                        2
                    ]
                }
            },
            "top-right": {
                "pinValue": 1,
                "ticks": 0,
                "event": {
                    "deltaTime": 0,
                    "type": "channel",
                    "subtype": "noteOn",
                    "channel": 4,
                    "noteNumber": 86,
                    "velocity": 111,
                    "lightChannels": [
                        0,
                        1,
                        2
                    ]
                }
            },
            "bottom-right": {
                "pinValue": 1,
                "ticks": 0,
                "event": {
                    "deltaTime": 0,
                    "type": "channel",
                    "subtype": "noteOn",
                    "channel": 4,
                    "noteNumber": 86,
                    "velocity": 111,
                    "lightChannels": [
                        0,
                        1,
                        2
                    ]
                }
            },
            "col-1": {
                "pinValue": 1,
                "ticks": 0,
                "event": {
                    "deltaTime": 0,
                    "type": "channel",
                    "subtype": "noteOn",
                    "channel": 4,
                    "noteNumber": 67,
                    "velocity": 111,
                    "lightChannels": [
                        3
                    ]
                }
            }
        }
    },
    {
        "changes": {
            "garage": 0,
            "top-right": 0,
            "bottom-right": 0,
            "col-1": 0,
            "col-3": 1
        },
        "timeout": 0.315789,
        "raw": {
            "garage": {
                "pinValue": 0,
                "ticks": 480,
                "event": {
                    "deltaTime": 480,
                    "type": "channel",
                    "subtype": "noteOff",
                    "channel": 4,
                    "noteNumber": 86,
                    "velocity": 0,
                    "lightChannels": [
                        0,
                        1,
                        2
                    ]
                }
            },
            "top-right": {
                "pinValue": 0,
                "ticks": 480,
                "event": {
                    "deltaTime": 480,
                    "type": "channel",
                    "subtype": "noteOff",
                    "channel": 4,
                    "noteNumber": 86,
                    "velocity": 0,
                    "lightChannels": [
                        0,
                        1,
                        2
                    ]
                }
            },
            "bottom-right": {
                "pinValue": 0,
                "ticks": 480,
                "event": {
                    "deltaTime": 480,
                    "type": "channel",
                    "subtype": "noteOff",
                    "channel": 4,
                    "noteNumber": 86,
                    "velocity": 0,
                    "lightChannels": [
                        0,
                        1,
                        2
                    ]
                }
            },
            "col-1": {
                "pinValue": 0,
                "ticks": 0,
                "event": {
                    "deltaTime": 0,
                    "type": "channel",
                    "subtype": "noteOff",
                    "channel": 4,
                    "noteNumber": 67,
                    "velocity": 0,
                    "lightChannels": [
                        3
                    ]
                }
            },
            "col-3": {
                "pinValue": 1,
                "ticks": 0,
                "event": {
                    "deltaTime": 0,
                    "type": "channel",
                    "subtype": "noteOn",
                    "channel": 4,
                    "noteNumber": 66,
                    "velocity": 111,
                    "lightChannels": [
                        5
                    ]
                }
            }
        }
    },
    {
        "changes": {
            "col-3": 0,
            "col-2": 1
        },
        "timeout": 0.1578945,
        "raw": {
            "col-3": {
                "pinValue": 0,
                "ticks": 240,
                "event": {
                    "deltaTime": 240,
                    "type": "channel",
                    "subtype": "noteOff",
                    "channel": 4,
                    "noteNumber": 66,
                    "velocity": 0,
                    "lightChannels": [
                        5
                    ]
                }
            },
            "col-2": {
                "pinValue": 1,
                "ticks": 0,
                "event": {
                    "deltaTime": 0,
                    "type": "channel",
                    "subtype": "noteOn",
                    "channel": 4,
                    "noteNumber": 67,
                    "velocity": 111,
                    "lightChannels": [
                        4
                    ]
                }
            }
        }
    },
    {
        "changes": {
            "col-2": 0,
            "garden": 1,
            "tree": 1
        },
        "timeout": 0.1578945,
        "raw": {
            "col-2": {
                "pinValue": 0,
                "ticks": 240,
                "event": {
                    "deltaTime": 240,
                    "type": "channel",
                    "subtype": "noteOff",
                    "channel": 4,
                    "noteNumber": 67,
                    "velocity": 0,
                    "lightChannels": [
                        4
                    ]
                }
            },
            "garden": {
                "pinValue": 1,
                "ticks": 0,
                "event": {
                    "deltaTime": 0,
                    "type": "channel",
                    "subtype": "noteOn",
                    "channel": 4,
                    "noteNumber": 64,
                    "velocity": 111,
                    "lightChannels": [
                        8,
                        9
                    ]
                }
            },
            "tree": {
                "pinValue": 1,
                "ticks": 0,
                "event": {
                    "deltaTime": 0,
                    "type": "channel",
                    "subtype": "noteOn",
                    "channel": 4,
                    "noteNumber": 64,
                    "velocity": 111,
                    "lightChannels": [
                        8,
                        9
                    ]
                }
            }
        }
    },
    {
        "changes": {
            "garden": 1,
            "tree": 1,
            "garage": 1,
            "top-right": 1,
            "bottom-right": 1,
            "col-1": 1,
            "col-2": 1,
            "col-3": 1,
            "window": 1,
            "outline": 1
        },
        "timeout": 0.315789,
        "raw": {
            "garden": {
                "pinValue": 1,
                "ticks": 0,
                "event": {
                    "deltaTime": 0,
                    "type": "channel",
                    "subtype": "noteOn",
                    "channel": 4,
                    "noteNumber": 76,
                    "velocity": 111,
                    "lightChannels": [
                        0,
                        1,
                        2,
                        3,
                        4,
                        5,
                        6,
                        7,
                        8,
                        9
                    ]
                }
            },
            "tree": {
                "pinValue": 1,
                "ticks": 0,
                "event": {
                    "deltaTime": 0,
                    "type": "channel",
                    "subtype": "noteOn",
                    "channel": 4,
                    "noteNumber": 76,
                    "velocity": 111,
                    "lightChannels": [
                        0,
                        1,
                        2,
                        3,
                        4,
                        5,
                        6,
                        7,
                        8,
                        9
                    ]
                }
            },
            "garage": {
                "pinValue": 1,
                "ticks": 0,
                "event": {
                    "deltaTime": 0,
                    "type": "channel",
                    "subtype": "noteOn",
                    "channel": 4,
                    "noteNumber": 76,
                    "velocity": 111,
                    "lightChannels": [
                        0,
                        1,
                        2,
                        3,
                        4,
                        5,
                        6,
                        7,
                        8,
                        9
                    ]
                }
            },
            "top-right": {
                "pinValue": 1,
                "ticks": 0,
                "event": {
                    "deltaTime": 0,
                    "type": "channel",
                    "subtype": "noteOn",
                    "channel": 4,
                    "noteNumber": 76,
                    "velocity": 111,
                    "lightChannels": [
                        0,
                        1,
                        2,
                        3,
                        4,
                        5,
                        6,
                        7,
                        8,
                        9
                    ]
                }
            },
            "bottom-right": {
                "pinValue": 1,
                "ticks": 0,
                "event": {
                    "deltaTime": 0,
                    "type": "channel",
                    "subtype": "noteOn",
                    "channel": 4,
                    "noteNumber": 76,
                    "velocity": 111,
                    "lightChannels": [
                        0,
                        1,
                        2,
                        3,
                        4,
                        5,
                        6,
                        7,
                        8,
                        9
                    ]
                }
            },
            "col-1": {
                "pinValue": 1,
                "ticks": 0,
                "event": {
                    "deltaTime": 0,
                    "type": "channel",
                    "subtype": "noteOn",
                    "channel": 4,
                    "noteNumber": 76,
                    "velocity": 111,
                    "lightChannels": [
                        0,
                        1,
                        2,
                        3,
                        4,
                        5,
                        6,
                        7,
                        8,
                        9
                    ]
                }
            },
            "col-2": {
                "pinValue": 1,
                "ticks": 0,
                "event": {
                    "deltaTime": 0,
                    "type": "channel",
                    "subtype": "noteOn",
                    "channel": 4,
                    "noteNumber": 76,
                    "velocity": 111,
                    "lightChannels": [
                        0,
                        1,
                        2,
                        3,
                        4,
                        5,
                        6,
                        7,
                        8,
                        9
                    ]
                }
            },
            "col-3": {
                "pinValue": 1,
                "ticks": 0,
                "event": {
                    "deltaTime": 0,
                    "type": "channel",
                    "subtype": "noteOn",
                    "channel": 4,
                    "noteNumber": 76,
                    "velocity": 111,
                    "lightChannels": [
                        0,
                        1,
                        2,
                        3,
                        4,
                        5,
                        6,
                        7,
                        8,
                        9
                    ]
                }
            },
            "window": {
                "pinValue": 1,
                "ticks": 0,
                "event": {
                    "deltaTime": 0,
                    "type": "channel",
                    "subtype": "noteOn",
                    "channel": 4,
                    "noteNumber": 76,
                    "velocity": 111,
                    "lightChannels": [
                        0,
                        1,
                        2,
                        3,
                        4,
                        5,
                        6,
                        7,
                        8,
                        9
                    ]
                }
            },
            "outline": {
                "pinValue": 1,
                "ticks": 0,
                "event": {
                    "deltaTime": 0,
                    "type": "channel",
                    "subtype": "noteOn",
                    "channel": 4,
                    "noteNumber": 76,
                    "velocity": 111,
                    "lightChannels": [
                        0,
                        1,
                        2,
                        3,
                        4,
                        5,
                        6,
                        7,
                        8,
                        9
                    ]
                }
            }
        }
    },
    {
        "changes": {
            "garage": 0,
            "top-right": 0,
            "bottom-right": 0,
            "col-1": 0,
            "col-2": 0,
            "col-3": 0,
            "window": 0,
            "outline": 0,
            "garden": 0,
            "tree": 0
        },
        "timeout": 0.315789,
        "raw": {
            "garage": {
                "pinValue": 0,
                "ticks": 0,
                "event": {
                    "deltaTime": 0,
                    "type": "channel",
                    "subtype": "noteOff",
                    "channel": 4,
                    "noteNumber": 76,
                    "velocity": 0,
                    "lightChannels": [
                        0,
                        1,
                        2,
                        3,
                        4,
                        5,
                        6,
                        7,
                        8,
                        9
                    ]
                }
            },
            "top-right": {
                "pinValue": 0,
                "ticks": 0,
                "event": {
                    "deltaTime": 0,
                    "type": "channel",
                    "subtype": "noteOff",
                    "channel": 4,
                    "noteNumber": 76,
                    "velocity": 0,
                    "lightChannels": [
                        0,
                        1,
                        2,
                        3,
                        4,
                        5,
                        6,
                        7,
                        8,
                        9
                    ]
                }
            },
            "bottom-right": {
                "pinValue": 0,
                "ticks": 0,
                "event": {
                    "deltaTime": 0,
                    "type": "channel",
                    "subtype": "noteOff",
                    "channel": 4,
                    "noteNumber": 76,
                    "velocity": 0,
                    "lightChannels": [
                        0,
                        1,
                        2,
                        3,
                        4,
                        5,
                        6,
                        7,
                        8,
                        9
                    ]
                }
            },
            "col-1": {
                "pinValue": 0,
                "ticks": 0,
                "event": {
                    "deltaTime": 0,
                    "type": "channel",
                    "subtype": "noteOff",
                    "channel": 4,
                    "noteNumber": 76,
                    "velocity": 0,
                    "lightChannels": [
                        0,
                        1,
                        2,
                        3,
                        4,
                        5,
                        6,
                        7,
                        8,
                        9
                    ]
                }
            },
            "col-2": {
                "pinValue": 0,
                "ticks": 0,
                "event": {
                    "deltaTime": 0,
                    "type": "channel",
                    "subtype": "noteOff",
                    "channel": 4,
                    "noteNumber": 76,
                    "velocity": 0,
                    "lightChannels": [
                        0,
                        1,
                        2,
                        3,
                        4,
                        5,
                        6,
                        7,
                        8,
                        9
                    ]
                }
            },
            "col-3": {
                "pinValue": 0,
                "ticks": 0,
                "event": {
                    "deltaTime": 0,
                    "type": "channel",
                    "subtype": "noteOff",
                    "channel": 4,
                    "noteNumber": 76,
                    "velocity": 0,
                    "lightChannels": [
                        0,
                        1,
                        2,
                        3,
                        4,
                        5,
                        6,
                        7,
                        8,
                        9
                    ]
                }
            },
            "window": {
                "pinValue": 0,
                "ticks": 0,
                "event": {
                    "deltaTime": 0,
                    "type": "channel",
                    "subtype": "noteOff",
                    "channel": 4,
                    "noteNumber": 76,
                    "velocity": 0,
                    "lightChannels": [
                        0,
                        1,
                        2,
                        3,
                        4,
                        5,
                        6,
                        7,
                        8,
                        9
                    ]
                }
            },
            "outline": {
                "pinValue": 0,
                "ticks": 0,
                "event": {
                    "deltaTime": 0,
                    "type": "channel",
                    "subtype": "noteOff",
                    "channel": 4,
                    "noteNumber": 76,
                    "velocity": 0,
                    "lightChannels": [
                        0,
                        1,
                        2,
                        3,
                        4,
                        5,
                        6,
                        7,
                        8,
                        9
                    ]
                }
            },
            "garden": {
                "pinValue": 0,
                "ticks": 0,
                "event": {
                    "deltaTime": 0,
                    "type": "channel",
                    "subtype": "noteOff",
                    "channel": 4,
                    "noteNumber": 76,
                    "velocity": 0,
                    "lightChannels": [
                        0,
                        1,
                        2,
                        3,
                        4,
                        5,
                        6,
                        7,
                        8,
                        9
                    ]
                }
            },
            "tree": {
                "pinValue": 0,
                "ticks": 0,
                "event": {
                    "deltaTime": 0,
                    "type": "channel",
                    "subtype": "noteOff",
                    "channel": 4,
                    "noteNumber": 76,
                    "velocity": 0,
                    "lightChannels": [
                        0,
                        1,
                        2,
                        3,
                        4,
                        5,
                        6,
                        7,
                        8,
                        9
                    ]
                }
            }
        }
    },
    {
        "changes": {
            "col-1": 1
        },
        "timeout": 0.1578945,
        "raw": {
            "col-1": {
                "pinValue": 1,
                "ticks": 0,
                "event": {
                    "deltaTime": 0,
                    "type": "channel",
                    "subtype": "noteOn",
                    "channel": 4,
                    "noteNumber": 76,
                    "velocity": 111,
                    "lightChannels": [
                        3
                    ]
                }
            }
        }
    },
    {
        "changes": {
            "col-1": 0,
            "col-2": 1
        },
        "timeout": 0.1578945,
        "raw": {
            "col-1": {
                "pinValue": 0,
                "ticks": 0,
                "event": {
                    "deltaTime": 0,
                    "type": "channel",
                    "subtype": "noteOff",
                    "channel": 4,
                    "noteNumber": 76,
                    "velocity": 0,
                    "lightChannels": [
                        3
                    ]
                }
            },
            "col-2": {
                "pinValue": 1,
                "ticks": 0,
                "event": {
                    "deltaTime": 0,
                    "type": "channel",
                    "subtype": "noteOn",
                    "channel": 4,
                    "noteNumber": 74,
                    "velocity": 111,
                    "lightChannels": [
                        4
                    ]
                }
            }
        }
    },
    {
        "changes": {
            "col-2": 0,
            "col-3": 1
        },
        "timeout": 0.1578945,
        "raw": {
            "col-2": {
                "pinValue": 0,
                "ticks": 0,
                "event": {
                    "deltaTime": 0,
                    "type": "channel",
                    "subtype": "noteOff",
                    "channel": 4,
                    "noteNumber": 74,
                    "velocity": 0,
                    "lightChannels": [
                        4
                    ]
                }
            },
            "col-3": {
                "pinValue": 1,
                "ticks": 0,
                "event": {
                    "deltaTime": 0,
                    "type": "channel",
                    "subtype": "noteOn",
                    "channel": 4,
                    "noteNumber": 72,
                    "velocity": 111,
                    "lightChannels": [
                        5
                    ]
                }
            }
        }
    },
    {
        "changes": {
            "col-3": 1,
            "col-1": 1,
            "col-2": 1
        },
        "timeout": 0.1578945,
        "raw": {
            "col-3": {
                "pinValue": 1,
                "ticks": 0,
                "event": {
                    "deltaTime": 0,
                    "type": "channel",
                    "subtype": "noteOn",
                    "channel": 4,
                    "noteNumber": 71,
                    "velocity": 111,
                    "lightChannels": [
                        3,
                        4,
                        5
                    ]
                }
            },
            "col-1": {
                "pinValue": 1,
                "ticks": 0,
                "event": {
                    "deltaTime": 0,
                    "type": "channel",
                    "subtype": "noteOn",
                    "channel": 4,
                    "noteNumber": 71,
                    "velocity": 111,
                    "lightChannels": [
                        3,
                        4,
                        5
                    ]
                }
            },
            "col-2": {
                "pinValue": 1,
                "ticks": 0,
                "event": {
                    "deltaTime": 0,
                    "type": "channel",
                    "subtype": "noteOn",
                    "channel": 4,
                    "noteNumber": 71,
                    "velocity": 111,
                    "lightChannels": [
                        3,
                        4,
                        5
                    ]
                }
            }
        }
    },
    {
        "changes": {
            "col-1": 0,
            "col-2": 0,
            "col-3": 0
        },
        "timeout": 0.315789,
        "raw": {
            "col-1": {
                "pinValue": 0,
                "ticks": 0,
                "event": {
                    "deltaTime": 0,
                    "type": "channel",
                    "subtype": "noteOff",
                    "channel": 4,
                    "noteNumber": 71,
                    "velocity": 0,
                    "lightChannels": [
                        3,
                        4,
                        5
                    ]
                }
            },
            "col-2": {
                "pinValue": 0,
                "ticks": 0,
                "event": {
                    "deltaTime": 0,
                    "type": "channel",
                    "subtype": "noteOff",
                    "channel": 4,
                    "noteNumber": 71,
                    "velocity": 0,
                    "lightChannels": [
                        3,
                        4,
                        5
                    ]
                }
            },
            "col-3": {
                "pinValue": 0,
                "ticks": 0,
                "event": {
                    "deltaTime": 0,
                    "type": "channel",
                    "subtype": "noteOff",
                    "channel": 4,
                    "noteNumber": 71,
                    "velocity": 0,
                    "lightChannels": [
                        3,
                        4,
                        5
                    ]
                }
            }
        }
    },
    {
        "changes": {
            "col-2": 1
        },
        "timeout": 0.1578945,
        "raw": {
            "col-2": {
                "pinValue": 1,
                "ticks": 0,
                "event": {
                    "deltaTime": 0,
                    "type": "channel",
                    "subtype": "noteOn",
                    "channel": 4,
                    "noteNumber": 71,
                    "velocity": 111,
                    "lightChannels": [
                        4
                    ]
                }
            }
        }
    },
    {
        "changes": {
            "col-2": 0,
            "col-3": 1
        },
        "timeout": 0.1578945,
        "raw": {
            "col-2": {
                "pinValue": 0,
                "ticks": 0,
                "event": {
                    "deltaTime": 0,
                    "type": "channel",
                    "subtype": "noteOff",
                    "channel": 4,
                    "noteNumber": 71,
                    "velocity": 0,
                    "lightChannels": [
                        4
                    ]
                }
            },
            "col-3": {
                "pinValue": 1,
                "ticks": 0,
                "event": {
                    "deltaTime": 0,
                    "type": "channel",
                    "subtype": "noteOn",
                    "channel": 4,
                    "noteNumber": 69,
                    "velocity": 111,
                    "lightChannels": [
                        5
                    ]
                }
            }
        }
    },
    {
        "changes": {
            "col-3": 0,
            "garden": 1
        },
        "timeout": 0.1578945,
        "raw": {
            "col-3": {
                "pinValue": 0,
                "ticks": 0,
                "event": {
                    "deltaTime": 0,
                    "type": "channel",
                    "subtype": "noteOff",
                    "channel": 4,
                    "noteNumber": 69,
                    "velocity": 0,
                    "lightChannels": [
                        5
                    ]
                }
            },
            "garden": {
                "pinValue": 1,
                "ticks": 0,
                "event": {
                    "deltaTime": 0,
                    "type": "channel",
                    "subtype": "noteOn",
                    "channel": 4,
                    "noteNumber": 67,
                    "velocity": 111,
                    "lightChannels": [
                        8
                    ]
                }
            }
        }
    },
    {
        "changes": {
            "garden": 0,
            "tree": 1
        },
        "timeout": 0.1578945,
        "raw": {
            "garden": {
                "pinValue": 0,
                "ticks": 0,
                "event": {
                    "deltaTime": 0,
                    "type": "channel",
                    "subtype": "noteOff",
                    "channel": 4,
                    "noteNumber": 67,
                    "velocity": 0,
                    "lightChannels": [
                        8
                    ]
                }
            },
            "tree": {
                "pinValue": 1,
                "ticks": 0,
                "event": {
                    "deltaTime": 0,
                    "type": "channel",
                    "subtype": "noteOn",
                    "channel": 4,
                    "noteNumber": 69,
                    "velocity": 111,
                    "lightChannels": [
                        9
                    ]
                }
            }
        }
    },
    {
        "changes": {
            "tree": 0,
            "col-1": 1
        },
        "timeout": 0.315789,
        "raw": {
            "tree": {
                "pinValue": 0,
                "ticks": 0,
                "event": {
                    "deltaTime": 0,
                    "type": "channel",
                    "subtype": "noteOff",
                    "channel": 4,
                    "noteNumber": 69,
                    "velocity": 0,
                    "lightChannels": [
                        9
                    ]
                }
            },
            "col-1": {
                "pinValue": 1,
                "ticks": 0,
                "event": {
                    "deltaTime": 0,
                    "type": "channel",
                    "subtype": "noteOn",
                    "channel": 4,
                    "noteNumber": 69,
                    "velocity": 111,
                    "lightChannels": [
                        3
                    ]
                }
            }
        }
    },
    {
        "changes": {
            "col-1": 0,
            "col-2": 1
        },
        "timeout": 0.1578945,
        "raw": {
            "col-1": {
                "pinValue": 0,
                "ticks": 0,
                "event": {
                    "deltaTime": 0,
                    "type": "channel",
                    "subtype": "noteOff",
                    "channel": 4,
                    "noteNumber": 69,
                    "velocity": 0,
                    "lightChannels": [
                        3
                    ]
                }
            },
            "col-2": {
                "pinValue": 1,
                "ticks": 0,
                "event": {
                    "deltaTime": 0,
                    "type": "channel",
                    "subtype": "noteOn",
                    "channel": 4,
                    "noteNumber": 69,
                    "velocity": 111,
                    "lightChannels": [
                        4
                    ]
                }
            }
        }
    },
    {
        "changes": {
            "col-2": 0,
            "col-3": 1
        },
        "timeout": 0.1578945,
        "raw": {
            "col-2": {
                "pinValue": 0,
                "ticks": 0,
                "event": {
                    "deltaTime": 0,
                    "type": "channel",
                    "subtype": "noteOff",
                    "channel": 4,
                    "noteNumber": 69,
                    "velocity": 0,
                    "lightChannels": [
                        4
                    ]
                }
            },
            "col-3": {
                "pinValue": 1,
                "ticks": 0,
                "event": {
                    "deltaTime": 0,
                    "type": "channel",
                    "subtype": "noteOn",
                    "channel": 4,
                    "noteNumber": 71,
                    "velocity": 111,
                    "lightChannels": [
                        5
                    ]
                }
            }
        }
    },
    {
        "changes": {
            "col-3": 0,
            "garden": 1
        },
        "timeout": 0.1578945,
        "raw": {
            "col-3": {
                "pinValue": 0,
                "ticks": 0,
                "event": {
                    "deltaTime": 0,
                    "type": "channel",
                    "subtype": "noteOff",
                    "channel": 4,
                    "noteNumber": 71,
                    "velocity": 0,
                    "lightChannels": [
                        5
                    ]
                }
            },
            "garden": {
                "pinValue": 1,
                "ticks": 0,
                "event": {
                    "deltaTime": 0,
                    "type": "channel",
                    "subtype": "noteOn",
                    "channel": 4,
                    "noteNumber": 69,
                    "velocity": 111,
                    "lightChannels": [
                        8
                    ]
                }
            }
        }
    },
    {
        "changes": {
            "garden": 0,
            "outline": 1
        },
        "timeout": 0.1578945,
        "raw": {
            "garden": {
                "pinValue": 0,
                "ticks": 0,
                "event": {
                    "deltaTime": 0,
                    "type": "channel",
                    "subtype": "noteOff",
                    "channel": 4,
                    "noteNumber": 69,
                    "velocity": 0,
                    "lightChannels": [
                        8
                    ]
                }
            },
            "outline": {
                "pinValue": 1,
                "ticks": 0,
                "event": {
                    "deltaTime": 0,
                    "type": "channel",
                    "subtype": "noteOn",
                    "channel": 4,
                    "noteNumber": 64,
                    "velocity": 111,
                    "lightChannels": [
                        7
                    ]
                }
            }
        }
    },
    {
        "changes": {
            "outline": 0,
            "window": 1
        },
        "timeout": 0.315789,
        "raw": {
            "outline": {
                "pinValue": 0,
                "ticks": 0,
                "event": {
                    "deltaTime": 0,
                    "type": "channel",
                    "subtype": "noteOff",
                    "channel": 4,
                    "noteNumber": 64,
                    "velocity": 0,
                    "lightChannels": [
                        7
                    ]
                }
            },
            "window": {
                "pinValue": 1,
                "ticks": 0,
                "event": {
                    "deltaTime": 0,
                    "type": "channel",
                    "subtype": "noteOn",
                    "channel": 4,
                    "noteNumber": 64,
                    "velocity": 111,
                    "lightChannels": [
                        6
                    ]
                }
            }
        }
    },
    {
        "changes": {
            "window": 0,
            "outline": 1
        },
        "timeout": 0.1578945,
        "raw": {
            "window": {
                "pinValue": 0,
                "ticks": 0,
                "event": {
                    "deltaTime": 0,
                    "type": "channel",
                    "subtype": "noteOff",
                    "channel": 4,
                    "noteNumber": 64,
                    "velocity": 0,
                    "lightChannels": [
                        6
                    ]
                }
            },
            "outline": {
                "pinValue": 1,
                "ticks": 0,
                "event": {
                    "deltaTime": 0,
                    "type": "channel",
                    "subtype": "noteOn",
                    "channel": 4,
                    "noteNumber": 64,
                    "velocity": 111,
                    "lightChannels": [
                        7
                    ]
                }
            }
        }
    },
    {
        "changes": {
            "outline": 0,
            "window": 1
        },
        "timeout": 0.1578945,
        "raw": {
            "outline": {
                "pinValue": 0,
                "ticks": 0,
                "event": {
                    "deltaTime": 0,
                    "type": "channel",
                    "subtype": "noteOff",
                    "channel": 4,
                    "noteNumber": 64,
                    "velocity": 0,
                    "lightChannels": [
                        7
                    ]
                }
            },
            "window": {
                "pinValue": 1,
                "ticks": 0,
                "event": {
                    "deltaTime": 0,
                    "type": "channel",
                    "subtype": "noteOn",
                    "channel": 4,
                    "noteNumber": 64,
                    "velocity": 111,
                    "lightChannels": [
                        6
                    ]
                }
            }
        }
    },
    {
        "changes": {
            "window": 0
        },
        "timeout": 0.1578945,
        "raw": {
            "window": {
                "pinValue": 0,
                "ticks": 240,
                "event": {
                    "deltaTime": 240,
                    "type": "channel",
                    "subtype": "noteOff",
                    "channel": 4,
                    "noteNumber": 64,
                    "velocity": 0,
                    "lightChannels": [
                        6
                    ]
                }
            }
        }
    },
    {
        "changes": {
            "window": 0,
            "col-1": 1
        },
        "timeout": 0.1578945,
        "raw": {
            "window": {
                "pinValue": 0,
                "ticks": 240,
                "event": {
                    "deltaTime": 240,
                    "type": "channel",
                    "subtype": "noteOff",
                    "channel": 4,
                    "noteNumber": 64,
                    "velocity": 0,
                    "lightChannels": [
                        6
                    ]
                }
            },
            "col-1": {
                "pinValue": 1,
                "ticks": 0,
                "event": {
                    "deltaTime": 0,
                    "type": "channel",
                    "subtype": "noteOn",
                    "channel": 4,
                    "noteNumber": 59,
                    "velocity": 111,
                    "lightChannels": [
                        3
                    ]
                }
            }
        }
    },
    {
        "changes": {
            "col-1": 0,
            "col-2": 1
        },
        "timeout": 0.1578945,
        "raw": {
            "col-1": {
                "pinValue": 0,
                "ticks": 0,
                "event": {
                    "deltaTime": 0,
                    "type": "channel",
                    "subtype": "noteOff",
                    "channel": 4,
                    "noteNumber": 59,
                    "velocity": 0,
                    "lightChannels": [
                        3
                    ]
                }
            },
            "col-2": {
                "pinValue": 1,
                "ticks": 0,
                "event": {
                    "deltaTime": 0,
                    "type": "channel",
                    "subtype": "noteOn",
                    "channel": 4,
                    "noteNumber": 60,
                    "velocity": 111,
                    "lightChannels": [
                        4
                    ]
                }
            }
        }
    },
    {
        "changes": {
            "col-2": 0,
            "col-3": 1
        },
        "timeout": 0.1578945,
        "raw": {
            "col-2": {
                "pinValue": 0,
                "ticks": 0,
                "event": {
                    "deltaTime": 0,
                    "type": "channel",
                    "subtype": "noteOff",
                    "channel": 4,
                    "noteNumber": 60,
                    "velocity": 0,
                    "lightChannels": [
                        4
                    ]
                }
            },
            "col-3": {
                "pinValue": 1,
                "ticks": 0,
                "event": {
                    "deltaTime": 0,
                    "type": "channel",
                    "subtype": "noteOn",
                    "channel": 4,
                    "noteNumber": 62,
                    "velocity": 111,
                    "lightChannels": [
                        5
                    ]
                }
            }
        }
    },
    {
        "changes": {
            "col-3": 0,
            "col-2": 1
        },
        "timeout": 0.1578945,
        "raw": {
            "col-3": {
                "pinValue": 0,
                "ticks": 0,
                "event": {
                    "deltaTime": 0,
                    "type": "channel",
                    "subtype": "noteOff",
                    "channel": 4,
                    "noteNumber": 62,
                    "velocity": 0,
                    "lightChannels": [
                        5
                    ]
                }
            },
            "col-2": {
                "pinValue": 1,
                "ticks": 0,
                "event": {
                    "deltaTime": 0,
                    "type": "channel",
                    "subtype": "noteOn",
                    "channel": 4,
                    "noteNumber": 64,
                    "velocity": 111,
                    "lightChannels": [
                        4
                    ]
                }
            }
        }
    },
    {
        "changes": {
            "col-2": 0,
            "col-3": 1
        },
        "timeout": 0.1578945,
        "raw": {
            "col-2": {
                "pinValue": 0,
                "ticks": 0,
                "event": {
                    "deltaTime": 0,
                    "type": "channel",
                    "subtype": "noteOff",
                    "channel": 4,
                    "noteNumber": 64,
                    "velocity": 0,
                    "lightChannels": [
                        4
                    ]
                }
            },
            "col-3": {
                "pinValue": 1,
                "ticks": 0,
                "event": {
                    "deltaTime": 0,
                    "type": "channel",
                    "subtype": "noteOn",
                    "channel": 4,
                    "noteNumber": 66,
                    "velocity": 111,
                    "lightChannels": [
                        5
                    ]
                }
            }
        }
    },
    {
        "changes": {
            "col-3": 0,
            "garden": 1
        },
        "timeout": 0.1578945,
        "raw": {
            "col-3": {
                "pinValue": 0,
                "ticks": 0,
                "event": {
                    "deltaTime": 0,
                    "type": "channel",
                    "subtype": "noteOff",
                    "channel": 4,
                    "noteNumber": 66,
                    "velocity": 0,
                    "lightChannels": [
                        5
                    ]
                }
            },
            "garden": {
                "pinValue": 1,
                "ticks": 0,
                "event": {
                    "deltaTime": 0,
                    "type": "channel",
                    "subtype": "noteOn",
                    "channel": 4,
                    "noteNumber": 67,
                    "velocity": 111,
                    "lightChannels": [
                        8
                    ]
                }
            }
        }
    },
    {
        "changes": {
            "garden": 0,
            "tree": 1
        },
        "timeout": 0.1578945,
        "raw": {
            "garden": {
                "pinValue": 0,
                "ticks": 0,
                "event": {
                    "deltaTime": 0,
                    "type": "channel",
                    "subtype": "noteOff",
                    "channel": 4,
                    "noteNumber": 67,
                    "velocity": 0,
                    "lightChannels": [
                        8
                    ]
                }
            },
            "tree": {
                "pinValue": 1,
                "ticks": 0,
                "event": {
                    "deltaTime": 0,
                    "type": "channel",
                    "subtype": "noteOn",
                    "channel": 4,
                    "noteNumber": 69,
                    "velocity": 111,
                    "lightChannels": [
                        9
                    ]
                }
            }
        }
    },
    {
        "changes": {
            "tree": 0,
            "outline": 1
        },
        "timeout": 0.1578945,
        "raw": {
            "tree": {
                "pinValue": 0,
                "ticks": 0,
                "event": {
                    "deltaTime": 0,
                    "type": "channel",
                    "subtype": "noteOff",
                    "channel": 4,
                    "noteNumber": 69,
                    "velocity": 0,
                    "lightChannels": [
                        9
                    ]
                }
            },
            "outline": {
                "pinValue": 1,
                "ticks": 0,
                "event": {
                    "deltaTime": 0,
                    "type": "channel",
                    "subtype": "noteOn",
                    "channel": 4,
                    "noteNumber": 71,
                    "velocity": 111,
                    "lightChannels": [
                        7
                    ]
                }
            }
        }
    },
    {
        "changes": {
            "outline": 0,
            "window": 1
        },
        "timeout": 0.1578945,
        "raw": {
            "outline": {
                "pinValue": 0,
                "ticks": 0,
                "event": {
                    "deltaTime": 0,
                    "type": "channel",
                    "subtype": "noteOff",
                    "channel": 4,
                    "noteNumber": 71,
                    "velocity": 0,
                    "lightChannels": [
                        7
                    ]
                }
            },
            "window": {
                "pinValue": 1,
                "ticks": 0,
                "event": {
                    "deltaTime": 0,
                    "type": "channel",
                    "subtype": "noteOn",
                    "channel": 4,
                    "noteNumber": 69,
                    "velocity": 111,
                    "lightChannels": [
                        6
                    ]
                }
            }
        }
    },
    {
        "changes": {
            "window": 1,
            "col-1": 1,
            "col-2": 1,
            "col-3": 1,
            "outline": 1,
            "garden": 1,
            "tree": 1
        },
        "timeout": 0.315789,
        "raw": {
            "window": {
                "pinValue": 1,
                "ticks": 0,
                "event": {
                    "deltaTime": 0,
                    "type": "channel",
                    "subtype": "noteOn",
                    "channel": 4,
                    "noteNumber": 67,
                    "velocity": 111,
                    "lightChannels": [
                        3,
                        4,
                        5,
                        6,
                        7,
                        8,
                        9
                    ]
                }
            },
            "col-1": {
                "pinValue": 1,
                "ticks": 0,
                "event": {
                    "deltaTime": 0,
                    "type": "channel",
                    "subtype": "noteOn",
                    "channel": 4,
                    "noteNumber": 67,
                    "velocity": 111,
                    "lightChannels": [
                        3,
                        4,
                        5,
                        6,
                        7,
                        8,
                        9
                    ]
                }
            },
            "col-2": {
                "pinValue": 1,
                "ticks": 0,
                "event": {
                    "deltaTime": 0,
                    "type": "channel",
                    "subtype": "noteOn",
                    "channel": 4,
                    "noteNumber": 67,
                    "velocity": 111,
                    "lightChannels": [
                        3,
                        4,
                        5,
                        6,
                        7,
                        8,
                        9
                    ]
                }
            },
            "col-3": {
                "pinValue": 1,
                "ticks": 0,
                "event": {
                    "deltaTime": 0,
                    "type": "channel",
                    "subtype": "noteOn",
                    "channel": 4,
                    "noteNumber": 67,
                    "velocity": 111,
                    "lightChannels": [
                        3,
                        4,
                        5,
                        6,
                        7,
                        8,
                        9
                    ]
                }
            },
            "outline": {
                "pinValue": 1,
                "ticks": 0,
                "event": {
                    "deltaTime": 0,
                    "type": "channel",
                    "subtype": "noteOn",
                    "channel": 4,
                    "noteNumber": 67,
                    "velocity": 111,
                    "lightChannels": [
                        3,
                        4,
                        5,
                        6,
                        7,
                        8,
                        9
                    ]
                }
            },
            "garden": {
                "pinValue": 1,
                "ticks": 0,
                "event": {
                    "deltaTime": 0,
                    "type": "channel",
                    "subtype": "noteOn",
                    "channel": 4,
                    "noteNumber": 67,
                    "velocity": 111,
                    "lightChannels": [
                        3,
                        4,
                        5,
                        6,
                        7,
                        8,
                        9
                    ]
                }
            },
            "tree": {
                "pinValue": 1,
                "ticks": 0,
                "event": {
                    "deltaTime": 0,
                    "type": "channel",
                    "subtype": "noteOn",
                    "channel": 4,
                    "noteNumber": 67,
                    "velocity": 111,
                    "lightChannels": [
                        3,
                        4,
                        5,
                        6,
                        7,
                        8,
                        9
                    ]
                }
            }
        }
    },
    {
        "changes": {
            "col-1": 1,
            "col-2": 0,
            "col-3": 0,
            "window": 0,
            "outline": 0,
            "garden": 0,
            "tree": 0
        },
        "timeout": 0.315789,
        "raw": {
            "col-1": {
                "pinValue": 1,
                "ticks": 0,
                "event": {
                    "deltaTime": 0,
                    "type": "channel",
                    "subtype": "noteOn",
                    "channel": 4,
                    "noteNumber": 71,
                    "velocity": 111,
                    "lightChannels": [
                        3
                    ]
                }
            },
            "col-2": {
                "pinValue": 0,
                "ticks": 0,
                "event": {
                    "deltaTime": 0,
                    "type": "channel",
                    "subtype": "noteOff",
                    "channel": 4,
                    "noteNumber": 67,
                    "velocity": 0,
                    "lightChannels": [
                        3,
                        4,
                        5,
                        6,
                        7,
                        8,
                        9
                    ]
                }
            },
            "col-3": {
                "pinValue": 0,
                "ticks": 0,
                "event": {
                    "deltaTime": 0,
                    "type": "channel",
                    "subtype": "noteOff",
                    "channel": 4,
                    "noteNumber": 67,
                    "velocity": 0,
                    "lightChannels": [
                        3,
                        4,
                        5,
                        6,
                        7,
                        8,
                        9
                    ]
                }
            },
            "window": {
                "pinValue": 0,
                "ticks": 0,
                "event": {
                    "deltaTime": 0,
                    "type": "channel",
                    "subtype": "noteOff",
                    "channel": 4,
                    "noteNumber": 67,
                    "velocity": 0,
                    "lightChannels": [
                        3,
                        4,
                        5,
                        6,
                        7,
                        8,
                        9
                    ]
                }
            },
            "outline": {
                "pinValue": 0,
                "ticks": 0,
                "event": {
                    "deltaTime": 0,
                    "type": "channel",
                    "subtype": "noteOff",
                    "channel": 4,
                    "noteNumber": 67,
                    "velocity": 0,
                    "lightChannels": [
                        3,
                        4,
                        5,
                        6,
                        7,
                        8,
                        9
                    ]
                }
            },
            "garden": {
                "pinValue": 0,
                "ticks": 0,
                "event": {
                    "deltaTime": 0,
                    "type": "channel",
                    "subtype": "noteOff",
                    "channel": 4,
                    "noteNumber": 67,
                    "velocity": 0,
                    "lightChannels": [
                        3,
                        4,
                        5,
                        6,
                        7,
                        8,
                        9
                    ]
                }
            },
            "tree": {
                "pinValue": 0,
                "ticks": 0,
                "event": {
                    "deltaTime": 0,
                    "type": "channel",
                    "subtype": "noteOff",
                    "channel": 4,
                    "noteNumber": 67,
                    "velocity": 0,
                    "lightChannels": [
                        3,
                        4,
                        5,
                        6,
                        7,
                        8,
                        9
                    ]
                }
            }
        }
    },
    {
        "changes": {
            "col-1": 0,
            "col-2": 1
        },
        "timeout": 0.1578945,
        "raw": {
            "col-1": {
                "pinValue": 0,
                "ticks": 0,
                "event": {
                    "deltaTime": 0,
                    "type": "channel",
                    "subtype": "noteOff",
                    "channel": 4,
                    "noteNumber": 71,
                    "velocity": 0,
                    "lightChannels": [
                        3
                    ]
                }
            },
            "col-2": {
                "pinValue": 1,
                "ticks": 0,
                "event": {
                    "deltaTime": 0,
                    "type": "channel",
                    "subtype": "noteOn",
                    "channel": 4,
                    "noteNumber": 72,
                    "velocity": 111,
                    "lightChannels": [
                        4
                    ]
                }
            }
        }
    },
    {
        "changes": {
            "col-2": 0,
            "col-3": 1
        },
        "timeout": 0.1578945,
        "raw": {
            "col-2": {
                "pinValue": 0,
                "ticks": 0,
                "event": {
                    "deltaTime": 0,
                    "type": "channel",
                    "subtype": "noteOff",
                    "channel": 4,
                    "noteNumber": 72,
                    "velocity": 0,
                    "lightChannels": [
                        4
                    ]
                }
            },
            "col-3": {
                "pinValue": 1,
                "ticks": 0,
                "event": {
                    "deltaTime": 0,
                    "type": "channel",
                    "subtype": "noteOn",
                    "channel": 4,
                    "noteNumber": 74,
                    "velocity": 111,
                    "lightChannels": [
                        5
                    ]
                }
            }
        }
    },
    {
        "changes": {
            "col-3": 0,
            "col-2": 1
        },
        "timeout": 0.1578945,
        "raw": {
            "col-3": {
                "pinValue": 0,
                "ticks": 0,
                "event": {
                    "deltaTime": 0,
                    "type": "channel",
                    "subtype": "noteOff",
                    "channel": 4,
                    "noteNumber": 74,
                    "velocity": 0,
                    "lightChannels": [
                        5
                    ]
                }
            },
            "col-2": {
                "pinValue": 1,
                "ticks": 0,
                "event": {
                    "deltaTime": 0,
                    "type": "channel",
                    "subtype": "noteOn",
                    "channel": 4,
                    "noteNumber": 76,
                    "velocity": 111,
                    "lightChannels": [
                        4
                    ]
                }
            }
        }
    },
    {
        "changes": {
            "col-2": 0,
            "col-3": 1
        },
        "timeout": 0.1578945,
        "raw": {
            "col-2": {
                "pinValue": 0,
                "ticks": 0,
                "event": {
                    "deltaTime": 0,
                    "type": "channel",
                    "subtype": "noteOff",
                    "channel": 4,
                    "noteNumber": 76,
                    "velocity": 0,
                    "lightChannels": [
                        4
                    ]
                }
            },
            "col-3": {
                "pinValue": 1,
                "ticks": 0,
                "event": {
                    "deltaTime": 0,
                    "type": "channel",
                    "subtype": "noteOn",
                    "channel": 4,
                    "noteNumber": 78,
                    "velocity": 111,
                    "lightChannels": [
                        5
                    ]
                }
            }
        }
    },
    {
        "changes": {
            "col-3": 0,
            "garden": 1
        },
        "timeout": 0.1578945,
        "raw": {
            "col-3": {
                "pinValue": 0,
                "ticks": 0,
                "event": {
                    "deltaTime": 0,
                    "type": "channel",
                    "subtype": "noteOff",
                    "channel": 4,
                    "noteNumber": 78,
                    "velocity": 0,
                    "lightChannels": [
                        5
                    ]
                }
            },
            "garden": {
                "pinValue": 1,
                "ticks": 0,
                "event": {
                    "deltaTime": 0,
                    "type": "channel",
                    "subtype": "noteOn",
                    "channel": 4,
                    "noteNumber": 79,
                    "velocity": 111,
                    "lightChannels": [
                        8
                    ]
                }
            }
        }
    },
    {
        "changes": {
            "garden": 0,
            "tree": 1
        },
        "timeout": 0.1578945,
        "raw": {
            "garden": {
                "pinValue": 0,
                "ticks": 0,
                "event": {
                    "deltaTime": 0,
                    "type": "channel",
                    "subtype": "noteOff",
                    "channel": 4,
                    "noteNumber": 79,
                    "velocity": 0,
                    "lightChannels": [
                        8
                    ]
                }
            },
            "tree": {
                "pinValue": 1,
                "ticks": 0,
                "event": {
                    "deltaTime": 0,
                    "type": "channel",
                    "subtype": "noteOn",
                    "channel": 4,
                    "noteNumber": 81,
                    "velocity": 111,
                    "lightChannels": [
                        9
                    ]
                }
            }
        }
    },
    {
        "changes": {
            "tree": 0,
            "outline": 1
        },
        "timeout": 0.1578945,
        "raw": {
            "tree": {
                "pinValue": 0,
                "ticks": 0,
                "event": {
                    "deltaTime": 0,
                    "type": "channel",
                    "subtype": "noteOff",
                    "channel": 4,
                    "noteNumber": 81,
                    "velocity": 0,
                    "lightChannels": [
                        9
                    ]
                }
            },
            "outline": {
                "pinValue": 1,
                "ticks": 0,
                "event": {
                    "deltaTime": 0,
                    "type": "channel",
                    "subtype": "noteOn",
                    "channel": 4,
                    "noteNumber": 83,
                    "velocity": 111,
                    "lightChannels": [
                        7
                    ]
                }
            }
        }
    },
    {
        "changes": {
            "outline": 0,
            "window": 1
        },
        "timeout": 0.1578945,
        "raw": {
            "outline": {
                "pinValue": 0,
                "ticks": 0,
                "event": {
                    "deltaTime": 0,
                    "type": "channel",
                    "subtype": "noteOff",
                    "channel": 4,
                    "noteNumber": 83,
                    "velocity": 0,
                    "lightChannels": [
                        7
                    ]
                }
            },
            "window": {
                "pinValue": 1,
                "ticks": 0,
                "event": {
                    "deltaTime": 0,
                    "type": "channel",
                    "subtype": "noteOn",
                    "channel": 4,
                    "noteNumber": 81,
                    "velocity": 111,
                    "lightChannels": [
                        6
                    ]
                }
            }
        }
    },
    {
        "changes": {
            "window": 1,
            "col-1": 1,
            "col-2": 1,
            "col-3": 1,
            "outline": 1,
            "garden": 1,
            "tree": 1
        },
        "timeout": 0.315789,
        "raw": {
            "window": {
                "pinValue": 1,
                "ticks": 0,
                "event": {
                    "deltaTime": 0,
                    "type": "channel",
                    "subtype": "noteOn",
                    "channel": 4,
                    "noteNumber": 79,
                    "velocity": 111,
                    "lightChannels": [
                        3,
                        4,
                        5,
                        6,
                        7,
                        8,
                        9
                    ]
                }
            },
            "col-1": {
                "pinValue": 1,
                "ticks": 0,
                "event": {
                    "deltaTime": 0,
                    "type": "channel",
                    "subtype": "noteOn",
                    "channel": 4,
                    "noteNumber": 79,
                    "velocity": 111,
                    "lightChannels": [
                        3,
                        4,
                        5,
                        6,
                        7,
                        8,
                        9
                    ]
                }
            },
            "col-2": {
                "pinValue": 1,
                "ticks": 0,
                "event": {
                    "deltaTime": 0,
                    "type": "channel",
                    "subtype": "noteOn",
                    "channel": 4,
                    "noteNumber": 79,
                    "velocity": 111,
                    "lightChannels": [
                        3,
                        4,
                        5,
                        6,
                        7,
                        8,
                        9
                    ]
                }
            },
            "col-3": {
                "pinValue": 1,
                "ticks": 0,
                "event": {
                    "deltaTime": 0,
                    "type": "channel",
                    "subtype": "noteOn",
                    "channel": 4,
                    "noteNumber": 79,
                    "velocity": 111,
                    "lightChannels": [
                        3,
                        4,
                        5,
                        6,
                        7,
                        8,
                        9
                    ]
                }
            },
            "outline": {
                "pinValue": 1,
                "ticks": 0,
                "event": {
                    "deltaTime": 0,
                    "type": "channel",
                    "subtype": "noteOn",
                    "channel": 4,
                    "noteNumber": 79,
                    "velocity": 111,
                    "lightChannels": [
                        3,
                        4,
                        5,
                        6,
                        7,
                        8,
                        9
                    ]
                }
            },
            "garden": {
                "pinValue": 1,
                "ticks": 0,
                "event": {
                    "deltaTime": 0,
                    "type": "channel",
                    "subtype": "noteOn",
                    "channel": 4,
                    "noteNumber": 79,
                    "velocity": 111,
                    "lightChannels": [
                        3,
                        4,
                        5,
                        6,
                        7,
                        8,
                        9
                    ]
                }
            },
            "tree": {
                "pinValue": 1,
                "ticks": 0,
                "event": {
                    "deltaTime": 0,
                    "type": "channel",
                    "subtype": "noteOn",
                    "channel": 4,
                    "noteNumber": 79,
                    "velocity": 111,
                    "lightChannels": [
                        3,
                        4,
                        5,
                        6,
                        7,
                        8,
                        9
                    ]
                }
            }
        }
    },
    {
        "changes": {
            "col-1": 1,
            "col-2": 0,
            "col-3": 0,
            "window": 0,
            "outline": 0,
            "garden": 0,
            "tree": 0
        },
        "timeout": 0.315789,
        "raw": {
            "col-1": {
                "pinValue": 1,
                "ticks": 0,
                "event": {
                    "deltaTime": 0,
                    "type": "channel",
                    "subtype": "noteOn",
                    "channel": 4,
                    "noteNumber": 59,
                    "velocity": 111,
                    "lightChannels": [
                        3
                    ]
                }
            },
            "col-2": {
                "pinValue": 0,
                "ticks": 0,
                "event": {
                    "deltaTime": 0,
                    "type": "channel",
                    "subtype": "noteOff",
                    "channel": 4,
                    "noteNumber": 79,
                    "velocity": 0,
                    "lightChannels": [
                        3,
                        4,
                        5,
                        6,
                        7,
                        8,
                        9
                    ]
                }
            },
            "col-3": {
                "pinValue": 0,
                "ticks": 0,
                "event": {
                    "deltaTime": 0,
                    "type": "channel",
                    "subtype": "noteOff",
                    "channel": 4,
                    "noteNumber": 79,
                    "velocity": 0,
                    "lightChannels": [
                        3,
                        4,
                        5,
                        6,
                        7,
                        8,
                        9
                    ]
                }
            },
            "window": {
                "pinValue": 0,
                "ticks": 0,
                "event": {
                    "deltaTime": 0,
                    "type": "channel",
                    "subtype": "noteOff",
                    "channel": 4,
                    "noteNumber": 79,
                    "velocity": 0,
                    "lightChannels": [
                        3,
                        4,
                        5,
                        6,
                        7,
                        8,
                        9
                    ]
                }
            },
            "outline": {
                "pinValue": 0,
                "ticks": 0,
                "event": {
                    "deltaTime": 0,
                    "type": "channel",
                    "subtype": "noteOff",
                    "channel": 4,
                    "noteNumber": 79,
                    "velocity": 0,
                    "lightChannels": [
                        3,
                        4,
                        5,
                        6,
                        7,
                        8,
                        9
                    ]
                }
            },
            "garden": {
                "pinValue": 0,
                "ticks": 0,
                "event": {
                    "deltaTime": 0,
                    "type": "channel",
                    "subtype": "noteOff",
                    "channel": 4,
                    "noteNumber": 79,
                    "velocity": 0,
                    "lightChannels": [
                        3,
                        4,
                        5,
                        6,
                        7,
                        8,
                        9
                    ]
                }
            },
            "tree": {
                "pinValue": 0,
                "ticks": 0,
                "event": {
                    "deltaTime": 0,
                    "type": "channel",
                    "subtype": "noteOff",
                    "channel": 4,
                    "noteNumber": 79,
                    "velocity": 0,
                    "lightChannels": [
                        3,
                        4,
                        5,
                        6,
                        7,
                        8,
                        9
                    ]
                }
            }
        }
    },
    {
        "changes": {
            "col-1": 0,
            "col-2": 1
        },
        "timeout": 0.1578945,
        "raw": {
            "col-1": {
                "pinValue": 0,
                "ticks": 0,
                "event": {
                    "deltaTime": 0,
                    "type": "channel",
                    "subtype": "noteOff",
                    "channel": 4,
                    "noteNumber": 59,
                    "velocity": 0,
                    "lightChannels": [
                        3
                    ]
                }
            },
            "col-2": {
                "pinValue": 1,
                "ticks": 0,
                "event": {
                    "deltaTime": 0,
                    "type": "channel",
                    "subtype": "noteOn",
                    "channel": 4,
                    "noteNumber": 60,
                    "velocity": 111,
                    "lightChannels": [
                        4
                    ]
                }
            }
        }
    },
    {
        "changes": {
            "col-2": 0,
            "col-3": 1
        },
        "timeout": 0.1578945,
        "raw": {
            "col-2": {
                "pinValue": 0,
                "ticks": 0,
                "event": {
                    "deltaTime": 0,
                    "type": "channel",
                    "subtype": "noteOff",
                    "channel": 4,
                    "noteNumber": 60,
                    "velocity": 0,
                    "lightChannels": [
                        4
                    ]
                }
            },
            "col-3": {
                "pinValue": 1,
                "ticks": 0,
                "event": {
                    "deltaTime": 0,
                    "type": "channel",
                    "subtype": "noteOn",
                    "channel": 4,
                    "noteNumber": 62,
                    "velocity": 111,
                    "lightChannels": [
                        5
                    ]
                }
            }
        }
    },
    {
        "changes": {
            "col-3": 0,
            "col-2": 1
        },
        "timeout": 0.1578945,
        "raw": {
            "col-3": {
                "pinValue": 0,
                "ticks": 0,
                "event": {
                    "deltaTime": 0,
                    "type": "channel",
                    "subtype": "noteOff",
                    "channel": 4,
                    "noteNumber": 62,
                    "velocity": 0,
                    "lightChannels": [
                        5
                    ]
                }
            },
            "col-2": {
                "pinValue": 1,
                "ticks": 0,
                "event": {
                    "deltaTime": 0,
                    "type": "channel",
                    "subtype": "noteOn",
                    "channel": 4,
                    "noteNumber": 64,
                    "velocity": 111,
                    "lightChannels": [
                        4
                    ]
                }
            }
        }
    },
    {
        "changes": {
            "col-2": 0,
            "col-3": 1
        },
        "timeout": 0.1578945,
        "raw": {
            "col-2": {
                "pinValue": 0,
                "ticks": 0,
                "event": {
                    "deltaTime": 0,
                    "type": "channel",
                    "subtype": "noteOff",
                    "channel": 4,
                    "noteNumber": 64,
                    "velocity": 0,
                    "lightChannels": [
                        4
                    ]
                }
            },
            "col-3": {
                "pinValue": 1,
                "ticks": 0,
                "event": {
                    "deltaTime": 0,
                    "type": "channel",
                    "subtype": "noteOn",
                    "channel": 4,
                    "noteNumber": 66,
                    "velocity": 111,
                    "lightChannels": [
                        5
                    ]
                }
            }
        }
    },
    {
        "changes": {
            "col-3": 0,
            "col-1": 1
        },
        "timeout": 0.1578945,
        "raw": {
            "col-3": {
                "pinValue": 0,
                "ticks": 0,
                "event": {
                    "deltaTime": 0,
                    "type": "channel",
                    "subtype": "noteOff",
                    "channel": 4,
                    "noteNumber": 66,
                    "velocity": 0,
                    "lightChannels": [
                        5
                    ]
                }
            },
            "col-1": {
                "pinValue": 1,
                "ticks": 0,
                "event": {
                    "deltaTime": 0,
                    "type": "channel",
                    "subtype": "noteOn",
                    "channel": 4,
                    "noteNumber": 67,
                    "velocity": 111,
                    "lightChannels": [
                        3
                    ]
                }
            }
        }
    },
    {
        "changes": {
            "col-1": 1
        },
        "timeout": 0.1578945,
        "raw": {
            "col-1": {
                "pinValue": 1,
                "ticks": 0,
                "event": {
                    "deltaTime": 0,
                    "type": "channel",
                    "subtype": "noteOn",
                    "channel": 4,
                    "noteNumber": 59,
                    "velocity": 111,
                    "lightChannels": [
                        3
                    ]
                }
            }
        }
    },
    {
        "changes": {
            "col-1": 0,
            "col-2": 1
        },
        "timeout": 0.1578945,
        "raw": {
            "col-1": {
                "pinValue": 0,
                "ticks": 0,
                "event": {
                    "deltaTime": 0,
                    "type": "channel",
                    "subtype": "noteOff",
                    "channel": 4,
                    "noteNumber": 59,
                    "velocity": 0,
                    "lightChannels": [
                        3
                    ]
                }
            },
            "col-2": {
                "pinValue": 1,
                "ticks": 0,
                "event": {
                    "deltaTime": 0,
                    "type": "channel",
                    "subtype": "noteOn",
                    "channel": 4,
                    "noteNumber": 61,
                    "velocity": 111,
                    "lightChannels": [
                        4
                    ]
                }
            }
        }
    },
    {
        "changes": {
            "col-2": 0,
            "col-3": 1
        },
        "timeout": 0.1578945,
        "raw": {
            "col-2": {
                "pinValue": 0,
                "ticks": 0,
                "event": {
                    "deltaTime": 0,
                    "type": "channel",
                    "subtype": "noteOff",
                    "channel": 4,
                    "noteNumber": 61,
                    "velocity": 0,
                    "lightChannels": [
                        4
                    ]
                }
            },
            "col-3": {
                "pinValue": 1,
                "ticks": 0,
                "event": {
                    "deltaTime": 0,
                    "type": "channel",
                    "subtype": "noteOn",
                    "channel": 4,
                    "noteNumber": 62,
                    "velocity": 111,
                    "lightChannels": [
                        5
                    ]
                }
            }
        }
    },
    {
        "changes": {
            "col-3": 0,
            "col-2": 1
        },
        "timeout": 0.1578945,
        "raw": {
            "col-3": {
                "pinValue": 0,
                "ticks": 0,
                "event": {
                    "deltaTime": 0,
                    "type": "channel",
                    "subtype": "noteOff",
                    "channel": 4,
                    "noteNumber": 62,
                    "velocity": 0,
                    "lightChannels": [
                        5
                    ]
                }
            },
            "col-2": {
                "pinValue": 1,
                "ticks": 0,
                "event": {
                    "deltaTime": 0,
                    "type": "channel",
                    "subtype": "noteOn",
                    "channel": 4,
                    "noteNumber": 64,
                    "velocity": 111,
                    "lightChannels": [
                        4
                    ]
                }
            }
        }
    },
    {
        "changes": {
            "col-2": 0,
            "col-3": 1
        },
        "timeout": 0.1578945,
        "raw": {
            "col-2": {
                "pinValue": 0,
                "ticks": 0,
                "event": {
                    "deltaTime": 0,
                    "type": "channel",
                    "subtype": "noteOff",
                    "channel": 4,
                    "noteNumber": 64,
                    "velocity": 0,
                    "lightChannels": [
                        4
                    ]
                }
            },
            "col-3": {
                "pinValue": 1,
                "ticks": 0,
                "event": {
                    "deltaTime": 0,
                    "type": "channel",
                    "subtype": "noteOn",
                    "channel": 4,
                    "noteNumber": 66,
                    "velocity": 111,
                    "lightChannels": [
                        5
                    ]
                }
            }
        }
    },
    {
        "changes": {
            "col-3": 0,
            "col-1": 1
        },
        "timeout": 0.1578945,
        "raw": {
            "col-3": {
                "pinValue": 0,
                "ticks": 0,
                "event": {
                    "deltaTime": 0,
                    "type": "channel",
                    "subtype": "noteOff",
                    "channel": 4,
                    "noteNumber": 66,
                    "velocity": 0,
                    "lightChannels": [
                        5
                    ]
                }
            },
            "col-1": {
                "pinValue": 1,
                "ticks": 0,
                "event": {
                    "deltaTime": 0,
                    "type": "channel",
                    "subtype": "noteOn",
                    "channel": 4,
                    "noteNumber": 67,
                    "velocity": 111,
                    "lightChannels": [
                        3
                    ]
                }
            }
        }
    },
    {
        "changes": {
            "col-1": 1
        },
        "timeout": 0.1578945,
        "raw": {
            "col-1": {
                "pinValue": 1,
                "ticks": 0,
                "event": {
                    "deltaTime": 0,
                    "type": "channel",
                    "subtype": "noteOn",
                    "channel": 4,
                    "noteNumber": 59,
                    "velocity": 111,
                    "lightChannels": [
                        3
                    ]
                }
            }
        }
    },
    {
        "changes": {
            "col-1": 0,
            "col-2": 1
        },
        "timeout": 0.1578945,
        "raw": {
            "col-1": {
                "pinValue": 0,
                "ticks": 0,
                "event": {
                    "deltaTime": 0,
                    "type": "channel",
                    "subtype": "noteOff",
                    "channel": 4,
                    "noteNumber": 59,
                    "velocity": 0,
                    "lightChannels": [
                        3
                    ]
                }
            },
            "col-2": {
                "pinValue": 1,
                "ticks": 0,
                "event": {
                    "deltaTime": 0,
                    "type": "channel",
                    "subtype": "noteOn",
                    "channel": 4,
                    "noteNumber": 60,
                    "velocity": 111,
                    "lightChannels": [
                        4
                    ]
                }
            }
        }
    },
    {
        "changes": {
            "col-2": 0,
            "col-3": 1
        },
        "timeout": 0.1578945,
        "raw": {
            "col-2": {
                "pinValue": 0,
                "ticks": 0,
                "event": {
                    "deltaTime": 0,
                    "type": "channel",
                    "subtype": "noteOff",
                    "channel": 4,
                    "noteNumber": 60,
                    "velocity": 0,
                    "lightChannels": [
                        4
                    ]
                }
            },
            "col-3": {
                "pinValue": 1,
                "ticks": 0,
                "event": {
                    "deltaTime": 0,
                    "type": "channel",
                    "subtype": "noteOn",
                    "channel": 4,
                    "noteNumber": 62,
                    "velocity": 111,
                    "lightChannels": [
                        5
                    ]
                }
            }
        }
    },
    {
        "changes": {
            "col-3": 0,
            "col-2": 1
        },
        "timeout": 0.1578945,
        "raw": {
            "col-3": {
                "pinValue": 0,
                "ticks": 0,
                "event": {
                    "deltaTime": 0,
                    "type": "channel",
                    "subtype": "noteOff",
                    "channel": 4,
                    "noteNumber": 62,
                    "velocity": 0,
                    "lightChannels": [
                        5
                    ]
                }
            },
            "col-2": {
                "pinValue": 1,
                "ticks": 0,
                "event": {
                    "deltaTime": 0,
                    "type": "channel",
                    "subtype": "noteOn",
                    "channel": 4,
                    "noteNumber": 64,
                    "velocity": 111,
                    "lightChannels": [
                        4
                    ]
                }
            }
        }
    },
    {
        "changes": {
            "col-2": 0,
            "col-3": 1
        },
        "timeout": 0.1578945,
        "raw": {
            "col-2": {
                "pinValue": 0,
                "ticks": 0,
                "event": {
                    "deltaTime": 0,
                    "type": "channel",
                    "subtype": "noteOff",
                    "channel": 4,
                    "noteNumber": 64,
                    "velocity": 0,
                    "lightChannels": [
                        4
                    ]
                }
            },
            "col-3": {
                "pinValue": 1,
                "ticks": 0,
                "event": {
                    "deltaTime": 0,
                    "type": "channel",
                    "subtype": "noteOn",
                    "channel": 4,
                    "noteNumber": 66,
                    "velocity": 111,
                    "lightChannels": [
                        5
                    ]
                }
            }
        }
    },
    {
        "changes": {
            "col-3": 0,
            "col-1": 1
        },
        "timeout": 0.1578945,
        "raw": {
            "col-3": {
                "pinValue": 0,
                "ticks": 0,
                "event": {
                    "deltaTime": 0,
                    "type": "channel",
                    "subtype": "noteOff",
                    "channel": 4,
                    "noteNumber": 66,
                    "velocity": 0,
                    "lightChannels": [
                        5
                    ]
                }
            },
            "col-1": {
                "pinValue": 1,
                "ticks": 0,
                "event": {
                    "deltaTime": 0,
                    "type": "channel",
                    "subtype": "noteOn",
                    "channel": 4,
                    "noteNumber": 67,
                    "velocity": 111,
                    "lightChannels": [
                        3
                    ]
                }
            }
        }
    },
    {
        "changes": {
            "col-1": 0,
            "col-3": 1
        },
        "timeout": 0.1578945,
        "raw": {
            "col-1": {
                "pinValue": 0,
                "ticks": 0,
                "event": {
                    "deltaTime": 0,
                    "type": "channel",
                    "subtype": "noteOff",
                    "channel": 4,
                    "noteNumber": 67,
                    "velocity": 0,
                    "lightChannels": [
                        3
                    ]
                }
            },
            "col-3": {
                "pinValue": 1,
                "ticks": 0,
                "event": {
                    "deltaTime": 0,
                    "type": "channel",
                    "subtype": "noteOn",
                    "channel": 4,
                    "noteNumber": 71,
                    "velocity": 111,
                    "lightChannels": [
                        5
                    ]
                }
            }
        }
    },
    {
        "changes": {
            "col-3": 0,
            "col-2": 1
        },
        "timeout": 0.1578945,
        "raw": {
            "col-3": {
                "pinValue": 0,
                "ticks": 240,
                "event": {
                    "deltaTime": 240,
                    "type": "channel",
                    "subtype": "noteOff",
                    "channel": 4,
                    "noteNumber": 71,
                    "velocity": 0,
                    "lightChannels": [
                        5
                    ]
                }
            },
            "col-2": {
                "pinValue": 1,
                "ticks": 0,
                "event": {
                    "deltaTime": 0,
                    "type": "channel",
                    "subtype": "noteOn",
                    "channel": 4,
                    "noteNumber": 72,
                    "velocity": 111,
                    "lightChannels": [
                        4
                    ]
                }
            }
        }
    },
    {
        "changes": {
            "col-2": 0,
            "col-3": 1
        },
        "timeout": 0.1578945,
        "raw": {
            "col-2": {
                "pinValue": 0,
                "ticks": 240,
                "event": {
                    "deltaTime": 240,
                    "type": "channel",
                    "subtype": "noteOff",
                    "channel": 4,
                    "noteNumber": 72,
                    "velocity": 0,
                    "lightChannels": [
                        4
                    ]
                }
            },
            "col-3": {
                "pinValue": 1,
                "ticks": 0,
                "event": {
                    "deltaTime": 0,
                    "type": "channel",
                    "subtype": "noteOn",
                    "channel": 4,
                    "noteNumber": 74,
                    "velocity": 111,
                    "lightChannels": [
                        5
                    ]
                }
            }
        }
    },
    {
        "changes": {
            "col-3": 0,
            "col-2": 1
        },
        "timeout": 0.1578945,
        "raw": {
            "col-3": {
                "pinValue": 0,
                "ticks": 240,
                "event": {
                    "deltaTime": 240,
                    "type": "channel",
                    "subtype": "noteOff",
                    "channel": 4,
                    "noteNumber": 74,
                    "velocity": 0,
                    "lightChannels": [
                        5
                    ]
                }
            },
            "col-2": {
                "pinValue": 1,
                "ticks": 0,
                "event": {
                    "deltaTime": 0,
                    "type": "channel",
                    "subtype": "noteOn",
                    "channel": 4,
                    "noteNumber": 76,
                    "velocity": 111,
                    "lightChannels": [
                        4
                    ]
                }
            }
        }
    },
    {
        "changes": {
            "col-2": 0,
            "col-1": 1
        },
        "timeout": 0.1578945,
        "raw": {
            "col-2": {
                "pinValue": 0,
                "ticks": 240,
                "event": {
                    "deltaTime": 240,
                    "type": "channel",
                    "subtype": "noteOff",
                    "channel": 4,
                    "noteNumber": 76,
                    "velocity": 0,
                    "lightChannels": [
                        4
                    ]
                }
            },
            "col-1": {
                "pinValue": 1,
                "ticks": 0,
                "event": {
                    "deltaTime": 0,
                    "type": "channel",
                    "subtype": "noteOn",
                    "channel": 4,
                    "noteNumber": 78,
                    "velocity": 111,
                    "lightChannels": [
                        3
                    ]
                }
            }
        }
    },
    {
        "changes": {
            "col-1": 0,
            "col-2": 1
        },
        "timeout": 0.1578945,
        "raw": {
            "col-1": {
                "pinValue": 0,
                "ticks": 240,
                "event": {
                    "deltaTime": 240,
                    "type": "channel",
                    "subtype": "noteOff",
                    "channel": 4,
                    "noteNumber": 78,
                    "velocity": 0,
                    "lightChannels": [
                        3
                    ]
                }
            },
            "col-2": {
                "pinValue": 1,
                "ticks": 0,
                "event": {
                    "deltaTime": 0,
                    "type": "channel",
                    "subtype": "noteOn",
                    "channel": 4,
                    "noteNumber": 79,
                    "velocity": 111,
                    "lightChannels": [
                        4
                    ]
                }
            }
        }
    },
    {
        "changes": {
            "col-2": 0,
            "garage": 1,
            "top-right": 1,
            "bottom-right": 1,
            "window": 1,
            "outline": 1,
            "col-1": 1
        },
        "timeout": 0.1578945,
        "raw": {
            "col-2": {
                "pinValue": 0,
                "ticks": 240,
                "event": {
                    "deltaTime": 240,
                    "type": "channel",
                    "subtype": "noteOff",
                    "channel": 4,
                    "noteNumber": 79,
                    "velocity": 0,
                    "lightChannels": [
                        4
                    ]
                }
            },
            "garage": {
                "pinValue": 1,
                "ticks": 0,
                "event": {
                    "deltaTime": 0,
                    "type": "channel",
                    "subtype": "noteOn",
                    "channel": 4,
                    "noteNumber": 86,
                    "velocity": 111,
                    "lightChannels": [
                        0,
                        1,
                        2,
                        6,
                        7
                    ]
                }
            },
            "top-right": {
                "pinValue": 1,
                "ticks": 0,
                "event": {
                    "deltaTime": 0,
                    "type": "channel",
                    "subtype": "noteOn",
                    "channel": 4,
                    "noteNumber": 86,
                    "velocity": 111,
                    "lightChannels": [
                        0,
                        1,
                        2,
                        6,
                        7
                    ]
                }
            },
            "bottom-right": {
                "pinValue": 1,
                "ticks": 0,
                "event": {
                    "deltaTime": 0,
                    "type": "channel",
                    "subtype": "noteOn",
                    "channel": 4,
                    "noteNumber": 86,
                    "velocity": 111,
                    "lightChannels": [
                        0,
                        1,
                        2,
                        6,
                        7
                    ]
                }
            },
            "window": {
                "pinValue": 1,
                "ticks": 0,
                "event": {
                    "deltaTime": 0,
                    "type": "channel",
                    "subtype": "noteOn",
                    "channel": 4,
                    "noteNumber": 86,
                    "velocity": 111,
                    "lightChannels": [
                        0,
                        1,
                        2,
                        6,
                        7
                    ]
                }
            },
            "outline": {
                "pinValue": 1,
                "ticks": 0,
                "event": {
                    "deltaTime": 0,
                    "type": "channel",
                    "subtype": "noteOn",
                    "channel": 4,
                    "noteNumber": 86,
                    "velocity": 111,
                    "lightChannels": [
                        0,
                        1,
                        2,
                        6,
                        7
                    ]
                }
            },
            "col-1": {
                "pinValue": 1,
                "ticks": 0,
                "event": {
                    "deltaTime": 0,
                    "type": "channel",
                    "subtype": "noteOn",
                    "channel": 4,
                    "noteNumber": 79,
                    "velocity": 111,
                    "lightChannels": [
                        3
                    ]
                }
            }
        }
    },
    {
        "changes": {
            "garage": 0,
            "top-right": 0,
            "bottom-right": 0,
            "window": 0,
            "outline": 0,
            "col-1": 0,
            "col-3": 1
        },
        "timeout": 0.315789,
        "raw": {
            "garage": {
                "pinValue": 0,
                "ticks": 480,
                "event": {
                    "deltaTime": 480,
                    "type": "channel",
                    "subtype": "noteOff",
                    "channel": 4,
                    "noteNumber": 86,
                    "velocity": 0,
                    "lightChannels": [
                        0,
                        1,
                        2,
                        6,
                        7
                    ]
                }
            },
            "top-right": {
                "pinValue": 0,
                "ticks": 480,
                "event": {
                    "deltaTime": 480,
                    "type": "channel",
                    "subtype": "noteOff",
                    "channel": 4,
                    "noteNumber": 86,
                    "velocity": 0,
                    "lightChannels": [
                        0,
                        1,
                        2,
                        6,
                        7
                    ]
                }
            },
            "bottom-right": {
                "pinValue": 0,
                "ticks": 480,
                "event": {
                    "deltaTime": 480,
                    "type": "channel",
                    "subtype": "noteOff",
                    "channel": 4,
                    "noteNumber": 86,
                    "velocity": 0,
                    "lightChannels": [
                        0,
                        1,
                        2,
                        6,
                        7
                    ]
                }
            },
            "window": {
                "pinValue": 0,
                "ticks": 480,
                "event": {
                    "deltaTime": 480,
                    "type": "channel",
                    "subtype": "noteOff",
                    "channel": 4,
                    "noteNumber": 86,
                    "velocity": 0,
                    "lightChannels": [
                        0,
                        1,
                        2,
                        6,
                        7
                    ]
                }
            },
            "outline": {
                "pinValue": 0,
                "ticks": 480,
                "event": {
                    "deltaTime": 480,
                    "type": "channel",
                    "subtype": "noteOff",
                    "channel": 4,
                    "noteNumber": 86,
                    "velocity": 0,
                    "lightChannels": [
                        0,
                        1,
                        2,
                        6,
                        7
                    ]
                }
            },
            "col-1": {
                "pinValue": 0,
                "ticks": 0,
                "event": {
                    "deltaTime": 0,
                    "type": "channel",
                    "subtype": "noteOff",
                    "channel": 4,
                    "noteNumber": 79,
                    "velocity": 0,
                    "lightChannels": [
                        3
                    ]
                }
            },
            "col-3": {
                "pinValue": 1,
                "ticks": 0,
                "event": {
                    "deltaTime": 0,
                    "type": "channel",
                    "subtype": "noteOn",
                    "channel": 4,
                    "noteNumber": 78,
                    "velocity": 111,
                    "lightChannels": [
                        5
                    ]
                }
            }
        }
    },
    {
        "changes": {
            "col-3": 0,
            "col-2": 1
        },
        "timeout": 0.1578945,
        "raw": {
            "col-3": {
                "pinValue": 0,
                "ticks": 240,
                "event": {
                    "deltaTime": 240,
                    "type": "channel",
                    "subtype": "noteOff",
                    "channel": 4,
                    "noteNumber": 78,
                    "velocity": 0,
                    "lightChannels": [
                        5
                    ]
                }
            },
            "col-2": {
                "pinValue": 1,
                "ticks": 0,
                "event": {
                    "deltaTime": 0,
                    "type": "channel",
                    "subtype": "noteOn",
                    "channel": 4,
                    "noteNumber": 79,
                    "velocity": 111,
                    "lightChannels": [
                        4
                    ]
                }
            }
        }
    },
    {
        "changes": {
            "col-2": 0,
            "garden": 1,
            "tree": 1
        },
        "timeout": 0.1578945,
        "raw": {
            "col-2": {
                "pinValue": 0,
                "ticks": 240,
                "event": {
                    "deltaTime": 240,
                    "type": "channel",
                    "subtype": "noteOff",
                    "channel": 4,
                    "noteNumber": 79,
                    "velocity": 0,
                    "lightChannels": [
                        4
                    ]
                }
            },
            "garden": {
                "pinValue": 1,
                "ticks": 0,
                "event": {
                    "deltaTime": 0,
                    "type": "channel",
                    "subtype": "noteOn",
                    "channel": 4,
                    "noteNumber": 76,
                    "velocity": 111,
                    "lightChannels": [
                        8,
                        9
                    ]
                }
            },
            "tree": {
                "pinValue": 1,
                "ticks": 0,
                "event": {
                    "deltaTime": 0,
                    "type": "channel",
                    "subtype": "noteOn",
                    "channel": 4,
                    "noteNumber": 76,
                    "velocity": 111,
                    "lightChannels": [
                        8,
                        9
                    ]
                }
            }
        }
    },
    {
        "changes": {
            "garden": 0,
            "tree": 0,
            "garage": 1,
            "top-right": 1,
            "bottom-right": 1,
            "window": 1,
            "outline": 1,
            "col-1": 1
        },
        "timeout": 0.315789,
        "raw": {
            "garden": {
                "pinValue": 0,
                "ticks": 480,
                "event": {
                    "deltaTime": 480,
                    "type": "channel",
                    "subtype": "noteOff",
                    "channel": 4,
                    "noteNumber": 76,
                    "velocity": 0,
                    "lightChannels": [
                        8,
                        9
                    ]
                }
            },
            "tree": {
                "pinValue": 0,
                "ticks": 480,
                "event": {
                    "deltaTime": 480,
                    "type": "channel",
                    "subtype": "noteOff",
                    "channel": 4,
                    "noteNumber": 76,
                    "velocity": 0,
                    "lightChannels": [
                        8,
                        9
                    ]
                }
            },
            "garage": {
                "pinValue": 1,
                "ticks": 0,
                "event": {
                    "deltaTime": 0,
                    "type": "channel",
                    "subtype": "noteOn",
                    "channel": 4,
                    "noteNumber": 86,
                    "velocity": 111,
                    "lightChannels": [
                        0,
                        1,
                        2,
                        6,
                        7
                    ]
                }
            },
            "top-right": {
                "pinValue": 1,
                "ticks": 0,
                "event": {
                    "deltaTime": 0,
                    "type": "channel",
                    "subtype": "noteOn",
                    "channel": 4,
                    "noteNumber": 86,
                    "velocity": 111,
                    "lightChannels": [
                        0,
                        1,
                        2,
                        6,
                        7
                    ]
                }
            },
            "bottom-right": {
                "pinValue": 1,
                "ticks": 0,
                "event": {
                    "deltaTime": 0,
                    "type": "channel",
                    "subtype": "noteOn",
                    "channel": 4,
                    "noteNumber": 86,
                    "velocity": 111,
                    "lightChannels": [
                        0,
                        1,
                        2,
                        6,
                        7
                    ]
                }
            },
            "window": {
                "pinValue": 1,
                "ticks": 0,
                "event": {
                    "deltaTime": 0,
                    "type": "channel",
                    "subtype": "noteOn",
                    "channel": 4,
                    "noteNumber": 86,
                    "velocity": 111,
                    "lightChannels": [
                        0,
                        1,
                        2,
                        6,
                        7
                    ]
                }
            },
            "outline": {
                "pinValue": 1,
                "ticks": 0,
                "event": {
                    "deltaTime": 0,
                    "type": "channel",
                    "subtype": "noteOn",
                    "channel": 4,
                    "noteNumber": 86,
                    "velocity": 111,
                    "lightChannels": [
                        0,
                        1,
                        2,
                        6,
                        7
                    ]
                }
            },
            "col-1": {
                "pinValue": 1,
                "ticks": 0,
                "event": {
                    "deltaTime": 0,
                    "type": "channel",
                    "subtype": "noteOn",
                    "channel": 4,
                    "noteNumber": 79,
                    "velocity": 111,
                    "lightChannels": [
                        3
                    ]
                }
            }
        }
    },
    {
        "changes": {
            "garage": 0,
            "top-right": 0,
            "bottom-right": 0,
            "window": 0,
            "outline": 0,
            "col-1": 0,
            "col-3": 1
        },
        "timeout": 0.315789,
        "raw": {
            "garage": {
                "pinValue": 0,
                "ticks": 480,
                "event": {
                    "deltaTime": 480,
                    "type": "channel",
                    "subtype": "noteOff",
                    "channel": 4,
                    "noteNumber": 86,
                    "velocity": 0,
                    "lightChannels": [
                        0,
                        1,
                        2,
                        6,
                        7
                    ]
                }
            },
            "top-right": {
                "pinValue": 0,
                "ticks": 480,
                "event": {
                    "deltaTime": 480,
                    "type": "channel",
                    "subtype": "noteOff",
                    "channel": 4,
                    "noteNumber": 86,
                    "velocity": 0,
                    "lightChannels": [
                        0,
                        1,
                        2,
                        6,
                        7
                    ]
                }
            },
            "bottom-right": {
                "pinValue": 0,
                "ticks": 480,
                "event": {
                    "deltaTime": 480,
                    "type": "channel",
                    "subtype": "noteOff",
                    "channel": 4,
                    "noteNumber": 86,
                    "velocity": 0,
                    "lightChannels": [
                        0,
                        1,
                        2,
                        6,
                        7
                    ]
                }
            },
            "window": {
                "pinValue": 0,
                "ticks": 480,
                "event": {
                    "deltaTime": 480,
                    "type": "channel",
                    "subtype": "noteOff",
                    "channel": 4,
                    "noteNumber": 86,
                    "velocity": 0,
                    "lightChannels": [
                        0,
                        1,
                        2,
                        6,
                        7
                    ]
                }
            },
            "outline": {
                "pinValue": 0,
                "ticks": 480,
                "event": {
                    "deltaTime": 480,
                    "type": "channel",
                    "subtype": "noteOff",
                    "channel": 4,
                    "noteNumber": 86,
                    "velocity": 0,
                    "lightChannels": [
                        0,
                        1,
                        2,
                        6,
                        7
                    ]
                }
            },
            "col-1": {
                "pinValue": 0,
                "ticks": 0,
                "event": {
                    "deltaTime": 0,
                    "type": "channel",
                    "subtype": "noteOff",
                    "channel": 4,
                    "noteNumber": 79,
                    "velocity": 0,
                    "lightChannels": [
                        3
                    ]
                }
            },
            "col-3": {
                "pinValue": 1,
                "ticks": 0,
                "event": {
                    "deltaTime": 0,
                    "type": "channel",
                    "subtype": "noteOn",
                    "channel": 4,
                    "noteNumber": 78,
                    "velocity": 111,
                    "lightChannels": [
                        5
                    ]
                }
            }
        }
    },
    {
        "changes": {
            "col-3": 0,
            "col-2": 1
        },
        "timeout": 0.1578945,
        "raw": {
            "col-3": {
                "pinValue": 0,
                "ticks": 240,
                "event": {
                    "deltaTime": 240,
                    "type": "channel",
                    "subtype": "noteOff",
                    "channel": 4,
                    "noteNumber": 78,
                    "velocity": 0,
                    "lightChannels": [
                        5
                    ]
                }
            },
            "col-2": {
                "pinValue": 1,
                "ticks": 0,
                "event": {
                    "deltaTime": 0,
                    "type": "channel",
                    "subtype": "noteOn",
                    "channel": 4,
                    "noteNumber": 79,
                    "velocity": 111,
                    "lightChannels": [
                        4
                    ]
                }
            }
        }
    },
    {
        "changes": {
            "col-2": 0,
            "garden": 1,
            "tree": 1
        },
        "timeout": 0.1578945,
        "raw": {
            "col-2": {
                "pinValue": 0,
                "ticks": 240,
                "event": {
                    "deltaTime": 240,
                    "type": "channel",
                    "subtype": "noteOff",
                    "channel": 4,
                    "noteNumber": 79,
                    "velocity": 0,
                    "lightChannels": [
                        4
                    ]
                }
            },
            "garden": {
                "pinValue": 1,
                "ticks": 0,
                "event": {
                    "deltaTime": 0,
                    "type": "channel",
                    "subtype": "noteOn",
                    "channel": 4,
                    "noteNumber": 76,
                    "velocity": 111,
                    "lightChannels": [
                        8,
                        9
                    ]
                }
            },
            "tree": {
                "pinValue": 1,
                "ticks": 0,
                "event": {
                    "deltaTime": 0,
                    "type": "channel",
                    "subtype": "noteOn",
                    "channel": 4,
                    "noteNumber": 76,
                    "velocity": 111,
                    "lightChannels": [
                        8,
                        9
                    ]
                }
            }
        }
    },
    {
        "changes": {
            "garden": 0,
            "tree": 0,
            "garage": 1,
            "top-right": 1,
            "bottom-right": 1,
            "window": 1,
            "outline": 1,
            "col-1": 1
        },
        "timeout": 0.315789,
        "raw": {
            "garden": {
                "pinValue": 0,
                "ticks": 480,
                "event": {
                    "deltaTime": 480,
                    "type": "channel",
                    "subtype": "noteOff",
                    "channel": 4,
                    "noteNumber": 76,
                    "velocity": 0,
                    "lightChannels": [
                        8,
                        9
                    ]
                }
            },
            "tree": {
                "pinValue": 0,
                "ticks": 480,
                "event": {
                    "deltaTime": 480,
                    "type": "channel",
                    "subtype": "noteOff",
                    "channel": 4,
                    "noteNumber": 76,
                    "velocity": 0,
                    "lightChannels": [
                        8,
                        9
                    ]
                }
            },
            "garage": {
                "pinValue": 1,
                "ticks": 0,
                "event": {
                    "deltaTime": 0,
                    "type": "channel",
                    "subtype": "noteOn",
                    "channel": 4,
                    "noteNumber": 86,
                    "velocity": 111,
                    "lightChannels": [
                        0,
                        1,
                        2,
                        6,
                        7
                    ]
                }
            },
            "top-right": {
                "pinValue": 1,
                "ticks": 0,
                "event": {
                    "deltaTime": 0,
                    "type": "channel",
                    "subtype": "noteOn",
                    "channel": 4,
                    "noteNumber": 86,
                    "velocity": 111,
                    "lightChannels": [
                        0,
                        1,
                        2,
                        6,
                        7
                    ]
                }
            },
            "bottom-right": {
                "pinValue": 1,
                "ticks": 0,
                "event": {
                    "deltaTime": 0,
                    "type": "channel",
                    "subtype": "noteOn",
                    "channel": 4,
                    "noteNumber": 86,
                    "velocity": 111,
                    "lightChannels": [
                        0,
                        1,
                        2,
                        6,
                        7
                    ]
                }
            },
            "window": {
                "pinValue": 1,
                "ticks": 0,
                "event": {
                    "deltaTime": 0,
                    "type": "channel",
                    "subtype": "noteOn",
                    "channel": 4,
                    "noteNumber": 86,
                    "velocity": 111,
                    "lightChannels": [
                        0,
                        1,
                        2,
                        6,
                        7
                    ]
                }
            },
            "outline": {
                "pinValue": 1,
                "ticks": 0,
                "event": {
                    "deltaTime": 0,
                    "type": "channel",
                    "subtype": "noteOn",
                    "channel": 4,
                    "noteNumber": 86,
                    "velocity": 111,
                    "lightChannels": [
                        0,
                        1,
                        2,
                        6,
                        7
                    ]
                }
            },
            "col-1": {
                "pinValue": 1,
                "ticks": 0,
                "event": {
                    "deltaTime": 0,
                    "type": "channel",
                    "subtype": "noteOn",
                    "channel": 4,
                    "noteNumber": 79,
                    "velocity": 111,
                    "lightChannels": [
                        3
                    ]
                }
            }
        }
    },
    {
        "changes": {
            "garage": 0,
            "top-right": 0,
            "bottom-right": 0,
            "window": 0,
            "outline": 0,
            "col-1": 0,
            "col-3": 1
        },
        "timeout": 0.315789,
        "raw": {
            "garage": {
                "pinValue": 0,
                "ticks": 480,
                "event": {
                    "deltaTime": 480,
                    "type": "channel",
                    "subtype": "noteOff",
                    "channel": 4,
                    "noteNumber": 86,
                    "velocity": 0,
                    "lightChannels": [
                        0,
                        1,
                        2,
                        6,
                        7
                    ]
                }
            },
            "top-right": {
                "pinValue": 0,
                "ticks": 480,
                "event": {
                    "deltaTime": 480,
                    "type": "channel",
                    "subtype": "noteOff",
                    "channel": 4,
                    "noteNumber": 86,
                    "velocity": 0,
                    "lightChannels": [
                        0,
                        1,
                        2,
                        6,
                        7
                    ]
                }
            },
            "bottom-right": {
                "pinValue": 0,
                "ticks": 480,
                "event": {
                    "deltaTime": 480,
                    "type": "channel",
                    "subtype": "noteOff",
                    "channel": 4,
                    "noteNumber": 86,
                    "velocity": 0,
                    "lightChannels": [
                        0,
                        1,
                        2,
                        6,
                        7
                    ]
                }
            },
            "window": {
                "pinValue": 0,
                "ticks": 480,
                "event": {
                    "deltaTime": 480,
                    "type": "channel",
                    "subtype": "noteOff",
                    "channel": 4,
                    "noteNumber": 86,
                    "velocity": 0,
                    "lightChannels": [
                        0,
                        1,
                        2,
                        6,
                        7
                    ]
                }
            },
            "outline": {
                "pinValue": 0,
                "ticks": 480,
                "event": {
                    "deltaTime": 480,
                    "type": "channel",
                    "subtype": "noteOff",
                    "channel": 4,
                    "noteNumber": 86,
                    "velocity": 0,
                    "lightChannels": [
                        0,
                        1,
                        2,
                        6,
                        7
                    ]
                }
            },
            "col-1": {
                "pinValue": 0,
                "ticks": 0,
                "event": {
                    "deltaTime": 0,
                    "type": "channel",
                    "subtype": "noteOff",
                    "channel": 4,
                    "noteNumber": 79,
                    "velocity": 0,
                    "lightChannels": [
                        3
                    ]
                }
            },
            "col-3": {
                "pinValue": 1,
                "ticks": 0,
                "event": {
                    "deltaTime": 0,
                    "type": "channel",
                    "subtype": "noteOn",
                    "channel": 4,
                    "noteNumber": 78,
                    "velocity": 111,
                    "lightChannels": [
                        5
                    ]
                }
            }
        }
    },
    {
        "changes": {
            "col-3": 0,
            "col-2": 1
        },
        "timeout": 0.1578945,
        "raw": {
            "col-3": {
                "pinValue": 0,
                "ticks": 240,
                "event": {
                    "deltaTime": 240,
                    "type": "channel",
                    "subtype": "noteOff",
                    "channel": 4,
                    "noteNumber": 78,
                    "velocity": 0,
                    "lightChannels": [
                        5
                    ]
                }
            },
            "col-2": {
                "pinValue": 1,
                "ticks": 0,
                "event": {
                    "deltaTime": 0,
                    "type": "channel",
                    "subtype": "noteOn",
                    "channel": 4,
                    "noteNumber": 79,
                    "velocity": 111,
                    "lightChannels": [
                        4
                    ]
                }
            }
        }
    },
    {
        "changes": {
            "col-2": 0,
            "garden": 1,
            "tree": 1
        },
        "timeout": 0.1578945,
        "raw": {
            "col-2": {
                "pinValue": 0,
                "ticks": 240,
                "event": {
                    "deltaTime": 240,
                    "type": "channel",
                    "subtype": "noteOff",
                    "channel": 4,
                    "noteNumber": 79,
                    "velocity": 0,
                    "lightChannels": [
                        4
                    ]
                }
            },
            "garden": {
                "pinValue": 1,
                "ticks": 0,
                "event": {
                    "deltaTime": 0,
                    "type": "channel",
                    "subtype": "noteOn",
                    "channel": 4,
                    "noteNumber": 76,
                    "velocity": 111,
                    "lightChannels": [
                        8,
                        9
                    ]
                }
            },
            "tree": {
                "pinValue": 1,
                "ticks": 0,
                "event": {
                    "deltaTime": 0,
                    "type": "channel",
                    "subtype": "noteOn",
                    "channel": 4,
                    "noteNumber": 76,
                    "velocity": 111,
                    "lightChannels": [
                        8,
                        9
                    ]
                }
            }
        }
    },
    {
        "changes": {
            "garden": 0,
            "tree": 0,
            "garage": 1,
            "top-right": 1,
            "bottom-right": 1,
            "window": 1,
            "outline": 1,
            "col-1": 1
        },
        "timeout": 0.315789,
        "raw": {
            "garden": {
                "pinValue": 0,
                "ticks": 480,
                "event": {
                    "deltaTime": 480,
                    "type": "channel",
                    "subtype": "noteOff",
                    "channel": 4,
                    "noteNumber": 76,
                    "velocity": 0,
                    "lightChannels": [
                        8,
                        9
                    ]
                }
            },
            "tree": {
                "pinValue": 0,
                "ticks": 480,
                "event": {
                    "deltaTime": 480,
                    "type": "channel",
                    "subtype": "noteOff",
                    "channel": 4,
                    "noteNumber": 76,
                    "velocity": 0,
                    "lightChannels": [
                        8,
                        9
                    ]
                }
            },
            "garage": {
                "pinValue": 1,
                "ticks": 0,
                "event": {
                    "deltaTime": 0,
                    "type": "channel",
                    "subtype": "noteOn",
                    "channel": 4,
                    "noteNumber": 86,
                    "velocity": 111,
                    "lightChannels": [
                        0,
                        1,
                        2,
                        6,
                        7
                    ]
                }
            },
            "top-right": {
                "pinValue": 1,
                "ticks": 0,
                "event": {
                    "deltaTime": 0,
                    "type": "channel",
                    "subtype": "noteOn",
                    "channel": 4,
                    "noteNumber": 86,
                    "velocity": 111,
                    "lightChannels": [
                        0,
                        1,
                        2,
                        6,
                        7
                    ]
                }
            },
            "bottom-right": {
                "pinValue": 1,
                "ticks": 0,
                "event": {
                    "deltaTime": 0,
                    "type": "channel",
                    "subtype": "noteOn",
                    "channel": 4,
                    "noteNumber": 86,
                    "velocity": 111,
                    "lightChannels": [
                        0,
                        1,
                        2,
                        6,
                        7
                    ]
                }
            },
            "window": {
                "pinValue": 1,
                "ticks": 0,
                "event": {
                    "deltaTime": 0,
                    "type": "channel",
                    "subtype": "noteOn",
                    "channel": 4,
                    "noteNumber": 86,
                    "velocity": 111,
                    "lightChannels": [
                        0,
                        1,
                        2,
                        6,
                        7
                    ]
                }
            },
            "outline": {
                "pinValue": 1,
                "ticks": 0,
                "event": {
                    "deltaTime": 0,
                    "type": "channel",
                    "subtype": "noteOn",
                    "channel": 4,
                    "noteNumber": 86,
                    "velocity": 111,
                    "lightChannels": [
                        0,
                        1,
                        2,
                        6,
                        7
                    ]
                }
            },
            "col-1": {
                "pinValue": 1,
                "ticks": 0,
                "event": {
                    "deltaTime": 0,
                    "type": "channel",
                    "subtype": "noteOn",
                    "channel": 4,
                    "noteNumber": 79,
                    "velocity": 111,
                    "lightChannels": [
                        3
                    ]
                }
            }
        }
    },
    {
        "changes": {
            "garage": 0,
            "top-right": 0,
            "bottom-right": 0,
            "window": 0,
            "outline": 0,
            "col-1": 0,
            "col-3": 1
        },
        "timeout": 0.315789,
        "raw": {
            "garage": {
                "pinValue": 0,
                "ticks": 480,
                "event": {
                    "deltaTime": 480,
                    "type": "channel",
                    "subtype": "noteOff",
                    "channel": 4,
                    "noteNumber": 86,
                    "velocity": 0,
                    "lightChannels": [
                        0,
                        1,
                        2,
                        6,
                        7
                    ]
                }
            },
            "top-right": {
                "pinValue": 0,
                "ticks": 480,
                "event": {
                    "deltaTime": 480,
                    "type": "channel",
                    "subtype": "noteOff",
                    "channel": 4,
                    "noteNumber": 86,
                    "velocity": 0,
                    "lightChannels": [
                        0,
                        1,
                        2,
                        6,
                        7
                    ]
                }
            },
            "bottom-right": {
                "pinValue": 0,
                "ticks": 480,
                "event": {
                    "deltaTime": 480,
                    "type": "channel",
                    "subtype": "noteOff",
                    "channel": 4,
                    "noteNumber": 86,
                    "velocity": 0,
                    "lightChannels": [
                        0,
                        1,
                        2,
                        6,
                        7
                    ]
                }
            },
            "window": {
                "pinValue": 0,
                "ticks": 480,
                "event": {
                    "deltaTime": 480,
                    "type": "channel",
                    "subtype": "noteOff",
                    "channel": 4,
                    "noteNumber": 86,
                    "velocity": 0,
                    "lightChannels": [
                        0,
                        1,
                        2,
                        6,
                        7
                    ]
                }
            },
            "outline": {
                "pinValue": 0,
                "ticks": 480,
                "event": {
                    "deltaTime": 480,
                    "type": "channel",
                    "subtype": "noteOff",
                    "channel": 4,
                    "noteNumber": 86,
                    "velocity": 0,
                    "lightChannels": [
                        0,
                        1,
                        2,
                        6,
                        7
                    ]
                }
            },
            "col-1": {
                "pinValue": 0,
                "ticks": 0,
                "event": {
                    "deltaTime": 0,
                    "type": "channel",
                    "subtype": "noteOff",
                    "channel": 4,
                    "noteNumber": 79,
                    "velocity": 0,
                    "lightChannels": [
                        3
                    ]
                }
            },
            "col-3": {
                "pinValue": 1,
                "ticks": 0,
                "event": {
                    "deltaTime": 0,
                    "type": "channel",
                    "subtype": "noteOn",
                    "channel": 4,
                    "noteNumber": 78,
                    "velocity": 111,
                    "lightChannels": [
                        5
                    ]
                }
            }
        }
    },
    {
        "changes": {
            "col-3": 0,
            "col-2": 1
        },
        "timeout": 0.1578945,
        "raw": {
            "col-3": {
                "pinValue": 0,
                "ticks": 240,
                "event": {
                    "deltaTime": 240,
                    "type": "channel",
                    "subtype": "noteOff",
                    "channel": 4,
                    "noteNumber": 78,
                    "velocity": 0,
                    "lightChannels": [
                        5
                    ]
                }
            },
            "col-2": {
                "pinValue": 1,
                "ticks": 0,
                "event": {
                    "deltaTime": 0,
                    "type": "channel",
                    "subtype": "noteOn",
                    "channel": 4,
                    "noteNumber": 79,
                    "velocity": 111,
                    "lightChannels": [
                        4
                    ]
                }
            }
        }
    },
    {
        "changes": {
            "col-2": 0,
            "garden": 1,
            "tree": 1
        },
        "timeout": 0.1578945,
        "raw": {
            "col-2": {
                "pinValue": 0,
                "ticks": 240,
                "event": {
                    "deltaTime": 240,
                    "type": "channel",
                    "subtype": "noteOff",
                    "channel": 4,
                    "noteNumber": 79,
                    "velocity": 0,
                    "lightChannels": [
                        4
                    ]
                }
            },
            "garden": {
                "pinValue": 1,
                "ticks": 0,
                "event": {
                    "deltaTime": 0,
                    "type": "channel",
                    "subtype": "noteOn",
                    "channel": 4,
                    "noteNumber": 76,
                    "velocity": 111,
                    "lightChannels": [
                        8,
                        9
                    ]
                }
            },
            "tree": {
                "pinValue": 1,
                "ticks": 0,
                "event": {
                    "deltaTime": 0,
                    "type": "channel",
                    "subtype": "noteOn",
                    "channel": 4,
                    "noteNumber": 76,
                    "velocity": 111,
                    "lightChannels": [
                        8,
                        9
                    ]
                }
            }
        }
    },
    {
        "changes": {
            "garden": 0,
            "tree": 0,
            "garage": 1,
            "top-right": 1,
            "bottom-right": 1,
            "window": 1,
            "outline": 1,
            "col-1": 1
        },
        "timeout": 0.315789,
        "raw": {
            "garden": {
                "pinValue": 0,
                "ticks": 480,
                "event": {
                    "deltaTime": 480,
                    "type": "channel",
                    "subtype": "noteOff",
                    "channel": 4,
                    "noteNumber": 76,
                    "velocity": 0,
                    "lightChannels": [
                        8,
                        9
                    ]
                }
            },
            "tree": {
                "pinValue": 0,
                "ticks": 480,
                "event": {
                    "deltaTime": 480,
                    "type": "channel",
                    "subtype": "noteOff",
                    "channel": 4,
                    "noteNumber": 76,
                    "velocity": 0,
                    "lightChannels": [
                        8,
                        9
                    ]
                }
            },
            "garage": {
                "pinValue": 1,
                "ticks": 0,
                "event": {
                    "deltaTime": 0,
                    "type": "channel",
                    "subtype": "noteOn",
                    "channel": 4,
                    "noteNumber": 86,
                    "velocity": 111,
                    "lightChannels": [
                        0,
                        1,
                        2,
                        6,
                        7
                    ]
                }
            },
            "top-right": {
                "pinValue": 1,
                "ticks": 0,
                "event": {
                    "deltaTime": 0,
                    "type": "channel",
                    "subtype": "noteOn",
                    "channel": 4,
                    "noteNumber": 86,
                    "velocity": 111,
                    "lightChannels": [
                        0,
                        1,
                        2,
                        6,
                        7
                    ]
                }
            },
            "bottom-right": {
                "pinValue": 1,
                "ticks": 0,
                "event": {
                    "deltaTime": 0,
                    "type": "channel",
                    "subtype": "noteOn",
                    "channel": 4,
                    "noteNumber": 86,
                    "velocity": 111,
                    "lightChannels": [
                        0,
                        1,
                        2,
                        6,
                        7
                    ]
                }
            },
            "window": {
                "pinValue": 1,
                "ticks": 0,
                "event": {
                    "deltaTime": 0,
                    "type": "channel",
                    "subtype": "noteOn",
                    "channel": 4,
                    "noteNumber": 86,
                    "velocity": 111,
                    "lightChannels": [
                        0,
                        1,
                        2,
                        6,
                        7
                    ]
                }
            },
            "outline": {
                "pinValue": 1,
                "ticks": 0,
                "event": {
                    "deltaTime": 0,
                    "type": "channel",
                    "subtype": "noteOn",
                    "channel": 4,
                    "noteNumber": 86,
                    "velocity": 111,
                    "lightChannels": [
                        0,
                        1,
                        2,
                        6,
                        7
                    ]
                }
            },
            "col-1": {
                "pinValue": 1,
                "ticks": 0,
                "event": {
                    "deltaTime": 0,
                    "type": "channel",
                    "subtype": "noteOn",
                    "channel": 4,
                    "noteNumber": 79,
                    "velocity": 111,
                    "lightChannels": [
                        3
                    ]
                }
            }
        }
    },
    {
        "changes": {
            "garage": 0,
            "top-right": 0,
            "bottom-right": 0,
            "window": 0,
            "outline": 0,
            "col-1": 0,
            "col-3": 1
        },
        "timeout": 0.315789,
        "raw": {
            "garage": {
                "pinValue": 0,
                "ticks": 480,
                "event": {
                    "deltaTime": 480,
                    "type": "channel",
                    "subtype": "noteOff",
                    "channel": 4,
                    "noteNumber": 86,
                    "velocity": 0,
                    "lightChannels": [
                        0,
                        1,
                        2,
                        6,
                        7
                    ]
                }
            },
            "top-right": {
                "pinValue": 0,
                "ticks": 480,
                "event": {
                    "deltaTime": 480,
                    "type": "channel",
                    "subtype": "noteOff",
                    "channel": 4,
                    "noteNumber": 86,
                    "velocity": 0,
                    "lightChannels": [
                        0,
                        1,
                        2,
                        6,
                        7
                    ]
                }
            },
            "bottom-right": {
                "pinValue": 0,
                "ticks": 480,
                "event": {
                    "deltaTime": 480,
                    "type": "channel",
                    "subtype": "noteOff",
                    "channel": 4,
                    "noteNumber": 86,
                    "velocity": 0,
                    "lightChannels": [
                        0,
                        1,
                        2,
                        6,
                        7
                    ]
                }
            },
            "window": {
                "pinValue": 0,
                "ticks": 480,
                "event": {
                    "deltaTime": 480,
                    "type": "channel",
                    "subtype": "noteOff",
                    "channel": 4,
                    "noteNumber": 86,
                    "velocity": 0,
                    "lightChannels": [
                        0,
                        1,
                        2,
                        6,
                        7
                    ]
                }
            },
            "outline": {
                "pinValue": 0,
                "ticks": 480,
                "event": {
                    "deltaTime": 480,
                    "type": "channel",
                    "subtype": "noteOff",
                    "channel": 4,
                    "noteNumber": 86,
                    "velocity": 0,
                    "lightChannels": [
                        0,
                        1,
                        2,
                        6,
                        7
                    ]
                }
            },
            "col-1": {
                "pinValue": 0,
                "ticks": 0,
                "event": {
                    "deltaTime": 0,
                    "type": "channel",
                    "subtype": "noteOff",
                    "channel": 4,
                    "noteNumber": 79,
                    "velocity": 0,
                    "lightChannels": [
                        3
                    ]
                }
            },
            "col-3": {
                "pinValue": 1,
                "ticks": 0,
                "event": {
                    "deltaTime": 0,
                    "type": "channel",
                    "subtype": "noteOn",
                    "channel": 4,
                    "noteNumber": 78,
                    "velocity": 111,
                    "lightChannels": [
                        5
                    ]
                }
            }
        }
    },
    {
        "changes": {
            "col-3": 0,
            "col-2": 1
        },
        "timeout": 0.1578945,
        "raw": {
            "col-3": {
                "pinValue": 0,
                "ticks": 240,
                "event": {
                    "deltaTime": 240,
                    "type": "channel",
                    "subtype": "noteOff",
                    "channel": 4,
                    "noteNumber": 78,
                    "velocity": 0,
                    "lightChannels": [
                        5
                    ]
                }
            },
            "col-2": {
                "pinValue": 1,
                "ticks": 0,
                "event": {
                    "deltaTime": 0,
                    "type": "channel",
                    "subtype": "noteOn",
                    "channel": 4,
                    "noteNumber": 79,
                    "velocity": 111,
                    "lightChannels": [
                        4
                    ]
                }
            }
        }
    },
    {
        "changes": {
            "col-2": 0,
            "garden": 1,
            "tree": 1
        },
        "timeout": 0.1578945,
        "raw": {
            "col-2": {
                "pinValue": 0,
                "ticks": 240,
                "event": {
                    "deltaTime": 240,
                    "type": "channel",
                    "subtype": "noteOff",
                    "channel": 4,
                    "noteNumber": 79,
                    "velocity": 0,
                    "lightChannels": [
                        4
                    ]
                }
            },
            "garden": {
                "pinValue": 1,
                "ticks": 0,
                "event": {
                    "deltaTime": 0,
                    "type": "channel",
                    "subtype": "noteOn",
                    "channel": 4,
                    "noteNumber": 76,
                    "velocity": 111,
                    "lightChannels": [
                        8,
                        9
                    ]
                }
            },
            "tree": {
                "pinValue": 1,
                "ticks": 0,
                "event": {
                    "deltaTime": 0,
                    "type": "channel",
                    "subtype": "noteOn",
                    "channel": 4,
                    "noteNumber": 76,
                    "velocity": 111,
                    "lightChannels": [
                        8,
                        9
                    ]
                }
            }
        }
    },
    {
        "changes": {
            "garden": 0,
            "tree": 0,
            "garage": 1,
            "top-right": 1,
            "bottom-right": 1,
            "window": 1,
            "outline": 1,
            "col-1": 1
        },
        "timeout": 0.315789,
        "raw": {
            "garden": {
                "pinValue": 0,
                "ticks": 480,
                "event": {
                    "deltaTime": 480,
                    "type": "channel",
                    "subtype": "noteOff",
                    "channel": 4,
                    "noteNumber": 76,
                    "velocity": 0,
                    "lightChannels": [
                        8,
                        9
                    ]
                }
            },
            "tree": {
                "pinValue": 0,
                "ticks": 480,
                "event": {
                    "deltaTime": 480,
                    "type": "channel",
                    "subtype": "noteOff",
                    "channel": 4,
                    "noteNumber": 76,
                    "velocity": 0,
                    "lightChannels": [
                        8,
                        9
                    ]
                }
            },
            "garage": {
                "pinValue": 1,
                "ticks": 0,
                "event": {
                    "deltaTime": 0,
                    "type": "channel",
                    "subtype": "noteOn",
                    "channel": 4,
                    "noteNumber": 86,
                    "velocity": 111,
                    "lightChannels": [
                        0,
                        1,
                        2,
                        6,
                        7
                    ]
                }
            },
            "top-right": {
                "pinValue": 1,
                "ticks": 0,
                "event": {
                    "deltaTime": 0,
                    "type": "channel",
                    "subtype": "noteOn",
                    "channel": 4,
                    "noteNumber": 86,
                    "velocity": 111,
                    "lightChannels": [
                        0,
                        1,
                        2,
                        6,
                        7
                    ]
                }
            },
            "bottom-right": {
                "pinValue": 1,
                "ticks": 0,
                "event": {
                    "deltaTime": 0,
                    "type": "channel",
                    "subtype": "noteOn",
                    "channel": 4,
                    "noteNumber": 86,
                    "velocity": 111,
                    "lightChannels": [
                        0,
                        1,
                        2,
                        6,
                        7
                    ]
                }
            },
            "window": {
                "pinValue": 1,
                "ticks": 0,
                "event": {
                    "deltaTime": 0,
                    "type": "channel",
                    "subtype": "noteOn",
                    "channel": 4,
                    "noteNumber": 86,
                    "velocity": 111,
                    "lightChannels": [
                        0,
                        1,
                        2,
                        6,
                        7
                    ]
                }
            },
            "outline": {
                "pinValue": 1,
                "ticks": 0,
                "event": {
                    "deltaTime": 0,
                    "type": "channel",
                    "subtype": "noteOn",
                    "channel": 4,
                    "noteNumber": 86,
                    "velocity": 111,
                    "lightChannels": [
                        0,
                        1,
                        2,
                        6,
                        7
                    ]
                }
            },
            "col-1": {
                "pinValue": 1,
                "ticks": 0,
                "event": {
                    "deltaTime": 0,
                    "type": "channel",
                    "subtype": "noteOn",
                    "channel": 4,
                    "noteNumber": 79,
                    "velocity": 111,
                    "lightChannels": [
                        3
                    ]
                }
            }
        }
    },
    {
        "changes": {
            "garage": 0,
            "top-right": 0,
            "bottom-right": 0,
            "window": 0,
            "outline": 0,
            "col-1": 0,
            "col-3": 1
        },
        "timeout": 0.315789,
        "raw": {
            "garage": {
                "pinValue": 0,
                "ticks": 480,
                "event": {
                    "deltaTime": 480,
                    "type": "channel",
                    "subtype": "noteOff",
                    "channel": 4,
                    "noteNumber": 86,
                    "velocity": 0,
                    "lightChannels": [
                        0,
                        1,
                        2,
                        6,
                        7
                    ]
                }
            },
            "top-right": {
                "pinValue": 0,
                "ticks": 480,
                "event": {
                    "deltaTime": 480,
                    "type": "channel",
                    "subtype": "noteOff",
                    "channel": 4,
                    "noteNumber": 86,
                    "velocity": 0,
                    "lightChannels": [
                        0,
                        1,
                        2,
                        6,
                        7
                    ]
                }
            },
            "bottom-right": {
                "pinValue": 0,
                "ticks": 480,
                "event": {
                    "deltaTime": 480,
                    "type": "channel",
                    "subtype": "noteOff",
                    "channel": 4,
                    "noteNumber": 86,
                    "velocity": 0,
                    "lightChannels": [
                        0,
                        1,
                        2,
                        6,
                        7
                    ]
                }
            },
            "window": {
                "pinValue": 0,
                "ticks": 480,
                "event": {
                    "deltaTime": 480,
                    "type": "channel",
                    "subtype": "noteOff",
                    "channel": 4,
                    "noteNumber": 86,
                    "velocity": 0,
                    "lightChannels": [
                        0,
                        1,
                        2,
                        6,
                        7
                    ]
                }
            },
            "outline": {
                "pinValue": 0,
                "ticks": 480,
                "event": {
                    "deltaTime": 480,
                    "type": "channel",
                    "subtype": "noteOff",
                    "channel": 4,
                    "noteNumber": 86,
                    "velocity": 0,
                    "lightChannels": [
                        0,
                        1,
                        2,
                        6,
                        7
                    ]
                }
            },
            "col-1": {
                "pinValue": 0,
                "ticks": 0,
                "event": {
                    "deltaTime": 0,
                    "type": "channel",
                    "subtype": "noteOff",
                    "channel": 4,
                    "noteNumber": 79,
                    "velocity": 0,
                    "lightChannels": [
                        3
                    ]
                }
            },
            "col-3": {
                "pinValue": 1,
                "ticks": 0,
                "event": {
                    "deltaTime": 0,
                    "type": "channel",
                    "subtype": "noteOn",
                    "channel": 4,
                    "noteNumber": 78,
                    "velocity": 111,
                    "lightChannels": [
                        5
                    ]
                }
            }
        }
    },
    {
        "changes": {
            "col-3": 0,
            "col-2": 1
        },
        "timeout": 0.1578945,
        "raw": {
            "col-3": {
                "pinValue": 0,
                "ticks": 240,
                "event": {
                    "deltaTime": 240,
                    "type": "channel",
                    "subtype": "noteOff",
                    "channel": 4,
                    "noteNumber": 78,
                    "velocity": 0,
                    "lightChannels": [
                        5
                    ]
                }
            },
            "col-2": {
                "pinValue": 1,
                "ticks": 0,
                "event": {
                    "deltaTime": 0,
                    "type": "channel",
                    "subtype": "noteOn",
                    "channel": 4,
                    "noteNumber": 79,
                    "velocity": 111,
                    "lightChannels": [
                        4
                    ]
                }
            }
        }
    },
    {
        "changes": {
            "col-2": 0,
            "garden": 1,
            "tree": 1
        },
        "timeout": 0.1578945,
        "raw": {
            "col-2": {
                "pinValue": 0,
                "ticks": 240,
                "event": {
                    "deltaTime": 240,
                    "type": "channel",
                    "subtype": "noteOff",
                    "channel": 4,
                    "noteNumber": 79,
                    "velocity": 0,
                    "lightChannels": [
                        4
                    ]
                }
            },
            "garden": {
                "pinValue": 1,
                "ticks": 0,
                "event": {
                    "deltaTime": 0,
                    "type": "channel",
                    "subtype": "noteOn",
                    "channel": 4,
                    "noteNumber": 76,
                    "velocity": 111,
                    "lightChannels": [
                        8,
                        9
                    ]
                }
            },
            "tree": {
                "pinValue": 1,
                "ticks": 0,
                "event": {
                    "deltaTime": 0,
                    "type": "channel",
                    "subtype": "noteOn",
                    "channel": 4,
                    "noteNumber": 76,
                    "velocity": 111,
                    "lightChannels": [
                        8,
                        9
                    ]
                }
            }
        }
    },
    {
        "changes": {
            "garden": 0,
            "tree": 0,
            "garage": 1,
            "top-right": 1,
            "bottom-right": 1,
            "window": 1,
            "outline": 1,
            "col-1": 1
        },
        "timeout": 0.315789,
        "raw": {
            "garden": {
                "pinValue": 0,
                "ticks": 480,
                "event": {
                    "deltaTime": 480,
                    "type": "channel",
                    "subtype": "noteOff",
                    "channel": 4,
                    "noteNumber": 76,
                    "velocity": 0,
                    "lightChannels": [
                        8,
                        9
                    ]
                }
            },
            "tree": {
                "pinValue": 0,
                "ticks": 480,
                "event": {
                    "deltaTime": 480,
                    "type": "channel",
                    "subtype": "noteOff",
                    "channel": 4,
                    "noteNumber": 76,
                    "velocity": 0,
                    "lightChannels": [
                        8,
                        9
                    ]
                }
            },
            "garage": {
                "pinValue": 1,
                "ticks": 0,
                "event": {
                    "deltaTime": 0,
                    "type": "channel",
                    "subtype": "noteOn",
                    "channel": 4,
                    "noteNumber": 86,
                    "velocity": 111,
                    "lightChannels": [
                        0,
                        1,
                        2,
                        6,
                        7
                    ]
                }
            },
            "top-right": {
                "pinValue": 1,
                "ticks": 0,
                "event": {
                    "deltaTime": 0,
                    "type": "channel",
                    "subtype": "noteOn",
                    "channel": 4,
                    "noteNumber": 86,
                    "velocity": 111,
                    "lightChannels": [
                        0,
                        1,
                        2,
                        6,
                        7
                    ]
                }
            },
            "bottom-right": {
                "pinValue": 1,
                "ticks": 0,
                "event": {
                    "deltaTime": 0,
                    "type": "channel",
                    "subtype": "noteOn",
                    "channel": 4,
                    "noteNumber": 86,
                    "velocity": 111,
                    "lightChannels": [
                        0,
                        1,
                        2,
                        6,
                        7
                    ]
                }
            },
            "window": {
                "pinValue": 1,
                "ticks": 0,
                "event": {
                    "deltaTime": 0,
                    "type": "channel",
                    "subtype": "noteOn",
                    "channel": 4,
                    "noteNumber": 86,
                    "velocity": 111,
                    "lightChannels": [
                        0,
                        1,
                        2,
                        6,
                        7
                    ]
                }
            },
            "outline": {
                "pinValue": 1,
                "ticks": 0,
                "event": {
                    "deltaTime": 0,
                    "type": "channel",
                    "subtype": "noteOn",
                    "channel": 4,
                    "noteNumber": 86,
                    "velocity": 111,
                    "lightChannels": [
                        0,
                        1,
                        2,
                        6,
                        7
                    ]
                }
            },
            "col-1": {
                "pinValue": 1,
                "ticks": 0,
                "event": {
                    "deltaTime": 0,
                    "type": "channel",
                    "subtype": "noteOn",
                    "channel": 4,
                    "noteNumber": 79,
                    "velocity": 111,
                    "lightChannels": [
                        3
                    ]
                }
            }
        }
    },
    {
        "changes": {
            "garage": 0,
            "top-right": 0,
            "bottom-right": 0,
            "window": 0,
            "outline": 0,
            "col-1": 0,
            "col-3": 1
        },
        "timeout": 0.315789,
        "raw": {
            "garage": {
                "pinValue": 0,
                "ticks": 480,
                "event": {
                    "deltaTime": 480,
                    "type": "channel",
                    "subtype": "noteOff",
                    "channel": 4,
                    "noteNumber": 86,
                    "velocity": 0,
                    "lightChannels": [
                        0,
                        1,
                        2,
                        6,
                        7
                    ]
                }
            },
            "top-right": {
                "pinValue": 0,
                "ticks": 480,
                "event": {
                    "deltaTime": 480,
                    "type": "channel",
                    "subtype": "noteOff",
                    "channel": 4,
                    "noteNumber": 86,
                    "velocity": 0,
                    "lightChannels": [
                        0,
                        1,
                        2,
                        6,
                        7
                    ]
                }
            },
            "bottom-right": {
                "pinValue": 0,
                "ticks": 480,
                "event": {
                    "deltaTime": 480,
                    "type": "channel",
                    "subtype": "noteOff",
                    "channel": 4,
                    "noteNumber": 86,
                    "velocity": 0,
                    "lightChannels": [
                        0,
                        1,
                        2,
                        6,
                        7
                    ]
                }
            },
            "window": {
                "pinValue": 0,
                "ticks": 480,
                "event": {
                    "deltaTime": 480,
                    "type": "channel",
                    "subtype": "noteOff",
                    "channel": 4,
                    "noteNumber": 86,
                    "velocity": 0,
                    "lightChannels": [
                        0,
                        1,
                        2,
                        6,
                        7
                    ]
                }
            },
            "outline": {
                "pinValue": 0,
                "ticks": 480,
                "event": {
                    "deltaTime": 480,
                    "type": "channel",
                    "subtype": "noteOff",
                    "channel": 4,
                    "noteNumber": 86,
                    "velocity": 0,
                    "lightChannels": [
                        0,
                        1,
                        2,
                        6,
                        7
                    ]
                }
            },
            "col-1": {
                "pinValue": 0,
                "ticks": 0,
                "event": {
                    "deltaTime": 0,
                    "type": "channel",
                    "subtype": "noteOff",
                    "channel": 4,
                    "noteNumber": 79,
                    "velocity": 0,
                    "lightChannels": [
                        3
                    ]
                }
            },
            "col-3": {
                "pinValue": 1,
                "ticks": 0,
                "event": {
                    "deltaTime": 0,
                    "type": "channel",
                    "subtype": "noteOn",
                    "channel": 4,
                    "noteNumber": 78,
                    "velocity": 111,
                    "lightChannels": [
                        5
                    ]
                }
            }
        }
    },
    {
        "changes": {
            "col-3": 0,
            "col-2": 1
        },
        "timeout": 0.1578945,
        "raw": {
            "col-3": {
                "pinValue": 0,
                "ticks": 240,
                "event": {
                    "deltaTime": 240,
                    "type": "channel",
                    "subtype": "noteOff",
                    "channel": 4,
                    "noteNumber": 78,
                    "velocity": 0,
                    "lightChannels": [
                        5
                    ]
                }
            },
            "col-2": {
                "pinValue": 1,
                "ticks": 0,
                "event": {
                    "deltaTime": 0,
                    "type": "channel",
                    "subtype": "noteOn",
                    "channel": 4,
                    "noteNumber": 79,
                    "velocity": 111,
                    "lightChannels": [
                        4
                    ]
                }
            }
        }
    },
    {
        "changes": {
            "col-2": 0,
            "garden": 1,
            "tree": 1
        },
        "timeout": 0.1578945,
        "raw": {
            "col-2": {
                "pinValue": 0,
                "ticks": 240,
                "event": {
                    "deltaTime": 240,
                    "type": "channel",
                    "subtype": "noteOff",
                    "channel": 4,
                    "noteNumber": 79,
                    "velocity": 0,
                    "lightChannels": [
                        4
                    ]
                }
            },
            "garden": {
                "pinValue": 1,
                "ticks": 0,
                "event": {
                    "deltaTime": 0,
                    "type": "channel",
                    "subtype": "noteOn",
                    "channel": 4,
                    "noteNumber": 76,
                    "velocity": 111,
                    "lightChannels": [
                        8,
                        9
                    ]
                }
            },
            "tree": {
                "pinValue": 1,
                "ticks": 0,
                "event": {
                    "deltaTime": 0,
                    "type": "channel",
                    "subtype": "noteOn",
                    "channel": 4,
                    "noteNumber": 76,
                    "velocity": 111,
                    "lightChannels": [
                        8,
                        9
                    ]
                }
            }
        }
    },
    {
        "changes": {
            "garden": 0,
            "tree": 0,
            "garage": 1,
            "top-right": 1,
            "bottom-right": 1,
            "window": 1,
            "outline": 1,
            "col-1": 1
        },
        "timeout": 0.315789,
        "raw": {
            "garden": {
                "pinValue": 0,
                "ticks": 480,
                "event": {
                    "deltaTime": 480,
                    "type": "channel",
                    "subtype": "noteOff",
                    "channel": 4,
                    "noteNumber": 76,
                    "velocity": 0,
                    "lightChannels": [
                        8,
                        9
                    ]
                }
            },
            "tree": {
                "pinValue": 0,
                "ticks": 480,
                "event": {
                    "deltaTime": 480,
                    "type": "channel",
                    "subtype": "noteOff",
                    "channel": 4,
                    "noteNumber": 76,
                    "velocity": 0,
                    "lightChannels": [
                        8,
                        9
                    ]
                }
            },
            "garage": {
                "pinValue": 1,
                "ticks": 0,
                "event": {
                    "deltaTime": 0,
                    "type": "channel",
                    "subtype": "noteOn",
                    "channel": 4,
                    "noteNumber": 86,
                    "velocity": 111,
                    "lightChannels": [
                        0,
                        1,
                        2,
                        6,
                        7
                    ]
                }
            },
            "top-right": {
                "pinValue": 1,
                "ticks": 0,
                "event": {
                    "deltaTime": 0,
                    "type": "channel",
                    "subtype": "noteOn",
                    "channel": 4,
                    "noteNumber": 86,
                    "velocity": 111,
                    "lightChannels": [
                        0,
                        1,
                        2,
                        6,
                        7
                    ]
                }
            },
            "bottom-right": {
                "pinValue": 1,
                "ticks": 0,
                "event": {
                    "deltaTime": 0,
                    "type": "channel",
                    "subtype": "noteOn",
                    "channel": 4,
                    "noteNumber": 86,
                    "velocity": 111,
                    "lightChannels": [
                        0,
                        1,
                        2,
                        6,
                        7
                    ]
                }
            },
            "window": {
                "pinValue": 1,
                "ticks": 0,
                "event": {
                    "deltaTime": 0,
                    "type": "channel",
                    "subtype": "noteOn",
                    "channel": 4,
                    "noteNumber": 86,
                    "velocity": 111,
                    "lightChannels": [
                        0,
                        1,
                        2,
                        6,
                        7
                    ]
                }
            },
            "outline": {
                "pinValue": 1,
                "ticks": 0,
                "event": {
                    "deltaTime": 0,
                    "type": "channel",
                    "subtype": "noteOn",
                    "channel": 4,
                    "noteNumber": 86,
                    "velocity": 111,
                    "lightChannels": [
                        0,
                        1,
                        2,
                        6,
                        7
                    ]
                }
            },
            "col-1": {
                "pinValue": 1,
                "ticks": 0,
                "event": {
                    "deltaTime": 0,
                    "type": "channel",
                    "subtype": "noteOn",
                    "channel": 4,
                    "noteNumber": 79,
                    "velocity": 111,
                    "lightChannels": [
                        3
                    ]
                }
            }
        }
    },
    {
        "changes": {
            "garage": 0,
            "top-right": 0,
            "bottom-right": 0,
            "window": 0,
            "outline": 0,
            "col-1": 0,
            "col-3": 1
        },
        "timeout": 0.315789,
        "raw": {
            "garage": {
                "pinValue": 0,
                "ticks": 480,
                "event": {
                    "deltaTime": 480,
                    "type": "channel",
                    "subtype": "noteOff",
                    "channel": 4,
                    "noteNumber": 86,
                    "velocity": 0,
                    "lightChannels": [
                        0,
                        1,
                        2,
                        6,
                        7
                    ]
                }
            },
            "top-right": {
                "pinValue": 0,
                "ticks": 480,
                "event": {
                    "deltaTime": 480,
                    "type": "channel",
                    "subtype": "noteOff",
                    "channel": 4,
                    "noteNumber": 86,
                    "velocity": 0,
                    "lightChannels": [
                        0,
                        1,
                        2,
                        6,
                        7
                    ]
                }
            },
            "bottom-right": {
                "pinValue": 0,
                "ticks": 480,
                "event": {
                    "deltaTime": 480,
                    "type": "channel",
                    "subtype": "noteOff",
                    "channel": 4,
                    "noteNumber": 86,
                    "velocity": 0,
                    "lightChannels": [
                        0,
                        1,
                        2,
                        6,
                        7
                    ]
                }
            },
            "window": {
                "pinValue": 0,
                "ticks": 480,
                "event": {
                    "deltaTime": 480,
                    "type": "channel",
                    "subtype": "noteOff",
                    "channel": 4,
                    "noteNumber": 86,
                    "velocity": 0,
                    "lightChannels": [
                        0,
                        1,
                        2,
                        6,
                        7
                    ]
                }
            },
            "outline": {
                "pinValue": 0,
                "ticks": 480,
                "event": {
                    "deltaTime": 480,
                    "type": "channel",
                    "subtype": "noteOff",
                    "channel": 4,
                    "noteNumber": 86,
                    "velocity": 0,
                    "lightChannels": [
                        0,
                        1,
                        2,
                        6,
                        7
                    ]
                }
            },
            "col-1": {
                "pinValue": 0,
                "ticks": 0,
                "event": {
                    "deltaTime": 0,
                    "type": "channel",
                    "subtype": "noteOff",
                    "channel": 4,
                    "noteNumber": 79,
                    "velocity": 0,
                    "lightChannels": [
                        3
                    ]
                }
            },
            "col-3": {
                "pinValue": 1,
                "ticks": 0,
                "event": {
                    "deltaTime": 0,
                    "type": "channel",
                    "subtype": "noteOn",
                    "channel": 4,
                    "noteNumber": 78,
                    "velocity": 111,
                    "lightChannels": [
                        5
                    ]
                }
            }
        }
    },
    {
        "changes": {
            "col-3": 0,
            "col-2": 1
        },
        "timeout": 0.1578945,
        "raw": {
            "col-3": {
                "pinValue": 0,
                "ticks": 240,
                "event": {
                    "deltaTime": 240,
                    "type": "channel",
                    "subtype": "noteOff",
                    "channel": 4,
                    "noteNumber": 78,
                    "velocity": 0,
                    "lightChannels": [
                        5
                    ]
                }
            },
            "col-2": {
                "pinValue": 1,
                "ticks": 0,
                "event": {
                    "deltaTime": 0,
                    "type": "channel",
                    "subtype": "noteOn",
                    "channel": 4,
                    "noteNumber": 79,
                    "velocity": 111,
                    "lightChannels": [
                        4
                    ]
                }
            }
        }
    },
    {
        "changes": {
            "col-2": 0,
            "garden": 1,
            "tree": 1
        },
        "timeout": 0.1578945,
        "raw": {
            "col-2": {
                "pinValue": 0,
                "ticks": 240,
                "event": {
                    "deltaTime": 240,
                    "type": "channel",
                    "subtype": "noteOff",
                    "channel": 4,
                    "noteNumber": 79,
                    "velocity": 0,
                    "lightChannels": [
                        4
                    ]
                }
            },
            "garden": {
                "pinValue": 1,
                "ticks": 0,
                "event": {
                    "deltaTime": 0,
                    "type": "channel",
                    "subtype": "noteOn",
                    "channel": 4,
                    "noteNumber": 76,
                    "velocity": 111,
                    "lightChannels": [
                        8,
                        9
                    ]
                }
            },
            "tree": {
                "pinValue": 1,
                "ticks": 0,
                "event": {
                    "deltaTime": 0,
                    "type": "channel",
                    "subtype": "noteOn",
                    "channel": 4,
                    "noteNumber": 76,
                    "velocity": 111,
                    "lightChannels": [
                        8,
                        9
                    ]
                }
            }
        }
    },
    {
        "changes": {
            "garden": 0,
            "tree": 0,
            "col-1": 1
        },
        "timeout": 0.315789,
        "raw": {
            "garden": {
                "pinValue": 0,
                "ticks": 480,
                "event": {
                    "deltaTime": 480,
                    "type": "channel",
                    "subtype": "noteOff",
                    "channel": 4,
                    "noteNumber": 76,
                    "velocity": 0,
                    "lightChannels": [
                        8,
                        9
                    ]
                }
            },
            "tree": {
                "pinValue": 0,
                "ticks": 480,
                "event": {
                    "deltaTime": 480,
                    "type": "channel",
                    "subtype": "noteOff",
                    "channel": 4,
                    "noteNumber": 76,
                    "velocity": 0,
                    "lightChannels": [
                        8,
                        9
                    ]
                }
            },
            "col-1": {
                "pinValue": 1,
                "ticks": 0,
                "event": {
                    "deltaTime": 0,
                    "type": "channel",
                    "subtype": "noteOn",
                    "channel": 4,
                    "noteNumber": 79,
                    "velocity": 111,
                    "lightChannels": [
                        3
                    ]
                }
            }
        }
    },
    {
        "changes": {
            "col-1": 0,
            "col-2": 1
        },
        "timeout": 0.07894725,
        "raw": {
            "col-1": {
                "pinValue": 0,
                "ticks": 120,
                "event": {
                    "deltaTime": 120,
                    "type": "channel",
                    "subtype": "noteOff",
                    "channel": 4,
                    "noteNumber": 79,
                    "velocity": 0,
                    "lightChannels": [
                        3
                    ]
                }
            },
            "col-2": {
                "pinValue": 1,
                "ticks": 0,
                "event": {
                    "deltaTime": 0,
                    "type": "channel",
                    "subtype": "noteOn",
                    "channel": 4,
                    "noteNumber": 78,
                    "velocity": 111,
                    "lightChannels": [
                        4
                    ]
                }
            }
        }
    },
    {
        "changes": {
            "col-2": 0
        },
        "timeout": 0.07894725,
        "raw": {
            "col-2": {
                "pinValue": 0,
                "ticks": 120,
                "event": {
                    "deltaTime": 120,
                    "type": "channel",
                    "subtype": "noteOff",
                    "channel": 4,
                    "noteNumber": 78,
                    "velocity": 0,
                    "lightChannels": [
                        4
                    ]
                }
            }
        }
    },
    {
        "changes": {
            "col-3": 1
        },
        "timeout": 0.07894725,
        "raw": {
            "col-3": {
                "pinValue": 1,
                "ticks": 120,
                "event": {
                    "deltaTime": 120,
                    "type": "channel",
                    "subtype": "noteOn",
                    "channel": 4,
                    "noteNumber": 76,
                    "velocity": 111,
                    "lightChannels": [
                        5
                    ]
                }
            }
        }
    },
    {
        "changes": {
            "col-3": 0,
            "garden": 1
        },
        "timeout": 0.07894725,
        "raw": {
            "col-3": {
                "pinValue": 0,
                "ticks": 120,
                "event": {
                    "deltaTime": 120,
                    "type": "channel",
                    "subtype": "noteOff",
                    "channel": 4,
                    "noteNumber": 76,
                    "velocity": 0,
                    "lightChannels": [
                        5
                    ]
                }
            },
            "garden": {
                "pinValue": 1,
                "ticks": 0,
                "event": {
                    "deltaTime": 0,
                    "type": "channel",
                    "subtype": "noteOn",
                    "channel": 4,
                    "noteNumber": 74,
                    "velocity": 111,
                    "lightChannels": [
                        8
                    ]
                }
            }
        }
    },
    {
        "changes": {
            "garden": 0,
            "tree": 1
        },
        "timeout": 0.07894725,
        "raw": {
            "garden": {
                "pinValue": 0,
                "ticks": 120,
                "event": {
                    "deltaTime": 120,
                    "type": "channel",
                    "subtype": "noteOff",
                    "channel": 4,
                    "noteNumber": 74,
                    "velocity": 0,
                    "lightChannels": [
                        8
                    ]
                }
            },
            "tree": {
                "pinValue": 1,
                "ticks": 0,
                "event": {
                    "deltaTime": 0,
                    "type": "channel",
                    "subtype": "noteOn",
                    "channel": 4,
                    "noteNumber": 72,
                    "velocity": 111,
                    "lightChannels": [
                        9
                    ]
                }
            }
        }
    },
    {
        "changes": {
            "tree": 0
        },
        "timeout": 0.07894725,
        "raw": {
            "tree": {
                "pinValue": 0,
                "ticks": 120,
                "event": {
                    "deltaTime": 120,
                    "type": "channel",
                    "subtype": "noteOff",
                    "channel": 4,
                    "noteNumber": 72,
                    "velocity": 0,
                    "lightChannels": [
                        9
                    ]
                }
            }
        }
    },
    {
        "changes": {
            "garden": 1
        },
        "timeout": 0.07894725,
        "raw": {
            "garden": {
                "pinValue": 1,
                "ticks": 120,
                "event": {
                    "deltaTime": 120,
                    "type": "channel",
                    "subtype": "noteOn",
                    "channel": 4,
                    "noteNumber": 71,
                    "velocity": 111,
                    "lightChannels": [
                        8
                    ]
                }
            }
        }
    },
    {
        "changes": {
            "garden": 0,
            "col-3": 1
        },
        "timeout": 0.07894725,
        "raw": {
            "garden": {
                "pinValue": 0,
                "ticks": 120,
                "event": {
                    "deltaTime": 120,
                    "type": "channel",
                    "subtype": "noteOff",
                    "channel": 4,
                    "noteNumber": 71,
                    "velocity": 0,
                    "lightChannels": [
                        8
                    ]
                }
            },
            "col-3": {
                "pinValue": 1,
                "ticks": 0,
                "event": {
                    "deltaTime": 0,
                    "type": "channel",
                    "subtype": "noteOn",
                    "channel": 4,
                    "noteNumber": 69,
                    "velocity": 111,
                    "lightChannels": [
                        5
                    ]
                }
            }
        }
    },
    {
        "changes": {
            "col-3": 0,
            "col-2": 1
        },
        "timeout": 0.07894725,
        "raw": {
            "col-3": {
                "pinValue": 0,
                "ticks": 120,
                "event": {
                    "deltaTime": 120,
                    "type": "channel",
                    "subtype": "noteOff",
                    "channel": 4,
                    "noteNumber": 69,
                    "velocity": 0,
                    "lightChannels": [
                        5
                    ]
                }
            },
            "col-2": {
                "pinValue": 1,
                "ticks": 0,
                "event": {
                    "deltaTime": 0,
                    "type": "channel",
                    "subtype": "noteOn",
                    "channel": 4,
                    "noteNumber": 67,
                    "velocity": 111,
                    "lightChannels": [
                        4
                    ]
                }
            }
        }
    },
    {
        "changes": {
            "col-2": 0
        },
        "timeout": 0.07894725,
        "raw": {
            "col-2": {
                "pinValue": 0,
                "ticks": 120,
                "event": {
                    "deltaTime": 120,
                    "type": "channel",
                    "subtype": "noteOff",
                    "channel": 4,
                    "noteNumber": 67,
                    "velocity": 0,
                    "lightChannels": [
                        4
                    ]
                }
            }
        }
    },
    {
        "changes": {
            "col-1": 1
        },
        "timeout": 0.07894725,
        "raw": {
            "col-1": {
                "pinValue": 1,
                "ticks": 120,
                "event": {
                    "deltaTime": 120,
                    "type": "channel",
                    "subtype": "noteOn",
                    "channel": 4,
                    "noteNumber": 66,
                    "velocity": 111,
                    "lightChannels": [
                        3
                    ]
                }
            }
        }
    },
    {
        "changes": {
            "col-1": 0,
            "col-2": 1
        },
        "timeout": 0.07894725,
        "raw": {
            "col-1": {
                "pinValue": 0,
                "ticks": 120,
                "event": {
                    "deltaTime": 120,
                    "type": "channel",
                    "subtype": "noteOff",
                    "channel": 4,
                    "noteNumber": 66,
                    "velocity": 0,
                    "lightChannels": [
                        3
                    ]
                }
            },
            "col-2": {
                "pinValue": 1,
                "ticks": 0,
                "event": {
                    "deltaTime": 0,
                    "type": "channel",
                    "subtype": "noteOn",
                    "channel": 4,
                    "noteNumber": 60,
                    "velocity": 111,
                    "lightChannels": [
                        4
                    ]
                }
            }
        }
    },
    {
        "changes": {
            "col-2": 0,
            "col-3": 1
        },
        "timeout": 0.07894725,
        "raw": {
            "col-2": {
                "pinValue": 0,
                "ticks": 120,
                "event": {
                    "deltaTime": 120,
                    "type": "channel",
                    "subtype": "noteOff",
                    "channel": 4,
                    "noteNumber": 60,
                    "velocity": 0,
                    "lightChannels": [
                        4
                    ]
                }
            },
            "col-3": {
                "pinValue": 1,
                "ticks": 0,
                "event": {
                    "deltaTime": 0,
                    "type": "channel",
                    "subtype": "noteOn",
                    "channel": 4,
                    "noteNumber": 62,
                    "velocity": 111,
                    "lightChannels": [
                        5
                    ]
                }
            }
        }
    },
    {
        "changes": {
            "col-3": 0
        },
        "timeout": 0.07894725,
        "raw": {
            "col-3": {
                "pinValue": 0,
                "ticks": 120,
                "event": {
                    "deltaTime": 120,
                    "type": "channel",
                    "subtype": "noteOff",
                    "channel": 4,
                    "noteNumber": 62,
                    "velocity": 0,
                    "lightChannels": [
                        5
                    ]
                }
            }
        }
    },
    {
        "changes": {
            "garden": 1
        },
        "timeout": 0.07894725,
        "raw": {
            "garden": {
                "pinValue": 1,
                "ticks": 120,
                "event": {
                    "deltaTime": 120,
                    "type": "channel",
                    "subtype": "noteOn",
                    "channel": 4,
                    "noteNumber": 64,
                    "velocity": 111,
                    "lightChannels": [
                        8
                    ]
                }
            }
        }
    },
    {
        "changes": {
            "garden": 0,
            "col-1": 1
        },
        "timeout": 0.07894725,
        "raw": {
            "garden": {
                "pinValue": 0,
                "ticks": 120,
                "event": {
                    "deltaTime": 120,
                    "type": "channel",
                    "subtype": "noteOff",
                    "channel": 4,
                    "noteNumber": 64,
                    "velocity": 0,
                    "lightChannels": [
                        8
                    ]
                }
            },
            "col-1": {
                "pinValue": 1,
                "ticks": 0,
                "event": {
                    "deltaTime": 0,
                    "type": "channel",
                    "subtype": "noteOn",
                    "channel": 4,
                    "noteNumber": 66,
                    "velocity": 111,
                    "lightChannels": [
                        3
                    ]
                }
            }
        }
    },
    {
        "changes": {
            "col-1": 0,
            "col-2": 1
        },
        "timeout": 0.07894725,
        "raw": {
            "col-1": {
                "pinValue": 0,
                "ticks": 120,
                "event": {
                    "deltaTime": 120,
                    "type": "channel",
                    "subtype": "noteOff",
                    "channel": 4,
                    "noteNumber": 66,
                    "velocity": 0,
                    "lightChannels": [
                        3
                    ]
                }
            },
            "col-2": {
                "pinValue": 1,
                "ticks": 0,
                "event": {
                    "deltaTime": 0,
                    "type": "channel",
                    "subtype": "noteOn",
                    "channel": 4,
                    "noteNumber": 67,
                    "velocity": 111,
                    "lightChannels": [
                        4
                    ]
                }
            }
        }
    },
    {
        "changes": {
            "col-2": 0
        },
        "timeout": 0.07894725,
        "raw": {
            "col-2": {
                "pinValue": 0,
                "ticks": 120,
                "event": {
                    "deltaTime": 120,
                    "type": "channel",
                    "subtype": "noteOff",
                    "channel": 4,
                    "noteNumber": 67,
                    "velocity": 0,
                    "lightChannels": [
                        4
                    ]
                }
            }
        }
    },
    {
        "changes": {
            "col-3": 1
        },
        "timeout": 0.07894725,
        "raw": {
            "col-3": {
                "pinValue": 1,
                "ticks": 120,
                "event": {
                    "deltaTime": 120,
                    "type": "channel",
                    "subtype": "noteOn",
                    "channel": 4,
                    "noteNumber": 69,
                    "velocity": 111,
                    "lightChannels": [
                        5
                    ]
                }
            }
        }
    },
    {
        "changes": {
            "col-3": 0,
            "garden": 1
        },
        "timeout": 0.07894725,
        "raw": {
            "col-3": {
                "pinValue": 0,
                "ticks": 120,
                "event": {
                    "deltaTime": 120,
                    "type": "channel",
                    "subtype": "noteOff",
                    "channel": 4,
                    "noteNumber": 69,
                    "velocity": 0,
                    "lightChannels": [
                        5
                    ]
                }
            },
            "garden": {
                "pinValue": 1,
                "ticks": 0,
                "event": {
                    "deltaTime": 0,
                    "type": "channel",
                    "subtype": "noteOn",
                    "channel": 4,
                    "noteNumber": 71,
                    "velocity": 111,
                    "lightChannels": [
                        8
                    ]
                }
            }
        }
    },
    {
        "changes": {
            "garden": 0,
            "tree": 1
        },
        "timeout": 0.07894725,
        "raw": {
            "garden": {
                "pinValue": 0,
                "ticks": 120,
                "event": {
                    "deltaTime": 120,
                    "type": "channel",
                    "subtype": "noteOff",
                    "channel": 4,
                    "noteNumber": 71,
                    "velocity": 0,
                    "lightChannels": [
                        8
                    ]
                }
            },
            "tree": {
                "pinValue": 1,
                "ticks": 0,
                "event": {
                    "deltaTime": 0,
                    "type": "channel",
                    "subtype": "noteOn",
                    "channel": 4,
                    "noteNumber": 72,
                    "velocity": 111,
                    "lightChannels": [
                        9
                    ]
                }
            }
        }
    },
    {
        "changes": {
            "tree": 0
        },
        "timeout": 0.07894725,
        "raw": {
            "tree": {
                "pinValue": 0,
                "ticks": 120,
                "event": {
                    "deltaTime": 120,
                    "type": "channel",
                    "subtype": "noteOff",
                    "channel": 4,
                    "noteNumber": 72,
                    "velocity": 0,
                    "lightChannels": [
                        9
                    ]
                }
            }
        }
    },
    {
        "changes": {
            "garden": 1
        },
        "timeout": 0.07894725,
        "raw": {
            "garden": {
                "pinValue": 1,
                "ticks": 120,
                "event": {
                    "deltaTime": 120,
                    "type": "channel",
                    "subtype": "noteOn",
                    "channel": 4,
                    "noteNumber": 74,
                    "velocity": 111,
                    "lightChannels": [
                        8
                    ]
                }
            }
        }
    },
    {
        "changes": {
            "garden": 0,
            "col-1": 1
        },
        "timeout": 0.07894725,
        "raw": {
            "garden": {
                "pinValue": 0,
                "ticks": 120,
                "event": {
                    "deltaTime": 120,
                    "type": "channel",
                    "subtype": "noteOff",
                    "channel": 4,
                    "noteNumber": 74,
                    "velocity": 0,
                    "lightChannels": [
                        8
                    ]
                }
            },
            "col-1": {
                "pinValue": 1,
                "ticks": 0,
                "event": {
                    "deltaTime": 0,
                    "type": "channel",
                    "subtype": "noteOn",
                    "channel": 4,
                    "noteNumber": 79,
                    "velocity": 111,
                    "lightChannels": [
                        3
                    ]
                }
            }
        }
    },
    {
        "changes": {
            "col-1": 0,
            "col-2": 1
        },
        "timeout": 0.07894725,
        "raw": {
            "col-1": {
                "pinValue": 0,
                "ticks": 120,
                "event": {
                    "deltaTime": 120,
                    "type": "channel",
                    "subtype": "noteOff",
                    "channel": 4,
                    "noteNumber": 79,
                    "velocity": 0,
                    "lightChannels": [
                        3
                    ]
                }
            },
            "col-2": {
                "pinValue": 1,
                "ticks": 0,
                "event": {
                    "deltaTime": 0,
                    "type": "channel",
                    "subtype": "noteOn",
                    "channel": 4,
                    "noteNumber": 78,
                    "velocity": 111,
                    "lightChannels": [
                        4
                    ]
                }
            }
        }
    },
    {
        "changes": {
            "col-2": 0
        },
        "timeout": 0.07894725,
        "raw": {
            "col-2": {
                "pinValue": 0,
                "ticks": 120,
                "event": {
                    "deltaTime": 120,
                    "type": "channel",
                    "subtype": "noteOff",
                    "channel": 4,
                    "noteNumber": 78,
                    "velocity": 0,
                    "lightChannels": [
                        4
                    ]
                }
            }
        }
    },
    {
        "changes": {
            "col-3": 1
        },
        "timeout": 0.07894725,
        "raw": {
            "col-3": {
                "pinValue": 1,
                "ticks": 120,
                "event": {
                    "deltaTime": 120,
                    "type": "channel",
                    "subtype": "noteOn",
                    "channel": 4,
                    "noteNumber": 76,
                    "velocity": 111,
                    "lightChannels": [
                        5
                    ]
                }
            }
        }
    },
    {
        "changes": {
            "col-3": 0,
            "garden": 1
        },
        "timeout": 0.07894725,
        "raw": {
            "col-3": {
                "pinValue": 0,
                "ticks": 120,
                "event": {
                    "deltaTime": 120,
                    "type": "channel",
                    "subtype": "noteOff",
                    "channel": 4,
                    "noteNumber": 76,
                    "velocity": 0,
                    "lightChannels": [
                        5
                    ]
                }
            },
            "garden": {
                "pinValue": 1,
                "ticks": 0,
                "event": {
                    "deltaTime": 0,
                    "type": "channel",
                    "subtype": "noteOn",
                    "channel": 4,
                    "noteNumber": 74,
                    "velocity": 111,
                    "lightChannels": [
                        8
                    ]
                }
            }
        }
    },
    {
        "changes": {
            "garden": 0,
            "tree": 1
        },
        "timeout": 0.07894725,
        "raw": {
            "garden": {
                "pinValue": 0,
                "ticks": 120,
                "event": {
                    "deltaTime": 120,
                    "type": "channel",
                    "subtype": "noteOff",
                    "channel": 4,
                    "noteNumber": 74,
                    "velocity": 0,
                    "lightChannels": [
                        8
                    ]
                }
            },
            "tree": {
                "pinValue": 1,
                "ticks": 0,
                "event": {
                    "deltaTime": 0,
                    "type": "channel",
                    "subtype": "noteOn",
                    "channel": 4,
                    "noteNumber": 72,
                    "velocity": 111,
                    "lightChannels": [
                        9
                    ]
                }
            }
        }
    },
    {
        "changes": {
            "tree": 0
        },
        "timeout": 0.07894725,
        "raw": {
            "tree": {
                "pinValue": 0,
                "ticks": 120,
                "event": {
                    "deltaTime": 120,
                    "type": "channel",
                    "subtype": "noteOff",
                    "channel": 4,
                    "noteNumber": 72,
                    "velocity": 0,
                    "lightChannels": [
                        9
                    ]
                }
            }
        }
    },
    {
        "changes": {
            "garden": 1
        },
        "timeout": 0.07894725,
        "raw": {
            "garden": {
                "pinValue": 1,
                "ticks": 120,
                "event": {
                    "deltaTime": 120,
                    "type": "channel",
                    "subtype": "noteOn",
                    "channel": 4,
                    "noteNumber": 71,
                    "velocity": 111,
                    "lightChannels": [
                        8
                    ]
                }
            }
        }
    },
    {
        "changes": {
            "garden": 0,
            "col-3": 1
        },
        "timeout": 0.07894725,
        "raw": {
            "garden": {
                "pinValue": 0,
                "ticks": 120,
                "event": {
                    "deltaTime": 120,
                    "type": "channel",
                    "subtype": "noteOff",
                    "channel": 4,
                    "noteNumber": 71,
                    "velocity": 0,
                    "lightChannels": [
                        8
                    ]
                }
            },
            "col-3": {
                "pinValue": 1,
                "ticks": 0,
                "event": {
                    "deltaTime": 0,
                    "type": "channel",
                    "subtype": "noteOn",
                    "channel": 4,
                    "noteNumber": 69,
                    "velocity": 111,
                    "lightChannels": [
                        5
                    ]
                }
            }
        }
    },
    {
        "changes": {
            "col-3": 0,
            "col-2": 1
        },
        "timeout": 0.07894725,
        "raw": {
            "col-3": {
                "pinValue": 0,
                "ticks": 120,
                "event": {
                    "deltaTime": 120,
                    "type": "channel",
                    "subtype": "noteOff",
                    "channel": 4,
                    "noteNumber": 69,
                    "velocity": 0,
                    "lightChannels": [
                        5
                    ]
                }
            },
            "col-2": {
                "pinValue": 1,
                "ticks": 0,
                "event": {
                    "deltaTime": 0,
                    "type": "channel",
                    "subtype": "noteOn",
                    "channel": 4,
                    "noteNumber": 67,
                    "velocity": 111,
                    "lightChannels": [
                        4
                    ]
                }
            }
        }
    },
    {
        "changes": {
            "col-2": 0
        },
        "timeout": 0.07894725,
        "raw": {
            "col-2": {
                "pinValue": 0,
                "ticks": 120,
                "event": {
                    "deltaTime": 120,
                    "type": "channel",
                    "subtype": "noteOff",
                    "channel": 4,
                    "noteNumber": 67,
                    "velocity": 0,
                    "lightChannels": [
                        4
                    ]
                }
            }
        }
    },
    {
        "changes": {
            "col-1": 1
        },
        "timeout": 0.07894725,
        "raw": {
            "col-1": {
                "pinValue": 1,
                "ticks": 120,
                "event": {
                    "deltaTime": 120,
                    "type": "channel",
                    "subtype": "noteOn",
                    "channel": 4,
                    "noteNumber": 66,
                    "velocity": 111,
                    "lightChannels": [
                        3
                    ]
                }
            }
        }
    },
    {
        "changes": {
            "col-1": 0,
            "col-2": 1
        },
        "timeout": 0.07894725,
        "raw": {
            "col-1": {
                "pinValue": 0,
                "ticks": 120,
                "event": {
                    "deltaTime": 120,
                    "type": "channel",
                    "subtype": "noteOff",
                    "channel": 4,
                    "noteNumber": 66,
                    "velocity": 0,
                    "lightChannels": [
                        3
                    ]
                }
            },
            "col-2": {
                "pinValue": 1,
                "ticks": 0,
                "event": {
                    "deltaTime": 0,
                    "type": "channel",
                    "subtype": "noteOn",
                    "channel": 4,
                    "noteNumber": 60,
                    "velocity": 111,
                    "lightChannels": [
                        4
                    ]
                }
            }
        }
    },
    {
        "changes": {
            "col-2": 0,
            "col-3": 1
        },
        "timeout": 0.07894725,
        "raw": {
            "col-2": {
                "pinValue": 0,
                "ticks": 120,
                "event": {
                    "deltaTime": 120,
                    "type": "channel",
                    "subtype": "noteOff",
                    "channel": 4,
                    "noteNumber": 60,
                    "velocity": 0,
                    "lightChannels": [
                        4
                    ]
                }
            },
            "col-3": {
                "pinValue": 1,
                "ticks": 0,
                "event": {
                    "deltaTime": 0,
                    "type": "channel",
                    "subtype": "noteOn",
                    "channel": 4,
                    "noteNumber": 62,
                    "velocity": 111,
                    "lightChannels": [
                        5
                    ]
                }
            }
        }
    },
    {
        "changes": {
            "col-3": 0
        },
        "timeout": 0.07894725,
        "raw": {
            "col-3": {
                "pinValue": 0,
                "ticks": 120,
                "event": {
                    "deltaTime": 120,
                    "type": "channel",
                    "subtype": "noteOff",
                    "channel": 4,
                    "noteNumber": 62,
                    "velocity": 0,
                    "lightChannels": [
                        5
                    ]
                }
            }
        }
    },
    {
        "changes": {
            "garden": 1
        },
        "timeout": 0.07894725,
        "raw": {
            "garden": {
                "pinValue": 1,
                "ticks": 120,
                "event": {
                    "deltaTime": 120,
                    "type": "channel",
                    "subtype": "noteOn",
                    "channel": 4,
                    "noteNumber": 64,
                    "velocity": 111,
                    "lightChannels": [
                        8
                    ]
                }
            }
        }
    },
    {
        "changes": {
            "garden": 0,
            "col-1": 1
        },
        "timeout": 0.07894725,
        "raw": {
            "garden": {
                "pinValue": 0,
                "ticks": 120,
                "event": {
                    "deltaTime": 120,
                    "type": "channel",
                    "subtype": "noteOff",
                    "channel": 4,
                    "noteNumber": 64,
                    "velocity": 0,
                    "lightChannels": [
                        8
                    ]
                }
            },
            "col-1": {
                "pinValue": 1,
                "ticks": 0,
                "event": {
                    "deltaTime": 0,
                    "type": "channel",
                    "subtype": "noteOn",
                    "channel": 4,
                    "noteNumber": 66,
                    "velocity": 111,
                    "lightChannels": [
                        3
                    ]
                }
            }
        }
    },
    {
        "changes": {
            "col-1": 0,
            "col-2": 1
        },
        "timeout": 0.07894725,
        "raw": {
            "col-1": {
                "pinValue": 0,
                "ticks": 120,
                "event": {
                    "deltaTime": 120,
                    "type": "channel",
                    "subtype": "noteOff",
                    "channel": 4,
                    "noteNumber": 66,
                    "velocity": 0,
                    "lightChannels": [
                        3
                    ]
                }
            },
            "col-2": {
                "pinValue": 1,
                "ticks": 0,
                "event": {
                    "deltaTime": 0,
                    "type": "channel",
                    "subtype": "noteOn",
                    "channel": 4,
                    "noteNumber": 67,
                    "velocity": 111,
                    "lightChannels": [
                        4
                    ]
                }
            }
        }
    },
    {
        "changes": {
            "col-2": 0
        },
        "timeout": 0.07894725,
        "raw": {
            "col-2": {
                "pinValue": 0,
                "ticks": 120,
                "event": {
                    "deltaTime": 120,
                    "type": "channel",
                    "subtype": "noteOff",
                    "channel": 4,
                    "noteNumber": 67,
                    "velocity": 0,
                    "lightChannels": [
                        4
                    ]
                }
            }
        }
    },
    {
        "changes": {
            "col-3": 1
        },
        "timeout": 0.07894725,
        "raw": {
            "col-3": {
                "pinValue": 1,
                "ticks": 120,
                "event": {
                    "deltaTime": 120,
                    "type": "channel",
                    "subtype": "noteOn",
                    "channel": 4,
                    "noteNumber": 69,
                    "velocity": 111,
                    "lightChannels": [
                        5
                    ]
                }
            }
        }
    },
    {
        "changes": {
            "col-3": 0,
            "garden": 1
        },
        "timeout": 0.07894725,
        "raw": {
            "col-3": {
                "pinValue": 0,
                "ticks": 120,
                "event": {
                    "deltaTime": 120,
                    "type": "channel",
                    "subtype": "noteOff",
                    "channel": 4,
                    "noteNumber": 69,
                    "velocity": 0,
                    "lightChannels": [
                        5
                    ]
                }
            },
            "garden": {
                "pinValue": 1,
                "ticks": 0,
                "event": {
                    "deltaTime": 0,
                    "type": "channel",
                    "subtype": "noteOn",
                    "channel": 4,
                    "noteNumber": 71,
                    "velocity": 111,
                    "lightChannels": [
                        8
                    ]
                }
            }
        }
    },
    {
        "changes": {
            "garden": 0,
            "tree": 1
        },
        "timeout": 0.07894725,
        "raw": {
            "garden": {
                "pinValue": 0,
                "ticks": 120,
                "event": {
                    "deltaTime": 120,
                    "type": "channel",
                    "subtype": "noteOff",
                    "channel": 4,
                    "noteNumber": 71,
                    "velocity": 0,
                    "lightChannels": [
                        8
                    ]
                }
            },
            "tree": {
                "pinValue": 1,
                "ticks": 0,
                "event": {
                    "deltaTime": 0,
                    "type": "channel",
                    "subtype": "noteOn",
                    "channel": 4,
                    "noteNumber": 72,
                    "velocity": 111,
                    "lightChannels": [
                        9
                    ]
                }
            }
        }
    },
    {
        "changes": {
            "tree": 0
        },
        "timeout": 0.07894725,
        "raw": {
            "tree": {
                "pinValue": 0,
                "ticks": 120,
                "event": {
                    "deltaTime": 120,
                    "type": "channel",
                    "subtype": "noteOff",
                    "channel": 4,
                    "noteNumber": 72,
                    "velocity": 0,
                    "lightChannels": [
                        9
                    ]
                }
            }
        }
    },
    {
        "changes": {
            "garden": 1
        },
        "timeout": 0.07894725,
        "raw": {
            "garden": {
                "pinValue": 1,
                "ticks": 120,
                "event": {
                    "deltaTime": 120,
                    "type": "channel",
                    "subtype": "noteOn",
                    "channel": 4,
                    "noteNumber": 74,
                    "velocity": 111,
                    "lightChannels": [
                        8
                    ]
                }
            }
        }
    },
    {
        "changes": {
            "garden": 0,
            "col-1": 1
        },
        "timeout": 0.07894725,
        "raw": {
            "garden": {
                "pinValue": 0,
                "ticks": 120,
                "event": {
                    "deltaTime": 120,
                    "type": "channel",
                    "subtype": "noteOff",
                    "channel": 4,
                    "noteNumber": 74,
                    "velocity": 0,
                    "lightChannels": [
                        8
                    ]
                }
            },
            "col-1": {
                "pinValue": 1,
                "ticks": 0,
                "event": {
                    "deltaTime": 0,
                    "type": "channel",
                    "subtype": "noteOn",
                    "channel": 4,
                    "noteNumber": 79,
                    "velocity": 111,
                    "lightChannels": [
                        3
                    ]
                }
            }
        }
    },
    {
        "changes": {
            "col-1": 0,
            "col-2": 1
        },
        "timeout": 0.07894725,
        "raw": {
            "col-1": {
                "pinValue": 0,
                "ticks": 120,
                "event": {
                    "deltaTime": 120,
                    "type": "channel",
                    "subtype": "noteOff",
                    "channel": 4,
                    "noteNumber": 79,
                    "velocity": 0,
                    "lightChannels": [
                        3
                    ]
                }
            },
            "col-2": {
                "pinValue": 1,
                "ticks": 0,
                "event": {
                    "deltaTime": 0,
                    "type": "channel",
                    "subtype": "noteOn",
                    "channel": 4,
                    "noteNumber": 78,
                    "velocity": 111,
                    "lightChannels": [
                        4
                    ]
                }
            }
        }
    },
    {
        "changes": {
            "col-2": 0
        },
        "timeout": 0.07894725,
        "raw": {
            "col-2": {
                "pinValue": 0,
                "ticks": 120,
                "event": {
                    "deltaTime": 120,
                    "type": "channel",
                    "subtype": "noteOff",
                    "channel": 4,
                    "noteNumber": 78,
                    "velocity": 0,
                    "lightChannels": [
                        4
                    ]
                }
            }
        }
    },
    {
        "changes": {
            "col-3": 1
        },
        "timeout": 0.07894725,
        "raw": {
            "col-3": {
                "pinValue": 1,
                "ticks": 120,
                "event": {
                    "deltaTime": 120,
                    "type": "channel",
                    "subtype": "noteOn",
                    "channel": 4,
                    "noteNumber": 76,
                    "velocity": 111,
                    "lightChannels": [
                        5
                    ]
                }
            }
        }
    },
    {
        "changes": {
            "col-3": 0,
            "garden": 1
        },
        "timeout": 0.07894725,
        "raw": {
            "col-3": {
                "pinValue": 0,
                "ticks": 120,
                "event": {
                    "deltaTime": 120,
                    "type": "channel",
                    "subtype": "noteOff",
                    "channel": 4,
                    "noteNumber": 76,
                    "velocity": 0,
                    "lightChannels": [
                        5
                    ]
                }
            },
            "garden": {
                "pinValue": 1,
                "ticks": 0,
                "event": {
                    "deltaTime": 0,
                    "type": "channel",
                    "subtype": "noteOn",
                    "channel": 4,
                    "noteNumber": 74,
                    "velocity": 111,
                    "lightChannels": [
                        8
                    ]
                }
            }
        }
    },
    {
        "changes": {
            "garden": 0,
            "tree": 1
        },
        "timeout": 0.07894725,
        "raw": {
            "garden": {
                "pinValue": 0,
                "ticks": 120,
                "event": {
                    "deltaTime": 120,
                    "type": "channel",
                    "subtype": "noteOff",
                    "channel": 4,
                    "noteNumber": 74,
                    "velocity": 0,
                    "lightChannels": [
                        8
                    ]
                }
            },
            "tree": {
                "pinValue": 1,
                "ticks": 0,
                "event": {
                    "deltaTime": 0,
                    "type": "channel",
                    "subtype": "noteOn",
                    "channel": 4,
                    "noteNumber": 72,
                    "velocity": 111,
                    "lightChannels": [
                        9
                    ]
                }
            }
        }
    },
    {
        "changes": {
            "tree": 0
        },
        "timeout": 0.07894725,
        "raw": {
            "tree": {
                "pinValue": 0,
                "ticks": 120,
                "event": {
                    "deltaTime": 120,
                    "type": "channel",
                    "subtype": "noteOff",
                    "channel": 4,
                    "noteNumber": 72,
                    "velocity": 0,
                    "lightChannels": [
                        9
                    ]
                }
            }
        }
    },
    {
        "changes": {
            "garden": 1
        },
        "timeout": 0.07894725,
        "raw": {
            "garden": {
                "pinValue": 1,
                "ticks": 120,
                "event": {
                    "deltaTime": 120,
                    "type": "channel",
                    "subtype": "noteOn",
                    "channel": 4,
                    "noteNumber": 71,
                    "velocity": 111,
                    "lightChannels": [
                        8
                    ]
                }
            }
        }
    },
    {
        "changes": {
            "garden": 0,
            "col-3": 1
        },
        "timeout": 0.07894725,
        "raw": {
            "garden": {
                "pinValue": 0,
                "ticks": 120,
                "event": {
                    "deltaTime": 120,
                    "type": "channel",
                    "subtype": "noteOff",
                    "channel": 4,
                    "noteNumber": 71,
                    "velocity": 0,
                    "lightChannels": [
                        8
                    ]
                }
            },
            "col-3": {
                "pinValue": 1,
                "ticks": 0,
                "event": {
                    "deltaTime": 0,
                    "type": "channel",
                    "subtype": "noteOn",
                    "channel": 4,
                    "noteNumber": 69,
                    "velocity": 111,
                    "lightChannels": [
                        5
                    ]
                }
            }
        }
    },
    {
        "changes": {
            "col-3": 0,
            "col-2": 1
        },
        "timeout": 0.07894725,
        "raw": {
            "col-3": {
                "pinValue": 0,
                "ticks": 120,
                "event": {
                    "deltaTime": 120,
                    "type": "channel",
                    "subtype": "noteOff",
                    "channel": 4,
                    "noteNumber": 69,
                    "velocity": 0,
                    "lightChannels": [
                        5
                    ]
                }
            },
            "col-2": {
                "pinValue": 1,
                "ticks": 0,
                "event": {
                    "deltaTime": 0,
                    "type": "channel",
                    "subtype": "noteOn",
                    "channel": 4,
                    "noteNumber": 67,
                    "velocity": 111,
                    "lightChannels": [
                        4
                    ]
                }
            }
        }
    },
    {
        "changes": {
            "col-2": 0
        },
        "timeout": 0.07894725,
        "raw": {
            "col-2": {
                "pinValue": 0,
                "ticks": 120,
                "event": {
                    "deltaTime": 120,
                    "type": "channel",
                    "subtype": "noteOff",
                    "channel": 4,
                    "noteNumber": 67,
                    "velocity": 0,
                    "lightChannels": [
                        4
                    ]
                }
            }
        }
    },
    {
        "changes": {
            "col-1": 1
        },
        "timeout": 0.07894725,
        "raw": {
            "col-1": {
                "pinValue": 1,
                "ticks": 120,
                "event": {
                    "deltaTime": 120,
                    "type": "channel",
                    "subtype": "noteOn",
                    "channel": 4,
                    "noteNumber": 66,
                    "velocity": 111,
                    "lightChannels": [
                        3
                    ]
                }
            }
        }
    },
    {
        "changes": {
            "col-1": 0,
            "col-2": 1
        },
        "timeout": 0.07894725,
        "raw": {
            "col-1": {
                "pinValue": 0,
                "ticks": 120,
                "event": {
                    "deltaTime": 120,
                    "type": "channel",
                    "subtype": "noteOff",
                    "channel": 4,
                    "noteNumber": 66,
                    "velocity": 0,
                    "lightChannels": [
                        3
                    ]
                }
            },
            "col-2": {
                "pinValue": 1,
                "ticks": 0,
                "event": {
                    "deltaTime": 0,
                    "type": "channel",
                    "subtype": "noteOn",
                    "channel": 4,
                    "noteNumber": 60,
                    "velocity": 111,
                    "lightChannels": [
                        4
                    ]
                }
            }
        }
    },
    {
        "changes": {
            "col-2": 0,
            "col-3": 1
        },
        "timeout": 0.07894725,
        "raw": {
            "col-2": {
                "pinValue": 0,
                "ticks": 120,
                "event": {
                    "deltaTime": 120,
                    "type": "channel",
                    "subtype": "noteOff",
                    "channel": 4,
                    "noteNumber": 60,
                    "velocity": 0,
                    "lightChannels": [
                        4
                    ]
                }
            },
            "col-3": {
                "pinValue": 1,
                "ticks": 0,
                "event": {
                    "deltaTime": 0,
                    "type": "channel",
                    "subtype": "noteOn",
                    "channel": 4,
                    "noteNumber": 62,
                    "velocity": 111,
                    "lightChannels": [
                        5
                    ]
                }
            }
        }
    },
    {
        "changes": {
            "col-3": 0
        },
        "timeout": 0.07894725,
        "raw": {
            "col-3": {
                "pinValue": 0,
                "ticks": 120,
                "event": {
                    "deltaTime": 120,
                    "type": "channel",
                    "subtype": "noteOff",
                    "channel": 4,
                    "noteNumber": 62,
                    "velocity": 0,
                    "lightChannels": [
                        5
                    ]
                }
            }
        }
    },
    {
        "changes": {
            "garden": 1
        },
        "timeout": 0.07894725,
        "raw": {
            "garden": {
                "pinValue": 1,
                "ticks": 120,
                "event": {
                    "deltaTime": 120,
                    "type": "channel",
                    "subtype": "noteOn",
                    "channel": 4,
                    "noteNumber": 64,
                    "velocity": 111,
                    "lightChannels": [
                        8
                    ]
                }
            }
        }
    },
    {
        "changes": {
            "garden": 0,
            "col-1": 1
        },
        "timeout": 0.07894725,
        "raw": {
            "garden": {
                "pinValue": 0,
                "ticks": 120,
                "event": {
                    "deltaTime": 120,
                    "type": "channel",
                    "subtype": "noteOff",
                    "channel": 4,
                    "noteNumber": 64,
                    "velocity": 0,
                    "lightChannels": [
                        8
                    ]
                }
            },
            "col-1": {
                "pinValue": 1,
                "ticks": 0,
                "event": {
                    "deltaTime": 0,
                    "type": "channel",
                    "subtype": "noteOn",
                    "channel": 4,
                    "noteNumber": 66,
                    "velocity": 111,
                    "lightChannels": [
                        3
                    ]
                }
            }
        }
    },
    {
        "changes": {
            "col-1": 0,
            "col-2": 1
        },
        "timeout": 0.07894725,
        "raw": {
            "col-1": {
                "pinValue": 0,
                "ticks": 120,
                "event": {
                    "deltaTime": 120,
                    "type": "channel",
                    "subtype": "noteOff",
                    "channel": 4,
                    "noteNumber": 66,
                    "velocity": 0,
                    "lightChannels": [
                        3
                    ]
                }
            },
            "col-2": {
                "pinValue": 1,
                "ticks": 0,
                "event": {
                    "deltaTime": 0,
                    "type": "channel",
                    "subtype": "noteOn",
                    "channel": 4,
                    "noteNumber": 67,
                    "velocity": 111,
                    "lightChannels": [
                        4
                    ]
                }
            }
        }
    },
    {
        "changes": {
            "col-2": 0
        },
        "timeout": 0.07894725,
        "raw": {
            "col-2": {
                "pinValue": 0,
                "ticks": 120,
                "event": {
                    "deltaTime": 120,
                    "type": "channel",
                    "subtype": "noteOff",
                    "channel": 4,
                    "noteNumber": 67,
                    "velocity": 0,
                    "lightChannels": [
                        4
                    ]
                }
            }
        }
    },
    {
        "changes": {
            "col-3": 1
        },
        "timeout": 0.07894725,
        "raw": {
            "col-3": {
                "pinValue": 1,
                "ticks": 120,
                "event": {
                    "deltaTime": 120,
                    "type": "channel",
                    "subtype": "noteOn",
                    "channel": 4,
                    "noteNumber": 69,
                    "velocity": 111,
                    "lightChannels": [
                        5
                    ]
                }
            }
        }
    },
    {
        "changes": {
            "col-3": 0,
            "garden": 1
        },
        "timeout": 0.07894725,
        "raw": {
            "col-3": {
                "pinValue": 0,
                "ticks": 120,
                "event": {
                    "deltaTime": 120,
                    "type": "channel",
                    "subtype": "noteOff",
                    "channel": 4,
                    "noteNumber": 69,
                    "velocity": 0,
                    "lightChannels": [
                        5
                    ]
                }
            },
            "garden": {
                "pinValue": 1,
                "ticks": 0,
                "event": {
                    "deltaTime": 0,
                    "type": "channel",
                    "subtype": "noteOn",
                    "channel": 4,
                    "noteNumber": 71,
                    "velocity": 111,
                    "lightChannels": [
                        8
                    ]
                }
            }
        }
    },
    {
        "changes": {
            "garden": 0,
            "tree": 1
        },
        "timeout": 0.07894725,
        "raw": {
            "garden": {
                "pinValue": 0,
                "ticks": 120,
                "event": {
                    "deltaTime": 120,
                    "type": "channel",
                    "subtype": "noteOff",
                    "channel": 4,
                    "noteNumber": 71,
                    "velocity": 0,
                    "lightChannels": [
                        8
                    ]
                }
            },
            "tree": {
                "pinValue": 1,
                "ticks": 0,
                "event": {
                    "deltaTime": 0,
                    "type": "channel",
                    "subtype": "noteOn",
                    "channel": 4,
                    "noteNumber": 72,
                    "velocity": 111,
                    "lightChannels": [
                        9
                    ]
                }
            }
        }
    },
    {
        "changes": {
            "tree": 0
        },
        "timeout": 0.07894725,
        "raw": {
            "tree": {
                "pinValue": 0,
                "ticks": 120,
                "event": {
                    "deltaTime": 120,
                    "type": "channel",
                    "subtype": "noteOff",
                    "channel": 4,
                    "noteNumber": 72,
                    "velocity": 0,
                    "lightChannels": [
                        9
                    ]
                }
            }
        }
    },
    {
        "changes": {
            "garden": 1
        },
        "timeout": 0.07894725,
        "raw": {
            "garden": {
                "pinValue": 1,
                "ticks": 120,
                "event": {
                    "deltaTime": 120,
                    "type": "channel",
                    "subtype": "noteOn",
                    "channel": 4,
                    "noteNumber": 74,
                    "velocity": 111,
                    "lightChannels": [
                        8
                    ]
                }
            }
        }
    },
    {
        "changes": {
            "garden": 0,
            "col-1": 1
        },
        "timeout": 0.07894725,
        "raw": {
            "garden": {
                "pinValue": 0,
                "ticks": 120,
                "event": {
                    "deltaTime": 120,
                    "type": "channel",
                    "subtype": "noteOff",
                    "channel": 4,
                    "noteNumber": 74,
                    "velocity": 0,
                    "lightChannels": [
                        8
                    ]
                }
            },
            "col-1": {
                "pinValue": 1,
                "ticks": 0,
                "event": {
                    "deltaTime": 0,
                    "type": "channel",
                    "subtype": "noteOn",
                    "channel": 4,
                    "noteNumber": 79,
                    "velocity": 111,
                    "lightChannels": [
                        3
                    ]
                }
            }
        }
    },
    {
        "changes": {
            "col-1": 0,
            "col-2": 1
        },
        "timeout": 0.07894725,
        "raw": {
            "col-1": {
                "pinValue": 0,
                "ticks": 120,
                "event": {
                    "deltaTime": 120,
                    "type": "channel",
                    "subtype": "noteOff",
                    "channel": 4,
                    "noteNumber": 79,
                    "velocity": 0,
                    "lightChannels": [
                        3
                    ]
                }
            },
            "col-2": {
                "pinValue": 1,
                "ticks": 0,
                "event": {
                    "deltaTime": 0,
                    "type": "channel",
                    "subtype": "noteOn",
                    "channel": 4,
                    "noteNumber": 78,
                    "velocity": 111,
                    "lightChannels": [
                        4
                    ]
                }
            }
        }
    },
    {
        "changes": {
            "col-2": 0
        },
        "timeout": 0.07894725,
        "raw": {
            "col-2": {
                "pinValue": 0,
                "ticks": 120,
                "event": {
                    "deltaTime": 120,
                    "type": "channel",
                    "subtype": "noteOff",
                    "channel": 4,
                    "noteNumber": 78,
                    "velocity": 0,
                    "lightChannels": [
                        4
                    ]
                }
            }
        }
    },
    {
        "changes": {
            "col-3": 1
        },
        "timeout": 0.07894725,
        "raw": {
            "col-3": {
                "pinValue": 1,
                "ticks": 120,
                "event": {
                    "deltaTime": 120,
                    "type": "channel",
                    "subtype": "noteOn",
                    "channel": 4,
                    "noteNumber": 76,
                    "velocity": 111,
                    "lightChannels": [
                        5
                    ]
                }
            }
        }
    },
    {
        "changes": {
            "col-3": 0,
            "garden": 1
        },
        "timeout": 0.07894725,
        "raw": {
            "col-3": {
                "pinValue": 0,
                "ticks": 120,
                "event": {
                    "deltaTime": 120,
                    "type": "channel",
                    "subtype": "noteOff",
                    "channel": 4,
                    "noteNumber": 76,
                    "velocity": 0,
                    "lightChannels": [
                        5
                    ]
                }
            },
            "garden": {
                "pinValue": 1,
                "ticks": 0,
                "event": {
                    "deltaTime": 0,
                    "type": "channel",
                    "subtype": "noteOn",
                    "channel": 4,
                    "noteNumber": 74,
                    "velocity": 111,
                    "lightChannels": [
                        8
                    ]
                }
            }
        }
    },
    {
        "changes": {
            "garden": 0,
            "tree": 1
        },
        "timeout": 0.07894725,
        "raw": {
            "garden": {
                "pinValue": 0,
                "ticks": 120,
                "event": {
                    "deltaTime": 120,
                    "type": "channel",
                    "subtype": "noteOff",
                    "channel": 4,
                    "noteNumber": 74,
                    "velocity": 0,
                    "lightChannels": [
                        8
                    ]
                }
            },
            "tree": {
                "pinValue": 1,
                "ticks": 0,
                "event": {
                    "deltaTime": 0,
                    "type": "channel",
                    "subtype": "noteOn",
                    "channel": 4,
                    "noteNumber": 72,
                    "velocity": 111,
                    "lightChannels": [
                        9
                    ]
                }
            }
        }
    },
    {
        "changes": {
            "tree": 0
        },
        "timeout": 0.07894725,
        "raw": {
            "tree": {
                "pinValue": 0,
                "ticks": 120,
                "event": {
                    "deltaTime": 120,
                    "type": "channel",
                    "subtype": "noteOff",
                    "channel": 4,
                    "noteNumber": 72,
                    "velocity": 0,
                    "lightChannels": [
                        9
                    ]
                }
            }
        }
    },
    {
        "changes": {
            "garden": 1
        },
        "timeout": 0.07894725,
        "raw": {
            "garden": {
                "pinValue": 1,
                "ticks": 120,
                "event": {
                    "deltaTime": 120,
                    "type": "channel",
                    "subtype": "noteOn",
                    "channel": 4,
                    "noteNumber": 71,
                    "velocity": 111,
                    "lightChannels": [
                        8
                    ]
                }
            }
        }
    },
    {
        "changes": {
            "garden": 0,
            "col-3": 1
        },
        "timeout": 0.07894725,
        "raw": {
            "garden": {
                "pinValue": 0,
                "ticks": 120,
                "event": {
                    "deltaTime": 120,
                    "type": "channel",
                    "subtype": "noteOff",
                    "channel": 4,
                    "noteNumber": 71,
                    "velocity": 0,
                    "lightChannels": [
                        8
                    ]
                }
            },
            "col-3": {
                "pinValue": 1,
                "ticks": 0,
                "event": {
                    "deltaTime": 0,
                    "type": "channel",
                    "subtype": "noteOn",
                    "channel": 4,
                    "noteNumber": 69,
                    "velocity": 111,
                    "lightChannels": [
                        5
                    ]
                }
            }
        }
    },
    {
        "changes": {
            "col-3": 0,
            "col-2": 1
        },
        "timeout": 0.07894725,
        "raw": {
            "col-3": {
                "pinValue": 0,
                "ticks": 120,
                "event": {
                    "deltaTime": 120,
                    "type": "channel",
                    "subtype": "noteOff",
                    "channel": 4,
                    "noteNumber": 69,
                    "velocity": 0,
                    "lightChannels": [
                        5
                    ]
                }
            },
            "col-2": {
                "pinValue": 1,
                "ticks": 0,
                "event": {
                    "deltaTime": 0,
                    "type": "channel",
                    "subtype": "noteOn",
                    "channel": 4,
                    "noteNumber": 67,
                    "velocity": 111,
                    "lightChannels": [
                        4
                    ]
                }
            }
        }
    },
    {
        "changes": {
            "col-2": 0
        },
        "timeout": 0.07894725,
        "raw": {
            "col-2": {
                "pinValue": 0,
                "ticks": 120,
                "event": {
                    "deltaTime": 120,
                    "type": "channel",
                    "subtype": "noteOff",
                    "channel": 4,
                    "noteNumber": 67,
                    "velocity": 0,
                    "lightChannels": [
                        4
                    ]
                }
            }
        }
    },
    {
        "changes": {
            "col-1": 1
        },
        "timeout": 0.07894725,
        "raw": {
            "col-1": {
                "pinValue": 1,
                "ticks": 120,
                "event": {
                    "deltaTime": 120,
                    "type": "channel",
                    "subtype": "noteOn",
                    "channel": 4,
                    "noteNumber": 66,
                    "velocity": 111,
                    "lightChannels": [
                        3
                    ]
                }
            }
        }
    },
    {
        "changes": {
            "col-1": 0,
            "col-2": 1
        },
        "timeout": 0.07894725,
        "raw": {
            "col-1": {
                "pinValue": 0,
                "ticks": 120,
                "event": {
                    "deltaTime": 120,
                    "type": "channel",
                    "subtype": "noteOff",
                    "channel": 4,
                    "noteNumber": 66,
                    "velocity": 0,
                    "lightChannels": [
                        3
                    ]
                }
            },
            "col-2": {
                "pinValue": 1,
                "ticks": 0,
                "event": {
                    "deltaTime": 0,
                    "type": "channel",
                    "subtype": "noteOn",
                    "channel": 4,
                    "noteNumber": 60,
                    "velocity": 111,
                    "lightChannels": [
                        4
                    ]
                }
            }
        }
    },
    {
        "changes": {
            "col-2": 0,
            "col-3": 1
        },
        "timeout": 0.07894725,
        "raw": {
            "col-2": {
                "pinValue": 0,
                "ticks": 120,
                "event": {
                    "deltaTime": 120,
                    "type": "channel",
                    "subtype": "noteOff",
                    "channel": 4,
                    "noteNumber": 60,
                    "velocity": 0,
                    "lightChannels": [
                        4
                    ]
                }
            },
            "col-3": {
                "pinValue": 1,
                "ticks": 0,
                "event": {
                    "deltaTime": 0,
                    "type": "channel",
                    "subtype": "noteOn",
                    "channel": 4,
                    "noteNumber": 62,
                    "velocity": 111,
                    "lightChannels": [
                        5
                    ]
                }
            }
        }
    },
    {
        "changes": {
            "col-3": 0
        },
        "timeout": 0.07894725,
        "raw": {
            "col-3": {
                "pinValue": 0,
                "ticks": 120,
                "event": {
                    "deltaTime": 120,
                    "type": "channel",
                    "subtype": "noteOff",
                    "channel": 4,
                    "noteNumber": 62,
                    "velocity": 0,
                    "lightChannels": [
                        5
                    ]
                }
            }
        }
    },
    {
        "changes": {
            "garden": 1
        },
        "timeout": 0.07894725,
        "raw": {
            "garden": {
                "pinValue": 1,
                "ticks": 120,
                "event": {
                    "deltaTime": 120,
                    "type": "channel",
                    "subtype": "noteOn",
                    "channel": 4,
                    "noteNumber": 64,
                    "velocity": 111,
                    "lightChannels": [
                        8
                    ]
                }
            }
        }
    },
    {
        "changes": {
            "garden": 0,
            "col-1": 1
        },
        "timeout": 0.07894725,
        "raw": {
            "garden": {
                "pinValue": 0,
                "ticks": 120,
                "event": {
                    "deltaTime": 120,
                    "type": "channel",
                    "subtype": "noteOff",
                    "channel": 4,
                    "noteNumber": 64,
                    "velocity": 0,
                    "lightChannels": [
                        8
                    ]
                }
            },
            "col-1": {
                "pinValue": 1,
                "ticks": 0,
                "event": {
                    "deltaTime": 0,
                    "type": "channel",
                    "subtype": "noteOn",
                    "channel": 4,
                    "noteNumber": 66,
                    "velocity": 111,
                    "lightChannels": [
                        3
                    ]
                }
            }
        }
    },
    {
        "changes": {
            "col-1": 0,
            "col-2": 1
        },
        "timeout": 0.07894725,
        "raw": {
            "col-1": {
                "pinValue": 0,
                "ticks": 120,
                "event": {
                    "deltaTime": 120,
                    "type": "channel",
                    "subtype": "noteOff",
                    "channel": 4,
                    "noteNumber": 66,
                    "velocity": 0,
                    "lightChannels": [
                        3
                    ]
                }
            },
            "col-2": {
                "pinValue": 1,
                "ticks": 0,
                "event": {
                    "deltaTime": 0,
                    "type": "channel",
                    "subtype": "noteOn",
                    "channel": 4,
                    "noteNumber": 67,
                    "velocity": 111,
                    "lightChannels": [
                        4
                    ]
                }
            }
        }
    },
    {
        "changes": {
            "col-2": 0
        },
        "timeout": 0.07894725,
        "raw": {
            "col-2": {
                "pinValue": 0,
                "ticks": 120,
                "event": {
                    "deltaTime": 120,
                    "type": "channel",
                    "subtype": "noteOff",
                    "channel": 4,
                    "noteNumber": 67,
                    "velocity": 0,
                    "lightChannels": [
                        4
                    ]
                }
            }
        }
    },
    {
        "changes": {
            "col-3": 1
        },
        "timeout": 0.07894725,
        "raw": {
            "col-3": {
                "pinValue": 1,
                "ticks": 120,
                "event": {
                    "deltaTime": 120,
                    "type": "channel",
                    "subtype": "noteOn",
                    "channel": 4,
                    "noteNumber": 69,
                    "velocity": 111,
                    "lightChannels": [
                        5
                    ]
                }
            }
        }
    },
    {
        "changes": {
            "col-3": 0,
            "garden": 1
        },
        "timeout": 0.07894725,
        "raw": {
            "col-3": {
                "pinValue": 0,
                "ticks": 120,
                "event": {
                    "deltaTime": 120,
                    "type": "channel",
                    "subtype": "noteOff",
                    "channel": 4,
                    "noteNumber": 69,
                    "velocity": 0,
                    "lightChannels": [
                        5
                    ]
                }
            },
            "garden": {
                "pinValue": 1,
                "ticks": 0,
                "event": {
                    "deltaTime": 0,
                    "type": "channel",
                    "subtype": "noteOn",
                    "channel": 4,
                    "noteNumber": 71,
                    "velocity": 111,
                    "lightChannels": [
                        8
                    ]
                }
            }
        }
    },
    {
        "changes": {
            "garden": 0,
            "tree": 1
        },
        "timeout": 0.07894725,
        "raw": {
            "garden": {
                "pinValue": 0,
                "ticks": 120,
                "event": {
                    "deltaTime": 120,
                    "type": "channel",
                    "subtype": "noteOff",
                    "channel": 4,
                    "noteNumber": 71,
                    "velocity": 0,
                    "lightChannels": [
                        8
                    ]
                }
            },
            "tree": {
                "pinValue": 1,
                "ticks": 0,
                "event": {
                    "deltaTime": 0,
                    "type": "channel",
                    "subtype": "noteOn",
                    "channel": 4,
                    "noteNumber": 72,
                    "velocity": 111,
                    "lightChannels": [
                        9
                    ]
                }
            }
        }
    },
    {
        "changes": {
            "tree": 0
        },
        "timeout": 0.07894725,
        "raw": {
            "tree": {
                "pinValue": 0,
                "ticks": 120,
                "event": {
                    "deltaTime": 120,
                    "type": "channel",
                    "subtype": "noteOff",
                    "channel": 4,
                    "noteNumber": 72,
                    "velocity": 0,
                    "lightChannels": [
                        9
                    ]
                }
            }
        }
    },
    {
        "changes": {
            "garden": 1
        },
        "timeout": 0.07894725,
        "raw": {
            "garden": {
                "pinValue": 1,
                "ticks": 120,
                "event": {
                    "deltaTime": 120,
                    "type": "channel",
                    "subtype": "noteOn",
                    "channel": 4,
                    "noteNumber": 74,
                    "velocity": 111,
                    "lightChannels": [
                        8
                    ]
                }
            }
        }
    },
    {
        "changes": {
            "garden": 0,
            "garage": 1,
            "top-right": 1,
            "bottom-right": 1,
            "window": 1,
            "outline": 1
        },
        "timeout": 0.07894725,
        "raw": {
            "garden": {
                "pinValue": 0,
                "ticks": 120,
                "event": {
                    "deltaTime": 120,
                    "type": "channel",
                    "subtype": "noteOff",
                    "channel": 4,
                    "noteNumber": 74,
                    "velocity": 0,
                    "lightChannels": [
                        8
                    ]
                }
            },
            "garage": {
                "pinValue": 1,
                "ticks": 0,
                "event": {
                    "deltaTime": 0,
                    "type": "channel",
                    "subtype": "noteOn",
                    "channel": 4,
                    "noteNumber": 76,
                    "velocity": 111,
                    "lightChannels": [
                        0,
                        1,
                        2,
                        6,
                        7
                    ]
                }
            },
            "top-right": {
                "pinValue": 1,
                "ticks": 0,
                "event": {
                    "deltaTime": 0,
                    "type": "channel",
                    "subtype": "noteOn",
                    "channel": 4,
                    "noteNumber": 76,
                    "velocity": 111,
                    "lightChannels": [
                        0,
                        1,
                        2,
                        6,
                        7
                    ]
                }
            },
            "bottom-right": {
                "pinValue": 1,
                "ticks": 0,
                "event": {
                    "deltaTime": 0,
                    "type": "channel",
                    "subtype": "noteOn",
                    "channel": 4,
                    "noteNumber": 76,
                    "velocity": 111,
                    "lightChannels": [
                        0,
                        1,
                        2,
                        6,
                        7
                    ]
                }
            },
            "window": {
                "pinValue": 1,
                "ticks": 0,
                "event": {
                    "deltaTime": 0,
                    "type": "channel",
                    "subtype": "noteOn",
                    "channel": 4,
                    "noteNumber": 76,
                    "velocity": 111,
                    "lightChannels": [
                        0,
                        1,
                        2,
                        6,
                        7
                    ]
                }
            },
            "outline": {
                "pinValue": 1,
                "ticks": 0,
                "event": {
                    "deltaTime": 0,
                    "type": "channel",
                    "subtype": "noteOn",
                    "channel": 4,
                    "noteNumber": 76,
                    "velocity": 111,
                    "lightChannels": [
                        0,
                        1,
                        2,
                        6,
                        7
                    ]
                }
            }
        }
    },
    {
        "changes": {
            "garage": 0,
            "top-right": 0,
            "bottom-right": 0,
            "window": 0,
            "outline": 0
        },
        "timeout": 0.631578,
        "raw": {
            "garage": {
                "pinValue": 0,
                "ticks": 960,
                "event": {
                    "deltaTime": 960,
                    "type": "channel",
                    "subtype": "noteOff",
                    "channel": 4,
                    "noteNumber": 76,
                    "velocity": 0,
                    "lightChannels": [
                        0,
                        1,
                        2,
                        6,
                        7
                    ]
                }
            },
            "top-right": {
                "pinValue": 0,
                "ticks": 960,
                "event": {
                    "deltaTime": 960,
                    "type": "channel",
                    "subtype": "noteOff",
                    "channel": 4,
                    "noteNumber": 76,
                    "velocity": 0,
                    "lightChannels": [
                        0,
                        1,
                        2,
                        6,
                        7
                    ]
                }
            },
            "bottom-right": {
                "pinValue": 0,
                "ticks": 960,
                "event": {
                    "deltaTime": 960,
                    "type": "channel",
                    "subtype": "noteOff",
                    "channel": 4,
                    "noteNumber": 76,
                    "velocity": 0,
                    "lightChannels": [
                        0,
                        1,
                        2,
                        6,
                        7
                    ]
                }
            },
            "window": {
                "pinValue": 0,
                "ticks": 960,
                "event": {
                    "deltaTime": 960,
                    "type": "channel",
                    "subtype": "noteOff",
                    "channel": 4,
                    "noteNumber": 76,
                    "velocity": 0,
                    "lightChannels": [
                        0,
                        1,
                        2,
                        6,
                        7
                    ]
                }
            },
            "outline": {
                "pinValue": 0,
                "ticks": 960,
                "event": {
                    "deltaTime": 960,
                    "type": "channel",
                    "subtype": "noteOff",
                    "channel": 4,
                    "noteNumber": 76,
                    "velocity": 0,
                    "lightChannels": [
                        0,
                        1,
                        2,
                        6,
                        7
                    ]
                }
            }
        }
    },
    {
        "changes": {
            "garage": 1,
            "top-right": 1,
            "bottom-right": 1,
            "window": 1,
            "outline": 1
        },
        "timeout": 0.315789,
        "raw": {
            "garage": {
                "pinValue": 1,
                "ticks": 0,
                "event": {
                    "deltaTime": 0,
                    "type": "channel",
                    "subtype": "noteOn",
                    "channel": 4,
                    "noteNumber": 78,
                    "velocity": 111,
                    "lightChannels": [
                        0,
                        1,
                        2,
                        6,
                        7
                    ]
                }
            },
            "top-right": {
                "pinValue": 1,
                "ticks": 0,
                "event": {
                    "deltaTime": 0,
                    "type": "channel",
                    "subtype": "noteOn",
                    "channel": 4,
                    "noteNumber": 78,
                    "velocity": 111,
                    "lightChannels": [
                        0,
                        1,
                        2,
                        6,
                        7
                    ]
                }
            },
            "bottom-right": {
                "pinValue": 1,
                "ticks": 0,
                "event": {
                    "deltaTime": 0,
                    "type": "channel",
                    "subtype": "noteOn",
                    "channel": 4,
                    "noteNumber": 78,
                    "velocity": 111,
                    "lightChannels": [
                        0,
                        1,
                        2,
                        6,
                        7
                    ]
                }
            },
            "window": {
                "pinValue": 1,
                "ticks": 0,
                "event": {
                    "deltaTime": 0,
                    "type": "channel",
                    "subtype": "noteOn",
                    "channel": 4,
                    "noteNumber": 78,
                    "velocity": 111,
                    "lightChannels": [
                        0,
                        1,
                        2,
                        6,
                        7
                    ]
                }
            },
            "outline": {
                "pinValue": 1,
                "ticks": 0,
                "event": {
                    "deltaTime": 0,
                    "type": "channel",
                    "subtype": "noteOn",
                    "channel": 4,
                    "noteNumber": 78,
                    "velocity": 111,
                    "lightChannels": [
                        0,
                        1,
                        2,
                        6,
                        7
                    ]
                }
            }
        }
    },
    {
        "changes": {
            "garage": 0,
            "top-right": 0,
            "bottom-right": 0,
            "window": 0,
            "outline": 0
        },
        "timeout": 0.631578,
        "raw": {
            "garage": {
                "pinValue": 0,
                "ticks": 960,
                "event": {
                    "deltaTime": 960,
                    "type": "channel",
                    "subtype": "noteOff",
                    "channel": 4,
                    "noteNumber": 78,
                    "velocity": 0,
                    "lightChannels": [
                        0,
                        1,
                        2,
                        6,
                        7
                    ]
                }
            },
            "top-right": {
                "pinValue": 0,
                "ticks": 960,
                "event": {
                    "deltaTime": 960,
                    "type": "channel",
                    "subtype": "noteOff",
                    "channel": 4,
                    "noteNumber": 78,
                    "velocity": 0,
                    "lightChannels": [
                        0,
                        1,
                        2,
                        6,
                        7
                    ]
                }
            },
            "bottom-right": {
                "pinValue": 0,
                "ticks": 960,
                "event": {
                    "deltaTime": 960,
                    "type": "channel",
                    "subtype": "noteOff",
                    "channel": 4,
                    "noteNumber": 78,
                    "velocity": 0,
                    "lightChannels": [
                        0,
                        1,
                        2,
                        6,
                        7
                    ]
                }
            },
            "window": {
                "pinValue": 0,
                "ticks": 960,
                "event": {
                    "deltaTime": 960,
                    "type": "channel",
                    "subtype": "noteOff",
                    "channel": 4,
                    "noteNumber": 78,
                    "velocity": 0,
                    "lightChannels": [
                        0,
                        1,
                        2,
                        6,
                        7
                    ]
                }
            },
            "outline": {
                "pinValue": 0,
                "ticks": 960,
                "event": {
                    "deltaTime": 960,
                    "type": "channel",
                    "subtype": "noteOff",
                    "channel": 4,
                    "noteNumber": 78,
                    "velocity": 0,
                    "lightChannels": [
                        0,
                        1,
                        2,
                        6,
                        7
                    ]
                }
            }
        }
    },
    {
        "changes": {
            "garage": 1,
            "top-right": 1,
            "bottom-right": 1,
            "window": 1,
            "outline": 1
        },
        "timeout": 0.315789,
        "raw": {
            "garage": {
                "pinValue": 1,
                "ticks": 0,
                "event": {
                    "deltaTime": 0,
                    "type": "channel",
                    "subtype": "noteOn",
                    "channel": 4,
                    "noteNumber": 79,
                    "velocity": 111,
                    "lightChannels": [
                        0,
                        1,
                        2,
                        6,
                        7
                    ]
                }
            },
            "top-right": {
                "pinValue": 1,
                "ticks": 0,
                "event": {
                    "deltaTime": 0,
                    "type": "channel",
                    "subtype": "noteOn",
                    "channel": 4,
                    "noteNumber": 79,
                    "velocity": 111,
                    "lightChannels": [
                        0,
                        1,
                        2,
                        6,
                        7
                    ]
                }
            },
            "bottom-right": {
                "pinValue": 1,
                "ticks": 0,
                "event": {
                    "deltaTime": 0,
                    "type": "channel",
                    "subtype": "noteOn",
                    "channel": 4,
                    "noteNumber": 79,
                    "velocity": 111,
                    "lightChannels": [
                        0,
                        1,
                        2,
                        6,
                        7
                    ]
                }
            },
            "window": {
                "pinValue": 1,
                "ticks": 0,
                "event": {
                    "deltaTime": 0,
                    "type": "channel",
                    "subtype": "noteOn",
                    "channel": 4,
                    "noteNumber": 79,
                    "velocity": 111,
                    "lightChannels": [
                        0,
                        1,
                        2,
                        6,
                        7
                    ]
                }
            },
            "outline": {
                "pinValue": 1,
                "ticks": 0,
                "event": {
                    "deltaTime": 0,
                    "type": "channel",
                    "subtype": "noteOn",
                    "channel": 4,
                    "noteNumber": 79,
                    "velocity": 111,
                    "lightChannels": [
                        0,
                        1,
                        2,
                        6,
                        7
                    ]
                }
            }
        }
    },
    {
        "changes": {
            "garage": 0,
            "top-right": 0,
            "bottom-right": 0,
            "window": 0,
            "outline": 0
        },
        "timeout": 0.631578,
        "raw": {
            "garage": {
                "pinValue": 0,
                "ticks": 960,
                "event": {
                    "deltaTime": 960,
                    "type": "channel",
                    "subtype": "noteOff",
                    "channel": 4,
                    "noteNumber": 79,
                    "velocity": 0,
                    "lightChannels": [
                        0,
                        1,
                        2,
                        6,
                        7
                    ]
                }
            },
            "top-right": {
                "pinValue": 0,
                "ticks": 960,
                "event": {
                    "deltaTime": 960,
                    "type": "channel",
                    "subtype": "noteOff",
                    "channel": 4,
                    "noteNumber": 79,
                    "velocity": 0,
                    "lightChannels": [
                        0,
                        1,
                        2,
                        6,
                        7
                    ]
                }
            },
            "bottom-right": {
                "pinValue": 0,
                "ticks": 960,
                "event": {
                    "deltaTime": 960,
                    "type": "channel",
                    "subtype": "noteOff",
                    "channel": 4,
                    "noteNumber": 79,
                    "velocity": 0,
                    "lightChannels": [
                        0,
                        1,
                        2,
                        6,
                        7
                    ]
                }
            },
            "window": {
                "pinValue": 0,
                "ticks": 960,
                "event": {
                    "deltaTime": 960,
                    "type": "channel",
                    "subtype": "noteOff",
                    "channel": 4,
                    "noteNumber": 79,
                    "velocity": 0,
                    "lightChannels": [
                        0,
                        1,
                        2,
                        6,
                        7
                    ]
                }
            },
            "outline": {
                "pinValue": 0,
                "ticks": 960,
                "event": {
                    "deltaTime": 960,
                    "type": "channel",
                    "subtype": "noteOff",
                    "channel": 4,
                    "noteNumber": 79,
                    "velocity": 0,
                    "lightChannels": [
                        0,
                        1,
                        2,
                        6,
                        7
                    ]
                }
            }
        }
    },
    {
        "changes": {
            "garage": 1,
            "top-right": 1,
            "bottom-right": 1,
            "window": 1,
            "outline": 1
        },
        "timeout": 0.315789,
        "raw": {
            "garage": {
                "pinValue": 1,
                "ticks": 0,
                "event": {
                    "deltaTime": 0,
                    "type": "channel",
                    "subtype": "noteOn",
                    "channel": 4,
                    "noteNumber": 81,
                    "velocity": 111,
                    "lightChannels": [
                        0,
                        1,
                        2,
                        6,
                        7
                    ]
                }
            },
            "top-right": {
                "pinValue": 1,
                "ticks": 0,
                "event": {
                    "deltaTime": 0,
                    "type": "channel",
                    "subtype": "noteOn",
                    "channel": 4,
                    "noteNumber": 81,
                    "velocity": 111,
                    "lightChannels": [
                        0,
                        1,
                        2,
                        6,
                        7
                    ]
                }
            },
            "bottom-right": {
                "pinValue": 1,
                "ticks": 0,
                "event": {
                    "deltaTime": 0,
                    "type": "channel",
                    "subtype": "noteOn",
                    "channel": 4,
                    "noteNumber": 81,
                    "velocity": 111,
                    "lightChannels": [
                        0,
                        1,
                        2,
                        6,
                        7
                    ]
                }
            },
            "window": {
                "pinValue": 1,
                "ticks": 0,
                "event": {
                    "deltaTime": 0,
                    "type": "channel",
                    "subtype": "noteOn",
                    "channel": 4,
                    "noteNumber": 81,
                    "velocity": 111,
                    "lightChannels": [
                        0,
                        1,
                        2,
                        6,
                        7
                    ]
                }
            },
            "outline": {
                "pinValue": 1,
                "ticks": 0,
                "event": {
                    "deltaTime": 0,
                    "type": "channel",
                    "subtype": "noteOn",
                    "channel": 4,
                    "noteNumber": 81,
                    "velocity": 111,
                    "lightChannels": [
                        0,
                        1,
                        2,
                        6,
                        7
                    ]
                }
            }
        }
    },
    {
        "changes": {
            "garage": 0,
            "top-right": 0,
            "bottom-right": 0,
            "window": 0,
            "outline": 0
        },
        "timeout": 0.631578,
        "raw": {
            "garage": {
                "pinValue": 0,
                "ticks": 960,
                "event": {
                    "deltaTime": 960,
                    "type": "channel",
                    "subtype": "noteOff",
                    "channel": 4,
                    "noteNumber": 81,
                    "velocity": 0,
                    "lightChannels": [
                        0,
                        1,
                        2,
                        6,
                        7
                    ]
                }
            },
            "top-right": {
                "pinValue": 0,
                "ticks": 960,
                "event": {
                    "deltaTime": 960,
                    "type": "channel",
                    "subtype": "noteOff",
                    "channel": 4,
                    "noteNumber": 81,
                    "velocity": 0,
                    "lightChannels": [
                        0,
                        1,
                        2,
                        6,
                        7
                    ]
                }
            },
            "bottom-right": {
                "pinValue": 0,
                "ticks": 960,
                "event": {
                    "deltaTime": 960,
                    "type": "channel",
                    "subtype": "noteOff",
                    "channel": 4,
                    "noteNumber": 81,
                    "velocity": 0,
                    "lightChannels": [
                        0,
                        1,
                        2,
                        6,
                        7
                    ]
                }
            },
            "window": {
                "pinValue": 0,
                "ticks": 960,
                "event": {
                    "deltaTime": 960,
                    "type": "channel",
                    "subtype": "noteOff",
                    "channel": 4,
                    "noteNumber": 81,
                    "velocity": 0,
                    "lightChannels": [
                        0,
                        1,
                        2,
                        6,
                        7
                    ]
                }
            },
            "outline": {
                "pinValue": 0,
                "ticks": 960,
                "event": {
                    "deltaTime": 960,
                    "type": "channel",
                    "subtype": "noteOff",
                    "channel": 4,
                    "noteNumber": 81,
                    "velocity": 0,
                    "lightChannels": [
                        0,
                        1,
                        2,
                        6,
                        7
                    ]
                }
            }
        }
    },
    {
        "changes": {
            "garage": 1,
            "top-right": 1,
            "bottom-right": 1,
            "window": 1,
            "outline": 1
        },
        "timeout": 0.315789,
        "raw": {
            "garage": {
                "pinValue": 1,
                "ticks": 0,
                "event": {
                    "deltaTime": 0,
                    "type": "channel",
                    "subtype": "noteOn",
                    "channel": 4,
                    "noteNumber": 76,
                    "velocity": 111,
                    "lightChannels": [
                        0,
                        1,
                        2,
                        6,
                        7
                    ]
                }
            },
            "top-right": {
                "pinValue": 1,
                "ticks": 0,
                "event": {
                    "deltaTime": 0,
                    "type": "channel",
                    "subtype": "noteOn",
                    "channel": 4,
                    "noteNumber": 76,
                    "velocity": 111,
                    "lightChannels": [
                        0,
                        1,
                        2,
                        6,
                        7
                    ]
                }
            },
            "bottom-right": {
                "pinValue": 1,
                "ticks": 0,
                "event": {
                    "deltaTime": 0,
                    "type": "channel",
                    "subtype": "noteOn",
                    "channel": 4,
                    "noteNumber": 76,
                    "velocity": 111,
                    "lightChannels": [
                        0,
                        1,
                        2,
                        6,
                        7
                    ]
                }
            },
            "window": {
                "pinValue": 1,
                "ticks": 0,
                "event": {
                    "deltaTime": 0,
                    "type": "channel",
                    "subtype": "noteOn",
                    "channel": 4,
                    "noteNumber": 76,
                    "velocity": 111,
                    "lightChannels": [
                        0,
                        1,
                        2,
                        6,
                        7
                    ]
                }
            },
            "outline": {
                "pinValue": 1,
                "ticks": 0,
                "event": {
                    "deltaTime": 0,
                    "type": "channel",
                    "subtype": "noteOn",
                    "channel": 4,
                    "noteNumber": 76,
                    "velocity": 111,
                    "lightChannels": [
                        0,
                        1,
                        2,
                        6,
                        7
                    ]
                }
            }
        }
    },
    {
        "changes": {
            "col-1": 1
        },
        "timeout": 2.2105229999999993,
        "raw": {
            "col-1": {
                "pinValue": 1,
                "ticks": 240,
                "event": {
                    "deltaTime": 240,
                    "type": "channel",
                    "subtype": "noteOn",
                    "channel": 5,
                    "noteNumber": 64,
                    "velocity": 111,
                    "lightChannels": [
                        3
                    ]
                }
            }
        }
    },
    {
        "changes": {
            "col-1": 0,
            "garden": 1
        },
        "timeout": 0.1578945,
        "raw": {
            "col-1": {
                "pinValue": 0,
                "ticks": 240,
                "event": {
                    "deltaTime": 240,
                    "type": "channel",
                    "subtype": "noteOff",
                    "channel": 5,
                    "noteNumber": 64,
                    "velocity": 0,
                    "lightChannels": [
                        3
                    ]
                }
            },
            "garden": {
                "pinValue": 1,
                "ticks": 0,
                "event": {
                    "deltaTime": 0,
                    "type": "channel",
                    "subtype": "noteOn",
                    "channel": 5,
                    "noteNumber": 64,
                    "velocity": 111,
                    "lightChannels": [
                        8
                    ]
                }
            }
        }
    },
    {
        "changes": {
            "garden": 0,
            "col-3": 1
        },
        "timeout": 0.1578945,
        "raw": {
            "garden": {
                "pinValue": 0,
                "ticks": 240,
                "event": {
                    "deltaTime": 240,
                    "type": "channel",
                    "subtype": "noteOff",
                    "channel": 5,
                    "noteNumber": 64,
                    "velocity": 0,
                    "lightChannels": [
                        8
                    ]
                }
            },
            "col-3": {
                "pinValue": 1,
                "ticks": 0,
                "event": {
                    "deltaTime": 0,
                    "type": "channel",
                    "subtype": "noteOn",
                    "channel": 5,
                    "noteNumber": 59,
                    "velocity": 111,
                    "lightChannels": [
                        5
                    ]
                }
            }
        }
    },
    {
        "changes": {
            "col-3": 0,
            "tree": 1
        },
        "timeout": 0.1578945,
        "raw": {
            "col-3": {
                "pinValue": 0,
                "ticks": 240,
                "event": {
                    "deltaTime": 240,
                    "type": "channel",
                    "subtype": "noteOff",
                    "channel": 5,
                    "noteNumber": 59,
                    "velocity": 0,
                    "lightChannels": [
                        5
                    ]
                }
            },
            "tree": {
                "pinValue": 1,
                "ticks": 0,
                "event": {
                    "deltaTime": 0,
                    "type": "channel",
                    "subtype": "noteOn",
                    "channel": 5,
                    "noteNumber": 59,
                    "velocity": 111,
                    "lightChannels": [
                        9
                    ]
                }
            }
        }
    },
    {
        "changes": {
            "tree": 0,
            "col-2": 1
        },
        "timeout": 0.1578945,
        "raw": {
            "tree": {
                "pinValue": 0,
                "ticks": 240,
                "event": {
                    "deltaTime": 240,
                    "type": "channel",
                    "subtype": "noteOff",
                    "channel": 5,
                    "noteNumber": 59,
                    "velocity": 0,
                    "lightChannels": [
                        9
                    ]
                }
            },
            "col-2": {
                "pinValue": 1,
                "ticks": 0,
                "event": {
                    "deltaTime": 0,
                    "type": "channel",
                    "subtype": "noteOn",
                    "channel": 5,
                    "noteNumber": 64,
                    "velocity": 111,
                    "lightChannels": [
                        4
                    ]
                }
            }
        }
    },
    {
        "changes": {
            "col-2": 0
        },
        "timeout": 0.1578945,
        "raw": {
            "col-2": {
                "pinValue": 0,
                "ticks": 240,
                "event": {
                    "deltaTime": 240,
                    "type": "channel",
                    "subtype": "noteOff",
                    "channel": 5,
                    "noteNumber": 64,
                    "velocity": 0,
                    "lightChannels": [
                        4
                    ]
                }
            }
        }
    },
    {
        "changes": {
            "col-1": 1
        },
        "timeout": 0.1578945,
        "raw": {
            "col-1": {
                "pinValue": 1,
                "ticks": 240,
                "event": {
                    "deltaTime": 240,
                    "type": "channel",
                    "subtype": "noteOn",
                    "channel": 5,
                    "noteNumber": 64,
                    "velocity": 111,
                    "lightChannels": [
                        3
                    ]
                }
            }
        }
    },
    {
        "changes": {
            "col-1": 0,
            "garden": 1
        },
        "timeout": 0.1578945,
        "raw": {
            "col-1": {
                "pinValue": 0,
                "ticks": 240,
                "event": {
                    "deltaTime": 240,
                    "type": "channel",
                    "subtype": "noteOff",
                    "channel": 5,
                    "noteNumber": 64,
                    "velocity": 0,
                    "lightChannels": [
                        3
                    ]
                }
            },
            "garden": {
                "pinValue": 1,
                "ticks": 0,
                "event": {
                    "deltaTime": 0,
                    "type": "channel",
                    "subtype": "noteOn",
                    "channel": 5,
                    "noteNumber": 64,
                    "velocity": 111,
                    "lightChannels": [
                        8
                    ]
                }
            }
        }
    },
    {
        "changes": {
            "garden": 0,
            "col-3": 1
        },
        "timeout": 0.1578945,
        "raw": {
            "garden": {
                "pinValue": 0,
                "ticks": 240,
                "event": {
                    "deltaTime": 240,
                    "type": "channel",
                    "subtype": "noteOff",
                    "channel": 5,
                    "noteNumber": 64,
                    "velocity": 0,
                    "lightChannels": [
                        8
                    ]
                }
            },
            "col-3": {
                "pinValue": 1,
                "ticks": 0,
                "event": {
                    "deltaTime": 0,
                    "type": "channel",
                    "subtype": "noteOn",
                    "channel": 5,
                    "noteNumber": 59,
                    "velocity": 111,
                    "lightChannels": [
                        5
                    ]
                }
            }
        }
    },
    {
        "changes": {
            "col-3": 0,
            "tree": 1
        },
        "timeout": 0.1578945,
        "raw": {
            "col-3": {
                "pinValue": 0,
                "ticks": 240,
                "event": {
                    "deltaTime": 240,
                    "type": "channel",
                    "subtype": "noteOff",
                    "channel": 5,
                    "noteNumber": 59,
                    "velocity": 0,
                    "lightChannels": [
                        5
                    ]
                }
            },
            "tree": {
                "pinValue": 1,
                "ticks": 0,
                "event": {
                    "deltaTime": 0,
                    "type": "channel",
                    "subtype": "noteOn",
                    "channel": 5,
                    "noteNumber": 59,
                    "velocity": 111,
                    "lightChannels": [
                        9
                    ]
                }
            }
        }
    },
    {
        "changes": {
            "garage": 0,
            "top-right": 0,
            "bottom-right": 0,
            "window": 0,
            "outline": 0,
            "tree": 0,
            "col-2": 1
        },
        "timeout": 0.1578945,
        "raw": {
            "garage": {
                "pinValue": 0,
                "ticks": 0,
                "event": {
                    "deltaTime": 0,
                    "type": "channel",
                    "subtype": "noteOff",
                    "channel": 4,
                    "noteNumber": 76,
                    "velocity": 0,
                    "lightChannels": [
                        0,
                        1,
                        2,
                        6,
                        7
                    ]
                }
            },
            "top-right": {
                "pinValue": 0,
                "ticks": 0,
                "event": {
                    "deltaTime": 0,
                    "type": "channel",
                    "subtype": "noteOff",
                    "channel": 4,
                    "noteNumber": 76,
                    "velocity": 0,
                    "lightChannels": [
                        0,
                        1,
                        2,
                        6,
                        7
                    ]
                }
            },
            "bottom-right": {
                "pinValue": 0,
                "ticks": 0,
                "event": {
                    "deltaTime": 0,
                    "type": "channel",
                    "subtype": "noteOff",
                    "channel": 4,
                    "noteNumber": 76,
                    "velocity": 0,
                    "lightChannels": [
                        0,
                        1,
                        2,
                        6,
                        7
                    ]
                }
            },
            "window": {
                "pinValue": 0,
                "ticks": 0,
                "event": {
                    "deltaTime": 0,
                    "type": "channel",
                    "subtype": "noteOff",
                    "channel": 4,
                    "noteNumber": 76,
                    "velocity": 0,
                    "lightChannels": [
                        0,
                        1,
                        2,
                        6,
                        7
                    ]
                }
            },
            "outline": {
                "pinValue": 0,
                "ticks": 0,
                "event": {
                    "deltaTime": 0,
                    "type": "channel",
                    "subtype": "noteOff",
                    "channel": 4,
                    "noteNumber": 76,
                    "velocity": 0,
                    "lightChannels": [
                        0,
                        1,
                        2,
                        6,
                        7
                    ]
                }
            },
            "tree": {
                "pinValue": 0,
                "ticks": 0,
                "event": {
                    "deltaTime": 0,
                    "type": "channel",
                    "subtype": "noteOff",
                    "channel": 5,
                    "noteNumber": 59,
                    "velocity": 0,
                    "lightChannels": [
                        9
                    ]
                }
            },
            "col-2": {
                "pinValue": 1,
                "ticks": 0,
                "event": {
                    "deltaTime": 0,
                    "type": "channel",
                    "subtype": "noteOn",
                    "channel": 5,
                    "noteNumber": 64,
                    "velocity": 111,
                    "lightChannels": [
                        4
                    ]
                }
            }
        }
    },
    {
        "changes": {
            "col-2": 0
        },
        "timeout": 0.1578945,
        "raw": {
            "col-2": {
                "pinValue": 0,
                "ticks": 240,
                "event": {
                    "deltaTime": 240,
                    "type": "channel",
                    "subtype": "noteOff",
                    "channel": 5,
                    "noteNumber": 64,
                    "velocity": 0,
                    "lightChannels": [
                        4
                    ]
                }
            }
        }
    },
    {
        "changes": {
            "col-1": 1
        },
        "timeout": 0.1578945,
        "raw": {
            "col-1": {
                "pinValue": 1,
                "ticks": 240,
                "event": {
                    "deltaTime": 240,
                    "type": "channel",
                    "subtype": "noteOn",
                    "channel": 5,
                    "noteNumber": 64,
                    "velocity": 111,
                    "lightChannels": [
                        3
                    ]
                }
            }
        }
    },
    {
        "changes": {
            "col-1": 0,
            "garden": 1
        },
        "timeout": 0.1578945,
        "raw": {
            "col-1": {
                "pinValue": 0,
                "ticks": 240,
                "event": {
                    "deltaTime": 240,
                    "type": "channel",
                    "subtype": "noteOff",
                    "channel": 5,
                    "noteNumber": 64,
                    "velocity": 0,
                    "lightChannels": [
                        3
                    ]
                }
            },
            "garden": {
                "pinValue": 1,
                "ticks": 0,
                "event": {
                    "deltaTime": 0,
                    "type": "channel",
                    "subtype": "noteOn",
                    "channel": 5,
                    "noteNumber": 64,
                    "velocity": 111,
                    "lightChannels": [
                        8
                    ]
                }
            }
        }
    },
    {
        "changes": {
            "garden": 0,
            "col-3": 1
        },
        "timeout": 0.1578945,
        "raw": {
            "garden": {
                "pinValue": 0,
                "ticks": 240,
                "event": {
                    "deltaTime": 240,
                    "type": "channel",
                    "subtype": "noteOff",
                    "channel": 5,
                    "noteNumber": 64,
                    "velocity": 0,
                    "lightChannels": [
                        8
                    ]
                }
            },
            "col-3": {
                "pinValue": 1,
                "ticks": 0,
                "event": {
                    "deltaTime": 0,
                    "type": "channel",
                    "subtype": "noteOn",
                    "channel": 5,
                    "noteNumber": 59,
                    "velocity": 111,
                    "lightChannels": [
                        5
                    ]
                }
            }
        }
    },
    {
        "changes": {
            "col-3": 0,
            "tree": 1
        },
        "timeout": 0.1578945,
        "raw": {
            "col-3": {
                "pinValue": 0,
                "ticks": 240,
                "event": {
                    "deltaTime": 240,
                    "type": "channel",
                    "subtype": "noteOff",
                    "channel": 5,
                    "noteNumber": 59,
                    "velocity": 0,
                    "lightChannels": [
                        5
                    ]
                }
            },
            "tree": {
                "pinValue": 1,
                "ticks": 0,
                "event": {
                    "deltaTime": 0,
                    "type": "channel",
                    "subtype": "noteOn",
                    "channel": 5,
                    "noteNumber": 59,
                    "velocity": 111,
                    "lightChannels": [
                        9
                    ]
                }
            }
        }
    },
    {
        "changes": {
            "tree": 0,
            "col-2": 1
        },
        "timeout": 0.1578945,
        "raw": {
            "tree": {
                "pinValue": 0,
                "ticks": 240,
                "event": {
                    "deltaTime": 240,
                    "type": "channel",
                    "subtype": "noteOff",
                    "channel": 5,
                    "noteNumber": 59,
                    "velocity": 0,
                    "lightChannels": [
                        9
                    ]
                }
            },
            "col-2": {
                "pinValue": 1,
                "ticks": 0,
                "event": {
                    "deltaTime": 0,
                    "type": "channel",
                    "subtype": "noteOn",
                    "channel": 5,
                    "noteNumber": 64,
                    "velocity": 111,
                    "lightChannels": [
                        4
                    ]
                }
            }
        }
    },
    {
        "changes": {
            "col-2": 0
        },
        "timeout": 0.1578945,
        "raw": {
            "col-2": {
                "pinValue": 0,
                "ticks": 240,
                "event": {
                    "deltaTime": 240,
                    "type": "channel",
                    "subtype": "noteOff",
                    "channel": 5,
                    "noteNumber": 64,
                    "velocity": 0,
                    "lightChannels": [
                        4
                    ]
                }
            }
        }
    },
    {
        "changes": {
            "col-1": 1
        },
        "timeout": 0.1578945,
        "raw": {
            "col-1": {
                "pinValue": 1,
                "ticks": 240,
                "event": {
                    "deltaTime": 240,
                    "type": "channel",
                    "subtype": "noteOn",
                    "channel": 5,
                    "noteNumber": 64,
                    "velocity": 111,
                    "lightChannels": [
                        3
                    ]
                }
            }
        }
    },
    {
        "changes": {
            "col-1": 0,
            "garden": 1
        },
        "timeout": 0.1578945,
        "raw": {
            "col-1": {
                "pinValue": 0,
                "ticks": 240,
                "event": {
                    "deltaTime": 240,
                    "type": "channel",
                    "subtype": "noteOff",
                    "channel": 5,
                    "noteNumber": 64,
                    "velocity": 0,
                    "lightChannels": [
                        3
                    ]
                }
            },
            "garden": {
                "pinValue": 1,
                "ticks": 0,
                "event": {
                    "deltaTime": 0,
                    "type": "channel",
                    "subtype": "noteOn",
                    "channel": 5,
                    "noteNumber": 64,
                    "velocity": 111,
                    "lightChannels": [
                        8
                    ]
                }
            }
        }
    },
    {
        "changes": {
            "garden": 0,
            "col-3": 1
        },
        "timeout": 0.1578945,
        "raw": {
            "garden": {
                "pinValue": 0,
                "ticks": 240,
                "event": {
                    "deltaTime": 240,
                    "type": "channel",
                    "subtype": "noteOff",
                    "channel": 5,
                    "noteNumber": 64,
                    "velocity": 0,
                    "lightChannels": [
                        8
                    ]
                }
            },
            "col-3": {
                "pinValue": 1,
                "ticks": 0,
                "event": {
                    "deltaTime": 0,
                    "type": "channel",
                    "subtype": "noteOn",
                    "channel": 5,
                    "noteNumber": 59,
                    "velocity": 111,
                    "lightChannels": [
                        5
                    ]
                }
            }
        }
    },
    {
        "changes": {
            "col-3": 0,
            "tree": 1
        },
        "timeout": 0.1578945,
        "raw": {
            "col-3": {
                "pinValue": 0,
                "ticks": 240,
                "event": {
                    "deltaTime": 240,
                    "type": "channel",
                    "subtype": "noteOff",
                    "channel": 5,
                    "noteNumber": 59,
                    "velocity": 0,
                    "lightChannels": [
                        5
                    ]
                }
            },
            "tree": {
                "pinValue": 1,
                "ticks": 0,
                "event": {
                    "deltaTime": 0,
                    "type": "channel",
                    "subtype": "noteOn",
                    "channel": 5,
                    "noteNumber": 59,
                    "velocity": 111,
                    "lightChannels": [
                        9
                    ]
                }
            }
        }
    },
    {
        "changes": {
            "tree": 0,
            "col-1": 1
        },
        "timeout": 0.1578945,
        "raw": {
            "tree": {
                "pinValue": 0,
                "ticks": 240,
                "event": {
                    "deltaTime": 240,
                    "type": "channel",
                    "subtype": "noteOff",
                    "channel": 5,
                    "noteNumber": 59,
                    "velocity": 0,
                    "lightChannels": [
                        9
                    ]
                }
            },
            "col-1": {
                "pinValue": 1,
                "ticks": 0,
                "event": {
                    "deltaTime": 0,
                    "type": "channel",
                    "subtype": "noteOn",
                    "channel": 5,
                    "noteNumber": 64,
                    "velocity": 111,
                    "lightChannels": [
                        3
                    ]
                }
            }
        }
    },
    {
        "changes": {
            "col-1": 0
        },
        "timeout": 0.1578945,
        "raw": {
            "col-1": {
                "pinValue": 0,
                "ticks": 240,
                "event": {
                    "deltaTime": 240,
                    "type": "channel",
                    "subtype": "noteOff",
                    "channel": 5,
                    "noteNumber": 64,
                    "velocity": 0,
                    "lightChannels": [
                        3
                    ]
                }
            }
        }
    },
    {
        "changes": {
            "tree": 1
        },
        "timeout": 0.1578945,
        "raw": {
            "tree": {
                "pinValue": 1,
                "ticks": 240,
                "event": {
                    "deltaTime": 240,
                    "type": "channel",
                    "subtype": "noteOn",
                    "channel": 5,
                    "noteNumber": 59,
                    "velocity": 111,
                    "lightChannels": [
                        9
                    ]
                }
            }
        }
    },
    {
        "changes": {
            "tree": 0,
            "col-3": 1
        },
        "timeout": 0.1578945,
        "raw": {
            "tree": {
                "pinValue": 0,
                "ticks": 240,
                "event": {
                    "deltaTime": 240,
                    "type": "channel",
                    "subtype": "noteOff",
                    "channel": 5,
                    "noteNumber": 59,
                    "velocity": 0,
                    "lightChannels": [
                        9
                    ]
                }
            },
            "col-3": {
                "pinValue": 1,
                "ticks": 0,
                "event": {
                    "deltaTime": 0,
                    "type": "channel",
                    "subtype": "noteOn",
                    "channel": 5,
                    "noteNumber": 64,
                    "velocity": 111,
                    "lightChannels": [
                        5
                    ]
                }
            }
        }
    },
    {
        "changes": {
            "col-3": 0,
            "garden": 1
        },
        "timeout": 0.1578945,
        "raw": {
            "col-3": {
                "pinValue": 0,
                "ticks": 240,
                "event": {
                    "deltaTime": 240,
                    "type": "channel",
                    "subtype": "noteOff",
                    "channel": 5,
                    "noteNumber": 64,
                    "velocity": 0,
                    "lightChannels": [
                        5
                    ]
                }
            },
            "garden": {
                "pinValue": 1,
                "ticks": 0,
                "event": {
                    "deltaTime": 0,
                    "type": "channel",
                    "subtype": "noteOn",
                    "channel": 5,
                    "noteNumber": 59,
                    "velocity": 111,
                    "lightChannels": [
                        8
                    ]
                }
            }
        }
    },
    {
        "changes": {
            "garden": 0,
            "tree": 1
        },
        "timeout": 0.1578945,
        "raw": {
            "garden": {
                "pinValue": 0,
                "ticks": 240,
                "event": {
                    "deltaTime": 240,
                    "type": "channel",
                    "subtype": "noteOff",
                    "channel": 5,
                    "noteNumber": 59,
                    "velocity": 0,
                    "lightChannels": [
                        8
                    ]
                }
            },
            "tree": {
                "pinValue": 1,
                "ticks": 0,
                "event": {
                    "deltaTime": 0,
                    "type": "channel",
                    "subtype": "noteOn",
                    "channel": 5,
                    "noteNumber": 59,
                    "velocity": 111,
                    "lightChannels": [
                        9
                    ]
                }
            }
        }
    },
    {
        "changes": {
            "tree": 0,
            "col-2": 1
        },
        "timeout": 0.1578945,
        "raw": {
            "tree": {
                "pinValue": 0,
                "ticks": 240,
                "event": {
                    "deltaTime": 240,
                    "type": "channel",
                    "subtype": "noteOff",
                    "channel": 5,
                    "noteNumber": 59,
                    "velocity": 0,
                    "lightChannels": [
                        9
                    ]
                }
            },
            "col-2": {
                "pinValue": 1,
                "ticks": 0,
                "event": {
                    "deltaTime": 0,
                    "type": "channel",
                    "subtype": "noteOn",
                    "channel": 5,
                    "noteNumber": 64,
                    "velocity": 111,
                    "lightChannels": [
                        4
                    ]
                }
            }
        }
    },
    {
        "changes": {
            "col-2": 0
        },
        "timeout": 0.1578945,
        "raw": {
            "col-2": {
                "pinValue": 0,
                "ticks": 240,
                "event": {
                    "deltaTime": 240,
                    "type": "channel",
                    "subtype": "noteOff",
                    "channel": 5,
                    "noteNumber": 64,
                    "velocity": 0,
                    "lightChannels": [
                        4
                    ]
                }
            }
        }
    },
    {
        "changes": {
            "col-1": 1
        },
        "timeout": 0.1578945,
        "raw": {
            "col-1": {
                "pinValue": 1,
                "ticks": 240,
                "event": {
                    "deltaTime": 240,
                    "type": "channel",
                    "subtype": "noteOn",
                    "channel": 5,
                    "noteNumber": 64,
                    "velocity": 111,
                    "lightChannels": [
                        3
                    ]
                }
            }
        }
    },
    {
        "changes": {
            "col-1": 0,
            "garden": 1
        },
        "timeout": 0.1578945,
        "raw": {
            "col-1": {
                "pinValue": 0,
                "ticks": 240,
                "event": {
                    "deltaTime": 240,
                    "type": "channel",
                    "subtype": "noteOff",
                    "channel": 5,
                    "noteNumber": 64,
                    "velocity": 0,
                    "lightChannels": [
                        3
                    ]
                }
            },
            "garden": {
                "pinValue": 1,
                "ticks": 0,
                "event": {
                    "deltaTime": 0,
                    "type": "channel",
                    "subtype": "noteOn",
                    "channel": 5,
                    "noteNumber": 64,
                    "velocity": 111,
                    "lightChannels": [
                        8
                    ]
                }
            }
        }
    },
    {
        "changes": {
            "garden": 0,
            "col-3": 1
        },
        "timeout": 0.1578945,
        "raw": {
            "garden": {
                "pinValue": 0,
                "ticks": 240,
                "event": {
                    "deltaTime": 240,
                    "type": "channel",
                    "subtype": "noteOff",
                    "channel": 5,
                    "noteNumber": 64,
                    "velocity": 0,
                    "lightChannels": [
                        8
                    ]
                }
            },
            "col-3": {
                "pinValue": 1,
                "ticks": 0,
                "event": {
                    "deltaTime": 0,
                    "type": "channel",
                    "subtype": "noteOn",
                    "channel": 5,
                    "noteNumber": 59,
                    "velocity": 111,
                    "lightChannels": [
                        5
                    ]
                }
            }
        }
    },
    {
        "changes": {
            "col-3": 0,
            "tree": 1
        },
        "timeout": 0.1578945,
        "raw": {
            "col-3": {
                "pinValue": 0,
                "ticks": 240,
                "event": {
                    "deltaTime": 240,
                    "type": "channel",
                    "subtype": "noteOff",
                    "channel": 5,
                    "noteNumber": 59,
                    "velocity": 0,
                    "lightChannels": [
                        5
                    ]
                }
            },
            "tree": {
                "pinValue": 1,
                "ticks": 0,
                "event": {
                    "deltaTime": 0,
                    "type": "channel",
                    "subtype": "noteOn",
                    "channel": 5,
                    "noteNumber": 59,
                    "velocity": 111,
                    "lightChannels": [
                        9
                    ]
                }
            }
        }
    },
    {
        "changes": {
            "tree": 0,
            "col-2": 1
        },
        "timeout": 0.1578945,
        "raw": {
            "tree": {
                "pinValue": 0,
                "ticks": 240,
                "event": {
                    "deltaTime": 240,
                    "type": "channel",
                    "subtype": "noteOff",
                    "channel": 5,
                    "noteNumber": 59,
                    "velocity": 0,
                    "lightChannels": [
                        9
                    ]
                }
            },
            "col-2": {
                "pinValue": 1,
                "ticks": 0,
                "event": {
                    "deltaTime": 0,
                    "type": "channel",
                    "subtype": "noteOn",
                    "channel": 5,
                    "noteNumber": 64,
                    "velocity": 111,
                    "lightChannels": [
                        4
                    ]
                }
            }
        }
    },
    {
        "changes": {
            "col-2": 0
        },
        "timeout": 0.1578945,
        "raw": {
            "col-2": {
                "pinValue": 0,
                "ticks": 240,
                "event": {
                    "deltaTime": 240,
                    "type": "channel",
                    "subtype": "noteOff",
                    "channel": 5,
                    "noteNumber": 64,
                    "velocity": 0,
                    "lightChannels": [
                        4
                    ]
                }
            }
        }
    },
    {
        "changes": {
            "col-1": 1
        },
        "timeout": 0.1578945,
        "raw": {
            "col-1": {
                "pinValue": 1,
                "ticks": 240,
                "event": {
                    "deltaTime": 240,
                    "type": "channel",
                    "subtype": "noteOn",
                    "channel": 5,
                    "noteNumber": 64,
                    "velocity": 111,
                    "lightChannels": [
                        3
                    ]
                }
            }
        }
    },
    {
        "changes": {
            "col-1": 0,
            "garden": 1
        },
        "timeout": 0.1578945,
        "raw": {
            "col-1": {
                "pinValue": 0,
                "ticks": 240,
                "event": {
                    "deltaTime": 240,
                    "type": "channel",
                    "subtype": "noteOff",
                    "channel": 5,
                    "noteNumber": 64,
                    "velocity": 0,
                    "lightChannels": [
                        3
                    ]
                }
            },
            "garden": {
                "pinValue": 1,
                "ticks": 0,
                "event": {
                    "deltaTime": 0,
                    "type": "channel",
                    "subtype": "noteOn",
                    "channel": 5,
                    "noteNumber": 64,
                    "velocity": 111,
                    "lightChannels": [
                        8
                    ]
                }
            }
        }
    },
    {
        "changes": {
            "garden": 0,
            "col-3": 1
        },
        "timeout": 0.1578945,
        "raw": {
            "garden": {
                "pinValue": 0,
                "ticks": 240,
                "event": {
                    "deltaTime": 240,
                    "type": "channel",
                    "subtype": "noteOff",
                    "channel": 5,
                    "noteNumber": 64,
                    "velocity": 0,
                    "lightChannels": [
                        8
                    ]
                }
            },
            "col-3": {
                "pinValue": 1,
                "ticks": 0,
                "event": {
                    "deltaTime": 0,
                    "type": "channel",
                    "subtype": "noteOn",
                    "channel": 5,
                    "noteNumber": 59,
                    "velocity": 111,
                    "lightChannels": [
                        5
                    ]
                }
            }
        }
    },
    {
        "changes": {
            "col-3": 0,
            "tree": 1
        },
        "timeout": 0.1578945,
        "raw": {
            "col-3": {
                "pinValue": 0,
                "ticks": 240,
                "event": {
                    "deltaTime": 240,
                    "type": "channel",
                    "subtype": "noteOff",
                    "channel": 5,
                    "noteNumber": 59,
                    "velocity": 0,
                    "lightChannels": [
                        5
                    ]
                }
            },
            "tree": {
                "pinValue": 1,
                "ticks": 0,
                "event": {
                    "deltaTime": 0,
                    "type": "channel",
                    "subtype": "noteOn",
                    "channel": 5,
                    "noteNumber": 59,
                    "velocity": 111,
                    "lightChannels": [
                        9
                    ]
                }
            }
        }
    },
    {
        "changes": {
            "tree": 0,
            "col-2": 1
        },
        "timeout": 0.1578945,
        "raw": {
            "tree": {
                "pinValue": 0,
                "ticks": 240,
                "event": {
                    "deltaTime": 240,
                    "type": "channel",
                    "subtype": "noteOff",
                    "channel": 5,
                    "noteNumber": 59,
                    "velocity": 0,
                    "lightChannels": [
                        9
                    ]
                }
            },
            "col-2": {
                "pinValue": 1,
                "ticks": 0,
                "event": {
                    "deltaTime": 0,
                    "type": "channel",
                    "subtype": "noteOn",
                    "channel": 5,
                    "noteNumber": 64,
                    "velocity": 111,
                    "lightChannels": [
                        4
                    ]
                }
            }
        }
    },
    {
        "changes": {
            "col-2": 0
        },
        "timeout": 0.1578945,
        "raw": {
            "col-2": {
                "pinValue": 0,
                "ticks": 240,
                "event": {
                    "deltaTime": 240,
                    "type": "channel",
                    "subtype": "noteOff",
                    "channel": 5,
                    "noteNumber": 64,
                    "velocity": 0,
                    "lightChannels": [
                        4
                    ]
                }
            }
        }
    },
    {
        "changes": {
            "col-1": 1
        },
        "timeout": 0.1578945,
        "raw": {
            "col-1": {
                "pinValue": 1,
                "ticks": 240,
                "event": {
                    "deltaTime": 240,
                    "type": "channel",
                    "subtype": "noteOn",
                    "channel": 5,
                    "noteNumber": 64,
                    "velocity": 111,
                    "lightChannels": [
                        3
                    ]
                }
            }
        }
    },
    {
        "changes": {
            "col-1": 0,
            "garden": 1
        },
        "timeout": 0.1578945,
        "raw": {
            "col-1": {
                "pinValue": 0,
                "ticks": 240,
                "event": {
                    "deltaTime": 240,
                    "type": "channel",
                    "subtype": "noteOff",
                    "channel": 5,
                    "noteNumber": 64,
                    "velocity": 0,
                    "lightChannels": [
                        3
                    ]
                }
            },
            "garden": {
                "pinValue": 1,
                "ticks": 0,
                "event": {
                    "deltaTime": 0,
                    "type": "channel",
                    "subtype": "noteOn",
                    "channel": 5,
                    "noteNumber": 64,
                    "velocity": 111,
                    "lightChannels": [
                        8
                    ]
                }
            }
        }
    },
    {
        "changes": {
            "garden": 0,
            "col-3": 1
        },
        "timeout": 0.1578945,
        "raw": {
            "garden": {
                "pinValue": 0,
                "ticks": 240,
                "event": {
                    "deltaTime": 240,
                    "type": "channel",
                    "subtype": "noteOff",
                    "channel": 5,
                    "noteNumber": 64,
                    "velocity": 0,
                    "lightChannels": [
                        8
                    ]
                }
            },
            "col-3": {
                "pinValue": 1,
                "ticks": 0,
                "event": {
                    "deltaTime": 0,
                    "type": "channel",
                    "subtype": "noteOn",
                    "channel": 5,
                    "noteNumber": 59,
                    "velocity": 111,
                    "lightChannels": [
                        5
                    ]
                }
            }
        }
    },
    {
        "changes": {
            "col-3": 0,
            "tree": 1
        },
        "timeout": 0.1578945,
        "raw": {
            "col-3": {
                "pinValue": 0,
                "ticks": 240,
                "event": {
                    "deltaTime": 240,
                    "type": "channel",
                    "subtype": "noteOff",
                    "channel": 5,
                    "noteNumber": 59,
                    "velocity": 0,
                    "lightChannels": [
                        5
                    ]
                }
            },
            "tree": {
                "pinValue": 1,
                "ticks": 0,
                "event": {
                    "deltaTime": 0,
                    "type": "channel",
                    "subtype": "noteOn",
                    "channel": 5,
                    "noteNumber": 59,
                    "velocity": 111,
                    "lightChannels": [
                        9
                    ]
                }
            }
        }
    },
    {
        "changes": {
            "tree": 0,
            "col-1": 1
        },
        "timeout": 0.1578945,
        "raw": {
            "tree": {
                "pinValue": 0,
                "ticks": 240,
                "event": {
                    "deltaTime": 240,
                    "type": "channel",
                    "subtype": "noteOff",
                    "channel": 5,
                    "noteNumber": 59,
                    "velocity": 0,
                    "lightChannels": [
                        9
                    ]
                }
            },
            "col-1": {
                "pinValue": 1,
                "ticks": 0,
                "event": {
                    "deltaTime": 0,
                    "type": "channel",
                    "subtype": "noteOn",
                    "channel": 5,
                    "noteNumber": 64,
                    "velocity": 111,
                    "lightChannels": [
                        3
                    ]
                }
            }
        }
    },
    {
        "changes": {
            "col-1": 0
        },
        "timeout": 0.1578945,
        "raw": {
            "col-1": {
                "pinValue": 0,
                "ticks": 240,
                "event": {
                    "deltaTime": 240,
                    "type": "channel",
                    "subtype": "noteOff",
                    "channel": 5,
                    "noteNumber": 64,
                    "velocity": 0,
                    "lightChannels": [
                        3
                    ]
                }
            }
        }
    },
    {
        "changes": {
            "tree": 1
        },
        "timeout": 0.1578945,
        "raw": {
            "tree": {
                "pinValue": 1,
                "ticks": 240,
                "event": {
                    "deltaTime": 240,
                    "type": "channel",
                    "subtype": "noteOn",
                    "channel": 5,
                    "noteNumber": 59,
                    "velocity": 111,
                    "lightChannels": [
                        9
                    ]
                }
            }
        }
    },
    {
        "changes": {
            "tree": 0,
            "col-3": 1
        },
        "timeout": 0.1578945,
        "raw": {
            "tree": {
                "pinValue": 0,
                "ticks": 240,
                "event": {
                    "deltaTime": 240,
                    "type": "channel",
                    "subtype": "noteOff",
                    "channel": 5,
                    "noteNumber": 59,
                    "velocity": 0,
                    "lightChannels": [
                        9
                    ]
                }
            },
            "col-3": {
                "pinValue": 1,
                "ticks": 0,
                "event": {
                    "deltaTime": 0,
                    "type": "channel",
                    "subtype": "noteOn",
                    "channel": 5,
                    "noteNumber": 64,
                    "velocity": 111,
                    "lightChannels": [
                        5
                    ]
                }
            }
        }
    },
    {
        "changes": {
            "col-3": 0,
            "garden": 1
        },
        "timeout": 0.1578945,
        "raw": {
            "col-3": {
                "pinValue": 0,
                "ticks": 240,
                "event": {
                    "deltaTime": 240,
                    "type": "channel",
                    "subtype": "noteOff",
                    "channel": 5,
                    "noteNumber": 64,
                    "velocity": 0,
                    "lightChannels": [
                        5
                    ]
                }
            },
            "garden": {
                "pinValue": 1,
                "ticks": 0,
                "event": {
                    "deltaTime": 0,
                    "type": "channel",
                    "subtype": "noteOn",
                    "channel": 5,
                    "noteNumber": 59,
                    "velocity": 111,
                    "lightChannels": [
                        8
                    ]
                }
            }
        }
    },
    {
        "changes": {
            "garden": 0,
            "tree": 1
        },
        "timeout": 0.1578945,
        "raw": {
            "garden": {
                "pinValue": 0,
                "ticks": 240,
                "event": {
                    "deltaTime": 240,
                    "type": "channel",
                    "subtype": "noteOff",
                    "channel": 5,
                    "noteNumber": 59,
                    "velocity": 0,
                    "lightChannels": [
                        8
                    ]
                }
            },
            "tree": {
                "pinValue": 1,
                "ticks": 0,
                "event": {
                    "deltaTime": 0,
                    "type": "channel",
                    "subtype": "noteOn",
                    "channel": 5,
                    "noteNumber": 59,
                    "velocity": 111,
                    "lightChannels": [
                        9
                    ]
                }
            }
        }
    },
    {
        "changes": {
            "tree": 0,
            "col-2": 1
        },
        "timeout": 0.1578945,
        "raw": {
            "tree": {
                "pinValue": 0,
                "ticks": 240,
                "event": {
                    "deltaTime": 240,
                    "type": "channel",
                    "subtype": "noteOff",
                    "channel": 5,
                    "noteNumber": 59,
                    "velocity": 0,
                    "lightChannels": [
                        9
                    ]
                }
            },
            "col-2": {
                "pinValue": 1,
                "ticks": 0,
                "event": {
                    "deltaTime": 0,
                    "type": "channel",
                    "subtype": "noteOn",
                    "channel": 5,
                    "noteNumber": 64,
                    "velocity": 111,
                    "lightChannels": [
                        4
                    ]
                }
            }
        }
    },
    {
        "changes": {
            "col-2": 0
        },
        "timeout": 0.1578945,
        "raw": {
            "col-2": {
                "pinValue": 0,
                "ticks": 240,
                "event": {
                    "deltaTime": 240,
                    "type": "channel",
                    "subtype": "noteOff",
                    "channel": 5,
                    "noteNumber": 64,
                    "velocity": 0,
                    "lightChannels": [
                        4
                    ]
                }
            }
        }
    },
    {
        "changes": {
            "col-1": 1
        },
        "timeout": 0.1578945,
        "raw": {
            "col-1": {
                "pinValue": 1,
                "ticks": 240,
                "event": {
                    "deltaTime": 240,
                    "type": "channel",
                    "subtype": "noteOn",
                    "channel": 5,
                    "noteNumber": 64,
                    "velocity": 111,
                    "lightChannels": [
                        3
                    ]
                }
            }
        }
    },
    {
        "changes": {
            "col-1": 0,
            "garden": 1
        },
        "timeout": 0.1578945,
        "raw": {
            "col-1": {
                "pinValue": 0,
                "ticks": 240,
                "event": {
                    "deltaTime": 240,
                    "type": "channel",
                    "subtype": "noteOff",
                    "channel": 5,
                    "noteNumber": 64,
                    "velocity": 0,
                    "lightChannels": [
                        3
                    ]
                }
            },
            "garden": {
                "pinValue": 1,
                "ticks": 0,
                "event": {
                    "deltaTime": 0,
                    "type": "channel",
                    "subtype": "noteOn",
                    "channel": 5,
                    "noteNumber": 64,
                    "velocity": 111,
                    "lightChannels": [
                        8
                    ]
                }
            }
        }
    },
    {
        "changes": {
            "garden": 0,
            "col-3": 1
        },
        "timeout": 0.1578945,
        "raw": {
            "garden": {
                "pinValue": 0,
                "ticks": 240,
                "event": {
                    "deltaTime": 240,
                    "type": "channel",
                    "subtype": "noteOff",
                    "channel": 5,
                    "noteNumber": 64,
                    "velocity": 0,
                    "lightChannels": [
                        8
                    ]
                }
            },
            "col-3": {
                "pinValue": 1,
                "ticks": 0,
                "event": {
                    "deltaTime": 0,
                    "type": "channel",
                    "subtype": "noteOn",
                    "channel": 5,
                    "noteNumber": 59,
                    "velocity": 111,
                    "lightChannels": [
                        5
                    ]
                }
            }
        }
    },
    {
        "changes": {
            "col-3": 0,
            "tree": 1
        },
        "timeout": 0.1578945,
        "raw": {
            "col-3": {
                "pinValue": 0,
                "ticks": 240,
                "event": {
                    "deltaTime": 240,
                    "type": "channel",
                    "subtype": "noteOff",
                    "channel": 5,
                    "noteNumber": 59,
                    "velocity": 0,
                    "lightChannels": [
                        5
                    ]
                }
            },
            "tree": {
                "pinValue": 1,
                "ticks": 0,
                "event": {
                    "deltaTime": 0,
                    "type": "channel",
                    "subtype": "noteOn",
                    "channel": 5,
                    "noteNumber": 59,
                    "velocity": 111,
                    "lightChannels": [
                        9
                    ]
                }
            }
        }
    },
    {
        "changes": {
            "tree": 0,
            "col-2": 1
        },
        "timeout": 0.1578945,
        "raw": {
            "tree": {
                "pinValue": 0,
                "ticks": 240,
                "event": {
                    "deltaTime": 240,
                    "type": "channel",
                    "subtype": "noteOff",
                    "channel": 5,
                    "noteNumber": 59,
                    "velocity": 0,
                    "lightChannels": [
                        9
                    ]
                }
            },
            "col-2": {
                "pinValue": 1,
                "ticks": 0,
                "event": {
                    "deltaTime": 0,
                    "type": "channel",
                    "subtype": "noteOn",
                    "channel": 5,
                    "noteNumber": 64,
                    "velocity": 111,
                    "lightChannels": [
                        4
                    ]
                }
            }
        }
    },
    {
        "changes": {
            "col-2": 0
        },
        "timeout": 0.1578945,
        "raw": {
            "col-2": {
                "pinValue": 0,
                "ticks": 240,
                "event": {
                    "deltaTime": 240,
                    "type": "channel",
                    "subtype": "noteOff",
                    "channel": 5,
                    "noteNumber": 64,
                    "velocity": 0,
                    "lightChannels": [
                        4
                    ]
                }
            }
        }
    },
    {
        "changes": {
            "col-1": 1
        },
        "timeout": 0.1578945,
        "raw": {
            "col-1": {
                "pinValue": 1,
                "ticks": 240,
                "event": {
                    "deltaTime": 240,
                    "type": "channel",
                    "subtype": "noteOn",
                    "channel": 5,
                    "noteNumber": 64,
                    "velocity": 111,
                    "lightChannels": [
                        3
                    ]
                }
            }
        }
    },
    {
        "changes": {
            "col-1": 0,
            "garden": 1
        },
        "timeout": 0.1578945,
        "raw": {
            "col-1": {
                "pinValue": 0,
                "ticks": 240,
                "event": {
                    "deltaTime": 240,
                    "type": "channel",
                    "subtype": "noteOff",
                    "channel": 5,
                    "noteNumber": 64,
                    "velocity": 0,
                    "lightChannels": [
                        3
                    ]
                }
            },
            "garden": {
                "pinValue": 1,
                "ticks": 0,
                "event": {
                    "deltaTime": 0,
                    "type": "channel",
                    "subtype": "noteOn",
                    "channel": 5,
                    "noteNumber": 64,
                    "velocity": 111,
                    "lightChannels": [
                        8
                    ]
                }
            }
        }
    },
    {
        "changes": {
            "garden": 0,
            "col-3": 1
        },
        "timeout": 0.1578945,
        "raw": {
            "garden": {
                "pinValue": 0,
                "ticks": 240,
                "event": {
                    "deltaTime": 240,
                    "type": "channel",
                    "subtype": "noteOff",
                    "channel": 5,
                    "noteNumber": 64,
                    "velocity": 0,
                    "lightChannels": [
                        8
                    ]
                }
            },
            "col-3": {
                "pinValue": 1,
                "ticks": 0,
                "event": {
                    "deltaTime": 0,
                    "type": "channel",
                    "subtype": "noteOn",
                    "channel": 5,
                    "noteNumber": 59,
                    "velocity": 111,
                    "lightChannels": [
                        5
                    ]
                }
            }
        }
    },
    {
        "changes": {
            "col-3": 0,
            "tree": 1
        },
        "timeout": 0.1578945,
        "raw": {
            "col-3": {
                "pinValue": 0,
                "ticks": 240,
                "event": {
                    "deltaTime": 240,
                    "type": "channel",
                    "subtype": "noteOff",
                    "channel": 5,
                    "noteNumber": 59,
                    "velocity": 0,
                    "lightChannels": [
                        5
                    ]
                }
            },
            "tree": {
                "pinValue": 1,
                "ticks": 0,
                "event": {
                    "deltaTime": 0,
                    "type": "channel",
                    "subtype": "noteOn",
                    "channel": 5,
                    "noteNumber": 59,
                    "velocity": 111,
                    "lightChannels": [
                        9
                    ]
                }
            }
        }
    },
    {
        "changes": {
            "tree": 0,
            "col-2": 1
        },
        "timeout": 0.1578945,
        "raw": {
            "tree": {
                "pinValue": 0,
                "ticks": 240,
                "event": {
                    "deltaTime": 240,
                    "type": "channel",
                    "subtype": "noteOff",
                    "channel": 5,
                    "noteNumber": 59,
                    "velocity": 0,
                    "lightChannels": [
                        9
                    ]
                }
            },
            "col-2": {
                "pinValue": 1,
                "ticks": 0,
                "event": {
                    "deltaTime": 0,
                    "type": "channel",
                    "subtype": "noteOn",
                    "channel": 5,
                    "noteNumber": 64,
                    "velocity": 111,
                    "lightChannels": [
                        4
                    ]
                }
            }
        }
    },
    {
        "changes": {
            "col-2": 0
        },
        "timeout": 0.1578945,
        "raw": {
            "col-2": {
                "pinValue": 0,
                "ticks": 240,
                "event": {
                    "deltaTime": 240,
                    "type": "channel",
                    "subtype": "noteOff",
                    "channel": 5,
                    "noteNumber": 64,
                    "velocity": 0,
                    "lightChannels": [
                        4
                    ]
                }
            }
        }
    },
    {
        "changes": {
            "col-1": 1
        },
        "timeout": 0.1578945,
        "raw": {
            "col-1": {
                "pinValue": 1,
                "ticks": 240,
                "event": {
                    "deltaTime": 240,
                    "type": "channel",
                    "subtype": "noteOn",
                    "channel": 5,
                    "noteNumber": 64,
                    "velocity": 111,
                    "lightChannels": [
                        3
                    ]
                }
            }
        }
    },
    {
        "changes": {
            "col-1": 0,
            "garden": 1
        },
        "timeout": 0.1578945,
        "raw": {
            "col-1": {
                "pinValue": 0,
                "ticks": 240,
                "event": {
                    "deltaTime": 240,
                    "type": "channel",
                    "subtype": "noteOff",
                    "channel": 5,
                    "noteNumber": 64,
                    "velocity": 0,
                    "lightChannels": [
                        3
                    ]
                }
            },
            "garden": {
                "pinValue": 1,
                "ticks": 0,
                "event": {
                    "deltaTime": 0,
                    "type": "channel",
                    "subtype": "noteOn",
                    "channel": 5,
                    "noteNumber": 64,
                    "velocity": 111,
                    "lightChannels": [
                        8
                    ]
                }
            }
        }
    },
    {
        "changes": {
            "garden": 0,
            "col-3": 1
        },
        "timeout": 0.1578945,
        "raw": {
            "garden": {
                "pinValue": 0,
                "ticks": 240,
                "event": {
                    "deltaTime": 240,
                    "type": "channel",
                    "subtype": "noteOff",
                    "channel": 5,
                    "noteNumber": 64,
                    "velocity": 0,
                    "lightChannels": [
                        8
                    ]
                }
            },
            "col-3": {
                "pinValue": 1,
                "ticks": 0,
                "event": {
                    "deltaTime": 0,
                    "type": "channel",
                    "subtype": "noteOn",
                    "channel": 5,
                    "noteNumber": 59,
                    "velocity": 111,
                    "lightChannels": [
                        5
                    ]
                }
            }
        }
    },
    {
        "changes": {
            "col-3": 0,
            "tree": 1
        },
        "timeout": 0.1578945,
        "raw": {
            "col-3": {
                "pinValue": 0,
                "ticks": 240,
                "event": {
                    "deltaTime": 240,
                    "type": "channel",
                    "subtype": "noteOff",
                    "channel": 5,
                    "noteNumber": 59,
                    "velocity": 0,
                    "lightChannels": [
                        5
                    ]
                }
            },
            "tree": {
                "pinValue": 1,
                "ticks": 0,
                "event": {
                    "deltaTime": 0,
                    "type": "channel",
                    "subtype": "noteOn",
                    "channel": 5,
                    "noteNumber": 59,
                    "velocity": 111,
                    "lightChannels": [
                        9
                    ]
                }
            }
        }
    },
    {
        "changes": {
            "tree": 0,
            "col-2": 1
        },
        "timeout": 0.1578945,
        "raw": {
            "tree": {
                "pinValue": 0,
                "ticks": 240,
                "event": {
                    "deltaTime": 240,
                    "type": "channel",
                    "subtype": "noteOff",
                    "channel": 5,
                    "noteNumber": 59,
                    "velocity": 0,
                    "lightChannels": [
                        9
                    ]
                }
            },
            "col-2": {
                "pinValue": 1,
                "ticks": 0,
                "event": {
                    "deltaTime": 0,
                    "type": "channel",
                    "subtype": "noteOn",
                    "channel": 5,
                    "noteNumber": 64,
                    "velocity": 111,
                    "lightChannels": [
                        4
                    ]
                }
            }
        }
    },
    {
        "changes": {
            "col-2": 0
        },
        "timeout": 0.1578945,
        "raw": {
            "col-2": {
                "pinValue": 0,
                "ticks": 240,
                "event": {
                    "deltaTime": 240,
                    "type": "channel",
                    "subtype": "noteOff",
                    "channel": 5,
                    "noteNumber": 64,
                    "velocity": 0,
                    "lightChannels": [
                        4
                    ]
                }
            }
        }
    },
    {
        "changes": {
            "col-1": 1
        },
        "timeout": 0.1578945,
        "raw": {
            "col-1": {
                "pinValue": 1,
                "ticks": 240,
                "event": {
                    "deltaTime": 240,
                    "type": "channel",
                    "subtype": "noteOn",
                    "channel": 5,
                    "noteNumber": 59,
                    "velocity": 111,
                    "lightChannels": [
                        3
                    ]
                }
            }
        }
    },
    {
        "changes": {
            "col-1": 0,
            "garden": 1
        },
        "timeout": 0.1578945,
        "raw": {
            "col-1": {
                "pinValue": 0,
                "ticks": 240,
                "event": {
                    "deltaTime": 240,
                    "type": "channel",
                    "subtype": "noteOff",
                    "channel": 5,
                    "noteNumber": 59,
                    "velocity": 0,
                    "lightChannels": [
                        3
                    ]
                }
            },
            "garden": {
                "pinValue": 1,
                "ticks": 0,
                "event": {
                    "deltaTime": 0,
                    "type": "channel",
                    "subtype": "noteOn",
                    "channel": 5,
                    "noteNumber": 64,
                    "velocity": 111,
                    "lightChannels": [
                        8
                    ]
                }
            }
        }
    },
    {
        "changes": {
            "garden": 0,
            "col-3": 1
        },
        "timeout": 0.1578945,
        "raw": {
            "garden": {
                "pinValue": 0,
                "ticks": 240,
                "event": {
                    "deltaTime": 240,
                    "type": "channel",
                    "subtype": "noteOff",
                    "channel": 5,
                    "noteNumber": 64,
                    "velocity": 0,
                    "lightChannels": [
                        8
                    ]
                }
            },
            "col-3": {
                "pinValue": 1,
                "ticks": 0,
                "event": {
                    "deltaTime": 0,
                    "type": "channel",
                    "subtype": "noteOn",
                    "channel": 5,
                    "noteNumber": 59,
                    "velocity": 111,
                    "lightChannels": [
                        5
                    ]
                }
            }
        }
    },
    {
        "changes": {
            "col-3": 0,
            "tree": 1
        },
        "timeout": 0.1578945,
        "raw": {
            "col-3": {
                "pinValue": 0,
                "ticks": 240,
                "event": {
                    "deltaTime": 240,
                    "type": "channel",
                    "subtype": "noteOff",
                    "channel": 5,
                    "noteNumber": 59,
                    "velocity": 0,
                    "lightChannels": [
                        5
                    ]
                }
            },
            "tree": {
                "pinValue": 1,
                "ticks": 0,
                "event": {
                    "deltaTime": 0,
                    "type": "channel",
                    "subtype": "noteOn",
                    "channel": 5,
                    "noteNumber": 59,
                    "velocity": 111,
                    "lightChannels": [
                        9
                    ]
                }
            }
        }
    },
    {
        "changes": {
            "tree": 0,
            "col-2": 1
        },
        "timeout": 0.1578945,
        "raw": {
            "tree": {
                "pinValue": 0,
                "ticks": 240,
                "event": {
                    "deltaTime": 240,
                    "type": "channel",
                    "subtype": "noteOff",
                    "channel": 5,
                    "noteNumber": 59,
                    "velocity": 0,
                    "lightChannels": [
                        9
                    ]
                }
            },
            "col-2": {
                "pinValue": 1,
                "ticks": 0,
                "event": {
                    "deltaTime": 0,
                    "type": "channel",
                    "subtype": "noteOn",
                    "channel": 5,
                    "noteNumber": 64,
                    "velocity": 111,
                    "lightChannels": [
                        4
                    ]
                }
            }
        }
    },
    {
        "changes": {
            "col-2": 0
        },
        "timeout": 0.1578945,
        "raw": {
            "col-2": {
                "pinValue": 0,
                "ticks": 240,
                "event": {
                    "deltaTime": 240,
                    "type": "channel",
                    "subtype": "noteOff",
                    "channel": 5,
                    "noteNumber": 64,
                    "velocity": 0,
                    "lightChannels": [
                        4
                    ]
                }
            }
        }
    },
    {
        "changes": {
            "col-3": 1
        },
        "timeout": 0.1578945,
        "raw": {
            "col-3": {
                "pinValue": 1,
                "ticks": 240,
                "event": {
                    "deltaTime": 240,
                    "type": "channel",
                    "subtype": "noteOn",
                    "channel": 5,
                    "noteNumber": 64,
                    "velocity": 111,
                    "lightChannels": [
                        5
                    ]
                }
            }
        }
    },
    {
        "changes": {
            "col-3": 0
        },
        "timeout": 0.1578945,
        "raw": {
            "col-3": {
                "pinValue": 0,
                "ticks": 240,
                "event": {
                    "deltaTime": 240,
                    "type": "channel",
                    "subtype": "noteOff",
                    "channel": 5,
                    "noteNumber": 64,
                    "velocity": 0,
                    "lightChannels": [
                        5
                    ]
                }
            }
        }
    },
    {
        "changes": {},
        "timeout": 0.1578945,
        "raw": {}
    }
]