[
    {
        "changes": {
            "window": 1,
            "outline": 1
        },
        "timeout": 0.010593208333333333,
        "raw": {
            "window": {
                "pinValue": 1,
                "ticks": 9,
                "event": {
                    "deltaTime": 9,
                    "type": "channel",
                    "subtype": "noteOn",
                    "channel": 9,
                    "noteNumber": 54,
                    "velocity": 84,
                    "lightChannels": [
                        6,
                        7
                    ]
                }
            },
            "outline": {
                "pinValue": 1,
                "ticks": 9,
                "event": {
                    "deltaTime": 9,
                    "type": "channel",
                    "subtype": "noteOn",
                    "channel": 9,
                    "noteNumber": 54,
                    "velocity": 84,
                    "lightChannels": [
                        6,
                        7
                    ]
                }
            }
        }
    },
    {
        "changes": {
            "window": 0,
            "outline": 0
        },
        "timeout": 0.07097449583333333,
        "raw": {
            "window": {
                "pinValue": 0,
                "ticks": 66,
                "event": {
                    "deltaTime": 66,
                    "type": "channel",
                    "subtype": "noteOff",
                    "channel": 9,
                    "noteNumber": 54,
                    "velocity": 0,
                    "lightChannels": [
                        6,
                        7
                    ]
                }
            },
            "outline": {
                "pinValue": 0,
                "ticks": 66,
                "event": {
                    "deltaTime": 66,
                    "type": "channel",
                    "subtype": "noteOff",
                    "channel": 9,
                    "noteNumber": 54,
                    "velocity": 0,
                    "lightChannels": [
                        6,
                        7
                    ]
                }
            }
        }
    },
    {
        "changes": {
            "window": 1,
            "outline": 1,
            "col-1": 1
        },
        "timeout": 0.19491503333333335,
        "raw": {
            "window": {
                "pinValue": 1,
                "ticks": 9,
                "event": {
                    "deltaTime": 9,
                    "type": "channel",
                    "subtype": "noteOn",
                    "channel": 9,
                    "noteNumber": 54,
                    "velocity": 76,
                    "lightChannels": [
                        6,
                        7
                    ]
                }
            },
            "outline": {
                "pinValue": 1,
                "ticks": 9,
                "event": {
                    "deltaTime": 9,
                    "type": "channel",
                    "subtype": "noteOn",
                    "channel": 9,
                    "noteNumber": 54,
                    "velocity": 76,
                    "lightChannels": [
                        6,
                        7
                    ]
                }
            },
            "col-1": {
                "pinValue": 1,
                "ticks": 0,
                "event": {
                    "deltaTime": 0,
                    "type": "channel",
                    "subtype": "noteOn",
                    "channel": 2,
                    "noteNumber": 77,
                    "velocity": 123,
                    "lightChannels": [
                        3
                    ]
                }
            }
        }
    },
    {
        "changes": {
            "window": 0,
            "outline": 0
        },
        "timeout": 0.06355924999999998,
        "raw": {
            "window": {
                "pinValue": 0,
                "ticks": 11,
                "event": {
                    "deltaTime": 11,
                    "type": "channel",
                    "subtype": "noteOff",
                    "channel": 9,
                    "noteNumber": 54,
                    "velocity": 0,
                    "lightChannels": [
                        6,
                        7
                    ]
                }
            },
            "outline": {
                "pinValue": 0,
                "ticks": 11,
                "event": {
                    "deltaTime": 11,
                    "type": "channel",
                    "subtype": "noteOff",
                    "channel": 9,
                    "noteNumber": 54,
                    "velocity": 0,
                    "lightChannels": [
                        6,
                        7
                    ]
                }
            }
        }
    },
    {
        "changes": {
            "col-1": 0
        },
        "timeout": 0.031779625,
        "raw": {
            "col-1": {
                "pinValue": 0,
                "ticks": 29,
                "event": {
                    "deltaTime": 29,
                    "type": "channel",
                    "subtype": "noteOff",
                    "channel": 2,
                    "noteNumber": 77,
                    "velocity": 0,
                    "lightChannels": [
                        3
                    ]
                }
            }
        }
    },
    {
        "changes": {
            "col-2": 1
        },
        "timeout": 0.15889812499999997,
        "raw": {
            "col-2": {
                "pinValue": 1,
                "ticks": 9,
                "event": {
                    "deltaTime": 9,
                    "type": "channel",
                    "subtype": "noteOn",
                    "channel": 2,
                    "noteNumber": 72,
                    "velocity": 123,
                    "lightChannels": [
                        4
                    ]
                }
            }
        }
    },
    {
        "changes": {
            "window": 1,
            "outline": 1
        },
        "timeout": 0.0010593208333333332,
        "raw": {
            "window": {
                "pinValue": 1,
                "ticks": 1,
                "event": {
                    "deltaTime": 1,
                    "type": "channel",
                    "subtype": "noteOn",
                    "channel": 9,
                    "noteNumber": 54,
                    "velocity": 74,
                    "lightChannels": [
                        6,
                        7
                    ]
                }
            },
            "outline": {
                "pinValue": 1,
                "ticks": 1,
                "event": {
                    "deltaTime": 1,
                    "type": "channel",
                    "subtype": "noteOn",
                    "channel": 9,
                    "noteNumber": 54,
                    "velocity": 74,
                    "lightChannels": [
                        6,
                        7
                    ]
                }
            }
        }
    },
    {
        "changes": {
            "window": 0,
            "outline": 0
        },
        "timeout": 0.05614400416666666,
        "raw": {
            "window": {
                "pinValue": 0,
                "ticks": 53,
                "event": {
                    "deltaTime": 53,
                    "type": "channel",
                    "subtype": "noteOff",
                    "channel": 9,
                    "noteNumber": 54,
                    "velocity": 0,
                    "lightChannels": [
                        6,
                        7
                    ]
                }
            },
            "outline": {
                "pinValue": 0,
                "ticks": 53,
                "event": {
                    "deltaTime": 53,
                    "type": "channel",
                    "subtype": "noteOff",
                    "channel": 9,
                    "noteNumber": 54,
                    "velocity": 0,
                    "lightChannels": [
                        6,
                        7
                    ]
                }
            }
        }
    },
    {
        "changes": {
            "col-2": 0
        },
        "timeout": 0.022245737499999994,
        "raw": {
            "col-2": {
                "pinValue": 0,
                "ticks": 17,
                "event": {
                    "deltaTime": 17,
                    "type": "channel",
                    "subtype": "noteOff",
                    "channel": 2,
                    "noteNumber": 72,
                    "velocity": 0,
                    "lightChannels": [
                        4
                    ]
                }
            }
        }
    },
    {
        "changes": {
            "col-3": 1
        },
        "timeout": 0.03601690833333333,
        "raw": {
            "col-3": {
                "pinValue": 1,
                "ticks": 11,
                "event": {
                    "deltaTime": 11,
                    "type": "channel",
                    "subtype": "noteOn",
                    "channel": 2,
                    "noteNumber": 70,
                    "velocity": 112,
                    "lightChannels": [
                        5
                    ]
                }
            }
        }
    },
    {
        "changes": {
            "col-3": 0
        },
        "timeout": 0.07415245833333332,
        "raw": {
            "col-3": {
                "pinValue": 0,
                "ticks": 14,
                "event": {
                    "deltaTime": 14,
                    "type": "channel",
                    "subtype": "noteOff",
                    "channel": 2,
                    "noteNumber": 70,
                    "velocity": 0,
                    "lightChannels": [
                        5
                    ]
                }
            }
        }
    },
    {
        "changes": {
            "garden": 1
        },
        "timeout": 0.039194870833333326,
        "raw": {
            "garden": {
                "pinValue": 1,
                "ticks": 5,
                "event": {
                    "deltaTime": 5,
                    "type": "channel",
                    "subtype": "noteOn",
                    "channel": 2,
                    "noteNumber": 65,
                    "velocity": 112,
                    "lightChannels": [
                        8
                    ]
                }
            }
        }
    },
    {
        "changes": {
            "window": 1,
            "outline": 1
        },
        "timeout": 0.0158898125,
        "raw": {
            "window": {
                "pinValue": 1,
                "ticks": 5,
                "event": {
                    "deltaTime": 5,
                    "type": "channel",
                    "subtype": "noteOn",
                    "channel": 9,
                    "noteNumber": 54,
                    "velocity": 84,
                    "lightChannels": [
                        6,
                        7
                    ]
                }
            },
            "outline": {
                "pinValue": 1,
                "ticks": 5,
                "event": {
                    "deltaTime": 5,
                    "type": "channel",
                    "subtype": "noteOn",
                    "channel": 9,
                    "noteNumber": 54,
                    "velocity": 84,
                    "lightChannels": [
                        6,
                        7
                    ]
                }
            }
        }
    },
    {
        "changes": {
            "window": 0,
            "outline": 0
        },
        "timeout": 0.06144060833333332,
        "raw": {
            "window": {
                "pinValue": 0,
                "ticks": 2,
                "event": {
                    "deltaTime": 2,
                    "type": "channel",
                    "subtype": "noteOff",
                    "channel": 9,
                    "noteNumber": 54,
                    "velocity": 0,
                    "lightChannels": [
                        6,
                        7
                    ]
                }
            },
            "outline": {
                "pinValue": 0,
                "ticks": 2,
                "event": {
                    "deltaTime": 2,
                    "type": "channel",
                    "subtype": "noteOff",
                    "channel": 9,
                    "noteNumber": 54,
                    "velocity": 0,
                    "lightChannels": [
                        6,
                        7
                    ]
                }
            }
        }
    },
    {
        "changes": {
            "garden": 0
        },
        "timeout": 0.014830491666666664,
        "raw": {
            "garden": {
                "pinValue": 0,
                "ticks": 2,
                "event": {
                    "deltaTime": 2,
                    "type": "channel",
                    "subtype": "noteOff",
                    "channel": 2,
                    "noteNumber": 65,
                    "velocity": 0,
                    "lightChannels": [
                        8
                    ]
                }
            }
        }
    },
    {
        "changes": {
            "tree": 1
        },
        "timeout": 0.16101676666666662,
        "raw": {
            "tree": {
                "pinValue": 1,
                "ticks": 12,
                "event": {
                    "deltaTime": 12,
                    "type": "channel",
                    "subtype": "noteOn",
                    "channel": 2,
                    "noteNumber": 70,
                    "velocity": 114,
                    "lightChannels": [
                        9
                    ]
                }
            }
        }
    },
    {
        "changes": {
            "window": 1,
            "outline": 1
        },
        "timeout": 0.006355924999999999,
        "raw": {
            "window": {
                "pinValue": 1,
                "ticks": 6,
                "event": {
                    "deltaTime": 6,
                    "type": "channel",
                    "subtype": "noteOn",
                    "channel": 9,
                    "noteNumber": 54,
                    "velocity": 84,
                    "lightChannels": [
                        6,
                        7
                    ]
                }
            },
            "outline": {
                "pinValue": 1,
                "ticks": 6,
                "event": {
                    "deltaTime": 6,
                    "type": "channel",
                    "subtype": "noteOn",
                    "channel": 9,
                    "noteNumber": 54,
                    "velocity": 84,
                    "lightChannels": [
                        6,
                        7
                    ]
                }
            }
        }
    },
    {
        "changes": {
            "window": 0,
            "outline": 0
        },
        "timeout": 0.069915175,
        "raw": {
            "window": {
                "pinValue": 0,
                "ticks": 20,
                "event": {
                    "deltaTime": 20,
                    "type": "channel",
                    "subtype": "noteOff",
                    "channel": 9,
                    "noteNumber": 54,
                    "velocity": 0,
                    "lightChannels": [
                        6,
                        7
                    ]
                }
            },
            "outline": {
                "pinValue": 0,
                "ticks": 20,
                "event": {
                    "deltaTime": 20,
                    "type": "channel",
                    "subtype": "noteOff",
                    "channel": 9,
                    "noteNumber": 54,
                    "velocity": 0,
                    "lightChannels": [
                        6,
                        7
                    ]
                }
            }
        }
    },
    {
        "changes": {
            "tree": 0
        },
        "timeout": 0.0021186416666666664,
        "raw": {
            "tree": {
                "pinValue": 0,
                "ticks": 1,
                "event": {
                    "deltaTime": 1,
                    "type": "channel",
                    "subtype": "noteOff",
                    "channel": 2,
                    "noteNumber": 70,
                    "velocity": 0,
                    "lightChannels": [
                        9
                    ]
                }
            }
        }
    },
    {
        "changes": {
            "col-1": 1,
            "col-2": 1,
            "col-3": 1,
            "garden": 1,
            "tree": 1
        },
        "timeout": 0.17055065416666662,
        "raw": {
            "col-1": {
                "pinValue": 1,
                "ticks": 3,
                "event": {
                    "deltaTime": 3,
                    "type": "channel",
                    "subtype": "noteOn",
                    "channel": 2,
                    "noteNumber": 72,
                    "velocity": 118,
                    "lightChannels": [
                        3,
                        4,
                        5,
                        8,
                        9
                    ]
                }
            },
            "col-2": {
                "pinValue": 1,
                "ticks": 3,
                "event": {
                    "deltaTime": 3,
                    "type": "channel",
                    "subtype": "noteOn",
                    "channel": 2,
                    "noteNumber": 72,
                    "velocity": 118,
                    "lightChannels": [
                        3,
                        4,
                        5,
                        8,
                        9
                    ]
                }
            },
            "col-3": {
                "pinValue": 1,
                "ticks": 3,
                "event": {
                    "deltaTime": 3,
                    "type": "channel",
                    "subtype": "noteOn",
                    "channel": 2,
                    "noteNumber": 72,
                    "velocity": 118,
                    "lightChannels": [
                        3,
                        4,
                        5,
                        8,
                        9
                    ]
                }
            },
            "garden": {
                "pinValue": 1,
                "ticks": 3,
                "event": {
                    "deltaTime": 3,
                    "type": "channel",
                    "subtype": "noteOn",
                    "channel": 2,
                    "noteNumber": 72,
                    "velocity": 118,
                    "lightChannels": [
                        3,
                        4,
                        5,
                        8,
                        9
                    ]
                }
            },
            "tree": {
                "pinValue": 1,
                "ticks": 3,
                "event": {
                    "deltaTime": 3,
                    "type": "channel",
                    "subtype": "noteOn",
                    "channel": 2,
                    "noteNumber": 72,
                    "velocity": 118,
                    "lightChannels": [
                        3,
                        4,
                        5,
                        8,
                        9
                    ]
                }
            }
        }
    },
    {
        "changes": {
            "window": 1,
            "outline": 1
        },
        "timeout": 0.011652529166666665,
        "raw": {
            "window": {
                "pinValue": 1,
                "ticks": 4,
                "event": {
                    "deltaTime": 4,
                    "type": "channel",
                    "subtype": "noteOn",
                    "channel": 9,
                    "noteNumber": 54,
                    "velocity": 81,
                    "lightChannels": [
                        6,
                        7
                    ]
                }
            },
            "outline": {
                "pinValue": 1,
                "ticks": 4,
                "event": {
                    "deltaTime": 4,
                    "type": "channel",
                    "subtype": "noteOn",
                    "channel": 9,
                    "noteNumber": 54,
                    "velocity": 81,
                    "lightChannels": [
                        6,
                        7
                    ]
                }
            }
        }
    },
    {
        "changes": {
            "window": 0,
            "outline": 0
        },
        "timeout": 0.06461857083333332,
        "raw": {
            "window": {
                "pinValue": 0,
                "ticks": 0,
                "event": {
                    "deltaTime": 0,
                    "type": "channel",
                    "subtype": "noteOff",
                    "channel": 9,
                    "noteNumber": 54,
                    "velocity": 0,
                    "lightChannels": [
                        6,
                        7
                    ]
                }
            },
            "outline": {
                "pinValue": 0,
                "ticks": 0,
                "event": {
                    "deltaTime": 0,
                    "type": "channel",
                    "subtype": "noteOff",
                    "channel": 9,
                    "noteNumber": 54,
                    "velocity": 0,
                    "lightChannels": [
                        6,
                        7
                    ]
                }
            }
        }
    },
    {
        "changes": {
            "col-1": 0,
            "col-2": 0,
            "col-3": 0,
            "garden": 0,
            "tree": 0
        },
        "timeout": 0.014830491666666666,
        "raw": {
            "col-1": {
                "pinValue": 0,
                "ticks": 13,
                "event": {
                    "deltaTime": 13,
                    "type": "channel",
                    "subtype": "noteOff",
                    "channel": 2,
                    "noteNumber": 72,
                    "velocity": 0,
                    "lightChannels": [
                        3,
                        4,
                        5,
                        8,
                        9
                    ]
                }
            },
            "col-2": {
                "pinValue": 0,
                "ticks": 13,
                "event": {
                    "deltaTime": 13,
                    "type": "channel",
                    "subtype": "noteOff",
                    "channel": 2,
                    "noteNumber": 72,
                    "velocity": 0,
                    "lightChannels": [
                        3,
                        4,
                        5,
                        8,
                        9
                    ]
                }
            },
            "col-3": {
                "pinValue": 0,
                "ticks": 13,
                "event": {
                    "deltaTime": 13,
                    "type": "channel",
                    "subtype": "noteOff",
                    "channel": 2,
                    "noteNumber": 72,
                    "velocity": 0,
                    "lightChannels": [
                        3,
                        4,
                        5,
                        8,
                        9
                    ]
                }
            },
            "garden": {
                "pinValue": 0,
                "ticks": 13,
                "event": {
                    "deltaTime": 13,
                    "type": "channel",
                    "subtype": "noteOff",
                    "channel": 2,
                    "noteNumber": 72,
                    "velocity": 0,
                    "lightChannels": [
                        3,
                        4,
                        5,
                        8,
                        9
                    ]
                }
            },
            "tree": {
                "pinValue": 0,
                "ticks": 13,
                "event": {
                    "deltaTime": 13,
                    "type": "channel",
                    "subtype": "noteOff",
                    "channel": 2,
                    "noteNumber": 72,
                    "velocity": 0,
                    "lightChannels": [
                        3,
                        4,
                        5,
                        8,
                        9
                    ]
                }
            }
        }
    },
    {
        "changes": {
            "window": 1,
            "outline": 1
        },
        "timeout": 0.17584725833333328,
        "raw": {
            "window": {
                "pinValue": 1,
                "ticks": 2,
                "event": {
                    "deltaTime": 2,
                    "type": "channel",
                    "subtype": "noteOn",
                    "channel": 9,
                    "noteNumber": 54,
                    "velocity": 83,
                    "lightChannels": [
                        6,
                        7
                    ]
                }
            },
            "outline": {
                "pinValue": 1,
                "ticks": 2,
                "event": {
                    "deltaTime": 2,
                    "type": "channel",
                    "subtype": "noteOn",
                    "channel": 9,
                    "noteNumber": 54,
                    "velocity": 83,
                    "lightChannels": [
                        6,
                        7
                    ]
                }
            }
        }
    },
    {
        "changes": {
            "window": 0,
            "outline": 0
        },
        "timeout": 0.06355925,
        "raw": {
            "window": {
                "pinValue": 0,
                "ticks": 60,
                "event": {
                    "deltaTime": 60,
                    "type": "channel",
                    "subtype": "noteOff",
                    "channel": 9,
                    "noteNumber": 54,
                    "velocity": 0,
                    "lightChannels": [
                        6,
                        7
                    ]
                }
            },
            "outline": {
                "pinValue": 0,
                "ticks": 60,
                "event": {
                    "deltaTime": 60,
                    "type": "channel",
                    "subtype": "noteOff",
                    "channel": 9,
                    "noteNumber": 54,
                    "velocity": 0,
                    "lightChannels": [
                        6,
                        7
                    ]
                }
            }
        }
    },
    {
        "changes": {
            "window": 1,
            "outline": 1
        },
        "timeout": 0.17902522083333336,
        "raw": {
            "window": {
                "pinValue": 1,
                "ticks": 16,
                "event": {
                    "deltaTime": 16,
                    "type": "channel",
                    "subtype": "noteOn",
                    "channel": 9,
                    "noteNumber": 54,
                    "velocity": 79,
                    "lightChannels": [
                        6,
                        7
                    ]
                }
            },
            "outline": {
                "pinValue": 1,
                "ticks": 16,
                "event": {
                    "deltaTime": 16,
                    "type": "channel",
                    "subtype": "noteOn",
                    "channel": 9,
                    "noteNumber": 54,
                    "velocity": 79,
                    "lightChannels": [
                        6,
                        7
                    ]
                }
            }
        }
    },
    {
        "changes": {
            "window": 0,
            "outline": 0
        },
        "timeout": 0.0667372125,
        "raw": {
            "window": {
                "pinValue": 0,
                "ticks": 3,
                "event": {
                    "deltaTime": 3,
                    "type": "channel",
                    "subtype": "noteOff",
                    "channel": 9,
                    "noteNumber": 54,
                    "velocity": 0,
                    "lightChannels": [
                        6,
                        7
                    ]
                }
            },
            "outline": {
                "pinValue": 0,
                "ticks": 3,
                "event": {
                    "deltaTime": 3,
                    "type": "channel",
                    "subtype": "noteOff",
                    "channel": 9,
                    "noteNumber": 54,
                    "velocity": 0,
                    "lightChannels": [
                        6,
                        7
                    ]
                }
            }
        }
    },
    {
        "changes": {
            "window": 1,
            "outline": 1
        },
        "timeout": 0.197033675,
        "raw": {
            "window": {
                "pinValue": 1,
                "ticks": 3,
                "event": {
                    "deltaTime": 3,
                    "type": "channel",
                    "subtype": "noteOn",
                    "channel": 9,
                    "noteNumber": 54,
                    "velocity": 85,
                    "lightChannels": [
                        6,
                        7
                    ]
                }
            },
            "outline": {
                "pinValue": 1,
                "ticks": 3,
                "event": {
                    "deltaTime": 3,
                    "type": "channel",
                    "subtype": "noteOn",
                    "channel": 9,
                    "noteNumber": 54,
                    "velocity": 85,
                    "lightChannels": [
                        6,
                        7
                    ]
                }
            }
        }
    },
    {
        "changes": {
            "window": 0,
            "outline": 0
        },
        "timeout": 0.06355925,
        "raw": {
            "window": {
                "pinValue": 0,
                "ticks": 51,
                "event": {
                    "deltaTime": 51,
                    "type": "channel",
                    "subtype": "noteOff",
                    "channel": 9,
                    "noteNumber": 54,
                    "velocity": 0,
                    "lightChannels": [
                        6,
                        7
                    ]
                }
            },
            "outline": {
                "pinValue": 0,
                "ticks": 51,
                "event": {
                    "deltaTime": 51,
                    "type": "channel",
                    "subtype": "noteOff",
                    "channel": 9,
                    "noteNumber": 54,
                    "velocity": 0,
                    "lightChannels": [
                        6,
                        7
                    ]
                }
            }
        }
    },
    {
        "changes": {
            "col-1": 1
        },
        "timeout": 0.18644046666666664,
        "raw": {
            "col-1": {
                "pinValue": 1,
                "ticks": 3,
                "event": {
                    "deltaTime": 3,
                    "type": "channel",
                    "subtype": "noteOn",
                    "channel": 2,
                    "noteNumber": 77,
                    "velocity": 123,
                    "lightChannels": [
                        3
                    ]
                }
            }
        }
    },
    {
        "changes": {
            "window": 1,
            "outline": 1
        },
        "timeout": 0.0010593208333333332,
        "raw": {
            "window": {
                "pinValue": 1,
                "ticks": 1,
                "event": {
                    "deltaTime": 1,
                    "type": "channel",
                    "subtype": "noteOn",
                    "channel": 9,
                    "noteNumber": 54,
                    "velocity": 85,
                    "lightChannels": [
                        6,
                        7
                    ]
                }
            },
            "outline": {
                "pinValue": 1,
                "ticks": 1,
                "event": {
                    "deltaTime": 1,
                    "type": "channel",
                    "subtype": "noteOn",
                    "channel": 9,
                    "noteNumber": 54,
                    "velocity": 85,
                    "lightChannels": [
                        6,
                        7
                    ]
                }
            }
        }
    },
    {
        "changes": {
            "window": 0,
            "outline": 0
        },
        "timeout": 0.06567789166666665,
        "raw": {
            "window": {
                "pinValue": 0,
                "ticks": 10,
                "event": {
                    "deltaTime": 10,
                    "type": "channel",
                    "subtype": "noteOff",
                    "channel": 9,
                    "noteNumber": 54,
                    "velocity": 0,
                    "lightChannels": [
                        6,
                        7
                    ]
                }
            },
            "outline": {
                "pinValue": 0,
                "ticks": 10,
                "event": {
                    "deltaTime": 10,
                    "type": "channel",
                    "subtype": "noteOff",
                    "channel": 9,
                    "noteNumber": 54,
                    "velocity": 0,
                    "lightChannels": [
                        6,
                        7
                    ]
                }
            }
        }
    },
    {
        "changes": {
            "col-1": 0
        },
        "timeout": 0.01694913333333333,
        "raw": {
            "col-1": {
                "pinValue": 0,
                "ticks": 2,
                "event": {
                    "deltaTime": 2,
                    "type": "channel",
                    "subtype": "noteOff",
                    "channel": 2,
                    "noteNumber": 77,
                    "velocity": 0,
                    "lightChannels": [
                        3
                    ]
                }
            }
        }
    },
    {
        "changes": {
            "window": 1,
            "outline": 1
        },
        "timeout": 0.1641947291666666,
        "raw": {
            "window": {
                "pinValue": 1,
                "ticks": 3,
                "event": {
                    "deltaTime": 3,
                    "type": "channel",
                    "subtype": "noteOn",
                    "channel": 9,
                    "noteNumber": 54,
                    "velocity": 83,
                    "lightChannels": [
                        6,
                        7
                    ]
                }
            },
            "outline": {
                "pinValue": 1,
                "ticks": 3,
                "event": {
                    "deltaTime": 3,
                    "type": "channel",
                    "subtype": "noteOn",
                    "channel": 9,
                    "noteNumber": 54,
                    "velocity": 83,
                    "lightChannels": [
                        6,
                        7
                    ]
                }
            }
        }
    },
    {
        "changes": {
            "col-2": 1
        },
        "timeout": 0.006355924999999999,
        "raw": {
            "col-2": {
                "pinValue": 1,
                "ticks": 6,
                "event": {
                    "deltaTime": 6,
                    "type": "channel",
                    "subtype": "noteOn",
                    "channel": 2,
                    "noteNumber": 72,
                    "velocity": 125,
                    "lightChannels": [
                        4
                    ]
                }
            }
        }
    },
    {
        "changes": {
            "window": 0,
            "outline": 0
        },
        "timeout": 0.05932196666666666,
        "raw": {
            "window": {
                "pinValue": 0,
                "ticks": 1,
                "event": {
                    "deltaTime": 1,
                    "type": "channel",
                    "subtype": "noteOff",
                    "channel": 9,
                    "noteNumber": 54,
                    "velocity": 0,
                    "lightChannels": [
                        6,
                        7
                    ]
                }
            },
            "outline": {
                "pinValue": 0,
                "ticks": 1,
                "event": {
                    "deltaTime": 1,
                    "type": "channel",
                    "subtype": "noteOff",
                    "channel": 9,
                    "noteNumber": 54,
                    "velocity": 0,
                    "lightChannels": [
                        6,
                        7
                    ]
                }
            }
        }
    },
    {
        "changes": {
            "col-2": 0
        },
        "timeout": 0.0158898125,
        "raw": {
            "col-2": {
                "pinValue": 0,
                "ticks": 10,
                "event": {
                    "deltaTime": 10,
                    "type": "channel",
                    "subtype": "noteOff",
                    "channel": 2,
                    "noteNumber": 72,
                    "velocity": 0,
                    "lightChannels": [
                        4
                    ]
                }
            }
        }
    },
    {
        "changes": {
            "col-3": 1
        },
        "timeout": 0.03389826666666666,
        "raw": {
            "col-3": {
                "pinValue": 1,
                "ticks": 2,
                "event": {
                    "deltaTime": 2,
                    "type": "channel",
                    "subtype": "noteOn",
                    "channel": 2,
                    "noteNumber": 70,
                    "velocity": 110,
                    "lightChannels": [
                        5
                    ]
                }
            }
        }
    },
    {
        "changes": {
            "col-3": 0
        },
        "timeout": 0.07944906249999999,
        "raw": {
            "col-3": {
                "pinValue": 0,
                "ticks": 6,
                "event": {
                    "deltaTime": 6,
                    "type": "channel",
                    "subtype": "noteOff",
                    "channel": 2,
                    "noteNumber": 70,
                    "velocity": 0,
                    "lightChannels": [
                        5
                    ]
                }
            }
        }
    },
    {
        "changes": {
            "garden": 1
        },
        "timeout": 0.030720304166666663,
        "raw": {
            "garden": {
                "pinValue": 1,
                "ticks": 23,
                "event": {
                    "deltaTime": 23,
                    "type": "channel",
                    "subtype": "noteOn",
                    "channel": 2,
                    "noteNumber": 65,
                    "velocity": 115,
                    "lightChannels": [
                        8
                    ]
                }
            }
        }
    },
    {
        "changes": {
            "window": 1,
            "outline": 1
        },
        "timeout": 0.027542341666666664,
        "raw": {
            "window": {
                "pinValue": 1,
                "ticks": 8,
                "event": {
                    "deltaTime": 8,
                    "type": "channel",
                    "subtype": "noteOn",
                    "channel": 9,
                    "noteNumber": 54,
                    "velocity": 84,
                    "lightChannels": [
                        6,
                        7
                    ]
                }
            },
            "outline": {
                "pinValue": 1,
                "ticks": 8,
                "event": {
                    "deltaTime": 8,
                    "type": "channel",
                    "subtype": "noteOn",
                    "channel": 9,
                    "noteNumber": 54,
                    "velocity": 84,
                    "lightChannels": [
                        6,
                        7
                    ]
                }
            }
        }
    },
    {
        "changes": {
            "window": 0,
            "outline": 0
        },
        "timeout": 0.06673721249999999,
        "raw": {
            "window": {
                "pinValue": 0,
                "ticks": 63,
                "event": {
                    "deltaTime": 63,
                    "type": "channel",
                    "subtype": "noteOff",
                    "channel": 9,
                    "noteNumber": 54,
                    "velocity": 0,
                    "lightChannels": [
                        6,
                        7
                    ]
                }
            },
            "outline": {
                "pinValue": 0,
                "ticks": 63,
                "event": {
                    "deltaTime": 63,
                    "type": "channel",
                    "subtype": "noteOff",
                    "channel": 9,
                    "noteNumber": 54,
                    "velocity": 0,
                    "lightChannels": [
                        6,
                        7
                    ]
                }
            }
        }
    },
    {
        "changes": {
            "garden": 0
        },
        "timeout": 0.007415245833333332,
        "raw": {
            "garden": {
                "pinValue": 0,
                "ticks": 7,
                "event": {
                    "deltaTime": 7,
                    "type": "channel",
                    "subtype": "noteOff",
                    "channel": 2,
                    "noteNumber": 65,
                    "velocity": 0,
                    "lightChannels": [
                        8
                    ]
                }
            }
        }
    },
    {
        "changes": {
            "window": 1,
            "outline": 1
        },
        "timeout": 0.17796589999999998,
        "raw": {
            "window": {
                "pinValue": 1,
                "ticks": 9,
                "event": {
                    "deltaTime": 9,
                    "type": "channel",
                    "subtype": "noteOn",
                    "channel": 9,
                    "noteNumber": 54,
                    "velocity": 80,
                    "lightChannels": [
                        6,
                        7
                    ]
                }
            },
            "outline": {
                "pinValue": 1,
                "ticks": 9,
                "event": {
                    "deltaTime": 9,
                    "type": "channel",
                    "subtype": "noteOn",
                    "channel": 9,
                    "noteNumber": 54,
                    "velocity": 80,
                    "lightChannels": [
                        6,
                        7
                    ]
                }
            }
        }
    },
    {
        "changes": {
            "tree": 1
        },
        "timeout": 0.0052966041666666665,
        "raw": {
            "tree": {
                "pinValue": 1,
                "ticks": 5,
                "event": {
                    "deltaTime": 5,
                    "type": "channel",
                    "subtype": "noteOn",
                    "channel": 2,
                    "noteNumber": 70,
                    "velocity": 118,
                    "lightChannels": [
                        9
                    ]
                }
            }
        }
    },
    {
        "changes": {
            "window": 0,
            "outline": 0
        },
        "timeout": 0.05826264583333333,
        "raw": {
            "window": {
                "pinValue": 0,
                "ticks": 55,
                "event": {
                    "deltaTime": 55,
                    "type": "channel",
                    "subtype": "noteOff",
                    "channel": 9,
                    "noteNumber": 54,
                    "velocity": 0,
                    "lightChannels": [
                        6,
                        7
                    ]
                }
            },
            "outline": {
                "pinValue": 0,
                "ticks": 55,
                "event": {
                    "deltaTime": 55,
                    "type": "channel",
                    "subtype": "noteOff",
                    "channel": 9,
                    "noteNumber": 54,
                    "velocity": 0,
                    "lightChannels": [
                        6,
                        7
                    ]
                }
            }
        }
    },
    {
        "changes": {
            "tree": 0
        },
        "timeout": 0.02012709583333333,
        "raw": {
            "tree": {
                "pinValue": 0,
                "ticks": 14,
                "event": {
                    "deltaTime": 14,
                    "type": "channel",
                    "subtype": "noteOff",
                    "channel": 2,
                    "noteNumber": 70,
                    "velocity": 0,
                    "lightChannels": [
                        9
                    ]
                }
            }
        }
    },
    {
        "changes": {
            "col-1": 1,
            "col-2": 1,
            "col-3": 1,
            "garden": 1,
            "tree": 1
        },
        "timeout": 0.1641947291666666,
        "raw": {
            "col-1": {
                "pinValue": 1,
                "ticks": 1,
                "event": {
                    "deltaTime": 1,
                    "type": "channel",
                    "subtype": "noteOn",
                    "channel": 2,
                    "noteNumber": 72,
                    "velocity": 127,
                    "lightChannels": [
                        3,
                        4,
                        5,
                        8,
                        9
                    ]
                }
            },
            "col-2": {
                "pinValue": 1,
                "ticks": 1,
                "event": {
                    "deltaTime": 1,
                    "type": "channel",
                    "subtype": "noteOn",
                    "channel": 2,
                    "noteNumber": 72,
                    "velocity": 127,
                    "lightChannels": [
                        3,
                        4,
                        5,
                        8,
                        9
                    ]
                }
            },
            "col-3": {
                "pinValue": 1,
                "ticks": 1,
                "event": {
                    "deltaTime": 1,
                    "type": "channel",
                    "subtype": "noteOn",
                    "channel": 2,
                    "noteNumber": 72,
                    "velocity": 127,
                    "lightChannels": [
                        3,
                        4,
                        5,
                        8,
                        9
                    ]
                }
            },
            "garden": {
                "pinValue": 1,
                "ticks": 1,
                "event": {
                    "deltaTime": 1,
                    "type": "channel",
                    "subtype": "noteOn",
                    "channel": 2,
                    "noteNumber": 72,
                    "velocity": 127,
                    "lightChannels": [
                        3,
                        4,
                        5,
                        8,
                        9
                    ]
                }
            },
            "tree": {
                "pinValue": 1,
                "ticks": 1,
                "event": {
                    "deltaTime": 1,
                    "type": "channel",
                    "subtype": "noteOn",
                    "channel": 2,
                    "noteNumber": 72,
                    "velocity": 127,
                    "lightChannels": [
                        3,
                        4,
                        5,
                        8,
                        9
                    ]
                }
            }
        }
    },
    {
        "changes": {
            "window": 1,
            "outline": 1
        },
        "timeout": 0.014830491666666666,
        "raw": {
            "window": {
                "pinValue": 1,
                "ticks": 1,
                "event": {
                    "deltaTime": 1,
                    "type": "channel",
                    "subtype": "noteOn",
                    "channel": 9,
                    "noteNumber": 54,
                    "velocity": 81,
                    "lightChannels": [
                        6,
                        7
                    ]
                }
            },
            "outline": {
                "pinValue": 1,
                "ticks": 1,
                "event": {
                    "deltaTime": 1,
                    "type": "channel",
                    "subtype": "noteOn",
                    "channel": 9,
                    "noteNumber": 54,
                    "velocity": 81,
                    "lightChannels": [
                        6,
                        7
                    ]
                }
            }
        }
    },
    {
        "changes": {
            "window": 0,
            "outline": 0
        },
        "timeout": 0.06673721249999999,
        "raw": {
            "window": {
                "pinValue": 0,
                "ticks": 7,
                "event": {
                    "deltaTime": 7,
                    "type": "channel",
                    "subtype": "noteOff",
                    "channel": 9,
                    "noteNumber": 54,
                    "velocity": 0,
                    "lightChannels": [
                        6,
                        7
                    ]
                }
            },
            "outline": {
                "pinValue": 0,
                "ticks": 7,
                "event": {
                    "deltaTime": 7,
                    "type": "channel",
                    "subtype": "noteOff",
                    "channel": 9,
                    "noteNumber": 54,
                    "velocity": 0,
                    "lightChannels": [
                        6,
                        7
                    ]
                }
            }
        }
    },
    {
        "changes": {
            "col-1": 0,
            "col-2": 0,
            "col-3": 0,
            "garden": 0,
            "tree": 0
        },
        "timeout": 0.02330505833333333,
        "raw": {
            "col-1": {
                "pinValue": 0,
                "ticks": 11,
                "event": {
                    "deltaTime": 11,
                    "type": "channel",
                    "subtype": "noteOff",
                    "channel": 2,
                    "noteNumber": 72,
                    "velocity": 0,
                    "lightChannels": [
                        3,
                        4,
                        5,
                        8,
                        9
                    ]
                }
            },
            "col-2": {
                "pinValue": 0,
                "ticks": 11,
                "event": {
                    "deltaTime": 11,
                    "type": "channel",
                    "subtype": "noteOff",
                    "channel": 2,
                    "noteNumber": 72,
                    "velocity": 0,
                    "lightChannels": [
                        3,
                        4,
                        5,
                        8,
                        9
                    ]
                }
            },
            "col-3": {
                "pinValue": 0,
                "ticks": 11,
                "event": {
                    "deltaTime": 11,
                    "type": "channel",
                    "subtype": "noteOff",
                    "channel": 2,
                    "noteNumber": 72,
                    "velocity": 0,
                    "lightChannels": [
                        3,
                        4,
                        5,
                        8,
                        9
                    ]
                }
            },
            "garden": {
                "pinValue": 0,
                "ticks": 11,
                "event": {
                    "deltaTime": 11,
                    "type": "channel",
                    "subtype": "noteOff",
                    "channel": 2,
                    "noteNumber": 72,
                    "velocity": 0,
                    "lightChannels": [
                        3,
                        4,
                        5,
                        8,
                        9
                    ]
                }
            },
            "tree": {
                "pinValue": 0,
                "ticks": 11,
                "event": {
                    "deltaTime": 11,
                    "type": "channel",
                    "subtype": "noteOff",
                    "channel": 2,
                    "noteNumber": 72,
                    "velocity": 0,
                    "lightChannels": [
                        3,
                        4,
                        5,
                        8,
                        9
                    ]
                }
            }
        }
    },
    {
        "changes": {
            "window": 1,
            "outline": 1
        },
        "timeout": 0.16737269166666668,
        "raw": {
            "window": {
                "pinValue": 1,
                "ticks": 7,
                "event": {
                    "deltaTime": 7,
                    "type": "channel",
                    "subtype": "noteOn",
                    "channel": 9,
                    "noteNumber": 54,
                    "velocity": 80,
                    "lightChannels": [
                        6,
                        7
                    ]
                }
            },
            "outline": {
                "pinValue": 1,
                "ticks": 7,
                "event": {
                    "deltaTime": 7,
                    "type": "channel",
                    "subtype": "noteOn",
                    "channel": 9,
                    "noteNumber": 54,
                    "velocity": 80,
                    "lightChannels": [
                        6,
                        7
                    ]
                }
            }
        }
    },
    {
        "changes": {
            "window": 0,
            "outline": 0
        },
        "timeout": 0.06567789166666665,
        "raw": {
            "window": {
                "pinValue": 0,
                "ticks": 11,
                "event": {
                    "deltaTime": 11,
                    "type": "channel",
                    "subtype": "noteOff",
                    "channel": 9,
                    "noteNumber": 54,
                    "velocity": 0,
                    "lightChannels": [
                        6,
                        7
                    ]
                }
            },
            "outline": {
                "pinValue": 0,
                "ticks": 11,
                "event": {
                    "deltaTime": 11,
                    "type": "channel",
                    "subtype": "noteOff",
                    "channel": 9,
                    "noteNumber": 54,
                    "velocity": 0,
                    "lightChannels": [
                        6,
                        7
                    ]
                }
            }
        }
    },
    {
        "changes": {
            "window": 1,
            "outline": 1
        },
        "timeout": 0.1980929958333333,
        "raw": {
            "window": {
                "pinValue": 1,
                "ticks": 22,
                "event": {
                    "deltaTime": 22,
                    "type": "channel",
                    "subtype": "noteOn",
                    "channel": 9,
                    "noteNumber": 54,
                    "velocity": 83,
                    "lightChannels": [
                        6,
                        7
                    ]
                }
            },
            "outline": {
                "pinValue": 1,
                "ticks": 22,
                "event": {
                    "deltaTime": 22,
                    "type": "channel",
                    "subtype": "noteOn",
                    "channel": 9,
                    "noteNumber": 54,
                    "velocity": 83,
                    "lightChannels": [
                        6,
                        7
                    ]
                }
            }
        }
    },
    {
        "changes": {
            "window": 0,
            "outline": 0
        },
        "timeout": 0.06461857083333333,
        "raw": {
            "window": {
                "pinValue": 0,
                "ticks": 9,
                "event": {
                    "deltaTime": 9,
                    "type": "channel",
                    "subtype": "noteOff",
                    "channel": 9,
                    "noteNumber": 54,
                    "velocity": 0,
                    "lightChannels": [
                        6,
                        7
                    ]
                }
            },
            "outline": {
                "pinValue": 0,
                "ticks": 9,
                "event": {
                    "deltaTime": 9,
                    "type": "channel",
                    "subtype": "noteOff",
                    "channel": 9,
                    "noteNumber": 54,
                    "velocity": 0,
                    "lightChannels": [
                        6,
                        7
                    ]
                }
            }
        }
    },
    {
        "changes": {
            "window": 1,
            "outline": 1
        },
        "timeout": 0.18114386249999995,
        "raw": {
            "window": {
                "pinValue": 1,
                "ticks": 8,
                "event": {
                    "deltaTime": 8,
                    "type": "channel",
                    "subtype": "noteOn",
                    "channel": 9,
                    "noteNumber": 54,
                    "velocity": 83,
                    "lightChannels": [
                        6,
                        7
                    ]
                }
            },
            "outline": {
                "pinValue": 1,
                "ticks": 8,
                "event": {
                    "deltaTime": 8,
                    "type": "channel",
                    "subtype": "noteOn",
                    "channel": 9,
                    "noteNumber": 54,
                    "velocity": 83,
                    "lightChannels": [
                        6,
                        7
                    ]
                }
            }
        }
    },
    {
        "changes": {
            "window": 0,
            "outline": 0
        },
        "timeout": 0.069915175,
        "raw": {
            "window": {
                "pinValue": 0,
                "ticks": 66,
                "event": {
                    "deltaTime": 66,
                    "type": "channel",
                    "subtype": "noteOff",
                    "channel": 9,
                    "noteNumber": 54,
                    "velocity": 0,
                    "lightChannels": [
                        6,
                        7
                    ]
                }
            },
            "outline": {
                "pinValue": 0,
                "ticks": 66,
                "event": {
                    "deltaTime": 66,
                    "type": "channel",
                    "subtype": "noteOff",
                    "channel": 9,
                    "noteNumber": 54,
                    "velocity": 0,
                    "lightChannels": [
                        6,
                        7
                    ]
                }
            }
        }
    },
    {
        "changes": {
            "col-1": 1
        },
        "timeout": 0.17690657916666663,
        "raw": {
            "col-1": {
                "pinValue": 1,
                "ticks": 5,
                "event": {
                    "deltaTime": 5,
                    "type": "channel",
                    "subtype": "noteOn",
                    "channel": 2,
                    "noteNumber": 77,
                    "velocity": 121,
                    "lightChannels": [
                        3
                    ]
                }
            }
        }
    },
    {
        "changes": {
            "window": 1,
            "outline": 1
        },
        "timeout": 0.008474566666666666,
        "raw": {
            "window": {
                "pinValue": 1,
                "ticks": 8,
                "event": {
                    "deltaTime": 8,
                    "type": "channel",
                    "subtype": "noteOn",
                    "channel": 9,
                    "noteNumber": 54,
                    "velocity": 84,
                    "lightChannels": [
                        6,
                        7
                    ]
                }
            },
            "outline": {
                "pinValue": 1,
                "ticks": 8,
                "event": {
                    "deltaTime": 8,
                    "type": "channel",
                    "subtype": "noteOn",
                    "channel": 9,
                    "noteNumber": 54,
                    "velocity": 84,
                    "lightChannels": [
                        6,
                        7
                    ]
                }
            }
        }
    },
    {
        "changes": {
            "window": 0,
            "outline": 0
        },
        "timeout": 0.06567789166666665,
        "raw": {
            "window": {
                "pinValue": 0,
                "ticks": 57,
                "event": {
                    "deltaTime": 57,
                    "type": "channel",
                    "subtype": "noteOff",
                    "channel": 9,
                    "noteNumber": 54,
                    "velocity": 0,
                    "lightChannels": [
                        6,
                        7
                    ]
                }
            },
            "outline": {
                "pinValue": 0,
                "ticks": 57,
                "event": {
                    "deltaTime": 57,
                    "type": "channel",
                    "subtype": "noteOff",
                    "channel": 9,
                    "noteNumber": 54,
                    "velocity": 0,
                    "lightChannels": [
                        6,
                        7
                    ]
                }
            }
        }
    },
    {
        "changes": {
            "col-1": 0
        },
        "timeout": 0.01694913333333333,
        "raw": {
            "col-1": {
                "pinValue": 0,
                "ticks": 6,
                "event": {
                    "deltaTime": 6,
                    "type": "channel",
                    "subtype": "noteOff",
                    "channel": 2,
                    "noteNumber": 77,
                    "velocity": 0,
                    "lightChannels": [
                        3
                    ]
                }
            }
        }
    },
    {
        "changes": {
            "col-2": 1
        },
        "timeout": 0.16101676666666662,
        "raw": {
            "col-2": {
                "pinValue": 1,
                "ticks": 1,
                "event": {
                    "deltaTime": 1,
                    "type": "channel",
                    "subtype": "noteOn",
                    "channel": 2,
                    "noteNumber": 72,
                    "velocity": 125,
                    "lightChannels": [
                        4
                    ]
                }
            }
        }
    },
    {
        "changes": {
            "window": 1,
            "outline": 1
        },
        "timeout": 0.011652529166666665,
        "raw": {
            "window": {
                "pinValue": 1,
                "ticks": 3,
                "event": {
                    "deltaTime": 3,
                    "type": "channel",
                    "subtype": "noteOn",
                    "channel": 9,
                    "noteNumber": 54,
                    "velocity": 85,
                    "lightChannels": [
                        6,
                        7
                    ]
                }
            },
            "outline": {
                "pinValue": 1,
                "ticks": 3,
                "event": {
                    "deltaTime": 3,
                    "type": "channel",
                    "subtype": "noteOn",
                    "channel": 9,
                    "noteNumber": 54,
                    "velocity": 85,
                    "lightChannels": [
                        6,
                        7
                    ]
                }
            }
        }
    },
    {
        "changes": {
            "col-2": 0,
            "window": 0,
            "outline": 0
        },
        "timeout": 0.06673721249999999,
        "raw": {
            "col-2": {
                "pinValue": 0,
                "ticks": 61,
                "event": {
                    "deltaTime": 61,
                    "type": "channel",
                    "subtype": "noteOff",
                    "channel": 2,
                    "noteNumber": 72,
                    "velocity": 0,
                    "lightChannels": [
                        4
                    ]
                }
            },
            "window": {
                "pinValue": 0,
                "ticks": 0,
                "event": {
                    "deltaTime": 0,
                    "type": "channel",
                    "subtype": "noteOff",
                    "channel": 9,
                    "noteNumber": 54,
                    "velocity": 0,
                    "lightChannels": [
                        6,
                        7
                    ]
                }
            },
            "outline": {
                "pinValue": 0,
                "ticks": 0,
                "event": {
                    "deltaTime": 0,
                    "type": "channel",
                    "subtype": "noteOff",
                    "channel": 9,
                    "noteNumber": 54,
                    "velocity": 0,
                    "lightChannels": [
                        6,
                        7
                    ]
                }
            }
        }
    },
    {
        "changes": {
            "col-3": 1
        },
        "timeout": 0.03601690833333333,
        "raw": {
            "col-3": {
                "pinValue": 1,
                "ticks": 14,
                "event": {
                    "deltaTime": 14,
                    "type": "channel",
                    "subtype": "noteOn",
                    "channel": 2,
                    "noteNumber": 70,
                    "velocity": 112,
                    "lightChannels": [
                        5
                    ]
                }
            }
        }
    },
    {
        "changes": {
            "col-3": 0
        },
        "timeout": 0.08050838333333332,
        "raw": {
            "col-3": {
                "pinValue": 0,
                "ticks": 14,
                "event": {
                    "deltaTime": 14,
                    "type": "channel",
                    "subtype": "noteOff",
                    "channel": 2,
                    "noteNumber": 70,
                    "velocity": 0,
                    "lightChannels": [
                        5
                    ]
                }
            }
        }
    },
    {
        "changes": {
            "garden": 1
        },
        "timeout": 0.042372833333333325,
        "raw": {
            "garden": {
                "pinValue": 1,
                "ticks": 19,
                "event": {
                    "deltaTime": 19,
                    "type": "channel",
                    "subtype": "noteOn",
                    "channel": 2,
                    "noteNumber": 65,
                    "velocity": 106,
                    "lightChannels": [
                        8
                    ]
                }
            }
        }
    },
    {
        "changes": {
            "window": 1,
            "outline": 1
        },
        "timeout": 0.024364379166666665,
        "raw": {
            "window": {
                "pinValue": 1,
                "ticks": 4,
                "event": {
                    "deltaTime": 4,
                    "type": "channel",
                    "subtype": "noteOn",
                    "channel": 9,
                    "noteNumber": 54,
                    "velocity": 81,
                    "lightChannels": [
                        6,
                        7
                    ]
                }
            },
            "outline": {
                "pinValue": 1,
                "ticks": 4,
                "event": {
                    "deltaTime": 4,
                    "type": "channel",
                    "subtype": "noteOn",
                    "channel": 9,
                    "noteNumber": 54,
                    "velocity": 81,
                    "lightChannels": [
                        6,
                        7
                    ]
                }
            }
        }
    },
    {
        "changes": {
            "window": 0,
            "outline": 0
        },
        "timeout": 0.06038128749999999,
        "raw": {
            "window": {
                "pinValue": 0,
                "ticks": 1,
                "event": {
                    "deltaTime": 1,
                    "type": "channel",
                    "subtype": "noteOff",
                    "channel": 9,
                    "noteNumber": 54,
                    "velocity": 0,
                    "lightChannels": [
                        6,
                        7
                    ]
                }
            },
            "outline": {
                "pinValue": 0,
                "ticks": 1,
                "event": {
                    "deltaTime": 1,
                    "type": "channel",
                    "subtype": "noteOff",
                    "channel": 9,
                    "noteNumber": 54,
                    "velocity": 0,
                    "lightChannels": [
                        6,
                        7
                    ]
                }
            }
        }
    },
    {
        "changes": {
            "garden": 0
        },
        "timeout": 0.01694913333333333,
        "raw": {
            "garden": {
                "pinValue": 0,
                "ticks": 4,
                "event": {
                    "deltaTime": 4,
                    "type": "channel",
                    "subtype": "noteOff",
                    "channel": 2,
                    "noteNumber": 65,
                    "velocity": 0,
                    "lightChannels": [
                        8
                    ]
                }
            }
        }
    },
    {
        "changes": {
            "tree": 1,
            "window": 1,
            "outline": 1
        },
        "timeout": 0.17055065416666665,
        "raw": {
            "tree": {
                "pinValue": 1,
                "ticks": 1,
                "event": {
                    "deltaTime": 1,
                    "type": "channel",
                    "subtype": "noteOn",
                    "channel": 2,
                    "noteNumber": 70,
                    "velocity": 116,
                    "lightChannels": [
                        9
                    ]
                }
            },
            "window": {
                "pinValue": 1,
                "ticks": 0,
                "event": {
                    "deltaTime": 0,
                    "type": "channel",
                    "subtype": "noteOn",
                    "channel": 9,
                    "noteNumber": 54,
                    "velocity": 83,
                    "lightChannels": [
                        6,
                        7
                    ]
                }
            },
            "outline": {
                "pinValue": 1,
                "ticks": 0,
                "event": {
                    "deltaTime": 0,
                    "type": "channel",
                    "subtype": "noteOn",
                    "channel": 9,
                    "noteNumber": 54,
                    "velocity": 83,
                    "lightChannels": [
                        6,
                        7
                    ]
                }
            }
        }
    },
    {
        "changes": {
            "window": 0,
            "outline": 0
        },
        "timeout": 0.06461857083333333,
        "raw": {
            "window": {
                "pinValue": 0,
                "ticks": 51,
                "event": {
                    "deltaTime": 51,
                    "type": "channel",
                    "subtype": "noteOff",
                    "channel": 9,
                    "noteNumber": 54,
                    "velocity": 0,
                    "lightChannels": [
                        6,
                        7
                    ]
                }
            },
            "outline": {
                "pinValue": 0,
                "ticks": 51,
                "event": {
                    "deltaTime": 51,
                    "type": "channel",
                    "subtype": "noteOff",
                    "channel": 9,
                    "noteNumber": 54,
                    "velocity": 0,
                    "lightChannels": [
                        6,
                        7
                    ]
                }
            }
        }
    },
    {
        "changes": {
            "tree": 0
        },
        "timeout": 0.013771170833333334,
        "raw": {
            "tree": {
                "pinValue": 0,
                "ticks": 1,
                "event": {
                    "deltaTime": 1,
                    "type": "channel",
                    "subtype": "noteOff",
                    "channel": 2,
                    "noteNumber": 70,
                    "velocity": 0,
                    "lightChannels": [
                        9
                    ]
                }
            }
        }
    },
    {
        "changes": {
            "col-1": 1,
            "col-2": 1,
            "col-3": 1,
            "garden": 1,
            "tree": 1,
            "window": 1,
            "outline": 1
        },
        "timeout": 0.1758472583333333,
        "raw": {
            "col-1": {
                "pinValue": 1,
                "ticks": 1,
                "event": {
                    "deltaTime": 1,
                    "type": "channel",
                    "subtype": "noteOn",
                    "channel": 2,
                    "noteNumber": 72,
                    "velocity": 125,
                    "lightChannels": [
                        3,
                        4,
                        5,
                        8,
                        9
                    ]
                }
            },
            "col-2": {
                "pinValue": 1,
                "ticks": 1,
                "event": {
                    "deltaTime": 1,
                    "type": "channel",
                    "subtype": "noteOn",
                    "channel": 2,
                    "noteNumber": 72,
                    "velocity": 125,
                    "lightChannels": [
                        3,
                        4,
                        5,
                        8,
                        9
                    ]
                }
            },
            "col-3": {
                "pinValue": 1,
                "ticks": 1,
                "event": {
                    "deltaTime": 1,
                    "type": "channel",
                    "subtype": "noteOn",
                    "channel": 2,
                    "noteNumber": 72,
                    "velocity": 125,
                    "lightChannels": [
                        3,
                        4,
                        5,
                        8,
                        9
                    ]
                }
            },
            "garden": {
                "pinValue": 1,
                "ticks": 1,
                "event": {
                    "deltaTime": 1,
                    "type": "channel",
                    "subtype": "noteOn",
                    "channel": 2,
                    "noteNumber": 72,
                    "velocity": 125,
                    "lightChannels": [
                        3,
                        4,
                        5,
                        8,
                        9
                    ]
                }
            },
            "tree": {
                "pinValue": 1,
                "ticks": 1,
                "event": {
                    "deltaTime": 1,
                    "type": "channel",
                    "subtype": "noteOn",
                    "channel": 2,
                    "noteNumber": 72,
                    "velocity": 125,
                    "lightChannels": [
                        3,
                        4,
                        5,
                        8,
                        9
                    ]
                }
            },
            "window": {
                "pinValue": 1,
                "ticks": 0,
                "event": {
                    "deltaTime": 0,
                    "type": "channel",
                    "subtype": "noteOn",
                    "channel": 9,
                    "noteNumber": 54,
                    "velocity": 84,
                    "lightChannels": [
                        6,
                        7
                    ]
                }
            },
            "outline": {
                "pinValue": 1,
                "ticks": 0,
                "event": {
                    "deltaTime": 0,
                    "type": "channel",
                    "subtype": "noteOn",
                    "channel": 9,
                    "noteNumber": 54,
                    "velocity": 84,
                    "lightChannels": [
                        6,
                        7
                    ]
                }
            }
        }
    },
    {
        "changes": {
            "window": 0,
            "outline": 0
        },
        "timeout": 0.06038128749999999,
        "raw": {
            "window": {
                "pinValue": 0,
                "ticks": 49,
                "event": {
                    "deltaTime": 49,
                    "type": "channel",
                    "subtype": "noteOff",
                    "channel": 9,
                    "noteNumber": 54,
                    "velocity": 0,
                    "lightChannels": [
                        6,
                        7
                    ]
                }
            },
            "outline": {
                "pinValue": 0,
                "ticks": 49,
                "event": {
                    "deltaTime": 49,
                    "type": "channel",
                    "subtype": "noteOff",
                    "channel": 9,
                    "noteNumber": 54,
                    "velocity": 0,
                    "lightChannels": [
                        6,
                        7
                    ]
                }
            }
        }
    },
    {
        "changes": {
            "col-1": 0,
            "col-2": 0,
            "col-3": 0,
            "garden": 0,
            "tree": 0
        },
        "timeout": 0.014830491666666666,
        "raw": {
            "col-1": {
                "pinValue": 0,
                "ticks": 4,
                "event": {
                    "deltaTime": 4,
                    "type": "channel",
                    "subtype": "noteOff",
                    "channel": 2,
                    "noteNumber": 72,
                    "velocity": 0,
                    "lightChannels": [
                        3,
                        4,
                        5,
                        8,
                        9
                    ]
                }
            },
            "col-2": {
                "pinValue": 0,
                "ticks": 4,
                "event": {
                    "deltaTime": 4,
                    "type": "channel",
                    "subtype": "noteOff",
                    "channel": 2,
                    "noteNumber": 72,
                    "velocity": 0,
                    "lightChannels": [
                        3,
                        4,
                        5,
                        8,
                        9
                    ]
                }
            },
            "col-3": {
                "pinValue": 0,
                "ticks": 4,
                "event": {
                    "deltaTime": 4,
                    "type": "channel",
                    "subtype": "noteOff",
                    "channel": 2,
                    "noteNumber": 72,
                    "velocity": 0,
                    "lightChannels": [
                        3,
                        4,
                        5,
                        8,
                        9
                    ]
                }
            },
            "garden": {
                "pinValue": 0,
                "ticks": 4,
                "event": {
                    "deltaTime": 4,
                    "type": "channel",
                    "subtype": "noteOff",
                    "channel": 2,
                    "noteNumber": 72,
                    "velocity": 0,
                    "lightChannels": [
                        3,
                        4,
                        5,
                        8,
                        9
                    ]
                }
            },
            "tree": {
                "pinValue": 0,
                "ticks": 4,
                "event": {
                    "deltaTime": 4,
                    "type": "channel",
                    "subtype": "noteOff",
                    "channel": 2,
                    "noteNumber": 72,
                    "velocity": 0,
                    "lightChannels": [
                        3,
                        4,
                        5,
                        8,
                        9
                    ]
                }
            }
        }
    },
    {
        "changes": {
            "col-1": 1
        },
        "timeout": 0.031779625,
        "raw": {
            "col-1": {
                "pinValue": 1,
                "ticks": 26,
                "event": {
                    "deltaTime": 26,
                    "type": "channel",
                    "subtype": "noteOn",
                    "channel": 2,
                    "noteNumber": 77,
                    "velocity": 104,
                    "lightChannels": [
                        3
                    ]
                }
            }
        }
    },
    {
        "changes": {
            "col-1": 0
        },
        "timeout": 0.12288121666666665,
        "raw": {
            "col-1": {
                "pinValue": 0,
                "ticks": 1,
                "event": {
                    "deltaTime": 1,
                    "type": "channel",
                    "subtype": "noteOff",
                    "channel": 2,
                    "noteNumber": 77,
                    "velocity": 0,
                    "lightChannels": [
                        3
                    ]
                }
            }
        }
    },
    {
        "changes": {
            "col-2": 1
        },
        "timeout": 0.013771170833333332,
        "raw": {
            "col-2": {
                "pinValue": 1,
                "ticks": 3,
                "event": {
                    "deltaTime": 3,
                    "type": "channel",
                    "subtype": "noteOn",
                    "channel": 2,
                    "noteNumber": 72,
                    "velocity": 125,
                    "lightChannels": [
                        4
                    ]
                }
            }
        }
    },
    {
        "changes": {
            "window": 1,
            "outline": 1
        },
        "timeout": 0.0095338875,
        "raw": {
            "window": {
                "pinValue": 1,
                "ticks": 9,
                "event": {
                    "deltaTime": 9,
                    "type": "channel",
                    "subtype": "noteOn",
                    "channel": 9,
                    "noteNumber": 54,
                    "velocity": 83,
                    "lightChannels": [
                        6,
                        7
                    ]
                }
            },
            "outline": {
                "pinValue": 1,
                "ticks": 9,
                "event": {
                    "deltaTime": 9,
                    "type": "channel",
                    "subtype": "noteOn",
                    "channel": 9,
                    "noteNumber": 54,
                    "velocity": 83,
                    "lightChannels": [
                        6,
                        7
                    ]
                }
            }
        }
    },
    {
        "changes": {
            "window": 0,
            "outline": 0
        },
        "timeout": 0.06038128749999999,
        "raw": {
            "window": {
                "pinValue": 0,
                "ticks": 38,
                "event": {
                    "deltaTime": 38,
                    "type": "channel",
                    "subtype": "noteOff",
                    "channel": 9,
                    "noteNumber": 54,
                    "velocity": 0,
                    "lightChannels": [
                        6,
                        7
                    ]
                }
            },
            "outline": {
                "pinValue": 0,
                "ticks": 38,
                "event": {
                    "deltaTime": 38,
                    "type": "channel",
                    "subtype": "noteOff",
                    "channel": 9,
                    "noteNumber": 54,
                    "velocity": 0,
                    "lightChannels": [
                        6,
                        7
                    ]
                }
            }
        }
    },
    {
        "changes": {
            "col-2": 0
        },
        "timeout": 0.013771170833333332,
        "raw": {
            "col-2": {
                "pinValue": 0,
                "ticks": 13,
                "event": {
                    "deltaTime": 13,
                    "type": "channel",
                    "subtype": "noteOff",
                    "channel": 2,
                    "noteNumber": 72,
                    "velocity": 0,
                    "lightChannels": [
                        4
                    ]
                }
            }
        }
    },
    {
        "changes": {
            "col-3": 1,
            "window": 1,
            "outline": 1
        },
        "timeout": 0.1917370708333333,
        "raw": {
            "col-3": {
                "pinValue": 1,
                "ticks": 2,
                "event": {
                    "deltaTime": 2,
                    "type": "channel",
                    "subtype": "noteOn",
                    "channel": 2,
                    "noteNumber": 70,
                    "velocity": 112,
                    "lightChannels": [
                        5
                    ]
                }
            },
            "window": {
                "pinValue": 1,
                "ticks": 0,
                "event": {
                    "deltaTime": 0,
                    "type": "channel",
                    "subtype": "noteOn",
                    "channel": 9,
                    "noteNumber": 54,
                    "velocity": 81,
                    "lightChannels": [
                        6,
                        7
                    ]
                }
            },
            "outline": {
                "pinValue": 1,
                "ticks": 0,
                "event": {
                    "deltaTime": 0,
                    "type": "channel",
                    "subtype": "noteOn",
                    "channel": 9,
                    "noteNumber": 54,
                    "velocity": 81,
                    "lightChannels": [
                        6,
                        7
                    ]
                }
            }
        }
    },
    {
        "changes": {
            "window": 0,
            "outline": 0
        },
        "timeout": 0.062499929166666655,
        "raw": {
            "window": {
                "pinValue": 0,
                "ticks": 3,
                "event": {
                    "deltaTime": 3,
                    "type": "channel",
                    "subtype": "noteOff",
                    "channel": 9,
                    "noteNumber": 54,
                    "velocity": 0,
                    "lightChannels": [
                        6,
                        7
                    ]
                }
            },
            "outline": {
                "pinValue": 0,
                "ticks": 3,
                "event": {
                    "deltaTime": 3,
                    "type": "channel",
                    "subtype": "noteOff",
                    "channel": 9,
                    "noteNumber": 54,
                    "velocity": 0,
                    "lightChannels": [
                        6,
                        7
                    ]
                }
            }
        }
    },
    {
        "changes": {
            "col-3": 0
        },
        "timeout": 0.008474566666666666,
        "raw": {
            "col-3": {
                "pinValue": 0,
                "ticks": 5,
                "event": {
                    "deltaTime": 5,
                    "type": "channel",
                    "subtype": "noteOff",
                    "channel": 2,
                    "noteNumber": 70,
                    "velocity": 0,
                    "lightChannels": [
                        5
                    ]
                }
            }
        }
    },
    {
        "changes": {
            "garden": 1
        },
        "timeout": 0.024364379166666665,
        "raw": {
            "garden": {
                "pinValue": 1,
                "ticks": 10,
                "event": {
                    "deltaTime": 10,
                    "type": "channel",
                    "subtype": "noteOn",
                    "channel": 2,
                    "noteNumber": 65,
                    "velocity": 99,
                    "lightChannels": [
                        8
                    ]
                }
            }
        }
    },
    {
        "changes": {
            "garden": 0
        },
        "timeout": 0.09957615833333333,
        "raw": {
            "garden": {
                "pinValue": 0,
                "ticks": 1,
                "event": {
                    "deltaTime": 1,
                    "type": "channel",
                    "subtype": "noteOff",
                    "channel": 2,
                    "noteNumber": 65,
                    "velocity": 0,
                    "lightChannels": [
                        8
                    ]
                }
            }
        }
    },
    {
        "changes": {
            "tree": 1
        },
        "timeout": 0.022245737499999998,
        "raw": {
            "tree": {
                "pinValue": 1,
                "ticks": 15,
                "event": {
                    "deltaTime": 15,
                    "type": "channel",
                    "subtype": "noteOn",
                    "channel": 2,
                    "noteNumber": 70,
                    "velocity": 112,
                    "lightChannels": [
                        9
                    ]
                }
            }
        }
    },
    {
        "changes": {
            "window": 1,
            "outline": 1
        },
        "timeout": 0.03389826666666666,
        "raw": {
            "window": {
                "pinValue": 1,
                "ticks": 8,
                "event": {
                    "deltaTime": 8,
                    "type": "channel",
                    "subtype": "noteOn",
                    "channel": 9,
                    "noteNumber": 54,
                    "velocity": 83,
                    "lightChannels": [
                        6,
                        7
                    ]
                }
            },
            "outline": {
                "pinValue": 1,
                "ticks": 8,
                "event": {
                    "deltaTime": 8,
                    "type": "channel",
                    "subtype": "noteOn",
                    "channel": 9,
                    "noteNumber": 54,
                    "velocity": 83,
                    "lightChannels": [
                        6,
                        7
                    ]
                }
            }
        }
    },
    {
        "changes": {
            "tree": 0
        },
        "timeout": 0.05402536249999999,
        "raw": {
            "tree": {
                "pinValue": 0,
                "ticks": 5,
                "event": {
                    "deltaTime": 5,
                    "type": "channel",
                    "subtype": "noteOff",
                    "channel": 2,
                    "noteNumber": 70,
                    "velocity": 0,
                    "lightChannels": [
                        9
                    ]
                }
            }
        }
    },
    {
        "changes": {
            "window": 0,
            "outline": 0
        },
        "timeout": 0.009533887499999998,
        "raw": {
            "window": {
                "pinValue": 0,
                "ticks": 2,
                "event": {
                    "deltaTime": 2,
                    "type": "channel",
                    "subtype": "noteOff",
                    "channel": 9,
                    "noteNumber": 54,
                    "velocity": 0,
                    "lightChannels": [
                        6,
                        7
                    ]
                }
            },
            "outline": {
                "pinValue": 0,
                "ticks": 2,
                "event": {
                    "deltaTime": 2,
                    "type": "channel",
                    "subtype": "noteOff",
                    "channel": 9,
                    "noteNumber": 54,
                    "velocity": 0,
                    "lightChannels": [
                        6,
                        7
                    ]
                }
            }
        }
    },
    {
        "changes": {
            "col-1": 1,
            "col-2": 1,
            "col-3": 1,
            "garden": 1,
            "tree": 1
        },
        "timeout": 0.022245737499999994,
        "raw": {
            "col-1": {
                "pinValue": 1,
                "ticks": 6,
                "event": {
                    "deltaTime": 6,
                    "type": "channel",
                    "subtype": "noteOn",
                    "channel": 2,
                    "noteNumber": 72,
                    "velocity": 119,
                    "lightChannels": [
                        3,
                        4,
                        5,
                        8,
                        9
                    ]
                }
            },
            "col-2": {
                "pinValue": 1,
                "ticks": 6,
                "event": {
                    "deltaTime": 6,
                    "type": "channel",
                    "subtype": "noteOn",
                    "channel": 2,
                    "noteNumber": 72,
                    "velocity": 119,
                    "lightChannels": [
                        3,
                        4,
                        5,
                        8,
                        9
                    ]
                }
            },
            "col-3": {
                "pinValue": 1,
                "ticks": 6,
                "event": {
                    "deltaTime": 6,
                    "type": "channel",
                    "subtype": "noteOn",
                    "channel": 2,
                    "noteNumber": 72,
                    "velocity": 119,
                    "lightChannels": [
                        3,
                        4,
                        5,
                        8,
                        9
                    ]
                }
            },
            "garden": {
                "pinValue": 1,
                "ticks": 6,
                "event": {
                    "deltaTime": 6,
                    "type": "channel",
                    "subtype": "noteOn",
                    "channel": 2,
                    "noteNumber": 72,
                    "velocity": 119,
                    "lightChannels": [
                        3,
                        4,
                        5,
                        8,
                        9
                    ]
                }
            },
            "tree": {
                "pinValue": 1,
                "ticks": 6,
                "event": {
                    "deltaTime": 6,
                    "type": "channel",
                    "subtype": "noteOn",
                    "channel": 2,
                    "noteNumber": 72,
                    "velocity": 119,
                    "lightChannels": [
                        3,
                        4,
                        5,
                        8,
                        9
                    ]
                }
            }
        }
    },
    {
        "changes": {
            "col-1": 0,
            "col-2": 0,
            "col-3": 0,
            "garden": 0,
            "tree": 0
        },
        "timeout": 0.0858049875,
        "raw": {
            "col-1": {
                "pinValue": 0,
                "ticks": 3,
                "event": {
                    "deltaTime": 3,
                    "type": "channel",
                    "subtype": "noteOff",
                    "channel": 2,
                    "noteNumber": 72,
                    "velocity": 0,
                    "lightChannels": [
                        3,
                        4,
                        5,
                        8,
                        9
                    ]
                }
            },
            "col-2": {
                "pinValue": 0,
                "ticks": 3,
                "event": {
                    "deltaTime": 3,
                    "type": "channel",
                    "subtype": "noteOff",
                    "channel": 2,
                    "noteNumber": 72,
                    "velocity": 0,
                    "lightChannels": [
                        3,
                        4,
                        5,
                        8,
                        9
                    ]
                }
            },
            "col-3": {
                "pinValue": 0,
                "ticks": 3,
                "event": {
                    "deltaTime": 3,
                    "type": "channel",
                    "subtype": "noteOff",
                    "channel": 2,
                    "noteNumber": 72,
                    "velocity": 0,
                    "lightChannels": [
                        3,
                        4,
                        5,
                        8,
                        9
                    ]
                }
            },
            "garden": {
                "pinValue": 0,
                "ticks": 3,
                "event": {
                    "deltaTime": 3,
                    "type": "channel",
                    "subtype": "noteOff",
                    "channel": 2,
                    "noteNumber": 72,
                    "velocity": 0,
                    "lightChannels": [
                        3,
                        4,
                        5,
                        8,
                        9
                    ]
                }
            },
            "tree": {
                "pinValue": 0,
                "ticks": 3,
                "event": {
                    "deltaTime": 3,
                    "type": "channel",
                    "subtype": "noteOff",
                    "channel": 2,
                    "noteNumber": 72,
                    "velocity": 0,
                    "lightChannels": [
                        3,
                        4,
                        5,
                        8,
                        9
                    ]
                }
            }
        }
    },
    {
        "changes": {
            "col-1": 1
        },
        "timeout": 0.018008454166666663,
        "raw": {
            "col-1": {
                "pinValue": 1,
                "ticks": 11,
                "event": {
                    "deltaTime": 11,
                    "type": "channel",
                    "subtype": "noteOn",
                    "channel": 2,
                    "noteNumber": 77,
                    "velocity": 112,
                    "lightChannels": [
                        3
                    ]
                }
            }
        }
    },
    {
        "changes": {
            "window": 1,
            "outline": 1
        },
        "timeout": 0.04343215416666667,
        "raw": {
            "window": {
                "pinValue": 1,
                "ticks": 8,
                "event": {
                    "deltaTime": 8,
                    "type": "channel",
                    "subtype": "noteOn",
                    "channel": 9,
                    "noteNumber": 54,
                    "velocity": 79,
                    "lightChannels": [
                        6,
                        7
                    ]
                }
            },
            "outline": {
                "pinValue": 1,
                "ticks": 8,
                "event": {
                    "deltaTime": 8,
                    "type": "channel",
                    "subtype": "noteOn",
                    "channel": 9,
                    "noteNumber": 54,
                    "velocity": 79,
                    "lightChannels": [
                        6,
                        7
                    ]
                }
            }
        }
    },
    {
        "changes": {
            "window": 0,
            "outline": 0
        },
        "timeout": 0.06355925,
        "raw": {
            "window": {
                "pinValue": 0,
                "ticks": 11,
                "event": {
                    "deltaTime": 11,
                    "type": "channel",
                    "subtype": "noteOff",
                    "channel": 9,
                    "noteNumber": 54,
                    "velocity": 0,
                    "lightChannels": [
                        6,
                        7
                    ]
                }
            },
            "outline": {
                "pinValue": 0,
                "ticks": 11,
                "event": {
                    "deltaTime": 11,
                    "type": "channel",
                    "subtype": "noteOff",
                    "channel": 9,
                    "noteNumber": 54,
                    "velocity": 0,
                    "lightChannels": [
                        6,
                        7
                    ]
                }
            }
        }
    },
    {
        "changes": {
            "col-1": 0
        },
        "timeout": 0.0021186416666666664,
        "raw": {
            "col-1": {
                "pinValue": 0,
                "ticks": 2,
                "event": {
                    "deltaTime": 2,
                    "type": "channel",
                    "subtype": "noteOff",
                    "channel": 2,
                    "noteNumber": 77,
                    "velocity": 0,
                    "lightChannels": [
                        3
                    ]
                }
            }
        }
    },
    {
        "changes": {
            "col-2": 1
        },
        "timeout": 0.17266929583333332,
        "raw": {
            "col-2": {
                "pinValue": 1,
                "ticks": 3,
                "event": {
                    "deltaTime": 3,
                    "type": "channel",
                    "subtype": "noteOn",
                    "channel": 2,
                    "noteNumber": 72,
                    "velocity": 119,
                    "lightChannels": [
                        4
                    ]
                }
            }
        }
    },
    {
        "changes": {
            "window": 1,
            "outline": 1
        },
        "timeout": 0.008474566666666666,
        "raw": {
            "window": {
                "pinValue": 1,
                "ticks": 8,
                "event": {
                    "deltaTime": 8,
                    "type": "channel",
                    "subtype": "noteOn",
                    "channel": 9,
                    "noteNumber": 54,
                    "velocity": 83,
                    "lightChannels": [
                        6,
                        7
                    ]
                }
            },
            "outline": {
                "pinValue": 1,
                "ticks": 8,
                "event": {
                    "deltaTime": 8,
                    "type": "channel",
                    "subtype": "noteOn",
                    "channel": 9,
                    "noteNumber": 54,
                    "velocity": 83,
                    "lightChannels": [
                        6,
                        7
                    ]
                }
            }
        }
    },
    {
        "changes": {
            "window": 0,
            "outline": 0
        },
        "timeout": 0.06567789166666667,
        "raw": {
            "window": {
                "pinValue": 0,
                "ticks": 1,
                "event": {
                    "deltaTime": 1,
                    "type": "channel",
                    "subtype": "noteOff",
                    "channel": 9,
                    "noteNumber": 54,
                    "velocity": 0,
                    "lightChannels": [
                        6,
                        7
                    ]
                }
            },
            "outline": {
                "pinValue": 0,
                "ticks": 1,
                "event": {
                    "deltaTime": 1,
                    "type": "channel",
                    "subtype": "noteOff",
                    "channel": 9,
                    "noteNumber": 54,
                    "velocity": 0,
                    "lightChannels": [
                        6,
                        7
                    ]
                }
            }
        }
    },
    {
        "changes": {
            "col-2": 0
        },
        "timeout": 0.0021186416666666664,
        "raw": {
            "col-2": {
                "pinValue": 0,
                "ticks": 2,
                "event": {
                    "deltaTime": 2,
                    "type": "channel",
                    "subtype": "noteOff",
                    "channel": 2,
                    "noteNumber": 72,
                    "velocity": 0,
                    "lightChannels": [
                        4
                    ]
                }
            }
        }
    },
    {
        "changes": {
            "window": 1,
            "outline": 1
        },
        "timeout": 0.1822031833333333,
        "raw": {
            "window": {
                "pinValue": 1,
                "ticks": 5,
                "event": {
                    "deltaTime": 5,
                    "type": "channel",
                    "subtype": "noteOn",
                    "channel": 9,
                    "noteNumber": 54,
                    "velocity": 76,
                    "lightChannels": [
                        6,
                        7
                    ]
                }
            },
            "outline": {
                "pinValue": 1,
                "ticks": 5,
                "event": {
                    "deltaTime": 5,
                    "type": "channel",
                    "subtype": "noteOn",
                    "channel": 9,
                    "noteNumber": 54,
                    "velocity": 76,
                    "lightChannels": [
                        6,
                        7
                    ]
                }
            }
        }
    },
    {
        "changes": {
            "col-3": 1
        },
        "timeout": 0.0031779624999999996,
        "raw": {
            "col-3": {
                "pinValue": 1,
                "ticks": 3,
                "event": {
                    "deltaTime": 3,
                    "type": "channel",
                    "subtype": "noteOn",
                    "channel": 2,
                    "noteNumber": 70,
                    "velocity": 120,
                    "lightChannels": [
                        5
                    ]
                }
            }
        }
    },
    {
        "changes": {
            "window": 0,
            "outline": 0
        },
        "timeout": 0.06355925,
        "raw": {
            "window": {
                "pinValue": 0,
                "ticks": 2,
                "event": {
                    "deltaTime": 2,
                    "type": "channel",
                    "subtype": "noteOff",
                    "channel": 9,
                    "noteNumber": 54,
                    "velocity": 0,
                    "lightChannels": [
                        6,
                        7
                    ]
                }
            },
            "outline": {
                "pinValue": 0,
                "ticks": 2,
                "event": {
                    "deltaTime": 2,
                    "type": "channel",
                    "subtype": "noteOff",
                    "channel": 9,
                    "noteNumber": 54,
                    "velocity": 0,
                    "lightChannels": [
                        6,
                        7
                    ]
                }
            }
        }
    },
    {
        "changes": {
            "col-3": 0
        },
        "timeout": 0.030720304166666663,
        "raw": {
            "col-3": {
                "pinValue": 0,
                "ticks": 11,
                "event": {
                    "deltaTime": 11,
                    "type": "channel",
                    "subtype": "noteOff",
                    "channel": 2,
                    "noteNumber": 70,
                    "velocity": 0,
                    "lightChannels": [
                        5
                    ]
                }
            }
        }
    },
    {
        "changes": {
            "col-1": 1,
            "col-2": 1,
            "col-3": 1
        },
        "timeout": 0.15042355833333332,
        "raw": {
            "col-1": {
                "pinValue": 1,
                "ticks": 5,
                "event": {
                    "deltaTime": 5,
                    "type": "channel",
                    "subtype": "noteOn",
                    "channel": 2,
                    "noteNumber": 65,
                    "velocity": 118,
                    "lightChannels": [
                        3,
                        4,
                        5
                    ]
                }
            },
            "col-2": {
                "pinValue": 1,
                "ticks": 5,
                "event": {
                    "deltaTime": 5,
                    "type": "channel",
                    "subtype": "noteOn",
                    "channel": 2,
                    "noteNumber": 65,
                    "velocity": 118,
                    "lightChannels": [
                        3,
                        4,
                        5
                    ]
                }
            },
            "col-3": {
                "pinValue": 1,
                "ticks": 5,
                "event": {
                    "deltaTime": 5,
                    "type": "channel",
                    "subtype": "noteOn",
                    "channel": 2,
                    "noteNumber": 65,
                    "velocity": 118,
                    "lightChannels": [
                        3,
                        4,
                        5
                    ]
                }
            }
        }
    },
    {
        "changes": {
            "window": 1,
            "outline": 1
        },
        "timeout": 0.014830491666666664,
        "raw": {
            "window": {
                "pinValue": 1,
                "ticks": 14,
                "event": {
                    "deltaTime": 14,
                    "type": "channel",
                    "subtype": "noteOn",
                    "channel": 9,
                    "noteNumber": 54,
                    "velocity": 101,
                    "lightChannels": [
                        6,
                        7
                    ]
                }
            },
            "outline": {
                "pinValue": 1,
                "ticks": 14,
                "event": {
                    "deltaTime": 14,
                    "type": "channel",
                    "subtype": "noteOn",
                    "channel": 9,
                    "noteNumber": 54,
                    "velocity": 101,
                    "lightChannels": [
                        6,
                        7
                    ]
                }
            }
        }
    },
    {
        "changes": {
            "window": 0,
            "outline": 0
        },
        "timeout": 0.08792362916666666,
        "raw": {
            "window": {
                "pinValue": 0,
                "ticks": 16,
                "event": {
                    "deltaTime": 16,
                    "type": "channel",
                    "subtype": "noteOff",
                    "channel": 9,
                    "noteNumber": 54,
                    "velocity": 0,
                    "lightChannels": [
                        6,
                        7
                    ]
                }
            },
            "outline": {
                "pinValue": 0,
                "ticks": 16,
                "event": {
                    "deltaTime": 16,
                    "type": "channel",
                    "subtype": "noteOff",
                    "channel": 9,
                    "noteNumber": 54,
                    "velocity": 0,
                    "lightChannels": [
                        6,
                        7
                    ]
                }
            }
        }
    },
    {
        "changes": {
            "col-1": 0,
            "col-2": 0,
            "col-3": 0
        },
        "timeout": 0.022245737499999998,
        "raw": {
            "col-1": {
                "pinValue": 0,
                "ticks": 1,
                "event": {
                    "deltaTime": 1,
                    "type": "channel",
                    "subtype": "noteOff",
                    "channel": 2,
                    "noteNumber": 65,
                    "velocity": 0,
                    "lightChannels": [
                        3,
                        4,
                        5
                    ]
                }
            },
            "col-2": {
                "pinValue": 0,
                "ticks": 1,
                "event": {
                    "deltaTime": 1,
                    "type": "channel",
                    "subtype": "noteOff",
                    "channel": 2,
                    "noteNumber": 65,
                    "velocity": 0,
                    "lightChannels": [
                        3,
                        4,
                        5
                    ]
                }
            },
            "col-3": {
                "pinValue": 0,
                "ticks": 1,
                "event": {
                    "deltaTime": 1,
                    "type": "channel",
                    "subtype": "noteOff",
                    "channel": 2,
                    "noteNumber": 65,
                    "velocity": 0,
                    "lightChannels": [
                        3,
                        4,
                        5
                    ]
                }
            }
        }
    },
    {
        "changes": {
            "tree": 1
        },
        "timeout": 0.15889812499999997,
        "raw": {
            "tree": {
                "pinValue": 1,
                "ticks": 10,
                "event": {
                    "deltaTime": 10,
                    "type": "channel",
                    "subtype": "noteOn",
                    "channel": 4,
                    "noteNumber": 81,
                    "velocity": 115,
                    "lightChannels": [
                        9
                    ]
                }
            }
        }
    },
    {
        "changes": {
            "tree": 0
        },
        "timeout": 0.07627109999999998,
        "raw": {
            "tree": {
                "pinValue": 0,
                "ticks": 10,
                "event": {
                    "deltaTime": 10,
                    "type": "channel",
                    "subtype": "noteOff",
                    "channel": 4,
                    "noteNumber": 81,
                    "velocity": 0,
                    "lightChannels": [
                        9
                    ]
                }
            }
        }
    },
    {
        "changes": {
            "tree": 1
        },
        "timeout": 0.1726692958333333,
        "raw": {
            "tree": {
                "pinValue": 1,
                "ticks": 0,
                "event": {
                    "deltaTime": 0,
                    "type": "channel",
                    "subtype": "noteOn",
                    "channel": 4,
                    "noteNumber": 81,
                    "velocity": 115,
                    "lightChannels": [
                        9
                    ]
                }
            }
        }
    },
    {
        "changes": {
            "tree": 0
        },
        "timeout": 0.09533887499999999,
        "raw": {
            "tree": {
                "pinValue": 0,
                "ticks": 8,
                "event": {
                    "deltaTime": 8,
                    "type": "channel",
                    "subtype": "noteOff",
                    "channel": 4,
                    "noteNumber": 81,
                    "velocity": 0,
                    "lightChannels": [
                        9
                    ]
                }
            }
        }
    },
    {
        "changes": {
            "tree": 1
        },
        "timeout": 0.1567794833333333,
        "raw": {
            "tree": {
                "pinValue": 1,
                "ticks": 7,
                "event": {
                    "deltaTime": 7,
                    "type": "channel",
                    "subtype": "noteOn",
                    "channel": 4,
                    "noteNumber": 81,
                    "velocity": 118,
                    "lightChannels": [
                        9
                    ]
                }
            }
        }
    },
    {
        "changes": {
            "window": 1,
            "outline": 1
        },
        "timeout": 0.011652529166666665,
        "raw": {
            "window": {
                "pinValue": 1,
                "ticks": 8,
                "event": {
                    "deltaTime": 8,
                    "type": "channel",
                    "subtype": "noteOn",
                    "channel": 9,
                    "noteNumber": 54,
                    "velocity": 87,
                    "lightChannels": [
                        6,
                        7
                    ]
                }
            },
            "outline": {
                "pinValue": 1,
                "ticks": 8,
                "event": {
                    "deltaTime": 8,
                    "type": "channel",
                    "subtype": "noteOn",
                    "channel": 9,
                    "noteNumber": 54,
                    "velocity": 87,
                    "lightChannels": [
                        6,
                        7
                    ]
                }
            }
        }
    },
    {
        "changes": {
            "window": 0,
            "outline": 0
        },
        "timeout": 0.06673721249999999,
        "raw": {
            "window": {
                "pinValue": 0,
                "ticks": 15,
                "event": {
                    "deltaTime": 15,
                    "type": "channel",
                    "subtype": "noteOff",
                    "channel": 9,
                    "noteNumber": 54,
                    "velocity": 0,
                    "lightChannels": [
                        6,
                        7
                    ]
                }
            },
            "outline": {
                "pinValue": 0,
                "ticks": 15,
                "event": {
                    "deltaTime": 15,
                    "type": "channel",
                    "subtype": "noteOff",
                    "channel": 9,
                    "noteNumber": 54,
                    "velocity": 0,
                    "lightChannels": [
                        6,
                        7
                    ]
                }
            }
        }
    },
    {
        "changes": {
            "tree": 0
        },
        "timeout": 0.019067775,
        "raw": {
            "tree": {
                "pinValue": 0,
                "ticks": 8,
                "event": {
                    "deltaTime": 8,
                    "type": "channel",
                    "subtype": "noteOff",
                    "channel": 4,
                    "noteNumber": 81,
                    "velocity": 0,
                    "lightChannels": [
                        9
                    ]
                }
            }
        }
    },
    {
        "changes": {
            "tree": 1
        },
        "timeout": 0.14724559583333333,
        "raw": {
            "tree": {
                "pinValue": 1,
                "ticks": 10,
                "event": {
                    "deltaTime": 10,
                    "type": "channel",
                    "subtype": "noteOn",
                    "channel": 4,
                    "noteNumber": 81,
                    "velocity": 118,
                    "lightChannels": [
                        9
                    ]
                }
            }
        }
    },
    {
        "changes": {
            "window": 1,
            "outline": 1
        },
        "timeout": 0.030720304166666663,
        "raw": {
            "window": {
                "pinValue": 1,
                "ticks": 20,
                "event": {
                    "deltaTime": 20,
                    "type": "channel",
                    "subtype": "noteOn",
                    "channel": 9,
                    "noteNumber": 54,
                    "velocity": 90,
                    "lightChannels": [
                        6,
                        7
                    ]
                }
            },
            "outline": {
                "pinValue": 1,
                "ticks": 20,
                "event": {
                    "deltaTime": 20,
                    "type": "channel",
                    "subtype": "noteOn",
                    "channel": 9,
                    "noteNumber": 54,
                    "velocity": 90,
                    "lightChannels": [
                        6,
                        7
                    ]
                }
            }
        }
    },
    {
        "changes": {
            "window": 0,
            "outline": 0
        },
        "timeout": 0.069915175,
        "raw": {
            "window": {
                "pinValue": 0,
                "ticks": 1,
                "event": {
                    "deltaTime": 1,
                    "type": "channel",
                    "subtype": "noteOff",
                    "channel": 9,
                    "noteNumber": 54,
                    "velocity": 0,
                    "lightChannels": [
                        6,
                        7
                    ]
                }
            },
            "outline": {
                "pinValue": 0,
                "ticks": 1,
                "event": {
                    "deltaTime": 1,
                    "type": "channel",
                    "subtype": "noteOff",
                    "channel": 9,
                    "noteNumber": 54,
                    "velocity": 0,
                    "lightChannels": [
                        6,
                        7
                    ]
                }
            }
        }
    },
    {
        "changes": {
            "tree": 0
        },
        "timeout": 0.0010593208333333332,
        "raw": {
            "tree": {
                "pinValue": 0,
                "ticks": 1,
                "event": {
                    "deltaTime": 1,
                    "type": "channel",
                    "subtype": "noteOff",
                    "channel": 4,
                    "noteNumber": 81,
                    "velocity": 0,
                    "lightChannels": [
                        9
                    ]
                }
            }
        }
    },
    {
        "changes": {
            "garden": 1
        },
        "timeout": 0.15466084166666666,
        "raw": {
            "garden": {
                "pinValue": 1,
                "ticks": 2,
                "event": {
                    "deltaTime": 2,
                    "type": "channel",
                    "subtype": "noteOn",
                    "channel": 4,
                    "noteNumber": 77,
                    "velocity": 115,
                    "lightChannels": [
                        8
                    ]
                }
            }
        }
    },
    {
        "changes": {
            "garden": 0
        },
        "timeout": 0.09533887500000002,
        "raw": {
            "garden": {
                "pinValue": 0,
                "ticks": 16,
                "event": {
                    "deltaTime": 16,
                    "type": "channel",
                    "subtype": "noteOff",
                    "channel": 4,
                    "noteNumber": 77,
                    "velocity": 0,
                    "lightChannels": [
                        8
                    ]
                }
            }
        }
    },
    {
        "changes": {
            "garden": 1
        },
        "timeout": 0.1567794833333333,
        "raw": {
            "garden": {
                "pinValue": 1,
                "ticks": 2,
                "event": {
                    "deltaTime": 2,
                    "type": "channel",
                    "subtype": "noteOn",
                    "channel": 4,
                    "noteNumber": 77,
                    "velocity": 113,
                    "lightChannels": [
                        8
                    ]
                }
            }
        }
    },
    {
        "changes": {
            "garden": 0
        },
        "timeout": 0.09639819583333332,
        "raw": {
            "garden": {
                "pinValue": 0,
                "ticks": 2,
                "event": {
                    "deltaTime": 2,
                    "type": "channel",
                    "subtype": "noteOff",
                    "channel": 4,
                    "noteNumber": 77,
                    "velocity": 0,
                    "lightChannels": [
                        8
                    ]
                }
            }
        }
    },
    {
        "changes": {
            "window": 1,
            "outline": 1
        },
        "timeout": 0.1472455958333333,
        "raw": {
            "window": {
                "pinValue": 1,
                "ticks": 3,
                "event": {
                    "deltaTime": 3,
                    "type": "channel",
                    "subtype": "noteOn",
                    "channel": 9,
                    "noteNumber": 54,
                    "velocity": 88,
                    "lightChannels": [
                        6,
                        7
                    ]
                }
            },
            "outline": {
                "pinValue": 1,
                "ticks": 3,
                "event": {
                    "deltaTime": 3,
                    "type": "channel",
                    "subtype": "noteOn",
                    "channel": 9,
                    "noteNumber": 54,
                    "velocity": 88,
                    "lightChannels": [
                        6,
                        7
                    ]
                }
            }
        }
    },
    {
        "changes": {
            "garden": 1
        },
        "timeout": 0.0052966041666666665,
        "raw": {
            "garden": {
                "pinValue": 1,
                "ticks": 2,
                "event": {
                    "deltaTime": 2,
                    "type": "channel",
                    "subtype": "noteOn",
                    "channel": 4,
                    "noteNumber": 77,
                    "velocity": 112,
                    "lightChannels": [
                        8
                    ]
                }
            }
        }
    },
    {
        "changes": {
            "window": 0,
            "outline": 0
        },
        "timeout": 0.06144060833333333,
        "raw": {
            "window": {
                "pinValue": 0,
                "ticks": 1,
                "event": {
                    "deltaTime": 1,
                    "type": "channel",
                    "subtype": "noteOff",
                    "channel": 9,
                    "noteNumber": 54,
                    "velocity": 0,
                    "lightChannels": [
                        6,
                        7
                    ]
                }
            },
            "outline": {
                "pinValue": 0,
                "ticks": 1,
                "event": {
                    "deltaTime": 1,
                    "type": "channel",
                    "subtype": "noteOff",
                    "channel": 9,
                    "noteNumber": 54,
                    "velocity": 0,
                    "lightChannels": [
                        6,
                        7
                    ]
                }
            }
        }
    },
    {
        "changes": {
            "garden": 0
        },
        "timeout": 0.03177962499999999,
        "raw": {
            "garden": {
                "pinValue": 0,
                "ticks": 2,
                "event": {
                    "deltaTime": 2,
                    "type": "channel",
                    "subtype": "noteOff",
                    "channel": 4,
                    "noteNumber": 77,
                    "velocity": 0,
                    "lightChannels": [
                        8
                    ]
                }
            }
        }
    },
    {
        "changes": {
            "garden": 1
        },
        "timeout": 0.1525422,
        "raw": {
            "garden": {
                "pinValue": 1,
                "ticks": 7,
                "event": {
                    "deltaTime": 7,
                    "type": "channel",
                    "subtype": "noteOn",
                    "channel": 4,
                    "noteNumber": 77,
                    "velocity": 122,
                    "lightChannels": [
                        8
                    ]
                }
            }
        }
    },
    {
        "changes": {
            "window": 1,
            "outline": 1
        },
        "timeout": 0.014830491666666664,
        "raw": {
            "window": {
                "pinValue": 1,
                "ticks": 6,
                "event": {
                    "deltaTime": 6,
                    "type": "channel",
                    "subtype": "noteOn",
                    "channel": 9,
                    "noteNumber": 54,
                    "velocity": 98,
                    "lightChannels": [
                        6,
                        7
                    ]
                }
            },
            "outline": {
                "pinValue": 1,
                "ticks": 6,
                "event": {
                    "deltaTime": 6,
                    "type": "channel",
                    "subtype": "noteOn",
                    "channel": 9,
                    "noteNumber": 54,
                    "velocity": 98,
                    "lightChannels": [
                        6,
                        7
                    ]
                }
            }
        }
    },
    {
        "changes": {
            "window": 0,
            "outline": 0
        },
        "timeout": 0.08050838333333332,
        "raw": {
            "window": {
                "pinValue": 0,
                "ticks": 4,
                "event": {
                    "deltaTime": 4,
                    "type": "channel",
                    "subtype": "noteOff",
                    "channel": 9,
                    "noteNumber": 54,
                    "velocity": 0,
                    "lightChannels": [
                        6,
                        7
                    ]
                }
            },
            "outline": {
                "pinValue": 0,
                "ticks": 4,
                "event": {
                    "deltaTime": 4,
                    "type": "channel",
                    "subtype": "noteOff",
                    "channel": 9,
                    "noteNumber": 54,
                    "velocity": 0,
                    "lightChannels": [
                        6,
                        7
                    ]
                }
            }
        }
    },
    {
        "changes": {
            "garden": 0
        },
        "timeout": 0.007415245833333332,
        "raw": {
            "garden": {
                "pinValue": 0,
                "ticks": 1,
                "event": {
                    "deltaTime": 1,
                    "type": "channel",
                    "subtype": "noteOff",
                    "channel": 4,
                    "noteNumber": 77,
                    "velocity": 0,
                    "lightChannels": [
                        8
                    ]
                }
            }
        }
    },
    {
        "changes": {
            "window": 1,
            "outline": 1
        },
        "timeout": 0.1610167666666666,
        "raw": {
            "window": {
                "pinValue": 1,
                "ticks": 1,
                "event": {
                    "deltaTime": 1,
                    "type": "channel",
                    "subtype": "noteOn",
                    "channel": 4,
                    "noteNumber": 74,
                    "velocity": 99,
                    "lightChannels": [
                        6,
                        7
                    ]
                }
            },
            "outline": {
                "pinValue": 1,
                "ticks": 1,
                "event": {
                    "deltaTime": 1,
                    "type": "channel",
                    "subtype": "noteOn",
                    "channel": 4,
                    "noteNumber": 74,
                    "velocity": 99,
                    "lightChannels": [
                        6,
                        7
                    ]
                }
            }
        }
    },
    {
        "changes": {
            "window": 0,
            "outline": 0
        },
        "timeout": 0.0858049875,
        "raw": {
            "window": {
                "pinValue": 0,
                "ticks": 1,
                "event": {
                    "deltaTime": 1,
                    "type": "channel",
                    "subtype": "noteOff",
                    "channel": 4,
                    "noteNumber": 74,
                    "velocity": 0,
                    "lightChannels": [
                        6,
                        7
                    ]
                }
            },
            "outline": {
                "pinValue": 0,
                "ticks": 1,
                "event": {
                    "deltaTime": 1,
                    "type": "channel",
                    "subtype": "noteOff",
                    "channel": 4,
                    "noteNumber": 74,
                    "velocity": 0,
                    "lightChannels": [
                        6,
                        7
                    ]
                }
            }
        }
    },
    {
        "changes": {
            "window": 1,
            "outline": 1
        },
        "timeout": 0.1620760875,
        "raw": {
            "window": {
                "pinValue": 1,
                "ticks": 2,
                "event": {
                    "deltaTime": 2,
                    "type": "channel",
                    "subtype": "noteOn",
                    "channel": 4,
                    "noteNumber": 74,
                    "velocity": 101,
                    "lightChannels": [
                        6,
                        7
                    ]
                }
            },
            "outline": {
                "pinValue": 1,
                "ticks": 2,
                "event": {
                    "deltaTime": 2,
                    "type": "channel",
                    "subtype": "noteOn",
                    "channel": 4,
                    "noteNumber": 74,
                    "velocity": 101,
                    "lightChannels": [
                        6,
                        7
                    ]
                }
            }
        }
    },
    {
        "changes": {
            "window": 0,
            "outline": 0
        },
        "timeout": 0.09004227083333333,
        "raw": {
            "window": {
                "pinValue": 0,
                "ticks": 21,
                "event": {
                    "deltaTime": 21,
                    "type": "channel",
                    "subtype": "noteOff",
                    "channel": 4,
                    "noteNumber": 74,
                    "velocity": 0,
                    "lightChannels": [
                        6,
                        7
                    ]
                }
            },
            "outline": {
                "pinValue": 0,
                "ticks": 21,
                "event": {
                    "deltaTime": 21,
                    "type": "channel",
                    "subtype": "noteOff",
                    "channel": 4,
                    "noteNumber": 74,
                    "velocity": 0,
                    "lightChannels": [
                        6,
                        7
                    ]
                }
            }
        }
    },
    {
        "changes": {
            "window": 1,
            "outline": 1
        },
        "timeout": 0.15783880416666665,
        "raw": {
            "window": {
                "pinValue": 1,
                "ticks": 3,
                "event": {
                    "deltaTime": 3,
                    "type": "channel",
                    "subtype": "noteOn",
                    "channel": 4,
                    "noteNumber": 74,
                    "velocity": 118,
                    "lightChannels": [
                        6,
                        7
                    ]
                }
            },
            "outline": {
                "pinValue": 1,
                "ticks": 3,
                "event": {
                    "deltaTime": 3,
                    "type": "channel",
                    "subtype": "noteOn",
                    "channel": 4,
                    "noteNumber": 74,
                    "velocity": 118,
                    "lightChannels": [
                        6,
                        7
                    ]
                }
            }
        }
    },
    {
        "changes": {
            "window": 1,
            "outline": 1
        },
        "timeout": 0.01694913333333333,
        "raw": {
            "window": {
                "pinValue": 1,
                "ticks": 0,
                "event": {
                    "deltaTime": 0,
                    "type": "channel",
                    "subtype": "noteOn",
                    "channel": 9,
                    "noteNumber": 54,
                    "velocity": 93,
                    "lightChannels": [
                        6,
                        7
                    ]
                }
            },
            "outline": {
                "pinValue": 1,
                "ticks": 0,
                "event": {
                    "deltaTime": 0,
                    "type": "channel",
                    "subtype": "noteOn",
                    "channel": 9,
                    "noteNumber": 54,
                    "velocity": 93,
                    "lightChannels": [
                        6,
                        7
                    ]
                }
            }
        }
    },
    {
        "changes": {
            "window": 0,
            "outline": 0
        },
        "timeout": 0.06779653333333333,
        "raw": {
            "window": {
                "pinValue": 0,
                "ticks": 58,
                "event": {
                    "deltaTime": 58,
                    "type": "channel",
                    "subtype": "noteOff",
                    "channel": 9,
                    "noteNumber": 54,
                    "velocity": 0,
                    "lightChannels": [
                        6,
                        7
                    ]
                }
            },
            "outline": {
                "pinValue": 0,
                "ticks": 58,
                "event": {
                    "deltaTime": 58,
                    "type": "channel",
                    "subtype": "noteOff",
                    "channel": 9,
                    "noteNumber": 54,
                    "velocity": 0,
                    "lightChannels": [
                        6,
                        7
                    ]
                }
            }
        }
    },
    {
        "changes": {
            "window": 0,
            "outline": 0
        },
        "timeout": 0.010593208333333331,
        "raw": {
            "window": {
                "pinValue": 0,
                "ticks": 3,
                "event": {
                    "deltaTime": 3,
                    "type": "channel",
                    "subtype": "noteOff",
                    "channel": 4,
                    "noteNumber": 74,
                    "velocity": 0,
                    "lightChannels": [
                        6,
                        7
                    ]
                }
            },
            "outline": {
                "pinValue": 0,
                "ticks": 3,
                "event": {
                    "deltaTime": 3,
                    "type": "channel",
                    "subtype": "noteOff",
                    "channel": 4,
                    "noteNumber": 74,
                    "velocity": 0,
                    "lightChannels": [
                        6,
                        7
                    ]
                }
            }
        }
    },
    {
        "changes": {
            "window": 1,
            "outline": 1
        },
        "timeout": 0.15466084166666666,
        "raw": {
            "window": {
                "pinValue": 1,
                "ticks": 97,
                "event": {
                    "deltaTime": 97,
                    "type": "channel",
                    "subtype": "noteOn",
                    "channel": 4,
                    "noteNumber": 74,
                    "velocity": 116,
                    "lightChannels": [
                        6,
                        7
                    ]
                }
            },
            "outline": {
                "pinValue": 1,
                "ticks": 97,
                "event": {
                    "deltaTime": 97,
                    "type": "channel",
                    "subtype": "noteOn",
                    "channel": 4,
                    "noteNumber": 74,
                    "velocity": 116,
                    "lightChannels": [
                        6,
                        7
                    ]
                }
            }
        }
    },
    {
        "changes": {
            "window": 1,
            "outline": 1
        },
        "timeout": 0.022245737499999998,
        "raw": {
            "window": {
                "pinValue": 1,
                "ticks": 1,
                "event": {
                    "deltaTime": 1,
                    "type": "channel",
                    "subtype": "noteOn",
                    "channel": 9,
                    "noteNumber": 54,
                    "velocity": 88,
                    "lightChannels": [
                        6,
                        7
                    ]
                }
            },
            "outline": {
                "pinValue": 1,
                "ticks": 1,
                "event": {
                    "deltaTime": 1,
                    "type": "channel",
                    "subtype": "noteOn",
                    "channel": 9,
                    "noteNumber": 54,
                    "velocity": 88,
                    "lightChannels": [
                        6,
                        7
                    ]
                }
            }
        }
    },
    {
        "changes": {
            "window": 0,
            "outline": 0
        },
        "timeout": 0.07097449583333332,
        "raw": {
            "window": {
                "pinValue": 0,
                "ticks": 0,
                "event": {
                    "deltaTime": 0,
                    "type": "channel",
                    "subtype": "noteOff",
                    "channel": 9,
                    "noteNumber": 54,
                    "velocity": 0,
                    "lightChannels": [
                        6,
                        7
                    ]
                }
            },
            "outline": {
                "pinValue": 0,
                "ticks": 0,
                "event": {
                    "deltaTime": 0,
                    "type": "channel",
                    "subtype": "noteOff",
                    "channel": 9,
                    "noteNumber": 54,
                    "velocity": 0,
                    "lightChannels": [
                        6,
                        7
                    ]
                }
            }
        }
    },
    {
        "changes": {
            "window": 0,
            "outline": 0
        },
        "timeout": 0.022245737499999998,
        "raw": {
            "window": {
                "pinValue": 0,
                "ticks": 10,
                "event": {
                    "deltaTime": 10,
                    "type": "channel",
                    "subtype": "noteOff",
                    "channel": 4,
                    "noteNumber": 74,
                    "velocity": 0,
                    "lightChannels": [
                        6,
                        7
                    ]
                }
            },
            "outline": {
                "pinValue": 0,
                "ticks": 10,
                "event": {
                    "deltaTime": 10,
                    "type": "channel",
                    "subtype": "noteOff",
                    "channel": 4,
                    "noteNumber": 74,
                    "velocity": 0,
                    "lightChannels": [
                        6,
                        7
                    ]
                }
            }
        }
    },
    {
        "changes": {
            "col-1": 1,
            "col-2": 1,
            "col-3": 1
        },
        "timeout": 0.1440676333333333,
        "raw": {
            "col-1": {
                "pinValue": 1,
                "ticks": 5,
                "event": {
                    "deltaTime": 5,
                    "type": "channel",
                    "subtype": "noteOn",
                    "channel": 4,
                    "noteNumber": 77,
                    "velocity": 121,
                    "lightChannels": [
                        3,
                        4,
                        5
                    ]
                }
            },
            "col-2": {
                "pinValue": 1,
                "ticks": 5,
                "event": {
                    "deltaTime": 5,
                    "type": "channel",
                    "subtype": "noteOn",
                    "channel": 4,
                    "noteNumber": 77,
                    "velocity": 121,
                    "lightChannels": [
                        3,
                        4,
                        5
                    ]
                }
            },
            "col-3": {
                "pinValue": 1,
                "ticks": 5,
                "event": {
                    "deltaTime": 5,
                    "type": "channel",
                    "subtype": "noteOn",
                    "channel": 4,
                    "noteNumber": 77,
                    "velocity": 121,
                    "lightChannels": [
                        3,
                        4,
                        5
                    ]
                }
            }
        }
    },
    {
        "changes": {
            "col-1": 0,
            "col-2": 0,
            "col-3": 0
        },
        "timeout": 0.09216091250000001,
        "raw": {
            "col-1": {
                "pinValue": 0,
                "ticks": 2,
                "event": {
                    "deltaTime": 2,
                    "type": "channel",
                    "subtype": "noteOff",
                    "channel": 4,
                    "noteNumber": 77,
                    "velocity": 0,
                    "lightChannels": [
                        3,
                        4,
                        5
                    ]
                }
            },
            "col-2": {
                "pinValue": 0,
                "ticks": 2,
                "event": {
                    "deltaTime": 2,
                    "type": "channel",
                    "subtype": "noteOff",
                    "channel": 4,
                    "noteNumber": 77,
                    "velocity": 0,
                    "lightChannels": [
                        3,
                        4,
                        5
                    ]
                }
            },
            "col-3": {
                "pinValue": 0,
                "ticks": 2,
                "event": {
                    "deltaTime": 2,
                    "type": "channel",
                    "subtype": "noteOff",
                    "channel": 4,
                    "noteNumber": 77,
                    "velocity": 0,
                    "lightChannels": [
                        3,
                        4,
                        5
                    ]
                }
            }
        }
    },
    {
        "changes": {
            "col-1": 1,
            "col-2": 1,
            "col-3": 1
        },
        "timeout": 0.14936423749999997,
        "raw": {
            "col-1": {
                "pinValue": 1,
                "ticks": 1,
                "event": {
                    "deltaTime": 1,
                    "type": "channel",
                    "subtype": "noteOn",
                    "channel": 4,
                    "noteNumber": 77,
                    "velocity": 122,
                    "lightChannels": [
                        3,
                        4,
                        5
                    ]
                }
            },
            "col-2": {
                "pinValue": 1,
                "ticks": 1,
                "event": {
                    "deltaTime": 1,
                    "type": "channel",
                    "subtype": "noteOn",
                    "channel": 4,
                    "noteNumber": 77,
                    "velocity": 122,
                    "lightChannels": [
                        3,
                        4,
                        5
                    ]
                }
            },
            "col-3": {
                "pinValue": 1,
                "ticks": 1,
                "event": {
                    "deltaTime": 1,
                    "type": "channel",
                    "subtype": "noteOn",
                    "channel": 4,
                    "noteNumber": 77,
                    "velocity": 122,
                    "lightChannels": [
                        3,
                        4,
                        5
                    ]
                }
            }
        }
    },
    {
        "changes": {
            "col-1": 0,
            "col-2": 0,
            "col-3": 0
        },
        "timeout": 0.09533887499999999,
        "raw": {
            "col-1": {
                "pinValue": 0,
                "ticks": 1,
                "event": {
                    "deltaTime": 1,
                    "type": "channel",
                    "subtype": "noteOff",
                    "channel": 4,
                    "noteNumber": 77,
                    "velocity": 0,
                    "lightChannels": [
                        3,
                        4,
                        5
                    ]
                }
            },
            "col-2": {
                "pinValue": 0,
                "ticks": 1,
                "event": {
                    "deltaTime": 1,
                    "type": "channel",
                    "subtype": "noteOff",
                    "channel": 4,
                    "noteNumber": 77,
                    "velocity": 0,
                    "lightChannels": [
                        3,
                        4,
                        5
                    ]
                }
            },
            "col-3": {
                "pinValue": 0,
                "ticks": 1,
                "event": {
                    "deltaTime": 1,
                    "type": "channel",
                    "subtype": "noteOff",
                    "channel": 4,
                    "noteNumber": 77,
                    "velocity": 0,
                    "lightChannels": [
                        3,
                        4,
                        5
                    ]
                }
            }
        }
    },
    {
        "changes": {
            "col-1": 1,
            "col-2": 1,
            "col-3": 1
        },
        "timeout": 0.16525404999999999,
        "raw": {
            "col-1": {
                "pinValue": 1,
                "ticks": 9,
                "event": {
                    "deltaTime": 9,
                    "type": "channel",
                    "subtype": "noteOn",
                    "channel": 4,
                    "noteNumber": 77,
                    "velocity": 122,
                    "lightChannels": [
                        3,
                        4,
                        5
                    ]
                }
            },
            "col-2": {
                "pinValue": 1,
                "ticks": 9,
                "event": {
                    "deltaTime": 9,
                    "type": "channel",
                    "subtype": "noteOn",
                    "channel": 4,
                    "noteNumber": 77,
                    "velocity": 122,
                    "lightChannels": [
                        3,
                        4,
                        5
                    ]
                }
            },
            "col-3": {
                "pinValue": 1,
                "ticks": 9,
                "event": {
                    "deltaTime": 9,
                    "type": "channel",
                    "subtype": "noteOn",
                    "channel": 4,
                    "noteNumber": 77,
                    "velocity": 122,
                    "lightChannels": [
                        3,
                        4,
                        5
                    ]
                }
            }
        }
    },
    {
        "changes": {
            "window": 1,
            "outline": 1
        },
        "timeout": 0.012711849999999998,
        "raw": {
            "window": {
                "pinValue": 1,
                "ticks": 5,
                "event": {
                    "deltaTime": 5,
                    "type": "channel",
                    "subtype": "noteOn",
                    "channel": 9,
                    "noteNumber": 54,
                    "velocity": 79,
                    "lightChannels": [
                        6,
                        7
                    ]
                }
            },
            "outline": {
                "pinValue": 1,
                "ticks": 5,
                "event": {
                    "deltaTime": 5,
                    "type": "channel",
                    "subtype": "noteOn",
                    "channel": 9,
                    "noteNumber": 54,
                    "velocity": 79,
                    "lightChannels": [
                        6,
                        7
                    ]
                }
            }
        }
    },
    {
        "changes": {
            "window": 0,
            "outline": 0
        },
        "timeout": 0.06673721249999999,
        "raw": {
            "window": {
                "pinValue": 0,
                "ticks": 3,
                "event": {
                    "deltaTime": 3,
                    "type": "channel",
                    "subtype": "noteOff",
                    "channel": 9,
                    "noteNumber": 54,
                    "velocity": 0,
                    "lightChannels": [
                        6,
                        7
                    ]
                }
            },
            "outline": {
                "pinValue": 0,
                "ticks": 3,
                "event": {
                    "deltaTime": 3,
                    "type": "channel",
                    "subtype": "noteOff",
                    "channel": 9,
                    "noteNumber": 54,
                    "velocity": 0,
                    "lightChannels": [
                        6,
                        7
                    ]
                }
            }
        }
    },
    {
        "changes": {
            "col-1": 0,
            "col-2": 0,
            "col-3": 0
        },
        "timeout": 0.01694913333333333,
        "raw": {
            "col-1": {
                "pinValue": 0,
                "ticks": 3,
                "event": {
                    "deltaTime": 3,
                    "type": "channel",
                    "subtype": "noteOff",
                    "channel": 4,
                    "noteNumber": 77,
                    "velocity": 0,
                    "lightChannels": [
                        3,
                        4,
                        5
                    ]
                }
            },
            "col-2": {
                "pinValue": 0,
                "ticks": 3,
                "event": {
                    "deltaTime": 3,
                    "type": "channel",
                    "subtype": "noteOff",
                    "channel": 4,
                    "noteNumber": 77,
                    "velocity": 0,
                    "lightChannels": [
                        3,
                        4,
                        5
                    ]
                }
            },
            "col-3": {
                "pinValue": 0,
                "ticks": 3,
                "event": {
                    "deltaTime": 3,
                    "type": "channel",
                    "subtype": "noteOff",
                    "channel": 4,
                    "noteNumber": 77,
                    "velocity": 0,
                    "lightChannels": [
                        3,
                        4,
                        5
                    ]
                }
            }
        }
    },
    {
        "changes": {
            "col-1": 1,
            "col-2": 1,
            "col-3": 1
        },
        "timeout": 0.14936423749999997,
        "raw": {
            "col-1": {
                "pinValue": 1,
                "ticks": 8,
                "event": {
                    "deltaTime": 8,
                    "type": "channel",
                    "subtype": "noteOn",
                    "channel": 4,
                    "noteNumber": 77,
                    "velocity": 113,
                    "lightChannels": [
                        3,
                        4,
                        5
                    ]
                }
            },
            "col-2": {
                "pinValue": 1,
                "ticks": 8,
                "event": {
                    "deltaTime": 8,
                    "type": "channel",
                    "subtype": "noteOn",
                    "channel": 4,
                    "noteNumber": 77,
                    "velocity": 113,
                    "lightChannels": [
                        3,
                        4,
                        5
                    ]
                }
            },
            "col-3": {
                "pinValue": 1,
                "ticks": 8,
                "event": {
                    "deltaTime": 8,
                    "type": "channel",
                    "subtype": "noteOn",
                    "channel": 4,
                    "noteNumber": 77,
                    "velocity": 113,
                    "lightChannels": [
                        3,
                        4,
                        5
                    ]
                }
            }
        }
    },
    {
        "changes": {
            "window": 1,
            "outline": 1
        },
        "timeout": 0.02012709583333333,
        "raw": {
            "window": {
                "pinValue": 1,
                "ticks": 6,
                "event": {
                    "deltaTime": 6,
                    "type": "channel",
                    "subtype": "noteOn",
                    "channel": 9,
                    "noteNumber": 54,
                    "velocity": 85,
                    "lightChannels": [
                        6,
                        7
                    ]
                }
            },
            "outline": {
                "pinValue": 1,
                "ticks": 6,
                "event": {
                    "deltaTime": 6,
                    "type": "channel",
                    "subtype": "noteOn",
                    "channel": 9,
                    "noteNumber": 54,
                    "velocity": 85,
                    "lightChannels": [
                        6,
                        7
                    ]
                }
            }
        }
    },
    {
        "changes": {
            "col-1": 0,
            "col-2": 0,
            "col-3": 0
        },
        "timeout": 0.07521177916666666,
        "raw": {
            "col-1": {
                "pinValue": 0,
                "ticks": 55,
                "event": {
                    "deltaTime": 55,
                    "type": "channel",
                    "subtype": "noteOff",
                    "channel": 4,
                    "noteNumber": 77,
                    "velocity": 0,
                    "lightChannels": [
                        3,
                        4,
                        5
                    ]
                }
            },
            "col-2": {
                "pinValue": 0,
                "ticks": 55,
                "event": {
                    "deltaTime": 55,
                    "type": "channel",
                    "subtype": "noteOff",
                    "channel": 4,
                    "noteNumber": 77,
                    "velocity": 0,
                    "lightChannels": [
                        3,
                        4,
                        5
                    ]
                }
            },
            "col-3": {
                "pinValue": 0,
                "ticks": 55,
                "event": {
                    "deltaTime": 55,
                    "type": "channel",
                    "subtype": "noteOff",
                    "channel": 4,
                    "noteNumber": 77,
                    "velocity": 0,
                    "lightChannels": [
                        3,
                        4,
                        5
                    ]
                }
            }
        }
    },
    {
        "changes": {
            "window": 0,
            "outline": 0
        },
        "timeout": 0.008474566666666666,
        "raw": {
            "window": {
                "pinValue": 0,
                "ticks": 6,
                "event": {
                    "deltaTime": 6,
                    "type": "channel",
                    "subtype": "noteOff",
                    "channel": 9,
                    "noteNumber": 54,
                    "velocity": 0,
                    "lightChannels": [
                        6,
                        7
                    ]
                }
            },
            "outline": {
                "pinValue": 0,
                "ticks": 6,
                "event": {
                    "deltaTime": 6,
                    "type": "channel",
                    "subtype": "noteOff",
                    "channel": 9,
                    "noteNumber": 54,
                    "velocity": 0,
                    "lightChannels": [
                        6,
                        7
                    ]
                }
            }
        }
    },
    {
        "changes": {
            "tree": 1
        },
        "timeout": 0.15995744583333332,
        "raw": {
            "tree": {
                "pinValue": 1,
                "ticks": 54,
                "event": {
                    "deltaTime": 54,
                    "type": "channel",
                    "subtype": "noteOn",
                    "channel": 4,
                    "noteNumber": 77,
                    "velocity": 119,
                    "lightChannels": [
                        9
                    ]
                }
            }
        }
    },
    {
        "changes": {
            "tree": 0
        },
        "timeout": 0.09004227083333333,
        "raw": {
            "tree": {
                "pinValue": 0,
                "ticks": 85,
                "event": {
                    "deltaTime": 85,
                    "type": "channel",
                    "subtype": "noteOff",
                    "channel": 4,
                    "noteNumber": 77,
                    "velocity": 0,
                    "lightChannels": [
                        9
                    ]
                }
            }
        }
    },
    {
        "changes": {
            "tree": 1
        },
        "timeout": 0.1663133708333333,
        "raw": {
            "tree": {
                "pinValue": 1,
                "ticks": 157,
                "event": {
                    "deltaTime": 157,
                    "type": "channel",
                    "subtype": "noteOn",
                    "channel": 4,
                    "noteNumber": 77,
                    "velocity": 119,
                    "lightChannels": [
                        9
                    ]
                }
            }
        }
    },
    {
        "changes": {
            "tree": 0
        },
        "timeout": 0.09745751666666666,
        "raw": {
            "tree": {
                "pinValue": 0,
                "ticks": 92,
                "event": {
                    "deltaTime": 92,
                    "type": "channel",
                    "subtype": "noteOff",
                    "channel": 4,
                    "noteNumber": 77,
                    "velocity": 0,
                    "lightChannels": [
                        9
                    ]
                }
            }
        }
    },
    {
        "changes": {
            "tree": 1
        },
        "timeout": 0.1567794833333333,
        "raw": {
            "tree": {
                "pinValue": 1,
                "ticks": 148,
                "event": {
                    "deltaTime": 148,
                    "type": "channel",
                    "subtype": "noteOn",
                    "channel": 4,
                    "noteNumber": 77,
                    "velocity": 116,
                    "lightChannels": [
                        9
                    ]
                }
            }
        }
    },
    {
        "changes": {
            "tree": 0
        },
        "timeout": 0.10593208333333332,
        "raw": {
            "tree": {
                "pinValue": 0,
                "ticks": 100,
                "event": {
                    "deltaTime": 100,
                    "type": "channel",
                    "subtype": "noteOff",
                    "channel": 4,
                    "noteNumber": 77,
                    "velocity": 0,
                    "lightChannels": [
                        9
                    ]
                }
            }
        }
    },
    {
        "changes": {
            "col-1": 1
        },
        "timeout": 0.1440676333333333,
        "raw": {
            "col-1": {
                "pinValue": 1,
                "ticks": 136,
                "event": {
                    "deltaTime": 136,
                    "type": "channel",
                    "subtype": "noteOn",
                    "channel": 6,
                    "noteNumber": 60,
                    "velocity": 86,
                    "lightChannels": [
                        3
                    ]
                }
            }
        }
    },
    {
        "changes": {
            "window": 1,
            "outline": 1
        },
        "timeout": 0.01694913333333333,
        "raw": {
            "window": {
                "pinValue": 1,
                "ticks": 3,
                "event": {
                    "deltaTime": 3,
                    "type": "channel",
                    "subtype": "noteOn",
                    "channel": 9,
                    "noteNumber": 54,
                    "velocity": 70,
                    "lightChannels": [
                        6,
                        7
                    ]
                }
            },
            "outline": {
                "pinValue": 1,
                "ticks": 3,
                "event": {
                    "deltaTime": 3,
                    "type": "channel",
                    "subtype": "noteOn",
                    "channel": 9,
                    "noteNumber": 54,
                    "velocity": 70,
                    "lightChannels": [
                        6,
                        7
                    ]
                }
            }
        }
    },
    {
        "changes": {
            "garage": 1
        },
        "timeout": 0.008474566666666666,
        "raw": {
            "garage": {
                "pinValue": 1,
                "ticks": 8,
                "event": {
                    "deltaTime": 8,
                    "type": "channel",
                    "subtype": "noteOn",
                    "channel": 8,
                    "noteNumber": 57,
                    "velocity": 109,
                    "lightChannels": [
                        0
                    ]
                }
            }
        }
    },
    {
        "changes": {
            "tree": 1
        },
        "timeout": 0.008474566666666666,
        "raw": {
            "tree": {
                "pinValue": 1,
                "ticks": 8,
                "event": {
                    "deltaTime": 8,
                    "type": "channel",
                    "subtype": "noteOn",
                    "channel": 4,
                    "noteNumber": 77,
                    "velocity": 121,
                    "lightChannels": [
                        9
                    ]
                }
            }
        }
    },
    {
        "changes": {
            "window": 0,
            "outline": 0
        },
        "timeout": 0.050847399999999994,
        "raw": {
            "window": {
                "pinValue": 0,
                "ticks": 48,
                "event": {
                    "deltaTime": 48,
                    "type": "channel",
                    "subtype": "noteOff",
                    "channel": 9,
                    "noteNumber": 54,
                    "velocity": 0,
                    "lightChannels": [
                        6,
                        7
                    ]
                }
            },
            "outline": {
                "pinValue": 0,
                "ticks": 48,
                "event": {
                    "deltaTime": 48,
                    "type": "channel",
                    "subtype": "noteOff",
                    "channel": 9,
                    "noteNumber": 54,
                    "velocity": 0,
                    "lightChannels": [
                        6,
                        7
                    ]
                }
            }
        }
    },
    {
        "changes": {
            "tree": 0
        },
        "timeout": 0.04555079583333333,
        "raw": {
            "tree": {
                "pinValue": 0,
                "ticks": 43,
                "event": {
                    "deltaTime": 43,
                    "type": "channel",
                    "subtype": "noteOff",
                    "channel": 4,
                    "noteNumber": 77,
                    "velocity": 0,
                    "lightChannels": [
                        9
                    ]
                }
            }
        }
    },
    {
        "changes": {
            "window": 1,
            "outline": 1
        },
        "timeout": 0.1472455958333333,
        "raw": {
            "window": {
                "pinValue": 1,
                "ticks": 69,
                "event": {
                    "deltaTime": 69,
                    "type": "channel",
                    "subtype": "noteOn",
                    "channel": 9,
                    "noteNumber": 54,
                    "velocity": 71,
                    "lightChannels": [
                        6,
                        7
                    ]
                }
            },
            "outline": {
                "pinValue": 1,
                "ticks": 69,
                "event": {
                    "deltaTime": 69,
                    "type": "channel",
                    "subtype": "noteOn",
                    "channel": 9,
                    "noteNumber": 54,
                    "velocity": 71,
                    "lightChannels": [
                        6,
                        7
                    ]
                }
            }
        }
    },
    {
        "changes": {
            "window": 0,
            "outline": 0
        },
        "timeout": 0.06038128749999999,
        "raw": {
            "window": {
                "pinValue": 0,
                "ticks": 54,
                "event": {
                    "deltaTime": 54,
                    "type": "channel",
                    "subtype": "noteOff",
                    "channel": 9,
                    "noteNumber": 54,
                    "velocity": 0,
                    "lightChannels": [
                        6,
                        7
                    ]
                }
            },
            "outline": {
                "pinValue": 0,
                "ticks": 54,
                "event": {
                    "deltaTime": 54,
                    "type": "channel",
                    "subtype": "noteOff",
                    "channel": 9,
                    "noteNumber": 54,
                    "velocity": 0,
                    "lightChannels": [
                        6,
                        7
                    ]
                }
            }
        }
    },
    {
        "changes": {
            "garage": 0
        },
        "timeout": 0.14300831249999998,
        "raw": {
            "garage": {
                "pinValue": 0,
                "ticks": 100,
                "event": {
                    "deltaTime": 100,
                    "type": "channel",
                    "subtype": "noteOff",
                    "channel": 8,
                    "noteNumber": 57,
                    "velocity": 0,
                    "lightChannels": [
                        0
                    ]
                }
            }
        }
    },
    {
        "changes": {
            "col-1": 0
        },
        "timeout": 0.0052966041666666665,
        "raw": {
            "col-1": {
                "pinValue": 0,
                "ticks": 5,
                "event": {
                    "deltaTime": 5,
                    "type": "channel",
                    "subtype": "noteOff",
                    "channel": 6,
                    "noteNumber": 60,
                    "velocity": 0,
                    "lightChannels": [
                        3
                    ]
                }
            }
        }
    },
    {
        "changes": {
            "col-2": 1
        },
        "timeout": 0.04555079583333333,
        "raw": {
            "col-2": {
                "pinValue": 1,
                "ticks": 3,
                "event": {
                    "deltaTime": 3,
                    "type": "channel",
                    "subtype": "noteOn",
                    "channel": 6,
                    "noteNumber": 58,
                    "velocity": 75,
                    "lightChannels": [
                        4
                    ]
                }
            }
        }
    },
    {
        "changes": {
            "top-right": 1
        },
        "timeout": 0.004237283333333333,
        "raw": {
            "top-right": {
                "pinValue": 1,
                "ticks": 4,
                "event": {
                    "deltaTime": 4,
                    "type": "channel",
                    "subtype": "noteOn",
                    "channel": 8,
                    "noteNumber": 55,
                    "velocity": 111,
                    "lightChannels": [
                        1
                    ]
                }
            }
        }
    },
    {
        "changes": {
            "window": 1,
            "outline": 1
        },
        "timeout": 0.0052966041666666665,
        "raw": {
            "window": {
                "pinValue": 1,
                "ticks": 5,
                "event": {
                    "deltaTime": 5,
                    "type": "channel",
                    "subtype": "noteOn",
                    "channel": 9,
                    "noteNumber": 54,
                    "velocity": 67,
                    "lightChannels": [
                        6,
                        7
                    ]
                }
            },
            "outline": {
                "pinValue": 1,
                "ticks": 5,
                "event": {
                    "deltaTime": 5,
                    "type": "channel",
                    "subtype": "noteOn",
                    "channel": 9,
                    "noteNumber": 54,
                    "velocity": 67,
                    "lightChannels": [
                        6,
                        7
                    ]
                }
            }
        }
    },
    {
        "changes": {
            "window": 0,
            "outline": 0
        },
        "timeout": 0.06885585416666666,
        "raw": {
            "window": {
                "pinValue": 0,
                "ticks": 65,
                "event": {
                    "deltaTime": 65,
                    "type": "channel",
                    "subtype": "noteOff",
                    "channel": 9,
                    "noteNumber": 54,
                    "velocity": 0,
                    "lightChannels": [
                        6,
                        7
                    ]
                }
            },
            "outline": {
                "pinValue": 0,
                "ticks": 65,
                "event": {
                    "deltaTime": 65,
                    "type": "channel",
                    "subtype": "noteOff",
                    "channel": 9,
                    "noteNumber": 54,
                    "velocity": 0,
                    "lightChannels": [
                        6,
                        7
                    ]
                }
            }
        }
    },
    {
        "changes": {
            "window": 1,
            "outline": 1
        },
        "timeout": 0.19385571249999997,
        "raw": {
            "window": {
                "pinValue": 1,
                "ticks": 14,
                "event": {
                    "deltaTime": 14,
                    "type": "channel",
                    "subtype": "noteOn",
                    "channel": 9,
                    "noteNumber": 54,
                    "velocity": 71,
                    "lightChannels": [
                        6,
                        7
                    ]
                }
            },
            "outline": {
                "pinValue": 1,
                "ticks": 14,
                "event": {
                    "deltaTime": 14,
                    "type": "channel",
                    "subtype": "noteOn",
                    "channel": 9,
                    "noteNumber": 54,
                    "velocity": 71,
                    "lightChannels": [
                        6,
                        7
                    ]
                }
            }
        }
    },
    {
        "changes": {
            "window": 0,
            "outline": 0
        },
        "timeout": 0.06779653333333333,
        "raw": {
            "window": {
                "pinValue": 0,
                "ticks": 64,
                "event": {
                    "deltaTime": 64,
                    "type": "channel",
                    "subtype": "noteOff",
                    "channel": 9,
                    "noteNumber": 54,
                    "velocity": 0,
                    "lightChannels": [
                        6,
                        7
                    ]
                }
            },
            "outline": {
                "pinValue": 0,
                "ticks": 64,
                "event": {
                    "deltaTime": 64,
                    "type": "channel",
                    "subtype": "noteOff",
                    "channel": 9,
                    "noteNumber": 54,
                    "velocity": 0,
                    "lightChannels": [
                        6,
                        7
                    ]
                }
            }
        }
    },
    {
        "changes": {
            "col-2": 0
        },
        "timeout": 0.09427955416666665,
        "raw": {
            "col-2": {
                "pinValue": 0,
                "ticks": 31,
                "event": {
                    "deltaTime": 31,
                    "type": "channel",
                    "subtype": "noteOff",
                    "channel": 6,
                    "noteNumber": 58,
                    "velocity": 0,
                    "lightChannels": [
                        4
                    ]
                }
            }
        }
    },
    {
        "changes": {
            "top-right": 0
        },
        "timeout": 0.006355924999999999,
        "raw": {
            "top-right": {
                "pinValue": 0,
                "ticks": 6,
                "event": {
                    "deltaTime": 6,
                    "type": "channel",
                    "subtype": "noteOff",
                    "channel": 8,
                    "noteNumber": 55,
                    "velocity": 0,
                    "lightChannels": [
                        1
                    ]
                }
            }
        }
    },
    {
        "changes": {
            "bottom-right": 1
        },
        "timeout": 0.044491474999999996,
        "raw": {
            "bottom-right": {
                "pinValue": 1,
                "ticks": 42,
                "event": {
                    "deltaTime": 42,
                    "type": "channel",
                    "subtype": "noteOn",
                    "channel": 8,
                    "noteNumber": 58,
                    "velocity": 108,
                    "lightChannels": [
                        2
                    ]
                }
            }
        }
    },
    {
        "changes": {
            "col-3": 1
        },
        "timeout": 0.0021186416666666664,
        "raw": {
            "col-3": {
                "pinValue": 1,
                "ticks": 2,
                "event": {
                    "deltaTime": 2,
                    "type": "channel",
                    "subtype": "noteOn",
                    "channel": 6,
                    "noteNumber": 55,
                    "velocity": 88,
                    "lightChannels": [
                        5
                    ]
                }
            }
        }
    },
    {
        "changes": {
            "window": 1,
            "outline": 1
        },
        "timeout": 0.03177962499999999,
        "raw": {
            "window": {
                "pinValue": 1,
                "ticks": 13,
                "event": {
                    "deltaTime": 13,
                    "type": "channel",
                    "subtype": "noteOn",
                    "channel": 9,
                    "noteNumber": 54,
                    "velocity": 77,
                    "lightChannels": [
                        6,
                        7
                    ]
                }
            },
            "outline": {
                "pinValue": 1,
                "ticks": 13,
                "event": {
                    "deltaTime": 13,
                    "type": "channel",
                    "subtype": "noteOn",
                    "channel": 9,
                    "noteNumber": 54,
                    "velocity": 77,
                    "lightChannels": [
                        6,
                        7
                    ]
                }
            }
        }
    },
    {
        "changes": {
            "window": 0,
            "outline": 0
        },
        "timeout": 0.06673721249999999,
        "raw": {
            "window": {
                "pinValue": 0,
                "ticks": 63,
                "event": {
                    "deltaTime": 63,
                    "type": "channel",
                    "subtype": "noteOff",
                    "channel": 9,
                    "noteNumber": 54,
                    "velocity": 0,
                    "lightChannels": [
                        6,
                        7
                    ]
                }
            },
            "outline": {
                "pinValue": 0,
                "ticks": 63,
                "event": {
                    "deltaTime": 63,
                    "type": "channel",
                    "subtype": "noteOff",
                    "channel": 9,
                    "noteNumber": 54,
                    "velocity": 0,
                    "lightChannels": [
                        6,
                        7
                    ]
                }
            }
        }
    },
    {
        "changes": {
            "window": 1,
            "outline": 1
        },
        "timeout": 0.18961842916666666,
        "raw": {
            "window": {
                "pinValue": 1,
                "ticks": 21,
                "event": {
                    "deltaTime": 21,
                    "type": "channel",
                    "subtype": "noteOn",
                    "channel": 9,
                    "noteNumber": 54,
                    "velocity": 69,
                    "lightChannels": [
                        6,
                        7
                    ]
                }
            },
            "outline": {
                "pinValue": 1,
                "ticks": 21,
                "event": {
                    "deltaTime": 21,
                    "type": "channel",
                    "subtype": "noteOn",
                    "channel": 9,
                    "noteNumber": 54,
                    "velocity": 69,
                    "lightChannels": [
                        6,
                        7
                    ]
                }
            }
        }
    },
    {
        "changes": {
            "window": 0,
            "outline": 0
        },
        "timeout": 0.06461857083333332,
        "raw": {
            "window": {
                "pinValue": 0,
                "ticks": 61,
                "event": {
                    "deltaTime": 61,
                    "type": "channel",
                    "subtype": "noteOff",
                    "channel": 9,
                    "noteNumber": 54,
                    "velocity": 0,
                    "lightChannels": [
                        6,
                        7
                    ]
                }
            },
            "outline": {
                "pinValue": 0,
                "ticks": 61,
                "event": {
                    "deltaTime": 61,
                    "type": "channel",
                    "subtype": "noteOff",
                    "channel": 9,
                    "noteNumber": 54,
                    "velocity": 0,
                    "lightChannels": [
                        6,
                        7
                    ]
                }
            }
        }
    },
    {
        "changes": {
            "bottom-right": 0
        },
        "timeout": 0.08474566666666665,
        "raw": {
            "bottom-right": {
                "pinValue": 0,
                "ticks": 61,
                "event": {
                    "deltaTime": 61,
                    "type": "channel",
                    "subtype": "noteOff",
                    "channel": 8,
                    "noteNumber": 58,
                    "velocity": 0,
                    "lightChannels": [
                        2
                    ]
                }
            }
        }
    },
    {
        "changes": {
            "col-3": 0
        },
        "timeout": 0.036016908333333326,
        "raw": {
            "col-3": {
                "pinValue": 0,
                "ticks": 34,
                "event": {
                    "deltaTime": 34,
                    "type": "channel",
                    "subtype": "noteOff",
                    "channel": 6,
                    "noteNumber": 55,
                    "velocity": 0,
                    "lightChannels": [
                        5
                    ]
                }
            }
        }
    },
    {
        "changes": {
            "garage": 1
        },
        "timeout": 0.02330505833333333,
        "raw": {
            "garage": {
                "pinValue": 1,
                "ticks": 22,
                "event": {
                    "deltaTime": 22,
                    "type": "channel",
                    "subtype": "noteOn",
                    "channel": 8,
                    "noteNumber": 57,
                    "velocity": 108,
                    "lightChannels": [
                        0
                    ]
                }
            }
        }
    },
    {
        "changes": {
            "garden": 1
        },
        "timeout": 0.018008454166666663,
        "raw": {
            "garden": {
                "pinValue": 1,
                "ticks": 17,
                "event": {
                    "deltaTime": 17,
                    "type": "channel",
                    "subtype": "noteOn",
                    "channel": 6,
                    "noteNumber": 57,
                    "velocity": 87,
                    "lightChannels": [
                        8
                    ]
                }
            }
        }
    },
    {
        "changes": {
            "window": 1,
            "outline": 1
        },
        "timeout": 0.025423699999999997,
        "raw": {
            "window": {
                "pinValue": 1,
                "ticks": 16,
                "event": {
                    "deltaTime": 16,
                    "type": "channel",
                    "subtype": "noteOn",
                    "channel": 9,
                    "noteNumber": 54,
                    "velocity": 71,
                    "lightChannels": [
                        6,
                        7
                    ]
                }
            },
            "outline": {
                "pinValue": 1,
                "ticks": 16,
                "event": {
                    "deltaTime": 16,
                    "type": "channel",
                    "subtype": "noteOn",
                    "channel": 9,
                    "noteNumber": 54,
                    "velocity": 71,
                    "lightChannels": [
                        6,
                        7
                    ]
                }
            }
        }
    },
    {
        "changes": {
            "window": 0,
            "outline": 0
        },
        "timeout": 0.06461857083333332,
        "raw": {
            "window": {
                "pinValue": 0,
                "ticks": 61,
                "event": {
                    "deltaTime": 61,
                    "type": "channel",
                    "subtype": "noteOff",
                    "channel": 9,
                    "noteNumber": 54,
                    "velocity": 0,
                    "lightChannels": [
                        6,
                        7
                    ]
                }
            },
            "outline": {
                "pinValue": 0,
                "ticks": 61,
                "event": {
                    "deltaTime": 61,
                    "type": "channel",
                    "subtype": "noteOff",
                    "channel": 9,
                    "noteNumber": 54,
                    "velocity": 0,
                    "lightChannels": [
                        6,
                        7
                    ]
                }
            }
        }
    },
    {
        "changes": {
            "window": 1,
            "outline": 1
        },
        "timeout": 0.18326250416666665,
        "raw": {
            "window": {
                "pinValue": 1,
                "ticks": 15,
                "event": {
                    "deltaTime": 15,
                    "type": "channel",
                    "subtype": "noteOn",
                    "channel": 9,
                    "noteNumber": 54,
                    "velocity": 72,
                    "lightChannels": [
                        6,
                        7
                    ]
                }
            },
            "outline": {
                "pinValue": 1,
                "ticks": 15,
                "event": {
                    "deltaTime": 15,
                    "type": "channel",
                    "subtype": "noteOn",
                    "channel": 9,
                    "noteNumber": 54,
                    "velocity": 72,
                    "lightChannels": [
                        6,
                        7
                    ]
                }
            }
        }
    },
    {
        "changes": {
            "window": 0,
            "outline": 0
        },
        "timeout": 0.06673721249999999,
        "raw": {
            "window": {
                "pinValue": 0,
                "ticks": 63,
                "event": {
                    "deltaTime": 63,
                    "type": "channel",
                    "subtype": "noteOff",
                    "channel": 9,
                    "noteNumber": 54,
                    "velocity": 0,
                    "lightChannels": [
                        6,
                        7
                    ]
                }
            },
            "outline": {
                "pinValue": 0,
                "ticks": 63,
                "event": {
                    "deltaTime": 63,
                    "type": "channel",
                    "subtype": "noteOff",
                    "channel": 9,
                    "noteNumber": 54,
                    "velocity": 0,
                    "lightChannels": [
                        6,
                        7
                    ]
                }
            }
        }
    },
    {
        "changes": {
            "garage": 0
        },
        "timeout": 0.04978807916666666,
        "raw": {
            "garage": {
                "pinValue": 0,
                "ticks": 34,
                "event": {
                    "deltaTime": 34,
                    "type": "channel",
                    "subtype": "noteOff",
                    "channel": 8,
                    "noteNumber": 57,
                    "velocity": 0,
                    "lightChannels": [
                        0
                    ]
                }
            }
        }
    },
    {
        "changes": {
            "garden": 0
        },
        "timeout": 0.06038128749999999,
        "raw": {
            "garden": {
                "pinValue": 0,
                "ticks": 26,
                "event": {
                    "deltaTime": 26,
                    "type": "channel",
                    "subtype": "noteOff",
                    "channel": 6,
                    "noteNumber": 57,
                    "velocity": 0,
                    "lightChannels": [
                        8
                    ]
                }
            }
        }
    },
    {
        "changes": {
            "col-1": 1
        },
        "timeout": 0.047669437499999995,
        "raw": {
            "col-1": {
                "pinValue": 1,
                "ticks": 45,
                "event": {
                    "deltaTime": 45,
                    "type": "channel",
                    "subtype": "noteOn",
                    "channel": 6,
                    "noteNumber": 60,
                    "velocity": 91,
                    "lightChannels": [
                        3
                    ]
                }
            }
        }
    },
    {
        "changes": {
            "top-right": 1
        },
        "timeout": 0.008474566666666666,
        "raw": {
            "top-right": {
                "pinValue": 1,
                "ticks": 8,
                "event": {
                    "deltaTime": 8,
                    "type": "channel",
                    "subtype": "noteOn",
                    "channel": 8,
                    "noteNumber": 57,
                    "velocity": 109,
                    "lightChannels": [
                        1
                    ]
                }
            }
        }
    },
    {
        "changes": {
            "window": 1,
            "outline": 1
        },
        "timeout": 0.02966098333333333,
        "raw": {
            "window": {
                "pinValue": 1,
                "ticks": 5,
                "event": {
                    "deltaTime": 5,
                    "type": "channel",
                    "subtype": "noteOn",
                    "channel": 9,
                    "noteNumber": 54,
                    "velocity": 79,
                    "lightChannels": [
                        6,
                        7
                    ]
                }
            },
            "outline": {
                "pinValue": 1,
                "ticks": 5,
                "event": {
                    "deltaTime": 5,
                    "type": "channel",
                    "subtype": "noteOn",
                    "channel": 9,
                    "noteNumber": 54,
                    "velocity": 79,
                    "lightChannels": [
                        6,
                        7
                    ]
                }
            }
        }
    },
    {
        "changes": {
            "window": 0,
            "outline": 0
        },
        "timeout": 0.06673721249999999,
        "raw": {
            "window": {
                "pinValue": 0,
                "ticks": 63,
                "event": {
                    "deltaTime": 63,
                    "type": "channel",
                    "subtype": "noteOff",
                    "channel": 9,
                    "noteNumber": 54,
                    "velocity": 0,
                    "lightChannels": [
                        6,
                        7
                    ]
                }
            },
            "outline": {
                "pinValue": 0,
                "ticks": 63,
                "event": {
                    "deltaTime": 63,
                    "type": "channel",
                    "subtype": "noteOff",
                    "channel": 9,
                    "noteNumber": 54,
                    "velocity": 0,
                    "lightChannels": [
                        6,
                        7
                    ]
                }
            }
        }
    },
    {
        "changes": {
            "window": 1,
            "outline": 1
        },
        "timeout": 0.19597435416666664,
        "raw": {
            "window": {
                "pinValue": 1,
                "ticks": 68,
                "event": {
                    "deltaTime": 68,
                    "type": "channel",
                    "subtype": "noteOn",
                    "channel": 9,
                    "noteNumber": 54,
                    "velocity": 67,
                    "lightChannels": [
                        6,
                        7
                    ]
                }
            },
            "outline": {
                "pinValue": 1,
                "ticks": 68,
                "event": {
                    "deltaTime": 68,
                    "type": "channel",
                    "subtype": "noteOn",
                    "channel": 9,
                    "noteNumber": 54,
                    "velocity": 67,
                    "lightChannels": [
                        6,
                        7
                    ]
                }
            }
        }
    },
    {
        "changes": {
            "window": 0,
            "outline": 0
        },
        "timeout": 0.06673721249999999,
        "raw": {
            "window": {
                "pinValue": 0,
                "ticks": 63,
                "event": {
                    "deltaTime": 63,
                    "type": "channel",
                    "subtype": "noteOff",
                    "channel": 9,
                    "noteNumber": 54,
                    "velocity": 0,
                    "lightChannels": [
                        6,
                        7
                    ]
                }
            },
            "outline": {
                "pinValue": 0,
                "ticks": 63,
                "event": {
                    "deltaTime": 63,
                    "type": "channel",
                    "subtype": "noteOff",
                    "channel": 9,
                    "noteNumber": 54,
                    "velocity": 0,
                    "lightChannels": [
                        6,
                        7
                    ]
                }
            }
        }
    },
    {
        "changes": {
            "top-right": 0
        },
        "timeout": 0.09639819583333332,
        "raw": {
            "top-right": {
                "pinValue": 0,
                "ticks": 91,
                "event": {
                    "deltaTime": 91,
                    "type": "channel",
                    "subtype": "noteOff",
                    "channel": 8,
                    "noteNumber": 57,
                    "velocity": 0,
                    "lightChannels": [
                        1
                    ]
                }
            }
        }
    },
    {
        "changes": {
            "col-1": 0
        },
        "timeout": 0.02330505833333333,
        "raw": {
            "col-1": {
                "pinValue": 0,
                "ticks": 22,
                "event": {
                    "deltaTime": 22,
                    "type": "channel",
                    "subtype": "noteOff",
                    "channel": 6,
                    "noteNumber": 60,
                    "velocity": 0,
                    "lightChannels": [
                        3
                    ]
                }
            }
        }
    },
    {
        "changes": {
            "bottom-right": 1
        },
        "timeout": 0.027542341666666664,
        "raw": {
            "bottom-right": {
                "pinValue": 1,
                "ticks": 26,
                "event": {
                    "deltaTime": 26,
                    "type": "channel",
                    "subtype": "noteOn",
                    "channel": 8,
                    "noteNumber": 55,
                    "velocity": 113,
                    "lightChannels": [
                        2
                    ]
                }
            }
        }
    },
    {
        "changes": {
            "col-2": 1
        },
        "timeout": 0.006355924999999999,
        "raw": {
            "col-2": {
                "pinValue": 1,
                "ticks": 6,
                "event": {
                    "deltaTime": 6,
                    "type": "channel",
                    "subtype": "noteOn",
                    "channel": 6,
                    "noteNumber": 58,
                    "velocity": 79,
                    "lightChannels": [
                        4
                    ]
                }
            }
        }
    },
    {
        "changes": {
            "window": 1,
            "outline": 1
        },
        "timeout": 0.025423699999999997,
        "raw": {
            "window": {
                "pinValue": 1,
                "ticks": 24,
                "event": {
                    "deltaTime": 24,
                    "type": "channel",
                    "subtype": "noteOn",
                    "channel": 9,
                    "noteNumber": 54,
                    "velocity": 81,
                    "lightChannels": [
                        6,
                        7
                    ]
                }
            },
            "outline": {
                "pinValue": 1,
                "ticks": 24,
                "event": {
                    "deltaTime": 24,
                    "type": "channel",
                    "subtype": "noteOn",
                    "channel": 9,
                    "noteNumber": 54,
                    "velocity": 81,
                    "lightChannels": [
                        6,
                        7
                    ]
                }
            }
        }
    },
    {
        "changes": {
            "window": 0,
            "outline": 0
        },
        "timeout": 0.069915175,
        "raw": {
            "window": {
                "pinValue": 0,
                "ticks": 65,
                "event": {
                    "deltaTime": 65,
                    "type": "channel",
                    "subtype": "noteOff",
                    "channel": 9,
                    "noteNumber": 54,
                    "velocity": 0,
                    "lightChannels": [
                        6,
                        7
                    ]
                }
            },
            "outline": {
                "pinValue": 0,
                "ticks": 65,
                "event": {
                    "deltaTime": 65,
                    "type": "channel",
                    "subtype": "noteOff",
                    "channel": 9,
                    "noteNumber": 54,
                    "velocity": 0,
                    "lightChannels": [
                        6,
                        7
                    ]
                }
            }
        }
    },
    {
        "changes": {
            "window": 1,
            "outline": 1
        },
        "timeout": 0.18326250416666665,
        "raw": {
            "window": {
                "pinValue": 1,
                "ticks": 43,
                "event": {
                    "deltaTime": 43,
                    "type": "channel",
                    "subtype": "noteOn",
                    "channel": 9,
                    "noteNumber": 54,
                    "velocity": 71,
                    "lightChannels": [
                        6,
                        7
                    ]
                }
            },
            "outline": {
                "pinValue": 1,
                "ticks": 43,
                "event": {
                    "deltaTime": 43,
                    "type": "channel",
                    "subtype": "noteOn",
                    "channel": 9,
                    "noteNumber": 54,
                    "velocity": 71,
                    "lightChannels": [
                        6,
                        7
                    ]
                }
            }
        }
    },
    {
        "changes": {
            "window": 0,
            "outline": 0
        },
        "timeout": 0.06673721249999999,
        "raw": {
            "window": {
                "pinValue": 0,
                "ticks": 63,
                "event": {
                    "deltaTime": 63,
                    "type": "channel",
                    "subtype": "noteOff",
                    "channel": 9,
                    "noteNumber": 54,
                    "velocity": 0,
                    "lightChannels": [
                        6,
                        7
                    ]
                }
            },
            "outline": {
                "pinValue": 0,
                "ticks": 63,
                "event": {
                    "deltaTime": 63,
                    "type": "channel",
                    "subtype": "noteOff",
                    "channel": 9,
                    "noteNumber": 54,
                    "velocity": 0,
                    "lightChannels": [
                        6,
                        7
                    ]
                }
            }
        }
    },
    {
        "changes": {
            "col-2": 0
        },
        "timeout": 0.09322023333333333,
        "raw": {
            "col-2": {
                "pinValue": 0,
                "ticks": 9,
                "event": {
                    "deltaTime": 9,
                    "type": "channel",
                    "subtype": "noteOff",
                    "channel": 6,
                    "noteNumber": 58,
                    "velocity": 0,
                    "lightChannels": [
                        4
                    ]
                }
            }
        }
    },
    {
        "changes": {
            "bottom-right": 0
        },
        "timeout": 0.0349575875,
        "raw": {
            "bottom-right": {
                "pinValue": 0,
                "ticks": 33,
                "event": {
                    "deltaTime": 33,
                    "type": "channel",
                    "subtype": "noteOff",
                    "channel": 8,
                    "noteNumber": 55,
                    "velocity": 0,
                    "lightChannels": [
                        2
                    ]
                }
            }
        }
    },
    {
        "changes": {
            "col-3": 1
        },
        "timeout": 0.027542341666666664,
        "raw": {
            "col-3": {
                "pinValue": 1,
                "ticks": 26,
                "event": {
                    "deltaTime": 26,
                    "type": "channel",
                    "subtype": "noteOn",
                    "channel": 6,
                    "noteNumber": 55,
                    "velocity": 74,
                    "lightChannels": [
                        5
                    ]
                }
            }
        }
    },
    {
        "changes": {
            "garage": 1
        },
        "timeout": 0.0158898125,
        "raw": {
            "garage": {
                "pinValue": 1,
                "ticks": 15,
                "event": {
                    "deltaTime": 15,
                    "type": "channel",
                    "subtype": "noteOn",
                    "channel": 8,
                    "noteNumber": 58,
                    "velocity": 108,
                    "lightChannels": [
                        0
                    ]
                }
            }
        }
    },
    {
        "changes": {
            "window": 1,
            "outline": 1
        },
        "timeout": 0.0158898125,
        "raw": {
            "window": {
                "pinValue": 1,
                "ticks": 6,
                "event": {
                    "deltaTime": 6,
                    "type": "channel",
                    "subtype": "noteOn",
                    "channel": 9,
                    "noteNumber": 54,
                    "velocity": 83,
                    "lightChannels": [
                        6,
                        7
                    ]
                }
            },
            "outline": {
                "pinValue": 1,
                "ticks": 6,
                "event": {
                    "deltaTime": 6,
                    "type": "channel",
                    "subtype": "noteOn",
                    "channel": 9,
                    "noteNumber": 54,
                    "velocity": 83,
                    "lightChannels": [
                        6,
                        7
                    ]
                }
            }
        }
    },
    {
        "changes": {
            "window": 0,
            "outline": 0
        },
        "timeout": 0.06673721249999999,
        "raw": {
            "window": {
                "pinValue": 0,
                "ticks": 63,
                "event": {
                    "deltaTime": 63,
                    "type": "channel",
                    "subtype": "noteOff",
                    "channel": 9,
                    "noteNumber": 54,
                    "velocity": 0,
                    "lightChannels": [
                        6,
                        7
                    ]
                }
            },
            "outline": {
                "pinValue": 0,
                "ticks": 63,
                "event": {
                    "deltaTime": 63,
                    "type": "channel",
                    "subtype": "noteOff",
                    "channel": 9,
                    "noteNumber": 54,
                    "velocity": 0,
                    "lightChannels": [
                        6,
                        7
                    ]
                }
            }
        }
    },
    {
        "changes": {
            "window": 1,
            "outline": 1
        },
        "timeout": 0.1885591083333333,
        "raw": {
            "window": {
                "pinValue": 1,
                "ticks": 2,
                "event": {
                    "deltaTime": 2,
                    "type": "channel",
                    "subtype": "noteOn",
                    "channel": 9,
                    "noteNumber": 54,
                    "velocity": 79,
                    "lightChannels": [
                        6,
                        7
                    ]
                }
            },
            "outline": {
                "pinValue": 1,
                "ticks": 2,
                "event": {
                    "deltaTime": 2,
                    "type": "channel",
                    "subtype": "noteOn",
                    "channel": 9,
                    "noteNumber": 54,
                    "velocity": 79,
                    "lightChannels": [
                        6,
                        7
                    ]
                }
            }
        }
    },
    {
        "changes": {
            "window": 0,
            "outline": 0
        },
        "timeout": 0.06461857083333332,
        "raw": {
            "window": {
                "pinValue": 0,
                "ticks": 61,
                "event": {
                    "deltaTime": 61,
                    "type": "channel",
                    "subtype": "noteOff",
                    "channel": 9,
                    "noteNumber": 54,
                    "velocity": 0,
                    "lightChannels": [
                        6,
                        7
                    ]
                }
            },
            "outline": {
                "pinValue": 0,
                "ticks": 61,
                "event": {
                    "deltaTime": 61,
                    "type": "channel",
                    "subtype": "noteOff",
                    "channel": 9,
                    "noteNumber": 54,
                    "velocity": 0,
                    "lightChannels": [
                        6,
                        7
                    ]
                }
            }
        }
    },
    {
        "changes": {
            "garage": 0
        },
        "timeout": 0.11864393333333331,
        "raw": {
            "garage": {
                "pinValue": 0,
                "ticks": 57,
                "event": {
                    "deltaTime": 57,
                    "type": "channel",
                    "subtype": "noteOff",
                    "channel": 8,
                    "noteNumber": 58,
                    "velocity": 0,
                    "lightChannels": [
                        0
                    ]
                }
            }
        }
    },
    {
        "changes": {
            "col-3": 0
        },
        "timeout": 0.014830491666666664,
        "raw": {
            "col-3": {
                "pinValue": 0,
                "ticks": 14,
                "event": {
                    "deltaTime": 14,
                    "type": "channel",
                    "subtype": "noteOff",
                    "channel": 6,
                    "noteNumber": 55,
                    "velocity": 0,
                    "lightChannels": [
                        5
                    ]
                }
            }
        }
    },
    {
        "changes": {
            "top-right": 1
        },
        "timeout": 0.03389826666666666,
        "raw": {
            "top-right": {
                "pinValue": 1,
                "ticks": 18,
                "event": {
                    "deltaTime": 18,
                    "type": "channel",
                    "subtype": "noteOn",
                    "channel": 8,
                    "noteNumber": 57,
                    "velocity": 106,
                    "lightChannels": [
                        1
                    ]
                }
            }
        }
    },
    {
        "changes": {
            "garden": 1
        },
        "timeout": 0.014830491666666664,
        "raw": {
            "garden": {
                "pinValue": 1,
                "ticks": 2,
                "event": {
                    "deltaTime": 2,
                    "type": "channel",
                    "subtype": "noteOn",
                    "channel": 6,
                    "noteNumber": 57,
                    "velocity": 79,
                    "lightChannels": [
                        8
                    ]
                }
            }
        }
    },
    {
        "changes": {
            "window": 1,
            "outline": 1
        },
        "timeout": 0.0158898125,
        "raw": {
            "window": {
                "pinValue": 1,
                "ticks": 15,
                "event": {
                    "deltaTime": 15,
                    "type": "channel",
                    "subtype": "noteOn",
                    "channel": 9,
                    "noteNumber": 54,
                    "velocity": 76,
                    "lightChannels": [
                        6,
                        7
                    ]
                }
            },
            "outline": {
                "pinValue": 1,
                "ticks": 15,
                "event": {
                    "deltaTime": 15,
                    "type": "channel",
                    "subtype": "noteOn",
                    "channel": 9,
                    "noteNumber": 54,
                    "velocity": 76,
                    "lightChannels": [
                        6,
                        7
                    ]
                }
            }
        }
    },
    {
        "changes": {
            "window": 0,
            "outline": 0
        },
        "timeout": 0.06673721249999999,
        "raw": {
            "window": {
                "pinValue": 0,
                "ticks": 63,
                "event": {
                    "deltaTime": 63,
                    "type": "channel",
                    "subtype": "noteOff",
                    "channel": 9,
                    "noteNumber": 54,
                    "velocity": 0,
                    "lightChannels": [
                        6,
                        7
                    ]
                }
            },
            "outline": {
                "pinValue": 0,
                "ticks": 63,
                "event": {
                    "deltaTime": 63,
                    "type": "channel",
                    "subtype": "noteOff",
                    "channel": 9,
                    "noteNumber": 54,
                    "velocity": 0,
                    "lightChannels": [
                        6,
                        7
                    ]
                }
            }
        }
    },
    {
        "changes": {
            "window": 1,
            "outline": 1
        },
        "timeout": 0.18644046666666664,
        "raw": {
            "window": {
                "pinValue": 1,
                "ticks": 31,
                "event": {
                    "deltaTime": 31,
                    "type": "channel",
                    "subtype": "noteOn",
                    "channel": 9,
                    "noteNumber": 54,
                    "velocity": 76,
                    "lightChannels": [
                        6,
                        7
                    ]
                }
            },
            "outline": {
                "pinValue": 1,
                "ticks": 31,
                "event": {
                    "deltaTime": 31,
                    "type": "channel",
                    "subtype": "noteOn",
                    "channel": 9,
                    "noteNumber": 54,
                    "velocity": 76,
                    "lightChannels": [
                        6,
                        7
                    ]
                }
            }
        }
    },
    {
        "changes": {
            "window": 0,
            "outline": 0
        },
        "timeout": 0.06461857083333333,
        "raw": {
            "window": {
                "pinValue": 0,
                "ticks": 1,
                "event": {
                    "deltaTime": 1,
                    "type": "channel",
                    "subtype": "noteOff",
                    "channel": 9,
                    "noteNumber": 54,
                    "velocity": 0,
                    "lightChannels": [
                        6,
                        7
                    ]
                }
            },
            "outline": {
                "pinValue": 0,
                "ticks": 1,
                "event": {
                    "deltaTime": 1,
                    "type": "channel",
                    "subtype": "noteOff",
                    "channel": 9,
                    "noteNumber": 54,
                    "velocity": 0,
                    "lightChannels": [
                        6,
                        7
                    ]
                }
            }
        }
    },
    {
        "changes": {
            "top-right": 0
        },
        "timeout": 0.02012709583333333,
        "raw": {
            "top-right": {
                "pinValue": 0,
                "ticks": 0,
                "event": {
                    "deltaTime": 0,
                    "type": "channel",
                    "subtype": "noteOff",
                    "channel": 8,
                    "noteNumber": 57,
                    "velocity": 0,
                    "lightChannels": [
                        1
                    ]
                }
            }
        }
    },
    {
        "changes": {
            "garden": 0
        },
        "timeout": 0.04025419166666666,
        "raw": {
            "garden": {
                "pinValue": 0,
                "ticks": 38,
                "event": {
                    "deltaTime": 38,
                    "type": "channel",
                    "subtype": "noteOff",
                    "channel": 6,
                    "noteNumber": 57,
                    "velocity": 0,
                    "lightChannels": [
                        8
                    ]
                }
            }
        }
    },
    {
        "changes": {
            "bottom-right": 1
        },
        "timeout": 0.09533887499999999,
        "raw": {
            "bottom-right": {
                "pinValue": 1,
                "ticks": 36,
                "event": {
                    "deltaTime": 36,
                    "type": "channel",
                    "subtype": "noteOn",
                    "channel": 8,
                    "noteNumber": 57,
                    "velocity": 116,
                    "lightChannels": [
                        2
                    ]
                }
            }
        }
    },
    {
        "changes": {
            "col-1": 1
        },
        "timeout": 0.024364379166666665,
        "raw": {
            "col-1": {
                "pinValue": 1,
                "ticks": 11,
                "event": {
                    "deltaTime": 11,
                    "type": "channel",
                    "subtype": "noteOn",
                    "channel": 6,
                    "noteNumber": 60,
                    "velocity": 95,
                    "lightChannels": [
                        3
                    ]
                }
            }
        }
    },
    {
        "changes": {
            "window": 1,
            "outline": 1
        },
        "timeout": 0.006355924999999999,
        "raw": {
            "window": {
                "pinValue": 1,
                "ticks": 6,
                "event": {
                    "deltaTime": 6,
                    "type": "channel",
                    "subtype": "noteOn",
                    "channel": 9,
                    "noteNumber": 54,
                    "velocity": 74,
                    "lightChannels": [
                        6,
                        7
                    ]
                }
            },
            "outline": {
                "pinValue": 1,
                "ticks": 6,
                "event": {
                    "deltaTime": 6,
                    "type": "channel",
                    "subtype": "noteOn",
                    "channel": 9,
                    "noteNumber": 54,
                    "velocity": 74,
                    "lightChannels": [
                        6,
                        7
                    ]
                }
            }
        }
    },
    {
        "changes": {
            "window": 0,
            "outline": 0
        },
        "timeout": 0.06673721249999999,
        "raw": {
            "window": {
                "pinValue": 0,
                "ticks": 63,
                "event": {
                    "deltaTime": 63,
                    "type": "channel",
                    "subtype": "noteOff",
                    "channel": 9,
                    "noteNumber": 54,
                    "velocity": 0,
                    "lightChannels": [
                        6,
                        7
                    ]
                }
            },
            "outline": {
                "pinValue": 0,
                "ticks": 63,
                "event": {
                    "deltaTime": 63,
                    "type": "channel",
                    "subtype": "noteOff",
                    "channel": 9,
                    "noteNumber": 54,
                    "velocity": 0,
                    "lightChannels": [
                        6,
                        7
                    ]
                }
            }
        }
    },
    {
        "changes": {
            "window": 1,
            "outline": 1
        },
        "timeout": 0.18961842916666663,
        "raw": {
            "window": {
                "pinValue": 1,
                "ticks": 41,
                "event": {
                    "deltaTime": 41,
                    "type": "channel",
                    "subtype": "noteOn",
                    "channel": 9,
                    "noteNumber": 54,
                    "velocity": 72,
                    "lightChannels": [
                        6,
                        7
                    ]
                }
            },
            "outline": {
                "pinValue": 1,
                "ticks": 41,
                "event": {
                    "deltaTime": 41,
                    "type": "channel",
                    "subtype": "noteOn",
                    "channel": 9,
                    "noteNumber": 54,
                    "velocity": 72,
                    "lightChannels": [
                        6,
                        7
                    ]
                }
            }
        }
    },
    {
        "changes": {
            "window": 0,
            "outline": 0
        },
        "timeout": 0.06673721249999999,
        "raw": {
            "window": {
                "pinValue": 0,
                "ticks": 13,
                "event": {
                    "deltaTime": 13,
                    "type": "channel",
                    "subtype": "noteOff",
                    "channel": 9,
                    "noteNumber": 54,
                    "velocity": 0,
                    "lightChannels": [
                        6,
                        7
                    ]
                }
            },
            "outline": {
                "pinValue": 0,
                "ticks": 13,
                "event": {
                    "deltaTime": 13,
                    "type": "channel",
                    "subtype": "noteOff",
                    "channel": 9,
                    "noteNumber": 54,
                    "velocity": 0,
                    "lightChannels": [
                        6,
                        7
                    ]
                }
            }
        }
    },
    {
        "changes": {
            "bottom-right": 0
        },
        "timeout": 0.10593208333333332,
        "raw": {
            "bottom-right": {
                "pinValue": 0,
                "ticks": 100,
                "event": {
                    "deltaTime": 100,
                    "type": "channel",
                    "subtype": "noteOff",
                    "channel": 8,
                    "noteNumber": 57,
                    "velocity": 0,
                    "lightChannels": [
                        2
                    ]
                }
            }
        }
    },
    {
        "changes": {
            "col-1": 0
        },
        "timeout": 0.0095338875,
        "raw": {
            "col-1": {
                "pinValue": 0,
                "ticks": 9,
                "event": {
                    "deltaTime": 9,
                    "type": "channel",
                    "subtype": "noteOff",
                    "channel": 6,
                    "noteNumber": 60,
                    "velocity": 0,
                    "lightChannels": [
                        3
                    ]
                }
            }
        }
    },
    {
        "changes": {
            "col-2": 1
        },
        "timeout": 0.031779625,
        "raw": {
            "col-2": {
                "pinValue": 1,
                "ticks": 0,
                "event": {
                    "deltaTime": 0,
                    "type": "channel",
                    "subtype": "noteOn",
                    "channel": 6,
                    "noteNumber": 58,
                    "velocity": 79,
                    "lightChannels": [
                        4
                    ]
                }
            }
        }
    },
    {
        "changes": {
            "garage": 1
        },
        "timeout": 0.0158898125,
        "raw": {
            "garage": {
                "pinValue": 1,
                "ticks": 10,
                "event": {
                    "deltaTime": 10,
                    "type": "channel",
                    "subtype": "noteOn",
                    "channel": 8,
                    "noteNumber": 55,
                    "velocity": 111,
                    "lightChannels": [
                        0
                    ]
                }
            }
        }
    },
    {
        "changes": {
            "window": 1,
            "outline": 1
        },
        "timeout": 0.014830491666666664,
        "raw": {
            "window": {
                "pinValue": 1,
                "ticks": 14,
                "event": {
                    "deltaTime": 14,
                    "type": "channel",
                    "subtype": "noteOn",
                    "channel": 9,
                    "noteNumber": 54,
                    "velocity": 79,
                    "lightChannels": [
                        6,
                        7
                    ]
                }
            },
            "outline": {
                "pinValue": 1,
                "ticks": 14,
                "event": {
                    "deltaTime": 14,
                    "type": "channel",
                    "subtype": "noteOn",
                    "channel": 9,
                    "noteNumber": 54,
                    "velocity": 79,
                    "lightChannels": [
                        6,
                        7
                    ]
                }
            }
        }
    },
    {
        "changes": {
            "window": 0,
            "outline": 0
        },
        "timeout": 0.06779653333333333,
        "raw": {
            "window": {
                "pinValue": 0,
                "ticks": 0,
                "event": {
                    "deltaTime": 0,
                    "type": "channel",
                    "subtype": "noteOff",
                    "channel": 9,
                    "noteNumber": 54,
                    "velocity": 0,
                    "lightChannels": [
                        6,
                        7
                    ]
                }
            },
            "outline": {
                "pinValue": 0,
                "ticks": 0,
                "event": {
                    "deltaTime": 0,
                    "type": "channel",
                    "subtype": "noteOff",
                    "channel": 9,
                    "noteNumber": 54,
                    "velocity": 0,
                    "lightChannels": [
                        6,
                        7
                    ]
                }
            }
        }
    },
    {
        "changes": {
            "window": 1,
            "outline": 1
        },
        "timeout": 0.1747879375,
        "raw": {
            "window": {
                "pinValue": 1,
                "ticks": 30,
                "event": {
                    "deltaTime": 30,
                    "type": "channel",
                    "subtype": "noteOn",
                    "channel": 9,
                    "noteNumber": 54,
                    "velocity": 81,
                    "lightChannels": [
                        6,
                        7
                    ]
                }
            },
            "outline": {
                "pinValue": 1,
                "ticks": 30,
                "event": {
                    "deltaTime": 30,
                    "type": "channel",
                    "subtype": "noteOn",
                    "channel": 9,
                    "noteNumber": 54,
                    "velocity": 81,
                    "lightChannels": [
                        6,
                        7
                    ]
                }
            }
        }
    },
    {
        "changes": {
            "window": 0,
            "outline": 0
        },
        "timeout": 0.06673721249999999,
        "raw": {
            "window": {
                "pinValue": 0,
                "ticks": 13,
                "event": {
                    "deltaTime": 13,
                    "type": "channel",
                    "subtype": "noteOff",
                    "channel": 9,
                    "noteNumber": 54,
                    "velocity": 0,
                    "lightChannels": [
                        6,
                        7
                    ]
                }
            },
            "outline": {
                "pinValue": 0,
                "ticks": 13,
                "event": {
                    "deltaTime": 13,
                    "type": "channel",
                    "subtype": "noteOff",
                    "channel": 9,
                    "noteNumber": 54,
                    "velocity": 0,
                    "lightChannels": [
                        6,
                        7
                    ]
                }
            }
        }
    },
    {
        "changes": {
            "col-2": 0
        },
        "timeout": 0.07944906249999999,
        "raw": {
            "col-2": {
                "pinValue": 0,
                "ticks": 21,
                "event": {
                    "deltaTime": 21,
                    "type": "channel",
                    "subtype": "noteOff",
                    "channel": 6,
                    "noteNumber": 58,
                    "velocity": 0,
                    "lightChannels": [
                        4
                    ]
                }
            }
        }
    },
    {
        "changes": {
            "col-3": 1
        },
        "timeout": 0.05402536249999999,
        "raw": {
            "col-3": {
                "pinValue": 1,
                "ticks": 51,
                "event": {
                    "deltaTime": 51,
                    "type": "channel",
                    "subtype": "noteOn",
                    "channel": 6,
                    "noteNumber": 55,
                    "velocity": 81,
                    "lightChannels": [
                        5
                    ]
                }
            }
        }
    },
    {
        "changes": {
            "garage": 0
        },
        "timeout": 0.0031779624999999996,
        "raw": {
            "garage": {
                "pinValue": 0,
                "ticks": 3,
                "event": {
                    "deltaTime": 3,
                    "type": "channel",
                    "subtype": "noteOff",
                    "channel": 8,
                    "noteNumber": 55,
                    "velocity": 0,
                    "lightChannels": [
                        0
                    ]
                }
            }
        }
    },
    {
        "changes": {
            "window": 1,
            "outline": 1
        },
        "timeout": 0.04343215416666666,
        "raw": {
            "window": {
                "pinValue": 1,
                "ticks": 3,
                "event": {
                    "deltaTime": 3,
                    "type": "channel",
                    "subtype": "noteOn",
                    "channel": 9,
                    "noteNumber": 54,
                    "velocity": 80,
                    "lightChannels": [
                        6,
                        7
                    ]
                }
            },
            "outline": {
                "pinValue": 1,
                "ticks": 3,
                "event": {
                    "deltaTime": 3,
                    "type": "channel",
                    "subtype": "noteOn",
                    "channel": 9,
                    "noteNumber": 54,
                    "velocity": 80,
                    "lightChannels": [
                        6,
                        7
                    ]
                }
            }
        }
    },
    {
        "changes": {
            "top-right": 1
        },
        "timeout": 0.0095338875,
        "raw": {
            "top-right": {
                "pinValue": 1,
                "ticks": 9,
                "event": {
                    "deltaTime": 9,
                    "type": "channel",
                    "subtype": "noteOn",
                    "channel": 8,
                    "noteNumber": 58,
                    "velocity": 112,
                    "lightChannels": [
                        1
                    ]
                }
            }
        }
    },
    {
        "changes": {
            "window": 0,
            "outline": 0
        },
        "timeout": 0.05296604166666666,
        "raw": {
            "window": {
                "pinValue": 0,
                "ticks": 50,
                "event": {
                    "deltaTime": 50,
                    "type": "channel",
                    "subtype": "noteOff",
                    "channel": 9,
                    "noteNumber": 54,
                    "velocity": 0,
                    "lightChannels": [
                        6,
                        7
                    ]
                }
            },
            "outline": {
                "pinValue": 0,
                "ticks": 50,
                "event": {
                    "deltaTime": 50,
                    "type": "channel",
                    "subtype": "noteOff",
                    "channel": 9,
                    "noteNumber": 54,
                    "velocity": 0,
                    "lightChannels": [
                        6,
                        7
                    ]
                }
            }
        }
    },
    {
        "changes": {
            "window": 1,
            "outline": 1
        },
        "timeout": 0.18961842916666666,
        "raw": {
            "window": {
                "pinValue": 1,
                "ticks": 75,
                "event": {
                    "deltaTime": 75,
                    "type": "channel",
                    "subtype": "noteOn",
                    "channel": 9,
                    "noteNumber": 54,
                    "velocity": 81,
                    "lightChannels": [
                        6,
                        7
                    ]
                }
            },
            "outline": {
                "pinValue": 1,
                "ticks": 75,
                "event": {
                    "deltaTime": 75,
                    "type": "channel",
                    "subtype": "noteOn",
                    "channel": 9,
                    "noteNumber": 54,
                    "velocity": 81,
                    "lightChannels": [
                        6,
                        7
                    ]
                }
            }
        }
    },
    {
        "changes": {
            "window": 0,
            "outline": 0
        },
        "timeout": 0.06673721249999999,
        "raw": {
            "window": {
                "pinValue": 0,
                "ticks": 57,
                "event": {
                    "deltaTime": 57,
                    "type": "channel",
                    "subtype": "noteOff",
                    "channel": 9,
                    "noteNumber": 54,
                    "velocity": 0,
                    "lightChannels": [
                        6,
                        7
                    ]
                }
            },
            "outline": {
                "pinValue": 0,
                "ticks": 57,
                "event": {
                    "deltaTime": 57,
                    "type": "channel",
                    "subtype": "noteOff",
                    "channel": 9,
                    "noteNumber": 54,
                    "velocity": 0,
                    "lightChannels": [
                        6,
                        7
                    ]
                }
            }
        }
    },
    {
        "changes": {
            "col-3": 0
        },
        "timeout": 0.10805072499999999,
        "raw": {
            "col-3": {
                "pinValue": 0,
                "ticks": 41,
                "event": {
                    "deltaTime": 41,
                    "type": "channel",
                    "subtype": "noteOff",
                    "channel": 6,
                    "noteNumber": 55,
                    "velocity": 0,
                    "lightChannels": [
                        5
                    ]
                }
            }
        }
    },
    {
        "changes": {
            "top-right": 0
        },
        "timeout": 0.021186416666666666,
        "raw": {
            "top-right": {
                "pinValue": 0,
                "ticks": 20,
                "event": {
                    "deltaTime": 20,
                    "type": "channel",
                    "subtype": "noteOff",
                    "channel": 8,
                    "noteNumber": 58,
                    "velocity": 0,
                    "lightChannels": [
                        1
                    ]
                }
            }
        }
    },
    {
        "changes": {
            "garden": 1
        },
        "timeout": 0.028601662499999996,
        "raw": {
            "garden": {
                "pinValue": 1,
                "ticks": 27,
                "event": {
                    "deltaTime": 27,
                    "type": "channel",
                    "subtype": "noteOn",
                    "channel": 6,
                    "noteNumber": 57,
                    "velocity": 87,
                    "lightChannels": [
                        8
                    ]
                }
            }
        }
    },
    {
        "changes": {
            "bottom-right": 1
        },
        "timeout": 0.024364379166666665,
        "raw": {
            "bottom-right": {
                "pinValue": 1,
                "ticks": 12,
                "event": {
                    "deltaTime": 12,
                    "type": "channel",
                    "subtype": "noteOn",
                    "channel": 8,
                    "noteNumber": 57,
                    "velocity": 106,
                    "lightChannels": [
                        2
                    ]
                }
            }
        }
    },
    {
        "changes": {
            "window": 1,
            "outline": 1
        },
        "timeout": 0.008474566666666666,
        "raw": {
            "window": {
                "pinValue": 1,
                "ticks": 8,
                "event": {
                    "deltaTime": 8,
                    "type": "channel",
                    "subtype": "noteOn",
                    "channel": 9,
                    "noteNumber": 54,
                    "velocity": 87,
                    "lightChannels": [
                        6,
                        7
                    ]
                }
            },
            "outline": {
                "pinValue": 1,
                "ticks": 8,
                "event": {
                    "deltaTime": 8,
                    "type": "channel",
                    "subtype": "noteOn",
                    "channel": 9,
                    "noteNumber": 54,
                    "velocity": 87,
                    "lightChannels": [
                        6,
                        7
                    ]
                }
            }
        }
    },
    {
        "changes": {
            "window": 0,
            "outline": 0
        },
        "timeout": 0.06567789166666665,
        "raw": {
            "window": {
                "pinValue": 0,
                "ticks": 58,
                "event": {
                    "deltaTime": 58,
                    "type": "channel",
                    "subtype": "noteOff",
                    "channel": 9,
                    "noteNumber": 54,
                    "velocity": 0,
                    "lightChannels": [
                        6,
                        7
                    ]
                }
            },
            "outline": {
                "pinValue": 0,
                "ticks": 58,
                "event": {
                    "deltaTime": 58,
                    "type": "channel",
                    "subtype": "noteOff",
                    "channel": 9,
                    "noteNumber": 54,
                    "velocity": 0,
                    "lightChannels": [
                        6,
                        7
                    ]
                }
            }
        }
    },
    {
        "changes": {
            "window": 1,
            "outline": 1
        },
        "timeout": 0.18538114583333332,
        "raw": {
            "window": {
                "pinValue": 1,
                "ticks": 14,
                "event": {
                    "deltaTime": 14,
                    "type": "channel",
                    "subtype": "noteOn",
                    "channel": 9,
                    "noteNumber": 54,
                    "velocity": 75,
                    "lightChannels": [
                        6,
                        7
                    ]
                }
            },
            "outline": {
                "pinValue": 1,
                "ticks": 14,
                "event": {
                    "deltaTime": 14,
                    "type": "channel",
                    "subtype": "noteOn",
                    "channel": 9,
                    "noteNumber": 54,
                    "velocity": 75,
                    "lightChannels": [
                        6,
                        7
                    ]
                }
            }
        }
    },
    {
        "changes": {
            "window": 0,
            "outline": 0
        },
        "timeout": 0.06673721249999999,
        "raw": {
            "window": {
                "pinValue": 0,
                "ticks": 63,
                "event": {
                    "deltaTime": 63,
                    "type": "channel",
                    "subtype": "noteOff",
                    "channel": 9,
                    "noteNumber": 54,
                    "velocity": 0,
                    "lightChannels": [
                        6,
                        7
                    ]
                }
            },
            "outline": {
                "pinValue": 0,
                "ticks": 63,
                "event": {
                    "deltaTime": 63,
                    "type": "channel",
                    "subtype": "noteOff",
                    "channel": 9,
                    "noteNumber": 54,
                    "velocity": 0,
                    "lightChannels": [
                        6,
                        7
                    ]
                }
            }
        }
    },
    {
        "changes": {
            "garden": 0
        },
        "timeout": 0.044491474999999996,
        "raw": {
            "garden": {
                "pinValue": 0,
                "ticks": 15,
                "event": {
                    "deltaTime": 15,
                    "type": "channel",
                    "subtype": "noteOff",
                    "channel": 6,
                    "noteNumber": 57,
                    "velocity": 0,
                    "lightChannels": [
                        8
                    ]
                }
            }
        }
    },
    {
        "changes": {
            "bottom-right": 0
        },
        "timeout": 0.10275412083333332,
        "raw": {
            "bottom-right": {
                "pinValue": 0,
                "ticks": 41,
                "event": {
                    "deltaTime": 41,
                    "type": "channel",
                    "subtype": "noteOff",
                    "channel": 8,
                    "noteNumber": 57,
                    "velocity": 0,
                    "lightChannels": [
                        2
                    ]
                }
            }
        }
    },
    {
        "changes": {
            "tree": 1
        },
        "timeout": 0.011652529166666665,
        "raw": {
            "tree": {
                "pinValue": 1,
                "ticks": 11,
                "event": {
                    "deltaTime": 11,
                    "type": "channel",
                    "subtype": "noteOn",
                    "channel": 6,
                    "noteNumber": 58,
                    "velocity": 80,
                    "lightChannels": [
                        9
                    ]
                }
            }
        }
    },
    {
        "changes": {
            "window": 1,
            "outline": 1
        },
        "timeout": 0.0508474,
        "raw": {
            "window": {
                "pinValue": 1,
                "ticks": 0,
                "event": {
                    "deltaTime": 0,
                    "type": "channel",
                    "subtype": "noteOn",
                    "channel": 9,
                    "noteNumber": 54,
                    "velocity": 81,
                    "lightChannels": [
                        6,
                        7
                    ]
                }
            },
            "outline": {
                "pinValue": 1,
                "ticks": 0,
                "event": {
                    "deltaTime": 0,
                    "type": "channel",
                    "subtype": "noteOn",
                    "channel": 9,
                    "noteNumber": 54,
                    "velocity": 81,
                    "lightChannels": [
                        6,
                        7
                    ]
                }
            }
        }
    },
    {
        "changes": {
            "window": 0,
            "outline": 0
        },
        "timeout": 0.062499929166666655,
        "raw": {
            "window": {
                "pinValue": 0,
                "ticks": 6,
                "event": {
                    "deltaTime": 6,
                    "type": "channel",
                    "subtype": "noteOff",
                    "channel": 9,
                    "noteNumber": 54,
                    "velocity": 0,
                    "lightChannels": [
                        6,
                        7
                    ]
                }
            },
            "outline": {
                "pinValue": 0,
                "ticks": 6,
                "event": {
                    "deltaTime": 6,
                    "type": "channel",
                    "subtype": "noteOff",
                    "channel": 9,
                    "noteNumber": 54,
                    "velocity": 0,
                    "lightChannels": [
                        6,
                        7
                    ]
                }
            }
        }
    },
    {
        "changes": {
            "window": 1,
            "outline": 1
        },
        "timeout": 0.19597435416666664,
        "raw": {
            "window": {
                "pinValue": 1,
                "ticks": 6,
                "event": {
                    "deltaTime": 6,
                    "type": "channel",
                    "subtype": "noteOn",
                    "channel": 9,
                    "noteNumber": 54,
                    "velocity": 77,
                    "lightChannels": [
                        6,
                        7
                    ]
                }
            },
            "outline": {
                "pinValue": 1,
                "ticks": 6,
                "event": {
                    "deltaTime": 6,
                    "type": "channel",
                    "subtype": "noteOn",
                    "channel": 9,
                    "noteNumber": 54,
                    "velocity": 77,
                    "lightChannels": [
                        6,
                        7
                    ]
                }
            }
        }
    },
    {
        "changes": {
            "window": 0,
            "outline": 0
        },
        "timeout": 0.059321966666666656,
        "raw": {
            "window": {
                "pinValue": 0,
                "ticks": 12,
                "event": {
                    "deltaTime": 12,
                    "type": "channel",
                    "subtype": "noteOff",
                    "channel": 9,
                    "noteNumber": 54,
                    "velocity": 0,
                    "lightChannels": [
                        6,
                        7
                    ]
                }
            },
            "outline": {
                "pinValue": 0,
                "ticks": 12,
                "event": {
                    "deltaTime": 12,
                    "type": "channel",
                    "subtype": "noteOff",
                    "channel": 9,
                    "noteNumber": 54,
                    "velocity": 0,
                    "lightChannels": [
                        6,
                        7
                    ]
                }
            }
        }
    },
    {
        "changes": {
            "garage": 1,
            "window": 1,
            "outline": 1
        },
        "timeout": 0.19067775,
        "raw": {
            "garage": {
                "pinValue": 1,
                "ticks": 21,
                "event": {
                    "deltaTime": 21,
                    "type": "channel",
                    "subtype": "noteOn",
                    "channel": 8,
                    "noteNumber": 55,
                    "velocity": 119,
                    "lightChannels": [
                        0
                    ]
                }
            },
            "window": {
                "pinValue": 1,
                "ticks": 0,
                "event": {
                    "deltaTime": 0,
                    "type": "channel",
                    "subtype": "noteOn",
                    "channel": 9,
                    "noteNumber": 54,
                    "velocity": 80,
                    "lightChannels": [
                        6,
                        7
                    ]
                }
            },
            "outline": {
                "pinValue": 1,
                "ticks": 0,
                "event": {
                    "deltaTime": 0,
                    "type": "channel",
                    "subtype": "noteOn",
                    "channel": 9,
                    "noteNumber": 54,
                    "velocity": 80,
                    "lightChannels": [
                        6,
                        7
                    ]
                }
            }
        }
    },
    {
        "changes": {
            "window": 0,
            "outline": 0
        },
        "timeout": 0.06355925,
        "raw": {
            "window": {
                "pinValue": 0,
                "ticks": 46,
                "event": {
                    "deltaTime": 46,
                    "type": "channel",
                    "subtype": "noteOff",
                    "channel": 9,
                    "noteNumber": 54,
                    "velocity": 0,
                    "lightChannels": [
                        6,
                        7
                    ]
                }
            },
            "outline": {
                "pinValue": 0,
                "ticks": 46,
                "event": {
                    "deltaTime": 46,
                    "type": "channel",
                    "subtype": "noteOff",
                    "channel": 9,
                    "noteNumber": 54,
                    "velocity": 0,
                    "lightChannels": [
                        6,
                        7
                    ]
                }
            }
        }
    },
    {
        "changes": {
            "garage": 0
        },
        "timeout": 0.15572016249999998,
        "raw": {
            "garage": {
                "pinValue": 0,
                "ticks": 27,
                "event": {
                    "deltaTime": 27,
                    "type": "channel",
                    "subtype": "noteOff",
                    "channel": 8,
                    "noteNumber": 55,
                    "velocity": 0,
                    "lightChannels": [
                        0
                    ]
                }
            }
        }
    },
    {
        "changes": {
            "window": 1,
            "outline": 1
        },
        "timeout": 0.039194870833333326,
        "raw": {
            "window": {
                "pinValue": 1,
                "ticks": 11,
                "event": {
                    "deltaTime": 11,
                    "type": "channel",
                    "subtype": "noteOn",
                    "channel": 9,
                    "noteNumber": 54,
                    "velocity": 79,
                    "lightChannels": [
                        6,
                        7
                    ]
                }
            },
            "outline": {
                "pinValue": 1,
                "ticks": 11,
                "event": {
                    "deltaTime": 11,
                    "type": "channel",
                    "subtype": "noteOn",
                    "channel": 9,
                    "noteNumber": 54,
                    "velocity": 79,
                    "lightChannels": [
                        6,
                        7
                    ]
                }
            }
        }
    },
    {
        "changes": {
            "window": 0,
            "outline": 0
        },
        "timeout": 0.06038128749999999,
        "raw": {
            "window": {
                "pinValue": 0,
                "ticks": 9,
                "event": {
                    "deltaTime": 9,
                    "type": "channel",
                    "subtype": "noteOff",
                    "channel": 9,
                    "noteNumber": 54,
                    "velocity": 0,
                    "lightChannels": [
                        6,
                        7
                    ]
                }
            },
            "outline": {
                "pinValue": 0,
                "ticks": 9,
                "event": {
                    "deltaTime": 9,
                    "type": "channel",
                    "subtype": "noteOff",
                    "channel": 9,
                    "noteNumber": 54,
                    "velocity": 0,
                    "lightChannels": [
                        6,
                        7
                    ]
                }
            }
        }
    },
    {
        "changes": {
            "tree": 0
        },
        "timeout": 0.06567789166666665,
        "raw": {
            "tree": {
                "pinValue": 0,
                "ticks": 46,
                "event": {
                    "deltaTime": 46,
                    "type": "channel",
                    "subtype": "noteOff",
                    "channel": 6,
                    "noteNumber": 58,
                    "velocity": 0,
                    "lightChannels": [
                        9
                    ]
                }
            }
        }
    },
    {
        "changes": {
            "garden": 1
        },
        "timeout": 0.11440664999999998,
        "raw": {
            "garden": {
                "pinValue": 1,
                "ticks": 8,
                "event": {
                    "deltaTime": 8,
                    "type": "channel",
                    "subtype": "noteOn",
                    "channel": 6,
                    "noteNumber": 56,
                    "velocity": 96,
                    "lightChannels": [
                        8
                    ]
                }
            }
        }
    },
    {
        "changes": {
            "window": 1,
            "outline": 1
        },
        "timeout": 0.0095338875,
        "raw": {
            "window": {
                "pinValue": 1,
                "ticks": 6,
                "event": {
                    "deltaTime": 6,
                    "type": "channel",
                    "subtype": "noteOn",
                    "channel": 9,
                    "noteNumber": 54,
                    "velocity": 85,
                    "lightChannels": [
                        6,
                        7
                    ]
                }
            },
            "outline": {
                "pinValue": 1,
                "ticks": 6,
                "event": {
                    "deltaTime": 6,
                    "type": "channel",
                    "subtype": "noteOn",
                    "channel": 9,
                    "noteNumber": 54,
                    "velocity": 85,
                    "lightChannels": [
                        6,
                        7
                    ]
                }
            }
        }
    },
    {
        "changes": {
            "top-right": 1
        },
        "timeout": 0.01271185,
        "raw": {
            "top-right": {
                "pinValue": 1,
                "ticks": 10,
                "event": {
                    "deltaTime": 10,
                    "type": "channel",
                    "subtype": "noteOn",
                    "channel": 8,
                    "noteNumber": 56,
                    "velocity": 114,
                    "lightChannels": [
                        1
                    ]
                }
            }
        }
    },
    {
        "changes": {
            "window": 0,
            "outline": 0
        },
        "timeout": 0.049788079166666666,
        "raw": {
            "window": {
                "pinValue": 0,
                "ticks": 40,
                "event": {
                    "deltaTime": 40,
                    "type": "channel",
                    "subtype": "noteOff",
                    "channel": 9,
                    "noteNumber": 54,
                    "velocity": 0,
                    "lightChannels": [
                        6,
                        7
                    ]
                }
            },
            "outline": {
                "pinValue": 0,
                "ticks": 40,
                "event": {
                    "deltaTime": 40,
                    "type": "channel",
                    "subtype": "noteOff",
                    "channel": 9,
                    "noteNumber": 54,
                    "velocity": 0,
                    "lightChannels": [
                        6,
                        7
                    ]
                }
            }
        }
    },
    {
        "changes": {
            "top-right": 0
        },
        "timeout": 0.15042355833333332,
        "raw": {
            "top-right": {
                "pinValue": 0,
                "ticks": 7,
                "event": {
                    "deltaTime": 7,
                    "type": "channel",
                    "subtype": "noteOff",
                    "channel": 8,
                    "noteNumber": 56,
                    "velocity": 0,
                    "lightChannels": [
                        1
                    ]
                }
            }
        }
    },
    {
        "changes": {
            "window": 1,
            "outline": 1
        },
        "timeout": 0.03813555,
        "raw": {
            "window": {
                "pinValue": 1,
                "ticks": 1,
                "event": {
                    "deltaTime": 1,
                    "type": "channel",
                    "subtype": "noteOn",
                    "channel": 9,
                    "noteNumber": 54,
                    "velocity": 80,
                    "lightChannels": [
                        6,
                        7
                    ]
                }
            },
            "outline": {
                "pinValue": 1,
                "ticks": 1,
                "event": {
                    "deltaTime": 1,
                    "type": "channel",
                    "subtype": "noteOn",
                    "channel": 9,
                    "noteNumber": 54,
                    "velocity": 80,
                    "lightChannels": [
                        6,
                        7
                    ]
                }
            }
        }
    },
    {
        "changes": {
            "window": 0,
            "outline": 0
        },
        "timeout": 0.06249992916666666,
        "raw": {
            "window": {
                "pinValue": 0,
                "ticks": 46,
                "event": {
                    "deltaTime": 46,
                    "type": "channel",
                    "subtype": "noteOff",
                    "channel": 9,
                    "noteNumber": 54,
                    "velocity": 0,
                    "lightChannels": [
                        6,
                        7
                    ]
                }
            },
            "outline": {
                "pinValue": 0,
                "ticks": 46,
                "event": {
                    "deltaTime": 46,
                    "type": "channel",
                    "subtype": "noteOff",
                    "channel": 9,
                    "noteNumber": 54,
                    "velocity": 0,
                    "lightChannels": [
                        6,
                        7
                    ]
                }
            }
        }
    },
    {
        "changes": {
            "garden": 0
        },
        "timeout": 0.1345337458333333,
        "raw": {
            "garden": {
                "pinValue": 0,
                "ticks": 3,
                "event": {
                    "deltaTime": 3,
                    "type": "channel",
                    "subtype": "noteOff",
                    "channel": 6,
                    "noteNumber": 56,
                    "velocity": 0,
                    "lightChannels": [
                        8
                    ]
                }
            }
        }
    },
    {
        "changes": {
            "col-3": 1
        },
        "timeout": 0.045550795833333324,
        "raw": {
            "col-3": {
                "pinValue": 1,
                "ticks": 11,
                "event": {
                    "deltaTime": 11,
                    "type": "channel",
                    "subtype": "noteOn",
                    "channel": 6,
                    "noteNumber": 57,
                    "velocity": 89,
                    "lightChannels": [
                        5
                    ]
                }
            }
        }
    },
    {
        "changes": {
            "window": 1,
            "outline": 1
        },
        "timeout": 0.010593208333333333,
        "raw": {
            "window": {
                "pinValue": 1,
                "ticks": 0,
                "event": {
                    "deltaTime": 0,
                    "type": "channel",
                    "subtype": "noteOn",
                    "channel": 9,
                    "noteNumber": 54,
                    "velocity": 80,
                    "lightChannels": [
                        6,
                        7
                    ]
                }
            },
            "outline": {
                "pinValue": 1,
                "ticks": 0,
                "event": {
                    "deltaTime": 0,
                    "type": "channel",
                    "subtype": "noteOn",
                    "channel": 9,
                    "noteNumber": 54,
                    "velocity": 80,
                    "lightChannels": [
                        6,
                        7
                    ]
                }
            }
        }
    },
    {
        "changes": {
            "bottom-right": 1
        },
        "timeout": 0.0021186416666666664,
        "raw": {
            "bottom-right": {
                "pinValue": 1,
                "ticks": 2,
                "event": {
                    "deltaTime": 2,
                    "type": "channel",
                    "subtype": "noteOn",
                    "channel": 8,
                    "noteNumber": 57,
                    "velocity": 112,
                    "lightChannels": [
                        2
                    ]
                }
            }
        }
    },
    {
        "changes": {
            "window": 0,
            "outline": 0
        },
        "timeout": 0.06144060833333333,
        "raw": {
            "window": {
                "pinValue": 0,
                "ticks": 58,
                "event": {
                    "deltaTime": 58,
                    "type": "channel",
                    "subtype": "noteOff",
                    "channel": 9,
                    "noteNumber": 54,
                    "velocity": 0,
                    "lightChannels": [
                        6,
                        7
                    ]
                }
            },
            "outline": {
                "pinValue": 0,
                "ticks": 58,
                "event": {
                    "deltaTime": 58,
                    "type": "channel",
                    "subtype": "noteOff",
                    "channel": 9,
                    "noteNumber": 54,
                    "velocity": 0,
                    "lightChannels": [
                        6,
                        7
                    ]
                }
            }
        }
    },
    {
        "changes": {
            "bottom-right": 0
        },
        "timeout": 0.14830491666666665,
        "raw": {
            "bottom-right": {
                "pinValue": 0,
                "ticks": 14,
                "event": {
                    "deltaTime": 14,
                    "type": "channel",
                    "subtype": "noteOff",
                    "channel": 8,
                    "noteNumber": 57,
                    "velocity": 0,
                    "lightChannels": [
                        2
                    ]
                }
            }
        }
    },
    {
        "changes": {
            "window": 1,
            "outline": 1
        },
        "timeout": 0.036016908333333326,
        "raw": {
            "window": {
                "pinValue": 1,
                "ticks": 7,
                "event": {
                    "deltaTime": 7,
                    "type": "channel",
                    "subtype": "noteOn",
                    "channel": 9,
                    "noteNumber": 54,
                    "velocity": 80,
                    "lightChannels": [
                        6,
                        7
                    ]
                }
            },
            "outline": {
                "pinValue": 1,
                "ticks": 7,
                "event": {
                    "deltaTime": 7,
                    "type": "channel",
                    "subtype": "noteOn",
                    "channel": 9,
                    "noteNumber": 54,
                    "velocity": 80,
                    "lightChannels": [
                        6,
                        7
                    ]
                }
            }
        }
    },
    {
        "changes": {
            "window": 0,
            "outline": 0
        },
        "timeout": 0.06249992916666666,
        "raw": {
            "window": {
                "pinValue": 0,
                "ticks": 52,
                "event": {
                    "deltaTime": 52,
                    "type": "channel",
                    "subtype": "noteOff",
                    "channel": 9,
                    "noteNumber": 54,
                    "velocity": 0,
                    "lightChannels": [
                        6,
                        7
                    ]
                }
            },
            "outline": {
                "pinValue": 0,
                "ticks": 52,
                "event": {
                    "deltaTime": 52,
                    "type": "channel",
                    "subtype": "noteOff",
                    "channel": 9,
                    "noteNumber": 54,
                    "velocity": 0,
                    "lightChannels": [
                        6,
                        7
                    ]
                }
            }
        }
    },
    {
        "changes": {
            "col-3": 0
        },
        "timeout": 0.020127095833333334,
        "raw": {
            "col-3": {
                "pinValue": 0,
                "ticks": 2,
                "event": {
                    "deltaTime": 2,
                    "type": "channel",
                    "subtype": "noteOff",
                    "channel": 6,
                    "noteNumber": 57,
                    "velocity": 0,
                    "lightChannels": [
                        5
                    ]
                }
            }
        }
    },
    {
        "changes": {
            "col-1": 1
        },
        "timeout": 0.15572016249999998,
        "raw": {
            "col-1": {
                "pinValue": 1,
                "ticks": 0,
                "event": {
                    "deltaTime": 0,
                    "type": "channel",
                    "subtype": "noteOn",
                    "channel": 6,
                    "noteNumber": 60,
                    "velocity": 94,
                    "lightChannels": [
                        3
                    ]
                }
            }
        }
    },
    {
        "changes": {
            "window": 1,
            "outline": 1
        },
        "timeout": 0.013771170833333332,
        "raw": {
            "window": {
                "pinValue": 1,
                "ticks": 8,
                "event": {
                    "deltaTime": 8,
                    "type": "channel",
                    "subtype": "noteOn",
                    "channel": 9,
                    "noteNumber": 54,
                    "velocity": 80,
                    "lightChannels": [
                        6,
                        7
                    ]
                }
            },
            "outline": {
                "pinValue": 1,
                "ticks": 8,
                "event": {
                    "deltaTime": 8,
                    "type": "channel",
                    "subtype": "noteOn",
                    "channel": 9,
                    "noteNumber": 54,
                    "velocity": 80,
                    "lightChannels": [
                        6,
                        7
                    ]
                }
            }
        }
    },
    {
        "changes": {
            "garage": 1
        },
        "timeout": 0.007415245833333332,
        "raw": {
            "garage": {
                "pinValue": 1,
                "ticks": 6,
                "event": {
                    "deltaTime": 6,
                    "type": "channel",
                    "subtype": "noteOn",
                    "channel": 8,
                    "noteNumber": 57,
                    "velocity": 111,
                    "lightChannels": [
                        0
                    ]
                }
            }
        }
    },
    {
        "changes": {
            "window": 0,
            "outline": 0
        },
        "timeout": 0.05296604166666666,
        "raw": {
            "window": {
                "pinValue": 0,
                "ticks": 37,
                "event": {
                    "deltaTime": 37,
                    "type": "channel",
                    "subtype": "noteOff",
                    "channel": 9,
                    "noteNumber": 54,
                    "velocity": 0,
                    "lightChannels": [
                        6,
                        7
                    ]
                }
            },
            "outline": {
                "pinValue": 0,
                "ticks": 37,
                "event": {
                    "deltaTime": 37,
                    "type": "channel",
                    "subtype": "noteOff",
                    "channel": 9,
                    "noteNumber": 54,
                    "velocity": 0,
                    "lightChannels": [
                        6,
                        7
                    ]
                }
            }
        }
    },
    {
        "changes": {
            "window": 1,
            "outline": 1
        },
        "timeout": 0.1980929958333333,
        "raw": {
            "window": {
                "pinValue": 1,
                "ticks": 3,
                "event": {
                    "deltaTime": 3,
                    "type": "channel",
                    "subtype": "noteOn",
                    "channel": 9,
                    "noteNumber": 54,
                    "velocity": 76,
                    "lightChannels": [
                        6,
                        7
                    ]
                }
            },
            "outline": {
                "pinValue": 1,
                "ticks": 3,
                "event": {
                    "deltaTime": 3,
                    "type": "channel",
                    "subtype": "noteOn",
                    "channel": 9,
                    "noteNumber": 54,
                    "velocity": 76,
                    "lightChannels": [
                        6,
                        7
                    ]
                }
            }
        }
    },
    {
        "changes": {
            "window": 0,
            "outline": 0
        },
        "timeout": 0.06461857083333332,
        "raw": {
            "window": {
                "pinValue": 0,
                "ticks": 11,
                "event": {
                    "deltaTime": 11,
                    "type": "channel",
                    "subtype": "noteOff",
                    "channel": 9,
                    "noteNumber": 54,
                    "velocity": 0,
                    "lightChannels": [
                        6,
                        7
                    ]
                }
            },
            "outline": {
                "pinValue": 0,
                "ticks": 11,
                "event": {
                    "deltaTime": 11,
                    "type": "channel",
                    "subtype": "noteOff",
                    "channel": 9,
                    "noteNumber": 54,
                    "velocity": 0,
                    "lightChannels": [
                        6,
                        7
                    ]
                }
            }
        }
    },
    {
        "changes": {
            "col-1": 0
        },
        "timeout": 0.11864393333333331,
        "raw": {
            "col-1": {
                "pinValue": 0,
                "ticks": 95,
                "event": {
                    "deltaTime": 95,
                    "type": "channel",
                    "subtype": "noteOff",
                    "channel": 6,
                    "noteNumber": 60,
                    "velocity": 0,
                    "lightChannels": [
                        3
                    ]
                }
            }
        }
    },
    {
        "changes": {
            "garage": 0
        },
        "timeout": 0.021186416666666666,
        "raw": {
            "garage": {
                "pinValue": 0,
                "ticks": 20,
                "event": {
                    "deltaTime": 20,
                    "type": "channel",
                    "subtype": "noteOff",
                    "channel": 8,
                    "noteNumber": 57,
                    "velocity": 0,
                    "lightChannels": [
                        0
                    ]
                }
            }
        }
    },
    {
        "changes": {
            "col-2": 1
        },
        "timeout": 0.0158898125,
        "raw": {
            "col-2": {
                "pinValue": 1,
                "ticks": 15,
                "event": {
                    "deltaTime": 15,
                    "type": "channel",
                    "subtype": "noteOn",
                    "channel": 6,
                    "noteNumber": 58,
                    "velocity": 84,
                    "lightChannels": [
                        4
                    ]
                }
            }
        }
    },
    {
        "changes": {
            "window": 1,
            "outline": 1
        },
        "timeout": 0.02966098333333333,
        "raw": {
            "window": {
                "pinValue": 1,
                "ticks": 5,
                "event": {
                    "deltaTime": 5,
                    "type": "channel",
                    "subtype": "noteOn",
                    "channel": 9,
                    "noteNumber": 54,
                    "velocity": 79,
                    "lightChannels": [
                        6,
                        7
                    ]
                }
            },
            "outline": {
                "pinValue": 1,
                "ticks": 5,
                "event": {
                    "deltaTime": 5,
                    "type": "channel",
                    "subtype": "noteOn",
                    "channel": 9,
                    "noteNumber": 54,
                    "velocity": 79,
                    "lightChannels": [
                        6,
                        7
                    ]
                }
            }
        }
    },
    {
        "changes": {
            "top-right": 1
        },
        "timeout": 0.004237283333333333,
        "raw": {
            "top-right": {
                "pinValue": 1,
                "ticks": 4,
                "event": {
                    "deltaTime": 4,
                    "type": "channel",
                    "subtype": "noteOn",
                    "channel": 8,
                    "noteNumber": 55,
                    "velocity": 112,
                    "lightChannels": [
                        1
                    ]
                }
            }
        }
    },
    {
        "changes": {
            "window": 0,
            "outline": 0
        },
        "timeout": 0.05826264583333333,
        "raw": {
            "window": {
                "pinValue": 0,
                "ticks": 55,
                "event": {
                    "deltaTime": 55,
                    "type": "channel",
                    "subtype": "noteOff",
                    "channel": 9,
                    "noteNumber": 54,
                    "velocity": 0,
                    "lightChannels": [
                        6,
                        7
                    ]
                }
            },
            "outline": {
                "pinValue": 0,
                "ticks": 55,
                "event": {
                    "deltaTime": 55,
                    "type": "channel",
                    "subtype": "noteOff",
                    "channel": 9,
                    "noteNumber": 54,
                    "velocity": 0,
                    "lightChannels": [
                        6,
                        7
                    ]
                }
            }
        }
    },
    {
        "changes": {
            "window": 1,
            "outline": 1
        },
        "timeout": 0.19385571249999997,
        "raw": {
            "window": {
                "pinValue": 1,
                "ticks": 29,
                "event": {
                    "deltaTime": 29,
                    "type": "channel",
                    "subtype": "noteOn",
                    "channel": 9,
                    "noteNumber": 54,
                    "velocity": 76,
                    "lightChannels": [
                        6,
                        7
                    ]
                }
            },
            "outline": {
                "pinValue": 1,
                "ticks": 29,
                "event": {
                    "deltaTime": 29,
                    "type": "channel",
                    "subtype": "noteOn",
                    "channel": 9,
                    "noteNumber": 54,
                    "velocity": 76,
                    "lightChannels": [
                        6,
                        7
                    ]
                }
            }
        }
    },
    {
        "changes": {
            "window": 0,
            "outline": 0
        },
        "timeout": 0.062499929166666655,
        "raw": {
            "window": {
                "pinValue": 0,
                "ticks": 3,
                "event": {
                    "deltaTime": 3,
                    "type": "channel",
                    "subtype": "noteOff",
                    "channel": 9,
                    "noteNumber": 54,
                    "velocity": 0,
                    "lightChannels": [
                        6,
                        7
                    ]
                }
            },
            "outline": {
                "pinValue": 0,
                "ticks": 3,
                "event": {
                    "deltaTime": 3,
                    "type": "channel",
                    "subtype": "noteOff",
                    "channel": 9,
                    "noteNumber": 54,
                    "velocity": 0,
                    "lightChannels": [
                        6,
                        7
                    ]
                }
            }
        }
    },
    {
        "changes": {
            "col-2": 0
        },
        "timeout": 0.11016936666666666,
        "raw": {
            "col-2": {
                "pinValue": 0,
                "ticks": 28,
                "event": {
                    "deltaTime": 28,
                    "type": "channel",
                    "subtype": "noteOff",
                    "channel": 6,
                    "noteNumber": 58,
                    "velocity": 0,
                    "lightChannels": [
                        4
                    ]
                }
            }
        }
    },
    {
        "changes": {
            "top-right": 0
        },
        "timeout": 0.03389826666666666,
        "raw": {
            "top-right": {
                "pinValue": 0,
                "ticks": 32,
                "event": {
                    "deltaTime": 32,
                    "type": "channel",
                    "subtype": "noteOff",
                    "channel": 8,
                    "noteNumber": 55,
                    "velocity": 0,
                    "lightChannels": [
                        1
                    ]
                }
            }
        }
    },
    {
        "changes": {
            "col-3": 1
        },
        "timeout": 0.022245737499999998,
        "raw": {
            "col-3": {
                "pinValue": 1,
                "ticks": 21,
                "event": {
                    "deltaTime": 21,
                    "type": "channel",
                    "subtype": "noteOn",
                    "channel": 6,
                    "noteNumber": 55,
                    "velocity": 82,
                    "lightChannels": [
                        5
                    ]
                }
            }
        }
    },
    {
        "changes": {
            "bottom-right": 1
        },
        "timeout": 0.024364379166666665,
        "raw": {
            "bottom-right": {
                "pinValue": 1,
                "ticks": 9,
                "event": {
                    "deltaTime": 9,
                    "type": "channel",
                    "subtype": "noteOn",
                    "channel": 8,
                    "noteNumber": 58,
                    "velocity": 108,
                    "lightChannels": [
                        2
                    ]
                }
            }
        }
    },
    {
        "changes": {
            "window": 1,
            "outline": 1
        },
        "timeout": 0.0052966041666666665,
        "raw": {
            "window": {
                "pinValue": 1,
                "ticks": 5,
                "event": {
                    "deltaTime": 5,
                    "type": "channel",
                    "subtype": "noteOn",
                    "channel": 9,
                    "noteNumber": 54,
                    "velocity": 81,
                    "lightChannels": [
                        6,
                        7
                    ]
                }
            },
            "outline": {
                "pinValue": 1,
                "ticks": 5,
                "event": {
                    "deltaTime": 5,
                    "type": "channel",
                    "subtype": "noteOn",
                    "channel": 9,
                    "noteNumber": 54,
                    "velocity": 81,
                    "lightChannels": [
                        6,
                        7
                    ]
                }
            }
        }
    },
    {
        "changes": {
            "window": 0,
            "outline": 0
        },
        "timeout": 0.05720332499999999,
        "raw": {
            "window": {
                "pinValue": 0,
                "ticks": 54,
                "event": {
                    "deltaTime": 54,
                    "type": "channel",
                    "subtype": "noteOff",
                    "channel": 9,
                    "noteNumber": 54,
                    "velocity": 0,
                    "lightChannels": [
                        6,
                        7
                    ]
                }
            },
            "outline": {
                "pinValue": 0,
                "ticks": 54,
                "event": {
                    "deltaTime": 54,
                    "type": "channel",
                    "subtype": "noteOff",
                    "channel": 9,
                    "noteNumber": 54,
                    "velocity": 0,
                    "lightChannels": [
                        6,
                        7
                    ]
                }
            }
        }
    },
    {
        "changes": {
            "window": 1,
            "outline": 1
        },
        "timeout": 0.1917370708333333,
        "raw": {
            "window": {
                "pinValue": 1,
                "ticks": 13,
                "event": {
                    "deltaTime": 13,
                    "type": "channel",
                    "subtype": "noteOn",
                    "channel": 9,
                    "noteNumber": 54,
                    "velocity": 75,
                    "lightChannels": [
                        6,
                        7
                    ]
                }
            },
            "outline": {
                "pinValue": 1,
                "ticks": 13,
                "event": {
                    "deltaTime": 13,
                    "type": "channel",
                    "subtype": "noteOn",
                    "channel": 9,
                    "noteNumber": 54,
                    "velocity": 75,
                    "lightChannels": [
                        6,
                        7
                    ]
                }
            }
        }
    },
    {
        "changes": {
            "window": 0,
            "outline": 0
        },
        "timeout": 0.06355925,
        "raw": {
            "window": {
                "pinValue": 0,
                "ticks": 57,
                "event": {
                    "deltaTime": 57,
                    "type": "channel",
                    "subtype": "noteOff",
                    "channel": 9,
                    "noteNumber": 54,
                    "velocity": 0,
                    "lightChannels": [
                        6,
                        7
                    ]
                }
            },
            "outline": {
                "pinValue": 0,
                "ticks": 57,
                "event": {
                    "deltaTime": 57,
                    "type": "channel",
                    "subtype": "noteOff",
                    "channel": 9,
                    "noteNumber": 54,
                    "velocity": 0,
                    "lightChannels": [
                        6,
                        7
                    ]
                }
            }
        }
    },
    {
        "changes": {
            "col-3": 0
        },
        "timeout": 0.10699140416666665,
        "raw": {
            "col-3": {
                "pinValue": 0,
                "ticks": 76,
                "event": {
                    "deltaTime": 76,
                    "type": "channel",
                    "subtype": "noteOff",
                    "channel": 6,
                    "noteNumber": 55,
                    "velocity": 0,
                    "lightChannels": [
                        5
                    ]
                }
            }
        }
    },
    {
        "changes": {
            "bottom-right": 0
        },
        "timeout": 0.02330505833333333,
        "raw": {
            "bottom-right": {
                "pinValue": 0,
                "ticks": 22,
                "event": {
                    "deltaTime": 22,
                    "type": "channel",
                    "subtype": "noteOff",
                    "channel": 8,
                    "noteNumber": 58,
                    "velocity": 0,
                    "lightChannels": [
                        2
                    ]
                }
            }
        }
    },
    {
        "changes": {
            "garden": 1
        },
        "timeout": 0.02330505833333333,
        "raw": {
            "garden": {
                "pinValue": 1,
                "ticks": 22,
                "event": {
                    "deltaTime": 22,
                    "type": "channel",
                    "subtype": "noteOn",
                    "channel": 6,
                    "noteNumber": 57,
                    "velocity": 89,
                    "lightChannels": [
                        8
                    ]
                }
            }
        }
    },
    {
        "changes": {
            "garage": 1
        },
        "timeout": 0.02012709583333333,
        "raw": {
            "garage": {
                "pinValue": 1,
                "ticks": 0,
                "event": {
                    "deltaTime": 0,
                    "type": "channel",
                    "subtype": "noteOn",
                    "channel": 8,
                    "noteNumber": 57,
                    "velocity": 109,
                    "lightChannels": [
                        0
                    ]
                }
            }
        }
    },
    {
        "changes": {
            "window": 1,
            "outline": 1
        },
        "timeout": 0.018008454166666663,
        "raw": {
            "window": {
                "pinValue": 1,
                "ticks": 0,
                "event": {
                    "deltaTime": 0,
                    "type": "channel",
                    "subtype": "noteOn",
                    "channel": 9,
                    "noteNumber": 54,
                    "velocity": 81,
                    "lightChannels": [
                        6,
                        7
                    ]
                }
            },
            "outline": {
                "pinValue": 1,
                "ticks": 0,
                "event": {
                    "deltaTime": 0,
                    "type": "channel",
                    "subtype": "noteOn",
                    "channel": 9,
                    "noteNumber": 54,
                    "velocity": 81,
                    "lightChannels": [
                        6,
                        7
                    ]
                }
            }
        }
    },
    {
        "changes": {
            "window": 0,
            "outline": 0
        },
        "timeout": 0.06673721249999999,
        "raw": {
            "window": {
                "pinValue": 0,
                "ticks": 63,
                "event": {
                    "deltaTime": 63,
                    "type": "channel",
                    "subtype": "noteOff",
                    "channel": 9,
                    "noteNumber": 54,
                    "velocity": 0,
                    "lightChannels": [
                        6,
                        7
                    ]
                }
            },
            "outline": {
                "pinValue": 0,
                "ticks": 63,
                "event": {
                    "deltaTime": 63,
                    "type": "channel",
                    "subtype": "noteOff",
                    "channel": 9,
                    "noteNumber": 54,
                    "velocity": 0,
                    "lightChannels": [
                        6,
                        7
                    ]
                }
            }
        }
    },
    {
        "changes": {
            "window": 1,
            "outline": 1
        },
        "timeout": 0.17690657916666663,
        "raw": {
            "window": {
                "pinValue": 1,
                "ticks": 2,
                "event": {
                    "deltaTime": 2,
                    "type": "channel",
                    "subtype": "noteOn",
                    "channel": 9,
                    "noteNumber": 54,
                    "velocity": 80,
                    "lightChannels": [
                        6,
                        7
                    ]
                }
            },
            "outline": {
                "pinValue": 1,
                "ticks": 2,
                "event": {
                    "deltaTime": 2,
                    "type": "channel",
                    "subtype": "noteOn",
                    "channel": 9,
                    "noteNumber": 54,
                    "velocity": 80,
                    "lightChannels": [
                        6,
                        7
                    ]
                }
            }
        }
    },
    {
        "changes": {
            "window": 0,
            "outline": 0
        },
        "timeout": 0.06567789166666665,
        "raw": {
            "window": {
                "pinValue": 0,
                "ticks": 62,
                "event": {
                    "deltaTime": 62,
                    "type": "channel",
                    "subtype": "noteOff",
                    "channel": 9,
                    "noteNumber": 54,
                    "velocity": 0,
                    "lightChannels": [
                        6,
                        7
                    ]
                }
            },
            "outline": {
                "pinValue": 0,
                "ticks": 62,
                "event": {
                    "deltaTime": 62,
                    "type": "channel",
                    "subtype": "noteOff",
                    "channel": 9,
                    "noteNumber": 54,
                    "velocity": 0,
                    "lightChannels": [
                        6,
                        7
                    ]
                }
            }
        }
    },
    {
        "changes": {
            "garden": 0
        },
        "timeout": 0.06249992916666666,
        "raw": {
            "garden": {
                "pinValue": 0,
                "ticks": 40,
                "event": {
                    "deltaTime": 40,
                    "type": "channel",
                    "subtype": "noteOff",
                    "channel": 6,
                    "noteNumber": 57,
                    "velocity": 0,
                    "lightChannels": [
                        8
                    ]
                }
            }
        }
    },
    {
        "changes": {
            "garage": 0
        },
        "timeout": 0.0021186416666666664,
        "raw": {
            "garage": {
                "pinValue": 0,
                "ticks": 2,
                "event": {
                    "deltaTime": 2,
                    "type": "channel",
                    "subtype": "noteOff",
                    "channel": 8,
                    "noteNumber": 57,
                    "velocity": 0,
                    "lightChannels": [
                        0
                    ]
                }
            }
        }
    },
    {
        "changes": {
            "top-right": 1
        },
        "timeout": 0.10911004583333332,
        "raw": {
            "top-right": {
                "pinValue": 1,
                "ticks": 72,
                "event": {
                    "deltaTime": 72,
                    "type": "channel",
                    "subtype": "noteOn",
                    "channel": 8,
                    "noteNumber": 57,
                    "velocity": 115,
                    "lightChannels": [
                        1
                    ]
                }
            }
        }
    },
    {
        "changes": {
            "col-1": 1
        },
        "timeout": 0.0052966041666666665,
        "raw": {
            "col-1": {
                "pinValue": 1,
                "ticks": 5,
                "event": {
                    "deltaTime": 5,
                    "type": "channel",
                    "subtype": "noteOn",
                    "channel": 6,
                    "noteNumber": 60,
                    "velocity": 89,
                    "lightChannels": [
                        3
                    ]
                }
            }
        }
    },
    {
        "changes": {
            "window": 1,
            "outline": 1
        },
        "timeout": 0.011652529166666665,
        "raw": {
            "window": {
                "pinValue": 1,
                "ticks": 2,
                "event": {
                    "deltaTime": 2,
                    "type": "channel",
                    "subtype": "noteOn",
                    "channel": 9,
                    "noteNumber": 54,
                    "velocity": 81,
                    "lightChannels": [
                        6,
                        7
                    ]
                }
            },
            "outline": {
                "pinValue": 1,
                "ticks": 2,
                "event": {
                    "deltaTime": 2,
                    "type": "channel",
                    "subtype": "noteOn",
                    "channel": 9,
                    "noteNumber": 54,
                    "velocity": 81,
                    "lightChannels": [
                        6,
                        7
                    ]
                }
            }
        }
    },
    {
        "changes": {
            "window": 0,
            "outline": 0
        },
        "timeout": 0.05826264583333332,
        "raw": {
            "window": {
                "pinValue": 0,
                "ticks": 37,
                "event": {
                    "deltaTime": 37,
                    "type": "channel",
                    "subtype": "noteOff",
                    "channel": 9,
                    "noteNumber": 54,
                    "velocity": 0,
                    "lightChannels": [
                        6,
                        7
                    ]
                }
            },
            "outline": {
                "pinValue": 0,
                "ticks": 37,
                "event": {
                    "deltaTime": 37,
                    "type": "channel",
                    "subtype": "noteOff",
                    "channel": 9,
                    "noteNumber": 54,
                    "velocity": 0,
                    "lightChannels": [
                        6,
                        7
                    ]
                }
            }
        }
    },
    {
        "changes": {
            "window": 1,
            "outline": 1
        },
        "timeout": 0.17690657916666663,
        "raw": {
            "window": {
                "pinValue": 1,
                "ticks": 51,
                "event": {
                    "deltaTime": 51,
                    "type": "channel",
                    "subtype": "noteOn",
                    "channel": 9,
                    "noteNumber": 54,
                    "velocity": 83,
                    "lightChannels": [
                        6,
                        7
                    ]
                }
            },
            "outline": {
                "pinValue": 1,
                "ticks": 51,
                "event": {
                    "deltaTime": 51,
                    "type": "channel",
                    "subtype": "noteOn",
                    "channel": 9,
                    "noteNumber": 54,
                    "velocity": 83,
                    "lightChannels": [
                        6,
                        7
                    ]
                }
            }
        }
    },
    {
        "changes": {
            "window": 0,
            "outline": 0
        },
        "timeout": 0.07203381666666665,
        "raw": {
            "window": {
                "pinValue": 0,
                "ticks": 68,
                "event": {
                    "deltaTime": 68,
                    "type": "channel",
                    "subtype": "noteOff",
                    "channel": 9,
                    "noteNumber": 54,
                    "velocity": 0,
                    "lightChannels": [
                        6,
                        7
                    ]
                }
            },
            "outline": {
                "pinValue": 0,
                "ticks": 68,
                "event": {
                    "deltaTime": 68,
                    "type": "channel",
                    "subtype": "noteOff",
                    "channel": 9,
                    "noteNumber": 54,
                    "velocity": 0,
                    "lightChannels": [
                        6,
                        7
                    ]
                }
            }
        }
    },
    {
        "changes": {
            "top-right": 0
        },
        "timeout": 0.13453374583333333,
        "raw": {
            "top-right": {
                "pinValue": 0,
                "ticks": 127,
                "event": {
                    "deltaTime": 127,
                    "type": "channel",
                    "subtype": "noteOff",
                    "channel": 8,
                    "noteNumber": 57,
                    "velocity": 0,
                    "lightChannels": [
                        1
                    ]
                }
            }
        }
    },
    {
        "changes": {
            "col-1": 0
        },
        "timeout": 0.021186416666666666,
        "raw": {
            "col-1": {
                "pinValue": 0,
                "ticks": 20,
                "event": {
                    "deltaTime": 20,
                    "type": "channel",
                    "subtype": "noteOff",
                    "channel": 6,
                    "noteNumber": 60,
                    "velocity": 0,
                    "lightChannels": [
                        3
                    ]
                }
            }
        }
    },
    {
        "changes": {
            "bottom-right": 1
        },
        "timeout": 0.031779625,
        "raw": {
            "bottom-right": {
                "pinValue": 1,
                "ticks": 30,
                "event": {
                    "deltaTime": 30,
                    "type": "channel",
                    "subtype": "noteOn",
                    "channel": 8,
                    "noteNumber": 55,
                    "velocity": 111,
                    "lightChannels": [
                        2
                    ]
                }
            }
        }
    },
    {
        "changes": {
            "window": 1,
            "outline": 1
        },
        "timeout": 0.007415245833333332,
        "raw": {
            "window": {
                "pinValue": 1,
                "ticks": 7,
                "event": {
                    "deltaTime": 7,
                    "type": "channel",
                    "subtype": "noteOn",
                    "channel": 9,
                    "noteNumber": 54,
                    "velocity": 81,
                    "lightChannels": [
                        6,
                        7
                    ]
                }
            },
            "outline": {
                "pinValue": 1,
                "ticks": 7,
                "event": {
                    "deltaTime": 7,
                    "type": "channel",
                    "subtype": "noteOn",
                    "channel": 9,
                    "noteNumber": 54,
                    "velocity": 81,
                    "lightChannels": [
                        6,
                        7
                    ]
                }
            }
        }
    },
    {
        "changes": {
            "col-2": 1
        },
        "timeout": 0.007415245833333332,
        "raw": {
            "col-2": {
                "pinValue": 1,
                "ticks": 0,
                "event": {
                    "deltaTime": 0,
                    "type": "channel",
                    "subtype": "noteOn",
                    "channel": 6,
                    "noteNumber": 58,
                    "velocity": 79,
                    "lightChannels": [
                        4
                    ]
                }
            }
        }
    },
    {
        "changes": {
            "window": 0,
            "outline": 0
        },
        "timeout": 0.05614400416666666,
        "raw": {
            "window": {
                "pinValue": 0,
                "ticks": 53,
                "event": {
                    "deltaTime": 53,
                    "type": "channel",
                    "subtype": "noteOff",
                    "channel": 9,
                    "noteNumber": 54,
                    "velocity": 0,
                    "lightChannels": [
                        6,
                        7
                    ]
                }
            },
            "outline": {
                "pinValue": 0,
                "ticks": 53,
                "event": {
                    "deltaTime": 53,
                    "type": "channel",
                    "subtype": "noteOff",
                    "channel": 9,
                    "noteNumber": 54,
                    "velocity": 0,
                    "lightChannels": [
                        6,
                        7
                    ]
                }
            }
        }
    },
    {
        "changes": {
            "window": 1,
            "outline": 1
        },
        "timeout": 0.19809299583333329,
        "raw": {
            "window": {
                "pinValue": 1,
                "ticks": 51,
                "event": {
                    "deltaTime": 51,
                    "type": "channel",
                    "subtype": "noteOn",
                    "channel": 9,
                    "noteNumber": 54,
                    "velocity": 79,
                    "lightChannels": [
                        6,
                        7
                    ]
                }
            },
            "outline": {
                "pinValue": 1,
                "ticks": 51,
                "event": {
                    "deltaTime": 51,
                    "type": "channel",
                    "subtype": "noteOn",
                    "channel": 9,
                    "noteNumber": 54,
                    "velocity": 79,
                    "lightChannels": [
                        6,
                        7
                    ]
                }
            }
        }
    },
    {
        "changes": {
            "window": 0,
            "outline": 0
        },
        "timeout": 0.06038128749999999,
        "raw": {
            "window": {
                "pinValue": 0,
                "ticks": 57,
                "event": {
                    "deltaTime": 57,
                    "type": "channel",
                    "subtype": "noteOff",
                    "channel": 9,
                    "noteNumber": 54,
                    "velocity": 0,
                    "lightChannels": [
                        6,
                        7
                    ]
                }
            },
            "outline": {
                "pinValue": 0,
                "ticks": 57,
                "event": {
                    "deltaTime": 57,
                    "type": "channel",
                    "subtype": "noteOff",
                    "channel": 9,
                    "noteNumber": 54,
                    "velocity": 0,
                    "lightChannels": [
                        6,
                        7
                    ]
                }
            }
        }
    },
    {
        "changes": {
            "col-2": 0
        },
        "timeout": 0.14194899166666664,
        "raw": {
            "col-2": {
                "pinValue": 0,
                "ticks": 45,
                "event": {
                    "deltaTime": 45,
                    "type": "channel",
                    "subtype": "noteOff",
                    "channel": 6,
                    "noteNumber": 58,
                    "velocity": 0,
                    "lightChannels": [
                        4
                    ]
                }
            }
        }
    },
    {
        "changes": {
            "bottom-right": 0
        },
        "timeout": 0.0095338875,
        "raw": {
            "bottom-right": {
                "pinValue": 0,
                "ticks": 9,
                "event": {
                    "deltaTime": 9,
                    "type": "channel",
                    "subtype": "noteOff",
                    "channel": 8,
                    "noteNumber": 55,
                    "velocity": 0,
                    "lightChannels": [
                        2
                    ]
                }
            }
        }
    },
    {
        "changes": {
            "garage": 1
        },
        "timeout": 0.041313512499999996,
        "raw": {
            "garage": {
                "pinValue": 1,
                "ticks": 1,
                "event": {
                    "deltaTime": 1,
                    "type": "channel",
                    "subtype": "noteOn",
                    "channel": 8,
                    "noteNumber": 58,
                    "velocity": 112,
                    "lightChannels": [
                        0
                    ]
                }
            }
        }
    },
    {
        "changes": {
            "window": 1,
            "outline": 1
        },
        "timeout": 0.010593208333333333,
        "raw": {
            "window": {
                "pinValue": 1,
                "ticks": 10,
                "event": {
                    "deltaTime": 10,
                    "type": "channel",
                    "subtype": "noteOn",
                    "channel": 9,
                    "noteNumber": 54,
                    "velocity": 84,
                    "lightChannels": [
                        6,
                        7
                    ]
                }
            },
            "outline": {
                "pinValue": 1,
                "ticks": 10,
                "event": {
                    "deltaTime": 10,
                    "type": "channel",
                    "subtype": "noteOn",
                    "channel": 9,
                    "noteNumber": 54,
                    "velocity": 84,
                    "lightChannels": [
                        6,
                        7
                    ]
                }
            }
        }
    },
    {
        "changes": {
            "col-3": 1
        },
        "timeout": 0.0010593208333333332,
        "raw": {
            "col-3": {
                "pinValue": 1,
                "ticks": 1,
                "event": {
                    "deltaTime": 1,
                    "type": "channel",
                    "subtype": "noteOn",
                    "channel": 6,
                    "noteNumber": 55,
                    "velocity": 87,
                    "lightChannels": [
                        5
                    ]
                }
            }
        }
    },
    {
        "changes": {
            "window": 0,
            "outline": 0
        },
        "timeout": 0.06249992916666666,
        "raw": {
            "window": {
                "pinValue": 0,
                "ticks": 20,
                "event": {
                    "deltaTime": 20,
                    "type": "channel",
                    "subtype": "noteOff",
                    "channel": 9,
                    "noteNumber": 54,
                    "velocity": 0,
                    "lightChannels": [
                        6,
                        7
                    ]
                }
            },
            "outline": {
                "pinValue": 0,
                "ticks": 20,
                "event": {
                    "deltaTime": 20,
                    "type": "channel",
                    "subtype": "noteOff",
                    "channel": 9,
                    "noteNumber": 54,
                    "velocity": 0,
                    "lightChannels": [
                        6,
                        7
                    ]
                }
            }
        }
    },
    {
        "changes": {
            "window": 1,
            "outline": 1
        },
        "timeout": 0.20338959999999998,
        "raw": {
            "window": {
                "pinValue": 1,
                "ticks": 4,
                "event": {
                    "deltaTime": 4,
                    "type": "channel",
                    "subtype": "noteOn",
                    "channel": 9,
                    "noteNumber": 54,
                    "velocity": 74,
                    "lightChannels": [
                        6,
                        7
                    ]
                }
            },
            "outline": {
                "pinValue": 1,
                "ticks": 4,
                "event": {
                    "deltaTime": 4,
                    "type": "channel",
                    "subtype": "noteOn",
                    "channel": 9,
                    "noteNumber": 54,
                    "velocity": 74,
                    "lightChannels": [
                        6,
                        7
                    ]
                }
            }
        }
    },
    {
        "changes": {
            "window": 0,
            "outline": 0
        },
        "timeout": 0.05402536249999999,
        "raw": {
            "window": {
                "pinValue": 0,
                "ticks": 51,
                "event": {
                    "deltaTime": 51,
                    "type": "channel",
                    "subtype": "noteOff",
                    "channel": 9,
                    "noteNumber": 54,
                    "velocity": 0,
                    "lightChannels": [
                        6,
                        7
                    ]
                }
            },
            "outline": {
                "pinValue": 0,
                "ticks": 51,
                "event": {
                    "deltaTime": 51,
                    "type": "channel",
                    "subtype": "noteOff",
                    "channel": 9,
                    "noteNumber": 54,
                    "velocity": 0,
                    "lightChannels": [
                        6,
                        7
                    ]
                }
            }
        }
    },
    {
        "changes": {
            "garage": 0
        },
        "timeout": 0.11864393333333333,
        "raw": {
            "garage": {
                "pinValue": 0,
                "ticks": 46,
                "event": {
                    "deltaTime": 46,
                    "type": "channel",
                    "subtype": "noteOff",
                    "channel": 8,
                    "noteNumber": 58,
                    "velocity": 0,
                    "lightChannels": [
                        0
                    ]
                }
            }
        }
    },
    {
        "changes": {
            "col-3": 0
        },
        "timeout": 0.05402536249999999,
        "raw": {
            "col-3": {
                "pinValue": 0,
                "ticks": 13,
                "event": {
                    "deltaTime": 13,
                    "type": "channel",
                    "subtype": "noteOff",
                    "channel": 6,
                    "noteNumber": 55,
                    "velocity": 0,
                    "lightChannels": [
                        5
                    ]
                }
            }
        }
    },
    {
        "changes": {
            "top-right": 1
        },
        "timeout": 0.006355924999999999,
        "raw": {
            "top-right": {
                "pinValue": 1,
                "ticks": 3,
                "event": {
                    "deltaTime": 3,
                    "type": "channel",
                    "subtype": "noteOn",
                    "channel": 8,
                    "noteNumber": 57,
                    "velocity": 109,
                    "lightChannels": [
                        1
                    ]
                }
            }
        }
    },
    {
        "changes": {
            "window": 1,
            "outline": 1
        },
        "timeout": 0.019067774999999995,
        "raw": {
            "window": {
                "pinValue": 1,
                "ticks": 3,
                "event": {
                    "deltaTime": 3,
                    "type": "channel",
                    "subtype": "noteOn",
                    "channel": 9,
                    "noteNumber": 54,
                    "velocity": 85,
                    "lightChannels": [
                        6,
                        7
                    ]
                }
            },
            "outline": {
                "pinValue": 1,
                "ticks": 3,
                "event": {
                    "deltaTime": 3,
                    "type": "channel",
                    "subtype": "noteOn",
                    "channel": 9,
                    "noteNumber": 54,
                    "velocity": 85,
                    "lightChannels": [
                        6,
                        7
                    ]
                }
            }
        }
    },
    {
        "changes": {
            "garden": 1
        },
        "timeout": 0.025423699999999997,
        "raw": {
            "garden": {
                "pinValue": 1,
                "ticks": 24,
                "event": {
                    "deltaTime": 24,
                    "type": "channel",
                    "subtype": "noteOn",
                    "channel": 6,
                    "noteNumber": 57,
                    "velocity": 85,
                    "lightChannels": [
                        8
                    ]
                }
            }
        }
    },
    {
        "changes": {
            "window": 0,
            "outline": 0
        },
        "timeout": 0.03813555,
        "raw": {
            "window": {
                "pinValue": 0,
                "ticks": 36,
                "event": {
                    "deltaTime": 36,
                    "type": "channel",
                    "subtype": "noteOff",
                    "channel": 9,
                    "noteNumber": 54,
                    "velocity": 0,
                    "lightChannels": [
                        6,
                        7
                    ]
                }
            },
            "outline": {
                "pinValue": 0,
                "ticks": 36,
                "event": {
                    "deltaTime": 36,
                    "type": "channel",
                    "subtype": "noteOff",
                    "channel": 9,
                    "noteNumber": 54,
                    "velocity": 0,
                    "lightChannels": [
                        6,
                        7
                    ]
                }
            }
        }
    },
    {
        "changes": {
            "window": 1,
            "outline": 1
        },
        "timeout": 0.197033675,
        "raw": {
            "window": {
                "pinValue": 1,
                "ticks": 9,
                "event": {
                    "deltaTime": 9,
                    "type": "channel",
                    "subtype": "noteOn",
                    "channel": 9,
                    "noteNumber": 54,
                    "velocity": 74,
                    "lightChannels": [
                        6,
                        7
                    ]
                }
            },
            "outline": {
                "pinValue": 1,
                "ticks": 9,
                "event": {
                    "deltaTime": 9,
                    "type": "channel",
                    "subtype": "noteOn",
                    "channel": 9,
                    "noteNumber": 54,
                    "velocity": 74,
                    "lightChannels": [
                        6,
                        7
                    ]
                }
            }
        }
    },
    {
        "changes": {
            "window": 0,
            "outline": 0
        },
        "timeout": 0.050847399999999994,
        "raw": {
            "window": {
                "pinValue": 0,
                "ticks": 48,
                "event": {
                    "deltaTime": 48,
                    "type": "channel",
                    "subtype": "noteOff",
                    "channel": 9,
                    "noteNumber": 54,
                    "velocity": 0,
                    "lightChannels": [
                        6,
                        7
                    ]
                }
            },
            "outline": {
                "pinValue": 0,
                "ticks": 48,
                "event": {
                    "deltaTime": 48,
                    "type": "channel",
                    "subtype": "noteOff",
                    "channel": 9,
                    "noteNumber": 54,
                    "velocity": 0,
                    "lightChannels": [
                        6,
                        7
                    ]
                }
            }
        }
    },
    {
        "changes": {
            "garden": 0
        },
        "timeout": 0.04872875833333333,
        "raw": {
            "garden": {
                "pinValue": 0,
                "ticks": 1,
                "event": {
                    "deltaTime": 1,
                    "type": "channel",
                    "subtype": "noteOff",
                    "channel": 6,
                    "noteNumber": 57,
                    "velocity": 0,
                    "lightChannels": [
                        8
                    ]
                }
            }
        }
    },
    {
        "changes": {
            "top-right": 0
        },
        "timeout": 0.0052966041666666665,
        "raw": {
            "top-right": {
                "pinValue": 0,
                "ticks": 5,
                "event": {
                    "deltaTime": 5,
                    "type": "channel",
                    "subtype": "noteOff",
                    "channel": 8,
                    "noteNumber": 57,
                    "velocity": 0,
                    "lightChannels": [
                        1
                    ]
                }
            }
        }
    },
    {
        "changes": {
            "col-1": 1
        },
        "timeout": 0.11864393333333331,
        "raw": {
            "col-1": {
                "pinValue": 1,
                "ticks": 18,
                "event": {
                    "deltaTime": 18,
                    "type": "channel",
                    "subtype": "noteOn",
                    "channel": 6,
                    "noteNumber": 60,
                    "velocity": 90,
                    "lightChannels": [
                        3
                    ]
                }
            }
        }
    },
    {
        "changes": {
            "bottom-right": 1
        },
        "timeout": 0.019067774999999995,
        "raw": {
            "bottom-right": {
                "pinValue": 1,
                "ticks": 0,
                "event": {
                    "deltaTime": 0,
                    "type": "channel",
                    "subtype": "noteOn",
                    "channel": 8,
                    "noteNumber": 57,
                    "velocity": 123,
                    "lightChannels": [
                        2
                    ]
                }
            }
        }
    },
    {
        "changes": {
            "window": 1,
            "outline": 1
        },
        "timeout": 0.013771170833333332,
        "raw": {
            "window": {
                "pinValue": 1,
                "ticks": 13,
                "event": {
                    "deltaTime": 13,
                    "type": "channel",
                    "subtype": "noteOn",
                    "channel": 9,
                    "noteNumber": 54,
                    "velocity": 79,
                    "lightChannels": [
                        6,
                        7
                    ]
                }
            },
            "outline": {
                "pinValue": 1,
                "ticks": 13,
                "event": {
                    "deltaTime": 13,
                    "type": "channel",
                    "subtype": "noteOn",
                    "channel": 9,
                    "noteNumber": 54,
                    "velocity": 79,
                    "lightChannels": [
                        6,
                        7
                    ]
                }
            }
        }
    },
    {
        "changes": {
            "window": 0,
            "outline": 0
        },
        "timeout": 0.06144060833333333,
        "raw": {
            "window": {
                "pinValue": 0,
                "ticks": 58,
                "event": {
                    "deltaTime": 58,
                    "type": "channel",
                    "subtype": "noteOff",
                    "channel": 9,
                    "noteNumber": 54,
                    "velocity": 0,
                    "lightChannels": [
                        6,
                        7
                    ]
                }
            },
            "outline": {
                "pinValue": 0,
                "ticks": 58,
                "event": {
                    "deltaTime": 58,
                    "type": "channel",
                    "subtype": "noteOff",
                    "channel": 9,
                    "noteNumber": 54,
                    "velocity": 0,
                    "lightChannels": [
                        6,
                        7
                    ]
                }
            }
        }
    },
    {
        "changes": {
            "window": 1,
            "outline": 1
        },
        "timeout": 0.19279639166666665,
        "raw": {
            "window": {
                "pinValue": 1,
                "ticks": 22,
                "event": {
                    "deltaTime": 22,
                    "type": "channel",
                    "subtype": "noteOn",
                    "channel": 9,
                    "noteNumber": 54,
                    "velocity": 79,
                    "lightChannels": [
                        6,
                        7
                    ]
                }
            },
            "outline": {
                "pinValue": 1,
                "ticks": 22,
                "event": {
                    "deltaTime": 22,
                    "type": "channel",
                    "subtype": "noteOn",
                    "channel": 9,
                    "noteNumber": 54,
                    "velocity": 79,
                    "lightChannels": [
                        6,
                        7
                    ]
                }
            }
        }
    },
    {
        "changes": {
            "window": 0,
            "outline": 0
        },
        "timeout": 0.05826264583333333,
        "raw": {
            "window": {
                "pinValue": 0,
                "ticks": 55,
                "event": {
                    "deltaTime": 55,
                    "type": "channel",
                    "subtype": "noteOff",
                    "channel": 9,
                    "noteNumber": 54,
                    "velocity": 0,
                    "lightChannels": [
                        6,
                        7
                    ]
                }
            },
            "outline": {
                "pinValue": 0,
                "ticks": 55,
                "event": {
                    "deltaTime": 55,
                    "type": "channel",
                    "subtype": "noteOff",
                    "channel": 9,
                    "noteNumber": 54,
                    "velocity": 0,
                    "lightChannels": [
                        6,
                        7
                    ]
                }
            }
        }
    },
    {
        "changes": {
            "col-1": 0
        },
        "timeout": 0.10911004583333332,
        "raw": {
            "col-1": {
                "pinValue": 0,
                "ticks": 92,
                "event": {
                    "deltaTime": 92,
                    "type": "channel",
                    "subtype": "noteOff",
                    "channel": 6,
                    "noteNumber": 60,
                    "velocity": 0,
                    "lightChannels": [
                        3
                    ]
                }
            }
        }
    },
    {
        "changes": {
            "bottom-right": 0
        },
        "timeout": 0.03283894583333333,
        "raw": {
            "bottom-right": {
                "pinValue": 0,
                "ticks": 31,
                "event": {
                    "deltaTime": 31,
                    "type": "channel",
                    "subtype": "noteOff",
                    "channel": 8,
                    "noteNumber": 57,
                    "velocity": 0,
                    "lightChannels": [
                        2
                    ]
                }
            }
        }
    },
    {
        "changes": {
            "col-2": 1
        },
        "timeout": 0.007415245833333332,
        "raw": {
            "col-2": {
                "pinValue": 1,
                "ticks": 7,
                "event": {
                    "deltaTime": 7,
                    "type": "channel",
                    "subtype": "noteOn",
                    "channel": 6,
                    "noteNumber": 58,
                    "velocity": 77,
                    "lightChannels": [
                        4
                    ]
                }
            }
        }
    },
    {
        "changes": {
            "window": 1,
            "outline": 1
        },
        "timeout": 0.04237283333333333,
        "raw": {
            "window": {
                "pinValue": 1,
                "ticks": 17,
                "event": {
                    "deltaTime": 17,
                    "type": "channel",
                    "subtype": "noteOn",
                    "channel": 9,
                    "noteNumber": 54,
                    "velocity": 83,
                    "lightChannels": [
                        6,
                        7
                    ]
                }
            },
            "outline": {
                "pinValue": 1,
                "ticks": 17,
                "event": {
                    "deltaTime": 17,
                    "type": "channel",
                    "subtype": "noteOn",
                    "channel": 9,
                    "noteNumber": 54,
                    "velocity": 83,
                    "lightChannels": [
                        6,
                        7
                    ]
                }
            }
        }
    },
    {
        "changes": {
            "garage": 1
        },
        "timeout": 0.004237283333333333,
        "raw": {
            "garage": {
                "pinValue": 1,
                "ticks": 4,
                "event": {
                    "deltaTime": 4,
                    "type": "channel",
                    "subtype": "noteOn",
                    "channel": 8,
                    "noteNumber": 55,
                    "velocity": 112,
                    "lightChannels": [
                        0
                    ]
                }
            }
        }
    },
    {
        "changes": {
            "window": 0,
            "outline": 0
        },
        "timeout": 0.05826264583333333,
        "raw": {
            "window": {
                "pinValue": 0,
                "ticks": 0,
                "event": {
                    "deltaTime": 0,
                    "type": "channel",
                    "subtype": "noteOff",
                    "channel": 9,
                    "noteNumber": 54,
                    "velocity": 0,
                    "lightChannels": [
                        6,
                        7
                    ]
                }
            },
            "outline": {
                "pinValue": 0,
                "ticks": 0,
                "event": {
                    "deltaTime": 0,
                    "type": "channel",
                    "subtype": "noteOff",
                    "channel": 9,
                    "noteNumber": 54,
                    "velocity": 0,
                    "lightChannels": [
                        6,
                        7
                    ]
                }
            }
        }
    },
    {
        "changes": {
            "window": 1,
            "outline": 1
        },
        "timeout": 0.17584725833333334,
        "raw": {
            "window": {
                "pinValue": 1,
                "ticks": 11,
                "event": {
                    "deltaTime": 11,
                    "type": "channel",
                    "subtype": "noteOn",
                    "channel": 9,
                    "noteNumber": 54,
                    "velocity": 83,
                    "lightChannels": [
                        6,
                        7
                    ]
                }
            },
            "outline": {
                "pinValue": 1,
                "ticks": 11,
                "event": {
                    "deltaTime": 11,
                    "type": "channel",
                    "subtype": "noteOn",
                    "channel": 9,
                    "noteNumber": 54,
                    "velocity": 83,
                    "lightChannels": [
                        6,
                        7
                    ]
                }
            }
        }
    },
    {
        "changes": {
            "window": 0,
            "outline": 0
        },
        "timeout": 0.06144060833333333,
        "raw": {
            "window": {
                "pinValue": 0,
                "ticks": 58,
                "event": {
                    "deltaTime": 58,
                    "type": "channel",
                    "subtype": "noteOff",
                    "channel": 9,
                    "noteNumber": 54,
                    "velocity": 0,
                    "lightChannels": [
                        6,
                        7
                    ]
                }
            },
            "outline": {
                "pinValue": 0,
                "ticks": 58,
                "event": {
                    "deltaTime": 58,
                    "type": "channel",
                    "subtype": "noteOff",
                    "channel": 9,
                    "noteNumber": 54,
                    "velocity": 0,
                    "lightChannels": [
                        6,
                        7
                    ]
                }
            }
        }
    },
    {
        "changes": {
            "col-2": 0
        },
        "timeout": 0.10699140416666666,
        "raw": {
            "col-2": {
                "pinValue": 0,
                "ticks": 33,
                "event": {
                    "deltaTime": 33,
                    "type": "channel",
                    "subtype": "noteOff",
                    "channel": 6,
                    "noteNumber": 58,
                    "velocity": 0,
                    "lightChannels": [
                        4
                    ]
                }
            }
        }
    },
    {
        "changes": {
            "garage": 0
        },
        "timeout": 0.03813555,
        "raw": {
            "garage": {
                "pinValue": 0,
                "ticks": 36,
                "event": {
                    "deltaTime": 36,
                    "type": "channel",
                    "subtype": "noteOff",
                    "channel": 8,
                    "noteNumber": 55,
                    "velocity": 0,
                    "lightChannels": [
                        0
                    ]
                }
            }
        }
    },
    {
        "changes": {
            "col-3": 1
        },
        "timeout": 0.031779625,
        "raw": {
            "col-3": {
                "pinValue": 1,
                "ticks": 3,
                "event": {
                    "deltaTime": 3,
                    "type": "channel",
                    "subtype": "noteOn",
                    "channel": 6,
                    "noteNumber": 55,
                    "velocity": 88,
                    "lightChannels": [
                        5
                    ]
                }
            }
        }
    },
    {
        "changes": {
            "top-right": 1
        },
        "timeout": 0.010593208333333333,
        "raw": {
            "top-right": {
                "pinValue": 1,
                "ticks": 10,
                "event": {
                    "deltaTime": 10,
                    "type": "channel",
                    "subtype": "noteOn",
                    "channel": 8,
                    "noteNumber": 58,
                    "velocity": 112,
                    "lightChannels": [
                        1
                    ]
                }
            }
        }
    },
    {
        "changes": {
            "window": 1,
            "outline": 1
        },
        "timeout": 0.0052966041666666665,
        "raw": {
            "window": {
                "pinValue": 1,
                "ticks": 5,
                "event": {
                    "deltaTime": 5,
                    "type": "channel",
                    "subtype": "noteOn",
                    "channel": 9,
                    "noteNumber": 54,
                    "velocity": 84,
                    "lightChannels": [
                        6,
                        7
                    ]
                }
            },
            "outline": {
                "pinValue": 1,
                "ticks": 5,
                "event": {
                    "deltaTime": 5,
                    "type": "channel",
                    "subtype": "noteOn",
                    "channel": 9,
                    "noteNumber": 54,
                    "velocity": 84,
                    "lightChannels": [
                        6,
                        7
                    ]
                }
            }
        }
    },
    {
        "changes": {
            "window": 0,
            "outline": 0
        },
        "timeout": 0.059321966666666656,
        "raw": {
            "window": {
                "pinValue": 0,
                "ticks": 47,
                "event": {
                    "deltaTime": 47,
                    "type": "channel",
                    "subtype": "noteOff",
                    "channel": 9,
                    "noteNumber": 54,
                    "velocity": 0,
                    "lightChannels": [
                        6,
                        7
                    ]
                }
            },
            "outline": {
                "pinValue": 0,
                "ticks": 47,
                "event": {
                    "deltaTime": 47,
                    "type": "channel",
                    "subtype": "noteOff",
                    "channel": 9,
                    "noteNumber": 54,
                    "velocity": 0,
                    "lightChannels": [
                        6,
                        7
                    ]
                }
            }
        }
    },
    {
        "changes": {
            "window": 1,
            "outline": 1
        },
        "timeout": 0.19809299583333329,
        "raw": {
            "window": {
                "pinValue": 1,
                "ticks": 1,
                "event": {
                    "deltaTime": 1,
                    "type": "channel",
                    "subtype": "noteOn",
                    "channel": 9,
                    "noteNumber": 54,
                    "velocity": 75,
                    "lightChannels": [
                        6,
                        7
                    ]
                }
            },
            "outline": {
                "pinValue": 1,
                "ticks": 1,
                "event": {
                    "deltaTime": 1,
                    "type": "channel",
                    "subtype": "noteOn",
                    "channel": 9,
                    "noteNumber": 54,
                    "velocity": 75,
                    "lightChannels": [
                        6,
                        7
                    ]
                }
            }
        }
    },
    {
        "changes": {
            "window": 0,
            "outline": 0
        },
        "timeout": 0.05720332499999999,
        "raw": {
            "window": {
                "pinValue": 0,
                "ticks": 54,
                "event": {
                    "deltaTime": 54,
                    "type": "channel",
                    "subtype": "noteOff",
                    "channel": 9,
                    "noteNumber": 54,
                    "velocity": 0,
                    "lightChannels": [
                        6,
                        7
                    ]
                }
            },
            "outline": {
                "pinValue": 0,
                "ticks": 54,
                "event": {
                    "deltaTime": 54,
                    "type": "channel",
                    "subtype": "noteOff",
                    "channel": 9,
                    "noteNumber": 54,
                    "velocity": 0,
                    "lightChannels": [
                        6,
                        7
                    ]
                }
            }
        }
    },
    {
        "changes": {
            "col-3": 0
        },
        "timeout": 0.1377117083333333,
        "raw": {
            "col-3": {
                "pinValue": 0,
                "ticks": 62,
                "event": {
                    "deltaTime": 62,
                    "type": "channel",
                    "subtype": "noteOff",
                    "channel": 6,
                    "noteNumber": 55,
                    "velocity": 0,
                    "lightChannels": [
                        5
                    ]
                }
            }
        }
    },
    {
        "changes": {
            "top-right": 0
        },
        "timeout": 0.012711849999999998,
        "raw": {
            "top-right": {
                "pinValue": 0,
                "ticks": 12,
                "event": {
                    "deltaTime": 12,
                    "type": "channel",
                    "subtype": "noteOff",
                    "channel": 8,
                    "noteNumber": 58,
                    "velocity": 0,
                    "lightChannels": [
                        1
                    ]
                }
            }
        }
    },
    {
        "changes": {
            "garden": 1,
            "bottom-right": 1
        },
        "timeout": 0.039194870833333326,
        "raw": {
            "garden": {
                "pinValue": 1,
                "ticks": 1,
                "event": {
                    "deltaTime": 1,
                    "type": "channel",
                    "subtype": "noteOn",
                    "channel": 6,
                    "noteNumber": 57,
                    "velocity": 91,
                    "lightChannels": [
                        8
                    ]
                }
            },
            "bottom-right": {
                "pinValue": 1,
                "ticks": 0,
                "event": {
                    "deltaTime": 0,
                    "type": "channel",
                    "subtype": "noteOn",
                    "channel": 8,
                    "noteNumber": 57,
                    "velocity": 107,
                    "lightChannels": [
                        2
                    ]
                }
            }
        }
    },
    {
        "changes": {
            "window": 1,
            "outline": 1
        },
        "timeout": 0.0095338875,
        "raw": {
            "window": {
                "pinValue": 1,
                "ticks": 0,
                "event": {
                    "deltaTime": 0,
                    "type": "channel",
                    "subtype": "noteOn",
                    "channel": 9,
                    "noteNumber": 54,
                    "velocity": 81,
                    "lightChannels": [
                        6,
                        7
                    ]
                }
            },
            "outline": {
                "pinValue": 1,
                "ticks": 0,
                "event": {
                    "deltaTime": 0,
                    "type": "channel",
                    "subtype": "noteOn",
                    "channel": 9,
                    "noteNumber": 54,
                    "velocity": 81,
                    "lightChannels": [
                        6,
                        7
                    ]
                }
            }
        }
    },
    {
        "changes": {
            "window": 0,
            "outline": 0
        },
        "timeout": 0.06567789166666665,
        "raw": {
            "window": {
                "pinValue": 0,
                "ticks": 62,
                "event": {
                    "deltaTime": 62,
                    "type": "channel",
                    "subtype": "noteOff",
                    "channel": 9,
                    "noteNumber": 54,
                    "velocity": 0,
                    "lightChannels": [
                        6,
                        7
                    ]
                }
            },
            "outline": {
                "pinValue": 0,
                "ticks": 62,
                "event": {
                    "deltaTime": 62,
                    "type": "channel",
                    "subtype": "noteOff",
                    "channel": 9,
                    "noteNumber": 54,
                    "velocity": 0,
                    "lightChannels": [
                        6,
                        7
                    ]
                }
            }
        }
    },
    {
        "changes": {
            "window": 1,
            "outline": 1
        },
        "timeout": 0.17690657916666663,
        "raw": {
            "window": {
                "pinValue": 1,
                "ticks": 15,
                "event": {
                    "deltaTime": 15,
                    "type": "channel",
                    "subtype": "noteOn",
                    "channel": 9,
                    "noteNumber": 54,
                    "velocity": 87,
                    "lightChannels": [
                        6,
                        7
                    ]
                }
            },
            "outline": {
                "pinValue": 1,
                "ticks": 15,
                "event": {
                    "deltaTime": 15,
                    "type": "channel",
                    "subtype": "noteOn",
                    "channel": 9,
                    "noteNumber": 54,
                    "velocity": 87,
                    "lightChannels": [
                        6,
                        7
                    ]
                }
            }
        }
    },
    {
        "changes": {
            "window": 0,
            "outline": 0
        },
        "timeout": 0.06355925,
        "raw": {
            "window": {
                "pinValue": 0,
                "ticks": 48,
                "event": {
                    "deltaTime": 48,
                    "type": "channel",
                    "subtype": "noteOff",
                    "channel": 9,
                    "noteNumber": 54,
                    "velocity": 0,
                    "lightChannels": [
                        6,
                        7
                    ]
                }
            },
            "outline": {
                "pinValue": 0,
                "ticks": 48,
                "event": {
                    "deltaTime": 48,
                    "type": "channel",
                    "subtype": "noteOff",
                    "channel": 9,
                    "noteNumber": 54,
                    "velocity": 0,
                    "lightChannels": [
                        6,
                        7
                    ]
                }
            }
        }
    },
    {
        "changes": {
            "garden": 0
        },
        "timeout": 0.11334732916666665,
        "raw": {
            "garden": {
                "pinValue": 0,
                "ticks": 36,
                "event": {
                    "deltaTime": 36,
                    "type": "channel",
                    "subtype": "noteOff",
                    "channel": 6,
                    "noteNumber": 57,
                    "velocity": 0,
                    "lightChannels": [
                        8
                    ]
                }
            }
        }
    },
    {
        "changes": {
            "bottom-right": 0
        },
        "timeout": 0.012711849999999998,
        "raw": {
            "bottom-right": {
                "pinValue": 0,
                "ticks": 12,
                "event": {
                    "deltaTime": 12,
                    "type": "channel",
                    "subtype": "noteOff",
                    "channel": 8,
                    "noteNumber": 57,
                    "velocity": 0,
                    "lightChannels": [
                        2
                    ]
                }
            }
        }
    },
    {
        "changes": {
            "garage": 1,
            "top-right": 1,
            "bottom-right": 1,
            "col-1": 1,
            "col-2": 1,
            "col-3": 1,
            "window": 1,
            "outline": 1,
            "garden": 1,
            "tree": 1
        },
        "timeout": 0.06991517500000001,
        "raw": {
            "garage": {
                "pinValue": 1,
                "ticks": 3,
                "event": {
                    "deltaTime": 3,
                    "type": "channel",
                    "subtype": "noteOn",
                    "channel": 4,
                    "noteNumber": 70,
                    "velocity": 124,
                    "lightChannels": [
                        0,
                        1,
                        2,
                        3,
                        4,
                        5,
                        6,
                        7,
                        8,
                        9
                    ]
                }
            },
            "top-right": {
                "pinValue": 1,
                "ticks": 3,
                "event": {
                    "deltaTime": 3,
                    "type": "channel",
                    "subtype": "noteOn",
                    "channel": 4,
                    "noteNumber": 70,
                    "velocity": 124,
                    "lightChannels": [
                        0,
                        1,
                        2,
                        3,
                        4,
                        5,
                        6,
                        7,
                        8,
                        9
                    ]
                }
            },
            "bottom-right": {
                "pinValue": 1,
                "ticks": 3,
                "event": {
                    "deltaTime": 3,
                    "type": "channel",
                    "subtype": "noteOn",
                    "channel": 4,
                    "noteNumber": 70,
                    "velocity": 124,
                    "lightChannels": [
                        0,
                        1,
                        2,
                        3,
                        4,
                        5,
                        6,
                        7,
                        8,
                        9
                    ]
                }
            },
            "col-1": {
                "pinValue": 1,
                "ticks": 3,
                "event": {
                    "deltaTime": 3,
                    "type": "channel",
                    "subtype": "noteOn",
                    "channel": 4,
                    "noteNumber": 70,
                    "velocity": 124,
                    "lightChannels": [
                        0,
                        1,
                        2,
                        3,
                        4,
                        5,
                        6,
                        7,
                        8,
                        9
                    ]
                }
            },
            "col-2": {
                "pinValue": 1,
                "ticks": 3,
                "event": {
                    "deltaTime": 3,
                    "type": "channel",
                    "subtype": "noteOn",
                    "channel": 4,
                    "noteNumber": 70,
                    "velocity": 124,
                    "lightChannels": [
                        0,
                        1,
                        2,
                        3,
                        4,
                        5,
                        6,
                        7,
                        8,
                        9
                    ]
                }
            },
            "col-3": {
                "pinValue": 1,
                "ticks": 3,
                "event": {
                    "deltaTime": 3,
                    "type": "channel",
                    "subtype": "noteOn",
                    "channel": 4,
                    "noteNumber": 70,
                    "velocity": 124,
                    "lightChannels": [
                        0,
                        1,
                        2,
                        3,
                        4,
                        5,
                        6,
                        7,
                        8,
                        9
                    ]
                }
            },
            "window": {
                "pinValue": 1,
                "ticks": 3,
                "event": {
                    "deltaTime": 3,
                    "type": "channel",
                    "subtype": "noteOn",
                    "channel": 4,
                    "noteNumber": 70,
                    "velocity": 124,
                    "lightChannels": [
                        0,
                        1,
                        2,
                        3,
                        4,
                        5,
                        6,
                        7,
                        8,
                        9
                    ]
                }
            },
            "outline": {
                "pinValue": 1,
                "ticks": 3,
                "event": {
                    "deltaTime": 3,
                    "type": "channel",
                    "subtype": "noteOn",
                    "channel": 4,
                    "noteNumber": 70,
                    "velocity": 124,
                    "lightChannels": [
                        0,
                        1,
                        2,
                        3,
                        4,
                        5,
                        6,
                        7,
                        8,
                        9
                    ]
                }
            },
            "garden": {
                "pinValue": 1,
                "ticks": 3,
                "event": {
                    "deltaTime": 3,
                    "type": "channel",
                    "subtype": "noteOn",
                    "channel": 4,
                    "noteNumber": 70,
                    "velocity": 124,
                    "lightChannels": [
                        0,
                        1,
                        2,
                        3,
                        4,
                        5,
                        6,
                        7,
                        8,
                        9
                    ]
                }
            },
            "tree": {
                "pinValue": 1,
                "ticks": 3,
                "event": {
                    "deltaTime": 3,
                    "type": "channel",
                    "subtype": "noteOn",
                    "channel": 4,
                    "noteNumber": 70,
                    "velocity": 124,
                    "lightChannels": [
                        0,
                        1,
                        2,
                        3,
                        4,
                        5,
                        6,
                        7,
                        8,
                        9
                    ]
                }
            }
        }
    },
    {
        "changes": {
            "window": 1,
            "outline": 1
        },
        "timeout": 0.008474566666666666,
        "raw": {
            "window": {
                "pinValue": 1,
                "ticks": 2,
                "event": {
                    "deltaTime": 2,
                    "type": "channel",
                    "subtype": "noteOn",
                    "channel": 9,
                    "noteNumber": 54,
                    "velocity": 98,
                    "lightChannels": [
                        6,
                        7
                    ]
                }
            },
            "outline": {
                "pinValue": 1,
                "ticks": 2,
                "event": {
                    "deltaTime": 2,
                    "type": "channel",
                    "subtype": "noteOn",
                    "channel": 9,
                    "noteNumber": 54,
                    "velocity": 98,
                    "lightChannels": [
                        6,
                        7
                    ]
                }
            }
        }
    },
    {
        "changes": {
            "window": 0,
            "outline": 0
        },
        "timeout": 0.07733042083333332,
        "raw": {
            "window": {
                "pinValue": 0,
                "ticks": 5,
                "event": {
                    "deltaTime": 5,
                    "type": "channel",
                    "subtype": "noteOff",
                    "channel": 9,
                    "noteNumber": 54,
                    "velocity": 0,
                    "lightChannels": [
                        6,
                        7
                    ]
                }
            },
            "outline": {
                "pinValue": 0,
                "ticks": 5,
                "event": {
                    "deltaTime": 5,
                    "type": "channel",
                    "subtype": "noteOff",
                    "channel": 9,
                    "noteNumber": 54,
                    "velocity": 0,
                    "lightChannels": [
                        6,
                        7
                    ]
                }
            }
        }
    },
    {
        "changes": {
            "window": 1,
            "outline": 1
        },
        "timeout": 0.6917365041666665,
        "raw": {
            "window": {
                "pinValue": 1,
                "ticks": 16,
                "event": {
                    "deltaTime": 16,
                    "type": "channel",
                    "subtype": "noteOn",
                    "channel": 9,
                    "noteNumber": 54,
                    "velocity": 83,
                    "lightChannels": [
                        6,
                        7
                    ]
                }
            },
            "outline": {
                "pinValue": 1,
                "ticks": 16,
                "event": {
                    "deltaTime": 16,
                    "type": "channel",
                    "subtype": "noteOn",
                    "channel": 9,
                    "noteNumber": 54,
                    "velocity": 83,
                    "lightChannels": [
                        6,
                        7
                    ]
                }
            }
        }
    },
    {
        "changes": {
            "window": 0,
            "outline": 0
        },
        "timeout": 0.062499929166666655,
        "raw": {
            "window": {
                "pinValue": 0,
                "ticks": 6,
                "event": {
                    "deltaTime": 6,
                    "type": "channel",
                    "subtype": "noteOff",
                    "channel": 9,
                    "noteNumber": 54,
                    "velocity": 0,
                    "lightChannels": [
                        6,
                        7
                    ]
                }
            },
            "outline": {
                "pinValue": 0,
                "ticks": 6,
                "event": {
                    "deltaTime": 6,
                    "type": "channel",
                    "subtype": "noteOff",
                    "channel": 9,
                    "noteNumber": 54,
                    "velocity": 0,
                    "lightChannels": [
                        6,
                        7
                    ]
                }
            }
        }
    },
    {
        "changes": {
            "window": 1,
            "outline": 1
        },
        "timeout": 0.18961842916666669,
        "raw": {
            "window": {
                "pinValue": 1,
                "ticks": 10,
                "event": {
                    "deltaTime": 10,
                    "type": "channel",
                    "subtype": "noteOn",
                    "channel": 9,
                    "noteNumber": 54,
                    "velocity": 93,
                    "lightChannels": [
                        6,
                        7
                    ]
                }
            },
            "outline": {
                "pinValue": 1,
                "ticks": 10,
                "event": {
                    "deltaTime": 10,
                    "type": "channel",
                    "subtype": "noteOn",
                    "channel": 9,
                    "noteNumber": 54,
                    "velocity": 93,
                    "lightChannels": [
                        6,
                        7
                    ]
                }
            }
        }
    },
    {
        "changes": {
            "window": 0,
            "outline": 0
        },
        "timeout": 0.06567789166666667,
        "raw": {
            "window": {
                "pinValue": 0,
                "ticks": 9,
                "event": {
                    "deltaTime": 9,
                    "type": "channel",
                    "subtype": "noteOff",
                    "channel": 9,
                    "noteNumber": 54,
                    "velocity": 0,
                    "lightChannels": [
                        6,
                        7
                    ]
                }
            },
            "outline": {
                "pinValue": 0,
                "ticks": 9,
                "event": {
                    "deltaTime": 9,
                    "type": "channel",
                    "subtype": "noteOff",
                    "channel": 9,
                    "noteNumber": 54,
                    "velocity": 0,
                    "lightChannels": [
                        6,
                        7
                    ]
                }
            }
        }
    },
    {
        "changes": {
            "garage": 0,
            "top-right": 0,
            "bottom-right": 0,
            "col-1": 0,
            "col-2": 0,
            "col-3": 0,
            "window": 0,
            "outline": 0,
            "garden": 0,
            "tree": 0
        },
        "timeout": 0.23940650833333332,
        "raw": {
            "garage": {
                "pinValue": 0,
                "ticks": 43,
                "event": {
                    "deltaTime": 43,
                    "type": "channel",
                    "subtype": "noteOff",
                    "channel": 4,
                    "noteNumber": 70,
                    "velocity": 0,
                    "lightChannels": [
                        0,
                        1,
                        2,
                        3,
                        4,
                        5,
                        6,
                        7,
                        8,
                        9
                    ]
                }
            },
            "top-right": {
                "pinValue": 0,
                "ticks": 43,
                "event": {
                    "deltaTime": 43,
                    "type": "channel",
                    "subtype": "noteOff",
                    "channel": 4,
                    "noteNumber": 70,
                    "velocity": 0,
                    "lightChannels": [
                        0,
                        1,
                        2,
                        3,
                        4,
                        5,
                        6,
                        7,
                        8,
                        9
                    ]
                }
            },
            "bottom-right": {
                "pinValue": 0,
                "ticks": 43,
                "event": {
                    "deltaTime": 43,
                    "type": "channel",
                    "subtype": "noteOff",
                    "channel": 4,
                    "noteNumber": 70,
                    "velocity": 0,
                    "lightChannels": [
                        0,
                        1,
                        2,
                        3,
                        4,
                        5,
                        6,
                        7,
                        8,
                        9
                    ]
                }
            },
            "col-1": {
                "pinValue": 0,
                "ticks": 43,
                "event": {
                    "deltaTime": 43,
                    "type": "channel",
                    "subtype": "noteOff",
                    "channel": 4,
                    "noteNumber": 70,
                    "velocity": 0,
                    "lightChannels": [
                        0,
                        1,
                        2,
                        3,
                        4,
                        5,
                        6,
                        7,
                        8,
                        9
                    ]
                }
            },
            "col-2": {
                "pinValue": 0,
                "ticks": 43,
                "event": {
                    "deltaTime": 43,
                    "type": "channel",
                    "subtype": "noteOff",
                    "channel": 4,
                    "noteNumber": 70,
                    "velocity": 0,
                    "lightChannels": [
                        0,
                        1,
                        2,
                        3,
                        4,
                        5,
                        6,
                        7,
                        8,
                        9
                    ]
                }
            },
            "col-3": {
                "pinValue": 0,
                "ticks": 43,
                "event": {
                    "deltaTime": 43,
                    "type": "channel",
                    "subtype": "noteOff",
                    "channel": 4,
                    "noteNumber": 70,
                    "velocity": 0,
                    "lightChannels": [
                        0,
                        1,
                        2,
                        3,
                        4,
                        5,
                        6,
                        7,
                        8,
                        9
                    ]
                }
            },
            "window": {
                "pinValue": 0,
                "ticks": 43,
                "event": {
                    "deltaTime": 43,
                    "type": "channel",
                    "subtype": "noteOff",
                    "channel": 4,
                    "noteNumber": 70,
                    "velocity": 0,
                    "lightChannels": [
                        0,
                        1,
                        2,
                        3,
                        4,
                        5,
                        6,
                        7,
                        8,
                        9
                    ]
                }
            },
            "outline": {
                "pinValue": 0,
                "ticks": 43,
                "event": {
                    "deltaTime": 43,
                    "type": "channel",
                    "subtype": "noteOff",
                    "channel": 4,
                    "noteNumber": 70,
                    "velocity": 0,
                    "lightChannels": [
                        0,
                        1,
                        2,
                        3,
                        4,
                        5,
                        6,
                        7,
                        8,
                        9
                    ]
                }
            },
            "garden": {
                "pinValue": 0,
                "ticks": 43,
                "event": {
                    "deltaTime": 43,
                    "type": "channel",
                    "subtype": "noteOff",
                    "channel": 4,
                    "noteNumber": 70,
                    "velocity": 0,
                    "lightChannels": [
                        0,
                        1,
                        2,
                        3,
                        4,
                        5,
                        6,
                        7,
                        8,
                        9
                    ]
                }
            },
            "tree": {
                "pinValue": 0,
                "ticks": 43,
                "event": {
                    "deltaTime": 43,
                    "type": "channel",
                    "subtype": "noteOff",
                    "channel": 4,
                    "noteNumber": 70,
                    "velocity": 0,
                    "lightChannels": [
                        0,
                        1,
                        2,
                        3,
                        4,
                        5,
                        6,
                        7,
                        8,
                        9
                    ]
                }
            }
        }
    },
    {
        "changes": {
            "window": 1,
            "outline": 1
        },
        "timeout": 0.21610144999999997,
        "raw": {
            "window": {
                "pinValue": 1,
                "ticks": 16,
                "event": {
                    "deltaTime": 16,
                    "type": "channel",
                    "subtype": "noteOn",
                    "channel": 9,
                    "noteNumber": 54,
                    "velocity": 80,
                    "lightChannels": [
                        6,
                        7
                    ]
                }
            },
            "outline": {
                "pinValue": 1,
                "ticks": 16,
                "event": {
                    "deltaTime": 16,
                    "type": "channel",
                    "subtype": "noteOn",
                    "channel": 9,
                    "noteNumber": 54,
                    "velocity": 80,
                    "lightChannels": [
                        6,
                        7
                    ]
                }
            }
        }
    },
    {
        "changes": {
            "window": 0,
            "outline": 0
        },
        "timeout": 0.05720332499999999,
        "raw": {
            "window": {
                "pinValue": 0,
                "ticks": 54,
                "event": {
                    "deltaTime": 54,
                    "type": "channel",
                    "subtype": "noteOff",
                    "channel": 9,
                    "noteNumber": 54,
                    "velocity": 0,
                    "lightChannels": [
                        6,
                        7
                    ]
                }
            },
            "outline": {
                "pinValue": 0,
                "ticks": 54,
                "event": {
                    "deltaTime": 54,
                    "type": "channel",
                    "subtype": "noteOff",
                    "channel": 9,
                    "noteNumber": 54,
                    "velocity": 0,
                    "lightChannels": [
                        6,
                        7
                    ]
                }
            }
        }
    },
    {
        "changes": {
            "window": 1,
            "outline": 1
        },
        "timeout": 0.18538114583333332,
        "raw": {
            "window": {
                "pinValue": 1,
                "ticks": 4,
                "event": {
                    "deltaTime": 4,
                    "type": "channel",
                    "subtype": "noteOn",
                    "channel": 9,
                    "noteNumber": 54,
                    "velocity": 84,
                    "lightChannels": [
                        6,
                        7
                    ]
                }
            },
            "outline": {
                "pinValue": 1,
                "ticks": 4,
                "event": {
                    "deltaTime": 4,
                    "type": "channel",
                    "subtype": "noteOn",
                    "channel": 9,
                    "noteNumber": 54,
                    "velocity": 84,
                    "lightChannels": [
                        6,
                        7
                    ]
                }
            }
        }
    },
    {
        "changes": {
            "col-1": 1
        },
        "timeout": 0.03283894583333333,
        "raw": {
            "col-1": {
                "pinValue": 1,
                "ticks": 1,
                "event": {
                    "deltaTime": 1,
                    "type": "channel",
                    "subtype": "noteOn",
                    "channel": 3,
                    "noteNumber": 79,
                    "velocity": 113,
                    "lightChannels": [
                        3
                    ]
                }
            }
        }
    },
    {
        "changes": {
            "window": 0,
            "outline": 0
        },
        "timeout": 0.019067775,
        "raw": {
            "window": {
                "pinValue": 0,
                "ticks": 10,
                "event": {
                    "deltaTime": 10,
                    "type": "channel",
                    "subtype": "noteOff",
                    "channel": 9,
                    "noteNumber": 54,
                    "velocity": 0,
                    "lightChannels": [
                        6,
                        7
                    ]
                }
            },
            "outline": {
                "pinValue": 0,
                "ticks": 10,
                "event": {
                    "deltaTime": 10,
                    "type": "channel",
                    "subtype": "noteOff",
                    "channel": 9,
                    "noteNumber": 54,
                    "velocity": 0,
                    "lightChannels": [
                        6,
                        7
                    ]
                }
            }
        }
    },
    {
        "changes": {
            "col-1": 0
        },
        "timeout": 0.041313512499999996,
        "raw": {
            "col-1": {
                "pinValue": 0,
                "ticks": 1,
                "event": {
                    "deltaTime": 1,
                    "type": "channel",
                    "subtype": "noteOff",
                    "channel": 3,
                    "noteNumber": 79,
                    "velocity": 0,
                    "lightChannels": [
                        3
                    ]
                }
            }
        }
    },
    {
        "changes": {
            "col-2": 1
        },
        "timeout": 0.011652529166666665,
        "raw": {
            "col-2": {
                "pinValue": 1,
                "ticks": 8,
                "event": {
                    "deltaTime": 8,
                    "type": "channel",
                    "subtype": "noteOn",
                    "channel": 3,
                    "noteNumber": 78,
                    "velocity": 99,
                    "lightChannels": [
                        4
                    ]
                }
            }
        }
    },
    {
        "changes": {
            "col-2": 0
        },
        "timeout": 0.06249992916666666,
        "raw": {
            "col-2": {
                "pinValue": 0,
                "ticks": 5,
                "event": {
                    "deltaTime": 5,
                    "type": "channel",
                    "subtype": "noteOff",
                    "channel": 3,
                    "noteNumber": 78,
                    "velocity": 0,
                    "lightChannels": [
                        4
                    ]
                }
            }
        }
    },
    {
        "changes": {
            "col-3": 1
        },
        "timeout": 0.008474566666666666,
        "raw": {
            "col-3": {
                "pinValue": 1,
                "ticks": 1,
                "event": {
                    "deltaTime": 1,
                    "type": "channel",
                    "subtype": "noteOn",
                    "channel": 3,
                    "noteNumber": 79,
                    "velocity": 109,
                    "lightChannels": [
                        5
                    ]
                }
            }
        }
    },
    {
        "changes": {
            "garage": 1,
            "top-right": 1,
            "bottom-right": 1
        },
        "timeout": 0.05190672083333333,
        "raw": {
            "garage": {
                "pinValue": 1,
                "ticks": 0,
                "event": {
                    "deltaTime": 0,
                    "type": "channel",
                    "subtype": "noteOn",
                    "channel": 8,
                    "noteNumber": 55,
                    "velocity": 125,
                    "lightChannels": [
                        0,
                        1,
                        2
                    ]
                }
            },
            "top-right": {
                "pinValue": 1,
                "ticks": 0,
                "event": {
                    "deltaTime": 0,
                    "type": "channel",
                    "subtype": "noteOn",
                    "channel": 8,
                    "noteNumber": 55,
                    "velocity": 125,
                    "lightChannels": [
                        0,
                        1,
                        2
                    ]
                }
            },
            "bottom-right": {
                "pinValue": 1,
                "ticks": 0,
                "event": {
                    "deltaTime": 0,
                    "type": "channel",
                    "subtype": "noteOn",
                    "channel": 8,
                    "noteNumber": 55,
                    "velocity": 125,
                    "lightChannels": [
                        0,
                        1,
                        2
                    ]
                }
            }
        }
    },
    {
        "changes": {
            "col-3": 0
        },
        "timeout": 0.0052966041666666665,
        "raw": {
            "col-3": {
                "pinValue": 0,
                "ticks": 5,
                "event": {
                    "deltaTime": 5,
                    "type": "channel",
                    "subtype": "noteOff",
                    "channel": 3,
                    "noteNumber": 79,
                    "velocity": 0,
                    "lightChannels": [
                        5
                    ]
                }
            }
        }
    },
    {
        "changes": {
            "col-1": 1,
            "col-2": 1,
            "col-3": 1
        },
        "timeout": 0.011652529166666667,
        "raw": {
            "col-1": {
                "pinValue": 1,
                "ticks": 1,
                "event": {
                    "deltaTime": 1,
                    "type": "channel",
                    "subtype": "noteOn",
                    "channel": 3,
                    "noteNumber": 83,
                    "velocity": 122,
                    "lightChannels": [
                        3,
                        4,
                        5
                    ]
                }
            },
            "col-2": {
                "pinValue": 1,
                "ticks": 1,
                "event": {
                    "deltaTime": 1,
                    "type": "channel",
                    "subtype": "noteOn",
                    "channel": 3,
                    "noteNumber": 83,
                    "velocity": 122,
                    "lightChannels": [
                        3,
                        4,
                        5
                    ]
                }
            },
            "col-3": {
                "pinValue": 1,
                "ticks": 1,
                "event": {
                    "deltaTime": 1,
                    "type": "channel",
                    "subtype": "noteOn",
                    "channel": 3,
                    "noteNumber": 83,
                    "velocity": 122,
                    "lightChannels": [
                        3,
                        4,
                        5
                    ]
                }
            }
        }
    },
    {
        "changes": {
            "window": 1,
            "outline": 1
        },
        "timeout": 0.0052966041666666665,
        "raw": {
            "window": {
                "pinValue": 1,
                "ticks": 3,
                "event": {
                    "deltaTime": 3,
                    "type": "channel",
                    "subtype": "noteOn",
                    "channel": 9,
                    "noteNumber": 54,
                    "velocity": 77,
                    "lightChannels": [
                        6,
                        7
                    ]
                }
            },
            "outline": {
                "pinValue": 1,
                "ticks": 3,
                "event": {
                    "deltaTime": 3,
                    "type": "channel",
                    "subtype": "noteOn",
                    "channel": 9,
                    "noteNumber": 54,
                    "velocity": 77,
                    "lightChannels": [
                        6,
                        7
                    ]
                }
            }
        }
    },
    {
        "changes": {
            "window": 0,
            "outline": 0
        },
        "timeout": 0.05508468333333333,
        "raw": {
            "window": {
                "pinValue": 0,
                "ticks": 18,
                "event": {
                    "deltaTime": 18,
                    "type": "channel",
                    "subtype": "noteOff",
                    "channel": 9,
                    "noteNumber": 54,
                    "velocity": 0,
                    "lightChannels": [
                        6,
                        7
                    ]
                }
            },
            "outline": {
                "pinValue": 0,
                "ticks": 18,
                "event": {
                    "deltaTime": 18,
                    "type": "channel",
                    "subtype": "noteOff",
                    "channel": 9,
                    "noteNumber": 54,
                    "velocity": 0,
                    "lightChannels": [
                        6,
                        7
                    ]
                }
            }
        }
    },
    {
        "changes": {
            "col-1": 0,
            "col-2": 0,
            "col-3": 0
        },
        "timeout": 0.025423699999999994,
        "raw": {
            "col-1": {
                "pinValue": 0,
                "ticks": 1,
                "event": {
                    "deltaTime": 1,
                    "type": "channel",
                    "subtype": "noteOff",
                    "channel": 3,
                    "noteNumber": 83,
                    "velocity": 0,
                    "lightChannels": [
                        3,
                        4,
                        5
                    ]
                }
            },
            "col-2": {
                "pinValue": 0,
                "ticks": 1,
                "event": {
                    "deltaTime": 1,
                    "type": "channel",
                    "subtype": "noteOff",
                    "channel": 3,
                    "noteNumber": 83,
                    "velocity": 0,
                    "lightChannels": [
                        3,
                        4,
                        5
                    ]
                }
            },
            "col-3": {
                "pinValue": 0,
                "ticks": 1,
                "event": {
                    "deltaTime": 1,
                    "type": "channel",
                    "subtype": "noteOff",
                    "channel": 3,
                    "noteNumber": 83,
                    "velocity": 0,
                    "lightChannels": [
                        3,
                        4,
                        5
                    ]
                }
            }
        }
    },
    {
        "changes": {
            "window": 1,
            "outline": 1
        },
        "timeout": 0.1684320125,
        "raw": {
            "window": {
                "pinValue": 1,
                "ticks": 6,
                "event": {
                    "deltaTime": 6,
                    "type": "channel",
                    "subtype": "noteOn",
                    "channel": 9,
                    "noteNumber": 54,
                    "velocity": 68,
                    "lightChannels": [
                        6,
                        7
                    ]
                }
            },
            "outline": {
                "pinValue": 1,
                "ticks": 6,
                "event": {
                    "deltaTime": 6,
                    "type": "channel",
                    "subtype": "noteOn",
                    "channel": 9,
                    "noteNumber": 54,
                    "velocity": 68,
                    "lightChannels": [
                        6,
                        7
                    ]
                }
            }
        }
    },
    {
        "changes": {
            "col-1": 1
        },
        "timeout": 0.006355924999999999,
        "raw": {
            "col-1": {
                "pinValue": 1,
                "ticks": 3,
                "event": {
                    "deltaTime": 3,
                    "type": "channel",
                    "subtype": "noteOn",
                    "channel": 3,
                    "noteNumber": 79,
                    "velocity": 116,
                    "lightChannels": [
                        3
                    ]
                }
            }
        }
    },
    {
        "changes": {
            "window": 0,
            "outline": 0
        },
        "timeout": 0.03813555,
        "raw": {
            "window": {
                "pinValue": 0,
                "ticks": 20,
                "event": {
                    "deltaTime": 20,
                    "type": "channel",
                    "subtype": "noteOff",
                    "channel": 9,
                    "noteNumber": 54,
                    "velocity": 0,
                    "lightChannels": [
                        6,
                        7
                    ]
                }
            },
            "outline": {
                "pinValue": 0,
                "ticks": 20,
                "event": {
                    "deltaTime": 20,
                    "type": "channel",
                    "subtype": "noteOff",
                    "channel": 9,
                    "noteNumber": 54,
                    "velocity": 0,
                    "lightChannels": [
                        6,
                        7
                    ]
                }
            }
        }
    },
    {
        "changes": {
            "col-1": 0
        },
        "timeout": 0.029660983333333335,
        "raw": {
            "col-1": {
                "pinValue": 0,
                "ticks": 4,
                "event": {
                    "deltaTime": 4,
                    "type": "channel",
                    "subtype": "noteOff",
                    "channel": 3,
                    "noteNumber": 79,
                    "velocity": 0,
                    "lightChannels": [
                        3
                    ]
                }
            }
        }
    },
    {
        "changes": {
            "col-2": 1
        },
        "timeout": 0.01271185,
        "raw": {
            "col-2": {
                "pinValue": 1,
                "ticks": 5,
                "event": {
                    "deltaTime": 5,
                    "type": "channel",
                    "subtype": "noteOn",
                    "channel": 3,
                    "noteNumber": 78,
                    "velocity": 98,
                    "lightChannels": [
                        4
                    ]
                }
            }
        }
    },
    {
        "changes": {
            "col-2": 0
        },
        "timeout": 0.06249992916666666,
        "raw": {
            "col-2": {
                "pinValue": 0,
                "ticks": 1,
                "event": {
                    "deltaTime": 1,
                    "type": "channel",
                    "subtype": "noteOff",
                    "channel": 3,
                    "noteNumber": 78,
                    "velocity": 0,
                    "lightChannels": [
                        4
                    ]
                }
            }
        }
    },
    {
        "changes": {
            "col-3": 1
        },
        "timeout": 0.007415245833333332,
        "raw": {
            "col-3": {
                "pinValue": 1,
                "ticks": 3,
                "event": {
                    "deltaTime": 3,
                    "type": "channel",
                    "subtype": "noteOn",
                    "channel": 3,
                    "noteNumber": 79,
                    "velocity": 111,
                    "lightChannels": [
                        5
                    ]
                }
            }
        }
    },
    {
        "changes": {
            "col-3": 0
        },
        "timeout": 0.057203325,
        "raw": {
            "col-3": {
                "pinValue": 0,
                "ticks": 21,
                "event": {
                    "deltaTime": 21,
                    "type": "channel",
                    "subtype": "noteOff",
                    "channel": 3,
                    "noteNumber": 79,
                    "velocity": 0,
                    "lightChannels": [
                        5
                    ]
                }
            }
        }
    },
    {
        "changes": {
            "col-1": 1,
            "col-2": 1,
            "col-3": 1
        },
        "timeout": 0.01694913333333333,
        "raw": {
            "col-1": {
                "pinValue": 1,
                "ticks": 0,
                "event": {
                    "deltaTime": 0,
                    "type": "channel",
                    "subtype": "noteOn",
                    "channel": 3,
                    "noteNumber": 83,
                    "velocity": 122,
                    "lightChannels": [
                        3,
                        4,
                        5
                    ]
                }
            },
            "col-2": {
                "pinValue": 1,
                "ticks": 0,
                "event": {
                    "deltaTime": 0,
                    "type": "channel",
                    "subtype": "noteOn",
                    "channel": 3,
                    "noteNumber": 83,
                    "velocity": 122,
                    "lightChannels": [
                        3,
                        4,
                        5
                    ]
                }
            },
            "col-3": {
                "pinValue": 1,
                "ticks": 0,
                "event": {
                    "deltaTime": 0,
                    "type": "channel",
                    "subtype": "noteOn",
                    "channel": 3,
                    "noteNumber": 83,
                    "velocity": 122,
                    "lightChannels": [
                        3,
                        4,
                        5
                    ]
                }
            }
        }
    },
    {
        "changes": {
            "window": 1,
            "outline": 1
        },
        "timeout": 0.019067775,
        "raw": {
            "window": {
                "pinValue": 1,
                "ticks": 8,
                "event": {
                    "deltaTime": 8,
                    "type": "channel",
                    "subtype": "noteOn",
                    "channel": 9,
                    "noteNumber": 54,
                    "velocity": 72,
                    "lightChannels": [
                        6,
                        7
                    ]
                }
            },
            "outline": {
                "pinValue": 1,
                "ticks": 8,
                "event": {
                    "deltaTime": 8,
                    "type": "channel",
                    "subtype": "noteOn",
                    "channel": 9,
                    "noteNumber": 54,
                    "velocity": 72,
                    "lightChannels": [
                        6,
                        7
                    ]
                }
            }
        }
    },
    {
        "changes": {
            "window": 0,
            "outline": 0
        },
        "timeout": 0.044491474999999996,
        "raw": {
            "window": {
                "pinValue": 0,
                "ticks": 23,
                "event": {
                    "deltaTime": 23,
                    "type": "channel",
                    "subtype": "noteOff",
                    "channel": 9,
                    "noteNumber": 54,
                    "velocity": 0,
                    "lightChannels": [
                        6,
                        7
                    ]
                }
            },
            "outline": {
                "pinValue": 0,
                "ticks": 23,
                "event": {
                    "deltaTime": 23,
                    "type": "channel",
                    "subtype": "noteOff",
                    "channel": 9,
                    "noteNumber": 54,
                    "velocity": 0,
                    "lightChannels": [
                        6,
                        7
                    ]
                }
            }
        }
    },
    {
        "changes": {
            "col-1": 0,
            "col-2": 0,
            "col-3": 0
        },
        "timeout": 0.022245737499999994,
        "raw": {
            "col-1": {
                "pinValue": 0,
                "ticks": 7,
                "event": {
                    "deltaTime": 7,
                    "type": "channel",
                    "subtype": "noteOff",
                    "channel": 3,
                    "noteNumber": 83,
                    "velocity": 0,
                    "lightChannels": [
                        3,
                        4,
                        5
                    ]
                }
            },
            "col-2": {
                "pinValue": 0,
                "ticks": 7,
                "event": {
                    "deltaTime": 7,
                    "type": "channel",
                    "subtype": "noteOff",
                    "channel": 3,
                    "noteNumber": 83,
                    "velocity": 0,
                    "lightChannels": [
                        3,
                        4,
                        5
                    ]
                }
            },
            "col-3": {
                "pinValue": 0,
                "ticks": 7,
                "event": {
                    "deltaTime": 7,
                    "type": "channel",
                    "subtype": "noteOff",
                    "channel": 3,
                    "noteNumber": 83,
                    "velocity": 0,
                    "lightChannels": [
                        3,
                        4,
                        5
                    ]
                }
            }
        }
    },
    {
        "changes": {
            "col-1": 1,
            "window": 1,
            "outline": 1
        },
        "timeout": 0.17266929583333332,
        "raw": {
            "col-1": {
                "pinValue": 1,
                "ticks": 80,
                "event": {
                    "deltaTime": 80,
                    "type": "channel",
                    "subtype": "noteOn",
                    "channel": 3,
                    "noteNumber": 79,
                    "velocity": 118,
                    "lightChannels": [
                        3
                    ]
                }
            },
            "window": {
                "pinValue": 1,
                "ticks": 0,
                "event": {
                    "deltaTime": 0,
                    "type": "channel",
                    "subtype": "noteOn",
                    "channel": 9,
                    "noteNumber": 54,
                    "velocity": 83,
                    "lightChannels": [
                        6,
                        7
                    ]
                }
            },
            "outline": {
                "pinValue": 1,
                "ticks": 0,
                "event": {
                    "deltaTime": 0,
                    "type": "channel",
                    "subtype": "noteOn",
                    "channel": 9,
                    "noteNumber": 54,
                    "velocity": 83,
                    "lightChannels": [
                        6,
                        7
                    ]
                }
            }
        }
    },
    {
        "changes": {
            "window": 0,
            "outline": 0
        },
        "timeout": 0.059321966666666656,
        "raw": {
            "window": {
                "pinValue": 0,
                "ticks": 5,
                "event": {
                    "deltaTime": 5,
                    "type": "channel",
                    "subtype": "noteOff",
                    "channel": 9,
                    "noteNumber": 54,
                    "velocity": 0,
                    "lightChannels": [
                        6,
                        7
                    ]
                }
            },
            "outline": {
                "pinValue": 0,
                "ticks": 5,
                "event": {
                    "deltaTime": 5,
                    "type": "channel",
                    "subtype": "noteOff",
                    "channel": 9,
                    "noteNumber": 54,
                    "velocity": 0,
                    "lightChannels": [
                        6,
                        7
                    ]
                }
            }
        }
    },
    {
        "changes": {
            "col-1": 0
        },
        "timeout": 0.007415245833333332,
        "raw": {
            "col-1": {
                "pinValue": 0,
                "ticks": 7,
                "event": {
                    "deltaTime": 7,
                    "type": "channel",
                    "subtype": "noteOff",
                    "channel": 3,
                    "noteNumber": 79,
                    "velocity": 0,
                    "lightChannels": [
                        3
                    ]
                }
            }
        }
    },
    {
        "changes": {
            "col-2": 1
        },
        "timeout": 0.02436437916666666,
        "raw": {
            "col-2": {
                "pinValue": 1,
                "ticks": 1,
                "event": {
                    "deltaTime": 1,
                    "type": "channel",
                    "subtype": "noteOn",
                    "channel": 3,
                    "noteNumber": 78,
                    "velocity": 96,
                    "lightChannels": [
                        4
                    ]
                }
            }
        }
    },
    {
        "changes": {
            "col-2": 0
        },
        "timeout": 0.06355925,
        "raw": {
            "col-2": {
                "pinValue": 0,
                "ticks": 6,
                "event": {
                    "deltaTime": 6,
                    "type": "channel",
                    "subtype": "noteOff",
                    "channel": 3,
                    "noteNumber": 78,
                    "velocity": 0,
                    "lightChannels": [
                        4
                    ]
                }
            }
        }
    },
    {
        "changes": {
            "col-3": 1
        },
        "timeout": 0.006355924999999999,
        "raw": {
            "col-3": {
                "pinValue": 1,
                "ticks": 3,
                "event": {
                    "deltaTime": 3,
                    "type": "channel",
                    "subtype": "noteOn",
                    "channel": 3,
                    "noteNumber": 79,
                    "velocity": 103,
                    "lightChannels": [
                        5
                    ]
                }
            }
        }
    },
    {
        "changes": {
            "col-3": 0
        },
        "timeout": 0.0667372125,
        "raw": {
            "col-3": {
                "pinValue": 0,
                "ticks": 1,
                "event": {
                    "deltaTime": 1,
                    "type": "channel",
                    "subtype": "noteOff",
                    "channel": 3,
                    "noteNumber": 79,
                    "velocity": 0,
                    "lightChannels": [
                        5
                    ]
                }
            }
        }
    },
    {
        "changes": {
            "window": 1,
            "outline": 1
        },
        "timeout": 0.02330505833333333,
        "raw": {
            "window": {
                "pinValue": 1,
                "ticks": 0,
                "event": {
                    "deltaTime": 0,
                    "type": "channel",
                    "subtype": "noteOn",
                    "channel": 9,
                    "noteNumber": 54,
                    "velocity": 84,
                    "lightChannels": [
                        6,
                        7
                    ]
                }
            },
            "outline": {
                "pinValue": 1,
                "ticks": 0,
                "event": {
                    "deltaTime": 0,
                    "type": "channel",
                    "subtype": "noteOn",
                    "channel": 9,
                    "noteNumber": 54,
                    "velocity": 84,
                    "lightChannels": [
                        6,
                        7
                    ]
                }
            }
        }
    },
    {
        "changes": {
            "col-1": 1,
            "col-2": 1,
            "col-3": 1
        },
        "timeout": 0.0021186416666666664,
        "raw": {
            "col-1": {
                "pinValue": 1,
                "ticks": 1,
                "event": {
                    "deltaTime": 1,
                    "type": "channel",
                    "subtype": "noteOn",
                    "channel": 3,
                    "noteNumber": 83,
                    "velocity": 122,
                    "lightChannels": [
                        3,
                        4,
                        5
                    ]
                }
            },
            "col-2": {
                "pinValue": 1,
                "ticks": 1,
                "event": {
                    "deltaTime": 1,
                    "type": "channel",
                    "subtype": "noteOn",
                    "channel": 3,
                    "noteNumber": 83,
                    "velocity": 122,
                    "lightChannels": [
                        3,
                        4,
                        5
                    ]
                }
            },
            "col-3": {
                "pinValue": 1,
                "ticks": 1,
                "event": {
                    "deltaTime": 1,
                    "type": "channel",
                    "subtype": "noteOn",
                    "channel": 3,
                    "noteNumber": 83,
                    "velocity": 122,
                    "lightChannels": [
                        3,
                        4,
                        5
                    ]
                }
            }
        }
    },
    {
        "changes": {
            "window": 0,
            "outline": 0
        },
        "timeout": 0.052966041666666665,
        "raw": {
            "window": {
                "pinValue": 0,
                "ticks": 2,
                "event": {
                    "deltaTime": 2,
                    "type": "channel",
                    "subtype": "noteOff",
                    "channel": 9,
                    "noteNumber": 54,
                    "velocity": 0,
                    "lightChannels": [
                        6,
                        7
                    ]
                }
            },
            "outline": {
                "pinValue": 0,
                "ticks": 2,
                "event": {
                    "deltaTime": 2,
                    "type": "channel",
                    "subtype": "noteOff",
                    "channel": 9,
                    "noteNumber": 54,
                    "velocity": 0,
                    "lightChannels": [
                        6,
                        7
                    ]
                }
            }
        }
    },
    {
        "changes": {
            "col-1": 0,
            "col-2": 0,
            "col-3": 0
        },
        "timeout": 0.018008454166666663,
        "raw": {
            "col-1": {
                "pinValue": 0,
                "ticks": 17,
                "event": {
                    "deltaTime": 17,
                    "type": "channel",
                    "subtype": "noteOff",
                    "channel": 3,
                    "noteNumber": 83,
                    "velocity": 0,
                    "lightChannels": [
                        3,
                        4,
                        5
                    ]
                }
            },
            "col-2": {
                "pinValue": 0,
                "ticks": 17,
                "event": {
                    "deltaTime": 17,
                    "type": "channel",
                    "subtype": "noteOff",
                    "channel": 3,
                    "noteNumber": 83,
                    "velocity": 0,
                    "lightChannels": [
                        3,
                        4,
                        5
                    ]
                }
            },
            "col-3": {
                "pinValue": 0,
                "ticks": 17,
                "event": {
                    "deltaTime": 17,
                    "type": "channel",
                    "subtype": "noteOff",
                    "channel": 3,
                    "noteNumber": 83,
                    "velocity": 0,
                    "lightChannels": [
                        3,
                        4,
                        5
                    ]
                }
            }
        }
    },
    {
        "changes": {
            "garage": 0,
            "top-right": 0,
            "bottom-right": 0
        },
        "timeout": 0.050847399999999994,
        "raw": {
            "garage": {
                "pinValue": 0,
                "ticks": 9,
                "event": {
                    "deltaTime": 9,
                    "type": "channel",
                    "subtype": "noteOff",
                    "channel": 8,
                    "noteNumber": 55,
                    "velocity": 0,
                    "lightChannels": [
                        0,
                        1,
                        2
                    ]
                }
            },
            "top-right": {
                "pinValue": 0,
                "ticks": 9,
                "event": {
                    "deltaTime": 9,
                    "type": "channel",
                    "subtype": "noteOff",
                    "channel": 8,
                    "noteNumber": 55,
                    "velocity": 0,
                    "lightChannels": [
                        0,
                        1,
                        2
                    ]
                }
            },
            "bottom-right": {
                "pinValue": 0,
                "ticks": 9,
                "event": {
                    "deltaTime": 9,
                    "type": "channel",
                    "subtype": "noteOff",
                    "channel": 8,
                    "noteNumber": 55,
                    "velocity": 0,
                    "lightChannels": [
                        0,
                        1,
                        2
                    ]
                }
            }
        }
    },
    {
        "changes": {
            "window": 1,
            "outline": 1
        },
        "timeout": 0.13029646250000002,
        "raw": {
            "window": {
                "pinValue": 1,
                "ticks": 2,
                "event": {
                    "deltaTime": 2,
                    "type": "channel",
                    "subtype": "noteOn",
                    "channel": 9,
                    "noteNumber": 54,
                    "velocity": 83,
                    "lightChannels": [
                        6,
                        7
                    ]
                }
            },
            "outline": {
                "pinValue": 1,
                "ticks": 2,
                "event": {
                    "deltaTime": 2,
                    "type": "channel",
                    "subtype": "noteOn",
                    "channel": 9,
                    "noteNumber": 54,
                    "velocity": 83,
                    "lightChannels": [
                        6,
                        7
                    ]
                }
            }
        }
    },
    {
        "changes": {
            "garage": 1
        },
        "timeout": 0.02330505833333333,
        "raw": {
            "garage": {
                "pinValue": 1,
                "ticks": 0,
                "event": {
                    "deltaTime": 0,
                    "type": "channel",
                    "subtype": "noteOn",
                    "channel": 8,
                    "noteNumber": 59,
                    "velocity": 119,
                    "lightChannels": [
                        0
                    ]
                }
            }
        }
    },
    {
        "changes": {
            "window": 0,
            "outline": 0
        },
        "timeout": 0.03601690833333333,
        "raw": {
            "window": {
                "pinValue": 0,
                "ticks": 5,
                "event": {
                    "deltaTime": 5,
                    "type": "channel",
                    "subtype": "noteOff",
                    "channel": 9,
                    "noteNumber": 54,
                    "velocity": 0,
                    "lightChannels": [
                        6,
                        7
                    ]
                }
            },
            "outline": {
                "pinValue": 0,
                "ticks": 5,
                "event": {
                    "deltaTime": 5,
                    "type": "channel",
                    "subtype": "noteOff",
                    "channel": 9,
                    "noteNumber": 54,
                    "velocity": 0,
                    "lightChannels": [
                        6,
                        7
                    ]
                }
            }
        }
    },
    {
        "changes": {
            "garage": 0
        },
        "timeout": 0.18114386249999997,
        "raw": {
            "garage": {
                "pinValue": 0,
                "ticks": 18,
                "event": {
                    "deltaTime": 18,
                    "type": "channel",
                    "subtype": "noteOff",
                    "channel": 8,
                    "noteNumber": 59,
                    "velocity": 0,
                    "lightChannels": [
                        0
                    ]
                }
            }
        }
    },
    {
        "changes": {
            "garden": 1
        },
        "timeout": 0.011652529166666665,
        "raw": {
            "garden": {
                "pinValue": 1,
                "ticks": 11,
                "event": {
                    "deltaTime": 11,
                    "type": "channel",
                    "subtype": "noteOn",
                    "channel": 9,
                    "noteNumber": 61,
                    "velocity": 118,
                    "lightChannels": [
                        8
                    ]
                }
            }
        }
    },
    {
        "changes": {
            "top-right": 1
        },
        "timeout": 0.008474566666666666,
        "raw": {
            "top-right": {
                "pinValue": 1,
                "ticks": 5,
                "event": {
                    "deltaTime": 5,
                    "type": "channel",
                    "subtype": "noteOn",
                    "channel": 8,
                    "noteNumber": 57,
                    "velocity": 113,
                    "lightChannels": [
                        1
                    ]
                }
            }
        }
    },
    {
        "changes": {
            "window": 1,
            "outline": 1
        },
        "timeout": 0.0021186416666666664,
        "raw": {
            "window": {
                "pinValue": 1,
                "ticks": 2,
                "event": {
                    "deltaTime": 2,
                    "type": "channel",
                    "subtype": "noteOn",
                    "channel": 9,
                    "noteNumber": 54,
                    "velocity": 85,
                    "lightChannels": [
                        6,
                        7
                    ]
                }
            },
            "outline": {
                "pinValue": 1,
                "ticks": 2,
                "event": {
                    "deltaTime": 2,
                    "type": "channel",
                    "subtype": "noteOn",
                    "channel": 9,
                    "noteNumber": 54,
                    "velocity": 85,
                    "lightChannels": [
                        6,
                        7
                    ]
                }
            }
        }
    },
    {
        "changes": {
            "garden": 0
        },
        "timeout": 0.05720332499999999,
        "raw": {
            "garden": {
                "pinValue": 0,
                "ticks": 3,
                "event": {
                    "deltaTime": 3,
                    "type": "channel",
                    "subtype": "noteOff",
                    "channel": 9,
                    "noteNumber": 61,
                    "velocity": 0,
                    "lightChannels": [
                        8
                    ]
                }
            }
        }
    },
    {
        "changes": {
            "window": 0,
            "outline": 0
        },
        "timeout": 0.0021186416666666664,
        "raw": {
            "window": {
                "pinValue": 0,
                "ticks": 2,
                "event": {
                    "deltaTime": 2,
                    "type": "channel",
                    "subtype": "noteOff",
                    "channel": 9,
                    "noteNumber": 54,
                    "velocity": 0,
                    "lightChannels": [
                        6,
                        7
                    ]
                }
            },
            "outline": {
                "pinValue": 0,
                "ticks": 2,
                "event": {
                    "deltaTime": 2,
                    "type": "channel",
                    "subtype": "noteOff",
                    "channel": 9,
                    "noteNumber": 54,
                    "velocity": 0,
                    "lightChannels": [
                        6,
                        7
                    ]
                }
            }
        }
    },
    {
        "changes": {
            "top-right": 0
        },
        "timeout": 0.14936423749999997,
        "raw": {
            "top-right": {
                "pinValue": 0,
                "ticks": 113,
                "event": {
                    "deltaTime": 113,
                    "type": "channel",
                    "subtype": "noteOff",
                    "channel": 8,
                    "noteNumber": 57,
                    "velocity": 0,
                    "lightChannels": [
                        1
                    ]
                }
            }
        }
    },
    {
        "changes": {
            "bottom-right": 1
        },
        "timeout": 0.02966098333333333,
        "raw": {
            "bottom-right": {
                "pinValue": 1,
                "ticks": 15,
                "event": {
                    "deltaTime": 15,
                    "type": "channel",
                    "subtype": "noteOn",
                    "channel": 8,
                    "noteNumber": 55,
                    "velocity": 125,
                    "lightChannels": [
                        2
                    ]
                }
            }
        }
    },
    {
        "changes": {
            "tree": 1
        },
        "timeout": 0.0052966041666666665,
        "raw": {
            "tree": {
                "pinValue": 1,
                "ticks": 5,
                "event": {
                    "deltaTime": 5,
                    "type": "channel",
                    "subtype": "noteOn",
                    "channel": 9,
                    "noteNumber": 60,
                    "velocity": 118,
                    "lightChannels": [
                        9
                    ]
                }
            }
        }
    },
    {
        "changes": {
            "window": 1,
            "outline": 1
        },
        "timeout": 0.01694913333333333,
        "raw": {
            "window": {
                "pinValue": 1,
                "ticks": 5,
                "event": {
                    "deltaTime": 5,
                    "type": "channel",
                    "subtype": "noteOn",
                    "channel": 9,
                    "noteNumber": 54,
                    "velocity": 84,
                    "lightChannels": [
                        6,
                        7
                    ]
                }
            },
            "outline": {
                "pinValue": 1,
                "ticks": 5,
                "event": {
                    "deltaTime": 5,
                    "type": "channel",
                    "subtype": "noteOn",
                    "channel": 9,
                    "noteNumber": 54,
                    "velocity": 84,
                    "lightChannels": [
                        6,
                        7
                    ]
                }
            }
        }
    },
    {
        "changes": {
            "tree": 0
        },
        "timeout": 0.05402536249999999,
        "raw": {
            "tree": {
                "pinValue": 0,
                "ticks": 38,
                "event": {
                    "deltaTime": 38,
                    "type": "channel",
                    "subtype": "noteOff",
                    "channel": 9,
                    "noteNumber": 60,
                    "velocity": 0,
                    "lightChannels": [
                        9
                    ]
                }
            }
        }
    },
    {
        "changes": {
            "window": 0,
            "outline": 0
        },
        "timeout": 0.0052966041666666665,
        "raw": {
            "window": {
                "pinValue": 0,
                "ticks": 5,
                "event": {
                    "deltaTime": 5,
                    "type": "channel",
                    "subtype": "noteOff",
                    "channel": 9,
                    "noteNumber": 54,
                    "velocity": 0,
                    "lightChannels": [
                        6,
                        7
                    ]
                }
            },
            "outline": {
                "pinValue": 0,
                "ticks": 5,
                "event": {
                    "deltaTime": 5,
                    "type": "channel",
                    "subtype": "noteOff",
                    "channel": 9,
                    "noteNumber": 54,
                    "velocity": 0,
                    "lightChannels": [
                        6,
                        7
                    ]
                }
            }
        }
    },
    {
        "changes": {
            "bottom-right": 0
        },
        "timeout": 0.13559306666666665,
        "raw": {
            "bottom-right": {
                "pinValue": 0,
                "ticks": 32,
                "event": {
                    "deltaTime": 32,
                    "type": "channel",
                    "subtype": "noteOff",
                    "channel": 8,
                    "noteNumber": 55,
                    "velocity": 0,
                    "lightChannels": [
                        2
                    ]
                }
            }
        }
    },
    {
        "changes": {
            "garage": 1,
            "top-right": 1,
            "bottom-right": 1
        },
        "timeout": 0.04025419166666666,
        "raw": {
            "garage": {
                "pinValue": 1,
                "ticks": 19,
                "event": {
                    "deltaTime": 19,
                    "type": "channel",
                    "subtype": "noteOn",
                    "channel": 8,
                    "noteNumber": 54,
                    "velocity": 118,
                    "lightChannels": [
                        0,
                        1,
                        2
                    ]
                }
            },
            "top-right": {
                "pinValue": 1,
                "ticks": 19,
                "event": {
                    "deltaTime": 19,
                    "type": "channel",
                    "subtype": "noteOn",
                    "channel": 8,
                    "noteNumber": 54,
                    "velocity": 118,
                    "lightChannels": [
                        0,
                        1,
                        2
                    ]
                }
            },
            "bottom-right": {
                "pinValue": 1,
                "ticks": 19,
                "event": {
                    "deltaTime": 19,
                    "type": "channel",
                    "subtype": "noteOn",
                    "channel": 8,
                    "noteNumber": 54,
                    "velocity": 118,
                    "lightChannels": [
                        0,
                        1,
                        2
                    ]
                }
            }
        }
    },
    {
        "changes": {
            "garden": 1
        },
        "timeout": 0.018008454166666663,
        "raw": {
            "garden": {
                "pinValue": 1,
                "ticks": 0,
                "event": {
                    "deltaTime": 0,
                    "type": "channel",
                    "subtype": "noteOn",
                    "channel": 9,
                    "noteNumber": 61,
                    "velocity": 114,
                    "lightChannels": [
                        8
                    ]
                }
            }
        }
    },
    {
        "changes": {
            "window": 1,
            "outline": 1
        },
        "timeout": 0.008474566666666666,
        "raw": {
            "window": {
                "pinValue": 1,
                "ticks": 4,
                "event": {
                    "deltaTime": 4,
                    "type": "channel",
                    "subtype": "noteOn",
                    "channel": 9,
                    "noteNumber": 54,
                    "velocity": 83,
                    "lightChannels": [
                        6,
                        7
                    ]
                }
            },
            "outline": {
                "pinValue": 1,
                "ticks": 4,
                "event": {
                    "deltaTime": 4,
                    "type": "channel",
                    "subtype": "noteOn",
                    "channel": 9,
                    "noteNumber": 54,
                    "velocity": 83,
                    "lightChannels": [
                        6,
                        7
                    ]
                }
            }
        }
    },
    {
        "changes": {
            "garden": 0
        },
        "timeout": 0.05508468333333332,
        "raw": {
            "garden": {
                "pinValue": 0,
                "ticks": 3,
                "event": {
                    "deltaTime": 3,
                    "type": "channel",
                    "subtype": "noteOff",
                    "channel": 9,
                    "noteNumber": 61,
                    "velocity": 0,
                    "lightChannels": [
                        8
                    ]
                }
            }
        }
    },
    {
        "changes": {
            "window": 0,
            "outline": 0
        },
        "timeout": 0.0021186416666666664,
        "raw": {
            "window": {
                "pinValue": 0,
                "ticks": 0,
                "event": {
                    "deltaTime": 0,
                    "type": "channel",
                    "subtype": "noteOff",
                    "channel": 9,
                    "noteNumber": 54,
                    "velocity": 0,
                    "lightChannels": [
                        6,
                        7
                    ]
                }
            },
            "outline": {
                "pinValue": 0,
                "ticks": 0,
                "event": {
                    "deltaTime": 0,
                    "type": "channel",
                    "subtype": "noteOff",
                    "channel": 9,
                    "noteNumber": 54,
                    "velocity": 0,
                    "lightChannels": [
                        6,
                        7
                    ]
                }
            }
        }
    },
    {
        "changes": {
            "window": 1,
            "outline": 1
        },
        "timeout": 0.1949150333333333,
        "raw": {
            "window": {
                "pinValue": 1,
                "ticks": 2,
                "event": {
                    "deltaTime": 2,
                    "type": "channel",
                    "subtype": "noteOn",
                    "channel": 9,
                    "noteNumber": 54,
                    "velocity": 81,
                    "lightChannels": [
                        6,
                        7
                    ]
                }
            },
            "outline": {
                "pinValue": 1,
                "ticks": 2,
                "event": {
                    "deltaTime": 2,
                    "type": "channel",
                    "subtype": "noteOn",
                    "channel": 9,
                    "noteNumber": 54,
                    "velocity": 81,
                    "lightChannels": [
                        6,
                        7
                    ]
                }
            }
        }
    },
    {
        "changes": {
            "tree": 1
        },
        "timeout": 0.0021186416666666664,
        "raw": {
            "tree": {
                "pinValue": 1,
                "ticks": 2,
                "event": {
                    "deltaTime": 2,
                    "type": "channel",
                    "subtype": "noteOn",
                    "channel": 9,
                    "noteNumber": 60,
                    "velocity": 119,
                    "lightChannels": [
                        9
                    ]
                }
            }
        }
    },
    {
        "changes": {
            "window": 0,
            "outline": 0
        },
        "timeout": 0.05826264583333332,
        "raw": {
            "window": {
                "pinValue": 0,
                "ticks": 2,
                "event": {
                    "deltaTime": 2,
                    "type": "channel",
                    "subtype": "noteOff",
                    "channel": 9,
                    "noteNumber": 54,
                    "velocity": 0,
                    "lightChannels": [
                        6,
                        7
                    ]
                }
            },
            "outline": {
                "pinValue": 0,
                "ticks": 2,
                "event": {
                    "deltaTime": 2,
                    "type": "channel",
                    "subtype": "noteOff",
                    "channel": 9,
                    "noteNumber": 54,
                    "velocity": 0,
                    "lightChannels": [
                        6,
                        7
                    ]
                }
            }
        }
    },
    {
        "changes": {
            "tree": 0
        },
        "timeout": 0.0095338875,
        "raw": {
            "tree": {
                "pinValue": 0,
                "ticks": 6,
                "event": {
                    "deltaTime": 6,
                    "type": "channel",
                    "subtype": "noteOff",
                    "channel": 9,
                    "noteNumber": 60,
                    "velocity": 0,
                    "lightChannels": [
                        9
                    ]
                }
            }
        }
    },
    {
        "changes": {
            "window": 1,
            "outline": 1
        },
        "timeout": 0.18644046666666667,
        "raw": {
            "window": {
                "pinValue": 1,
                "ticks": 2,
                "event": {
                    "deltaTime": 2,
                    "type": "channel",
                    "subtype": "noteOn",
                    "channel": 9,
                    "noteNumber": 54,
                    "velocity": 81,
                    "lightChannels": [
                        6,
                        7
                    ]
                }
            },
            "outline": {
                "pinValue": 1,
                "ticks": 2,
                "event": {
                    "deltaTime": 2,
                    "type": "channel",
                    "subtype": "noteOn",
                    "channel": 9,
                    "noteNumber": 54,
                    "velocity": 81,
                    "lightChannels": [
                        6,
                        7
                    ]
                }
            }
        }
    },
    {
        "changes": {
            "garden": 1
        },
        "timeout": 0.010593208333333333,
        "raw": {
            "garden": {
                "pinValue": 1,
                "ticks": 0,
                "event": {
                    "deltaTime": 0,
                    "type": "channel",
                    "subtype": "noteOn",
                    "channel": 9,
                    "noteNumber": 61,
                    "velocity": 116,
                    "lightChannels": [
                        8
                    ]
                }
            }
        }
    },
    {
        "changes": {
            "window": 0,
            "outline": 0
        },
        "timeout": 0.0508474,
        "raw": {
            "window": {
                "pinValue": 0,
                "ticks": 1,
                "event": {
                    "deltaTime": 1,
                    "type": "channel",
                    "subtype": "noteOff",
                    "channel": 9,
                    "noteNumber": 54,
                    "velocity": 0,
                    "lightChannels": [
                        6,
                        7
                    ]
                }
            },
            "outline": {
                "pinValue": 0,
                "ticks": 1,
                "event": {
                    "deltaTime": 1,
                    "type": "channel",
                    "subtype": "noteOff",
                    "channel": 9,
                    "noteNumber": 54,
                    "velocity": 0,
                    "lightChannels": [
                        6,
                        7
                    ]
                }
            }
        }
    },
    {
        "changes": {
            "garden": 0
        },
        "timeout": 0.013771170833333332,
        "raw": {
            "garden": {
                "pinValue": 0,
                "ticks": 3,
                "event": {
                    "deltaTime": 3,
                    "type": "channel",
                    "subtype": "noteOff",
                    "channel": 9,
                    "noteNumber": 61,
                    "velocity": 0,
                    "lightChannels": [
                        8
                    ]
                }
            }
        }
    },
    {
        "changes": {
            "window": 1,
            "outline": 1
        },
        "timeout": 0.17690657916666663,
        "raw": {
            "window": {
                "pinValue": 1,
                "ticks": 1,
                "event": {
                    "deltaTime": 1,
                    "type": "channel",
                    "subtype": "noteOn",
                    "channel": 9,
                    "noteNumber": 54,
                    "velocity": 85,
                    "lightChannels": [
                        6,
                        7
                    ]
                }
            },
            "outline": {
                "pinValue": 1,
                "ticks": 1,
                "event": {
                    "deltaTime": 1,
                    "type": "channel",
                    "subtype": "noteOn",
                    "channel": 9,
                    "noteNumber": 54,
                    "velocity": 85,
                    "lightChannels": [
                        6,
                        7
                    ]
                }
            }
        }
    },
    {
        "changes": {
            "tree": 1
        },
        "timeout": 0.0031779624999999996,
        "raw": {
            "tree": {
                "pinValue": 1,
                "ticks": 0,
                "event": {
                    "deltaTime": 0,
                    "type": "channel",
                    "subtype": "noteOn",
                    "channel": 9,
                    "noteNumber": 60,
                    "velocity": 122,
                    "lightChannels": [
                        9
                    ]
                }
            }
        }
    },
    {
        "changes": {
            "window": 0,
            "outline": 0
        },
        "timeout": 0.05402536249999999,
        "raw": {
            "window": {
                "pinValue": 0,
                "ticks": 8,
                "event": {
                    "deltaTime": 8,
                    "type": "channel",
                    "subtype": "noteOff",
                    "channel": 9,
                    "noteNumber": 54,
                    "velocity": 0,
                    "lightChannels": [
                        6,
                        7
                    ]
                }
            },
            "outline": {
                "pinValue": 0,
                "ticks": 8,
                "event": {
                    "deltaTime": 8,
                    "type": "channel",
                    "subtype": "noteOff",
                    "channel": 9,
                    "noteNumber": 54,
                    "velocity": 0,
                    "lightChannels": [
                        6,
                        7
                    ]
                }
            }
        }
    },
    {
        "changes": {
            "tree": 0
        },
        "timeout": 0.011652529166666667,
        "raw": {
            "tree": {
                "pinValue": 0,
                "ticks": 0,
                "event": {
                    "deltaTime": 0,
                    "type": "channel",
                    "subtype": "noteOff",
                    "channel": 9,
                    "noteNumber": 60,
                    "velocity": 0,
                    "lightChannels": [
                        9
                    ]
                }
            }
        }
    },
    {
        "changes": {
            "garden": 1
        },
        "timeout": 0.18326250416666662,
        "raw": {
            "garden": {
                "pinValue": 1,
                "ticks": 6,
                "event": {
                    "deltaTime": 6,
                    "type": "channel",
                    "subtype": "noteOn",
                    "channel": 9,
                    "noteNumber": 61,
                    "velocity": 124,
                    "lightChannels": [
                        8
                    ]
                }
            }
        }
    },
    {
        "changes": {
            "window": 1,
            "outline": 1
        },
        "timeout": 0.0010593208333333332,
        "raw": {
            "window": {
                "pinValue": 1,
                "ticks": 0,
                "event": {
                    "deltaTime": 0,
                    "type": "channel",
                    "subtype": "noteOn",
                    "channel": 9,
                    "noteNumber": 54,
                    "velocity": 81,
                    "lightChannels": [
                        6,
                        7
                    ]
                }
            },
            "outline": {
                "pinValue": 1,
                "ticks": 0,
                "event": {
                    "deltaTime": 0,
                    "type": "channel",
                    "subtype": "noteOn",
                    "channel": 9,
                    "noteNumber": 54,
                    "velocity": 81,
                    "lightChannels": [
                        6,
                        7
                    ]
                }
            }
        }
    },
    {
        "changes": {
            "window": 0,
            "outline": 0
        },
        "timeout": 0.05720332499999999,
        "raw": {
            "window": {
                "pinValue": 0,
                "ticks": 9,
                "event": {
                    "deltaTime": 9,
                    "type": "channel",
                    "subtype": "noteOff",
                    "channel": 9,
                    "noteNumber": 54,
                    "velocity": 0,
                    "lightChannels": [
                        6,
                        7
                    ]
                }
            },
            "outline": {
                "pinValue": 0,
                "ticks": 9,
                "event": {
                    "deltaTime": 9,
                    "type": "channel",
                    "subtype": "noteOff",
                    "channel": 9,
                    "noteNumber": 54,
                    "velocity": 0,
                    "lightChannels": [
                        6,
                        7
                    ]
                }
            }
        }
    },
    {
        "changes": {
            "garden": 0
        },
        "timeout": 0.0021186416666666664,
        "raw": {
            "garden": {
                "pinValue": 0,
                "ticks": 2,
                "event": {
                    "deltaTime": 2,
                    "type": "channel",
                    "subtype": "noteOff",
                    "channel": 9,
                    "noteNumber": 61,
                    "velocity": 0,
                    "lightChannels": [
                        8
                    ]
                }
            }
        }
    },
    {
        "changes": {
            "garage": 0,
            "top-right": 0,
            "bottom-right": 0
        },
        "timeout": 0.05296604166666666,
        "raw": {
            "garage": {
                "pinValue": 0,
                "ticks": 30,
                "event": {
                    "deltaTime": 30,
                    "type": "channel",
                    "subtype": "noteOff",
                    "channel": 8,
                    "noteNumber": 54,
                    "velocity": 0,
                    "lightChannels": [
                        0,
                        1,
                        2
                    ]
                }
            },
            "top-right": {
                "pinValue": 0,
                "ticks": 30,
                "event": {
                    "deltaTime": 30,
                    "type": "channel",
                    "subtype": "noteOff",
                    "channel": 8,
                    "noteNumber": 54,
                    "velocity": 0,
                    "lightChannels": [
                        0,
                        1,
                        2
                    ]
                }
            },
            "bottom-right": {
                "pinValue": 0,
                "ticks": 30,
                "event": {
                    "deltaTime": 30,
                    "type": "channel",
                    "subtype": "noteOff",
                    "channel": 8,
                    "noteNumber": 54,
                    "velocity": 0,
                    "lightChannels": [
                        0,
                        1,
                        2
                    ]
                }
            }
        }
    },
    {
        "changes": {
            "garage": 1
        },
        "timeout": 0.13771170833333332,
        "raw": {
            "garage": {
                "pinValue": 1,
                "ticks": 0,
                "event": {
                    "deltaTime": 0,
                    "type": "channel",
                    "subtype": "noteOn",
                    "channel": 8,
                    "noteNumber": 50,
                    "velocity": 115,
                    "lightChannels": [
                        0
                    ]
                }
            }
        }
    },
    {
        "changes": {
            "tree": 1
        },
        "timeout": 0.0010593208333333332,
        "raw": {
            "tree": {
                "pinValue": 1,
                "ticks": 0,
                "event": {
                    "deltaTime": 0,
                    "type": "channel",
                    "subtype": "noteOn",
                    "channel": 9,
                    "noteNumber": 60,
                    "velocity": 122,
                    "lightChannels": [
                        9
                    ]
                }
            }
        }
    },
    {
        "changes": {
            "window": 1,
            "outline": 1
        },
        "timeout": 0.0010593208333333332,
        "raw": {
            "window": {
                "pinValue": 1,
                "ticks": 1,
                "event": {
                    "deltaTime": 1,
                    "type": "channel",
                    "subtype": "noteOn",
                    "channel": 9,
                    "noteNumber": 54,
                    "velocity": 87,
                    "lightChannels": [
                        6,
                        7
                    ]
                }
            },
            "outline": {
                "pinValue": 1,
                "ticks": 1,
                "event": {
                    "deltaTime": 1,
                    "type": "channel",
                    "subtype": "noteOn",
                    "channel": 9,
                    "noteNumber": 54,
                    "velocity": 87,
                    "lightChannels": [
                        6,
                        7
                    ]
                }
            }
        }
    },
    {
        "changes": {
            "window": 0,
            "outline": 0
        },
        "timeout": 0.06461857083333333,
        "raw": {
            "window": {
                "pinValue": 0,
                "ticks": 4,
                "event": {
                    "deltaTime": 4,
                    "type": "channel",
                    "subtype": "noteOff",
                    "channel": 9,
                    "noteNumber": 54,
                    "velocity": 0,
                    "lightChannels": [
                        6,
                        7
                    ]
                }
            },
            "outline": {
                "pinValue": 0,
                "ticks": 4,
                "event": {
                    "deltaTime": 4,
                    "type": "channel",
                    "subtype": "noteOff",
                    "channel": 9,
                    "noteNumber": 54,
                    "velocity": 0,
                    "lightChannels": [
                        6,
                        7
                    ]
                }
            }
        }
    },
    {
        "changes": {
            "tree": 0
        },
        "timeout": 0.0031779624999999996,
        "raw": {
            "tree": {
                "pinValue": 0,
                "ticks": 0,
                "event": {
                    "deltaTime": 0,
                    "type": "channel",
                    "subtype": "noteOff",
                    "channel": 9,
                    "noteNumber": 60,
                    "velocity": 0,
                    "lightChannels": [
                        9
                    ]
                }
            }
        }
    },
    {
        "changes": {
            "garage": 0
        },
        "timeout": 0.15360152083333334,
        "raw": {
            "garage": {
                "pinValue": 0,
                "ticks": 9,
                "event": {
                    "deltaTime": 9,
                    "type": "channel",
                    "subtype": "noteOff",
                    "channel": 8,
                    "noteNumber": 50,
                    "velocity": 0,
                    "lightChannels": [
                        0
                    ]
                }
            }
        }
    },
    {
        "changes": {
            "garden": 1
        },
        "timeout": 0.027542341666666664,
        "raw": {
            "garden": {
                "pinValue": 1,
                "ticks": 8,
                "event": {
                    "deltaTime": 8,
                    "type": "channel",
                    "subtype": "noteOn",
                    "channel": 9,
                    "noteNumber": 61,
                    "velocity": 124,
                    "lightChannels": [
                        8
                    ]
                }
            }
        }
    },
    {
        "changes": {
            "top-right": 1
        },
        "timeout": 0.0052966041666666665,
        "raw": {
            "top-right": {
                "pinValue": 1,
                "ticks": 1,
                "event": {
                    "deltaTime": 1,
                    "type": "channel",
                    "subtype": "noteOn",
                    "channel": 8,
                    "noteNumber": 54,
                    "velocity": 126,
                    "lightChannels": [
                        1
                    ]
                }
            }
        }
    },
    {
        "changes": {
            "window": 1,
            "outline": 1
        },
        "timeout": 0.0010593208333333332,
        "raw": {
            "window": {
                "pinValue": 1,
                "ticks": 1,
                "event": {
                    "deltaTime": 1,
                    "type": "channel",
                    "subtype": "noteOn",
                    "channel": 9,
                    "noteNumber": 54,
                    "velocity": 81,
                    "lightChannels": [
                        6,
                        7
                    ]
                }
            },
            "outline": {
                "pinValue": 1,
                "ticks": 1,
                "event": {
                    "deltaTime": 1,
                    "type": "channel",
                    "subtype": "noteOn",
                    "channel": 9,
                    "noteNumber": 54,
                    "velocity": 81,
                    "lightChannels": [
                        6,
                        7
                    ]
                }
            }
        }
    },
    {
        "changes": {
            "garden": 0
        },
        "timeout": 0.057203325,
        "raw": {
            "garden": {
                "pinValue": 0,
                "ticks": 5,
                "event": {
                    "deltaTime": 5,
                    "type": "channel",
                    "subtype": "noteOff",
                    "channel": 9,
                    "noteNumber": 61,
                    "velocity": 0,
                    "lightChannels": [
                        8
                    ]
                }
            }
        }
    },
    {
        "changes": {
            "window": 0,
            "outline": 0
        },
        "timeout": 0.0052966041666666665,
        "raw": {
            "window": {
                "pinValue": 0,
                "ticks": 1,
                "event": {
                    "deltaTime": 1,
                    "type": "channel",
                    "subtype": "noteOff",
                    "channel": 9,
                    "noteNumber": 54,
                    "velocity": 0,
                    "lightChannels": [
                        6,
                        7
                    ]
                }
            },
            "outline": {
                "pinValue": 0,
                "ticks": 1,
                "event": {
                    "deltaTime": 1,
                    "type": "channel",
                    "subtype": "noteOff",
                    "channel": 9,
                    "noteNumber": 54,
                    "velocity": 0,
                    "lightChannels": [
                        6,
                        7
                    ]
                }
            }
        }
    },
    {
        "changes": {
            "top-right": 0
        },
        "timeout": 0.1366523875,
        "raw": {
            "top-right": {
                "pinValue": 0,
                "ticks": 29,
                "event": {
                    "deltaTime": 29,
                    "type": "channel",
                    "subtype": "noteOff",
                    "channel": 8,
                    "noteNumber": 54,
                    "velocity": 0,
                    "lightChannels": [
                        1
                    ]
                }
            }
        }
    },
    {
        "changes": {
            "tree": 1
        },
        "timeout": 0.04872875833333332,
        "raw": {
            "tree": {
                "pinValue": 1,
                "ticks": 0,
                "event": {
                    "deltaTime": 0,
                    "type": "channel",
                    "subtype": "noteOn",
                    "channel": 9,
                    "noteNumber": 60,
                    "velocity": 123,
                    "lightChannels": [
                        9
                    ]
                }
            }
        }
    },
    {
        "changes": {
            "bottom-right": 1
        },
        "timeout": 0.0021186416666666664,
        "raw": {
            "bottom-right": {
                "pinValue": 1,
                "ticks": 0,
                "event": {
                    "deltaTime": 0,
                    "type": "channel",
                    "subtype": "noteOn",
                    "channel": 8,
                    "noteNumber": 59,
                    "velocity": 116,
                    "lightChannels": [
                        2
                    ]
                }
            }
        }
    },
    {
        "changes": {
            "window": 1,
            "outline": 1
        },
        "timeout": 0.008474566666666666,
        "raw": {
            "window": {
                "pinValue": 1,
                "ticks": 6,
                "event": {
                    "deltaTime": 6,
                    "type": "channel",
                    "subtype": "noteOn",
                    "channel": 9,
                    "noteNumber": 54,
                    "velocity": 85,
                    "lightChannels": [
                        6,
                        7
                    ]
                }
            },
            "outline": {
                "pinValue": 1,
                "ticks": 6,
                "event": {
                    "deltaTime": 6,
                    "type": "channel",
                    "subtype": "noteOn",
                    "channel": 9,
                    "noteNumber": 54,
                    "velocity": 85,
                    "lightChannels": [
                        6,
                        7
                    ]
                }
            }
        }
    },
    {
        "changes": {
            "tree": 0
        },
        "timeout": 0.05932196666666666,
        "raw": {
            "tree": {
                "pinValue": 0,
                "ticks": 1,
                "event": {
                    "deltaTime": 1,
                    "type": "channel",
                    "subtype": "noteOff",
                    "channel": 9,
                    "noteNumber": 60,
                    "velocity": 0,
                    "lightChannels": [
                        9
                    ]
                }
            }
        }
    },
    {
        "changes": {
            "window": 0,
            "outline": 0
        },
        "timeout": 0.0021186416666666664,
        "raw": {
            "window": {
                "pinValue": 0,
                "ticks": 2,
                "event": {
                    "deltaTime": 2,
                    "type": "channel",
                    "subtype": "noteOff",
                    "channel": 9,
                    "noteNumber": 54,
                    "velocity": 0,
                    "lightChannels": [
                        6,
                        7
                    ]
                }
            },
            "outline": {
                "pinValue": 0,
                "ticks": 2,
                "event": {
                    "deltaTime": 2,
                    "type": "channel",
                    "subtype": "noteOff",
                    "channel": 9,
                    "noteNumber": 54,
                    "velocity": 0,
                    "lightChannels": [
                        6,
                        7
                    ]
                }
            }
        }
    },
    {
        "changes": {
            "bottom-right": 0
        },
        "timeout": 0.18220318333333332,
        "raw": {
            "bottom-right": {
                "pinValue": 0,
                "ticks": 2,
                "event": {
                    "deltaTime": 2,
                    "type": "channel",
                    "subtype": "noteOff",
                    "channel": 8,
                    "noteNumber": 59,
                    "velocity": 0,
                    "lightChannels": [
                        2
                    ]
                }
            }
        }
    },
    {
        "changes": {
            "garden": 1
        },
        "timeout": 0.006355924999999999,
        "raw": {
            "garden": {
                "pinValue": 1,
                "ticks": 4,
                "event": {
                    "deltaTime": 4,
                    "type": "channel",
                    "subtype": "noteOn",
                    "channel": 9,
                    "noteNumber": 61,
                    "velocity": 124,
                    "lightChannels": [
                        8
                    ]
                }
            }
        }
    },
    {
        "changes": {
            "garage": 1,
            "top-right": 1,
            "bottom-right": 1,
            "window": 1,
            "outline": 1
        },
        "timeout": 0.007415245833333334,
        "raw": {
            "garage": {
                "pinValue": 1,
                "ticks": 0,
                "event": {
                    "deltaTime": 0,
                    "type": "channel",
                    "subtype": "noteOn",
                    "channel": 8,
                    "noteNumber": 55,
                    "velocity": 125,
                    "lightChannels": [
                        0,
                        1,
                        2
                    ]
                }
            },
            "top-right": {
                "pinValue": 1,
                "ticks": 0,
                "event": {
                    "deltaTime": 0,
                    "type": "channel",
                    "subtype": "noteOn",
                    "channel": 8,
                    "noteNumber": 55,
                    "velocity": 125,
                    "lightChannels": [
                        0,
                        1,
                        2
                    ]
                }
            },
            "bottom-right": {
                "pinValue": 1,
                "ticks": 0,
                "event": {
                    "deltaTime": 0,
                    "type": "channel",
                    "subtype": "noteOn",
                    "channel": 8,
                    "noteNumber": 55,
                    "velocity": 125,
                    "lightChannels": [
                        0,
                        1,
                        2
                    ]
                }
            },
            "window": {
                "pinValue": 1,
                "ticks": 0,
                "event": {
                    "deltaTime": 0,
                    "type": "channel",
                    "subtype": "noteOn",
                    "channel": 9,
                    "noteNumber": 54,
                    "velocity": 83,
                    "lightChannels": [
                        6,
                        7
                    ]
                }
            },
            "outline": {
                "pinValue": 1,
                "ticks": 0,
                "event": {
                    "deltaTime": 0,
                    "type": "channel",
                    "subtype": "noteOn",
                    "channel": 9,
                    "noteNumber": 54,
                    "velocity": 83,
                    "lightChannels": [
                        6,
                        7
                    ]
                }
            }
        }
    },
    {
        "changes": {
            "garden": 0
        },
        "timeout": 0.05402536249999999,
        "raw": {
            "garden": {
                "pinValue": 0,
                "ticks": 2,
                "event": {
                    "deltaTime": 2,
                    "type": "channel",
                    "subtype": "noteOff",
                    "channel": 9,
                    "noteNumber": 61,
                    "velocity": 0,
                    "lightChannels": [
                        8
                    ]
                }
            }
        }
    },
    {
        "changes": {
            "window": 0,
            "outline": 0
        },
        "timeout": 0.0052966041666666665,
        "raw": {
            "window": {
                "pinValue": 0,
                "ticks": 0,
                "event": {
                    "deltaTime": 0,
                    "type": "channel",
                    "subtype": "noteOff",
                    "channel": 9,
                    "noteNumber": 54,
                    "velocity": 0,
                    "lightChannels": [
                        6,
                        7
                    ]
                }
            },
            "outline": {
                "pinValue": 0,
                "ticks": 0,
                "event": {
                    "deltaTime": 0,
                    "type": "channel",
                    "subtype": "noteOff",
                    "channel": 9,
                    "noteNumber": 54,
                    "velocity": 0,
                    "lightChannels": [
                        6,
                        7
                    ]
                }
            }
        }
    },
    {
        "changes": {
            "window": 1,
            "outline": 1
        },
        "timeout": 0.18644046666666664,
        "raw": {
            "window": {
                "pinValue": 1,
                "ticks": 2,
                "event": {
                    "deltaTime": 2,
                    "type": "channel",
                    "subtype": "noteOn",
                    "channel": 9,
                    "noteNumber": 54,
                    "velocity": 83,
                    "lightChannels": [
                        6,
                        7
                    ]
                }
            },
            "outline": {
                "pinValue": 1,
                "ticks": 2,
                "event": {
                    "deltaTime": 2,
                    "type": "channel",
                    "subtype": "noteOn",
                    "channel": 9,
                    "noteNumber": 54,
                    "velocity": 83,
                    "lightChannels": [
                        6,
                        7
                    ]
                }
            }
        }
    },
    {
        "changes": {
            "tree": 1
        },
        "timeout": 0.0052966041666666665,
        "raw": {
            "tree": {
                "pinValue": 1,
                "ticks": 2,
                "event": {
                    "deltaTime": 2,
                    "type": "channel",
                    "subtype": "noteOn",
                    "channel": 9,
                    "noteNumber": 60,
                    "velocity": 113,
                    "lightChannels": [
                        9
                    ]
                }
            }
        }
    },
    {
        "changes": {
            "window": 0,
            "outline": 0
        },
        "timeout": 0.059321966666666656,
        "raw": {
            "window": {
                "pinValue": 0,
                "ticks": 4,
                "event": {
                    "deltaTime": 4,
                    "type": "channel",
                    "subtype": "noteOff",
                    "channel": 9,
                    "noteNumber": 54,
                    "velocity": 0,
                    "lightChannels": [
                        6,
                        7
                    ]
                }
            },
            "outline": {
                "pinValue": 0,
                "ticks": 4,
                "event": {
                    "deltaTime": 4,
                    "type": "channel",
                    "subtype": "noteOff",
                    "channel": 9,
                    "noteNumber": 54,
                    "velocity": 0,
                    "lightChannels": [
                        6,
                        7
                    ]
                }
            }
        }
    },
    {
        "changes": {
            "tree": 0
        },
        "timeout": 0.007415245833333332,
        "raw": {
            "tree": {
                "pinValue": 0,
                "ticks": 7,
                "event": {
                    "deltaTime": 7,
                    "type": "channel",
                    "subtype": "noteOff",
                    "channel": 9,
                    "noteNumber": 60,
                    "velocity": 0,
                    "lightChannels": [
                        9
                    ]
                }
            }
        }
    },
    {
        "changes": {
            "window": 1,
            "outline": 1
        },
        "timeout": 0.18326250416666665,
        "raw": {
            "window": {
                "pinValue": 1,
                "ticks": 2,
                "event": {
                    "deltaTime": 2,
                    "type": "channel",
                    "subtype": "noteOn",
                    "channel": 9,
                    "noteNumber": 54,
                    "velocity": 84,
                    "lightChannels": [
                        6,
                        7
                    ]
                }
            },
            "outline": {
                "pinValue": 1,
                "ticks": 2,
                "event": {
                    "deltaTime": 2,
                    "type": "channel",
                    "subtype": "noteOn",
                    "channel": 9,
                    "noteNumber": 54,
                    "velocity": 84,
                    "lightChannels": [
                        6,
                        7
                    ]
                }
            }
        }
    },
    {
        "changes": {
            "garden": 1
        },
        "timeout": 0.0031779624999999996,
        "raw": {
            "garden": {
                "pinValue": 1,
                "ticks": 1,
                "event": {
                    "deltaTime": 1,
                    "type": "channel",
                    "subtype": "noteOn",
                    "channel": 9,
                    "noteNumber": 61,
                    "velocity": 126,
                    "lightChannels": [
                        8
                    ]
                }
            }
        }
    },
    {
        "changes": {
            "window": 0,
            "outline": 0
        },
        "timeout": 0.06038128749999999,
        "raw": {
            "window": {
                "pinValue": 0,
                "ticks": 6,
                "event": {
                    "deltaTime": 6,
                    "type": "channel",
                    "subtype": "noteOff",
                    "channel": 9,
                    "noteNumber": 54,
                    "velocity": 0,
                    "lightChannels": [
                        6,
                        7
                    ]
                }
            },
            "outline": {
                "pinValue": 0,
                "ticks": 6,
                "event": {
                    "deltaTime": 6,
                    "type": "channel",
                    "subtype": "noteOff",
                    "channel": 9,
                    "noteNumber": 54,
                    "velocity": 0,
                    "lightChannels": [
                        6,
                        7
                    ]
                }
            }
        }
    },
    {
        "changes": {
            "garden": 0
        },
        "timeout": 0.0052966041666666665,
        "raw": {
            "garden": {
                "pinValue": 0,
                "ticks": 1,
                "event": {
                    "deltaTime": 1,
                    "type": "channel",
                    "subtype": "noteOff",
                    "channel": 9,
                    "noteNumber": 61,
                    "velocity": 0,
                    "lightChannels": [
                        8
                    ]
                }
            }
        }
    },
    {
        "changes": {
            "window": 1,
            "outline": 1,
            "tree": 1
        },
        "timeout": 0.1800845416666666,
        "raw": {
            "window": {
                "pinValue": 1,
                "ticks": 0,
                "event": {
                    "deltaTime": 0,
                    "type": "channel",
                    "subtype": "noteOn",
                    "channel": 9,
                    "noteNumber": 54,
                    "velocity": 80,
                    "lightChannels": [
                        6,
                        7
                    ]
                }
            },
            "outline": {
                "pinValue": 1,
                "ticks": 0,
                "event": {
                    "deltaTime": 0,
                    "type": "channel",
                    "subtype": "noteOn",
                    "channel": 9,
                    "noteNumber": 54,
                    "velocity": 80,
                    "lightChannels": [
                        6,
                        7
                    ]
                }
            },
            "tree": {
                "pinValue": 1,
                "ticks": 0,
                "event": {
                    "deltaTime": 0,
                    "type": "channel",
                    "subtype": "noteOn",
                    "channel": 9,
                    "noteNumber": 60,
                    "velocity": 113,
                    "lightChannels": [
                        9
                    ]
                }
            }
        }
    },
    {
        "changes": {
            "window": 0,
            "outline": 0
        },
        "timeout": 0.06144060833333333,
        "raw": {
            "window": {
                "pinValue": 0,
                "ticks": 22,
                "event": {
                    "deltaTime": 22,
                    "type": "channel",
                    "subtype": "noteOff",
                    "channel": 9,
                    "noteNumber": 54,
                    "velocity": 0,
                    "lightChannels": [
                        6,
                        7
                    ]
                }
            },
            "outline": {
                "pinValue": 0,
                "ticks": 22,
                "event": {
                    "deltaTime": 22,
                    "type": "channel",
                    "subtype": "noteOff",
                    "channel": 9,
                    "noteNumber": 54,
                    "velocity": 0,
                    "lightChannels": [
                        6,
                        7
                    ]
                }
            }
        }
    },
    {
        "changes": {
            "tree": 0
        },
        "timeout": 0.0052966041666666665,
        "raw": {
            "tree": {
                "pinValue": 0,
                "ticks": 5,
                "event": {
                    "deltaTime": 5,
                    "type": "channel",
                    "subtype": "noteOff",
                    "channel": 9,
                    "noteNumber": 60,
                    "velocity": 0,
                    "lightChannels": [
                        9
                    ]
                }
            }
        }
    },
    {
        "changes": {
            "garden": 1
        },
        "timeout": 0.18220318333333332,
        "raw": {
            "garden": {
                "pinValue": 1,
                "ticks": 2,
                "event": {
                    "deltaTime": 2,
                    "type": "channel",
                    "subtype": "noteOn",
                    "channel": 9,
                    "noteNumber": 61,
                    "velocity": 127,
                    "lightChannels": [
                        8
                    ]
                }
            }
        }
    },
    {
        "changes": {
            "window": 1,
            "outline": 1
        },
        "timeout": 0.006355924999999999,
        "raw": {
            "window": {
                "pinValue": 1,
                "ticks": 0,
                "event": {
                    "deltaTime": 0,
                    "type": "channel",
                    "subtype": "noteOn",
                    "channel": 9,
                    "noteNumber": 54,
                    "velocity": 77,
                    "lightChannels": [
                        6,
                        7
                    ]
                }
            },
            "outline": {
                "pinValue": 1,
                "ticks": 0,
                "event": {
                    "deltaTime": 0,
                    "type": "channel",
                    "subtype": "noteOn",
                    "channel": 9,
                    "noteNumber": 54,
                    "velocity": 77,
                    "lightChannels": [
                        6,
                        7
                    ]
                }
            }
        }
    },
    {
        "changes": {
            "window": 0,
            "outline": 0
        },
        "timeout": 0.05508468333333333,
        "raw": {
            "window": {
                "pinValue": 0,
                "ticks": 23,
                "event": {
                    "deltaTime": 23,
                    "type": "channel",
                    "subtype": "noteOff",
                    "channel": 9,
                    "noteNumber": 54,
                    "velocity": 0,
                    "lightChannels": [
                        6,
                        7
                    ]
                }
            },
            "outline": {
                "pinValue": 0,
                "ticks": 23,
                "event": {
                    "deltaTime": 23,
                    "type": "channel",
                    "subtype": "noteOff",
                    "channel": 9,
                    "noteNumber": 54,
                    "velocity": 0,
                    "lightChannels": [
                        6,
                        7
                    ]
                }
            }
        }
    },
    {
        "changes": {
            "garden": 0
        },
        "timeout": 0.0010593208333333332,
        "raw": {
            "garden": {
                "pinValue": 0,
                "ticks": 1,
                "event": {
                    "deltaTime": 1,
                    "type": "channel",
                    "subtype": "noteOff",
                    "channel": 9,
                    "noteNumber": 61,
                    "velocity": 0,
                    "lightChannels": [
                        8
                    ]
                }
            }
        }
    },
    {
        "changes": {
            "garage": 0,
            "top-right": 0,
            "bottom-right": 0
        },
        "timeout": 0.019067774999999995,
        "raw": {
            "garage": {
                "pinValue": 0,
                "ticks": 4,
                "event": {
                    "deltaTime": 4,
                    "type": "channel",
                    "subtype": "noteOff",
                    "channel": 8,
                    "noteNumber": 55,
                    "velocity": 0,
                    "lightChannels": [
                        0,
                        1,
                        2
                    ]
                }
            },
            "top-right": {
                "pinValue": 0,
                "ticks": 4,
                "event": {
                    "deltaTime": 4,
                    "type": "channel",
                    "subtype": "noteOff",
                    "channel": 8,
                    "noteNumber": 55,
                    "velocity": 0,
                    "lightChannels": [
                        0,
                        1,
                        2
                    ]
                }
            },
            "bottom-right": {
                "pinValue": 0,
                "ticks": 4,
                "event": {
                    "deltaTime": 4,
                    "type": "channel",
                    "subtype": "noteOff",
                    "channel": 8,
                    "noteNumber": 55,
                    "velocity": 0,
                    "lightChannels": [
                        0,
                        1,
                        2
                    ]
                }
            }
        }
    },
    {
        "changes": {
            "tree": 1
        },
        "timeout": 0.17478793749999993,
        "raw": {
            "tree": {
                "pinValue": 1,
                "ticks": 0,
                "event": {
                    "deltaTime": 0,
                    "type": "channel",
                    "subtype": "noteOn",
                    "channel": 9,
                    "noteNumber": 60,
                    "velocity": 116,
                    "lightChannels": [
                        9
                    ]
                }
            }
        }
    },
    {
        "changes": {
            "window": 1,
            "outline": 1
        },
        "timeout": 0.004237283333333333,
        "raw": {
            "window": {
                "pinValue": 1,
                "ticks": 0,
                "event": {
                    "deltaTime": 0,
                    "type": "channel",
                    "subtype": "noteOn",
                    "channel": 9,
                    "noteNumber": 54,
                    "velocity": 83,
                    "lightChannels": [
                        6,
                        7
                    ]
                }
            },
            "outline": {
                "pinValue": 1,
                "ticks": 0,
                "event": {
                    "deltaTime": 0,
                    "type": "channel",
                    "subtype": "noteOn",
                    "channel": 9,
                    "noteNumber": 54,
                    "velocity": 83,
                    "lightChannels": [
                        6,
                        7
                    ]
                }
            }
        }
    },
    {
        "changes": {
            "garage": 1
        },
        "timeout": 0.036016908333333326,
        "raw": {
            "garage": {
                "pinValue": 1,
                "ticks": 8,
                "event": {
                    "deltaTime": 8,
                    "type": "channel",
                    "subtype": "noteOn",
                    "channel": 8,
                    "noteNumber": 59,
                    "velocity": 125,
                    "lightChannels": [
                        0
                    ]
                }
            }
        }
    },
    {
        "changes": {
            "window": 0,
            "outline": 0
        },
        "timeout": 0.024364379166666665,
        "raw": {
            "window": {
                "pinValue": 0,
                "ticks": 0,
                "event": {
                    "deltaTime": 0,
                    "type": "channel",
                    "subtype": "noteOff",
                    "channel": 9,
                    "noteNumber": 54,
                    "velocity": 0,
                    "lightChannels": [
                        6,
                        7
                    ]
                }
            },
            "outline": {
                "pinValue": 0,
                "ticks": 0,
                "event": {
                    "deltaTime": 0,
                    "type": "channel",
                    "subtype": "noteOff",
                    "channel": 9,
                    "noteNumber": 54,
                    "velocity": 0,
                    "lightChannels": [
                        6,
                        7
                    ]
                }
            }
        }
    },
    {
        "changes": {
            "tree": 0
        },
        "timeout": 0.0010593208333333332,
        "raw": {
            "tree": {
                "pinValue": 0,
                "ticks": 1,
                "event": {
                    "deltaTime": 1,
                    "type": "channel",
                    "subtype": "noteOff",
                    "channel": 9,
                    "noteNumber": 60,
                    "velocity": 0,
                    "lightChannels": [
                        9
                    ]
                }
            }
        }
    },
    {
        "changes": {
            "window": 1,
            "outline": 1
        },
        "timeout": 0.18961842916666663,
        "raw": {
            "window": {
                "pinValue": 1,
                "ticks": 0,
                "event": {
                    "deltaTime": 0,
                    "type": "channel",
                    "subtype": "noteOn",
                    "channel": 9,
                    "noteNumber": 54,
                    "velocity": 83,
                    "lightChannels": [
                        6,
                        7
                    ]
                }
            },
            "outline": {
                "pinValue": 1,
                "ticks": 0,
                "event": {
                    "deltaTime": 0,
                    "type": "channel",
                    "subtype": "noteOn",
                    "channel": 9,
                    "noteNumber": 54,
                    "velocity": 83,
                    "lightChannels": [
                        6,
                        7
                    ]
                }
            }
        }
    },
    {
        "changes": {
            "garden": 1
        },
        "timeout": 0.0010593208333333332,
        "raw": {
            "garden": {
                "pinValue": 1,
                "ticks": 1,
                "event": {
                    "deltaTime": 1,
                    "type": "channel",
                    "subtype": "noteOn",
                    "channel": 9,
                    "noteNumber": 61,
                    "velocity": 124,
                    "lightChannels": [
                        8
                    ]
                }
            }
        }
    },
    {
        "changes": {
            "garage": 0
        },
        "timeout": 0.026483020833333332,
        "raw": {
            "garage": {
                "pinValue": 0,
                "ticks": 3,
                "event": {
                    "deltaTime": 3,
                    "type": "channel",
                    "subtype": "noteOff",
                    "channel": 8,
                    "noteNumber": 59,
                    "velocity": 0,
                    "lightChannels": [
                        0
                    ]
                }
            }
        }
    },
    {
        "changes": {
            "top-right": 1
        },
        "timeout": 0.02012709583333333,
        "raw": {
            "top-right": {
                "pinValue": 1,
                "ticks": 19,
                "event": {
                    "deltaTime": 19,
                    "type": "channel",
                    "subtype": "noteOn",
                    "channel": 8,
                    "noteNumber": 57,
                    "velocity": 115,
                    "lightChannels": [
                        1
                    ]
                }
            }
        }
    },
    {
        "changes": {
            "window": 0,
            "outline": 0
        },
        "timeout": 0.008474566666666666,
        "raw": {
            "window": {
                "pinValue": 0,
                "ticks": 8,
                "event": {
                    "deltaTime": 8,
                    "type": "channel",
                    "subtype": "noteOff",
                    "channel": 9,
                    "noteNumber": 54,
                    "velocity": 0,
                    "lightChannels": [
                        6,
                        7
                    ]
                }
            },
            "outline": {
                "pinValue": 0,
                "ticks": 8,
                "event": {
                    "deltaTime": 8,
                    "type": "channel",
                    "subtype": "noteOff",
                    "channel": 9,
                    "noteNumber": 54,
                    "velocity": 0,
                    "lightChannels": [
                        6,
                        7
                    ]
                }
            }
        }
    },
    {
        "changes": {
            "garden": 0
        },
        "timeout": 0.010593208333333333,
        "raw": {
            "garden": {
                "pinValue": 0,
                "ticks": 1,
                "event": {
                    "deltaTime": 1,
                    "type": "channel",
                    "subtype": "noteOff",
                    "channel": 9,
                    "noteNumber": 61,
                    "velocity": 0,
                    "lightChannels": [
                        8
                    ]
                }
            }
        }
    },
    {
        "changes": {
            "window": 1,
            "outline": 1
        },
        "timeout": 0.18008454166666668,
        "raw": {
            "window": {
                "pinValue": 1,
                "ticks": 0,
                "event": {
                    "deltaTime": 0,
                    "type": "channel",
                    "subtype": "noteOn",
                    "channel": 9,
                    "noteNumber": 54,
                    "velocity": 84,
                    "lightChannels": [
                        6,
                        7
                    ]
                }
            },
            "outline": {
                "pinValue": 1,
                "ticks": 0,
                "event": {
                    "deltaTime": 0,
                    "type": "channel",
                    "subtype": "noteOn",
                    "channel": 9,
                    "noteNumber": 54,
                    "velocity": 84,
                    "lightChannels": [
                        6,
                        7
                    ]
                }
            }
        }
    },
    {
        "changes": {
            "top-right": 0
        },
        "timeout": 0.006355924999999999,
        "raw": {
            "top-right": {
                "pinValue": 0,
                "ticks": 4,
                "event": {
                    "deltaTime": 4,
                    "type": "channel",
                    "subtype": "noteOff",
                    "channel": 8,
                    "noteNumber": 57,
                    "velocity": 0,
                    "lightChannels": [
                        1
                    ]
                }
            }
        }
    },
    {
        "changes": {
            "tree": 1
        },
        "timeout": 0.008474566666666666,
        "raw": {
            "tree": {
                "pinValue": 1,
                "ticks": 4,
                "event": {
                    "deltaTime": 4,
                    "type": "channel",
                    "subtype": "noteOn",
                    "channel": 9,
                    "noteNumber": 60,
                    "velocity": 115,
                    "lightChannels": [
                        9
                    ]
                }
            }
        }
    },
    {
        "changes": {
            "bottom-right": 1
        },
        "timeout": 0.008474566666666666,
        "raw": {
            "bottom-right": {
                "pinValue": 1,
                "ticks": 8,
                "event": {
                    "deltaTime": 8,
                    "type": "channel",
                    "subtype": "noteOn",
                    "channel": 8,
                    "noteNumber": 55,
                    "velocity": 123,
                    "lightChannels": [
                        2
                    ]
                }
            }
        }
    },
    {
        "changes": {
            "window": 0,
            "outline": 0
        },
        "timeout": 0.03283894583333333,
        "raw": {
            "window": {
                "pinValue": 0,
                "ticks": 29,
                "event": {
                    "deltaTime": 29,
                    "type": "channel",
                    "subtype": "noteOff",
                    "channel": 9,
                    "noteNumber": 54,
                    "velocity": 0,
                    "lightChannels": [
                        6,
                        7
                    ]
                }
            },
            "outline": {
                "pinValue": 0,
                "ticks": 29,
                "event": {
                    "deltaTime": 29,
                    "type": "channel",
                    "subtype": "noteOff",
                    "channel": 9,
                    "noteNumber": 54,
                    "velocity": 0,
                    "lightChannels": [
                        6,
                        7
                    ]
                }
            }
        }
    },
    {
        "changes": {
            "tree": 0
        },
        "timeout": 0.02648302083333333,
        "raw": {
            "tree": {
                "pinValue": 0,
                "ticks": 11,
                "event": {
                    "deltaTime": 11,
                    "type": "channel",
                    "subtype": "noteOff",
                    "channel": 9,
                    "noteNumber": 60,
                    "velocity": 0,
                    "lightChannels": [
                        9
                    ]
                }
            }
        }
    },
    {
        "changes": {
            "bottom-right": 0
        },
        "timeout": 0.13453374583333333,
        "raw": {
            "bottom-right": {
                "pinValue": 0,
                "ticks": 115,
                "event": {
                    "deltaTime": 115,
                    "type": "channel",
                    "subtype": "noteOff",
                    "channel": 8,
                    "noteNumber": 55,
                    "velocity": 0,
                    "lightChannels": [
                        2
                    ]
                }
            }
        }
    },
    {
        "changes": {
            "garage": 1,
            "top-right": 1,
            "bottom-right": 1
        },
        "timeout": 0.04237283333333333,
        "raw": {
            "garage": {
                "pinValue": 1,
                "ticks": 0,
                "event": {
                    "deltaTime": 0,
                    "type": "channel",
                    "subtype": "noteOn",
                    "channel": 8,
                    "noteNumber": 54,
                    "velocity": 124,
                    "lightChannels": [
                        0,
                        1,
                        2
                    ]
                }
            },
            "top-right": {
                "pinValue": 1,
                "ticks": 0,
                "event": {
                    "deltaTime": 0,
                    "type": "channel",
                    "subtype": "noteOn",
                    "channel": 8,
                    "noteNumber": 54,
                    "velocity": 124,
                    "lightChannels": [
                        0,
                        1,
                        2
                    ]
                }
            },
            "bottom-right": {
                "pinValue": 1,
                "ticks": 0,
                "event": {
                    "deltaTime": 0,
                    "type": "channel",
                    "subtype": "noteOn",
                    "channel": 8,
                    "noteNumber": 54,
                    "velocity": 124,
                    "lightChannels": [
                        0,
                        1,
                        2
                    ]
                }
            }
        }
    },
    {
        "changes": {
            "garden": 1
        },
        "timeout": 0.0031779624999999996,
        "raw": {
            "garden": {
                "pinValue": 1,
                "ticks": 0,
                "event": {
                    "deltaTime": 0,
                    "type": "channel",
                    "subtype": "noteOn",
                    "channel": 9,
                    "noteNumber": 61,
                    "velocity": 126,
                    "lightChannels": [
                        8
                    ]
                }
            }
        }
    },
    {
        "changes": {
            "window": 1,
            "outline": 1
        },
        "timeout": 0.0010593208333333332,
        "raw": {
            "window": {
                "pinValue": 1,
                "ticks": 0,
                "event": {
                    "deltaTime": 0,
                    "type": "channel",
                    "subtype": "noteOn",
                    "channel": 9,
                    "noteNumber": 54,
                    "velocity": 95,
                    "lightChannels": [
                        6,
                        7
                    ]
                }
            },
            "outline": {
                "pinValue": 1,
                "ticks": 0,
                "event": {
                    "deltaTime": 0,
                    "type": "channel",
                    "subtype": "noteOn",
                    "channel": 9,
                    "noteNumber": 54,
                    "velocity": 95,
                    "lightChannels": [
                        6,
                        7
                    ]
                }
            }
        }
    },
    {
        "changes": {
            "garden": 0
        },
        "timeout": 0.05402536249999999,
        "raw": {
            "garden": {
                "pinValue": 0,
                "ticks": 39,
                "event": {
                    "deltaTime": 39,
                    "type": "channel",
                    "subtype": "noteOff",
                    "channel": 9,
                    "noteNumber": 61,
                    "velocity": 0,
                    "lightChannels": [
                        8
                    ]
                }
            }
        }
    },
    {
        "changes": {
            "window": 0,
            "outline": 0
        },
        "timeout": 0.0095338875,
        "raw": {
            "window": {
                "pinValue": 0,
                "ticks": 4,
                "event": {
                    "deltaTime": 4,
                    "type": "channel",
                    "subtype": "noteOff",
                    "channel": 9,
                    "noteNumber": 54,
                    "velocity": 0,
                    "lightChannels": [
                        6,
                        7
                    ]
                }
            },
            "outline": {
                "pinValue": 0,
                "ticks": 4,
                "event": {
                    "deltaTime": 4,
                    "type": "channel",
                    "subtype": "noteOff",
                    "channel": 9,
                    "noteNumber": 54,
                    "velocity": 0,
                    "lightChannels": [
                        6,
                        7
                    ]
                }
            }
        }
    },
    {
        "changes": {
            "col-1": 1,
            "col-3": 1
        },
        "timeout": 0.2076268833333333,
        "raw": {
            "col-1": {
                "pinValue": 1,
                "ticks": 10,
                "event": {
                    "deltaTime": 10,
                    "type": "channel",
                    "subtype": "noteOn",
                    "channel": 7,
                    "noteNumber": 64,
                    "velocity": 121,
                    "lightChannels": [
                        3,
                        5
                    ]
                }
            },
            "col-3": {
                "pinValue": 1,
                "ticks": 10,
                "event": {
                    "deltaTime": 10,
                    "type": "channel",
                    "subtype": "noteOn",
                    "channel": 7,
                    "noteNumber": 64,
                    "velocity": 121,
                    "lightChannels": [
                        3,
                        5
                    ]
                }
            }
        }
    },
    {
        "changes": {
            "col-1": 0,
            "col-3": 0
        },
        "timeout": 0.21186416666666666,
        "raw": {
            "col-1": {
                "pinValue": 0,
                "ticks": 35,
                "event": {
                    "deltaTime": 35,
                    "type": "channel",
                    "subtype": "noteOff",
                    "channel": 7,
                    "noteNumber": 64,
                    "velocity": 0,
                    "lightChannels": [
                        3,
                        5
                    ]
                }
            },
            "col-3": {
                "pinValue": 0,
                "ticks": 35,
                "event": {
                    "deltaTime": 35,
                    "type": "channel",
                    "subtype": "noteOff",
                    "channel": 7,
                    "noteNumber": 64,
                    "velocity": 0,
                    "lightChannels": [
                        3,
                        5
                    ]
                }
            }
        }
    },
    {
        "changes": {
            "col-2": 1
        },
        "timeout": 0.04449147499999999,
        "raw": {
            "col-2": {
                "pinValue": 1,
                "ticks": 14,
                "event": {
                    "deltaTime": 14,
                    "type": "channel",
                    "subtype": "noteOn",
                    "channel": 7,
                    "noteNumber": 62,
                    "velocity": 118,
                    "lightChannels": [
                        4
                    ]
                }
            }
        }
    },
    {
        "changes": {
            "col-2": 0
        },
        "timeout": 0.1048727625,
        "raw": {
            "col-2": {
                "pinValue": 0,
                "ticks": 23,
                "event": {
                    "deltaTime": 23,
                    "type": "channel",
                    "subtype": "noteOff",
                    "channel": 7,
                    "noteNumber": 62,
                    "velocity": 0,
                    "lightChannels": [
                        4
                    ]
                }
            }
        }
    },
    {
        "changes": {
            "window": 1,
            "outline": 1
        },
        "timeout": 0.1567794833333333,
        "raw": {
            "window": {
                "pinValue": 1,
                "ticks": 4,
                "event": {
                    "deltaTime": 4,
                    "type": "channel",
                    "subtype": "noteOn",
                    "channel": 9,
                    "noteNumber": 54,
                    "velocity": 91,
                    "lightChannels": [
                        6,
                        7
                    ]
                }
            },
            "outline": {
                "pinValue": 1,
                "ticks": 4,
                "event": {
                    "deltaTime": 4,
                    "type": "channel",
                    "subtype": "noteOn",
                    "channel": 9,
                    "noteNumber": 54,
                    "velocity": 91,
                    "lightChannels": [
                        6,
                        7
                    ]
                }
            }
        }
    },
    {
        "changes": {
            "window": 0,
            "outline": 0
        },
        "timeout": 0.06249992916666666,
        "raw": {
            "window": {
                "pinValue": 0,
                "ticks": 59,
                "event": {
                    "deltaTime": 59,
                    "type": "channel",
                    "subtype": "noteOff",
                    "channel": 9,
                    "noteNumber": 54,
                    "velocity": 0,
                    "lightChannels": [
                        6,
                        7
                    ]
                }
            },
            "outline": {
                "pinValue": 0,
                "ticks": 59,
                "event": {
                    "deltaTime": 59,
                    "type": "channel",
                    "subtype": "noteOff",
                    "channel": 9,
                    "noteNumber": 54,
                    "velocity": 0,
                    "lightChannels": [
                        6,
                        7
                    ]
                }
            }
        }
    },
    {
        "changes": {
            "window": 1,
            "outline": 1
        },
        "timeout": 0.1917370708333333,
        "raw": {
            "window": {
                "pinValue": 1,
                "ticks": 25,
                "event": {
                    "deltaTime": 25,
                    "type": "channel",
                    "subtype": "noteOn",
                    "channel": 9,
                    "noteNumber": 54,
                    "velocity": 87,
                    "lightChannels": [
                        6,
                        7
                    ]
                }
            },
            "outline": {
                "pinValue": 1,
                "ticks": 25,
                "event": {
                    "deltaTime": 25,
                    "type": "channel",
                    "subtype": "noteOn",
                    "channel": 9,
                    "noteNumber": 54,
                    "velocity": 87,
                    "lightChannels": [
                        6,
                        7
                    ]
                }
            }
        }
    },
    {
        "changes": {
            "col-1": 1,
            "col-3": 1
        },
        "timeout": 0.012711849999999998,
        "raw": {
            "col-1": {
                "pinValue": 1,
                "ticks": 1,
                "event": {
                    "deltaTime": 1,
                    "type": "channel",
                    "subtype": "noteOn",
                    "channel": 7,
                    "noteNumber": 64,
                    "velocity": 121,
                    "lightChannels": [
                        3,
                        5
                    ]
                }
            },
            "col-3": {
                "pinValue": 1,
                "ticks": 1,
                "event": {
                    "deltaTime": 1,
                    "type": "channel",
                    "subtype": "noteOn",
                    "channel": 7,
                    "noteNumber": 64,
                    "velocity": 121,
                    "lightChannels": [
                        3,
                        5
                    ]
                }
            }
        }
    },
    {
        "changes": {
            "window": 0,
            "outline": 0
        },
        "timeout": 0.05402536249999999,
        "raw": {
            "window": {
                "pinValue": 0,
                "ticks": 1,
                "event": {
                    "deltaTime": 1,
                    "type": "channel",
                    "subtype": "noteOff",
                    "channel": 9,
                    "noteNumber": 54,
                    "velocity": 0,
                    "lightChannels": [
                        6,
                        7
                    ]
                }
            },
            "outline": {
                "pinValue": 0,
                "ticks": 1,
                "event": {
                    "deltaTime": 1,
                    "type": "channel",
                    "subtype": "noteOff",
                    "channel": 9,
                    "noteNumber": 54,
                    "velocity": 0,
                    "lightChannels": [
                        6,
                        7
                    ]
                }
            }
        }
    },
    {
        "changes": {
            "garage": 0,
            "top-right": 0,
            "bottom-right": 0
        },
        "timeout": 0.07203381666666667,
        "raw": {
            "garage": {
                "pinValue": 0,
                "ticks": 28,
                "event": {
                    "deltaTime": 28,
                    "type": "channel",
                    "subtype": "noteOff",
                    "channel": 8,
                    "noteNumber": 54,
                    "velocity": 0,
                    "lightChannels": [
                        0,
                        1,
                        2
                    ]
                }
            },
            "top-right": {
                "pinValue": 0,
                "ticks": 28,
                "event": {
                    "deltaTime": 28,
                    "type": "channel",
                    "subtype": "noteOff",
                    "channel": 8,
                    "noteNumber": 54,
                    "velocity": 0,
                    "lightChannels": [
                        0,
                        1,
                        2
                    ]
                }
            },
            "bottom-right": {
                "pinValue": 0,
                "ticks": 28,
                "event": {
                    "deltaTime": 28,
                    "type": "channel",
                    "subtype": "noteOff",
                    "channel": 8,
                    "noteNumber": 54,
                    "velocity": 0,
                    "lightChannels": [
                        0,
                        1,
                        2
                    ]
                }
            }
        }
    },
    {
        "changes": {
            "col-1": 0,
            "col-3": 0
        },
        "timeout": 0.06461857083333333,
        "raw": {
            "col-1": {
                "pinValue": 0,
                "ticks": 24,
                "event": {
                    "deltaTime": 24,
                    "type": "channel",
                    "subtype": "noteOff",
                    "channel": 7,
                    "noteNumber": 64,
                    "velocity": 0,
                    "lightChannels": [
                        3,
                        5
                    ]
                }
            },
            "col-3": {
                "pinValue": 0,
                "ticks": 24,
                "event": {
                    "deltaTime": 24,
                    "type": "channel",
                    "subtype": "noteOff",
                    "channel": 7,
                    "noteNumber": 64,
                    "velocity": 0,
                    "lightChannels": [
                        3,
                        5
                    ]
                }
            }
        }
    },
    {
        "changes": {
            "col-2": 1
        },
        "timeout": 0.04449147499999999,
        "raw": {
            "col-2": {
                "pinValue": 1,
                "ticks": 6,
                "event": {
                    "deltaTime": 6,
                    "type": "channel",
                    "subtype": "noteOn",
                    "channel": 7,
                    "noteNumber": 62,
                    "velocity": 113,
                    "lightChannels": [
                        4
                    ]
                }
            }
        }
    },
    {
        "changes": {
            "col-2": 0
        },
        "timeout": 0.108050725,
        "raw": {
            "col-2": {
                "pinValue": 0,
                "ticks": 8,
                "event": {
                    "deltaTime": 8,
                    "type": "channel",
                    "subtype": "noteOff",
                    "channel": 7,
                    "noteNumber": 62,
                    "velocity": 0,
                    "lightChannels": [
                        4
                    ]
                }
            }
        }
    },
    {
        "changes": {
            "window": 1,
            "outline": 1
        },
        "timeout": 0.17796589999999998,
        "raw": {
            "window": {
                "pinValue": 1,
                "ticks": 0,
                "event": {
                    "deltaTime": 0,
                    "type": "channel",
                    "subtype": "noteOn",
                    "channel": 9,
                    "noteNumber": 54,
                    "velocity": 85,
                    "lightChannels": [
                        6,
                        7
                    ]
                }
            },
            "outline": {
                "pinValue": 1,
                "ticks": 0,
                "event": {
                    "deltaTime": 0,
                    "type": "channel",
                    "subtype": "noteOn",
                    "channel": 9,
                    "noteNumber": 54,
                    "velocity": 85,
                    "lightChannels": [
                        6,
                        7
                    ]
                }
            }
        }
    },
    {
        "changes": {
            "window": 0,
            "outline": 0
        },
        "timeout": 0.06038128749999999,
        "raw": {
            "window": {
                "pinValue": 0,
                "ticks": 11,
                "event": {
                    "deltaTime": 11,
                    "type": "channel",
                    "subtype": "noteOff",
                    "channel": 9,
                    "noteNumber": 54,
                    "velocity": 0,
                    "lightChannels": [
                        6,
                        7
                    ]
                }
            },
            "outline": {
                "pinValue": 0,
                "ticks": 11,
                "event": {
                    "deltaTime": 11,
                    "type": "channel",
                    "subtype": "noteOff",
                    "channel": 9,
                    "noteNumber": 54,
                    "velocity": 0,
                    "lightChannels": [
                        6,
                        7
                    ]
                }
            }
        }
    },
    {
        "changes": {
            "col-1": 1,
            "window": 1,
            "outline": 1
        },
        "timeout": 0.1885591083333333,
        "raw": {
            "col-1": {
                "pinValue": 1,
                "ticks": 10,
                "event": {
                    "deltaTime": 10,
                    "type": "channel",
                    "subtype": "noteOn",
                    "channel": 3,
                    "noteNumber": 77,
                    "velocity": 113,
                    "lightChannels": [
                        3
                    ]
                }
            },
            "window": {
                "pinValue": 1,
                "ticks": 0,
                "event": {
                    "deltaTime": 0,
                    "type": "channel",
                    "subtype": "noteOn",
                    "channel": 9,
                    "noteNumber": 54,
                    "velocity": 83,
                    "lightChannels": [
                        6,
                        7
                    ]
                }
            },
            "outline": {
                "pinValue": 1,
                "ticks": 0,
                "event": {
                    "deltaTime": 0,
                    "type": "channel",
                    "subtype": "noteOn",
                    "channel": 9,
                    "noteNumber": 54,
                    "velocity": 83,
                    "lightChannels": [
                        6,
                        7
                    ]
                }
            }
        }
    },
    {
        "changes": {
            "window": 0,
            "outline": 0
        },
        "timeout": 0.06038128749999999,
        "raw": {
            "window": {
                "pinValue": 0,
                "ticks": 1,
                "event": {
                    "deltaTime": 1,
                    "type": "channel",
                    "subtype": "noteOff",
                    "channel": 9,
                    "noteNumber": 54,
                    "velocity": 0,
                    "lightChannels": [
                        6,
                        7
                    ]
                }
            },
            "outline": {
                "pinValue": 0,
                "ticks": 1,
                "event": {
                    "deltaTime": 1,
                    "type": "channel",
                    "subtype": "noteOff",
                    "channel": 9,
                    "noteNumber": 54,
                    "velocity": 0,
                    "lightChannels": [
                        6,
                        7
                    ]
                }
            }
        }
    },
    {
        "changes": {
            "col-1": 0
        },
        "timeout": 0.008474566666666666,
        "raw": {
            "col-1": {
                "pinValue": 0,
                "ticks": 8,
                "event": {
                    "deltaTime": 8,
                    "type": "channel",
                    "subtype": "noteOff",
                    "channel": 3,
                    "noteNumber": 77,
                    "velocity": 0,
                    "lightChannels": [
                        3
                    ]
                }
            }
        }
    },
    {
        "changes": {
            "col-2": 1
        },
        "timeout": 0.029660983333333328,
        "raw": {
            "col-2": {
                "pinValue": 1,
                "ticks": 2,
                "event": {
                    "deltaTime": 2,
                    "type": "channel",
                    "subtype": "noteOn",
                    "channel": 3,
                    "noteNumber": 76,
                    "velocity": 109,
                    "lightChannels": [
                        4
                    ]
                }
            }
        }
    },
    {
        "changes": {
            "col-2": 0
        },
        "timeout": 0.057203325,
        "raw": {
            "col-2": {
                "pinValue": 0,
                "ticks": 1,
                "event": {
                    "deltaTime": 1,
                    "type": "channel",
                    "subtype": "noteOff",
                    "channel": 3,
                    "noteNumber": 76,
                    "velocity": 0,
                    "lightChannels": [
                        4
                    ]
                }
            }
        }
    },
    {
        "changes": {
            "col-3": 1
        },
        "timeout": 0.004237283333333333,
        "raw": {
            "col-3": {
                "pinValue": 1,
                "ticks": 2,
                "event": {
                    "deltaTime": 2,
                    "type": "channel",
                    "subtype": "noteOn",
                    "channel": 3,
                    "noteNumber": 77,
                    "velocity": 116,
                    "lightChannels": [
                        5
                    ]
                }
            }
        }
    },
    {
        "changes": {
            "col-3": 0
        },
        "timeout": 0.05720332499999999,
        "raw": {
            "col-3": {
                "pinValue": 0,
                "ticks": 4,
                "event": {
                    "deltaTime": 4,
                    "type": "channel",
                    "subtype": "noteOff",
                    "channel": 3,
                    "noteNumber": 77,
                    "velocity": 0,
                    "lightChannels": [
                        5
                    ]
                }
            }
        }
    },
    {
        "changes": {
            "col-1": 1,
            "col-2": 1,
            "col-3": 1
        },
        "timeout": 0.0031779624999999996,
        "raw": {
            "col-1": {
                "pinValue": 1,
                "ticks": 0,
                "event": {
                    "deltaTime": 0,
                    "type": "channel",
                    "subtype": "noteOn",
                    "channel": 3,
                    "noteNumber": 81,
                    "velocity": 121,
                    "lightChannels": [
                        3,
                        4,
                        5
                    ]
                }
            },
            "col-2": {
                "pinValue": 1,
                "ticks": 0,
                "event": {
                    "deltaTime": 0,
                    "type": "channel",
                    "subtype": "noteOn",
                    "channel": 3,
                    "noteNumber": 81,
                    "velocity": 121,
                    "lightChannels": [
                        3,
                        4,
                        5
                    ]
                }
            },
            "col-3": {
                "pinValue": 1,
                "ticks": 0,
                "event": {
                    "deltaTime": 0,
                    "type": "channel",
                    "subtype": "noteOn",
                    "channel": 3,
                    "noteNumber": 81,
                    "velocity": 121,
                    "lightChannels": [
                        3,
                        4,
                        5
                    ]
                }
            }
        }
    },
    {
        "changes": {
            "garage": 1,
            "top-right": 1,
            "bottom-right": 1
        },
        "timeout": 0.012711849999999998,
        "raw": {
            "garage": {
                "pinValue": 1,
                "ticks": 0,
                "event": {
                    "deltaTime": 0,
                    "type": "channel",
                    "subtype": "noteOn",
                    "channel": 8,
                    "noteNumber": 53,
                    "velocity": 116,
                    "lightChannels": [
                        0,
                        1,
                        2
                    ]
                }
            },
            "top-right": {
                "pinValue": 1,
                "ticks": 0,
                "event": {
                    "deltaTime": 0,
                    "type": "channel",
                    "subtype": "noteOn",
                    "channel": 8,
                    "noteNumber": 53,
                    "velocity": 116,
                    "lightChannels": [
                        0,
                        1,
                        2
                    ]
                }
            },
            "bottom-right": {
                "pinValue": 1,
                "ticks": 0,
                "event": {
                    "deltaTime": 0,
                    "type": "channel",
                    "subtype": "noteOn",
                    "channel": 8,
                    "noteNumber": 53,
                    "velocity": 116,
                    "lightChannels": [
                        0,
                        1,
                        2
                    ]
                }
            }
        }
    },
    {
        "changes": {
            "window": 1,
            "outline": 1
        },
        "timeout": 0.019067775,
        "raw": {
            "window": {
                "pinValue": 1,
                "ticks": 1,
                "event": {
                    "deltaTime": 1,
                    "type": "channel",
                    "subtype": "noteOn",
                    "channel": 9,
                    "noteNumber": 54,
                    "velocity": 80,
                    "lightChannels": [
                        6,
                        7
                    ]
                }
            },
            "outline": {
                "pinValue": 1,
                "ticks": 1,
                "event": {
                    "deltaTime": 1,
                    "type": "channel",
                    "subtype": "noteOn",
                    "channel": 9,
                    "noteNumber": 54,
                    "velocity": 80,
                    "lightChannels": [
                        6,
                        7
                    ]
                }
            }
        }
    },
    {
        "changes": {
            "window": 0,
            "outline": 0
        },
        "timeout": 0.057203325,
        "raw": {
            "window": {
                "pinValue": 0,
                "ticks": 5,
                "event": {
                    "deltaTime": 5,
                    "type": "channel",
                    "subtype": "noteOff",
                    "channel": 9,
                    "noteNumber": 54,
                    "velocity": 0,
                    "lightChannels": [
                        6,
                        7
                    ]
                }
            },
            "outline": {
                "pinValue": 0,
                "ticks": 5,
                "event": {
                    "deltaTime": 5,
                    "type": "channel",
                    "subtype": "noteOff",
                    "channel": 9,
                    "noteNumber": 54,
                    "velocity": 0,
                    "lightChannels": [
                        6,
                        7
                    ]
                }
            }
        }
    },
    {
        "changes": {
            "col-1": 0,
            "col-2": 0,
            "col-3": 0
        },
        "timeout": 0.025423699999999997,
        "raw": {
            "col-1": {
                "pinValue": 0,
                "ticks": 5,
                "event": {
                    "deltaTime": 5,
                    "type": "channel",
                    "subtype": "noteOff",
                    "channel": 3,
                    "noteNumber": 81,
                    "velocity": 0,
                    "lightChannels": [
                        3,
                        4,
                        5
                    ]
                }
            },
            "col-2": {
                "pinValue": 0,
                "ticks": 5,
                "event": {
                    "deltaTime": 5,
                    "type": "channel",
                    "subtype": "noteOff",
                    "channel": 3,
                    "noteNumber": 81,
                    "velocity": 0,
                    "lightChannels": [
                        3,
                        4,
                        5
                    ]
                }
            },
            "col-3": {
                "pinValue": 0,
                "ticks": 5,
                "event": {
                    "deltaTime": 5,
                    "type": "channel",
                    "subtype": "noteOff",
                    "channel": 3,
                    "noteNumber": 81,
                    "velocity": 0,
                    "lightChannels": [
                        3,
                        4,
                        5
                    ]
                }
            }
        }
    },
    {
        "changes": {
            "window": 1,
            "outline": 1
        },
        "timeout": 0.15254219999999996,
        "raw": {
            "window": {
                "pinValue": 1,
                "ticks": 3,
                "event": {
                    "deltaTime": 3,
                    "type": "channel",
                    "subtype": "noteOn",
                    "channel": 9,
                    "noteNumber": 54,
                    "velocity": 75,
                    "lightChannels": [
                        6,
                        7
                    ]
                }
            },
            "outline": {
                "pinValue": 1,
                "ticks": 3,
                "event": {
                    "deltaTime": 3,
                    "type": "channel",
                    "subtype": "noteOn",
                    "channel": 9,
                    "noteNumber": 54,
                    "velocity": 75,
                    "lightChannels": [
                        6,
                        7
                    ]
                }
            }
        }
    },
    {
        "changes": {
            "col-1": 1,
            "tree": 1
        },
        "timeout": 0.011652529166666665,
        "raw": {
            "col-1": {
                "pinValue": 1,
                "ticks": 6,
                "event": {
                    "deltaTime": 6,
                    "type": "channel",
                    "subtype": "noteOn",
                    "channel": 3,
                    "noteNumber": 77,
                    "velocity": 112,
                    "lightChannels": [
                        3
                    ]
                }
            },
            "tree": {
                "pinValue": 1,
                "ticks": 0,
                "event": {
                    "deltaTime": 0,
                    "type": "channel",
                    "subtype": "noteOn",
                    "channel": 9,
                    "noteNumber": 60,
                    "velocity": 118,
                    "lightChannels": [
                        9
                    ]
                }
            }
        }
    },
    {
        "changes": {
            "window": 0,
            "outline": 0
        },
        "timeout": 0.045550795833333324,
        "raw": {
            "window": {
                "pinValue": 0,
                "ticks": 11,
                "event": {
                    "deltaTime": 11,
                    "type": "channel",
                    "subtype": "noteOff",
                    "channel": 9,
                    "noteNumber": 54,
                    "velocity": 0,
                    "lightChannels": [
                        6,
                        7
                    ]
                }
            },
            "outline": {
                "pinValue": 0,
                "ticks": 11,
                "event": {
                    "deltaTime": 11,
                    "type": "channel",
                    "subtype": "noteOff",
                    "channel": 9,
                    "noteNumber": 54,
                    "velocity": 0,
                    "lightChannels": [
                        6,
                        7
                    ]
                }
            }
        }
    },
    {
        "changes": {
            "col-1": 0
        },
        "timeout": 0.01694913333333333,
        "raw": {
            "col-1": {
                "pinValue": 0,
                "ticks": 9,
                "event": {
                    "deltaTime": 9,
                    "type": "channel",
                    "subtype": "noteOff",
                    "channel": 3,
                    "noteNumber": 77,
                    "velocity": 0,
                    "lightChannels": [
                        3
                    ]
                }
            }
        }
    },
    {
        "changes": {
            "tree": 0
        },
        "timeout": 0.004237283333333333,
        "raw": {
            "tree": {
                "pinValue": 0,
                "ticks": 0,
                "event": {
                    "deltaTime": 0,
                    "type": "channel",
                    "subtype": "noteOff",
                    "channel": 9,
                    "noteNumber": 60,
                    "velocity": 0,
                    "lightChannels": [
                        9
                    ]
                }
            }
        }
    },
    {
        "changes": {
            "col-2": 1
        },
        "timeout": 0.01694913333333333,
        "raw": {
            "col-2": {
                "pinValue": 1,
                "ticks": 4,
                "event": {
                    "deltaTime": 4,
                    "type": "channel",
                    "subtype": "noteOn",
                    "channel": 3,
                    "noteNumber": 76,
                    "velocity": 111,
                    "lightChannels": [
                        4
                    ]
                }
            }
        }
    },
    {
        "changes": {
            "col-2": 0
        },
        "timeout": 0.05508468333333333,
        "raw": {
            "col-2": {
                "pinValue": 0,
                "ticks": 11,
                "event": {
                    "deltaTime": 11,
                    "type": "channel",
                    "subtype": "noteOff",
                    "channel": 3,
                    "noteNumber": 76,
                    "velocity": 0,
                    "lightChannels": [
                        4
                    ]
                }
            }
        }
    },
    {
        "changes": {
            "col-3": 1
        },
        "timeout": 0.007415245833333332,
        "raw": {
            "col-3": {
                "pinValue": 1,
                "ticks": 4,
                "event": {
                    "deltaTime": 4,
                    "type": "channel",
                    "subtype": "noteOn",
                    "channel": 3,
                    "noteNumber": 77,
                    "velocity": 112,
                    "lightChannels": [
                        5
                    ]
                }
            }
        }
    },
    {
        "changes": {
            "col-3": 0
        },
        "timeout": 0.05720332499999999,
        "raw": {
            "col-3": {
                "pinValue": 0,
                "ticks": 0,
                "event": {
                    "deltaTime": 0,
                    "type": "channel",
                    "subtype": "noteOff",
                    "channel": 3,
                    "noteNumber": 77,
                    "velocity": 0,
                    "lightChannels": [
                        5
                    ]
                }
            }
        }
    },
    {
        "changes": {
            "window": 1,
            "outline": 1
        },
        "timeout": 0.01694913333333333,
        "raw": {
            "window": {
                "pinValue": 1,
                "ticks": 6,
                "event": {
                    "deltaTime": 6,
                    "type": "channel",
                    "subtype": "noteOn",
                    "channel": 9,
                    "noteNumber": 54,
                    "velocity": 81,
                    "lightChannels": [
                        6,
                        7
                    ]
                }
            },
            "outline": {
                "pinValue": 1,
                "ticks": 6,
                "event": {
                    "deltaTime": 6,
                    "type": "channel",
                    "subtype": "noteOn",
                    "channel": 9,
                    "noteNumber": 54,
                    "velocity": 81,
                    "lightChannels": [
                        6,
                        7
                    ]
                }
            }
        }
    },
    {
        "changes": {
            "col-1": 1,
            "col-2": 1,
            "col-3": 1
        },
        "timeout": 0.0010593208333333332,
        "raw": {
            "col-1": {
                "pinValue": 1,
                "ticks": 1,
                "event": {
                    "deltaTime": 1,
                    "type": "channel",
                    "subtype": "noteOn",
                    "channel": 3,
                    "noteNumber": 81,
                    "velocity": 119,
                    "lightChannels": [
                        3,
                        4,
                        5
                    ]
                }
            },
            "col-2": {
                "pinValue": 1,
                "ticks": 1,
                "event": {
                    "deltaTime": 1,
                    "type": "channel",
                    "subtype": "noteOn",
                    "channel": 3,
                    "noteNumber": 81,
                    "velocity": 119,
                    "lightChannels": [
                        3,
                        4,
                        5
                    ]
                }
            },
            "col-3": {
                "pinValue": 1,
                "ticks": 1,
                "event": {
                    "deltaTime": 1,
                    "type": "channel",
                    "subtype": "noteOn",
                    "channel": 3,
                    "noteNumber": 81,
                    "velocity": 119,
                    "lightChannels": [
                        3,
                        4,
                        5
                    ]
                }
            }
        }
    },
    {
        "changes": {
            "garden": 1
        },
        "timeout": 0.010593208333333333,
        "raw": {
            "garden": {
                "pinValue": 1,
                "ticks": 0,
                "event": {
                    "deltaTime": 0,
                    "type": "channel",
                    "subtype": "noteOn",
                    "channel": 9,
                    "noteNumber": 61,
                    "velocity": 124,
                    "lightChannels": [
                        8
                    ]
                }
            }
        }
    },
    {
        "changes": {
            "window": 0,
            "outline": 0
        },
        "timeout": 0.046610116666666666,
        "raw": {
            "window": {
                "pinValue": 0,
                "ticks": 30,
                "event": {
                    "deltaTime": 30,
                    "type": "channel",
                    "subtype": "noteOff",
                    "channel": 9,
                    "noteNumber": 54,
                    "velocity": 0,
                    "lightChannels": [
                        6,
                        7
                    ]
                }
            },
            "outline": {
                "pinValue": 0,
                "ticks": 30,
                "event": {
                    "deltaTime": 30,
                    "type": "channel",
                    "subtype": "noteOff",
                    "channel": 9,
                    "noteNumber": 54,
                    "velocity": 0,
                    "lightChannels": [
                        6,
                        7
                    ]
                }
            }
        }
    },
    {
        "changes": {
            "garden": 0
        },
        "timeout": 0.018008454166666667,
        "raw": {
            "garden": {
                "pinValue": 0,
                "ticks": 12,
                "event": {
                    "deltaTime": 12,
                    "type": "channel",
                    "subtype": "noteOff",
                    "channel": 9,
                    "noteNumber": 61,
                    "velocity": 0,
                    "lightChannels": [
                        8
                    ]
                }
            }
        }
    },
    {
        "changes": {
            "col-1": 0,
            "col-2": 0,
            "col-3": 0
        },
        "timeout": 0.02648302083333333,
        "raw": {
            "col-1": {
                "pinValue": 0,
                "ticks": 3,
                "event": {
                    "deltaTime": 3,
                    "type": "channel",
                    "subtype": "noteOff",
                    "channel": 3,
                    "noteNumber": 81,
                    "velocity": 0,
                    "lightChannels": [
                        3,
                        4,
                        5
                    ]
                }
            },
            "col-2": {
                "pinValue": 0,
                "ticks": 3,
                "event": {
                    "deltaTime": 3,
                    "type": "channel",
                    "subtype": "noteOff",
                    "channel": 3,
                    "noteNumber": 81,
                    "velocity": 0,
                    "lightChannels": [
                        3,
                        4,
                        5
                    ]
                }
            },
            "col-3": {
                "pinValue": 0,
                "ticks": 3,
                "event": {
                    "deltaTime": 3,
                    "type": "channel",
                    "subtype": "noteOff",
                    "channel": 3,
                    "noteNumber": 81,
                    "velocity": 0,
                    "lightChannels": [
                        3,
                        4,
                        5
                    ]
                }
            }
        }
    },
    {
        "changes": {
            "col-1": 1,
            "window": 1,
            "outline": 1
        },
        "timeout": 0.14830491666666665,
        "raw": {
            "col-1": {
                "pinValue": 1,
                "ticks": 10,
                "event": {
                    "deltaTime": 10,
                    "type": "channel",
                    "subtype": "noteOn",
                    "channel": 3,
                    "noteNumber": 77,
                    "velocity": 115,
                    "lightChannels": [
                        3
                    ]
                }
            },
            "window": {
                "pinValue": 1,
                "ticks": 0,
                "event": {
                    "deltaTime": 0,
                    "type": "channel",
                    "subtype": "noteOn",
                    "channel": 9,
                    "noteNumber": 54,
                    "velocity": 85,
                    "lightChannels": [
                        6,
                        7
                    ]
                }
            },
            "outline": {
                "pinValue": 1,
                "ticks": 0,
                "event": {
                    "deltaTime": 0,
                    "type": "channel",
                    "subtype": "noteOn",
                    "channel": 9,
                    "noteNumber": 54,
                    "velocity": 85,
                    "lightChannels": [
                        6,
                        7
                    ]
                }
            }
        }
    },
    {
        "changes": {
            "tree": 1
        },
        "timeout": 0.007415245833333332,
        "raw": {
            "tree": {
                "pinValue": 1,
                "ticks": 7,
                "event": {
                    "deltaTime": 7,
                    "type": "channel",
                    "subtype": "noteOn",
                    "channel": 9,
                    "noteNumber": 60,
                    "velocity": 111,
                    "lightChannels": [
                        9
                    ]
                }
            }
        }
    },
    {
        "changes": {
            "window": 0,
            "outline": 0
        },
        "timeout": 0.05508468333333333,
        "raw": {
            "window": {
                "pinValue": 0,
                "ticks": 3,
                "event": {
                    "deltaTime": 3,
                    "type": "channel",
                    "subtype": "noteOff",
                    "channel": 9,
                    "noteNumber": 54,
                    "velocity": 0,
                    "lightChannels": [
                        6,
                        7
                    ]
                }
            },
            "outline": {
                "pinValue": 0,
                "ticks": 3,
                "event": {
                    "deltaTime": 3,
                    "type": "channel",
                    "subtype": "noteOff",
                    "channel": 9,
                    "noteNumber": 54,
                    "velocity": 0,
                    "lightChannels": [
                        6,
                        7
                    ]
                }
            }
        }
    },
    {
        "changes": {
            "col-1": 0
        },
        "timeout": 0.004237283333333333,
        "raw": {
            "col-1": {
                "pinValue": 0,
                "ticks": 4,
                "event": {
                    "deltaTime": 4,
                    "type": "channel",
                    "subtype": "noteOff",
                    "channel": 3,
                    "noteNumber": 77,
                    "velocity": 0,
                    "lightChannels": [
                        3
                    ]
                }
            }
        }
    },
    {
        "changes": {
            "tree": 0
        },
        "timeout": 0.013771170833333332,
        "raw": {
            "tree": {
                "pinValue": 0,
                "ticks": 1,
                "event": {
                    "deltaTime": 1,
                    "type": "channel",
                    "subtype": "noteOff",
                    "channel": 9,
                    "noteNumber": 60,
                    "velocity": 0,
                    "lightChannels": [
                        9
                    ]
                }
            }
        }
    },
    {
        "changes": {
            "col-2": 1
        },
        "timeout": 0.014830491666666666,
        "raw": {
            "col-2": {
                "pinValue": 1,
                "ticks": 1,
                "event": {
                    "deltaTime": 1,
                    "type": "channel",
                    "subtype": "noteOn",
                    "channel": 3,
                    "noteNumber": 76,
                    "velocity": 109,
                    "lightChannels": [
                        4
                    ]
                }
            }
        }
    },
    {
        "changes": {
            "col-2": 0
        },
        "timeout": 0.05508468333333332,
        "raw": {
            "col-2": {
                "pinValue": 0,
                "ticks": 6,
                "event": {
                    "deltaTime": 6,
                    "type": "channel",
                    "subtype": "noteOff",
                    "channel": 3,
                    "noteNumber": 76,
                    "velocity": 0,
                    "lightChannels": [
                        4
                    ]
                }
            }
        }
    },
    {
        "changes": {
            "col-3": 1
        },
        "timeout": 0.010593208333333333,
        "raw": {
            "col-3": {
                "pinValue": 1,
                "ticks": 4,
                "event": {
                    "deltaTime": 4,
                    "type": "channel",
                    "subtype": "noteOn",
                    "channel": 3,
                    "noteNumber": 77,
                    "velocity": 113,
                    "lightChannels": [
                        5
                    ]
                }
            }
        }
    },
    {
        "changes": {
            "col-3": 0
        },
        "timeout": 0.06567789166666665,
        "raw": {
            "col-3": {
                "pinValue": 0,
                "ticks": 10,
                "event": {
                    "deltaTime": 10,
                    "type": "channel",
                    "subtype": "noteOff",
                    "channel": 3,
                    "noteNumber": 77,
                    "velocity": 0,
                    "lightChannels": [
                        5
                    ]
                }
            }
        }
    },
    {
        "changes": {
            "col-1": 1,
            "col-2": 1,
            "col-3": 1
        },
        "timeout": 0.01694913333333333,
        "raw": {
            "col-1": {
                "pinValue": 1,
                "ticks": 0,
                "event": {
                    "deltaTime": 0,
                    "type": "channel",
                    "subtype": "noteOn",
                    "channel": 3,
                    "noteNumber": 81,
                    "velocity": 119,
                    "lightChannels": [
                        3,
                        4,
                        5
                    ]
                }
            },
            "col-2": {
                "pinValue": 1,
                "ticks": 0,
                "event": {
                    "deltaTime": 0,
                    "type": "channel",
                    "subtype": "noteOn",
                    "channel": 3,
                    "noteNumber": 81,
                    "velocity": 119,
                    "lightChannels": [
                        3,
                        4,
                        5
                    ]
                }
            },
            "col-3": {
                "pinValue": 1,
                "ticks": 0,
                "event": {
                    "deltaTime": 0,
                    "type": "channel",
                    "subtype": "noteOn",
                    "channel": 3,
                    "noteNumber": 81,
                    "velocity": 119,
                    "lightChannels": [
                        3,
                        4,
                        5
                    ]
                }
            }
        }
    },
    {
        "changes": {
            "window": 1,
            "outline": 1
        },
        "timeout": 0.014830491666666668,
        "raw": {
            "window": {
                "pinValue": 1,
                "ticks": 2,
                "event": {
                    "deltaTime": 2,
                    "type": "channel",
                    "subtype": "noteOn",
                    "channel": 9,
                    "noteNumber": 54,
                    "velocity": 81,
                    "lightChannels": [
                        6,
                        7
                    ]
                }
            },
            "outline": {
                "pinValue": 1,
                "ticks": 2,
                "event": {
                    "deltaTime": 2,
                    "type": "channel",
                    "subtype": "noteOn",
                    "channel": 9,
                    "noteNumber": 54,
                    "velocity": 81,
                    "lightChannels": [
                        6,
                        7
                    ]
                }
            }
        }
    },
    {
        "changes": {
            "garden": 1
        },
        "timeout": 0.0010593208333333332,
        "raw": {
            "garden": {
                "pinValue": 1,
                "ticks": 1,
                "event": {
                    "deltaTime": 1,
                    "type": "channel",
                    "subtype": "noteOn",
                    "channel": 9,
                    "noteNumber": 61,
                    "velocity": 127,
                    "lightChannels": [
                        8
                    ]
                }
            }
        }
    },
    {
        "changes": {
            "window": 0,
            "outline": 0
        },
        "timeout": 0.047669437499999995,
        "raw": {
            "window": {
                "pinValue": 0,
                "ticks": 34,
                "event": {
                    "deltaTime": 34,
                    "type": "channel",
                    "subtype": "noteOff",
                    "channel": 9,
                    "noteNumber": 54,
                    "velocity": 0,
                    "lightChannels": [
                        6,
                        7
                    ]
                }
            },
            "outline": {
                "pinValue": 0,
                "ticks": 34,
                "event": {
                    "deltaTime": 34,
                    "type": "channel",
                    "subtype": "noteOff",
                    "channel": 9,
                    "noteNumber": 54,
                    "velocity": 0,
                    "lightChannels": [
                        6,
                        7
                    ]
                }
            }
        }
    },
    {
        "changes": {
            "garden": 0
        },
        "timeout": 0.014830491666666666,
        "raw": {
            "garden": {
                "pinValue": 0,
                "ticks": 1,
                "event": {
                    "deltaTime": 1,
                    "type": "channel",
                    "subtype": "noteOff",
                    "channel": 9,
                    "noteNumber": 61,
                    "velocity": 0,
                    "lightChannels": [
                        8
                    ]
                }
            }
        }
    },
    {
        "changes": {
            "col-1": 0,
            "col-2": 0,
            "col-3": 0
        },
        "timeout": 0.008474566666666666,
        "raw": {
            "col-1": {
                "pinValue": 0,
                "ticks": 0,
                "event": {
                    "deltaTime": 0,
                    "type": "channel",
                    "subtype": "noteOff",
                    "channel": 3,
                    "noteNumber": 81,
                    "velocity": 0,
                    "lightChannels": [
                        3,
                        4,
                        5
                    ]
                }
            },
            "col-2": {
                "pinValue": 0,
                "ticks": 0,
                "event": {
                    "deltaTime": 0,
                    "type": "channel",
                    "subtype": "noteOff",
                    "channel": 3,
                    "noteNumber": 81,
                    "velocity": 0,
                    "lightChannels": [
                        3,
                        4,
                        5
                    ]
                }
            },
            "col-3": {
                "pinValue": 0,
                "ticks": 0,
                "event": {
                    "deltaTime": 0,
                    "type": "channel",
                    "subtype": "noteOff",
                    "channel": 3,
                    "noteNumber": 81,
                    "velocity": 0,
                    "lightChannels": [
                        3,
                        4,
                        5
                    ]
                }
            }
        }
    },
    {
        "changes": {
            "garage": 0,
            "top-right": 0,
            "bottom-right": 0
        },
        "timeout": 0.049788079166666666,
        "raw": {
            "garage": {
                "pinValue": 0,
                "ticks": 7,
                "event": {
                    "deltaTime": 7,
                    "type": "channel",
                    "subtype": "noteOff",
                    "channel": 8,
                    "noteNumber": 53,
                    "velocity": 0,
                    "lightChannels": [
                        0,
                        1,
                        2
                    ]
                }
            },
            "top-right": {
                "pinValue": 0,
                "ticks": 7,
                "event": {
                    "deltaTime": 7,
                    "type": "channel",
                    "subtype": "noteOff",
                    "channel": 8,
                    "noteNumber": 53,
                    "velocity": 0,
                    "lightChannels": [
                        0,
                        1,
                        2
                    ]
                }
            },
            "bottom-right": {
                "pinValue": 0,
                "ticks": 7,
                "event": {
                    "deltaTime": 7,
                    "type": "channel",
                    "subtype": "noteOff",
                    "channel": 8,
                    "noteNumber": 53,
                    "velocity": 0,
                    "lightChannels": [
                        0,
                        1,
                        2
                    ]
                }
            }
        }
    },
    {
        "changes": {
            "tree": 1
        },
        "timeout": 0.11864393333333331,
        "raw": {
            "tree": {
                "pinValue": 1,
                "ticks": 4,
                "event": {
                    "deltaTime": 4,
                    "type": "channel",
                    "subtype": "noteOn",
                    "channel": 9,
                    "noteNumber": 60,
                    "velocity": 122,
                    "lightChannels": [
                        9
                    ]
                }
            }
        }
    },
    {
        "changes": {
            "window": 1,
            "outline": 1
        },
        "timeout": 0.010593208333333333,
        "raw": {
            "window": {
                "pinValue": 1,
                "ticks": 1,
                "event": {
                    "deltaTime": 1,
                    "type": "channel",
                    "subtype": "noteOn",
                    "channel": 9,
                    "noteNumber": 54,
                    "velocity": 80,
                    "lightChannels": [
                        6,
                        7
                    ]
                }
            },
            "outline": {
                "pinValue": 1,
                "ticks": 1,
                "event": {
                    "deltaTime": 1,
                    "type": "channel",
                    "subtype": "noteOn",
                    "channel": 9,
                    "noteNumber": 54,
                    "velocity": 80,
                    "lightChannels": [
                        6,
                        7
                    ]
                }
            }
        }
    },
    {
        "changes": {
            "garage": 1
        },
        "timeout": 0.010593208333333333,
        "raw": {
            "garage": {
                "pinValue": 1,
                "ticks": 0,
                "event": {
                    "deltaTime": 0,
                    "type": "channel",
                    "subtype": "noteOn",
                    "channel": 8,
                    "noteNumber": 57,
                    "velocity": 116,
                    "lightChannels": [
                        0
                    ]
                }
            }
        }
    },
    {
        "changes": {
            "tree": 0
        },
        "timeout": 0.04661011666666666,
        "raw": {
            "tree": {
                "pinValue": 0,
                "ticks": 30,
                "event": {
                    "deltaTime": 30,
                    "type": "channel",
                    "subtype": "noteOff",
                    "channel": 9,
                    "noteNumber": 60,
                    "velocity": 0,
                    "lightChannels": [
                        9
                    ]
                }
            }
        }
    },
    {
        "changes": {
            "window": 0,
            "outline": 0
        },
        "timeout": 0.0052966041666666665,
        "raw": {
            "window": {
                "pinValue": 0,
                "ticks": 5,
                "event": {
                    "deltaTime": 5,
                    "type": "channel",
                    "subtype": "noteOff",
                    "channel": 9,
                    "noteNumber": 54,
                    "velocity": 0,
                    "lightChannels": [
                        6,
                        7
                    ]
                }
            },
            "outline": {
                "pinValue": 0,
                "ticks": 5,
                "event": {
                    "deltaTime": 5,
                    "type": "channel",
                    "subtype": "noteOff",
                    "channel": 9,
                    "noteNumber": 54,
                    "velocity": 0,
                    "lightChannels": [
                        6,
                        7
                    ]
                }
            }
        }
    },
    {
        "changes": {
            "garage": 0
        },
        "timeout": 0.17902522083333333,
        "raw": {
            "garage": {
                "pinValue": 0,
                "ticks": 11,
                "event": {
                    "deltaTime": 11,
                    "type": "channel",
                    "subtype": "noteOff",
                    "channel": 8,
                    "noteNumber": 57,
                    "velocity": 0,
                    "lightChannels": [
                        0
                    ]
                }
            }
        }
    },
    {
        "changes": {
            "garden": 1
        },
        "timeout": 0.014830491666666666,
        "raw": {
            "garden": {
                "pinValue": 1,
                "ticks": 1,
                "event": {
                    "deltaTime": 1,
                    "type": "channel",
                    "subtype": "noteOn",
                    "channel": 9,
                    "noteNumber": 61,
                    "velocity": 124,
                    "lightChannels": [
                        8
                    ]
                }
            }
        }
    },
    {
        "changes": {
            "window": 1,
            "outline": 1
        },
        "timeout": 0.0021186416666666664,
        "raw": {
            "window": {
                "pinValue": 1,
                "ticks": 0,
                "event": {
                    "deltaTime": 0,
                    "type": "channel",
                    "subtype": "noteOn",
                    "channel": 9,
                    "noteNumber": 54,
                    "velocity": 85,
                    "lightChannels": [
                        6,
                        7
                    ]
                }
            },
            "outline": {
                "pinValue": 1,
                "ticks": 0,
                "event": {
                    "deltaTime": 0,
                    "type": "channel",
                    "subtype": "noteOn",
                    "channel": 9,
                    "noteNumber": 54,
                    "velocity": 85,
                    "lightChannels": [
                        6,
                        7
                    ]
                }
            }
        }
    },
    {
        "changes": {
            "top-right": 1
        },
        "timeout": 0.0031779624999999996,
        "raw": {
            "top-right": {
                "pinValue": 1,
                "ticks": 3,
                "event": {
                    "deltaTime": 3,
                    "type": "channel",
                    "subtype": "noteOn",
                    "channel": 8,
                    "noteNumber": 59,
                    "velocity": 125,
                    "lightChannels": [
                        1
                    ]
                }
            }
        }
    },
    {
        "changes": {
            "window": 0,
            "outline": 0
        },
        "timeout": 0.05402536249999999,
        "raw": {
            "window": {
                "pinValue": 0,
                "ticks": 30,
                "event": {
                    "deltaTime": 30,
                    "type": "channel",
                    "subtype": "noteOff",
                    "channel": 9,
                    "noteNumber": 54,
                    "velocity": 0,
                    "lightChannels": [
                        6,
                        7
                    ]
                }
            },
            "outline": {
                "pinValue": 0,
                "ticks": 30,
                "event": {
                    "deltaTime": 30,
                    "type": "channel",
                    "subtype": "noteOff",
                    "channel": 9,
                    "noteNumber": 54,
                    "velocity": 0,
                    "lightChannels": [
                        6,
                        7
                    ]
                }
            }
        }
    },
    {
        "changes": {
            "garden": 0
        },
        "timeout": 0.0031779624999999996,
        "raw": {
            "garden": {
                "pinValue": 0,
                "ticks": 3,
                "event": {
                    "deltaTime": 3,
                    "type": "channel",
                    "subtype": "noteOff",
                    "channel": 9,
                    "noteNumber": 61,
                    "velocity": 0,
                    "lightChannels": [
                        8
                    ]
                }
            }
        }
    },
    {
        "changes": {
            "top-right": 0
        },
        "timeout": 0.13771170833333332,
        "raw": {
            "top-right": {
                "pinValue": 0,
                "ticks": 107,
                "event": {
                    "deltaTime": 107,
                    "type": "channel",
                    "subtype": "noteOff",
                    "channel": 8,
                    "noteNumber": 59,
                    "velocity": 0,
                    "lightChannels": [
                        1
                    ]
                }
            }
        }
    },
    {
        "changes": {
            "bottom-right": 1
        },
        "timeout": 0.03707622916666666,
        "raw": {
            "bottom-right": {
                "pinValue": 1,
                "ticks": 7,
                "event": {
                    "deltaTime": 7,
                    "type": "channel",
                    "subtype": "noteOn",
                    "channel": 8,
                    "noteNumber": 65,
                    "velocity": 122,
                    "lightChannels": [
                        2
                    ]
                }
            }
        }
    },
    {
        "changes": {
            "window": 1,
            "outline": 1
        },
        "timeout": 0.007415245833333332,
        "raw": {
            "window": {
                "pinValue": 1,
                "ticks": 7,
                "event": {
                    "deltaTime": 7,
                    "type": "channel",
                    "subtype": "noteOn",
                    "channel": 9,
                    "noteNumber": 54,
                    "velocity": 83,
                    "lightChannels": [
                        6,
                        7
                    ]
                }
            },
            "outline": {
                "pinValue": 1,
                "ticks": 7,
                "event": {
                    "deltaTime": 7,
                    "type": "channel",
                    "subtype": "noteOn",
                    "channel": 9,
                    "noteNumber": 54,
                    "velocity": 83,
                    "lightChannels": [
                        6,
                        7
                    ]
                }
            }
        }
    },
    {
        "changes": {
            "tree": 1
        },
        "timeout": 0.0095338875,
        "raw": {
            "tree": {
                "pinValue": 1,
                "ticks": 0,
                "event": {
                    "deltaTime": 0,
                    "type": "channel",
                    "subtype": "noteOn",
                    "channel": 9,
                    "noteNumber": 60,
                    "velocity": 112,
                    "lightChannels": [
                        9
                    ]
                }
            }
        }
    },
    {
        "changes": {
            "window": 0,
            "outline": 0
        },
        "timeout": 0.04978807916666666,
        "raw": {
            "window": {
                "pinValue": 0,
                "ticks": 47,
                "event": {
                    "deltaTime": 47,
                    "type": "channel",
                    "subtype": "noteOff",
                    "channel": 9,
                    "noteNumber": 54,
                    "velocity": 0,
                    "lightChannels": [
                        6,
                        7
                    ]
                }
            },
            "outline": {
                "pinValue": 0,
                "ticks": 47,
                "event": {
                    "deltaTime": 47,
                    "type": "channel",
                    "subtype": "noteOff",
                    "channel": 9,
                    "noteNumber": 54,
                    "velocity": 0,
                    "lightChannels": [
                        6,
                        7
                    ]
                }
            }
        }
    },
    {
        "changes": {
            "tree": 0
        },
        "timeout": 0.01694913333333333,
        "raw": {
            "tree": {
                "pinValue": 0,
                "ticks": 3,
                "event": {
                    "deltaTime": 3,
                    "type": "channel",
                    "subtype": "noteOff",
                    "channel": 9,
                    "noteNumber": 60,
                    "velocity": 0,
                    "lightChannels": [
                        9
                    ]
                }
            }
        }
    },
    {
        "changes": {
            "bottom-right": 0
        },
        "timeout": 0.1472455958333333,
        "raw": {
            "bottom-right": {
                "pinValue": 0,
                "ticks": 8,
                "event": {
                    "deltaTime": 8,
                    "type": "channel",
                    "subtype": "noteOff",
                    "channel": 8,
                    "noteNumber": 65,
                    "velocity": 0,
                    "lightChannels": [
                        2
                    ]
                }
            }
        }
    },
    {
        "changes": {
            "garage": 1,
            "top-right": 1,
            "bottom-right": 1
        },
        "timeout": 0.03707622916666666,
        "raw": {
            "garage": {
                "pinValue": 1,
                "ticks": 9,
                "event": {
                    "deltaTime": 9,
                    "type": "channel",
                    "subtype": "noteOn",
                    "channel": 8,
                    "noteNumber": 64,
                    "velocity": 118,
                    "lightChannels": [
                        0,
                        1,
                        2
                    ]
                }
            },
            "top-right": {
                "pinValue": 1,
                "ticks": 9,
                "event": {
                    "deltaTime": 9,
                    "type": "channel",
                    "subtype": "noteOn",
                    "channel": 8,
                    "noteNumber": 64,
                    "velocity": 118,
                    "lightChannels": [
                        0,
                        1,
                        2
                    ]
                }
            },
            "bottom-right": {
                "pinValue": 1,
                "ticks": 9,
                "event": {
                    "deltaTime": 9,
                    "type": "channel",
                    "subtype": "noteOn",
                    "channel": 8,
                    "noteNumber": 64,
                    "velocity": 118,
                    "lightChannels": [
                        0,
                        1,
                        2
                    ]
                }
            }
        }
    },
    {
        "changes": {
            "window": 1,
            "outline": 1
        },
        "timeout": 0.006355925,
        "raw": {
            "window": {
                "pinValue": 1,
                "ticks": 1,
                "event": {
                    "deltaTime": 1,
                    "type": "channel",
                    "subtype": "noteOn",
                    "channel": 9,
                    "noteNumber": 54,
                    "velocity": 83,
                    "lightChannels": [
                        6,
                        7
                    ]
                }
            },
            "outline": {
                "pinValue": 1,
                "ticks": 1,
                "event": {
                    "deltaTime": 1,
                    "type": "channel",
                    "subtype": "noteOn",
                    "channel": 9,
                    "noteNumber": 54,
                    "velocity": 83,
                    "lightChannels": [
                        6,
                        7
                    ]
                }
            }
        }
    },
    {
        "changes": {
            "garden": 1
        },
        "timeout": 0.004237283333333333,
        "raw": {
            "garden": {
                "pinValue": 1,
                "ticks": 0,
                "event": {
                    "deltaTime": 0,
                    "type": "channel",
                    "subtype": "noteOn",
                    "channel": 9,
                    "noteNumber": 61,
                    "velocity": 122,
                    "lightChannels": [
                        8
                    ]
                }
            }
        }
    },
    {
        "changes": {
            "window": 0,
            "outline": 0
        },
        "timeout": 0.052966041666666665,
        "raw": {
            "window": {
                "pinValue": 0,
                "ticks": 43,
                "event": {
                    "deltaTime": 43,
                    "type": "channel",
                    "subtype": "noteOff",
                    "channel": 9,
                    "noteNumber": 54,
                    "velocity": 0,
                    "lightChannels": [
                        6,
                        7
                    ]
                }
            },
            "outline": {
                "pinValue": 0,
                "ticks": 43,
                "event": {
                    "deltaTime": 43,
                    "type": "channel",
                    "subtype": "noteOff",
                    "channel": 9,
                    "noteNumber": 54,
                    "velocity": 0,
                    "lightChannels": [
                        6,
                        7
                    ]
                }
            }
        }
    },
    {
        "changes": {
            "garden": 0
        },
        "timeout": 0.010593208333333333,
        "raw": {
            "garden": {
                "pinValue": 0,
                "ticks": 0,
                "event": {
                    "deltaTime": 0,
                    "type": "channel",
                    "subtype": "noteOff",
                    "channel": 9,
                    "noteNumber": 61,
                    "velocity": 0,
                    "lightChannels": [
                        8
                    ]
                }
            }
        }
    },
    {
        "changes": {
            "tree": 1
        },
        "timeout": 0.17690657916666666,
        "raw": {
            "tree": {
                "pinValue": 1,
                "ticks": 6,
                "event": {
                    "deltaTime": 6,
                    "type": "channel",
                    "subtype": "noteOn",
                    "channel": 9,
                    "noteNumber": 60,
                    "velocity": 111,
                    "lightChannels": [
                        9
                    ]
                }
            }
        }
    },
    {
        "changes": {
            "window": 1,
            "outline": 1
        },
        "timeout": 0.008474566666666666,
        "raw": {
            "window": {
                "pinValue": 1,
                "ticks": 0,
                "event": {
                    "deltaTime": 0,
                    "type": "channel",
                    "subtype": "noteOn",
                    "channel": 9,
                    "noteNumber": 54,
                    "velocity": 84,
                    "lightChannels": [
                        6,
                        7
                    ]
                }
            },
            "outline": {
                "pinValue": 1,
                "ticks": 0,
                "event": {
                    "deltaTime": 0,
                    "type": "channel",
                    "subtype": "noteOn",
                    "channel": 9,
                    "noteNumber": 54,
                    "velocity": 84,
                    "lightChannels": [
                        6,
                        7
                    ]
                }
            }
        }
    },
    {
        "changes": {
            "tree": 0,
            "window": 0,
            "outline": 0
        },
        "timeout": 0.05826264583333332,
        "raw": {
            "tree": {
                "pinValue": 0,
                "ticks": 37,
                "event": {
                    "deltaTime": 37,
                    "type": "channel",
                    "subtype": "noteOff",
                    "channel": 9,
                    "noteNumber": 60,
                    "velocity": 0,
                    "lightChannels": [
                        9
                    ]
                }
            },
            "window": {
                "pinValue": 0,
                "ticks": 0,
                "event": {
                    "deltaTime": 0,
                    "type": "channel",
                    "subtype": "noteOff",
                    "channel": 9,
                    "noteNumber": 54,
                    "velocity": 0,
                    "lightChannels": [
                        6,
                        7
                    ]
                }
            },
            "outline": {
                "pinValue": 0,
                "ticks": 0,
                "event": {
                    "deltaTime": 0,
                    "type": "channel",
                    "subtype": "noteOff",
                    "channel": 9,
                    "noteNumber": 54,
                    "velocity": 0,
                    "lightChannels": [
                        6,
                        7
                    ]
                }
            }
        }
    },
    {
        "changes": {
            "window": 1,
            "outline": 1
        },
        "timeout": 0.19491503333333332,
        "raw": {
            "window": {
                "pinValue": 1,
                "ticks": 0,
                "event": {
                    "deltaTime": 0,
                    "type": "channel",
                    "subtype": "noteOn",
                    "channel": 9,
                    "noteNumber": 54,
                    "velocity": 84,
                    "lightChannels": [
                        6,
                        7
                    ]
                }
            },
            "outline": {
                "pinValue": 1,
                "ticks": 0,
                "event": {
                    "deltaTime": 0,
                    "type": "channel",
                    "subtype": "noteOn",
                    "channel": 9,
                    "noteNumber": 54,
                    "velocity": 84,
                    "lightChannels": [
                        6,
                        7
                    ]
                }
            }
        }
    },
    {
        "changes": {
            "garden": 1
        },
        "timeout": 0.004237283333333333,
        "raw": {
            "garden": {
                "pinValue": 1,
                "ticks": 4,
                "event": {
                    "deltaTime": 4,
                    "type": "channel",
                    "subtype": "noteOn",
                    "channel": 9,
                    "noteNumber": 61,
                    "velocity": 124,
                    "lightChannels": [
                        8
                    ]
                }
            }
        }
    },
    {
        "changes": {
            "window": 0,
            "outline": 0
        },
        "timeout": 0.05508468333333333,
        "raw": {
            "window": {
                "pinValue": 0,
                "ticks": 37,
                "event": {
                    "deltaTime": 37,
                    "type": "channel",
                    "subtype": "noteOff",
                    "channel": 9,
                    "noteNumber": 54,
                    "velocity": 0,
                    "lightChannels": [
                        6,
                        7
                    ]
                }
            },
            "outline": {
                "pinValue": 0,
                "ticks": 37,
                "event": {
                    "deltaTime": 37,
                    "type": "channel",
                    "subtype": "noteOff",
                    "channel": 9,
                    "noteNumber": 54,
                    "velocity": 0,
                    "lightChannels": [
                        6,
                        7
                    ]
                }
            }
        }
    },
    {
        "changes": {
            "garden": 0
        },
        "timeout": 0.010593208333333333,
        "raw": {
            "garden": {
                "pinValue": 0,
                "ticks": 0,
                "event": {
                    "deltaTime": 0,
                    "type": "channel",
                    "subtype": "noteOff",
                    "channel": 9,
                    "noteNumber": 61,
                    "velocity": 0,
                    "lightChannels": [
                        8
                    ]
                }
            }
        }
    },
    {
        "changes": {
            "window": 1,
            "outline": 1
        },
        "timeout": 0.16843201249999998,
        "raw": {
            "window": {
                "pinValue": 1,
                "ticks": 5,
                "event": {
                    "deltaTime": 5,
                    "type": "channel",
                    "subtype": "noteOn",
                    "channel": 9,
                    "noteNumber": 54,
                    "velocity": 83,
                    "lightChannels": [
                        6,
                        7
                    ]
                }
            },
            "outline": {
                "pinValue": 1,
                "ticks": 5,
                "event": {
                    "deltaTime": 5,
                    "type": "channel",
                    "subtype": "noteOn",
                    "channel": 9,
                    "noteNumber": 54,
                    "velocity": 83,
                    "lightChannels": [
                        6,
                        7
                    ]
                }
            }
        }
    },
    {
        "changes": {
            "tree": 1
        },
        "timeout": 0.014830491666666664,
        "raw": {
            "tree": {
                "pinValue": 1,
                "ticks": 2,
                "event": {
                    "deltaTime": 2,
                    "type": "channel",
                    "subtype": "noteOn",
                    "channel": 9,
                    "noteNumber": 60,
                    "velocity": 122,
                    "lightChannels": [
                        9
                    ]
                }
            }
        }
    },
    {
        "changes": {
            "window": 0,
            "outline": 0
        },
        "timeout": 0.04237283333333333,
        "raw": {
            "window": {
                "pinValue": 0,
                "ticks": 15,
                "event": {
                    "deltaTime": 15,
                    "type": "channel",
                    "subtype": "noteOff",
                    "channel": 9,
                    "noteNumber": 54,
                    "velocity": 0,
                    "lightChannels": [
                        6,
                        7
                    ]
                }
            },
            "outline": {
                "pinValue": 0,
                "ticks": 15,
                "event": {
                    "deltaTime": 15,
                    "type": "channel",
                    "subtype": "noteOff",
                    "channel": 9,
                    "noteNumber": 54,
                    "velocity": 0,
                    "lightChannels": [
                        6,
                        7
                    ]
                }
            }
        }
    },
    {
        "changes": {
            "tree": 0
        },
        "timeout": 0.027542341666666664,
        "raw": {
            "tree": {
                "pinValue": 0,
                "ticks": 3,
                "event": {
                    "deltaTime": 3,
                    "type": "channel",
                    "subtype": "noteOff",
                    "channel": 9,
                    "noteNumber": 60,
                    "velocity": 0,
                    "lightChannels": [
                        9
                    ]
                }
            }
        }
    },
    {
        "changes": {
            "window": 1,
            "outline": 1
        },
        "timeout": 0.18008454166666663,
        "raw": {
            "window": {
                "pinValue": 1,
                "ticks": 1,
                "event": {
                    "deltaTime": 1,
                    "type": "channel",
                    "subtype": "noteOn",
                    "channel": 9,
                    "noteNumber": 54,
                    "velocity": 87,
                    "lightChannels": [
                        6,
                        7
                    ]
                }
            },
            "outline": {
                "pinValue": 1,
                "ticks": 1,
                "event": {
                    "deltaTime": 1,
                    "type": "channel",
                    "subtype": "noteOn",
                    "channel": 9,
                    "noteNumber": 54,
                    "velocity": 87,
                    "lightChannels": [
                        6,
                        7
                    ]
                }
            }
        }
    },
    {
        "changes": {
            "garden": 1
        },
        "timeout": 0.013771170833333332,
        "raw": {
            "garden": {
                "pinValue": 1,
                "ticks": 4,
                "event": {
                    "deltaTime": 4,
                    "type": "channel",
                    "subtype": "noteOn",
                    "channel": 9,
                    "noteNumber": 61,
                    "velocity": 124,
                    "lightChannels": [
                        8
                    ]
                }
            }
        }
    },
    {
        "changes": {
            "window": 0,
            "outline": 0
        },
        "timeout": 0.04872875833333333,
        "raw": {
            "window": {
                "pinValue": 0,
                "ticks": 1,
                "event": {
                    "deltaTime": 1,
                    "type": "channel",
                    "subtype": "noteOff",
                    "channel": 9,
                    "noteNumber": 54,
                    "velocity": 0,
                    "lightChannels": [
                        6,
                        7
                    ]
                }
            },
            "outline": {
                "pinValue": 0,
                "ticks": 1,
                "event": {
                    "deltaTime": 1,
                    "type": "channel",
                    "subtype": "noteOff",
                    "channel": 9,
                    "noteNumber": 54,
                    "velocity": 0,
                    "lightChannels": [
                        6,
                        7
                    ]
                }
            }
        }
    },
    {
        "changes": {
            "garden": 0
        },
        "timeout": 0.015889812499999996,
        "raw": {
            "garden": {
                "pinValue": 0,
                "ticks": 0,
                "event": {
                    "deltaTime": 0,
                    "type": "channel",
                    "subtype": "noteOff",
                    "channel": 9,
                    "noteNumber": 61,
                    "velocity": 0,
                    "lightChannels": [
                        8
                    ]
                }
            }
        }
    },
    {
        "changes": {
            "garage": 0,
            "top-right": 0,
            "bottom-right": 0
        },
        "timeout": 0.056144004166666664,
        "raw": {
            "garage": {
                "pinValue": 0,
                "ticks": 45,
                "event": {
                    "deltaTime": 45,
                    "type": "channel",
                    "subtype": "noteOff",
                    "channel": 8,
                    "noteNumber": 64,
                    "velocity": 0,
                    "lightChannels": [
                        0,
                        1,
                        2
                    ]
                }
            },
            "top-right": {
                "pinValue": 0,
                "ticks": 45,
                "event": {
                    "deltaTime": 45,
                    "type": "channel",
                    "subtype": "noteOff",
                    "channel": 8,
                    "noteNumber": 64,
                    "velocity": 0,
                    "lightChannels": [
                        0,
                        1,
                        2
                    ]
                }
            },
            "bottom-right": {
                "pinValue": 0,
                "ticks": 45,
                "event": {
                    "deltaTime": 45,
                    "type": "channel",
                    "subtype": "noteOff",
                    "channel": 8,
                    "noteNumber": 64,
                    "velocity": 0,
                    "lightChannels": [
                        0,
                        1,
                        2
                    ]
                }
            }
        }
    },
    {
        "changes": {
            "window": 1,
            "outline": 1
        },
        "timeout": 0.11864393333333333,
        "raw": {
            "window": {
                "pinValue": 1,
                "ticks": 0,
                "event": {
                    "deltaTime": 0,
                    "type": "channel",
                    "subtype": "noteOn",
                    "channel": 9,
                    "noteNumber": 54,
                    "velocity": 84,
                    "lightChannels": [
                        6,
                        7
                    ]
                }
            },
            "outline": {
                "pinValue": 1,
                "ticks": 0,
                "event": {
                    "deltaTime": 0,
                    "type": "channel",
                    "subtype": "noteOn",
                    "channel": 9,
                    "noteNumber": 54,
                    "velocity": 84,
                    "lightChannels": [
                        6,
                        7
                    ]
                }
            }
        }
    },
    {
        "changes": {
            "tree": 1
        },
        "timeout": 0.0095338875,
        "raw": {
            "tree": {
                "pinValue": 1,
                "ticks": 1,
                "event": {
                    "deltaTime": 1,
                    "type": "channel",
                    "subtype": "noteOn",
                    "channel": 9,
                    "noteNumber": 60,
                    "velocity": 119,
                    "lightChannels": [
                        9
                    ]
                }
            }
        }
    },
    {
        "changes": {
            "garage": 1
        },
        "timeout": 0.009533887499999998,
        "raw": {
            "garage": {
                "pinValue": 1,
                "ticks": 7,
                "event": {
                    "deltaTime": 7,
                    "type": "channel",
                    "subtype": "noteOn",
                    "channel": 8,
                    "noteNumber": 55,
                    "velocity": 126,
                    "lightChannels": [
                        0
                    ]
                }
            }
        }
    },
    {
        "changes": {
            "window": 0,
            "outline": 0
        },
        "timeout": 0.046610116666666666,
        "raw": {
            "window": {
                "pinValue": 0,
                "ticks": 1,
                "event": {
                    "deltaTime": 1,
                    "type": "channel",
                    "subtype": "noteOff",
                    "channel": 9,
                    "noteNumber": 54,
                    "velocity": 0,
                    "lightChannels": [
                        6,
                        7
                    ]
                }
            },
            "outline": {
                "pinValue": 0,
                "ticks": 1,
                "event": {
                    "deltaTime": 1,
                    "type": "channel",
                    "subtype": "noteOff",
                    "channel": 9,
                    "noteNumber": 54,
                    "velocity": 0,
                    "lightChannels": [
                        6,
                        7
                    ]
                }
            }
        }
    },
    {
        "changes": {
            "tree": 0
        },
        "timeout": 0.013771170833333332,
        "raw": {
            "tree": {
                "pinValue": 0,
                "ticks": 13,
                "event": {
                    "deltaTime": 13,
                    "type": "channel",
                    "subtype": "noteOff",
                    "channel": 9,
                    "noteNumber": 60,
                    "velocity": 0,
                    "lightChannels": [
                        9
                    ]
                }
            }
        }
    },
    {
        "changes": {
            "garage": 0
        },
        "timeout": 0.1472455958333333,
        "raw": {
            "garage": {
                "pinValue": 0,
                "ticks": 136,
                "event": {
                    "deltaTime": 136,
                    "type": "channel",
                    "subtype": "noteOff",
                    "channel": 8,
                    "noteNumber": 55,
                    "velocity": 0,
                    "lightChannels": [
                        0
                    ]
                }
            }
        }
    },
    {
        "changes": {
            "garden": 1
        },
        "timeout": 0.03495758749999999,
        "raw": {
            "garden": {
                "pinValue": 1,
                "ticks": 1,
                "event": {
                    "deltaTime": 1,
                    "type": "channel",
                    "subtype": "noteOn",
                    "channel": 9,
                    "noteNumber": 61,
                    "velocity": 116,
                    "lightChannels": [
                        8
                    ]
                }
            }
        }
    },
    {
        "changes": {
            "window": 1,
            "outline": 1
        },
        "timeout": 0.0010593208333333332,
        "raw": {
            "window": {
                "pinValue": 1,
                "ticks": 0,
                "event": {
                    "deltaTime": 0,
                    "type": "channel",
                    "subtype": "noteOn",
                    "channel": 9,
                    "noteNumber": 54,
                    "velocity": 83,
                    "lightChannels": [
                        6,
                        7
                    ]
                }
            },
            "outline": {
                "pinValue": 1,
                "ticks": 0,
                "event": {
                    "deltaTime": 0,
                    "type": "channel",
                    "subtype": "noteOn",
                    "channel": 9,
                    "noteNumber": 54,
                    "velocity": 83,
                    "lightChannels": [
                        6,
                        7
                    ]
                }
            }
        }
    },
    {
        "changes": {
            "top-right": 1
        },
        "timeout": 0.007415245833333333,
        "raw": {
            "top-right": {
                "pinValue": 1,
                "ticks": 2,
                "event": {
                    "deltaTime": 2,
                    "type": "channel",
                    "subtype": "noteOn",
                    "channel": 8,
                    "noteNumber": 57,
                    "velocity": 126,
                    "lightChannels": [
                        1
                    ]
                }
            }
        }
    },
    {
        "changes": {
            "garden": 0
        },
        "timeout": 0.05402536249999999,
        "raw": {
            "garden": {
                "pinValue": 0,
                "ticks": 0,
                "event": {
                    "deltaTime": 0,
                    "type": "channel",
                    "subtype": "noteOff",
                    "channel": 9,
                    "noteNumber": 61,
                    "velocity": 0,
                    "lightChannels": [
                        8
                    ]
                }
            }
        }
    },
    {
        "changes": {
            "window": 0,
            "outline": 0
        },
        "timeout": 0.0021186416666666664,
        "raw": {
            "window": {
                "pinValue": 0,
                "ticks": 2,
                "event": {
                    "deltaTime": 2,
                    "type": "channel",
                    "subtype": "noteOff",
                    "channel": 9,
                    "noteNumber": 54,
                    "velocity": 0,
                    "lightChannels": [
                        6,
                        7
                    ]
                }
            },
            "outline": {
                "pinValue": 0,
                "ticks": 2,
                "event": {
                    "deltaTime": 2,
                    "type": "channel",
                    "subtype": "noteOff",
                    "channel": 9,
                    "noteNumber": 54,
                    "velocity": 0,
                    "lightChannels": [
                        6,
                        7
                    ]
                }
            }
        }
    },
    {
        "changes": {
            "top-right": 0
        },
        "timeout": 0.18538114583333332,
        "raw": {
            "top-right": {
                "pinValue": 0,
                "ticks": 10,
                "event": {
                    "deltaTime": 10,
                    "type": "channel",
                    "subtype": "noteOff",
                    "channel": 8,
                    "noteNumber": 57,
                    "velocity": 0,
                    "lightChannels": [
                        1
                    ]
                }
            }
        }
    },
    {
        "changes": {
            "tree": 1
        },
        "timeout": 0.006355924999999999,
        "raw": {
            "tree": {
                "pinValue": 1,
                "ticks": 0,
                "event": {
                    "deltaTime": 0,
                    "type": "channel",
                    "subtype": "noteOn",
                    "channel": 9,
                    "noteNumber": 60,
                    "velocity": 112,
                    "lightChannels": [
                        9
                    ]
                }
            }
        }
    },
    {
        "changes": {
            "window": 1,
            "outline": 1
        },
        "timeout": 0.0031779624999999996,
        "raw": {
            "window": {
                "pinValue": 1,
                "ticks": 3,
                "event": {
                    "deltaTime": 3,
                    "type": "channel",
                    "subtype": "noteOn",
                    "channel": 9,
                    "noteNumber": 54,
                    "velocity": 81,
                    "lightChannels": [
                        6,
                        7
                    ]
                }
            },
            "outline": {
                "pinValue": 1,
                "ticks": 3,
                "event": {
                    "deltaTime": 3,
                    "type": "channel",
                    "subtype": "noteOn",
                    "channel": 9,
                    "noteNumber": 54,
                    "velocity": 81,
                    "lightChannels": [
                        6,
                        7
                    ]
                }
            }
        }
    },
    {
        "changes": {
            "bottom-right": 1
        },
        "timeout": 0.0021186416666666664,
        "raw": {
            "bottom-right": {
                "pinValue": 1,
                "ticks": 2,
                "event": {
                    "deltaTime": 2,
                    "type": "channel",
                    "subtype": "noteOn",
                    "channel": 8,
                    "noteNumber": 64,
                    "velocity": 125,
                    "lightChannels": [
                        2
                    ]
                }
            }
        }
    },
    {
        "changes": {
            "window": 0,
            "outline": 0
        },
        "timeout": 0.05932196666666666,
        "raw": {
            "window": {
                "pinValue": 0,
                "ticks": 2,
                "event": {
                    "deltaTime": 2,
                    "type": "channel",
                    "subtype": "noteOff",
                    "channel": 9,
                    "noteNumber": 54,
                    "velocity": 0,
                    "lightChannels": [
                        6,
                        7
                    ]
                }
            },
            "outline": {
                "pinValue": 0,
                "ticks": 2,
                "event": {
                    "deltaTime": 2,
                    "type": "channel",
                    "subtype": "noteOff",
                    "channel": 9,
                    "noteNumber": 54,
                    "velocity": 0,
                    "lightChannels": [
                        6,
                        7
                    ]
                }
            }
        }
    },
    {
        "changes": {
            "tree": 0
        },
        "timeout": 0.007415245833333332,
        "raw": {
            "tree": {
                "pinValue": 0,
                "ticks": 3,
                "event": {
                    "deltaTime": 3,
                    "type": "channel",
                    "subtype": "noteOff",
                    "channel": 9,
                    "noteNumber": 60,
                    "velocity": 0,
                    "lightChannels": [
                        9
                    ]
                }
            }
        }
    },
    {
        "changes": {
            "bottom-right": 0
        },
        "timeout": 0.14194899166666664,
        "raw": {
            "bottom-right": {
                "pinValue": 0,
                "ticks": 20,
                "event": {
                    "deltaTime": 20,
                    "type": "channel",
                    "subtype": "noteOff",
                    "channel": 8,
                    "noteNumber": 64,
                    "velocity": 0,
                    "lightChannels": [
                        2
                    ]
                }
            }
        }
    },
    {
        "changes": {
            "top-right": 1
        },
        "timeout": 0.0349575875,
        "raw": {
            "top-right": {
                "pinValue": 1,
                "ticks": 9,
                "event": {
                    "deltaTime": 9,
                    "type": "channel",
                    "subtype": "noteOn",
                    "channel": 8,
                    "noteNumber": 63,
                    "velocity": 114,
                    "lightChannels": [
                        1
                    ]
                }
            }
        }
    },
    {
        "changes": {
            "garden": 1
        },
        "timeout": 0.01694913333333333,
        "raw": {
            "garden": {
                "pinValue": 1,
                "ticks": 2,
                "event": {
                    "deltaTime": 2,
                    "type": "channel",
                    "subtype": "noteOn",
                    "channel": 9,
                    "noteNumber": 61,
                    "velocity": 127,
                    "lightChannels": [
                        8
                    ]
                }
            }
        }
    },
    {
        "changes": {
            "window": 1,
            "outline": 1
        },
        "timeout": 0.013771170833333332,
        "raw": {
            "window": {
                "pinValue": 1,
                "ticks": 7,
                "event": {
                    "deltaTime": 7,
                    "type": "channel",
                    "subtype": "noteOn",
                    "channel": 9,
                    "noteNumber": 54,
                    "velocity": 96,
                    "lightChannels": [
                        6,
                        7
                    ]
                }
            },
            "outline": {
                "pinValue": 1,
                "ticks": 7,
                "event": {
                    "deltaTime": 7,
                    "type": "channel",
                    "subtype": "noteOn",
                    "channel": 9,
                    "noteNumber": 54,
                    "velocity": 96,
                    "lightChannels": [
                        6,
                        7
                    ]
                }
            }
        }
    },
    {
        "changes": {
            "garden": 0
        },
        "timeout": 0.06355925,
        "raw": {
            "garden": {
                "pinValue": 0,
                "ticks": 1,
                "event": {
                    "deltaTime": 1,
                    "type": "channel",
                    "subtype": "noteOff",
                    "channel": 9,
                    "noteNumber": 61,
                    "velocity": 0,
                    "lightChannels": [
                        8
                    ]
                }
            }
        }
    },
    {
        "changes": {
            "window": 0,
            "outline": 0
        },
        "timeout": 0.006355924999999999,
        "raw": {
            "window": {
                "pinValue": 0,
                "ticks": 6,
                "event": {
                    "deltaTime": 6,
                    "type": "channel",
                    "subtype": "noteOff",
                    "channel": 9,
                    "noteNumber": 54,
                    "velocity": 0,
                    "lightChannels": [
                        6,
                        7
                    ]
                }
            },
            "outline": {
                "pinValue": 0,
                "ticks": 6,
                "event": {
                    "deltaTime": 6,
                    "type": "channel",
                    "subtype": "noteOff",
                    "channel": 9,
                    "noteNumber": 54,
                    "velocity": 0,
                    "lightChannels": [
                        6,
                        7
                    ]
                }
            }
        }
    },
    {
        "changes": {
            "top-right": 0
        },
        "timeout": 0.11122868749999998,
        "raw": {
            "top-right": {
                "pinValue": 0,
                "ticks": 28,
                "event": {
                    "deltaTime": 28,
                    "type": "channel",
                    "subtype": "noteOff",
                    "channel": 8,
                    "noteNumber": 63,
                    "velocity": 0,
                    "lightChannels": [
                        1
                    ]
                }
            }
        }
    },
    {
        "changes": {
            "col-1": 1
        },
        "timeout": 0.05614400416666666,
        "raw": {
            "col-1": {
                "pinValue": 1,
                "ticks": 53,
                "event": {
                    "deltaTime": 53,
                    "type": "channel",
                    "subtype": "noteOn",
                    "channel": 3,
                    "noteNumber": 84,
                    "velocity": 121,
                    "lightChannels": [
                        3
                    ]
                }
            }
        }
    },
    {
        "changes": {
            "col-1": 0
        },
        "timeout": 0.08050838333333332,
        "raw": {
            "col-1": {
                "pinValue": 0,
                "ticks": 72,
                "event": {
                    "deltaTime": 72,
                    "type": "channel",
                    "subtype": "noteOff",
                    "channel": 3,
                    "noteNumber": 84,
                    "velocity": 0,
                    "lightChannels": [
                        3
                    ]
                }
            }
        }
    },
    {
        "changes": {
            "col-2": 1
        },
        "timeout": 0.1758472583333333,
        "raw": {
            "col-2": {
                "pinValue": 1,
                "ticks": 155,
                "event": {
                    "deltaTime": 155,
                    "type": "channel",
                    "subtype": "noteOn",
                    "channel": 3,
                    "noteNumber": 79,
                    "velocity": 123,
                    "lightChannels": [
                        4
                    ]
                }
            }
        }
    },
    {
        "changes": {
            "col-2": 0
        },
        "timeout": 0.07097449583333332,
        "raw": {
            "col-2": {
                "pinValue": 0,
                "ticks": 57,
                "event": {
                    "deltaTime": 57,
                    "type": "channel",
                    "subtype": "noteOff",
                    "channel": 3,
                    "noteNumber": 79,
                    "velocity": 0,
                    "lightChannels": [
                        4
                    ]
                }
            }
        }
    },
    {
        "changes": {
            "col-3": 1
        },
        "timeout": 0.03707622916666666,
        "raw": {
            "col-3": {
                "pinValue": 1,
                "ticks": 18,
                "event": {
                    "deltaTime": 18,
                    "type": "channel",
                    "subtype": "noteOn",
                    "channel": 3,
                    "noteNumber": 77,
                    "velocity": 119,
                    "lightChannels": [
                        5
                    ]
                }
            }
        }
    },
    {
        "changes": {
            "col-3": 0
        },
        "timeout": 0.08050838333333332,
        "raw": {
            "col-3": {
                "pinValue": 0,
                "ticks": 60,
                "event": {
                    "deltaTime": 60,
                    "type": "channel",
                    "subtype": "noteOff",
                    "channel": 3,
                    "noteNumber": 77,
                    "velocity": 0,
                    "lightChannels": [
                        5
                    ]
                }
            }
        }
    },
    {
        "changes": {
            "garden": 1
        },
        "timeout": 0.06355924999999998,
        "raw": {
            "garden": {
                "pinValue": 1,
                "ticks": 1,
                "event": {
                    "deltaTime": 1,
                    "type": "channel",
                    "subtype": "noteOn",
                    "channel": 3,
                    "noteNumber": 72,
                    "velocity": 122,
                    "lightChannels": [
                        8
                    ]
                }
            }
        }
    },
    {
        "changes": {
            "window": 1,
            "outline": 1
        },
        "timeout": 0.0021186416666666664,
        "raw": {
            "window": {
                "pinValue": 1,
                "ticks": 0,
                "event": {
                    "deltaTime": 0,
                    "type": "channel",
                    "subtype": "noteOn",
                    "channel": 9,
                    "noteNumber": 54,
                    "velocity": 85,
                    "lightChannels": [
                        6,
                        7
                    ]
                }
            },
            "outline": {
                "pinValue": 1,
                "ticks": 0,
                "event": {
                    "deltaTime": 0,
                    "type": "channel",
                    "subtype": "noteOn",
                    "channel": 9,
                    "noteNumber": 54,
                    "velocity": 85,
                    "lightChannels": [
                        6,
                        7
                    ]
                }
            }
        }
    },
    {
        "changes": {
            "window": 0,
            "outline": 0
        },
        "timeout": 0.05720332499999999,
        "raw": {
            "window": {
                "pinValue": 0,
                "ticks": 54,
                "event": {
                    "deltaTime": 54,
                    "type": "channel",
                    "subtype": "noteOff",
                    "channel": 9,
                    "noteNumber": 54,
                    "velocity": 0,
                    "lightChannels": [
                        6,
                        7
                    ]
                }
            },
            "outline": {
                "pinValue": 0,
                "ticks": 54,
                "event": {
                    "deltaTime": 54,
                    "type": "channel",
                    "subtype": "noteOff",
                    "channel": 9,
                    "noteNumber": 54,
                    "velocity": 0,
                    "lightChannels": [
                        6,
                        7
                    ]
                }
            }
        }
    },
    {
        "changes": {
            "garden": 0
        },
        "timeout": 0.0349575875,
        "raw": {
            "garden": {
                "pinValue": 0,
                "ticks": 4,
                "event": {
                    "deltaTime": 4,
                    "type": "channel",
                    "subtype": "noteOff",
                    "channel": 3,
                    "noteNumber": 72,
                    "velocity": 0,
                    "lightChannels": [
                        8
                    ]
                }
            }
        }
    },
    {
        "changes": {
            "tree": 1
        },
        "timeout": 0.15360152083333334,
        "raw": {
            "tree": {
                "pinValue": 1,
                "ticks": 118,
                "event": {
                    "deltaTime": 118,
                    "type": "channel",
                    "subtype": "noteOn",
                    "channel": 3,
                    "noteNumber": 77,
                    "velocity": 113,
                    "lightChannels": [
                        9
                    ]
                }
            }
        }
    },
    {
        "changes": {
            "window": 1,
            "outline": 1
        },
        "timeout": 0.008474566666666666,
        "raw": {
            "window": {
                "pinValue": 1,
                "ticks": 8,
                "event": {
                    "deltaTime": 8,
                    "type": "channel",
                    "subtype": "noteOn",
                    "channel": 9,
                    "noteNumber": 54,
                    "velocity": 90,
                    "lightChannels": [
                        6,
                        7
                    ]
                }
            },
            "outline": {
                "pinValue": 1,
                "ticks": 8,
                "event": {
                    "deltaTime": 8,
                    "type": "channel",
                    "subtype": "noteOn",
                    "channel": 9,
                    "noteNumber": 54,
                    "velocity": 90,
                    "lightChannels": [
                        6,
                        7
                    ]
                }
            }
        }
    },
    {
        "changes": {
            "window": 0,
            "outline": 0
        },
        "timeout": 0.06355924999999998,
        "raw": {
            "window": {
                "pinValue": 0,
                "ticks": 50,
                "event": {
                    "deltaTime": 50,
                    "type": "channel",
                    "subtype": "noteOff",
                    "channel": 9,
                    "noteNumber": 54,
                    "velocity": 0,
                    "lightChannels": [
                        6,
                        7
                    ]
                }
            },
            "outline": {
                "pinValue": 0,
                "ticks": 50,
                "event": {
                    "deltaTime": 50,
                    "type": "channel",
                    "subtype": "noteOff",
                    "channel": 9,
                    "noteNumber": 54,
                    "velocity": 0,
                    "lightChannels": [
                        6,
                        7
                    ]
                }
            }
        }
    },
    {
        "changes": {
            "tree": 0
        },
        "timeout": 0.03283894583333333,
        "raw": {
            "tree": {
                "pinValue": 0,
                "ticks": 31,
                "event": {
                    "deltaTime": 31,
                    "type": "channel",
                    "subtype": "noteOff",
                    "channel": 3,
                    "noteNumber": 77,
                    "velocity": 0,
                    "lightChannels": [
                        9
                    ]
                }
            }
        }
    },
    {
        "changes": {
            "col-1": 1,
            "col-2": 1,
            "col-3": 1,
            "garden": 1,
            "tree": 1
        },
        "timeout": 0.1599574458333333,
        "raw": {
            "col-1": {
                "pinValue": 1,
                "ticks": 31,
                "event": {
                    "deltaTime": 31,
                    "type": "channel",
                    "subtype": "noteOn",
                    "channel": 3,
                    "noteNumber": 79,
                    "velocity": 123,
                    "lightChannels": [
                        3,
                        4,
                        5,
                        8,
                        9
                    ]
                }
            },
            "col-2": {
                "pinValue": 1,
                "ticks": 31,
                "event": {
                    "deltaTime": 31,
                    "type": "channel",
                    "subtype": "noteOn",
                    "channel": 3,
                    "noteNumber": 79,
                    "velocity": 123,
                    "lightChannels": [
                        3,
                        4,
                        5,
                        8,
                        9
                    ]
                }
            },
            "col-3": {
                "pinValue": 1,
                "ticks": 31,
                "event": {
                    "deltaTime": 31,
                    "type": "channel",
                    "subtype": "noteOn",
                    "channel": 3,
                    "noteNumber": 79,
                    "velocity": 123,
                    "lightChannels": [
                        3,
                        4,
                        5,
                        8,
                        9
                    ]
                }
            },
            "garden": {
                "pinValue": 1,
                "ticks": 31,
                "event": {
                    "deltaTime": 31,
                    "type": "channel",
                    "subtype": "noteOn",
                    "channel": 3,
                    "noteNumber": 79,
                    "velocity": 123,
                    "lightChannels": [
                        3,
                        4,
                        5,
                        8,
                        9
                    ]
                }
            },
            "tree": {
                "pinValue": 1,
                "ticks": 31,
                "event": {
                    "deltaTime": 31,
                    "type": "channel",
                    "subtype": "noteOn",
                    "channel": 3,
                    "noteNumber": 79,
                    "velocity": 123,
                    "lightChannels": [
                        3,
                        4,
                        5,
                        8,
                        9
                    ]
                }
            }
        }
    },
    {
        "changes": {
            "col-1": 0,
            "col-2": 0,
            "col-3": 0,
            "garden": 0,
            "tree": 0
        },
        "timeout": 0.0730931375,
        "raw": {
            "col-1": {
                "pinValue": 0,
                "ticks": 67,
                "event": {
                    "deltaTime": 67,
                    "type": "channel",
                    "subtype": "noteOff",
                    "channel": 3,
                    "noteNumber": 79,
                    "velocity": 0,
                    "lightChannels": [
                        3,
                        4,
                        5,
                        8,
                        9
                    ]
                }
            },
            "col-2": {
                "pinValue": 0,
                "ticks": 67,
                "event": {
                    "deltaTime": 67,
                    "type": "channel",
                    "subtype": "noteOff",
                    "channel": 3,
                    "noteNumber": 79,
                    "velocity": 0,
                    "lightChannels": [
                        3,
                        4,
                        5,
                        8,
                        9
                    ]
                }
            },
            "col-3": {
                "pinValue": 0,
                "ticks": 67,
                "event": {
                    "deltaTime": 67,
                    "type": "channel",
                    "subtype": "noteOff",
                    "channel": 3,
                    "noteNumber": 79,
                    "velocity": 0,
                    "lightChannels": [
                        3,
                        4,
                        5,
                        8,
                        9
                    ]
                }
            },
            "garden": {
                "pinValue": 0,
                "ticks": 67,
                "event": {
                    "deltaTime": 67,
                    "type": "channel",
                    "subtype": "noteOff",
                    "channel": 3,
                    "noteNumber": 79,
                    "velocity": 0,
                    "lightChannels": [
                        3,
                        4,
                        5,
                        8,
                        9
                    ]
                }
            },
            "tree": {
                "pinValue": 0,
                "ticks": 67,
                "event": {
                    "deltaTime": 67,
                    "type": "channel",
                    "subtype": "noteOff",
                    "channel": 3,
                    "noteNumber": 79,
                    "velocity": 0,
                    "lightChannels": [
                        3,
                        4,
                        5,
                        8,
                        9
                    ]
                }
            }
        }
    },
    {
        "changes": {
            "col-1": 1
        },
        "timeout": 0.045550795833333324,
        "raw": {
            "col-1": {
                "pinValue": 1,
                "ticks": 4,
                "event": {
                    "deltaTime": 4,
                    "type": "channel",
                    "subtype": "noteOn",
                    "channel": 3,
                    "noteNumber": 84,
                    "velocity": 119,
                    "lightChannels": [
                        3
                    ]
                }
            }
        }
    },
    {
        "changes": {
            "col-1": 0
        },
        "timeout": 0.0762711,
        "raw": {
            "col-1": {
                "pinValue": 0,
                "ticks": 72,
                "event": {
                    "deltaTime": 72,
                    "type": "channel",
                    "subtype": "noteOff",
                    "channel": 3,
                    "noteNumber": 84,
                    "velocity": 0,
                    "lightChannels": [
                        3
                    ]
                }
            }
        }
    },
    {
        "changes": {
            "col-2": 1
        },
        "timeout": 0.05296604166666666,
        "raw": {
            "col-2": {
                "pinValue": 1,
                "ticks": 50,
                "event": {
                    "deltaTime": 50,
                    "type": "channel",
                    "subtype": "noteOn",
                    "channel": 3,
                    "noteNumber": 79,
                    "velocity": 116,
                    "lightChannels": [
                        4
                    ]
                }
            }
        }
    },
    {
        "changes": {
            "col-2": 0
        },
        "timeout": 0.1048727625,
        "raw": {
            "col-2": {
                "pinValue": 0,
                "ticks": 7,
                "event": {
                    "deltaTime": 7,
                    "type": "channel",
                    "subtype": "noteOff",
                    "channel": 3,
                    "noteNumber": 79,
                    "velocity": 0,
                    "lightChannels": [
                        4
                    ]
                }
            }
        }
    },
    {
        "changes": {
            "window": 1,
            "outline": 1
        },
        "timeout": 0.14194899166666664,
        "raw": {
            "window": {
                "pinValue": 1,
                "ticks": 13,
                "event": {
                    "deltaTime": 13,
                    "type": "channel",
                    "subtype": "noteOn",
                    "channel": 9,
                    "noteNumber": 54,
                    "velocity": 84,
                    "lightChannels": [
                        6,
                        7
                    ]
                }
            },
            "outline": {
                "pinValue": 1,
                "ticks": 13,
                "event": {
                    "deltaTime": 13,
                    "type": "channel",
                    "subtype": "noteOn",
                    "channel": 9,
                    "noteNumber": 54,
                    "velocity": 84,
                    "lightChannels": [
                        6,
                        7
                    ]
                }
            }
        }
    },
    {
        "changes": {
            "col-3": 1
        },
        "timeout": 0.009533887499999998,
        "raw": {
            "col-3": {
                "pinValue": 1,
                "ticks": 2,
                "event": {
                    "deltaTime": 2,
                    "type": "channel",
                    "subtype": "noteOn",
                    "channel": 3,
                    "noteNumber": 77,
                    "velocity": 113,
                    "lightChannels": [
                        5
                    ]
                }
            }
        }
    },
    {
        "changes": {
            "window": 0,
            "outline": 0
        },
        "timeout": 0.049788079166666666,
        "raw": {
            "window": {
                "pinValue": 0,
                "ticks": 33,
                "event": {
                    "deltaTime": 33,
                    "type": "channel",
                    "subtype": "noteOff",
                    "channel": 9,
                    "noteNumber": 54,
                    "velocity": 0,
                    "lightChannels": [
                        6,
                        7
                    ]
                }
            },
            "outline": {
                "pinValue": 0,
                "ticks": 33,
                "event": {
                    "deltaTime": 33,
                    "type": "channel",
                    "subtype": "noteOff",
                    "channel": 9,
                    "noteNumber": 54,
                    "velocity": 0,
                    "lightChannels": [
                        6,
                        7
                    ]
                }
            }
        }
    },
    {
        "changes": {
            "col-3": 0
        },
        "timeout": 0.02648302083333333,
        "raw": {
            "col-3": {
                "pinValue": 0,
                "ticks": 25,
                "event": {
                    "deltaTime": 25,
                    "type": "channel",
                    "subtype": "noteOff",
                    "channel": 3,
                    "noteNumber": 77,
                    "velocity": 0,
                    "lightChannels": [
                        5
                    ]
                }
            }
        }
    },
    {
        "changes": {
            "garden": 1
        },
        "timeout": 0.05720332499999999,
        "raw": {
            "garden": {
                "pinValue": 1,
                "ticks": 9,
                "event": {
                    "deltaTime": 9,
                    "type": "channel",
                    "subtype": "noteOn",
                    "channel": 3,
                    "noteNumber": 72,
                    "velocity": 121,
                    "lightChannels": [
                        8
                    ]
                }
            }
        }
    },
    {
        "changes": {
            "garden": 0
        },
        "timeout": 0.07733042083333332,
        "raw": {
            "garden": {
                "pinValue": 0,
                "ticks": 1,
                "event": {
                    "deltaTime": 1,
                    "type": "channel",
                    "subtype": "noteOff",
                    "channel": 3,
                    "noteNumber": 72,
                    "velocity": 0,
                    "lightChannels": [
                        8
                    ]
                }
            }
        }
    },
    {
        "changes": {
            "window": 1,
            "outline": 1
        },
        "timeout": 0.04237283333333333,
        "raw": {
            "window": {
                "pinValue": 1,
                "ticks": 1,
                "event": {
                    "deltaTime": 1,
                    "type": "channel",
                    "subtype": "noteOn",
                    "channel": 9,
                    "noteNumber": 54,
                    "velocity": 90,
                    "lightChannels": [
                        6,
                        7
                    ]
                }
            },
            "outline": {
                "pinValue": 1,
                "ticks": 1,
                "event": {
                    "deltaTime": 1,
                    "type": "channel",
                    "subtype": "noteOn",
                    "channel": 9,
                    "noteNumber": 54,
                    "velocity": 90,
                    "lightChannels": [
                        6,
                        7
                    ]
                }
            }
        }
    },
    {
        "changes": {
            "garage": 1,
            "top-right": 1,
            "bottom-right": 1
        },
        "timeout": 0.008474566666666666,
        "raw": {
            "garage": {
                "pinValue": 1,
                "ticks": 1,
                "event": {
                    "deltaTime": 1,
                    "type": "channel",
                    "subtype": "noteOn",
                    "channel": 7,
                    "noteNumber": 63,
                    "velocity": 118,
                    "lightChannels": [
                        0,
                        1,
                        2
                    ]
                }
            },
            "top-right": {
                "pinValue": 1,
                "ticks": 1,
                "event": {
                    "deltaTime": 1,
                    "type": "channel",
                    "subtype": "noteOn",
                    "channel": 7,
                    "noteNumber": 63,
                    "velocity": 118,
                    "lightChannels": [
                        0,
                        1,
                        2
                    ]
                }
            },
            "bottom-right": {
                "pinValue": 1,
                "ticks": 1,
                "event": {
                    "deltaTime": 1,
                    "type": "channel",
                    "subtype": "noteOn",
                    "channel": 7,
                    "noteNumber": 63,
                    "velocity": 118,
                    "lightChannels": [
                        0,
                        1,
                        2
                    ]
                }
            }
        }
    },
    {
        "changes": {
            "tree": 1
        },
        "timeout": 0.0021186416666666664,
        "raw": {
            "tree": {
                "pinValue": 1,
                "ticks": 1,
                "event": {
                    "deltaTime": 1,
                    "type": "channel",
                    "subtype": "noteOn",
                    "channel": 3,
                    "noteNumber": 77,
                    "velocity": 113,
                    "lightChannels": [
                        9
                    ]
                }
            }
        }
    },
    {
        "changes": {
            "window": 0,
            "outline": 0
        },
        "timeout": 0.056144004166666664,
        "raw": {
            "window": {
                "pinValue": 0,
                "ticks": 40,
                "event": {
                    "deltaTime": 40,
                    "type": "channel",
                    "subtype": "noteOff",
                    "channel": 9,
                    "noteNumber": 54,
                    "velocity": 0,
                    "lightChannels": [
                        6,
                        7
                    ]
                }
            },
            "outline": {
                "pinValue": 0,
                "ticks": 40,
                "event": {
                    "deltaTime": 40,
                    "type": "channel",
                    "subtype": "noteOff",
                    "channel": 9,
                    "noteNumber": 54,
                    "velocity": 0,
                    "lightChannels": [
                        6,
                        7
                    ]
                }
            }
        }
    },
    {
        "changes": {
            "tree": 0
        },
        "timeout": 0.018008454166666663,
        "raw": {
            "tree": {
                "pinValue": 0,
                "ticks": 17,
                "event": {
                    "deltaTime": 17,
                    "type": "channel",
                    "subtype": "noteOff",
                    "channel": 3,
                    "noteNumber": 77,
                    "velocity": 0,
                    "lightChannels": [
                        9
                    ]
                }
            }
        }
    },
    {
        "changes": {
            "col-1": 1,
            "col-2": 1,
            "col-3": 1,
            "garden": 1,
            "tree": 1
        },
        "timeout": 0.04555079583333333,
        "raw": {
            "col-1": {
                "pinValue": 1,
                "ticks": 1,
                "event": {
                    "deltaTime": 1,
                    "type": "channel",
                    "subtype": "noteOn",
                    "channel": 3,
                    "noteNumber": 79,
                    "velocity": 116,
                    "lightChannels": [
                        3,
                        4,
                        5,
                        8,
                        9
                    ]
                }
            },
            "col-2": {
                "pinValue": 1,
                "ticks": 1,
                "event": {
                    "deltaTime": 1,
                    "type": "channel",
                    "subtype": "noteOn",
                    "channel": 3,
                    "noteNumber": 79,
                    "velocity": 116,
                    "lightChannels": [
                        3,
                        4,
                        5,
                        8,
                        9
                    ]
                }
            },
            "col-3": {
                "pinValue": 1,
                "ticks": 1,
                "event": {
                    "deltaTime": 1,
                    "type": "channel",
                    "subtype": "noteOn",
                    "channel": 3,
                    "noteNumber": 79,
                    "velocity": 116,
                    "lightChannels": [
                        3,
                        4,
                        5,
                        8,
                        9
                    ]
                }
            },
            "garden": {
                "pinValue": 1,
                "ticks": 1,
                "event": {
                    "deltaTime": 1,
                    "type": "channel",
                    "subtype": "noteOn",
                    "channel": 3,
                    "noteNumber": 79,
                    "velocity": 116,
                    "lightChannels": [
                        3,
                        4,
                        5,
                        8,
                        9
                    ]
                }
            },
            "tree": {
                "pinValue": 1,
                "ticks": 1,
                "event": {
                    "deltaTime": 1,
                    "type": "channel",
                    "subtype": "noteOn",
                    "channel": 3,
                    "noteNumber": 79,
                    "velocity": 116,
                    "lightChannels": [
                        3,
                        4,
                        5,
                        8,
                        9
                    ]
                }
            }
        }
    },
    {
        "changes": {
            "col-1": 0,
            "col-2": 0,
            "col-3": 0,
            "garden": 0,
            "tree": 0
        },
        "timeout": 0.07415245833333332,
        "raw": {
            "col-1": {
                "pinValue": 0,
                "ticks": 13,
                "event": {
                    "deltaTime": 13,
                    "type": "channel",
                    "subtype": "noteOff",
                    "channel": 3,
                    "noteNumber": 79,
                    "velocity": 0,
                    "lightChannels": [
                        3,
                        4,
                        5,
                        8,
                        9
                    ]
                }
            },
            "col-2": {
                "pinValue": 0,
                "ticks": 13,
                "event": {
                    "deltaTime": 13,
                    "type": "channel",
                    "subtype": "noteOff",
                    "channel": 3,
                    "noteNumber": 79,
                    "velocity": 0,
                    "lightChannels": [
                        3,
                        4,
                        5,
                        8,
                        9
                    ]
                }
            },
            "col-3": {
                "pinValue": 0,
                "ticks": 13,
                "event": {
                    "deltaTime": 13,
                    "type": "channel",
                    "subtype": "noteOff",
                    "channel": 3,
                    "noteNumber": 79,
                    "velocity": 0,
                    "lightChannels": [
                        3,
                        4,
                        5,
                        8,
                        9
                    ]
                }
            },
            "garden": {
                "pinValue": 0,
                "ticks": 13,
                "event": {
                    "deltaTime": 13,
                    "type": "channel",
                    "subtype": "noteOff",
                    "channel": 3,
                    "noteNumber": 79,
                    "velocity": 0,
                    "lightChannels": [
                        3,
                        4,
                        5,
                        8,
                        9
                    ]
                }
            },
            "tree": {
                "pinValue": 0,
                "ticks": 13,
                "event": {
                    "deltaTime": 13,
                    "type": "channel",
                    "subtype": "noteOff",
                    "channel": 3,
                    "noteNumber": 79,
                    "velocity": 0,
                    "lightChannels": [
                        3,
                        4,
                        5,
                        8,
                        9
                    ]
                }
            }
        }
    },
    {
        "changes": {
            "tree": 1
        },
        "timeout": 0.047669437499999995,
        "raw": {
            "tree": {
                "pinValue": 1,
                "ticks": 45,
                "event": {
                    "deltaTime": 45,
                    "type": "channel",
                    "subtype": "noteOn",
                    "channel": 3,
                    "noteNumber": 84,
                    "velocity": 118,
                    "lightChannels": [
                        9
                    ]
                }
            }
        }
    },
    {
        "changes": {
            "tree": 0
        },
        "timeout": 0.09322023333333333,
        "raw": {
            "tree": {
                "pinValue": 0,
                "ticks": 86,
                "event": {
                    "deltaTime": 86,
                    "type": "channel",
                    "subtype": "noteOff",
                    "channel": 3,
                    "noteNumber": 84,
                    "velocity": 0,
                    "lightChannels": [
                        9
                    ]
                }
            }
        }
    },
    {
        "changes": {
            "garage": 0,
            "top-right": 0,
            "bottom-right": 0
        },
        "timeout": 0.0010593208333333332,
        "raw": {
            "garage": {
                "pinValue": 0,
                "ticks": 1,
                "event": {
                    "deltaTime": 1,
                    "type": "channel",
                    "subtype": "noteOff",
                    "channel": 7,
                    "noteNumber": 63,
                    "velocity": 0,
                    "lightChannels": [
                        0,
                        1,
                        2
                    ]
                }
            },
            "top-right": {
                "pinValue": 0,
                "ticks": 1,
                "event": {
                    "deltaTime": 1,
                    "type": "channel",
                    "subtype": "noteOff",
                    "channel": 7,
                    "noteNumber": 63,
                    "velocity": 0,
                    "lightChannels": [
                        0,
                        1,
                        2
                    ]
                }
            },
            "bottom-right": {
                "pinValue": 0,
                "ticks": 1,
                "event": {
                    "deltaTime": 1,
                    "type": "channel",
                    "subtype": "noteOff",
                    "channel": 7,
                    "noteNumber": 63,
                    "velocity": 0,
                    "lightChannels": [
                        0,
                        1,
                        2
                    ]
                }
            }
        }
    },
    {
        "changes": {
            "col-1": 1,
            "col-2": 1,
            "col-3": 1,
            "window": 1,
            "outline": 1,
            "garden": 1,
            "tree": 1
        },
        "timeout": 0.1525422,
        "raw": {
            "col-1": {
                "pinValue": 1,
                "ticks": 0,
                "event": {
                    "deltaTime": 0,
                    "type": "channel",
                    "subtype": "noteOn",
                    "channel": 7,
                    "noteNumber": 63,
                    "velocity": 112,
                    "lightChannels": [
                        3,
                        4,
                        5,
                        6,
                        7,
                        8,
                        9
                    ]
                }
            },
            "col-2": {
                "pinValue": 1,
                "ticks": 0,
                "event": {
                    "deltaTime": 0,
                    "type": "channel",
                    "subtype": "noteOn",
                    "channel": 7,
                    "noteNumber": 63,
                    "velocity": 112,
                    "lightChannels": [
                        3,
                        4,
                        5,
                        6,
                        7,
                        8,
                        9
                    ]
                }
            },
            "col-3": {
                "pinValue": 1,
                "ticks": 0,
                "event": {
                    "deltaTime": 0,
                    "type": "channel",
                    "subtype": "noteOn",
                    "channel": 7,
                    "noteNumber": 63,
                    "velocity": 112,
                    "lightChannels": [
                        3,
                        4,
                        5,
                        6,
                        7,
                        8,
                        9
                    ]
                }
            },
            "window": {
                "pinValue": 1,
                "ticks": 0,
                "event": {
                    "deltaTime": 0,
                    "type": "channel",
                    "subtype": "noteOn",
                    "channel": 7,
                    "noteNumber": 63,
                    "velocity": 112,
                    "lightChannels": [
                        3,
                        4,
                        5,
                        6,
                        7,
                        8,
                        9
                    ]
                }
            },
            "outline": {
                "pinValue": 1,
                "ticks": 0,
                "event": {
                    "deltaTime": 0,
                    "type": "channel",
                    "subtype": "noteOn",
                    "channel": 7,
                    "noteNumber": 63,
                    "velocity": 112,
                    "lightChannels": [
                        3,
                        4,
                        5,
                        6,
                        7,
                        8,
                        9
                    ]
                }
            },
            "garden": {
                "pinValue": 1,
                "ticks": 0,
                "event": {
                    "deltaTime": 0,
                    "type": "channel",
                    "subtype": "noteOn",
                    "channel": 7,
                    "noteNumber": 63,
                    "velocity": 112,
                    "lightChannels": [
                        3,
                        4,
                        5,
                        6,
                        7,
                        8,
                        9
                    ]
                }
            },
            "tree": {
                "pinValue": 1,
                "ticks": 0,
                "event": {
                    "deltaTime": 0,
                    "type": "channel",
                    "subtype": "noteOn",
                    "channel": 7,
                    "noteNumber": 63,
                    "velocity": 112,
                    "lightChannels": [
                        3,
                        4,
                        5,
                        6,
                        7,
                        8,
                        9
                    ]
                }
            }
        }
    },
    {
        "changes": {
            "window": 1,
            "outline": 1
        },
        "timeout": 0.0010593208333333332,
        "raw": {
            "window": {
                "pinValue": 1,
                "ticks": 1,
                "event": {
                    "deltaTime": 1,
                    "type": "channel",
                    "subtype": "noteOn",
                    "channel": 9,
                    "noteNumber": 54,
                    "velocity": 96,
                    "lightChannels": [
                        6,
                        7
                    ]
                }
            },
            "outline": {
                "pinValue": 1,
                "ticks": 1,
                "event": {
                    "deltaTime": 1,
                    "type": "channel",
                    "subtype": "noteOn",
                    "channel": 9,
                    "noteNumber": 54,
                    "velocity": 96,
                    "lightChannels": [
                        6,
                        7
                    ]
                }
            }
        }
    },
    {
        "changes": {
            "col-1": 1
        },
        "timeout": 0.0010593208333333332,
        "raw": {
            "col-1": {
                "pinValue": 1,
                "ticks": 1,
                "event": {
                    "deltaTime": 1,
                    "type": "channel",
                    "subtype": "noteOn",
                    "channel": 3,
                    "noteNumber": 89,
                    "velocity": 125,
                    "lightChannels": [
                        3
                    ]
                }
            }
        }
    },
    {
        "changes": {
            "window": 0,
            "outline": 0
        },
        "timeout": 0.07944906249999999,
        "raw": {
            "window": {
                "pinValue": 0,
                "ticks": 12,
                "event": {
                    "deltaTime": 12,
                    "type": "channel",
                    "subtype": "noteOff",
                    "channel": 9,
                    "noteNumber": 54,
                    "velocity": 0,
                    "lightChannels": [
                        6,
                        7
                    ]
                }
            },
            "outline": {
                "pinValue": 0,
                "ticks": 12,
                "event": {
                    "deltaTime": 12,
                    "type": "channel",
                    "subtype": "noteOff",
                    "channel": 9,
                    "noteNumber": 54,
                    "velocity": 0,
                    "lightChannels": [
                        6,
                        7
                    ]
                }
            }
        }
    },
    {
        "changes": {
            "col-1": 0
        },
        "timeout": 0.014830491666666664,
        "raw": {
            "col-1": {
                "pinValue": 0,
                "ticks": 14,
                "event": {
                    "deltaTime": 14,
                    "type": "channel",
                    "subtype": "noteOff",
                    "channel": 3,
                    "noteNumber": 89,
                    "velocity": 0,
                    "lightChannels": [
                        3
                    ]
                }
            }
        }
    },
    {
        "changes": {
            "col-2": 1
        },
        "timeout": 0.17266929583333332,
        "raw": {
            "col-2": {
                "pinValue": 1,
                "ticks": 55,
                "event": {
                    "deltaTime": 55,
                    "type": "channel",
                    "subtype": "noteOn",
                    "channel": 3,
                    "noteNumber": 84,
                    "velocity": 122,
                    "lightChannels": [
                        4
                    ]
                }
            }
        }
    },
    {
        "changes": {
            "col-1": 0,
            "col-2": 0,
            "col-3": 0,
            "window": 0,
            "outline": 0,
            "garden": 0,
            "tree": 0
        },
        "timeout": 0.050847399999999994,
        "raw": {
            "col-1": {
                "pinValue": 0,
                "ticks": 42,
                "event": {
                    "deltaTime": 42,
                    "type": "channel",
                    "subtype": "noteOff",
                    "channel": 7,
                    "noteNumber": 63,
                    "velocity": 0,
                    "lightChannels": [
                        3,
                        4,
                        5,
                        6,
                        7,
                        8,
                        9
                    ]
                }
            },
            "col-2": {
                "pinValue": 0,
                "ticks": 42,
                "event": {
                    "deltaTime": 42,
                    "type": "channel",
                    "subtype": "noteOff",
                    "channel": 7,
                    "noteNumber": 63,
                    "velocity": 0,
                    "lightChannels": [
                        3,
                        4,
                        5,
                        6,
                        7,
                        8,
                        9
                    ]
                }
            },
            "col-3": {
                "pinValue": 0,
                "ticks": 42,
                "event": {
                    "deltaTime": 42,
                    "type": "channel",
                    "subtype": "noteOff",
                    "channel": 7,
                    "noteNumber": 63,
                    "velocity": 0,
                    "lightChannels": [
                        3,
                        4,
                        5,
                        6,
                        7,
                        8,
                        9
                    ]
                }
            },
            "window": {
                "pinValue": 0,
                "ticks": 42,
                "event": {
                    "deltaTime": 42,
                    "type": "channel",
                    "subtype": "noteOff",
                    "channel": 7,
                    "noteNumber": 63,
                    "velocity": 0,
                    "lightChannels": [
                        3,
                        4,
                        5,
                        6,
                        7,
                        8,
                        9
                    ]
                }
            },
            "outline": {
                "pinValue": 0,
                "ticks": 42,
                "event": {
                    "deltaTime": 42,
                    "type": "channel",
                    "subtype": "noteOff",
                    "channel": 7,
                    "noteNumber": 63,
                    "velocity": 0,
                    "lightChannels": [
                        3,
                        4,
                        5,
                        6,
                        7,
                        8,
                        9
                    ]
                }
            },
            "garden": {
                "pinValue": 0,
                "ticks": 42,
                "event": {
                    "deltaTime": 42,
                    "type": "channel",
                    "subtype": "noteOff",
                    "channel": 7,
                    "noteNumber": 63,
                    "velocity": 0,
                    "lightChannels": [
                        3,
                        4,
                        5,
                        6,
                        7,
                        8,
                        9
                    ]
                }
            },
            "tree": {
                "pinValue": 0,
                "ticks": 42,
                "event": {
                    "deltaTime": 42,
                    "type": "channel",
                    "subtype": "noteOff",
                    "channel": 7,
                    "noteNumber": 63,
                    "velocity": 0,
                    "lightChannels": [
                        3,
                        4,
                        5,
                        6,
                        7,
                        8,
                        9
                    ]
                }
            }
        }
    },
    {
        "changes": {
            "col-2": 0
        },
        "timeout": 0.04025419166666666,
        "raw": {
            "col-2": {
                "pinValue": 0,
                "ticks": 10,
                "event": {
                    "deltaTime": 10,
                    "type": "channel",
                    "subtype": "noteOff",
                    "channel": 3,
                    "noteNumber": 84,
                    "velocity": 0,
                    "lightChannels": [
                        4
                    ]
                }
            }
        }
    },
    {
        "changes": {
            "garage": 1,
            "top-right": 1,
            "bottom-right": 1
        },
        "timeout": 0.14406763333333333,
        "raw": {
            "garage": {
                "pinValue": 1,
                "ticks": 94,
                "event": {
                    "deltaTime": 94,
                    "type": "channel",
                    "subtype": "noteOn",
                    "channel": 7,
                    "noteNumber": 63,
                    "velocity": 114,
                    "lightChannels": [
                        0,
                        1,
                        2
                    ]
                }
            },
            "top-right": {
                "pinValue": 1,
                "ticks": 94,
                "event": {
                    "deltaTime": 94,
                    "type": "channel",
                    "subtype": "noteOn",
                    "channel": 7,
                    "noteNumber": 63,
                    "velocity": 114,
                    "lightChannels": [
                        0,
                        1,
                        2
                    ]
                }
            },
            "bottom-right": {
                "pinValue": 1,
                "ticks": 94,
                "event": {
                    "deltaTime": 94,
                    "type": "channel",
                    "subtype": "noteOn",
                    "channel": 7,
                    "noteNumber": 63,
                    "velocity": 114,
                    "lightChannels": [
                        0,
                        1,
                        2
                    ]
                }
            }
        }
    },
    {
        "changes": {
            "col-3": 1
        },
        "timeout": 0.02012709583333333,
        "raw": {
            "col-3": {
                "pinValue": 1,
                "ticks": 5,
                "event": {
                    "deltaTime": 5,
                    "type": "channel",
                    "subtype": "noteOn",
                    "channel": 3,
                    "noteNumber": 77,
                    "velocity": 125,
                    "lightChannels": [
                        5
                    ]
                }
            }
        }
    },
    {
        "changes": {
            "window": 1,
            "outline": 1
        },
        "timeout": 0.0052966041666666665,
        "raw": {
            "window": {
                "pinValue": 1,
                "ticks": 4,
                "event": {
                    "deltaTime": 4,
                    "type": "channel",
                    "subtype": "noteOn",
                    "channel": 9,
                    "noteNumber": 54,
                    "velocity": 98,
                    "lightChannels": [
                        6,
                        7
                    ]
                }
            },
            "outline": {
                "pinValue": 1,
                "ticks": 4,
                "event": {
                    "deltaTime": 4,
                    "type": "channel",
                    "subtype": "noteOn",
                    "channel": 9,
                    "noteNumber": 54,
                    "velocity": 98,
                    "lightChannels": [
                        6,
                        7
                    ]
                }
            }
        }
    },
    {
        "changes": {
            "window": 0,
            "outline": 0
        },
        "timeout": 0.08368634583333333,
        "raw": {
            "window": {
                "pinValue": 0,
                "ticks": 79,
                "event": {
                    "deltaTime": 79,
                    "type": "channel",
                    "subtype": "noteOff",
                    "channel": 9,
                    "noteNumber": 54,
                    "velocity": 0,
                    "lightChannels": [
                        6,
                        7
                    ]
                }
            },
            "outline": {
                "pinValue": 0,
                "ticks": 79,
                "event": {
                    "deltaTime": 79,
                    "type": "channel",
                    "subtype": "noteOff",
                    "channel": 9,
                    "noteNumber": 54,
                    "velocity": 0,
                    "lightChannels": [
                        6,
                        7
                    ]
                }
            }
        }
    },
    {
        "changes": {
            "col-3": 0
        },
        "timeout": 0.019067775,
        "raw": {
            "col-3": {
                "pinValue": 0,
                "ticks": 18,
                "event": {
                    "deltaTime": 18,
                    "type": "channel",
                    "subtype": "noteOff",
                    "channel": 3,
                    "noteNumber": 77,
                    "velocity": 0,
                    "lightChannels": [
                        5
                    ]
                }
            }
        }
    },
    {
        "changes": {
            "garage": 0,
            "top-right": 0,
            "bottom-right": 0
        },
        "timeout": 0.05932196666666666,
        "raw": {
            "garage": {
                "pinValue": 0,
                "ticks": 4,
                "event": {
                    "deltaTime": 4,
                    "type": "channel",
                    "subtype": "noteOff",
                    "channel": 7,
                    "noteNumber": 63,
                    "velocity": 0,
                    "lightChannels": [
                        0,
                        1,
                        2
                    ]
                }
            },
            "top-right": {
                "pinValue": 0,
                "ticks": 4,
                "event": {
                    "deltaTime": 4,
                    "type": "channel",
                    "subtype": "noteOff",
                    "channel": 7,
                    "noteNumber": 63,
                    "velocity": 0,
                    "lightChannels": [
                        0,
                        1,
                        2
                    ]
                }
            },
            "bottom-right": {
                "pinValue": 0,
                "ticks": 4,
                "event": {
                    "deltaTime": 4,
                    "type": "channel",
                    "subtype": "noteOff",
                    "channel": 7,
                    "noteNumber": 63,
                    "velocity": 0,
                    "lightChannels": [
                        0,
                        1,
                        2
                    ]
                }
            }
        }
    },
    {
        "changes": {
            "tree": 1
        },
        "timeout": 0.11546597083333333,
        "raw": {
            "tree": {
                "pinValue": 1,
                "ticks": 11,
                "event": {
                    "deltaTime": 11,
                    "type": "channel",
                    "subtype": "noteOn",
                    "channel": 5,
                    "noteNumber": 77,
                    "velocity": 123,
                    "lightChannels": [
                        9
                    ]
                }
            }
        }
    },
    {
        "changes": {
            "tree": 0
        },
        "timeout": 0.09533887499999999,
        "raw": {
            "tree": {
                "pinValue": 0,
                "ticks": 10,
                "event": {
                    "deltaTime": 10,
                    "type": "channel",
                    "subtype": "noteOff",
                    "channel": 5,
                    "noteNumber": 77,
                    "velocity": 0,
                    "lightChannels": [
                        9
                    ]
                }
            }
        }
    },
    {
        "changes": {
            "tree": 1
        },
        "timeout": 0.14194899166666666,
        "raw": {
            "tree": {
                "pinValue": 1,
                "ticks": 4,
                "event": {
                    "deltaTime": 4,
                    "type": "channel",
                    "subtype": "noteOn",
                    "channel": 5,
                    "noteNumber": 77,
                    "velocity": 125,
                    "lightChannels": [
                        9
                    ]
                }
            }
        }
    },
    {
        "changes": {
            "tree": 0
        },
        "timeout": 0.10381344166666666,
        "raw": {
            "tree": {
                "pinValue": 0,
                "ticks": 6,
                "event": {
                    "deltaTime": 6,
                    "type": "channel",
                    "subtype": "noteOff",
                    "channel": 5,
                    "noteNumber": 77,
                    "velocity": 0,
                    "lightChannels": [
                        9
                    ]
                }
            }
        }
    },
    {
        "changes": {
            "tree": 1
        },
        "timeout": 0.14724559583333333,
        "raw": {
            "tree": {
                "pinValue": 1,
                "ticks": 3,
                "event": {
                    "deltaTime": 3,
                    "type": "channel",
                    "subtype": "noteOn",
                    "channel": 5,
                    "noteNumber": 77,
                    "velocity": 123,
                    "lightChannels": [
                        9
                    ]
                }
            }
        }
    },
    {
        "changes": {
            "tree": 0
        },
        "timeout": 0.10275412083333334,
        "raw": {
            "tree": {
                "pinValue": 0,
                "ticks": 1,
                "event": {
                    "deltaTime": 1,
                    "type": "channel",
                    "subtype": "noteOff",
                    "channel": 5,
                    "noteNumber": 77,
                    "velocity": 0,
                    "lightChannels": [
                        9
                    ]
                }
            }
        }
    },
    {
        "changes": {
            "col-1": 1
        },
        "timeout": 0.11970325416666665,
        "raw": {
            "col-1": {
                "pinValue": 1,
                "ticks": 5,
                "event": {
                    "deltaTime": 5,
                    "type": "channel",
                    "subtype": "noteOn",
                    "channel": 7,
                    "noteNumber": 57,
                    "velocity": 99,
                    "lightChannels": [
                        3
                    ]
                }
            }
        }
    },
    {
        "changes": {
            "window": 1,
            "outline": 1
        },
        "timeout": 0.007415245833333334,
        "raw": {
            "window": {
                "pinValue": 1,
                "ticks": 1,
                "event": {
                    "deltaTime": 1,
                    "type": "channel",
                    "subtype": "noteOn",
                    "channel": 9,
                    "noteNumber": 54,
                    "velocity": 85,
                    "lightChannels": [
                        6,
                        7
                    ]
                }
            },
            "outline": {
                "pinValue": 1,
                "ticks": 1,
                "event": {
                    "deltaTime": 1,
                    "type": "channel",
                    "subtype": "noteOn",
                    "channel": 9,
                    "noteNumber": 54,
                    "velocity": 85,
                    "lightChannels": [
                        6,
                        7
                    ]
                }
            }
        }
    },
    {
        "changes": {
            "garage": 1
        },
        "timeout": 0.0010593208333333332,
        "raw": {
            "garage": {
                "pinValue": 1,
                "ticks": 1,
                "event": {
                    "deltaTime": 1,
                    "type": "channel",
                    "subtype": "noteOn",
                    "channel": 8,
                    "noteNumber": 57,
                    "velocity": 127,
                    "lightChannels": [
                        0
                    ]
                }
            }
        }
    },
    {
        "changes": {
            "tree": 1
        },
        "timeout": 0.0158898125,
        "raw": {
            "tree": {
                "pinValue": 1,
                "ticks": 6,
                "event": {
                    "deltaTime": 6,
                    "type": "channel",
                    "subtype": "noteOn",
                    "channel": 5,
                    "noteNumber": 77,
                    "velocity": 118,
                    "lightChannels": [
                        9
                    ]
                }
            }
        }
    },
    {
        "changes": {
            "window": 0,
            "outline": 0
        },
        "timeout": 0.04025419166666666,
        "raw": {
            "window": {
                "pinValue": 0,
                "ticks": 31,
                "event": {
                    "deltaTime": 31,
                    "type": "channel",
                    "subtype": "noteOff",
                    "channel": 9,
                    "noteNumber": 54,
                    "velocity": 0,
                    "lightChannels": [
                        6,
                        7
                    ]
                }
            },
            "outline": {
                "pinValue": 0,
                "ticks": 31,
                "event": {
                    "deltaTime": 31,
                    "type": "channel",
                    "subtype": "noteOff",
                    "channel": 9,
                    "noteNumber": 54,
                    "velocity": 0,
                    "lightChannels": [
                        6,
                        7
                    ]
                }
            }
        }
    },
    {
        "changes": {
            "tree": 0
        },
        "timeout": 0.06461857083333335,
        "raw": {
            "tree": {
                "pinValue": 0,
                "ticks": 1,
                "event": {
                    "deltaTime": 1,
                    "type": "channel",
                    "subtype": "noteOff",
                    "channel": 5,
                    "noteNumber": 77,
                    "velocity": 0,
                    "lightChannels": [
                        9
                    ]
                }
            }
        }
    },
    {
        "changes": {
            "window": 1,
            "outline": 1
        },
        "timeout": 0.11440665000000001,
        "raw": {
            "window": {
                "pinValue": 1,
                "ticks": 1,
                "event": {
                    "deltaTime": 1,
                    "type": "channel",
                    "subtype": "noteOn",
                    "channel": 9,
                    "noteNumber": 54,
                    "velocity": 87,
                    "lightChannels": [
                        6,
                        7
                    ]
                }
            },
            "outline": {
                "pinValue": 1,
                "ticks": 1,
                "event": {
                    "deltaTime": 1,
                    "type": "channel",
                    "subtype": "noteOn",
                    "channel": 9,
                    "noteNumber": 54,
                    "velocity": 87,
                    "lightChannels": [
                        6,
                        7
                    ]
                }
            }
        }
    },
    {
        "changes": {
            "window": 0,
            "outline": 0
        },
        "timeout": 0.050847399999999994,
        "raw": {
            "window": {
                "pinValue": 0,
                "ticks": 0,
                "event": {
                    "deltaTime": 0,
                    "type": "channel",
                    "subtype": "noteOff",
                    "channel": 9,
                    "noteNumber": 54,
                    "velocity": 0,
                    "lightChannels": [
                        6,
                        7
                    ]
                }
            },
            "outline": {
                "pinValue": 0,
                "ticks": 0,
                "event": {
                    "deltaTime": 0,
                    "type": "channel",
                    "subtype": "noteOff",
                    "channel": 9,
                    "noteNumber": 54,
                    "velocity": 0,
                    "lightChannels": [
                        6,
                        7
                    ]
                }
            }
        }
    },
    {
        "changes": {
            "col-1": 0
        },
        "timeout": 0.1758472583333333,
        "raw": {
            "col-1": {
                "pinValue": 0,
                "ticks": 45,
                "event": {
                    "deltaTime": 45,
                    "type": "channel",
                    "subtype": "noteOff",
                    "channel": 7,
                    "noteNumber": 57,
                    "velocity": 0,
                    "lightChannels": [
                        3
                    ]
                }
            }
        }
    },
    {
        "changes": {
            "garage": 0
        },
        "timeout": 0.012711849999999998,
        "raw": {
            "garage": {
                "pinValue": 0,
                "ticks": 12,
                "event": {
                    "deltaTime": 12,
                    "type": "channel",
                    "subtype": "noteOff",
                    "channel": 8,
                    "noteNumber": 57,
                    "velocity": 0,
                    "lightChannels": [
                        0
                    ]
                }
            }
        }
    },
    {
        "changes": {
            "window": 1,
            "outline": 1
        },
        "timeout": 0.0052966041666666665,
        "raw": {
            "window": {
                "pinValue": 1,
                "ticks": 5,
                "event": {
                    "deltaTime": 5,
                    "type": "channel",
                    "subtype": "noteOn",
                    "channel": 9,
                    "noteNumber": 54,
                    "velocity": 93,
                    "lightChannels": [
                        6,
                        7
                    ]
                }
            },
            "outline": {
                "pinValue": 1,
                "ticks": 5,
                "event": {
                    "deltaTime": 5,
                    "type": "channel",
                    "subtype": "noteOn",
                    "channel": 9,
                    "noteNumber": 54,
                    "velocity": 93,
                    "lightChannels": [
                        6,
                        7
                    ]
                }
            }
        }
    },
    {
        "changes": {
            "top-right": 1
        },
        "timeout": 0.03389826666666666,
        "raw": {
            "top-right": {
                "pinValue": 1,
                "ticks": 9,
                "event": {
                    "deltaTime": 9,
                    "type": "channel",
                    "subtype": "noteOn",
                    "channel": 8,
                    "noteNumber": 55,
                    "velocity": 115,
                    "lightChannels": [
                        1
                    ]
                }
            }
        }
    },
    {
        "changes": {
            "col-2": 1
        },
        "timeout": 0.008474566666666666,
        "raw": {
            "col-2": {
                "pinValue": 1,
                "ticks": 8,
                "event": {
                    "deltaTime": 8,
                    "type": "channel",
                    "subtype": "noteOn",
                    "channel": 7,
                    "noteNumber": 55,
                    "velocity": 91,
                    "lightChannels": [
                        4
                    ]
                }
            }
        }
    },
    {
        "changes": {
            "window": 0,
            "outline": 0
        },
        "timeout": 0.021186416666666666,
        "raw": {
            "window": {
                "pinValue": 0,
                "ticks": 20,
                "event": {
                    "deltaTime": 20,
                    "type": "channel",
                    "subtype": "noteOff",
                    "channel": 9,
                    "noteNumber": 54,
                    "velocity": 0,
                    "lightChannels": [
                        6,
                        7
                    ]
                }
            },
            "outline": {
                "pinValue": 0,
                "ticks": 20,
                "event": {
                    "deltaTime": 20,
                    "type": "channel",
                    "subtype": "noteOff",
                    "channel": 9,
                    "noteNumber": 54,
                    "velocity": 0,
                    "lightChannels": [
                        6,
                        7
                    ]
                }
            }
        }
    },
    {
        "changes": {
            "window": 1,
            "outline": 1
        },
        "timeout": 0.19385571249999997,
        "raw": {
            "window": {
                "pinValue": 1,
                "ticks": 3,
                "event": {
                    "deltaTime": 3,
                    "type": "channel",
                    "subtype": "noteOn",
                    "channel": 9,
                    "noteNumber": 54,
                    "velocity": 90,
                    "lightChannels": [
                        6,
                        7
                    ]
                }
            },
            "outline": {
                "pinValue": 1,
                "ticks": 3,
                "event": {
                    "deltaTime": 3,
                    "type": "channel",
                    "subtype": "noteOn",
                    "channel": 9,
                    "noteNumber": 54,
                    "velocity": 90,
                    "lightChannels": [
                        6,
                        7
                    ]
                }
            }
        }
    },
    {
        "changes": {
            "window": 0,
            "outline": 0
        },
        "timeout": 0.06249992916666666,
        "raw": {
            "window": {
                "pinValue": 0,
                "ticks": 12,
                "event": {
                    "deltaTime": 12,
                    "type": "channel",
                    "subtype": "noteOff",
                    "channel": 9,
                    "noteNumber": 54,
                    "velocity": 0,
                    "lightChannels": [
                        6,
                        7
                    ]
                }
            },
            "outline": {
                "pinValue": 0,
                "ticks": 12,
                "event": {
                    "deltaTime": 12,
                    "type": "channel",
                    "subtype": "noteOff",
                    "channel": 9,
                    "noteNumber": 54,
                    "velocity": 0,
                    "lightChannels": [
                        6,
                        7
                    ]
                }
            }
        }
    },
    {
        "changes": {
            "col-2": 0
        },
        "timeout": 0.17372861666666664,
        "raw": {
            "col-2": {
                "pinValue": 0,
                "ticks": 111,
                "event": {
                    "deltaTime": 111,
                    "type": "channel",
                    "subtype": "noteOff",
                    "channel": 7,
                    "noteNumber": 55,
                    "velocity": 0,
                    "lightChannels": [
                        4
                    ]
                }
            }
        }
    },
    {
        "changes": {
            "top-right": 0
        },
        "timeout": 0.0010593208333333332,
        "raw": {
            "top-right": {
                "pinValue": 0,
                "ticks": 1,
                "event": {
                    "deltaTime": 1,
                    "type": "channel",
                    "subtype": "noteOff",
                    "channel": 8,
                    "noteNumber": 55,
                    "velocity": 0,
                    "lightChannels": [
                        1
                    ]
                }
            }
        }
    },
    {
        "changes": {
            "window": 1,
            "outline": 1
        },
        "timeout": 0.03177962499999999,
        "raw": {
            "window": {
                "pinValue": 1,
                "ticks": 0,
                "event": {
                    "deltaTime": 0,
                    "type": "channel",
                    "subtype": "noteOn",
                    "channel": 9,
                    "noteNumber": 54,
                    "velocity": 87,
                    "lightChannels": [
                        6,
                        7
                    ]
                }
            },
            "outline": {
                "pinValue": 1,
                "ticks": 0,
                "event": {
                    "deltaTime": 0,
                    "type": "channel",
                    "subtype": "noteOn",
                    "channel": 9,
                    "noteNumber": 54,
                    "velocity": 87,
                    "lightChannels": [
                        6,
                        7
                    ]
                }
            }
        }
    },
    {
        "changes": {
            "col-3": 1
        },
        "timeout": 0.0010593208333333332,
        "raw": {
            "col-3": {
                "pinValue": 1,
                "ticks": 1,
                "event": {
                    "deltaTime": 1,
                    "type": "channel",
                    "subtype": "noteOn",
                    "channel": 7,
                    "noteNumber": 58,
                    "velocity": 71,
                    "lightChannels": [
                        5
                    ]
                }
            }
        }
    },
    {
        "changes": {
            "bottom-right": 1
        },
        "timeout": 0.006355925,
        "raw": {
            "bottom-right": {
                "pinValue": 1,
                "ticks": 5,
                "event": {
                    "deltaTime": 5,
                    "type": "channel",
                    "subtype": "noteOn",
                    "channel": 8,
                    "noteNumber": 58,
                    "velocity": 114,
                    "lightChannels": [
                        2
                    ]
                }
            }
        }
    },
    {
        "changes": {
            "window": 0,
            "outline": 0
        },
        "timeout": 0.050847399999999994,
        "raw": {
            "window": {
                "pinValue": 0,
                "ticks": 39,
                "event": {
                    "deltaTime": 39,
                    "type": "channel",
                    "subtype": "noteOff",
                    "channel": 9,
                    "noteNumber": 54,
                    "velocity": 0,
                    "lightChannels": [
                        6,
                        7
                    ]
                }
            },
            "outline": {
                "pinValue": 0,
                "ticks": 39,
                "event": {
                    "deltaTime": 39,
                    "type": "channel",
                    "subtype": "noteOff",
                    "channel": 9,
                    "noteNumber": 54,
                    "velocity": 0,
                    "lightChannels": [
                        6,
                        7
                    ]
                }
            }
        }
    },
    {
        "changes": {
            "window": 1,
            "outline": 1
        },
        "timeout": 0.18220318333333332,
        "raw": {
            "window": {
                "pinValue": 1,
                "ticks": 3,
                "event": {
                    "deltaTime": 3,
                    "type": "channel",
                    "subtype": "noteOn",
                    "channel": 9,
                    "noteNumber": 54,
                    "velocity": 91,
                    "lightChannels": [
                        6,
                        7
                    ]
                }
            },
            "outline": {
                "pinValue": 1,
                "ticks": 3,
                "event": {
                    "deltaTime": 3,
                    "type": "channel",
                    "subtype": "noteOn",
                    "channel": 9,
                    "noteNumber": 54,
                    "velocity": 91,
                    "lightChannels": [
                        6,
                        7
                    ]
                }
            }
        }
    },
    {
        "changes": {
            "window": 0,
            "outline": 0
        },
        "timeout": 0.05720332499999999,
        "raw": {
            "window": {
                "pinValue": 0,
                "ticks": 2,
                "event": {
                    "deltaTime": 2,
                    "type": "channel",
                    "subtype": "noteOff",
                    "channel": 9,
                    "noteNumber": 54,
                    "velocity": 0,
                    "lightChannels": [
                        6,
                        7
                    ]
                }
            },
            "outline": {
                "pinValue": 0,
                "ticks": 2,
                "event": {
                    "deltaTime": 2,
                    "type": "channel",
                    "subtype": "noteOff",
                    "channel": 9,
                    "noteNumber": 54,
                    "velocity": 0,
                    "lightChannels": [
                        6,
                        7
                    ]
                }
            }
        }
    },
    {
        "changes": {
            "col-3": 0
        },
        "timeout": 0.15148287916666667,
        "raw": {
            "col-3": {
                "pinValue": 0,
                "ticks": 54,
                "event": {
                    "deltaTime": 54,
                    "type": "channel",
                    "subtype": "noteOff",
                    "channel": 7,
                    "noteNumber": 58,
                    "velocity": 0,
                    "lightChannels": [
                        5
                    ]
                }
            }
        }
    },
    {
        "changes": {
            "bottom-right": 0
        },
        "timeout": 0.0158898125,
        "raw": {
            "bottom-right": {
                "pinValue": 0,
                "ticks": 15,
                "event": {
                    "deltaTime": 15,
                    "type": "channel",
                    "subtype": "noteOff",
                    "channel": 8,
                    "noteNumber": 58,
                    "velocity": 0,
                    "lightChannels": [
                        2
                    ]
                }
            }
        }
    },
    {
        "changes": {
            "window": 1,
            "outline": 1
        },
        "timeout": 0.03389826666666666,
        "raw": {
            "window": {
                "pinValue": 1,
                "ticks": 8,
                "event": {
                    "deltaTime": 8,
                    "type": "channel",
                    "subtype": "noteOn",
                    "channel": 9,
                    "noteNumber": 54,
                    "velocity": 90,
                    "lightChannels": [
                        6,
                        7
                    ]
                }
            },
            "outline": {
                "pinValue": 1,
                "ticks": 8,
                "event": {
                    "deltaTime": 8,
                    "type": "channel",
                    "subtype": "noteOn",
                    "channel": 9,
                    "noteNumber": 54,
                    "velocity": 90,
                    "lightChannels": [
                        6,
                        7
                    ]
                }
            }
        }
    },
    {
        "changes": {
            "garden": 1,
            "tree": 1
        },
        "timeout": 0.0010593208333333332,
        "raw": {
            "garden": {
                "pinValue": 1,
                "ticks": 1,
                "event": {
                    "deltaTime": 1,
                    "type": "channel",
                    "subtype": "noteOn",
                    "channel": 7,
                    "noteNumber": 57,
                    "velocity": 90,
                    "lightChannels": [
                        8,
                        9
                    ]
                }
            },
            "tree": {
                "pinValue": 1,
                "ticks": 1,
                "event": {
                    "deltaTime": 1,
                    "type": "channel",
                    "subtype": "noteOn",
                    "channel": 7,
                    "noteNumber": 57,
                    "velocity": 90,
                    "lightChannels": [
                        8,
                        9
                    ]
                }
            }
        }
    },
    {
        "changes": {
            "garage": 1
        },
        "timeout": 0.006355924999999999,
        "raw": {
            "garage": {
                "pinValue": 1,
                "ticks": 3,
                "event": {
                    "deltaTime": 3,
                    "type": "channel",
                    "subtype": "noteOn",
                    "channel": 8,
                    "noteNumber": 57,
                    "velocity": 119,
                    "lightChannels": [
                        0
                    ]
                }
            }
        }
    },
    {
        "changes": {
            "window": 0,
            "outline": 0
        },
        "timeout": 0.05190672083333332,
        "raw": {
            "window": {
                "pinValue": 0,
                "ticks": 35,
                "event": {
                    "deltaTime": 35,
                    "type": "channel",
                    "subtype": "noteOff",
                    "channel": 9,
                    "noteNumber": 54,
                    "velocity": 0,
                    "lightChannels": [
                        6,
                        7
                    ]
                }
            },
            "outline": {
                "pinValue": 0,
                "ticks": 35,
                "event": {
                    "deltaTime": 35,
                    "type": "channel",
                    "subtype": "noteOff",
                    "channel": 9,
                    "noteNumber": 54,
                    "velocity": 0,
                    "lightChannels": [
                        6,
                        7
                    ]
                }
            }
        }
    },
    {
        "changes": {
            "window": 1,
            "outline": 1
        },
        "timeout": 0.19491503333333335,
        "raw": {
            "window": {
                "pinValue": 1,
                "ticks": 3,
                "event": {
                    "deltaTime": 3,
                    "type": "channel",
                    "subtype": "noteOn",
                    "channel": 9,
                    "noteNumber": 54,
                    "velocity": 93,
                    "lightChannels": [
                        6,
                        7
                    ]
                }
            },
            "outline": {
                "pinValue": 1,
                "ticks": 3,
                "event": {
                    "deltaTime": 3,
                    "type": "channel",
                    "subtype": "noteOn",
                    "channel": 9,
                    "noteNumber": 54,
                    "velocity": 93,
                    "lightChannels": [
                        6,
                        7
                    ]
                }
            }
        }
    },
    {
        "changes": {
            "window": 0,
            "outline": 0
        },
        "timeout": 0.06461857083333333,
        "raw": {
            "window": {
                "pinValue": 0,
                "ticks": 27,
                "event": {
                    "deltaTime": 27,
                    "type": "channel",
                    "subtype": "noteOff",
                    "channel": 9,
                    "noteNumber": 54,
                    "velocity": 0,
                    "lightChannels": [
                        6,
                        7
                    ]
                }
            },
            "outline": {
                "pinValue": 0,
                "ticks": 27,
                "event": {
                    "deltaTime": 27,
                    "type": "channel",
                    "subtype": "noteOff",
                    "channel": 9,
                    "noteNumber": 54,
                    "velocity": 0,
                    "lightChannels": [
                        6,
                        7
                    ]
                }
            }
        }
    },
    {
        "changes": {
            "garage": 0
        },
        "timeout": 0.069915175,
        "raw": {
            "garage": {
                "pinValue": 0,
                "ticks": 10,
                "event": {
                    "deltaTime": 10,
                    "type": "channel",
                    "subtype": "noteOff",
                    "channel": 8,
                    "noteNumber": 57,
                    "velocity": 0,
                    "lightChannels": [
                        0
                    ]
                }
            }
        }
    },
    {
        "changes": {
            "garden": 0,
            "tree": 0
        },
        "timeout": 0.022245737499999998,
        "raw": {
            "garden": {
                "pinValue": 0,
                "ticks": 21,
                "event": {
                    "deltaTime": 21,
                    "type": "channel",
                    "subtype": "noteOff",
                    "channel": 7,
                    "noteNumber": 57,
                    "velocity": 0,
                    "lightChannels": [
                        8,
                        9
                    ]
                }
            },
            "tree": {
                "pinValue": 0,
                "ticks": 21,
                "event": {
                    "deltaTime": 21,
                    "type": "channel",
                    "subtype": "noteOff",
                    "channel": 7,
                    "noteNumber": 57,
                    "velocity": 0,
                    "lightChannels": [
                        8,
                        9
                    ]
                }
            }
        }
    },
    {
        "changes": {
            "top-right": 1
        },
        "timeout": 0.10275412083333332,
        "raw": {
            "top-right": {
                "pinValue": 1,
                "ticks": 16,
                "event": {
                    "deltaTime": 16,
                    "type": "channel",
                    "subtype": "noteOn",
                    "channel": 8,
                    "noteNumber": 57,
                    "velocity": 126,
                    "lightChannels": [
                        1
                    ]
                }
            }
        }
    },
    {
        "changes": {
            "col-1": 1
        },
        "timeout": 0.0031779624999999996,
        "raw": {
            "col-1": {
                "pinValue": 1,
                "ticks": 0,
                "event": {
                    "deltaTime": 0,
                    "type": "channel",
                    "subtype": "noteOn",
                    "channel": 7,
                    "noteNumber": 57,
                    "velocity": 88,
                    "lightChannels": [
                        3
                    ]
                }
            }
        }
    },
    {
        "changes": {
            "window": 1,
            "outline": 1
        },
        "timeout": 0.0095338875,
        "raw": {
            "window": {
                "pinValue": 1,
                "ticks": 1,
                "event": {
                    "deltaTime": 1,
                    "type": "channel",
                    "subtype": "noteOn",
                    "channel": 9,
                    "noteNumber": 54,
                    "velocity": 88,
                    "lightChannels": [
                        6,
                        7
                    ]
                }
            },
            "outline": {
                "pinValue": 1,
                "ticks": 1,
                "event": {
                    "deltaTime": 1,
                    "type": "channel",
                    "subtype": "noteOn",
                    "channel": 9,
                    "noteNumber": 54,
                    "velocity": 88,
                    "lightChannels": [
                        6,
                        7
                    ]
                }
            }
        }
    },
    {
        "changes": {
            "window": 0,
            "outline": 0
        },
        "timeout": 0.056144004166666664,
        "raw": {
            "window": {
                "pinValue": 0,
                "ticks": 3,
                "event": {
                    "deltaTime": 3,
                    "type": "channel",
                    "subtype": "noteOff",
                    "channel": 9,
                    "noteNumber": 54,
                    "velocity": 0,
                    "lightChannels": [
                        6,
                        7
                    ]
                }
            },
            "outline": {
                "pinValue": 0,
                "ticks": 3,
                "event": {
                    "deltaTime": 3,
                    "type": "channel",
                    "subtype": "noteOff",
                    "channel": 9,
                    "noteNumber": 54,
                    "velocity": 0,
                    "lightChannels": [
                        6,
                        7
                    ]
                }
            }
        }
    },
    {
        "changes": {
            "window": 1,
            "outline": 1
        },
        "timeout": 0.1843218249999999,
        "raw": {
            "window": {
                "pinValue": 1,
                "ticks": 1,
                "event": {
                    "deltaTime": 1,
                    "type": "channel",
                    "subtype": "noteOn",
                    "channel": 9,
                    "noteNumber": 54,
                    "velocity": 91,
                    "lightChannels": [
                        6,
                        7
                    ]
                }
            },
            "outline": {
                "pinValue": 1,
                "ticks": 1,
                "event": {
                    "deltaTime": 1,
                    "type": "channel",
                    "subtype": "noteOn",
                    "channel": 9,
                    "noteNumber": 54,
                    "velocity": 91,
                    "lightChannels": [
                        6,
                        7
                    ]
                }
            }
        }
    },
    {
        "changes": {
            "window": 0,
            "outline": 0
        },
        "timeout": 0.05826264583333333,
        "raw": {
            "window": {
                "pinValue": 0,
                "ticks": 9,
                "event": {
                    "deltaTime": 9,
                    "type": "channel",
                    "subtype": "noteOff",
                    "channel": 9,
                    "noteNumber": 54,
                    "velocity": 0,
                    "lightChannels": [
                        6,
                        7
                    ]
                }
            },
            "outline": {
                "pinValue": 0,
                "ticks": 9,
                "event": {
                    "deltaTime": 9,
                    "type": "channel",
                    "subtype": "noteOff",
                    "channel": 9,
                    "noteNumber": 54,
                    "velocity": 0,
                    "lightChannels": [
                        6,
                        7
                    ]
                }
            }
        }
    },
    {
        "changes": {
            "col-1": 0
        },
        "timeout": 0.12394053749999999,
        "raw": {
            "col-1": {
                "pinValue": 0,
                "ticks": 103,
                "event": {
                    "deltaTime": 103,
                    "type": "channel",
                    "subtype": "noteOff",
                    "channel": 7,
                    "noteNumber": 57,
                    "velocity": 0,
                    "lightChannels": [
                        3
                    ]
                }
            }
        }
    },
    {
        "changes": {
            "top-right": 0
        },
        "timeout": 0.02012709583333333,
        "raw": {
            "top-right": {
                "pinValue": 0,
                "ticks": 9,
                "event": {
                    "deltaTime": 9,
                    "type": "channel",
                    "subtype": "noteOff",
                    "channel": 8,
                    "noteNumber": 57,
                    "velocity": 0,
                    "lightChannels": [
                        1
                    ]
                }
            }
        }
    },
    {
        "changes": {
            "col-2": 1
        },
        "timeout": 0.030720304166666663,
        "raw": {
            "col-2": {
                "pinValue": 1,
                "ticks": 10,
                "event": {
                    "deltaTime": 10,
                    "type": "channel",
                    "subtype": "noteOn",
                    "channel": 7,
                    "noteNumber": 55,
                    "velocity": 87,
                    "lightChannels": [
                        4
                    ]
                }
            }
        }
    },
    {
        "changes": {
            "bottom-right": 1
        },
        "timeout": 0.0095338875,
        "raw": {
            "bottom-right": {
                "pinValue": 1,
                "ticks": 9,
                "event": {
                    "deltaTime": 9,
                    "type": "channel",
                    "subtype": "noteOn",
                    "channel": 8,
                    "noteNumber": 55,
                    "velocity": 121,
                    "lightChannels": [
                        2
                    ]
                }
            }
        }
    },
    {
        "changes": {
            "window": 1,
            "outline": 1
        },
        "timeout": 0.008474566666666666,
        "raw": {
            "window": {
                "pinValue": 1,
                "ticks": 2,
                "event": {
                    "deltaTime": 2,
                    "type": "channel",
                    "subtype": "noteOn",
                    "channel": 9,
                    "noteNumber": 54,
                    "velocity": 95,
                    "lightChannels": [
                        6,
                        7
                    ]
                }
            },
            "outline": {
                "pinValue": 1,
                "ticks": 2,
                "event": {
                    "deltaTime": 2,
                    "type": "channel",
                    "subtype": "noteOn",
                    "channel": 9,
                    "noteNumber": 54,
                    "velocity": 95,
                    "lightChannels": [
                        6,
                        7
                    ]
                }
            }
        }
    },
    {
        "changes": {
            "window": 0,
            "outline": 0
        },
        "timeout": 0.056144004166666664,
        "raw": {
            "window": {
                "pinValue": 0,
                "ticks": 6,
                "event": {
                    "deltaTime": 6,
                    "type": "channel",
                    "subtype": "noteOff",
                    "channel": 9,
                    "noteNumber": 54,
                    "velocity": 0,
                    "lightChannels": [
                        6,
                        7
                    ]
                }
            },
            "outline": {
                "pinValue": 0,
                "ticks": 6,
                "event": {
                    "deltaTime": 6,
                    "type": "channel",
                    "subtype": "noteOff",
                    "channel": 9,
                    "noteNumber": 54,
                    "velocity": 0,
                    "lightChannels": [
                        6,
                        7
                    ]
                }
            }
        }
    },
    {
        "changes": {
            "window": 1,
            "outline": 1
        },
        "timeout": 0.1747879375,
        "raw": {
            "window": {
                "pinValue": 1,
                "ticks": 0,
                "event": {
                    "deltaTime": 0,
                    "type": "channel",
                    "subtype": "noteOn",
                    "channel": 9,
                    "noteNumber": 54,
                    "velocity": 93,
                    "lightChannels": [
                        6,
                        7
                    ]
                }
            },
            "outline": {
                "pinValue": 1,
                "ticks": 0,
                "event": {
                    "deltaTime": 0,
                    "type": "channel",
                    "subtype": "noteOn",
                    "channel": 9,
                    "noteNumber": 54,
                    "velocity": 93,
                    "lightChannels": [
                        6,
                        7
                    ]
                }
            }
        }
    },
    {
        "changes": {
            "window": 0,
            "outline": 0
        },
        "timeout": 0.05826264583333332,
        "raw": {
            "window": {
                "pinValue": 0,
                "ticks": 7,
                "event": {
                    "deltaTime": 7,
                    "type": "channel",
                    "subtype": "noteOff",
                    "channel": 9,
                    "noteNumber": 54,
                    "velocity": 0,
                    "lightChannels": [
                        6,
                        7
                    ]
                }
            },
            "outline": {
                "pinValue": 0,
                "ticks": 7,
                "event": {
                    "deltaTime": 7,
                    "type": "channel",
                    "subtype": "noteOff",
                    "channel": 9,
                    "noteNumber": 54,
                    "velocity": 0,
                    "lightChannels": [
                        6,
                        7
                    ]
                }
            }
        }
    },
    {
        "changes": {
            "col-2": 0
        },
        "timeout": 0.1408896708333333,
        "raw": {
            "col-2": {
                "pinValue": 0,
                "ticks": 9,
                "event": {
                    "deltaTime": 9,
                    "type": "channel",
                    "subtype": "noteOff",
                    "channel": 7,
                    "noteNumber": 55,
                    "velocity": 0,
                    "lightChannels": [
                        4
                    ]
                }
            }
        }
    },
    {
        "changes": {
            "bottom-right": 0
        },
        "timeout": 0.03707622916666666,
        "raw": {
            "bottom-right": {
                "pinValue": 0,
                "ticks": 22,
                "event": {
                    "deltaTime": 22,
                    "type": "channel",
                    "subtype": "noteOff",
                    "channel": 8,
                    "noteNumber": 55,
                    "velocity": 0,
                    "lightChannels": [
                        2
                    ]
                }
            }
        }
    },
    {
        "changes": {
            "col-3": 1
        },
        "timeout": 0.01694913333333333,
        "raw": {
            "col-3": {
                "pinValue": 1,
                "ticks": 0,
                "event": {
                    "deltaTime": 0,
                    "type": "channel",
                    "subtype": "noteOn",
                    "channel": 7,
                    "noteNumber": 58,
                    "velocity": 93,
                    "lightChannels": [
                        5
                    ]
                }
            }
        }
    },
    {
        "changes": {
            "window": 1,
            "outline": 1
        },
        "timeout": 0.010593208333333331,
        "raw": {
            "window": {
                "pinValue": 1,
                "ticks": 7,
                "event": {
                    "deltaTime": 7,
                    "type": "channel",
                    "subtype": "noteOn",
                    "channel": 9,
                    "noteNumber": 54,
                    "velocity": 93,
                    "lightChannels": [
                        6,
                        7
                    ]
                }
            },
            "outline": {
                "pinValue": 1,
                "ticks": 7,
                "event": {
                    "deltaTime": 7,
                    "type": "channel",
                    "subtype": "noteOn",
                    "channel": 9,
                    "noteNumber": 54,
                    "velocity": 93,
                    "lightChannels": [
                        6,
                        7
                    ]
                }
            }
        }
    },
    {
        "changes": {
            "garage": 1
        },
        "timeout": 0.014830491666666664,
        "raw": {
            "garage": {
                "pinValue": 1,
                "ticks": 3,
                "event": {
                    "deltaTime": 3,
                    "type": "channel",
                    "subtype": "noteOn",
                    "channel": 8,
                    "noteNumber": 58,
                    "velocity": 114,
                    "lightChannels": [
                        0
                    ]
                }
            }
        }
    },
    {
        "changes": {
            "window": 0,
            "outline": 0
        },
        "timeout": 0.04555079583333333,
        "raw": {
            "window": {
                "pinValue": 0,
                "ticks": 2,
                "event": {
                    "deltaTime": 2,
                    "type": "channel",
                    "subtype": "noteOff",
                    "channel": 9,
                    "noteNumber": 54,
                    "velocity": 0,
                    "lightChannels": [
                        6,
                        7
                    ]
                }
            },
            "outline": {
                "pinValue": 0,
                "ticks": 2,
                "event": {
                    "deltaTime": 2,
                    "type": "channel",
                    "subtype": "noteOff",
                    "channel": 9,
                    "noteNumber": 54,
                    "velocity": 0,
                    "lightChannels": [
                        6,
                        7
                    ]
                }
            }
        }
    },
    {
        "changes": {
            "window": 1,
            "outline": 1
        },
        "timeout": 0.18326250416666662,
        "raw": {
            "window": {
                "pinValue": 1,
                "ticks": 4,
                "event": {
                    "deltaTime": 4,
                    "type": "channel",
                    "subtype": "noteOn",
                    "channel": 9,
                    "noteNumber": 54,
                    "velocity": 87,
                    "lightChannels": [
                        6,
                        7
                    ]
                }
            },
            "outline": {
                "pinValue": 1,
                "ticks": 4,
                "event": {
                    "deltaTime": 4,
                    "type": "channel",
                    "subtype": "noteOn",
                    "channel": 9,
                    "noteNumber": 54,
                    "velocity": 87,
                    "lightChannels": [
                        6,
                        7
                    ]
                }
            }
        }
    },
    {
        "changes": {
            "window": 0,
            "outline": 0
        },
        "timeout": 0.05826264583333332,
        "raw": {
            "window": {
                "pinValue": 0,
                "ticks": 9,
                "event": {
                    "deltaTime": 9,
                    "type": "channel",
                    "subtype": "noteOff",
                    "channel": 9,
                    "noteNumber": 54,
                    "velocity": 0,
                    "lightChannels": [
                        6,
                        7
                    ]
                }
            },
            "outline": {
                "pinValue": 0,
                "ticks": 9,
                "event": {
                    "deltaTime": 9,
                    "type": "channel",
                    "subtype": "noteOff",
                    "channel": 9,
                    "noteNumber": 54,
                    "velocity": 0,
                    "lightChannels": [
                        6,
                        7
                    ]
                }
            }
        }
    },
    {
        "changes": {
            "col-3": 0
        },
        "timeout": 0.14830491666666665,
        "raw": {
            "col-3": {
                "pinValue": 0,
                "ticks": 23,
                "event": {
                    "deltaTime": 23,
                    "type": "channel",
                    "subtype": "noteOff",
                    "channel": 7,
                    "noteNumber": 58,
                    "velocity": 0,
                    "lightChannels": [
                        5
                    ]
                }
            }
        }
    },
    {
        "changes": {
            "garage": 0
        },
        "timeout": 0.025423699999999997,
        "raw": {
            "garage": {
                "pinValue": 0,
                "ticks": 24,
                "event": {
                    "deltaTime": 24,
                    "type": "channel",
                    "subtype": "noteOff",
                    "channel": 8,
                    "noteNumber": 58,
                    "velocity": 0,
                    "lightChannels": [
                        0
                    ]
                }
            }
        }
    },
    {
        "changes": {
            "window": 1,
            "outline": 1
        },
        "timeout": 0.031779625,
        "raw": {
            "window": {
                "pinValue": 1,
                "ticks": 4,
                "event": {
                    "deltaTime": 4,
                    "type": "channel",
                    "subtype": "noteOn",
                    "channel": 9,
                    "noteNumber": 54,
                    "velocity": 91,
                    "lightChannels": [
                        6,
                        7
                    ]
                }
            },
            "outline": {
                "pinValue": 1,
                "ticks": 4,
                "event": {
                    "deltaTime": 4,
                    "type": "channel",
                    "subtype": "noteOn",
                    "channel": 9,
                    "noteNumber": 54,
                    "velocity": 91,
                    "lightChannels": [
                        6,
                        7
                    ]
                }
            }
        }
    },
    {
        "changes": {
            "garden": 1,
            "tree": 1
        },
        "timeout": 0.0052966041666666665,
        "raw": {
            "garden": {
                "pinValue": 1,
                "ticks": 1,
                "event": {
                    "deltaTime": 1,
                    "type": "channel",
                    "subtype": "noteOn",
                    "channel": 7,
                    "noteNumber": 57,
                    "velocity": 90,
                    "lightChannels": [
                        8,
                        9
                    ]
                }
            },
            "tree": {
                "pinValue": 1,
                "ticks": 1,
                "event": {
                    "deltaTime": 1,
                    "type": "channel",
                    "subtype": "noteOn",
                    "channel": 7,
                    "noteNumber": 57,
                    "velocity": 90,
                    "lightChannels": [
                        8,
                        9
                    ]
                }
            }
        }
    },
    {
        "changes": {
            "top-right": 1
        },
        "timeout": 0.006355924999999999,
        "raw": {
            "top-right": {
                "pinValue": 1,
                "ticks": 2,
                "event": {
                    "deltaTime": 2,
                    "type": "channel",
                    "subtype": "noteOn",
                    "channel": 8,
                    "noteNumber": 57,
                    "velocity": 116,
                    "lightChannels": [
                        1
                    ]
                }
            }
        }
    },
    {
        "changes": {
            "window": 0,
            "outline": 0
        },
        "timeout": 0.044491474999999996,
        "raw": {
            "window": {
                "pinValue": 0,
                "ticks": 4,
                "event": {
                    "deltaTime": 4,
                    "type": "channel",
                    "subtype": "noteOff",
                    "channel": 9,
                    "noteNumber": 54,
                    "velocity": 0,
                    "lightChannels": [
                        6,
                        7
                    ]
                }
            },
            "outline": {
                "pinValue": 0,
                "ticks": 4,
                "event": {
                    "deltaTime": 4,
                    "type": "channel",
                    "subtype": "noteOff",
                    "channel": 9,
                    "noteNumber": 54,
                    "velocity": 0,
                    "lightChannels": [
                        6,
                        7
                    ]
                }
            }
        }
    },
    {
        "changes": {
            "window": 1,
            "outline": 1
        },
        "timeout": 0.18008454166666663,
        "raw": {
            "window": {
                "pinValue": 1,
                "ticks": 2,
                "event": {
                    "deltaTime": 2,
                    "type": "channel",
                    "subtype": "noteOn",
                    "channel": 9,
                    "noteNumber": 54,
                    "velocity": 87,
                    "lightChannels": [
                        6,
                        7
                    ]
                }
            },
            "outline": {
                "pinValue": 1,
                "ticks": 2,
                "event": {
                    "deltaTime": 2,
                    "type": "channel",
                    "subtype": "noteOn",
                    "channel": 9,
                    "noteNumber": 54,
                    "velocity": 87,
                    "lightChannels": [
                        6,
                        7
                    ]
                }
            }
        }
    },
    {
        "changes": {
            "window": 0,
            "outline": 0
        },
        "timeout": 0.057203325,
        "raw": {
            "window": {
                "pinValue": 0,
                "ticks": 3,
                "event": {
                    "deltaTime": 3,
                    "type": "channel",
                    "subtype": "noteOff",
                    "channel": 9,
                    "noteNumber": 54,
                    "velocity": 0,
                    "lightChannels": [
                        6,
                        7
                    ]
                }
            },
            "outline": {
                "pinValue": 0,
                "ticks": 3,
                "event": {
                    "deltaTime": 3,
                    "type": "channel",
                    "subtype": "noteOff",
                    "channel": 9,
                    "noteNumber": 54,
                    "velocity": 0,
                    "lightChannels": [
                        6,
                        7
                    ]
                }
            }
        }
    },
    {
        "changes": {
            "top-right": 0
        },
        "timeout": 0.09004227083333333,
        "raw": {
            "top-right": {
                "pinValue": 0,
                "ticks": 2,
                "event": {
                    "deltaTime": 2,
                    "type": "channel",
                    "subtype": "noteOff",
                    "channel": 8,
                    "noteNumber": 57,
                    "velocity": 0,
                    "lightChannels": [
                        1
                    ]
                }
            }
        }
    },
    {
        "changes": {
            "garden": 0,
            "tree": 0
        },
        "timeout": 0.013771170833333332,
        "raw": {
            "garden": {
                "pinValue": 0,
                "ticks": 7,
                "event": {
                    "deltaTime": 7,
                    "type": "channel",
                    "subtype": "noteOff",
                    "channel": 7,
                    "noteNumber": 57,
                    "velocity": 0,
                    "lightChannels": [
                        8,
                        9
                    ]
                }
            },
            "tree": {
                "pinValue": 0,
                "ticks": 7,
                "event": {
                    "deltaTime": 7,
                    "type": "channel",
                    "subtype": "noteOff",
                    "channel": 7,
                    "noteNumber": 57,
                    "velocity": 0,
                    "lightChannels": [
                        8,
                        9
                    ]
                }
            }
        }
    },
    {
        "changes": {
            "window": 1,
            "outline": 1
        },
        "timeout": 0.10805072500000001,
        "raw": {
            "window": {
                "pinValue": 1,
                "ticks": 3,
                "event": {
                    "deltaTime": 3,
                    "type": "channel",
                    "subtype": "noteOn",
                    "channel": 9,
                    "noteNumber": 54,
                    "velocity": 96,
                    "lightChannels": [
                        6,
                        7
                    ]
                }
            },
            "outline": {
                "pinValue": 1,
                "ticks": 3,
                "event": {
                    "deltaTime": 3,
                    "type": "channel",
                    "subtype": "noteOn",
                    "channel": 9,
                    "noteNumber": 54,
                    "velocity": 96,
                    "lightChannels": [
                        6,
                        7
                    ]
                }
            }
        }
    },
    {
        "changes": {
            "bottom-right": 1
        },
        "timeout": 0.022245737499999998,
        "raw": {
            "bottom-right": {
                "pinValue": 1,
                "ticks": 0,
                "event": {
                    "deltaTime": 0,
                    "type": "channel",
                    "subtype": "noteOn",
                    "channel": 8,
                    "noteNumber": 57,
                    "velocity": 126,
                    "lightChannels": [
                        2
                    ]
                }
            }
        }
    },
    {
        "changes": {
            "col-1": 1
        },
        "timeout": 0.024364379166666665,
        "raw": {
            "col-1": {
                "pinValue": 1,
                "ticks": 21,
                "event": {
                    "deltaTime": 21,
                    "type": "channel",
                    "subtype": "noteOn",
                    "channel": 7,
                    "noteNumber": 57,
                    "velocity": 91,
                    "lightChannels": [
                        3
                    ]
                }
            }
        }
    },
    {
        "changes": {
            "window": 0,
            "outline": 0
        },
        "timeout": 0.011652529166666665,
        "raw": {
            "window": {
                "pinValue": 0,
                "ticks": 0,
                "event": {
                    "deltaTime": 0,
                    "type": "channel",
                    "subtype": "noteOff",
                    "channel": 9,
                    "noteNumber": 54,
                    "velocity": 0,
                    "lightChannels": [
                        6,
                        7
                    ]
                }
            },
            "outline": {
                "pinValue": 0,
                "ticks": 0,
                "event": {
                    "deltaTime": 0,
                    "type": "channel",
                    "subtype": "noteOff",
                    "channel": 9,
                    "noteNumber": 54,
                    "velocity": 0,
                    "lightChannels": [
                        6,
                        7
                    ]
                }
            }
        }
    },
    {
        "changes": {
            "window": 1,
            "outline": 1
        },
        "timeout": 0.19385571249999994,
        "raw": {
            "window": {
                "pinValue": 1,
                "ticks": 3,
                "event": {
                    "deltaTime": 3,
                    "type": "channel",
                    "subtype": "noteOn",
                    "channel": 9,
                    "noteNumber": 54,
                    "velocity": 84,
                    "lightChannels": [
                        6,
                        7
                    ]
                }
            },
            "outline": {
                "pinValue": 1,
                "ticks": 3,
                "event": {
                    "deltaTime": 3,
                    "type": "channel",
                    "subtype": "noteOn",
                    "channel": 9,
                    "noteNumber": 54,
                    "velocity": 84,
                    "lightChannels": [
                        6,
                        7
                    ]
                }
            }
        }
    },
    {
        "changes": {
            "window": 0,
            "outline": 0
        },
        "timeout": 0.050847399999999994,
        "raw": {
            "window": {
                "pinValue": 0,
                "ticks": 2,
                "event": {
                    "deltaTime": 2,
                    "type": "channel",
                    "subtype": "noteOff",
                    "channel": 9,
                    "noteNumber": 54,
                    "velocity": 0,
                    "lightChannels": [
                        6,
                        7
                    ]
                }
            },
            "outline": {
                "pinValue": 0,
                "ticks": 2,
                "event": {
                    "deltaTime": 2,
                    "type": "channel",
                    "subtype": "noteOff",
                    "channel": 9,
                    "noteNumber": 54,
                    "velocity": 0,
                    "lightChannels": [
                        6,
                        7
                    ]
                }
            }
        }
    },
    {
        "changes": {
            "col-1": 0
        },
        "timeout": 0.16101676666666664,
        "raw": {
            "col-1": {
                "pinValue": 0,
                "ticks": 85,
                "event": {
                    "deltaTime": 85,
                    "type": "channel",
                    "subtype": "noteOff",
                    "channel": 7,
                    "noteNumber": 57,
                    "velocity": 0,
                    "lightChannels": [
                        3
                    ]
                }
            }
        }
    },
    {
        "changes": {
            "bottom-right": 0
        },
        "timeout": 0.011652529166666665,
        "raw": {
            "bottom-right": {
                "pinValue": 0,
                "ticks": 11,
                "event": {
                    "deltaTime": 11,
                    "type": "channel",
                    "subtype": "noteOff",
                    "channel": 8,
                    "noteNumber": 57,
                    "velocity": 0,
                    "lightChannels": [
                        2
                    ]
                }
            }
        }
    },
    {
        "changes": {
            "window": 1,
            "outline": 1
        },
        "timeout": 0.032838945833333334,
        "raw": {
            "window": {
                "pinValue": 1,
                "ticks": 1,
                "event": {
                    "deltaTime": 1,
                    "type": "channel",
                    "subtype": "noteOn",
                    "channel": 9,
                    "noteNumber": 54,
                    "velocity": 84,
                    "lightChannels": [
                        6,
                        7
                    ]
                }
            },
            "outline": {
                "pinValue": 1,
                "ticks": 1,
                "event": {
                    "deltaTime": 1,
                    "type": "channel",
                    "subtype": "noteOn",
                    "channel": 9,
                    "noteNumber": 54,
                    "velocity": 84,
                    "lightChannels": [
                        6,
                        7
                    ]
                }
            }
        }
    },
    {
        "changes": {
            "col-2": 1
        },
        "timeout": 0.01694913333333333,
        "raw": {
            "col-2": {
                "pinValue": 1,
                "ticks": 0,
                "event": {
                    "deltaTime": 0,
                    "type": "channel",
                    "subtype": "noteOn",
                    "channel": 7,
                    "noteNumber": 55,
                    "velocity": 86,
                    "lightChannels": [
                        4
                    ]
                }
            }
        }
    },
    {
        "changes": {
            "garage": 1
        },
        "timeout": 0.012711849999999998,
        "raw": {
            "garage": {
                "pinValue": 1,
                "ticks": 12,
                "event": {
                    "deltaTime": 12,
                    "type": "channel",
                    "subtype": "noteOn",
                    "channel": 8,
                    "noteNumber": 55,
                    "velocity": 115,
                    "lightChannels": [
                        0
                    ]
                }
            }
        }
    },
    {
        "changes": {
            "window": 0,
            "outline": 0
        },
        "timeout": 0.029660983333333328,
        "raw": {
            "window": {
                "pinValue": 0,
                "ticks": 28,
                "event": {
                    "deltaTime": 28,
                    "type": "channel",
                    "subtype": "noteOff",
                    "channel": 9,
                    "noteNumber": 54,
                    "velocity": 0,
                    "lightChannels": [
                        6,
                        7
                    ]
                }
            },
            "outline": {
                "pinValue": 0,
                "ticks": 28,
                "event": {
                    "deltaTime": 28,
                    "type": "channel",
                    "subtype": "noteOff",
                    "channel": 9,
                    "noteNumber": 54,
                    "velocity": 0,
                    "lightChannels": [
                        6,
                        7
                    ]
                }
            }
        }
    },
    {
        "changes": {
            "window": 1,
            "outline": 1
        },
        "timeout": 0.2086862041666667,
        "raw": {
            "window": {
                "pinValue": 1,
                "ticks": 6,
                "event": {
                    "deltaTime": 6,
                    "type": "channel",
                    "subtype": "noteOn",
                    "channel": 9,
                    "noteNumber": 54,
                    "velocity": 88,
                    "lightChannels": [
                        6,
                        7
                    ]
                }
            },
            "outline": {
                "pinValue": 1,
                "ticks": 6,
                "event": {
                    "deltaTime": 6,
                    "type": "channel",
                    "subtype": "noteOn",
                    "channel": 9,
                    "noteNumber": 54,
                    "velocity": 88,
                    "lightChannels": [
                        6,
                        7
                    ]
                }
            }
        }
    },
    {
        "changes": {
            "window": 0,
            "outline": 0
        },
        "timeout": 0.058262645833333335,
        "raw": {
            "window": {
                "pinValue": 0,
                "ticks": 1,
                "event": {
                    "deltaTime": 1,
                    "type": "channel",
                    "subtype": "noteOff",
                    "channel": 9,
                    "noteNumber": 54,
                    "velocity": 0,
                    "lightChannels": [
                        6,
                        7
                    ]
                }
            },
            "outline": {
                "pinValue": 0,
                "ticks": 1,
                "event": {
                    "deltaTime": 1,
                    "type": "channel",
                    "subtype": "noteOff",
                    "channel": 9,
                    "noteNumber": 54,
                    "velocity": 0,
                    "lightChannels": [
                        6,
                        7
                    ]
                }
            }
        }
    },
    {
        "changes": {
            "col-2": 0
        },
        "timeout": 0.14936423749999997,
        "raw": {
            "col-2": {
                "pinValue": 0,
                "ticks": 17,
                "event": {
                    "deltaTime": 17,
                    "type": "channel",
                    "subtype": "noteOff",
                    "channel": 7,
                    "noteNumber": 55,
                    "velocity": 0,
                    "lightChannels": [
                        4
                    ]
                }
            }
        }
    },
    {
        "changes": {
            "garage": 0
        },
        "timeout": 0.02436437916666666,
        "raw": {
            "garage": {
                "pinValue": 0,
                "ticks": 1,
                "event": {
                    "deltaTime": 1,
                    "type": "channel",
                    "subtype": "noteOff",
                    "channel": 8,
                    "noteNumber": 55,
                    "velocity": 0,
                    "lightChannels": [
                        0
                    ]
                }
            }
        }
    },
    {
        "changes": {
            "window": 1,
            "outline": 1
        },
        "timeout": 0.031779625,
        "raw": {
            "window": {
                "pinValue": 1,
                "ticks": 9,
                "event": {
                    "deltaTime": 9,
                    "type": "channel",
                    "subtype": "noteOn",
                    "channel": 9,
                    "noteNumber": 54,
                    "velocity": 87,
                    "lightChannels": [
                        6,
                        7
                    ]
                }
            },
            "outline": {
                "pinValue": 1,
                "ticks": 9,
                "event": {
                    "deltaTime": 9,
                    "type": "channel",
                    "subtype": "noteOn",
                    "channel": 9,
                    "noteNumber": 54,
                    "velocity": 87,
                    "lightChannels": [
                        6,
                        7
                    ]
                }
            }
        }
    },
    {
        "changes": {
            "col-3": 1
        },
        "timeout": 0.011652529166666665,
        "raw": {
            "col-3": {
                "pinValue": 1,
                "ticks": 2,
                "event": {
                    "deltaTime": 2,
                    "type": "channel",
                    "subtype": "noteOn",
                    "channel": 7,
                    "noteNumber": 58,
                    "velocity": 101,
                    "lightChannels": [
                        5
                    ]
                }
            }
        }
    },
    {
        "changes": {
            "top-right": 1
        },
        "timeout": 0.0052966041666666665,
        "raw": {
            "top-right": {
                "pinValue": 1,
                "ticks": 5,
                "event": {
                    "deltaTime": 5,
                    "type": "channel",
                    "subtype": "noteOn",
                    "channel": 8,
                    "noteNumber": 58,
                    "velocity": 116,
                    "lightChannels": [
                        1
                    ]
                }
            }
        }
    },
    {
        "changes": {
            "window": 0,
            "outline": 0
        },
        "timeout": 0.03813555,
        "raw": {
            "window": {
                "pinValue": 0,
                "ticks": 2,
                "event": {
                    "deltaTime": 2,
                    "type": "channel",
                    "subtype": "noteOff",
                    "channel": 9,
                    "noteNumber": 54,
                    "velocity": 0,
                    "lightChannels": [
                        6,
                        7
                    ]
                }
            },
            "outline": {
                "pinValue": 0,
                "ticks": 2,
                "event": {
                    "deltaTime": 2,
                    "type": "channel",
                    "subtype": "noteOff",
                    "channel": 9,
                    "noteNumber": 54,
                    "velocity": 0,
                    "lightChannels": [
                        6,
                        7
                    ]
                }
            }
        }
    },
    {
        "changes": {
            "window": 1,
            "outline": 1
        },
        "timeout": 0.19915231666666663,
        "raw": {
            "window": {
                "pinValue": 1,
                "ticks": 0,
                "event": {
                    "deltaTime": 0,
                    "type": "channel",
                    "subtype": "noteOn",
                    "channel": 9,
                    "noteNumber": 54,
                    "velocity": 88,
                    "lightChannels": [
                        6,
                        7
                    ]
                }
            },
            "outline": {
                "pinValue": 1,
                "ticks": 0,
                "event": {
                    "deltaTime": 0,
                    "type": "channel",
                    "subtype": "noteOn",
                    "channel": 9,
                    "noteNumber": 54,
                    "velocity": 88,
                    "lightChannels": [
                        6,
                        7
                    ]
                }
            }
        }
    },
    {
        "changes": {
            "window": 0,
            "outline": 0
        },
        "timeout": 0.05720332499999999,
        "raw": {
            "window": {
                "pinValue": 0,
                "ticks": 6,
                "event": {
                    "deltaTime": 6,
                    "type": "channel",
                    "subtype": "noteOff",
                    "channel": 9,
                    "noteNumber": 54,
                    "velocity": 0,
                    "lightChannels": [
                        6,
                        7
                    ]
                }
            },
            "outline": {
                "pinValue": 0,
                "ticks": 6,
                "event": {
                    "deltaTime": 6,
                    "type": "channel",
                    "subtype": "noteOff",
                    "channel": 9,
                    "noteNumber": 54,
                    "velocity": 0,
                    "lightChannels": [
                        6,
                        7
                    ]
                }
            }
        }
    },
    {
        "changes": {
            "col-3": 0
        },
        "timeout": 0.1271185,
        "raw": {
            "col-3": {
                "pinValue": 0,
                "ticks": 33,
                "event": {
                    "deltaTime": 33,
                    "type": "channel",
                    "subtype": "noteOff",
                    "channel": 7,
                    "noteNumber": 58,
                    "velocity": 0,
                    "lightChannels": [
                        5
                    ]
                }
            }
        }
    },
    {
        "changes": {
            "top-right": 0
        },
        "timeout": 0.021186416666666666,
        "raw": {
            "top-right": {
                "pinValue": 0,
                "ticks": 20,
                "event": {
                    "deltaTime": 20,
                    "type": "channel",
                    "subtype": "noteOff",
                    "channel": 8,
                    "noteNumber": 58,
                    "velocity": 0,
                    "lightChannels": [
                        1
                    ]
                }
            }
        }
    },
    {
        "changes": {
            "garden": 1,
            "tree": 1
        },
        "timeout": 0.04025419166666667,
        "raw": {
            "garden": {
                "pinValue": 1,
                "ticks": 1,
                "event": {
                    "deltaTime": 1,
                    "type": "channel",
                    "subtype": "noteOn",
                    "channel": 7,
                    "noteNumber": 57,
                    "velocity": 95,
                    "lightChannels": [
                        8,
                        9
                    ]
                }
            },
            "tree": {
                "pinValue": 1,
                "ticks": 1,
                "event": {
                    "deltaTime": 1,
                    "type": "channel",
                    "subtype": "noteOn",
                    "channel": 7,
                    "noteNumber": 57,
                    "velocity": 95,
                    "lightChannels": [
                        8,
                        9
                    ]
                }
            }
        }
    },
    {
        "changes": {
            "bottom-right": 1
        },
        "timeout": 0.006355924999999999,
        "raw": {
            "bottom-right": {
                "pinValue": 1,
                "ticks": 4,
                "event": {
                    "deltaTime": 4,
                    "type": "channel",
                    "subtype": "noteOn",
                    "channel": 8,
                    "noteNumber": 57,
                    "velocity": 116,
                    "lightChannels": [
                        2
                    ]
                }
            }
        }
    },
    {
        "changes": {
            "window": 1,
            "outline": 1
        },
        "timeout": 0.008474566666666666,
        "raw": {
            "window": {
                "pinValue": 1,
                "ticks": 2,
                "event": {
                    "deltaTime": 2,
                    "type": "channel",
                    "subtype": "noteOn",
                    "channel": 9,
                    "noteNumber": 54,
                    "velocity": 93,
                    "lightChannels": [
                        6,
                        7
                    ]
                }
            },
            "outline": {
                "pinValue": 1,
                "ticks": 2,
                "event": {
                    "deltaTime": 2,
                    "type": "channel",
                    "subtype": "noteOn",
                    "channel": 9,
                    "noteNumber": 54,
                    "velocity": 93,
                    "lightChannels": [
                        6,
                        7
                    ]
                }
            }
        }
    },
    {
        "changes": {
            "window": 0,
            "outline": 0
        },
        "timeout": 0.06885585416666666,
        "raw": {
            "window": {
                "pinValue": 0,
                "ticks": 0,
                "event": {
                    "deltaTime": 0,
                    "type": "channel",
                    "subtype": "noteOff",
                    "channel": 9,
                    "noteNumber": 54,
                    "velocity": 0,
                    "lightChannels": [
                        6,
                        7
                    ]
                }
            },
            "outline": {
                "pinValue": 0,
                "ticks": 0,
                "event": {
                    "deltaTime": 0,
                    "type": "channel",
                    "subtype": "noteOff",
                    "channel": 9,
                    "noteNumber": 54,
                    "velocity": 0,
                    "lightChannels": [
                        6,
                        7
                    ]
                }
            }
        }
    },
    {
        "changes": {
            "window": 1,
            "outline": 1
        },
        "timeout": 0.18961842916666669,
        "raw": {
            "window": {
                "pinValue": 1,
                "ticks": 0,
                "event": {
                    "deltaTime": 0,
                    "type": "channel",
                    "subtype": "noteOn",
                    "channel": 9,
                    "noteNumber": 54,
                    "velocity": 90,
                    "lightChannels": [
                        6,
                        7
                    ]
                }
            },
            "outline": {
                "pinValue": 1,
                "ticks": 0,
                "event": {
                    "deltaTime": 0,
                    "type": "channel",
                    "subtype": "noteOn",
                    "channel": 9,
                    "noteNumber": 54,
                    "velocity": 90,
                    "lightChannels": [
                        6,
                        7
                    ]
                }
            }
        }
    },
    {
        "changes": {
            "window": 0,
            "outline": 0
        },
        "timeout": 0.05932196666666666,
        "raw": {
            "window": {
                "pinValue": 0,
                "ticks": 1,
                "event": {
                    "deltaTime": 1,
                    "type": "channel",
                    "subtype": "noteOff",
                    "channel": 9,
                    "noteNumber": 54,
                    "velocity": 0,
                    "lightChannels": [
                        6,
                        7
                    ]
                }
            },
            "outline": {
                "pinValue": 0,
                "ticks": 1,
                "event": {
                    "deltaTime": 1,
                    "type": "channel",
                    "subtype": "noteOff",
                    "channel": 9,
                    "noteNumber": 54,
                    "velocity": 0,
                    "lightChannels": [
                        6,
                        7
                    ]
                }
            }
        }
    },
    {
        "changes": {
            "garden": 0,
            "tree": 0
        },
        "timeout": 0.05084739999999999,
        "raw": {
            "garden": {
                "pinValue": 0,
                "ticks": 2,
                "event": {
                    "deltaTime": 2,
                    "type": "channel",
                    "subtype": "noteOff",
                    "channel": 7,
                    "noteNumber": 57,
                    "velocity": 0,
                    "lightChannels": [
                        8,
                        9
                    ]
                }
            },
            "tree": {
                "pinValue": 0,
                "ticks": 2,
                "event": {
                    "deltaTime": 2,
                    "type": "channel",
                    "subtype": "noteOff",
                    "channel": 7,
                    "noteNumber": 57,
                    "velocity": 0,
                    "lightChannels": [
                        8,
                        9
                    ]
                }
            }
        }
    },
    {
        "changes": {
            "bottom-right": 0
        },
        "timeout": 0.04025419166666666,
        "raw": {
            "bottom-right": {
                "pinValue": 0,
                "ticks": 29,
                "event": {
                    "deltaTime": 29,
                    "type": "channel",
                    "subtype": "noteOff",
                    "channel": 8,
                    "noteNumber": 57,
                    "velocity": 0,
                    "lightChannels": [
                        2
                    ]
                }
            }
        }
    },
    {
        "changes": {
            "window": 1,
            "outline": 1
        },
        "timeout": 0.11970325416666666,
        "raw": {
            "window": {
                "pinValue": 1,
                "ticks": 6,
                "event": {
                    "deltaTime": 6,
                    "type": "channel",
                    "subtype": "noteOn",
                    "channel": 9,
                    "noteNumber": 54,
                    "velocity": 95,
                    "lightChannels": [
                        6,
                        7
                    ]
                }
            },
            "outline": {
                "pinValue": 1,
                "ticks": 6,
                "event": {
                    "deltaTime": 6,
                    "type": "channel",
                    "subtype": "noteOn",
                    "channel": 9,
                    "noteNumber": 54,
                    "velocity": 95,
                    "lightChannels": [
                        6,
                        7
                    ]
                }
            }
        }
    },
    {
        "changes": {
            "window": 0,
            "outline": 0
        },
        "timeout": 0.06355925,
        "raw": {
            "window": {
                "pinValue": 0,
                "ticks": 2,
                "event": {
                    "deltaTime": 2,
                    "type": "channel",
                    "subtype": "noteOff",
                    "channel": 9,
                    "noteNumber": 54,
                    "velocity": 0,
                    "lightChannels": [
                        6,
                        7
                    ]
                }
            },
            "outline": {
                "pinValue": 0,
                "ticks": 2,
                "event": {
                    "deltaTime": 2,
                    "type": "channel",
                    "subtype": "noteOff",
                    "channel": 9,
                    "noteNumber": 54,
                    "velocity": 0,
                    "lightChannels": [
                        6,
                        7
                    ]
                }
            }
        }
    },
    {
        "changes": {
            "window": 1,
            "outline": 1
        },
        "timeout": 0.17902522083333336,
        "raw": {
            "window": {
                "pinValue": 1,
                "ticks": 0,
                "event": {
                    "deltaTime": 0,
                    "type": "channel",
                    "subtype": "noteOn",
                    "channel": 9,
                    "noteNumber": 54,
                    "velocity": 87,
                    "lightChannels": [
                        6,
                        7
                    ]
                }
            },
            "outline": {
                "pinValue": 1,
                "ticks": 0,
                "event": {
                    "deltaTime": 0,
                    "type": "channel",
                    "subtype": "noteOn",
                    "channel": 9,
                    "noteNumber": 54,
                    "velocity": 87,
                    "lightChannels": [
                        6,
                        7
                    ]
                }
            }
        }
    },
    {
        "changes": {
            "window": 0,
            "outline": 0
        },
        "timeout": 0.059321966666666656,
        "raw": {
            "window": {
                "pinValue": 0,
                "ticks": 31,
                "event": {
                    "deltaTime": 31,
                    "type": "channel",
                    "subtype": "noteOff",
                    "channel": 9,
                    "noteNumber": 54,
                    "velocity": 0,
                    "lightChannels": [
                        6,
                        7
                    ]
                }
            },
            "outline": {
                "pinValue": 0,
                "ticks": 31,
                "event": {
                    "deltaTime": 31,
                    "type": "channel",
                    "subtype": "noteOff",
                    "channel": 9,
                    "noteNumber": 54,
                    "velocity": 0,
                    "lightChannels": [
                        6,
                        7
                    ]
                }
            }
        }
    },
    {
        "changes": {
            "garage": 1
        },
        "timeout": 0.18644046666666664,
        "raw": {
            "garage": {
                "pinValue": 1,
                "ticks": 5,
                "event": {
                    "deltaTime": 5,
                    "type": "channel",
                    "subtype": "noteOn",
                    "channel": 8,
                    "noteNumber": 55,
                    "velocity": 125,
                    "lightChannels": [
                        0
                    ]
                }
            }
        }
    },
    {
        "changes": {
            "window": 1,
            "outline": 1
        },
        "timeout": 0.004237283333333333,
        "raw": {
            "window": {
                "pinValue": 1,
                "ticks": 1,
                "event": {
                    "deltaTime": 1,
                    "type": "channel",
                    "subtype": "noteOn",
                    "channel": 9,
                    "noteNumber": 54,
                    "velocity": 85,
                    "lightChannels": [
                        6,
                        7
                    ]
                }
            },
            "outline": {
                "pinValue": 1,
                "ticks": 1,
                "event": {
                    "deltaTime": 1,
                    "type": "channel",
                    "subtype": "noteOn",
                    "channel": 9,
                    "noteNumber": 54,
                    "velocity": 85,
                    "lightChannels": [
                        6,
                        7
                    ]
                }
            }
        }
    },
    {
        "changes": {
            "col-1": 1,
            "col-3": 1
        },
        "timeout": 0.008474566666666666,
        "raw": {
            "col-1": {
                "pinValue": 1,
                "ticks": 4,
                "event": {
                    "deltaTime": 4,
                    "type": "channel",
                    "subtype": "noteOn",
                    "channel": 7,
                    "noteNumber": 55,
                    "velocity": 112,
                    "lightChannels": [
                        3,
                        5
                    ]
                }
            },
            "col-3": {
                "pinValue": 1,
                "ticks": 4,
                "event": {
                    "deltaTime": 4,
                    "type": "channel",
                    "subtype": "noteOn",
                    "channel": 7,
                    "noteNumber": 55,
                    "velocity": 112,
                    "lightChannels": [
                        3,
                        5
                    ]
                }
            }
        }
    },
    {
        "changes": {
            "window": 0,
            "outline": 0
        },
        "timeout": 0.05190672083333333,
        "raw": {
            "window": {
                "pinValue": 0,
                "ticks": 0,
                "event": {
                    "deltaTime": 0,
                    "type": "channel",
                    "subtype": "noteOff",
                    "channel": 9,
                    "noteNumber": 54,
                    "velocity": 0,
                    "lightChannels": [
                        6,
                        7
                    ]
                }
            },
            "outline": {
                "pinValue": 0,
                "ticks": 0,
                "event": {
                    "deltaTime": 0,
                    "type": "channel",
                    "subtype": "noteOff",
                    "channel": 9,
                    "noteNumber": 54,
                    "velocity": 0,
                    "lightChannels": [
                        6,
                        7
                    ]
                }
            }
        }
    },
    {
        "changes": {
            "col-1": 0,
            "col-3": 0
        },
        "timeout": 0.16101676666666664,
        "raw": {
            "col-1": {
                "pinValue": 0,
                "ticks": 1,
                "event": {
                    "deltaTime": 1,
                    "type": "channel",
                    "subtype": "noteOff",
                    "channel": 7,
                    "noteNumber": 55,
                    "velocity": 0,
                    "lightChannels": [
                        3,
                        5
                    ]
                }
            },
            "col-3": {
                "pinValue": 0,
                "ticks": 1,
                "event": {
                    "deltaTime": 1,
                    "type": "channel",
                    "subtype": "noteOff",
                    "channel": 7,
                    "noteNumber": 55,
                    "velocity": 0,
                    "lightChannels": [
                        3,
                        5
                    ]
                }
            }
        }
    },
    {
        "changes": {
            "garage": 0
        },
        "timeout": 0.014830491666666664,
        "raw": {
            "garage": {
                "pinValue": 0,
                "ticks": 14,
                "event": {
                    "deltaTime": 14,
                    "type": "channel",
                    "subtype": "noteOff",
                    "channel": 8,
                    "noteNumber": 55,
                    "velocity": 0,
                    "lightChannels": [
                        0
                    ]
                }
            }
        }
    },
    {
        "changes": {
            "window": 1,
            "outline": 1
        },
        "timeout": 0.004237283333333333,
        "raw": {
            "window": {
                "pinValue": 1,
                "ticks": 3,
                "event": {
                    "deltaTime": 3,
                    "type": "channel",
                    "subtype": "noteOn",
                    "channel": 9,
                    "noteNumber": 54,
                    "velocity": 90,
                    "lightChannels": [
                        6,
                        7
                    ]
                }
            },
            "outline": {
                "pinValue": 1,
                "ticks": 3,
                "event": {
                    "deltaTime": 3,
                    "type": "channel",
                    "subtype": "noteOn",
                    "channel": 9,
                    "noteNumber": 54,
                    "velocity": 90,
                    "lightChannels": [
                        6,
                        7
                    ]
                }
            }
        }
    },
    {
        "changes": {
            "window": 0,
            "outline": 0
        },
        "timeout": 0.05720332499999999,
        "raw": {
            "window": {
                "pinValue": 0,
                "ticks": 10,
                "event": {
                    "deltaTime": 10,
                    "type": "channel",
                    "subtype": "noteOff",
                    "channel": 9,
                    "noteNumber": 54,
                    "velocity": 0,
                    "lightChannels": [
                        6,
                        7
                    ]
                }
            },
            "outline": {
                "pinValue": 0,
                "ticks": 10,
                "event": {
                    "deltaTime": 10,
                    "type": "channel",
                    "subtype": "noteOff",
                    "channel": 9,
                    "noteNumber": 54,
                    "velocity": 0,
                    "lightChannels": [
                        6,
                        7
                    ]
                }
            }
        }
    },
    {
        "changes": {
            "window": 1,
            "outline": 1
        },
        "timeout": 0.20550824166666662,
        "raw": {
            "window": {
                "pinValue": 1,
                "ticks": 1,
                "event": {
                    "deltaTime": 1,
                    "type": "channel",
                    "subtype": "noteOn",
                    "channel": 9,
                    "noteNumber": 54,
                    "velocity": 95,
                    "lightChannels": [
                        6,
                        7
                    ]
                }
            },
            "outline": {
                "pinValue": 1,
                "ticks": 1,
                "event": {
                    "deltaTime": 1,
                    "type": "channel",
                    "subtype": "noteOn",
                    "channel": 9,
                    "noteNumber": 54,
                    "velocity": 95,
                    "lightChannels": [
                        6,
                        7
                    ]
                }
            }
        }
    },
    {
        "changes": {
            "col-1": 1,
            "col-2": 1,
            "col-3": 1
        },
        "timeout": 0.006355925,
        "raw": {
            "col-1": {
                "pinValue": 1,
                "ticks": 1,
                "event": {
                    "deltaTime": 1,
                    "type": "channel",
                    "subtype": "noteOn",
                    "channel": 7,
                    "noteNumber": 56,
                    "velocity": 114,
                    "lightChannels": [
                        3,
                        4,
                        5
                    ]
                }
            },
            "col-2": {
                "pinValue": 1,
                "ticks": 1,
                "event": {
                    "deltaTime": 1,
                    "type": "channel",
                    "subtype": "noteOn",
                    "channel": 7,
                    "noteNumber": 56,
                    "velocity": 114,
                    "lightChannels": [
                        3,
                        4,
                        5
                    ]
                }
            },
            "col-3": {
                "pinValue": 1,
                "ticks": 1,
                "event": {
                    "deltaTime": 1,
                    "type": "channel",
                    "subtype": "noteOn",
                    "channel": 7,
                    "noteNumber": 56,
                    "velocity": 114,
                    "lightChannels": [
                        3,
                        4,
                        5
                    ]
                }
            }
        }
    },
    {
        "changes": {
            "top-right": 1
        },
        "timeout": 0.011652529166666665,
        "raw": {
            "top-right": {
                "pinValue": 1,
                "ticks": 7,
                "event": {
                    "deltaTime": 7,
                    "type": "channel",
                    "subtype": "noteOn",
                    "channel": 8,
                    "noteNumber": 56,
                    "velocity": 118,
                    "lightChannels": [
                        1
                    ]
                }
            }
        }
    },
    {
        "changes": {
            "window": 0,
            "outline": 0
        },
        "timeout": 0.041313512499999996,
        "raw": {
            "window": {
                "pinValue": 0,
                "ticks": 18,
                "event": {
                    "deltaTime": 18,
                    "type": "channel",
                    "subtype": "noteOff",
                    "channel": 9,
                    "noteNumber": 54,
                    "velocity": 0,
                    "lightChannels": [
                        6,
                        7
                    ]
                }
            },
            "outline": {
                "pinValue": 0,
                "ticks": 18,
                "event": {
                    "deltaTime": 18,
                    "type": "channel",
                    "subtype": "noteOff",
                    "channel": 9,
                    "noteNumber": 54,
                    "velocity": 0,
                    "lightChannels": [
                        6,
                        7
                    ]
                }
            }
        }
    },
    {
        "changes": {
            "col-1": 0,
            "col-2": 0,
            "col-3": 0
        },
        "timeout": 0.1557201625,
        "raw": {
            "col-1": {
                "pinValue": 0,
                "ticks": 7,
                "event": {
                    "deltaTime": 7,
                    "type": "channel",
                    "subtype": "noteOff",
                    "channel": 7,
                    "noteNumber": 56,
                    "velocity": 0,
                    "lightChannels": [
                        3,
                        4,
                        5
                    ]
                }
            },
            "col-2": {
                "pinValue": 0,
                "ticks": 7,
                "event": {
                    "deltaTime": 7,
                    "type": "channel",
                    "subtype": "noteOff",
                    "channel": 7,
                    "noteNumber": 56,
                    "velocity": 0,
                    "lightChannels": [
                        3,
                        4,
                        5
                    ]
                }
            },
            "col-3": {
                "pinValue": 0,
                "ticks": 7,
                "event": {
                    "deltaTime": 7,
                    "type": "channel",
                    "subtype": "noteOff",
                    "channel": 7,
                    "noteNumber": 56,
                    "velocity": 0,
                    "lightChannels": [
                        3,
                        4,
                        5
                    ]
                }
            }
        }
    },
    {
        "changes": {
            "window": 1,
            "outline": 1
        },
        "timeout": 0.02754234166666666,
        "raw": {
            "window": {
                "pinValue": 1,
                "ticks": 2,
                "event": {
                    "deltaTime": 2,
                    "type": "channel",
                    "subtype": "noteOn",
                    "channel": 9,
                    "noteNumber": 54,
                    "velocity": 70,
                    "lightChannels": [
                        6,
                        7
                    ]
                }
            },
            "outline": {
                "pinValue": 1,
                "ticks": 2,
                "event": {
                    "deltaTime": 2,
                    "type": "channel",
                    "subtype": "noteOn",
                    "channel": 9,
                    "noteNumber": 54,
                    "velocity": 70,
                    "lightChannels": [
                        6,
                        7
                    ]
                }
            }
        }
    },
    {
        "changes": {
            "top-right": 0
        },
        "timeout": 0.0031779624999999996,
        "raw": {
            "top-right": {
                "pinValue": 0,
                "ticks": 2,
                "event": {
                    "deltaTime": 2,
                    "type": "channel",
                    "subtype": "noteOff",
                    "channel": 8,
                    "noteNumber": 56,
                    "velocity": 0,
                    "lightChannels": [
                        1
                    ]
                }
            }
        }
    },
    {
        "changes": {
            "window": 0,
            "outline": 0
        },
        "timeout": 0.047669437499999995,
        "raw": {
            "window": {
                "pinValue": 0,
                "ticks": 3,
                "event": {
                    "deltaTime": 3,
                    "type": "channel",
                    "subtype": "noteOff",
                    "channel": 9,
                    "noteNumber": 54,
                    "velocity": 0,
                    "lightChannels": [
                        6,
                        7
                    ]
                }
            },
            "outline": {
                "pinValue": 0,
                "ticks": 3,
                "event": {
                    "deltaTime": 3,
                    "type": "channel",
                    "subtype": "noteOff",
                    "channel": 9,
                    "noteNumber": 54,
                    "velocity": 0,
                    "lightChannels": [
                        6,
                        7
                    ]
                }
            }
        }
    },
    {
        "changes": {
            "window": 1,
            "outline": 1
        },
        "timeout": 0.21080484583333334,
        "raw": {
            "window": {
                "pinValue": 1,
                "ticks": 0,
                "event": {
                    "deltaTime": 0,
                    "type": "channel",
                    "subtype": "noteOn",
                    "channel": 9,
                    "noteNumber": 54,
                    "velocity": 87,
                    "lightChannels": [
                        6,
                        7
                    ]
                }
            },
            "outline": {
                "pinValue": 1,
                "ticks": 0,
                "event": {
                    "deltaTime": 0,
                    "type": "channel",
                    "subtype": "noteOn",
                    "channel": 9,
                    "noteNumber": 54,
                    "velocity": 87,
                    "lightChannels": [
                        6,
                        7
                    ]
                }
            }
        }
    },
    {
        "changes": {
            "bottom-right": 1
        },
        "timeout": 0.012711849999999998,
        "raw": {
            "bottom-right": {
                "pinValue": 1,
                "ticks": 1,
                "event": {
                    "deltaTime": 1,
                    "type": "channel",
                    "subtype": "noteOn",
                    "channel": 8,
                    "noteNumber": 57,
                    "velocity": 122,
                    "lightChannels": [
                        2
                    ]
                }
            }
        }
    },
    {
        "changes": {
            "col-1": 1,
            "col-2": 1,
            "col-3": 1,
            "garden": 1,
            "tree": 1
        },
        "timeout": 0.0021186416666666664,
        "raw": {
            "col-1": {
                "pinValue": 1,
                "ticks": 2,
                "event": {
                    "deltaTime": 2,
                    "type": "channel",
                    "subtype": "noteOn",
                    "channel": 7,
                    "noteNumber": 57,
                    "velocity": 111,
                    "lightChannels": [
                        3,
                        4,
                        5,
                        8,
                        9
                    ]
                }
            },
            "col-2": {
                "pinValue": 1,
                "ticks": 2,
                "event": {
                    "deltaTime": 2,
                    "type": "channel",
                    "subtype": "noteOn",
                    "channel": 7,
                    "noteNumber": 57,
                    "velocity": 111,
                    "lightChannels": [
                        3,
                        4,
                        5,
                        8,
                        9
                    ]
                }
            },
            "col-3": {
                "pinValue": 1,
                "ticks": 2,
                "event": {
                    "deltaTime": 2,
                    "type": "channel",
                    "subtype": "noteOn",
                    "channel": 7,
                    "noteNumber": 57,
                    "velocity": 111,
                    "lightChannels": [
                        3,
                        4,
                        5,
                        8,
                        9
                    ]
                }
            },
            "garden": {
                "pinValue": 1,
                "ticks": 2,
                "event": {
                    "deltaTime": 2,
                    "type": "channel",
                    "subtype": "noteOn",
                    "channel": 7,
                    "noteNumber": 57,
                    "velocity": 111,
                    "lightChannels": [
                        3,
                        4,
                        5,
                        8,
                        9
                    ]
                }
            },
            "tree": {
                "pinValue": 1,
                "ticks": 2,
                "event": {
                    "deltaTime": 2,
                    "type": "channel",
                    "subtype": "noteOn",
                    "channel": 7,
                    "noteNumber": 57,
                    "velocity": 111,
                    "lightChannels": [
                        3,
                        4,
                        5,
                        8,
                        9
                    ]
                }
            }
        }
    },
    {
        "changes": {
            "window": 0,
            "outline": 0
        },
        "timeout": 0.05402536249999999,
        "raw": {
            "window": {
                "pinValue": 0,
                "ticks": 47,
                "event": {
                    "deltaTime": 47,
                    "type": "channel",
                    "subtype": "noteOff",
                    "channel": 9,
                    "noteNumber": 54,
                    "velocity": 0,
                    "lightChannels": [
                        6,
                        7
                    ]
                }
            },
            "outline": {
                "pinValue": 0,
                "ticks": 47,
                "event": {
                    "deltaTime": 47,
                    "type": "channel",
                    "subtype": "noteOff",
                    "channel": 9,
                    "noteNumber": 54,
                    "velocity": 0,
                    "lightChannels": [
                        6,
                        7
                    ]
                }
            }
        }
    },
    {
        "changes": {
            "col-1": 0,
            "col-2": 0,
            "col-3": 0,
            "garden": 0,
            "tree": 0
        },
        "timeout": 0.1620760875,
        "raw": {
            "col-1": {
                "pinValue": 0,
                "ticks": 2,
                "event": {
                    "deltaTime": 2,
                    "type": "channel",
                    "subtype": "noteOff",
                    "channel": 7,
                    "noteNumber": 57,
                    "velocity": 0,
                    "lightChannels": [
                        3,
                        4,
                        5,
                        8,
                        9
                    ]
                }
            },
            "col-2": {
                "pinValue": 0,
                "ticks": 2,
                "event": {
                    "deltaTime": 2,
                    "type": "channel",
                    "subtype": "noteOff",
                    "channel": 7,
                    "noteNumber": 57,
                    "velocity": 0,
                    "lightChannels": [
                        3,
                        4,
                        5,
                        8,
                        9
                    ]
                }
            },
            "col-3": {
                "pinValue": 0,
                "ticks": 2,
                "event": {
                    "deltaTime": 2,
                    "type": "channel",
                    "subtype": "noteOff",
                    "channel": 7,
                    "noteNumber": 57,
                    "velocity": 0,
                    "lightChannels": [
                        3,
                        4,
                        5,
                        8,
                        9
                    ]
                }
            },
            "garden": {
                "pinValue": 0,
                "ticks": 2,
                "event": {
                    "deltaTime": 2,
                    "type": "channel",
                    "subtype": "noteOff",
                    "channel": 7,
                    "noteNumber": 57,
                    "velocity": 0,
                    "lightChannels": [
                        3,
                        4,
                        5,
                        8,
                        9
                    ]
                }
            },
            "tree": {
                "pinValue": 0,
                "ticks": 2,
                "event": {
                    "deltaTime": 2,
                    "type": "channel",
                    "subtype": "noteOff",
                    "channel": 7,
                    "noteNumber": 57,
                    "velocity": 0,
                    "lightChannels": [
                        3,
                        4,
                        5,
                        8,
                        9
                    ]
                }
            }
        }
    },
    {
        "changes": {
            "window": 1,
            "outline": 1
        },
        "timeout": 0.013771170833333334,
        "raw": {
            "window": {
                "pinValue": 1,
                "ticks": 1,
                "event": {
                    "deltaTime": 1,
                    "type": "channel",
                    "subtype": "noteOn",
                    "channel": 9,
                    "noteNumber": 54,
                    "velocity": 85,
                    "lightChannels": [
                        6,
                        7
                    ]
                }
            },
            "outline": {
                "pinValue": 1,
                "ticks": 1,
                "event": {
                    "deltaTime": 1,
                    "type": "channel",
                    "subtype": "noteOn",
                    "channel": 9,
                    "noteNumber": 54,
                    "velocity": 85,
                    "lightChannels": [
                        6,
                        7
                    ]
                }
            }
        }
    },
    {
        "changes": {
            "bottom-right": 0
        },
        "timeout": 0.0052966041666666665,
        "raw": {
            "bottom-right": {
                "pinValue": 0,
                "ticks": 5,
                "event": {
                    "deltaTime": 5,
                    "type": "channel",
                    "subtype": "noteOff",
                    "channel": 8,
                    "noteNumber": 57,
                    "velocity": 0,
                    "lightChannels": [
                        2
                    ]
                }
            }
        }
    },
    {
        "changes": {
            "window": 0,
            "outline": 0
        },
        "timeout": 0.05190672083333332,
        "raw": {
            "window": {
                "pinValue": 0,
                "ticks": 22,
                "event": {
                    "deltaTime": 22,
                    "type": "channel",
                    "subtype": "noteOff",
                    "channel": 9,
                    "noteNumber": 54,
                    "velocity": 0,
                    "lightChannels": [
                        6,
                        7
                    ]
                }
            },
            "outline": {
                "pinValue": 0,
                "ticks": 22,
                "event": {
                    "deltaTime": 22,
                    "type": "channel",
                    "subtype": "noteOff",
                    "channel": 9,
                    "noteNumber": 54,
                    "velocity": 0,
                    "lightChannels": [
                        6,
                        7
                    ]
                }
            }
        }
    },
    {
        "changes": {
            "col-1": 1
        },
        "timeout": 0.21398280833333333,
        "raw": {
            "col-1": {
                "pinValue": 1,
                "ticks": 3,
                "event": {
                    "deltaTime": 3,
                    "type": "channel",
                    "subtype": "noteOn",
                    "channel": 7,
                    "noteNumber": 57,
                    "velocity": 95,
                    "lightChannels": [
                        3
                    ]
                }
            }
        }
    },
    {
        "changes": {
            "window": 1,
            "outline": 1
        },
        "timeout": 0.0021186416666666664,
        "raw": {
            "window": {
                "pinValue": 1,
                "ticks": 1,
                "event": {
                    "deltaTime": 1,
                    "type": "channel",
                    "subtype": "noteOn",
                    "channel": 9,
                    "noteNumber": 54,
                    "velocity": 93,
                    "lightChannels": [
                        6,
                        7
                    ]
                }
            },
            "outline": {
                "pinValue": 1,
                "ticks": 1,
                "event": {
                    "deltaTime": 1,
                    "type": "channel",
                    "subtype": "noteOn",
                    "channel": 9,
                    "noteNumber": 54,
                    "velocity": 93,
                    "lightChannels": [
                        6,
                        7
                    ]
                }
            }
        }
    },
    {
        "changes": {
            "garage": 1
        },
        "timeout": 0.0095338875,
        "raw": {
            "garage": {
                "pinValue": 1,
                "ticks": 2,
                "event": {
                    "deltaTime": 2,
                    "type": "channel",
                    "subtype": "noteOn",
                    "channel": 8,
                    "noteNumber": 57,
                    "velocity": 123,
                    "lightChannels": [
                        0
                    ]
                }
            }
        }
    },
    {
        "changes": {
            "window": 0,
            "outline": 0
        },
        "timeout": 0.050847399999999994,
        "raw": {
            "window": {
                "pinValue": 0,
                "ticks": 10,
                "event": {
                    "deltaTime": 10,
                    "type": "channel",
                    "subtype": "noteOff",
                    "channel": 9,
                    "noteNumber": 54,
                    "velocity": 0,
                    "lightChannels": [
                        6,
                        7
                    ]
                }
            },
            "outline": {
                "pinValue": 0,
                "ticks": 10,
                "event": {
                    "deltaTime": 10,
                    "type": "channel",
                    "subtype": "noteOff",
                    "channel": 9,
                    "noteNumber": 54,
                    "velocity": 0,
                    "lightChannels": [
                        6,
                        7
                    ]
                }
            }
        }
    },
    {
        "changes": {
            "window": 1,
            "outline": 1
        },
        "timeout": 0.18538114583333332,
        "raw": {
            "window": {
                "pinValue": 1,
                "ticks": 5,
                "event": {
                    "deltaTime": 5,
                    "type": "channel",
                    "subtype": "noteOn",
                    "channel": 9,
                    "noteNumber": 54,
                    "velocity": 85,
                    "lightChannels": [
                        6,
                        7
                    ]
                }
            },
            "outline": {
                "pinValue": 1,
                "ticks": 5,
                "event": {
                    "deltaTime": 5,
                    "type": "channel",
                    "subtype": "noteOn",
                    "channel": 9,
                    "noteNumber": 54,
                    "velocity": 85,
                    "lightChannels": [
                        6,
                        7
                    ]
                }
            }
        }
    },
    {
        "changes": {
            "window": 0,
            "outline": 0
        },
        "timeout": 0.056144004166666664,
        "raw": {
            "window": {
                "pinValue": 0,
                "ticks": 14,
                "event": {
                    "deltaTime": 14,
                    "type": "channel",
                    "subtype": "noteOff",
                    "channel": 9,
                    "noteNumber": 54,
                    "velocity": 0,
                    "lightChannels": [
                        6,
                        7
                    ]
                }
            },
            "outline": {
                "pinValue": 0,
                "ticks": 14,
                "event": {
                    "deltaTime": 14,
                    "type": "channel",
                    "subtype": "noteOff",
                    "channel": 9,
                    "noteNumber": 54,
                    "velocity": 0,
                    "lightChannels": [
                        6,
                        7
                    ]
                }
            }
        }
    },
    {
        "changes": {
            "col-1": 0
        },
        "timeout": 0.13453374583333333,
        "raw": {
            "col-1": {
                "pinValue": 0,
                "ticks": 63,
                "event": {
                    "deltaTime": 63,
                    "type": "channel",
                    "subtype": "noteOff",
                    "channel": 7,
                    "noteNumber": 57,
                    "velocity": 0,
                    "lightChannels": [
                        3
                    ]
                }
            }
        }
    },
    {
        "changes": {
            "garage": 0
        },
        "timeout": 0.021186416666666666,
        "raw": {
            "garage": {
                "pinValue": 0,
                "ticks": 20,
                "event": {
                    "deltaTime": 20,
                    "type": "channel",
                    "subtype": "noteOff",
                    "channel": 8,
                    "noteNumber": 57,
                    "velocity": 0,
                    "lightChannels": [
                        0
                    ]
                }
            }
        }
    },
    {
        "changes": {
            "col-2": 1
        },
        "timeout": 0.03283894583333333,
        "raw": {
            "col-2": {
                "pinValue": 1,
                "ticks": 31,
                "event": {
                    "deltaTime": 31,
                    "type": "channel",
                    "subtype": "noteOn",
                    "channel": 7,
                    "noteNumber": 55,
                    "velocity": 90,
                    "lightChannels": [
                        4
                    ]
                }
            }
        }
    },
    {
        "changes": {
            "window": 1,
            "outline": 1
        },
        "timeout": 0.025423699999999997,
        "raw": {
            "window": {
                "pinValue": 1,
                "ticks": 0,
                "event": {
                    "deltaTime": 0,
                    "type": "channel",
                    "subtype": "noteOn",
                    "channel": 9,
                    "noteNumber": 54,
                    "velocity": 85,
                    "lightChannels": [
                        6,
                        7
                    ]
                }
            },
            "outline": {
                "pinValue": 1,
                "ticks": 0,
                "event": {
                    "deltaTime": 0,
                    "type": "channel",
                    "subtype": "noteOn",
                    "channel": 9,
                    "noteNumber": 54,
                    "velocity": 85,
                    "lightChannels": [
                        6,
                        7
                    ]
                }
            }
        }
    },
    {
        "changes": {
            "top-right": 1
        },
        "timeout": 0.0010593208333333332,
        "raw": {
            "top-right": {
                "pinValue": 1,
                "ticks": 1,
                "event": {
                    "deltaTime": 1,
                    "type": "channel",
                    "subtype": "noteOn",
                    "channel": 8,
                    "noteNumber": 55,
                    "velocity": 121,
                    "lightChannels": [
                        1
                    ]
                }
            }
        }
    },
    {
        "changes": {
            "window": 0,
            "outline": 0
        },
        "timeout": 0.06038128749999999,
        "raw": {
            "window": {
                "pinValue": 0,
                "ticks": 55,
                "event": {
                    "deltaTime": 55,
                    "type": "channel",
                    "subtype": "noteOff",
                    "channel": 9,
                    "noteNumber": 54,
                    "velocity": 0,
                    "lightChannels": [
                        6,
                        7
                    ]
                }
            },
            "outline": {
                "pinValue": 0,
                "ticks": 55,
                "event": {
                    "deltaTime": 55,
                    "type": "channel",
                    "subtype": "noteOff",
                    "channel": 9,
                    "noteNumber": 54,
                    "velocity": 0,
                    "lightChannels": [
                        6,
                        7
                    ]
                }
            }
        }
    },
    {
        "changes": {
            "window": 1,
            "outline": 1
        },
        "timeout": 0.19279639166666668,
        "raw": {
            "window": {
                "pinValue": 1,
                "ticks": 9,
                "event": {
                    "deltaTime": 9,
                    "type": "channel",
                    "subtype": "noteOn",
                    "channel": 9,
                    "noteNumber": 54,
                    "velocity": 84,
                    "lightChannels": [
                        6,
                        7
                    ]
                }
            },
            "outline": {
                "pinValue": 1,
                "ticks": 9,
                "event": {
                    "deltaTime": 9,
                    "type": "channel",
                    "subtype": "noteOn",
                    "channel": 9,
                    "noteNumber": 54,
                    "velocity": 84,
                    "lightChannels": [
                        6,
                        7
                    ]
                }
            }
        }
    },
    {
        "changes": {
            "window": 0,
            "outline": 0
        },
        "timeout": 0.05402536249999999,
        "raw": {
            "window": {
                "pinValue": 0,
                "ticks": 36,
                "event": {
                    "deltaTime": 36,
                    "type": "channel",
                    "subtype": "noteOff",
                    "channel": 9,
                    "noteNumber": 54,
                    "velocity": 0,
                    "lightChannels": [
                        6,
                        7
                    ]
                }
            },
            "outline": {
                "pinValue": 0,
                "ticks": 36,
                "event": {
                    "deltaTime": 36,
                    "type": "channel",
                    "subtype": "noteOff",
                    "channel": 9,
                    "noteNumber": 54,
                    "velocity": 0,
                    "lightChannels": [
                        6,
                        7
                    ]
                }
            }
        }
    },
    {
        "changes": {
            "col-2": 0
        },
        "timeout": 0.1302964625,
        "raw": {
            "col-2": {
                "pinValue": 0,
                "ticks": 59,
                "event": {
                    "deltaTime": 59,
                    "type": "channel",
                    "subtype": "noteOff",
                    "channel": 7,
                    "noteNumber": 55,
                    "velocity": 0,
                    "lightChannels": [
                        4
                    ]
                }
            }
        }
    },
    {
        "changes": {
            "top-right": 0
        },
        "timeout": 0.022245737499999998,
        "raw": {
            "top-right": {
                "pinValue": 0,
                "ticks": 21,
                "event": {
                    "deltaTime": 21,
                    "type": "channel",
                    "subtype": "noteOff",
                    "channel": 8,
                    "noteNumber": 55,
                    "velocity": 0,
                    "lightChannels": [
                        1
                    ]
                }
            }
        }
    },
    {
        "changes": {
            "col-3": 1
        },
        "timeout": 0.028601662499999996,
        "raw": {
            "col-3": {
                "pinValue": 1,
                "ticks": 27,
                "event": {
                    "deltaTime": 27,
                    "type": "channel",
                    "subtype": "noteOn",
                    "channel": 7,
                    "noteNumber": 58,
                    "velocity": 99,
                    "lightChannels": [
                        5
                    ]
                }
            }
        }
    },
    {
        "changes": {
            "bottom-right": 1
        },
        "timeout": 0.007415245833333332,
        "raw": {
            "bottom-right": {
                "pinValue": 1,
                "ticks": 7,
                "event": {
                    "deltaTime": 7,
                    "type": "channel",
                    "subtype": "noteOn",
                    "channel": 8,
                    "noteNumber": 58,
                    "velocity": 116,
                    "lightChannels": [
                        2
                    ]
                }
            }
        }
    },
    {
        "changes": {
            "window": 1,
            "outline": 1
        },
        "timeout": 0.021186416666666666,
        "raw": {
            "window": {
                "pinValue": 1,
                "ticks": 0,
                "event": {
                    "deltaTime": 0,
                    "type": "channel",
                    "subtype": "noteOn",
                    "channel": 9,
                    "noteNumber": 54,
                    "velocity": 96,
                    "lightChannels": [
                        6,
                        7
                    ]
                }
            },
            "outline": {
                "pinValue": 1,
                "ticks": 0,
                "event": {
                    "deltaTime": 0,
                    "type": "channel",
                    "subtype": "noteOn",
                    "channel": 9,
                    "noteNumber": 54,
                    "velocity": 96,
                    "lightChannels": [
                        6,
                        7
                    ]
                }
            }
        }
    },
    {
        "changes": {
            "window": 0,
            "outline": 0
        },
        "timeout": 0.06779653333333333,
        "raw": {
            "window": {
                "pinValue": 0,
                "ticks": 10,
                "event": {
                    "deltaTime": 10,
                    "type": "channel",
                    "subtype": "noteOff",
                    "channel": 9,
                    "noteNumber": 54,
                    "velocity": 0,
                    "lightChannels": [
                        6,
                        7
                    ]
                }
            },
            "outline": {
                "pinValue": 0,
                "ticks": 10,
                "event": {
                    "deltaTime": 10,
                    "type": "channel",
                    "subtype": "noteOff",
                    "channel": 9,
                    "noteNumber": 54,
                    "velocity": 0,
                    "lightChannels": [
                        6,
                        7
                    ]
                }
            }
        }
    },
    {
        "changes": {
            "window": 1,
            "outline": 1
        },
        "timeout": 0.16949133333333327,
        "raw": {
            "window": {
                "pinValue": 1,
                "ticks": 1,
                "event": {
                    "deltaTime": 1,
                    "type": "channel",
                    "subtype": "noteOn",
                    "channel": 9,
                    "noteNumber": 54,
                    "velocity": 84,
                    "lightChannels": [
                        6,
                        7
                    ]
                }
            },
            "outline": {
                "pinValue": 1,
                "ticks": 1,
                "event": {
                    "deltaTime": 1,
                    "type": "channel",
                    "subtype": "noteOn",
                    "channel": 9,
                    "noteNumber": 54,
                    "velocity": 84,
                    "lightChannels": [
                        6,
                        7
                    ]
                }
            }
        }
    },
    {
        "changes": {
            "window": 0,
            "outline": 0
        },
        "timeout": 0.056144004166666664,
        "raw": {
            "window": {
                "pinValue": 0,
                "ticks": 20,
                "event": {
                    "deltaTime": 20,
                    "type": "channel",
                    "subtype": "noteOff",
                    "channel": 9,
                    "noteNumber": 54,
                    "velocity": 0,
                    "lightChannels": [
                        6,
                        7
                    ]
                }
            },
            "outline": {
                "pinValue": 0,
                "ticks": 20,
                "event": {
                    "deltaTime": 20,
                    "type": "channel",
                    "subtype": "noteOff",
                    "channel": 9,
                    "noteNumber": 54,
                    "velocity": 0,
                    "lightChannels": [
                        6,
                        7
                    ]
                }
            }
        }
    },
    {
        "changes": {
            "col-3": 0
        },
        "timeout": 0.13559306666666665,
        "raw": {
            "col-3": {
                "pinValue": 0,
                "ticks": 60,
                "event": {
                    "deltaTime": 60,
                    "type": "channel",
                    "subtype": "noteOff",
                    "channel": 7,
                    "noteNumber": 58,
                    "velocity": 0,
                    "lightChannels": [
                        5
                    ]
                }
            }
        }
    },
    {
        "changes": {
            "bottom-right": 0
        },
        "timeout": 0.012711849999999998,
        "raw": {
            "bottom-right": {
                "pinValue": 0,
                "ticks": 12,
                "event": {
                    "deltaTime": 12,
                    "type": "channel",
                    "subtype": "noteOff",
                    "channel": 8,
                    "noteNumber": 58,
                    "velocity": 0,
                    "lightChannels": [
                        2
                    ]
                }
            }
        }
    },
    {
        "changes": {
            "garden": 1,
            "tree": 1
        },
        "timeout": 0.042372833333333325,
        "raw": {
            "garden": {
                "pinValue": 1,
                "ticks": 0,
                "event": {
                    "deltaTime": 0,
                    "type": "channel",
                    "subtype": "noteOn",
                    "channel": 7,
                    "noteNumber": 57,
                    "velocity": 90,
                    "lightChannels": [
                        8,
                        9
                    ]
                }
            },
            "tree": {
                "pinValue": 1,
                "ticks": 0,
                "event": {
                    "deltaTime": 0,
                    "type": "channel",
                    "subtype": "noteOn",
                    "channel": 7,
                    "noteNumber": 57,
                    "velocity": 90,
                    "lightChannels": [
                        8,
                        9
                    ]
                }
            }
        }
    },
    {
        "changes": {
            "garage": 1,
            "window": 1,
            "outline": 1
        },
        "timeout": 0.0095338875,
        "raw": {
            "garage": {
                "pinValue": 1,
                "ticks": 0,
                "event": {
                    "deltaTime": 0,
                    "type": "channel",
                    "subtype": "noteOn",
                    "channel": 8,
                    "noteNumber": 57,
                    "velocity": 115,
                    "lightChannels": [
                        0
                    ]
                }
            },
            "window": {
                "pinValue": 1,
                "ticks": 0,
                "event": {
                    "deltaTime": 0,
                    "type": "channel",
                    "subtype": "noteOn",
                    "channel": 9,
                    "noteNumber": 54,
                    "velocity": 85,
                    "lightChannels": [
                        6,
                        7
                    ]
                }
            },
            "outline": {
                "pinValue": 1,
                "ticks": 0,
                "event": {
                    "deltaTime": 0,
                    "type": "channel",
                    "subtype": "noteOn",
                    "channel": 9,
                    "noteNumber": 54,
                    "velocity": 85,
                    "lightChannels": [
                        6,
                        7
                    ]
                }
            }
        }
    },
    {
        "changes": {
            "window": 0,
            "outline": 0
        },
        "timeout": 0.06144060833333333,
        "raw": {
            "window": {
                "pinValue": 0,
                "ticks": 47,
                "event": {
                    "deltaTime": 47,
                    "type": "channel",
                    "subtype": "noteOff",
                    "channel": 9,
                    "noteNumber": 54,
                    "velocity": 0,
                    "lightChannels": [
                        6,
                        7
                    ]
                }
            },
            "outline": {
                "pinValue": 0,
                "ticks": 47,
                "event": {
                    "deltaTime": 47,
                    "type": "channel",
                    "subtype": "noteOff",
                    "channel": 9,
                    "noteNumber": 54,
                    "velocity": 0,
                    "lightChannels": [
                        6,
                        7
                    ]
                }
            }
        }
    },
    {
        "changes": {
            "window": 1,
            "outline": 1
        },
        "timeout": 0.1885591083333333,
        "raw": {
            "window": {
                "pinValue": 1,
                "ticks": 1,
                "event": {
                    "deltaTime": 1,
                    "type": "channel",
                    "subtype": "noteOn",
                    "channel": 9,
                    "noteNumber": 54,
                    "velocity": 85,
                    "lightChannels": [
                        6,
                        7
                    ]
                }
            },
            "outline": {
                "pinValue": 1,
                "ticks": 1,
                "event": {
                    "deltaTime": 1,
                    "type": "channel",
                    "subtype": "noteOn",
                    "channel": 9,
                    "noteNumber": 54,
                    "velocity": 85,
                    "lightChannels": [
                        6,
                        7
                    ]
                }
            }
        }
    },
    {
        "changes": {
            "window": 0,
            "outline": 0
        },
        "timeout": 0.05826264583333332,
        "raw": {
            "window": {
                "pinValue": 0,
                "ticks": 34,
                "event": {
                    "deltaTime": 34,
                    "type": "channel",
                    "subtype": "noteOff",
                    "channel": 9,
                    "noteNumber": 54,
                    "velocity": 0,
                    "lightChannels": [
                        6,
                        7
                    ]
                }
            },
            "outline": {
                "pinValue": 0,
                "ticks": 34,
                "event": {
                    "deltaTime": 34,
                    "type": "channel",
                    "subtype": "noteOff",
                    "channel": 9,
                    "noteNumber": 54,
                    "velocity": 0,
                    "lightChannels": [
                        6,
                        7
                    ]
                }
            }
        }
    },
    {
        "changes": {
            "garage": 0
        },
        "timeout": 0.06355924999999998,
        "raw": {
            "garage": {
                "pinValue": 0,
                "ticks": 16,
                "event": {
                    "deltaTime": 16,
                    "type": "channel",
                    "subtype": "noteOff",
                    "channel": 8,
                    "noteNumber": 57,
                    "velocity": 0,
                    "lightChannels": [
                        0
                    ]
                }
            }
        }
    },
    {
        "changes": {
            "garden": 0,
            "tree": 0
        },
        "timeout": 0.04237283333333333,
        "raw": {
            "garden": {
                "pinValue": 0,
                "ticks": 40,
                "event": {
                    "deltaTime": 40,
                    "type": "channel",
                    "subtype": "noteOff",
                    "channel": 7,
                    "noteNumber": 57,
                    "velocity": 0,
                    "lightChannels": [
                        8,
                        9
                    ]
                }
            },
            "tree": {
                "pinValue": 0,
                "ticks": 40,
                "event": {
                    "deltaTime": 40,
                    "type": "channel",
                    "subtype": "noteOff",
                    "channel": 7,
                    "noteNumber": 57,
                    "velocity": 0,
                    "lightChannels": [
                        8,
                        9
                    ]
                }
            }
        }
    },
    {
        "changes": {
            "top-right": 1
        },
        "timeout": 0.08474566666666665,
        "raw": {
            "top-right": {
                "pinValue": 1,
                "ticks": 0,
                "event": {
                    "deltaTime": 0,
                    "type": "channel",
                    "subtype": "noteOn",
                    "channel": 8,
                    "noteNumber": 57,
                    "velocity": 123,
                    "lightChannels": [
                        1
                    ]
                }
            }
        }
    },
    {
        "changes": {
            "col-1": 1,
            "window": 1,
            "outline": 1
        },
        "timeout": 0.02012709583333333,
        "raw": {
            "col-1": {
                "pinValue": 1,
                "ticks": 0,
                "event": {
                    "deltaTime": 0,
                    "type": "channel",
                    "subtype": "noteOn",
                    "channel": 7,
                    "noteNumber": 57,
                    "velocity": 94,
                    "lightChannels": [
                        3
                    ]
                }
            },
            "window": {
                "pinValue": 1,
                "ticks": 0,
                "event": {
                    "deltaTime": 0,
                    "type": "channel",
                    "subtype": "noteOn",
                    "channel": 9,
                    "noteNumber": 54,
                    "velocity": 96,
                    "lightChannels": [
                        6,
                        7
                    ]
                }
            },
            "outline": {
                "pinValue": 1,
                "ticks": 0,
                "event": {
                    "deltaTime": 0,
                    "type": "channel",
                    "subtype": "noteOn",
                    "channel": 9,
                    "noteNumber": 54,
                    "velocity": 96,
                    "lightChannels": [
                        6,
                        7
                    ]
                }
            }
        }
    },
    {
        "changes": {
            "window": 0,
            "outline": 0
        },
        "timeout": 0.062499929166666655,
        "raw": {
            "window": {
                "pinValue": 0,
                "ticks": 2,
                "event": {
                    "deltaTime": 2,
                    "type": "channel",
                    "subtype": "noteOff",
                    "channel": 9,
                    "noteNumber": 54,
                    "velocity": 0,
                    "lightChannels": [
                        6,
                        7
                    ]
                }
            },
            "outline": {
                "pinValue": 0,
                "ticks": 2,
                "event": {
                    "deltaTime": 2,
                    "type": "channel",
                    "subtype": "noteOff",
                    "channel": 9,
                    "noteNumber": 54,
                    "velocity": 0,
                    "lightChannels": [
                        6,
                        7
                    ]
                }
            }
        }
    },
    {
        "changes": {
            "window": 1,
            "outline": 1
        },
        "timeout": 0.15466084166666666,
        "raw": {
            "window": {
                "pinValue": 1,
                "ticks": 18,
                "event": {
                    "deltaTime": 18,
                    "type": "channel",
                    "subtype": "noteOn",
                    "channel": 9,
                    "noteNumber": 54,
                    "velocity": 95,
                    "lightChannels": [
                        6,
                        7
                    ]
                }
            },
            "outline": {
                "pinValue": 1,
                "ticks": 18,
                "event": {
                    "deltaTime": 18,
                    "type": "channel",
                    "subtype": "noteOn",
                    "channel": 9,
                    "noteNumber": 54,
                    "velocity": 95,
                    "lightChannels": [
                        6,
                        7
                    ]
                }
            }
        }
    },
    {
        "changes": {
            "window": 0,
            "outline": 0
        },
        "timeout": 0.05402536249999999,
        "raw": {
            "window": {
                "pinValue": 0,
                "ticks": 12,
                "event": {
                    "deltaTime": 12,
                    "type": "channel",
                    "subtype": "noteOff",
                    "channel": 9,
                    "noteNumber": 54,
                    "velocity": 0,
                    "lightChannels": [
                        6,
                        7
                    ]
                }
            },
            "outline": {
                "pinValue": 0,
                "ticks": 12,
                "event": {
                    "deltaTime": 12,
                    "type": "channel",
                    "subtype": "noteOff",
                    "channel": 9,
                    "noteNumber": 54,
                    "velocity": 0,
                    "lightChannels": [
                        6,
                        7
                    ]
                }
            }
        }
    },
    {
        "changes": {
            "col-1": 0
        },
        "timeout": 0.1620760875,
        "raw": {
            "col-1": {
                "pinValue": 0,
                "ticks": 110,
                "event": {
                    "deltaTime": 110,
                    "type": "channel",
                    "subtype": "noteOff",
                    "channel": 7,
                    "noteNumber": 57,
                    "velocity": 0,
                    "lightChannels": [
                        3
                    ]
                }
            }
        }
    },
    {
        "changes": {
            "top-right": 0
        },
        "timeout": 0.0095338875,
        "raw": {
            "top-right": {
                "pinValue": 0,
                "ticks": 3,
                "event": {
                    "deltaTime": 3,
                    "type": "channel",
                    "subtype": "noteOff",
                    "channel": 8,
                    "noteNumber": 57,
                    "velocity": 0,
                    "lightChannels": [
                        1
                    ]
                }
            }
        }
    },
    {
        "changes": {
            "window": 1,
            "outline": 1
        },
        "timeout": 0.019067775,
        "raw": {
            "window": {
                "pinValue": 1,
                "ticks": 10,
                "event": {
                    "deltaTime": 10,
                    "type": "channel",
                    "subtype": "noteOn",
                    "channel": 9,
                    "noteNumber": 54,
                    "velocity": 85,
                    "lightChannels": [
                        6,
                        7
                    ]
                }
            },
            "outline": {
                "pinValue": 1,
                "ticks": 10,
                "event": {
                    "deltaTime": 10,
                    "type": "channel",
                    "subtype": "noteOn",
                    "channel": 9,
                    "noteNumber": 54,
                    "velocity": 85,
                    "lightChannels": [
                        6,
                        7
                    ]
                }
            }
        }
    },
    {
        "changes": {
            "col-2": 1
        },
        "timeout": 0.006355924999999999,
        "raw": {
            "col-2": {
                "pinValue": 1,
                "ticks": 6,
                "event": {
                    "deltaTime": 6,
                    "type": "channel",
                    "subtype": "noteOn",
                    "channel": 7,
                    "noteNumber": 55,
                    "velocity": 89,
                    "lightChannels": [
                        4
                    ]
                }
            }
        }
    },
    {
        "changes": {
            "bottom-right": 1
        },
        "timeout": 0.02436437916666666,
        "raw": {
            "bottom-right": {
                "pinValue": 1,
                "ticks": 1,
                "event": {
                    "deltaTime": 1,
                    "type": "channel",
                    "subtype": "noteOn",
                    "channel": 8,
                    "noteNumber": 55,
                    "velocity": 119,
                    "lightChannels": [
                        2
                    ]
                }
            }
        }
    },
    {
        "changes": {
            "window": 0,
            "outline": 0
        },
        "timeout": 0.024364379166666665,
        "raw": {
            "window": {
                "pinValue": 0,
                "ticks": 16,
                "event": {
                    "deltaTime": 16,
                    "type": "channel",
                    "subtype": "noteOff",
                    "channel": 9,
                    "noteNumber": 54,
                    "velocity": 0,
                    "lightChannels": [
                        6,
                        7
                    ]
                }
            },
            "outline": {
                "pinValue": 0,
                "ticks": 16,
                "event": {
                    "deltaTime": 16,
                    "type": "channel",
                    "subtype": "noteOff",
                    "channel": 9,
                    "noteNumber": 54,
                    "velocity": 0,
                    "lightChannels": [
                        6,
                        7
                    ]
                }
            }
        }
    },
    {
        "changes": {
            "window": 1,
            "outline": 1
        },
        "timeout": 0.197033675,
        "raw": {
            "window": {
                "pinValue": 1,
                "ticks": 12,
                "event": {
                    "deltaTime": 12,
                    "type": "channel",
                    "subtype": "noteOn",
                    "channel": 9,
                    "noteNumber": 54,
                    "velocity": 87,
                    "lightChannels": [
                        6,
                        7
                    ]
                }
            },
            "outline": {
                "pinValue": 1,
                "ticks": 12,
                "event": {
                    "deltaTime": 12,
                    "type": "channel",
                    "subtype": "noteOn",
                    "channel": 9,
                    "noteNumber": 54,
                    "velocity": 87,
                    "lightChannels": [
                        6,
                        7
                    ]
                }
            }
        }
    },
    {
        "changes": {
            "window": 0,
            "outline": 0
        },
        "timeout": 0.062499929166666655,
        "raw": {
            "window": {
                "pinValue": 0,
                "ticks": 9,
                "event": {
                    "deltaTime": 9,
                    "type": "channel",
                    "subtype": "noteOff",
                    "channel": 9,
                    "noteNumber": 54,
                    "velocity": 0,
                    "lightChannels": [
                        6,
                        7
                    ]
                }
            },
            "outline": {
                "pinValue": 0,
                "ticks": 9,
                "event": {
                    "deltaTime": 9,
                    "type": "channel",
                    "subtype": "noteOff",
                    "channel": 9,
                    "noteNumber": 54,
                    "velocity": 0,
                    "lightChannels": [
                        6,
                        7
                    ]
                }
            }
        }
    },
    {
        "changes": {
            "col-2": 0
        },
        "timeout": 0.13877102916666664,
        "raw": {
            "col-2": {
                "pinValue": 0,
                "ticks": 28,
                "event": {
                    "deltaTime": 28,
                    "type": "channel",
                    "subtype": "noteOff",
                    "channel": 7,
                    "noteNumber": 55,
                    "velocity": 0,
                    "lightChannels": [
                        4
                    ]
                }
            }
        }
    },
    {
        "changes": {
            "bottom-right": 0
        },
        "timeout": 0.04661011666666666,
        "raw": {
            "bottom-right": {
                "pinValue": 0,
                "ticks": 29,
                "event": {
                    "deltaTime": 29,
                    "type": "channel",
                    "subtype": "noteOff",
                    "channel": 8,
                    "noteNumber": 55,
                    "velocity": 0,
                    "lightChannels": [
                        2
                    ]
                }
            }
        }
    },
    {
        "changes": {
            "col-3": 1
        },
        "timeout": 0.0021186416666666664,
        "raw": {
            "col-3": {
                "pinValue": 1,
                "ticks": 2,
                "event": {
                    "deltaTime": 2,
                    "type": "channel",
                    "subtype": "noteOn",
                    "channel": 7,
                    "noteNumber": 58,
                    "velocity": 99,
                    "lightChannels": [
                        5
                    ]
                }
            }
        }
    },
    {
        "changes": {
            "window": 1,
            "outline": 1
        },
        "timeout": 0.02330505833333333,
        "raw": {
            "window": {
                "pinValue": 1,
                "ticks": 7,
                "event": {
                    "deltaTime": 7,
                    "type": "channel",
                    "subtype": "noteOn",
                    "channel": 9,
                    "noteNumber": 54,
                    "velocity": 91,
                    "lightChannels": [
                        6,
                        7
                    ]
                }
            },
            "outline": {
                "pinValue": 1,
                "ticks": 7,
                "event": {
                    "deltaTime": 7,
                    "type": "channel",
                    "subtype": "noteOn",
                    "channel": 9,
                    "noteNumber": 54,
                    "velocity": 91,
                    "lightChannels": [
                        6,
                        7
                    ]
                }
            }
        }
    },
    {
        "changes": {
            "garage": 1
        },
        "timeout": 0.007415245833333334,
        "raw": {
            "garage": {
                "pinValue": 1,
                "ticks": 1,
                "event": {
                    "deltaTime": 1,
                    "type": "channel",
                    "subtype": "noteOn",
                    "channel": 8,
                    "noteNumber": 58,
                    "velocity": 114,
                    "lightChannels": [
                        0
                    ]
                }
            }
        }
    },
    {
        "changes": {
            "window": 0,
            "outline": 0
        },
        "timeout": 0.04978807916666666,
        "raw": {
            "window": {
                "pinValue": 0,
                "ticks": 3,
                "event": {
                    "deltaTime": 3,
                    "type": "channel",
                    "subtype": "noteOff",
                    "channel": 9,
                    "noteNumber": 54,
                    "velocity": 0,
                    "lightChannels": [
                        6,
                        7
                    ]
                }
            },
            "outline": {
                "pinValue": 0,
                "ticks": 3,
                "event": {
                    "deltaTime": 3,
                    "type": "channel",
                    "subtype": "noteOff",
                    "channel": 9,
                    "noteNumber": 54,
                    "velocity": 0,
                    "lightChannels": [
                        6,
                        7
                    ]
                }
            }
        }
    },
    {
        "changes": {
            "window": 1,
            "outline": 1
        },
        "timeout": 0.1822031833333333,
        "raw": {
            "window": {
                "pinValue": 1,
                "ticks": 5,
                "event": {
                    "deltaTime": 5,
                    "type": "channel",
                    "subtype": "noteOn",
                    "channel": 9,
                    "noteNumber": 54,
                    "velocity": 87,
                    "lightChannels": [
                        6,
                        7
                    ]
                }
            },
            "outline": {
                "pinValue": 1,
                "ticks": 5,
                "event": {
                    "deltaTime": 5,
                    "type": "channel",
                    "subtype": "noteOn",
                    "channel": 9,
                    "noteNumber": 54,
                    "velocity": 87,
                    "lightChannels": [
                        6,
                        7
                    ]
                }
            }
        }
    },
    {
        "changes": {
            "window": 0,
            "outline": 0
        },
        "timeout": 0.0603812875,
        "raw": {
            "window": {
                "pinValue": 0,
                "ticks": 0,
                "event": {
                    "deltaTime": 0,
                    "type": "channel",
                    "subtype": "noteOff",
                    "channel": 9,
                    "noteNumber": 54,
                    "velocity": 0,
                    "lightChannels": [
                        6,
                        7
                    ]
                }
            },
            "outline": {
                "pinValue": 0,
                "ticks": 0,
                "event": {
                    "deltaTime": 0,
                    "type": "channel",
                    "subtype": "noteOff",
                    "channel": 9,
                    "noteNumber": 54,
                    "velocity": 0,
                    "lightChannels": [
                        6,
                        7
                    ]
                }
            }
        }
    },
    {
        "changes": {
            "col-3": 0
        },
        "timeout": 0.1377117083333333,
        "raw": {
            "col-3": {
                "pinValue": 0,
                "ticks": 31,
                "event": {
                    "deltaTime": 31,
                    "type": "channel",
                    "subtype": "noteOff",
                    "channel": 7,
                    "noteNumber": 58,
                    "velocity": 0,
                    "lightChannels": [
                        5
                    ]
                }
            }
        }
    },
    {
        "changes": {
            "garage": 0
        },
        "timeout": 0.019067775,
        "raw": {
            "garage": {
                "pinValue": 0,
                "ticks": 18,
                "event": {
                    "deltaTime": 18,
                    "type": "channel",
                    "subtype": "noteOff",
                    "channel": 8,
                    "noteNumber": 58,
                    "velocity": 0,
                    "lightChannels": [
                        0
                    ]
                }
            }
        }
    },
    {
        "changes": {
            "garden": 1
        },
        "timeout": 0.04661011666666666,
        "raw": {
            "garden": {
                "pinValue": 1,
                "ticks": 0,
                "event": {
                    "deltaTime": 0,
                    "type": "channel",
                    "subtype": "noteOn",
                    "channel": 7,
                    "noteNumber": 57,
                    "velocity": 93,
                    "lightChannels": [
                        8
                    ]
                }
            }
        }
    },
    {
        "changes": {
            "window": 1,
            "outline": 1
        },
        "timeout": 0.0031779624999999996,
        "raw": {
            "window": {
                "pinValue": 1,
                "ticks": 1,
                "event": {
                    "deltaTime": 1,
                    "type": "channel",
                    "subtype": "noteOn",
                    "channel": 9,
                    "noteNumber": 54,
                    "velocity": 88,
                    "lightChannels": [
                        6,
                        7
                    ]
                }
            },
            "outline": {
                "pinValue": 1,
                "ticks": 1,
                "event": {
                    "deltaTime": 1,
                    "type": "channel",
                    "subtype": "noteOn",
                    "channel": 9,
                    "noteNumber": 54,
                    "velocity": 88,
                    "lightChannels": [
                        6,
                        7
                    ]
                }
            }
        }
    },
    {
        "changes": {
            "top-right": 1
        },
        "timeout": 0.0158898125,
        "raw": {
            "top-right": {
                "pinValue": 1,
                "ticks": 3,
                "event": {
                    "deltaTime": 3,
                    "type": "channel",
                    "subtype": "noteOn",
                    "channel": 8,
                    "noteNumber": 57,
                    "velocity": 118,
                    "lightChannels": [
                        1
                    ]
                }
            }
        }
    },
    {
        "changes": {
            "window": 0,
            "outline": 0
        },
        "timeout": 0.044491474999999996,
        "raw": {
            "window": {
                "pinValue": 0,
                "ticks": 21,
                "event": {
                    "deltaTime": 21,
                    "type": "channel",
                    "subtype": "noteOff",
                    "channel": 9,
                    "noteNumber": 54,
                    "velocity": 0,
                    "lightChannels": [
                        6,
                        7
                    ]
                }
            },
            "outline": {
                "pinValue": 0,
                "ticks": 21,
                "event": {
                    "deltaTime": 21,
                    "type": "channel",
                    "subtype": "noteOff",
                    "channel": 9,
                    "noteNumber": 54,
                    "velocity": 0,
                    "lightChannels": [
                        6,
                        7
                    ]
                }
            }
        }
    },
    {
        "changes": {
            "window": 1,
            "outline": 1
        },
        "timeout": 0.1779659,
        "raw": {
            "window": {
                "pinValue": 1,
                "ticks": 0,
                "event": {
                    "deltaTime": 0,
                    "type": "channel",
                    "subtype": "noteOn",
                    "channel": 9,
                    "noteNumber": 54,
                    "velocity": 88,
                    "lightChannels": [
                        6,
                        7
                    ]
                }
            },
            "outline": {
                "pinValue": 1,
                "ticks": 0,
                "event": {
                    "deltaTime": 0,
                    "type": "channel",
                    "subtype": "noteOn",
                    "channel": 9,
                    "noteNumber": 54,
                    "velocity": 88,
                    "lightChannels": [
                        6,
                        7
                    ]
                }
            }
        }
    },
    {
        "changes": {
            "window": 0,
            "outline": 0
        },
        "timeout": 0.057203324999999985,
        "raw": {
            "window": {
                "pinValue": 0,
                "ticks": 14,
                "event": {
                    "deltaTime": 14,
                    "type": "channel",
                    "subtype": "noteOff",
                    "channel": 9,
                    "noteNumber": 54,
                    "velocity": 0,
                    "lightChannels": [
                        6,
                        7
                    ]
                }
            },
            "outline": {
                "pinValue": 0,
                "ticks": 14,
                "event": {
                    "deltaTime": 14,
                    "type": "channel",
                    "subtype": "noteOff",
                    "channel": 9,
                    "noteNumber": 54,
                    "velocity": 0,
                    "lightChannels": [
                        6,
                        7
                    ]
                }
            }
        }
    },
    {
        "changes": {
            "top-right": 0
        },
        "timeout": 0.08368634583333333,
        "raw": {
            "top-right": {
                "pinValue": 0,
                "ticks": 0,
                "event": {
                    "deltaTime": 0,
                    "type": "channel",
                    "subtype": "noteOff",
                    "channel": 8,
                    "noteNumber": 57,
                    "velocity": 0,
                    "lightChannels": [
                        1
                    ]
                }
            }
        }
    },
    {
        "changes": {
            "garden": 0
        },
        "timeout": 0.006355925,
        "raw": {
            "garden": {
                "pinValue": 0,
                "ticks": 5,
                "event": {
                    "deltaTime": 5,
                    "type": "channel",
                    "subtype": "noteOff",
                    "channel": 7,
                    "noteNumber": 57,
                    "velocity": 0,
                    "lightChannels": [
                        8
                    ]
                }
            }
        }
    },
    {
        "changes": {
            "bottom-right": 1
        },
        "timeout": 0.1271185,
        "raw": {
            "bottom-right": {
                "pinValue": 1,
                "ticks": 0,
                "event": {
                    "deltaTime": 0,
                    "type": "channel",
                    "subtype": "noteOn",
                    "channel": 8,
                    "noteNumber": 57,
                    "velocity": 123,
                    "lightChannels": [
                        2
                    ]
                }
            }
        }
    },
    {
        "changes": {
            "window": 1,
            "outline": 1
        },
        "timeout": 0.004237283333333333,
        "raw": {
            "window": {
                "pinValue": 1,
                "ticks": 4,
                "event": {
                    "deltaTime": 4,
                    "type": "channel",
                    "subtype": "noteOn",
                    "channel": 9,
                    "noteNumber": 54,
                    "velocity": 101,
                    "lightChannels": [
                        6,
                        7
                    ]
                }
            },
            "outline": {
                "pinValue": 1,
                "ticks": 4,
                "event": {
                    "deltaTime": 4,
                    "type": "channel",
                    "subtype": "noteOn",
                    "channel": 9,
                    "noteNumber": 54,
                    "velocity": 101,
                    "lightChannels": [
                        6,
                        7
                    ]
                }
            }
        }
    },
    {
        "changes": {
            "col-1": 1
        },
        "timeout": 0.0031779624999999996,
        "raw": {
            "col-1": {
                "pinValue": 1,
                "ticks": 3,
                "event": {
                    "deltaTime": 3,
                    "type": "channel",
                    "subtype": "noteOn",
                    "channel": 7,
                    "noteNumber": 57,
                    "velocity": 97,
                    "lightChannels": [
                        3
                    ]
                }
            }
        }
    },
    {
        "changes": {
            "window": 0,
            "outline": 0
        },
        "timeout": 0.059321966666666656,
        "raw": {
            "window": {
                "pinValue": 0,
                "ticks": 0,
                "event": {
                    "deltaTime": 0,
                    "type": "channel",
                    "subtype": "noteOff",
                    "channel": 9,
                    "noteNumber": 54,
                    "velocity": 0,
                    "lightChannels": [
                        6,
                        7
                    ]
                }
            },
            "outline": {
                "pinValue": 0,
                "ticks": 0,
                "event": {
                    "deltaTime": 0,
                    "type": "channel",
                    "subtype": "noteOff",
                    "channel": 9,
                    "noteNumber": 54,
                    "velocity": 0,
                    "lightChannels": [
                        6,
                        7
                    ]
                }
            }
        }
    },
    {
        "changes": {
            "window": 1,
            "outline": 1
        },
        "timeout": 0.17584725833333328,
        "raw": {
            "window": {
                "pinValue": 1,
                "ticks": 2,
                "event": {
                    "deltaTime": 2,
                    "type": "channel",
                    "subtype": "noteOn",
                    "channel": 9,
                    "noteNumber": 54,
                    "velocity": 84,
                    "lightChannels": [
                        6,
                        7
                    ]
                }
            },
            "outline": {
                "pinValue": 1,
                "ticks": 2,
                "event": {
                    "deltaTime": 2,
                    "type": "channel",
                    "subtype": "noteOn",
                    "channel": 9,
                    "noteNumber": 54,
                    "velocity": 84,
                    "lightChannels": [
                        6,
                        7
                    ]
                }
            }
        }
    },
    {
        "changes": {
            "window": 0,
            "outline": 0
        },
        "timeout": 0.06038128749999998,
        "raw": {
            "window": {
                "pinValue": 0,
                "ticks": 0,
                "event": {
                    "deltaTime": 0,
                    "type": "channel",
                    "subtype": "noteOff",
                    "channel": 9,
                    "noteNumber": 54,
                    "velocity": 0,
                    "lightChannels": [
                        6,
                        7
                    ]
                }
            },
            "outline": {
                "pinValue": 0,
                "ticks": 0,
                "event": {
                    "deltaTime": 0,
                    "type": "channel",
                    "subtype": "noteOff",
                    "channel": 9,
                    "noteNumber": 54,
                    "velocity": 0,
                    "lightChannels": [
                        6,
                        7
                    ]
                }
            }
        }
    },
    {
        "changes": {
            "bottom-right": 0
        },
        "timeout": 0.14406763333333333,
        "raw": {
            "bottom-right": {
                "pinValue": 0,
                "ticks": 59,
                "event": {
                    "deltaTime": 59,
                    "type": "channel",
                    "subtype": "noteOff",
                    "channel": 8,
                    "noteNumber": 57,
                    "velocity": 0,
                    "lightChannels": [
                        2
                    ]
                }
            }
        }
    },
    {
        "changes": {
            "col-1": 0
        },
        "timeout": 0.01694913333333333,
        "raw": {
            "col-1": {
                "pinValue": 0,
                "ticks": 16,
                "event": {
                    "deltaTime": 16,
                    "type": "channel",
                    "subtype": "noteOff",
                    "channel": 7,
                    "noteNumber": 57,
                    "velocity": 0,
                    "lightChannels": [
                        3
                    ]
                }
            }
        }
    },
    {
        "changes": {
            "garage": 1
        },
        "timeout": 0.04237283333333333,
        "raw": {
            "garage": {
                "pinValue": 1,
                "ticks": 0,
                "event": {
                    "deltaTime": 0,
                    "type": "channel",
                    "subtype": "noteOn",
                    "channel": 8,
                    "noteNumber": 55,
                    "velocity": 121,
                    "lightChannels": [
                        0
                    ]
                }
            }
        }
    },
    {
        "changes": {
            "window": 1,
            "outline": 1
        },
        "timeout": 0.010593208333333333,
        "raw": {
            "window": {
                "pinValue": 1,
                "ticks": 9,
                "event": {
                    "deltaTime": 9,
                    "type": "channel",
                    "subtype": "noteOn",
                    "channel": 9,
                    "noteNumber": 54,
                    "velocity": 85,
                    "lightChannels": [
                        6,
                        7
                    ]
                }
            },
            "outline": {
                "pinValue": 1,
                "ticks": 9,
                "event": {
                    "deltaTime": 9,
                    "type": "channel",
                    "subtype": "noteOn",
                    "channel": 9,
                    "noteNumber": 54,
                    "velocity": 85,
                    "lightChannels": [
                        6,
                        7
                    ]
                }
            }
        }
    },
    {
        "changes": {
            "col-2": 1
        },
        "timeout": 0.006355924999999999,
        "raw": {
            "col-2": {
                "pinValue": 1,
                "ticks": 3,
                "event": {
                    "deltaTime": 3,
                    "type": "channel",
                    "subtype": "noteOn",
                    "channel": 7,
                    "noteNumber": 55,
                    "velocity": 88,
                    "lightChannels": [
                        4
                    ]
                }
            }
        }
    },
    {
        "changes": {
            "window": 0,
            "outline": 0
        },
        "timeout": 0.05190672083333332,
        "raw": {
            "window": {
                "pinValue": 0,
                "ticks": 47,
                "event": {
                    "deltaTime": 47,
                    "type": "channel",
                    "subtype": "noteOff",
                    "channel": 9,
                    "noteNumber": 54,
                    "velocity": 0,
                    "lightChannels": [
                        6,
                        7
                    ]
                }
            },
            "outline": {
                "pinValue": 0,
                "ticks": 47,
                "event": {
                    "deltaTime": 47,
                    "type": "channel",
                    "subtype": "noteOff",
                    "channel": 9,
                    "noteNumber": 54,
                    "velocity": 0,
                    "lightChannels": [
                        6,
                        7
                    ]
                }
            }
        }
    },
    {
        "changes": {
            "window": 1,
            "outline": 1
        },
        "timeout": 0.2076268833333333,
        "raw": {
            "window": {
                "pinValue": 1,
                "ticks": 0,
                "event": {
                    "deltaTime": 0,
                    "type": "channel",
                    "subtype": "noteOn",
                    "channel": 9,
                    "noteNumber": 54,
                    "velocity": 88,
                    "lightChannels": [
                        6,
                        7
                    ]
                }
            },
            "outline": {
                "pinValue": 1,
                "ticks": 0,
                "event": {
                    "deltaTime": 0,
                    "type": "channel",
                    "subtype": "noteOn",
                    "channel": 9,
                    "noteNumber": 54,
                    "velocity": 88,
                    "lightChannels": [
                        6,
                        7
                    ]
                }
            }
        }
    },
    {
        "changes": {
            "window": 0,
            "outline": 0
        },
        "timeout": 0.056144004166666664,
        "raw": {
            "window": {
                "pinValue": 0,
                "ticks": 1,
                "event": {
                    "deltaTime": 1,
                    "type": "channel",
                    "subtype": "noteOff",
                    "channel": 9,
                    "noteNumber": 54,
                    "velocity": 0,
                    "lightChannels": [
                        6,
                        7
                    ]
                }
            },
            "outline": {
                "pinValue": 0,
                "ticks": 1,
                "event": {
                    "deltaTime": 1,
                    "type": "channel",
                    "subtype": "noteOff",
                    "channel": 9,
                    "noteNumber": 54,
                    "velocity": 0,
                    "lightChannels": [
                        6,
                        7
                    ]
                }
            }
        }
    },
    {
        "changes": {
            "col-2": 0
        },
        "timeout": 0.12288121666666665,
        "raw": {
            "col-2": {
                "pinValue": 0,
                "ticks": 0,
                "event": {
                    "deltaTime": 0,
                    "type": "channel",
                    "subtype": "noteOff",
                    "channel": 7,
                    "noteNumber": 55,
                    "velocity": 0,
                    "lightChannels": [
                        4
                    ]
                }
            }
        }
    },
    {
        "changes": {
            "garage": 0
        },
        "timeout": 0.007415245833333332,
        "raw": {
            "garage": {
                "pinValue": 0,
                "ticks": 7,
                "event": {
                    "deltaTime": 7,
                    "type": "channel",
                    "subtype": "noteOff",
                    "channel": 8,
                    "noteNumber": 55,
                    "velocity": 0,
                    "lightChannels": [
                        0
                    ]
                }
            }
        }
    },
    {
        "changes": {
            "col-3": 1
        },
        "timeout": 0.04343215416666666,
        "raw": {
            "col-3": {
                "pinValue": 1,
                "ticks": 12,
                "event": {
                    "deltaTime": 12,
                    "type": "channel",
                    "subtype": "noteOn",
                    "channel": 7,
                    "noteNumber": 58,
                    "velocity": 101,
                    "lightChannels": [
                        5
                    ]
                }
            }
        }
    },
    {
        "changes": {
            "top-right": 1
        },
        "timeout": 0.019067774999999995,
        "raw": {
            "top-right": {
                "pinValue": 1,
                "ticks": 0,
                "event": {
                    "deltaTime": 0,
                    "type": "channel",
                    "subtype": "noteOn",
                    "channel": 8,
                    "noteNumber": 58,
                    "velocity": 116,
                    "lightChannels": [
                        1
                    ]
                }
            }
        }
    },
    {
        "changes": {
            "window": 1,
            "outline": 1
        },
        "timeout": 0.01271185,
        "raw": {
            "window": {
                "pinValue": 1,
                "ticks": 2,
                "event": {
                    "deltaTime": 2,
                    "type": "channel",
                    "subtype": "noteOn",
                    "channel": 9,
                    "noteNumber": 54,
                    "velocity": 90,
                    "lightChannels": [
                        6,
                        7
                    ]
                }
            },
            "outline": {
                "pinValue": 1,
                "ticks": 2,
                "event": {
                    "deltaTime": 2,
                    "type": "channel",
                    "subtype": "noteOn",
                    "channel": 9,
                    "noteNumber": 54,
                    "velocity": 90,
                    "lightChannels": [
                        6,
                        7
                    ]
                }
            }
        }
    },
    {
        "changes": {
            "window": 0,
            "outline": 0
        },
        "timeout": 0.06038128749999999,
        "raw": {
            "window": {
                "pinValue": 0,
                "ticks": 3,
                "event": {
                    "deltaTime": 3,
                    "type": "channel",
                    "subtype": "noteOff",
                    "channel": 9,
                    "noteNumber": 54,
                    "velocity": 0,
                    "lightChannels": [
                        6,
                        7
                    ]
                }
            },
            "outline": {
                "pinValue": 0,
                "ticks": 3,
                "event": {
                    "deltaTime": 3,
                    "type": "channel",
                    "subtype": "noteOff",
                    "channel": 9,
                    "noteNumber": 54,
                    "velocity": 0,
                    "lightChannels": [
                        6,
                        7
                    ]
                }
            }
        }
    },
    {
        "changes": {
            "window": 1,
            "outline": 1
        },
        "timeout": 0.1917370708333333,
        "raw": {
            "window": {
                "pinValue": 1,
                "ticks": 0,
                "event": {
                    "deltaTime": 0,
                    "type": "channel",
                    "subtype": "noteOn",
                    "channel": 9,
                    "noteNumber": 54,
                    "velocity": 91,
                    "lightChannels": [
                        6,
                        7
                    ]
                }
            },
            "outline": {
                "pinValue": 1,
                "ticks": 0,
                "event": {
                    "deltaTime": 0,
                    "type": "channel",
                    "subtype": "noteOn",
                    "channel": 9,
                    "noteNumber": 54,
                    "velocity": 91,
                    "lightChannels": [
                        6,
                        7
                    ]
                }
            }
        }
    },
    {
        "changes": {
            "window": 0,
            "outline": 0
        },
        "timeout": 0.05932196666666666,
        "raw": {
            "window": {
                "pinValue": 0,
                "ticks": 3,
                "event": {
                    "deltaTime": 3,
                    "type": "channel",
                    "subtype": "noteOff",
                    "channel": 9,
                    "noteNumber": 54,
                    "velocity": 0,
                    "lightChannels": [
                        6,
                        7
                    ]
                }
            },
            "outline": {
                "pinValue": 0,
                "ticks": 3,
                "event": {
                    "deltaTime": 3,
                    "type": "channel",
                    "subtype": "noteOff",
                    "channel": 9,
                    "noteNumber": 54,
                    "velocity": 0,
                    "lightChannels": [
                        6,
                        7
                    ]
                }
            }
        }
    },
    {
        "changes": {
            "col-3": 0
        },
        "timeout": 0.12288121666666665,
        "raw": {
            "col-3": {
                "pinValue": 0,
                "ticks": 48,
                "event": {
                    "deltaTime": 48,
                    "type": "channel",
                    "subtype": "noteOff",
                    "channel": 7,
                    "noteNumber": 58,
                    "velocity": 0,
                    "lightChannels": [
                        5
                    ]
                }
            }
        }
    },
    {
        "changes": {
            "top-right": 0
        },
        "timeout": 0.010593208333333333,
        "raw": {
            "top-right": {
                "pinValue": 0,
                "ticks": 10,
                "event": {
                    "deltaTime": 10,
                    "type": "channel",
                    "subtype": "noteOff",
                    "channel": 8,
                    "noteNumber": 58,
                    "velocity": 0,
                    "lightChannels": [
                        1
                    ]
                }
            }
        }
    },
    {
        "changes": {
            "bottom-right": 1
        },
        "timeout": 0.030720304166666663,
        "raw": {
            "bottom-right": {
                "pinValue": 1,
                "ticks": 27,
                "event": {
                    "deltaTime": 27,
                    "type": "channel",
                    "subtype": "noteOn",
                    "channel": 8,
                    "noteNumber": 57,
                    "velocity": 111,
                    "lightChannels": [
                        2
                    ]
                }
            }
        }
    },
    {
        "changes": {
            "garden": 1,
            "tree": 1
        },
        "timeout": 0.02012709583333333,
        "raw": {
            "garden": {
                "pinValue": 1,
                "ticks": 7,
                "event": {
                    "deltaTime": 7,
                    "type": "channel",
                    "subtype": "noteOn",
                    "channel": 7,
                    "noteNumber": 57,
                    "velocity": 90,
                    "lightChannels": [
                        8,
                        9
                    ]
                }
            },
            "tree": {
                "pinValue": 1,
                "ticks": 7,
                "event": {
                    "deltaTime": 7,
                    "type": "channel",
                    "subtype": "noteOn",
                    "channel": 7,
                    "noteNumber": 57,
                    "velocity": 90,
                    "lightChannels": [
                        8,
                        9
                    ]
                }
            }
        }
    },
    {
        "changes": {
            "window": 1,
            "outline": 1
        },
        "timeout": 0.019067775,
        "raw": {
            "window": {
                "pinValue": 1,
                "ticks": 0,
                "event": {
                    "deltaTime": 0,
                    "type": "channel",
                    "subtype": "noteOn",
                    "channel": 9,
                    "noteNumber": 54,
                    "velocity": 91,
                    "lightChannels": [
                        6,
                        7
                    ]
                }
            },
            "outline": {
                "pinValue": 1,
                "ticks": 0,
                "event": {
                    "deltaTime": 0,
                    "type": "channel",
                    "subtype": "noteOn",
                    "channel": 9,
                    "noteNumber": 54,
                    "velocity": 91,
                    "lightChannels": [
                        6,
                        7
                    ]
                }
            }
        }
    },
    {
        "changes": {
            "window": 0,
            "outline": 0
        },
        "timeout": 0.06779653333333333,
        "raw": {
            "window": {
                "pinValue": 0,
                "ticks": 26,
                "event": {
                    "deltaTime": 26,
                    "type": "channel",
                    "subtype": "noteOff",
                    "channel": 9,
                    "noteNumber": 54,
                    "velocity": 0,
                    "lightChannels": [
                        6,
                        7
                    ]
                }
            },
            "outline": {
                "pinValue": 0,
                "ticks": 26,
                "event": {
                    "deltaTime": 26,
                    "type": "channel",
                    "subtype": "noteOff",
                    "channel": 9,
                    "noteNumber": 54,
                    "velocity": 0,
                    "lightChannels": [
                        6,
                        7
                    ]
                }
            }
        }
    },
    {
        "changes": {
            "window": 1,
            "outline": 1
        },
        "timeout": 0.19067774999999995,
        "raw": {
            "window": {
                "pinValue": 1,
                "ticks": 3,
                "event": {
                    "deltaTime": 3,
                    "type": "channel",
                    "subtype": "noteOn",
                    "channel": 9,
                    "noteNumber": 54,
                    "velocity": 87,
                    "lightChannels": [
                        6,
                        7
                    ]
                }
            },
            "outline": {
                "pinValue": 1,
                "ticks": 3,
                "event": {
                    "deltaTime": 3,
                    "type": "channel",
                    "subtype": "noteOn",
                    "channel": 9,
                    "noteNumber": 54,
                    "velocity": 87,
                    "lightChannels": [
                        6,
                        7
                    ]
                }
            }
        }
    },
    {
        "changes": {
            "window": 0,
            "outline": 0
        },
        "timeout": 0.056144004166666664,
        "raw": {
            "window": {
                "pinValue": 0,
                "ticks": 5,
                "event": {
                    "deltaTime": 5,
                    "type": "channel",
                    "subtype": "noteOff",
                    "channel": 9,
                    "noteNumber": 54,
                    "velocity": 0,
                    "lightChannels": [
                        6,
                        7
                    ]
                }
            },
            "outline": {
                "pinValue": 0,
                "ticks": 5,
                "event": {
                    "deltaTime": 5,
                    "type": "channel",
                    "subtype": "noteOff",
                    "channel": 9,
                    "noteNumber": 54,
                    "velocity": 0,
                    "lightChannels": [
                        6,
                        7
                    ]
                }
            }
        }
    },
    {
        "changes": {
            "garden": 0,
            "tree": 0
        },
        "timeout": 0.008474566666666666,
        "raw": {
            "garden": {
                "pinValue": 0,
                "ticks": 0,
                "event": {
                    "deltaTime": 0,
                    "type": "channel",
                    "subtype": "noteOff",
                    "channel": 7,
                    "noteNumber": 57,
                    "velocity": 0,
                    "lightChannels": [
                        8,
                        9
                    ]
                }
            },
            "tree": {
                "pinValue": 0,
                "ticks": 0,
                "event": {
                    "deltaTime": 0,
                    "type": "channel",
                    "subtype": "noteOff",
                    "channel": 7,
                    "noteNumber": 57,
                    "velocity": 0,
                    "lightChannels": [
                        8,
                        9
                    ]
                }
            }
        }
    },
    {
        "changes": {
            "bottom-right": 0
        },
        "timeout": 0.06249992916666666,
        "raw": {
            "bottom-right": {
                "pinValue": 0,
                "ticks": 27,
                "event": {
                    "deltaTime": 27,
                    "type": "channel",
                    "subtype": "noteOff",
                    "channel": 8,
                    "noteNumber": 57,
                    "velocity": 0,
                    "lightChannels": [
                        2
                    ]
                }
            }
        }
    },
    {
        "changes": {
            "window": 1,
            "outline": 1
        },
        "timeout": 0.1377117083333333,
        "raw": {
            "window": {
                "pinValue": 1,
                "ticks": 3,
                "event": {
                    "deltaTime": 3,
                    "type": "channel",
                    "subtype": "noteOn",
                    "channel": 9,
                    "noteNumber": 54,
                    "velocity": 103,
                    "lightChannels": [
                        6,
                        7
                    ]
                }
            },
            "outline": {
                "pinValue": 1,
                "ticks": 3,
                "event": {
                    "deltaTime": 3,
                    "type": "channel",
                    "subtype": "noteOn",
                    "channel": 9,
                    "noteNumber": 54,
                    "velocity": 103,
                    "lightChannels": [
                        6,
                        7
                    ]
                }
            }
        }
    },
    {
        "changes": {
            "window": 0,
            "outline": 0
        },
        "timeout": 0.07415245833333334,
        "raw": {
            "window": {
                "pinValue": 0,
                "ticks": 3,
                "event": {
                    "deltaTime": 3,
                    "type": "channel",
                    "subtype": "noteOff",
                    "channel": 9,
                    "noteNumber": 54,
                    "velocity": 0,
                    "lightChannels": [
                        6,
                        7
                    ]
                }
            },
            "outline": {
                "pinValue": 0,
                "ticks": 3,
                "event": {
                    "deltaTime": 3,
                    "type": "channel",
                    "subtype": "noteOff",
                    "channel": 9,
                    "noteNumber": 54,
                    "velocity": 0,
                    "lightChannels": [
                        6,
                        7
                    ]
                }
            }
        }
    },
    {
        "changes": {
            "garage": 1,
            "top-right": 1,
            "bottom-right": 1,
            "col-1": 1,
            "col-2": 1,
            "col-3": 1,
            "window": 1,
            "outline": 1
        },
        "timeout": 0.1557201625,
        "raw": {
            "garage": {
                "pinValue": 1,
                "ticks": 4,
                "event": {
                    "deltaTime": 4,
                    "type": "channel",
                    "subtype": "noteOn",
                    "channel": 6,
                    "noteNumber": 63,
                    "velocity": 95,
                    "lightChannels": [
                        0,
                        1,
                        2,
                        3,
                        4,
                        5,
                        6,
                        7
                    ]
                }
            },
            "top-right": {
                "pinValue": 1,
                "ticks": 4,
                "event": {
                    "deltaTime": 4,
                    "type": "channel",
                    "subtype": "noteOn",
                    "channel": 6,
                    "noteNumber": 63,
                    "velocity": 95,
                    "lightChannels": [
                        0,
                        1,
                        2,
                        3,
                        4,
                        5,
                        6,
                        7
                    ]
                }
            },
            "bottom-right": {
                "pinValue": 1,
                "ticks": 4,
                "event": {
                    "deltaTime": 4,
                    "type": "channel",
                    "subtype": "noteOn",
                    "channel": 6,
                    "noteNumber": 63,
                    "velocity": 95,
                    "lightChannels": [
                        0,
                        1,
                        2,
                        3,
                        4,
                        5,
                        6,
                        7
                    ]
                }
            },
            "col-1": {
                "pinValue": 1,
                "ticks": 4,
                "event": {
                    "deltaTime": 4,
                    "type": "channel",
                    "subtype": "noteOn",
                    "channel": 6,
                    "noteNumber": 63,
                    "velocity": 95,
                    "lightChannels": [
                        0,
                        1,
                        2,
                        3,
                        4,
                        5,
                        6,
                        7
                    ]
                }
            },
            "col-2": {
                "pinValue": 1,
                "ticks": 4,
                "event": {
                    "deltaTime": 4,
                    "type": "channel",
                    "subtype": "noteOn",
                    "channel": 6,
                    "noteNumber": 63,
                    "velocity": 95,
                    "lightChannels": [
                        0,
                        1,
                        2,
                        3,
                        4,
                        5,
                        6,
                        7
                    ]
                }
            },
            "col-3": {
                "pinValue": 1,
                "ticks": 4,
                "event": {
                    "deltaTime": 4,
                    "type": "channel",
                    "subtype": "noteOn",
                    "channel": 6,
                    "noteNumber": 63,
                    "velocity": 95,
                    "lightChannels": [
                        0,
                        1,
                        2,
                        3,
                        4,
                        5,
                        6,
                        7
                    ]
                }
            },
            "window": {
                "pinValue": 1,
                "ticks": 4,
                "event": {
                    "deltaTime": 4,
                    "type": "channel",
                    "subtype": "noteOn",
                    "channel": 6,
                    "noteNumber": 63,
                    "velocity": 95,
                    "lightChannels": [
                        0,
                        1,
                        2,
                        3,
                        4,
                        5,
                        6,
                        7
                    ]
                }
            },
            "outline": {
                "pinValue": 1,
                "ticks": 4,
                "event": {
                    "deltaTime": 4,
                    "type": "channel",
                    "subtype": "noteOn",
                    "channel": 6,
                    "noteNumber": 63,
                    "velocity": 95,
                    "lightChannels": [
                        0,
                        1,
                        2,
                        3,
                        4,
                        5,
                        6,
                        7
                    ]
                }
            }
        }
    },
    {
        "changes": {
            "garage": 0,
            "top-right": 0,
            "bottom-right": 0,
            "col-1": 0,
            "col-2": 0,
            "col-3": 0,
            "window": 0,
            "outline": 0
        },
        "timeout": 0.21822009166666662,
        "raw": {
            "garage": {
                "pinValue": 0,
                "ticks": 14,
                "event": {
                    "deltaTime": 14,
                    "type": "channel",
                    "subtype": "noteOff",
                    "channel": 6,
                    "noteNumber": 63,
                    "velocity": 0,
                    "lightChannels": [
                        0,
                        1,
                        2,
                        3,
                        4,
                        5,
                        6,
                        7
                    ]
                }
            },
            "top-right": {
                "pinValue": 0,
                "ticks": 14,
                "event": {
                    "deltaTime": 14,
                    "type": "channel",
                    "subtype": "noteOff",
                    "channel": 6,
                    "noteNumber": 63,
                    "velocity": 0,
                    "lightChannels": [
                        0,
                        1,
                        2,
                        3,
                        4,
                        5,
                        6,
                        7
                    ]
                }
            },
            "bottom-right": {
                "pinValue": 0,
                "ticks": 14,
                "event": {
                    "deltaTime": 14,
                    "type": "channel",
                    "subtype": "noteOff",
                    "channel": 6,
                    "noteNumber": 63,
                    "velocity": 0,
                    "lightChannels": [
                        0,
                        1,
                        2,
                        3,
                        4,
                        5,
                        6,
                        7
                    ]
                }
            },
            "col-1": {
                "pinValue": 0,
                "ticks": 14,
                "event": {
                    "deltaTime": 14,
                    "type": "channel",
                    "subtype": "noteOff",
                    "channel": 6,
                    "noteNumber": 63,
                    "velocity": 0,
                    "lightChannels": [
                        0,
                        1,
                        2,
                        3,
                        4,
                        5,
                        6,
                        7
                    ]
                }
            },
            "col-2": {
                "pinValue": 0,
                "ticks": 14,
                "event": {
                    "deltaTime": 14,
                    "type": "channel",
                    "subtype": "noteOff",
                    "channel": 6,
                    "noteNumber": 63,
                    "velocity": 0,
                    "lightChannels": [
                        0,
                        1,
                        2,
                        3,
                        4,
                        5,
                        6,
                        7
                    ]
                }
            },
            "col-3": {
                "pinValue": 0,
                "ticks": 14,
                "event": {
                    "deltaTime": 14,
                    "type": "channel",
                    "subtype": "noteOff",
                    "channel": 6,
                    "noteNumber": 63,
                    "velocity": 0,
                    "lightChannels": [
                        0,
                        1,
                        2,
                        3,
                        4,
                        5,
                        6,
                        7
                    ]
                }
            },
            "window": {
                "pinValue": 0,
                "ticks": 14,
                "event": {
                    "deltaTime": 14,
                    "type": "channel",
                    "subtype": "noteOff",
                    "channel": 6,
                    "noteNumber": 63,
                    "velocity": 0,
                    "lightChannels": [
                        0,
                        1,
                        2,
                        3,
                        4,
                        5,
                        6,
                        7
                    ]
                }
            },
            "outline": {
                "pinValue": 0,
                "ticks": 14,
                "event": {
                    "deltaTime": 14,
                    "type": "channel",
                    "subtype": "noteOff",
                    "channel": 6,
                    "noteNumber": 63,
                    "velocity": 0,
                    "lightChannels": [
                        0,
                        1,
                        2,
                        3,
                        4,
                        5,
                        6,
                        7
                    ]
                }
            }
        }
    },
    {
        "changes": {
            "garden": 1,
            "tree": 1
        },
        "timeout": 0.022245737499999998,
        "raw": {
            "garden": {
                "pinValue": 1,
                "ticks": 3,
                "event": {
                    "deltaTime": 3,
                    "type": "channel",
                    "subtype": "noteOn",
                    "channel": 6,
                    "noteNumber": 62,
                    "velocity": 88,
                    "lightChannels": [
                        8,
                        9
                    ]
                }
            },
            "tree": {
                "pinValue": 1,
                "ticks": 3,
                "event": {
                    "deltaTime": 3,
                    "type": "channel",
                    "subtype": "noteOn",
                    "channel": 6,
                    "noteNumber": 62,
                    "velocity": 88,
                    "lightChannels": [
                        8,
                        9
                    ]
                }
            }
        }
    },
    {
        "changes": {
            "garden": 0,
            "tree": 0
        },
        "timeout": 0.10063547916666667,
        "raw": {
            "garden": {
                "pinValue": 0,
                "ticks": 4,
                "event": {
                    "deltaTime": 4,
                    "type": "channel",
                    "subtype": "noteOff",
                    "channel": 6,
                    "noteNumber": 62,
                    "velocity": 0,
                    "lightChannels": [
                        8,
                        9
                    ]
                }
            },
            "tree": {
                "pinValue": 0,
                "ticks": 4,
                "event": {
                    "deltaTime": 4,
                    "type": "channel",
                    "subtype": "noteOff",
                    "channel": 6,
                    "noteNumber": 62,
                    "velocity": 0,
                    "lightChannels": [
                        8,
                        9
                    ]
                }
            }
        }
    },
    {
        "changes": {
            "window": 1,
            "outline": 1
        },
        "timeout": 0.16207608749999997,
        "raw": {
            "window": {
                "pinValue": 1,
                "ticks": 4,
                "event": {
                    "deltaTime": 4,
                    "type": "channel",
                    "subtype": "noteOn",
                    "channel": 9,
                    "noteNumber": 54,
                    "velocity": 98,
                    "lightChannels": [
                        6,
                        7
                    ]
                }
            },
            "outline": {
                "pinValue": 1,
                "ticks": 4,
                "event": {
                    "deltaTime": 4,
                    "type": "channel",
                    "subtype": "noteOn",
                    "channel": 9,
                    "noteNumber": 54,
                    "velocity": 98,
                    "lightChannels": [
                        6,
                        7
                    ]
                }
            }
        }
    },
    {
        "changes": {
            "window": 0,
            "outline": 0
        },
        "timeout": 0.07309313749999999,
        "raw": {
            "window": {
                "pinValue": 0,
                "ticks": 56,
                "event": {
                    "deltaTime": 56,
                    "type": "channel",
                    "subtype": "noteOff",
                    "channel": 9,
                    "noteNumber": 54,
                    "velocity": 0,
                    "lightChannels": [
                        6,
                        7
                    ]
                }
            },
            "outline": {
                "pinValue": 0,
                "ticks": 56,
                "event": {
                    "deltaTime": 56,
                    "type": "channel",
                    "subtype": "noteOff",
                    "channel": 9,
                    "noteNumber": 54,
                    "velocity": 0,
                    "lightChannels": [
                        6,
                        7
                    ]
                }
            }
        }
    },
    {
        "changes": {
            "garage": 1,
            "top-right": 1,
            "bottom-right": 1,
            "col-1": 1,
            "col-2": 1,
            "col-3": 1,
            "window": 1,
            "outline": 1
        },
        "timeout": 0.16525404999999999,
        "raw": {
            "garage": {
                "pinValue": 1,
                "ticks": 3,
                "event": {
                    "deltaTime": 3,
                    "type": "channel",
                    "subtype": "noteOn",
                    "channel": 6,
                    "noteNumber": 63,
                    "velocity": 90,
                    "lightChannels": [
                        0,
                        1,
                        2,
                        3,
                        4,
                        5,
                        6,
                        7
                    ]
                }
            },
            "top-right": {
                "pinValue": 1,
                "ticks": 3,
                "event": {
                    "deltaTime": 3,
                    "type": "channel",
                    "subtype": "noteOn",
                    "channel": 6,
                    "noteNumber": 63,
                    "velocity": 90,
                    "lightChannels": [
                        0,
                        1,
                        2,
                        3,
                        4,
                        5,
                        6,
                        7
                    ]
                }
            },
            "bottom-right": {
                "pinValue": 1,
                "ticks": 3,
                "event": {
                    "deltaTime": 3,
                    "type": "channel",
                    "subtype": "noteOn",
                    "channel": 6,
                    "noteNumber": 63,
                    "velocity": 90,
                    "lightChannels": [
                        0,
                        1,
                        2,
                        3,
                        4,
                        5,
                        6,
                        7
                    ]
                }
            },
            "col-1": {
                "pinValue": 1,
                "ticks": 3,
                "event": {
                    "deltaTime": 3,
                    "type": "channel",
                    "subtype": "noteOn",
                    "channel": 6,
                    "noteNumber": 63,
                    "velocity": 90,
                    "lightChannels": [
                        0,
                        1,
                        2,
                        3,
                        4,
                        5,
                        6,
                        7
                    ]
                }
            },
            "col-2": {
                "pinValue": 1,
                "ticks": 3,
                "event": {
                    "deltaTime": 3,
                    "type": "channel",
                    "subtype": "noteOn",
                    "channel": 6,
                    "noteNumber": 63,
                    "velocity": 90,
                    "lightChannels": [
                        0,
                        1,
                        2,
                        3,
                        4,
                        5,
                        6,
                        7
                    ]
                }
            },
            "col-3": {
                "pinValue": 1,
                "ticks": 3,
                "event": {
                    "deltaTime": 3,
                    "type": "channel",
                    "subtype": "noteOn",
                    "channel": 6,
                    "noteNumber": 63,
                    "velocity": 90,
                    "lightChannels": [
                        0,
                        1,
                        2,
                        3,
                        4,
                        5,
                        6,
                        7
                    ]
                }
            },
            "window": {
                "pinValue": 1,
                "ticks": 3,
                "event": {
                    "deltaTime": 3,
                    "type": "channel",
                    "subtype": "noteOn",
                    "channel": 6,
                    "noteNumber": 63,
                    "velocity": 90,
                    "lightChannels": [
                        0,
                        1,
                        2,
                        3,
                        4,
                        5,
                        6,
                        7
                    ]
                }
            },
            "outline": {
                "pinValue": 1,
                "ticks": 3,
                "event": {
                    "deltaTime": 3,
                    "type": "channel",
                    "subtype": "noteOn",
                    "channel": 6,
                    "noteNumber": 63,
                    "velocity": 90,
                    "lightChannels": [
                        0,
                        1,
                        2,
                        3,
                        4,
                        5,
                        6,
                        7
                    ]
                }
            }
        }
    },
    {
        "changes": {
            "window": 1,
            "outline": 1
        },
        "timeout": 0.02966098333333333,
        "raw": {
            "window": {
                "pinValue": 1,
                "ticks": 1,
                "event": {
                    "deltaTime": 1,
                    "type": "channel",
                    "subtype": "noteOn",
                    "channel": 9,
                    "noteNumber": 54,
                    "velocity": 99,
                    "lightChannels": [
                        6,
                        7
                    ]
                }
            },
            "outline": {
                "pinValue": 1,
                "ticks": 1,
                "event": {
                    "deltaTime": 1,
                    "type": "channel",
                    "subtype": "noteOn",
                    "channel": 9,
                    "noteNumber": 54,
                    "velocity": 99,
                    "lightChannels": [
                        6,
                        7
                    ]
                }
            }
        }
    },
    {
        "changes": {
            "window": 0,
            "outline": 0
        },
        "timeout": 0.07097449583333333,
        "raw": {
            "window": {
                "pinValue": 0,
                "ticks": 3,
                "event": {
                    "deltaTime": 3,
                    "type": "channel",
                    "subtype": "noteOff",
                    "channel": 9,
                    "noteNumber": 54,
                    "velocity": 0,
                    "lightChannels": [
                        6,
                        7
                    ]
                }
            },
            "outline": {
                "pinValue": 0,
                "ticks": 3,
                "event": {
                    "deltaTime": 3,
                    "type": "channel",
                    "subtype": "noteOff",
                    "channel": 9,
                    "noteNumber": 54,
                    "velocity": 0,
                    "lightChannels": [
                        6,
                        7
                    ]
                }
            }
        }
    },
    {
        "changes": {
            "garage": 0,
            "top-right": 0,
            "bottom-right": 0,
            "col-1": 0,
            "col-2": 0,
            "col-3": 0,
            "window": 0,
            "outline": 0
        },
        "timeout": 0.12605917916666667,
        "raw": {
            "garage": {
                "pinValue": 0,
                "ticks": 5,
                "event": {
                    "deltaTime": 5,
                    "type": "channel",
                    "subtype": "noteOff",
                    "channel": 6,
                    "noteNumber": 63,
                    "velocity": 0,
                    "lightChannels": [
                        0,
                        1,
                        2,
                        3,
                        4,
                        5,
                        6,
                        7
                    ]
                }
            },
            "top-right": {
                "pinValue": 0,
                "ticks": 5,
                "event": {
                    "deltaTime": 5,
                    "type": "channel",
                    "subtype": "noteOff",
                    "channel": 6,
                    "noteNumber": 63,
                    "velocity": 0,
                    "lightChannels": [
                        0,
                        1,
                        2,
                        3,
                        4,
                        5,
                        6,
                        7
                    ]
                }
            },
            "bottom-right": {
                "pinValue": 0,
                "ticks": 5,
                "event": {
                    "deltaTime": 5,
                    "type": "channel",
                    "subtype": "noteOff",
                    "channel": 6,
                    "noteNumber": 63,
                    "velocity": 0,
                    "lightChannels": [
                        0,
                        1,
                        2,
                        3,
                        4,
                        5,
                        6,
                        7
                    ]
                }
            },
            "col-1": {
                "pinValue": 0,
                "ticks": 5,
                "event": {
                    "deltaTime": 5,
                    "type": "channel",
                    "subtype": "noteOff",
                    "channel": 6,
                    "noteNumber": 63,
                    "velocity": 0,
                    "lightChannels": [
                        0,
                        1,
                        2,
                        3,
                        4,
                        5,
                        6,
                        7
                    ]
                }
            },
            "col-2": {
                "pinValue": 0,
                "ticks": 5,
                "event": {
                    "deltaTime": 5,
                    "type": "channel",
                    "subtype": "noteOff",
                    "channel": 6,
                    "noteNumber": 63,
                    "velocity": 0,
                    "lightChannels": [
                        0,
                        1,
                        2,
                        3,
                        4,
                        5,
                        6,
                        7
                    ]
                }
            },
            "col-3": {
                "pinValue": 0,
                "ticks": 5,
                "event": {
                    "deltaTime": 5,
                    "type": "channel",
                    "subtype": "noteOff",
                    "channel": 6,
                    "noteNumber": 63,
                    "velocity": 0,
                    "lightChannels": [
                        0,
                        1,
                        2,
                        3,
                        4,
                        5,
                        6,
                        7
                    ]
                }
            },
            "window": {
                "pinValue": 0,
                "ticks": 5,
                "event": {
                    "deltaTime": 5,
                    "type": "channel",
                    "subtype": "noteOff",
                    "channel": 6,
                    "noteNumber": 63,
                    "velocity": 0,
                    "lightChannels": [
                        0,
                        1,
                        2,
                        3,
                        4,
                        5,
                        6,
                        7
                    ]
                }
            },
            "outline": {
                "pinValue": 0,
                "ticks": 5,
                "event": {
                    "deltaTime": 5,
                    "type": "channel",
                    "subtype": "noteOff",
                    "channel": 6,
                    "noteNumber": 63,
                    "velocity": 0,
                    "lightChannels": [
                        0,
                        1,
                        2,
                        3,
                        4,
                        5,
                        6,
                        7
                    ]
                }
            }
        }
    },
    {
        "changes": {
            "garden": 1,
            "tree": 1
        },
        "timeout": 0.02966098333333333,
        "raw": {
            "garden": {
                "pinValue": 1,
                "ticks": 8,
                "event": {
                    "deltaTime": 8,
                    "type": "channel",
                    "subtype": "noteOn",
                    "channel": 6,
                    "noteNumber": 62,
                    "velocity": 89,
                    "lightChannels": [
                        8,
                        9
                    ]
                }
            },
            "tree": {
                "pinValue": 1,
                "ticks": 8,
                "event": {
                    "deltaTime": 8,
                    "type": "channel",
                    "subtype": "noteOn",
                    "channel": 6,
                    "noteNumber": 62,
                    "velocity": 89,
                    "lightChannels": [
                        8,
                        9
                    ]
                }
            }
        }
    },
    {
        "changes": {
            "garden": 0,
            "tree": 0
        },
        "timeout": 0.0921609125,
        "raw": {
            "garden": {
                "pinValue": 0,
                "ticks": 15,
                "event": {
                    "deltaTime": 15,
                    "type": "channel",
                    "subtype": "noteOff",
                    "channel": 6,
                    "noteNumber": 62,
                    "velocity": 0,
                    "lightChannels": [
                        8,
                        9
                    ]
                }
            },
            "tree": {
                "pinValue": 0,
                "ticks": 15,
                "event": {
                    "deltaTime": 15,
                    "type": "channel",
                    "subtype": "noteOff",
                    "channel": 6,
                    "noteNumber": 62,
                    "velocity": 0,
                    "lightChannels": [
                        8,
                        9
                    ]
                }
            }
        }
    },
    {
        "changes": {
            "window": 1,
            "outline": 1
        },
        "timeout": 0.18432182499999997,
        "raw": {
            "window": {
                "pinValue": 1,
                "ticks": 21,
                "event": {
                    "deltaTime": 21,
                    "type": "channel",
                    "subtype": "noteOn",
                    "channel": 9,
                    "noteNumber": 54,
                    "velocity": 87,
                    "lightChannels": [
                        6,
                        7
                    ]
                }
            },
            "outline": {
                "pinValue": 1,
                "ticks": 21,
                "event": {
                    "deltaTime": 21,
                    "type": "channel",
                    "subtype": "noteOn",
                    "channel": 9,
                    "noteNumber": 54,
                    "velocity": 87,
                    "lightChannels": [
                        6,
                        7
                    ]
                }
            }
        }
    },
    {
        "changes": {
            "window": 0,
            "outline": 0
        },
        "timeout": 0.06249992916666666,
        "raw": {
            "window": {
                "pinValue": 0,
                "ticks": 59,
                "event": {
                    "deltaTime": 59,
                    "type": "channel",
                    "subtype": "noteOff",
                    "channel": 9,
                    "noteNumber": 54,
                    "velocity": 0,
                    "lightChannels": [
                        6,
                        7
                    ]
                }
            },
            "outline": {
                "pinValue": 0,
                "ticks": 59,
                "event": {
                    "deltaTime": 59,
                    "type": "channel",
                    "subtype": "noteOff",
                    "channel": 9,
                    "noteNumber": 54,
                    "velocity": 0,
                    "lightChannels": [
                        6,
                        7
                    ]
                }
            }
        }
    },
    {
        "changes": {
            "window": 1,
            "outline": 1
        },
        "timeout": 0.1980929958333333,
        "raw": {
            "window": {
                "pinValue": 1,
                "ticks": 17,
                "event": {
                    "deltaTime": 17,
                    "type": "channel",
                    "subtype": "noteOn",
                    "channel": 9,
                    "noteNumber": 54,
                    "velocity": 83,
                    "lightChannels": [
                        6,
                        7
                    ]
                }
            },
            "outline": {
                "pinValue": 1,
                "ticks": 17,
                "event": {
                    "deltaTime": 17,
                    "type": "channel",
                    "subtype": "noteOn",
                    "channel": 9,
                    "noteNumber": 54,
                    "velocity": 83,
                    "lightChannels": [
                        6,
                        7
                    ]
                }
            }
        }
    },
    {
        "changes": {
            "window": 0,
            "outline": 0
        },
        "timeout": 0.06567789166666665,
        "raw": {
            "window": {
                "pinValue": 0,
                "ticks": 62,
                "event": {
                    "deltaTime": 62,
                    "type": "channel",
                    "subtype": "noteOff",
                    "channel": 9,
                    "noteNumber": 54,
                    "velocity": 0,
                    "lightChannels": [
                        6,
                        7
                    ]
                }
            },
            "outline": {
                "pinValue": 0,
                "ticks": 62,
                "event": {
                    "deltaTime": 62,
                    "type": "channel",
                    "subtype": "noteOff",
                    "channel": 9,
                    "noteNumber": 54,
                    "velocity": 0,
                    "lightChannels": [
                        6,
                        7
                    ]
                }
            }
        }
    },
    {
        "changes": {
            "window": 1,
            "outline": 1
        },
        "timeout": 0.20021163749999998,
        "raw": {
            "window": {
                "pinValue": 1,
                "ticks": 10,
                "event": {
                    "deltaTime": 10,
                    "type": "channel",
                    "subtype": "noteOn",
                    "channel": 9,
                    "noteNumber": 54,
                    "velocity": 98,
                    "lightChannels": [
                        6,
                        7
                    ]
                }
            },
            "outline": {
                "pinValue": 1,
                "ticks": 10,
                "event": {
                    "deltaTime": 10,
                    "type": "channel",
                    "subtype": "noteOn",
                    "channel": 9,
                    "noteNumber": 54,
                    "velocity": 98,
                    "lightChannels": [
                        6,
                        7
                    ]
                }
            }
        }
    },
    {
        "changes": {
            "window": 0,
            "outline": 0
        },
        "timeout": 0.0762711,
        "raw": {
            "window": {
                "pinValue": 0,
                "ticks": 20,
                "event": {
                    "deltaTime": 20,
                    "type": "channel",
                    "subtype": "noteOff",
                    "channel": 9,
                    "noteNumber": 54,
                    "velocity": 0,
                    "lightChannels": [
                        6,
                        7
                    ]
                }
            },
            "outline": {
                "pinValue": 0,
                "ticks": 20,
                "event": {
                    "deltaTime": 20,
                    "type": "channel",
                    "subtype": "noteOff",
                    "channel": 9,
                    "noteNumber": 54,
                    "velocity": 0,
                    "lightChannels": [
                        6,
                        7
                    ]
                }
            }
        }
    },
    {
        "changes": {
            "garage": 1,
            "top-right": 1,
            "bottom-right": 1,
            "col-1": 1,
            "col-2": 1,
            "col-3": 1,
            "window": 1,
            "outline": 1
        },
        "timeout": 0.13559306666666665,
        "raw": {
            "garage": {
                "pinValue": 1,
                "ticks": 0,
                "event": {
                    "deltaTime": 0,
                    "type": "channel",
                    "subtype": "noteOn",
                    "channel": 6,
                    "noteNumber": 55,
                    "velocity": 91,
                    "lightChannels": [
                        0,
                        1,
                        2,
                        3,
                        4,
                        5,
                        6,
                        7
                    ]
                }
            },
            "top-right": {
                "pinValue": 1,
                "ticks": 0,
                "event": {
                    "deltaTime": 0,
                    "type": "channel",
                    "subtype": "noteOn",
                    "channel": 6,
                    "noteNumber": 55,
                    "velocity": 91,
                    "lightChannels": [
                        0,
                        1,
                        2,
                        3,
                        4,
                        5,
                        6,
                        7
                    ]
                }
            },
            "bottom-right": {
                "pinValue": 1,
                "ticks": 0,
                "event": {
                    "deltaTime": 0,
                    "type": "channel",
                    "subtype": "noteOn",
                    "channel": 6,
                    "noteNumber": 55,
                    "velocity": 91,
                    "lightChannels": [
                        0,
                        1,
                        2,
                        3,
                        4,
                        5,
                        6,
                        7
                    ]
                }
            },
            "col-1": {
                "pinValue": 1,
                "ticks": 0,
                "event": {
                    "deltaTime": 0,
                    "type": "channel",
                    "subtype": "noteOn",
                    "channel": 6,
                    "noteNumber": 55,
                    "velocity": 91,
                    "lightChannels": [
                        0,
                        1,
                        2,
                        3,
                        4,
                        5,
                        6,
                        7
                    ]
                }
            },
            "col-2": {
                "pinValue": 1,
                "ticks": 0,
                "event": {
                    "deltaTime": 0,
                    "type": "channel",
                    "subtype": "noteOn",
                    "channel": 6,
                    "noteNumber": 55,
                    "velocity": 91,
                    "lightChannels": [
                        0,
                        1,
                        2,
                        3,
                        4,
                        5,
                        6,
                        7
                    ]
                }
            },
            "col-3": {
                "pinValue": 1,
                "ticks": 0,
                "event": {
                    "deltaTime": 0,
                    "type": "channel",
                    "subtype": "noteOn",
                    "channel": 6,
                    "noteNumber": 55,
                    "velocity": 91,
                    "lightChannels": [
                        0,
                        1,
                        2,
                        3,
                        4,
                        5,
                        6,
                        7
                    ]
                }
            },
            "window": {
                "pinValue": 1,
                "ticks": 0,
                "event": {
                    "deltaTime": 0,
                    "type": "channel",
                    "subtype": "noteOn",
                    "channel": 6,
                    "noteNumber": 55,
                    "velocity": 91,
                    "lightChannels": [
                        0,
                        1,
                        2,
                        3,
                        4,
                        5,
                        6,
                        7
                    ]
                }
            },
            "outline": {
                "pinValue": 1,
                "ticks": 0,
                "event": {
                    "deltaTime": 0,
                    "type": "channel",
                    "subtype": "noteOn",
                    "channel": 6,
                    "noteNumber": 55,
                    "velocity": 91,
                    "lightChannels": [
                        0,
                        1,
                        2,
                        3,
                        4,
                        5,
                        6,
                        7
                    ]
                }
            }
        }
    },
    {
        "changes": {
            "garage": 0,
            "top-right": 0,
            "bottom-right": 0,
            "col-1": 0,
            "col-2": 0,
            "col-3": 0,
            "window": 0,
            "outline": 0
        },
        "timeout": 0.23199126250000002,
        "raw": {
            "garage": {
                "pinValue": 0,
                "ticks": 6,
                "event": {
                    "deltaTime": 6,
                    "type": "channel",
                    "subtype": "noteOff",
                    "channel": 6,
                    "noteNumber": 55,
                    "velocity": 0,
                    "lightChannels": [
                        0,
                        1,
                        2,
                        3,
                        4,
                        5,
                        6,
                        7
                    ]
                }
            },
            "top-right": {
                "pinValue": 0,
                "ticks": 6,
                "event": {
                    "deltaTime": 6,
                    "type": "channel",
                    "subtype": "noteOff",
                    "channel": 6,
                    "noteNumber": 55,
                    "velocity": 0,
                    "lightChannels": [
                        0,
                        1,
                        2,
                        3,
                        4,
                        5,
                        6,
                        7
                    ]
                }
            },
            "bottom-right": {
                "pinValue": 0,
                "ticks": 6,
                "event": {
                    "deltaTime": 6,
                    "type": "channel",
                    "subtype": "noteOff",
                    "channel": 6,
                    "noteNumber": 55,
                    "velocity": 0,
                    "lightChannels": [
                        0,
                        1,
                        2,
                        3,
                        4,
                        5,
                        6,
                        7
                    ]
                }
            },
            "col-1": {
                "pinValue": 0,
                "ticks": 6,
                "event": {
                    "deltaTime": 6,
                    "type": "channel",
                    "subtype": "noteOff",
                    "channel": 6,
                    "noteNumber": 55,
                    "velocity": 0,
                    "lightChannels": [
                        0,
                        1,
                        2,
                        3,
                        4,
                        5,
                        6,
                        7
                    ]
                }
            },
            "col-2": {
                "pinValue": 0,
                "ticks": 6,
                "event": {
                    "deltaTime": 6,
                    "type": "channel",
                    "subtype": "noteOff",
                    "channel": 6,
                    "noteNumber": 55,
                    "velocity": 0,
                    "lightChannels": [
                        0,
                        1,
                        2,
                        3,
                        4,
                        5,
                        6,
                        7
                    ]
                }
            },
            "col-3": {
                "pinValue": 0,
                "ticks": 6,
                "event": {
                    "deltaTime": 6,
                    "type": "channel",
                    "subtype": "noteOff",
                    "channel": 6,
                    "noteNumber": 55,
                    "velocity": 0,
                    "lightChannels": [
                        0,
                        1,
                        2,
                        3,
                        4,
                        5,
                        6,
                        7
                    ]
                }
            },
            "window": {
                "pinValue": 0,
                "ticks": 6,
                "event": {
                    "deltaTime": 6,
                    "type": "channel",
                    "subtype": "noteOff",
                    "channel": 6,
                    "noteNumber": 55,
                    "velocity": 0,
                    "lightChannels": [
                        0,
                        1,
                        2,
                        3,
                        4,
                        5,
                        6,
                        7
                    ]
                }
            },
            "outline": {
                "pinValue": 0,
                "ticks": 6,
                "event": {
                    "deltaTime": 6,
                    "type": "channel",
                    "subtype": "noteOff",
                    "channel": 6,
                    "noteNumber": 55,
                    "velocity": 0,
                    "lightChannels": [
                        0,
                        1,
                        2,
                        3,
                        4,
                        5,
                        6,
                        7
                    ]
                }
            }
        }
    },
    {
        "changes": {
            "garden": 1,
            "tree": 1
        },
        "timeout": 0.021186416666666662,
        "raw": {
            "garden": {
                "pinValue": 1,
                "ticks": 1,
                "event": {
                    "deltaTime": 1,
                    "type": "channel",
                    "subtype": "noteOn",
                    "channel": 6,
                    "noteNumber": 54,
                    "velocity": 87,
                    "lightChannels": [
                        8,
                        9
                    ]
                }
            },
            "tree": {
                "pinValue": 1,
                "ticks": 1,
                "event": {
                    "deltaTime": 1,
                    "type": "channel",
                    "subtype": "noteOn",
                    "channel": 6,
                    "noteNumber": 54,
                    "velocity": 87,
                    "lightChannels": [
                        8,
                        9
                    ]
                }
            }
        }
    },
    {
        "changes": {
            "garden": 0,
            "tree": 0
        },
        "timeout": 0.12182189583333332,
        "raw": {
            "garden": {
                "pinValue": 0,
                "ticks": 6,
                "event": {
                    "deltaTime": 6,
                    "type": "channel",
                    "subtype": "noteOff",
                    "channel": 6,
                    "noteNumber": 54,
                    "velocity": 0,
                    "lightChannels": [
                        8,
                        9
                    ]
                }
            },
            "tree": {
                "pinValue": 0,
                "ticks": 6,
                "event": {
                    "deltaTime": 6,
                    "type": "channel",
                    "subtype": "noteOff",
                    "channel": 6,
                    "noteNumber": 54,
                    "velocity": 0,
                    "lightChannels": [
                        8,
                        9
                    ]
                }
            }
        }
    },
    {
        "changes": {
            "window": 1,
            "outline": 1
        },
        "timeout": 0.16419472916666666,
        "raw": {
            "window": {
                "pinValue": 1,
                "ticks": 7,
                "event": {
                    "deltaTime": 7,
                    "type": "channel",
                    "subtype": "noteOn",
                    "channel": 9,
                    "noteNumber": 54,
                    "velocity": 84,
                    "lightChannels": [
                        6,
                        7
                    ]
                }
            },
            "outline": {
                "pinValue": 1,
                "ticks": 7,
                "event": {
                    "deltaTime": 7,
                    "type": "channel",
                    "subtype": "noteOn",
                    "channel": 9,
                    "noteNumber": 54,
                    "velocity": 84,
                    "lightChannels": [
                        6,
                        7
                    ]
                }
            }
        }
    },
    {
        "changes": {
            "window": 0,
            "outline": 0
        },
        "timeout": 0.06355924999999998,
        "raw": {
            "window": {
                "pinValue": 0,
                "ticks": 17,
                "event": {
                    "deltaTime": 17,
                    "type": "channel",
                    "subtype": "noteOff",
                    "channel": 9,
                    "noteNumber": 54,
                    "velocity": 0,
                    "lightChannels": [
                        6,
                        7
                    ]
                }
            },
            "outline": {
                "pinValue": 0,
                "ticks": 17,
                "event": {
                    "deltaTime": 17,
                    "type": "channel",
                    "subtype": "noteOff",
                    "channel": 9,
                    "noteNumber": 54,
                    "velocity": 0,
                    "lightChannels": [
                        6,
                        7
                    ]
                }
            }
        }
    },
    {
        "changes": {
            "garage": 1,
            "top-right": 1,
            "bottom-right": 1,
            "col-1": 1,
            "col-2": 1,
            "col-3": 1,
            "window": 1,
            "outline": 1
        },
        "timeout": 0.17160997499999997,
        "raw": {
            "garage": {
                "pinValue": 1,
                "ticks": 84,
                "event": {
                    "deltaTime": 84,
                    "type": "channel",
                    "subtype": "noteOn",
                    "channel": 6,
                    "noteNumber": 55,
                    "velocity": 90,
                    "lightChannels": [
                        0,
                        1,
                        2,
                        3,
                        4,
                        5,
                        6,
                        7
                    ]
                }
            },
            "top-right": {
                "pinValue": 1,
                "ticks": 84,
                "event": {
                    "deltaTime": 84,
                    "type": "channel",
                    "subtype": "noteOn",
                    "channel": 6,
                    "noteNumber": 55,
                    "velocity": 90,
                    "lightChannels": [
                        0,
                        1,
                        2,
                        3,
                        4,
                        5,
                        6,
                        7
                    ]
                }
            },
            "bottom-right": {
                "pinValue": 1,
                "ticks": 84,
                "event": {
                    "deltaTime": 84,
                    "type": "channel",
                    "subtype": "noteOn",
                    "channel": 6,
                    "noteNumber": 55,
                    "velocity": 90,
                    "lightChannels": [
                        0,
                        1,
                        2,
                        3,
                        4,
                        5,
                        6,
                        7
                    ]
                }
            },
            "col-1": {
                "pinValue": 1,
                "ticks": 84,
                "event": {
                    "deltaTime": 84,
                    "type": "channel",
                    "subtype": "noteOn",
                    "channel": 6,
                    "noteNumber": 55,
                    "velocity": 90,
                    "lightChannels": [
                        0,
                        1,
                        2,
                        3,
                        4,
                        5,
                        6,
                        7
                    ]
                }
            },
            "col-2": {
                "pinValue": 1,
                "ticks": 84,
                "event": {
                    "deltaTime": 84,
                    "type": "channel",
                    "subtype": "noteOn",
                    "channel": 6,
                    "noteNumber": 55,
                    "velocity": 90,
                    "lightChannels": [
                        0,
                        1,
                        2,
                        3,
                        4,
                        5,
                        6,
                        7
                    ]
                }
            },
            "col-3": {
                "pinValue": 1,
                "ticks": 84,
                "event": {
                    "deltaTime": 84,
                    "type": "channel",
                    "subtype": "noteOn",
                    "channel": 6,
                    "noteNumber": 55,
                    "velocity": 90,
                    "lightChannels": [
                        0,
                        1,
                        2,
                        3,
                        4,
                        5,
                        6,
                        7
                    ]
                }
            },
            "window": {
                "pinValue": 1,
                "ticks": 84,
                "event": {
                    "deltaTime": 84,
                    "type": "channel",
                    "subtype": "noteOn",
                    "channel": 6,
                    "noteNumber": 55,
                    "velocity": 90,
                    "lightChannels": [
                        0,
                        1,
                        2,
                        3,
                        4,
                        5,
                        6,
                        7
                    ]
                }
            },
            "outline": {
                "pinValue": 1,
                "ticks": 84,
                "event": {
                    "deltaTime": 84,
                    "type": "channel",
                    "subtype": "noteOn",
                    "channel": 6,
                    "noteNumber": 55,
                    "velocity": 90,
                    "lightChannels": [
                        0,
                        1,
                        2,
                        3,
                        4,
                        5,
                        6,
                        7
                    ]
                }
            }
        }
    },
    {
        "changes": {
            "garage": 0,
            "top-right": 0,
            "bottom-right": 0,
            "col-1": 0,
            "col-2": 0,
            "col-3": 0,
            "window": 0,
            "outline": 0
        },
        "timeout": 0.010593208333333333,
        "raw": {
            "garage": {
                "pinValue": 0,
                "ticks": 10,
                "event": {
                    "deltaTime": 10,
                    "type": "channel",
                    "subtype": "noteOff",
                    "channel": 6,
                    "noteNumber": 55,
                    "velocity": 0,
                    "lightChannels": [
                        0,
                        1,
                        2,
                        3,
                        4,
                        5,
                        6,
                        7
                    ]
                }
            },
            "top-right": {
                "pinValue": 0,
                "ticks": 10,
                "event": {
                    "deltaTime": 10,
                    "type": "channel",
                    "subtype": "noteOff",
                    "channel": 6,
                    "noteNumber": 55,
                    "velocity": 0,
                    "lightChannels": [
                        0,
                        1,
                        2,
                        3,
                        4,
                        5,
                        6,
                        7
                    ]
                }
            },
            "bottom-right": {
                "pinValue": 0,
                "ticks": 10,
                "event": {
                    "deltaTime": 10,
                    "type": "channel",
                    "subtype": "noteOff",
                    "channel": 6,
                    "noteNumber": 55,
                    "velocity": 0,
                    "lightChannels": [
                        0,
                        1,
                        2,
                        3,
                        4,
                        5,
                        6,
                        7
                    ]
                }
            },
            "col-1": {
                "pinValue": 0,
                "ticks": 10,
                "event": {
                    "deltaTime": 10,
                    "type": "channel",
                    "subtype": "noteOff",
                    "channel": 6,
                    "noteNumber": 55,
                    "velocity": 0,
                    "lightChannels": [
                        0,
                        1,
                        2,
                        3,
                        4,
                        5,
                        6,
                        7
                    ]
                }
            },
            "col-2": {
                "pinValue": 0,
                "ticks": 10,
                "event": {
                    "deltaTime": 10,
                    "type": "channel",
                    "subtype": "noteOff",
                    "channel": 6,
                    "noteNumber": 55,
                    "velocity": 0,
                    "lightChannels": [
                        0,
                        1,
                        2,
                        3,
                        4,
                        5,
                        6,
                        7
                    ]
                }
            },
            "col-3": {
                "pinValue": 0,
                "ticks": 10,
                "event": {
                    "deltaTime": 10,
                    "type": "channel",
                    "subtype": "noteOff",
                    "channel": 6,
                    "noteNumber": 55,
                    "velocity": 0,
                    "lightChannels": [
                        0,
                        1,
                        2,
                        3,
                        4,
                        5,
                        6,
                        7
                    ]
                }
            },
            "window": {
                "pinValue": 0,
                "ticks": 10,
                "event": {
                    "deltaTime": 10,
                    "type": "channel",
                    "subtype": "noteOff",
                    "channel": 6,
                    "noteNumber": 55,
                    "velocity": 0,
                    "lightChannels": [
                        0,
                        1,
                        2,
                        3,
                        4,
                        5,
                        6,
                        7
                    ]
                }
            },
            "outline": {
                "pinValue": 0,
                "ticks": 10,
                "event": {
                    "deltaTime": 10,
                    "type": "channel",
                    "subtype": "noteOff",
                    "channel": 6,
                    "noteNumber": 55,
                    "velocity": 0,
                    "lightChannels": [
                        0,
                        1,
                        2,
                        3,
                        4,
                        5,
                        6,
                        7
                    ]
                }
            }
        }
    },
    {
        "changes": {
            "window": 1,
            "outline": 1
        },
        "timeout": 0.0052966041666666665,
        "raw": {
            "window": {
                "pinValue": 1,
                "ticks": 0,
                "event": {
                    "deltaTime": 0,
                    "type": "channel",
                    "subtype": "noteOn",
                    "channel": 9,
                    "noteNumber": 54,
                    "velocity": 87,
                    "lightChannels": [
                        6,
                        7
                    ]
                }
            },
            "outline": {
                "pinValue": 1,
                "ticks": 0,
                "event": {
                    "deltaTime": 0,
                    "type": "channel",
                    "subtype": "noteOn",
                    "channel": 9,
                    "noteNumber": 54,
                    "velocity": 87,
                    "lightChannels": [
                        6,
                        7
                    ]
                }
            }
        }
    },
    {
        "changes": {
            "garage": 1,
            "top-right": 1,
            "bottom-right": 1,
            "col-1": 1,
            "col-2": 1,
            "col-3": 1,
            "window": 1,
            "outline": 1
        },
        "timeout": 0.0010593208333333332,
        "raw": {
            "garage": {
                "pinValue": 1,
                "ticks": 0,
                "event": {
                    "deltaTime": 0,
                    "type": "channel",
                    "subtype": "noteOn",
                    "channel": 6,
                    "noteNumber": 55,
                    "velocity": 86,
                    "lightChannels": [
                        0,
                        1,
                        2,
                        3,
                        4,
                        5,
                        6,
                        7
                    ]
                }
            },
            "top-right": {
                "pinValue": 1,
                "ticks": 0,
                "event": {
                    "deltaTime": 0,
                    "type": "channel",
                    "subtype": "noteOn",
                    "channel": 6,
                    "noteNumber": 55,
                    "velocity": 86,
                    "lightChannels": [
                        0,
                        1,
                        2,
                        3,
                        4,
                        5,
                        6,
                        7
                    ]
                }
            },
            "bottom-right": {
                "pinValue": 1,
                "ticks": 0,
                "event": {
                    "deltaTime": 0,
                    "type": "channel",
                    "subtype": "noteOn",
                    "channel": 6,
                    "noteNumber": 55,
                    "velocity": 86,
                    "lightChannels": [
                        0,
                        1,
                        2,
                        3,
                        4,
                        5,
                        6,
                        7
                    ]
                }
            },
            "col-1": {
                "pinValue": 1,
                "ticks": 0,
                "event": {
                    "deltaTime": 0,
                    "type": "channel",
                    "subtype": "noteOn",
                    "channel": 6,
                    "noteNumber": 55,
                    "velocity": 86,
                    "lightChannels": [
                        0,
                        1,
                        2,
                        3,
                        4,
                        5,
                        6,
                        7
                    ]
                }
            },
            "col-2": {
                "pinValue": 1,
                "ticks": 0,
                "event": {
                    "deltaTime": 0,
                    "type": "channel",
                    "subtype": "noteOn",
                    "channel": 6,
                    "noteNumber": 55,
                    "velocity": 86,
                    "lightChannels": [
                        0,
                        1,
                        2,
                        3,
                        4,
                        5,
                        6,
                        7
                    ]
                }
            },
            "col-3": {
                "pinValue": 1,
                "ticks": 0,
                "event": {
                    "deltaTime": 0,
                    "type": "channel",
                    "subtype": "noteOn",
                    "channel": 6,
                    "noteNumber": 55,
                    "velocity": 86,
                    "lightChannels": [
                        0,
                        1,
                        2,
                        3,
                        4,
                        5,
                        6,
                        7
                    ]
                }
            },
            "window": {
                "pinValue": 1,
                "ticks": 0,
                "event": {
                    "deltaTime": 0,
                    "type": "channel",
                    "subtype": "noteOn",
                    "channel": 6,
                    "noteNumber": 55,
                    "velocity": 86,
                    "lightChannels": [
                        0,
                        1,
                        2,
                        3,
                        4,
                        5,
                        6,
                        7
                    ]
                }
            },
            "outline": {
                "pinValue": 1,
                "ticks": 0,
                "event": {
                    "deltaTime": 0,
                    "type": "channel",
                    "subtype": "noteOn",
                    "channel": 6,
                    "noteNumber": 55,
                    "velocity": 86,
                    "lightChannels": [
                        0,
                        1,
                        2,
                        3,
                        4,
                        5,
                        6,
                        7
                    ]
                }
            }
        }
    },
    {
        "changes": {
            "window": 0,
            "outline": 0
        },
        "timeout": 0.07521177916666666,
        "raw": {
            "window": {
                "pinValue": 0,
                "ticks": 45,
                "event": {
                    "deltaTime": 45,
                    "type": "channel",
                    "subtype": "noteOff",
                    "channel": 9,
                    "noteNumber": 54,
                    "velocity": 0,
                    "lightChannels": [
                        6,
                        7
                    ]
                }
            },
            "outline": {
                "pinValue": 0,
                "ticks": 45,
                "event": {
                    "deltaTime": 45,
                    "type": "channel",
                    "subtype": "noteOff",
                    "channel": 9,
                    "noteNumber": 54,
                    "velocity": 0,
                    "lightChannels": [
                        6,
                        7
                    ]
                }
            }
        }
    },
    {
        "changes": {
            "garage": 0,
            "top-right": 0,
            "bottom-right": 0,
            "col-1": 0,
            "col-2": 0,
            "col-3": 0,
            "window": 0,
            "outline": 0
        },
        "timeout": 0.15572016249999998,
        "raw": {
            "garage": {
                "pinValue": 0,
                "ticks": 5,
                "event": {
                    "deltaTime": 5,
                    "type": "channel",
                    "subtype": "noteOff",
                    "channel": 6,
                    "noteNumber": 55,
                    "velocity": 0,
                    "lightChannels": [
                        0,
                        1,
                        2,
                        3,
                        4,
                        5,
                        6,
                        7
                    ]
                }
            },
            "top-right": {
                "pinValue": 0,
                "ticks": 5,
                "event": {
                    "deltaTime": 5,
                    "type": "channel",
                    "subtype": "noteOff",
                    "channel": 6,
                    "noteNumber": 55,
                    "velocity": 0,
                    "lightChannels": [
                        0,
                        1,
                        2,
                        3,
                        4,
                        5,
                        6,
                        7
                    ]
                }
            },
            "bottom-right": {
                "pinValue": 0,
                "ticks": 5,
                "event": {
                    "deltaTime": 5,
                    "type": "channel",
                    "subtype": "noteOff",
                    "channel": 6,
                    "noteNumber": 55,
                    "velocity": 0,
                    "lightChannels": [
                        0,
                        1,
                        2,
                        3,
                        4,
                        5,
                        6,
                        7
                    ]
                }
            },
            "col-1": {
                "pinValue": 0,
                "ticks": 5,
                "event": {
                    "deltaTime": 5,
                    "type": "channel",
                    "subtype": "noteOff",
                    "channel": 6,
                    "noteNumber": 55,
                    "velocity": 0,
                    "lightChannels": [
                        0,
                        1,
                        2,
                        3,
                        4,
                        5,
                        6,
                        7
                    ]
                }
            },
            "col-2": {
                "pinValue": 0,
                "ticks": 5,
                "event": {
                    "deltaTime": 5,
                    "type": "channel",
                    "subtype": "noteOff",
                    "channel": 6,
                    "noteNumber": 55,
                    "velocity": 0,
                    "lightChannels": [
                        0,
                        1,
                        2,
                        3,
                        4,
                        5,
                        6,
                        7
                    ]
                }
            },
            "col-3": {
                "pinValue": 0,
                "ticks": 5,
                "event": {
                    "deltaTime": 5,
                    "type": "channel",
                    "subtype": "noteOff",
                    "channel": 6,
                    "noteNumber": 55,
                    "velocity": 0,
                    "lightChannels": [
                        0,
                        1,
                        2,
                        3,
                        4,
                        5,
                        6,
                        7
                    ]
                }
            },
            "window": {
                "pinValue": 0,
                "ticks": 5,
                "event": {
                    "deltaTime": 5,
                    "type": "channel",
                    "subtype": "noteOff",
                    "channel": 6,
                    "noteNumber": 55,
                    "velocity": 0,
                    "lightChannels": [
                        0,
                        1,
                        2,
                        3,
                        4,
                        5,
                        6,
                        7
                    ]
                }
            },
            "outline": {
                "pinValue": 0,
                "ticks": 5,
                "event": {
                    "deltaTime": 5,
                    "type": "channel",
                    "subtype": "noteOff",
                    "channel": 6,
                    "noteNumber": 55,
                    "velocity": 0,
                    "lightChannels": [
                        0,
                        1,
                        2,
                        3,
                        4,
                        5,
                        6,
                        7
                    ]
                }
            }
        }
    },
    {
        "changes": {
            "garden": 1,
            "tree": 1
        },
        "timeout": 0.019067775,
        "raw": {
            "garden": {
                "pinValue": 1,
                "ticks": 0,
                "event": {
                    "deltaTime": 0,
                    "type": "channel",
                    "subtype": "noteOn",
                    "channel": 6,
                    "noteNumber": 54,
                    "velocity": 83,
                    "lightChannels": [
                        8,
                        9
                    ]
                }
            },
            "tree": {
                "pinValue": 1,
                "ticks": 0,
                "event": {
                    "deltaTime": 0,
                    "type": "channel",
                    "subtype": "noteOn",
                    "channel": 6,
                    "noteNumber": 54,
                    "velocity": 83,
                    "lightChannels": [
                        8,
                        9
                    ]
                }
            }
        }
    },
    {
        "changes": {
            "garden": 0,
            "tree": 0
        },
        "timeout": 0.09745751666666666,
        "raw": {
            "garden": {
                "pinValue": 0,
                "ticks": 9,
                "event": {
                    "deltaTime": 9,
                    "type": "channel",
                    "subtype": "noteOff",
                    "channel": 6,
                    "noteNumber": 54,
                    "velocity": 0,
                    "lightChannels": [
                        8,
                        9
                    ]
                }
            },
            "tree": {
                "pinValue": 0,
                "ticks": 9,
                "event": {
                    "deltaTime": 9,
                    "type": "channel",
                    "subtype": "noteOff",
                    "channel": 6,
                    "noteNumber": 54,
                    "velocity": 0,
                    "lightChannels": [
                        8,
                        9
                    ]
                }
            }
        }
    },
    {
        "changes": {
            "window": 1,
            "outline": 1
        },
        "timeout": 0.16313540833333331,
        "raw": {
            "window": {
                "pinValue": 1,
                "ticks": 117,
                "event": {
                    "deltaTime": 117,
                    "type": "channel",
                    "subtype": "noteOn",
                    "channel": 9,
                    "noteNumber": 54,
                    "velocity": 84,
                    "lightChannels": [
                        6,
                        7
                    ]
                }
            },
            "outline": {
                "pinValue": 1,
                "ticks": 117,
                "event": {
                    "deltaTime": 117,
                    "type": "channel",
                    "subtype": "noteOn",
                    "channel": 9,
                    "noteNumber": 54,
                    "velocity": 84,
                    "lightChannels": [
                        6,
                        7
                    ]
                }
            }
        }
    },
    {
        "changes": {
            "window": 0,
            "outline": 0
        },
        "timeout": 0.0667372125,
        "raw": {
            "window": {
                "pinValue": 0,
                "ticks": 43,
                "event": {
                    "deltaTime": 43,
                    "type": "channel",
                    "subtype": "noteOff",
                    "channel": 9,
                    "noteNumber": 54,
                    "velocity": 0,
                    "lightChannels": [
                        6,
                        7
                    ]
                }
            },
            "outline": {
                "pinValue": 0,
                "ticks": 43,
                "event": {
                    "deltaTime": 43,
                    "type": "channel",
                    "subtype": "noteOff",
                    "channel": 9,
                    "noteNumber": 54,
                    "velocity": 0,
                    "lightChannels": [
                        6,
                        7
                    ]
                }
            }
        }
    },
    {
        "changes": {
            "col-1": 1
        },
        "timeout": 0.16419472916666666,
        "raw": {
            "col-1": {
                "pinValue": 1,
                "ticks": 99,
                "event": {
                    "deltaTime": 99,
                    "type": "channel",
                    "subtype": "noteOn",
                    "channel": 4,
                    "noteNumber": 78,
                    "velocity": 98,
                    "lightChannels": [
                        3
                    ]
                }
            }
        }
    },
    {
        "changes": {
            "window": 1,
            "outline": 1
        },
        "timeout": 0.02966098333333333,
        "raw": {
            "window": {
                "pinValue": 1,
                "ticks": 3,
                "event": {
                    "deltaTime": 3,
                    "type": "channel",
                    "subtype": "noteOn",
                    "channel": 9,
                    "noteNumber": 54,
                    "velocity": 79,
                    "lightChannels": [
                        6,
                        7
                    ]
                }
            },
            "outline": {
                "pinValue": 1,
                "ticks": 3,
                "event": {
                    "deltaTime": 3,
                    "type": "channel",
                    "subtype": "noteOn",
                    "channel": 9,
                    "noteNumber": 54,
                    "velocity": 79,
                    "lightChannels": [
                        6,
                        7
                    ]
                }
            }
        }
    },
    {
        "changes": {
            "col-1": 0
        },
        "timeout": 0.047669437499999995,
        "raw": {
            "col-1": {
                "pinValue": 0,
                "ticks": 1,
                "event": {
                    "deltaTime": 1,
                    "type": "channel",
                    "subtype": "noteOff",
                    "channel": 4,
                    "noteNumber": 78,
                    "velocity": 0,
                    "lightChannels": [
                        3
                    ]
                }
            }
        }
    },
    {
        "changes": {
            "window": 0,
            "outline": 0
        },
        "timeout": 0.014830491666666664,
        "raw": {
            "window": {
                "pinValue": 0,
                "ticks": 14,
                "event": {
                    "deltaTime": 14,
                    "type": "channel",
                    "subtype": "noteOff",
                    "channel": 9,
                    "noteNumber": 54,
                    "velocity": 0,
                    "lightChannels": [
                        6,
                        7
                    ]
                }
            },
            "outline": {
                "pinValue": 0,
                "ticks": 14,
                "event": {
                    "deltaTime": 14,
                    "type": "channel",
                    "subtype": "noteOff",
                    "channel": 9,
                    "noteNumber": 54,
                    "velocity": 0,
                    "lightChannels": [
                        6,
                        7
                    ]
                }
            }
        }
    },
    {
        "changes": {
            "col-2": 1
        },
        "timeout": 0.0158898125,
        "raw": {
            "col-2": {
                "pinValue": 1,
                "ticks": 15,
                "event": {
                    "deltaTime": 15,
                    "type": "channel",
                    "subtype": "noteOn",
                    "channel": 4,
                    "noteNumber": 79,
                    "velocity": 98,
                    "lightChannels": [
                        4
                    ]
                }
            }
        }
    },
    {
        "changes": {
            "col-2": 0
        },
        "timeout": 0.07521177916666666,
        "raw": {
            "col-2": {
                "pinValue": 0,
                "ticks": 0,
                "event": {
                    "deltaTime": 0,
                    "type": "channel",
                    "subtype": "noteOff",
                    "channel": 4,
                    "noteNumber": 79,
                    "velocity": 0,
                    "lightChannels": [
                        4
                    ]
                }
            }
        }
    },
    {
        "changes": {
            "col-1": 1,
            "col-2": 1,
            "col-3": 1
        },
        "timeout": 0.062499929166666655,
        "raw": {
            "col-1": {
                "pinValue": 1,
                "ticks": 2,
                "event": {
                    "deltaTime": 2,
                    "type": "channel",
                    "subtype": "noteOn",
                    "channel": 4,
                    "noteNumber": 81,
                    "velocity": 108,
                    "lightChannels": [
                        3,
                        4,
                        5
                    ]
                }
            },
            "col-2": {
                "pinValue": 1,
                "ticks": 2,
                "event": {
                    "deltaTime": 2,
                    "type": "channel",
                    "subtype": "noteOn",
                    "channel": 4,
                    "noteNumber": 81,
                    "velocity": 108,
                    "lightChannels": [
                        3,
                        4,
                        5
                    ]
                }
            },
            "col-3": {
                "pinValue": 1,
                "ticks": 2,
                "event": {
                    "deltaTime": 2,
                    "type": "channel",
                    "subtype": "noteOn",
                    "channel": 4,
                    "noteNumber": 81,
                    "velocity": 108,
                    "lightChannels": [
                        3,
                        4,
                        5
                    ]
                }
            }
        }
    },
    {
        "changes": {
            "window": 1,
            "outline": 1
        },
        "timeout": 0.032838945833333334,
        "raw": {
            "window": {
                "pinValue": 1,
                "ticks": 4,
                "event": {
                    "deltaTime": 4,
                    "type": "channel",
                    "subtype": "noteOn",
                    "channel": 9,
                    "noteNumber": 54,
                    "velocity": 60,
                    "lightChannels": [
                        6,
                        7
                    ]
                }
            },
            "outline": {
                "pinValue": 1,
                "ticks": 4,
                "event": {
                    "deltaTime": 4,
                    "type": "channel",
                    "subtype": "noteOn",
                    "channel": 9,
                    "noteNumber": 54,
                    "velocity": 60,
                    "lightChannels": [
                        6,
                        7
                    ]
                }
            }
        }
    },
    {
        "changes": {
            "col-1": 0,
            "col-2": 0,
            "col-3": 0
        },
        "timeout": 0.03601690833333333,
        "raw": {
            "col-1": {
                "pinValue": 0,
                "ticks": 13,
                "event": {
                    "deltaTime": 13,
                    "type": "channel",
                    "subtype": "noteOff",
                    "channel": 4,
                    "noteNumber": 81,
                    "velocity": 0,
                    "lightChannels": [
                        3,
                        4,
                        5
                    ]
                }
            },
            "col-2": {
                "pinValue": 0,
                "ticks": 13,
                "event": {
                    "deltaTime": 13,
                    "type": "channel",
                    "subtype": "noteOff",
                    "channel": 4,
                    "noteNumber": 81,
                    "velocity": 0,
                    "lightChannels": [
                        3,
                        4,
                        5
                    ]
                }
            },
            "col-3": {
                "pinValue": 0,
                "ticks": 13,
                "event": {
                    "deltaTime": 13,
                    "type": "channel",
                    "subtype": "noteOff",
                    "channel": 4,
                    "noteNumber": 81,
                    "velocity": 0,
                    "lightChannels": [
                        3,
                        4,
                        5
                    ]
                }
            }
        }
    },
    {
        "changes": {
            "window": 0,
            "outline": 0
        },
        "timeout": 0.006355924999999999,
        "raw": {
            "window": {
                "pinValue": 0,
                "ticks": 6,
                "event": {
                    "deltaTime": 6,
                    "type": "channel",
                    "subtype": "noteOff",
                    "channel": 9,
                    "noteNumber": 54,
                    "velocity": 0,
                    "lightChannels": [
                        6,
                        7
                    ]
                }
            },
            "outline": {
                "pinValue": 0,
                "ticks": 6,
                "event": {
                    "deltaTime": 6,
                    "type": "channel",
                    "subtype": "noteOff",
                    "channel": 9,
                    "noteNumber": 54,
                    "velocity": 0,
                    "lightChannels": [
                        6,
                        7
                    ]
                }
            }
        }
    },
    {
        "changes": {
            "col-1": 1,
            "col-2": 1,
            "col-3": 1
        },
        "timeout": 0.18644046666666664,
        "raw": {
            "col-1": {
                "pinValue": 1,
                "ticks": 100,
                "event": {
                    "deltaTime": 100,
                    "type": "channel",
                    "subtype": "noteOn",
                    "channel": 4,
                    "noteNumber": 81,
                    "velocity": 116,
                    "lightChannels": [
                        3,
                        4,
                        5
                    ]
                }
            },
            "col-2": {
                "pinValue": 1,
                "ticks": 100,
                "event": {
                    "deltaTime": 100,
                    "type": "channel",
                    "subtype": "noteOn",
                    "channel": 4,
                    "noteNumber": 81,
                    "velocity": 116,
                    "lightChannels": [
                        3,
                        4,
                        5
                    ]
                }
            },
            "col-3": {
                "pinValue": 1,
                "ticks": 100,
                "event": {
                    "deltaTime": 100,
                    "type": "channel",
                    "subtype": "noteOn",
                    "channel": 4,
                    "noteNumber": 81,
                    "velocity": 116,
                    "lightChannels": [
                        3,
                        4,
                        5
                    ]
                }
            }
        }
    },
    {
        "changes": {
            "window": 1,
            "outline": 1
        },
        "timeout": 0.021186416666666666,
        "raw": {
            "window": {
                "pinValue": 1,
                "ticks": 12,
                "event": {
                    "deltaTime": 12,
                    "type": "channel",
                    "subtype": "noteOn",
                    "channel": 9,
                    "noteNumber": 54,
                    "velocity": 65,
                    "lightChannels": [
                        6,
                        7
                    ]
                }
            },
            "outline": {
                "pinValue": 1,
                "ticks": 12,
                "event": {
                    "deltaTime": 12,
                    "type": "channel",
                    "subtype": "noteOn",
                    "channel": 9,
                    "noteNumber": 54,
                    "velocity": 65,
                    "lightChannels": [
                        6,
                        7
                    ]
                }
            }
        }
    },
    {
        "changes": {
            "window": 0,
            "outline": 0
        },
        "timeout": 0.04237283333333333,
        "raw": {
            "window": {
                "pinValue": 0,
                "ticks": 33,
                "event": {
                    "deltaTime": 33,
                    "type": "channel",
                    "subtype": "noteOff",
                    "channel": 9,
                    "noteNumber": 54,
                    "velocity": 0,
                    "lightChannels": [
                        6,
                        7
                    ]
                }
            },
            "outline": {
                "pinValue": 0,
                "ticks": 33,
                "event": {
                    "deltaTime": 33,
                    "type": "channel",
                    "subtype": "noteOff",
                    "channel": 9,
                    "noteNumber": 54,
                    "velocity": 0,
                    "lightChannels": [
                        6,
                        7
                    ]
                }
            }
        }
    },
    {
        "changes": {
            "col-1": 0,
            "col-2": 0,
            "col-3": 0
        },
        "timeout": 0.01271185,
        "raw": {
            "col-1": {
                "pinValue": 0,
                "ticks": 6,
                "event": {
                    "deltaTime": 6,
                    "type": "channel",
                    "subtype": "noteOff",
                    "channel": 4,
                    "noteNumber": 81,
                    "velocity": 0,
                    "lightChannels": [
                        3,
                        4,
                        5
                    ]
                }
            },
            "col-2": {
                "pinValue": 0,
                "ticks": 6,
                "event": {
                    "deltaTime": 6,
                    "type": "channel",
                    "subtype": "noteOff",
                    "channel": 4,
                    "noteNumber": 81,
                    "velocity": 0,
                    "lightChannels": [
                        3,
                        4,
                        5
                    ]
                }
            },
            "col-3": {
                "pinValue": 0,
                "ticks": 6,
                "event": {
                    "deltaTime": 6,
                    "type": "channel",
                    "subtype": "noteOff",
                    "channel": 4,
                    "noteNumber": 81,
                    "velocity": 0,
                    "lightChannels": [
                        3,
                        4,
                        5
                    ]
                }
            }
        }
    },
    {
        "changes": {
            "col-1": 1,
            "col-2": 1,
            "col-3": 1
        },
        "timeout": 0.16101676666666667,
        "raw": {
            "col-1": {
                "pinValue": 1,
                "ticks": 134,
                "event": {
                    "deltaTime": 134,
                    "type": "channel",
                    "subtype": "noteOn",
                    "channel": 4,
                    "noteNumber": 81,
                    "velocity": 118,
                    "lightChannels": [
                        3,
                        4,
                        5
                    ]
                }
            },
            "col-2": {
                "pinValue": 1,
                "ticks": 134,
                "event": {
                    "deltaTime": 134,
                    "type": "channel",
                    "subtype": "noteOn",
                    "channel": 4,
                    "noteNumber": 81,
                    "velocity": 118,
                    "lightChannels": [
                        3,
                        4,
                        5
                    ]
                }
            },
            "col-3": {
                "pinValue": 1,
                "ticks": 134,
                "event": {
                    "deltaTime": 134,
                    "type": "channel",
                    "subtype": "noteOn",
                    "channel": 4,
                    "noteNumber": 81,
                    "velocity": 118,
                    "lightChannels": [
                        3,
                        4,
                        5
                    ]
                }
            }
        }
    },
    {
        "changes": {
            "window": 1,
            "outline": 1
        },
        "timeout": 0.0349575875,
        "raw": {
            "window": {
                "pinValue": 1,
                "ticks": 0,
                "event": {
                    "deltaTime": 0,
                    "type": "channel",
                    "subtype": "noteOn",
                    "channel": 9,
                    "noteNumber": 54,
                    "velocity": 84,
                    "lightChannels": [
                        6,
                        7
                    ]
                }
            },
            "outline": {
                "pinValue": 1,
                "ticks": 0,
                "event": {
                    "deltaTime": 0,
                    "type": "channel",
                    "subtype": "noteOn",
                    "channel": 9,
                    "noteNumber": 54,
                    "velocity": 84,
                    "lightChannels": [
                        6,
                        7
                    ]
                }
            }
        }
    },
    {
        "changes": {
            "col-1": 0,
            "col-2": 0,
            "col-3": 0
        },
        "timeout": 0.052966041666666665,
        "raw": {
            "col-1": {
                "pinValue": 0,
                "ticks": 4,
                "event": {
                    "deltaTime": 4,
                    "type": "channel",
                    "subtype": "noteOff",
                    "channel": 4,
                    "noteNumber": 81,
                    "velocity": 0,
                    "lightChannels": [
                        3,
                        4,
                        5
                    ]
                }
            },
            "col-2": {
                "pinValue": 0,
                "ticks": 4,
                "event": {
                    "deltaTime": 4,
                    "type": "channel",
                    "subtype": "noteOff",
                    "channel": 4,
                    "noteNumber": 81,
                    "velocity": 0,
                    "lightChannels": [
                        3,
                        4,
                        5
                    ]
                }
            },
            "col-3": {
                "pinValue": 0,
                "ticks": 4,
                "event": {
                    "deltaTime": 4,
                    "type": "channel",
                    "subtype": "noteOff",
                    "channel": 4,
                    "noteNumber": 81,
                    "velocity": 0,
                    "lightChannels": [
                        3,
                        4,
                        5
                    ]
                }
            }
        }
    },
    {
        "changes": {
            "window": 0,
            "outline": 0
        },
        "timeout": 0.006355924999999999,
        "raw": {
            "window": {
                "pinValue": 0,
                "ticks": 0,
                "event": {
                    "deltaTime": 0,
                    "type": "channel",
                    "subtype": "noteOff",
                    "channel": 9,
                    "noteNumber": 54,
                    "velocity": 0,
                    "lightChannels": [
                        6,
                        7
                    ]
                }
            },
            "outline": {
                "pinValue": 0,
                "ticks": 0,
                "event": {
                    "deltaTime": 0,
                    "type": "channel",
                    "subtype": "noteOff",
                    "channel": 9,
                    "noteNumber": 54,
                    "velocity": 0,
                    "lightChannels": [
                        6,
                        7
                    ]
                }
            }
        }
    },
    {
        "changes": {
            "col-1": 1,
            "col-2": 1,
            "col-3": 1
        },
        "timeout": 0.16843201249999998,
        "raw": {
            "col-1": {
                "pinValue": 1,
                "ticks": 3,
                "event": {
                    "deltaTime": 3,
                    "type": "channel",
                    "subtype": "noteOn",
                    "channel": 4,
                    "noteNumber": 81,
                    "velocity": 118,
                    "lightChannels": [
                        3,
                        4,
                        5
                    ]
                }
            },
            "col-2": {
                "pinValue": 1,
                "ticks": 3,
                "event": {
                    "deltaTime": 3,
                    "type": "channel",
                    "subtype": "noteOn",
                    "channel": 4,
                    "noteNumber": 81,
                    "velocity": 118,
                    "lightChannels": [
                        3,
                        4,
                        5
                    ]
                }
            },
            "col-3": {
                "pinValue": 1,
                "ticks": 3,
                "event": {
                    "deltaTime": 3,
                    "type": "channel",
                    "subtype": "noteOn",
                    "channel": 4,
                    "noteNumber": 81,
                    "velocity": 118,
                    "lightChannels": [
                        3,
                        4,
                        5
                    ]
                }
            }
        }
    },
    {
        "changes": {
            "window": 1,
            "outline": 1
        },
        "timeout": 0.01694913333333333,
        "raw": {
            "window": {
                "pinValue": 1,
                "ticks": 5,
                "event": {
                    "deltaTime": 5,
                    "type": "channel",
                    "subtype": "noteOn",
                    "channel": 9,
                    "noteNumber": 54,
                    "velocity": 85,
                    "lightChannels": [
                        6,
                        7
                    ]
                }
            },
            "outline": {
                "pinValue": 1,
                "ticks": 5,
                "event": {
                    "deltaTime": 5,
                    "type": "channel",
                    "subtype": "noteOn",
                    "channel": 9,
                    "noteNumber": 54,
                    "velocity": 85,
                    "lightChannels": [
                        6,
                        7
                    ]
                }
            }
        }
    },
    {
        "changes": {
            "window": 0,
            "outline": 0
        },
        "timeout": 0.05932196666666666,
        "raw": {
            "window": {
                "pinValue": 0,
                "ticks": 3,
                "event": {
                    "deltaTime": 3,
                    "type": "channel",
                    "subtype": "noteOff",
                    "channel": 9,
                    "noteNumber": 54,
                    "velocity": 0,
                    "lightChannels": [
                        6,
                        7
                    ]
                }
            },
            "outline": {
                "pinValue": 0,
                "ticks": 3,
                "event": {
                    "deltaTime": 3,
                    "type": "channel",
                    "subtype": "noteOff",
                    "channel": 9,
                    "noteNumber": 54,
                    "velocity": 0,
                    "lightChannels": [
                        6,
                        7
                    ]
                }
            }
        }
    },
    {
        "changes": {
            "col-1": 0,
            "col-2": 0,
            "col-3": 0
        },
        "timeout": 0.0031779624999999996,
        "raw": {
            "col-1": {
                "pinValue": 0,
                "ticks": 3,
                "event": {
                    "deltaTime": 3,
                    "type": "channel",
                    "subtype": "noteOff",
                    "channel": 4,
                    "noteNumber": 81,
                    "velocity": 0,
                    "lightChannels": [
                        3,
                        4,
                        5
                    ]
                }
            },
            "col-2": {
                "pinValue": 0,
                "ticks": 3,
                "event": {
                    "deltaTime": 3,
                    "type": "channel",
                    "subtype": "noteOff",
                    "channel": 4,
                    "noteNumber": 81,
                    "velocity": 0,
                    "lightChannels": [
                        3,
                        4,
                        5
                    ]
                }
            },
            "col-3": {
                "pinValue": 0,
                "ticks": 3,
                "event": {
                    "deltaTime": 3,
                    "type": "channel",
                    "subtype": "noteOff",
                    "channel": 4,
                    "noteNumber": 81,
                    "velocity": 0,
                    "lightChannels": [
                        3,
                        4,
                        5
                    ]
                }
            }
        }
    },
    {
        "changes": {
            "col-1": 1,
            "col-2": 1,
            "col-3": 1
        },
        "timeout": 0.17055065416666665,
        "raw": {
            "col-1": {
                "pinValue": 1,
                "ticks": 16,
                "event": {
                    "deltaTime": 16,
                    "type": "channel",
                    "subtype": "noteOn",
                    "channel": 4,
                    "noteNumber": 81,
                    "velocity": 126,
                    "lightChannels": [
                        3,
                        4,
                        5
                    ]
                }
            },
            "col-2": {
                "pinValue": 1,
                "ticks": 16,
                "event": {
                    "deltaTime": 16,
                    "type": "channel",
                    "subtype": "noteOn",
                    "channel": 4,
                    "noteNumber": 81,
                    "velocity": 126,
                    "lightChannels": [
                        3,
                        4,
                        5
                    ]
                }
            },
            "col-3": {
                "pinValue": 1,
                "ticks": 16,
                "event": {
                    "deltaTime": 16,
                    "type": "channel",
                    "subtype": "noteOn",
                    "channel": 4,
                    "noteNumber": 81,
                    "velocity": 126,
                    "lightChannels": [
                        3,
                        4,
                        5
                    ]
                }
            }
        }
    },
    {
        "changes": {
            "window": 1,
            "outline": 1
        },
        "timeout": 0.018008454166666667,
        "raw": {
            "window": {
                "pinValue": 1,
                "ticks": 2,
                "event": {
                    "deltaTime": 2,
                    "type": "channel",
                    "subtype": "noteOn",
                    "channel": 9,
                    "noteNumber": 54,
                    "velocity": 87,
                    "lightChannels": [
                        6,
                        7
                    ]
                }
            },
            "outline": {
                "pinValue": 1,
                "ticks": 2,
                "event": {
                    "deltaTime": 2,
                    "type": "channel",
                    "subtype": "noteOn",
                    "channel": 9,
                    "noteNumber": 54,
                    "velocity": 87,
                    "lightChannels": [
                        6,
                        7
                    ]
                }
            }
        }
    },
    {
        "changes": {
            "col-1": 0,
            "col-2": 0,
            "col-3": 0,
            "window": 0,
            "outline": 0
        },
        "timeout": 0.05826264583333332,
        "raw": {
            "col-1": {
                "pinValue": 0,
                "ticks": 14,
                "event": {
                    "deltaTime": 14,
                    "type": "channel",
                    "subtype": "noteOff",
                    "channel": 4,
                    "noteNumber": 81,
                    "velocity": 0,
                    "lightChannels": [
                        3,
                        4,
                        5
                    ]
                }
            },
            "col-2": {
                "pinValue": 0,
                "ticks": 14,
                "event": {
                    "deltaTime": 14,
                    "type": "channel",
                    "subtype": "noteOff",
                    "channel": 4,
                    "noteNumber": 81,
                    "velocity": 0,
                    "lightChannels": [
                        3,
                        4,
                        5
                    ]
                }
            },
            "col-3": {
                "pinValue": 0,
                "ticks": 14,
                "event": {
                    "deltaTime": 14,
                    "type": "channel",
                    "subtype": "noteOff",
                    "channel": 4,
                    "noteNumber": 81,
                    "velocity": 0,
                    "lightChannels": [
                        3,
                        4,
                        5
                    ]
                }
            },
            "window": {
                "pinValue": 0,
                "ticks": 0,
                "event": {
                    "deltaTime": 0,
                    "type": "channel",
                    "subtype": "noteOff",
                    "channel": 9,
                    "noteNumber": 54,
                    "velocity": 0,
                    "lightChannels": [
                        6,
                        7
                    ]
                }
            },
            "outline": {
                "pinValue": 0,
                "ticks": 0,
                "event": {
                    "deltaTime": 0,
                    "type": "channel",
                    "subtype": "noteOff",
                    "channel": 9,
                    "noteNumber": 54,
                    "velocity": 0,
                    "lightChannels": [
                        6,
                        7
                    ]
                }
            }
        }
    },
    {
        "changes": {
            "col-1": 1,
            "col-2": 1,
            "col-3": 1
        },
        "timeout": 0.17372861666666664,
        "raw": {
            "col-1": {
                "pinValue": 1,
                "ticks": 8,
                "event": {
                    "deltaTime": 8,
                    "type": "channel",
                    "subtype": "noteOn",
                    "channel": 4,
                    "noteNumber": 81,
                    "velocity": 125,
                    "lightChannels": [
                        3,
                        4,
                        5
                    ]
                }
            },
            "col-2": {
                "pinValue": 1,
                "ticks": 8,
                "event": {
                    "deltaTime": 8,
                    "type": "channel",
                    "subtype": "noteOn",
                    "channel": 4,
                    "noteNumber": 81,
                    "velocity": 125,
                    "lightChannels": [
                        3,
                        4,
                        5
                    ]
                }
            },
            "col-3": {
                "pinValue": 1,
                "ticks": 8,
                "event": {
                    "deltaTime": 8,
                    "type": "channel",
                    "subtype": "noteOn",
                    "channel": 4,
                    "noteNumber": 81,
                    "velocity": 125,
                    "lightChannels": [
                        3,
                        4,
                        5
                    ]
                }
            }
        }
    },
    {
        "changes": {
            "window": 1,
            "outline": 1
        },
        "timeout": 0.007415245833333332,
        "raw": {
            "window": {
                "pinValue": 1,
                "ticks": 1,
                "event": {
                    "deltaTime": 1,
                    "type": "channel",
                    "subtype": "noteOn",
                    "channel": 9,
                    "noteNumber": 54,
                    "velocity": 87,
                    "lightChannels": [
                        6,
                        7
                    ]
                }
            },
            "outline": {
                "pinValue": 1,
                "ticks": 1,
                "event": {
                    "deltaTime": 1,
                    "type": "channel",
                    "subtype": "noteOn",
                    "channel": 9,
                    "noteNumber": 54,
                    "velocity": 87,
                    "lightChannels": [
                        6,
                        7
                    ]
                }
            }
        }
    },
    {
        "changes": {
            "window": 0,
            "outline": 0
        },
        "timeout": 0.062499929166666655,
        "raw": {
            "window": {
                "pinValue": 0,
                "ticks": 16,
                "event": {
                    "deltaTime": 16,
                    "type": "channel",
                    "subtype": "noteOff",
                    "channel": 9,
                    "noteNumber": 54,
                    "velocity": 0,
                    "lightChannels": [
                        6,
                        7
                    ]
                }
            },
            "outline": {
                "pinValue": 0,
                "ticks": 16,
                "event": {
                    "deltaTime": 16,
                    "type": "channel",
                    "subtype": "noteOff",
                    "channel": 9,
                    "noteNumber": 54,
                    "velocity": 0,
                    "lightChannels": [
                        6,
                        7
                    ]
                }
            }
        }
    },
    {
        "changes": {
            "col-1": 0,
            "col-2": 0,
            "col-3": 0
        },
        "timeout": 0.006355924999999999,
        "raw": {
            "col-1": {
                "pinValue": 0,
                "ticks": 3,
                "event": {
                    "deltaTime": 3,
                    "type": "channel",
                    "subtype": "noteOff",
                    "channel": 4,
                    "noteNumber": 81,
                    "velocity": 0,
                    "lightChannels": [
                        3,
                        4,
                        5
                    ]
                }
            },
            "col-2": {
                "pinValue": 0,
                "ticks": 3,
                "event": {
                    "deltaTime": 3,
                    "type": "channel",
                    "subtype": "noteOff",
                    "channel": 4,
                    "noteNumber": 81,
                    "velocity": 0,
                    "lightChannels": [
                        3,
                        4,
                        5
                    ]
                }
            },
            "col-3": {
                "pinValue": 0,
                "ticks": 3,
                "event": {
                    "deltaTime": 3,
                    "type": "channel",
                    "subtype": "noteOff",
                    "channel": 4,
                    "noteNumber": 81,
                    "velocity": 0,
                    "lightChannels": [
                        3,
                        4,
                        5
                    ]
                }
            }
        }
    },
    {
        "changes": {
            "col-1": 1,
            "col-2": 1,
            "col-3": 1
        },
        "timeout": 0.171609975,
        "raw": {
            "col-1": {
                "pinValue": 1,
                "ticks": 158,
                "event": {
                    "deltaTime": 158,
                    "type": "channel",
                    "subtype": "noteOn",
                    "channel": 4,
                    "noteNumber": 81,
                    "velocity": 125,
                    "lightChannels": [
                        3,
                        4,
                        5
                    ]
                }
            },
            "col-2": {
                "pinValue": 1,
                "ticks": 158,
                "event": {
                    "deltaTime": 158,
                    "type": "channel",
                    "subtype": "noteOn",
                    "channel": 4,
                    "noteNumber": 81,
                    "velocity": 125,
                    "lightChannels": [
                        3,
                        4,
                        5
                    ]
                }
            },
            "col-3": {
                "pinValue": 1,
                "ticks": 158,
                "event": {
                    "deltaTime": 158,
                    "type": "channel",
                    "subtype": "noteOn",
                    "channel": 4,
                    "noteNumber": 81,
                    "velocity": 125,
                    "lightChannels": [
                        3,
                        4,
                        5
                    ]
                }
            }
        }
    },
    {
        "changes": {
            "window": 1,
            "outline": 1
        },
        "timeout": 0.0010593208333333332,
        "raw": {
            "window": {
                "pinValue": 1,
                "ticks": 0,
                "event": {
                    "deltaTime": 0,
                    "type": "channel",
                    "subtype": "noteOn",
                    "channel": 9,
                    "noteNumber": 54,
                    "velocity": 93,
                    "lightChannels": [
                        6,
                        7
                    ]
                }
            },
            "outline": {
                "pinValue": 1,
                "ticks": 0,
                "event": {
                    "deltaTime": 0,
                    "type": "channel",
                    "subtype": "noteOn",
                    "channel": 9,
                    "noteNumber": 54,
                    "velocity": 93,
                    "lightChannels": [
                        6,
                        7
                    ]
                }
            }
        }
    },
    {
        "changes": {
            "window": 0,
            "outline": 0
        },
        "timeout": 0.06885585416666666,
        "raw": {
            "window": {
                "pinValue": 0,
                "ticks": 1,
                "event": {
                    "deltaTime": 1,
                    "type": "channel",
                    "subtype": "noteOff",
                    "channel": 9,
                    "noteNumber": 54,
                    "velocity": 0,
                    "lightChannels": [
                        6,
                        7
                    ]
                }
            },
            "outline": {
                "pinValue": 0,
                "ticks": 1,
                "event": {
                    "deltaTime": 1,
                    "type": "channel",
                    "subtype": "noteOff",
                    "channel": 9,
                    "noteNumber": 54,
                    "velocity": 0,
                    "lightChannels": [
                        6,
                        7
                    ]
                }
            }
        }
    },
    {
        "changes": {
            "col-1": 0,
            "col-2": 0,
            "col-3": 0
        },
        "timeout": 0.007415245833333332,
        "raw": {
            "col-1": {
                "pinValue": 0,
                "ticks": 7,
                "event": {
                    "deltaTime": 7,
                    "type": "channel",
                    "subtype": "noteOff",
                    "channel": 4,
                    "noteNumber": 81,
                    "velocity": 0,
                    "lightChannels": [
                        3,
                        4,
                        5
                    ]
                }
            },
            "col-2": {
                "pinValue": 0,
                "ticks": 7,
                "event": {
                    "deltaTime": 7,
                    "type": "channel",
                    "subtype": "noteOff",
                    "channel": 4,
                    "noteNumber": 81,
                    "velocity": 0,
                    "lightChannels": [
                        3,
                        4,
                        5
                    ]
                }
            },
            "col-3": {
                "pinValue": 0,
                "ticks": 7,
                "event": {
                    "deltaTime": 7,
                    "type": "channel",
                    "subtype": "noteOff",
                    "channel": 4,
                    "noteNumber": 81,
                    "velocity": 0,
                    "lightChannels": [
                        3,
                        4,
                        5
                    ]
                }
            }
        }
    },
    {
        "changes": {
            "window": 1,
            "outline": 1
        },
        "timeout": 0.1758472583333333,
        "raw": {
            "window": {
                "pinValue": 1,
                "ticks": 2,
                "event": {
                    "deltaTime": 2,
                    "type": "channel",
                    "subtype": "noteOn",
                    "channel": 9,
                    "noteNumber": 54,
                    "velocity": 96,
                    "lightChannels": [
                        6,
                        7
                    ]
                }
            },
            "outline": {
                "pinValue": 1,
                "ticks": 2,
                "event": {
                    "deltaTime": 2,
                    "type": "channel",
                    "subtype": "noteOn",
                    "channel": 9,
                    "noteNumber": 54,
                    "velocity": 96,
                    "lightChannels": [
                        6,
                        7
                    ]
                }
            }
        }
    },
    {
        "changes": {
            "col-1": 1,
            "col-2": 1,
            "col-3": 1
        },
        "timeout": 0.008474566666666666,
        "raw": {
            "col-1": {
                "pinValue": 1,
                "ticks": 3,
                "event": {
                    "deltaTime": 3,
                    "type": "channel",
                    "subtype": "noteOn",
                    "channel": 4,
                    "noteNumber": 81,
                    "velocity": 116,
                    "lightChannels": [
                        3,
                        4,
                        5
                    ]
                }
            },
            "col-2": {
                "pinValue": 1,
                "ticks": 3,
                "event": {
                    "deltaTime": 3,
                    "type": "channel",
                    "subtype": "noteOn",
                    "channel": 4,
                    "noteNumber": 81,
                    "velocity": 116,
                    "lightChannels": [
                        3,
                        4,
                        5
                    ]
                }
            },
            "col-3": {
                "pinValue": 1,
                "ticks": 3,
                "event": {
                    "deltaTime": 3,
                    "type": "channel",
                    "subtype": "noteOn",
                    "channel": 4,
                    "noteNumber": 81,
                    "velocity": 116,
                    "lightChannels": [
                        3,
                        4,
                        5
                    ]
                }
            }
        }
    },
    {
        "changes": {
            "window": 0,
            "outline": 0
        },
        "timeout": 0.05402536249999999,
        "raw": {
            "window": {
                "pinValue": 0,
                "ticks": 10,
                "event": {
                    "deltaTime": 10,
                    "type": "channel",
                    "subtype": "noteOff",
                    "channel": 9,
                    "noteNumber": 54,
                    "velocity": 0,
                    "lightChannels": [
                        6,
                        7
                    ]
                }
            },
            "outline": {
                "pinValue": 0,
                "ticks": 10,
                "event": {
                    "deltaTime": 10,
                    "type": "channel",
                    "subtype": "noteOff",
                    "channel": 9,
                    "noteNumber": 54,
                    "velocity": 0,
                    "lightChannels": [
                        6,
                        7
                    ]
                }
            }
        }
    },
    {
        "changes": {
            "col-1": 0,
            "col-2": 0,
            "col-3": 0
        },
        "timeout": 0.041313512499999996,
        "raw": {
            "col-1": {
                "pinValue": 0,
                "ticks": 34,
                "event": {
                    "deltaTime": 34,
                    "type": "channel",
                    "subtype": "noteOff",
                    "channel": 4,
                    "noteNumber": 81,
                    "velocity": 0,
                    "lightChannels": [
                        3,
                        4,
                        5
                    ]
                }
            },
            "col-2": {
                "pinValue": 0,
                "ticks": 34,
                "event": {
                    "deltaTime": 34,
                    "type": "channel",
                    "subtype": "noteOff",
                    "channel": 4,
                    "noteNumber": 81,
                    "velocity": 0,
                    "lightChannels": [
                        3,
                        4,
                        5
                    ]
                }
            },
            "col-3": {
                "pinValue": 0,
                "ticks": 34,
                "event": {
                    "deltaTime": 34,
                    "type": "channel",
                    "subtype": "noteOff",
                    "channel": 4,
                    "noteNumber": 81,
                    "velocity": 0,
                    "lightChannels": [
                        3,
                        4,
                        5
                    ]
                }
            }
        }
    },
    {
        "changes": {
            "garage": 1,
            "top-right": 1,
            "bottom-right": 1,
            "col-1": 1,
            "col-2": 1,
            "col-3": 1,
            "window": 1,
            "outline": 1,
            "garden": 1,
            "tree": 1
        },
        "timeout": 0.15889812499999997,
        "raw": {
            "garage": {
                "pinValue": 1,
                "ticks": 0,
                "event": {
                    "deltaTime": 0,
                    "type": "channel",
                    "subtype": "noteOn",
                    "channel": 4,
                    "noteNumber": 86,
                    "velocity": 125,
                    "lightChannels": [
                        0,
                        1,
                        2,
                        3,
                        4,
                        5,
                        6,
                        7,
                        8,
                        9
                    ]
                }
            },
            "top-right": {
                "pinValue": 1,
                "ticks": 0,
                "event": {
                    "deltaTime": 0,
                    "type": "channel",
                    "subtype": "noteOn",
                    "channel": 4,
                    "noteNumber": 86,
                    "velocity": 125,
                    "lightChannels": [
                        0,
                        1,
                        2,
                        3,
                        4,
                        5,
                        6,
                        7,
                        8,
                        9
                    ]
                }
            },
            "bottom-right": {
                "pinValue": 1,
                "ticks": 0,
                "event": {
                    "deltaTime": 0,
                    "type": "channel",
                    "subtype": "noteOn",
                    "channel": 4,
                    "noteNumber": 86,
                    "velocity": 125,
                    "lightChannels": [
                        0,
                        1,
                        2,
                        3,
                        4,
                        5,
                        6,
                        7,
                        8,
                        9
                    ]
                }
            },
            "col-1": {
                "pinValue": 1,
                "ticks": 0,
                "event": {
                    "deltaTime": 0,
                    "type": "channel",
                    "subtype": "noteOn",
                    "channel": 4,
                    "noteNumber": 86,
                    "velocity": 125,
                    "lightChannels": [
                        0,
                        1,
                        2,
                        3,
                        4,
                        5,
                        6,
                        7,
                        8,
                        9
                    ]
                }
            },
            "col-2": {
                "pinValue": 1,
                "ticks": 0,
                "event": {
                    "deltaTime": 0,
                    "type": "channel",
                    "subtype": "noteOn",
                    "channel": 4,
                    "noteNumber": 86,
                    "velocity": 125,
                    "lightChannels": [
                        0,
                        1,
                        2,
                        3,
                        4,
                        5,
                        6,
                        7,
                        8,
                        9
                    ]
                }
            },
            "col-3": {
                "pinValue": 1,
                "ticks": 0,
                "event": {
                    "deltaTime": 0,
                    "type": "channel",
                    "subtype": "noteOn",
                    "channel": 4,
                    "noteNumber": 86,
                    "velocity": 125,
                    "lightChannels": [
                        0,
                        1,
                        2,
                        3,
                        4,
                        5,
                        6,
                        7,
                        8,
                        9
                    ]
                }
            },
            "window": {
                "pinValue": 1,
                "ticks": 0,
                "event": {
                    "deltaTime": 0,
                    "type": "channel",
                    "subtype": "noteOn",
                    "channel": 4,
                    "noteNumber": 86,
                    "velocity": 125,
                    "lightChannels": [
                        0,
                        1,
                        2,
                        3,
                        4,
                        5,
                        6,
                        7,
                        8,
                        9
                    ]
                }
            },
            "outline": {
                "pinValue": 1,
                "ticks": 0,
                "event": {
                    "deltaTime": 0,
                    "type": "channel",
                    "subtype": "noteOn",
                    "channel": 4,
                    "noteNumber": 86,
                    "velocity": 125,
                    "lightChannels": [
                        0,
                        1,
                        2,
                        3,
                        4,
                        5,
                        6,
                        7,
                        8,
                        9
                    ]
                }
            },
            "garden": {
                "pinValue": 1,
                "ticks": 0,
                "event": {
                    "deltaTime": 0,
                    "type": "channel",
                    "subtype": "noteOn",
                    "channel": 4,
                    "noteNumber": 86,
                    "velocity": 125,
                    "lightChannels": [
                        0,
                        1,
                        2,
                        3,
                        4,
                        5,
                        6,
                        7,
                        8,
                        9
                    ]
                }
            },
            "tree": {
                "pinValue": 1,
                "ticks": 0,
                "event": {
                    "deltaTime": 0,
                    "type": "channel",
                    "subtype": "noteOn",
                    "channel": 4,
                    "noteNumber": 86,
                    "velocity": 125,
                    "lightChannels": [
                        0,
                        1,
                        2,
                        3,
                        4,
                        5,
                        6,
                        7,
                        8,
                        9
                    ]
                }
            }
        }
    },
    {
        "changes": {
            "window": 1,
            "outline": 1
        },
        "timeout": 0.0095338875,
        "raw": {
            "window": {
                "pinValue": 1,
                "ticks": 4,
                "event": {
                    "deltaTime": 4,
                    "type": "channel",
                    "subtype": "noteOn",
                    "channel": 9,
                    "noteNumber": 54,
                    "velocity": 105,
                    "lightChannels": [
                        6,
                        7
                    ]
                }
            },
            "outline": {
                "pinValue": 1,
                "ticks": 4,
                "event": {
                    "deltaTime": 4,
                    "type": "channel",
                    "subtype": "noteOn",
                    "channel": 9,
                    "noteNumber": 54,
                    "velocity": 105,
                    "lightChannels": [
                        6,
                        7
                    ]
                }
            }
        }
    },
    {
        "changes": {
            "window": 0,
            "outline": 0
        },
        "timeout": 0.07627109999999998,
        "raw": {
            "window": {
                "pinValue": 0,
                "ticks": 5,
                "event": {
                    "deltaTime": 5,
                    "type": "channel",
                    "subtype": "noteOff",
                    "channel": 9,
                    "noteNumber": 54,
                    "velocity": 0,
                    "lightChannels": [
                        6,
                        7
                    ]
                }
            },
            "outline": {
                "pinValue": 0,
                "ticks": 5,
                "event": {
                    "deltaTime": 5,
                    "type": "channel",
                    "subtype": "noteOff",
                    "channel": 9,
                    "noteNumber": 54,
                    "velocity": 0,
                    "lightChannels": [
                        6,
                        7
                    ]
                }
            }
        }
    },
    {
        "changes": {
            "garage": 0,
            "top-right": 0,
            "bottom-right": 0,
            "col-1": 0,
            "col-2": 0,
            "col-3": 0,
            "window": 0,
            "outline": 0,
            "garden": 0,
            "tree": 0
        },
        "timeout": 0.036016908333333326,
        "raw": {
            "garage": {
                "pinValue": 0,
                "ticks": 0,
                "event": {
                    "deltaTime": 0,
                    "type": "channel",
                    "subtype": "noteOff",
                    "channel": 4,
                    "noteNumber": 83,
                    "velocity": 0,
                    "lightChannels": [
                        0,
                        1,
                        2,
                        3,
                        4,
                        5,
                        6,
                        7,
                        8,
                        9
                    ]
                }
            },
            "top-right": {
                "pinValue": 0,
                "ticks": 0,
                "event": {
                    "deltaTime": 0,
                    "type": "channel",
                    "subtype": "noteOff",
                    "channel": 4,
                    "noteNumber": 83,
                    "velocity": 0,
                    "lightChannels": [
                        0,
                        1,
                        2,
                        3,
                        4,
                        5,
                        6,
                        7,
                        8,
                        9
                    ]
                }
            },
            "bottom-right": {
                "pinValue": 0,
                "ticks": 0,
                "event": {
                    "deltaTime": 0,
                    "type": "channel",
                    "subtype": "noteOff",
                    "channel": 4,
                    "noteNumber": 83,
                    "velocity": 0,
                    "lightChannels": [
                        0,
                        1,
                        2,
                        3,
                        4,
                        5,
                        6,
                        7,
                        8,
                        9
                    ]
                }
            },
            "col-1": {
                "pinValue": 0,
                "ticks": 0,
                "event": {
                    "deltaTime": 0,
                    "type": "channel",
                    "subtype": "noteOff",
                    "channel": 4,
                    "noteNumber": 83,
                    "velocity": 0,
                    "lightChannels": [
                        0,
                        1,
                        2,
                        3,
                        4,
                        5,
                        6,
                        7,
                        8,
                        9
                    ]
                }
            },
            "col-2": {
                "pinValue": 0,
                "ticks": 0,
                "event": {
                    "deltaTime": 0,
                    "type": "channel",
                    "subtype": "noteOff",
                    "channel": 4,
                    "noteNumber": 83,
                    "velocity": 0,
                    "lightChannels": [
                        0,
                        1,
                        2,
                        3,
                        4,
                        5,
                        6,
                        7,
                        8,
                        9
                    ]
                }
            },
            "col-3": {
                "pinValue": 0,
                "ticks": 0,
                "event": {
                    "deltaTime": 0,
                    "type": "channel",
                    "subtype": "noteOff",
                    "channel": 4,
                    "noteNumber": 83,
                    "velocity": 0,
                    "lightChannels": [
                        0,
                        1,
                        2,
                        3,
                        4,
                        5,
                        6,
                        7,
                        8,
                        9
                    ]
                }
            },
            "window": {
                "pinValue": 0,
                "ticks": 0,
                "event": {
                    "deltaTime": 0,
                    "type": "channel",
                    "subtype": "noteOff",
                    "channel": 4,
                    "noteNumber": 83,
                    "velocity": 0,
                    "lightChannels": [
                        0,
                        1,
                        2,
                        3,
                        4,
                        5,
                        6,
                        7,
                        8,
                        9
                    ]
                }
            },
            "outline": {
                "pinValue": 0,
                "ticks": 0,
                "event": {
                    "deltaTime": 0,
                    "type": "channel",
                    "subtype": "noteOff",
                    "channel": 4,
                    "noteNumber": 83,
                    "velocity": 0,
                    "lightChannels": [
                        0,
                        1,
                        2,
                        3,
                        4,
                        5,
                        6,
                        7,
                        8,
                        9
                    ]
                }
            },
            "garden": {
                "pinValue": 0,
                "ticks": 0,
                "event": {
                    "deltaTime": 0,
                    "type": "channel",
                    "subtype": "noteOff",
                    "channel": 4,
                    "noteNumber": 83,
                    "velocity": 0,
                    "lightChannels": [
                        0,
                        1,
                        2,
                        3,
                        4,
                        5,
                        6,
                        7,
                        8,
                        9
                    ]
                }
            },
            "tree": {
                "pinValue": 0,
                "ticks": 0,
                "event": {
                    "deltaTime": 0,
                    "type": "channel",
                    "subtype": "noteOff",
                    "channel": 4,
                    "noteNumber": 83,
                    "velocity": 0,
                    "lightChannels": [
                        0,
                        1,
                        2,
                        3,
                        4,
                        5,
                        6,
                        7,
                        8,
                        9
                    ]
                }
            }
        }
    },
    {
        "changes": {
            "garage": 0,
            "top-right": 0,
            "bottom-right": 0,
            "col-1": 0,
            "col-2": 0,
            "col-3": 0,
            "window": 0,
            "outline": 0,
            "garden": 0,
            "tree": 0
        },
        "timeout": 0.014830491666666664,
        "raw": {
            "garage": {
                "pinValue": 0,
                "ticks": 3,
                "event": {
                    "deltaTime": 3,
                    "type": "channel",
                    "subtype": "noteOff",
                    "channel": 4,
                    "noteNumber": 86,
                    "velocity": 0,
                    "lightChannels": [
                        0,
                        1,
                        2,
                        3,
                        4,
                        5,
                        6,
                        7,
                        8,
                        9
                    ]
                }
            },
            "top-right": {
                "pinValue": 0,
                "ticks": 3,
                "event": {
                    "deltaTime": 3,
                    "type": "channel",
                    "subtype": "noteOff",
                    "channel": 4,
                    "noteNumber": 86,
                    "velocity": 0,
                    "lightChannels": [
                        0,
                        1,
                        2,
                        3,
                        4,
                        5,
                        6,
                        7,
                        8,
                        9
                    ]
                }
            },
            "bottom-right": {
                "pinValue": 0,
                "ticks": 3,
                "event": {
                    "deltaTime": 3,
                    "type": "channel",
                    "subtype": "noteOff",
                    "channel": 4,
                    "noteNumber": 86,
                    "velocity": 0,
                    "lightChannels": [
                        0,
                        1,
                        2,
                        3,
                        4,
                        5,
                        6,
                        7,
                        8,
                        9
                    ]
                }
            },
            "col-1": {
                "pinValue": 0,
                "ticks": 3,
                "event": {
                    "deltaTime": 3,
                    "type": "channel",
                    "subtype": "noteOff",
                    "channel": 4,
                    "noteNumber": 86,
                    "velocity": 0,
                    "lightChannels": [
                        0,
                        1,
                        2,
                        3,
                        4,
                        5,
                        6,
                        7,
                        8,
                        9
                    ]
                }
            },
            "col-2": {
                "pinValue": 0,
                "ticks": 3,
                "event": {
                    "deltaTime": 3,
                    "type": "channel",
                    "subtype": "noteOff",
                    "channel": 4,
                    "noteNumber": 86,
                    "velocity": 0,
                    "lightChannels": [
                        0,
                        1,
                        2,
                        3,
                        4,
                        5,
                        6,
                        7,
                        8,
                        9
                    ]
                }
            },
            "col-3": {
                "pinValue": 0,
                "ticks": 3,
                "event": {
                    "deltaTime": 3,
                    "type": "channel",
                    "subtype": "noteOff",
                    "channel": 4,
                    "noteNumber": 86,
                    "velocity": 0,
                    "lightChannels": [
                        0,
                        1,
                        2,
                        3,
                        4,
                        5,
                        6,
                        7,
                        8,
                        9
                    ]
                }
            },
            "window": {
                "pinValue": 0,
                "ticks": 3,
                "event": {
                    "deltaTime": 3,
                    "type": "channel",
                    "subtype": "noteOff",
                    "channel": 4,
                    "noteNumber": 86,
                    "velocity": 0,
                    "lightChannels": [
                        0,
                        1,
                        2,
                        3,
                        4,
                        5,
                        6,
                        7,
                        8,
                        9
                    ]
                }
            },
            "outline": {
                "pinValue": 0,
                "ticks": 3,
                "event": {
                    "deltaTime": 3,
                    "type": "channel",
                    "subtype": "noteOff",
                    "channel": 4,
                    "noteNumber": 86,
                    "velocity": 0,
                    "lightChannels": [
                        0,
                        1,
                        2,
                        3,
                        4,
                        5,
                        6,
                        7,
                        8,
                        9
                    ]
                }
            },
            "garden": {
                "pinValue": 0,
                "ticks": 3,
                "event": {
                    "deltaTime": 3,
                    "type": "channel",
                    "subtype": "noteOff",
                    "channel": 4,
                    "noteNumber": 86,
                    "velocity": 0,
                    "lightChannels": [
                        0,
                        1,
                        2,
                        3,
                        4,
                        5,
                        6,
                        7,
                        8,
                        9
                    ]
                }
            },
            "tree": {
                "pinValue": 0,
                "ticks": 3,
                "event": {
                    "deltaTime": 3,
                    "type": "channel",
                    "subtype": "noteOff",
                    "channel": 4,
                    "noteNumber": 86,
                    "velocity": 0,
                    "lightChannels": [
                        0,
                        1,
                        2,
                        3,
                        4,
                        5,
                        6,
                        7,
                        8,
                        9
                    ]
                }
            }
        }
    },
    {
        "changes": {
            "window": 1,
            "outline": 1
        },
        "timeout": 0.6536009541666666,
        "raw": {
            "window": {
                "pinValue": 1,
                "ticks": 1,
                "event": {
                    "deltaTime": 1,
                    "type": "channel",
                    "subtype": "noteOn",
                    "channel": 9,
                    "noteNumber": 54,
                    "velocity": 83,
                    "lightChannels": [
                        6,
                        7
                    ]
                }
            },
            "outline": {
                "pinValue": 1,
                "ticks": 1,
                "event": {
                    "deltaTime": 1,
                    "type": "channel",
                    "subtype": "noteOn",
                    "channel": 9,
                    "noteNumber": 54,
                    "velocity": 83,
                    "lightChannels": [
                        6,
                        7
                    ]
                }
            }
        }
    },
    {
        "changes": {
            "garden": 1
        },
        "timeout": 0.006355924999999999,
        "raw": {
            "garden": {
                "pinValue": 1,
                "ticks": 6,
                "event": {
                    "deltaTime": 6,
                    "type": "channel",
                    "subtype": "noteOn",
                    "channel": 4,
                    "noteNumber": 79,
                    "velocity": 123,
                    "lightChannels": [
                        8
                    ]
                }
            }
        }
    },
    {
        "changes": {
            "window": 0,
            "outline": 0
        },
        "timeout": 0.0540253625,
        "raw": {
            "window": {
                "pinValue": 0,
                "ticks": 10,
                "event": {
                    "deltaTime": 10,
                    "type": "channel",
                    "subtype": "noteOff",
                    "channel": 9,
                    "noteNumber": 54,
                    "velocity": 0,
                    "lightChannels": [
                        6,
                        7
                    ]
                }
            },
            "outline": {
                "pinValue": 0,
                "ticks": 10,
                "event": {
                    "deltaTime": 10,
                    "type": "channel",
                    "subtype": "noteOff",
                    "channel": 9,
                    "noteNumber": 54,
                    "velocity": 0,
                    "lightChannels": [
                        6,
                        7
                    ]
                }
            }
        }
    },
    {
        "changes": {
            "garden": 0
        },
        "timeout": 0.1747879375,
        "raw": {
            "garden": {
                "pinValue": 0,
                "ticks": 6,
                "event": {
                    "deltaTime": 6,
                    "type": "channel",
                    "subtype": "noteOff",
                    "channel": 4,
                    "noteNumber": 79,
                    "velocity": 0,
                    "lightChannels": [
                        8
                    ]
                }
            }
        }
    },
    {
        "changes": {
            "window": 1,
            "outline": 1
        },
        "timeout": 0.0158898125,
        "raw": {
            "window": {
                "pinValue": 1,
                "ticks": 13,
                "event": {
                    "deltaTime": 13,
                    "type": "channel",
                    "subtype": "noteOn",
                    "channel": 9,
                    "noteNumber": 54,
                    "velocity": 84,
                    "lightChannels": [
                        6,
                        7
                    ]
                }
            },
            "outline": {
                "pinValue": 1,
                "ticks": 13,
                "event": {
                    "deltaTime": 13,
                    "type": "channel",
                    "subtype": "noteOn",
                    "channel": 9,
                    "noteNumber": 54,
                    "velocity": 84,
                    "lightChannels": [
                        6,
                        7
                    ]
                }
            }
        }
    },
    {
        "changes": {
            "tree": 1
        },
        "timeout": 0.010593208333333333,
        "raw": {
            "tree": {
                "pinValue": 1,
                "ticks": 10,
                "event": {
                    "deltaTime": 10,
                    "type": "channel",
                    "subtype": "noteOn",
                    "channel": 4,
                    "noteNumber": 78,
                    "velocity": 106,
                    "lightChannels": [
                        9
                    ]
                }
            }
        }
    },
    {
        "changes": {
            "window": 0,
            "outline": 0
        },
        "timeout": 0.04555079583333333,
        "raw": {
            "window": {
                "pinValue": 0,
                "ticks": 32,
                "event": {
                    "deltaTime": 32,
                    "type": "channel",
                    "subtype": "noteOff",
                    "channel": 9,
                    "noteNumber": 54,
                    "velocity": 0,
                    "lightChannels": [
                        6,
                        7
                    ]
                }
            },
            "outline": {
                "pinValue": 0,
                "ticks": 32,
                "event": {
                    "deltaTime": 32,
                    "type": "channel",
                    "subtype": "noteOff",
                    "channel": 9,
                    "noteNumber": 54,
                    "velocity": 0,
                    "lightChannels": [
                        6,
                        7
                    ]
                }
            }
        }
    },
    {
        "changes": {
            "window": 1,
            "outline": 1
        },
        "timeout": 0.19703367499999996,
        "raw": {
            "window": {
                "pinValue": 1,
                "ticks": 0,
                "event": {
                    "deltaTime": 0,
                    "type": "channel",
                    "subtype": "noteOn",
                    "channel": 9,
                    "noteNumber": 54,
                    "velocity": 83,
                    "lightChannels": [
                        6,
                        7
                    ]
                }
            },
            "outline": {
                "pinValue": 1,
                "ticks": 0,
                "event": {
                    "deltaTime": 0,
                    "type": "channel",
                    "subtype": "noteOn",
                    "channel": 9,
                    "noteNumber": 54,
                    "velocity": 83,
                    "lightChannels": [
                        6,
                        7
                    ]
                }
            }
        }
    },
    {
        "changes": {
            "window": 0,
            "outline": 0
        },
        "timeout": 0.06461857083333332,
        "raw": {
            "window": {
                "pinValue": 0,
                "ticks": 61,
                "event": {
                    "deltaTime": 61,
                    "type": "channel",
                    "subtype": "noteOff",
                    "channel": 9,
                    "noteNumber": 54,
                    "velocity": 0,
                    "lightChannels": [
                        6,
                        7
                    ]
                }
            },
            "outline": {
                "pinValue": 0,
                "ticks": 61,
                "event": {
                    "deltaTime": 61,
                    "type": "channel",
                    "subtype": "noteOff",
                    "channel": 9,
                    "noteNumber": 54,
                    "velocity": 0,
                    "lightChannels": [
                        6,
                        7
                    ]
                }
            }
        }
    },
    {
        "changes": {
            "tree": 0
        },
        "timeout": 0.14512695416666666,
        "raw": {
            "tree": {
                "pinValue": 0,
                "ticks": 82,
                "event": {
                    "deltaTime": 82,
                    "type": "channel",
                    "subtype": "noteOff",
                    "channel": 4,
                    "noteNumber": 78,
                    "velocity": 0,
                    "lightChannels": [
                        9
                    ]
                }
            }
        }
    },
    {
        "changes": {
            "window": 1,
            "outline": 1
        },
        "timeout": 0.04449147499999999,
        "raw": {
            "window": {
                "pinValue": 1,
                "ticks": 27,
                "event": {
                    "deltaTime": 27,
                    "type": "channel",
                    "subtype": "noteOn",
                    "channel": 9,
                    "noteNumber": 54,
                    "velocity": 81,
                    "lightChannels": [
                        6,
                        7
                    ]
                }
            },
            "outline": {
                "pinValue": 1,
                "ticks": 27,
                "event": {
                    "deltaTime": 27,
                    "type": "channel",
                    "subtype": "noteOn",
                    "channel": 9,
                    "noteNumber": 54,
                    "velocity": 81,
                    "lightChannels": [
                        6,
                        7
                    ]
                }
            }
        }
    },
    {
        "changes": {
            "window": 0,
            "outline": 0
        },
        "timeout": 0.062499929166666655,
        "raw": {
            "window": {
                "pinValue": 0,
                "ticks": 47,
                "event": {
                    "deltaTime": 47,
                    "type": "channel",
                    "subtype": "noteOff",
                    "channel": 9,
                    "noteNumber": 54,
                    "velocity": 0,
                    "lightChannels": [
                        6,
                        7
                    ]
                }
            },
            "outline": {
                "pinValue": 0,
                "ticks": 47,
                "event": {
                    "deltaTime": 47,
                    "type": "channel",
                    "subtype": "noteOff",
                    "channel": 9,
                    "noteNumber": 54,
                    "velocity": 0,
                    "lightChannels": [
                        6,
                        7
                    ]
                }
            }
        }
    },
    {
        "changes": {
            "window": 1,
            "outline": 1
        },
        "timeout": 0.1917370708333333,
        "raw": {
            "window": {
                "pinValue": 1,
                "ticks": 0,
                "event": {
                    "deltaTime": 0,
                    "type": "channel",
                    "subtype": "noteOn",
                    "channel": 9,
                    "noteNumber": 54,
                    "velocity": 84,
                    "lightChannels": [
                        6,
                        7
                    ]
                }
            },
            "outline": {
                "pinValue": 1,
                "ticks": 0,
                "event": {
                    "deltaTime": 0,
                    "type": "channel",
                    "subtype": "noteOn",
                    "channel": 9,
                    "noteNumber": 54,
                    "velocity": 84,
                    "lightChannels": [
                        6,
                        7
                    ]
                }
            }
        }
    },
    {
        "changes": {
            "col-1": 1
        },
        "timeout": 0.008474566666666666,
        "raw": {
            "col-1": {
                "pinValue": 1,
                "ticks": 8,
                "event": {
                    "deltaTime": 8,
                    "type": "channel",
                    "subtype": "noteOn",
                    "channel": 4,
                    "noteNumber": 74,
                    "velocity": 118,
                    "lightChannels": [
                        3
                    ]
                }
            }
        }
    },
    {
        "changes": {
            "window": 0,
            "outline": 0
        },
        "timeout": 0.05402536249999999,
        "raw": {
            "window": {
                "pinValue": 0,
                "ticks": 6,
                "event": {
                    "deltaTime": 6,
                    "type": "channel",
                    "subtype": "noteOff",
                    "channel": 9,
                    "noteNumber": 54,
                    "velocity": 0,
                    "lightChannels": [
                        6,
                        7
                    ]
                }
            },
            "outline": {
                "pinValue": 0,
                "ticks": 6,
                "event": {
                    "deltaTime": 6,
                    "type": "channel",
                    "subtype": "noteOff",
                    "channel": 9,
                    "noteNumber": 54,
                    "velocity": 0,
                    "lightChannels": [
                        6,
                        7
                    ]
                }
            }
        }
    },
    {
        "changes": {
            "col-1": 0
        },
        "timeout": 0.0095338875,
        "raw": {
            "col-1": {
                "pinValue": 0,
                "ticks": 6,
                "event": {
                    "deltaTime": 6,
                    "type": "channel",
                    "subtype": "noteOff",
                    "channel": 4,
                    "noteNumber": 74,
                    "velocity": 0,
                    "lightChannels": [
                        3
                    ]
                }
            }
        }
    },
    {
        "changes": {
            "col-2": 1
        },
        "timeout": 0.049788079166666666,
        "raw": {
            "col-2": {
                "pinValue": 1,
                "ticks": 5,
                "event": {
                    "deltaTime": 5,
                    "type": "channel",
                    "subtype": "noteOn",
                    "channel": 4,
                    "noteNumber": 76,
                    "velocity": 109,
                    "lightChannels": [
                        4
                    ]
                }
            }
        }
    },
    {
        "changes": {
            "col-2": 0
        },
        "timeout": 0.06885585416666666,
        "raw": {
            "col-2": {
                "pinValue": 0,
                "ticks": 14,
                "event": {
                    "deltaTime": 14,
                    "type": "channel",
                    "subtype": "noteOff",
                    "channel": 4,
                    "noteNumber": 76,
                    "velocity": 0,
                    "lightChannels": [
                        4
                    ]
                }
            }
        }
    },
    {
        "changes": {
            "col-1": 1,
            "col-2": 1,
            "col-3": 1
        },
        "timeout": 0.05402536249999999,
        "raw": {
            "col-1": {
                "pinValue": 1,
                "ticks": 0,
                "event": {
                    "deltaTime": 0,
                    "type": "channel",
                    "subtype": "noteOn",
                    "channel": 4,
                    "noteNumber": 78,
                    "velocity": 105,
                    "lightChannels": [
                        3,
                        4,
                        5
                    ]
                }
            },
            "col-2": {
                "pinValue": 1,
                "ticks": 0,
                "event": {
                    "deltaTime": 0,
                    "type": "channel",
                    "subtype": "noteOn",
                    "channel": 4,
                    "noteNumber": 78,
                    "velocity": 105,
                    "lightChannels": [
                        3,
                        4,
                        5
                    ]
                }
            },
            "col-3": {
                "pinValue": 1,
                "ticks": 0,
                "event": {
                    "deltaTime": 0,
                    "type": "channel",
                    "subtype": "noteOn",
                    "channel": 4,
                    "noteNumber": 78,
                    "velocity": 105,
                    "lightChannels": [
                        3,
                        4,
                        5
                    ]
                }
            }
        }
    },
    {
        "changes": {
            "window": 1,
            "outline": 1
        },
        "timeout": 0.01694913333333333,
        "raw": {
            "window": {
                "pinValue": 1,
                "ticks": 7,
                "event": {
                    "deltaTime": 7,
                    "type": "channel",
                    "subtype": "noteOn",
                    "channel": 9,
                    "noteNumber": 54,
                    "velocity": 83,
                    "lightChannels": [
                        6,
                        7
                    ]
                }
            },
            "outline": {
                "pinValue": 1,
                "ticks": 7,
                "event": {
                    "deltaTime": 7,
                    "type": "channel",
                    "subtype": "noteOn",
                    "channel": 9,
                    "noteNumber": 54,
                    "velocity": 83,
                    "lightChannels": [
                        6,
                        7
                    ]
                }
            }
        }
    },
    {
        "changes": {
            "col-1": 0,
            "col-2": 0,
            "col-3": 0
        },
        "timeout": 0.056144004166666664,
        "raw": {
            "col-1": {
                "pinValue": 0,
                "ticks": 8,
                "event": {
                    "deltaTime": 8,
                    "type": "channel",
                    "subtype": "noteOff",
                    "channel": 4,
                    "noteNumber": 78,
                    "velocity": 0,
                    "lightChannels": [
                        3,
                        4,
                        5
                    ]
                }
            },
            "col-2": {
                "pinValue": 0,
                "ticks": 8,
                "event": {
                    "deltaTime": 8,
                    "type": "channel",
                    "subtype": "noteOff",
                    "channel": 4,
                    "noteNumber": 78,
                    "velocity": 0,
                    "lightChannels": [
                        3,
                        4,
                        5
                    ]
                }
            },
            "col-3": {
                "pinValue": 0,
                "ticks": 8,
                "event": {
                    "deltaTime": 8,
                    "type": "channel",
                    "subtype": "noteOff",
                    "channel": 4,
                    "noteNumber": 78,
                    "velocity": 0,
                    "lightChannels": [
                        3,
                        4,
                        5
                    ]
                }
            }
        }
    },
    {
        "changes": {
            "window": 0,
            "outline": 0
        },
        "timeout": 0.004237283333333333,
        "raw": {
            "window": {
                "pinValue": 0,
                "ticks": 3,
                "event": {
                    "deltaTime": 3,
                    "type": "channel",
                    "subtype": "noteOff",
                    "channel": 9,
                    "noteNumber": 54,
                    "velocity": 0,
                    "lightChannels": [
                        6,
                        7
                    ]
                }
            },
            "outline": {
                "pinValue": 0,
                "ticks": 3,
                "event": {
                    "deltaTime": 3,
                    "type": "channel",
                    "subtype": "noteOff",
                    "channel": 9,
                    "noteNumber": 54,
                    "velocity": 0,
                    "lightChannels": [
                        6,
                        7
                    ]
                }
            }
        }
    },
    {
        "changes": {
            "col-1": 1,
            "col-2": 1,
            "col-3": 1
        },
        "timeout": 0.19067774999999995,
        "raw": {
            "col-1": {
                "pinValue": 1,
                "ticks": 1,
                "event": {
                    "deltaTime": 1,
                    "type": "channel",
                    "subtype": "noteOn",
                    "channel": 4,
                    "noteNumber": 78,
                    "velocity": 105,
                    "lightChannels": [
                        3,
                        4,
                        5
                    ]
                }
            },
            "col-2": {
                "pinValue": 1,
                "ticks": 1,
                "event": {
                    "deltaTime": 1,
                    "type": "channel",
                    "subtype": "noteOn",
                    "channel": 4,
                    "noteNumber": 78,
                    "velocity": 105,
                    "lightChannels": [
                        3,
                        4,
                        5
                    ]
                }
            },
            "col-3": {
                "pinValue": 1,
                "ticks": 1,
                "event": {
                    "deltaTime": 1,
                    "type": "channel",
                    "subtype": "noteOn",
                    "channel": 4,
                    "noteNumber": 78,
                    "velocity": 105,
                    "lightChannels": [
                        3,
                        4,
                        5
                    ]
                }
            }
        }
    },
    {
        "changes": {
            "window": 1,
            "outline": 1
        },
        "timeout": 0.011652529166666665,
        "raw": {
            "window": {
                "pinValue": 1,
                "ticks": 8,
                "event": {
                    "deltaTime": 8,
                    "type": "channel",
                    "subtype": "noteOn",
                    "channel": 9,
                    "noteNumber": 54,
                    "velocity": 68,
                    "lightChannels": [
                        6,
                        7
                    ]
                }
            },
            "outline": {
                "pinValue": 1,
                "ticks": 8,
                "event": {
                    "deltaTime": 8,
                    "type": "channel",
                    "subtype": "noteOn",
                    "channel": 9,
                    "noteNumber": 54,
                    "velocity": 68,
                    "lightChannels": [
                        6,
                        7
                    ]
                }
            }
        }
    },
    {
        "changes": {
            "window": 0,
            "outline": 0
        },
        "timeout": 0.04978807916666666,
        "raw": {
            "window": {
                "pinValue": 0,
                "ticks": 3,
                "event": {
                    "deltaTime": 3,
                    "type": "channel",
                    "subtype": "noteOff",
                    "channel": 9,
                    "noteNumber": 54,
                    "velocity": 0,
                    "lightChannels": [
                        6,
                        7
                    ]
                }
            },
            "outline": {
                "pinValue": 0,
                "ticks": 3,
                "event": {
                    "deltaTime": 3,
                    "type": "channel",
                    "subtype": "noteOff",
                    "channel": 9,
                    "noteNumber": 54,
                    "velocity": 0,
                    "lightChannels": [
                        6,
                        7
                    ]
                }
            }
        }
    },
    {
        "changes": {
            "col-1": 0,
            "col-2": 0,
            "col-3": 0
        },
        "timeout": 0.0031779624999999996,
        "raw": {
            "col-1": {
                "pinValue": 0,
                "ticks": 2,
                "event": {
                    "deltaTime": 2,
                    "type": "channel",
                    "subtype": "noteOff",
                    "channel": 4,
                    "noteNumber": 78,
                    "velocity": 0,
                    "lightChannels": [
                        3,
                        4,
                        5
                    ]
                }
            },
            "col-2": {
                "pinValue": 0,
                "ticks": 2,
                "event": {
                    "deltaTime": 2,
                    "type": "channel",
                    "subtype": "noteOff",
                    "channel": 4,
                    "noteNumber": 78,
                    "velocity": 0,
                    "lightChannels": [
                        3,
                        4,
                        5
                    ]
                }
            },
            "col-3": {
                "pinValue": 0,
                "ticks": 2,
                "event": {
                    "deltaTime": 2,
                    "type": "channel",
                    "subtype": "noteOff",
                    "channel": 4,
                    "noteNumber": 78,
                    "velocity": 0,
                    "lightChannels": [
                        3,
                        4,
                        5
                    ]
                }
            }
        }
    },
    {
        "changes": {
            "col-1": 1,
            "col-2": 1,
            "col-3": 1
        },
        "timeout": 0.1822031833333333,
        "raw": {
            "col-1": {
                "pinValue": 1,
                "ticks": 1,
                "event": {
                    "deltaTime": 1,
                    "type": "channel",
                    "subtype": "noteOn",
                    "channel": 4,
                    "noteNumber": 78,
                    "velocity": 108,
                    "lightChannels": [
                        3,
                        4,
                        5
                    ]
                }
            },
            "col-2": {
                "pinValue": 1,
                "ticks": 1,
                "event": {
                    "deltaTime": 1,
                    "type": "channel",
                    "subtype": "noteOn",
                    "channel": 4,
                    "noteNumber": 78,
                    "velocity": 108,
                    "lightChannels": [
                        3,
                        4,
                        5
                    ]
                }
            },
            "col-3": {
                "pinValue": 1,
                "ticks": 1,
                "event": {
                    "deltaTime": 1,
                    "type": "channel",
                    "subtype": "noteOn",
                    "channel": 4,
                    "noteNumber": 78,
                    "velocity": 108,
                    "lightChannels": [
                        3,
                        4,
                        5
                    ]
                }
            }
        }
    },
    {
        "changes": {
            "window": 1,
            "outline": 1
        },
        "timeout": 0.011652529166666665,
        "raw": {
            "window": {
                "pinValue": 1,
                "ticks": 3,
                "event": {
                    "deltaTime": 3,
                    "type": "channel",
                    "subtype": "noteOn",
                    "channel": 9,
                    "noteNumber": 54,
                    "velocity": 77,
                    "lightChannels": [
                        6,
                        7
                    ]
                }
            },
            "outline": {
                "pinValue": 1,
                "ticks": 3,
                "event": {
                    "deltaTime": 3,
                    "type": "channel",
                    "subtype": "noteOn",
                    "channel": 9,
                    "noteNumber": 54,
                    "velocity": 77,
                    "lightChannels": [
                        6,
                        7
                    ]
                }
            }
        }
    },
    {
        "changes": {
            "window": 0,
            "outline": 0
        },
        "timeout": 0.057203324999999985,
        "raw": {
            "window": {
                "pinValue": 0,
                "ticks": 4,
                "event": {
                    "deltaTime": 4,
                    "type": "channel",
                    "subtype": "noteOff",
                    "channel": 9,
                    "noteNumber": 54,
                    "velocity": 0,
                    "lightChannels": [
                        6,
                        7
                    ]
                }
            },
            "outline": {
                "pinValue": 0,
                "ticks": 4,
                "event": {
                    "deltaTime": 4,
                    "type": "channel",
                    "subtype": "noteOff",
                    "channel": 9,
                    "noteNumber": 54,
                    "velocity": 0,
                    "lightChannels": [
                        6,
                        7
                    ]
                }
            }
        }
    },
    {
        "changes": {
            "col-1": 0,
            "col-2": 0,
            "col-3": 0
        },
        "timeout": 0.007415245833333332,
        "raw": {
            "col-1": {
                "pinValue": 0,
                "ticks": 6,
                "event": {
                    "deltaTime": 6,
                    "type": "channel",
                    "subtype": "noteOff",
                    "channel": 4,
                    "noteNumber": 78,
                    "velocity": 0,
                    "lightChannels": [
                        3,
                        4,
                        5
                    ]
                }
            },
            "col-2": {
                "pinValue": 0,
                "ticks": 6,
                "event": {
                    "deltaTime": 6,
                    "type": "channel",
                    "subtype": "noteOff",
                    "channel": 4,
                    "noteNumber": 78,
                    "velocity": 0,
                    "lightChannels": [
                        3,
                        4,
                        5
                    ]
                }
            },
            "col-3": {
                "pinValue": 0,
                "ticks": 6,
                "event": {
                    "deltaTime": 6,
                    "type": "channel",
                    "subtype": "noteOff",
                    "channel": 4,
                    "noteNumber": 78,
                    "velocity": 0,
                    "lightChannels": [
                        3,
                        4,
                        5
                    ]
                }
            }
        }
    },
    {
        "changes": {
            "col-1": 1,
            "col-2": 1,
            "col-3": 1
        },
        "timeout": 0.17690657916666663,
        "raw": {
            "col-1": {
                "pinValue": 1,
                "ticks": 3,
                "event": {
                    "deltaTime": 3,
                    "type": "channel",
                    "subtype": "noteOn",
                    "channel": 4,
                    "noteNumber": 78,
                    "velocity": 108,
                    "lightChannels": [
                        3,
                        4,
                        5
                    ]
                }
            },
            "col-2": {
                "pinValue": 1,
                "ticks": 3,
                "event": {
                    "deltaTime": 3,
                    "type": "channel",
                    "subtype": "noteOn",
                    "channel": 4,
                    "noteNumber": 78,
                    "velocity": 108,
                    "lightChannels": [
                        3,
                        4,
                        5
                    ]
                }
            },
            "col-3": {
                "pinValue": 1,
                "ticks": 3,
                "event": {
                    "deltaTime": 3,
                    "type": "channel",
                    "subtype": "noteOn",
                    "channel": 4,
                    "noteNumber": 78,
                    "velocity": 108,
                    "lightChannels": [
                        3,
                        4,
                        5
                    ]
                }
            }
        }
    },
    {
        "changes": {
            "window": 1,
            "outline": 1
        },
        "timeout": 0.0052966041666666665,
        "raw": {
            "window": {
                "pinValue": 1,
                "ticks": 3,
                "event": {
                    "deltaTime": 3,
                    "type": "channel",
                    "subtype": "noteOn",
                    "channel": 9,
                    "noteNumber": 54,
                    "velocity": 88,
                    "lightChannels": [
                        6,
                        7
                    ]
                }
            },
            "outline": {
                "pinValue": 1,
                "ticks": 3,
                "event": {
                    "deltaTime": 3,
                    "type": "channel",
                    "subtype": "noteOn",
                    "channel": 9,
                    "noteNumber": 54,
                    "velocity": 88,
                    "lightChannels": [
                        6,
                        7
                    ]
                }
            }
        }
    },
    {
        "changes": {
            "window": 0,
            "outline": 0
        },
        "timeout": 0.05826264583333333,
        "raw": {
            "window": {
                "pinValue": 0,
                "ticks": 3,
                "event": {
                    "deltaTime": 3,
                    "type": "channel",
                    "subtype": "noteOff",
                    "channel": 9,
                    "noteNumber": 54,
                    "velocity": 0,
                    "lightChannels": [
                        6,
                        7
                    ]
                }
            },
            "outline": {
                "pinValue": 0,
                "ticks": 3,
                "event": {
                    "deltaTime": 3,
                    "type": "channel",
                    "subtype": "noteOff",
                    "channel": 9,
                    "noteNumber": 54,
                    "velocity": 0,
                    "lightChannels": [
                        6,
                        7
                    ]
                }
            }
        }
    },
    {
        "changes": {
            "col-1": 0,
            "col-2": 0,
            "col-3": 0
        },
        "timeout": 0.018008454166666667,
        "raw": {
            "col-1": {
                "pinValue": 0,
                "ticks": 3,
                "event": {
                    "deltaTime": 3,
                    "type": "channel",
                    "subtype": "noteOff",
                    "channel": 4,
                    "noteNumber": 78,
                    "velocity": 0,
                    "lightChannels": [
                        3,
                        4,
                        5
                    ]
                }
            },
            "col-2": {
                "pinValue": 0,
                "ticks": 3,
                "event": {
                    "deltaTime": 3,
                    "type": "channel",
                    "subtype": "noteOff",
                    "channel": 4,
                    "noteNumber": 78,
                    "velocity": 0,
                    "lightChannels": [
                        3,
                        4,
                        5
                    ]
                }
            },
            "col-3": {
                "pinValue": 0,
                "ticks": 3,
                "event": {
                    "deltaTime": 3,
                    "type": "channel",
                    "subtype": "noteOff",
                    "channel": 4,
                    "noteNumber": 78,
                    "velocity": 0,
                    "lightChannels": [
                        3,
                        4,
                        5
                    ]
                }
            }
        }
    },
    {
        "changes": {
            "window": 1,
            "outline": 1
        },
        "timeout": 0.17796589999999995,
        "raw": {
            "window": {
                "pinValue": 1,
                "ticks": 3,
                "event": {
                    "deltaTime": 3,
                    "type": "channel",
                    "subtype": "noteOn",
                    "channel": 9,
                    "noteNumber": 54,
                    "velocity": 101,
                    "lightChannels": [
                        6,
                        7
                    ]
                }
            },
            "outline": {
                "pinValue": 1,
                "ticks": 3,
                "event": {
                    "deltaTime": 3,
                    "type": "channel",
                    "subtype": "noteOn",
                    "channel": 9,
                    "noteNumber": 54,
                    "velocity": 101,
                    "lightChannels": [
                        6,
                        7
                    ]
                }
            }
        }
    },
    {
        "changes": {
            "col-1": 1,
            "col-2": 1,
            "col-3": 1
        },
        "timeout": 0.0031779624999999996,
        "raw": {
            "col-1": {
                "pinValue": 1,
                "ticks": 3,
                "event": {
                    "deltaTime": 3,
                    "type": "channel",
                    "subtype": "noteOn",
                    "channel": 4,
                    "noteNumber": 78,
                    "velocity": 114,
                    "lightChannels": [
                        3,
                        4,
                        5
                    ]
                }
            },
            "col-2": {
                "pinValue": 1,
                "ticks": 3,
                "event": {
                    "deltaTime": 3,
                    "type": "channel",
                    "subtype": "noteOn",
                    "channel": 4,
                    "noteNumber": 78,
                    "velocity": 114,
                    "lightChannels": [
                        3,
                        4,
                        5
                    ]
                }
            },
            "col-3": {
                "pinValue": 1,
                "ticks": 3,
                "event": {
                    "deltaTime": 3,
                    "type": "channel",
                    "subtype": "noteOn",
                    "channel": 4,
                    "noteNumber": 78,
                    "velocity": 114,
                    "lightChannels": [
                        3,
                        4,
                        5
                    ]
                }
            }
        }
    },
    {
        "changes": {
            "window": 0,
            "outline": 0
        },
        "timeout": 0.06355924999999998,
        "raw": {
            "window": {
                "pinValue": 0,
                "ticks": 5,
                "event": {
                    "deltaTime": 5,
                    "type": "channel",
                    "subtype": "noteOff",
                    "channel": 9,
                    "noteNumber": 54,
                    "velocity": 0,
                    "lightChannels": [
                        6,
                        7
                    ]
                }
            },
            "outline": {
                "pinValue": 0,
                "ticks": 5,
                "event": {
                    "deltaTime": 5,
                    "type": "channel",
                    "subtype": "noteOff",
                    "channel": 9,
                    "noteNumber": 54,
                    "velocity": 0,
                    "lightChannels": [
                        6,
                        7
                    ]
                }
            }
        }
    },
    {
        "changes": {
            "col-1": 0,
            "col-2": 0,
            "col-3": 0
        },
        "timeout": 0.022245737499999998,
        "raw": {
            "col-1": {
                "pinValue": 0,
                "ticks": 18,
                "event": {
                    "deltaTime": 18,
                    "type": "channel",
                    "subtype": "noteOff",
                    "channel": 4,
                    "noteNumber": 78,
                    "velocity": 0,
                    "lightChannels": [
                        3,
                        4,
                        5
                    ]
                }
            },
            "col-2": {
                "pinValue": 0,
                "ticks": 18,
                "event": {
                    "deltaTime": 18,
                    "type": "channel",
                    "subtype": "noteOff",
                    "channel": 4,
                    "noteNumber": 78,
                    "velocity": 0,
                    "lightChannels": [
                        3,
                        4,
                        5
                    ]
                }
            },
            "col-3": {
                "pinValue": 0,
                "ticks": 18,
                "event": {
                    "deltaTime": 18,
                    "type": "channel",
                    "subtype": "noteOff",
                    "channel": 4,
                    "noteNumber": 78,
                    "velocity": 0,
                    "lightChannels": [
                        3,
                        4,
                        5
                    ]
                }
            }
        }
    },
    {
        "changes": {
            "col-1": 1,
            "col-2": 1,
            "col-3": 1
        },
        "timeout": 0.1493642375,
        "raw": {
            "col-1": {
                "pinValue": 1,
                "ticks": 6,
                "event": {
                    "deltaTime": 6,
                    "type": "channel",
                    "subtype": "noteOn",
                    "channel": 4,
                    "noteNumber": 78,
                    "velocity": 99,
                    "lightChannels": [
                        3,
                        4,
                        5
                    ]
                }
            },
            "col-2": {
                "pinValue": 1,
                "ticks": 6,
                "event": {
                    "deltaTime": 6,
                    "type": "channel",
                    "subtype": "noteOn",
                    "channel": 4,
                    "noteNumber": 78,
                    "velocity": 99,
                    "lightChannels": [
                        3,
                        4,
                        5
                    ]
                }
            },
            "col-3": {
                "pinValue": 1,
                "ticks": 6,
                "event": {
                    "deltaTime": 6,
                    "type": "channel",
                    "subtype": "noteOn",
                    "channel": 4,
                    "noteNumber": 78,
                    "velocity": 99,
                    "lightChannels": [
                        3,
                        4,
                        5
                    ]
                }
            }
        }
    },
    {
        "changes": {
            "window": 1,
            "outline": 1
        },
        "timeout": 0.004237283333333333,
        "raw": {
            "window": {
                "pinValue": 1,
                "ticks": 4,
                "event": {
                    "deltaTime": 4,
                    "type": "channel",
                    "subtype": "noteOn",
                    "channel": 9,
                    "noteNumber": 54,
                    "velocity": 96,
                    "lightChannels": [
                        6,
                        7
                    ]
                }
            },
            "outline": {
                "pinValue": 1,
                "ticks": 4,
                "event": {
                    "deltaTime": 4,
                    "type": "channel",
                    "subtype": "noteOn",
                    "channel": 9,
                    "noteNumber": 54,
                    "velocity": 96,
                    "lightChannels": [
                        6,
                        7
                    ]
                }
            }
        }
    },
    {
        "changes": {
            "window": 0,
            "outline": 0
        },
        "timeout": 0.06461857083333333,
        "raw": {
            "window": {
                "pinValue": 0,
                "ticks": 5,
                "event": {
                    "deltaTime": 5,
                    "type": "channel",
                    "subtype": "noteOff",
                    "channel": 9,
                    "noteNumber": 54,
                    "velocity": 0,
                    "lightChannels": [
                        6,
                        7
                    ]
                }
            },
            "outline": {
                "pinValue": 0,
                "ticks": 5,
                "event": {
                    "deltaTime": 5,
                    "type": "channel",
                    "subtype": "noteOff",
                    "channel": 9,
                    "noteNumber": 54,
                    "velocity": 0,
                    "lightChannels": [
                        6,
                        7
                    ]
                }
            }
        }
    },
    {
        "changes": {
            "col-1": 0,
            "col-2": 0,
            "col-3": 0
        },
        "timeout": 0.018008454166666667,
        "raw": {
            "col-1": {
                "pinValue": 0,
                "ticks": 6,
                "event": {
                    "deltaTime": 6,
                    "type": "channel",
                    "subtype": "noteOff",
                    "channel": 4,
                    "noteNumber": 78,
                    "velocity": 0,
                    "lightChannels": [
                        3,
                        4,
                        5
                    ]
                }
            },
            "col-2": {
                "pinValue": 0,
                "ticks": 6,
                "event": {
                    "deltaTime": 6,
                    "type": "channel",
                    "subtype": "noteOff",
                    "channel": 4,
                    "noteNumber": 78,
                    "velocity": 0,
                    "lightChannels": [
                        3,
                        4,
                        5
                    ]
                }
            },
            "col-3": {
                "pinValue": 0,
                "ticks": 6,
                "event": {
                    "deltaTime": 6,
                    "type": "channel",
                    "subtype": "noteOff",
                    "channel": 4,
                    "noteNumber": 78,
                    "velocity": 0,
                    "lightChannels": [
                        3,
                        4,
                        5
                    ]
                }
            }
        }
    },
    {
        "changes": {
            "col-1": 1,
            "col-2": 1,
            "col-3": 1
        },
        "timeout": 0.16313540833333331,
        "raw": {
            "col-1": {
                "pinValue": 1,
                "ticks": 0,
                "event": {
                    "deltaTime": 0,
                    "type": "channel",
                    "subtype": "noteOn",
                    "channel": 4,
                    "noteNumber": 78,
                    "velocity": 108,
                    "lightChannels": [
                        3,
                        4,
                        5
                    ]
                }
            },
            "col-2": {
                "pinValue": 1,
                "ticks": 0,
                "event": {
                    "deltaTime": 0,
                    "type": "channel",
                    "subtype": "noteOn",
                    "channel": 4,
                    "noteNumber": 78,
                    "velocity": 108,
                    "lightChannels": [
                        3,
                        4,
                        5
                    ]
                }
            },
            "col-3": {
                "pinValue": 1,
                "ticks": 0,
                "event": {
                    "deltaTime": 0,
                    "type": "channel",
                    "subtype": "noteOn",
                    "channel": 4,
                    "noteNumber": 78,
                    "velocity": 108,
                    "lightChannels": [
                        3,
                        4,
                        5
                    ]
                }
            }
        }
    },
    {
        "changes": {
            "window": 1,
            "outline": 1
        },
        "timeout": 0.0010593208333333332,
        "raw": {
            "window": {
                "pinValue": 1,
                "ticks": 0,
                "event": {
                    "deltaTime": 0,
                    "type": "channel",
                    "subtype": "noteOn",
                    "channel": 9,
                    "noteNumber": 54,
                    "velocity": 91,
                    "lightChannels": [
                        6,
                        7
                    ]
                }
            },
            "outline": {
                "pinValue": 1,
                "ticks": 0,
                "event": {
                    "deltaTime": 0,
                    "type": "channel",
                    "subtype": "noteOn",
                    "channel": 9,
                    "noteNumber": 54,
                    "velocity": 91,
                    "lightChannels": [
                        6,
                        7
                    ]
                }
            }
        }
    },
    {
        "changes": {
            "window": 0,
            "outline": 0
        },
        "timeout": 0.0667372125,
        "raw": {
            "window": {
                "pinValue": 0,
                "ticks": 0,
                "event": {
                    "deltaTime": 0,
                    "type": "channel",
                    "subtype": "noteOff",
                    "channel": 9,
                    "noteNumber": 54,
                    "velocity": 0,
                    "lightChannels": [
                        6,
                        7
                    ]
                }
            },
            "outline": {
                "pinValue": 0,
                "ticks": 0,
                "event": {
                    "deltaTime": 0,
                    "type": "channel",
                    "subtype": "noteOff",
                    "channel": 9,
                    "noteNumber": 54,
                    "velocity": 0,
                    "lightChannels": [
                        6,
                        7
                    ]
                }
            }
        }
    },
    {
        "changes": {
            "col-1": 0,
            "col-2": 0,
            "col-3": 0
        },
        "timeout": 0.021186416666666666,
        "raw": {
            "col-1": {
                "pinValue": 0,
                "ticks": 10,
                "event": {
                    "deltaTime": 10,
                    "type": "channel",
                    "subtype": "noteOff",
                    "channel": 4,
                    "noteNumber": 78,
                    "velocity": 0,
                    "lightChannels": [
                        3,
                        4,
                        5
                    ]
                }
            },
            "col-2": {
                "pinValue": 0,
                "ticks": 10,
                "event": {
                    "deltaTime": 10,
                    "type": "channel",
                    "subtype": "noteOff",
                    "channel": 4,
                    "noteNumber": 78,
                    "velocity": 0,
                    "lightChannels": [
                        3,
                        4,
                        5
                    ]
                }
            },
            "col-3": {
                "pinValue": 0,
                "ticks": 10,
                "event": {
                    "deltaTime": 10,
                    "type": "channel",
                    "subtype": "noteOff",
                    "channel": 4,
                    "noteNumber": 78,
                    "velocity": 0,
                    "lightChannels": [
                        3,
                        4,
                        5
                    ]
                }
            }
        }
    },
    {
        "changes": {
            "window": 1,
            "outline": 1
        },
        "timeout": 0.15466084166666666,
        "raw": {
            "window": {
                "pinValue": 1,
                "ticks": 4,
                "event": {
                    "deltaTime": 4,
                    "type": "channel",
                    "subtype": "noteOn",
                    "channel": 9,
                    "noteNumber": 54,
                    "velocity": 99,
                    "lightChannels": [
                        6,
                        7
                    ]
                }
            },
            "outline": {
                "pinValue": 1,
                "ticks": 4,
                "event": {
                    "deltaTime": 4,
                    "type": "channel",
                    "subtype": "noteOn",
                    "channel": 9,
                    "noteNumber": 54,
                    "velocity": 99,
                    "lightChannels": [
                        6,
                        7
                    ]
                }
            }
        }
    },
    {
        "changes": {
            "col-1": 1,
            "col-2": 1,
            "col-3": 1
        },
        "timeout": 0.006355924999999999,
        "raw": {
            "col-1": {
                "pinValue": 1,
                "ticks": 2,
                "event": {
                    "deltaTime": 2,
                    "type": "channel",
                    "subtype": "noteOn",
                    "channel": 4,
                    "noteNumber": 78,
                    "velocity": 108,
                    "lightChannels": [
                        3,
                        4,
                        5
                    ]
                }
            },
            "col-2": {
                "pinValue": 1,
                "ticks": 2,
                "event": {
                    "deltaTime": 2,
                    "type": "channel",
                    "subtype": "noteOn",
                    "channel": 4,
                    "noteNumber": 78,
                    "velocity": 108,
                    "lightChannels": [
                        3,
                        4,
                        5
                    ]
                }
            },
            "col-3": {
                "pinValue": 1,
                "ticks": 2,
                "event": {
                    "deltaTime": 2,
                    "type": "channel",
                    "subtype": "noteOn",
                    "channel": 4,
                    "noteNumber": 78,
                    "velocity": 108,
                    "lightChannels": [
                        3,
                        4,
                        5
                    ]
                }
            }
        }
    },
    {
        "changes": {
            "window": 0,
            "outline": 0
        },
        "timeout": 0.06355925,
        "raw": {
            "window": {
                "pinValue": 0,
                "ticks": 48,
                "event": {
                    "deltaTime": 48,
                    "type": "channel",
                    "subtype": "noteOff",
                    "channel": 9,
                    "noteNumber": 54,
                    "velocity": 0,
                    "lightChannels": [
                        6,
                        7
                    ]
                }
            },
            "outline": {
                "pinValue": 0,
                "ticks": 48,
                "event": {
                    "deltaTime": 48,
                    "type": "channel",
                    "subtype": "noteOff",
                    "channel": 9,
                    "noteNumber": 54,
                    "velocity": 0,
                    "lightChannels": [
                        6,
                        7
                    ]
                }
            }
        }
    },
    {
        "changes": {
            "col-1": 0,
            "col-2": 0,
            "col-3": 0
        },
        "timeout": 0.022245737499999998,
        "raw": {
            "col-1": {
                "pinValue": 0,
                "ticks": 6,
                "event": {
                    "deltaTime": 6,
                    "type": "channel",
                    "subtype": "noteOff",
                    "channel": 4,
                    "noteNumber": 78,
                    "velocity": 0,
                    "lightChannels": [
                        3,
                        4,
                        5
                    ]
                }
            },
            "col-2": {
                "pinValue": 0,
                "ticks": 6,
                "event": {
                    "deltaTime": 6,
                    "type": "channel",
                    "subtype": "noteOff",
                    "channel": 4,
                    "noteNumber": 78,
                    "velocity": 0,
                    "lightChannels": [
                        3,
                        4,
                        5
                    ]
                }
            },
            "col-3": {
                "pinValue": 0,
                "ticks": 6,
                "event": {
                    "deltaTime": 6,
                    "type": "channel",
                    "subtype": "noteOff",
                    "channel": 4,
                    "noteNumber": 78,
                    "velocity": 0,
                    "lightChannels": [
                        3,
                        4,
                        5
                    ]
                }
            }
        }
    },
    {
        "changes": {
            "garage": 1,
            "top-right": 1,
            "bottom-right": 1,
            "col-1": 1,
            "col-2": 1,
            "col-3": 1,
            "window": 1,
            "outline": 1,
            "garden": 1,
            "tree": 1
        },
        "timeout": 0.15995744583333332,
        "raw": {
            "garage": {
                "pinValue": 1,
                "ticks": 145,
                "event": {
                    "deltaTime": 145,
                    "type": "channel",
                    "subtype": "noteOn",
                    "channel": 4,
                    "noteNumber": 83,
                    "velocity": 115,
                    "lightChannels": [
                        0,
                        1,
                        2,
                        3,
                        4,
                        5,
                        6,
                        7,
                        8,
                        9
                    ]
                }
            },
            "top-right": {
                "pinValue": 1,
                "ticks": 145,
                "event": {
                    "deltaTime": 145,
                    "type": "channel",
                    "subtype": "noteOn",
                    "channel": 4,
                    "noteNumber": 83,
                    "velocity": 115,
                    "lightChannels": [
                        0,
                        1,
                        2,
                        3,
                        4,
                        5,
                        6,
                        7,
                        8,
                        9
                    ]
                }
            },
            "bottom-right": {
                "pinValue": 1,
                "ticks": 145,
                "event": {
                    "deltaTime": 145,
                    "type": "channel",
                    "subtype": "noteOn",
                    "channel": 4,
                    "noteNumber": 83,
                    "velocity": 115,
                    "lightChannels": [
                        0,
                        1,
                        2,
                        3,
                        4,
                        5,
                        6,
                        7,
                        8,
                        9
                    ]
                }
            },
            "col-1": {
                "pinValue": 1,
                "ticks": 145,
                "event": {
                    "deltaTime": 145,
                    "type": "channel",
                    "subtype": "noteOn",
                    "channel": 4,
                    "noteNumber": 83,
                    "velocity": 115,
                    "lightChannels": [
                        0,
                        1,
                        2,
                        3,
                        4,
                        5,
                        6,
                        7,
                        8,
                        9
                    ]
                }
            },
            "col-2": {
                "pinValue": 1,
                "ticks": 145,
                "event": {
                    "deltaTime": 145,
                    "type": "channel",
                    "subtype": "noteOn",
                    "channel": 4,
                    "noteNumber": 83,
                    "velocity": 115,
                    "lightChannels": [
                        0,
                        1,
                        2,
                        3,
                        4,
                        5,
                        6,
                        7,
                        8,
                        9
                    ]
                }
            },
            "col-3": {
                "pinValue": 1,
                "ticks": 145,
                "event": {
                    "deltaTime": 145,
                    "type": "channel",
                    "subtype": "noteOn",
                    "channel": 4,
                    "noteNumber": 83,
                    "velocity": 115,
                    "lightChannels": [
                        0,
                        1,
                        2,
                        3,
                        4,
                        5,
                        6,
                        7,
                        8,
                        9
                    ]
                }
            },
            "window": {
                "pinValue": 1,
                "ticks": 145,
                "event": {
                    "deltaTime": 145,
                    "type": "channel",
                    "subtype": "noteOn",
                    "channel": 4,
                    "noteNumber": 83,
                    "velocity": 115,
                    "lightChannels": [
                        0,
                        1,
                        2,
                        3,
                        4,
                        5,
                        6,
                        7,
                        8,
                        9
                    ]
                }
            },
            "outline": {
                "pinValue": 1,
                "ticks": 145,
                "event": {
                    "deltaTime": 145,
                    "type": "channel",
                    "subtype": "noteOn",
                    "channel": 4,
                    "noteNumber": 83,
                    "velocity": 115,
                    "lightChannels": [
                        0,
                        1,
                        2,
                        3,
                        4,
                        5,
                        6,
                        7,
                        8,
                        9
                    ]
                }
            },
            "garden": {
                "pinValue": 1,
                "ticks": 145,
                "event": {
                    "deltaTime": 145,
                    "type": "channel",
                    "subtype": "noteOn",
                    "channel": 4,
                    "noteNumber": 83,
                    "velocity": 115,
                    "lightChannels": [
                        0,
                        1,
                        2,
                        3,
                        4,
                        5,
                        6,
                        7,
                        8,
                        9
                    ]
                }
            },
            "tree": {
                "pinValue": 1,
                "ticks": 145,
                "event": {
                    "deltaTime": 145,
                    "type": "channel",
                    "subtype": "noteOn",
                    "channel": 4,
                    "noteNumber": 83,
                    "velocity": 115,
                    "lightChannels": [
                        0,
                        1,
                        2,
                        3,
                        4,
                        5,
                        6,
                        7,
                        8,
                        9
                    ]
                }
            }
        }
    },
    {
        "changes": {
            "garage": 1,
            "top-right": 1,
            "bottom-right": 1,
            "col-1": 1,
            "col-2": 1,
            "col-3": 1,
            "window": 1,
            "outline": 1,
            "garden": 1,
            "tree": 1
        },
        "timeout": 0.008474566666666666,
        "raw": {
            "garage": {
                "pinValue": 1,
                "ticks": 3,
                "event": {
                    "deltaTime": 3,
                    "type": "channel",
                    "subtype": "noteOn",
                    "channel": 4,
                    "noteNumber": 78,
                    "velocity": 118,
                    "lightChannels": [
                        0,
                        1,
                        2,
                        3,
                        4,
                        5,
                        6,
                        7,
                        8,
                        9
                    ]
                }
            },
            "top-right": {
                "pinValue": 1,
                "ticks": 3,
                "event": {
                    "deltaTime": 3,
                    "type": "channel",
                    "subtype": "noteOn",
                    "channel": 4,
                    "noteNumber": 78,
                    "velocity": 118,
                    "lightChannels": [
                        0,
                        1,
                        2,
                        3,
                        4,
                        5,
                        6,
                        7,
                        8,
                        9
                    ]
                }
            },
            "bottom-right": {
                "pinValue": 1,
                "ticks": 3,
                "event": {
                    "deltaTime": 3,
                    "type": "channel",
                    "subtype": "noteOn",
                    "channel": 4,
                    "noteNumber": 78,
                    "velocity": 118,
                    "lightChannels": [
                        0,
                        1,
                        2,
                        3,
                        4,
                        5,
                        6,
                        7,
                        8,
                        9
                    ]
                }
            },
            "col-1": {
                "pinValue": 1,
                "ticks": 3,
                "event": {
                    "deltaTime": 3,
                    "type": "channel",
                    "subtype": "noteOn",
                    "channel": 4,
                    "noteNumber": 78,
                    "velocity": 118,
                    "lightChannels": [
                        0,
                        1,
                        2,
                        3,
                        4,
                        5,
                        6,
                        7,
                        8,
                        9
                    ]
                }
            },
            "col-2": {
                "pinValue": 1,
                "ticks": 3,
                "event": {
                    "deltaTime": 3,
                    "type": "channel",
                    "subtype": "noteOn",
                    "channel": 4,
                    "noteNumber": 78,
                    "velocity": 118,
                    "lightChannels": [
                        0,
                        1,
                        2,
                        3,
                        4,
                        5,
                        6,
                        7,
                        8,
                        9
                    ]
                }
            },
            "col-3": {
                "pinValue": 1,
                "ticks": 3,
                "event": {
                    "deltaTime": 3,
                    "type": "channel",
                    "subtype": "noteOn",
                    "channel": 4,
                    "noteNumber": 78,
                    "velocity": 118,
                    "lightChannels": [
                        0,
                        1,
                        2,
                        3,
                        4,
                        5,
                        6,
                        7,
                        8,
                        9
                    ]
                }
            },
            "window": {
                "pinValue": 1,
                "ticks": 3,
                "event": {
                    "deltaTime": 3,
                    "type": "channel",
                    "subtype": "noteOn",
                    "channel": 4,
                    "noteNumber": 78,
                    "velocity": 118,
                    "lightChannels": [
                        0,
                        1,
                        2,
                        3,
                        4,
                        5,
                        6,
                        7,
                        8,
                        9
                    ]
                }
            },
            "outline": {
                "pinValue": 1,
                "ticks": 3,
                "event": {
                    "deltaTime": 3,
                    "type": "channel",
                    "subtype": "noteOn",
                    "channel": 4,
                    "noteNumber": 78,
                    "velocity": 118,
                    "lightChannels": [
                        0,
                        1,
                        2,
                        3,
                        4,
                        5,
                        6,
                        7,
                        8,
                        9
                    ]
                }
            },
            "garden": {
                "pinValue": 1,
                "ticks": 3,
                "event": {
                    "deltaTime": 3,
                    "type": "channel",
                    "subtype": "noteOn",
                    "channel": 4,
                    "noteNumber": 78,
                    "velocity": 118,
                    "lightChannels": [
                        0,
                        1,
                        2,
                        3,
                        4,
                        5,
                        6,
                        7,
                        8,
                        9
                    ]
                }
            },
            "tree": {
                "pinValue": 1,
                "ticks": 3,
                "event": {
                    "deltaTime": 3,
                    "type": "channel",
                    "subtype": "noteOn",
                    "channel": 4,
                    "noteNumber": 78,
                    "velocity": 118,
                    "lightChannels": [
                        0,
                        1,
                        2,
                        3,
                        4,
                        5,
                        6,
                        7,
                        8,
                        9
                    ]
                }
            }
        }
    },
    {
        "changes": {
            "window": 1,
            "outline": 1
        },
        "timeout": 0.0158898125,
        "raw": {
            "window": {
                "pinValue": 1,
                "ticks": 5,
                "event": {
                    "deltaTime": 5,
                    "type": "channel",
                    "subtype": "noteOn",
                    "channel": 9,
                    "noteNumber": 54,
                    "velocity": 91,
                    "lightChannels": [
                        6,
                        7
                    ]
                }
            },
            "outline": {
                "pinValue": 1,
                "ticks": 5,
                "event": {
                    "deltaTime": 5,
                    "type": "channel",
                    "subtype": "noteOn",
                    "channel": 9,
                    "noteNumber": 54,
                    "velocity": 91,
                    "lightChannels": [
                        6,
                        7
                    ]
                }
            }
        }
    },
    {
        "changes": {
            "window": 0,
            "outline": 0
        },
        "timeout": 0.08050838333333332,
        "raw": {
            "window": {
                "pinValue": 0,
                "ticks": 2,
                "event": {
                    "deltaTime": 2,
                    "type": "channel",
                    "subtype": "noteOff",
                    "channel": 9,
                    "noteNumber": 54,
                    "velocity": 0,
                    "lightChannels": [
                        6,
                        7
                    ]
                }
            },
            "outline": {
                "pinValue": 0,
                "ticks": 2,
                "event": {
                    "deltaTime": 2,
                    "type": "channel",
                    "subtype": "noteOff",
                    "channel": 9,
                    "noteNumber": 54,
                    "velocity": 0,
                    "lightChannels": [
                        6,
                        7
                    ]
                }
            }
        }
    },
    {
        "changes": {
            "garage": 0,
            "top-right": 0,
            "bottom-right": 0,
            "col-1": 0,
            "col-2": 0,
            "col-3": 0,
            "window": 0,
            "outline": 0,
            "garden": 0,
            "tree": 0
        },
        "timeout": 0.02012709583333333,
        "raw": {
            "garage": {
                "pinValue": 0,
                "ticks": 7,
                "event": {
                    "deltaTime": 7,
                    "type": "channel",
                    "subtype": "noteOff",
                    "channel": 4,
                    "noteNumber": 78,
                    "velocity": 0,
                    "lightChannels": [
                        0,
                        1,
                        2,
                        3,
                        4,
                        5,
                        6,
                        7,
                        8,
                        9
                    ]
                }
            },
            "top-right": {
                "pinValue": 0,
                "ticks": 7,
                "event": {
                    "deltaTime": 7,
                    "type": "channel",
                    "subtype": "noteOff",
                    "channel": 4,
                    "noteNumber": 78,
                    "velocity": 0,
                    "lightChannels": [
                        0,
                        1,
                        2,
                        3,
                        4,
                        5,
                        6,
                        7,
                        8,
                        9
                    ]
                }
            },
            "bottom-right": {
                "pinValue": 0,
                "ticks": 7,
                "event": {
                    "deltaTime": 7,
                    "type": "channel",
                    "subtype": "noteOff",
                    "channel": 4,
                    "noteNumber": 78,
                    "velocity": 0,
                    "lightChannels": [
                        0,
                        1,
                        2,
                        3,
                        4,
                        5,
                        6,
                        7,
                        8,
                        9
                    ]
                }
            },
            "col-1": {
                "pinValue": 0,
                "ticks": 7,
                "event": {
                    "deltaTime": 7,
                    "type": "channel",
                    "subtype": "noteOff",
                    "channel": 4,
                    "noteNumber": 78,
                    "velocity": 0,
                    "lightChannels": [
                        0,
                        1,
                        2,
                        3,
                        4,
                        5,
                        6,
                        7,
                        8,
                        9
                    ]
                }
            },
            "col-2": {
                "pinValue": 0,
                "ticks": 7,
                "event": {
                    "deltaTime": 7,
                    "type": "channel",
                    "subtype": "noteOff",
                    "channel": 4,
                    "noteNumber": 78,
                    "velocity": 0,
                    "lightChannels": [
                        0,
                        1,
                        2,
                        3,
                        4,
                        5,
                        6,
                        7,
                        8,
                        9
                    ]
                }
            },
            "col-3": {
                "pinValue": 0,
                "ticks": 7,
                "event": {
                    "deltaTime": 7,
                    "type": "channel",
                    "subtype": "noteOff",
                    "channel": 4,
                    "noteNumber": 78,
                    "velocity": 0,
                    "lightChannels": [
                        0,
                        1,
                        2,
                        3,
                        4,
                        5,
                        6,
                        7,
                        8,
                        9
                    ]
                }
            },
            "window": {
                "pinValue": 0,
                "ticks": 7,
                "event": {
                    "deltaTime": 7,
                    "type": "channel",
                    "subtype": "noteOff",
                    "channel": 4,
                    "noteNumber": 78,
                    "velocity": 0,
                    "lightChannels": [
                        0,
                        1,
                        2,
                        3,
                        4,
                        5,
                        6,
                        7,
                        8,
                        9
                    ]
                }
            },
            "outline": {
                "pinValue": 0,
                "ticks": 7,
                "event": {
                    "deltaTime": 7,
                    "type": "channel",
                    "subtype": "noteOff",
                    "channel": 4,
                    "noteNumber": 78,
                    "velocity": 0,
                    "lightChannels": [
                        0,
                        1,
                        2,
                        3,
                        4,
                        5,
                        6,
                        7,
                        8,
                        9
                    ]
                }
            },
            "garden": {
                "pinValue": 0,
                "ticks": 7,
                "event": {
                    "deltaTime": 7,
                    "type": "channel",
                    "subtype": "noteOff",
                    "channel": 4,
                    "noteNumber": 78,
                    "velocity": 0,
                    "lightChannels": [
                        0,
                        1,
                        2,
                        3,
                        4,
                        5,
                        6,
                        7,
                        8,
                        9
                    ]
                }
            },
            "tree": {
                "pinValue": 0,
                "ticks": 7,
                "event": {
                    "deltaTime": 7,
                    "type": "channel",
                    "subtype": "noteOff",
                    "channel": 4,
                    "noteNumber": 78,
                    "velocity": 0,
                    "lightChannels": [
                        0,
                        1,
                        2,
                        3,
                        4,
                        5,
                        6,
                        7,
                        8,
                        9
                    ]
                }
            }
        }
    },
    {
        "changes": {
            "garage": 0,
            "top-right": 0,
            "bottom-right": 0,
            "col-1": 0,
            "col-2": 0,
            "col-3": 0,
            "window": 0,
            "outline": 0,
            "garden": 0,
            "tree": 0
        },
        "timeout": 0.0010593208333333332,
        "raw": {
            "garage": {
                "pinValue": 0,
                "ticks": 1,
                "event": {
                    "deltaTime": 1,
                    "type": "channel",
                    "subtype": "noteOff",
                    "channel": 4,
                    "noteNumber": 83,
                    "velocity": 0,
                    "lightChannels": [
                        0,
                        1,
                        2,
                        3,
                        4,
                        5,
                        6,
                        7,
                        8,
                        9
                    ]
                }
            },
            "top-right": {
                "pinValue": 0,
                "ticks": 1,
                "event": {
                    "deltaTime": 1,
                    "type": "channel",
                    "subtype": "noteOff",
                    "channel": 4,
                    "noteNumber": 83,
                    "velocity": 0,
                    "lightChannels": [
                        0,
                        1,
                        2,
                        3,
                        4,
                        5,
                        6,
                        7,
                        8,
                        9
                    ]
                }
            },
            "bottom-right": {
                "pinValue": 0,
                "ticks": 1,
                "event": {
                    "deltaTime": 1,
                    "type": "channel",
                    "subtype": "noteOff",
                    "channel": 4,
                    "noteNumber": 83,
                    "velocity": 0,
                    "lightChannels": [
                        0,
                        1,
                        2,
                        3,
                        4,
                        5,
                        6,
                        7,
                        8,
                        9
                    ]
                }
            },
            "col-1": {
                "pinValue": 0,
                "ticks": 1,
                "event": {
                    "deltaTime": 1,
                    "type": "channel",
                    "subtype": "noteOff",
                    "channel": 4,
                    "noteNumber": 83,
                    "velocity": 0,
                    "lightChannels": [
                        0,
                        1,
                        2,
                        3,
                        4,
                        5,
                        6,
                        7,
                        8,
                        9
                    ]
                }
            },
            "col-2": {
                "pinValue": 0,
                "ticks": 1,
                "event": {
                    "deltaTime": 1,
                    "type": "channel",
                    "subtype": "noteOff",
                    "channel": 4,
                    "noteNumber": 83,
                    "velocity": 0,
                    "lightChannels": [
                        0,
                        1,
                        2,
                        3,
                        4,
                        5,
                        6,
                        7,
                        8,
                        9
                    ]
                }
            },
            "col-3": {
                "pinValue": 0,
                "ticks": 1,
                "event": {
                    "deltaTime": 1,
                    "type": "channel",
                    "subtype": "noteOff",
                    "channel": 4,
                    "noteNumber": 83,
                    "velocity": 0,
                    "lightChannels": [
                        0,
                        1,
                        2,
                        3,
                        4,
                        5,
                        6,
                        7,
                        8,
                        9
                    ]
                }
            },
            "window": {
                "pinValue": 0,
                "ticks": 1,
                "event": {
                    "deltaTime": 1,
                    "type": "channel",
                    "subtype": "noteOff",
                    "channel": 4,
                    "noteNumber": 83,
                    "velocity": 0,
                    "lightChannels": [
                        0,
                        1,
                        2,
                        3,
                        4,
                        5,
                        6,
                        7,
                        8,
                        9
                    ]
                }
            },
            "outline": {
                "pinValue": 0,
                "ticks": 1,
                "event": {
                    "deltaTime": 1,
                    "type": "channel",
                    "subtype": "noteOff",
                    "channel": 4,
                    "noteNumber": 83,
                    "velocity": 0,
                    "lightChannels": [
                        0,
                        1,
                        2,
                        3,
                        4,
                        5,
                        6,
                        7,
                        8,
                        9
                    ]
                }
            },
            "garden": {
                "pinValue": 0,
                "ticks": 1,
                "event": {
                    "deltaTime": 1,
                    "type": "channel",
                    "subtype": "noteOff",
                    "channel": 4,
                    "noteNumber": 83,
                    "velocity": 0,
                    "lightChannels": [
                        0,
                        1,
                        2,
                        3,
                        4,
                        5,
                        6,
                        7,
                        8,
                        9
                    ]
                }
            },
            "tree": {
                "pinValue": 0,
                "ticks": 1,
                "event": {
                    "deltaTime": 1,
                    "type": "channel",
                    "subtype": "noteOff",
                    "channel": 4,
                    "noteNumber": 83,
                    "velocity": 0,
                    "lightChannels": [
                        0,
                        1,
                        2,
                        3,
                        4,
                        5,
                        6,
                        7,
                        8,
                        9
                    ]
                }
            }
        }
    },
    {
        "changes": {
            "garden": 1
        },
        "timeout": 0.6726687291666666,
        "raw": {
            "garden": {
                "pinValue": 1,
                "ticks": 1,
                "event": {
                    "deltaTime": 1,
                    "type": "channel",
                    "subtype": "noteOn",
                    "channel": 4,
                    "noteNumber": 78,
                    "velocity": 106,
                    "lightChannels": [
                        8
                    ]
                }
            }
        }
    },
    {
        "changes": {
            "window": 1,
            "outline": 1
        },
        "timeout": 0.013771170833333332,
        "raw": {
            "window": {
                "pinValue": 1,
                "ticks": 13,
                "event": {
                    "deltaTime": 13,
                    "type": "channel",
                    "subtype": "noteOn",
                    "channel": 9,
                    "noteNumber": 54,
                    "velocity": 84,
                    "lightChannels": [
                        6,
                        7
                    ]
                }
            },
            "outline": {
                "pinValue": 1,
                "ticks": 13,
                "event": {
                    "deltaTime": 13,
                    "type": "channel",
                    "subtype": "noteOn",
                    "channel": 9,
                    "noteNumber": 54,
                    "velocity": 84,
                    "lightChannels": [
                        6,
                        7
                    ]
                }
            }
        }
    },
    {
        "changes": {
            "window": 0,
            "outline": 0
        },
        "timeout": 0.06567789166666665,
        "raw": {
            "window": {
                "pinValue": 0,
                "ticks": 61,
                "event": {
                    "deltaTime": 61,
                    "type": "channel",
                    "subtype": "noteOff",
                    "channel": 9,
                    "noteNumber": 54,
                    "velocity": 0,
                    "lightChannels": [
                        6,
                        7
                    ]
                }
            },
            "outline": {
                "pinValue": 0,
                "ticks": 61,
                "event": {
                    "deltaTime": 61,
                    "type": "channel",
                    "subtype": "noteOff",
                    "channel": 9,
                    "noteNumber": 54,
                    "velocity": 0,
                    "lightChannels": [
                        6,
                        7
                    ]
                }
            }
        }
    },
    {
        "changes": {
            "garden": 0
        },
        "timeout": 0.14936423749999997,
        "raw": {
            "garden": {
                "pinValue": 0,
                "ticks": 124,
                "event": {
                    "deltaTime": 124,
                    "type": "channel",
                    "subtype": "noteOff",
                    "channel": 4,
                    "noteNumber": 78,
                    "velocity": 0,
                    "lightChannels": [
                        8
                    ]
                }
            }
        }
    },
    {
        "changes": {
            "tree": 1
        },
        "timeout": 0.02330505833333333,
        "raw": {
            "tree": {
                "pinValue": 1,
                "ticks": 3,
                "event": {
                    "deltaTime": 3,
                    "type": "channel",
                    "subtype": "noteOn",
                    "channel": 4,
                    "noteNumber": 76,
                    "velocity": 111,
                    "lightChannels": [
                        9
                    ]
                }
            }
        }
    },
    {
        "changes": {
            "window": 1,
            "outline": 1
        },
        "timeout": 0.008474566666666666,
        "raw": {
            "window": {
                "pinValue": 1,
                "ticks": 6,
                "event": {
                    "deltaTime": 6,
                    "type": "channel",
                    "subtype": "noteOn",
                    "channel": 9,
                    "noteNumber": 54,
                    "velocity": 87,
                    "lightChannels": [
                        6,
                        7
                    ]
                }
            },
            "outline": {
                "pinValue": 1,
                "ticks": 6,
                "event": {
                    "deltaTime": 6,
                    "type": "channel",
                    "subtype": "noteOn",
                    "channel": 9,
                    "noteNumber": 54,
                    "velocity": 87,
                    "lightChannels": [
                        6,
                        7
                    ]
                }
            }
        }
    },
    {
        "changes": {
            "window": 0,
            "outline": 0
        },
        "timeout": 0.06461857083333333,
        "raw": {
            "window": {
                "pinValue": 0,
                "ticks": 46,
                "event": {
                    "deltaTime": 46,
                    "type": "channel",
                    "subtype": "noteOff",
                    "channel": 9,
                    "noteNumber": 54,
                    "velocity": 0,
                    "lightChannels": [
                        6,
                        7
                    ]
                }
            },
            "outline": {
                "pinValue": 0,
                "ticks": 46,
                "event": {
                    "deltaTime": 46,
                    "type": "channel",
                    "subtype": "noteOff",
                    "channel": 9,
                    "noteNumber": 54,
                    "velocity": 0,
                    "lightChannels": [
                        6,
                        7
                    ]
                }
            }
        }
    },
    {
        "changes": {
            "window": 1,
            "outline": 1
        },
        "timeout": 0.1747879375,
        "raw": {
            "window": {
                "pinValue": 1,
                "ticks": 125,
                "event": {
                    "deltaTime": 125,
                    "type": "channel",
                    "subtype": "noteOn",
                    "channel": 9,
                    "noteNumber": 54,
                    "velocity": 81,
                    "lightChannels": [
                        6,
                        7
                    ]
                }
            },
            "outline": {
                "pinValue": 1,
                "ticks": 125,
                "event": {
                    "deltaTime": 125,
                    "type": "channel",
                    "subtype": "noteOn",
                    "channel": 9,
                    "noteNumber": 54,
                    "velocity": 81,
                    "lightChannels": [
                        6,
                        7
                    ]
                }
            }
        }
    },
    {
        "changes": {
            "window": 0,
            "outline": 0
        },
        "timeout": 0.07097449583333333,
        "raw": {
            "window": {
                "pinValue": 0,
                "ticks": 52,
                "event": {
                    "deltaTime": 52,
                    "type": "channel",
                    "subtype": "noteOff",
                    "channel": 9,
                    "noteNumber": 54,
                    "velocity": 0,
                    "lightChannels": [
                        6,
                        7
                    ]
                }
            },
            "outline": {
                "pinValue": 0,
                "ticks": 52,
                "event": {
                    "deltaTime": 52,
                    "type": "channel",
                    "subtype": "noteOff",
                    "channel": 9,
                    "noteNumber": 54,
                    "velocity": 0,
                    "lightChannels": [
                        6,
                        7
                    ]
                }
            }
        }
    },
    {
        "changes": {
            "tree": 0
        },
        "timeout": 0.15466084166666666,
        "raw": {
            "tree": {
                "pinValue": 0,
                "ticks": 75,
                "event": {
                    "deltaTime": 75,
                    "type": "channel",
                    "subtype": "noteOff",
                    "channel": 4,
                    "noteNumber": 76,
                    "velocity": 0,
                    "lightChannels": [
                        9
                    ]
                }
            }
        }
    },
    {
        "changes": {
            "window": 1,
            "outline": 1
        },
        "timeout": 0.039194870833333326,
        "raw": {
            "window": {
                "pinValue": 1,
                "ticks": 37,
                "event": {
                    "deltaTime": 37,
                    "type": "channel",
                    "subtype": "noteOn",
                    "channel": 9,
                    "noteNumber": 54,
                    "velocity": 76,
                    "lightChannels": [
                        6,
                        7
                    ]
                }
            },
            "outline": {
                "pinValue": 1,
                "ticks": 37,
                "event": {
                    "deltaTime": 37,
                    "type": "channel",
                    "subtype": "noteOn",
                    "channel": 9,
                    "noteNumber": 54,
                    "velocity": 76,
                    "lightChannels": [
                        6,
                        7
                    ]
                }
            }
        }
    },
    {
        "changes": {
            "window": 0,
            "outline": 0
        },
        "timeout": 0.06673721249999999,
        "raw": {
            "window": {
                "pinValue": 0,
                "ticks": 8,
                "event": {
                    "deltaTime": 8,
                    "type": "channel",
                    "subtype": "noteOff",
                    "channel": 9,
                    "noteNumber": 54,
                    "velocity": 0,
                    "lightChannels": [
                        6,
                        7
                    ]
                }
            },
            "outline": {
                "pinValue": 0,
                "ticks": 8,
                "event": {
                    "deltaTime": 8,
                    "type": "channel",
                    "subtype": "noteOff",
                    "channel": 9,
                    "noteNumber": 54,
                    "velocity": 0,
                    "lightChannels": [
                        6,
                        7
                    ]
                }
            }
        }
    },
    {
        "changes": {
            "window": 1,
            "outline": 1
        },
        "timeout": 0.2033896,
        "raw": {
            "window": {
                "pinValue": 1,
                "ticks": 25,
                "event": {
                    "deltaTime": 25,
                    "type": "channel",
                    "subtype": "noteOn",
                    "channel": 9,
                    "noteNumber": 54,
                    "velocity": 64,
                    "lightChannels": [
                        6,
                        7
                    ]
                }
            },
            "outline": {
                "pinValue": 1,
                "ticks": 25,
                "event": {
                    "deltaTime": 25,
                    "type": "channel",
                    "subtype": "noteOn",
                    "channel": 9,
                    "noteNumber": 54,
                    "velocity": 64,
                    "lightChannels": [
                        6,
                        7
                    ]
                }
            }
        }
    },
    {
        "changes": {
            "window": 0,
            "outline": 0
        },
        "timeout": 0.047669437499999995,
        "raw": {
            "window": {
                "pinValue": 0,
                "ticks": 45,
                "event": {
                    "deltaTime": 45,
                    "type": "channel",
                    "subtype": "noteOff",
                    "channel": 9,
                    "noteNumber": 54,
                    "velocity": 0,
                    "lightChannels": [
                        6,
                        7
                    ]
                }
            },
            "outline": {
                "pinValue": 0,
                "ticks": 45,
                "event": {
                    "deltaTime": 45,
                    "type": "channel",
                    "subtype": "noteOff",
                    "channel": 9,
                    "noteNumber": 54,
                    "velocity": 0,
                    "lightChannels": [
                        6,
                        7
                    ]
                }
            }
        }
    },
    {
        "changes": {
            "col-1": 1,
            "col-3": 1
        },
        "timeout": 0.15572016249999998,
        "raw": {
            "col-1": {
                "pinValue": 1,
                "ticks": 1,
                "event": {
                    "deltaTime": 1,
                    "type": "channel",
                    "subtype": "noteOn",
                    "channel": 7,
                    "noteNumber": 59,
                    "velocity": 79,
                    "lightChannels": [
                        3,
                        5
                    ]
                }
            },
            "col-3": {
                "pinValue": 1,
                "ticks": 1,
                "event": {
                    "deltaTime": 1,
                    "type": "channel",
                    "subtype": "noteOn",
                    "channel": 7,
                    "noteNumber": 59,
                    "velocity": 79,
                    "lightChannels": [
                        3,
                        5
                    ]
                }
            }
        }
    },
    {
        "changes": {
            "garage": 1
        },
        "timeout": 0.0021186416666666664,
        "raw": {
            "garage": {
                "pinValue": 1,
                "ticks": 2,
                "event": {
                    "deltaTime": 2,
                    "type": "channel",
                    "subtype": "noteOn",
                    "channel": 8,
                    "noteNumber": 53,
                    "velocity": 113,
                    "lightChannels": [
                        0
                    ]
                }
            }
        }
    },
    {
        "changes": {
            "window": 1,
            "outline": 1
        },
        "timeout": 0.04025419166666666,
        "raw": {
            "window": {
                "pinValue": 1,
                "ticks": 29,
                "event": {
                    "deltaTime": 29,
                    "type": "channel",
                    "subtype": "noteOn",
                    "channel": 9,
                    "noteNumber": 54,
                    "velocity": 71,
                    "lightChannels": [
                        6,
                        7
                    ]
                }
            },
            "outline": {
                "pinValue": 1,
                "ticks": 29,
                "event": {
                    "deltaTime": 29,
                    "type": "channel",
                    "subtype": "noteOn",
                    "channel": 9,
                    "noteNumber": 54,
                    "velocity": 71,
                    "lightChannels": [
                        6,
                        7
                    ]
                }
            }
        }
    },
    {
        "changes": {
            "window": 0,
            "outline": 0
        },
        "timeout": 0.06144060833333332,
        "raw": {
            "window": {
                "pinValue": 0,
                "ticks": 9,
                "event": {
                    "deltaTime": 9,
                    "type": "channel",
                    "subtype": "noteOff",
                    "channel": 9,
                    "noteNumber": 54,
                    "velocity": 0,
                    "lightChannels": [
                        6,
                        7
                    ]
                }
            },
            "outline": {
                "pinValue": 0,
                "ticks": 9,
                "event": {
                    "deltaTime": 9,
                    "type": "channel",
                    "subtype": "noteOff",
                    "channel": 9,
                    "noteNumber": 54,
                    "velocity": 0,
                    "lightChannels": [
                        6,
                        7
                    ]
                }
            }
        }
    },
    {
        "changes": {
            "window": 1,
            "outline": 1
        },
        "timeout": 0.1874997875,
        "raw": {
            "window": {
                "pinValue": 1,
                "ticks": 15,
                "event": {
                    "deltaTime": 15,
                    "type": "channel",
                    "subtype": "noteOn",
                    "channel": 9,
                    "noteNumber": 54,
                    "velocity": 69,
                    "lightChannels": [
                        6,
                        7
                    ]
                }
            },
            "outline": {
                "pinValue": 1,
                "ticks": 15,
                "event": {
                    "deltaTime": 15,
                    "type": "channel",
                    "subtype": "noteOn",
                    "channel": 9,
                    "noteNumber": 54,
                    "velocity": 69,
                    "lightChannels": [
                        6,
                        7
                    ]
                }
            }
        }
    },
    {
        "changes": {
            "window": 0,
            "outline": 0
        },
        "timeout": 0.05508468333333333,
        "raw": {
            "window": {
                "pinValue": 0,
                "ticks": 52,
                "event": {
                    "deltaTime": 52,
                    "type": "channel",
                    "subtype": "noteOff",
                    "channel": 9,
                    "noteNumber": 54,
                    "velocity": 0,
                    "lightChannels": [
                        6,
                        7
                    ]
                }
            },
            "outline": {
                "pinValue": 0,
                "ticks": 52,
                "event": {
                    "deltaTime": 52,
                    "type": "channel",
                    "subtype": "noteOff",
                    "channel": 9,
                    "noteNumber": 54,
                    "velocity": 0,
                    "lightChannels": [
                        6,
                        7
                    ]
                }
            }
        }
    },
    {
        "changes": {
            "garage": 0
        },
        "timeout": 0.1048727625,
        "raw": {
            "garage": {
                "pinValue": 0,
                "ticks": 0,
                "event": {
                    "deltaTime": 0,
                    "type": "channel",
                    "subtype": "noteOff",
                    "channel": 8,
                    "noteNumber": 53,
                    "velocity": 0,
                    "lightChannels": [
                        0
                    ]
                }
            }
        }
    },
    {
        "changes": {
            "col-1": 0,
            "col-3": 0
        },
        "timeout": 0.024364379166666665,
        "raw": {
            "col-1": {
                "pinValue": 0,
                "ticks": 23,
                "event": {
                    "deltaTime": 23,
                    "type": "channel",
                    "subtype": "noteOff",
                    "channel": 7,
                    "noteNumber": 59,
                    "velocity": 0,
                    "lightChannels": [
                        3,
                        5
                    ]
                }
            },
            "col-3": {
                "pinValue": 0,
                "ticks": 23,
                "event": {
                    "deltaTime": 23,
                    "type": "channel",
                    "subtype": "noteOff",
                    "channel": 7,
                    "noteNumber": 59,
                    "velocity": 0,
                    "lightChannels": [
                        3,
                        5
                    ]
                }
            }
        }
    },
    {
        "changes": {
            "top-right": 1
        },
        "timeout": 0.027542341666666664,
        "raw": {
            "top-right": {
                "pinValue": 1,
                "ticks": 13,
                "event": {
                    "deltaTime": 13,
                    "type": "channel",
                    "subtype": "noteOn",
                    "channel": 8,
                    "noteNumber": 59,
                    "velocity": 115,
                    "lightChannels": [
                        1
                    ]
                }
            }
        }
    },
    {
        "changes": {
            "col-2": 1
        },
        "timeout": 0.0158898125,
        "raw": {
            "col-2": {
                "pinValue": 1,
                "ticks": 12,
                "event": {
                    "deltaTime": 12,
                    "type": "channel",
                    "subtype": "noteOn",
                    "channel": 7,
                    "noteNumber": 56,
                    "velocity": 80,
                    "lightChannels": [
                        4
                    ]
                }
            }
        }
    },
    {
        "changes": {
            "window": 1,
            "outline": 1
        },
        "timeout": 0.0095338875,
        "raw": {
            "window": {
                "pinValue": 1,
                "ticks": 9,
                "event": {
                    "deltaTime": 9,
                    "type": "channel",
                    "subtype": "noteOn",
                    "channel": 9,
                    "noteNumber": 54,
                    "velocity": 77,
                    "lightChannels": [
                        6,
                        7
                    ]
                }
            },
            "outline": {
                "pinValue": 1,
                "ticks": 9,
                "event": {
                    "deltaTime": 9,
                    "type": "channel",
                    "subtype": "noteOn",
                    "channel": 9,
                    "noteNumber": 54,
                    "velocity": 77,
                    "lightChannels": [
                        6,
                        7
                    ]
                }
            }
        }
    },
    {
        "changes": {
            "window": 0,
            "outline": 0
        },
        "timeout": 0.06567789166666665,
        "raw": {
            "window": {
                "pinValue": 0,
                "ticks": 41,
                "event": {
                    "deltaTime": 41,
                    "type": "channel",
                    "subtype": "noteOff",
                    "channel": 9,
                    "noteNumber": 54,
                    "velocity": 0,
                    "lightChannels": [
                        6,
                        7
                    ]
                }
            },
            "outline": {
                "pinValue": 0,
                "ticks": 41,
                "event": {
                    "deltaTime": 41,
                    "type": "channel",
                    "subtype": "noteOff",
                    "channel": 9,
                    "noteNumber": 54,
                    "velocity": 0,
                    "lightChannels": [
                        6,
                        7
                    ]
                }
            }
        }
    },
    {
        "changes": {
            "window": 1,
            "outline": 1
        },
        "timeout": 0.18008454166666663,
        "raw": {
            "window": {
                "pinValue": 1,
                "ticks": 0,
                "event": {
                    "deltaTime": 0,
                    "type": "channel",
                    "subtype": "noteOn",
                    "channel": 9,
                    "noteNumber": 54,
                    "velocity": 80,
                    "lightChannels": [
                        6,
                        7
                    ]
                }
            },
            "outline": {
                "pinValue": 1,
                "ticks": 0,
                "event": {
                    "deltaTime": 0,
                    "type": "channel",
                    "subtype": "noteOn",
                    "channel": 9,
                    "noteNumber": 54,
                    "velocity": 80,
                    "lightChannels": [
                        6,
                        7
                    ]
                }
            }
        }
    },
    {
        "changes": {
            "window": 0,
            "outline": 0
        },
        "timeout": 0.06673721249999999,
        "raw": {
            "window": {
                "pinValue": 0,
                "ticks": 63,
                "event": {
                    "deltaTime": 63,
                    "type": "channel",
                    "subtype": "noteOff",
                    "channel": 9,
                    "noteNumber": 54,
                    "velocity": 0,
                    "lightChannels": [
                        6,
                        7
                    ]
                }
            },
            "outline": {
                "pinValue": 0,
                "ticks": 63,
                "event": {
                    "deltaTime": 63,
                    "type": "channel",
                    "subtype": "noteOff",
                    "channel": 9,
                    "noteNumber": 54,
                    "velocity": 0,
                    "lightChannels": [
                        6,
                        7
                    ]
                }
            }
        }
    },
    {
        "changes": {
            "top-right": 0
        },
        "timeout": 0.14512695416666666,
        "raw": {
            "top-right": {
                "pinValue": 0,
                "ticks": 9,
                "event": {
                    "deltaTime": 9,
                    "type": "channel",
                    "subtype": "noteOff",
                    "channel": 8,
                    "noteNumber": 59,
                    "velocity": 0,
                    "lightChannels": [
                        1
                    ]
                }
            }
        }
    },
    {
        "changes": {
            "col-2": 0
        },
        "timeout": 0.0031779624999999996,
        "raw": {
            "col-2": {
                "pinValue": 0,
                "ticks": 3,
                "event": {
                    "deltaTime": 3,
                    "type": "channel",
                    "subtype": "noteOff",
                    "channel": 7,
                    "noteNumber": 56,
                    "velocity": 0,
                    "lightChannels": [
                        4
                    ]
                }
            }
        }
    },
    {
        "changes": {
            "bottom-right": 1
        },
        "timeout": 0.03813555,
        "raw": {
            "bottom-right": {
                "pinValue": 1,
                "ticks": 13,
                "event": {
                    "deltaTime": 13,
                    "type": "channel",
                    "subtype": "noteOn",
                    "channel": 8,
                    "noteNumber": 60,
                    "velocity": 121,
                    "lightChannels": [
                        2
                    ]
                }
            }
        }
    },
    {
        "changes": {
            "garden": 1
        },
        "timeout": 0.0021186416666666664,
        "raw": {
            "garden": {
                "pinValue": 1,
                "ticks": 1,
                "event": {
                    "deltaTime": 1,
                    "type": "channel",
                    "subtype": "noteOn",
                    "channel": 7,
                    "noteNumber": 60,
                    "velocity": 89,
                    "lightChannels": [
                        8
                    ]
                }
            }
        }
    },
    {
        "changes": {
            "window": 1,
            "outline": 1
        },
        "timeout": 0.007415245833333333,
        "raw": {
            "window": {
                "pinValue": 1,
                "ticks": 0,
                "event": {
                    "deltaTime": 0,
                    "type": "channel",
                    "subtype": "noteOn",
                    "channel": 9,
                    "noteNumber": 54,
                    "velocity": 79,
                    "lightChannels": [
                        6,
                        7
                    ]
                }
            },
            "outline": {
                "pinValue": 1,
                "ticks": 0,
                "event": {
                    "deltaTime": 0,
                    "type": "channel",
                    "subtype": "noteOn",
                    "channel": 9,
                    "noteNumber": 54,
                    "velocity": 79,
                    "lightChannels": [
                        6,
                        7
                    ]
                }
            }
        }
    },
    {
        "changes": {
            "window": 0,
            "outline": 0
        },
        "timeout": 0.05826264583333333,
        "raw": {
            "window": {
                "pinValue": 0,
                "ticks": 55,
                "event": {
                    "deltaTime": 55,
                    "type": "channel",
                    "subtype": "noteOff",
                    "channel": 9,
                    "noteNumber": 54,
                    "velocity": 0,
                    "lightChannels": [
                        6,
                        7
                    ]
                }
            },
            "outline": {
                "pinValue": 0,
                "ticks": 55,
                "event": {
                    "deltaTime": 55,
                    "type": "channel",
                    "subtype": "noteOff",
                    "channel": 9,
                    "noteNumber": 54,
                    "velocity": 0,
                    "lightChannels": [
                        6,
                        7
                    ]
                }
            }
        }
    },
    {
        "changes": {
            "window": 1,
            "outline": 1
        },
        "timeout": 0.18326250416666665,
        "raw": {
            "window": {
                "pinValue": 1,
                "ticks": 7,
                "event": {
                    "deltaTime": 7,
                    "type": "channel",
                    "subtype": "noteOn",
                    "channel": 9,
                    "noteNumber": 54,
                    "velocity": 76,
                    "lightChannels": [
                        6,
                        7
                    ]
                }
            },
            "outline": {
                "pinValue": 1,
                "ticks": 7,
                "event": {
                    "deltaTime": 7,
                    "type": "channel",
                    "subtype": "noteOn",
                    "channel": 9,
                    "noteNumber": 54,
                    "velocity": 76,
                    "lightChannels": [
                        6,
                        7
                    ]
                }
            }
        }
    },
    {
        "changes": {
            "window": 0,
            "outline": 0
        },
        "timeout": 0.06567789166666665,
        "raw": {
            "window": {
                "pinValue": 0,
                "ticks": 38,
                "event": {
                    "deltaTime": 38,
                    "type": "channel",
                    "subtype": "noteOff",
                    "channel": 9,
                    "noteNumber": 54,
                    "velocity": 0,
                    "lightChannels": [
                        6,
                        7
                    ]
                }
            },
            "outline": {
                "pinValue": 0,
                "ticks": 38,
                "event": {
                    "deltaTime": 38,
                    "type": "channel",
                    "subtype": "noteOff",
                    "channel": 9,
                    "noteNumber": 54,
                    "velocity": 0,
                    "lightChannels": [
                        6,
                        7
                    ]
                }
            }
        }
    },
    {
        "changes": {
            "bottom-right": 0
        },
        "timeout": 0.13559306666666665,
        "raw": {
            "bottom-right": {
                "pinValue": 0,
                "ticks": 128,
                "event": {
                    "deltaTime": 128,
                    "type": "channel",
                    "subtype": "noteOff",
                    "channel": 8,
                    "noteNumber": 60,
                    "velocity": 0,
                    "lightChannels": [
                        2
                    ]
                }
            }
        }
    },
    {
        "changes": {
            "garden": 0
        },
        "timeout": 0.030720304166666663,
        "raw": {
            "garden": {
                "pinValue": 0,
                "ticks": 19,
                "event": {
                    "deltaTime": 19,
                    "type": "channel",
                    "subtype": "noteOff",
                    "channel": 7,
                    "noteNumber": 60,
                    "velocity": 0,
                    "lightChannels": [
                        8
                    ]
                }
            }
        }
    },
    {
        "changes": {
            "garage": 1
        },
        "timeout": 0.021186416666666662,
        "raw": {
            "garage": {
                "pinValue": 1,
                "ticks": 3,
                "event": {
                    "deltaTime": 3,
                    "type": "channel",
                    "subtype": "noteOn",
                    "channel": 8,
                    "noteNumber": 61,
                    "velocity": 120,
                    "lightChannels": [
                        0
                    ]
                }
            }
        }
    },
    {
        "changes": {
            "window": 1,
            "outline": 1
        },
        "timeout": 0.008474566666666666,
        "raw": {
            "window": {
                "pinValue": 1,
                "ticks": 8,
                "event": {
                    "deltaTime": 8,
                    "type": "channel",
                    "subtype": "noteOn",
                    "channel": 9,
                    "noteNumber": 54,
                    "velocity": 81,
                    "lightChannels": [
                        6,
                        7
                    ]
                }
            },
            "outline": {
                "pinValue": 1,
                "ticks": 8,
                "event": {
                    "deltaTime": 8,
                    "type": "channel",
                    "subtype": "noteOn",
                    "channel": 9,
                    "noteNumber": 54,
                    "velocity": 81,
                    "lightChannels": [
                        6,
                        7
                    ]
                }
            }
        }
    },
    {
        "changes": {
            "tree": 1
        },
        "timeout": 0.02012709583333333,
        "raw": {
            "tree": {
                "pinValue": 1,
                "ticks": 8,
                "event": {
                    "deltaTime": 8,
                    "type": "channel",
                    "subtype": "noteOn",
                    "channel": 7,
                    "noteNumber": 61,
                    "velocity": 79,
                    "lightChannels": [
                        9
                    ]
                }
            }
        }
    },
    {
        "changes": {
            "window": 0,
            "outline": 0
        },
        "timeout": 0.03919487083333333,
        "raw": {
            "window": {
                "pinValue": 0,
                "ticks": 30,
                "event": {
                    "deltaTime": 30,
                    "type": "channel",
                    "subtype": "noteOff",
                    "channel": 9,
                    "noteNumber": 54,
                    "velocity": 0,
                    "lightChannels": [
                        6,
                        7
                    ]
                }
            },
            "outline": {
                "pinValue": 0,
                "ticks": 30,
                "event": {
                    "deltaTime": 30,
                    "type": "channel",
                    "subtype": "noteOff",
                    "channel": 9,
                    "noteNumber": 54,
                    "velocity": 0,
                    "lightChannels": [
                        6,
                        7
                    ]
                }
            }
        }
    },
    {
        "changes": {
            "window": 1,
            "outline": 1
        },
        "timeout": 0.20656756249999997,
        "raw": {
            "window": {
                "pinValue": 1,
                "ticks": 55,
                "event": {
                    "deltaTime": 55,
                    "type": "channel",
                    "subtype": "noteOn",
                    "channel": 9,
                    "noteNumber": 54,
                    "velocity": 75,
                    "lightChannels": [
                        6,
                        7
                    ]
                }
            },
            "outline": {
                "pinValue": 1,
                "ticks": 55,
                "event": {
                    "deltaTime": 55,
                    "type": "channel",
                    "subtype": "noteOn",
                    "channel": 9,
                    "noteNumber": 54,
                    "velocity": 75,
                    "lightChannels": [
                        6,
                        7
                    ]
                }
            }
        }
    },
    {
        "changes": {
            "window": 0,
            "outline": 0
        },
        "timeout": 0.05614400416666666,
        "raw": {
            "window": {
                "pinValue": 0,
                "ticks": 53,
                "event": {
                    "deltaTime": 53,
                    "type": "channel",
                    "subtype": "noteOff",
                    "channel": 9,
                    "noteNumber": 54,
                    "velocity": 0,
                    "lightChannels": [
                        6,
                        7
                    ]
                }
            },
            "outline": {
                "pinValue": 0,
                "ticks": 53,
                "event": {
                    "deltaTime": 53,
                    "type": "channel",
                    "subtype": "noteOff",
                    "channel": 9,
                    "noteNumber": 54,
                    "velocity": 0,
                    "lightChannels": [
                        6,
                        7
                    ]
                }
            }
        }
    },
    {
        "changes": {
            "tree": 0
        },
        "timeout": 0.11970325416666666,
        "raw": {
            "tree": {
                "pinValue": 0,
                "ticks": 13,
                "event": {
                    "deltaTime": 13,
                    "type": "channel",
                    "subtype": "noteOff",
                    "channel": 7,
                    "noteNumber": 61,
                    "velocity": 0,
                    "lightChannels": [
                        9
                    ]
                }
            }
        }
    },
    {
        "changes": {
            "garage": 0
        },
        "timeout": 0.006355924999999999,
        "raw": {
            "garage": {
                "pinValue": 0,
                "ticks": 6,
                "event": {
                    "deltaTime": 6,
                    "type": "channel",
                    "subtype": "noteOff",
                    "channel": 8,
                    "noteNumber": 61,
                    "velocity": 0,
                    "lightChannels": [
                        0
                    ]
                }
            }
        }
    },
    {
        "changes": {
            "top-right": 1
        },
        "timeout": 0.044491474999999996,
        "raw": {
            "top-right": {
                "pinValue": 1,
                "ticks": 1,
                "event": {
                    "deltaTime": 1,
                    "type": "channel",
                    "subtype": "noteOn",
                    "channel": 8,
                    "noteNumber": 62,
                    "velocity": 109,
                    "lightChannels": [
                        1
                    ]
                }
            }
        }
    },
    {
        "changes": {
            "col-1": 1
        },
        "timeout": 0.01694913333333333,
        "raw": {
            "col-1": {
                "pinValue": 1,
                "ticks": 11,
                "event": {
                    "deltaTime": 11,
                    "type": "channel",
                    "subtype": "noteOn",
                    "channel": 7,
                    "noteNumber": 62,
                    "velocity": 88,
                    "lightChannels": [
                        3
                    ]
                }
            }
        }
    },
    {
        "changes": {
            "window": 1,
            "outline": 1
        },
        "timeout": 0.021186416666666666,
        "raw": {
            "window": {
                "pinValue": 1,
                "ticks": 4,
                "event": {
                    "deltaTime": 4,
                    "type": "channel",
                    "subtype": "noteOn",
                    "channel": 9,
                    "noteNumber": 54,
                    "velocity": 81,
                    "lightChannels": [
                        6,
                        7
                    ]
                }
            },
            "outline": {
                "pinValue": 1,
                "ticks": 4,
                "event": {
                    "deltaTime": 4,
                    "type": "channel",
                    "subtype": "noteOn",
                    "channel": 9,
                    "noteNumber": 54,
                    "velocity": 81,
                    "lightChannels": [
                        6,
                        7
                    ]
                }
            }
        }
    },
    {
        "changes": {
            "window": 0,
            "outline": 0
        },
        "timeout": 0.05720332499999999,
        "raw": {
            "window": {
                "pinValue": 0,
                "ticks": 22,
                "event": {
                    "deltaTime": 22,
                    "type": "channel",
                    "subtype": "noteOff",
                    "channel": 9,
                    "noteNumber": 54,
                    "velocity": 0,
                    "lightChannels": [
                        6,
                        7
                    ]
                }
            },
            "outline": {
                "pinValue": 0,
                "ticks": 22,
                "event": {
                    "deltaTime": 22,
                    "type": "channel",
                    "subtype": "noteOff",
                    "channel": 9,
                    "noteNumber": 54,
                    "velocity": 0,
                    "lightChannels": [
                        6,
                        7
                    ]
                }
            }
        }
    },
    {
        "changes": {
            "window": 1,
            "outline": 1
        },
        "timeout": 0.19279639166666665,
        "raw": {
            "window": {
                "pinValue": 1,
                "ticks": 7,
                "event": {
                    "deltaTime": 7,
                    "type": "channel",
                    "subtype": "noteOn",
                    "channel": 9,
                    "noteNumber": 54,
                    "velocity": 72,
                    "lightChannels": [
                        6,
                        7
                    ]
                }
            },
            "outline": {
                "pinValue": 1,
                "ticks": 7,
                "event": {
                    "deltaTime": 7,
                    "type": "channel",
                    "subtype": "noteOn",
                    "channel": 9,
                    "noteNumber": 54,
                    "velocity": 72,
                    "lightChannels": [
                        6,
                        7
                    ]
                }
            }
        }
    },
    {
        "changes": {
            "window": 0,
            "outline": 0
        },
        "timeout": 0.057203325,
        "raw": {
            "window": {
                "pinValue": 0,
                "ticks": 40,
                "event": {
                    "deltaTime": 40,
                    "type": "channel",
                    "subtype": "noteOff",
                    "channel": 9,
                    "noteNumber": 54,
                    "velocity": 0,
                    "lightChannels": [
                        6,
                        7
                    ]
                }
            },
            "outline": {
                "pinValue": 0,
                "ticks": 40,
                "event": {
                    "deltaTime": 40,
                    "type": "channel",
                    "subtype": "noteOff",
                    "channel": 9,
                    "noteNumber": 54,
                    "velocity": 0,
                    "lightChannels": [
                        6,
                        7
                    ]
                }
            }
        }
    },
    {
        "changes": {
            "top-right": 0
        },
        "timeout": 0.12288121666666665,
        "raw": {
            "top-right": {
                "pinValue": 0,
                "ticks": 116,
                "event": {
                    "deltaTime": 116,
                    "type": "channel",
                    "subtype": "noteOff",
                    "channel": 8,
                    "noteNumber": 62,
                    "velocity": 0,
                    "lightChannels": [
                        1
                    ]
                }
            }
        }
    },
    {
        "changes": {
            "col-1": 0
        },
        "timeout": 0.0031779624999999996,
        "raw": {
            "col-1": {
                "pinValue": 0,
                "ticks": 3,
                "event": {
                    "deltaTime": 3,
                    "type": "channel",
                    "subtype": "noteOff",
                    "channel": 7,
                    "noteNumber": 62,
                    "velocity": 0,
                    "lightChannels": [
                        3
                    ]
                }
            }
        }
    },
    {
        "changes": {
            "col-2": 1
        },
        "timeout": 0.04555079583333333,
        "raw": {
            "col-2": {
                "pinValue": 1,
                "ticks": 1,
                "event": {
                    "deltaTime": 1,
                    "type": "channel",
                    "subtype": "noteOn",
                    "channel": 7,
                    "noteNumber": 63,
                    "velocity": 96,
                    "lightChannels": [
                        4
                    ]
                }
            }
        }
    },
    {
        "changes": {
            "bottom-right": 1
        },
        "timeout": 0.0021186416666666664,
        "raw": {
            "bottom-right": {
                "pinValue": 1,
                "ticks": 2,
                "event": {
                    "deltaTime": 2,
                    "type": "channel",
                    "subtype": "noteOn",
                    "channel": 8,
                    "noteNumber": 63,
                    "velocity": 127,
                    "lightChannels": [
                        2
                    ]
                }
            }
        }
    },
    {
        "changes": {
            "window": 1,
            "outline": 1
        },
        "timeout": 0.02330505833333333,
        "raw": {
            "window": {
                "pinValue": 1,
                "ticks": 6,
                "event": {
                    "deltaTime": 6,
                    "type": "channel",
                    "subtype": "noteOn",
                    "channel": 9,
                    "noteNumber": 54,
                    "velocity": 80,
                    "lightChannels": [
                        6,
                        7
                    ]
                }
            },
            "outline": {
                "pinValue": 1,
                "ticks": 6,
                "event": {
                    "deltaTime": 6,
                    "type": "channel",
                    "subtype": "noteOn",
                    "channel": 9,
                    "noteNumber": 54,
                    "velocity": 80,
                    "lightChannels": [
                        6,
                        7
                    ]
                }
            }
        }
    },
    {
        "changes": {
            "window": 0,
            "outline": 0
        },
        "timeout": 0.062499929166666655,
        "raw": {
            "window": {
                "pinValue": 0,
                "ticks": 47,
                "event": {
                    "deltaTime": 47,
                    "type": "channel",
                    "subtype": "noteOff",
                    "channel": 9,
                    "noteNumber": 54,
                    "velocity": 0,
                    "lightChannels": [
                        6,
                        7
                    ]
                }
            },
            "outline": {
                "pinValue": 0,
                "ticks": 47,
                "event": {
                    "deltaTime": 47,
                    "type": "channel",
                    "subtype": "noteOff",
                    "channel": 9,
                    "noteNumber": 54,
                    "velocity": 0,
                    "lightChannels": [
                        6,
                        7
                    ]
                }
            }
        }
    },
    {
        "changes": {
            "window": 1,
            "outline": 1
        },
        "timeout": 0.18644046666666664,
        "raw": {
            "window": {
                "pinValue": 1,
                "ticks": 3,
                "event": {
                    "deltaTime": 3,
                    "type": "channel",
                    "subtype": "noteOn",
                    "channel": 9,
                    "noteNumber": 54,
                    "velocity": 77,
                    "lightChannels": [
                        6,
                        7
                    ]
                }
            },
            "outline": {
                "pinValue": 1,
                "ticks": 3,
                "event": {
                    "deltaTime": 3,
                    "type": "channel",
                    "subtype": "noteOn",
                    "channel": 9,
                    "noteNumber": 54,
                    "velocity": 77,
                    "lightChannels": [
                        6,
                        7
                    ]
                }
            }
        }
    },
    {
        "changes": {
            "window": 0,
            "outline": 0
        },
        "timeout": 0.06355925,
        "raw": {
            "window": {
                "pinValue": 0,
                "ticks": 60,
                "event": {
                    "deltaTime": 60,
                    "type": "channel",
                    "subtype": "noteOff",
                    "channel": 9,
                    "noteNumber": 54,
                    "velocity": 0,
                    "lightChannels": [
                        6,
                        7
                    ]
                }
            },
            "outline": {
                "pinValue": 0,
                "ticks": 60,
                "event": {
                    "deltaTime": 60,
                    "type": "channel",
                    "subtype": "noteOff",
                    "channel": 9,
                    "noteNumber": 54,
                    "velocity": 0,
                    "lightChannels": [
                        6,
                        7
                    ]
                }
            }
        }
    },
    {
        "changes": {
            "col-2": 0
        },
        "timeout": 0.12182189583333332,
        "raw": {
            "col-2": {
                "pinValue": 0,
                "ticks": 115,
                "event": {
                    "deltaTime": 115,
                    "type": "channel",
                    "subtype": "noteOff",
                    "channel": 7,
                    "noteNumber": 63,
                    "velocity": 0,
                    "lightChannels": [
                        4
                    ]
                }
            }
        }
    },
    {
        "changes": {
            "bottom-right": 0
        },
        "timeout": 0.05402536249999999,
        "raw": {
            "bottom-right": {
                "pinValue": 0,
                "ticks": 2,
                "event": {
                    "deltaTime": 2,
                    "type": "channel",
                    "subtype": "noteOff",
                    "channel": 8,
                    "noteNumber": 63,
                    "velocity": 0,
                    "lightChannels": [
                        2
                    ]
                }
            }
        }
    },
    {
        "changes": {
            "col-3": 1
        },
        "timeout": 0.0021186416666666664,
        "raw": {
            "col-3": {
                "pinValue": 1,
                "ticks": 2,
                "event": {
                    "deltaTime": 2,
                    "type": "channel",
                    "subtype": "noteOn",
                    "channel": 7,
                    "noteNumber": 64,
                    "velocity": 91,
                    "lightChannels": [
                        5
                    ]
                }
            }
        }
    },
    {
        "changes": {
            "garage": 1
        },
        "timeout": 0.0095338875,
        "raw": {
            "garage": {
                "pinValue": 1,
                "ticks": 3,
                "event": {
                    "deltaTime": 3,
                    "type": "channel",
                    "subtype": "noteOn",
                    "channel": 8,
                    "noteNumber": 64,
                    "velocity": 116,
                    "lightChannels": [
                        0
                    ]
                }
            }
        }
    },
    {
        "changes": {
            "window": 1,
            "outline": 1
        },
        "timeout": 0.008474566666666666,
        "raw": {
            "window": {
                "pinValue": 1,
                "ticks": 8,
                "event": {
                    "deltaTime": 8,
                    "type": "channel",
                    "subtype": "noteOn",
                    "channel": 9,
                    "noteNumber": 54,
                    "velocity": 81,
                    "lightChannels": [
                        6,
                        7
                    ]
                }
            },
            "outline": {
                "pinValue": 1,
                "ticks": 8,
                "event": {
                    "deltaTime": 8,
                    "type": "channel",
                    "subtype": "noteOn",
                    "channel": 9,
                    "noteNumber": 54,
                    "velocity": 81,
                    "lightChannels": [
                        6,
                        7
                    ]
                }
            }
        }
    },
    {
        "changes": {
            "window": 0,
            "outline": 0
        },
        "timeout": 0.06567789166666665,
        "raw": {
            "window": {
                "pinValue": 0,
                "ticks": 56,
                "event": {
                    "deltaTime": 56,
                    "type": "channel",
                    "subtype": "noteOff",
                    "channel": 9,
                    "noteNumber": 54,
                    "velocity": 0,
                    "lightChannels": [
                        6,
                        7
                    ]
                }
            },
            "outline": {
                "pinValue": 0,
                "ticks": 56,
                "event": {
                    "deltaTime": 56,
                    "type": "channel",
                    "subtype": "noteOff",
                    "channel": 9,
                    "noteNumber": 54,
                    "velocity": 0,
                    "lightChannels": [
                        6,
                        7
                    ]
                }
            }
        }
    },
    {
        "changes": {
            "window": 1,
            "outline": 1
        },
        "timeout": 0.1917370708333333,
        "raw": {
            "window": {
                "pinValue": 1,
                "ticks": 58,
                "event": {
                    "deltaTime": 58,
                    "type": "channel",
                    "subtype": "noteOn",
                    "channel": 9,
                    "noteNumber": 54,
                    "velocity": 87,
                    "lightChannels": [
                        6,
                        7
                    ]
                }
            },
            "outline": {
                "pinValue": 1,
                "ticks": 58,
                "event": {
                    "deltaTime": 58,
                    "type": "channel",
                    "subtype": "noteOn",
                    "channel": 9,
                    "noteNumber": 54,
                    "velocity": 87,
                    "lightChannels": [
                        6,
                        7
                    ]
                }
            }
        }
    },
    {
        "changes": {
            "window": 0,
            "outline": 0
        },
        "timeout": 0.06461857083333332,
        "raw": {
            "window": {
                "pinValue": 0,
                "ticks": 61,
                "event": {
                    "deltaTime": 61,
                    "type": "channel",
                    "subtype": "noteOff",
                    "channel": 9,
                    "noteNumber": 54,
                    "velocity": 0,
                    "lightChannels": [
                        6,
                        7
                    ]
                }
            },
            "outline": {
                "pinValue": 0,
                "ticks": 61,
                "event": {
                    "deltaTime": 61,
                    "type": "channel",
                    "subtype": "noteOff",
                    "channel": 9,
                    "noteNumber": 54,
                    "velocity": 0,
                    "lightChannels": [
                        6,
                        7
                    ]
                }
            }
        }
    },
    {
        "changes": {
            "col-3": 0
        },
        "timeout": 0.09745751666666666,
        "raw": {
            "col-3": {
                "pinValue": 0,
                "ticks": 92,
                "event": {
                    "deltaTime": 92,
                    "type": "channel",
                    "subtype": "noteOff",
                    "channel": 7,
                    "noteNumber": 64,
                    "velocity": 0,
                    "lightChannels": [
                        5
                    ]
                }
            }
        }
    },
    {
        "changes": {
            "garage": 0
        },
        "timeout": 0.010593208333333333,
        "raw": {
            "garage": {
                "pinValue": 0,
                "ticks": 10,
                "event": {
                    "deltaTime": 10,
                    "type": "channel",
                    "subtype": "noteOff",
                    "channel": 8,
                    "noteNumber": 64,
                    "velocity": 0,
                    "lightChannels": [
                        0
                    ]
                }
            }
        }
    },
    {
        "changes": {
            "col-1": 1,
            "col-3": 1,
            "tree": 1
        },
        "timeout": 0.056144004166666664,
        "raw": {
            "col-1": {
                "pinValue": 1,
                "ticks": 1,
                "event": {
                    "deltaTime": 1,
                    "type": "channel",
                    "subtype": "noteOn",
                    "channel": 7,
                    "noteNumber": 59,
                    "velocity": 88,
                    "lightChannels": [
                        3,
                        5,
                        9
                    ]
                }
            },
            "col-3": {
                "pinValue": 1,
                "ticks": 1,
                "event": {
                    "deltaTime": 1,
                    "type": "channel",
                    "subtype": "noteOn",
                    "channel": 7,
                    "noteNumber": 59,
                    "velocity": 88,
                    "lightChannels": [
                        3,
                        5,
                        9
                    ]
                }
            },
            "tree": {
                "pinValue": 1,
                "ticks": 1,
                "event": {
                    "deltaTime": 1,
                    "type": "channel",
                    "subtype": "noteOn",
                    "channel": 7,
                    "noteNumber": 59,
                    "velocity": 88,
                    "lightChannels": [
                        3,
                        5,
                        9
                    ]
                }
            }
        }
    },
    {
        "changes": {
            "top-right": 1
        },
        "timeout": 0.0021186416666666664,
        "raw": {
            "top-right": {
                "pinValue": 1,
                "ticks": 2,
                "event": {
                    "deltaTime": 2,
                    "type": "channel",
                    "subtype": "noteOn",
                    "channel": 8,
                    "noteNumber": 59,
                    "velocity": 116,
                    "lightChannels": [
                        1
                    ]
                }
            }
        }
    },
    {
        "changes": {
            "window": 1,
            "outline": 1
        },
        "timeout": 0.012711849999999998,
        "raw": {
            "window": {
                "pinValue": 1,
                "ticks": 12,
                "event": {
                    "deltaTime": 12,
                    "type": "channel",
                    "subtype": "noteOn",
                    "channel": 9,
                    "noteNumber": 54,
                    "velocity": 81,
                    "lightChannels": [
                        6,
                        7
                    ]
                }
            },
            "outline": {
                "pinValue": 1,
                "ticks": 12,
                "event": {
                    "deltaTime": 12,
                    "type": "channel",
                    "subtype": "noteOn",
                    "channel": 9,
                    "noteNumber": 54,
                    "velocity": 81,
                    "lightChannels": [
                        6,
                        7
                    ]
                }
            }
        }
    },
    {
        "changes": {
            "window": 0,
            "outline": 0
        },
        "timeout": 0.06885585416666666,
        "raw": {
            "window": {
                "pinValue": 0,
                "ticks": 65,
                "event": {
                    "deltaTime": 65,
                    "type": "channel",
                    "subtype": "noteOff",
                    "channel": 9,
                    "noteNumber": 54,
                    "velocity": 0,
                    "lightChannels": [
                        6,
                        7
                    ]
                }
            },
            "outline": {
                "pinValue": 0,
                "ticks": 65,
                "event": {
                    "deltaTime": 65,
                    "type": "channel",
                    "subtype": "noteOff",
                    "channel": 9,
                    "noteNumber": 54,
                    "velocity": 0,
                    "lightChannels": [
                        6,
                        7
                    ]
                }
            }
        }
    },
    {
        "changes": {
            "window": 1,
            "outline": 1
        },
        "timeout": 0.1938557125,
        "raw": {
            "window": {
                "pinValue": 1,
                "ticks": 65,
                "event": {
                    "deltaTime": 65,
                    "type": "channel",
                    "subtype": "noteOn",
                    "channel": 9,
                    "noteNumber": 54,
                    "velocity": 84,
                    "lightChannels": [
                        6,
                        7
                    ]
                }
            },
            "outline": {
                "pinValue": 1,
                "ticks": 65,
                "event": {
                    "deltaTime": 65,
                    "type": "channel",
                    "subtype": "noteOn",
                    "channel": 9,
                    "noteNumber": 54,
                    "velocity": 84,
                    "lightChannels": [
                        6,
                        7
                    ]
                }
            }
        }
    },
    {
        "changes": {
            "window": 0,
            "outline": 0
        },
        "timeout": 0.06461857083333333,
        "raw": {
            "window": {
                "pinValue": 0,
                "ticks": 43,
                "event": {
                    "deltaTime": 43,
                    "type": "channel",
                    "subtype": "noteOff",
                    "channel": 9,
                    "noteNumber": 54,
                    "velocity": 0,
                    "lightChannels": [
                        6,
                        7
                    ]
                }
            },
            "outline": {
                "pinValue": 0,
                "ticks": 43,
                "event": {
                    "deltaTime": 43,
                    "type": "channel",
                    "subtype": "noteOff",
                    "channel": 9,
                    "noteNumber": 54,
                    "velocity": 0,
                    "lightChannels": [
                        6,
                        7
                    ]
                }
            }
        }
    },
    {
        "changes": {
            "top-right": 0
        },
        "timeout": 0.11758461249999999,
        "raw": {
            "top-right": {
                "pinValue": 0,
                "ticks": 43,
                "event": {
                    "deltaTime": 43,
                    "type": "channel",
                    "subtype": "noteOff",
                    "channel": 8,
                    "noteNumber": 59,
                    "velocity": 0,
                    "lightChannels": [
                        1
                    ]
                }
            }
        }
    },
    {
        "changes": {
            "col-1": 0,
            "col-3": 0,
            "tree": 0
        },
        "timeout": 0.006355924999999999,
        "raw": {
            "col-1": {
                "pinValue": 0,
                "ticks": 6,
                "event": {
                    "deltaTime": 6,
                    "type": "channel",
                    "subtype": "noteOff",
                    "channel": 7,
                    "noteNumber": 59,
                    "velocity": 0,
                    "lightChannels": [
                        3,
                        5,
                        9
                    ]
                }
            },
            "col-3": {
                "pinValue": 0,
                "ticks": 6,
                "event": {
                    "deltaTime": 6,
                    "type": "channel",
                    "subtype": "noteOff",
                    "channel": 7,
                    "noteNumber": 59,
                    "velocity": 0,
                    "lightChannels": [
                        3,
                        5,
                        9
                    ]
                }
            },
            "tree": {
                "pinValue": 0,
                "ticks": 6,
                "event": {
                    "deltaTime": 6,
                    "type": "channel",
                    "subtype": "noteOff",
                    "channel": 7,
                    "noteNumber": 59,
                    "velocity": 0,
                    "lightChannels": [
                        3,
                        5,
                        9
                    ]
                }
            }
        }
    },
    {
        "changes": {
            "bottom-right": 1
        },
        "timeout": 0.03601690833333333,
        "raw": {
            "bottom-right": {
                "pinValue": 1,
                "ticks": 11,
                "event": {
                    "deltaTime": 11,
                    "type": "channel",
                    "subtype": "noteOn",
                    "channel": 8,
                    "noteNumber": 63,
                    "velocity": 122,
                    "lightChannels": [
                        2
                    ]
                }
            }
        }
    },
    {
        "changes": {
            "col-2": 1,
            "garden": 1
        },
        "timeout": 0.007415245833333332,
        "raw": {
            "col-2": {
                "pinValue": 1,
                "ticks": 3,
                "event": {
                    "deltaTime": 3,
                    "type": "channel",
                    "subtype": "noteOn",
                    "channel": 7,
                    "noteNumber": 59,
                    "velocity": 89,
                    "lightChannels": [
                        4,
                        8
                    ]
                }
            },
            "garden": {
                "pinValue": 1,
                "ticks": 3,
                "event": {
                    "deltaTime": 3,
                    "type": "channel",
                    "subtype": "noteOn",
                    "channel": 7,
                    "noteNumber": 59,
                    "velocity": 89,
                    "lightChannels": [
                        4,
                        8
                    ]
                }
            }
        }
    },
    {
        "changes": {
            "window": 1,
            "outline": 1
        },
        "timeout": 0.03389826666666666,
        "raw": {
            "window": {
                "pinValue": 1,
                "ticks": 2,
                "event": {
                    "deltaTime": 2,
                    "type": "channel",
                    "subtype": "noteOn",
                    "channel": 9,
                    "noteNumber": 54,
                    "velocity": 79,
                    "lightChannels": [
                        6,
                        7
                    ]
                }
            },
            "outline": {
                "pinValue": 1,
                "ticks": 2,
                "event": {
                    "deltaTime": 2,
                    "type": "channel",
                    "subtype": "noteOn",
                    "channel": 9,
                    "noteNumber": 54,
                    "velocity": 79,
                    "lightChannels": [
                        6,
                        7
                    ]
                }
            }
        }
    },
    {
        "changes": {
            "window": 0,
            "outline": 0
        },
        "timeout": 0.06038128749999999,
        "raw": {
            "window": {
                "pinValue": 0,
                "ticks": 57,
                "event": {
                    "deltaTime": 57,
                    "type": "channel",
                    "subtype": "noteOff",
                    "channel": 9,
                    "noteNumber": 54,
                    "velocity": 0,
                    "lightChannels": [
                        6,
                        7
                    ]
                }
            },
            "outline": {
                "pinValue": 0,
                "ticks": 57,
                "event": {
                    "deltaTime": 57,
                    "type": "channel",
                    "subtype": "noteOff",
                    "channel": 9,
                    "noteNumber": 54,
                    "velocity": 0,
                    "lightChannels": [
                        6,
                        7
                    ]
                }
            }
        }
    },
    {
        "changes": {
            "window": 1,
            "outline": 1
        },
        "timeout": 0.18749978749999996,
        "raw": {
            "window": {
                "pinValue": 1,
                "ticks": 1,
                "event": {
                    "deltaTime": 1,
                    "type": "channel",
                    "subtype": "noteOn",
                    "channel": 9,
                    "noteNumber": 54,
                    "velocity": 83,
                    "lightChannels": [
                        6,
                        7
                    ]
                }
            },
            "outline": {
                "pinValue": 1,
                "ticks": 1,
                "event": {
                    "deltaTime": 1,
                    "type": "channel",
                    "subtype": "noteOn",
                    "channel": 9,
                    "noteNumber": 54,
                    "velocity": 83,
                    "lightChannels": [
                        6,
                        7
                    ]
                }
            }
        }
    },
    {
        "changes": {
            "window": 0,
            "outline": 0
        },
        "timeout": 0.06355925,
        "raw": {
            "window": {
                "pinValue": 0,
                "ticks": 60,
                "event": {
                    "deltaTime": 60,
                    "type": "channel",
                    "subtype": "noteOff",
                    "channel": 9,
                    "noteNumber": 54,
                    "velocity": 0,
                    "lightChannels": [
                        6,
                        7
                    ]
                }
            },
            "outline": {
                "pinValue": 0,
                "ticks": 60,
                "event": {
                    "deltaTime": 60,
                    "type": "channel",
                    "subtype": "noteOff",
                    "channel": 9,
                    "noteNumber": 54,
                    "velocity": 0,
                    "lightChannels": [
                        6,
                        7
                    ]
                }
            }
        }
    },
    {
        "changes": {
            "bottom-right": 0
        },
        "timeout": 0.1239405375,
        "raw": {
            "bottom-right": {
                "pinValue": 0,
                "ticks": 22,
                "event": {
                    "deltaTime": 22,
                    "type": "channel",
                    "subtype": "noteOff",
                    "channel": 8,
                    "noteNumber": 63,
                    "velocity": 0,
                    "lightChannels": [
                        2
                    ]
                }
            }
        }
    },
    {
        "changes": {
            "col-2": 0,
            "garden": 0
        },
        "timeout": 0.011652529166666665,
        "raw": {
            "col-2": {
                "pinValue": 0,
                "ticks": 11,
                "event": {
                    "deltaTime": 11,
                    "type": "channel",
                    "subtype": "noteOff",
                    "channel": 7,
                    "noteNumber": 59,
                    "velocity": 0,
                    "lightChannels": [
                        4,
                        8
                    ]
                }
            },
            "garden": {
                "pinValue": 0,
                "ticks": 11,
                "event": {
                    "deltaTime": 11,
                    "type": "channel",
                    "subtype": "noteOff",
                    "channel": 7,
                    "noteNumber": 59,
                    "velocity": 0,
                    "lightChannels": [
                        4,
                        8
                    ]
                }
            }
        }
    },
    {
        "changes": {
            "col-1": 1,
            "col-2": 1,
            "col-3": 1
        },
        "timeout": 0.03389826666666666,
        "raw": {
            "col-1": {
                "pinValue": 1,
                "ticks": 19,
                "event": {
                    "deltaTime": 19,
                    "type": "channel",
                    "subtype": "noteOn",
                    "channel": 7,
                    "noteNumber": 59,
                    "velocity": 91,
                    "lightChannels": [
                        3,
                        4,
                        5
                    ]
                }
            },
            "col-2": {
                "pinValue": 1,
                "ticks": 19,
                "event": {
                    "deltaTime": 19,
                    "type": "channel",
                    "subtype": "noteOn",
                    "channel": 7,
                    "noteNumber": 59,
                    "velocity": 91,
                    "lightChannels": [
                        3,
                        4,
                        5
                    ]
                }
            },
            "col-3": {
                "pinValue": 1,
                "ticks": 19,
                "event": {
                    "deltaTime": 19,
                    "type": "channel",
                    "subtype": "noteOn",
                    "channel": 7,
                    "noteNumber": 59,
                    "velocity": 91,
                    "lightChannels": [
                        3,
                        4,
                        5
                    ]
                }
            }
        }
    },
    {
        "changes": {
            "window": 1,
            "outline": 1
        },
        "timeout": 0.008474566666666666,
        "raw": {
            "window": {
                "pinValue": 1,
                "ticks": 3,
                "event": {
                    "deltaTime": 3,
                    "type": "channel",
                    "subtype": "noteOn",
                    "channel": 9,
                    "noteNumber": 54,
                    "velocity": 85,
                    "lightChannels": [
                        6,
                        7
                    ]
                }
            },
            "outline": {
                "pinValue": 1,
                "ticks": 3,
                "event": {
                    "deltaTime": 3,
                    "type": "channel",
                    "subtype": "noteOn",
                    "channel": 9,
                    "noteNumber": 54,
                    "velocity": 85,
                    "lightChannels": [
                        6,
                        7
                    ]
                }
            }
        }
    },
    {
        "changes": {
            "garage": 1
        },
        "timeout": 0.011652529166666665,
        "raw": {
            "garage": {
                "pinValue": 1,
                "ticks": 8,
                "event": {
                    "deltaTime": 8,
                    "type": "channel",
                    "subtype": "noteOn",
                    "channel": 8,
                    "noteNumber": 54,
                    "velocity": 108,
                    "lightChannels": [
                        0
                    ]
                }
            }
        }
    },
    {
        "changes": {
            "window": 0,
            "outline": 0
        },
        "timeout": 0.06038128749999999,
        "raw": {
            "window": {
                "pinValue": 0,
                "ticks": 57,
                "event": {
                    "deltaTime": 57,
                    "type": "channel",
                    "subtype": "noteOff",
                    "channel": 9,
                    "noteNumber": 54,
                    "velocity": 0,
                    "lightChannels": [
                        6,
                        7
                    ]
                }
            },
            "outline": {
                "pinValue": 0,
                "ticks": 57,
                "event": {
                    "deltaTime": 57,
                    "type": "channel",
                    "subtype": "noteOff",
                    "channel": 9,
                    "noteNumber": 54,
                    "velocity": 0,
                    "lightChannels": [
                        6,
                        7
                    ]
                }
            }
        }
    },
    {
        "changes": {
            "garage": 0
        },
        "timeout": 0.14512695416666666,
        "raw": {
            "garage": {
                "pinValue": 0,
                "ticks": 7,
                "event": {
                    "deltaTime": 7,
                    "type": "channel",
                    "subtype": "noteOff",
                    "channel": 8,
                    "noteNumber": 54,
                    "velocity": 0,
                    "lightChannels": [
                        0
                    ]
                }
            }
        }
    },
    {
        "changes": {
            "top-right": 1
        },
        "timeout": 0.021186416666666666,
        "raw": {
            "top-right": {
                "pinValue": 1,
                "ticks": 2,
                "event": {
                    "deltaTime": 2,
                    "type": "channel",
                    "subtype": "noteOn",
                    "channel": 8,
                    "noteNumber": 55,
                    "velocity": 119,
                    "lightChannels": [
                        1
                    ]
                }
            }
        }
    },
    {
        "changes": {
            "window": 1,
            "outline": 1
        },
        "timeout": 0.021186416666666666,
        "raw": {
            "window": {
                "pinValue": 1,
                "ticks": 0,
                "event": {
                    "deltaTime": 0,
                    "type": "channel",
                    "subtype": "noteOn",
                    "channel": 9,
                    "noteNumber": 54,
                    "velocity": 79,
                    "lightChannels": [
                        6,
                        7
                    ]
                }
            },
            "outline": {
                "pinValue": 1,
                "ticks": 0,
                "event": {
                    "deltaTime": 0,
                    "type": "channel",
                    "subtype": "noteOn",
                    "channel": 9,
                    "noteNumber": 54,
                    "velocity": 79,
                    "lightChannels": [
                        6,
                        7
                    ]
                }
            }
        }
    },
    {
        "changes": {
            "window": 0,
            "outline": 0
        },
        "timeout": 0.06567789166666665,
        "raw": {
            "window": {
                "pinValue": 0,
                "ticks": 62,
                "event": {
                    "deltaTime": 62,
                    "type": "channel",
                    "subtype": "noteOff",
                    "channel": 9,
                    "noteNumber": 54,
                    "velocity": 0,
                    "lightChannels": [
                        6,
                        7
                    ]
                }
            },
            "outline": {
                "pinValue": 0,
                "ticks": 62,
                "event": {
                    "deltaTime": 62,
                    "type": "channel",
                    "subtype": "noteOff",
                    "channel": 9,
                    "noteNumber": 54,
                    "velocity": 0,
                    "lightChannels": [
                        6,
                        7
                    ]
                }
            }
        }
    },
    {
        "changes": {
            "col-1": 0,
            "col-2": 0,
            "col-3": 0
        },
        "timeout": 0.047669437499999995,
        "raw": {
            "col-1": {
                "pinValue": 0,
                "ticks": 45,
                "event": {
                    "deltaTime": 45,
                    "type": "channel",
                    "subtype": "noteOff",
                    "channel": 7,
                    "noteNumber": 59,
                    "velocity": 0,
                    "lightChannels": [
                        3,
                        4,
                        5
                    ]
                }
            },
            "col-2": {
                "pinValue": 0,
                "ticks": 45,
                "event": {
                    "deltaTime": 45,
                    "type": "channel",
                    "subtype": "noteOff",
                    "channel": 7,
                    "noteNumber": 59,
                    "velocity": 0,
                    "lightChannels": [
                        3,
                        4,
                        5
                    ]
                }
            },
            "col-3": {
                "pinValue": 0,
                "ticks": 45,
                "event": {
                    "deltaTime": 45,
                    "type": "channel",
                    "subtype": "noteOff",
                    "channel": 7,
                    "noteNumber": 59,
                    "velocity": 0,
                    "lightChannels": [
                        3,
                        4,
                        5
                    ]
                }
            }
        }
    },
    {
        "changes": {
            "top-right": 0
        },
        "timeout": 0.07944906249999999,
        "raw": {
            "top-right": {
                "pinValue": 0,
                "ticks": 75,
                "event": {
                    "deltaTime": 75,
                    "type": "channel",
                    "subtype": "noteOff",
                    "channel": 8,
                    "noteNumber": 55,
                    "velocity": 0,
                    "lightChannels": [
                        1
                    ]
                }
            }
        }
    },
    {
        "changes": {
            "tree": 1
        },
        "timeout": 0.03389826666666666,
        "raw": {
            "tree": {
                "pinValue": 1,
                "ticks": 2,
                "event": {
                    "deltaTime": 2,
                    "type": "channel",
                    "subtype": "noteOn",
                    "channel": 7,
                    "noteNumber": 59,
                    "velocity": 88,
                    "lightChannels": [
                        9
                    ]
                }
            }
        }
    },
    {
        "changes": {
            "bottom-right": 1
        },
        "timeout": 0.0158898125,
        "raw": {
            "bottom-right": {
                "pinValue": 1,
                "ticks": 9,
                "event": {
                    "deltaTime": 9,
                    "type": "channel",
                    "subtype": "noteOn",
                    "channel": 8,
                    "noteNumber": 56,
                    "velocity": 114,
                    "lightChannels": [
                        2
                    ]
                }
            }
        }
    },
    {
        "changes": {
            "window": 1,
            "outline": 1
        },
        "timeout": 0.019067775,
        "raw": {
            "window": {
                "pinValue": 1,
                "ticks": 3,
                "event": {
                    "deltaTime": 3,
                    "type": "channel",
                    "subtype": "noteOn",
                    "channel": 9,
                    "noteNumber": 54,
                    "velocity": 85,
                    "lightChannels": [
                        6,
                        7
                    ]
                }
            },
            "outline": {
                "pinValue": 1,
                "ticks": 3,
                "event": {
                    "deltaTime": 3,
                    "type": "channel",
                    "subtype": "noteOn",
                    "channel": 9,
                    "noteNumber": 54,
                    "velocity": 85,
                    "lightChannels": [
                        6,
                        7
                    ]
                }
            }
        }
    },
    {
        "changes": {
            "window": 0,
            "outline": 0
        },
        "timeout": 0.06673721249999999,
        "raw": {
            "window": {
                "pinValue": 0,
                "ticks": 63,
                "event": {
                    "deltaTime": 63,
                    "type": "channel",
                    "subtype": "noteOff",
                    "channel": 9,
                    "noteNumber": 54,
                    "velocity": 0,
                    "lightChannels": [
                        6,
                        7
                    ]
                }
            },
            "outline": {
                "pinValue": 0,
                "ticks": 63,
                "event": {
                    "deltaTime": 63,
                    "type": "channel",
                    "subtype": "noteOff",
                    "channel": 9,
                    "noteNumber": 54,
                    "velocity": 0,
                    "lightChannels": [
                        6,
                        7
                    ]
                }
            }
        }
    },
    {
        "changes": {
            "window": 1,
            "outline": 1
        },
        "timeout": 0.1949150333333333,
        "raw": {
            "window": {
                "pinValue": 1,
                "ticks": 17,
                "event": {
                    "deltaTime": 17,
                    "type": "channel",
                    "subtype": "noteOn",
                    "channel": 9,
                    "noteNumber": 54,
                    "velocity": 79,
                    "lightChannels": [
                        6,
                        7
                    ]
                }
            },
            "outline": {
                "pinValue": 1,
                "ticks": 17,
                "event": {
                    "deltaTime": 17,
                    "type": "channel",
                    "subtype": "noteOn",
                    "channel": 9,
                    "noteNumber": 54,
                    "velocity": 79,
                    "lightChannels": [
                        6,
                        7
                    ]
                }
            }
        }
    },
    {
        "changes": {
            "window": 0,
            "outline": 0
        },
        "timeout": 0.06567789166666665,
        "raw": {
            "window": {
                "pinValue": 0,
                "ticks": 62,
                "event": {
                    "deltaTime": 62,
                    "type": "channel",
                    "subtype": "noteOff",
                    "channel": 9,
                    "noteNumber": 54,
                    "velocity": 0,
                    "lightChannels": [
                        6,
                        7
                    ]
                }
            },
            "outline": {
                "pinValue": 0,
                "ticks": 62,
                "event": {
                    "deltaTime": 62,
                    "type": "channel",
                    "subtype": "noteOff",
                    "channel": 9,
                    "noteNumber": 54,
                    "velocity": 0,
                    "lightChannels": [
                        6,
                        7
                    ]
                }
            }
        }
    },
    {
        "changes": {
            "bottom-right": 0
        },
        "timeout": 0.07521177916666666,
        "raw": {
            "bottom-right": {
                "pinValue": 0,
                "ticks": 71,
                "event": {
                    "deltaTime": 71,
                    "type": "channel",
                    "subtype": "noteOff",
                    "channel": 8,
                    "noteNumber": 56,
                    "velocity": 0,
                    "lightChannels": [
                        2
                    ]
                }
            }
        }
    },
    {
        "changes": {
            "tree": 0
        },
        "timeout": 0.019067775,
        "raw": {
            "tree": {
                "pinValue": 0,
                "ticks": 18,
                "event": {
                    "deltaTime": 18,
                    "type": "channel",
                    "subtype": "noteOff",
                    "channel": 7,
                    "noteNumber": 59,
                    "velocity": 0,
                    "lightChannels": [
                        9
                    ]
                }
            }
        }
    },
    {
        "changes": {
            "garage": 1
        },
        "timeout": 0.041313512499999996,
        "raw": {
            "garage": {
                "pinValue": 1,
                "ticks": 5,
                "event": {
                    "deltaTime": 5,
                    "type": "channel",
                    "subtype": "noteOn",
                    "channel": 8,
                    "noteNumber": 58,
                    "velocity": 112,
                    "lightChannels": [
                        0
                    ]
                }
            }
        }
    },
    {
        "changes": {
            "col-3": 1
        },
        "timeout": 0.025423699999999997,
        "raw": {
            "col-3": {
                "pinValue": 1,
                "ticks": 6,
                "event": {
                    "deltaTime": 6,
                    "type": "channel",
                    "subtype": "noteOn",
                    "channel": 7,
                    "noteNumber": 64,
                    "velocity": 89,
                    "lightChannels": [
                        5
                    ]
                }
            }
        }
    },
    {
        "changes": {
            "window": 1,
            "outline": 1
        },
        "timeout": 0.024364379166666665,
        "raw": {
            "window": {
                "pinValue": 1,
                "ticks": 13,
                "event": {
                    "deltaTime": 13,
                    "type": "channel",
                    "subtype": "noteOn",
                    "channel": 9,
                    "noteNumber": 54,
                    "velocity": 84,
                    "lightChannels": [
                        6,
                        7
                    ]
                }
            },
            "outline": {
                "pinValue": 1,
                "ticks": 13,
                "event": {
                    "deltaTime": 13,
                    "type": "channel",
                    "subtype": "noteOn",
                    "channel": 9,
                    "noteNumber": 54,
                    "velocity": 84,
                    "lightChannels": [
                        6,
                        7
                    ]
                }
            }
        }
    },
    {
        "changes": {
            "window": 0,
            "outline": 0
        },
        "timeout": 0.06461857083333332,
        "raw": {
            "window": {
                "pinValue": 0,
                "ticks": 61,
                "event": {
                    "deltaTime": 61,
                    "type": "channel",
                    "subtype": "noteOff",
                    "channel": 9,
                    "noteNumber": 54,
                    "velocity": 0,
                    "lightChannels": [
                        6,
                        7
                    ]
                }
            },
            "outline": {
                "pinValue": 0,
                "ticks": 61,
                "event": {
                    "deltaTime": 61,
                    "type": "channel",
                    "subtype": "noteOff",
                    "channel": 9,
                    "noteNumber": 54,
                    "velocity": 0,
                    "lightChannels": [
                        6,
                        7
                    ]
                }
            }
        }
    },
    {
        "changes": {
            "window": 1,
            "outline": 1
        },
        "timeout": 0.18749978749999996,
        "raw": {
            "window": {
                "pinValue": 1,
                "ticks": 22,
                "event": {
                    "deltaTime": 22,
                    "type": "channel",
                    "subtype": "noteOn",
                    "channel": 9,
                    "noteNumber": 54,
                    "velocity": 83,
                    "lightChannels": [
                        6,
                        7
                    ]
                }
            },
            "outline": {
                "pinValue": 1,
                "ticks": 22,
                "event": {
                    "deltaTime": 22,
                    "type": "channel",
                    "subtype": "noteOn",
                    "channel": 9,
                    "noteNumber": 54,
                    "velocity": 83,
                    "lightChannels": [
                        6,
                        7
                    ]
                }
            }
        }
    },
    {
        "changes": {
            "window": 0,
            "outline": 0
        },
        "timeout": 0.06249992916666666,
        "raw": {
            "window": {
                "pinValue": 0,
                "ticks": 59,
                "event": {
                    "deltaTime": 59,
                    "type": "channel",
                    "subtype": "noteOff",
                    "channel": 9,
                    "noteNumber": 54,
                    "velocity": 0,
                    "lightChannels": [
                        6,
                        7
                    ]
                }
            },
            "outline": {
                "pinValue": 0,
                "ticks": 59,
                "event": {
                    "deltaTime": 59,
                    "type": "channel",
                    "subtype": "noteOff",
                    "channel": 9,
                    "noteNumber": 54,
                    "velocity": 0,
                    "lightChannels": [
                        6,
                        7
                    ]
                }
            }
        }
    },
    {
        "changes": {
            "garage": 0
        },
        "timeout": 0.09322023333333332,
        "raw": {
            "garage": {
                "pinValue": 0,
                "ticks": 88,
                "event": {
                    "deltaTime": 88,
                    "type": "channel",
                    "subtype": "noteOff",
                    "channel": 8,
                    "noteNumber": 58,
                    "velocity": 0,
                    "lightChannels": [
                        0
                    ]
                }
            }
        }
    },
    {
        "changes": {
            "col-3": 0
        },
        "timeout": 0.0052966041666666665,
        "raw": {
            "col-3": {
                "pinValue": 0,
                "ticks": 5,
                "event": {
                    "deltaTime": 5,
                    "type": "channel",
                    "subtype": "noteOff",
                    "channel": 7,
                    "noteNumber": 64,
                    "velocity": 0,
                    "lightChannels": [
                        5
                    ]
                }
            }
        }
    },
    {
        "changes": {
            "top-right": 1
        },
        "timeout": 0.04978807916666666,
        "raw": {
            "top-right": {
                "pinValue": 1,
                "ticks": 0,
                "event": {
                    "deltaTime": 0,
                    "type": "channel",
                    "subtype": "noteOn",
                    "channel": 8,
                    "noteNumber": 59,
                    "velocity": 125,
                    "lightChannels": [
                        1
                    ]
                }
            }
        }
    },
    {
        "changes": {
            "col-2": 1
        },
        "timeout": 0.006355924999999999,
        "raw": {
            "col-2": {
                "pinValue": 1,
                "ticks": 6,
                "event": {
                    "deltaTime": 6,
                    "type": "channel",
                    "subtype": "noteOn",
                    "channel": 7,
                    "noteNumber": 63,
                    "velocity": 99,
                    "lightChannels": [
                        4
                    ]
                }
            }
        }
    },
    {
        "changes": {
            "window": 1,
            "outline": 1
        },
        "timeout": 0.03389826666666666,
        "raw": {
            "window": {
                "pinValue": 1,
                "ticks": 12,
                "event": {
                    "deltaTime": 12,
                    "type": "channel",
                    "subtype": "noteOn",
                    "channel": 9,
                    "noteNumber": 54,
                    "velocity": 81,
                    "lightChannels": [
                        6,
                        7
                    ]
                }
            },
            "outline": {
                "pinValue": 1,
                "ticks": 12,
                "event": {
                    "deltaTime": 12,
                    "type": "channel",
                    "subtype": "noteOn",
                    "channel": 9,
                    "noteNumber": 54,
                    "velocity": 81,
                    "lightChannels": [
                        6,
                        7
                    ]
                }
            }
        }
    },
    {
        "changes": {
            "window": 0,
            "outline": 0
        },
        "timeout": 0.06461857083333332,
        "raw": {
            "window": {
                "pinValue": 0,
                "ticks": 54,
                "event": {
                    "deltaTime": 54,
                    "type": "channel",
                    "subtype": "noteOff",
                    "channel": 9,
                    "noteNumber": 54,
                    "velocity": 0,
                    "lightChannels": [
                        6,
                        7
                    ]
                }
            },
            "outline": {
                "pinValue": 0,
                "ticks": 54,
                "event": {
                    "deltaTime": 54,
                    "type": "channel",
                    "subtype": "noteOff",
                    "channel": 9,
                    "noteNumber": 54,
                    "velocity": 0,
                    "lightChannels": [
                        6,
                        7
                    ]
                }
            }
        }
    },
    {
        "changes": {
            "window": 1,
            "outline": 1
        },
        "timeout": 0.19915231666666663,
        "raw": {
            "window": {
                "pinValue": 1,
                "ticks": 19,
                "event": {
                    "deltaTime": 19,
                    "type": "channel",
                    "subtype": "noteOn",
                    "channel": 9,
                    "noteNumber": 54,
                    "velocity": 79,
                    "lightChannels": [
                        6,
                        7
                    ]
                }
            },
            "outline": {
                "pinValue": 1,
                "ticks": 19,
                "event": {
                    "deltaTime": 19,
                    "type": "channel",
                    "subtype": "noteOn",
                    "channel": 9,
                    "noteNumber": 54,
                    "velocity": 79,
                    "lightChannels": [
                        6,
                        7
                    ]
                }
            }
        }
    },
    {
        "changes": {
            "window": 0,
            "outline": 0
        },
        "timeout": 0.06461857083333332,
        "raw": {
            "window": {
                "pinValue": 0,
                "ticks": 61,
                "event": {
                    "deltaTime": 61,
                    "type": "channel",
                    "subtype": "noteOff",
                    "channel": 9,
                    "noteNumber": 54,
                    "velocity": 0,
                    "lightChannels": [
                        6,
                        7
                    ]
                }
            },
            "outline": {
                "pinValue": 0,
                "ticks": 61,
                "event": {
                    "deltaTime": 61,
                    "type": "channel",
                    "subtype": "noteOff",
                    "channel": 9,
                    "noteNumber": 54,
                    "velocity": 0,
                    "lightChannels": [
                        6,
                        7
                    ]
                }
            }
        }
    },
    {
        "changes": {
            "top-right": 0
        },
        "timeout": 0.09533887499999999,
        "raw": {
            "top-right": {
                "pinValue": 0,
                "ticks": 90,
                "event": {
                    "deltaTime": 90,
                    "type": "channel",
                    "subtype": "noteOff",
                    "channel": 8,
                    "noteNumber": 59,
                    "velocity": 0,
                    "lightChannels": [
                        1
                    ]
                }
            }
        }
    },
    {
        "changes": {
            "col-2": 0
        },
        "timeout": 0.006355924999999999,
        "raw": {
            "col-2": {
                "pinValue": 0,
                "ticks": 6,
                "event": {
                    "deltaTime": 6,
                    "type": "channel",
                    "subtype": "noteOff",
                    "channel": 7,
                    "noteNumber": 63,
                    "velocity": 0,
                    "lightChannels": [
                        4
                    ]
                }
            }
        }
    },
    {
        "changes": {
            "bottom-right": 1
        },
        "timeout": 0.05402536249999999,
        "raw": {
            "bottom-right": {
                "pinValue": 1,
                "ticks": 28,
                "event": {
                    "deltaTime": 28,
                    "type": "channel",
                    "subtype": "noteOn",
                    "channel": 8,
                    "noteNumber": 51,
                    "velocity": 124,
                    "lightChannels": [
                        2
                    ]
                }
            }
        }
    },
    {
        "changes": {
            "col-1": 1
        },
        "timeout": 0.0031779624999999996,
        "raw": {
            "col-1": {
                "pinValue": 1,
                "ticks": 3,
                "event": {
                    "deltaTime": 3,
                    "type": "channel",
                    "subtype": "noteOn",
                    "channel": 7,
                    "noteNumber": 62,
                    "velocity": 95,
                    "lightChannels": [
                        3
                    ]
                }
            }
        }
    },
    {
        "changes": {
            "window": 1,
            "outline": 1
        },
        "timeout": 0.0349575875,
        "raw": {
            "window": {
                "pinValue": 1,
                "ticks": 6,
                "event": {
                    "deltaTime": 6,
                    "type": "channel",
                    "subtype": "noteOn",
                    "channel": 9,
                    "noteNumber": 54,
                    "velocity": 85,
                    "lightChannels": [
                        6,
                        7
                    ]
                }
            },
            "outline": {
                "pinValue": 1,
                "ticks": 6,
                "event": {
                    "deltaTime": 6,
                    "type": "channel",
                    "subtype": "noteOn",
                    "channel": 9,
                    "noteNumber": 54,
                    "velocity": 85,
                    "lightChannels": [
                        6,
                        7
                    ]
                }
            }
        }
    },
    {
        "changes": {
            "window": 0,
            "outline": 0
        },
        "timeout": 0.06567789166666665,
        "raw": {
            "window": {
                "pinValue": 0,
                "ticks": 62,
                "event": {
                    "deltaTime": 62,
                    "type": "channel",
                    "subtype": "noteOff",
                    "channel": 9,
                    "noteNumber": 54,
                    "velocity": 0,
                    "lightChannels": [
                        6,
                        7
                    ]
                }
            },
            "outline": {
                "pinValue": 0,
                "ticks": 62,
                "event": {
                    "deltaTime": 62,
                    "type": "channel",
                    "subtype": "noteOff",
                    "channel": 9,
                    "noteNumber": 54,
                    "velocity": 0,
                    "lightChannels": [
                        6,
                        7
                    ]
                }
            }
        }
    },
    {
        "changes": {
            "window": 1,
            "outline": 1
        },
        "timeout": 0.18644046666666664,
        "raw": {
            "window": {
                "pinValue": 1,
                "ticks": 10,
                "event": {
                    "deltaTime": 10,
                    "type": "channel",
                    "subtype": "noteOn",
                    "channel": 9,
                    "noteNumber": 54,
                    "velocity": 85,
                    "lightChannels": [
                        6,
                        7
                    ]
                }
            },
            "outline": {
                "pinValue": 1,
                "ticks": 10,
                "event": {
                    "deltaTime": 10,
                    "type": "channel",
                    "subtype": "noteOn",
                    "channel": 9,
                    "noteNumber": 54,
                    "velocity": 85,
                    "lightChannels": [
                        6,
                        7
                    ]
                }
            }
        }
    },
    {
        "changes": {
            "window": 0,
            "outline": 0
        },
        "timeout": 0.06038128749999999,
        "raw": {
            "window": {
                "pinValue": 0,
                "ticks": 57,
                "event": {
                    "deltaTime": 57,
                    "type": "channel",
                    "subtype": "noteOff",
                    "channel": 9,
                    "noteNumber": 54,
                    "velocity": 0,
                    "lightChannels": [
                        6,
                        7
                    ]
                }
            },
            "outline": {
                "pinValue": 0,
                "ticks": 57,
                "event": {
                    "deltaTime": 57,
                    "type": "channel",
                    "subtype": "noteOff",
                    "channel": 9,
                    "noteNumber": 54,
                    "velocity": 0,
                    "lightChannels": [
                        6,
                        7
                    ]
                }
            }
        }
    },
    {
        "changes": {
            "bottom-right": 0
        },
        "timeout": 0.08686430833333332,
        "raw": {
            "bottom-right": {
                "pinValue": 0,
                "ticks": 82,
                "event": {
                    "deltaTime": 82,
                    "type": "channel",
                    "subtype": "noteOff",
                    "channel": 8,
                    "noteNumber": 51,
                    "velocity": 0,
                    "lightChannels": [
                        2
                    ]
                }
            }
        }
    },
    {
        "changes": {
            "col-1": 0
        },
        "timeout": 0.02330505833333333,
        "raw": {
            "col-1": {
                "pinValue": 0,
                "ticks": 0,
                "event": {
                    "deltaTime": 0,
                    "type": "channel",
                    "subtype": "noteOff",
                    "channel": 7,
                    "noteNumber": 62,
                    "velocity": 0,
                    "lightChannels": [
                        3
                    ]
                }
            }
        }
    },
    {
        "changes": {
            "col-1": 1
        },
        "timeout": 0.013771170833333332,
        "raw": {
            "col-1": {
                "pinValue": 1,
                "ticks": 13,
                "event": {
                    "deltaTime": 13,
                    "type": "channel",
                    "subtype": "noteOn",
                    "channel": 5,
                    "noteNumber": 72,
                    "velocity": 102,
                    "lightChannels": [
                        3
                    ]
                }
            }
        }
    },
    {
        "changes": {
            "col-1": 1,
            "col-2": 1
        },
        "timeout": 0.03919487083333333,
        "raw": {
            "col-1": {
                "pinValue": 1,
                "ticks": 4,
                "event": {
                    "deltaTime": 4,
                    "type": "channel",
                    "subtype": "noteOn",
                    "channel": 5,
                    "noteNumber": 73,
                    "velocity": 98,
                    "lightChannels": [
                        3,
                        4
                    ]
                }
            },
            "col-2": {
                "pinValue": 1,
                "ticks": 4,
                "event": {
                    "deltaTime": 4,
                    "type": "channel",
                    "subtype": "noteOn",
                    "channel": 5,
                    "noteNumber": 73,
                    "velocity": 98,
                    "lightChannels": [
                        3,
                        4
                    ]
                }
            }
        }
    },
    {
        "changes": {
            "col-1": 0
        },
        "timeout": 0.02012709583333333,
        "raw": {
            "col-1": {
                "pinValue": 0,
                "ticks": 12,
                "event": {
                    "deltaTime": 12,
                    "type": "channel",
                    "subtype": "noteOff",
                    "channel": 5,
                    "noteNumber": 72,
                    "velocity": 0,
                    "lightChannels": [
                        3
                    ]
                }
            }
        }
    },
    {
        "changes": {
            "window": 1,
            "outline": 1
        },
        "timeout": 0.006355925,
        "raw": {
            "window": {
                "pinValue": 1,
                "ticks": 1,
                "event": {
                    "deltaTime": 1,
                    "type": "channel",
                    "subtype": "noteOn",
                    "channel": 9,
                    "noteNumber": 54,
                    "velocity": 98,
                    "lightChannels": [
                        6,
                        7
                    ]
                }
            },
            "outline": {
                "pinValue": 1,
                "ticks": 1,
                "event": {
                    "deltaTime": 1,
                    "type": "channel",
                    "subtype": "noteOn",
                    "channel": 9,
                    "noteNumber": 54,
                    "velocity": 98,
                    "lightChannels": [
                        6,
                        7
                    ]
                }
            }
        }
    },
    {
        "changes": {
            "col-1": 1,
            "col-2": 1,
            "col-3": 1
        },
        "timeout": 0.037076229166666655,
        "raw": {
            "col-1": {
                "pinValue": 1,
                "ticks": 5,
                "event": {
                    "deltaTime": 5,
                    "type": "channel",
                    "subtype": "noteOn",
                    "channel": 5,
                    "noteNumber": 74,
                    "velocity": 103,
                    "lightChannels": [
                        3,
                        4,
                        5
                    ]
                }
            },
            "col-2": {
                "pinValue": 1,
                "ticks": 5,
                "event": {
                    "deltaTime": 5,
                    "type": "channel",
                    "subtype": "noteOn",
                    "channel": 5,
                    "noteNumber": 74,
                    "velocity": 103,
                    "lightChannels": [
                        3,
                        4,
                        5
                    ]
                }
            },
            "col-3": {
                "pinValue": 1,
                "ticks": 5,
                "event": {
                    "deltaTime": 5,
                    "type": "channel",
                    "subtype": "noteOn",
                    "channel": 5,
                    "noteNumber": 74,
                    "velocity": 103,
                    "lightChannels": [
                        3,
                        4,
                        5
                    ]
                }
            }
        }
    },
    {
        "changes": {
            "col-1": 0,
            "col-2": 0
        },
        "timeout": 0.0095338875,
        "raw": {
            "col-1": {
                "pinValue": 0,
                "ticks": 1,
                "event": {
                    "deltaTime": 1,
                    "type": "channel",
                    "subtype": "noteOff",
                    "channel": 5,
                    "noteNumber": 73,
                    "velocity": 0,
                    "lightChannels": [
                        3,
                        4
                    ]
                }
            },
            "col-2": {
                "pinValue": 0,
                "ticks": 1,
                "event": {
                    "deltaTime": 1,
                    "type": "channel",
                    "subtype": "noteOff",
                    "channel": 5,
                    "noteNumber": 73,
                    "velocity": 0,
                    "lightChannels": [
                        3,
                        4
                    ]
                }
            }
        }
    },
    {
        "changes": {
            "window": 0,
            "outline": 0
        },
        "timeout": 0.030720304166666663,
        "raw": {
            "window": {
                "pinValue": 0,
                "ticks": 29,
                "event": {
                    "deltaTime": 29,
                    "type": "channel",
                    "subtype": "noteOff",
                    "channel": 9,
                    "noteNumber": 54,
                    "velocity": 0,
                    "lightChannels": [
                        6,
                        7
                    ]
                }
            },
            "outline": {
                "pinValue": 0,
                "ticks": 29,
                "event": {
                    "deltaTime": 29,
                    "type": "channel",
                    "subtype": "noteOff",
                    "channel": 9,
                    "noteNumber": 54,
                    "velocity": 0,
                    "lightChannels": [
                        6,
                        7
                    ]
                }
            }
        }
    },
    {
        "changes": {
            "col-1": 0,
            "col-2": 0,
            "col-3": 0
        },
        "timeout": 0.03813555,
        "raw": {
            "col-1": {
                "pinValue": 0,
                "ticks": 12,
                "event": {
                    "deltaTime": 12,
                    "type": "channel",
                    "subtype": "noteOff",
                    "channel": 5,
                    "noteNumber": 74,
                    "velocity": 0,
                    "lightChannels": [
                        3,
                        4,
                        5
                    ]
                }
            },
            "col-2": {
                "pinValue": 0,
                "ticks": 12,
                "event": {
                    "deltaTime": 12,
                    "type": "channel",
                    "subtype": "noteOff",
                    "channel": 5,
                    "noteNumber": 74,
                    "velocity": 0,
                    "lightChannels": [
                        3,
                        4,
                        5
                    ]
                }
            },
            "col-3": {
                "pinValue": 0,
                "ticks": 12,
                "event": {
                    "deltaTime": 12,
                    "type": "channel",
                    "subtype": "noteOff",
                    "channel": 5,
                    "noteNumber": 74,
                    "velocity": 0,
                    "lightChannels": [
                        3,
                        4,
                        5
                    ]
                }
            }
        }
    },
    {
        "changes": {
            "col-2": 1
        },
        "timeout": 0.146186275,
        "raw": {
            "col-2": {
                "pinValue": 1,
                "ticks": 4,
                "event": {
                    "deltaTime": 4,
                    "type": "channel",
                    "subtype": "noteOn",
                    "channel": 5,
                    "noteNumber": 69,
                    "velocity": 127,
                    "lightChannels": [
                        4
                    ]
                }
            }
        }
    },
    {
        "changes": {
            "col-2": 0
        },
        "timeout": 0.07203381666666667,
        "raw": {
            "col-2": {
                "pinValue": 0,
                "ticks": 7,
                "event": {
                    "deltaTime": 7,
                    "type": "channel",
                    "subtype": "noteOff",
                    "channel": 5,
                    "noteNumber": 69,
                    "velocity": 0,
                    "lightChannels": [
                        4
                    ]
                }
            }
        }
    },
    {
        "changes": {
            "col-1": 1
        },
        "timeout": 0.17055065416666665,
        "raw": {
            "col-1": {
                "pinValue": 1,
                "ticks": 7,
                "event": {
                    "deltaTime": 7,
                    "type": "channel",
                    "subtype": "noteOn",
                    "channel": 5,
                    "noteNumber": 62,
                    "velocity": 127,
                    "lightChannels": [
                        3
                    ]
                }
            }
        }
    },
    {
        "changes": {
            "col-1": 0
        },
        "timeout": 0.11016936666666667,
        "raw": {
            "col-1": {
                "pinValue": 0,
                "ticks": 1,
                "event": {
                    "deltaTime": 1,
                    "type": "channel",
                    "subtype": "noteOff",
                    "channel": 5,
                    "noteNumber": 62,
                    "velocity": 0,
                    "lightChannels": [
                        3
                    ]
                }
            }
        }
    },
    {
        "changes": {
            "col-1": 1
        },
        "timeout": 0.16843201249999995,
        "raw": {
            "col-1": {
                "pinValue": 1,
                "ticks": 7,
                "event": {
                    "deltaTime": 7,
                    "type": "channel",
                    "subtype": "noteOn",
                    "channel": 4,
                    "noteNumber": 78,
                    "velocity": 103,
                    "lightChannels": [
                        3
                    ]
                }
            }
        }
    },
    {
        "changes": {
            "col-1": 0
        },
        "timeout": 0.0762711,
        "raw": {
            "col-1": {
                "pinValue": 0,
                "ticks": 9,
                "event": {
                    "deltaTime": 9,
                    "type": "channel",
                    "subtype": "noteOff",
                    "channel": 4,
                    "noteNumber": 78,
                    "velocity": 0,
                    "lightChannels": [
                        3
                    ]
                }
            }
        }
    },
    {
        "changes": {
            "col-2": 1
        },
        "timeout": 0.05296604166666666,
        "raw": {
            "col-2": {
                "pinValue": 1,
                "ticks": 12,
                "event": {
                    "deltaTime": 12,
                    "type": "channel",
                    "subtype": "noteOn",
                    "channel": 4,
                    "noteNumber": 79,
                    "velocity": 115,
                    "lightChannels": [
                        4
                    ]
                }
            }
        }
    },
    {
        "changes": {
            "col-2": 0
        },
        "timeout": 0.06885585416666666,
        "raw": {
            "col-2": {
                "pinValue": 0,
                "ticks": 16,
                "event": {
                    "deltaTime": 16,
                    "type": "channel",
                    "subtype": "noteOff",
                    "channel": 4,
                    "noteNumber": 79,
                    "velocity": 0,
                    "lightChannels": [
                        4
                    ]
                }
            }
        }
    },
    {
        "changes": {
            "window": 1,
            "outline": 1
        },
        "timeout": 0.021186416666666666,
        "raw": {
            "window": {
                "pinValue": 1,
                "ticks": 20,
                "event": {
                    "deltaTime": 20,
                    "type": "channel",
                    "subtype": "noteOn",
                    "channel": 9,
                    "noteNumber": 54,
                    "velocity": 71,
                    "lightChannels": [
                        6,
                        7
                    ]
                }
            },
            "outline": {
                "pinValue": 1,
                "ticks": 20,
                "event": {
                    "deltaTime": 20,
                    "type": "channel",
                    "subtype": "noteOn",
                    "channel": 9,
                    "noteNumber": 54,
                    "velocity": 71,
                    "lightChannels": [
                        6,
                        7
                    ]
                }
            }
        }
    },
    {
        "changes": {
            "col-1": 1,
            "col-2": 1,
            "col-3": 1
        },
        "timeout": 0.027542341666666664,
        "raw": {
            "col-1": {
                "pinValue": 1,
                "ticks": 12,
                "event": {
                    "deltaTime": 12,
                    "type": "channel",
                    "subtype": "noteOn",
                    "channel": 4,
                    "noteNumber": 81,
                    "velocity": 116,
                    "lightChannels": [
                        3,
                        4,
                        5
                    ]
                }
            },
            "col-2": {
                "pinValue": 1,
                "ticks": 12,
                "event": {
                    "deltaTime": 12,
                    "type": "channel",
                    "subtype": "noteOn",
                    "channel": 4,
                    "noteNumber": 81,
                    "velocity": 116,
                    "lightChannels": [
                        3,
                        4,
                        5
                    ]
                }
            },
            "col-3": {
                "pinValue": 1,
                "ticks": 12,
                "event": {
                    "deltaTime": 12,
                    "type": "channel",
                    "subtype": "noteOn",
                    "channel": 4,
                    "noteNumber": 81,
                    "velocity": 116,
                    "lightChannels": [
                        3,
                        4,
                        5
                    ]
                }
            }
        }
    },
    {
        "changes": {
            "window": 0,
            "outline": 0
        },
        "timeout": 0.025423699999999997,
        "raw": {
            "window": {
                "pinValue": 0,
                "ticks": 22,
                "event": {
                    "deltaTime": 22,
                    "type": "channel",
                    "subtype": "noteOff",
                    "channel": 9,
                    "noteNumber": 54,
                    "velocity": 0,
                    "lightChannels": [
                        6,
                        7
                    ]
                }
            },
            "outline": {
                "pinValue": 0,
                "ticks": 22,
                "event": {
                    "deltaTime": 22,
                    "type": "channel",
                    "subtype": "noteOff",
                    "channel": 9,
                    "noteNumber": 54,
                    "velocity": 0,
                    "lightChannels": [
                        6,
                        7
                    ]
                }
            }
        }
    },
    {
        "changes": {
            "col-1": 0,
            "col-2": 0,
            "col-3": 0
        },
        "timeout": 0.06144060833333333,
        "raw": {
            "col-1": {
                "pinValue": 0,
                "ticks": 18,
                "event": {
                    "deltaTime": 18,
                    "type": "channel",
                    "subtype": "noteOff",
                    "channel": 4,
                    "noteNumber": 81,
                    "velocity": 0,
                    "lightChannels": [
                        3,
                        4,
                        5
                    ]
                }
            },
            "col-2": {
                "pinValue": 0,
                "ticks": 18,
                "event": {
                    "deltaTime": 18,
                    "type": "channel",
                    "subtype": "noteOff",
                    "channel": 4,
                    "noteNumber": 81,
                    "velocity": 0,
                    "lightChannels": [
                        3,
                        4,
                        5
                    ]
                }
            },
            "col-3": {
                "pinValue": 0,
                "ticks": 18,
                "event": {
                    "deltaTime": 18,
                    "type": "channel",
                    "subtype": "noteOff",
                    "channel": 4,
                    "noteNumber": 81,
                    "velocity": 0,
                    "lightChannels": [
                        3,
                        4,
                        5
                    ]
                }
            }
        }
    },
    {
        "changes": {
            "window": 1,
            "outline": 1
        },
        "timeout": 0.1302964625,
        "raw": {
            "window": {
                "pinValue": 1,
                "ticks": 72,
                "event": {
                    "deltaTime": 72,
                    "type": "channel",
                    "subtype": "noteOn",
                    "channel": 9,
                    "noteNumber": 54,
                    "velocity": 63,
                    "lightChannels": [
                        6,
                        7
                    ]
                }
            },
            "outline": {
                "pinValue": 1,
                "ticks": 72,
                "event": {
                    "deltaTime": 72,
                    "type": "channel",
                    "subtype": "noteOn",
                    "channel": 9,
                    "noteNumber": 54,
                    "velocity": 63,
                    "lightChannels": [
                        6,
                        7
                    ]
                }
            }
        }
    },
    {
        "changes": {
            "col-1": 1,
            "col-2": 1,
            "col-3": 1
        },
        "timeout": 0.019067775,
        "raw": {
            "col-1": {
                "pinValue": 1,
                "ticks": 8,
                "event": {
                    "deltaTime": 8,
                    "type": "channel",
                    "subtype": "noteOn",
                    "channel": 4,
                    "noteNumber": 81,
                    "velocity": 122,
                    "lightChannels": [
                        3,
                        4,
                        5
                    ]
                }
            },
            "col-2": {
                "pinValue": 1,
                "ticks": 8,
                "event": {
                    "deltaTime": 8,
                    "type": "channel",
                    "subtype": "noteOn",
                    "channel": 4,
                    "noteNumber": 81,
                    "velocity": 122,
                    "lightChannels": [
                        3,
                        4,
                        5
                    ]
                }
            },
            "col-3": {
                "pinValue": 1,
                "ticks": 8,
                "event": {
                    "deltaTime": 8,
                    "type": "channel",
                    "subtype": "noteOn",
                    "channel": 4,
                    "noteNumber": 81,
                    "velocity": 122,
                    "lightChannels": [
                        3,
                        4,
                        5
                    ]
                }
            }
        }
    },
    {
        "changes": {
            "window": 0,
            "outline": 0
        },
        "timeout": 0.0349575875,
        "raw": {
            "window": {
                "pinValue": 0,
                "ticks": 25,
                "event": {
                    "deltaTime": 25,
                    "type": "channel",
                    "subtype": "noteOff",
                    "channel": 9,
                    "noteNumber": 54,
                    "velocity": 0,
                    "lightChannels": [
                        6,
                        7
                    ]
                }
            },
            "outline": {
                "pinValue": 0,
                "ticks": 25,
                "event": {
                    "deltaTime": 25,
                    "type": "channel",
                    "subtype": "noteOff",
                    "channel": 9,
                    "noteNumber": 54,
                    "velocity": 0,
                    "lightChannels": [
                        6,
                        7
                    ]
                }
            }
        }
    },
    {
        "changes": {
            "col-1": 0,
            "col-2": 0,
            "col-3": 0
        },
        "timeout": 0.03495758749999999,
        "raw": {
            "col-1": {
                "pinValue": 0,
                "ticks": 3,
                "event": {
                    "deltaTime": 3,
                    "type": "channel",
                    "subtype": "noteOff",
                    "channel": 4,
                    "noteNumber": 81,
                    "velocity": 0,
                    "lightChannels": [
                        3,
                        4,
                        5
                    ]
                }
            },
            "col-2": {
                "pinValue": 0,
                "ticks": 3,
                "event": {
                    "deltaTime": 3,
                    "type": "channel",
                    "subtype": "noteOff",
                    "channel": 4,
                    "noteNumber": 81,
                    "velocity": 0,
                    "lightChannels": [
                        3,
                        4,
                        5
                    ]
                }
            },
            "col-3": {
                "pinValue": 0,
                "ticks": 3,
                "event": {
                    "deltaTime": 3,
                    "type": "channel",
                    "subtype": "noteOff",
                    "channel": 4,
                    "noteNumber": 81,
                    "velocity": 0,
                    "lightChannels": [
                        3,
                        4,
                        5
                    ]
                }
            }
        }
    },
    {
        "changes": {
            "col-1": 1,
            "col-2": 1,
            "col-3": 1
        },
        "timeout": 0.1663133708333333,
        "raw": {
            "col-1": {
                "pinValue": 1,
                "ticks": 2,
                "event": {
                    "deltaTime": 2,
                    "type": "channel",
                    "subtype": "noteOn",
                    "channel": 4,
                    "noteNumber": 81,
                    "velocity": 125,
                    "lightChannels": [
                        3,
                        4,
                        5
                    ]
                }
            },
            "col-2": {
                "pinValue": 1,
                "ticks": 2,
                "event": {
                    "deltaTime": 2,
                    "type": "channel",
                    "subtype": "noteOn",
                    "channel": 4,
                    "noteNumber": 81,
                    "velocity": 125,
                    "lightChannels": [
                        3,
                        4,
                        5
                    ]
                }
            },
            "col-3": {
                "pinValue": 1,
                "ticks": 2,
                "event": {
                    "deltaTime": 2,
                    "type": "channel",
                    "subtype": "noteOn",
                    "channel": 4,
                    "noteNumber": 81,
                    "velocity": 125,
                    "lightChannels": [
                        3,
                        4,
                        5
                    ]
                }
            }
        }
    },
    {
        "changes": {
            "window": 1,
            "outline": 1
        },
        "timeout": 0.0031779624999999996,
        "raw": {
            "window": {
                "pinValue": 1,
                "ticks": 2,
                "event": {
                    "deltaTime": 2,
                    "type": "channel",
                    "subtype": "noteOn",
                    "channel": 9,
                    "noteNumber": 54,
                    "velocity": 80,
                    "lightChannels": [
                        6,
                        7
                    ]
                }
            },
            "outline": {
                "pinValue": 1,
                "ticks": 2,
                "event": {
                    "deltaTime": 2,
                    "type": "channel",
                    "subtype": "noteOn",
                    "channel": 9,
                    "noteNumber": 54,
                    "velocity": 80,
                    "lightChannels": [
                        6,
                        7
                    ]
                }
            }
        }
    },
    {
        "changes": {
            "window": 0,
            "outline": 0
        },
        "timeout": 0.06249992916666666,
        "raw": {
            "window": {
                "pinValue": 0,
                "ticks": 36,
                "event": {
                    "deltaTime": 36,
                    "type": "channel",
                    "subtype": "noteOff",
                    "channel": 9,
                    "noteNumber": 54,
                    "velocity": 0,
                    "lightChannels": [
                        6,
                        7
                    ]
                }
            },
            "outline": {
                "pinValue": 0,
                "ticks": 36,
                "event": {
                    "deltaTime": 36,
                    "type": "channel",
                    "subtype": "noteOff",
                    "channel": 9,
                    "noteNumber": 54,
                    "velocity": 0,
                    "lightChannels": [
                        6,
                        7
                    ]
                }
            }
        }
    },
    {
        "changes": {
            "col-1": 0,
            "col-2": 0,
            "col-3": 0
        },
        "timeout": 0.010593208333333331,
        "raw": {
            "col-1": {
                "pinValue": 0,
                "ticks": 0,
                "event": {
                    "deltaTime": 0,
                    "type": "channel",
                    "subtype": "noteOff",
                    "channel": 4,
                    "noteNumber": 81,
                    "velocity": 0,
                    "lightChannels": [
                        3,
                        4,
                        5
                    ]
                }
            },
            "col-2": {
                "pinValue": 0,
                "ticks": 0,
                "event": {
                    "deltaTime": 0,
                    "type": "channel",
                    "subtype": "noteOff",
                    "channel": 4,
                    "noteNumber": 81,
                    "velocity": 0,
                    "lightChannels": [
                        3,
                        4,
                        5
                    ]
                }
            },
            "col-3": {
                "pinValue": 0,
                "ticks": 0,
                "event": {
                    "deltaTime": 0,
                    "type": "channel",
                    "subtype": "noteOff",
                    "channel": 4,
                    "noteNumber": 81,
                    "velocity": 0,
                    "lightChannels": [
                        3,
                        4,
                        5
                    ]
                }
            }
        }
    },
    {
        "changes": {
            "col-1": 1,
            "col-2": 1,
            "col-3": 1
        },
        "timeout": 0.1758472583333333,
        "raw": {
            "col-1": {
                "pinValue": 1,
                "ticks": 2,
                "event": {
                    "deltaTime": 2,
                    "type": "channel",
                    "subtype": "noteOn",
                    "channel": 4,
                    "noteNumber": 81,
                    "velocity": 125,
                    "lightChannels": [
                        3,
                        4,
                        5
                    ]
                }
            },
            "col-2": {
                "pinValue": 1,
                "ticks": 2,
                "event": {
                    "deltaTime": 2,
                    "type": "channel",
                    "subtype": "noteOn",
                    "channel": 4,
                    "noteNumber": 81,
                    "velocity": 125,
                    "lightChannels": [
                        3,
                        4,
                        5
                    ]
                }
            },
            "col-3": {
                "pinValue": 1,
                "ticks": 2,
                "event": {
                    "deltaTime": 2,
                    "type": "channel",
                    "subtype": "noteOn",
                    "channel": 4,
                    "noteNumber": 81,
                    "velocity": 125,
                    "lightChannels": [
                        3,
                        4,
                        5
                    ]
                }
            }
        }
    },
    {
        "changes": {
            "window": 1,
            "outline": 1
        },
        "timeout": 0.021186416666666666,
        "raw": {
            "window": {
                "pinValue": 1,
                "ticks": 13,
                "event": {
                    "deltaTime": 13,
                    "type": "channel",
                    "subtype": "noteOn",
                    "channel": 9,
                    "noteNumber": 54,
                    "velocity": 83,
                    "lightChannels": [
                        6,
                        7
                    ]
                }
            },
            "outline": {
                "pinValue": 1,
                "ticks": 13,
                "event": {
                    "deltaTime": 13,
                    "type": "channel",
                    "subtype": "noteOn",
                    "channel": 9,
                    "noteNumber": 54,
                    "velocity": 83,
                    "lightChannels": [
                        6,
                        7
                    ]
                }
            }
        }
    },
    {
        "changes": {
            "col-1": 0,
            "col-2": 0,
            "col-3": 0
        },
        "timeout": 0.0476694375,
        "raw": {
            "col-1": {
                "pinValue": 0,
                "ticks": 4,
                "event": {
                    "deltaTime": 4,
                    "type": "channel",
                    "subtype": "noteOff",
                    "channel": 4,
                    "noteNumber": 81,
                    "velocity": 0,
                    "lightChannels": [
                        3,
                        4,
                        5
                    ]
                }
            },
            "col-2": {
                "pinValue": 0,
                "ticks": 4,
                "event": {
                    "deltaTime": 4,
                    "type": "channel",
                    "subtype": "noteOff",
                    "channel": 4,
                    "noteNumber": 81,
                    "velocity": 0,
                    "lightChannels": [
                        3,
                        4,
                        5
                    ]
                }
            },
            "col-3": {
                "pinValue": 0,
                "ticks": 4,
                "event": {
                    "deltaTime": 4,
                    "type": "channel",
                    "subtype": "noteOff",
                    "channel": 4,
                    "noteNumber": 81,
                    "velocity": 0,
                    "lightChannels": [
                        3,
                        4,
                        5
                    ]
                }
            }
        }
    },
    {
        "changes": {
            "window": 0,
            "outline": 0
        },
        "timeout": 0.010593208333333333,
        "raw": {
            "window": {
                "pinValue": 0,
                "ticks": 10,
                "event": {
                    "deltaTime": 10,
                    "type": "channel",
                    "subtype": "noteOff",
                    "channel": 9,
                    "noteNumber": 54,
                    "velocity": 0,
                    "lightChannels": [
                        6,
                        7
                    ]
                }
            },
            "outline": {
                "pinValue": 0,
                "ticks": 10,
                "event": {
                    "deltaTime": 10,
                    "type": "channel",
                    "subtype": "noteOff",
                    "channel": 9,
                    "noteNumber": 54,
                    "velocity": 0,
                    "lightChannels": [
                        6,
                        7
                    ]
                }
            }
        }
    },
    {
        "changes": {
            "col-1": 1,
            "col-2": 1,
            "col-3": 1
        },
        "timeout": 0.16525404999999999,
        "raw": {
            "col-1": {
                "pinValue": 1,
                "ticks": 0,
                "event": {
                    "deltaTime": 0,
                    "type": "channel",
                    "subtype": "noteOn",
                    "channel": 4,
                    "noteNumber": 81,
                    "velocity": 126,
                    "lightChannels": [
                        3,
                        4,
                        5
                    ]
                }
            },
            "col-2": {
                "pinValue": 1,
                "ticks": 0,
                "event": {
                    "deltaTime": 0,
                    "type": "channel",
                    "subtype": "noteOn",
                    "channel": 4,
                    "noteNumber": 81,
                    "velocity": 126,
                    "lightChannels": [
                        3,
                        4,
                        5
                    ]
                }
            },
            "col-3": {
                "pinValue": 1,
                "ticks": 0,
                "event": {
                    "deltaTime": 0,
                    "type": "channel",
                    "subtype": "noteOn",
                    "channel": 4,
                    "noteNumber": 81,
                    "velocity": 126,
                    "lightChannels": [
                        3,
                        4,
                        5
                    ]
                }
            }
        }
    },
    {
        "changes": {
            "window": 1,
            "outline": 1
        },
        "timeout": 0.02966098333333333,
        "raw": {
            "window": {
                "pinValue": 1,
                "ticks": 0,
                "event": {
                    "deltaTime": 0,
                    "type": "channel",
                    "subtype": "noteOn",
                    "channel": 9,
                    "noteNumber": 54,
                    "velocity": 87,
                    "lightChannels": [
                        6,
                        7
                    ]
                }
            },
            "outline": {
                "pinValue": 1,
                "ticks": 0,
                "event": {
                    "deltaTime": 0,
                    "type": "channel",
                    "subtype": "noteOn",
                    "channel": 9,
                    "noteNumber": 54,
                    "velocity": 87,
                    "lightChannels": [
                        6,
                        7
                    ]
                }
            }
        }
    },
    {
        "changes": {
            "col-1": 0,
            "col-2": 0,
            "col-3": 0
        },
        "timeout": 0.04025419166666667,
        "raw": {
            "col-1": {
                "pinValue": 0,
                "ticks": 1,
                "event": {
                    "deltaTime": 1,
                    "type": "channel",
                    "subtype": "noteOff",
                    "channel": 4,
                    "noteNumber": 81,
                    "velocity": 0,
                    "lightChannels": [
                        3,
                        4,
                        5
                    ]
                }
            },
            "col-2": {
                "pinValue": 0,
                "ticks": 1,
                "event": {
                    "deltaTime": 1,
                    "type": "channel",
                    "subtype": "noteOff",
                    "channel": 4,
                    "noteNumber": 81,
                    "velocity": 0,
                    "lightChannels": [
                        3,
                        4,
                        5
                    ]
                }
            },
            "col-3": {
                "pinValue": 0,
                "ticks": 1,
                "event": {
                    "deltaTime": 1,
                    "type": "channel",
                    "subtype": "noteOff",
                    "channel": 4,
                    "noteNumber": 81,
                    "velocity": 0,
                    "lightChannels": [
                        3,
                        4,
                        5
                    ]
                }
            }
        }
    },
    {
        "changes": {
            "window": 0,
            "outline": 0
        },
        "timeout": 0.019067774999999995,
        "raw": {
            "window": {
                "pinValue": 0,
                "ticks": 1,
                "event": {
                    "deltaTime": 1,
                    "type": "channel",
                    "subtype": "noteOff",
                    "channel": 9,
                    "noteNumber": 54,
                    "velocity": 0,
                    "lightChannels": [
                        6,
                        7
                    ]
                }
            },
            "outline": {
                "pinValue": 0,
                "ticks": 1,
                "event": {
                    "deltaTime": 1,
                    "type": "channel",
                    "subtype": "noteOff",
                    "channel": 9,
                    "noteNumber": 54,
                    "velocity": 0,
                    "lightChannels": [
                        6,
                        7
                    ]
                }
            }
        }
    },
    {
        "changes": {
            "col-1": 1,
            "col-2": 1,
            "col-3": 1
        },
        "timeout": 0.1663133708333333,
        "raw": {
            "col-1": {
                "pinValue": 1,
                "ticks": 54,
                "event": {
                    "deltaTime": 54,
                    "type": "channel",
                    "subtype": "noteOn",
                    "channel": 4,
                    "noteNumber": 81,
                    "velocity": 112,
                    "lightChannels": [
                        3,
                        4,
                        5
                    ]
                }
            },
            "col-2": {
                "pinValue": 1,
                "ticks": 54,
                "event": {
                    "deltaTime": 54,
                    "type": "channel",
                    "subtype": "noteOn",
                    "channel": 4,
                    "noteNumber": 81,
                    "velocity": 112,
                    "lightChannels": [
                        3,
                        4,
                        5
                    ]
                }
            },
            "col-3": {
                "pinValue": 1,
                "ticks": 54,
                "event": {
                    "deltaTime": 54,
                    "type": "channel",
                    "subtype": "noteOn",
                    "channel": 4,
                    "noteNumber": 81,
                    "velocity": 112,
                    "lightChannels": [
                        3,
                        4,
                        5
                    ]
                }
            }
        }
    },
    {
        "changes": {
            "window": 1,
            "outline": 1
        },
        "timeout": 0.025423699999999997,
        "raw": {
            "window": {
                "pinValue": 1,
                "ticks": 16,
                "event": {
                    "deltaTime": 16,
                    "type": "channel",
                    "subtype": "noteOn",
                    "channel": 9,
                    "noteNumber": 54,
                    "velocity": 85,
                    "lightChannels": [
                        6,
                        7
                    ]
                }
            },
            "outline": {
                "pinValue": 1,
                "ticks": 16,
                "event": {
                    "deltaTime": 16,
                    "type": "channel",
                    "subtype": "noteOn",
                    "channel": 9,
                    "noteNumber": 54,
                    "velocity": 85,
                    "lightChannels": [
                        6,
                        7
                    ]
                }
            }
        }
    },
    {
        "changes": {
            "col-1": 0,
            "col-2": 0,
            "col-3": 0
        },
        "timeout": 0.041313512499999996,
        "raw": {
            "col-1": {
                "pinValue": 0,
                "ticks": 39,
                "event": {
                    "deltaTime": 39,
                    "type": "channel",
                    "subtype": "noteOff",
                    "channel": 4,
                    "noteNumber": 81,
                    "velocity": 0,
                    "lightChannels": [
                        3,
                        4,
                        5
                    ]
                }
            },
            "col-2": {
                "pinValue": 0,
                "ticks": 39,
                "event": {
                    "deltaTime": 39,
                    "type": "channel",
                    "subtype": "noteOff",
                    "channel": 4,
                    "noteNumber": 81,
                    "velocity": 0,
                    "lightChannels": [
                        3,
                        4,
                        5
                    ]
                }
            },
            "col-3": {
                "pinValue": 0,
                "ticks": 39,
                "event": {
                    "deltaTime": 39,
                    "type": "channel",
                    "subtype": "noteOff",
                    "channel": 4,
                    "noteNumber": 81,
                    "velocity": 0,
                    "lightChannels": [
                        3,
                        4,
                        5
                    ]
                }
            }
        }
    },
    {
        "changes": {
            "window": 0,
            "outline": 0
        },
        "timeout": 0.021186416666666666,
        "raw": {
            "window": {
                "pinValue": 0,
                "ticks": 8,
                "event": {
                    "deltaTime": 8,
                    "type": "channel",
                    "subtype": "noteOff",
                    "channel": 9,
                    "noteNumber": 54,
                    "velocity": 0,
                    "lightChannels": [
                        6,
                        7
                    ]
                }
            },
            "outline": {
                "pinValue": 0,
                "ticks": 8,
                "event": {
                    "deltaTime": 8,
                    "type": "channel",
                    "subtype": "noteOff",
                    "channel": 9,
                    "noteNumber": 54,
                    "velocity": 0,
                    "lightChannels": [
                        6,
                        7
                    ]
                }
            }
        }
    },
    {
        "changes": {
            "col-1": 1,
            "col-2": 1,
            "col-3": 1
        },
        "timeout": 0.16737269166666666,
        "raw": {
            "col-1": {
                "pinValue": 1,
                "ticks": 4,
                "event": {
                    "deltaTime": 4,
                    "type": "channel",
                    "subtype": "noteOn",
                    "channel": 4,
                    "noteNumber": 81,
                    "velocity": 115,
                    "lightChannels": [
                        3,
                        4,
                        5
                    ]
                }
            },
            "col-2": {
                "pinValue": 1,
                "ticks": 4,
                "event": {
                    "deltaTime": 4,
                    "type": "channel",
                    "subtype": "noteOn",
                    "channel": 4,
                    "noteNumber": 81,
                    "velocity": 115,
                    "lightChannels": [
                        3,
                        4,
                        5
                    ]
                }
            },
            "col-3": {
                "pinValue": 1,
                "ticks": 4,
                "event": {
                    "deltaTime": 4,
                    "type": "channel",
                    "subtype": "noteOn",
                    "channel": 4,
                    "noteNumber": 81,
                    "velocity": 115,
                    "lightChannels": [
                        3,
                        4,
                        5
                    ]
                }
            }
        }
    },
    {
        "changes": {
            "window": 1,
            "outline": 1
        },
        "timeout": 0.02330505833333333,
        "raw": {
            "window": {
                "pinValue": 1,
                "ticks": 12,
                "event": {
                    "deltaTime": 12,
                    "type": "channel",
                    "subtype": "noteOn",
                    "channel": 9,
                    "noteNumber": 54,
                    "velocity": 95,
                    "lightChannels": [
                        6,
                        7
                    ]
                }
            },
            "outline": {
                "pinValue": 1,
                "ticks": 12,
                "event": {
                    "deltaTime": 12,
                    "type": "channel",
                    "subtype": "noteOn",
                    "channel": 9,
                    "noteNumber": 54,
                    "velocity": 95,
                    "lightChannels": [
                        6,
                        7
                    ]
                }
            }
        }
    },
    {
        "changes": {
            "col-1": 0,
            "col-2": 0,
            "col-3": 0
        },
        "timeout": 0.047669437499999995,
        "raw": {
            "col-1": {
                "pinValue": 0,
                "ticks": 6,
                "event": {
                    "deltaTime": 6,
                    "type": "channel",
                    "subtype": "noteOff",
                    "channel": 4,
                    "noteNumber": 81,
                    "velocity": 0,
                    "lightChannels": [
                        3,
                        4,
                        5
                    ]
                }
            },
            "col-2": {
                "pinValue": 0,
                "ticks": 6,
                "event": {
                    "deltaTime": 6,
                    "type": "channel",
                    "subtype": "noteOff",
                    "channel": 4,
                    "noteNumber": 81,
                    "velocity": 0,
                    "lightChannels": [
                        3,
                        4,
                        5
                    ]
                }
            },
            "col-3": {
                "pinValue": 0,
                "ticks": 6,
                "event": {
                    "deltaTime": 6,
                    "type": "channel",
                    "subtype": "noteOff",
                    "channel": 4,
                    "noteNumber": 81,
                    "velocity": 0,
                    "lightChannels": [
                        3,
                        4,
                        5
                    ]
                }
            }
        }
    },
    {
        "changes": {
            "window": 0,
            "outline": 0
        },
        "timeout": 0.018008454166666667,
        "raw": {
            "window": {
                "pinValue": 0,
                "ticks": 2,
                "event": {
                    "deltaTime": 2,
                    "type": "channel",
                    "subtype": "noteOff",
                    "channel": 9,
                    "noteNumber": 54,
                    "velocity": 0,
                    "lightChannels": [
                        6,
                        7
                    ]
                }
            },
            "outline": {
                "pinValue": 0,
                "ticks": 2,
                "event": {
                    "deltaTime": 2,
                    "type": "channel",
                    "subtype": "noteOff",
                    "channel": 9,
                    "noteNumber": 54,
                    "velocity": 0,
                    "lightChannels": [
                        6,
                        7
                    ]
                }
            }
        }
    },
    {
        "changes": {
            "col-1": 1,
            "col-2": 1,
            "col-3": 1
        },
        "timeout": 0.15466084166666666,
        "raw": {
            "col-1": {
                "pinValue": 1,
                "ticks": 69,
                "event": {
                    "deltaTime": 69,
                    "type": "channel",
                    "subtype": "noteOn",
                    "channel": 4,
                    "noteNumber": 81,
                    "velocity": 126,
                    "lightChannels": [
                        3,
                        4,
                        5
                    ]
                }
            },
            "col-2": {
                "pinValue": 1,
                "ticks": 69,
                "event": {
                    "deltaTime": 69,
                    "type": "channel",
                    "subtype": "noteOn",
                    "channel": 4,
                    "noteNumber": 81,
                    "velocity": 126,
                    "lightChannels": [
                        3,
                        4,
                        5
                    ]
                }
            },
            "col-3": {
                "pinValue": 1,
                "ticks": 69,
                "event": {
                    "deltaTime": 69,
                    "type": "channel",
                    "subtype": "noteOn",
                    "channel": 4,
                    "noteNumber": 81,
                    "velocity": 126,
                    "lightChannels": [
                        3,
                        4,
                        5
                    ]
                }
            }
        }
    },
    {
        "changes": {
            "window": 1,
            "outline": 1
        },
        "timeout": 0.013771170833333332,
        "raw": {
            "window": {
                "pinValue": 1,
                "ticks": 6,
                "event": {
                    "deltaTime": 6,
                    "type": "channel",
                    "subtype": "noteOn",
                    "channel": 9,
                    "noteNumber": 54,
                    "velocity": 98,
                    "lightChannels": [
                        6,
                        7
                    ]
                }
            },
            "outline": {
                "pinValue": 1,
                "ticks": 6,
                "event": {
                    "deltaTime": 6,
                    "type": "channel",
                    "subtype": "noteOn",
                    "channel": 9,
                    "noteNumber": 54,
                    "velocity": 98,
                    "lightChannels": [
                        6,
                        7
                    ]
                }
            }
        }
    },
    {
        "changes": {
            "window": 0,
            "outline": 0
        },
        "timeout": 0.07097449583333333,
        "raw": {
            "window": {
                "pinValue": 0,
                "ticks": 0,
                "event": {
                    "deltaTime": 0,
                    "type": "channel",
                    "subtype": "noteOff",
                    "channel": 9,
                    "noteNumber": 54,
                    "velocity": 0,
                    "lightChannels": [
                        6,
                        7
                    ]
                }
            },
            "outline": {
                "pinValue": 0,
                "ticks": 0,
                "event": {
                    "deltaTime": 0,
                    "type": "channel",
                    "subtype": "noteOff",
                    "channel": 9,
                    "noteNumber": 54,
                    "velocity": 0,
                    "lightChannels": [
                        6,
                        7
                    ]
                }
            }
        }
    },
    {
        "changes": {
            "col-1": 0,
            "col-2": 0,
            "col-3": 0
        },
        "timeout": 0.0010593208333333332,
        "raw": {
            "col-1": {
                "pinValue": 0,
                "ticks": 0,
                "event": {
                    "deltaTime": 0,
                    "type": "channel",
                    "subtype": "noteOff",
                    "channel": 4,
                    "noteNumber": 81,
                    "velocity": 0,
                    "lightChannels": [
                        3,
                        4,
                        5
                    ]
                }
            },
            "col-2": {
                "pinValue": 0,
                "ticks": 0,
                "event": {
                    "deltaTime": 0,
                    "type": "channel",
                    "subtype": "noteOff",
                    "channel": 4,
                    "noteNumber": 81,
                    "velocity": 0,
                    "lightChannels": [
                        3,
                        4,
                        5
                    ]
                }
            },
            "col-3": {
                "pinValue": 0,
                "ticks": 0,
                "event": {
                    "deltaTime": 0,
                    "type": "channel",
                    "subtype": "noteOff",
                    "channel": 4,
                    "noteNumber": 81,
                    "velocity": 0,
                    "lightChannels": [
                        3,
                        4,
                        5
                    ]
                }
            }
        }
    },
    {
        "changes": {
            "garage": 1,
            "top-right": 1,
            "bottom-right": 1,
            "col-1": 1,
            "col-2": 1,
            "col-3": 1,
            "window": 1,
            "outline": 1,
            "garden": 1,
            "tree": 1
        },
        "timeout": 0.18008454166666665,
        "raw": {
            "garage": {
                "pinValue": 1,
                "ticks": 2,
                "event": {
                    "deltaTime": 2,
                    "type": "channel",
                    "subtype": "noteOn",
                    "channel": 4,
                    "noteNumber": 83,
                    "velocity": 116,
                    "lightChannels": [
                        0,
                        1,
                        2,
                        3,
                        4,
                        5,
                        6,
                        7,
                        8,
                        9
                    ]
                }
            },
            "top-right": {
                "pinValue": 1,
                "ticks": 2,
                "event": {
                    "deltaTime": 2,
                    "type": "channel",
                    "subtype": "noteOn",
                    "channel": 4,
                    "noteNumber": 83,
                    "velocity": 116,
                    "lightChannels": [
                        0,
                        1,
                        2,
                        3,
                        4,
                        5,
                        6,
                        7,
                        8,
                        9
                    ]
                }
            },
            "bottom-right": {
                "pinValue": 1,
                "ticks": 2,
                "event": {
                    "deltaTime": 2,
                    "type": "channel",
                    "subtype": "noteOn",
                    "channel": 4,
                    "noteNumber": 83,
                    "velocity": 116,
                    "lightChannels": [
                        0,
                        1,
                        2,
                        3,
                        4,
                        5,
                        6,
                        7,
                        8,
                        9
                    ]
                }
            },
            "col-1": {
                "pinValue": 1,
                "ticks": 2,
                "event": {
                    "deltaTime": 2,
                    "type": "channel",
                    "subtype": "noteOn",
                    "channel": 4,
                    "noteNumber": 83,
                    "velocity": 116,
                    "lightChannels": [
                        0,
                        1,
                        2,
                        3,
                        4,
                        5,
                        6,
                        7,
                        8,
                        9
                    ]
                }
            },
            "col-2": {
                "pinValue": 1,
                "ticks": 2,
                "event": {
                    "deltaTime": 2,
                    "type": "channel",
                    "subtype": "noteOn",
                    "channel": 4,
                    "noteNumber": 83,
                    "velocity": 116,
                    "lightChannels": [
                        0,
                        1,
                        2,
                        3,
                        4,
                        5,
                        6,
                        7,
                        8,
                        9
                    ]
                }
            },
            "col-3": {
                "pinValue": 1,
                "ticks": 2,
                "event": {
                    "deltaTime": 2,
                    "type": "channel",
                    "subtype": "noteOn",
                    "channel": 4,
                    "noteNumber": 83,
                    "velocity": 116,
                    "lightChannels": [
                        0,
                        1,
                        2,
                        3,
                        4,
                        5,
                        6,
                        7,
                        8,
                        9
                    ]
                }
            },
            "window": {
                "pinValue": 1,
                "ticks": 2,
                "event": {
                    "deltaTime": 2,
                    "type": "channel",
                    "subtype": "noteOn",
                    "channel": 4,
                    "noteNumber": 83,
                    "velocity": 116,
                    "lightChannels": [
                        0,
                        1,
                        2,
                        3,
                        4,
                        5,
                        6,
                        7,
                        8,
                        9
                    ]
                }
            },
            "outline": {
                "pinValue": 1,
                "ticks": 2,
                "event": {
                    "deltaTime": 2,
                    "type": "channel",
                    "subtype": "noteOn",
                    "channel": 4,
                    "noteNumber": 83,
                    "velocity": 116,
                    "lightChannels": [
                        0,
                        1,
                        2,
                        3,
                        4,
                        5,
                        6,
                        7,
                        8,
                        9
                    ]
                }
            },
            "garden": {
                "pinValue": 1,
                "ticks": 2,
                "event": {
                    "deltaTime": 2,
                    "type": "channel",
                    "subtype": "noteOn",
                    "channel": 4,
                    "noteNumber": 83,
                    "velocity": 116,
                    "lightChannels": [
                        0,
                        1,
                        2,
                        3,
                        4,
                        5,
                        6,
                        7,
                        8,
                        9
                    ]
                }
            },
            "tree": {
                "pinValue": 1,
                "ticks": 2,
                "event": {
                    "deltaTime": 2,
                    "type": "channel",
                    "subtype": "noteOn",
                    "channel": 4,
                    "noteNumber": 83,
                    "velocity": 116,
                    "lightChannels": [
                        0,
                        1,
                        2,
                        3,
                        4,
                        5,
                        6,
                        7,
                        8,
                        9
                    ]
                }
            }
        }
    },
    {
        "changes": {
            "window": 1,
            "outline": 1
        },
        "timeout": 0.0021186416666666664,
        "raw": {
            "window": {
                "pinValue": 1,
                "ticks": 2,
                "event": {
                    "deltaTime": 2,
                    "type": "channel",
                    "subtype": "noteOn",
                    "channel": 9,
                    "noteNumber": 54,
                    "velocity": 98,
                    "lightChannels": [
                        6,
                        7
                    ]
                }
            },
            "outline": {
                "pinValue": 1,
                "ticks": 2,
                "event": {
                    "deltaTime": 2,
                    "type": "channel",
                    "subtype": "noteOn",
                    "channel": 9,
                    "noteNumber": 54,
                    "velocity": 98,
                    "lightChannels": [
                        6,
                        7
                    ]
                }
            }
        }
    },
    {
        "changes": {
            "garage": 1,
            "top-right": 1,
            "bottom-right": 1,
            "col-1": 1,
            "col-2": 1,
            "col-3": 1,
            "window": 1,
            "outline": 1,
            "garden": 1,
            "tree": 1
        },
        "timeout": 0.0052966041666666665,
        "raw": {
            "garage": {
                "pinValue": 1,
                "ticks": 2,
                "event": {
                    "deltaTime": 2,
                    "type": "channel",
                    "subtype": "noteOn",
                    "channel": 4,
                    "noteNumber": 86,
                    "velocity": 127,
                    "lightChannels": [
                        0,
                        1,
                        2,
                        3,
                        4,
                        5,
                        6,
                        7,
                        8,
                        9
                    ]
                }
            },
            "top-right": {
                "pinValue": 1,
                "ticks": 2,
                "event": {
                    "deltaTime": 2,
                    "type": "channel",
                    "subtype": "noteOn",
                    "channel": 4,
                    "noteNumber": 86,
                    "velocity": 127,
                    "lightChannels": [
                        0,
                        1,
                        2,
                        3,
                        4,
                        5,
                        6,
                        7,
                        8,
                        9
                    ]
                }
            },
            "bottom-right": {
                "pinValue": 1,
                "ticks": 2,
                "event": {
                    "deltaTime": 2,
                    "type": "channel",
                    "subtype": "noteOn",
                    "channel": 4,
                    "noteNumber": 86,
                    "velocity": 127,
                    "lightChannels": [
                        0,
                        1,
                        2,
                        3,
                        4,
                        5,
                        6,
                        7,
                        8,
                        9
                    ]
                }
            },
            "col-1": {
                "pinValue": 1,
                "ticks": 2,
                "event": {
                    "deltaTime": 2,
                    "type": "channel",
                    "subtype": "noteOn",
                    "channel": 4,
                    "noteNumber": 86,
                    "velocity": 127,
                    "lightChannels": [
                        0,
                        1,
                        2,
                        3,
                        4,
                        5,
                        6,
                        7,
                        8,
                        9
                    ]
                }
            },
            "col-2": {
                "pinValue": 1,
                "ticks": 2,
                "event": {
                    "deltaTime": 2,
                    "type": "channel",
                    "subtype": "noteOn",
                    "channel": 4,
                    "noteNumber": 86,
                    "velocity": 127,
                    "lightChannels": [
                        0,
                        1,
                        2,
                        3,
                        4,
                        5,
                        6,
                        7,
                        8,
                        9
                    ]
                }
            },
            "col-3": {
                "pinValue": 1,
                "ticks": 2,
                "event": {
                    "deltaTime": 2,
                    "type": "channel",
                    "subtype": "noteOn",
                    "channel": 4,
                    "noteNumber": 86,
                    "velocity": 127,
                    "lightChannels": [
                        0,
                        1,
                        2,
                        3,
                        4,
                        5,
                        6,
                        7,
                        8,
                        9
                    ]
                }
            },
            "window": {
                "pinValue": 1,
                "ticks": 2,
                "event": {
                    "deltaTime": 2,
                    "type": "channel",
                    "subtype": "noteOn",
                    "channel": 4,
                    "noteNumber": 86,
                    "velocity": 127,
                    "lightChannels": [
                        0,
                        1,
                        2,
                        3,
                        4,
                        5,
                        6,
                        7,
                        8,
                        9
                    ]
                }
            },
            "outline": {
                "pinValue": 1,
                "ticks": 2,
                "event": {
                    "deltaTime": 2,
                    "type": "channel",
                    "subtype": "noteOn",
                    "channel": 4,
                    "noteNumber": 86,
                    "velocity": 127,
                    "lightChannels": [
                        0,
                        1,
                        2,
                        3,
                        4,
                        5,
                        6,
                        7,
                        8,
                        9
                    ]
                }
            },
            "garden": {
                "pinValue": 1,
                "ticks": 2,
                "event": {
                    "deltaTime": 2,
                    "type": "channel",
                    "subtype": "noteOn",
                    "channel": 4,
                    "noteNumber": 86,
                    "velocity": 127,
                    "lightChannels": [
                        0,
                        1,
                        2,
                        3,
                        4,
                        5,
                        6,
                        7,
                        8,
                        9
                    ]
                }
            },
            "tree": {
                "pinValue": 1,
                "ticks": 2,
                "event": {
                    "deltaTime": 2,
                    "type": "channel",
                    "subtype": "noteOn",
                    "channel": 4,
                    "noteNumber": 86,
                    "velocity": 127,
                    "lightChannels": [
                        0,
                        1,
                        2,
                        3,
                        4,
                        5,
                        6,
                        7,
                        8,
                        9
                    ]
                }
            }
        }
    },
    {
        "changes": {
            "window": 0,
            "outline": 0
        },
        "timeout": 0.07415245833333331,
        "raw": {
            "window": {
                "pinValue": 0,
                "ticks": 4,
                "event": {
                    "deltaTime": 4,
                    "type": "channel",
                    "subtype": "noteOff",
                    "channel": 9,
                    "noteNumber": 54,
                    "velocity": 0,
                    "lightChannels": [
                        6,
                        7
                    ]
                }
            },
            "outline": {
                "pinValue": 0,
                "ticks": 4,
                "event": {
                    "deltaTime": 4,
                    "type": "channel",
                    "subtype": "noteOff",
                    "channel": 9,
                    "noteNumber": 54,
                    "velocity": 0,
                    "lightChannels": [
                        6,
                        7
                    ]
                }
            }
        }
    },
    {
        "changes": {
            "garage": 0,
            "top-right": 0,
            "bottom-right": 0,
            "col-1": 0,
            "col-2": 0,
            "col-3": 0,
            "window": 0,
            "outline": 0,
            "garden": 0,
            "tree": 0
        },
        "timeout": 0.05190672083333333,
        "raw": {
            "garage": {
                "pinValue": 0,
                "ticks": 23,
                "event": {
                    "deltaTime": 23,
                    "type": "channel",
                    "subtype": "noteOff",
                    "channel": 4,
                    "noteNumber": 83,
                    "velocity": 0,
                    "lightChannels": [
                        0,
                        1,
                        2,
                        3,
                        4,
                        5,
                        6,
                        7,
                        8,
                        9
                    ]
                }
            },
            "top-right": {
                "pinValue": 0,
                "ticks": 23,
                "event": {
                    "deltaTime": 23,
                    "type": "channel",
                    "subtype": "noteOff",
                    "channel": 4,
                    "noteNumber": 83,
                    "velocity": 0,
                    "lightChannels": [
                        0,
                        1,
                        2,
                        3,
                        4,
                        5,
                        6,
                        7,
                        8,
                        9
                    ]
                }
            },
            "bottom-right": {
                "pinValue": 0,
                "ticks": 23,
                "event": {
                    "deltaTime": 23,
                    "type": "channel",
                    "subtype": "noteOff",
                    "channel": 4,
                    "noteNumber": 83,
                    "velocity": 0,
                    "lightChannels": [
                        0,
                        1,
                        2,
                        3,
                        4,
                        5,
                        6,
                        7,
                        8,
                        9
                    ]
                }
            },
            "col-1": {
                "pinValue": 0,
                "ticks": 23,
                "event": {
                    "deltaTime": 23,
                    "type": "channel",
                    "subtype": "noteOff",
                    "channel": 4,
                    "noteNumber": 83,
                    "velocity": 0,
                    "lightChannels": [
                        0,
                        1,
                        2,
                        3,
                        4,
                        5,
                        6,
                        7,
                        8,
                        9
                    ]
                }
            },
            "col-2": {
                "pinValue": 0,
                "ticks": 23,
                "event": {
                    "deltaTime": 23,
                    "type": "channel",
                    "subtype": "noteOff",
                    "channel": 4,
                    "noteNumber": 83,
                    "velocity": 0,
                    "lightChannels": [
                        0,
                        1,
                        2,
                        3,
                        4,
                        5,
                        6,
                        7,
                        8,
                        9
                    ]
                }
            },
            "col-3": {
                "pinValue": 0,
                "ticks": 23,
                "event": {
                    "deltaTime": 23,
                    "type": "channel",
                    "subtype": "noteOff",
                    "channel": 4,
                    "noteNumber": 83,
                    "velocity": 0,
                    "lightChannels": [
                        0,
                        1,
                        2,
                        3,
                        4,
                        5,
                        6,
                        7,
                        8,
                        9
                    ]
                }
            },
            "window": {
                "pinValue": 0,
                "ticks": 23,
                "event": {
                    "deltaTime": 23,
                    "type": "channel",
                    "subtype": "noteOff",
                    "channel": 4,
                    "noteNumber": 83,
                    "velocity": 0,
                    "lightChannels": [
                        0,
                        1,
                        2,
                        3,
                        4,
                        5,
                        6,
                        7,
                        8,
                        9
                    ]
                }
            },
            "outline": {
                "pinValue": 0,
                "ticks": 23,
                "event": {
                    "deltaTime": 23,
                    "type": "channel",
                    "subtype": "noteOff",
                    "channel": 4,
                    "noteNumber": 83,
                    "velocity": 0,
                    "lightChannels": [
                        0,
                        1,
                        2,
                        3,
                        4,
                        5,
                        6,
                        7,
                        8,
                        9
                    ]
                }
            },
            "garden": {
                "pinValue": 0,
                "ticks": 23,
                "event": {
                    "deltaTime": 23,
                    "type": "channel",
                    "subtype": "noteOff",
                    "channel": 4,
                    "noteNumber": 83,
                    "velocity": 0,
                    "lightChannels": [
                        0,
                        1,
                        2,
                        3,
                        4,
                        5,
                        6,
                        7,
                        8,
                        9
                    ]
                }
            },
            "tree": {
                "pinValue": 0,
                "ticks": 23,
                "event": {
                    "deltaTime": 23,
                    "type": "channel",
                    "subtype": "noteOff",
                    "channel": 4,
                    "noteNumber": 83,
                    "velocity": 0,
                    "lightChannels": [
                        0,
                        1,
                        2,
                        3,
                        4,
                        5,
                        6,
                        7,
                        8,
                        9
                    ]
                }
            }
        }
    },
    {
        "changes": {
            "garage": 0,
            "top-right": 0,
            "bottom-right": 0,
            "col-1": 0,
            "col-2": 0,
            "col-3": 0,
            "window": 0,
            "outline": 0,
            "garden": 0,
            "tree": 0
        },
        "timeout": 0.010593208333333333,
        "raw": {
            "garage": {
                "pinValue": 0,
                "ticks": 8,
                "event": {
                    "deltaTime": 8,
                    "type": "channel",
                    "subtype": "noteOff",
                    "channel": 4,
                    "noteNumber": 86,
                    "velocity": 0,
                    "lightChannels": [
                        0,
                        1,
                        2,
                        3,
                        4,
                        5,
                        6,
                        7,
                        8,
                        9
                    ]
                }
            },
            "top-right": {
                "pinValue": 0,
                "ticks": 8,
                "event": {
                    "deltaTime": 8,
                    "type": "channel",
                    "subtype": "noteOff",
                    "channel": 4,
                    "noteNumber": 86,
                    "velocity": 0,
                    "lightChannels": [
                        0,
                        1,
                        2,
                        3,
                        4,
                        5,
                        6,
                        7,
                        8,
                        9
                    ]
                }
            },
            "bottom-right": {
                "pinValue": 0,
                "ticks": 8,
                "event": {
                    "deltaTime": 8,
                    "type": "channel",
                    "subtype": "noteOff",
                    "channel": 4,
                    "noteNumber": 86,
                    "velocity": 0,
                    "lightChannels": [
                        0,
                        1,
                        2,
                        3,
                        4,
                        5,
                        6,
                        7,
                        8,
                        9
                    ]
                }
            },
            "col-1": {
                "pinValue": 0,
                "ticks": 8,
                "event": {
                    "deltaTime": 8,
                    "type": "channel",
                    "subtype": "noteOff",
                    "channel": 4,
                    "noteNumber": 86,
                    "velocity": 0,
                    "lightChannels": [
                        0,
                        1,
                        2,
                        3,
                        4,
                        5,
                        6,
                        7,
                        8,
                        9
                    ]
                }
            },
            "col-2": {
                "pinValue": 0,
                "ticks": 8,
                "event": {
                    "deltaTime": 8,
                    "type": "channel",
                    "subtype": "noteOff",
                    "channel": 4,
                    "noteNumber": 86,
                    "velocity": 0,
                    "lightChannels": [
                        0,
                        1,
                        2,
                        3,
                        4,
                        5,
                        6,
                        7,
                        8,
                        9
                    ]
                }
            },
            "col-3": {
                "pinValue": 0,
                "ticks": 8,
                "event": {
                    "deltaTime": 8,
                    "type": "channel",
                    "subtype": "noteOff",
                    "channel": 4,
                    "noteNumber": 86,
                    "velocity": 0,
                    "lightChannels": [
                        0,
                        1,
                        2,
                        3,
                        4,
                        5,
                        6,
                        7,
                        8,
                        9
                    ]
                }
            },
            "window": {
                "pinValue": 0,
                "ticks": 8,
                "event": {
                    "deltaTime": 8,
                    "type": "channel",
                    "subtype": "noteOff",
                    "channel": 4,
                    "noteNumber": 86,
                    "velocity": 0,
                    "lightChannels": [
                        0,
                        1,
                        2,
                        3,
                        4,
                        5,
                        6,
                        7,
                        8,
                        9
                    ]
                }
            },
            "outline": {
                "pinValue": 0,
                "ticks": 8,
                "event": {
                    "deltaTime": 8,
                    "type": "channel",
                    "subtype": "noteOff",
                    "channel": 4,
                    "noteNumber": 86,
                    "velocity": 0,
                    "lightChannels": [
                        0,
                        1,
                        2,
                        3,
                        4,
                        5,
                        6,
                        7,
                        8,
                        9
                    ]
                }
            },
            "garden": {
                "pinValue": 0,
                "ticks": 8,
                "event": {
                    "deltaTime": 8,
                    "type": "channel",
                    "subtype": "noteOff",
                    "channel": 4,
                    "noteNumber": 86,
                    "velocity": 0,
                    "lightChannels": [
                        0,
                        1,
                        2,
                        3,
                        4,
                        5,
                        6,
                        7,
                        8,
                        9
                    ]
                }
            },
            "tree": {
                "pinValue": 0,
                "ticks": 8,
                "event": {
                    "deltaTime": 8,
                    "type": "channel",
                    "subtype": "noteOff",
                    "channel": 4,
                    "noteNumber": 86,
                    "velocity": 0,
                    "lightChannels": [
                        0,
                        1,
                        2,
                        3,
                        4,
                        5,
                        6,
                        7,
                        8,
                        9
                    ]
                }
            }
        }
    },
    {
        "changes": {
            "window": 1,
            "outline": 1
        },
        "timeout": 0.6355925,
        "raw": {
            "window": {
                "pinValue": 1,
                "ticks": 16,
                "event": {
                    "deltaTime": 16,
                    "type": "channel",
                    "subtype": "noteOn",
                    "channel": 9,
                    "noteNumber": 54,
                    "velocity": 74,
                    "lightChannels": [
                        6,
                        7
                    ]
                }
            },
            "outline": {
                "pinValue": 1,
                "ticks": 16,
                "event": {
                    "deltaTime": 16,
                    "type": "channel",
                    "subtype": "noteOn",
                    "channel": 9,
                    "noteNumber": 54,
                    "velocity": 74,
                    "lightChannels": [
                        6,
                        7
                    ]
                }
            }
        }
    },
    {
        "changes": {
            "garden": 1
        },
        "timeout": 0.0158898125,
        "raw": {
            "garden": {
                "pinValue": 1,
                "ticks": 3,
                "event": {
                    "deltaTime": 3,
                    "type": "channel",
                    "subtype": "noteOn",
                    "channel": 4,
                    "noteNumber": 79,
                    "velocity": 125,
                    "lightChannels": [
                        8
                    ]
                }
            }
        }
    },
    {
        "changes": {
            "window": 0,
            "outline": 0
        },
        "timeout": 0.044491474999999996,
        "raw": {
            "window": {
                "pinValue": 0,
                "ticks": 41,
                "event": {
                    "deltaTime": 41,
                    "type": "channel",
                    "subtype": "noteOff",
                    "channel": 9,
                    "noteNumber": 54,
                    "velocity": 0,
                    "lightChannels": [
                        6,
                        7
                    ]
                }
            },
            "outline": {
                "pinValue": 0,
                "ticks": 41,
                "event": {
                    "deltaTime": 41,
                    "type": "channel",
                    "subtype": "noteOff",
                    "channel": 9,
                    "noteNumber": 54,
                    "velocity": 0,
                    "lightChannels": [
                        6,
                        7
                    ]
                }
            }
        }
    },
    {
        "changes": {
            "garden": 0
        },
        "timeout": 0.1822031833333333,
        "raw": {
            "garden": {
                "pinValue": 0,
                "ticks": 1,
                "event": {
                    "deltaTime": 1,
                    "type": "channel",
                    "subtype": "noteOff",
                    "channel": 4,
                    "noteNumber": 79,
                    "velocity": 0,
                    "lightChannels": [
                        8
                    ]
                }
            }
        }
    },
    {
        "changes": {
            "window": 1,
            "outline": 1
        },
        "timeout": 0.0158898125,
        "raw": {
            "window": {
                "pinValue": 1,
                "ticks": 15,
                "event": {
                    "deltaTime": 15,
                    "type": "channel",
                    "subtype": "noteOn",
                    "channel": 9,
                    "noteNumber": 54,
                    "velocity": 79,
                    "lightChannels": [
                        6,
                        7
                    ]
                }
            },
            "outline": {
                "pinValue": 1,
                "ticks": 15,
                "event": {
                    "deltaTime": 15,
                    "type": "channel",
                    "subtype": "noteOn",
                    "channel": 9,
                    "noteNumber": 54,
                    "velocity": 79,
                    "lightChannels": [
                        6,
                        7
                    ]
                }
            }
        }
    },
    {
        "changes": {
            "tree": 1
        },
        "timeout": 0.013771170833333332,
        "raw": {
            "tree": {
                "pinValue": 1,
                "ticks": 1,
                "event": {
                    "deltaTime": 1,
                    "type": "channel",
                    "subtype": "noteOn",
                    "channel": 4,
                    "noteNumber": 78,
                    "velocity": 103,
                    "lightChannels": [
                        9
                    ]
                }
            }
        }
    },
    {
        "changes": {
            "window": 0,
            "outline": 0
        },
        "timeout": 0.04555079583333333,
        "raw": {
            "window": {
                "pinValue": 0,
                "ticks": 43,
                "event": {
                    "deltaTime": 43,
                    "type": "channel",
                    "subtype": "noteOff",
                    "channel": 9,
                    "noteNumber": 54,
                    "velocity": 0,
                    "lightChannels": [
                        6,
                        7
                    ]
                }
            },
            "outline": {
                "pinValue": 0,
                "ticks": 43,
                "event": {
                    "deltaTime": 43,
                    "type": "channel",
                    "subtype": "noteOff",
                    "channel": 9,
                    "noteNumber": 54,
                    "velocity": 0,
                    "lightChannels": [
                        6,
                        7
                    ]
                }
            }
        }
    },
    {
        "changes": {
            "window": 1,
            "outline": 1
        },
        "timeout": 0.19703367499999996,
        "raw": {
            "window": {
                "pinValue": 1,
                "ticks": 145,
                "event": {
                    "deltaTime": 145,
                    "type": "channel",
                    "subtype": "noteOn",
                    "channel": 9,
                    "noteNumber": 54,
                    "velocity": 71,
                    "lightChannels": [
                        6,
                        7
                    ]
                }
            },
            "outline": {
                "pinValue": 1,
                "ticks": 145,
                "event": {
                    "deltaTime": 145,
                    "type": "channel",
                    "subtype": "noteOn",
                    "channel": 9,
                    "noteNumber": 54,
                    "velocity": 71,
                    "lightChannels": [
                        6,
                        7
                    ]
                }
            }
        }
    },
    {
        "changes": {
            "window": 0,
            "outline": 0
        },
        "timeout": 0.044491474999999996,
        "raw": {
            "window": {
                "pinValue": 0,
                "ticks": 26,
                "event": {
                    "deltaTime": 26,
                    "type": "channel",
                    "subtype": "noteOff",
                    "channel": 9,
                    "noteNumber": 54,
                    "velocity": 0,
                    "lightChannels": [
                        6,
                        7
                    ]
                }
            },
            "outline": {
                "pinValue": 0,
                "ticks": 26,
                "event": {
                    "deltaTime": 26,
                    "type": "channel",
                    "subtype": "noteOff",
                    "channel": 9,
                    "noteNumber": 54,
                    "velocity": 0,
                    "lightChannels": [
                        6,
                        7
                    ]
                }
            }
        }
    },
    {
        "changes": {
            "tree": 0,
            "window": 1,
            "outline": 1
        },
        "timeout": 0.20444892083333333,
        "raw": {
            "tree": {
                "pinValue": 0,
                "ticks": 111,
                "event": {
                    "deltaTime": 111,
                    "type": "channel",
                    "subtype": "noteOff",
                    "channel": 4,
                    "noteNumber": 78,
                    "velocity": 0,
                    "lightChannels": [
                        9
                    ]
                }
            },
            "window": {
                "pinValue": 1,
                "ticks": 0,
                "event": {
                    "deltaTime": 0,
                    "type": "channel",
                    "subtype": "noteOn",
                    "channel": 9,
                    "noteNumber": 54,
                    "velocity": 83,
                    "lightChannels": [
                        6,
                        7
                    ]
                }
            },
            "outline": {
                "pinValue": 1,
                "ticks": 0,
                "event": {
                    "deltaTime": 0,
                    "type": "channel",
                    "subtype": "noteOn",
                    "channel": 9,
                    "noteNumber": 54,
                    "velocity": 83,
                    "lightChannels": [
                        6,
                        7
                    ]
                }
            }
        }
    },
    {
        "changes": {
            "window": 0,
            "outline": 0
        },
        "timeout": 0.06461857083333333,
        "raw": {
            "window": {
                "pinValue": 0,
                "ticks": 13,
                "event": {
                    "deltaTime": 13,
                    "type": "channel",
                    "subtype": "noteOff",
                    "channel": 9,
                    "noteNumber": 54,
                    "velocity": 0,
                    "lightChannels": [
                        6,
                        7
                    ]
                }
            },
            "outline": {
                "pinValue": 0,
                "ticks": 13,
                "event": {
                    "deltaTime": 13,
                    "type": "channel",
                    "subtype": "noteOff",
                    "channel": 9,
                    "noteNumber": 54,
                    "velocity": 0,
                    "lightChannels": [
                        6,
                        7
                    ]
                }
            }
        }
    },
    {
        "changes": {
            "col-1": 1
        },
        "timeout": 0.17372861666666667,
        "raw": {
            "col-1": {
                "pinValue": 1,
                "ticks": 14,
                "event": {
                    "deltaTime": 14,
                    "type": "channel",
                    "subtype": "noteOn",
                    "channel": 4,
                    "noteNumber": 74,
                    "velocity": 112,
                    "lightChannels": [
                        3
                    ]
                }
            }
        }
    },
    {
        "changes": {
            "window": 1,
            "outline": 1
        },
        "timeout": 0.022245737499999998,
        "raw": {
            "window": {
                "pinValue": 1,
                "ticks": 0,
                "event": {
                    "deltaTime": 0,
                    "type": "channel",
                    "subtype": "noteOn",
                    "channel": 9,
                    "noteNumber": 54,
                    "velocity": 77,
                    "lightChannels": [
                        6,
                        7
                    ]
                }
            },
            "outline": {
                "pinValue": 1,
                "ticks": 0,
                "event": {
                    "deltaTime": 0,
                    "type": "channel",
                    "subtype": "noteOn",
                    "channel": 9,
                    "noteNumber": 54,
                    "velocity": 77,
                    "lightChannels": [
                        6,
                        7
                    ]
                }
            }
        }
    },
    {
        "changes": {
            "col-1": 0
        },
        "timeout": 0.05296604166666666,
        "raw": {
            "col-1": {
                "pinValue": 0,
                "ticks": 44,
                "event": {
                    "deltaTime": 44,
                    "type": "channel",
                    "subtype": "noteOff",
                    "channel": 4,
                    "noteNumber": 74,
                    "velocity": 0,
                    "lightChannels": [
                        3
                    ]
                }
            }
        }
    },
    {
        "changes": {
            "window": 0,
            "outline": 0
        },
        "timeout": 0.008474566666666666,
        "raw": {
            "window": {
                "pinValue": 0,
                "ticks": 8,
                "event": {
                    "deltaTime": 8,
                    "type": "channel",
                    "subtype": "noteOff",
                    "channel": 9,
                    "noteNumber": 54,
                    "velocity": 0,
                    "lightChannels": [
                        6,
                        7
                    ]
                }
            },
            "outline": {
                "pinValue": 0,
                "ticks": 8,
                "event": {
                    "deltaTime": 8,
                    "type": "channel",
                    "subtype": "noteOff",
                    "channel": 9,
                    "noteNumber": 54,
                    "velocity": 0,
                    "lightChannels": [
                        6,
                        7
                    ]
                }
            }
        }
    },
    {
        "changes": {
            "col-2": 1
        },
        "timeout": 0.039194870833333326,
        "raw": {
            "col-2": {
                "pinValue": 1,
                "ticks": 25,
                "event": {
                    "deltaTime": 25,
                    "type": "channel",
                    "subtype": "noteOn",
                    "channel": 4,
                    "noteNumber": 76,
                    "velocity": 121,
                    "lightChannels": [
                        4
                    ]
                }
            }
        }
    },
    {
        "changes": {
            "col-2": 0
        },
        "timeout": 0.07627109999999998,
        "raw": {
            "col-2": {
                "pinValue": 0,
                "ticks": 41,
                "event": {
                    "deltaTime": 41,
                    "type": "channel",
                    "subtype": "noteOff",
                    "channel": 4,
                    "noteNumber": 76,
                    "velocity": 0,
                    "lightChannels": [
                        4
                    ]
                }
            }
        }
    },
    {
        "changes": {
            "col-1": 1,
            "col-2": 1,
            "col-3": 1
        },
        "timeout": 0.042372833333333325,
        "raw": {
            "col-1": {
                "pinValue": 1,
                "ticks": 28,
                "event": {
                    "deltaTime": 28,
                    "type": "channel",
                    "subtype": "noteOn",
                    "channel": 4,
                    "noteNumber": 78,
                    "velocity": 106,
                    "lightChannels": [
                        3,
                        4,
                        5
                    ]
                }
            },
            "col-2": {
                "pinValue": 1,
                "ticks": 28,
                "event": {
                    "deltaTime": 28,
                    "type": "channel",
                    "subtype": "noteOn",
                    "channel": 4,
                    "noteNumber": 78,
                    "velocity": 106,
                    "lightChannels": [
                        3,
                        4,
                        5
                    ]
                }
            },
            "col-3": {
                "pinValue": 1,
                "ticks": 28,
                "event": {
                    "deltaTime": 28,
                    "type": "channel",
                    "subtype": "noteOn",
                    "channel": 4,
                    "noteNumber": 78,
                    "velocity": 106,
                    "lightChannels": [
                        3,
                        4,
                        5
                    ]
                }
            }
        }
    },
    {
        "changes": {
            "window": 1,
            "outline": 1
        },
        "timeout": 0.030720304166666667,
        "raw": {
            "window": {
                "pinValue": 1,
                "ticks": 5,
                "event": {
                    "deltaTime": 5,
                    "type": "channel",
                    "subtype": "noteOn",
                    "channel": 9,
                    "noteNumber": 54,
                    "velocity": 52,
                    "lightChannels": [
                        6,
                        7
                    ]
                }
            },
            "outline": {
                "pinValue": 1,
                "ticks": 5,
                "event": {
                    "deltaTime": 5,
                    "type": "channel",
                    "subtype": "noteOn",
                    "channel": 9,
                    "noteNumber": 54,
                    "velocity": 52,
                    "lightChannels": [
                        6,
                        7
                    ]
                }
            }
        }
    },
    {
        "changes": {
            "window": 0,
            "outline": 0
        },
        "timeout": 0.039194870833333326,
        "raw": {
            "window": {
                "pinValue": 0,
                "ticks": 17,
                "event": {
                    "deltaTime": 17,
                    "type": "channel",
                    "subtype": "noteOff",
                    "channel": 9,
                    "noteNumber": 54,
                    "velocity": 0,
                    "lightChannels": [
                        6,
                        7
                    ]
                }
            },
            "outline": {
                "pinValue": 0,
                "ticks": 17,
                "event": {
                    "deltaTime": 17,
                    "type": "channel",
                    "subtype": "noteOff",
                    "channel": 9,
                    "noteNumber": 54,
                    "velocity": 0,
                    "lightChannels": [
                        6,
                        7
                    ]
                }
            }
        }
    },
    {
        "changes": {
            "col-1": 0,
            "col-2": 0,
            "col-3": 0
        },
        "timeout": 0.015889812499999996,
        "raw": {
            "col-1": {
                "pinValue": 0,
                "ticks": 1,
                "event": {
                    "deltaTime": 1,
                    "type": "channel",
                    "subtype": "noteOff",
                    "channel": 4,
                    "noteNumber": 78,
                    "velocity": 0,
                    "lightChannels": [
                        3,
                        4,
                        5
                    ]
                }
            },
            "col-2": {
                "pinValue": 0,
                "ticks": 1,
                "event": {
                    "deltaTime": 1,
                    "type": "channel",
                    "subtype": "noteOff",
                    "channel": 4,
                    "noteNumber": 78,
                    "velocity": 0,
                    "lightChannels": [
                        3,
                        4,
                        5
                    ]
                }
            },
            "col-3": {
                "pinValue": 0,
                "ticks": 1,
                "event": {
                    "deltaTime": 1,
                    "type": "channel",
                    "subtype": "noteOff",
                    "channel": 4,
                    "noteNumber": 78,
                    "velocity": 0,
                    "lightChannels": [
                        3,
                        4,
                        5
                    ]
                }
            }
        }
    },
    {
        "changes": {
            "col-1": 1,
            "col-2": 1,
            "col-3": 1
        },
        "timeout": 0.17796589999999995,
        "raw": {
            "col-1": {
                "pinValue": 1,
                "ticks": 70,
                "event": {
                    "deltaTime": 70,
                    "type": "channel",
                    "subtype": "noteOn",
                    "channel": 4,
                    "noteNumber": 78,
                    "velocity": 124,
                    "lightChannels": [
                        3,
                        4,
                        5
                    ]
                }
            },
            "col-2": {
                "pinValue": 1,
                "ticks": 70,
                "event": {
                    "deltaTime": 70,
                    "type": "channel",
                    "subtype": "noteOn",
                    "channel": 4,
                    "noteNumber": 78,
                    "velocity": 124,
                    "lightChannels": [
                        3,
                        4,
                        5
                    ]
                }
            },
            "col-3": {
                "pinValue": 1,
                "ticks": 70,
                "event": {
                    "deltaTime": 70,
                    "type": "channel",
                    "subtype": "noteOn",
                    "channel": 4,
                    "noteNumber": 78,
                    "velocity": 124,
                    "lightChannels": [
                        3,
                        4,
                        5
                    ]
                }
            }
        }
    },
    {
        "changes": {
            "window": 1,
            "outline": 1
        },
        "timeout": 0.0158898125,
        "raw": {
            "window": {
                "pinValue": 1,
                "ticks": 2,
                "event": {
                    "deltaTime": 2,
                    "type": "channel",
                    "subtype": "noteOn",
                    "channel": 9,
                    "noteNumber": 54,
                    "velocity": 55,
                    "lightChannels": [
                        6,
                        7
                    ]
                }
            },
            "outline": {
                "pinValue": 1,
                "ticks": 2,
                "event": {
                    "deltaTime": 2,
                    "type": "channel",
                    "subtype": "noteOn",
                    "channel": 9,
                    "noteNumber": 54,
                    "velocity": 55,
                    "lightChannels": [
                        6,
                        7
                    ]
                }
            }
        }
    },
    {
        "changes": {
            "window": 0,
            "outline": 0
        },
        "timeout": 0.04555079583333333,
        "raw": {
            "window": {
                "pinValue": 0,
                "ticks": 42,
                "event": {
                    "deltaTime": 42,
                    "type": "channel",
                    "subtype": "noteOff",
                    "channel": 9,
                    "noteNumber": 54,
                    "velocity": 0,
                    "lightChannels": [
                        6,
                        7
                    ]
                }
            },
            "outline": {
                "pinValue": 0,
                "ticks": 42,
                "event": {
                    "deltaTime": 42,
                    "type": "channel",
                    "subtype": "noteOff",
                    "channel": 9,
                    "noteNumber": 54,
                    "velocity": 0,
                    "lightChannels": [
                        6,
                        7
                    ]
                }
            }
        }
    },
    {
        "changes": {
            "col-1": 0,
            "col-2": 0,
            "col-3": 0
        },
        "timeout": 0.0095338875,
        "raw": {
            "col-1": {
                "pinValue": 0,
                "ticks": 9,
                "event": {
                    "deltaTime": 9,
                    "type": "channel",
                    "subtype": "noteOff",
                    "channel": 4,
                    "noteNumber": 78,
                    "velocity": 0,
                    "lightChannels": [
                        3,
                        4,
                        5
                    ]
                }
            },
            "col-2": {
                "pinValue": 0,
                "ticks": 9,
                "event": {
                    "deltaTime": 9,
                    "type": "channel",
                    "subtype": "noteOff",
                    "channel": 4,
                    "noteNumber": 78,
                    "velocity": 0,
                    "lightChannels": [
                        3,
                        4,
                        5
                    ]
                }
            },
            "col-3": {
                "pinValue": 0,
                "ticks": 9,
                "event": {
                    "deltaTime": 9,
                    "type": "channel",
                    "subtype": "noteOff",
                    "channel": 4,
                    "noteNumber": 78,
                    "velocity": 0,
                    "lightChannels": [
                        3,
                        4,
                        5
                    ]
                }
            }
        }
    },
    {
        "changes": {
            "col-1": 1,
            "col-2": 1,
            "col-3": 1
        },
        "timeout": 0.17478793749999996,
        "raw": {
            "col-1": {
                "pinValue": 1,
                "ticks": 4,
                "event": {
                    "deltaTime": 4,
                    "type": "channel",
                    "subtype": "noteOn",
                    "channel": 4,
                    "noteNumber": 78,
                    "velocity": 124,
                    "lightChannels": [
                        3,
                        4,
                        5
                    ]
                }
            },
            "col-2": {
                "pinValue": 1,
                "ticks": 4,
                "event": {
                    "deltaTime": 4,
                    "type": "channel",
                    "subtype": "noteOn",
                    "channel": 4,
                    "noteNumber": 78,
                    "velocity": 124,
                    "lightChannels": [
                        3,
                        4,
                        5
                    ]
                }
            },
            "col-3": {
                "pinValue": 1,
                "ticks": 4,
                "event": {
                    "deltaTime": 4,
                    "type": "channel",
                    "subtype": "noteOn",
                    "channel": 4,
                    "noteNumber": 78,
                    "velocity": 124,
                    "lightChannels": [
                        3,
                        4,
                        5
                    ]
                }
            }
        }
    },
    {
        "changes": {
            "window": 1,
            "outline": 1
        },
        "timeout": 0.007415245833333332,
        "raw": {
            "window": {
                "pinValue": 1,
                "ticks": 4,
                "event": {
                    "deltaTime": 4,
                    "type": "channel",
                    "subtype": "noteOn",
                    "channel": 9,
                    "noteNumber": 54,
                    "velocity": 79,
                    "lightChannels": [
                        6,
                        7
                    ]
                }
            },
            "outline": {
                "pinValue": 1,
                "ticks": 4,
                "event": {
                    "deltaTime": 4,
                    "type": "channel",
                    "subtype": "noteOn",
                    "channel": 9,
                    "noteNumber": 54,
                    "velocity": 79,
                    "lightChannels": [
                        6,
                        7
                    ]
                }
            }
        }
    },
    {
        "changes": {
            "window": 0,
            "outline": 0
        },
        "timeout": 0.05508468333333333,
        "raw": {
            "window": {
                "pinValue": 0,
                "ticks": 15,
                "event": {
                    "deltaTime": 15,
                    "type": "channel",
                    "subtype": "noteOff",
                    "channel": 9,
                    "noteNumber": 54,
                    "velocity": 0,
                    "lightChannels": [
                        6,
                        7
                    ]
                }
            },
            "outline": {
                "pinValue": 0,
                "ticks": 15,
                "event": {
                    "deltaTime": 15,
                    "type": "channel",
                    "subtype": "noteOff",
                    "channel": 9,
                    "noteNumber": 54,
                    "velocity": 0,
                    "lightChannels": [
                        6,
                        7
                    ]
                }
            }
        }
    },
    {
        "changes": {
            "col-1": 0,
            "col-2": 0,
            "col-3": 0
        },
        "timeout": 0.014830491666666664,
        "raw": {
            "col-1": {
                "pinValue": 0,
                "ticks": 3,
                "event": {
                    "deltaTime": 3,
                    "type": "channel",
                    "subtype": "noteOff",
                    "channel": 4,
                    "noteNumber": 78,
                    "velocity": 0,
                    "lightChannels": [
                        3,
                        4,
                        5
                    ]
                }
            },
            "col-2": {
                "pinValue": 0,
                "ticks": 3,
                "event": {
                    "deltaTime": 3,
                    "type": "channel",
                    "subtype": "noteOff",
                    "channel": 4,
                    "noteNumber": 78,
                    "velocity": 0,
                    "lightChannels": [
                        3,
                        4,
                        5
                    ]
                }
            },
            "col-3": {
                "pinValue": 0,
                "ticks": 3,
                "event": {
                    "deltaTime": 3,
                    "type": "channel",
                    "subtype": "noteOff",
                    "channel": 4,
                    "noteNumber": 78,
                    "velocity": 0,
                    "lightChannels": [
                        3,
                        4,
                        5
                    ]
                }
            }
        }
    },
    {
        "changes": {
            "col-1": 1,
            "col-2": 1,
            "col-3": 1
        },
        "timeout": 0.17690657916666666,
        "raw": {
            "col-1": {
                "pinValue": 1,
                "ticks": 2,
                "event": {
                    "deltaTime": 2,
                    "type": "channel",
                    "subtype": "noteOn",
                    "channel": 4,
                    "noteNumber": 78,
                    "velocity": 118,
                    "lightChannels": [
                        3,
                        4,
                        5
                    ]
                }
            },
            "col-2": {
                "pinValue": 1,
                "ticks": 2,
                "event": {
                    "deltaTime": 2,
                    "type": "channel",
                    "subtype": "noteOn",
                    "channel": 4,
                    "noteNumber": 78,
                    "velocity": 118,
                    "lightChannels": [
                        3,
                        4,
                        5
                    ]
                }
            },
            "col-3": {
                "pinValue": 1,
                "ticks": 2,
                "event": {
                    "deltaTime": 2,
                    "type": "channel",
                    "subtype": "noteOn",
                    "channel": 4,
                    "noteNumber": 78,
                    "velocity": 118,
                    "lightChannels": [
                        3,
                        4,
                        5
                    ]
                }
            }
        }
    },
    {
        "changes": {
            "window": 1,
            "outline": 1
        },
        "timeout": 0.006355924999999999,
        "raw": {
            "window": {
                "pinValue": 1,
                "ticks": 3,
                "event": {
                    "deltaTime": 3,
                    "type": "channel",
                    "subtype": "noteOn",
                    "channel": 9,
                    "noteNumber": 54,
                    "velocity": 90,
                    "lightChannels": [
                        6,
                        7
                    ]
                }
            },
            "outline": {
                "pinValue": 1,
                "ticks": 3,
                "event": {
                    "deltaTime": 3,
                    "type": "channel",
                    "subtype": "noteOn",
                    "channel": 9,
                    "noteNumber": 54,
                    "velocity": 90,
                    "lightChannels": [
                        6,
                        7
                    ]
                }
            }
        }
    },
    {
        "changes": {
            "window": 0,
            "outline": 0
        },
        "timeout": 0.05932196666666666,
        "raw": {
            "window": {
                "pinValue": 0,
                "ticks": 49,
                "event": {
                    "deltaTime": 49,
                    "type": "channel",
                    "subtype": "noteOff",
                    "channel": 9,
                    "noteNumber": 54,
                    "velocity": 0,
                    "lightChannels": [
                        6,
                        7
                    ]
                }
            },
            "outline": {
                "pinValue": 0,
                "ticks": 49,
                "event": {
                    "deltaTime": 49,
                    "type": "channel",
                    "subtype": "noteOff",
                    "channel": 9,
                    "noteNumber": 54,
                    "velocity": 0,
                    "lightChannels": [
                        6,
                        7
                    ]
                }
            }
        }
    },
    {
        "changes": {
            "col-1": 0,
            "col-2": 0,
            "col-3": 0
        },
        "timeout": 0.008474566666666666,
        "raw": {
            "col-1": {
                "pinValue": 0,
                "ticks": 3,
                "event": {
                    "deltaTime": 3,
                    "type": "channel",
                    "subtype": "noteOff",
                    "channel": 4,
                    "noteNumber": 78,
                    "velocity": 0,
                    "lightChannels": [
                        3,
                        4,
                        5
                    ]
                }
            },
            "col-2": {
                "pinValue": 0,
                "ticks": 3,
                "event": {
                    "deltaTime": 3,
                    "type": "channel",
                    "subtype": "noteOff",
                    "channel": 4,
                    "noteNumber": 78,
                    "velocity": 0,
                    "lightChannels": [
                        3,
                        4,
                        5
                    ]
                }
            },
            "col-3": {
                "pinValue": 0,
                "ticks": 3,
                "event": {
                    "deltaTime": 3,
                    "type": "channel",
                    "subtype": "noteOff",
                    "channel": 4,
                    "noteNumber": 78,
                    "velocity": 0,
                    "lightChannels": [
                        3,
                        4,
                        5
                    ]
                }
            }
        }
    },
    {
        "changes": {
            "col-1": 1,
            "col-2": 1,
            "col-3": 1
        },
        "timeout": 0.17690657916666663,
        "raw": {
            "col-1": {
                "pinValue": 1,
                "ticks": 150,
                "event": {
                    "deltaTime": 150,
                    "type": "channel",
                    "subtype": "noteOn",
                    "channel": 4,
                    "noteNumber": 78,
                    "velocity": 122,
                    "lightChannels": [
                        3,
                        4,
                        5
                    ]
                }
            },
            "col-2": {
                "pinValue": 1,
                "ticks": 150,
                "event": {
                    "deltaTime": 150,
                    "type": "channel",
                    "subtype": "noteOn",
                    "channel": 4,
                    "noteNumber": 78,
                    "velocity": 122,
                    "lightChannels": [
                        3,
                        4,
                        5
                    ]
                }
            },
            "col-3": {
                "pinValue": 1,
                "ticks": 150,
                "event": {
                    "deltaTime": 150,
                    "type": "channel",
                    "subtype": "noteOn",
                    "channel": 4,
                    "noteNumber": 78,
                    "velocity": 122,
                    "lightChannels": [
                        3,
                        4,
                        5
                    ]
                }
            }
        }
    },
    {
        "changes": {
            "window": 1,
            "outline": 1
        },
        "timeout": 0.013771170833333332,
        "raw": {
            "window": {
                "pinValue": 1,
                "ticks": 2,
                "event": {
                    "deltaTime": 2,
                    "type": "channel",
                    "subtype": "noteOn",
                    "channel": 9,
                    "noteNumber": 54,
                    "velocity": 95,
                    "lightChannels": [
                        6,
                        7
                    ]
                }
            },
            "outline": {
                "pinValue": 1,
                "ticks": 2,
                "event": {
                    "deltaTime": 2,
                    "type": "channel",
                    "subtype": "noteOn",
                    "channel": 9,
                    "noteNumber": 54,
                    "velocity": 95,
                    "lightChannels": [
                        6,
                        7
                    ]
                }
            }
        }
    },
    {
        "changes": {
            "window": 0,
            "outline": 0
        },
        "timeout": 0.056144004166666664,
        "raw": {
            "window": {
                "pinValue": 0,
                "ticks": 5,
                "event": {
                    "deltaTime": 5,
                    "type": "channel",
                    "subtype": "noteOff",
                    "channel": 9,
                    "noteNumber": 54,
                    "velocity": 0,
                    "lightChannels": [
                        6,
                        7
                    ]
                }
            },
            "outline": {
                "pinValue": 0,
                "ticks": 5,
                "event": {
                    "deltaTime": 5,
                    "type": "channel",
                    "subtype": "noteOff",
                    "channel": 9,
                    "noteNumber": 54,
                    "velocity": 0,
                    "lightChannels": [
                        6,
                        7
                    ]
                }
            }
        }
    },
    {
        "changes": {
            "col-1": 0,
            "col-2": 0,
            "col-3": 0
        },
        "timeout": 0.0095338875,
        "raw": {
            "col-1": {
                "pinValue": 0,
                "ticks": 1,
                "event": {
                    "deltaTime": 1,
                    "type": "channel",
                    "subtype": "noteOff",
                    "channel": 4,
                    "noteNumber": 78,
                    "velocity": 0,
                    "lightChannels": [
                        3,
                        4,
                        5
                    ]
                }
            },
            "col-2": {
                "pinValue": 0,
                "ticks": 1,
                "event": {
                    "deltaTime": 1,
                    "type": "channel",
                    "subtype": "noteOff",
                    "channel": 4,
                    "noteNumber": 78,
                    "velocity": 0,
                    "lightChannels": [
                        3,
                        4,
                        5
                    ]
                }
            },
            "col-3": {
                "pinValue": 0,
                "ticks": 1,
                "event": {
                    "deltaTime": 1,
                    "type": "channel",
                    "subtype": "noteOff",
                    "channel": 4,
                    "noteNumber": 78,
                    "velocity": 0,
                    "lightChannels": [
                        3,
                        4,
                        5
                    ]
                }
            }
        }
    },
    {
        "changes": {
            "col-1": 1,
            "col-2": 1,
            "col-3": 1
        },
        "timeout": 0.17055065416666665,
        "raw": {
            "col-1": {
                "pinValue": 1,
                "ticks": 42,
                "event": {
                    "deltaTime": 42,
                    "type": "channel",
                    "subtype": "noteOn",
                    "channel": 4,
                    "noteNumber": 78,
                    "velocity": 112,
                    "lightChannels": [
                        3,
                        4,
                        5
                    ]
                }
            },
            "col-2": {
                "pinValue": 1,
                "ticks": 42,
                "event": {
                    "deltaTime": 42,
                    "type": "channel",
                    "subtype": "noteOn",
                    "channel": 4,
                    "noteNumber": 78,
                    "velocity": 112,
                    "lightChannels": [
                        3,
                        4,
                        5
                    ]
                }
            },
            "col-3": {
                "pinValue": 1,
                "ticks": 42,
                "event": {
                    "deltaTime": 42,
                    "type": "channel",
                    "subtype": "noteOn",
                    "channel": 4,
                    "noteNumber": 78,
                    "velocity": 112,
                    "lightChannels": [
                        3,
                        4,
                        5
                    ]
                }
            }
        }
    },
    {
        "changes": {
            "window": 1,
            "outline": 1
        },
        "timeout": 0.0158898125,
        "raw": {
            "window": {
                "pinValue": 1,
                "ticks": 3,
                "event": {
                    "deltaTime": 3,
                    "type": "channel",
                    "subtype": "noteOn",
                    "channel": 9,
                    "noteNumber": 54,
                    "velocity": 95,
                    "lightChannels": [
                        6,
                        7
                    ]
                }
            },
            "outline": {
                "pinValue": 1,
                "ticks": 3,
                "event": {
                    "deltaTime": 3,
                    "type": "channel",
                    "subtype": "noteOn",
                    "channel": 9,
                    "noteNumber": 54,
                    "velocity": 95,
                    "lightChannels": [
                        6,
                        7
                    ]
                }
            }
        }
    },
    {
        "changes": {
            "col-1": 0,
            "col-2": 0,
            "col-3": 0,
            "window": 0,
            "outline": 0
        },
        "timeout": 0.0667372125,
        "raw": {
            "col-1": {
                "pinValue": 0,
                "ticks": 2,
                "event": {
                    "deltaTime": 2,
                    "type": "channel",
                    "subtype": "noteOff",
                    "channel": 4,
                    "noteNumber": 78,
                    "velocity": 0,
                    "lightChannels": [
                        3,
                        4,
                        5
                    ]
                }
            },
            "col-2": {
                "pinValue": 0,
                "ticks": 2,
                "event": {
                    "deltaTime": 2,
                    "type": "channel",
                    "subtype": "noteOff",
                    "channel": 4,
                    "noteNumber": 78,
                    "velocity": 0,
                    "lightChannels": [
                        3,
                        4,
                        5
                    ]
                }
            },
            "col-3": {
                "pinValue": 0,
                "ticks": 2,
                "event": {
                    "deltaTime": 2,
                    "type": "channel",
                    "subtype": "noteOff",
                    "channel": 4,
                    "noteNumber": 78,
                    "velocity": 0,
                    "lightChannels": [
                        3,
                        4,
                        5
                    ]
                }
            },
            "window": {
                "pinValue": 0,
                "ticks": 0,
                "event": {
                    "deltaTime": 0,
                    "type": "channel",
                    "subtype": "noteOff",
                    "channel": 9,
                    "noteNumber": 54,
                    "velocity": 0,
                    "lightChannels": [
                        6,
                        7
                    ]
                }
            },
            "outline": {
                "pinValue": 0,
                "ticks": 0,
                "event": {
                    "deltaTime": 0,
                    "type": "channel",
                    "subtype": "noteOff",
                    "channel": 9,
                    "noteNumber": 54,
                    "velocity": 0,
                    "lightChannels": [
                        6,
                        7
                    ]
                }
            }
        }
    },
    {
        "changes": {
            "col-1": 1,
            "col-2": 1,
            "col-3": 1,
            "window": 1,
            "outline": 1
        },
        "timeout": 0.18220318333333332,
        "raw": {
            "col-1": {
                "pinValue": 1,
                "ticks": 4,
                "event": {
                    "deltaTime": 4,
                    "type": "channel",
                    "subtype": "noteOn",
                    "channel": 4,
                    "noteNumber": 78,
                    "velocity": 126,
                    "lightChannels": [
                        3,
                        4,
                        5
                    ]
                }
            },
            "col-2": {
                "pinValue": 1,
                "ticks": 4,
                "event": {
                    "deltaTime": 4,
                    "type": "channel",
                    "subtype": "noteOn",
                    "channel": 4,
                    "noteNumber": 78,
                    "velocity": 126,
                    "lightChannels": [
                        3,
                        4,
                        5
                    ]
                }
            },
            "col-3": {
                "pinValue": 1,
                "ticks": 4,
                "event": {
                    "deltaTime": 4,
                    "type": "channel",
                    "subtype": "noteOn",
                    "channel": 4,
                    "noteNumber": 78,
                    "velocity": 126,
                    "lightChannels": [
                        3,
                        4,
                        5
                    ]
                }
            },
            "window": {
                "pinValue": 1,
                "ticks": 0,
                "event": {
                    "deltaTime": 0,
                    "type": "channel",
                    "subtype": "noteOn",
                    "channel": 9,
                    "noteNumber": 54,
                    "velocity": 103,
                    "lightChannels": [
                        6,
                        7
                    ]
                }
            },
            "outline": {
                "pinValue": 1,
                "ticks": 0,
                "event": {
                    "deltaTime": 0,
                    "type": "channel",
                    "subtype": "noteOn",
                    "channel": 9,
                    "noteNumber": 54,
                    "velocity": 103,
                    "lightChannels": [
                        6,
                        7
                    ]
                }
            }
        }
    },
    {
        "changes": {
            "window": 0,
            "outline": 0
        },
        "timeout": 0.06885585416666666,
        "raw": {
            "window": {
                "pinValue": 0,
                "ticks": 50,
                "event": {
                    "deltaTime": 50,
                    "type": "channel",
                    "subtype": "noteOff",
                    "channel": 9,
                    "noteNumber": 54,
                    "velocity": 0,
                    "lightChannels": [
                        6,
                        7
                    ]
                }
            },
            "outline": {
                "pinValue": 0,
                "ticks": 50,
                "event": {
                    "deltaTime": 50,
                    "type": "channel",
                    "subtype": "noteOff",
                    "channel": 9,
                    "noteNumber": 54,
                    "velocity": 0,
                    "lightChannels": [
                        6,
                        7
                    ]
                }
            }
        }
    },
    {
        "changes": {
            "col-1": 0,
            "col-2": 0,
            "col-3": 0
        },
        "timeout": 0.01694913333333333,
        "raw": {
            "col-1": {
                "pinValue": 0,
                "ticks": 3,
                "event": {
                    "deltaTime": 3,
                    "type": "channel",
                    "subtype": "noteOff",
                    "channel": 4,
                    "noteNumber": 78,
                    "velocity": 0,
                    "lightChannels": [
                        3,
                        4,
                        5
                    ]
                }
            },
            "col-2": {
                "pinValue": 0,
                "ticks": 3,
                "event": {
                    "deltaTime": 3,
                    "type": "channel",
                    "subtype": "noteOff",
                    "channel": 4,
                    "noteNumber": 78,
                    "velocity": 0,
                    "lightChannels": [
                        3,
                        4,
                        5
                    ]
                }
            },
            "col-3": {
                "pinValue": 0,
                "ticks": 3,
                "event": {
                    "deltaTime": 3,
                    "type": "channel",
                    "subtype": "noteOff",
                    "channel": 4,
                    "noteNumber": 78,
                    "velocity": 0,
                    "lightChannels": [
                        3,
                        4,
                        5
                    ]
                }
            }
        }
    },
    {
        "changes": {
            "window": 1,
            "outline": 1
        },
        "timeout": 0.158898125,
        "raw": {
            "window": {
                "pinValue": 1,
                "ticks": 27,
                "event": {
                    "deltaTime": 27,
                    "type": "channel",
                    "subtype": "noteOn",
                    "channel": 9,
                    "noteNumber": 54,
                    "velocity": 95,
                    "lightChannels": [
                        6,
                        7
                    ]
                }
            },
            "outline": {
                "pinValue": 1,
                "ticks": 27,
                "event": {
                    "deltaTime": 27,
                    "type": "channel",
                    "subtype": "noteOn",
                    "channel": 9,
                    "noteNumber": 54,
                    "velocity": 95,
                    "lightChannels": [
                        6,
                        7
                    ]
                }
            }
        }
    },
    {
        "changes": {
            "col-1": 1,
            "col-2": 1,
            "col-3": 1
        },
        "timeout": 0.012711849999999998,
        "raw": {
            "col-1": {
                "pinValue": 1,
                "ticks": 4,
                "event": {
                    "deltaTime": 4,
                    "type": "channel",
                    "subtype": "noteOn",
                    "channel": 4,
                    "noteNumber": 78,
                    "velocity": 124,
                    "lightChannels": [
                        3,
                        4,
                        5
                    ]
                }
            },
            "col-2": {
                "pinValue": 1,
                "ticks": 4,
                "event": {
                    "deltaTime": 4,
                    "type": "channel",
                    "subtype": "noteOn",
                    "channel": 4,
                    "noteNumber": 78,
                    "velocity": 124,
                    "lightChannels": [
                        3,
                        4,
                        5
                    ]
                }
            },
            "col-3": {
                "pinValue": 1,
                "ticks": 4,
                "event": {
                    "deltaTime": 4,
                    "type": "channel",
                    "subtype": "noteOn",
                    "channel": 4,
                    "noteNumber": 78,
                    "velocity": 124,
                    "lightChannels": [
                        3,
                        4,
                        5
                    ]
                }
            }
        }
    },
    {
        "changes": {
            "window": 0,
            "outline": 0
        },
        "timeout": 0.05720332499999999,
        "raw": {
            "window": {
                "pinValue": 0,
                "ticks": 47,
                "event": {
                    "deltaTime": 47,
                    "type": "channel",
                    "subtype": "noteOff",
                    "channel": 9,
                    "noteNumber": 54,
                    "velocity": 0,
                    "lightChannels": [
                        6,
                        7
                    ]
                }
            },
            "outline": {
                "pinValue": 0,
                "ticks": 47,
                "event": {
                    "deltaTime": 47,
                    "type": "channel",
                    "subtype": "noteOff",
                    "channel": 9,
                    "noteNumber": 54,
                    "velocity": 0,
                    "lightChannels": [
                        6,
                        7
                    ]
                }
            }
        }
    },
    {
        "changes": {
            "col-1": 0,
            "col-2": 0,
            "col-3": 0
        },
        "timeout": 0.0286016625,
        "raw": {
            "col-1": {
                "pinValue": 0,
                "ticks": 1,
                "event": {
                    "deltaTime": 1,
                    "type": "channel",
                    "subtype": "noteOff",
                    "channel": 4,
                    "noteNumber": 78,
                    "velocity": 0,
                    "lightChannels": [
                        3,
                        4,
                        5
                    ]
                }
            },
            "col-2": {
                "pinValue": 0,
                "ticks": 1,
                "event": {
                    "deltaTime": 1,
                    "type": "channel",
                    "subtype": "noteOff",
                    "channel": 4,
                    "noteNumber": 78,
                    "velocity": 0,
                    "lightChannels": [
                        3,
                        4,
                        5
                    ]
                }
            },
            "col-3": {
                "pinValue": 0,
                "ticks": 1,
                "event": {
                    "deltaTime": 1,
                    "type": "channel",
                    "subtype": "noteOff",
                    "channel": 4,
                    "noteNumber": 78,
                    "velocity": 0,
                    "lightChannels": [
                        3,
                        4,
                        5
                    ]
                }
            }
        }
    },
    {
        "changes": {
            "garage": 1,
            "top-right": 1,
            "bottom-right": 1,
            "col-1": 1,
            "col-2": 1,
            "col-3": 1,
            "window": 1,
            "outline": 1,
            "garden": 1,
            "tree": 1
        },
        "timeout": 0.17160997499999997,
        "raw": {
            "garage": {
                "pinValue": 1,
                "ticks": 8,
                "event": {
                    "deltaTime": 8,
                    "type": "channel",
                    "subtype": "noteOn",
                    "channel": 4,
                    "noteNumber": 83,
                    "velocity": 125,
                    "lightChannels": [
                        0,
                        1,
                        2,
                        3,
                        4,
                        5,
                        6,
                        7,
                        8,
                        9
                    ]
                }
            },
            "top-right": {
                "pinValue": 1,
                "ticks": 8,
                "event": {
                    "deltaTime": 8,
                    "type": "channel",
                    "subtype": "noteOn",
                    "channel": 4,
                    "noteNumber": 83,
                    "velocity": 125,
                    "lightChannels": [
                        0,
                        1,
                        2,
                        3,
                        4,
                        5,
                        6,
                        7,
                        8,
                        9
                    ]
                }
            },
            "bottom-right": {
                "pinValue": 1,
                "ticks": 8,
                "event": {
                    "deltaTime": 8,
                    "type": "channel",
                    "subtype": "noteOn",
                    "channel": 4,
                    "noteNumber": 83,
                    "velocity": 125,
                    "lightChannels": [
                        0,
                        1,
                        2,
                        3,
                        4,
                        5,
                        6,
                        7,
                        8,
                        9
                    ]
                }
            },
            "col-1": {
                "pinValue": 1,
                "ticks": 8,
                "event": {
                    "deltaTime": 8,
                    "type": "channel",
                    "subtype": "noteOn",
                    "channel": 4,
                    "noteNumber": 83,
                    "velocity": 125,
                    "lightChannels": [
                        0,
                        1,
                        2,
                        3,
                        4,
                        5,
                        6,
                        7,
                        8,
                        9
                    ]
                }
            },
            "col-2": {
                "pinValue": 1,
                "ticks": 8,
                "event": {
                    "deltaTime": 8,
                    "type": "channel",
                    "subtype": "noteOn",
                    "channel": 4,
                    "noteNumber": 83,
                    "velocity": 125,
                    "lightChannels": [
                        0,
                        1,
                        2,
                        3,
                        4,
                        5,
                        6,
                        7,
                        8,
                        9
                    ]
                }
            },
            "col-3": {
                "pinValue": 1,
                "ticks": 8,
                "event": {
                    "deltaTime": 8,
                    "type": "channel",
                    "subtype": "noteOn",
                    "channel": 4,
                    "noteNumber": 83,
                    "velocity": 125,
                    "lightChannels": [
                        0,
                        1,
                        2,
                        3,
                        4,
                        5,
                        6,
                        7,
                        8,
                        9
                    ]
                }
            },
            "window": {
                "pinValue": 1,
                "ticks": 8,
                "event": {
                    "deltaTime": 8,
                    "type": "channel",
                    "subtype": "noteOn",
                    "channel": 4,
                    "noteNumber": 83,
                    "velocity": 125,
                    "lightChannels": [
                        0,
                        1,
                        2,
                        3,
                        4,
                        5,
                        6,
                        7,
                        8,
                        9
                    ]
                }
            },
            "outline": {
                "pinValue": 1,
                "ticks": 8,
                "event": {
                    "deltaTime": 8,
                    "type": "channel",
                    "subtype": "noteOn",
                    "channel": 4,
                    "noteNumber": 83,
                    "velocity": 125,
                    "lightChannels": [
                        0,
                        1,
                        2,
                        3,
                        4,
                        5,
                        6,
                        7,
                        8,
                        9
                    ]
                }
            },
            "garden": {
                "pinValue": 1,
                "ticks": 8,
                "event": {
                    "deltaTime": 8,
                    "type": "channel",
                    "subtype": "noteOn",
                    "channel": 4,
                    "noteNumber": 83,
                    "velocity": 125,
                    "lightChannels": [
                        0,
                        1,
                        2,
                        3,
                        4,
                        5,
                        6,
                        7,
                        8,
                        9
                    ]
                }
            },
            "tree": {
                "pinValue": 1,
                "ticks": 8,
                "event": {
                    "deltaTime": 8,
                    "type": "channel",
                    "subtype": "noteOn",
                    "channel": 4,
                    "noteNumber": 83,
                    "velocity": 125,
                    "lightChannels": [
                        0,
                        1,
                        2,
                        3,
                        4,
                        5,
                        6,
                        7,
                        8,
                        9
                    ]
                }
            }
        }
    },
    {
        "changes": {
            "window": 1,
            "outline": 1
        },
        "timeout": 0.007415245833333332,
        "raw": {
            "window": {
                "pinValue": 1,
                "ticks": 1,
                "event": {
                    "deltaTime": 1,
                    "type": "channel",
                    "subtype": "noteOn",
                    "channel": 9,
                    "noteNumber": 54,
                    "velocity": 110,
                    "lightChannels": [
                        6,
                        7
                    ]
                }
            },
            "outline": {
                "pinValue": 1,
                "ticks": 1,
                "event": {
                    "deltaTime": 1,
                    "type": "channel",
                    "subtype": "noteOn",
                    "channel": 9,
                    "noteNumber": 54,
                    "velocity": 110,
                    "lightChannels": [
                        6,
                        7
                    ]
                }
            }
        }
    },
    {
        "changes": {
            "garage": 1,
            "top-right": 1,
            "bottom-right": 1,
            "col-1": 1,
            "col-2": 1,
            "col-3": 1,
            "window": 1,
            "outline": 1,
            "garden": 1,
            "tree": 1
        },
        "timeout": 0.0010593208333333332,
        "raw": {
            "garage": {
                "pinValue": 1,
                "ticks": 1,
                "event": {
                    "deltaTime": 1,
                    "type": "channel",
                    "subtype": "noteOn",
                    "channel": 4,
                    "noteNumber": 78,
                    "velocity": 110,
                    "lightChannels": [
                        0,
                        1,
                        2,
                        3,
                        4,
                        5,
                        6,
                        7,
                        8,
                        9
                    ]
                }
            },
            "top-right": {
                "pinValue": 1,
                "ticks": 1,
                "event": {
                    "deltaTime": 1,
                    "type": "channel",
                    "subtype": "noteOn",
                    "channel": 4,
                    "noteNumber": 78,
                    "velocity": 110,
                    "lightChannels": [
                        0,
                        1,
                        2,
                        3,
                        4,
                        5,
                        6,
                        7,
                        8,
                        9
                    ]
                }
            },
            "bottom-right": {
                "pinValue": 1,
                "ticks": 1,
                "event": {
                    "deltaTime": 1,
                    "type": "channel",
                    "subtype": "noteOn",
                    "channel": 4,
                    "noteNumber": 78,
                    "velocity": 110,
                    "lightChannels": [
                        0,
                        1,
                        2,
                        3,
                        4,
                        5,
                        6,
                        7,
                        8,
                        9
                    ]
                }
            },
            "col-1": {
                "pinValue": 1,
                "ticks": 1,
                "event": {
                    "deltaTime": 1,
                    "type": "channel",
                    "subtype": "noteOn",
                    "channel": 4,
                    "noteNumber": 78,
                    "velocity": 110,
                    "lightChannels": [
                        0,
                        1,
                        2,
                        3,
                        4,
                        5,
                        6,
                        7,
                        8,
                        9
                    ]
                }
            },
            "col-2": {
                "pinValue": 1,
                "ticks": 1,
                "event": {
                    "deltaTime": 1,
                    "type": "channel",
                    "subtype": "noteOn",
                    "channel": 4,
                    "noteNumber": 78,
                    "velocity": 110,
                    "lightChannels": [
                        0,
                        1,
                        2,
                        3,
                        4,
                        5,
                        6,
                        7,
                        8,
                        9
                    ]
                }
            },
            "col-3": {
                "pinValue": 1,
                "ticks": 1,
                "event": {
                    "deltaTime": 1,
                    "type": "channel",
                    "subtype": "noteOn",
                    "channel": 4,
                    "noteNumber": 78,
                    "velocity": 110,
                    "lightChannels": [
                        0,
                        1,
                        2,
                        3,
                        4,
                        5,
                        6,
                        7,
                        8,
                        9
                    ]
                }
            },
            "window": {
                "pinValue": 1,
                "ticks": 1,
                "event": {
                    "deltaTime": 1,
                    "type": "channel",
                    "subtype": "noteOn",
                    "channel": 4,
                    "noteNumber": 78,
                    "velocity": 110,
                    "lightChannels": [
                        0,
                        1,
                        2,
                        3,
                        4,
                        5,
                        6,
                        7,
                        8,
                        9
                    ]
                }
            },
            "outline": {
                "pinValue": 1,
                "ticks": 1,
                "event": {
                    "deltaTime": 1,
                    "type": "channel",
                    "subtype": "noteOn",
                    "channel": 4,
                    "noteNumber": 78,
                    "velocity": 110,
                    "lightChannels": [
                        0,
                        1,
                        2,
                        3,
                        4,
                        5,
                        6,
                        7,
                        8,
                        9
                    ]
                }
            },
            "garden": {
                "pinValue": 1,
                "ticks": 1,
                "event": {
                    "deltaTime": 1,
                    "type": "channel",
                    "subtype": "noteOn",
                    "channel": 4,
                    "noteNumber": 78,
                    "velocity": 110,
                    "lightChannels": [
                        0,
                        1,
                        2,
                        3,
                        4,
                        5,
                        6,
                        7,
                        8,
                        9
                    ]
                }
            },
            "tree": {
                "pinValue": 1,
                "ticks": 1,
                "event": {
                    "deltaTime": 1,
                    "type": "channel",
                    "subtype": "noteOn",
                    "channel": 4,
                    "noteNumber": 78,
                    "velocity": 110,
                    "lightChannels": [
                        0,
                        1,
                        2,
                        3,
                        4,
                        5,
                        6,
                        7,
                        8,
                        9
                    ]
                }
            }
        }
    },
    {
        "changes": {
            "window": 0,
            "outline": 0
        },
        "timeout": 0.08156770416666667,
        "raw": {
            "window": {
                "pinValue": 0,
                "ticks": 3,
                "event": {
                    "deltaTime": 3,
                    "type": "channel",
                    "subtype": "noteOff",
                    "channel": 9,
                    "noteNumber": 54,
                    "velocity": 0,
                    "lightChannels": [
                        6,
                        7
                    ]
                }
            },
            "outline": {
                "pinValue": 0,
                "ticks": 3,
                "event": {
                    "deltaTime": 3,
                    "type": "channel",
                    "subtype": "noteOff",
                    "channel": 9,
                    "noteNumber": 54,
                    "velocity": 0,
                    "lightChannels": [
                        6,
                        7
                    ]
                }
            }
        }
    },
    {
        "changes": {
            "garage": 0,
            "top-right": 0,
            "bottom-right": 0,
            "col-1": 0,
            "col-2": 0,
            "col-3": 0,
            "window": 0,
            "outline": 0,
            "garden": 0,
            "tree": 0
        },
        "timeout": 0.04025419166666666,
        "raw": {
            "garage": {
                "pinValue": 0,
                "ticks": 10,
                "event": {
                    "deltaTime": 10,
                    "type": "channel",
                    "subtype": "noteOff",
                    "channel": 4,
                    "noteNumber": 78,
                    "velocity": 0,
                    "lightChannels": [
                        0,
                        1,
                        2,
                        3,
                        4,
                        5,
                        6,
                        7,
                        8,
                        9
                    ]
                }
            },
            "top-right": {
                "pinValue": 0,
                "ticks": 10,
                "event": {
                    "deltaTime": 10,
                    "type": "channel",
                    "subtype": "noteOff",
                    "channel": 4,
                    "noteNumber": 78,
                    "velocity": 0,
                    "lightChannels": [
                        0,
                        1,
                        2,
                        3,
                        4,
                        5,
                        6,
                        7,
                        8,
                        9
                    ]
                }
            },
            "bottom-right": {
                "pinValue": 0,
                "ticks": 10,
                "event": {
                    "deltaTime": 10,
                    "type": "channel",
                    "subtype": "noteOff",
                    "channel": 4,
                    "noteNumber": 78,
                    "velocity": 0,
                    "lightChannels": [
                        0,
                        1,
                        2,
                        3,
                        4,
                        5,
                        6,
                        7,
                        8,
                        9
                    ]
                }
            },
            "col-1": {
                "pinValue": 0,
                "ticks": 10,
                "event": {
                    "deltaTime": 10,
                    "type": "channel",
                    "subtype": "noteOff",
                    "channel": 4,
                    "noteNumber": 78,
                    "velocity": 0,
                    "lightChannels": [
                        0,
                        1,
                        2,
                        3,
                        4,
                        5,
                        6,
                        7,
                        8,
                        9
                    ]
                }
            },
            "col-2": {
                "pinValue": 0,
                "ticks": 10,
                "event": {
                    "deltaTime": 10,
                    "type": "channel",
                    "subtype": "noteOff",
                    "channel": 4,
                    "noteNumber": 78,
                    "velocity": 0,
                    "lightChannels": [
                        0,
                        1,
                        2,
                        3,
                        4,
                        5,
                        6,
                        7,
                        8,
                        9
                    ]
                }
            },
            "col-3": {
                "pinValue": 0,
                "ticks": 10,
                "event": {
                    "deltaTime": 10,
                    "type": "channel",
                    "subtype": "noteOff",
                    "channel": 4,
                    "noteNumber": 78,
                    "velocity": 0,
                    "lightChannels": [
                        0,
                        1,
                        2,
                        3,
                        4,
                        5,
                        6,
                        7,
                        8,
                        9
                    ]
                }
            },
            "window": {
                "pinValue": 0,
                "ticks": 10,
                "event": {
                    "deltaTime": 10,
                    "type": "channel",
                    "subtype": "noteOff",
                    "channel": 4,
                    "noteNumber": 78,
                    "velocity": 0,
                    "lightChannels": [
                        0,
                        1,
                        2,
                        3,
                        4,
                        5,
                        6,
                        7,
                        8,
                        9
                    ]
                }
            },
            "outline": {
                "pinValue": 0,
                "ticks": 10,
                "event": {
                    "deltaTime": 10,
                    "type": "channel",
                    "subtype": "noteOff",
                    "channel": 4,
                    "noteNumber": 78,
                    "velocity": 0,
                    "lightChannels": [
                        0,
                        1,
                        2,
                        3,
                        4,
                        5,
                        6,
                        7,
                        8,
                        9
                    ]
                }
            },
            "garden": {
                "pinValue": 0,
                "ticks": 10,
                "event": {
                    "deltaTime": 10,
                    "type": "channel",
                    "subtype": "noteOff",
                    "channel": 4,
                    "noteNumber": 78,
                    "velocity": 0,
                    "lightChannels": [
                        0,
                        1,
                        2,
                        3,
                        4,
                        5,
                        6,
                        7,
                        8,
                        9
                    ]
                }
            },
            "tree": {
                "pinValue": 0,
                "ticks": 10,
                "event": {
                    "deltaTime": 10,
                    "type": "channel",
                    "subtype": "noteOff",
                    "channel": 4,
                    "noteNumber": 78,
                    "velocity": 0,
                    "lightChannels": [
                        0,
                        1,
                        2,
                        3,
                        4,
                        5,
                        6,
                        7,
                        8,
                        9
                    ]
                }
            }
        }
    },
    {
        "changes": {
            "garage": 0,
            "top-right": 0,
            "bottom-right": 0,
            "col-1": 0,
            "col-2": 0,
            "col-3": 0,
            "window": 0,
            "outline": 0,
            "garden": 0,
            "tree": 0
        },
        "timeout": 0.004237283333333333,
        "raw": {
            "garage": {
                "pinValue": 0,
                "ticks": 4,
                "event": {
                    "deltaTime": 4,
                    "type": "channel",
                    "subtype": "noteOff",
                    "channel": 4,
                    "noteNumber": 83,
                    "velocity": 0,
                    "lightChannels": [
                        0,
                        1,
                        2,
                        3,
                        4,
                        5,
                        6,
                        7,
                        8,
                        9
                    ]
                }
            },
            "top-right": {
                "pinValue": 0,
                "ticks": 4,
                "event": {
                    "deltaTime": 4,
                    "type": "channel",
                    "subtype": "noteOff",
                    "channel": 4,
                    "noteNumber": 83,
                    "velocity": 0,
                    "lightChannels": [
                        0,
                        1,
                        2,
                        3,
                        4,
                        5,
                        6,
                        7,
                        8,
                        9
                    ]
                }
            },
            "bottom-right": {
                "pinValue": 0,
                "ticks": 4,
                "event": {
                    "deltaTime": 4,
                    "type": "channel",
                    "subtype": "noteOff",
                    "channel": 4,
                    "noteNumber": 83,
                    "velocity": 0,
                    "lightChannels": [
                        0,
                        1,
                        2,
                        3,
                        4,
                        5,
                        6,
                        7,
                        8,
                        9
                    ]
                }
            },
            "col-1": {
                "pinValue": 0,
                "ticks": 4,
                "event": {
                    "deltaTime": 4,
                    "type": "channel",
                    "subtype": "noteOff",
                    "channel": 4,
                    "noteNumber": 83,
                    "velocity": 0,
                    "lightChannels": [
                        0,
                        1,
                        2,
                        3,
                        4,
                        5,
                        6,
                        7,
                        8,
                        9
                    ]
                }
            },
            "col-2": {
                "pinValue": 0,
                "ticks": 4,
                "event": {
                    "deltaTime": 4,
                    "type": "channel",
                    "subtype": "noteOff",
                    "channel": 4,
                    "noteNumber": 83,
                    "velocity": 0,
                    "lightChannels": [
                        0,
                        1,
                        2,
                        3,
                        4,
                        5,
                        6,
                        7,
                        8,
                        9
                    ]
                }
            },
            "col-3": {
                "pinValue": 0,
                "ticks": 4,
                "event": {
                    "deltaTime": 4,
                    "type": "channel",
                    "subtype": "noteOff",
                    "channel": 4,
                    "noteNumber": 83,
                    "velocity": 0,
                    "lightChannels": [
                        0,
                        1,
                        2,
                        3,
                        4,
                        5,
                        6,
                        7,
                        8,
                        9
                    ]
                }
            },
            "window": {
                "pinValue": 0,
                "ticks": 4,
                "event": {
                    "deltaTime": 4,
                    "type": "channel",
                    "subtype": "noteOff",
                    "channel": 4,
                    "noteNumber": 83,
                    "velocity": 0,
                    "lightChannels": [
                        0,
                        1,
                        2,
                        3,
                        4,
                        5,
                        6,
                        7,
                        8,
                        9
                    ]
                }
            },
            "outline": {
                "pinValue": 0,
                "ticks": 4,
                "event": {
                    "deltaTime": 4,
                    "type": "channel",
                    "subtype": "noteOff",
                    "channel": 4,
                    "noteNumber": 83,
                    "velocity": 0,
                    "lightChannels": [
                        0,
                        1,
                        2,
                        3,
                        4,
                        5,
                        6,
                        7,
                        8,
                        9
                    ]
                }
            },
            "garden": {
                "pinValue": 0,
                "ticks": 4,
                "event": {
                    "deltaTime": 4,
                    "type": "channel",
                    "subtype": "noteOff",
                    "channel": 4,
                    "noteNumber": 83,
                    "velocity": 0,
                    "lightChannels": [
                        0,
                        1,
                        2,
                        3,
                        4,
                        5,
                        6,
                        7,
                        8,
                        9
                    ]
                }
            },
            "tree": {
                "pinValue": 0,
                "ticks": 4,
                "event": {
                    "deltaTime": 4,
                    "type": "channel",
                    "subtype": "noteOff",
                    "channel": 4,
                    "noteNumber": 83,
                    "velocity": 0,
                    "lightChannels": [
                        0,
                        1,
                        2,
                        3,
                        4,
                        5,
                        6,
                        7,
                        8,
                        9
                    ]
                }
            }
        }
    },
    {
        "changes": {
            "garden": 1
        },
        "timeout": 0.6641941625,
        "raw": {
            "garden": {
                "pinValue": 1,
                "ticks": 0,
                "event": {
                    "deltaTime": 0,
                    "type": "channel",
                    "subtype": "noteOn",
                    "channel": 4,
                    "noteNumber": 78,
                    "velocity": 116,
                    "lightChannels": [
                        8
                    ]
                }
            }
        }
    },
    {
        "changes": {
            "window": 1,
            "outline": 1
        },
        "timeout": 0.0021186416666666664,
        "raw": {
            "window": {
                "pinValue": 1,
                "ticks": 2,
                "event": {
                    "deltaTime": 2,
                    "type": "channel",
                    "subtype": "noteOn",
                    "channel": 9,
                    "noteNumber": 54,
                    "velocity": 75,
                    "lightChannels": [
                        6,
                        7
                    ]
                }
            },
            "outline": {
                "pinValue": 1,
                "ticks": 2,
                "event": {
                    "deltaTime": 2,
                    "type": "channel",
                    "subtype": "noteOn",
                    "channel": 9,
                    "noteNumber": 54,
                    "velocity": 75,
                    "lightChannels": [
                        6,
                        7
                    ]
                }
            }
        }
    },
    {
        "changes": {
            "window": 0,
            "outline": 0
        },
        "timeout": 0.05508468333333333,
        "raw": {
            "window": {
                "pinValue": 0,
                "ticks": 52,
                "event": {
                    "deltaTime": 52,
                    "type": "channel",
                    "subtype": "noteOff",
                    "channel": 9,
                    "noteNumber": 54,
                    "velocity": 0,
                    "lightChannels": [
                        6,
                        7
                    ]
                }
            },
            "outline": {
                "pinValue": 0,
                "ticks": 52,
                "event": {
                    "deltaTime": 52,
                    "type": "channel",
                    "subtype": "noteOff",
                    "channel": 9,
                    "noteNumber": 54,
                    "velocity": 0,
                    "lightChannels": [
                        6,
                        7
                    ]
                }
            }
        }
    },
    {
        "changes": {
            "garden": 0
        },
        "timeout": 0.16843201249999998,
        "raw": {
            "garden": {
                "pinValue": 0,
                "ticks": 130,
                "event": {
                    "deltaTime": 130,
                    "type": "channel",
                    "subtype": "noteOff",
                    "channel": 4,
                    "noteNumber": 78,
                    "velocity": 0,
                    "lightChannels": [
                        8
                    ]
                }
            }
        }
    },
    {
        "changes": {
            "tree": 1
        },
        "timeout": 0.026483020833333332,
        "raw": {
            "tree": {
                "pinValue": 1,
                "ticks": 1,
                "event": {
                    "deltaTime": 1,
                    "type": "channel",
                    "subtype": "noteOn",
                    "channel": 4,
                    "noteNumber": 76,
                    "velocity": 121,
                    "lightChannels": [
                        9
                    ]
                }
            }
        }
    },
    {
        "changes": {
            "window": 1,
            "outline": 1
        },
        "timeout": 0.0021186416666666664,
        "raw": {
            "window": {
                "pinValue": 1,
                "ticks": 2,
                "event": {
                    "deltaTime": 2,
                    "type": "channel",
                    "subtype": "noteOn",
                    "channel": 9,
                    "noteNumber": 54,
                    "velocity": 71,
                    "lightChannels": [
                        6,
                        7
                    ]
                }
            },
            "outline": {
                "pinValue": 1,
                "ticks": 2,
                "event": {
                    "deltaTime": 2,
                    "type": "channel",
                    "subtype": "noteOn",
                    "channel": 9,
                    "noteNumber": 54,
                    "velocity": 71,
                    "lightChannels": [
                        6,
                        7
                    ]
                }
            }
        }
    },
    {
        "changes": {
            "window": 0,
            "outline": 0
        },
        "timeout": 0.04978807916666666,
        "raw": {
            "window": {
                "pinValue": 0,
                "ticks": 37,
                "event": {
                    "deltaTime": 37,
                    "type": "channel",
                    "subtype": "noteOff",
                    "channel": 9,
                    "noteNumber": 54,
                    "velocity": 0,
                    "lightChannels": [
                        6,
                        7
                    ]
                }
            },
            "outline": {
                "pinValue": 0,
                "ticks": 37,
                "event": {
                    "deltaTime": 37,
                    "type": "channel",
                    "subtype": "noteOff",
                    "channel": 9,
                    "noteNumber": 54,
                    "velocity": 0,
                    "lightChannels": [
                        6,
                        7
                    ]
                }
            }
        }
    },
    {
        "changes": {
            "window": 1,
            "outline": 1
        },
        "timeout": 0.18326250416666665,
        "raw": {
            "window": {
                "pinValue": 1,
                "ticks": 99,
                "event": {
                    "deltaTime": 99,
                    "type": "channel",
                    "subtype": "noteOn",
                    "channel": 9,
                    "noteNumber": 54,
                    "velocity": 75,
                    "lightChannels": [
                        6,
                        7
                    ]
                }
            },
            "outline": {
                "pinValue": 1,
                "ticks": 99,
                "event": {
                    "deltaTime": 99,
                    "type": "channel",
                    "subtype": "noteOn",
                    "channel": 9,
                    "noteNumber": 54,
                    "velocity": 75,
                    "lightChannels": [
                        6,
                        7
                    ]
                }
            }
        }
    },
    {
        "changes": {
            "window": 0,
            "outline": 0
        },
        "timeout": 0.06673721249999999,
        "raw": {
            "window": {
                "pinValue": 0,
                "ticks": 47,
                "event": {
                    "deltaTime": 47,
                    "type": "channel",
                    "subtype": "noteOff",
                    "channel": 9,
                    "noteNumber": 54,
                    "velocity": 0,
                    "lightChannels": [
                        6,
                        7
                    ]
                }
            },
            "outline": {
                "pinValue": 0,
                "ticks": 47,
                "event": {
                    "deltaTime": 47,
                    "type": "channel",
                    "subtype": "noteOff",
                    "channel": 9,
                    "noteNumber": 54,
                    "velocity": 0,
                    "lightChannels": [
                        6,
                        7
                    ]
                }
            }
        }
    },
    {
        "changes": {
            "window": 1,
            "outline": 1
        },
        "timeout": 0.19279639166666662,
        "raw": {
            "window": {
                "pinValue": 1,
                "ticks": 108,
                "event": {
                    "deltaTime": 108,
                    "type": "channel",
                    "subtype": "noteOn",
                    "channel": 9,
                    "noteNumber": 54,
                    "velocity": 76,
                    "lightChannels": [
                        6,
                        7
                    ]
                }
            },
            "outline": {
                "pinValue": 1,
                "ticks": 108,
                "event": {
                    "deltaTime": 108,
                    "type": "channel",
                    "subtype": "noteOn",
                    "channel": 9,
                    "noteNumber": 54,
                    "velocity": 76,
                    "lightChannels": [
                        6,
                        7
                    ]
                }
            }
        }
    },
    {
        "changes": {
            "tree": 0
        },
        "timeout": 0.021186416666666662,
        "raw": {
            "tree": {
                "pinValue": 0,
                "ticks": 1,
                "event": {
                    "deltaTime": 1,
                    "type": "channel",
                    "subtype": "noteOff",
                    "channel": 4,
                    "noteNumber": 76,
                    "velocity": 0,
                    "lightChannels": [
                        9
                    ]
                }
            }
        }
    },
    {
        "changes": {
            "window": 0,
            "outline": 0
        },
        "timeout": 0.04449147499999999,
        "raw": {
            "window": {
                "pinValue": 0,
                "ticks": 34,
                "event": {
                    "deltaTime": 34,
                    "type": "channel",
                    "subtype": "noteOff",
                    "channel": 9,
                    "noteNumber": 54,
                    "velocity": 0,
                    "lightChannels": [
                        6,
                        7
                    ]
                }
            },
            "outline": {
                "pinValue": 0,
                "ticks": 34,
                "event": {
                    "deltaTime": 34,
                    "type": "channel",
                    "subtype": "noteOff",
                    "channel": 9,
                    "noteNumber": 54,
                    "velocity": 0,
                    "lightChannels": [
                        6,
                        7
                    ]
                }
            }
        }
    },
    {
        "changes": {
            "window": 1,
            "outline": 1
        },
        "timeout": 0.19915231666666666,
        "raw": {
            "window": {
                "pinValue": 1,
                "ticks": 13,
                "event": {
                    "deltaTime": 13,
                    "type": "channel",
                    "subtype": "noteOn",
                    "channel": 9,
                    "noteNumber": 54,
                    "velocity": 79,
                    "lightChannels": [
                        6,
                        7
                    ]
                }
            },
            "outline": {
                "pinValue": 1,
                "ticks": 13,
                "event": {
                    "deltaTime": 13,
                    "type": "channel",
                    "subtype": "noteOn",
                    "channel": 9,
                    "noteNumber": 54,
                    "velocity": 79,
                    "lightChannels": [
                        6,
                        7
                    ]
                }
            }
        }
    },
    {
        "changes": {
            "window": 0,
            "outline": 0
        },
        "timeout": 0.06249992916666666,
        "raw": {
            "window": {
                "pinValue": 0,
                "ticks": 1,
                "event": {
                    "deltaTime": 1,
                    "type": "channel",
                    "subtype": "noteOff",
                    "channel": 9,
                    "noteNumber": 54,
                    "velocity": 0,
                    "lightChannels": [
                        6,
                        7
                    ]
                }
            },
            "outline": {
                "pinValue": 0,
                "ticks": 1,
                "event": {
                    "deltaTime": 1,
                    "type": "channel",
                    "subtype": "noteOff",
                    "channel": 9,
                    "noteNumber": 54,
                    "velocity": 0,
                    "lightChannels": [
                        6,
                        7
                    ]
                }
            }
        }
    },
    {
        "changes": {
            "col-1": 1,
            "col-3": 1
        },
        "timeout": 0.15783880416666662,
        "raw": {
            "col-1": {
                "pinValue": 1,
                "ticks": 1,
                "event": {
                    "deltaTime": 1,
                    "type": "channel",
                    "subtype": "noteOn",
                    "channel": 7,
                    "noteNumber": 59,
                    "velocity": 83,
                    "lightChannels": [
                        3,
                        5
                    ]
                }
            },
            "col-3": {
                "pinValue": 1,
                "ticks": 1,
                "event": {
                    "deltaTime": 1,
                    "type": "channel",
                    "subtype": "noteOn",
                    "channel": 7,
                    "noteNumber": 59,
                    "velocity": 83,
                    "lightChannels": [
                        3,
                        5
                    ]
                }
            }
        }
    },
    {
        "changes": {
            "garage": 1
        },
        "timeout": 0.0031779624999999996,
        "raw": {
            "garage": {
                "pinValue": 1,
                "ticks": 3,
                "event": {
                    "deltaTime": 3,
                    "type": "channel",
                    "subtype": "noteOn",
                    "channel": 8,
                    "noteNumber": 53,
                    "velocity": 118,
                    "lightChannels": [
                        0
                    ]
                }
            }
        }
    },
    {
        "changes": {
            "window": 1,
            "outline": 1
        },
        "timeout": 0.024364379166666665,
        "raw": {
            "window": {
                "pinValue": 1,
                "ticks": 23,
                "event": {
                    "deltaTime": 23,
                    "type": "channel",
                    "subtype": "noteOn",
                    "channel": 9,
                    "noteNumber": 54,
                    "velocity": 79,
                    "lightChannels": [
                        6,
                        7
                    ]
                }
            },
            "outline": {
                "pinValue": 1,
                "ticks": 23,
                "event": {
                    "deltaTime": 23,
                    "type": "channel",
                    "subtype": "noteOn",
                    "channel": 9,
                    "noteNumber": 54,
                    "velocity": 79,
                    "lightChannels": [
                        6,
                        7
                    ]
                }
            }
        }
    },
    {
        "changes": {
            "window": 0,
            "outline": 0
        },
        "timeout": 0.06249992916666666,
        "raw": {
            "window": {
                "pinValue": 0,
                "ticks": 49,
                "event": {
                    "deltaTime": 49,
                    "type": "channel",
                    "subtype": "noteOff",
                    "channel": 9,
                    "noteNumber": 54,
                    "velocity": 0,
                    "lightChannels": [
                        6,
                        7
                    ]
                }
            },
            "outline": {
                "pinValue": 0,
                "ticks": 49,
                "event": {
                    "deltaTime": 49,
                    "type": "channel",
                    "subtype": "noteOff",
                    "channel": 9,
                    "noteNumber": 54,
                    "velocity": 0,
                    "lightChannels": [
                        6,
                        7
                    ]
                }
            }
        }
    },
    {
        "changes": {
            "window": 1,
            "outline": 1
        },
        "timeout": 0.17902522083333328,
        "raw": {
            "window": {
                "pinValue": 1,
                "ticks": 10,
                "event": {
                    "deltaTime": 10,
                    "type": "channel",
                    "subtype": "noteOn",
                    "channel": 9,
                    "noteNumber": 54,
                    "velocity": 76,
                    "lightChannels": [
                        6,
                        7
                    ]
                }
            },
            "outline": {
                "pinValue": 1,
                "ticks": 10,
                "event": {
                    "deltaTime": 10,
                    "type": "channel",
                    "subtype": "noteOn",
                    "channel": 9,
                    "noteNumber": 54,
                    "velocity": 76,
                    "lightChannels": [
                        6,
                        7
                    ]
                }
            }
        }
    },
    {
        "changes": {
            "window": 0,
            "outline": 0
        },
        "timeout": 0.06461857083333332,
        "raw": {
            "window": {
                "pinValue": 0,
                "ticks": 61,
                "event": {
                    "deltaTime": 61,
                    "type": "channel",
                    "subtype": "noteOff",
                    "channel": 9,
                    "noteNumber": 54,
                    "velocity": 0,
                    "lightChannels": [
                        6,
                        7
                    ]
                }
            },
            "outline": {
                "pinValue": 0,
                "ticks": 61,
                "event": {
                    "deltaTime": 61,
                    "type": "channel",
                    "subtype": "noteOff",
                    "channel": 9,
                    "noteNumber": 54,
                    "velocity": 0,
                    "lightChannels": [
                        6,
                        7
                    ]
                }
            }
        }
    },
    {
        "changes": {
            "garage": 0
        },
        "timeout": 0.1493642375,
        "raw": {
            "garage": {
                "pinValue": 0,
                "ticks": 39,
                "event": {
                    "deltaTime": 39,
                    "type": "channel",
                    "subtype": "noteOff",
                    "channel": 8,
                    "noteNumber": 53,
                    "velocity": 0,
                    "lightChannels": [
                        0
                    ]
                }
            }
        }
    },
    {
        "changes": {
            "col-1": 0,
            "col-3": 0
        },
        "timeout": 0.0021186416666666664,
        "raw": {
            "col-1": {
                "pinValue": 0,
                "ticks": 2,
                "event": {
                    "deltaTime": 2,
                    "type": "channel",
                    "subtype": "noteOff",
                    "channel": 7,
                    "noteNumber": 59,
                    "velocity": 0,
                    "lightChannels": [
                        3,
                        5
                    ]
                }
            },
            "col-3": {
                "pinValue": 0,
                "ticks": 2,
                "event": {
                    "deltaTime": 2,
                    "type": "channel",
                    "subtype": "noteOff",
                    "channel": 7,
                    "noteNumber": 59,
                    "velocity": 0,
                    "lightChannels": [
                        3,
                        5
                    ]
                }
            }
        }
    },
    {
        "changes": {
            "window": 1,
            "outline": 1
        },
        "timeout": 0.0349575875,
        "raw": {
            "window": {
                "pinValue": 1,
                "ticks": 20,
                "event": {
                    "deltaTime": 20,
                    "type": "channel",
                    "subtype": "noteOn",
                    "channel": 9,
                    "noteNumber": 54,
                    "velocity": 79,
                    "lightChannels": [
                        6,
                        7
                    ]
                }
            },
            "outline": {
                "pinValue": 1,
                "ticks": 20,
                "event": {
                    "deltaTime": 20,
                    "type": "channel",
                    "subtype": "noteOn",
                    "channel": 9,
                    "noteNumber": 54,
                    "velocity": 79,
                    "lightChannels": [
                        6,
                        7
                    ]
                }
            }
        }
    },
    {
        "changes": {
            "top-right": 1
        },
        "timeout": 0.010593208333333333,
        "raw": {
            "top-right": {
                "pinValue": 1,
                "ticks": 10,
                "event": {
                    "deltaTime": 10,
                    "type": "channel",
                    "subtype": "noteOn",
                    "channel": 8,
                    "noteNumber": 59,
                    "velocity": 119,
                    "lightChannels": [
                        1
                    ]
                }
            }
        }
    },
    {
        "changes": {
            "col-2": 1
        },
        "timeout": 0.0010593208333333332,
        "raw": {
            "col-2": {
                "pinValue": 1,
                "ticks": 0,
                "event": {
                    "deltaTime": 0,
                    "type": "channel",
                    "subtype": "noteOn",
                    "channel": 7,
                    "noteNumber": 56,
                    "velocity": 87,
                    "lightChannels": [
                        4
                    ]
                }
            }
        }
    },
    {
        "changes": {
            "window": 0,
            "outline": 0
        },
        "timeout": 0.050847399999999994,
        "raw": {
            "window": {
                "pinValue": 0,
                "ticks": 48,
                "event": {
                    "deltaTime": 48,
                    "type": "channel",
                    "subtype": "noteOff",
                    "channel": 9,
                    "noteNumber": 54,
                    "velocity": 0,
                    "lightChannels": [
                        6,
                        7
                    ]
                }
            },
            "outline": {
                "pinValue": 0,
                "ticks": 48,
                "event": {
                    "deltaTime": 48,
                    "type": "channel",
                    "subtype": "noteOff",
                    "channel": 9,
                    "noteNumber": 54,
                    "velocity": 0,
                    "lightChannels": [
                        6,
                        7
                    ]
                }
            }
        }
    },
    {
        "changes": {
            "window": 1,
            "outline": 1
        },
        "timeout": 0.18855910833333328,
        "raw": {
            "window": {
                "pinValue": 1,
                "ticks": 8,
                "event": {
                    "deltaTime": 8,
                    "type": "channel",
                    "subtype": "noteOn",
                    "channel": 9,
                    "noteNumber": 54,
                    "velocity": 85,
                    "lightChannels": [
                        6,
                        7
                    ]
                }
            },
            "outline": {
                "pinValue": 1,
                "ticks": 8,
                "event": {
                    "deltaTime": 8,
                    "type": "channel",
                    "subtype": "noteOn",
                    "channel": 9,
                    "noteNumber": 54,
                    "velocity": 85,
                    "lightChannels": [
                        6,
                        7
                    ]
                }
            }
        }
    },
    {
        "changes": {
            "window": 0,
            "outline": 0
        },
        "timeout": 0.062499929166666655,
        "raw": {
            "window": {
                "pinValue": 0,
                "ticks": 53,
                "event": {
                    "deltaTime": 53,
                    "type": "channel",
                    "subtype": "noteOff",
                    "channel": 9,
                    "noteNumber": 54,
                    "velocity": 0,
                    "lightChannels": [
                        6,
                        7
                    ]
                }
            },
            "outline": {
                "pinValue": 0,
                "ticks": 53,
                "event": {
                    "deltaTime": 53,
                    "type": "channel",
                    "subtype": "noteOff",
                    "channel": 9,
                    "noteNumber": 54,
                    "velocity": 0,
                    "lightChannels": [
                        6,
                        7
                    ]
                }
            }
        }
    },
    {
        "changes": {
            "top-right": 0
        },
        "timeout": 0.13665238749999997,
        "raw": {
            "top-right": {
                "pinValue": 0,
                "ticks": 129,
                "event": {
                    "deltaTime": 129,
                    "type": "channel",
                    "subtype": "noteOff",
                    "channel": 8,
                    "noteNumber": 59,
                    "velocity": 0,
                    "lightChannels": [
                        1
                    ]
                }
            }
        }
    },
    {
        "changes": {
            "col-2": 0
        },
        "timeout": 0.019067775,
        "raw": {
            "col-2": {
                "pinValue": 0,
                "ticks": 5,
                "event": {
                    "deltaTime": 5,
                    "type": "channel",
                    "subtype": "noteOff",
                    "channel": 7,
                    "noteNumber": 56,
                    "velocity": 0,
                    "lightChannels": [
                        4
                    ]
                }
            }
        }
    },
    {
        "changes": {
            "bottom-right": 1
        },
        "timeout": 0.024364379166666665,
        "raw": {
            "bottom-right": {
                "pinValue": 1,
                "ticks": 2,
                "event": {
                    "deltaTime": 2,
                    "type": "channel",
                    "subtype": "noteOn",
                    "channel": 8,
                    "noteNumber": 60,
                    "velocity": 115,
                    "lightChannels": [
                        2
                    ]
                }
            }
        }
    },
    {
        "changes": {
            "window": 1,
            "outline": 1
        },
        "timeout": 0.008474566666666666,
        "raw": {
            "window": {
                "pinValue": 1,
                "ticks": 5,
                "event": {
                    "deltaTime": 5,
                    "type": "channel",
                    "subtype": "noteOn",
                    "channel": 9,
                    "noteNumber": 54,
                    "velocity": 85,
                    "lightChannels": [
                        6,
                        7
                    ]
                }
            },
            "outline": {
                "pinValue": 1,
                "ticks": 5,
                "event": {
                    "deltaTime": 5,
                    "type": "channel",
                    "subtype": "noteOn",
                    "channel": 9,
                    "noteNumber": 54,
                    "velocity": 85,
                    "lightChannels": [
                        6,
                        7
                    ]
                }
            }
        }
    },
    {
        "changes": {
            "garden": 1
        },
        "timeout": 0.010593208333333333,
        "raw": {
            "garden": {
                "pinValue": 1,
                "ticks": 8,
                "event": {
                    "deltaTime": 8,
                    "type": "channel",
                    "subtype": "noteOn",
                    "channel": 7,
                    "noteNumber": 60,
                    "velocity": 81,
                    "lightChannels": [
                        8
                    ]
                }
            }
        }
    },
    {
        "changes": {
            "window": 0,
            "outline": 0
        },
        "timeout": 0.047669437499999995,
        "raw": {
            "window": {
                "pinValue": 0,
                "ticks": 44,
                "event": {
                    "deltaTime": 44,
                    "type": "channel",
                    "subtype": "noteOff",
                    "channel": 9,
                    "noteNumber": 54,
                    "velocity": 0,
                    "lightChannels": [
                        6,
                        7
                    ]
                }
            },
            "outline": {
                "pinValue": 0,
                "ticks": 44,
                "event": {
                    "deltaTime": 44,
                    "type": "channel",
                    "subtype": "noteOff",
                    "channel": 9,
                    "noteNumber": 54,
                    "velocity": 0,
                    "lightChannels": [
                        6,
                        7
                    ]
                }
            }
        }
    },
    {
        "changes": {
            "window": 1,
            "outline": 1
        },
        "timeout": 0.19809299583333326,
        "raw": {
            "window": {
                "pinValue": 1,
                "ticks": 0,
                "event": {
                    "deltaTime": 0,
                    "type": "channel",
                    "subtype": "noteOn",
                    "channel": 9,
                    "noteNumber": 54,
                    "velocity": 77,
                    "lightChannels": [
                        6,
                        7
                    ]
                }
            },
            "outline": {
                "pinValue": 1,
                "ticks": 0,
                "event": {
                    "deltaTime": 0,
                    "type": "channel",
                    "subtype": "noteOn",
                    "channel": 9,
                    "noteNumber": 54,
                    "velocity": 77,
                    "lightChannels": [
                        6,
                        7
                    ]
                }
            }
        }
    },
    {
        "changes": {
            "window": 0,
            "outline": 0
        },
        "timeout": 0.06038128749999999,
        "raw": {
            "window": {
                "pinValue": 0,
                "ticks": 57,
                "event": {
                    "deltaTime": 57,
                    "type": "channel",
                    "subtype": "noteOff",
                    "channel": 9,
                    "noteNumber": 54,
                    "velocity": 0,
                    "lightChannels": [
                        6,
                        7
                    ]
                }
            },
            "outline": {
                "pinValue": 0,
                "ticks": 57,
                "event": {
                    "deltaTime": 57,
                    "type": "channel",
                    "subtype": "noteOff",
                    "channel": 9,
                    "noteNumber": 54,
                    "velocity": 0,
                    "lightChannels": [
                        6,
                        7
                    ]
                }
            }
        }
    },
    {
        "changes": {
            "bottom-right": 0
        },
        "timeout": 0.14512695416666666,
        "raw": {
            "bottom-right": {
                "pinValue": 0,
                "ticks": 137,
                "event": {
                    "deltaTime": 137,
                    "type": "channel",
                    "subtype": "noteOff",
                    "channel": 8,
                    "noteNumber": 60,
                    "velocity": 0,
                    "lightChannels": [
                        2
                    ]
                }
            }
        }
    },
    {
        "changes": {
            "garden": 0
        },
        "timeout": 0.0031779624999999996,
        "raw": {
            "garden": {
                "pinValue": 0,
                "ticks": 3,
                "event": {
                    "deltaTime": 3,
                    "type": "channel",
                    "subtype": "noteOff",
                    "channel": 7,
                    "noteNumber": 60,
                    "velocity": 0,
                    "lightChannels": [
                        8
                    ]
                }
            }
        }
    },
    {
        "changes": {
            "tree": 1
        },
        "timeout": 0.027542341666666664,
        "raw": {
            "tree": {
                "pinValue": 1,
                "ticks": 5,
                "event": {
                    "deltaTime": 5,
                    "type": "channel",
                    "subtype": "noteOn",
                    "channel": 7,
                    "noteNumber": 61,
                    "velocity": 74,
                    "lightChannels": [
                        9
                    ]
                }
            }
        }
    },
    {
        "changes": {
            "garage": 1
        },
        "timeout": 0.019067775,
        "raw": {
            "garage": {
                "pinValue": 1,
                "ticks": 18,
                "event": {
                    "deltaTime": 18,
                    "type": "channel",
                    "subtype": "noteOn",
                    "channel": 8,
                    "noteNumber": 61,
                    "velocity": 116,
                    "lightChannels": [
                        0
                    ]
                }
            }
        }
    },
    {
        "changes": {
            "window": 1,
            "outline": 1
        },
        "timeout": 0.0031779624999999996,
        "raw": {
            "window": {
                "pinValue": 1,
                "ticks": 1,
                "event": {
                    "deltaTime": 1,
                    "type": "channel",
                    "subtype": "noteOn",
                    "channel": 9,
                    "noteNumber": 54,
                    "velocity": 79,
                    "lightChannels": [
                        6,
                        7
                    ]
                }
            },
            "outline": {
                "pinValue": 1,
                "ticks": 1,
                "event": {
                    "deltaTime": 1,
                    "type": "channel",
                    "subtype": "noteOn",
                    "channel": 9,
                    "noteNumber": 54,
                    "velocity": 79,
                    "lightChannels": [
                        6,
                        7
                    ]
                }
            }
        }
    },
    {
        "changes": {
            "window": 0,
            "outline": 0
        },
        "timeout": 0.06144060833333333,
        "raw": {
            "window": {
                "pinValue": 0,
                "ticks": 49,
                "event": {
                    "deltaTime": 49,
                    "type": "channel",
                    "subtype": "noteOff",
                    "channel": 9,
                    "noteNumber": 54,
                    "velocity": 0,
                    "lightChannels": [
                        6,
                        7
                    ]
                }
            },
            "outline": {
                "pinValue": 0,
                "ticks": 49,
                "event": {
                    "deltaTime": 49,
                    "type": "channel",
                    "subtype": "noteOff",
                    "channel": 9,
                    "noteNumber": 54,
                    "velocity": 0,
                    "lightChannels": [
                        6,
                        7
                    ]
                }
            }
        }
    },
    {
        "changes": {
            "window": 1,
            "outline": 1
        },
        "timeout": 0.20338959999999998,
        "raw": {
            "window": {
                "pinValue": 1,
                "ticks": 81,
                "event": {
                    "deltaTime": 81,
                    "type": "channel",
                    "subtype": "noteOn",
                    "channel": 9,
                    "noteNumber": 54,
                    "velocity": 77,
                    "lightChannels": [
                        6,
                        7
                    ]
                }
            },
            "outline": {
                "pinValue": 1,
                "ticks": 81,
                "event": {
                    "deltaTime": 81,
                    "type": "channel",
                    "subtype": "noteOn",
                    "channel": 9,
                    "noteNumber": 54,
                    "velocity": 77,
                    "lightChannels": [
                        6,
                        7
                    ]
                }
            }
        }
    },
    {
        "changes": {
            "window": 0,
            "outline": 0
        },
        "timeout": 0.05296604166666666,
        "raw": {
            "window": {
                "pinValue": 0,
                "ticks": 50,
                "event": {
                    "deltaTime": 50,
                    "type": "channel",
                    "subtype": "noteOff",
                    "channel": 9,
                    "noteNumber": 54,
                    "velocity": 0,
                    "lightChannels": [
                        6,
                        7
                    ]
                }
            },
            "outline": {
                "pinValue": 0,
                "ticks": 50,
                "event": {
                    "deltaTime": 50,
                    "type": "channel",
                    "subtype": "noteOff",
                    "channel": 9,
                    "noteNumber": 54,
                    "velocity": 0,
                    "lightChannels": [
                        6,
                        7
                    ]
                }
            }
        }
    },
    {
        "changes": {
            "tree": 0
        },
        "timeout": 0.1271185,
        "raw": {
            "tree": {
                "pinValue": 0,
                "ticks": 27,
                "event": {
                    "deltaTime": 27,
                    "type": "channel",
                    "subtype": "noteOff",
                    "channel": 7,
                    "noteNumber": 61,
                    "velocity": 0,
                    "lightChannels": [
                        9
                    ]
                }
            }
        }
    },
    {
        "changes": {
            "garage": 0
        },
        "timeout": 0.0052966041666666665,
        "raw": {
            "garage": {
                "pinValue": 0,
                "ticks": 5,
                "event": {
                    "deltaTime": 5,
                    "type": "channel",
                    "subtype": "noteOff",
                    "channel": 8,
                    "noteNumber": 61,
                    "velocity": 0,
                    "lightChannels": [
                        0
                    ]
                }
            }
        }
    },
    {
        "changes": {
            "top-right": 1
        },
        "timeout": 0.0476694375,
        "raw": {
            "top-right": {
                "pinValue": 1,
                "ticks": 1,
                "event": {
                    "deltaTime": 1,
                    "type": "channel",
                    "subtype": "noteOn",
                    "channel": 8,
                    "noteNumber": 62,
                    "velocity": 108,
                    "lightChannels": [
                        1
                    ]
                }
            }
        }
    },
    {
        "changes": {
            "col-1": 1
        },
        "timeout": 0.007415245833333332,
        "raw": {
            "col-1": {
                "pinValue": 1,
                "ticks": 7,
                "event": {
                    "deltaTime": 7,
                    "type": "channel",
                    "subtype": "noteOn",
                    "channel": 7,
                    "noteNumber": 62,
                    "velocity": 95,
                    "lightChannels": [
                        3
                    ]
                }
            }
        }
    },
    {
        "changes": {
            "window": 1,
            "outline": 1
        },
        "timeout": 0.013771170833333332,
        "raw": {
            "window": {
                "pinValue": 1,
                "ticks": 6,
                "event": {
                    "deltaTime": 6,
                    "type": "channel",
                    "subtype": "noteOn",
                    "channel": 9,
                    "noteNumber": 54,
                    "velocity": 83,
                    "lightChannels": [
                        6,
                        7
                    ]
                }
            },
            "outline": {
                "pinValue": 1,
                "ticks": 6,
                "event": {
                    "deltaTime": 6,
                    "type": "channel",
                    "subtype": "noteOn",
                    "channel": 9,
                    "noteNumber": 54,
                    "velocity": 83,
                    "lightChannels": [
                        6,
                        7
                    ]
                }
            }
        }
    },
    {
        "changes": {
            "window": 0,
            "outline": 0
        },
        "timeout": 0.06567789166666665,
        "raw": {
            "window": {
                "pinValue": 0,
                "ticks": 41,
                "event": {
                    "deltaTime": 41,
                    "type": "channel",
                    "subtype": "noteOff",
                    "channel": 9,
                    "noteNumber": 54,
                    "velocity": 0,
                    "lightChannels": [
                        6,
                        7
                    ]
                }
            },
            "outline": {
                "pinValue": 0,
                "ticks": 41,
                "event": {
                    "deltaTime": 41,
                    "type": "channel",
                    "subtype": "noteOff",
                    "channel": 9,
                    "noteNumber": 54,
                    "velocity": 0,
                    "lightChannels": [
                        6,
                        7
                    ]
                }
            }
        }
    },
    {
        "changes": {
            "window": 1,
            "outline": 1
        },
        "timeout": 0.19385571249999997,
        "raw": {
            "window": {
                "pinValue": 1,
                "ticks": 0,
                "event": {
                    "deltaTime": 0,
                    "type": "channel",
                    "subtype": "noteOn",
                    "channel": 9,
                    "noteNumber": 54,
                    "velocity": 77,
                    "lightChannels": [
                        6,
                        7
                    ]
                }
            },
            "outline": {
                "pinValue": 1,
                "ticks": 0,
                "event": {
                    "deltaTime": 0,
                    "type": "channel",
                    "subtype": "noteOn",
                    "channel": 9,
                    "noteNumber": 54,
                    "velocity": 77,
                    "lightChannels": [
                        6,
                        7
                    ]
                }
            }
        }
    },
    {
        "changes": {
            "window": 0,
            "outline": 0
        },
        "timeout": 0.06673721249999999,
        "raw": {
            "window": {
                "pinValue": 0,
                "ticks": 63,
                "event": {
                    "deltaTime": 63,
                    "type": "channel",
                    "subtype": "noteOff",
                    "channel": 9,
                    "noteNumber": 54,
                    "velocity": 0,
                    "lightChannels": [
                        6,
                        7
                    ]
                }
            },
            "outline": {
                "pinValue": 0,
                "ticks": 63,
                "event": {
                    "deltaTime": 63,
                    "type": "channel",
                    "subtype": "noteOff",
                    "channel": 9,
                    "noteNumber": 54,
                    "velocity": 0,
                    "lightChannels": [
                        6,
                        7
                    ]
                }
            }
        }
    },
    {
        "changes": {
            "top-right": 0
        },
        "timeout": 0.10063547916666665,
        "raw": {
            "top-right": {
                "pinValue": 0,
                "ticks": 95,
                "event": {
                    "deltaTime": 95,
                    "type": "channel",
                    "subtype": "noteOff",
                    "channel": 8,
                    "noteNumber": 62,
                    "velocity": 0,
                    "lightChannels": [
                        1
                    ]
                }
            }
        }
    },
    {
        "changes": {
            "col-1": 0
        },
        "timeout": 0.007415245833333332,
        "raw": {
            "col-1": {
                "pinValue": 0,
                "ticks": 7,
                "event": {
                    "deltaTime": 7,
                    "type": "channel",
                    "subtype": "noteOff",
                    "channel": 7,
                    "noteNumber": 62,
                    "velocity": 0,
                    "lightChannels": [
                        3
                    ]
                }
            }
        }
    },
    {
        "changes": {
            "bottom-right": 1
        },
        "timeout": 0.030720304166666663,
        "raw": {
            "bottom-right": {
                "pinValue": 1,
                "ticks": 29,
                "event": {
                    "deltaTime": 29,
                    "type": "channel",
                    "subtype": "noteOn",
                    "channel": 8,
                    "noteNumber": 63,
                    "velocity": 120,
                    "lightChannels": [
                        2
                    ]
                }
            }
        }
    },
    {
        "changes": {
            "col-2": 1
        },
        "timeout": 0.0052966041666666665,
        "raw": {
            "col-2": {
                "pinValue": 1,
                "ticks": 4,
                "event": {
                    "deltaTime": 4,
                    "type": "channel",
                    "subtype": "noteOn",
                    "channel": 7,
                    "noteNumber": 63,
                    "velocity": 91,
                    "lightChannels": [
                        4
                    ]
                }
            }
        }
    },
    {
        "changes": {
            "window": 1,
            "outline": 1
        },
        "timeout": 0.04449147499999999,
        "raw": {
            "window": {
                "pinValue": 1,
                "ticks": 12,
                "event": {
                    "deltaTime": 12,
                    "type": "channel",
                    "subtype": "noteOn",
                    "channel": 9,
                    "noteNumber": 54,
                    "velocity": 74,
                    "lightChannels": [
                        6,
                        7
                    ]
                }
            },
            "outline": {
                "pinValue": 1,
                "ticks": 12,
                "event": {
                    "deltaTime": 12,
                    "type": "channel",
                    "subtype": "noteOn",
                    "channel": 9,
                    "noteNumber": 54,
                    "velocity": 74,
                    "lightChannels": [
                        6,
                        7
                    ]
                }
            }
        }
    },
    {
        "changes": {
            "window": 0,
            "outline": 0
        },
        "timeout": 0.06038128749999999,
        "raw": {
            "window": {
                "pinValue": 0,
                "ticks": 48,
                "event": {
                    "deltaTime": 48,
                    "type": "channel",
                    "subtype": "noteOff",
                    "channel": 9,
                    "noteNumber": 54,
                    "velocity": 0,
                    "lightChannels": [
                        6,
                        7
                    ]
                }
            },
            "outline": {
                "pinValue": 0,
                "ticks": 48,
                "event": {
                    "deltaTime": 48,
                    "type": "channel",
                    "subtype": "noteOff",
                    "channel": 9,
                    "noteNumber": 54,
                    "velocity": 0,
                    "lightChannels": [
                        6,
                        7
                    ]
                }
            }
        }
    },
    {
        "changes": {
            "window": 1,
            "outline": 1
        },
        "timeout": 0.19279639166666662,
        "raw": {
            "window": {
                "pinValue": 1,
                "ticks": 8,
                "event": {
                    "deltaTime": 8,
                    "type": "channel",
                    "subtype": "noteOn",
                    "channel": 9,
                    "noteNumber": 54,
                    "velocity": 80,
                    "lightChannels": [
                        6,
                        7
                    ]
                }
            },
            "outline": {
                "pinValue": 1,
                "ticks": 8,
                "event": {
                    "deltaTime": 8,
                    "type": "channel",
                    "subtype": "noteOn",
                    "channel": 9,
                    "noteNumber": 54,
                    "velocity": 80,
                    "lightChannels": [
                        6,
                        7
                    ]
                }
            }
        }
    },
    {
        "changes": {
            "window": 0,
            "outline": 0
        },
        "timeout": 0.06461857083333333,
        "raw": {
            "window": {
                "pinValue": 0,
                "ticks": 49,
                "event": {
                    "deltaTime": 49,
                    "type": "channel",
                    "subtype": "noteOff",
                    "channel": 9,
                    "noteNumber": 54,
                    "velocity": 0,
                    "lightChannels": [
                        6,
                        7
                    ]
                }
            },
            "outline": {
                "pinValue": 0,
                "ticks": 49,
                "event": {
                    "deltaTime": 49,
                    "type": "channel",
                    "subtype": "noteOff",
                    "channel": 9,
                    "noteNumber": 54,
                    "velocity": 0,
                    "lightChannels": [
                        6,
                        7
                    ]
                }
            }
        }
    },
    {
        "changes": {
            "bottom-right": 0
        },
        "timeout": 0.09639819583333332,
        "raw": {
            "bottom-right": {
                "pinValue": 0,
                "ticks": 91,
                "event": {
                    "deltaTime": 91,
                    "type": "channel",
                    "subtype": "noteOff",
                    "channel": 8,
                    "noteNumber": 63,
                    "velocity": 0,
                    "lightChannels": [
                        2
                    ]
                }
            }
        }
    },
    {
        "changes": {
            "col-2": 0
        },
        "timeout": 0.027542341666666664,
        "raw": {
            "col-2": {
                "pinValue": 0,
                "ticks": 26,
                "event": {
                    "deltaTime": 26,
                    "type": "channel",
                    "subtype": "noteOff",
                    "channel": 7,
                    "noteNumber": 63,
                    "velocity": 0,
                    "lightChannels": [
                        4
                    ]
                }
            }
        }
    },
    {
        "changes": {
            "garage": 1
        },
        "timeout": 0.029660983333333328,
        "raw": {
            "garage": {
                "pinValue": 1,
                "ticks": 14,
                "event": {
                    "deltaTime": 14,
                    "type": "channel",
                    "subtype": "noteOn",
                    "channel": 8,
                    "noteNumber": 64,
                    "velocity": 112,
                    "lightChannels": [
                        0
                    ]
                }
            }
        }
    },
    {
        "changes": {
            "col-3": 1
        },
        "timeout": 0.004237283333333333,
        "raw": {
            "col-3": {
                "pinValue": 1,
                "ticks": 4,
                "event": {
                    "deltaTime": 4,
                    "type": "channel",
                    "subtype": "noteOn",
                    "channel": 7,
                    "noteNumber": 64,
                    "velocity": 88,
                    "lightChannels": [
                        5
                    ]
                }
            }
        }
    },
    {
        "changes": {
            "window": 1,
            "outline": 1
        },
        "timeout": 0.03283894583333333,
        "raw": {
            "window": {
                "pinValue": 1,
                "ticks": 0,
                "event": {
                    "deltaTime": 0,
                    "type": "channel",
                    "subtype": "noteOn",
                    "channel": 9,
                    "noteNumber": 54,
                    "velocity": 87,
                    "lightChannels": [
                        6,
                        7
                    ]
                }
            },
            "outline": {
                "pinValue": 1,
                "ticks": 0,
                "event": {
                    "deltaTime": 0,
                    "type": "channel",
                    "subtype": "noteOn",
                    "channel": 9,
                    "noteNumber": 54,
                    "velocity": 87,
                    "lightChannels": [
                        6,
                        7
                    ]
                }
            }
        }
    },
    {
        "changes": {
            "window": 0,
            "outline": 0
        },
        "timeout": 0.06673721249999999,
        "raw": {
            "window": {
                "pinValue": 0,
                "ticks": 63,
                "event": {
                    "deltaTime": 63,
                    "type": "channel",
                    "subtype": "noteOff",
                    "channel": 9,
                    "noteNumber": 54,
                    "velocity": 0,
                    "lightChannels": [
                        6,
                        7
                    ]
                }
            },
            "outline": {
                "pinValue": 0,
                "ticks": 63,
                "event": {
                    "deltaTime": 63,
                    "type": "channel",
                    "subtype": "noteOff",
                    "channel": 9,
                    "noteNumber": 54,
                    "velocity": 0,
                    "lightChannels": [
                        6,
                        7
                    ]
                }
            }
        }
    },
    {
        "changes": {
            "window": 1,
            "outline": 1
        },
        "timeout": 0.18749978749999996,
        "raw": {
            "window": {
                "pinValue": 1,
                "ticks": 17,
                "event": {
                    "deltaTime": 17,
                    "type": "channel",
                    "subtype": "noteOn",
                    "channel": 9,
                    "noteNumber": 54,
                    "velocity": 81,
                    "lightChannels": [
                        6,
                        7
                    ]
                }
            },
            "outline": {
                "pinValue": 1,
                "ticks": 17,
                "event": {
                    "deltaTime": 17,
                    "type": "channel",
                    "subtype": "noteOn",
                    "channel": 9,
                    "noteNumber": 54,
                    "velocity": 81,
                    "lightChannels": [
                        6,
                        7
                    ]
                }
            }
        }
    },
    {
        "changes": {
            "window": 0,
            "outline": 0
        },
        "timeout": 0.06461857083333332,
        "raw": {
            "window": {
                "pinValue": 0,
                "ticks": 61,
                "event": {
                    "deltaTime": 61,
                    "type": "channel",
                    "subtype": "noteOff",
                    "channel": 9,
                    "noteNumber": 54,
                    "velocity": 0,
                    "lightChannels": [
                        6,
                        7
                    ]
                }
            },
            "outline": {
                "pinValue": 0,
                "ticks": 61,
                "event": {
                    "deltaTime": 61,
                    "type": "channel",
                    "subtype": "noteOff",
                    "channel": 9,
                    "noteNumber": 54,
                    "velocity": 0,
                    "lightChannels": [
                        6,
                        7
                    ]
                }
            }
        }
    },
    {
        "changes": {
            "col-3": 0
        },
        "timeout": 0.09639819583333332,
        "raw": {
            "col-3": {
                "pinValue": 0,
                "ticks": 52,
                "event": {
                    "deltaTime": 52,
                    "type": "channel",
                    "subtype": "noteOff",
                    "channel": 7,
                    "noteNumber": 64,
                    "velocity": 0,
                    "lightChannels": [
                        5
                    ]
                }
            }
        }
    },
    {
        "changes": {
            "garage": 0
        },
        "timeout": 0.0031779624999999996,
        "raw": {
            "garage": {
                "pinValue": 0,
                "ticks": 3,
                "event": {
                    "deltaTime": 3,
                    "type": "channel",
                    "subtype": "noteOff",
                    "channel": 8,
                    "noteNumber": 64,
                    "velocity": 0,
                    "lightChannels": [
                        0
                    ]
                }
            }
        }
    },
    {
        "changes": {
            "top-right": 1
        },
        "timeout": 0.05402536249999999,
        "raw": {
            "top-right": {
                "pinValue": 1,
                "ticks": 2,
                "event": {
                    "deltaTime": 2,
                    "type": "channel",
                    "subtype": "noteOn",
                    "channel": 8,
                    "noteNumber": 61,
                    "velocity": 114,
                    "lightChannels": [
                        1
                    ]
                }
            }
        }
    },
    {
        "changes": {
            "window": 1,
            "outline": 1
        },
        "timeout": 0.036016908333333326,
        "raw": {
            "window": {
                "pinValue": 1,
                "ticks": 34,
                "event": {
                    "deltaTime": 34,
                    "type": "channel",
                    "subtype": "noteOn",
                    "channel": 9,
                    "noteNumber": 54,
                    "velocity": 75,
                    "lightChannels": [
                        6,
                        7
                    ]
                }
            },
            "outline": {
                "pinValue": 1,
                "ticks": 34,
                "event": {
                    "deltaTime": 34,
                    "type": "channel",
                    "subtype": "noteOn",
                    "channel": 9,
                    "noteNumber": 54,
                    "velocity": 75,
                    "lightChannels": [
                        6,
                        7
                    ]
                }
            }
        }
    },
    {
        "changes": {
            "window": 0,
            "outline": 0
        },
        "timeout": 0.05720332499999999,
        "raw": {
            "window": {
                "pinValue": 0,
                "ticks": 54,
                "event": {
                    "deltaTime": 54,
                    "type": "channel",
                    "subtype": "noteOff",
                    "channel": 9,
                    "noteNumber": 54,
                    "velocity": 0,
                    "lightChannels": [
                        6,
                        7
                    ]
                }
            },
            "outline": {
                "pinValue": 0,
                "ticks": 54,
                "event": {
                    "deltaTime": 54,
                    "type": "channel",
                    "subtype": "noteOff",
                    "channel": 9,
                    "noteNumber": 54,
                    "velocity": 0,
                    "lightChannels": [
                        6,
                        7
                    ]
                }
            }
        }
    },
    {
        "changes": {
            "window": 1,
            "outline": 1
        },
        "timeout": 0.18008454166666665,
        "raw": {
            "window": {
                "pinValue": 1,
                "ticks": 11,
                "event": {
                    "deltaTime": 11,
                    "type": "channel",
                    "subtype": "noteOn",
                    "channel": 9,
                    "noteNumber": 54,
                    "velocity": 85,
                    "lightChannels": [
                        6,
                        7
                    ]
                }
            },
            "outline": {
                "pinValue": 1,
                "ticks": 11,
                "event": {
                    "deltaTime": 11,
                    "type": "channel",
                    "subtype": "noteOn",
                    "channel": 9,
                    "noteNumber": 54,
                    "velocity": 85,
                    "lightChannels": [
                        6,
                        7
                    ]
                }
            }
        }
    },
    {
        "changes": {
            "window": 0,
            "outline": 0
        },
        "timeout": 0.06461857083333332,
        "raw": {
            "window": {
                "pinValue": 0,
                "ticks": 61,
                "event": {
                    "deltaTime": 61,
                    "type": "channel",
                    "subtype": "noteOff",
                    "channel": 9,
                    "noteNumber": 54,
                    "velocity": 0,
                    "lightChannels": [
                        6,
                        7
                    ]
                }
            },
            "outline": {
                "pinValue": 0,
                "ticks": 61,
                "event": {
                    "deltaTime": 61,
                    "type": "channel",
                    "subtype": "noteOff",
                    "channel": 9,
                    "noteNumber": 54,
                    "velocity": 0,
                    "lightChannels": [
                        6,
                        7
                    ]
                }
            }
        }
    },
    {
        "changes": {
            "top-right": 0
        },
        "timeout": 0.07838974166666665,
        "raw": {
            "top-right": {
                "pinValue": 0,
                "ticks": 31,
                "event": {
                    "deltaTime": 31,
                    "type": "channel",
                    "subtype": "noteOff",
                    "channel": 8,
                    "noteNumber": 61,
                    "velocity": 0,
                    "lightChannels": [
                        1
                    ]
                }
            }
        }
    },
    {
        "changes": {
            "bottom-right": 1
        },
        "timeout": 0.08368634583333334,
        "raw": {
            "bottom-right": {
                "pinValue": 1,
                "ticks": 15,
                "event": {
                    "deltaTime": 15,
                    "type": "channel",
                    "subtype": "noteOn",
                    "channel": 8,
                    "noteNumber": 62,
                    "velocity": 111,
                    "lightChannels": [
                        2
                    ]
                }
            }
        }
    },
    {
        "changes": {
            "window": 1,
            "outline": 1
        },
        "timeout": 0.02966098333333333,
        "raw": {
            "window": {
                "pinValue": 1,
                "ticks": 8,
                "event": {
                    "deltaTime": 8,
                    "type": "channel",
                    "subtype": "noteOn",
                    "channel": 9,
                    "noteNumber": 54,
                    "velocity": 88,
                    "lightChannels": [
                        6,
                        7
                    ]
                }
            },
            "outline": {
                "pinValue": 1,
                "ticks": 8,
                "event": {
                    "deltaTime": 8,
                    "type": "channel",
                    "subtype": "noteOn",
                    "channel": 9,
                    "noteNumber": 54,
                    "velocity": 88,
                    "lightChannels": [
                        6,
                        7
                    ]
                }
            }
        }
    },
    {
        "changes": {
            "window": 0,
            "outline": 0
        },
        "timeout": 0.06144060833333333,
        "raw": {
            "window": {
                "pinValue": 0,
                "ticks": 58,
                "event": {
                    "deltaTime": 58,
                    "type": "channel",
                    "subtype": "noteOff",
                    "channel": 9,
                    "noteNumber": 54,
                    "velocity": 0,
                    "lightChannels": [
                        6,
                        7
                    ]
                }
            },
            "outline": {
                "pinValue": 0,
                "ticks": 58,
                "event": {
                    "deltaTime": 58,
                    "type": "channel",
                    "subtype": "noteOff",
                    "channel": 9,
                    "noteNumber": 54,
                    "velocity": 0,
                    "lightChannels": [
                        6,
                        7
                    ]
                }
            }
        }
    },
    {
        "changes": {
            "window": 1,
            "outline": 1
        },
        "timeout": 0.19279639166666662,
        "raw": {
            "window": {
                "pinValue": 1,
                "ticks": 96,
                "event": {
                    "deltaTime": 96,
                    "type": "channel",
                    "subtype": "noteOn",
                    "channel": 9,
                    "noteNumber": 54,
                    "velocity": 84,
                    "lightChannels": [
                        6,
                        7
                    ]
                }
            },
            "outline": {
                "pinValue": 1,
                "ticks": 96,
                "event": {
                    "deltaTime": 96,
                    "type": "channel",
                    "subtype": "noteOn",
                    "channel": 9,
                    "noteNumber": 54,
                    "velocity": 84,
                    "lightChannels": [
                        6,
                        7
                    ]
                }
            }
        }
    },
    {
        "changes": {
            "col-1": 1
        },
        "timeout": 0.01694913333333333,
        "raw": {
            "col-1": {
                "pinValue": 1,
                "ticks": 16,
                "event": {
                    "deltaTime": 16,
                    "type": "channel",
                    "subtype": "noteOn",
                    "channel": 2,
                    "noteNumber": 74,
                    "velocity": 119,
                    "lightChannels": [
                        3
                    ]
                }
            }
        }
    },
    {
        "changes": {
            "window": 0,
            "outline": 0
        },
        "timeout": 0.04661011666666666,
        "raw": {
            "window": {
                "pinValue": 0,
                "ticks": 44,
                "event": {
                    "deltaTime": 44,
                    "type": "channel",
                    "subtype": "noteOff",
                    "channel": 9,
                    "noteNumber": 54,
                    "velocity": 0,
                    "lightChannels": [
                        6,
                        7
                    ]
                }
            },
            "outline": {
                "pinValue": 0,
                "ticks": 44,
                "event": {
                    "deltaTime": 44,
                    "type": "channel",
                    "subtype": "noteOff",
                    "channel": 9,
                    "noteNumber": 54,
                    "velocity": 0,
                    "lightChannels": [
                        6,
                        7
                    ]
                }
            }
        }
    },
    {
        "changes": {
            "col-1": 0
        },
        "timeout": 0.030720304166666663,
        "raw": {
            "col-1": {
                "pinValue": 0,
                "ticks": 29,
                "event": {
                    "deltaTime": 29,
                    "type": "channel",
                    "subtype": "noteOff",
                    "channel": 2,
                    "noteNumber": 74,
                    "velocity": 0,
                    "lightChannels": [
                        3
                    ]
                }
            }
        }
    },
    {
        "changes": {
            "bottom-right": 0
        },
        "timeout": 0.1758472583333333,
        "raw": {
            "bottom-right": {
                "pinValue": 0,
                "ticks": 63,
                "event": {
                    "deltaTime": 63,
                    "type": "channel",
                    "subtype": "noteOff",
                    "channel": 8,
                    "noteNumber": 62,
                    "velocity": 0,
                    "lightChannels": [
                        2
                    ]
                }
            }
        }
    },
    {
        "changes": {
            "window": 1,
            "outline": 1
        },
        "timeout": 0.0021186416666666664,
        "raw": {
            "window": {
                "pinValue": 1,
                "ticks": 0,
                "event": {
                    "deltaTime": 0,
                    "type": "channel",
                    "subtype": "noteOn",
                    "channel": 9,
                    "noteNumber": 54,
                    "velocity": 76,
                    "lightChannels": [
                        6,
                        7
                    ]
                }
            },
            "outline": {
                "pinValue": 1,
                "ticks": 0,
                "event": {
                    "deltaTime": 0,
                    "type": "channel",
                    "subtype": "noteOn",
                    "channel": 9,
                    "noteNumber": 54,
                    "velocity": 76,
                    "lightChannels": [
                        6,
                        7
                    ]
                }
            }
        }
    },
    {
        "changes": {
            "col-2": 1
        },
        "timeout": 0.006355924999999999,
        "raw": {
            "col-2": {
                "pinValue": 1,
                "ticks": 6,
                "event": {
                    "deltaTime": 6,
                    "type": "channel",
                    "subtype": "noteOn",
                    "channel": 2,
                    "noteNumber": 69,
                    "velocity": 122,
                    "lightChannels": [
                        4
                    ]
                }
            }
        }
    },
    {
        "changes": {
            "window": 0,
            "outline": 0
        },
        "timeout": 0.05826264583333333,
        "raw": {
            "window": {
                "pinValue": 0,
                "ticks": 16,
                "event": {
                    "deltaTime": 16,
                    "type": "channel",
                    "subtype": "noteOff",
                    "channel": 9,
                    "noteNumber": 54,
                    "velocity": 0,
                    "lightChannels": [
                        6,
                        7
                    ]
                }
            },
            "outline": {
                "pinValue": 0,
                "ticks": 16,
                "event": {
                    "deltaTime": 16,
                    "type": "channel",
                    "subtype": "noteOff",
                    "channel": 9,
                    "noteNumber": 54,
                    "velocity": 0,
                    "lightChannels": [
                        6,
                        7
                    ]
                }
            }
        }
    },
    {
        "changes": {
            "col-2": 0
        },
        "timeout": 0.03283894583333333,
        "raw": {
            "col-2": {
                "pinValue": 0,
                "ticks": 31,
                "event": {
                    "deltaTime": 31,
                    "type": "channel",
                    "subtype": "noteOff",
                    "channel": 2,
                    "noteNumber": 69,
                    "velocity": 0,
                    "lightChannels": [
                        4
                    ]
                }
            }
        }
    },
    {
        "changes": {
            "col-3": 1
        },
        "timeout": 0.021186416666666666,
        "raw": {
            "col-3": {
                "pinValue": 1,
                "ticks": 20,
                "event": {
                    "deltaTime": 20,
                    "type": "channel",
                    "subtype": "noteOn",
                    "channel": 2,
                    "noteNumber": 67,
                    "velocity": 115,
                    "lightChannels": [
                        5
                    ]
                }
            }
        }
    },
    {
        "changes": {
            "col-3": 0
        },
        "timeout": 0.07944906249999999,
        "raw": {
            "col-3": {
                "pinValue": 0,
                "ticks": 18,
                "event": {
                    "deltaTime": 18,
                    "type": "channel",
                    "subtype": "noteOff",
                    "channel": 2,
                    "noteNumber": 67,
                    "velocity": 0,
                    "lightChannels": [
                        5
                    ]
                }
            }
        }
    },
    {
        "changes": {
            "garden": 1
        },
        "timeout": 0.029660983333333328,
        "raw": {
            "garden": {
                "pinValue": 1,
                "ticks": 28,
                "event": {
                    "deltaTime": 28,
                    "type": "channel",
                    "subtype": "noteOn",
                    "channel": 2,
                    "noteNumber": 62,
                    "velocity": 112,
                    "lightChannels": [
                        8
                    ]
                }
            }
        }
    },
    {
        "changes": {
            "window": 1,
            "outline": 1
        },
        "timeout": 0.036016908333333326,
        "raw": {
            "window": {
                "pinValue": 1,
                "ticks": 9,
                "event": {
                    "deltaTime": 9,
                    "type": "channel",
                    "subtype": "noteOn",
                    "channel": 9,
                    "noteNumber": 54,
                    "velocity": 79,
                    "lightChannels": [
                        6,
                        7
                    ]
                }
            },
            "outline": {
                "pinValue": 1,
                "ticks": 9,
                "event": {
                    "deltaTime": 9,
                    "type": "channel",
                    "subtype": "noteOn",
                    "channel": 9,
                    "noteNumber": 54,
                    "velocity": 79,
                    "lightChannels": [
                        6,
                        7
                    ]
                }
            }
        }
    },
    {
        "changes": {
            "window": 0,
            "outline": 0
        },
        "timeout": 0.049788079166666666,
        "raw": {
            "window": {
                "pinValue": 0,
                "ticks": 3,
                "event": {
                    "deltaTime": 3,
                    "type": "channel",
                    "subtype": "noteOff",
                    "channel": 9,
                    "noteNumber": 54,
                    "velocity": 0,
                    "lightChannels": [
                        6,
                        7
                    ]
                }
            },
            "outline": {
                "pinValue": 0,
                "ticks": 3,
                "event": {
                    "deltaTime": 3,
                    "type": "channel",
                    "subtype": "noteOff",
                    "channel": 9,
                    "noteNumber": 54,
                    "velocity": 0,
                    "lightChannels": [
                        6,
                        7
                    ]
                }
            }
        }
    },
    {
        "changes": {
            "garden": 0
        },
        "timeout": 0.0095338875,
        "raw": {
            "garden": {
                "pinValue": 0,
                "ticks": 9,
                "event": {
                    "deltaTime": 9,
                    "type": "channel",
                    "subtype": "noteOff",
                    "channel": 2,
                    "noteNumber": 62,
                    "velocity": 0,
                    "lightChannels": [
                        8
                    ]
                }
            }
        }
    },
    {
        "changes": {
            "tree": 1
        },
        "timeout": 0.16419472916666664,
        "raw": {
            "tree": {
                "pinValue": 1,
                "ticks": 155,
                "event": {
                    "deltaTime": 155,
                    "type": "channel",
                    "subtype": "noteOn",
                    "channel": 2,
                    "noteNumber": 67,
                    "velocity": 119,
                    "lightChannels": [
                        9
                    ]
                }
            }
        }
    },
    {
        "changes": {
            "garage": 1,
            "top-right": 1,
            "bottom-right": 1
        },
        "timeout": 0.0031779624999999996,
        "raw": {
            "garage": {
                "pinValue": 1,
                "ticks": 3,
                "event": {
                    "deltaTime": 3,
                    "type": "channel",
                    "subtype": "noteOn",
                    "channel": 8,
                    "noteNumber": 62,
                    "velocity": 121,
                    "lightChannels": [
                        0,
                        1,
                        2
                    ]
                }
            },
            "top-right": {
                "pinValue": 1,
                "ticks": 3,
                "event": {
                    "deltaTime": 3,
                    "type": "channel",
                    "subtype": "noteOn",
                    "channel": 8,
                    "noteNumber": 62,
                    "velocity": 121,
                    "lightChannels": [
                        0,
                        1,
                        2
                    ]
                }
            },
            "bottom-right": {
                "pinValue": 1,
                "ticks": 3,
                "event": {
                    "deltaTime": 3,
                    "type": "channel",
                    "subtype": "noteOn",
                    "channel": 8,
                    "noteNumber": 62,
                    "velocity": 121,
                    "lightChannels": [
                        0,
                        1,
                        2
                    ]
                }
            }
        }
    },
    {
        "changes": {
            "window": 1,
            "outline": 1
        },
        "timeout": 0.03813555,
        "raw": {
            "window": {
                "pinValue": 1,
                "ticks": 9,
                "event": {
                    "deltaTime": 9,
                    "type": "channel",
                    "subtype": "noteOn",
                    "channel": 9,
                    "noteNumber": 54,
                    "velocity": 83,
                    "lightChannels": [
                        6,
                        7
                    ]
                }
            },
            "outline": {
                "pinValue": 1,
                "ticks": 9,
                "event": {
                    "deltaTime": 9,
                    "type": "channel",
                    "subtype": "noteOn",
                    "channel": 9,
                    "noteNumber": 54,
                    "velocity": 83,
                    "lightChannels": [
                        6,
                        7
                    ]
                }
            }
        }
    },
    {
        "changes": {
            "tree": 0
        },
        "timeout": 0.05402536249999999,
        "raw": {
            "tree": {
                "pinValue": 0,
                "ticks": 51,
                "event": {
                    "deltaTime": 51,
                    "type": "channel",
                    "subtype": "noteOff",
                    "channel": 2,
                    "noteNumber": 67,
                    "velocity": 0,
                    "lightChannels": [
                        9
                    ]
                }
            }
        }
    },
    {
        "changes": {
            "window": 0,
            "outline": 0
        },
        "timeout": 0.008474566666666666,
        "raw": {
            "window": {
                "pinValue": 0,
                "ticks": 8,
                "event": {
                    "deltaTime": 8,
                    "type": "channel",
                    "subtype": "noteOff",
                    "channel": 9,
                    "noteNumber": 54,
                    "velocity": 0,
                    "lightChannels": [
                        6,
                        7
                    ]
                }
            },
            "outline": {
                "pinValue": 0,
                "ticks": 8,
                "event": {
                    "deltaTime": 8,
                    "type": "channel",
                    "subtype": "noteOff",
                    "channel": 9,
                    "noteNumber": 54,
                    "velocity": 0,
                    "lightChannels": [
                        6,
                        7
                    ]
                }
            }
        }
    },
    {
        "changes": {
            "col-1": 1,
            "col-2": 1,
            "col-3": 1,
            "garden": 1,
            "tree": 1
        },
        "timeout": 0.1567794833333333,
        "raw": {
            "col-1": {
                "pinValue": 1,
                "ticks": 66,
                "event": {
                    "deltaTime": 66,
                    "type": "channel",
                    "subtype": "noteOn",
                    "channel": 2,
                    "noteNumber": 69,
                    "velocity": 127,
                    "lightChannels": [
                        3,
                        4,
                        5,
                        8,
                        9
                    ]
                }
            },
            "col-2": {
                "pinValue": 1,
                "ticks": 66,
                "event": {
                    "deltaTime": 66,
                    "type": "channel",
                    "subtype": "noteOn",
                    "channel": 2,
                    "noteNumber": 69,
                    "velocity": 127,
                    "lightChannels": [
                        3,
                        4,
                        5,
                        8,
                        9
                    ]
                }
            },
            "col-3": {
                "pinValue": 1,
                "ticks": 66,
                "event": {
                    "deltaTime": 66,
                    "type": "channel",
                    "subtype": "noteOn",
                    "channel": 2,
                    "noteNumber": 69,
                    "velocity": 127,
                    "lightChannels": [
                        3,
                        4,
                        5,
                        8,
                        9
                    ]
                }
            },
            "garden": {
                "pinValue": 1,
                "ticks": 66,
                "event": {
                    "deltaTime": 66,
                    "type": "channel",
                    "subtype": "noteOn",
                    "channel": 2,
                    "noteNumber": 69,
                    "velocity": 127,
                    "lightChannels": [
                        3,
                        4,
                        5,
                        8,
                        9
                    ]
                }
            },
            "tree": {
                "pinValue": 1,
                "ticks": 66,
                "event": {
                    "deltaTime": 66,
                    "type": "channel",
                    "subtype": "noteOn",
                    "channel": 2,
                    "noteNumber": 69,
                    "velocity": 127,
                    "lightChannels": [
                        3,
                        4,
                        5,
                        8,
                        9
                    ]
                }
            }
        }
    },
    {
        "changes": {
            "col-1": 1
        },
        "timeout": 0.02648302083333333,
        "raw": {
            "col-1": {
                "pinValue": 1,
                "ticks": 7,
                "event": {
                    "deltaTime": 7,
                    "type": "channel",
                    "subtype": "noteOn",
                    "channel": 3,
                    "noteNumber": 86,
                    "velocity": 123,
                    "lightChannels": [
                        3
                    ]
                }
            }
        }
    },
    {
        "changes": {
            "window": 1,
            "outline": 1
        },
        "timeout": 0.006355924999999999,
        "raw": {
            "window": {
                "pinValue": 1,
                "ticks": 6,
                "event": {
                    "deltaTime": 6,
                    "type": "channel",
                    "subtype": "noteOn",
                    "channel": 9,
                    "noteNumber": 54,
                    "velocity": 87,
                    "lightChannels": [
                        6,
                        7
                    ]
                }
            },
            "outline": {
                "pinValue": 1,
                "ticks": 6,
                "event": {
                    "deltaTime": 6,
                    "type": "channel",
                    "subtype": "noteOn",
                    "channel": 9,
                    "noteNumber": 54,
                    "velocity": 87,
                    "lightChannels": [
                        6,
                        7
                    ]
                }
            }
        }
    },
    {
        "changes": {
            "window": 0,
            "outline": 0
        },
        "timeout": 0.06144060833333333,
        "raw": {
            "window": {
                "pinValue": 0,
                "ticks": 58,
                "event": {
                    "deltaTime": 58,
                    "type": "channel",
                    "subtype": "noteOff",
                    "channel": 9,
                    "noteNumber": 54,
                    "velocity": 0,
                    "lightChannels": [
                        6,
                        7
                    ]
                }
            },
            "outline": {
                "pinValue": 0,
                "ticks": 58,
                "event": {
                    "deltaTime": 58,
                    "type": "channel",
                    "subtype": "noteOff",
                    "channel": 9,
                    "noteNumber": 54,
                    "velocity": 0,
                    "lightChannels": [
                        6,
                        7
                    ]
                }
            }
        }
    },
    {
        "changes": {
            "col-1": 0,
            "col-2": 0,
            "col-3": 0,
            "garden": 0,
            "tree": 0
        },
        "timeout": 0.008474566666666666,
        "raw": {
            "col-1": {
                "pinValue": 0,
                "ticks": 8,
                "event": {
                    "deltaTime": 8,
                    "type": "channel",
                    "subtype": "noteOff",
                    "channel": 2,
                    "noteNumber": 69,
                    "velocity": 0,
                    "lightChannels": [
                        3,
                        4,
                        5,
                        8,
                        9
                    ]
                }
            },
            "col-2": {
                "pinValue": 0,
                "ticks": 8,
                "event": {
                    "deltaTime": 8,
                    "type": "channel",
                    "subtype": "noteOff",
                    "channel": 2,
                    "noteNumber": 69,
                    "velocity": 0,
                    "lightChannels": [
                        3,
                        4,
                        5,
                        8,
                        9
                    ]
                }
            },
            "col-3": {
                "pinValue": 0,
                "ticks": 8,
                "event": {
                    "deltaTime": 8,
                    "type": "channel",
                    "subtype": "noteOff",
                    "channel": 2,
                    "noteNumber": 69,
                    "velocity": 0,
                    "lightChannels": [
                        3,
                        4,
                        5,
                        8,
                        9
                    ]
                }
            },
            "garden": {
                "pinValue": 0,
                "ticks": 8,
                "event": {
                    "deltaTime": 8,
                    "type": "channel",
                    "subtype": "noteOff",
                    "channel": 2,
                    "noteNumber": 69,
                    "velocity": 0,
                    "lightChannels": [
                        3,
                        4,
                        5,
                        8,
                        9
                    ]
                }
            },
            "tree": {
                "pinValue": 0,
                "ticks": 8,
                "event": {
                    "deltaTime": 8,
                    "type": "channel",
                    "subtype": "noteOff",
                    "channel": 2,
                    "noteNumber": 69,
                    "velocity": 0,
                    "lightChannels": [
                        3,
                        4,
                        5,
                        8,
                        9
                    ]
                }
            }
        }
    },
    {
        "changes": {
            "col-1": 0
        },
        "timeout": 0.0021186416666666664,
        "raw": {
            "col-1": {
                "pinValue": 0,
                "ticks": 2,
                "event": {
                    "deltaTime": 2,
                    "type": "channel",
                    "subtype": "noteOff",
                    "channel": 3,
                    "noteNumber": 86,
                    "velocity": 0,
                    "lightChannels": [
                        3
                    ]
                }
            }
        }
    },
    {
        "changes": {
            "col-2": 1
        },
        "timeout": 0.16525404999999999,
        "raw": {
            "col-2": {
                "pinValue": 1,
                "ticks": 59,
                "event": {
                    "deltaTime": 59,
                    "type": "channel",
                    "subtype": "noteOn",
                    "channel": 3,
                    "noteNumber": 81,
                    "velocity": 115,
                    "lightChannels": [
                        4
                    ]
                }
            }
        }
    },
    {
        "changes": {
            "window": 1,
            "outline": 1
        },
        "timeout": 0.0021186416666666664,
        "raw": {
            "window": {
                "pinValue": 1,
                "ticks": 0,
                "event": {
                    "deltaTime": 0,
                    "type": "channel",
                    "subtype": "noteOn",
                    "channel": 9,
                    "noteNumber": 54,
                    "velocity": 83,
                    "lightChannels": [
                        6,
                        7
                    ]
                }
            },
            "outline": {
                "pinValue": 1,
                "ticks": 0,
                "event": {
                    "deltaTime": 0,
                    "type": "channel",
                    "subtype": "noteOn",
                    "channel": 9,
                    "noteNumber": 54,
                    "velocity": 83,
                    "lightChannels": [
                        6,
                        7
                    ]
                }
            }
        }
    },
    {
        "changes": {
            "garage": 0,
            "top-right": 0,
            "bottom-right": 0
        },
        "timeout": 0.004237283333333333,
        "raw": {
            "garage": {
                "pinValue": 0,
                "ticks": 3,
                "event": {
                    "deltaTime": 3,
                    "type": "channel",
                    "subtype": "noteOff",
                    "channel": 8,
                    "noteNumber": 62,
                    "velocity": 0,
                    "lightChannels": [
                        0,
                        1,
                        2
                    ]
                }
            },
            "top-right": {
                "pinValue": 0,
                "ticks": 3,
                "event": {
                    "deltaTime": 3,
                    "type": "channel",
                    "subtype": "noteOff",
                    "channel": 8,
                    "noteNumber": 62,
                    "velocity": 0,
                    "lightChannels": [
                        0,
                        1,
                        2
                    ]
                }
            },
            "bottom-right": {
                "pinValue": 0,
                "ticks": 3,
                "event": {
                    "deltaTime": 3,
                    "type": "channel",
                    "subtype": "noteOff",
                    "channel": 8,
                    "noteNumber": 62,
                    "velocity": 0,
                    "lightChannels": [
                        0,
                        1,
                        2
                    ]
                }
            }
        }
    },
    {
        "changes": {
            "window": 0,
            "outline": 0
        },
        "timeout": 0.06355924999999998,
        "raw": {
            "window": {
                "pinValue": 0,
                "ticks": 32,
                "event": {
                    "deltaTime": 32,
                    "type": "channel",
                    "subtype": "noteOff",
                    "channel": 9,
                    "noteNumber": 54,
                    "velocity": 0,
                    "lightChannels": [
                        6,
                        7
                    ]
                }
            },
            "outline": {
                "pinValue": 0,
                "ticks": 32,
                "event": {
                    "deltaTime": 32,
                    "type": "channel",
                    "subtype": "noteOff",
                    "channel": 9,
                    "noteNumber": 54,
                    "velocity": 0,
                    "lightChannels": [
                        6,
                        7
                    ]
                }
            }
        }
    },
    {
        "changes": {
            "col-2": 0
        },
        "timeout": 0.007415245833333333,
        "raw": {
            "col-2": {
                "pinValue": 0,
                "ticks": 5,
                "event": {
                    "deltaTime": 5,
                    "type": "channel",
                    "subtype": "noteOff",
                    "channel": 3,
                    "noteNumber": 81,
                    "velocity": 0,
                    "lightChannels": [
                        4
                    ]
                }
            }
        }
    },
    {
        "changes": {
            "col-3": 1
        },
        "timeout": 0.030720304166666663,
        "raw": {
            "col-3": {
                "pinValue": 1,
                "ticks": 29,
                "event": {
                    "deltaTime": 29,
                    "type": "channel",
                    "subtype": "noteOn",
                    "channel": 3,
                    "noteNumber": 79,
                    "velocity": 118,
                    "lightChannels": [
                        5
                    ]
                }
            }
        }
    },
    {
        "changes": {
            "col-3": 0
        },
        "timeout": 0.07733042083333333,
        "raw": {
            "col-3": {
                "pinValue": 0,
                "ticks": 2,
                "event": {
                    "deltaTime": 2,
                    "type": "channel",
                    "subtype": "noteOff",
                    "channel": 3,
                    "noteNumber": 79,
                    "velocity": 0,
                    "lightChannels": [
                        5
                    ]
                }
            }
        }
    },
    {
        "changes": {
            "garden": 1
        },
        "timeout": 0.0349575875,
        "raw": {
            "garden": {
                "pinValue": 1,
                "ticks": 25,
                "event": {
                    "deltaTime": 25,
                    "type": "channel",
                    "subtype": "noteOn",
                    "channel": 3,
                    "noteNumber": 74,
                    "velocity": 111,
                    "lightChannels": [
                        8
                    ]
                }
            }
        }
    },
    {
        "changes": {
            "window": 1,
            "outline": 1
        },
        "timeout": 0.0254237,
        "raw": {
            "window": {
                "pinValue": 1,
                "ticks": 0,
                "event": {
                    "deltaTime": 0,
                    "type": "channel",
                    "subtype": "noteOn",
                    "channel": 9,
                    "noteNumber": 54,
                    "velocity": 84,
                    "lightChannels": [
                        6,
                        7
                    ]
                }
            },
            "outline": {
                "pinValue": 1,
                "ticks": 0,
                "event": {
                    "deltaTime": 0,
                    "type": "channel",
                    "subtype": "noteOn",
                    "channel": 9,
                    "noteNumber": 54,
                    "velocity": 84,
                    "lightChannels": [
                        6,
                        7
                    ]
                }
            }
        }
    },
    {
        "changes": {
            "window": 0,
            "outline": 0
        },
        "timeout": 0.061440608333333334,
        "raw": {
            "window": {
                "pinValue": 0,
                "ticks": 4,
                "event": {
                    "deltaTime": 4,
                    "type": "channel",
                    "subtype": "noteOff",
                    "channel": 9,
                    "noteNumber": 54,
                    "velocity": 0,
                    "lightChannels": [
                        6,
                        7
                    ]
                }
            },
            "outline": {
                "pinValue": 0,
                "ticks": 4,
                "event": {
                    "deltaTime": 4,
                    "type": "channel",
                    "subtype": "noteOff",
                    "channel": 9,
                    "noteNumber": 54,
                    "velocity": 0,
                    "lightChannels": [
                        6,
                        7
                    ]
                }
            }
        }
    },
    {
        "changes": {
            "garden": 0
        },
        "timeout": 0.0349575875,
        "raw": {
            "garden": {
                "pinValue": 0,
                "ticks": 1,
                "event": {
                    "deltaTime": 1,
                    "type": "channel",
                    "subtype": "noteOff",
                    "channel": 3,
                    "noteNumber": 74,
                    "velocity": 0,
                    "lightChannels": [
                        8
                    ]
                }
            }
        }
    },
    {
        "changes": {
            "tree": 1
        },
        "timeout": 0.15677948333333333,
        "raw": {
            "tree": {
                "pinValue": 1,
                "ticks": 4,
                "event": {
                    "deltaTime": 4,
                    "type": "channel",
                    "subtype": "noteOn",
                    "channel": 3,
                    "noteNumber": 79,
                    "velocity": 118,
                    "lightChannels": [
                        9
                    ]
                }
            }
        }
    },
    {
        "changes": {
            "window": 1,
            "outline": 1
        },
        "timeout": 0.018008454166666667,
        "raw": {
            "window": {
                "pinValue": 1,
                "ticks": 11,
                "event": {
                    "deltaTime": 11,
                    "type": "channel",
                    "subtype": "noteOn",
                    "channel": 9,
                    "noteNumber": 54,
                    "velocity": 81,
                    "lightChannels": [
                        6,
                        7
                    ]
                }
            },
            "outline": {
                "pinValue": 1,
                "ticks": 11,
                "event": {
                    "deltaTime": 11,
                    "type": "channel",
                    "subtype": "noteOn",
                    "channel": 9,
                    "noteNumber": 54,
                    "velocity": 81,
                    "lightChannels": [
                        6,
                        7
                    ]
                }
            }
        }
    },
    {
        "changes": {
            "window": 0,
            "outline": 0
        },
        "timeout": 0.0667372125,
        "raw": {
            "window": {
                "pinValue": 0,
                "ticks": 10,
                "event": {
                    "deltaTime": 10,
                    "type": "channel",
                    "subtype": "noteOff",
                    "channel": 9,
                    "noteNumber": 54,
                    "velocity": 0,
                    "lightChannels": [
                        6,
                        7
                    ]
                }
            },
            "outline": {
                "pinValue": 0,
                "ticks": 10,
                "event": {
                    "deltaTime": 10,
                    "type": "channel",
                    "subtype": "noteOff",
                    "channel": 9,
                    "noteNumber": 54,
                    "velocity": 0,
                    "lightChannels": [
                        6,
                        7
                    ]
                }
            }
        }
    },
    {
        "changes": {
            "tree": 0
        },
        "timeout": 0.022245737499999998,
        "raw": {
            "tree": {
                "pinValue": 0,
                "ticks": 3,
                "event": {
                    "deltaTime": 3,
                    "type": "channel",
                    "subtype": "noteOff",
                    "channel": 3,
                    "noteNumber": 79,
                    "velocity": 0,
                    "lightChannels": [
                        9
                    ]
                }
            }
        }
    },
    {
        "changes": {
            "col-1": 1,
            "col-2": 1,
            "col-3": 1,
            "garden": 1,
            "tree": 1
        },
        "timeout": 0.14618627499999998,
        "raw": {
            "col-1": {
                "pinValue": 1,
                "ticks": 9,
                "event": {
                    "deltaTime": 9,
                    "type": "channel",
                    "subtype": "noteOn",
                    "channel": 3,
                    "noteNumber": 81,
                    "velocity": 127,
                    "lightChannels": [
                        3,
                        4,
                        5,
                        8,
                        9
                    ]
                }
            },
            "col-2": {
                "pinValue": 1,
                "ticks": 9,
                "event": {
                    "deltaTime": 9,
                    "type": "channel",
                    "subtype": "noteOn",
                    "channel": 3,
                    "noteNumber": 81,
                    "velocity": 127,
                    "lightChannels": [
                        3,
                        4,
                        5,
                        8,
                        9
                    ]
                }
            },
            "col-3": {
                "pinValue": 1,
                "ticks": 9,
                "event": {
                    "deltaTime": 9,
                    "type": "channel",
                    "subtype": "noteOn",
                    "channel": 3,
                    "noteNumber": 81,
                    "velocity": 127,
                    "lightChannels": [
                        3,
                        4,
                        5,
                        8,
                        9
                    ]
                }
            },
            "garden": {
                "pinValue": 1,
                "ticks": 9,
                "event": {
                    "deltaTime": 9,
                    "type": "channel",
                    "subtype": "noteOn",
                    "channel": 3,
                    "noteNumber": 81,
                    "velocity": 127,
                    "lightChannels": [
                        3,
                        4,
                        5,
                        8,
                        9
                    ]
                }
            },
            "tree": {
                "pinValue": 1,
                "ticks": 9,
                "event": {
                    "deltaTime": 9,
                    "type": "channel",
                    "subtype": "noteOn",
                    "channel": 3,
                    "noteNumber": 81,
                    "velocity": 127,
                    "lightChannels": [
                        3,
                        4,
                        5,
                        8,
                        9
                    ]
                }
            }
        }
    },
    {
        "changes": {
            "col-1": 1
        },
        "timeout": 0.011652529166666665,
        "raw": {
            "col-1": {
                "pinValue": 1,
                "ticks": 11,
                "event": {
                    "deltaTime": 11,
                    "type": "channel",
                    "subtype": "noteOn",
                    "channel": 2,
                    "noteNumber": 74,
                    "velocity": 121,
                    "lightChannels": [
                        3
                    ]
                }
            }
        }
    },
    {
        "changes": {
            "window": 1,
            "outline": 1
        },
        "timeout": 0.0031779624999999996,
        "raw": {
            "window": {
                "pinValue": 1,
                "ticks": 3,
                "event": {
                    "deltaTime": 3,
                    "type": "channel",
                    "subtype": "noteOn",
                    "channel": 9,
                    "noteNumber": 54,
                    "velocity": 84,
                    "lightChannels": [
                        6,
                        7
                    ]
                }
            },
            "outline": {
                "pinValue": 1,
                "ticks": 3,
                "event": {
                    "deltaTime": 3,
                    "type": "channel",
                    "subtype": "noteOn",
                    "channel": 9,
                    "noteNumber": 54,
                    "velocity": 84,
                    "lightChannels": [
                        6,
                        7
                    ]
                }
            }
        }
    },
    {
        "changes": {
            "window": 0,
            "outline": 0
        },
        "timeout": 0.06038128749999999,
        "raw": {
            "window": {
                "pinValue": 0,
                "ticks": 13,
                "event": {
                    "deltaTime": 13,
                    "type": "channel",
                    "subtype": "noteOff",
                    "channel": 9,
                    "noteNumber": 54,
                    "velocity": 0,
                    "lightChannels": [
                        6,
                        7
                    ]
                }
            },
            "outline": {
                "pinValue": 0,
                "ticks": 13,
                "event": {
                    "deltaTime": 13,
                    "type": "channel",
                    "subtype": "noteOff",
                    "channel": 9,
                    "noteNumber": 54,
                    "velocity": 0,
                    "lightChannels": [
                        6,
                        7
                    ]
                }
            }
        }
    },
    {
        "changes": {
            "col-1": 0
        },
        "timeout": 0.02648302083333333,
        "raw": {
            "col-1": {
                "pinValue": 0,
                "ticks": 13,
                "event": {
                    "deltaTime": 13,
                    "type": "channel",
                    "subtype": "noteOff",
                    "channel": 2,
                    "noteNumber": 74,
                    "velocity": 0,
                    "lightChannels": [
                        3
                    ]
                }
            }
        }
    },
    {
        "changes": {
            "col-1": 0,
            "col-2": 0,
            "col-3": 0,
            "garden": 0,
            "tree": 0
        },
        "timeout": 0.012711849999999998,
        "raw": {
            "col-1": {
                "pinValue": 0,
                "ticks": 12,
                "event": {
                    "deltaTime": 12,
                    "type": "channel",
                    "subtype": "noteOff",
                    "channel": 3,
                    "noteNumber": 81,
                    "velocity": 0,
                    "lightChannels": [
                        3,
                        4,
                        5,
                        8,
                        9
                    ]
                }
            },
            "col-2": {
                "pinValue": 0,
                "ticks": 12,
                "event": {
                    "deltaTime": 12,
                    "type": "channel",
                    "subtype": "noteOff",
                    "channel": 3,
                    "noteNumber": 81,
                    "velocity": 0,
                    "lightChannels": [
                        3,
                        4,
                        5,
                        8,
                        9
                    ]
                }
            },
            "col-3": {
                "pinValue": 0,
                "ticks": 12,
                "event": {
                    "deltaTime": 12,
                    "type": "channel",
                    "subtype": "noteOff",
                    "channel": 3,
                    "noteNumber": 81,
                    "velocity": 0,
                    "lightChannels": [
                        3,
                        4,
                        5,
                        8,
                        9
                    ]
                }
            },
            "garden": {
                "pinValue": 0,
                "ticks": 12,
                "event": {
                    "deltaTime": 12,
                    "type": "channel",
                    "subtype": "noteOff",
                    "channel": 3,
                    "noteNumber": 81,
                    "velocity": 0,
                    "lightChannels": [
                        3,
                        4,
                        5,
                        8,
                        9
                    ]
                }
            },
            "tree": {
                "pinValue": 0,
                "ticks": 12,
                "event": {
                    "deltaTime": 12,
                    "type": "channel",
                    "subtype": "noteOff",
                    "channel": 3,
                    "noteNumber": 81,
                    "velocity": 0,
                    "lightChannels": [
                        3,
                        4,
                        5,
                        8,
                        9
                    ]
                }
            }
        }
    },
    {
        "changes": {
            "window": 1,
            "outline": 1
        },
        "timeout": 0.14512695416666666,
        "raw": {
            "window": {
                "pinValue": 1,
                "ticks": 14,
                "event": {
                    "deltaTime": 14,
                    "type": "channel",
                    "subtype": "noteOn",
                    "channel": 9,
                    "noteNumber": 54,
                    "velocity": 85,
                    "lightChannels": [
                        6,
                        7
                    ]
                }
            },
            "outline": {
                "pinValue": 1,
                "ticks": 14,
                "event": {
                    "deltaTime": 14,
                    "type": "channel",
                    "subtype": "noteOn",
                    "channel": 9,
                    "noteNumber": 54,
                    "velocity": 85,
                    "lightChannels": [
                        6,
                        7
                    ]
                }
            }
        }
    },
    {
        "changes": {
            "col-2": 1
        },
        "timeout": 0.0031779624999999996,
        "raw": {
            "col-2": {
                "pinValue": 1,
                "ticks": 3,
                "event": {
                    "deltaTime": 3,
                    "type": "channel",
                    "subtype": "noteOn",
                    "channel": 2,
                    "noteNumber": 69,
                    "velocity": 127,
                    "lightChannels": [
                        4
                    ]
                }
            }
        }
    },
    {
        "changes": {
            "window": 0,
            "outline": 0
        },
        "timeout": 0.06038128749999999,
        "raw": {
            "window": {
                "pinValue": 0,
                "ticks": 11,
                "event": {
                    "deltaTime": 11,
                    "type": "channel",
                    "subtype": "noteOff",
                    "channel": 9,
                    "noteNumber": 54,
                    "velocity": 0,
                    "lightChannels": [
                        6,
                        7
                    ]
                }
            },
            "outline": {
                "pinValue": 0,
                "ticks": 11,
                "event": {
                    "deltaTime": 11,
                    "type": "channel",
                    "subtype": "noteOff",
                    "channel": 9,
                    "noteNumber": 54,
                    "velocity": 0,
                    "lightChannels": [
                        6,
                        7
                    ]
                }
            }
        }
    },
    {
        "changes": {
            "col-2": 0
        },
        "timeout": 0.014830491666666666,
        "raw": {
            "col-2": {
                "pinValue": 0,
                "ticks": 10,
                "event": {
                    "deltaTime": 10,
                    "type": "channel",
                    "subtype": "noteOff",
                    "channel": 2,
                    "noteNumber": 69,
                    "velocity": 0,
                    "lightChannels": [
                        4
                    ]
                }
            }
        }
    },
    {
        "changes": {
            "col-3": 1
        },
        "timeout": 0.036016908333333326,
        "raw": {
            "col-3": {
                "pinValue": 1,
                "ticks": 34,
                "event": {
                    "deltaTime": 34,
                    "type": "channel",
                    "subtype": "noteOn",
                    "channel": 2,
                    "noteNumber": 67,
                    "velocity": 121,
                    "lightChannels": [
                        5
                    ]
                }
            }
        }
    },
    {
        "changes": {
            "col-3": 0
        },
        "timeout": 0.07203381666666665,
        "raw": {
            "col-3": {
                "pinValue": 0,
                "ticks": 68,
                "event": {
                    "deltaTime": 68,
                    "type": "channel",
                    "subtype": "noteOff",
                    "channel": 2,
                    "noteNumber": 67,
                    "velocity": 0,
                    "lightChannels": [
                        5
                    ]
                }
            }
        }
    },
    {
        "changes": {
            "garden": 1
        },
        "timeout": 0.03389826666666666,
        "raw": {
            "garden": {
                "pinValue": 1,
                "ticks": 11,
                "event": {
                    "deltaTime": 11,
                    "type": "channel",
                    "subtype": "noteOn",
                    "channel": 2,
                    "noteNumber": 62,
                    "velocity": 112,
                    "lightChannels": [
                        8
                    ]
                }
            }
        }
    },
    {
        "changes": {
            "window": 1,
            "outline": 1
        },
        "timeout": 0.02966098333333333,
        "raw": {
            "window": {
                "pinValue": 1,
                "ticks": 11,
                "event": {
                    "deltaTime": 11,
                    "type": "channel",
                    "subtype": "noteOn",
                    "channel": 9,
                    "noteNumber": 54,
                    "velocity": 84,
                    "lightChannels": [
                        6,
                        7
                    ]
                }
            },
            "outline": {
                "pinValue": 1,
                "ticks": 11,
                "event": {
                    "deltaTime": 11,
                    "type": "channel",
                    "subtype": "noteOn",
                    "channel": 9,
                    "noteNumber": 54,
                    "velocity": 84,
                    "lightChannels": [
                        6,
                        7
                    ]
                }
            }
        }
    },
    {
        "changes": {
            "window": 0,
            "outline": 0
        },
        "timeout": 0.0603812875,
        "raw": {
            "window": {
                "pinValue": 0,
                "ticks": 3,
                "event": {
                    "deltaTime": 3,
                    "type": "channel",
                    "subtype": "noteOff",
                    "channel": 9,
                    "noteNumber": 54,
                    "velocity": 0,
                    "lightChannels": [
                        6,
                        7
                    ]
                }
            },
            "outline": {
                "pinValue": 0,
                "ticks": 3,
                "event": {
                    "deltaTime": 3,
                    "type": "channel",
                    "subtype": "noteOff",
                    "channel": 9,
                    "noteNumber": 54,
                    "velocity": 0,
                    "lightChannels": [
                        6,
                        7
                    ]
                }
            }
        }
    },
    {
        "changes": {
            "garden": 0
        },
        "timeout": 0.022245737499999998,
        "raw": {
            "garden": {
                "pinValue": 0,
                "ticks": 16,
                "event": {
                    "deltaTime": 16,
                    "type": "channel",
                    "subtype": "noteOff",
                    "channel": 2,
                    "noteNumber": 62,
                    "velocity": 0,
                    "lightChannels": [
                        8
                    ]
                }
            }
        }
    },
    {
        "changes": {
            "tree": 1
        },
        "timeout": 0.14512695416666666,
        "raw": {
            "tree": {
                "pinValue": 1,
                "ticks": 1,
                "event": {
                    "deltaTime": 1,
                    "type": "channel",
                    "subtype": "noteOn",
                    "channel": 2,
                    "noteNumber": 67,
                    "velocity": 122,
                    "lightChannels": [
                        9
                    ]
                }
            }
        }
    },
    {
        "changes": {
            "window": 1,
            "outline": 1
        },
        "timeout": 0.03177962499999999,
        "raw": {
            "window": {
                "pinValue": 1,
                "ticks": 15,
                "event": {
                    "deltaTime": 15,
                    "type": "channel",
                    "subtype": "noteOn",
                    "channel": 9,
                    "noteNumber": 54,
                    "velocity": 87,
                    "lightChannels": [
                        6,
                        7
                    ]
                }
            },
            "outline": {
                "pinValue": 1,
                "ticks": 15,
                "event": {
                    "deltaTime": 15,
                    "type": "channel",
                    "subtype": "noteOn",
                    "channel": 9,
                    "noteNumber": 54,
                    "velocity": 87,
                    "lightChannels": [
                        6,
                        7
                    ]
                }
            }
        }
    },
    {
        "changes": {
            "window": 0,
            "outline": 0
        },
        "timeout": 0.0667372125,
        "raw": {
            "window": {
                "pinValue": 0,
                "ticks": 3,
                "event": {
                    "deltaTime": 3,
                    "type": "channel",
                    "subtype": "noteOff",
                    "channel": 9,
                    "noteNumber": 54,
                    "velocity": 0,
                    "lightChannels": [
                        6,
                        7
                    ]
                }
            },
            "outline": {
                "pinValue": 0,
                "ticks": 3,
                "event": {
                    "deltaTime": 3,
                    "type": "channel",
                    "subtype": "noteOff",
                    "channel": 9,
                    "noteNumber": 54,
                    "velocity": 0,
                    "lightChannels": [
                        6,
                        7
                    ]
                }
            }
        }
    },
    {
        "changes": {
            "tree": 0
        },
        "timeout": 0.0021186416666666664,
        "raw": {
            "tree": {
                "pinValue": 0,
                "ticks": 2,
                "event": {
                    "deltaTime": 2,
                    "type": "channel",
                    "subtype": "noteOff",
                    "channel": 2,
                    "noteNumber": 67,
                    "velocity": 0,
                    "lightChannels": [
                        9
                    ]
                }
            }
        }
    },
    {
        "changes": {
            "col-1": 1,
            "col-2": 1,
            "col-3": 1,
            "garden": 1,
            "tree": 1
        },
        "timeout": 0.16101676666666664,
        "raw": {
            "col-1": {
                "pinValue": 1,
                "ticks": 7,
                "event": {
                    "deltaTime": 7,
                    "type": "channel",
                    "subtype": "noteOn",
                    "channel": 2,
                    "noteNumber": 69,
                    "velocity": 127,
                    "lightChannels": [
                        3,
                        4,
                        5,
                        8,
                        9
                    ]
                }
            },
            "col-2": {
                "pinValue": 1,
                "ticks": 7,
                "event": {
                    "deltaTime": 7,
                    "type": "channel",
                    "subtype": "noteOn",
                    "channel": 2,
                    "noteNumber": 69,
                    "velocity": 127,
                    "lightChannels": [
                        3,
                        4,
                        5,
                        8,
                        9
                    ]
                }
            },
            "col-3": {
                "pinValue": 1,
                "ticks": 7,
                "event": {
                    "deltaTime": 7,
                    "type": "channel",
                    "subtype": "noteOn",
                    "channel": 2,
                    "noteNumber": 69,
                    "velocity": 127,
                    "lightChannels": [
                        3,
                        4,
                        5,
                        8,
                        9
                    ]
                }
            },
            "garden": {
                "pinValue": 1,
                "ticks": 7,
                "event": {
                    "deltaTime": 7,
                    "type": "channel",
                    "subtype": "noteOn",
                    "channel": 2,
                    "noteNumber": 69,
                    "velocity": 127,
                    "lightChannels": [
                        3,
                        4,
                        5,
                        8,
                        9
                    ]
                }
            },
            "tree": {
                "pinValue": 1,
                "ticks": 7,
                "event": {
                    "deltaTime": 7,
                    "type": "channel",
                    "subtype": "noteOn",
                    "channel": 2,
                    "noteNumber": 69,
                    "velocity": 127,
                    "lightChannels": [
                        3,
                        4,
                        5,
                        8,
                        9
                    ]
                }
            }
        }
    },
    {
        "changes": {
            "col-1": 1
        },
        "timeout": 0.0158898125,
        "raw": {
            "col-1": {
                "pinValue": 1,
                "ticks": 10,
                "event": {
                    "deltaTime": 10,
                    "type": "channel",
                    "subtype": "noteOn",
                    "channel": 3,
                    "noteNumber": 86,
                    "velocity": 123,
                    "lightChannels": [
                        3
                    ]
                }
            }
        }
    },
    {
        "changes": {
            "window": 1,
            "outline": 1
        },
        "timeout": 0.0158898125,
        "raw": {
            "window": {
                "pinValue": 1,
                "ticks": 0,
                "event": {
                    "deltaTime": 0,
                    "type": "channel",
                    "subtype": "noteOn",
                    "channel": 9,
                    "noteNumber": 54,
                    "velocity": 83,
                    "lightChannels": [
                        6,
                        7
                    ]
                }
            },
            "outline": {
                "pinValue": 1,
                "ticks": 0,
                "event": {
                    "deltaTime": 0,
                    "type": "channel",
                    "subtype": "noteOn",
                    "channel": 9,
                    "noteNumber": 54,
                    "velocity": 83,
                    "lightChannels": [
                        6,
                        7
                    ]
                }
            }
        }
    },
    {
        "changes": {
            "window": 0,
            "outline": 0
        },
        "timeout": 0.06144060833333333,
        "raw": {
            "window": {
                "pinValue": 0,
                "ticks": 0,
                "event": {
                    "deltaTime": 0,
                    "type": "channel",
                    "subtype": "noteOff",
                    "channel": 9,
                    "noteNumber": 54,
                    "velocity": 0,
                    "lightChannels": [
                        6,
                        7
                    ]
                }
            },
            "outline": {
                "pinValue": 0,
                "ticks": 0,
                "event": {
                    "deltaTime": 0,
                    "type": "channel",
                    "subtype": "noteOff",
                    "channel": 9,
                    "noteNumber": 54,
                    "velocity": 0,
                    "lightChannels": [
                        6,
                        7
                    ]
                }
            }
        }
    },
    {
        "changes": {
            "col-1": 0
        },
        "timeout": 0.008474566666666666,
        "raw": {
            "col-1": {
                "pinValue": 0,
                "ticks": 6,
                "event": {
                    "deltaTime": 6,
                    "type": "channel",
                    "subtype": "noteOff",
                    "channel": 3,
                    "noteNumber": 86,
                    "velocity": 0,
                    "lightChannels": [
                        3
                    ]
                }
            }
        }
    },
    {
        "changes": {
            "col-1": 0,
            "col-2": 0,
            "col-3": 0,
            "garden": 0,
            "tree": 0
        },
        "timeout": 0.029660983333333328,
        "raw": {
            "col-1": {
                "pinValue": 0,
                "ticks": 17,
                "event": {
                    "deltaTime": 17,
                    "type": "channel",
                    "subtype": "noteOff",
                    "channel": 2,
                    "noteNumber": 69,
                    "velocity": 0,
                    "lightChannels": [
                        3,
                        4,
                        5,
                        8,
                        9
                    ]
                }
            },
            "col-2": {
                "pinValue": 0,
                "ticks": 17,
                "event": {
                    "deltaTime": 17,
                    "type": "channel",
                    "subtype": "noteOff",
                    "channel": 2,
                    "noteNumber": 69,
                    "velocity": 0,
                    "lightChannels": [
                        3,
                        4,
                        5,
                        8,
                        9
                    ]
                }
            },
            "col-3": {
                "pinValue": 0,
                "ticks": 17,
                "event": {
                    "deltaTime": 17,
                    "type": "channel",
                    "subtype": "noteOff",
                    "channel": 2,
                    "noteNumber": 69,
                    "velocity": 0,
                    "lightChannels": [
                        3,
                        4,
                        5,
                        8,
                        9
                    ]
                }
            },
            "garden": {
                "pinValue": 0,
                "ticks": 17,
                "event": {
                    "deltaTime": 17,
                    "type": "channel",
                    "subtype": "noteOff",
                    "channel": 2,
                    "noteNumber": 69,
                    "velocity": 0,
                    "lightChannels": [
                        3,
                        4,
                        5,
                        8,
                        9
                    ]
                }
            },
            "tree": {
                "pinValue": 0,
                "ticks": 17,
                "event": {
                    "deltaTime": 17,
                    "type": "channel",
                    "subtype": "noteOff",
                    "channel": 2,
                    "noteNumber": 69,
                    "velocity": 0,
                    "lightChannels": [
                        3,
                        4,
                        5,
                        8,
                        9
                    ]
                }
            }
        }
    },
    {
        "changes": {
            "col-2": 1
        },
        "timeout": 0.13983034999999996,
        "raw": {
            "col-2": {
                "pinValue": 1,
                "ticks": 7,
                "event": {
                    "deltaTime": 7,
                    "type": "channel",
                    "subtype": "noteOn",
                    "channel": 3,
                    "noteNumber": 81,
                    "velocity": 125,
                    "lightChannels": [
                        4
                    ]
                }
            }
        }
    },
    {
        "changes": {
            "window": 1,
            "outline": 1
        },
        "timeout": 0.007415245833333332,
        "raw": {
            "window": {
                "pinValue": 1,
                "ticks": 7,
                "event": {
                    "deltaTime": 7,
                    "type": "channel",
                    "subtype": "noteOn",
                    "channel": 9,
                    "noteNumber": 54,
                    "velocity": 83,
                    "lightChannels": [
                        6,
                        7
                    ]
                }
            },
            "outline": {
                "pinValue": 1,
                "ticks": 7,
                "event": {
                    "deltaTime": 7,
                    "type": "channel",
                    "subtype": "noteOn",
                    "channel": 9,
                    "noteNumber": 54,
                    "velocity": 83,
                    "lightChannels": [
                        6,
                        7
                    ]
                }
            }
        }
    },
    {
        "changes": {
            "window": 0,
            "outline": 0
        },
        "timeout": 0.06249992916666666,
        "raw": {
            "window": {
                "pinValue": 0,
                "ticks": 5,
                "event": {
                    "deltaTime": 5,
                    "type": "channel",
                    "subtype": "noteOff",
                    "channel": 9,
                    "noteNumber": 54,
                    "velocity": 0,
                    "lightChannels": [
                        6,
                        7
                    ]
                }
            },
            "outline": {
                "pinValue": 0,
                "ticks": 5,
                "event": {
                    "deltaTime": 5,
                    "type": "channel",
                    "subtype": "noteOff",
                    "channel": 9,
                    "noteNumber": 54,
                    "velocity": 0,
                    "lightChannels": [
                        6,
                        7
                    ]
                }
            }
        }
    },
    {
        "changes": {
            "col-2": 0
        },
        "timeout": 0.024364379166666665,
        "raw": {
            "col-2": {
                "pinValue": 0,
                "ticks": 7,
                "event": {
                    "deltaTime": 7,
                    "type": "channel",
                    "subtype": "noteOff",
                    "channel": 3,
                    "noteNumber": 81,
                    "velocity": 0,
                    "lightChannels": [
                        4
                    ]
                }
            }
        }
    },
    {
        "changes": {
            "col-3": 1
        },
        "timeout": 0.021186416666666666,
        "raw": {
            "col-3": {
                "pinValue": 1,
                "ticks": 20,
                "event": {
                    "deltaTime": 20,
                    "type": "channel",
                    "subtype": "noteOn",
                    "channel": 3,
                    "noteNumber": 79,
                    "velocity": 119,
                    "lightChannels": [
                        5
                    ]
                }
            }
        }
    },
    {
        "changes": {
            "col-3": 0
        },
        "timeout": 0.0858049875,
        "raw": {
            "col-3": {
                "pinValue": 0,
                "ticks": 40,
                "event": {
                    "deltaTime": 40,
                    "type": "channel",
                    "subtype": "noteOff",
                    "channel": 3,
                    "noteNumber": 79,
                    "velocity": 0,
                    "lightChannels": [
                        5
                    ]
                }
            }
        }
    },
    {
        "changes": {
            "garden": 1
        },
        "timeout": 0.03389826666666666,
        "raw": {
            "garden": {
                "pinValue": 1,
                "ticks": 9,
                "event": {
                    "deltaTime": 9,
                    "type": "channel",
                    "subtype": "noteOn",
                    "channel": 3,
                    "noteNumber": 74,
                    "velocity": 121,
                    "lightChannels": [
                        8
                    ]
                }
            }
        }
    },
    {
        "changes": {
            "window": 1,
            "outline": 1
        },
        "timeout": 0.013771170833333332,
        "raw": {
            "window": {
                "pinValue": 1,
                "ticks": 6,
                "event": {
                    "deltaTime": 6,
                    "type": "channel",
                    "subtype": "noteOn",
                    "channel": 9,
                    "noteNumber": 54,
                    "velocity": 85,
                    "lightChannels": [
                        6,
                        7
                    ]
                }
            },
            "outline": {
                "pinValue": 1,
                "ticks": 6,
                "event": {
                    "deltaTime": 6,
                    "type": "channel",
                    "subtype": "noteOn",
                    "channel": 9,
                    "noteNumber": 54,
                    "velocity": 85,
                    "lightChannels": [
                        6,
                        7
                    ]
                }
            }
        }
    },
    {
        "changes": {
            "window": 0,
            "outline": 0
        },
        "timeout": 0.06249992916666666,
        "raw": {
            "window": {
                "pinValue": 0,
                "ticks": 9,
                "event": {
                    "deltaTime": 9,
                    "type": "channel",
                    "subtype": "noteOff",
                    "channel": 9,
                    "noteNumber": 54,
                    "velocity": 0,
                    "lightChannels": [
                        6,
                        7
                    ]
                }
            },
            "outline": {
                "pinValue": 0,
                "ticks": 9,
                "event": {
                    "deltaTime": 9,
                    "type": "channel",
                    "subtype": "noteOff",
                    "channel": 9,
                    "noteNumber": 54,
                    "velocity": 0,
                    "lightChannels": [
                        6,
                        7
                    ]
                }
            }
        }
    },
    {
        "changes": {
            "garden": 0
        },
        "timeout": 0.030720304166666663,
        "raw": {
            "garden": {
                "pinValue": 0,
                "ticks": 7,
                "event": {
                    "deltaTime": 7,
                    "type": "channel",
                    "subtype": "noteOff",
                    "channel": 3,
                    "noteNumber": 74,
                    "velocity": 0,
                    "lightChannels": [
                        8
                    ]
                }
            }
        }
    },
    {
        "changes": {
            "garage": 1,
            "top-right": 1,
            "bottom-right": 1
        },
        "timeout": 0.14830491666666665,
        "raw": {
            "garage": {
                "pinValue": 1,
                "ticks": 4,
                "event": {
                    "deltaTime": 4,
                    "type": "channel",
                    "subtype": "noteOn",
                    "channel": 8,
                    "noteNumber": 63,
                    "velocity": 122,
                    "lightChannels": [
                        0,
                        1,
                        2
                    ]
                }
            },
            "top-right": {
                "pinValue": 1,
                "ticks": 4,
                "event": {
                    "deltaTime": 4,
                    "type": "channel",
                    "subtype": "noteOn",
                    "channel": 8,
                    "noteNumber": 63,
                    "velocity": 122,
                    "lightChannels": [
                        0,
                        1,
                        2
                    ]
                }
            },
            "bottom-right": {
                "pinValue": 1,
                "ticks": 4,
                "event": {
                    "deltaTime": 4,
                    "type": "channel",
                    "subtype": "noteOn",
                    "channel": 8,
                    "noteNumber": 63,
                    "velocity": 122,
                    "lightChannels": [
                        0,
                        1,
                        2
                    ]
                }
            }
        }
    },
    {
        "changes": {
            "tree": 1
        },
        "timeout": 0.0010593208333333332,
        "raw": {
            "tree": {
                "pinValue": 1,
                "ticks": 1,
                "event": {
                    "deltaTime": 1,
                    "type": "channel",
                    "subtype": "noteOn",
                    "channel": 3,
                    "noteNumber": 75,
                    "velocity": 124,
                    "lightChannels": [
                        9
                    ]
                }
            }
        }
    },
    {
        "changes": {
            "window": 1,
            "outline": 1
        },
        "timeout": 0.018008454166666663,
        "raw": {
            "window": {
                "pinValue": 1,
                "ticks": 6,
                "event": {
                    "deltaTime": 6,
                    "type": "channel",
                    "subtype": "noteOn",
                    "channel": 9,
                    "noteNumber": 54,
                    "velocity": 87,
                    "lightChannels": [
                        6,
                        7
                    ]
                }
            },
            "outline": {
                "pinValue": 1,
                "ticks": 6,
                "event": {
                    "deltaTime": 6,
                    "type": "channel",
                    "subtype": "noteOn",
                    "channel": 9,
                    "noteNumber": 54,
                    "velocity": 87,
                    "lightChannels": [
                        6,
                        7
                    ]
                }
            }
        }
    },
    {
        "changes": {
            "window": 0,
            "outline": 0
        },
        "timeout": 0.06461857083333333,
        "raw": {
            "window": {
                "pinValue": 0,
                "ticks": 60,
                "event": {
                    "deltaTime": 60,
                    "type": "channel",
                    "subtype": "noteOff",
                    "channel": 9,
                    "noteNumber": 54,
                    "velocity": 0,
                    "lightChannels": [
                        6,
                        7
                    ]
                }
            },
            "outline": {
                "pinValue": 0,
                "ticks": 60,
                "event": {
                    "deltaTime": 60,
                    "type": "channel",
                    "subtype": "noteOff",
                    "channel": 9,
                    "noteNumber": 54,
                    "velocity": 0,
                    "lightChannels": [
                        6,
                        7
                    ]
                }
            }
        }
    },
    {
        "changes": {
            "tree": 0
        },
        "timeout": 0.03389826666666666,
        "raw": {
            "tree": {
                "pinValue": 0,
                "ticks": 32,
                "event": {
                    "deltaTime": 32,
                    "type": "channel",
                    "subtype": "noteOff",
                    "channel": 3,
                    "noteNumber": 75,
                    "velocity": 0,
                    "lightChannels": [
                        9
                    ]
                }
            }
        }
    },
    {
        "changes": {
            "col-1": 1,
            "col-2": 1,
            "col-3": 1,
            "garden": 1,
            "tree": 1
        },
        "timeout": 0.15466084166666666,
        "raw": {
            "col-1": {
                "pinValue": 1,
                "ticks": 56,
                "event": {
                    "deltaTime": 56,
                    "type": "channel",
                    "subtype": "noteOn",
                    "channel": 3,
                    "noteNumber": 77,
                    "velocity": 127,
                    "lightChannels": [
                        3,
                        4,
                        5,
                        8,
                        9
                    ]
                }
            },
            "col-2": {
                "pinValue": 1,
                "ticks": 56,
                "event": {
                    "deltaTime": 56,
                    "type": "channel",
                    "subtype": "noteOn",
                    "channel": 3,
                    "noteNumber": 77,
                    "velocity": 127,
                    "lightChannels": [
                        3,
                        4,
                        5,
                        8,
                        9
                    ]
                }
            },
            "col-3": {
                "pinValue": 1,
                "ticks": 56,
                "event": {
                    "deltaTime": 56,
                    "type": "channel",
                    "subtype": "noteOn",
                    "channel": 3,
                    "noteNumber": 77,
                    "velocity": 127,
                    "lightChannels": [
                        3,
                        4,
                        5,
                        8,
                        9
                    ]
                }
            },
            "garden": {
                "pinValue": 1,
                "ticks": 56,
                "event": {
                    "deltaTime": 56,
                    "type": "channel",
                    "subtype": "noteOn",
                    "channel": 3,
                    "noteNumber": 77,
                    "velocity": 127,
                    "lightChannels": [
                        3,
                        4,
                        5,
                        8,
                        9
                    ]
                }
            },
            "tree": {
                "pinValue": 1,
                "ticks": 56,
                "event": {
                    "deltaTime": 56,
                    "type": "channel",
                    "subtype": "noteOn",
                    "channel": 3,
                    "noteNumber": 77,
                    "velocity": 127,
                    "lightChannels": [
                        3,
                        4,
                        5,
                        8,
                        9
                    ]
                }
            }
        }
    },
    {
        "changes": {
            "window": 1,
            "outline": 1
        },
        "timeout": 0.008474566666666666,
        "raw": {
            "window": {
                "pinValue": 1,
                "ticks": 8,
                "event": {
                    "deltaTime": 8,
                    "type": "channel",
                    "subtype": "noteOn",
                    "channel": 9,
                    "noteNumber": 54,
                    "velocity": 85,
                    "lightChannels": [
                        6,
                        7
                    ]
                }
            },
            "outline": {
                "pinValue": 1,
                "ticks": 8,
                "event": {
                    "deltaTime": 8,
                    "type": "channel",
                    "subtype": "noteOn",
                    "channel": 9,
                    "noteNumber": 54,
                    "velocity": 85,
                    "lightChannels": [
                        6,
                        7
                    ]
                }
            }
        }
    },
    {
        "changes": {
            "col-1": 1
        },
        "timeout": 0.004237283333333333,
        "raw": {
            "col-1": {
                "pinValue": 1,
                "ticks": 2,
                "event": {
                    "deltaTime": 2,
                    "type": "channel",
                    "subtype": "noteOn",
                    "channel": 2,
                    "noteNumber": 77,
                    "velocity": 123,
                    "lightChannels": [
                        3
                    ]
                }
            }
        }
    },
    {
        "changes": {
            "window": 0,
            "outline": 0
        },
        "timeout": 0.059321966666666656,
        "raw": {
            "window": {
                "pinValue": 0,
                "ticks": 56,
                "event": {
                    "deltaTime": 56,
                    "type": "channel",
                    "subtype": "noteOff",
                    "channel": 9,
                    "noteNumber": 54,
                    "velocity": 0,
                    "lightChannels": [
                        6,
                        7
                    ]
                }
            },
            "outline": {
                "pinValue": 0,
                "ticks": 56,
                "event": {
                    "deltaTime": 56,
                    "type": "channel",
                    "subtype": "noteOff",
                    "channel": 9,
                    "noteNumber": 54,
                    "velocity": 0,
                    "lightChannels": [
                        6,
                        7
                    ]
                }
            }
        }
    },
    {
        "changes": {
            "col-1": 0
        },
        "timeout": 0.03283894583333333,
        "raw": {
            "col-1": {
                "pinValue": 0,
                "ticks": 31,
                "event": {
                    "deltaTime": 31,
                    "type": "channel",
                    "subtype": "noteOff",
                    "channel": 2,
                    "noteNumber": 77,
                    "velocity": 0,
                    "lightChannels": [
                        3
                    ]
                }
            }
        }
    },
    {
        "changes": {
            "col-1": 0,
            "col-2": 0,
            "col-3": 0,
            "garden": 0,
            "tree": 0
        },
        "timeout": 0.014830491666666664,
        "raw": {
            "col-1": {
                "pinValue": 0,
                "ticks": 14,
                "event": {
                    "deltaTime": 14,
                    "type": "channel",
                    "subtype": "noteOff",
                    "channel": 3,
                    "noteNumber": 77,
                    "velocity": 0,
                    "lightChannels": [
                        3,
                        4,
                        5,
                        8,
                        9
                    ]
                }
            },
            "col-2": {
                "pinValue": 0,
                "ticks": 14,
                "event": {
                    "deltaTime": 14,
                    "type": "channel",
                    "subtype": "noteOff",
                    "channel": 3,
                    "noteNumber": 77,
                    "velocity": 0,
                    "lightChannels": [
                        3,
                        4,
                        5,
                        8,
                        9
                    ]
                }
            },
            "col-3": {
                "pinValue": 0,
                "ticks": 14,
                "event": {
                    "deltaTime": 14,
                    "type": "channel",
                    "subtype": "noteOff",
                    "channel": 3,
                    "noteNumber": 77,
                    "velocity": 0,
                    "lightChannels": [
                        3,
                        4,
                        5,
                        8,
                        9
                    ]
                }
            },
            "garden": {
                "pinValue": 0,
                "ticks": 14,
                "event": {
                    "deltaTime": 14,
                    "type": "channel",
                    "subtype": "noteOff",
                    "channel": 3,
                    "noteNumber": 77,
                    "velocity": 0,
                    "lightChannels": [
                        3,
                        4,
                        5,
                        8,
                        9
                    ]
                }
            },
            "tree": {
                "pinValue": 0,
                "ticks": 14,
                "event": {
                    "deltaTime": 14,
                    "type": "channel",
                    "subtype": "noteOff",
                    "channel": 3,
                    "noteNumber": 77,
                    "velocity": 0,
                    "lightChannels": [
                        3,
                        4,
                        5,
                        8,
                        9
                    ]
                }
            }
        }
    },
    {
        "changes": {
            "window": 1,
            "outline": 1
        },
        "timeout": 0.14300831249999998,
        "raw": {
            "window": {
                "pinValue": 1,
                "ticks": 2,
                "event": {
                    "deltaTime": 2,
                    "type": "channel",
                    "subtype": "noteOn",
                    "channel": 9,
                    "noteNumber": 54,
                    "velocity": 84,
                    "lightChannels": [
                        6,
                        7
                    ]
                }
            },
            "outline": {
                "pinValue": 1,
                "ticks": 2,
                "event": {
                    "deltaTime": 2,
                    "type": "channel",
                    "subtype": "noteOn",
                    "channel": 9,
                    "noteNumber": 54,
                    "velocity": 84,
                    "lightChannels": [
                        6,
                        7
                    ]
                }
            }
        }
    },
    {
        "changes": {
            "col-2": 1
        },
        "timeout": 0.006355924999999999,
        "raw": {
            "col-2": {
                "pinValue": 1,
                "ticks": 6,
                "event": {
                    "deltaTime": 6,
                    "type": "channel",
                    "subtype": "noteOn",
                    "channel": 2,
                    "noteNumber": 72,
                    "velocity": 113,
                    "lightChannels": [
                        4
                    ]
                }
            }
        }
    },
    {
        "changes": {
            "garage": 0,
            "top-right": 0,
            "bottom-right": 0
        },
        "timeout": 0.025423699999999997,
        "raw": {
            "garage": {
                "pinValue": 0,
                "ticks": 21,
                "event": {
                    "deltaTime": 21,
                    "type": "channel",
                    "subtype": "noteOff",
                    "channel": 8,
                    "noteNumber": 63,
                    "velocity": 0,
                    "lightChannels": [
                        0,
                        1,
                        2
                    ]
                }
            },
            "top-right": {
                "pinValue": 0,
                "ticks": 21,
                "event": {
                    "deltaTime": 21,
                    "type": "channel",
                    "subtype": "noteOff",
                    "channel": 8,
                    "noteNumber": 63,
                    "velocity": 0,
                    "lightChannels": [
                        0,
                        1,
                        2
                    ]
                }
            },
            "bottom-right": {
                "pinValue": 0,
                "ticks": 21,
                "event": {
                    "deltaTime": 21,
                    "type": "channel",
                    "subtype": "noteOff",
                    "channel": 8,
                    "noteNumber": 63,
                    "velocity": 0,
                    "lightChannels": [
                        0,
                        1,
                        2
                    ]
                }
            }
        }
    },
    {
        "changes": {
            "window": 0,
            "outline": 0
        },
        "timeout": 0.0349575875,
        "raw": {
            "window": {
                "pinValue": 0,
                "ticks": 33,
                "event": {
                    "deltaTime": 33,
                    "type": "channel",
                    "subtype": "noteOff",
                    "channel": 9,
                    "noteNumber": 54,
                    "velocity": 0,
                    "lightChannels": [
                        6,
                        7
                    ]
                }
            },
            "outline": {
                "pinValue": 0,
                "ticks": 33,
                "event": {
                    "deltaTime": 33,
                    "type": "channel",
                    "subtype": "noteOff",
                    "channel": 9,
                    "noteNumber": 54,
                    "velocity": 0,
                    "lightChannels": [
                        6,
                        7
                    ]
                }
            }
        }
    },
    {
        "changes": {
            "col-2": 0
        },
        "timeout": 0.019067775,
        "raw": {
            "col-2": {
                "pinValue": 0,
                "ticks": 18,
                "event": {
                    "deltaTime": 18,
                    "type": "channel",
                    "subtype": "noteOff",
                    "channel": 2,
                    "noteNumber": 72,
                    "velocity": 0,
                    "lightChannels": [
                        4
                    ]
                }
            }
        }
    },
    {
        "changes": {
            "col-3": 1
        },
        "timeout": 0.029660983333333328,
        "raw": {
            "col-3": {
                "pinValue": 1,
                "ticks": 28,
                "event": {
                    "deltaTime": 28,
                    "type": "channel",
                    "subtype": "noteOn",
                    "channel": 2,
                    "noteNumber": 70,
                    "velocity": 105,
                    "lightChannels": [
                        5
                    ]
                }
            }
        }
    },
    {
        "changes": {
            "col-3": 0
        },
        "timeout": 0.07627109999999998,
        "raw": {
            "col-3": {
                "pinValue": 0,
                "ticks": 22,
                "event": {
                    "deltaTime": 22,
                    "type": "channel",
                    "subtype": "noteOff",
                    "channel": 2,
                    "noteNumber": 70,
                    "velocity": 0,
                    "lightChannels": [
                        5
                    ]
                }
            }
        }
    },
    {
        "changes": {
            "garden": 1
        },
        "timeout": 0.03283894583333333,
        "raw": {
            "garden": {
                "pinValue": 1,
                "ticks": 31,
                "event": {
                    "deltaTime": 31,
                    "type": "channel",
                    "subtype": "noteOn",
                    "channel": 2,
                    "noteNumber": 65,
                    "velocity": 115,
                    "lightChannels": [
                        8
                    ]
                }
            }
        }
    },
    {
        "changes": {
            "window": 1,
            "outline": 1
        },
        "timeout": 0.03283894583333333,
        "raw": {
            "window": {
                "pinValue": 1,
                "ticks": 1,
                "event": {
                    "deltaTime": 1,
                    "type": "channel",
                    "subtype": "noteOn",
                    "channel": 9,
                    "noteNumber": 54,
                    "velocity": 85,
                    "lightChannels": [
                        6,
                        7
                    ]
                }
            },
            "outline": {
                "pinValue": 1,
                "ticks": 1,
                "event": {
                    "deltaTime": 1,
                    "type": "channel",
                    "subtype": "noteOn",
                    "channel": 9,
                    "noteNumber": 54,
                    "velocity": 85,
                    "lightChannels": [
                        6,
                        7
                    ]
                }
            }
        }
    },
    {
        "changes": {
            "window": 0,
            "outline": 0
        },
        "timeout": 0.06144060833333332,
        "raw": {
            "window": {
                "pinValue": 0,
                "ticks": 6,
                "event": {
                    "deltaTime": 6,
                    "type": "channel",
                    "subtype": "noteOff",
                    "channel": 9,
                    "noteNumber": 54,
                    "velocity": 0,
                    "lightChannels": [
                        6,
                        7
                    ]
                }
            },
            "outline": {
                "pinValue": 0,
                "ticks": 6,
                "event": {
                    "deltaTime": 6,
                    "type": "channel",
                    "subtype": "noteOff",
                    "channel": 9,
                    "noteNumber": 54,
                    "velocity": 0,
                    "lightChannels": [
                        6,
                        7
                    ]
                }
            }
        }
    },
    {
        "changes": {
            "garden": 0
        },
        "timeout": 0.024364379166666665,
        "raw": {
            "garden": {
                "pinValue": 0,
                "ticks": 7,
                "event": {
                    "deltaTime": 7,
                    "type": "channel",
                    "subtype": "noteOff",
                    "channel": 2,
                    "noteNumber": 65,
                    "velocity": 0,
                    "lightChannels": [
                        8
                    ]
                }
            }
        }
    },
    {
        "changes": {
            "tree": 1
        },
        "timeout": 0.13983035,
        "raw": {
            "tree": {
                "pinValue": 1,
                "ticks": 132,
                "event": {
                    "deltaTime": 132,
                    "type": "channel",
                    "subtype": "noteOn",
                    "channel": 2,
                    "noteNumber": 70,
                    "velocity": 118,
                    "lightChannels": [
                        9
                    ]
                }
            }
        }
    },
    {
        "changes": {
            "garage": 1,
            "top-right": 1,
            "bottom-right": 1
        },
        "timeout": 0.01271185,
        "raw": {
            "garage": {
                "pinValue": 1,
                "ticks": 0,
                "event": {
                    "deltaTime": 0,
                    "type": "channel",
                    "subtype": "noteOn",
                    "channel": 8,
                    "noteNumber": 63,
                    "velocity": 120,
                    "lightChannels": [
                        0,
                        1,
                        2
                    ]
                }
            },
            "top-right": {
                "pinValue": 1,
                "ticks": 0,
                "event": {
                    "deltaTime": 0,
                    "type": "channel",
                    "subtype": "noteOn",
                    "channel": 8,
                    "noteNumber": 63,
                    "velocity": 120,
                    "lightChannels": [
                        0,
                        1,
                        2
                    ]
                }
            },
            "bottom-right": {
                "pinValue": 1,
                "ticks": 0,
                "event": {
                    "deltaTime": 0,
                    "type": "channel",
                    "subtype": "noteOn",
                    "channel": 8,
                    "noteNumber": 63,
                    "velocity": 120,
                    "lightChannels": [
                        0,
                        1,
                        2
                    ]
                }
            }
        }
    },
    {
        "changes": {
            "window": 1,
            "outline": 1
        },
        "timeout": 0.028601662499999993,
        "raw": {
            "window": {
                "pinValue": 1,
                "ticks": 12,
                "event": {
                    "deltaTime": 12,
                    "type": "channel",
                    "subtype": "noteOn",
                    "channel": 9,
                    "noteNumber": 54,
                    "velocity": 87,
                    "lightChannels": [
                        6,
                        7
                    ]
                }
            },
            "outline": {
                "pinValue": 1,
                "ticks": 12,
                "event": {
                    "deltaTime": 12,
                    "type": "channel",
                    "subtype": "noteOn",
                    "channel": 9,
                    "noteNumber": 54,
                    "velocity": 87,
                    "lightChannels": [
                        6,
                        7
                    ]
                }
            }
        }
    },
    {
        "changes": {
            "tree": 0
        },
        "timeout": 0.06144060833333333,
        "raw": {
            "tree": {
                "pinValue": 0,
                "ticks": 58,
                "event": {
                    "deltaTime": 58,
                    "type": "channel",
                    "subtype": "noteOff",
                    "channel": 2,
                    "noteNumber": 70,
                    "velocity": 0,
                    "lightChannels": [
                        9
                    ]
                }
            }
        }
    },
    {
        "changes": {
            "window": 0,
            "outline": 0
        },
        "timeout": 0.0052966041666666665,
        "raw": {
            "window": {
                "pinValue": 0,
                "ticks": 5,
                "event": {
                    "deltaTime": 5,
                    "type": "channel",
                    "subtype": "noteOff",
                    "channel": 9,
                    "noteNumber": 54,
                    "velocity": 0,
                    "lightChannels": [
                        6,
                        7
                    ]
                }
            },
            "outline": {
                "pinValue": 0,
                "ticks": 5,
                "event": {
                    "deltaTime": 5,
                    "type": "channel",
                    "subtype": "noteOff",
                    "channel": 9,
                    "noteNumber": 54,
                    "velocity": 0,
                    "lightChannels": [
                        6,
                        7
                    ]
                }
            }
        }
    },
    {
        "changes": {
            "col-1": 1,
            "col-2": 1,
            "col-3": 1,
            "garden": 1,
            "tree": 1
        },
        "timeout": 0.1567794833333333,
        "raw": {
            "col-1": {
                "pinValue": 1,
                "ticks": 50,
                "event": {
                    "deltaTime": 50,
                    "type": "channel",
                    "subtype": "noteOn",
                    "channel": 2,
                    "noteNumber": 72,
                    "velocity": 115,
                    "lightChannels": [
                        3,
                        4,
                        5,
                        8,
                        9
                    ]
                }
            },
            "col-2": {
                "pinValue": 1,
                "ticks": 50,
                "event": {
                    "deltaTime": 50,
                    "type": "channel",
                    "subtype": "noteOn",
                    "channel": 2,
                    "noteNumber": 72,
                    "velocity": 115,
                    "lightChannels": [
                        3,
                        4,
                        5,
                        8,
                        9
                    ]
                }
            },
            "col-3": {
                "pinValue": 1,
                "ticks": 50,
                "event": {
                    "deltaTime": 50,
                    "type": "channel",
                    "subtype": "noteOn",
                    "channel": 2,
                    "noteNumber": 72,
                    "velocity": 115,
                    "lightChannels": [
                        3,
                        4,
                        5,
                        8,
                        9
                    ]
                }
            },
            "garden": {
                "pinValue": 1,
                "ticks": 50,
                "event": {
                    "deltaTime": 50,
                    "type": "channel",
                    "subtype": "noteOn",
                    "channel": 2,
                    "noteNumber": 72,
                    "velocity": 115,
                    "lightChannels": [
                        3,
                        4,
                        5,
                        8,
                        9
                    ]
                }
            },
            "tree": {
                "pinValue": 1,
                "ticks": 50,
                "event": {
                    "deltaTime": 50,
                    "type": "channel",
                    "subtype": "noteOn",
                    "channel": 2,
                    "noteNumber": 72,
                    "velocity": 115,
                    "lightChannels": [
                        3,
                        4,
                        5,
                        8,
                        9
                    ]
                }
            }
        }
    },
    {
        "changes": {
            "window": 1,
            "outline": 1
        },
        "timeout": 0.03389826666666666,
        "raw": {
            "window": {
                "pinValue": 1,
                "ticks": 17,
                "event": {
                    "deltaTime": 17,
                    "type": "channel",
                    "subtype": "noteOn",
                    "channel": 9,
                    "noteNumber": 54,
                    "velocity": 84,
                    "lightChannels": [
                        6,
                        7
                    ]
                }
            },
            "outline": {
                "pinValue": 1,
                "ticks": 17,
                "event": {
                    "deltaTime": 17,
                    "type": "channel",
                    "subtype": "noteOn",
                    "channel": 9,
                    "noteNumber": 54,
                    "velocity": 84,
                    "lightChannels": [
                        6,
                        7
                    ]
                }
            }
        }
    },
    {
        "changes": {
            "col-1": 0,
            "col-2": 0,
            "col-3": 0,
            "garden": 0,
            "tree": 0
        },
        "timeout": 0.04661011666666666,
        "raw": {
            "col-1": {
                "pinValue": 0,
                "ticks": 44,
                "event": {
                    "deltaTime": 44,
                    "type": "channel",
                    "subtype": "noteOff",
                    "channel": 2,
                    "noteNumber": 72,
                    "velocity": 0,
                    "lightChannels": [
                        3,
                        4,
                        5,
                        8,
                        9
                    ]
                }
            },
            "col-2": {
                "pinValue": 0,
                "ticks": 44,
                "event": {
                    "deltaTime": 44,
                    "type": "channel",
                    "subtype": "noteOff",
                    "channel": 2,
                    "noteNumber": 72,
                    "velocity": 0,
                    "lightChannels": [
                        3,
                        4,
                        5,
                        8,
                        9
                    ]
                }
            },
            "col-3": {
                "pinValue": 0,
                "ticks": 44,
                "event": {
                    "deltaTime": 44,
                    "type": "channel",
                    "subtype": "noteOff",
                    "channel": 2,
                    "noteNumber": 72,
                    "velocity": 0,
                    "lightChannels": [
                        3,
                        4,
                        5,
                        8,
                        9
                    ]
                }
            },
            "garden": {
                "pinValue": 0,
                "ticks": 44,
                "event": {
                    "deltaTime": 44,
                    "type": "channel",
                    "subtype": "noteOff",
                    "channel": 2,
                    "noteNumber": 72,
                    "velocity": 0,
                    "lightChannels": [
                        3,
                        4,
                        5,
                        8,
                        9
                    ]
                }
            },
            "tree": {
                "pinValue": 0,
                "ticks": 44,
                "event": {
                    "deltaTime": 44,
                    "type": "channel",
                    "subtype": "noteOff",
                    "channel": 2,
                    "noteNumber": 72,
                    "velocity": 0,
                    "lightChannels": [
                        3,
                        4,
                        5,
                        8,
                        9
                    ]
                }
            }
        }
    },
    {
        "changes": {
            "window": 0,
            "outline": 0
        },
        "timeout": 0.014830491666666664,
        "raw": {
            "window": {
                "pinValue": 0,
                "ticks": 14,
                "event": {
                    "deltaTime": 14,
                    "type": "channel",
                    "subtype": "noteOff",
                    "channel": 9,
                    "noteNumber": 54,
                    "velocity": 0,
                    "lightChannels": [
                        6,
                        7
                    ]
                }
            },
            "outline": {
                "pinValue": 0,
                "ticks": 14,
                "event": {
                    "deltaTime": 14,
                    "type": "channel",
                    "subtype": "noteOff",
                    "channel": 9,
                    "noteNumber": 54,
                    "velocity": 0,
                    "lightChannels": [
                        6,
                        7
                    ]
                }
            }
        }
    },
    {
        "changes": {
            "col-1": 1
        },
        "timeout": 0.02012709583333333,
        "raw": {
            "col-1": {
                "pinValue": 1,
                "ticks": 9,
                "event": {
                    "deltaTime": 9,
                    "type": "channel",
                    "subtype": "noteOn",
                    "channel": 2,
                    "noteNumber": 77,
                    "velocity": 118,
                    "lightChannels": [
                        3
                    ]
                }
            }
        }
    },
    {
        "changes": {
            "col-1": 0
        },
        "timeout": 0.07838974166666665,
        "raw": {
            "col-1": {
                "pinValue": 0,
                "ticks": 74,
                "event": {
                    "deltaTime": 74,
                    "type": "channel",
                    "subtype": "noteOff",
                    "channel": 2,
                    "noteNumber": 77,
                    "velocity": 0,
                    "lightChannels": [
                        3
                    ]
                }
            }
        }
    },
    {
        "changes": {
            "col-2": 1,
            "garage": 0,
            "top-right": 0,
            "bottom-right": 0
        },
        "timeout": 0.06567789166666667,
        "raw": {
            "col-2": {
                "pinValue": 1,
                "ticks": 3,
                "event": {
                    "deltaTime": 3,
                    "type": "channel",
                    "subtype": "noteOn",
                    "channel": 2,
                    "noteNumber": 72,
                    "velocity": 125,
                    "lightChannels": [
                        4
                    ]
                }
            },
            "garage": {
                "pinValue": 0,
                "ticks": 0,
                "event": {
                    "deltaTime": 0,
                    "type": "channel",
                    "subtype": "noteOff",
                    "channel": 8,
                    "noteNumber": 63,
                    "velocity": 0,
                    "lightChannels": [
                        0,
                        1,
                        2
                    ]
                }
            },
            "top-right": {
                "pinValue": 0,
                "ticks": 0,
                "event": {
                    "deltaTime": 0,
                    "type": "channel",
                    "subtype": "noteOff",
                    "channel": 8,
                    "noteNumber": 63,
                    "velocity": 0,
                    "lightChannels": [
                        0,
                        1,
                        2
                    ]
                }
            },
            "bottom-right": {
                "pinValue": 0,
                "ticks": 0,
                "event": {
                    "deltaTime": 0,
                    "type": "channel",
                    "subtype": "noteOff",
                    "channel": 8,
                    "noteNumber": 63,
                    "velocity": 0,
                    "lightChannels": [
                        0,
                        1,
                        2
                    ]
                }
            }
        }
    },
    {
        "changes": {
            "window": 1,
            "outline": 1
        },
        "timeout": 0.02966098333333333,
        "raw": {
            "window": {
                "pinValue": 1,
                "ticks": 11,
                "event": {
                    "deltaTime": 11,
                    "type": "channel",
                    "subtype": "noteOn",
                    "channel": 9,
                    "noteNumber": 54,
                    "velocity": 87,
                    "lightChannels": [
                        6,
                        7
                    ]
                }
            },
            "outline": {
                "pinValue": 1,
                "ticks": 11,
                "event": {
                    "deltaTime": 11,
                    "type": "channel",
                    "subtype": "noteOn",
                    "channel": 9,
                    "noteNumber": 54,
                    "velocity": 87,
                    "lightChannels": [
                        6,
                        7
                    ]
                }
            }
        }
    },
    {
        "changes": {
            "col-2": 0,
            "window": 0,
            "outline": 0
        },
        "timeout": 0.06461857083333332,
        "raw": {
            "col-2": {
                "pinValue": 0,
                "ticks": 61,
                "event": {
                    "deltaTime": 61,
                    "type": "channel",
                    "subtype": "noteOff",
                    "channel": 2,
                    "noteNumber": 72,
                    "velocity": 0,
                    "lightChannels": [
                        4
                    ]
                }
            },
            "window": {
                "pinValue": 0,
                "ticks": 0,
                "event": {
                    "deltaTime": 0,
                    "type": "channel",
                    "subtype": "noteOff",
                    "channel": 9,
                    "noteNumber": 54,
                    "velocity": 0,
                    "lightChannels": [
                        6,
                        7
                    ]
                }
            },
            "outline": {
                "pinValue": 0,
                "ticks": 0,
                "event": {
                    "deltaTime": 0,
                    "type": "channel",
                    "subtype": "noteOff",
                    "channel": 9,
                    "noteNumber": 54,
                    "velocity": 0,
                    "lightChannels": [
                        6,
                        7
                    ]
                }
            }
        }
    },
    {
        "changes": {
            "col-3": 1
        },
        "timeout": 0.1599574458333333,
        "raw": {
            "col-3": {
                "pinValue": 1,
                "ticks": 3,
                "event": {
                    "deltaTime": 3,
                    "type": "channel",
                    "subtype": "noteOn",
                    "channel": 2,
                    "noteNumber": 70,
                    "velocity": 112,
                    "lightChannels": [
                        5
                    ]
                }
            }
        }
    },
    {
        "changes": {
            "window": 1,
            "outline": 1
        },
        "timeout": 0.03389826666666666,
        "raw": {
            "window": {
                "pinValue": 1,
                "ticks": 1,
                "event": {
                    "deltaTime": 1,
                    "type": "channel",
                    "subtype": "noteOn",
                    "channel": 9,
                    "noteNumber": 54,
                    "velocity": 84,
                    "lightChannels": [
                        6,
                        7
                    ]
                }
            },
            "outline": {
                "pinValue": 1,
                "ticks": 1,
                "event": {
                    "deltaTime": 1,
                    "type": "channel",
                    "subtype": "noteOn",
                    "channel": 9,
                    "noteNumber": 54,
                    "velocity": 84,
                    "lightChannels": [
                        6,
                        7
                    ]
                }
            }
        }
    },
    {
        "changes": {
            "col-3": 0
        },
        "timeout": 0.03707622916666666,
        "raw": {
            "col-3": {
                "pinValue": 0,
                "ticks": 7,
                "event": {
                    "deltaTime": 7,
                    "type": "channel",
                    "subtype": "noteOff",
                    "channel": 2,
                    "noteNumber": 70,
                    "velocity": 0,
                    "lightChannels": [
                        5
                    ]
                }
            }
        }
    },
    {
        "changes": {
            "window": 0,
            "outline": 0
        },
        "timeout": 0.02012709583333333,
        "raw": {
            "window": {
                "pinValue": 0,
                "ticks": 11,
                "event": {
                    "deltaTime": 11,
                    "type": "channel",
                    "subtype": "noteOff",
                    "channel": 9,
                    "noteNumber": 54,
                    "velocity": 0,
                    "lightChannels": [
                        6,
                        7
                    ]
                }
            },
            "outline": {
                "pinValue": 0,
                "ticks": 11,
                "event": {
                    "deltaTime": 11,
                    "type": "channel",
                    "subtype": "noteOff",
                    "channel": 9,
                    "noteNumber": 54,
                    "velocity": 0,
                    "lightChannels": [
                        6,
                        7
                    ]
                }
            }
        }
    },
    {
        "changes": {
            "garden": 1
        },
        "timeout": 0.03283894583333333,
        "raw": {
            "garden": {
                "pinValue": 1,
                "ticks": 13,
                "event": {
                    "deltaTime": 13,
                    "type": "channel",
                    "subtype": "noteOn",
                    "channel": 2,
                    "noteNumber": 65,
                    "velocity": 103,
                    "lightChannels": [
                        8
                    ]
                }
            }
        }
    },
    {
        "changes": {
            "garden": 0
        },
        "timeout": 0.07521177916666667,
        "raw": {
            "garden": {
                "pinValue": 0,
                "ticks": 9,
                "event": {
                    "deltaTime": 9,
                    "type": "channel",
                    "subtype": "noteOff",
                    "channel": 2,
                    "noteNumber": 65,
                    "velocity": 0,
                    "lightChannels": [
                        8
                    ]
                }
            }
        }
    },
    {
        "changes": {
            "tree": 1
        },
        "timeout": 0.049788079166666666,
        "raw": {
            "tree": {
                "pinValue": 1,
                "ticks": 3,
                "event": {
                    "deltaTime": 3,
                    "type": "channel",
                    "subtype": "noteOn",
                    "channel": 2,
                    "noteNumber": 70,
                    "velocity": 99,
                    "lightChannels": [
                        9
                    ]
                }
            }
        }
    },
    {
        "changes": {
            "window": 1,
            "outline": 1
        },
        "timeout": 0.03389826666666666,
        "raw": {
            "window": {
                "pinValue": 1,
                "ticks": 19,
                "event": {
                    "deltaTime": 19,
                    "type": "channel",
                    "subtype": "noteOn",
                    "channel": 9,
                    "noteNumber": 54,
                    "velocity": 83,
                    "lightChannels": [
                        6,
                        7
                    ]
                }
            },
            "outline": {
                "pinValue": 1,
                "ticks": 19,
                "event": {
                    "deltaTime": 19,
                    "type": "channel",
                    "subtype": "noteOn",
                    "channel": 9,
                    "noteNumber": 54,
                    "velocity": 83,
                    "lightChannels": [
                        6,
                        7
                    ]
                }
            }
        }
    },
    {
        "changes": {
            "tree": 0
        },
        "timeout": 0.0349575875,
        "raw": {
            "tree": {
                "pinValue": 0,
                "ticks": 16,
                "event": {
                    "deltaTime": 16,
                    "type": "channel",
                    "subtype": "noteOff",
                    "channel": 2,
                    "noteNumber": 70,
                    "velocity": 0,
                    "lightChannels": [
                        9
                    ]
                }
            }
        }
    },
    {
        "changes": {
            "window": 0,
            "outline": 0
        },
        "timeout": 0.024364379166666665,
        "raw": {
            "window": {
                "pinValue": 0,
                "ticks": 0,
                "event": {
                    "deltaTime": 0,
                    "type": "channel",
                    "subtype": "noteOff",
                    "channel": 9,
                    "noteNumber": 54,
                    "velocity": 0,
                    "lightChannels": [
                        6,
                        7
                    ]
                }
            },
            "outline": {
                "pinValue": 0,
                "ticks": 0,
                "event": {
                    "deltaTime": 0,
                    "type": "channel",
                    "subtype": "noteOff",
                    "channel": 9,
                    "noteNumber": 54,
                    "velocity": 0,
                    "lightChannels": [
                        6,
                        7
                    ]
                }
            }
        }
    },
    {
        "changes": {
            "col-1": 1,
            "col-2": 1,
            "col-3": 1,
            "garden": 1,
            "tree": 1
        },
        "timeout": 0.02436437916666666,
        "raw": {
            "col-1": {
                "pinValue": 1,
                "ticks": 1,
                "event": {
                    "deltaTime": 1,
                    "type": "channel",
                    "subtype": "noteOn",
                    "channel": 2,
                    "noteNumber": 72,
                    "velocity": 123,
                    "lightChannels": [
                        3,
                        4,
                        5,
                        8,
                        9
                    ]
                }
            },
            "col-2": {
                "pinValue": 1,
                "ticks": 1,
                "event": {
                    "deltaTime": 1,
                    "type": "channel",
                    "subtype": "noteOn",
                    "channel": 2,
                    "noteNumber": 72,
                    "velocity": 123,
                    "lightChannels": [
                        3,
                        4,
                        5,
                        8,
                        9
                    ]
                }
            },
            "col-3": {
                "pinValue": 1,
                "ticks": 1,
                "event": {
                    "deltaTime": 1,
                    "type": "channel",
                    "subtype": "noteOn",
                    "channel": 2,
                    "noteNumber": 72,
                    "velocity": 123,
                    "lightChannels": [
                        3,
                        4,
                        5,
                        8,
                        9
                    ]
                }
            },
            "garden": {
                "pinValue": 1,
                "ticks": 1,
                "event": {
                    "deltaTime": 1,
                    "type": "channel",
                    "subtype": "noteOn",
                    "channel": 2,
                    "noteNumber": 72,
                    "velocity": 123,
                    "lightChannels": [
                        3,
                        4,
                        5,
                        8,
                        9
                    ]
                }
            },
            "tree": {
                "pinValue": 1,
                "ticks": 1,
                "event": {
                    "deltaTime": 1,
                    "type": "channel",
                    "subtype": "noteOn",
                    "channel": 2,
                    "noteNumber": 72,
                    "velocity": 123,
                    "lightChannels": [
                        3,
                        4,
                        5,
                        8,
                        9
                    ]
                }
            }
        }
    },
    {
        "changes": {
            "col-1": 0,
            "col-2": 0,
            "col-3": 0,
            "garden": 0,
            "tree": 0
        },
        "timeout": 0.08050838333333334,
        "raw": {
            "col-1": {
                "pinValue": 0,
                "ticks": 3,
                "event": {
                    "deltaTime": 3,
                    "type": "channel",
                    "subtype": "noteOff",
                    "channel": 2,
                    "noteNumber": 72,
                    "velocity": 0,
                    "lightChannels": [
                        3,
                        4,
                        5,
                        8,
                        9
                    ]
                }
            },
            "col-2": {
                "pinValue": 0,
                "ticks": 3,
                "event": {
                    "deltaTime": 3,
                    "type": "channel",
                    "subtype": "noteOff",
                    "channel": 2,
                    "noteNumber": 72,
                    "velocity": 0,
                    "lightChannels": [
                        3,
                        4,
                        5,
                        8,
                        9
                    ]
                }
            },
            "col-3": {
                "pinValue": 0,
                "ticks": 3,
                "event": {
                    "deltaTime": 3,
                    "type": "channel",
                    "subtype": "noteOff",
                    "channel": 2,
                    "noteNumber": 72,
                    "velocity": 0,
                    "lightChannels": [
                        3,
                        4,
                        5,
                        8,
                        9
                    ]
                }
            },
            "garden": {
                "pinValue": 0,
                "ticks": 3,
                "event": {
                    "deltaTime": 3,
                    "type": "channel",
                    "subtype": "noteOff",
                    "channel": 2,
                    "noteNumber": 72,
                    "velocity": 0,
                    "lightChannels": [
                        3,
                        4,
                        5,
                        8,
                        9
                    ]
                }
            },
            "tree": {
                "pinValue": 0,
                "ticks": 3,
                "event": {
                    "deltaTime": 3,
                    "type": "channel",
                    "subtype": "noteOff",
                    "channel": 2,
                    "noteNumber": 72,
                    "velocity": 0,
                    "lightChannels": [
                        3,
                        4,
                        5,
                        8,
                        9
                    ]
                }
            }
        }
    },
    {
        "changes": {
            "window": 1,
            "outline": 1
        },
        "timeout": 0.06038128749999999,
        "raw": {
            "window": {
                "pinValue": 1,
                "ticks": 2,
                "event": {
                    "deltaTime": 2,
                    "type": "channel",
                    "subtype": "noteOn",
                    "channel": 9,
                    "noteNumber": 54,
                    "velocity": 87,
                    "lightChannels": [
                        6,
                        7
                    ]
                }
            },
            "outline": {
                "pinValue": 1,
                "ticks": 2,
                "event": {
                    "deltaTime": 2,
                    "type": "channel",
                    "subtype": "noteOn",
                    "channel": 9,
                    "noteNumber": 54,
                    "velocity": 87,
                    "lightChannels": [
                        6,
                        7
                    ]
                }
            }
        }
    },
    {
        "changes": {
            "window": 0,
            "outline": 0
        },
        "timeout": 0.06144060833333333,
        "raw": {
            "window": {
                "pinValue": 0,
                "ticks": 11,
                "event": {
                    "deltaTime": 11,
                    "type": "channel",
                    "subtype": "noteOff",
                    "channel": 9,
                    "noteNumber": 54,
                    "velocity": 0,
                    "lightChannels": [
                        6,
                        7
                    ]
                }
            },
            "outline": {
                "pinValue": 0,
                "ticks": 11,
                "event": {
                    "deltaTime": 11,
                    "type": "channel",
                    "subtype": "noteOff",
                    "channel": 9,
                    "noteNumber": 54,
                    "velocity": 0,
                    "lightChannels": [
                        6,
                        7
                    ]
                }
            }
        }
    },
    {
        "changes": {
            "window": 1,
            "outline": 1
        },
        "timeout": 0.18961842916666663,
        "raw": {
            "window": {
                "pinValue": 1,
                "ticks": 7,
                "event": {
                    "deltaTime": 7,
                    "type": "channel",
                    "subtype": "noteOn",
                    "channel": 9,
                    "noteNumber": 54,
                    "velocity": 83,
                    "lightChannels": [
                        6,
                        7
                    ]
                }
            },
            "outline": {
                "pinValue": 1,
                "ticks": 7,
                "event": {
                    "deltaTime": 7,
                    "type": "channel",
                    "subtype": "noteOn",
                    "channel": 9,
                    "noteNumber": 54,
                    "velocity": 83,
                    "lightChannels": [
                        6,
                        7
                    ]
                }
            }
        }
    },
    {
        "changes": {
            "window": 0,
            "outline": 0
        },
        "timeout": 0.06249992916666667,
        "raw": {
            "window": {
                "pinValue": 0,
                "ticks": 4,
                "event": {
                    "deltaTime": 4,
                    "type": "channel",
                    "subtype": "noteOff",
                    "channel": 9,
                    "noteNumber": 54,
                    "velocity": 0,
                    "lightChannels": [
                        6,
                        7
                    ]
                }
            },
            "outline": {
                "pinValue": 0,
                "ticks": 4,
                "event": {
                    "deltaTime": 4,
                    "type": "channel",
                    "subtype": "noteOff",
                    "channel": 9,
                    "noteNumber": 54,
                    "velocity": 0,
                    "lightChannels": [
                        6,
                        7
                    ]
                }
            }
        }
    },
    {
        "changes": {
            "window": 1,
            "outline": 1
        },
        "timeout": 0.1885591083333333,
        "raw": {
            "window": {
                "pinValue": 1,
                "ticks": 1,
                "event": {
                    "deltaTime": 1,
                    "type": "channel",
                    "subtype": "noteOn",
                    "channel": 9,
                    "noteNumber": 54,
                    "velocity": 93,
                    "lightChannels": [
                        6,
                        7
                    ]
                }
            },
            "outline": {
                "pinValue": 1,
                "ticks": 1,
                "event": {
                    "deltaTime": 1,
                    "type": "channel",
                    "subtype": "noteOn",
                    "channel": 9,
                    "noteNumber": 54,
                    "velocity": 93,
                    "lightChannels": [
                        6,
                        7
                    ]
                }
            }
        }
    },
    {
        "changes": {
            "window": 0,
            "outline": 0
        },
        "timeout": 0.06885585416666666,
        "raw": {
            "window": {
                "pinValue": 0,
                "ticks": 0,
                "event": {
                    "deltaTime": 0,
                    "type": "channel",
                    "subtype": "noteOff",
                    "channel": 9,
                    "noteNumber": 54,
                    "velocity": 0,
                    "lightChannels": [
                        6,
                        7
                    ]
                }
            },
            "outline": {
                "pinValue": 0,
                "ticks": 0,
                "event": {
                    "deltaTime": 0,
                    "type": "channel",
                    "subtype": "noteOff",
                    "channel": 9,
                    "noteNumber": 54,
                    "velocity": 0,
                    "lightChannels": [
                        6,
                        7
                    ]
                }
            }
        }
    },
    {
        "changes": {
            "window": 1,
            "outline": 1
        },
        "timeout": 0.19703367499999996,
        "raw": {
            "window": {
                "pinValue": 1,
                "ticks": 7,
                "event": {
                    "deltaTime": 7,
                    "type": "channel",
                    "subtype": "noteOn",
                    "channel": 9,
                    "noteNumber": 54,
                    "velocity": 99,
                    "lightChannels": [
                        6,
                        7
                    ]
                }
            },
            "outline": {
                "pinValue": 1,
                "ticks": 7,
                "event": {
                    "deltaTime": 7,
                    "type": "channel",
                    "subtype": "noteOn",
                    "channel": 9,
                    "noteNumber": 54,
                    "velocity": 99,
                    "lightChannels": [
                        6,
                        7
                    ]
                }
            }
        }
    },
    {
        "changes": {
            "window": 0,
            "outline": 0
        },
        "timeout": 0.08156770416666664,
        "raw": {
            "window": {
                "pinValue": 0,
                "ticks": 5,
                "event": {
                    "deltaTime": 5,
                    "type": "channel",
                    "subtype": "noteOff",
                    "channel": 9,
                    "noteNumber": 54,
                    "velocity": 0,
                    "lightChannels": [
                        6,
                        7
                    ]
                }
            },
            "outline": {
                "pinValue": 0,
                "ticks": 5,
                "event": {
                    "deltaTime": 5,
                    "type": "channel",
                    "subtype": "noteOff",
                    "channel": 9,
                    "noteNumber": 54,
                    "velocity": 0,
                    "lightChannels": [
                        6,
                        7
                    ]
                }
            }
        }
    },
    {
        "changes": {
            "garden": 1
        },
        "timeout": 0.1747879375,
        "raw": {
            "garden": {
                "pinValue": 1,
                "ticks": 0,
                "event": {
                    "deltaTime": 0,
                    "type": "channel",
                    "subtype": "noteOn",
                    "channel": 4,
                    "noteNumber": 81,
                    "velocity": 127,
                    "lightChannels": [
                        8
                    ]
                }
            }
        }
    },
    {
        "changes": {
            "garden": 0
        },
        "timeout": 0.07415245833333332,
        "raw": {
            "garden": {
                "pinValue": 0,
                "ticks": 7,
                "event": {
                    "deltaTime": 7,
                    "type": "channel",
                    "subtype": "noteOff",
                    "channel": 4,
                    "noteNumber": 81,
                    "velocity": 0,
                    "lightChannels": [
                        8
                    ]
                }
            }
        }
    },
    {
        "changes": {
            "garden": 1
        },
        "timeout": 0.18855910833333328,
        "raw": {
            "garden": {
                "pinValue": 1,
                "ticks": 8,
                "event": {
                    "deltaTime": 8,
                    "type": "channel",
                    "subtype": "noteOn",
                    "channel": 4,
                    "noteNumber": 81,
                    "velocity": 123,
                    "lightChannels": [
                        8
                    ]
                }
            }
        }
    },
    {
        "changes": {
            "garden": 0
        },
        "timeout": 0.09004227083333331,
        "raw": {
            "garden": {
                "pinValue": 0,
                "ticks": 12,
                "event": {
                    "deltaTime": 12,
                    "type": "channel",
                    "subtype": "noteOff",
                    "channel": 4,
                    "noteNumber": 81,
                    "velocity": 0,
                    "lightChannels": [
                        8
                    ]
                }
            }
        }
    },
    {
        "changes": {
            "window": 1,
            "outline": 1
        },
        "timeout": 0.15783880416666665,
        "raw": {
            "window": {
                "pinValue": 1,
                "ticks": 4,
                "event": {
                    "deltaTime": 4,
                    "type": "channel",
                    "subtype": "noteOn",
                    "channel": 9,
                    "noteNumber": 54,
                    "velocity": 90,
                    "lightChannels": [
                        6,
                        7
                    ]
                }
            },
            "outline": {
                "pinValue": 1,
                "ticks": 4,
                "event": {
                    "deltaTime": 4,
                    "type": "channel",
                    "subtype": "noteOn",
                    "channel": 9,
                    "noteNumber": 54,
                    "velocity": 90,
                    "lightChannels": [
                        6,
                        7
                    ]
                }
            }
        }
    },
    {
        "changes": {
            "garden": 1
        },
        "timeout": 0.007415245833333332,
        "raw": {
            "garden": {
                "pinValue": 1,
                "ticks": 7,
                "event": {
                    "deltaTime": 7,
                    "type": "channel",
                    "subtype": "noteOn",
                    "channel": 4,
                    "noteNumber": 81,
                    "velocity": 123,
                    "lightChannels": [
                        8
                    ]
                }
            }
        }
    },
    {
        "changes": {
            "window": 0,
            "outline": 0
        },
        "timeout": 0.05826264583333333,
        "raw": {
            "window": {
                "pinValue": 0,
                "ticks": 55,
                "event": {
                    "deltaTime": 55,
                    "type": "channel",
                    "subtype": "noteOff",
                    "channel": 9,
                    "noteNumber": 54,
                    "velocity": 0,
                    "lightChannels": [
                        6,
                        7
                    ]
                }
            },
            "outline": {
                "pinValue": 0,
                "ticks": 55,
                "event": {
                    "deltaTime": 55,
                    "type": "channel",
                    "subtype": "noteOff",
                    "channel": 9,
                    "noteNumber": 54,
                    "velocity": 0,
                    "lightChannels": [
                        6,
                        7
                    ]
                }
            }
        }
    },
    {
        "changes": {
            "garden": 0
        },
        "timeout": 0.027542341666666668,
        "raw": {
            "garden": {
                "pinValue": 0,
                "ticks": 2,
                "event": {
                    "deltaTime": 2,
                    "type": "channel",
                    "subtype": "noteOff",
                    "channel": 4,
                    "noteNumber": 81,
                    "velocity": 0,
                    "lightChannels": [
                        8
                    ]
                }
            }
        }
    },
    {
        "changes": {
            "garden": 1
        },
        "timeout": 0.16737269166666666,
        "raw": {
            "garden": {
                "pinValue": 1,
                "ticks": 3,
                "event": {
                    "deltaTime": 3,
                    "type": "channel",
                    "subtype": "noteOn",
                    "channel": 4,
                    "noteNumber": 81,
                    "velocity": 125,
                    "lightChannels": [
                        8
                    ]
                }
            }
        }
    },
    {
        "changes": {
            "window": 1,
            "outline": 1
        },
        "timeout": 0.007415245833333332,
        "raw": {
            "window": {
                "pinValue": 1,
                "ticks": 7,
                "event": {
                    "deltaTime": 7,
                    "type": "channel",
                    "subtype": "noteOn",
                    "channel": 9,
                    "noteNumber": 54,
                    "velocity": 95,
                    "lightChannels": [
                        6,
                        7
                    ]
                }
            },
            "outline": {
                "pinValue": 1,
                "ticks": 7,
                "event": {
                    "deltaTime": 7,
                    "type": "channel",
                    "subtype": "noteOn",
                    "channel": 9,
                    "noteNumber": 54,
                    "velocity": 95,
                    "lightChannels": [
                        6,
                        7
                    ]
                }
            }
        }
    },
    {
        "changes": {
            "garden": 0
        },
        "timeout": 0.07309313749999999,
        "raw": {
            "garden": {
                "pinValue": 0,
                "ticks": 5,
                "event": {
                    "deltaTime": 5,
                    "type": "channel",
                    "subtype": "noteOff",
                    "channel": 4,
                    "noteNumber": 81,
                    "velocity": 0,
                    "lightChannels": [
                        8
                    ]
                }
            }
        }
    },
    {
        "changes": {
            "window": 0,
            "outline": 0
        },
        "timeout": 0.007415245833333332,
        "raw": {
            "window": {
                "pinValue": 0,
                "ticks": 7,
                "event": {
                    "deltaTime": 7,
                    "type": "channel",
                    "subtype": "noteOff",
                    "channel": 9,
                    "noteNumber": 54,
                    "velocity": 0,
                    "lightChannels": [
                        6,
                        7
                    ]
                }
            },
            "outline": {
                "pinValue": 0,
                "ticks": 7,
                "event": {
                    "deltaTime": 7,
                    "type": "channel",
                    "subtype": "noteOff",
                    "channel": 9,
                    "noteNumber": 54,
                    "velocity": 0,
                    "lightChannels": [
                        6,
                        7
                    ]
                }
            }
        }
    },
    {
        "changes": {
            "tree": 1
        },
        "timeout": 0.15995744583333332,
        "raw": {
            "tree": {
                "pinValue": 1,
                "ticks": 14,
                "event": {
                    "deltaTime": 14,
                    "type": "channel",
                    "subtype": "noteOn",
                    "channel": 4,
                    "noteNumber": 77,
                    "velocity": 123,
                    "lightChannels": [
                        9
                    ]
                }
            }
        }
    },
    {
        "changes": {
            "tree": 0
        },
        "timeout": 0.09533887499999999,
        "raw": {
            "tree": {
                "pinValue": 0,
                "ticks": 2,
                "event": {
                    "deltaTime": 2,
                    "type": "channel",
                    "subtype": "noteOff",
                    "channel": 4,
                    "noteNumber": 77,
                    "velocity": 0,
                    "lightChannels": [
                        9
                    ]
                }
            }
        }
    },
    {
        "changes": {
            "tree": 1
        },
        "timeout": 0.16419472916666666,
        "raw": {
            "tree": {
                "pinValue": 1,
                "ticks": 7,
                "event": {
                    "deltaTime": 7,
                    "type": "channel",
                    "subtype": "noteOn",
                    "channel": 4,
                    "noteNumber": 77,
                    "velocity": 123,
                    "lightChannels": [
                        9
                    ]
                }
            }
        }
    },
    {
        "changes": {
            "tree": 0
        },
        "timeout": 0.0858049875,
        "raw": {
            "tree": {
                "pinValue": 0,
                "ticks": 9,
                "event": {
                    "deltaTime": 9,
                    "type": "channel",
                    "subtype": "noteOff",
                    "channel": 4,
                    "noteNumber": 77,
                    "velocity": 0,
                    "lightChannels": [
                        9
                    ]
                }
            }
        }
    },
    {
        "changes": {
            "window": 1,
            "outline": 1
        },
        "timeout": 0.15148287916666664,
        "raw": {
            "window": {
                "pinValue": 1,
                "ticks": 0,
                "event": {
                    "deltaTime": 0,
                    "type": "channel",
                    "subtype": "noteOn",
                    "channel": 9,
                    "noteNumber": 54,
                    "velocity": 91,
                    "lightChannels": [
                        6,
                        7
                    ]
                }
            },
            "outline": {
                "pinValue": 1,
                "ticks": 0,
                "event": {
                    "deltaTime": 0,
                    "type": "channel",
                    "subtype": "noteOn",
                    "channel": 9,
                    "noteNumber": 54,
                    "velocity": 91,
                    "lightChannels": [
                        6,
                        7
                    ]
                }
            }
        }
    },
    {
        "changes": {
            "tree": 1
        },
        "timeout": 0.007415245833333332,
        "raw": {
            "tree": {
                "pinValue": 1,
                "ticks": 7,
                "event": {
                    "deltaTime": 7,
                    "type": "channel",
                    "subtype": "noteOn",
                    "channel": 4,
                    "noteNumber": 77,
                    "velocity": 123,
                    "lightChannels": [
                        9
                    ]
                }
            }
        }
    },
    {
        "changes": {
            "window": 0,
            "outline": 0
        },
        "timeout": 0.057203325,
        "raw": {
            "window": {
                "pinValue": 0,
                "ticks": 46,
                "event": {
                    "deltaTime": 46,
                    "type": "channel",
                    "subtype": "noteOff",
                    "channel": 9,
                    "noteNumber": 54,
                    "velocity": 0,
                    "lightChannels": [
                        6,
                        7
                    ]
                }
            },
            "outline": {
                "pinValue": 0,
                "ticks": 46,
                "event": {
                    "deltaTime": 46,
                    "type": "channel",
                    "subtype": "noteOff",
                    "channel": 9,
                    "noteNumber": 54,
                    "velocity": 0,
                    "lightChannels": [
                        6,
                        7
                    ]
                }
            }
        }
    },
    {
        "changes": {
            "tree": 0
        },
        "timeout": 0.02648302083333333,
        "raw": {
            "tree": {
                "pinValue": 0,
                "ticks": 14,
                "event": {
                    "deltaTime": 14,
                    "type": "channel",
                    "subtype": "noteOff",
                    "channel": 4,
                    "noteNumber": 77,
                    "velocity": 0,
                    "lightChannels": [
                        9
                    ]
                }
            }
        }
    },
    {
        "changes": {
            "tree": 1
        },
        "timeout": 0.16843201249999998,
        "raw": {
            "tree": {
                "pinValue": 1,
                "ticks": 4,
                "event": {
                    "deltaTime": 4,
                    "type": "channel",
                    "subtype": "noteOn",
                    "channel": 4,
                    "noteNumber": 77,
                    "velocity": 123,
                    "lightChannels": [
                        9
                    ]
                }
            }
        }
    },
    {
        "changes": {
            "window": 1,
            "outline": 1
        },
        "timeout": 0.004237283333333333,
        "raw": {
            "window": {
                "pinValue": 1,
                "ticks": 4,
                "event": {
                    "deltaTime": 4,
                    "type": "channel",
                    "subtype": "noteOn",
                    "channel": 9,
                    "noteNumber": 54,
                    "velocity": 87,
                    "lightChannels": [
                        6,
                        7
                    ]
                }
            },
            "outline": {
                "pinValue": 1,
                "ticks": 4,
                "event": {
                    "deltaTime": 4,
                    "type": "channel",
                    "subtype": "noteOn",
                    "channel": 9,
                    "noteNumber": 54,
                    "velocity": 87,
                    "lightChannels": [
                        6,
                        7
                    ]
                }
            }
        }
    },
    {
        "changes": {
            "window": 0,
            "outline": 0
        },
        "timeout": 0.069915175,
        "raw": {
            "window": {
                "pinValue": 0,
                "ticks": 15,
                "event": {
                    "deltaTime": 15,
                    "type": "channel",
                    "subtype": "noteOff",
                    "channel": 9,
                    "noteNumber": 54,
                    "velocity": 0,
                    "lightChannels": [
                        6,
                        7
                    ]
                }
            },
            "outline": {
                "pinValue": 0,
                "ticks": 15,
                "event": {
                    "deltaTime": 15,
                    "type": "channel",
                    "subtype": "noteOff",
                    "channel": 9,
                    "noteNumber": 54,
                    "velocity": 0,
                    "lightChannels": [
                        6,
                        7
                    ]
                }
            }
        }
    },
    {
        "changes": {
            "tree": 0
        },
        "timeout": 0.02012709583333333,
        "raw": {
            "tree": {
                "pinValue": 0,
                "ticks": 5,
                "event": {
                    "deltaTime": 5,
                    "type": "channel",
                    "subtype": "noteOff",
                    "channel": 4,
                    "noteNumber": 77,
                    "velocity": 0,
                    "lightChannels": [
                        9
                    ]
                }
            }
        }
    },
    {
        "changes": {
            "window": 1,
            "outline": 1
        },
        "timeout": 0.15148287916666664,
        "raw": {
            "window": {
                "pinValue": 1,
                "ticks": 5,
                "event": {
                    "deltaTime": 5,
                    "type": "channel",
                    "subtype": "noteOn",
                    "channel": 4,
                    "noteNumber": 74,
                    "velocity": 115,
                    "lightChannels": [
                        6,
                        7
                    ]
                }
            },
            "outline": {
                "pinValue": 1,
                "ticks": 5,
                "event": {
                    "deltaTime": 5,
                    "type": "channel",
                    "subtype": "noteOn",
                    "channel": 4,
                    "noteNumber": 74,
                    "velocity": 115,
                    "lightChannels": [
                        6,
                        7
                    ]
                }
            }
        }
    },
    {
        "changes": {
            "window": 0,
            "outline": 0
        },
        "timeout": 0.08156770416666666,
        "raw": {
            "window": {
                "pinValue": 0,
                "ticks": 1,
                "event": {
                    "deltaTime": 1,
                    "type": "channel",
                    "subtype": "noteOff",
                    "channel": 4,
                    "noteNumber": 74,
                    "velocity": 0,
                    "lightChannels": [
                        6,
                        7
                    ]
                }
            },
            "outline": {
                "pinValue": 0,
                "ticks": 1,
                "event": {
                    "deltaTime": 1,
                    "type": "channel",
                    "subtype": "noteOff",
                    "channel": 4,
                    "noteNumber": 74,
                    "velocity": 0,
                    "lightChannels": [
                        6,
                        7
                    ]
                }
            }
        }
    },
    {
        "changes": {
            "window": 1,
            "outline": 1
        },
        "timeout": 0.17160997499999997,
        "raw": {
            "window": {
                "pinValue": 1,
                "ticks": 8,
                "event": {
                    "deltaTime": 8,
                    "type": "channel",
                    "subtype": "noteOn",
                    "channel": 4,
                    "noteNumber": 74,
                    "velocity": 115,
                    "lightChannels": [
                        6,
                        7
                    ]
                }
            },
            "outline": {
                "pinValue": 1,
                "ticks": 8,
                "event": {
                    "deltaTime": 8,
                    "type": "channel",
                    "subtype": "noteOn",
                    "channel": 4,
                    "noteNumber": 74,
                    "velocity": 115,
                    "lightChannels": [
                        6,
                        7
                    ]
                }
            }
        }
    },
    {
        "changes": {
            "window": 0,
            "outline": 0
        },
        "timeout": 0.08686430833333333,
        "raw": {
            "window": {
                "pinValue": 0,
                "ticks": 22,
                "event": {
                    "deltaTime": 22,
                    "type": "channel",
                    "subtype": "noteOff",
                    "channel": 4,
                    "noteNumber": 74,
                    "velocity": 0,
                    "lightChannels": [
                        6,
                        7
                    ]
                }
            },
            "outline": {
                "pinValue": 0,
                "ticks": 22,
                "event": {
                    "deltaTime": 22,
                    "type": "channel",
                    "subtype": "noteOff",
                    "channel": 4,
                    "noteNumber": 74,
                    "velocity": 0,
                    "lightChannels": [
                        6,
                        7
                    ]
                }
            }
        }
    },
    {
        "changes": {
            "window": 1,
            "outline": 1
        },
        "timeout": 0.16419472916666664,
        "raw": {
            "window": {
                "pinValue": 1,
                "ticks": 1,
                "event": {
                    "deltaTime": 1,
                    "type": "channel",
                    "subtype": "noteOn",
                    "channel": 4,
                    "noteNumber": 74,
                    "velocity": 121,
                    "lightChannels": [
                        6,
                        7
                    ]
                }
            },
            "outline": {
                "pinValue": 1,
                "ticks": 1,
                "event": {
                    "deltaTime": 1,
                    "type": "channel",
                    "subtype": "noteOn",
                    "channel": 4,
                    "noteNumber": 74,
                    "velocity": 121,
                    "lightChannels": [
                        6,
                        7
                    ]
                }
            }
        }
    },
    {
        "changes": {
            "window": 1,
            "outline": 1
        },
        "timeout": 0.006355925,
        "raw": {
            "window": {
                "pinValue": 1,
                "ticks": 1,
                "event": {
                    "deltaTime": 1,
                    "type": "channel",
                    "subtype": "noteOn",
                    "channel": 9,
                    "noteNumber": 54,
                    "velocity": 93,
                    "lightChannels": [
                        6,
                        7
                    ]
                }
            },
            "outline": {
                "pinValue": 1,
                "ticks": 1,
                "event": {
                    "deltaTime": 1,
                    "type": "channel",
                    "subtype": "noteOn",
                    "channel": 9,
                    "noteNumber": 54,
                    "velocity": 93,
                    "lightChannels": [
                        6,
                        7
                    ]
                }
            }
        }
    },
    {
        "changes": {
            "window": 0,
            "outline": 0
        },
        "timeout": 0.06779653333333333,
        "raw": {
            "window": {
                "pinValue": 0,
                "ticks": 64,
                "event": {
                    "deltaTime": 64,
                    "type": "channel",
                    "subtype": "noteOff",
                    "channel": 9,
                    "noteNumber": 54,
                    "velocity": 0,
                    "lightChannels": [
                        6,
                        7
                    ]
                }
            },
            "outline": {
                "pinValue": 0,
                "ticks": 64,
                "event": {
                    "deltaTime": 64,
                    "type": "channel",
                    "subtype": "noteOff",
                    "channel": 9,
                    "noteNumber": 54,
                    "velocity": 0,
                    "lightChannels": [
                        6,
                        7
                    ]
                }
            }
        }
    },
    {
        "changes": {
            "window": 0,
            "outline": 0
        },
        "timeout": 0.0095338875,
        "raw": {
            "window": {
                "pinValue": 0,
                "ticks": 9,
                "event": {
                    "deltaTime": 9,
                    "type": "channel",
                    "subtype": "noteOff",
                    "channel": 4,
                    "noteNumber": 74,
                    "velocity": 0,
                    "lightChannels": [
                        6,
                        7
                    ]
                }
            },
            "outline": {
                "pinValue": 0,
                "ticks": 9,
                "event": {
                    "deltaTime": 9,
                    "type": "channel",
                    "subtype": "noteOff",
                    "channel": 4,
                    "noteNumber": 74,
                    "velocity": 0,
                    "lightChannels": [
                        6,
                        7
                    ]
                }
            }
        }
    },
    {
        "changes": {
            "window": 1,
            "outline": 1
        },
        "timeout": 0.17160997499999997,
        "raw": {
            "window": {
                "pinValue": 1,
                "ticks": 0,
                "event": {
                    "deltaTime": 0,
                    "type": "channel",
                    "subtype": "noteOn",
                    "channel": 4,
                    "noteNumber": 74,
                    "velocity": 115,
                    "lightChannels": [
                        6,
                        7
                    ]
                }
            },
            "outline": {
                "pinValue": 1,
                "ticks": 0,
                "event": {
                    "deltaTime": 0,
                    "type": "channel",
                    "subtype": "noteOn",
                    "channel": 4,
                    "noteNumber": 74,
                    "velocity": 115,
                    "lightChannels": [
                        6,
                        7
                    ]
                }
            }
        }
    },
    {
        "changes": {
            "window": 1,
            "outline": 1
        },
        "timeout": 0.014830491666666666,
        "raw": {
            "window": {
                "pinValue": 1,
                "ticks": 1,
                "event": {
                    "deltaTime": 1,
                    "type": "channel",
                    "subtype": "noteOn",
                    "channel": 9,
                    "noteNumber": 54,
                    "velocity": 90,
                    "lightChannels": [
                        6,
                        7
                    ]
                }
            },
            "outline": {
                "pinValue": 1,
                "ticks": 1,
                "event": {
                    "deltaTime": 1,
                    "type": "channel",
                    "subtype": "noteOn",
                    "channel": 9,
                    "noteNumber": 54,
                    "velocity": 90,
                    "lightChannels": [
                        6,
                        7
                    ]
                }
            }
        }
    },
    {
        "changes": {
            "window": 0,
            "outline": 0
        },
        "timeout": 0.06779653333333333,
        "raw": {
            "window": {
                "pinValue": 0,
                "ticks": 1,
                "event": {
                    "deltaTime": 1,
                    "type": "channel",
                    "subtype": "noteOff",
                    "channel": 4,
                    "noteNumber": 74,
                    "velocity": 0,
                    "lightChannels": [
                        6,
                        7
                    ]
                }
            },
            "outline": {
                "pinValue": 0,
                "ticks": 1,
                "event": {
                    "deltaTime": 1,
                    "type": "channel",
                    "subtype": "noteOff",
                    "channel": 4,
                    "noteNumber": 74,
                    "velocity": 0,
                    "lightChannels": [
                        6,
                        7
                    ]
                }
            }
        }
    },
    {
        "changes": {
            "window": 0,
            "outline": 0
        },
        "timeout": 0.0010593208333333332,
        "raw": {
            "window": {
                "pinValue": 0,
                "ticks": 1,
                "event": {
                    "deltaTime": 1,
                    "type": "channel",
                    "subtype": "noteOff",
                    "channel": 9,
                    "noteNumber": 54,
                    "velocity": 0,
                    "lightChannels": [
                        6,
                        7
                    ]
                }
            },
            "outline": {
                "pinValue": 0,
                "ticks": 1,
                "event": {
                    "deltaTime": 1,
                    "type": "channel",
                    "subtype": "noteOff",
                    "channel": 9,
                    "noteNumber": 54,
                    "velocity": 0,
                    "lightChannels": [
                        6,
                        7
                    ]
                }
            }
        }
    },
    {
        "changes": {
            "col-1": 1,
            "col-2": 1,
            "col-3": 1
        },
        "timeout": 0.17055065416666665,
        "raw": {
            "col-1": {
                "pinValue": 1,
                "ticks": 5,
                "event": {
                    "deltaTime": 5,
                    "type": "channel",
                    "subtype": "noteOn",
                    "channel": 4,
                    "noteNumber": 77,
                    "velocity": 125,
                    "lightChannels": [
                        3,
                        4,
                        5
                    ]
                }
            },
            "col-2": {
                "pinValue": 1,
                "ticks": 5,
                "event": {
                    "deltaTime": 5,
                    "type": "channel",
                    "subtype": "noteOn",
                    "channel": 4,
                    "noteNumber": 77,
                    "velocity": 125,
                    "lightChannels": [
                        3,
                        4,
                        5
                    ]
                }
            },
            "col-3": {
                "pinValue": 1,
                "ticks": 5,
                "event": {
                    "deltaTime": 5,
                    "type": "channel",
                    "subtype": "noteOn",
                    "channel": 4,
                    "noteNumber": 77,
                    "velocity": 125,
                    "lightChannels": [
                        3,
                        4,
                        5
                    ]
                }
            }
        }
    },
    {
        "changes": {
            "col-1": 0,
            "col-2": 0,
            "col-3": 0
        },
        "timeout": 0.0667372125,
        "raw": {
            "col-1": {
                "pinValue": 0,
                "ticks": 10,
                "event": {
                    "deltaTime": 10,
                    "type": "channel",
                    "subtype": "noteOff",
                    "channel": 4,
                    "noteNumber": 77,
                    "velocity": 0,
                    "lightChannels": [
                        3,
                        4,
                        5
                    ]
                }
            },
            "col-2": {
                "pinValue": 0,
                "ticks": 10,
                "event": {
                    "deltaTime": 10,
                    "type": "channel",
                    "subtype": "noteOff",
                    "channel": 4,
                    "noteNumber": 77,
                    "velocity": 0,
                    "lightChannels": [
                        3,
                        4,
                        5
                    ]
                }
            },
            "col-3": {
                "pinValue": 0,
                "ticks": 10,
                "event": {
                    "deltaTime": 10,
                    "type": "channel",
                    "subtype": "noteOff",
                    "channel": 4,
                    "noteNumber": 77,
                    "velocity": 0,
                    "lightChannels": [
                        3,
                        4,
                        5
                    ]
                }
            }
        }
    },
    {
        "changes": {
            "col-1": 1,
            "col-2": 1,
            "col-3": 1
        },
        "timeout": 0.17478793749999996,
        "raw": {
            "col-1": {
                "pinValue": 1,
                "ticks": 5,
                "event": {
                    "deltaTime": 5,
                    "type": "channel",
                    "subtype": "noteOn",
                    "channel": 4,
                    "noteNumber": 77,
                    "velocity": 125,
                    "lightChannels": [
                        3,
                        4,
                        5
                    ]
                }
            },
            "col-2": {
                "pinValue": 1,
                "ticks": 5,
                "event": {
                    "deltaTime": 5,
                    "type": "channel",
                    "subtype": "noteOn",
                    "channel": 4,
                    "noteNumber": 77,
                    "velocity": 125,
                    "lightChannels": [
                        3,
                        4,
                        5
                    ]
                }
            },
            "col-3": {
                "pinValue": 1,
                "ticks": 5,
                "event": {
                    "deltaTime": 5,
                    "type": "channel",
                    "subtype": "noteOn",
                    "channel": 4,
                    "noteNumber": 77,
                    "velocity": 125,
                    "lightChannels": [
                        3,
                        4,
                        5
                    ]
                }
            }
        }
    },
    {
        "changes": {
            "col-1": 0,
            "col-2": 0,
            "col-3": 0
        },
        "timeout": 0.07733042083333334,
        "raw": {
            "col-1": {
                "pinValue": 0,
                "ticks": 3,
                "event": {
                    "deltaTime": 3,
                    "type": "channel",
                    "subtype": "noteOff",
                    "channel": 4,
                    "noteNumber": 77,
                    "velocity": 0,
                    "lightChannels": [
                        3,
                        4,
                        5
                    ]
                }
            },
            "col-2": {
                "pinValue": 0,
                "ticks": 3,
                "event": {
                    "deltaTime": 3,
                    "type": "channel",
                    "subtype": "noteOff",
                    "channel": 4,
                    "noteNumber": 77,
                    "velocity": 0,
                    "lightChannels": [
                        3,
                        4,
                        5
                    ]
                }
            },
            "col-3": {
                "pinValue": 0,
                "ticks": 3,
                "event": {
                    "deltaTime": 3,
                    "type": "channel",
                    "subtype": "noteOff",
                    "channel": 4,
                    "noteNumber": 77,
                    "velocity": 0,
                    "lightChannels": [
                        3,
                        4,
                        5
                    ]
                }
            }
        }
    },
    {
        "changes": {
            "col-1": 1,
            "col-2": 1,
            "col-3": 1
        },
        "timeout": 0.18220318333333332,
        "raw": {
            "col-1": {
                "pinValue": 1,
                "ticks": 2,
                "event": {
                    "deltaTime": 2,
                    "type": "channel",
                    "subtype": "noteOn",
                    "channel": 4,
                    "noteNumber": 77,
                    "velocity": 116,
                    "lightChannels": [
                        3,
                        4,
                        5
                    ]
                }
            },
            "col-2": {
                "pinValue": 1,
                "ticks": 2,
                "event": {
                    "deltaTime": 2,
                    "type": "channel",
                    "subtype": "noteOn",
                    "channel": 4,
                    "noteNumber": 77,
                    "velocity": 116,
                    "lightChannels": [
                        3,
                        4,
                        5
                    ]
                }
            },
            "col-3": {
                "pinValue": 1,
                "ticks": 2,
                "event": {
                    "deltaTime": 2,
                    "type": "channel",
                    "subtype": "noteOn",
                    "channel": 4,
                    "noteNumber": 77,
                    "velocity": 116,
                    "lightChannels": [
                        3,
                        4,
                        5
                    ]
                }
            }
        }
    },
    {
        "changes": {
            "window": 1,
            "outline": 1
        },
        "timeout": 0.008474566666666666,
        "raw": {
            "window": {
                "pinValue": 1,
                "ticks": 8,
                "event": {
                    "deltaTime": 8,
                    "type": "channel",
                    "subtype": "noteOn",
                    "channel": 9,
                    "noteNumber": 54,
                    "velocity": 99,
                    "lightChannels": [
                        6,
                        7
                    ]
                }
            },
            "outline": {
                "pinValue": 1,
                "ticks": 8,
                "event": {
                    "deltaTime": 8,
                    "type": "channel",
                    "subtype": "noteOn",
                    "channel": 9,
                    "noteNumber": 54,
                    "velocity": 99,
                    "lightChannels": [
                        6,
                        7
                    ]
                }
            }
        }
    },
    {
        "changes": {
            "col-1": 0,
            "col-2": 0,
            "col-3": 0
        },
        "timeout": 0.06249992916666666,
        "raw": {
            "col-1": {
                "pinValue": 0,
                "ticks": 14,
                "event": {
                    "deltaTime": 14,
                    "type": "channel",
                    "subtype": "noteOff",
                    "channel": 4,
                    "noteNumber": 77,
                    "velocity": 0,
                    "lightChannels": [
                        3,
                        4,
                        5
                    ]
                }
            },
            "col-2": {
                "pinValue": 0,
                "ticks": 14,
                "event": {
                    "deltaTime": 14,
                    "type": "channel",
                    "subtype": "noteOff",
                    "channel": 4,
                    "noteNumber": 77,
                    "velocity": 0,
                    "lightChannels": [
                        3,
                        4,
                        5
                    ]
                }
            },
            "col-3": {
                "pinValue": 0,
                "ticks": 14,
                "event": {
                    "deltaTime": 14,
                    "type": "channel",
                    "subtype": "noteOff",
                    "channel": 4,
                    "noteNumber": 77,
                    "velocity": 0,
                    "lightChannels": [
                        3,
                        4,
                        5
                    ]
                }
            }
        }
    },
    {
        "changes": {
            "window": 0,
            "outline": 0
        },
        "timeout": 0.0052966041666666665,
        "raw": {
            "window": {
                "pinValue": 0,
                "ticks": 5,
                "event": {
                    "deltaTime": 5,
                    "type": "channel",
                    "subtype": "noteOff",
                    "channel": 9,
                    "noteNumber": 54,
                    "velocity": 0,
                    "lightChannels": [
                        6,
                        7
                    ]
                }
            },
            "outline": {
                "pinValue": 0,
                "ticks": 5,
                "event": {
                    "deltaTime": 5,
                    "type": "channel",
                    "subtype": "noteOff",
                    "channel": 9,
                    "noteNumber": 54,
                    "velocity": 0,
                    "lightChannels": [
                        6,
                        7
                    ]
                }
            }
        }
    },
    {
        "changes": {
            "col-1": 1,
            "col-2": 1,
            "col-3": 1
        },
        "timeout": 0.17266929583333332,
        "raw": {
            "col-1": {
                "pinValue": 1,
                "ticks": 4,
                "event": {
                    "deltaTime": 4,
                    "type": "channel",
                    "subtype": "noteOn",
                    "channel": 4,
                    "noteNumber": 77,
                    "velocity": 125,
                    "lightChannels": [
                        3,
                        4,
                        5
                    ]
                }
            },
            "col-2": {
                "pinValue": 1,
                "ticks": 4,
                "event": {
                    "deltaTime": 4,
                    "type": "channel",
                    "subtype": "noteOn",
                    "channel": 4,
                    "noteNumber": 77,
                    "velocity": 125,
                    "lightChannels": [
                        3,
                        4,
                        5
                    ]
                }
            },
            "col-3": {
                "pinValue": 1,
                "ticks": 4,
                "event": {
                    "deltaTime": 4,
                    "type": "channel",
                    "subtype": "noteOn",
                    "channel": 4,
                    "noteNumber": 77,
                    "velocity": 125,
                    "lightChannels": [
                        3,
                        4,
                        5
                    ]
                }
            }
        }
    },
    {
        "changes": {
            "window": 1,
            "outline": 1
        },
        "timeout": 0.007415245833333332,
        "raw": {
            "window": {
                "pinValue": 1,
                "ticks": 7,
                "event": {
                    "deltaTime": 7,
                    "type": "channel",
                    "subtype": "noteOn",
                    "channel": 9,
                    "noteNumber": 54,
                    "velocity": 101,
                    "lightChannels": [
                        6,
                        7
                    ]
                }
            },
            "outline": {
                "pinValue": 1,
                "ticks": 7,
                "event": {
                    "deltaTime": 7,
                    "type": "channel",
                    "subtype": "noteOn",
                    "channel": 9,
                    "noteNumber": 54,
                    "velocity": 101,
                    "lightChannels": [
                        6,
                        7
                    ]
                }
            }
        }
    },
    {
        "changes": {
            "col-1": 0,
            "col-2": 0,
            "col-3": 0,
            "window": 0,
            "outline": 0
        },
        "timeout": 0.07309313749999999,
        "raw": {
            "col-1": {
                "pinValue": 0,
                "ticks": 7,
                "event": {
                    "deltaTime": 7,
                    "type": "channel",
                    "subtype": "noteOff",
                    "channel": 4,
                    "noteNumber": 77,
                    "velocity": 0,
                    "lightChannels": [
                        3,
                        4,
                        5
                    ]
                }
            },
            "col-2": {
                "pinValue": 0,
                "ticks": 7,
                "event": {
                    "deltaTime": 7,
                    "type": "channel",
                    "subtype": "noteOff",
                    "channel": 4,
                    "noteNumber": 77,
                    "velocity": 0,
                    "lightChannels": [
                        3,
                        4,
                        5
                    ]
                }
            },
            "col-3": {
                "pinValue": 0,
                "ticks": 7,
                "event": {
                    "deltaTime": 7,
                    "type": "channel",
                    "subtype": "noteOff",
                    "channel": 4,
                    "noteNumber": 77,
                    "velocity": 0,
                    "lightChannels": [
                        3,
                        4,
                        5
                    ]
                }
            },
            "window": {
                "pinValue": 0,
                "ticks": 0,
                "event": {
                    "deltaTime": 0,
                    "type": "channel",
                    "subtype": "noteOff",
                    "channel": 9,
                    "noteNumber": 54,
                    "velocity": 0,
                    "lightChannels": [
                        6,
                        7
                    ]
                }
            },
            "outline": {
                "pinValue": 0,
                "ticks": 0,
                "event": {
                    "deltaTime": 0,
                    "type": "channel",
                    "subtype": "noteOff",
                    "channel": 9,
                    "noteNumber": 54,
                    "velocity": 0,
                    "lightChannels": [
                        6,
                        7
                    ]
                }
            }
        }
    },
    {
        "changes": {
            "tree": 1
        },
        "timeout": 0.20021163749999996,
        "raw": {
            "tree": {
                "pinValue": 1,
                "ticks": 5,
                "event": {
                    "deltaTime": 5,
                    "type": "channel",
                    "subtype": "noteOn",
                    "channel": 5,
                    "noteNumber": 77,
                    "velocity": 126,
                    "lightChannels": [
                        9
                    ]
                }
            }
        }
    },
    {
        "changes": {
            "tree": 0
        },
        "timeout": 0.07733042083333333,
        "raw": {
            "tree": {
                "pinValue": 0,
                "ticks": 73,
                "event": {
                    "deltaTime": 73,
                    "type": "channel",
                    "subtype": "noteOff",
                    "channel": 5,
                    "noteNumber": 77,
                    "velocity": 0,
                    "lightChannels": [
                        9
                    ]
                }
            }
        }
    },
    {
        "changes": {
            "tree": 1
        },
        "timeout": 0.16737269166666663,
        "raw": {
            "tree": {
                "pinValue": 1,
                "ticks": 5,
                "event": {
                    "deltaTime": 5,
                    "type": "channel",
                    "subtype": "noteOn",
                    "channel": 5,
                    "noteNumber": 77,
                    "velocity": 126,
                    "lightChannels": [
                        9
                    ]
                }
            }
        }
    },
    {
        "changes": {
            "tree": 0
        },
        "timeout": 0.08156770416666666,
        "raw": {
            "tree": {
                "pinValue": 0,
                "ticks": 77,
                "event": {
                    "deltaTime": 77,
                    "type": "channel",
                    "subtype": "noteOff",
                    "channel": 5,
                    "noteNumber": 77,
                    "velocity": 0,
                    "lightChannels": [
                        9
                    ]
                }
            }
        }
    },
    {
        "changes": {
            "tree": 1
        },
        "timeout": 0.16843201249999998,
        "raw": {
            "tree": {
                "pinValue": 1,
                "ticks": 0,
                "event": {
                    "deltaTime": 0,
                    "type": "channel",
                    "subtype": "noteOn",
                    "channel": 5,
                    "noteNumber": 77,
                    "velocity": 123,
                    "lightChannels": [
                        9
                    ]
                }
            }
        }
    },
    {
        "changes": {
            "tree": 0
        },
        "timeout": 0.1048727625,
        "raw": {
            "tree": {
                "pinValue": 0,
                "ticks": 99,
                "event": {
                    "deltaTime": 99,
                    "type": "channel",
                    "subtype": "noteOff",
                    "channel": 5,
                    "noteNumber": 77,
                    "velocity": 0,
                    "lightChannels": [
                        9
                    ]
                }
            }
        }
    },
    {
        "changes": {
            "col-1": 1
        },
        "timeout": 0.14406763333333333,
        "raw": {
            "col-1": {
                "pinValue": 1,
                "ticks": 14,
                "event": {
                    "deltaTime": 14,
                    "type": "channel",
                    "subtype": "noteOn",
                    "channel": 7,
                    "noteNumber": 57,
                    "velocity": 109,
                    "lightChannels": [
                        3
                    ]
                }
            }
        }
    },
    {
        "changes": {
            "col-1": 1
        },
        "timeout": 0.007415245833333332,
        "raw": {
            "col-1": {
                "pinValue": 1,
                "ticks": 7,
                "event": {
                    "deltaTime": 7,
                    "type": "channel",
                    "subtype": "noteOn",
                    "channel": 7,
                    "noteNumber": 57,
                    "velocity": 108,
                    "lightChannels": [
                        3
                    ]
                }
            }
        }
    },
    {
        "changes": {
            "garage": 1
        },
        "timeout": 0.01694913333333333,
        "raw": {
            "garage": {
                "pinValue": 1,
                "ticks": 8,
                "event": {
                    "deltaTime": 8,
                    "type": "channel",
                    "subtype": "noteOn",
                    "channel": 8,
                    "noteNumber": 57,
                    "velocity": 125,
                    "lightChannels": [
                        0
                    ]
                }
            }
        }
    },
    {
        "changes": {
            "window": 1,
            "outline": 1
        },
        "timeout": 0.011652529166666665,
        "raw": {
            "window": {
                "pinValue": 1,
                "ticks": 7,
                "event": {
                    "deltaTime": 7,
                    "type": "channel",
                    "subtype": "noteOn",
                    "channel": 9,
                    "noteNumber": 49,
                    "velocity": 118,
                    "lightChannels": [
                        6,
                        7
                    ]
                }
            },
            "outline": {
                "pinValue": 1,
                "ticks": 7,
                "event": {
                    "deltaTime": 7,
                    "type": "channel",
                    "subtype": "noteOn",
                    "channel": 9,
                    "noteNumber": 49,
                    "velocity": 118,
                    "lightChannels": [
                        6,
                        7
                    ]
                }
            }
        }
    },
    {
        "changes": {
            "tree": 1
        },
        "timeout": 0.011652529166666665,
        "raw": {
            "tree": {
                "pinValue": 1,
                "ticks": 11,
                "event": {
                    "deltaTime": 11,
                    "type": "channel",
                    "subtype": "noteOn",
                    "channel": 5,
                    "noteNumber": 77,
                    "velocity": 125,
                    "lightChannels": [
                        9
                    ]
                }
            }
        }
    },
    {
        "changes": {
            "window": 0,
            "outline": 0
        },
        "timeout": 0.11546597083333333,
        "raw": {
            "window": {
                "pinValue": 0,
                "ticks": 14,
                "event": {
                    "deltaTime": 14,
                    "type": "channel",
                    "subtype": "noteOff",
                    "channel": 9,
                    "noteNumber": 49,
                    "velocity": 0,
                    "lightChannels": [
                        6,
                        7
                    ]
                }
            },
            "outline": {
                "pinValue": 0,
                "ticks": 14,
                "event": {
                    "deltaTime": 14,
                    "type": "channel",
                    "subtype": "noteOff",
                    "channel": 9,
                    "noteNumber": 49,
                    "velocity": 0,
                    "lightChannels": [
                        6,
                        7
                    ]
                }
            }
        }
    },
    {
        "changes": {
            "tree": 0
        },
        "timeout": 0.014830491666666664,
        "raw": {
            "tree": {
                "pinValue": 0,
                "ticks": 14,
                "event": {
                    "deltaTime": 14,
                    "type": "channel",
                    "subtype": "noteOff",
                    "channel": 5,
                    "noteNumber": 77,
                    "velocity": 0,
                    "lightChannels": [
                        9
                    ]
                }
            }
        }
    },
    {
        "changes": {
            "window": 1,
            "outline": 1
        },
        "timeout": 0.10487276249999998,
        "raw": {
            "window": {
                "pinValue": 1,
                "ticks": 5,
                "event": {
                    "deltaTime": 5,
                    "type": "channel",
                    "subtype": "noteOn",
                    "channel": 9,
                    "noteNumber": 51,
                    "velocity": 93,
                    "lightChannels": [
                        6,
                        7
                    ]
                }
            },
            "outline": {
                "pinValue": 1,
                "ticks": 5,
                "event": {
                    "deltaTime": 5,
                    "type": "channel",
                    "subtype": "noteOn",
                    "channel": 9,
                    "noteNumber": 51,
                    "velocity": 93,
                    "lightChannels": [
                        6,
                        7
                    ]
                }
            }
        }
    },
    {
        "changes": {
            "window": 0,
            "outline": 0
        },
        "timeout": 0.05932196666666666,
        "raw": {
            "window": {
                "pinValue": 0,
                "ticks": 9,
                "event": {
                    "deltaTime": 9,
                    "type": "channel",
                    "subtype": "noteOff",
                    "channel": 9,
                    "noteNumber": 51,
                    "velocity": 0,
                    "lightChannels": [
                        6,
                        7
                    ]
                }
            },
            "outline": {
                "pinValue": 0,
                "ticks": 9,
                "event": {
                    "deltaTime": 9,
                    "type": "channel",
                    "subtype": "noteOff",
                    "channel": 9,
                    "noteNumber": 51,
                    "velocity": 0,
                    "lightChannels": [
                        6,
                        7
                    ]
                }
            }
        }
    },
    {
        "changes": {
            "col-1": 0
        },
        "timeout": 0.069915175,
        "raw": {
            "col-1": {
                "pinValue": 0,
                "ticks": 9,
                "event": {
                    "deltaTime": 9,
                    "type": "channel",
                    "subtype": "noteOff",
                    "channel": 7,
                    "noteNumber": 57,
                    "velocity": 0,
                    "lightChannels": [
                        3
                    ]
                }
            }
        }
    },
    {
        "changes": {
            "col-1": 0
        },
        "timeout": 0.024364379166666665,
        "raw": {
            "col-1": {
                "pinValue": 0,
                "ticks": 23,
                "event": {
                    "deltaTime": 23,
                    "type": "channel",
                    "subtype": "noteOff",
                    "channel": 7,
                    "noteNumber": 57,
                    "velocity": 0,
                    "lightChannels": [
                        3
                    ]
                }
            }
        }
    },
    {
        "changes": {
            "garage": 0
        },
        "timeout": 0.012711849999999998,
        "raw": {
            "garage": {
                "pinValue": 0,
                "ticks": 12,
                "event": {
                    "deltaTime": 12,
                    "type": "channel",
                    "subtype": "noteOff",
                    "channel": 8,
                    "noteNumber": 57,
                    "velocity": 0,
                    "lightChannels": [
                        0
                    ]
                }
            }
        }
    },
    {
        "changes": {
            "col-2": 1
        },
        "timeout": 0.05614400416666666,
        "raw": {
            "col-2": {
                "pinValue": 1,
                "ticks": 0,
                "event": {
                    "deltaTime": 0,
                    "type": "channel",
                    "subtype": "noteOn",
                    "channel": 7,
                    "noteNumber": 55,
                    "velocity": 108,
                    "lightChannels": [
                        4
                    ]
                }
            }
        }
    },
    {
        "changes": {
            "top-right": 1
        },
        "timeout": 0.0010593208333333332,
        "raw": {
            "top-right": {
                "pinValue": 1,
                "ticks": 1,
                "event": {
                    "deltaTime": 1,
                    "type": "channel",
                    "subtype": "noteOn",
                    "channel": 8,
                    "noteNumber": 55,
                    "velocity": 122,
                    "lightChannels": [
                        1
                    ]
                }
            }
        }
    },
    {
        "changes": {
            "window": 1,
            "outline": 1
        },
        "timeout": 0.006355925,
        "raw": {
            "window": {
                "pinValue": 1,
                "ticks": 1,
                "event": {
                    "deltaTime": 1,
                    "type": "channel",
                    "subtype": "noteOn",
                    "channel": 9,
                    "noteNumber": 51,
                    "velocity": 101,
                    "lightChannels": [
                        6,
                        7
                    ]
                }
            },
            "outline": {
                "pinValue": 1,
                "ticks": 1,
                "event": {
                    "deltaTime": 1,
                    "type": "channel",
                    "subtype": "noteOn",
                    "channel": 9,
                    "noteNumber": 51,
                    "velocity": 101,
                    "lightChannels": [
                        6,
                        7
                    ]
                }
            }
        }
    },
    {
        "changes": {
            "window": 0,
            "outline": 0
        },
        "timeout": 0.07309313749999999,
        "raw": {
            "window": {
                "pinValue": 0,
                "ticks": 55,
                "event": {
                    "deltaTime": 55,
                    "type": "channel",
                    "subtype": "noteOff",
                    "channel": 9,
                    "noteNumber": 51,
                    "velocity": 0,
                    "lightChannels": [
                        6,
                        7
                    ]
                }
            },
            "outline": {
                "pinValue": 0,
                "ticks": 55,
                "event": {
                    "deltaTime": 55,
                    "type": "channel",
                    "subtype": "noteOff",
                    "channel": 9,
                    "noteNumber": 51,
                    "velocity": 0,
                    "lightChannels": [
                        6,
                        7
                    ]
                }
            }
        }
    },
    {
        "changes": {
            "window": 1,
            "outline": 1
        },
        "timeout": 0.17055065416666665,
        "raw": {
            "window": {
                "pinValue": 1,
                "ticks": 5,
                "event": {
                    "deltaTime": 5,
                    "type": "channel",
                    "subtype": "noteOn",
                    "channel": 9,
                    "noteNumber": 51,
                    "velocity": 98,
                    "lightChannels": [
                        6,
                        7
                    ]
                }
            },
            "outline": {
                "pinValue": 1,
                "ticks": 5,
                "event": {
                    "deltaTime": 5,
                    "type": "channel",
                    "subtype": "noteOn",
                    "channel": 9,
                    "noteNumber": 51,
                    "velocity": 98,
                    "lightChannels": [
                        6,
                        7
                    ]
                }
            }
        }
    },
    {
        "changes": {
            "window": 0,
            "outline": 0
        },
        "timeout": 0.06144060833333333,
        "raw": {
            "window": {
                "pinValue": 0,
                "ticks": 8,
                "event": {
                    "deltaTime": 8,
                    "type": "channel",
                    "subtype": "noteOff",
                    "channel": 9,
                    "noteNumber": 51,
                    "velocity": 0,
                    "lightChannels": [
                        6,
                        7
                    ]
                }
            },
            "outline": {
                "pinValue": 0,
                "ticks": 8,
                "event": {
                    "deltaTime": 8,
                    "type": "channel",
                    "subtype": "noteOff",
                    "channel": 9,
                    "noteNumber": 51,
                    "velocity": 0,
                    "lightChannels": [
                        6,
                        7
                    ]
                }
            }
        }
    },
    {
        "changes": {
            "col-2": 0
        },
        "timeout": 0.07627110000000001,
        "raw": {
            "col-2": {
                "pinValue": 0,
                "ticks": 3,
                "event": {
                    "deltaTime": 3,
                    "type": "channel",
                    "subtype": "noteOff",
                    "channel": 7,
                    "noteNumber": 55,
                    "velocity": 0,
                    "lightChannels": [
                        4
                    ]
                }
            }
        }
    },
    {
        "changes": {
            "top-right": 0
        },
        "timeout": 0.04237283333333333,
        "raw": {
            "top-right": {
                "pinValue": 0,
                "ticks": 16,
                "event": {
                    "deltaTime": 16,
                    "type": "channel",
                    "subtype": "noteOff",
                    "channel": 8,
                    "noteNumber": 55,
                    "velocity": 0,
                    "lightChannels": [
                        1
                    ]
                }
            }
        }
    },
    {
        "changes": {
            "col-3": 1
        },
        "timeout": 0.050847399999999994,
        "raw": {
            "col-3": {
                "pinValue": 1,
                "ticks": 48,
                "event": {
                    "deltaTime": 48,
                    "type": "channel",
                    "subtype": "noteOn",
                    "channel": 7,
                    "noteNumber": 58,
                    "velocity": 106,
                    "lightChannels": [
                        5
                    ]
                }
            }
        }
    },
    {
        "changes": {
            "window": 1,
            "outline": 1
        },
        "timeout": 0.01694913333333333,
        "raw": {
            "window": {
                "pinValue": 1,
                "ticks": 7,
                "event": {
                    "deltaTime": 7,
                    "type": "channel",
                    "subtype": "noteOn",
                    "channel": 9,
                    "noteNumber": 51,
                    "velocity": 85,
                    "lightChannels": [
                        6,
                        7
                    ]
                }
            },
            "outline": {
                "pinValue": 1,
                "ticks": 7,
                "event": {
                    "deltaTime": 7,
                    "type": "channel",
                    "subtype": "noteOn",
                    "channel": 9,
                    "noteNumber": 51,
                    "velocity": 85,
                    "lightChannels": [
                        6,
                        7
                    ]
                }
            }
        }
    },
    {
        "changes": {
            "bottom-right": 1
        },
        "timeout": 0.0158898125,
        "raw": {
            "bottom-right": {
                "pinValue": 1,
                "ticks": 0,
                "event": {
                    "deltaTime": 0,
                    "type": "channel",
                    "subtype": "noteOn",
                    "channel": 8,
                    "noteNumber": 58,
                    "velocity": 118,
                    "lightChannels": [
                        2
                    ]
                }
            }
        }
    },
    {
        "changes": {
            "window": 0,
            "outline": 0
        },
        "timeout": 0.041313512499999996,
        "raw": {
            "window": {
                "pinValue": 0,
                "ticks": 12,
                "event": {
                    "deltaTime": 12,
                    "type": "channel",
                    "subtype": "noteOff",
                    "channel": 9,
                    "noteNumber": 51,
                    "velocity": 0,
                    "lightChannels": [
                        6,
                        7
                    ]
                }
            },
            "outline": {
                "pinValue": 0,
                "ticks": 12,
                "event": {
                    "deltaTime": 12,
                    "type": "channel",
                    "subtype": "noteOff",
                    "channel": 9,
                    "noteNumber": 51,
                    "velocity": 0,
                    "lightChannels": [
                        6,
                        7
                    ]
                }
            }
        }
    },
    {
        "changes": {
            "window": 1,
            "outline": 1
        },
        "timeout": 0.19067774999999998,
        "raw": {
            "window": {
                "pinValue": 1,
                "ticks": 15,
                "event": {
                    "deltaTime": 15,
                    "type": "channel",
                    "subtype": "noteOn",
                    "channel": 9,
                    "noteNumber": 51,
                    "velocity": 77,
                    "lightChannels": [
                        6,
                        7
                    ]
                }
            },
            "outline": {
                "pinValue": 1,
                "ticks": 15,
                "event": {
                    "deltaTime": 15,
                    "type": "channel",
                    "subtype": "noteOn",
                    "channel": 9,
                    "noteNumber": 51,
                    "velocity": 77,
                    "lightChannels": [
                        6,
                        7
                    ]
                }
            }
        }
    },
    {
        "changes": {
            "window": 0,
            "outline": 0
        },
        "timeout": 0.058262645833333335,
        "raw": {
            "window": {
                "pinValue": 0,
                "ticks": 8,
                "event": {
                    "deltaTime": 8,
                    "type": "channel",
                    "subtype": "noteOff",
                    "channel": 9,
                    "noteNumber": 51,
                    "velocity": 0,
                    "lightChannels": [
                        6,
                        7
                    ]
                }
            },
            "outline": {
                "pinValue": 0,
                "ticks": 8,
                "event": {
                    "deltaTime": 8,
                    "type": "channel",
                    "subtype": "noteOff",
                    "channel": 9,
                    "noteNumber": 51,
                    "velocity": 0,
                    "lightChannels": [
                        6,
                        7
                    ]
                }
            }
        }
    },
    {
        "changes": {
            "col-3": 0
        },
        "timeout": 0.1122880083333333,
        "raw": {
            "col-3": {
                "pinValue": 0,
                "ticks": 22,
                "event": {
                    "deltaTime": 22,
                    "type": "channel",
                    "subtype": "noteOff",
                    "channel": 7,
                    "noteNumber": 58,
                    "velocity": 0,
                    "lightChannels": [
                        5
                    ]
                }
            }
        }
    },
    {
        "changes": {
            "bottom-right": 0
        },
        "timeout": 0.022245737499999994,
        "raw": {
            "bottom-right": {
                "pinValue": 0,
                "ticks": 7,
                "event": {
                    "deltaTime": 7,
                    "type": "channel",
                    "subtype": "noteOff",
                    "channel": 8,
                    "noteNumber": 58,
                    "velocity": 0,
                    "lightChannels": [
                        2
                    ]
                }
            }
        }
    },
    {
        "changes": {
            "garden": 1
        },
        "timeout": 0.05720332499999999,
        "raw": {
            "garden": {
                "pinValue": 1,
                "ticks": 54,
                "event": {
                    "deltaTime": 54,
                    "type": "channel",
                    "subtype": "noteOn",
                    "channel": 7,
                    "noteNumber": 57,
                    "velocity": 109,
                    "lightChannels": [
                        8
                    ]
                }
            }
        }
    },
    {
        "changes": {
            "window": 1,
            "outline": 1
        },
        "timeout": 0.006355924999999999,
        "raw": {
            "window": {
                "pinValue": 1,
                "ticks": 6,
                "event": {
                    "deltaTime": 6,
                    "type": "channel",
                    "subtype": "noteOn",
                    "channel": 9,
                    "noteNumber": 51,
                    "velocity": 91,
                    "lightChannels": [
                        6,
                        7
                    ]
                }
            },
            "outline": {
                "pinValue": 1,
                "ticks": 6,
                "event": {
                    "deltaTime": 6,
                    "type": "channel",
                    "subtype": "noteOn",
                    "channel": 9,
                    "noteNumber": 51,
                    "velocity": 91,
                    "lightChannels": [
                        6,
                        7
                    ]
                }
            }
        }
    },
    {
        "changes": {
            "garage": 1,
            "top-right": 1,
            "bottom-right": 1
        },
        "timeout": 0.0031779624999999996,
        "raw": {
            "garage": {
                "pinValue": 1,
                "ticks": 2,
                "event": {
                    "deltaTime": 2,
                    "type": "channel",
                    "subtype": "noteOn",
                    "channel": 8,
                    "noteNumber": 57,
                    "velocity": 116,
                    "lightChannels": [
                        0,
                        1,
                        2
                    ]
                }
            },
            "top-right": {
                "pinValue": 1,
                "ticks": 2,
                "event": {
                    "deltaTime": 2,
                    "type": "channel",
                    "subtype": "noteOn",
                    "channel": 8,
                    "noteNumber": 57,
                    "velocity": 116,
                    "lightChannels": [
                        0,
                        1,
                        2
                    ]
                }
            },
            "bottom-right": {
                "pinValue": 1,
                "ticks": 2,
                "event": {
                    "deltaTime": 2,
                    "type": "channel",
                    "subtype": "noteOn",
                    "channel": 8,
                    "noteNumber": 57,
                    "velocity": 116,
                    "lightChannels": [
                        0,
                        1,
                        2
                    ]
                }
            }
        }
    },
    {
        "changes": {
            "window": 0,
            "outline": 0
        },
        "timeout": 0.06249992916666666,
        "raw": {
            "window": {
                "pinValue": 0,
                "ticks": 24,
                "event": {
                    "deltaTime": 24,
                    "type": "channel",
                    "subtype": "noteOff",
                    "channel": 9,
                    "noteNumber": 51,
                    "velocity": 0,
                    "lightChannels": [
                        6,
                        7
                    ]
                }
            },
            "outline": {
                "pinValue": 0,
                "ticks": 24,
                "event": {
                    "deltaTime": 24,
                    "type": "channel",
                    "subtype": "noteOff",
                    "channel": 9,
                    "noteNumber": 51,
                    "velocity": 0,
                    "lightChannels": [
                        6,
                        7
                    ]
                }
            }
        }
    },
    {
        "changes": {
            "window": 1,
            "outline": 1
        },
        "timeout": 0.1991523166666666,
        "raw": {
            "window": {
                "pinValue": 1,
                "ticks": 2,
                "event": {
                    "deltaTime": 2,
                    "type": "channel",
                    "subtype": "noteOn",
                    "channel": 9,
                    "noteNumber": 51,
                    "velocity": 85,
                    "lightChannels": [
                        6,
                        7
                    ]
                }
            },
            "outline": {
                "pinValue": 1,
                "ticks": 2,
                "event": {
                    "deltaTime": 2,
                    "type": "channel",
                    "subtype": "noteOn",
                    "channel": 9,
                    "noteNumber": 51,
                    "velocity": 85,
                    "lightChannels": [
                        6,
                        7
                    ]
                }
            }
        }
    },
    {
        "changes": {
            "window": 0,
            "outline": 0
        },
        "timeout": 0.05084739999999999,
        "raw": {
            "window": {
                "pinValue": 0,
                "ticks": 2,
                "event": {
                    "deltaTime": 2,
                    "type": "channel",
                    "subtype": "noteOff",
                    "channel": 9,
                    "noteNumber": 51,
                    "velocity": 0,
                    "lightChannels": [
                        6,
                        7
                    ]
                }
            },
            "outline": {
                "pinValue": 0,
                "ticks": 2,
                "event": {
                    "deltaTime": 2,
                    "type": "channel",
                    "subtype": "noteOff",
                    "channel": 9,
                    "noteNumber": 51,
                    "velocity": 0,
                    "lightChannels": [
                        6,
                        7
                    ]
                }
            }
        }
    },
    {
        "changes": {
            "garage": 0,
            "top-right": 0,
            "bottom-right": 0
        },
        "timeout": 0.03177962499999999,
        "raw": {
            "garage": {
                "pinValue": 0,
                "ticks": 8,
                "event": {
                    "deltaTime": 8,
                    "type": "channel",
                    "subtype": "noteOff",
                    "channel": 8,
                    "noteNumber": 57,
                    "velocity": 0,
                    "lightChannels": [
                        0,
                        1,
                        2
                    ]
                }
            },
            "top-right": {
                "pinValue": 0,
                "ticks": 8,
                "event": {
                    "deltaTime": 8,
                    "type": "channel",
                    "subtype": "noteOff",
                    "channel": 8,
                    "noteNumber": 57,
                    "velocity": 0,
                    "lightChannels": [
                        0,
                        1,
                        2
                    ]
                }
            },
            "bottom-right": {
                "pinValue": 0,
                "ticks": 8,
                "event": {
                    "deltaTime": 8,
                    "type": "channel",
                    "subtype": "noteOff",
                    "channel": 8,
                    "noteNumber": 57,
                    "velocity": 0,
                    "lightChannels": [
                        0,
                        1,
                        2
                    ]
                }
            }
        }
    },
    {
        "changes": {
            "garden": 0
        },
        "timeout": 0.0349575875,
        "raw": {
            "garden": {
                "pinValue": 0,
                "ticks": 1,
                "event": {
                    "deltaTime": 1,
                    "type": "channel",
                    "subtype": "noteOff",
                    "channel": 7,
                    "noteNumber": 57,
                    "velocity": 0,
                    "lightChannels": [
                        8
                    ]
                }
            }
        }
    },
    {
        "changes": {
            "window": 1,
            "outline": 1
        },
        "timeout": 0.14512695416666663,
        "raw": {
            "window": {
                "pinValue": 1,
                "ticks": 8,
                "event": {
                    "deltaTime": 8,
                    "type": "channel",
                    "subtype": "noteOn",
                    "channel": 9,
                    "noteNumber": 51,
                    "velocity": 87,
                    "lightChannels": [
                        6,
                        7
                    ]
                }
            },
            "outline": {
                "pinValue": 1,
                "ticks": 8,
                "event": {
                    "deltaTime": 8,
                    "type": "channel",
                    "subtype": "noteOn",
                    "channel": 9,
                    "noteNumber": 51,
                    "velocity": 87,
                    "lightChannels": [
                        6,
                        7
                    ]
                }
            }
        }
    },
    {
        "changes": {
            "window": 0,
            "outline": 0
        },
        "timeout": 0.06249992916666666,
        "raw": {
            "window": {
                "pinValue": 0,
                "ticks": 31,
                "event": {
                    "deltaTime": 31,
                    "type": "channel",
                    "subtype": "noteOff",
                    "channel": 9,
                    "noteNumber": 51,
                    "velocity": 0,
                    "lightChannels": [
                        6,
                        7
                    ]
                }
            },
            "outline": {
                "pinValue": 0,
                "ticks": 31,
                "event": {
                    "deltaTime": 31,
                    "type": "channel",
                    "subtype": "noteOff",
                    "channel": 9,
                    "noteNumber": 51,
                    "velocity": 0,
                    "lightChannels": [
                        6,
                        7
                    ]
                }
            }
        }
    },
    {
        "changes": {
            "window": 1,
            "outline": 1
        },
        "timeout": 0.1917370708333333,
        "raw": {
            "window": {
                "pinValue": 1,
                "ticks": 9,
                "event": {
                    "deltaTime": 9,
                    "type": "channel",
                    "subtype": "noteOn",
                    "channel": 9,
                    "noteNumber": 51,
                    "velocity": 84,
                    "lightChannels": [
                        6,
                        7
                    ]
                }
            },
            "outline": {
                "pinValue": 1,
                "ticks": 9,
                "event": {
                    "deltaTime": 9,
                    "type": "channel",
                    "subtype": "noteOn",
                    "channel": 9,
                    "noteNumber": 51,
                    "velocity": 84,
                    "lightChannels": [
                        6,
                        7
                    ]
                }
            }
        }
    },
    {
        "changes": {
            "window": 0,
            "outline": 0
        },
        "timeout": 0.05826264583333333,
        "raw": {
            "window": {
                "pinValue": 0,
                "ticks": 0,
                "event": {
                    "deltaTime": 0,
                    "type": "channel",
                    "subtype": "noteOff",
                    "channel": 9,
                    "noteNumber": 51,
                    "velocity": 0,
                    "lightChannels": [
                        6,
                        7
                    ]
                }
            },
            "outline": {
                "pinValue": 0,
                "ticks": 0,
                "event": {
                    "deltaTime": 0,
                    "type": "channel",
                    "subtype": "noteOff",
                    "channel": 9,
                    "noteNumber": 51,
                    "velocity": 0,
                    "lightChannels": [
                        6,
                        7
                    ]
                }
            }
        }
    },
    {
        "changes": {
            "window": 1,
            "outline": 1
        },
        "timeout": 0.19915231666666663,
        "raw": {
            "window": {
                "pinValue": 1,
                "ticks": 9,
                "event": {
                    "deltaTime": 9,
                    "type": "channel",
                    "subtype": "noteOn",
                    "channel": 9,
                    "noteNumber": 51,
                    "velocity": 87,
                    "lightChannels": [
                        6,
                        7
                    ]
                }
            },
            "outline": {
                "pinValue": 1,
                "ticks": 9,
                "event": {
                    "deltaTime": 9,
                    "type": "channel",
                    "subtype": "noteOn",
                    "channel": 9,
                    "noteNumber": 51,
                    "velocity": 87,
                    "lightChannels": [
                        6,
                        7
                    ]
                }
            }
        }
    },
    {
        "changes": {
            "window": 0,
            "outline": 0
        },
        "timeout": 0.062499929166666655,
        "raw": {
            "window": {
                "pinValue": 0,
                "ticks": 44,
                "event": {
                    "deltaTime": 44,
                    "type": "channel",
                    "subtype": "noteOff",
                    "channel": 9,
                    "noteNumber": 51,
                    "velocity": 0,
                    "lightChannels": [
                        6,
                        7
                    ]
                }
            },
            "outline": {
                "pinValue": 0,
                "ticks": 44,
                "event": {
                    "deltaTime": 44,
                    "type": "channel",
                    "subtype": "noteOff",
                    "channel": 9,
                    "noteNumber": 51,
                    "velocity": 0,
                    "lightChannels": [
                        6,
                        7
                    ]
                }
            }
        }
    },
    {
        "changes": {
            "window": 1,
            "outline": 1
        },
        "timeout": 0.20233027916666668,
        "raw": {
            "window": {
                "pinValue": 1,
                "ticks": 2,
                "event": {
                    "deltaTime": 2,
                    "type": "channel",
                    "subtype": "noteOn",
                    "channel": 9,
                    "noteNumber": 51,
                    "velocity": 88,
                    "lightChannels": [
                        6,
                        7
                    ]
                }
            },
            "outline": {
                "pinValue": 1,
                "ticks": 2,
                "event": {
                    "deltaTime": 2,
                    "type": "channel",
                    "subtype": "noteOn",
                    "channel": 9,
                    "noteNumber": 51,
                    "velocity": 88,
                    "lightChannels": [
                        6,
                        7
                    ]
                }
            }
        }
    },
    {
        "changes": {
            "window": 0,
            "outline": 0
        },
        "timeout": 0.06144060833333333,
        "raw": {
            "window": {
                "pinValue": 0,
                "ticks": 1,
                "event": {
                    "deltaTime": 1,
                    "type": "channel",
                    "subtype": "noteOff",
                    "channel": 9,
                    "noteNumber": 51,
                    "velocity": 0,
                    "lightChannels": [
                        6,
                        7
                    ]
                }
            },
            "outline": {
                "pinValue": 0,
                "ticks": 1,
                "event": {
                    "deltaTime": 1,
                    "type": "channel",
                    "subtype": "noteOff",
                    "channel": 9,
                    "noteNumber": 51,
                    "velocity": 0,
                    "lightChannels": [
                        6,
                        7
                    ]
                }
            }
        }
    },
    {
        "changes": {
            "window": 1,
            "outline": 1
        },
        "timeout": 0.18538114583333332,
        "raw": {
            "window": {
                "pinValue": 1,
                "ticks": 3,
                "event": {
                    "deltaTime": 3,
                    "type": "channel",
                    "subtype": "noteOn",
                    "channel": 9,
                    "noteNumber": 51,
                    "velocity": 90,
                    "lightChannels": [
                        6,
                        7
                    ]
                }
            },
            "outline": {
                "pinValue": 1,
                "ticks": 3,
                "event": {
                    "deltaTime": 3,
                    "type": "channel",
                    "subtype": "noteOn",
                    "channel": 9,
                    "noteNumber": 51,
                    "velocity": 90,
                    "lightChannels": [
                        6,
                        7
                    ]
                }
            }
        }
    },
    {
        "changes": {
            "window": 0,
            "outline": 0
        },
        "timeout": 0.06461857083333333,
        "raw": {
            "window": {
                "pinValue": 0,
                "ticks": 20,
                "event": {
                    "deltaTime": 20,
                    "type": "channel",
                    "subtype": "noteOff",
                    "channel": 9,
                    "noteNumber": 51,
                    "velocity": 0,
                    "lightChannels": [
                        6,
                        7
                    ]
                }
            },
            "outline": {
                "pinValue": 0,
                "ticks": 20,
                "event": {
                    "deltaTime": 20,
                    "type": "channel",
                    "subtype": "noteOff",
                    "channel": 9,
                    "noteNumber": 51,
                    "velocity": 0,
                    "lightChannels": [
                        6,
                        7
                    ]
                }
            }
        }
    },
    {
        "changes": {
            "window": 1,
            "outline": 1
        },
        "timeout": 0.19385571249999994,
        "raw": {
            "window": {
                "pinValue": 1,
                "ticks": 1,
                "event": {
                    "deltaTime": 1,
                    "type": "channel",
                    "subtype": "noteOn",
                    "channel": 9,
                    "noteNumber": 51,
                    "velocity": 88,
                    "lightChannels": [
                        6,
                        7
                    ]
                }
            },
            "outline": {
                "pinValue": 1,
                "ticks": 1,
                "event": {
                    "deltaTime": 1,
                    "type": "channel",
                    "subtype": "noteOn",
                    "channel": 9,
                    "noteNumber": 51,
                    "velocity": 88,
                    "lightChannels": [
                        6,
                        7
                    ]
                }
            }
        }
    },
    {
        "changes": {
            "window": 0,
            "outline": 0
        },
        "timeout": 0.06673721249999999,
        "raw": {
            "window": {
                "pinValue": 0,
                "ticks": 8,
                "event": {
                    "deltaTime": 8,
                    "type": "channel",
                    "subtype": "noteOff",
                    "channel": 9,
                    "noteNumber": 51,
                    "velocity": 0,
                    "lightChannels": [
                        6,
                        7
                    ]
                }
            },
            "outline": {
                "pinValue": 0,
                "ticks": 8,
                "event": {
                    "deltaTime": 8,
                    "type": "channel",
                    "subtype": "noteOff",
                    "channel": 9,
                    "noteNumber": 51,
                    "velocity": 0,
                    "lightChannels": [
                        6,
                        7
                    ]
                }
            }
        }
    },
    {
        "changes": {
            "window": 1,
            "outline": 1
        },
        "timeout": 0.18220318333333335,
        "raw": {
            "window": {
                "pinValue": 1,
                "ticks": 9,
                "event": {
                    "deltaTime": 9,
                    "type": "channel",
                    "subtype": "noteOn",
                    "channel": 9,
                    "noteNumber": 51,
                    "velocity": 87,
                    "lightChannels": [
                        6,
                        7
                    ]
                }
            },
            "outline": {
                "pinValue": 1,
                "ticks": 9,
                "event": {
                    "deltaTime": 9,
                    "type": "channel",
                    "subtype": "noteOn",
                    "channel": 9,
                    "noteNumber": 51,
                    "velocity": 87,
                    "lightChannels": [
                        6,
                        7
                    ]
                }
            }
        }
    },
    {
        "changes": {
            "window": 0,
            "outline": 0
        },
        "timeout": 0.06144060833333333,
        "raw": {
            "window": {
                "pinValue": 0,
                "ticks": 27,
                "event": {
                    "deltaTime": 27,
                    "type": "channel",
                    "subtype": "noteOff",
                    "channel": 9,
                    "noteNumber": 51,
                    "velocity": 0,
                    "lightChannels": [
                        6,
                        7
                    ]
                }
            },
            "outline": {
                "pinValue": 0,
                "ticks": 27,
                "event": {
                    "deltaTime": 27,
                    "type": "channel",
                    "subtype": "noteOff",
                    "channel": 9,
                    "noteNumber": 51,
                    "velocity": 0,
                    "lightChannels": [
                        6,
                        7
                    ]
                }
            }
        }
    },
    {
        "changes": {
            "window": 1,
            "outline": 1
        },
        "timeout": 0.18644046666666664,
        "raw": {
            "window": {
                "pinValue": 1,
                "ticks": 0,
                "event": {
                    "deltaTime": 0,
                    "type": "channel",
                    "subtype": "noteOn",
                    "channel": 9,
                    "noteNumber": 51,
                    "velocity": 87,
                    "lightChannels": [
                        6,
                        7
                    ]
                }
            },
            "outline": {
                "pinValue": 1,
                "ticks": 0,
                "event": {
                    "deltaTime": 0,
                    "type": "channel",
                    "subtype": "noteOn",
                    "channel": 9,
                    "noteNumber": 51,
                    "velocity": 87,
                    "lightChannels": [
                        6,
                        7
                    ]
                }
            }
        }
    },
    {
        "changes": {
            "window": 0,
            "outline": 0
        },
        "timeout": 0.057203325,
        "raw": {
            "window": {
                "pinValue": 0,
                "ticks": 14,
                "event": {
                    "deltaTime": 14,
                    "type": "channel",
                    "subtype": "noteOff",
                    "channel": 9,
                    "noteNumber": 51,
                    "velocity": 0,
                    "lightChannels": [
                        6,
                        7
                    ]
                }
            },
            "outline": {
                "pinValue": 0,
                "ticks": 14,
                "event": {
                    "deltaTime": 14,
                    "type": "channel",
                    "subtype": "noteOff",
                    "channel": 9,
                    "noteNumber": 51,
                    "velocity": 0,
                    "lightChannels": [
                        6,
                        7
                    ]
                }
            }
        }
    },
    {
        "changes": {
            "window": 1,
            "outline": 1
        },
        "timeout": 0.19067774999999998,
        "raw": {
            "window": {
                "pinValue": 1,
                "ticks": 2,
                "event": {
                    "deltaTime": 2,
                    "type": "channel",
                    "subtype": "noteOn",
                    "channel": 9,
                    "noteNumber": 51,
                    "velocity": 88,
                    "lightChannels": [
                        6,
                        7
                    ]
                }
            },
            "outline": {
                "pinValue": 1,
                "ticks": 2,
                "event": {
                    "deltaTime": 2,
                    "type": "channel",
                    "subtype": "noteOn",
                    "channel": 9,
                    "noteNumber": 51,
                    "velocity": 88,
                    "lightChannels": [
                        6,
                        7
                    ]
                }
            }
        }
    },
    {
        "changes": {
            "garage": 1
        },
        "timeout": 0.007415245833333332,
        "raw": {
            "garage": {
                "pinValue": 1,
                "ticks": 4,
                "event": {
                    "deltaTime": 4,
                    "type": "channel",
                    "subtype": "noteOn",
                    "channel": 8,
                    "noteNumber": 57,
                    "velocity": 126,
                    "lightChannels": [
                        0
                    ]
                }
            }
        }
    },
    {
        "changes": {
            "col-1": 1
        },
        "timeout": 0.006355924999999999,
        "raw": {
            "col-1": {
                "pinValue": 1,
                "ticks": 6,
                "event": {
                    "deltaTime": 6,
                    "type": "channel",
                    "subtype": "noteOn",
                    "channel": 7,
                    "noteNumber": 57,
                    "velocity": 113,
                    "lightChannels": [
                        3
                    ]
                }
            }
        }
    },
    {
        "changes": {
            "window": 0,
            "outline": 0
        },
        "timeout": 0.04025419166666666,
        "raw": {
            "window": {
                "pinValue": 0,
                "ticks": 38,
                "event": {
                    "deltaTime": 38,
                    "type": "channel",
                    "subtype": "noteOff",
                    "channel": 9,
                    "noteNumber": 51,
                    "velocity": 0,
                    "lightChannels": [
                        6,
                        7
                    ]
                }
            },
            "outline": {
                "pinValue": 0,
                "ticks": 38,
                "event": {
                    "deltaTime": 38,
                    "type": "channel",
                    "subtype": "noteOff",
                    "channel": 9,
                    "noteNumber": 51,
                    "velocity": 0,
                    "lightChannels": [
                        6,
                        7
                    ]
                }
            }
        }
    },
    {
        "changes": {
            "window": 1,
            "outline": 1
        },
        "timeout": 0.1927963916666666,
        "raw": {
            "window": {
                "pinValue": 1,
                "ticks": 1,
                "event": {
                    "deltaTime": 1,
                    "type": "channel",
                    "subtype": "noteOn",
                    "channel": 9,
                    "noteNumber": 51,
                    "velocity": 95,
                    "lightChannels": [
                        6,
                        7
                    ]
                }
            },
            "outline": {
                "pinValue": 1,
                "ticks": 1,
                "event": {
                    "deltaTime": 1,
                    "type": "channel",
                    "subtype": "noteOn",
                    "channel": 9,
                    "noteNumber": 51,
                    "velocity": 95,
                    "lightChannels": [
                        6,
                        7
                    ]
                }
            }
        }
    },
    {
        "changes": {
            "window": 0,
            "outline": 0
        },
        "timeout": 0.05402536249999999,
        "raw": {
            "window": {
                "pinValue": 0,
                "ticks": 0,
                "event": {
                    "deltaTime": 0,
                    "type": "channel",
                    "subtype": "noteOff",
                    "channel": 9,
                    "noteNumber": 51,
                    "velocity": 0,
                    "lightChannels": [
                        6,
                        7
                    ]
                }
            },
            "outline": {
                "pinValue": 0,
                "ticks": 0,
                "event": {
                    "deltaTime": 0,
                    "type": "channel",
                    "subtype": "noteOff",
                    "channel": 9,
                    "noteNumber": 51,
                    "velocity": 0,
                    "lightChannels": [
                        6,
                        7
                    ]
                }
            }
        }
    },
    {
        "changes": {
            "garage": 0
        },
        "timeout": 0.12923714166666664,
        "raw": {
            "garage": {
                "pinValue": 0,
                "ticks": 0,
                "event": {
                    "deltaTime": 0,
                    "type": "channel",
                    "subtype": "noteOff",
                    "channel": 8,
                    "noteNumber": 57,
                    "velocity": 0,
                    "lightChannels": [
                        0
                    ]
                }
            }
        }
    },
    {
        "changes": {
            "col-1": 0
        },
        "timeout": 0.0031779624999999996,
        "raw": {
            "col-1": {
                "pinValue": 0,
                "ticks": 3,
                "event": {
                    "deltaTime": 3,
                    "type": "channel",
                    "subtype": "noteOff",
                    "channel": 7,
                    "noteNumber": 57,
                    "velocity": 0,
                    "lightChannels": [
                        3
                    ]
                }
            }
        }
    },
    {
        "changes": {
            "window": 1,
            "outline": 1
        },
        "timeout": 0.06144060833333333,
        "raw": {
            "window": {
                "pinValue": 1,
                "ticks": 1,
                "event": {
                    "deltaTime": 1,
                    "type": "channel",
                    "subtype": "noteOn",
                    "channel": 9,
                    "noteNumber": 51,
                    "velocity": 96,
                    "lightChannels": [
                        6,
                        7
                    ]
                }
            },
            "outline": {
                "pinValue": 1,
                "ticks": 1,
                "event": {
                    "deltaTime": 1,
                    "type": "channel",
                    "subtype": "noteOn",
                    "channel": 9,
                    "noteNumber": 51,
                    "velocity": 96,
                    "lightChannels": [
                        6,
                        7
                    ]
                }
            }
        }
    },
    {
        "changes": {
            "col-2": 1
        },
        "timeout": 0.02648302083333333,
        "raw": {
            "col-2": {
                "pinValue": 1,
                "ticks": 1,
                "event": {
                    "deltaTime": 1,
                    "type": "channel",
                    "subtype": "noteOn",
                    "channel": 7,
                    "noteNumber": 55,
                    "velocity": 111,
                    "lightChannels": [
                        4
                    ]
                }
            }
        }
    },
    {
        "changes": {
            "top-right": 1
        },
        "timeout": 0.0052966041666666665,
        "raw": {
            "top-right": {
                "pinValue": 1,
                "ticks": 5,
                "event": {
                    "deltaTime": 5,
                    "type": "channel",
                    "subtype": "noteOn",
                    "channel": 8,
                    "noteNumber": 55,
                    "velocity": 127,
                    "lightChannels": [
                        1
                    ]
                }
            }
        }
    },
    {
        "changes": {
            "window": 0,
            "outline": 0
        },
        "timeout": 0.027542341666666664,
        "raw": {
            "window": {
                "pinValue": 0,
                "ticks": 26,
                "event": {
                    "deltaTime": 26,
                    "type": "channel",
                    "subtype": "noteOff",
                    "channel": 9,
                    "noteNumber": 51,
                    "velocity": 0,
                    "lightChannels": [
                        6,
                        7
                    ]
                }
            },
            "outline": {
                "pinValue": 0,
                "ticks": 26,
                "event": {
                    "deltaTime": 26,
                    "type": "channel",
                    "subtype": "noteOff",
                    "channel": 9,
                    "noteNumber": 51,
                    "velocity": 0,
                    "lightChannels": [
                        6,
                        7
                    ]
                }
            }
        }
    },
    {
        "changes": {
            "window": 1,
            "outline": 1
        },
        "timeout": 0.20550824166666665,
        "raw": {
            "window": {
                "pinValue": 1,
                "ticks": 3,
                "event": {
                    "deltaTime": 3,
                    "type": "channel",
                    "subtype": "noteOn",
                    "channel": 9,
                    "noteNumber": 51,
                    "velocity": 96,
                    "lightChannels": [
                        6,
                        7
                    ]
                }
            },
            "outline": {
                "pinValue": 1,
                "ticks": 3,
                "event": {
                    "deltaTime": 3,
                    "type": "channel",
                    "subtype": "noteOn",
                    "channel": 9,
                    "noteNumber": 51,
                    "velocity": 96,
                    "lightChannels": [
                        6,
                        7
                    ]
                }
            }
        }
    },
    {
        "changes": {
            "window": 0,
            "outline": 0
        },
        "timeout": 0.05508468333333332,
        "raw": {
            "window": {
                "pinValue": 0,
                "ticks": 2,
                "event": {
                    "deltaTime": 2,
                    "type": "channel",
                    "subtype": "noteOff",
                    "channel": 9,
                    "noteNumber": 51,
                    "velocity": 0,
                    "lightChannels": [
                        6,
                        7
                    ]
                }
            },
            "outline": {
                "pinValue": 0,
                "ticks": 2,
                "event": {
                    "deltaTime": 2,
                    "type": "channel",
                    "subtype": "noteOff",
                    "channel": 9,
                    "noteNumber": 51,
                    "velocity": 0,
                    "lightChannels": [
                        6,
                        7
                    ]
                }
            }
        }
    },
    {
        "changes": {
            "col-2": 0
        },
        "timeout": 0.11652529166666664,
        "raw": {
            "col-2": {
                "pinValue": 0,
                "ticks": 23,
                "event": {
                    "deltaTime": 23,
                    "type": "channel",
                    "subtype": "noteOff",
                    "channel": 7,
                    "noteNumber": 55,
                    "velocity": 0,
                    "lightChannels": [
                        4
                    ]
                }
            }
        }
    },
    {
        "changes": {
            "top-right": 0
        },
        "timeout": 0.004237283333333333,
        "raw": {
            "top-right": {
                "pinValue": 0,
                "ticks": 4,
                "event": {
                    "deltaTime": 4,
                    "type": "channel",
                    "subtype": "noteOff",
                    "channel": 8,
                    "noteNumber": 55,
                    "velocity": 0,
                    "lightChannels": [
                        1
                    ]
                }
            }
        }
    },
    {
        "changes": {
            "window": 1,
            "outline": 1
        },
        "timeout": 0.07733042083333333,
        "raw": {
            "window": {
                "pinValue": 1,
                "ticks": 2,
                "event": {
                    "deltaTime": 2,
                    "type": "channel",
                    "subtype": "noteOn",
                    "channel": 9,
                    "noteNumber": 51,
                    "velocity": 98,
                    "lightChannels": [
                        6,
                        7
                    ]
                }
            },
            "outline": {
                "pinValue": 1,
                "ticks": 2,
                "event": {
                    "deltaTime": 2,
                    "type": "channel",
                    "subtype": "noteOn",
                    "channel": 9,
                    "noteNumber": 51,
                    "velocity": 98,
                    "lightChannels": [
                        6,
                        7
                    ]
                }
            }
        }
    },
    {
        "changes": {
            "bottom-right": 1
        },
        "timeout": 0.021186416666666666,
        "raw": {
            "bottom-right": {
                "pinValue": 1,
                "ticks": 5,
                "event": {
                    "deltaTime": 5,
                    "type": "channel",
                    "subtype": "noteOn",
                    "channel": 8,
                    "noteNumber": 58,
                    "velocity": 118,
                    "lightChannels": [
                        2
                    ]
                }
            }
        }
    },
    {
        "changes": {
            "col-3": 1
        },
        "timeout": 0.0031779624999999996,
        "raw": {
            "col-3": {
                "pinValue": 1,
                "ticks": 2,
                "event": {
                    "deltaTime": 2,
                    "type": "channel",
                    "subtype": "noteOn",
                    "channel": 7,
                    "noteNumber": 58,
                    "velocity": 110,
                    "lightChannels": [
                        5
                    ]
                }
            }
        }
    },
    {
        "changes": {
            "window": 0,
            "outline": 0
        },
        "timeout": 0.02754234166666666,
        "raw": {
            "window": {
                "pinValue": 0,
                "ticks": 25,
                "event": {
                    "deltaTime": 25,
                    "type": "channel",
                    "subtype": "noteOff",
                    "channel": 9,
                    "noteNumber": 51,
                    "velocity": 0,
                    "lightChannels": [
                        6,
                        7
                    ]
                }
            },
            "outline": {
                "pinValue": 0,
                "ticks": 25,
                "event": {
                    "deltaTime": 25,
                    "type": "channel",
                    "subtype": "noteOff",
                    "channel": 9,
                    "noteNumber": 51,
                    "velocity": 0,
                    "lightChannels": [
                        6,
                        7
                    ]
                }
            }
        }
    },
    {
        "changes": {
            "window": 1,
            "outline": 1
        },
        "timeout": 0.20550824166666665,
        "raw": {
            "window": {
                "pinValue": 1,
                "ticks": 10,
                "event": {
                    "deltaTime": 10,
                    "type": "channel",
                    "subtype": "noteOn",
                    "channel": 9,
                    "noteNumber": 51,
                    "velocity": 87,
                    "lightChannels": [
                        6,
                        7
                    ]
                }
            },
            "outline": {
                "pinValue": 1,
                "ticks": 10,
                "event": {
                    "deltaTime": 10,
                    "type": "channel",
                    "subtype": "noteOn",
                    "channel": 9,
                    "noteNumber": 51,
                    "velocity": 87,
                    "lightChannels": [
                        6,
                        7
                    ]
                }
            }
        }
    },
    {
        "changes": {
            "window": 0,
            "outline": 0
        },
        "timeout": 0.05084739999999999,
        "raw": {
            "window": {
                "pinValue": 0,
                "ticks": 2,
                "event": {
                    "deltaTime": 2,
                    "type": "channel",
                    "subtype": "noteOff",
                    "channel": 9,
                    "noteNumber": 51,
                    "velocity": 0,
                    "lightChannels": [
                        6,
                        7
                    ]
                }
            },
            "outline": {
                "pinValue": 0,
                "ticks": 2,
                "event": {
                    "deltaTime": 2,
                    "type": "channel",
                    "subtype": "noteOff",
                    "channel": 9,
                    "noteNumber": 51,
                    "velocity": 0,
                    "lightChannels": [
                        6,
                        7
                    ]
                }
            }
        }
    },
    {
        "changes": {
            "col-3": 0
        },
        "timeout": 0.11652529166666664,
        "raw": {
            "col-3": {
                "pinValue": 0,
                "ticks": 11,
                "event": {
                    "deltaTime": 11,
                    "type": "channel",
                    "subtype": "noteOff",
                    "channel": 7,
                    "noteNumber": 58,
                    "velocity": 0,
                    "lightChannels": [
                        5
                    ]
                }
            }
        }
    },
    {
        "changes": {
            "bottom-right": 0
        },
        "timeout": 0.012711849999999998,
        "raw": {
            "bottom-right": {
                "pinValue": 0,
                "ticks": 11,
                "event": {
                    "deltaTime": 11,
                    "type": "channel",
                    "subtype": "noteOff",
                    "channel": 8,
                    "noteNumber": 58,
                    "velocity": 0,
                    "lightChannels": [
                        2
                    ]
                }
            }
        }
    },
    {
        "changes": {
            "garden": 1
        },
        "timeout": 0.062499929166666655,
        "raw": {
            "garden": {
                "pinValue": 1,
                "ticks": 2,
                "event": {
                    "deltaTime": 2,
                    "type": "channel",
                    "subtype": "noteOn",
                    "channel": 7,
                    "noteNumber": 57,
                    "velocity": 107,
                    "lightChannels": [
                        8
                    ]
                }
            }
        }
    },
    {
        "changes": {
            "window": 1,
            "outline": 1
        },
        "timeout": 0.014830491666666664,
        "raw": {
            "window": {
                "pinValue": 1,
                "ticks": 14,
                "event": {
                    "deltaTime": 14,
                    "type": "channel",
                    "subtype": "noteOn",
                    "channel": 9,
                    "noteNumber": 51,
                    "velocity": 91,
                    "lightChannels": [
                        6,
                        7
                    ]
                }
            },
            "outline": {
                "pinValue": 1,
                "ticks": 14,
                "event": {
                    "deltaTime": 14,
                    "type": "channel",
                    "subtype": "noteOn",
                    "channel": 9,
                    "noteNumber": 51,
                    "velocity": 91,
                    "lightChannels": [
                        6,
                        7
                    ]
                }
            }
        }
    },
    {
        "changes": {
            "garage": 1,
            "top-right": 1,
            "bottom-right": 1
        },
        "timeout": 0.0052966041666666665,
        "raw": {
            "garage": {
                "pinValue": 1,
                "ticks": 5,
                "event": {
                    "deltaTime": 5,
                    "type": "channel",
                    "subtype": "noteOn",
                    "channel": 8,
                    "noteNumber": 57,
                    "velocity": 127,
                    "lightChannels": [
                        0,
                        1,
                        2
                    ]
                }
            },
            "top-right": {
                "pinValue": 1,
                "ticks": 5,
                "event": {
                    "deltaTime": 5,
                    "type": "channel",
                    "subtype": "noteOn",
                    "channel": 8,
                    "noteNumber": 57,
                    "velocity": 127,
                    "lightChannels": [
                        0,
                        1,
                        2
                    ]
                }
            },
            "bottom-right": {
                "pinValue": 1,
                "ticks": 5,
                "event": {
                    "deltaTime": 5,
                    "type": "channel",
                    "subtype": "noteOn",
                    "channel": 8,
                    "noteNumber": 57,
                    "velocity": 127,
                    "lightChannels": [
                        0,
                        1,
                        2
                    ]
                }
            }
        }
    },
    {
        "changes": {
            "window": 0,
            "outline": 0
        },
        "timeout": 0.05402536249999999,
        "raw": {
            "window": {
                "pinValue": 0,
                "ticks": 0,
                "event": {
                    "deltaTime": 0,
                    "type": "channel",
                    "subtype": "noteOff",
                    "channel": 9,
                    "noteNumber": 51,
                    "velocity": 0,
                    "lightChannels": [
                        6,
                        7
                    ]
                }
            },
            "outline": {
                "pinValue": 0,
                "ticks": 0,
                "event": {
                    "deltaTime": 0,
                    "type": "channel",
                    "subtype": "noteOff",
                    "channel": 9,
                    "noteNumber": 51,
                    "velocity": 0,
                    "lightChannels": [
                        6,
                        7
                    ]
                }
            }
        }
    },
    {
        "changes": {
            "window": 1,
            "outline": 1
        },
        "timeout": 0.19067774999999995,
        "raw": {
            "window": {
                "pinValue": 1,
                "ticks": 3,
                "event": {
                    "deltaTime": 3,
                    "type": "channel",
                    "subtype": "noteOn",
                    "channel": 9,
                    "noteNumber": 51,
                    "velocity": 91,
                    "lightChannels": [
                        6,
                        7
                    ]
                }
            },
            "outline": {
                "pinValue": 1,
                "ticks": 3,
                "event": {
                    "deltaTime": 3,
                    "type": "channel",
                    "subtype": "noteOn",
                    "channel": 9,
                    "noteNumber": 51,
                    "velocity": 91,
                    "lightChannels": [
                        6,
                        7
                    ]
                }
            }
        }
    },
    {
        "changes": {
            "window": 0,
            "outline": 0
        },
        "timeout": 0.05190672083333332,
        "raw": {
            "window": {
                "pinValue": 0,
                "ticks": 14,
                "event": {
                    "deltaTime": 14,
                    "type": "channel",
                    "subtype": "noteOff",
                    "channel": 9,
                    "noteNumber": 51,
                    "velocity": 0,
                    "lightChannels": [
                        6,
                        7
                    ]
                }
            },
            "outline": {
                "pinValue": 0,
                "ticks": 14,
                "event": {
                    "deltaTime": 14,
                    "type": "channel",
                    "subtype": "noteOff",
                    "channel": 9,
                    "noteNumber": 51,
                    "velocity": 0,
                    "lightChannels": [
                        6,
                        7
                    ]
                }
            }
        }
    },
    {
        "changes": {
            "garage": 0,
            "top-right": 0,
            "bottom-right": 0
        },
        "timeout": 0.08156770416666667,
        "raw": {
            "garage": {
                "pinValue": 0,
                "ticks": 8,
                "event": {
                    "deltaTime": 8,
                    "type": "channel",
                    "subtype": "noteOff",
                    "channel": 8,
                    "noteNumber": 57,
                    "velocity": 0,
                    "lightChannels": [
                        0,
                        1,
                        2
                    ]
                }
            },
            "top-right": {
                "pinValue": 0,
                "ticks": 8,
                "event": {
                    "deltaTime": 8,
                    "type": "channel",
                    "subtype": "noteOff",
                    "channel": 8,
                    "noteNumber": 57,
                    "velocity": 0,
                    "lightChannels": [
                        0,
                        1,
                        2
                    ]
                }
            },
            "bottom-right": {
                "pinValue": 0,
                "ticks": 8,
                "event": {
                    "deltaTime": 8,
                    "type": "channel",
                    "subtype": "noteOff",
                    "channel": 8,
                    "noteNumber": 57,
                    "velocity": 0,
                    "lightChannels": [
                        0,
                        1,
                        2
                    ]
                }
            }
        }
    },
    {
        "changes": {
            "garden": 0
        },
        "timeout": 0.0021186416666666664,
        "raw": {
            "garden": {
                "pinValue": 0,
                "ticks": 2,
                "event": {
                    "deltaTime": 2,
                    "type": "channel",
                    "subtype": "noteOff",
                    "channel": 7,
                    "noteNumber": 57,
                    "velocity": 0,
                    "lightChannels": [
                        8
                    ]
                }
            }
        }
    },
    {
        "changes": {
            "window": 1,
            "outline": 1
        },
        "timeout": 0.12076257499999998,
        "raw": {
            "window": {
                "pinValue": 1,
                "ticks": 16,
                "event": {
                    "deltaTime": 16,
                    "type": "channel",
                    "subtype": "noteOn",
                    "channel": 9,
                    "noteNumber": 51,
                    "velocity": 85,
                    "lightChannels": [
                        6,
                        7
                    ]
                }
            },
            "outline": {
                "pinValue": 1,
                "ticks": 16,
                "event": {
                    "deltaTime": 16,
                    "type": "channel",
                    "subtype": "noteOn",
                    "channel": 9,
                    "noteNumber": 51,
                    "velocity": 85,
                    "lightChannels": [
                        6,
                        7
                    ]
                }
            }
        }
    },
    {
        "changes": {
            "garage": 1,
            "top-right": 1,
            "bottom-right": 1,
            "col-1": 1,
            "col-2": 1,
            "col-3": 1,
            "window": 1,
            "outline": 1,
            "garden": 1,
            "tree": 1
        },
        "timeout": 0.019067775,
        "raw": {
            "garage": {
                "pinValue": 1,
                "ticks": 2,
                "event": {
                    "deltaTime": 2,
                    "type": "channel",
                    "subtype": "noteOn",
                    "channel": 5,
                    "noteNumber": 70,
                    "velocity": 127,
                    "lightChannels": [
                        0,
                        1,
                        2,
                        3,
                        4,
                        5,
                        6,
                        7,
                        8,
                        9
                    ]
                }
            },
            "top-right": {
                "pinValue": 1,
                "ticks": 2,
                "event": {
                    "deltaTime": 2,
                    "type": "channel",
                    "subtype": "noteOn",
                    "channel": 5,
                    "noteNumber": 70,
                    "velocity": 127,
                    "lightChannels": [
                        0,
                        1,
                        2,
                        3,
                        4,
                        5,
                        6,
                        7,
                        8,
                        9
                    ]
                }
            },
            "bottom-right": {
                "pinValue": 1,
                "ticks": 2,
                "event": {
                    "deltaTime": 2,
                    "type": "channel",
                    "subtype": "noteOn",
                    "channel": 5,
                    "noteNumber": 70,
                    "velocity": 127,
                    "lightChannels": [
                        0,
                        1,
                        2,
                        3,
                        4,
                        5,
                        6,
                        7,
                        8,
                        9
                    ]
                }
            },
            "col-1": {
                "pinValue": 1,
                "ticks": 2,
                "event": {
                    "deltaTime": 2,
                    "type": "channel",
                    "subtype": "noteOn",
                    "channel": 5,
                    "noteNumber": 70,
                    "velocity": 127,
                    "lightChannels": [
                        0,
                        1,
                        2,
                        3,
                        4,
                        5,
                        6,
                        7,
                        8,
                        9
                    ]
                }
            },
            "col-2": {
                "pinValue": 1,
                "ticks": 2,
                "event": {
                    "deltaTime": 2,
                    "type": "channel",
                    "subtype": "noteOn",
                    "channel": 5,
                    "noteNumber": 70,
                    "velocity": 127,
                    "lightChannels": [
                        0,
                        1,
                        2,
                        3,
                        4,
                        5,
                        6,
                        7,
                        8,
                        9
                    ]
                }
            },
            "col-3": {
                "pinValue": 1,
                "ticks": 2,
                "event": {
                    "deltaTime": 2,
                    "type": "channel",
                    "subtype": "noteOn",
                    "channel": 5,
                    "noteNumber": 70,
                    "velocity": 127,
                    "lightChannels": [
                        0,
                        1,
                        2,
                        3,
                        4,
                        5,
                        6,
                        7,
                        8,
                        9
                    ]
                }
            },
            "window": {
                "pinValue": 1,
                "ticks": 2,
                "event": {
                    "deltaTime": 2,
                    "type": "channel",
                    "subtype": "noteOn",
                    "channel": 5,
                    "noteNumber": 70,
                    "velocity": 127,
                    "lightChannels": [
                        0,
                        1,
                        2,
                        3,
                        4,
                        5,
                        6,
                        7,
                        8,
                        9
                    ]
                }
            },
            "outline": {
                "pinValue": 1,
                "ticks": 2,
                "event": {
                    "deltaTime": 2,
                    "type": "channel",
                    "subtype": "noteOn",
                    "channel": 5,
                    "noteNumber": 70,
                    "velocity": 127,
                    "lightChannels": [
                        0,
                        1,
                        2,
                        3,
                        4,
                        5,
                        6,
                        7,
                        8,
                        9
                    ]
                }
            },
            "garden": {
                "pinValue": 1,
                "ticks": 2,
                "event": {
                    "deltaTime": 2,
                    "type": "channel",
                    "subtype": "noteOn",
                    "channel": 5,
                    "noteNumber": 70,
                    "velocity": 127,
                    "lightChannels": [
                        0,
                        1,
                        2,
                        3,
                        4,
                        5,
                        6,
                        7,
                        8,
                        9
                    ]
                }
            },
            "tree": {
                "pinValue": 1,
                "ticks": 2,
                "event": {
                    "deltaTime": 2,
                    "type": "channel",
                    "subtype": "noteOn",
                    "channel": 5,
                    "noteNumber": 70,
                    "velocity": 127,
                    "lightChannels": [
                        0,
                        1,
                        2,
                        3,
                        4,
                        5,
                        6,
                        7,
                        8,
                        9
                    ]
                }
            }
        }
    },
    {
        "changes": {
            "window": 0,
            "outline": 0
        },
        "timeout": 0.03495758749999999,
        "raw": {
            "window": {
                "pinValue": 0,
                "ticks": 2,
                "event": {
                    "deltaTime": 2,
                    "type": "channel",
                    "subtype": "noteOff",
                    "channel": 9,
                    "noteNumber": 51,
                    "velocity": 0,
                    "lightChannels": [
                        6,
                        7
                    ]
                }
            },
            "outline": {
                "pinValue": 0,
                "ticks": 2,
                "event": {
                    "deltaTime": 2,
                    "type": "channel",
                    "subtype": "noteOff",
                    "channel": 9,
                    "noteNumber": 51,
                    "velocity": 0,
                    "lightChannels": [
                        6,
                        7
                    ]
                }
            }
        }
    },
    {
        "changes": {
            "window": 1,
            "outline": 1
        },
        "timeout": 0.1917370708333333,
        "raw": {
            "window": {
                "pinValue": 1,
                "ticks": 58,
                "event": {
                    "deltaTime": 58,
                    "type": "channel",
                    "subtype": "noteOn",
                    "channel": 9,
                    "noteNumber": 51,
                    "velocity": 85,
                    "lightChannels": [
                        6,
                        7
                    ]
                }
            },
            "outline": {
                "pinValue": 1,
                "ticks": 58,
                "event": {
                    "deltaTime": 58,
                    "type": "channel",
                    "subtype": "noteOn",
                    "channel": 9,
                    "noteNumber": 51,
                    "velocity": 85,
                    "lightChannels": [
                        6,
                        7
                    ]
                }
            }
        }
    },
    {
        "changes": {
            "window": 0,
            "outline": 0
        },
        "timeout": 0.0508474,
        "raw": {
            "window": {
                "pinValue": 0,
                "ticks": 8,
                "event": {
                    "deltaTime": 8,
                    "type": "channel",
                    "subtype": "noteOff",
                    "channel": 9,
                    "noteNumber": 51,
                    "velocity": 0,
                    "lightChannels": [
                        6,
                        7
                    ]
                }
            },
            "outline": {
                "pinValue": 0,
                "ticks": 8,
                "event": {
                    "deltaTime": 8,
                    "type": "channel",
                    "subtype": "noteOff",
                    "channel": 9,
                    "noteNumber": 51,
                    "velocity": 0,
                    "lightChannels": [
                        6,
                        7
                    ]
                }
            }
        }
    },
    {
        "changes": {
            "window": 1,
            "outline": 1
        },
        "timeout": 0.2044489208333333,
        "raw": {
            "window": {
                "pinValue": 1,
                "ticks": 100,
                "event": {
                    "deltaTime": 100,
                    "type": "channel",
                    "subtype": "noteOn",
                    "channel": 9,
                    "noteNumber": 51,
                    "velocity": 88,
                    "lightChannels": [
                        6,
                        7
                    ]
                }
            },
            "outline": {
                "pinValue": 1,
                "ticks": 100,
                "event": {
                    "deltaTime": 100,
                    "type": "channel",
                    "subtype": "noteOn",
                    "channel": 9,
                    "noteNumber": 51,
                    "velocity": 88,
                    "lightChannels": [
                        6,
                        7
                    ]
                }
            }
        }
    },
    {
        "changes": {
            "window": 0,
            "outline": 0
        },
        "timeout": 0.06249992916666666,
        "raw": {
            "window": {
                "pinValue": 0,
                "ticks": 32,
                "event": {
                    "deltaTime": 32,
                    "type": "channel",
                    "subtype": "noteOff",
                    "channel": 9,
                    "noteNumber": 51,
                    "velocity": 0,
                    "lightChannels": [
                        6,
                        7
                    ]
                }
            },
            "outline": {
                "pinValue": 0,
                "ticks": 32,
                "event": {
                    "deltaTime": 32,
                    "type": "channel",
                    "subtype": "noteOff",
                    "channel": 9,
                    "noteNumber": 51,
                    "velocity": 0,
                    "lightChannels": [
                        6,
                        7
                    ]
                }
            }
        }
    },
    {
        "changes": {
            "window": 1,
            "outline": 1
        },
        "timeout": 0.1874997875,
        "raw": {
            "window": {
                "pinValue": 1,
                "ticks": 109,
                "event": {
                    "deltaTime": 109,
                    "type": "channel",
                    "subtype": "noteOn",
                    "channel": 9,
                    "noteNumber": 51,
                    "velocity": 84,
                    "lightChannels": [
                        6,
                        7
                    ]
                }
            },
            "outline": {
                "pinValue": 1,
                "ticks": 109,
                "event": {
                    "deltaTime": 109,
                    "type": "channel",
                    "subtype": "noteOn",
                    "channel": 9,
                    "noteNumber": 51,
                    "velocity": 84,
                    "lightChannels": [
                        6,
                        7
                    ]
                }
            }
        }
    },
    {
        "changes": {
            "window": 0,
            "outline": 0
        },
        "timeout": 0.06249992916666666,
        "raw": {
            "window": {
                "pinValue": 0,
                "ticks": 36,
                "event": {
                    "deltaTime": 36,
                    "type": "channel",
                    "subtype": "noteOff",
                    "channel": 9,
                    "noteNumber": 51,
                    "velocity": 0,
                    "lightChannels": [
                        6,
                        7
                    ]
                }
            },
            "outline": {
                "pinValue": 0,
                "ticks": 36,
                "event": {
                    "deltaTime": 36,
                    "type": "channel",
                    "subtype": "noteOff",
                    "channel": 9,
                    "noteNumber": 51,
                    "velocity": 0,
                    "lightChannels": [
                        6,
                        7
                    ]
                }
            }
        }
    },
    {
        "changes": {
            "window": 1,
            "outline": 1
        },
        "timeout": 0.2076268833333333,
        "raw": {
            "window": {
                "pinValue": 1,
                "ticks": 10,
                "event": {
                    "deltaTime": 10,
                    "type": "channel",
                    "subtype": "noteOn",
                    "channel": 9,
                    "noteNumber": 51,
                    "velocity": 83,
                    "lightChannels": [
                        6,
                        7
                    ]
                }
            },
            "outline": {
                "pinValue": 1,
                "ticks": 10,
                "event": {
                    "deltaTime": 10,
                    "type": "channel",
                    "subtype": "noteOn",
                    "channel": 9,
                    "noteNumber": 51,
                    "velocity": 83,
                    "lightChannels": [
                        6,
                        7
                    ]
                }
            }
        }
    },
    {
        "changes": {
            "window": 0,
            "outline": 0
        },
        "timeout": 0.05508468333333333,
        "raw": {
            "window": {
                "pinValue": 0,
                "ticks": 31,
                "event": {
                    "deltaTime": 31,
                    "type": "channel",
                    "subtype": "noteOff",
                    "channel": 9,
                    "noteNumber": 51,
                    "velocity": 0,
                    "lightChannels": [
                        6,
                        7
                    ]
                }
            },
            "outline": {
                "pinValue": 0,
                "ticks": 31,
                "event": {
                    "deltaTime": 31,
                    "type": "channel",
                    "subtype": "noteOff",
                    "channel": 9,
                    "noteNumber": 51,
                    "velocity": 0,
                    "lightChannels": [
                        6,
                        7
                    ]
                }
            }
        }
    },
    {
        "changes": {
            "garage": 0,
            "top-right": 0,
            "bottom-right": 0,
            "col-1": 0,
            "col-2": 0,
            "col-3": 0,
            "window": 0,
            "outline": 0,
            "garden": 0,
            "tree": 0
        },
        "timeout": 0.03177962499999999,
        "raw": {
            "garage": {
                "pinValue": 0,
                "ticks": 8,
                "event": {
                    "deltaTime": 8,
                    "type": "channel",
                    "subtype": "noteOff",
                    "channel": 5,
                    "noteNumber": 70,
                    "velocity": 0,
                    "lightChannels": [
                        0,
                        1,
                        2,
                        3,
                        4,
                        5,
                        6,
                        7,
                        8,
                        9
                    ]
                }
            },
            "top-right": {
                "pinValue": 0,
                "ticks": 8,
                "event": {
                    "deltaTime": 8,
                    "type": "channel",
                    "subtype": "noteOff",
                    "channel": 5,
                    "noteNumber": 70,
                    "velocity": 0,
                    "lightChannels": [
                        0,
                        1,
                        2,
                        3,
                        4,
                        5,
                        6,
                        7,
                        8,
                        9
                    ]
                }
            },
            "bottom-right": {
                "pinValue": 0,
                "ticks": 8,
                "event": {
                    "deltaTime": 8,
                    "type": "channel",
                    "subtype": "noteOff",
                    "channel": 5,
                    "noteNumber": 70,
                    "velocity": 0,
                    "lightChannels": [
                        0,
                        1,
                        2,
                        3,
                        4,
                        5,
                        6,
                        7,
                        8,
                        9
                    ]
                }
            },
            "col-1": {
                "pinValue": 0,
                "ticks": 8,
                "event": {
                    "deltaTime": 8,
                    "type": "channel",
                    "subtype": "noteOff",
                    "channel": 5,
                    "noteNumber": 70,
                    "velocity": 0,
                    "lightChannels": [
                        0,
                        1,
                        2,
                        3,
                        4,
                        5,
                        6,
                        7,
                        8,
                        9
                    ]
                }
            },
            "col-2": {
                "pinValue": 0,
                "ticks": 8,
                "event": {
                    "deltaTime": 8,
                    "type": "channel",
                    "subtype": "noteOff",
                    "channel": 5,
                    "noteNumber": 70,
                    "velocity": 0,
                    "lightChannels": [
                        0,
                        1,
                        2,
                        3,
                        4,
                        5,
                        6,
                        7,
                        8,
                        9
                    ]
                }
            },
            "col-3": {
                "pinValue": 0,
                "ticks": 8,
                "event": {
                    "deltaTime": 8,
                    "type": "channel",
                    "subtype": "noteOff",
                    "channel": 5,
                    "noteNumber": 70,
                    "velocity": 0,
                    "lightChannels": [
                        0,
                        1,
                        2,
                        3,
                        4,
                        5,
                        6,
                        7,
                        8,
                        9
                    ]
                }
            },
            "window": {
                "pinValue": 0,
                "ticks": 8,
                "event": {
                    "deltaTime": 8,
                    "type": "channel",
                    "subtype": "noteOff",
                    "channel": 5,
                    "noteNumber": 70,
                    "velocity": 0,
                    "lightChannels": [
                        0,
                        1,
                        2,
                        3,
                        4,
                        5,
                        6,
                        7,
                        8,
                        9
                    ]
                }
            },
            "outline": {
                "pinValue": 0,
                "ticks": 8,
                "event": {
                    "deltaTime": 8,
                    "type": "channel",
                    "subtype": "noteOff",
                    "channel": 5,
                    "noteNumber": 70,
                    "velocity": 0,
                    "lightChannels": [
                        0,
                        1,
                        2,
                        3,
                        4,
                        5,
                        6,
                        7,
                        8,
                        9
                    ]
                }
            },
            "garden": {
                "pinValue": 0,
                "ticks": 8,
                "event": {
                    "deltaTime": 8,
                    "type": "channel",
                    "subtype": "noteOff",
                    "channel": 5,
                    "noteNumber": 70,
                    "velocity": 0,
                    "lightChannels": [
                        0,
                        1,
                        2,
                        3,
                        4,
                        5,
                        6,
                        7,
                        8,
                        9
                    ]
                }
            },
            "tree": {
                "pinValue": 0,
                "ticks": 8,
                "event": {
                    "deltaTime": 8,
                    "type": "channel",
                    "subtype": "noteOff",
                    "channel": 5,
                    "noteNumber": 70,
                    "velocity": 0,
                    "lightChannels": [
                        0,
                        1,
                        2,
                        3,
                        4,
                        5,
                        6,
                        7,
                        8,
                        9
                    ]
                }
            }
        }
    },
    {
        "changes": {
            "window": 1,
            "outline": 1
        },
        "timeout": 0.15572016249999998,
        "raw": {
            "window": {
                "pinValue": 1,
                "ticks": 66,
                "event": {
                    "deltaTime": 66,
                    "type": "channel",
                    "subtype": "noteOn",
                    "channel": 9,
                    "noteNumber": 51,
                    "velocity": 81,
                    "lightChannels": [
                        6,
                        7
                    ]
                }
            },
            "outline": {
                "pinValue": 1,
                "ticks": 66,
                "event": {
                    "deltaTime": 66,
                    "type": "channel",
                    "subtype": "noteOn",
                    "channel": 9,
                    "noteNumber": 51,
                    "velocity": 81,
                    "lightChannels": [
                        6,
                        7
                    ]
                }
            }
        }
    },
    {
        "changes": {
            "window": 0,
            "outline": 0
        },
        "timeout": 0.05826264583333332,
        "raw": {
            "window": {
                "pinValue": 0,
                "ticks": 25,
                "event": {
                    "deltaTime": 25,
                    "type": "channel",
                    "subtype": "noteOff",
                    "channel": 9,
                    "noteNumber": 51,
                    "velocity": 0,
                    "lightChannels": [
                        6,
                        7
                    ]
                }
            },
            "outline": {
                "pinValue": 0,
                "ticks": 25,
                "event": {
                    "deltaTime": 25,
                    "type": "channel",
                    "subtype": "noteOff",
                    "channel": 9,
                    "noteNumber": 51,
                    "velocity": 0,
                    "lightChannels": [
                        6,
                        7
                    ]
                }
            }
        }
    },
    {
        "changes": {
            "window": 1,
            "outline": 1
        },
        "timeout": 0.20127095833333333,
        "raw": {
            "window": {
                "pinValue": 1,
                "ticks": 3,
                "event": {
                    "deltaTime": 3,
                    "type": "channel",
                    "subtype": "noteOn",
                    "channel": 9,
                    "noteNumber": 51,
                    "velocity": 88,
                    "lightChannels": [
                        6,
                        7
                    ]
                }
            },
            "outline": {
                "pinValue": 1,
                "ticks": 3,
                "event": {
                    "deltaTime": 3,
                    "type": "channel",
                    "subtype": "noteOn",
                    "channel": 9,
                    "noteNumber": 51,
                    "velocity": 88,
                    "lightChannels": [
                        6,
                        7
                    ]
                }
            }
        }
    },
    {
        "changes": {
            "window": 0,
            "outline": 0
        },
        "timeout": 0.06144060833333333,
        "raw": {
            "window": {
                "pinValue": 0,
                "ticks": 45,
                "event": {
                    "deltaTime": 45,
                    "type": "channel",
                    "subtype": "noteOff",
                    "channel": 9,
                    "noteNumber": 51,
                    "velocity": 0,
                    "lightChannels": [
                        6,
                        7
                    ]
                }
            },
            "outline": {
                "pinValue": 0,
                "ticks": 45,
                "event": {
                    "deltaTime": 45,
                    "type": "channel",
                    "subtype": "noteOff",
                    "channel": 9,
                    "noteNumber": 51,
                    "velocity": 0,
                    "lightChannels": [
                        6,
                        7
                    ]
                }
            }
        }
    },
    {
        "changes": {
            "window": 1,
            "outline": 1
        },
        "timeout": 0.18961842916666663,
        "raw": {
            "window": {
                "pinValue": 1,
                "ticks": 10,
                "event": {
                    "deltaTime": 10,
                    "type": "channel",
                    "subtype": "noteOn",
                    "channel": 9,
                    "noteNumber": 51,
                    "velocity": 91,
                    "lightChannels": [
                        6,
                        7
                    ]
                }
            },
            "outline": {
                "pinValue": 1,
                "ticks": 10,
                "event": {
                    "deltaTime": 10,
                    "type": "channel",
                    "subtype": "noteOn",
                    "channel": 9,
                    "noteNumber": 51,
                    "velocity": 91,
                    "lightChannels": [
                        6,
                        7
                    ]
                }
            }
        }
    },
    {
        "changes": {
            "window": 0,
            "outline": 0
        },
        "timeout": 0.05296604166666666,
        "raw": {
            "window": {
                "pinValue": 0,
                "ticks": 16,
                "event": {
                    "deltaTime": 16,
                    "type": "channel",
                    "subtype": "noteOff",
                    "channel": 9,
                    "noteNumber": 51,
                    "velocity": 0,
                    "lightChannels": [
                        6,
                        7
                    ]
                }
            },
            "outline": {
                "pinValue": 0,
                "ticks": 16,
                "event": {
                    "deltaTime": 16,
                    "type": "channel",
                    "subtype": "noteOff",
                    "channel": 9,
                    "noteNumber": 51,
                    "velocity": 0,
                    "lightChannels": [
                        6,
                        7
                    ]
                }
            }
        }
    },
    {
        "changes": {
            "window": 1,
            "outline": 1
        },
        "timeout": 0.2044489208333333,
        "raw": {
            "window": {
                "pinValue": 1,
                "ticks": 10,
                "event": {
                    "deltaTime": 10,
                    "type": "channel",
                    "subtype": "noteOn",
                    "channel": 9,
                    "noteNumber": 49,
                    "velocity": 116,
                    "lightChannels": [
                        6,
                        7
                    ]
                }
            },
            "outline": {
                "pinValue": 1,
                "ticks": 10,
                "event": {
                    "deltaTime": 10,
                    "type": "channel",
                    "subtype": "noteOn",
                    "channel": 9,
                    "noteNumber": 49,
                    "velocity": 116,
                    "lightChannels": [
                        6,
                        7
                    ]
                }
            }
        }
    },
    {
        "changes": {
            "garage": 1
        },
        "timeout": 0.011652529166666665,
        "raw": {
            "garage": {
                "pinValue": 1,
                "ticks": 2,
                "event": {
                    "deltaTime": 2,
                    "type": "channel",
                    "subtype": "noteOn",
                    "channel": 1,
                    "noteNumber": 34,
                    "velocity": 122,
                    "lightChannels": [
                        0
                    ]
                }
            }
        }
    },
    {
        "changes": {
            "garage": 1,
            "col-1": 1
        },
        "timeout": 0.0021186416666666664,
        "raw": {
            "garage": {
                "pinValue": 1,
                "ticks": 2,
                "event": {
                    "deltaTime": 2,
                    "type": "channel",
                    "subtype": "noteOn",
                    "channel": 7,
                    "noteNumber": 46,
                    "velocity": 70,
                    "lightChannels": [
                        0,
                        3
                    ]
                }
            },
            "col-1": {
                "pinValue": 1,
                "ticks": 2,
                "event": {
                    "deltaTime": 2,
                    "type": "channel",
                    "subtype": "noteOn",
                    "channel": 7,
                    "noteNumber": 46,
                    "velocity": 70,
                    "lightChannels": [
                        0,
                        3
                    ]
                }
            }
        }
    },
    {
        "changes": {
            "window": 0,
            "outline": 0
        },
        "timeout": 0.12605917916666665,
        "raw": {
            "window": {
                "pinValue": 0,
                "ticks": 25,
                "event": {
                    "deltaTime": 25,
                    "type": "channel",
                    "subtype": "noteOff",
                    "channel": 9,
                    "noteNumber": 49,
                    "velocity": 0,
                    "lightChannels": [
                        6,
                        7
                    ]
                }
            },
            "outline": {
                "pinValue": 0,
                "ticks": 25,
                "event": {
                    "deltaTime": 25,
                    "type": "channel",
                    "subtype": "noteOff",
                    "channel": 9,
                    "noteNumber": 49,
                    "velocity": 0,
                    "lightChannels": [
                        6,
                        7
                    ]
                }
            }
        }
    },
    {
        "changes": {
            "window": 1,
            "outline": 1
        },
        "timeout": 0.1472455958333333,
        "raw": {
            "window": {
                "pinValue": 1,
                "ticks": 1,
                "event": {
                    "deltaTime": 1,
                    "type": "channel",
                    "subtype": "noteOn",
                    "channel": 9,
                    "noteNumber": 51,
                    "velocity": 70,
                    "lightChannels": [
                        6,
                        7
                    ]
                }
            },
            "outline": {
                "pinValue": 1,
                "ticks": 1,
                "event": {
                    "deltaTime": 1,
                    "type": "channel",
                    "subtype": "noteOn",
                    "channel": 9,
                    "noteNumber": 51,
                    "velocity": 70,
                    "lightChannels": [
                        6,
                        7
                    ]
                }
            }
        }
    },
    {
        "changes": {
            "window": 0,
            "outline": 0
        },
        "timeout": 0.06673721249999999,
        "raw": {
            "window": {
                "pinValue": 0,
                "ticks": 56,
                "event": {
                    "deltaTime": 56,
                    "type": "channel",
                    "subtype": "noteOff",
                    "channel": 9,
                    "noteNumber": 51,
                    "velocity": 0,
                    "lightChannels": [
                        6,
                        7
                    ]
                }
            },
            "outline": {
                "pinValue": 0,
                "ticks": 56,
                "event": {
                    "deltaTime": 56,
                    "type": "channel",
                    "subtype": "noteOff",
                    "channel": 9,
                    "noteNumber": 51,
                    "velocity": 0,
                    "lightChannels": [
                        6,
                        7
                    ]
                }
            }
        }
    },
    {
        "changes": {
            "garage": 0
        },
        "timeout": 0.08368634583333334,
        "raw": {
            "garage": {
                "pinValue": 0,
                "ticks": 7,
                "event": {
                    "deltaTime": 7,
                    "type": "channel",
                    "subtype": "noteOff",
                    "channel": 1,
                    "noteNumber": 34,
                    "velocity": 0,
                    "lightChannels": [
                        0
                    ]
                }
            }
        }
    },
    {
        "changes": {
            "garage": 0,
            "col-1": 0
        },
        "timeout": 0.01694913333333333,
        "raw": {
            "garage": {
                "pinValue": 0,
                "ticks": 16,
                "event": {
                    "deltaTime": 16,
                    "type": "channel",
                    "subtype": "noteOff",
                    "channel": 7,
                    "noteNumber": 46,
                    "velocity": 0,
                    "lightChannels": [
                        0,
                        3
                    ]
                }
            },
            "col-1": {
                "pinValue": 0,
                "ticks": 16,
                "event": {
                    "deltaTime": 16,
                    "type": "channel",
                    "subtype": "noteOff",
                    "channel": 7,
                    "noteNumber": 46,
                    "velocity": 0,
                    "lightChannels": [
                        0,
                        3
                    ]
                }
            }
        }
    },
    {
        "changes": {
            "top-right": 1,
            "col-2": 1
        },
        "timeout": 0.06461857083333332,
        "raw": {
            "top-right": {
                "pinValue": 1,
                "ticks": 61,
                "event": {
                    "deltaTime": 61,
                    "type": "channel",
                    "subtype": "noteOn",
                    "channel": 7,
                    "noteNumber": 50,
                    "velocity": 122,
                    "lightChannels": [
                        1,
                        4
                    ]
                }
            },
            "col-2": {
                "pinValue": 1,
                "ticks": 61,
                "event": {
                    "deltaTime": 61,
                    "type": "channel",
                    "subtype": "noteOn",
                    "channel": 7,
                    "noteNumber": 50,
                    "velocity": 122,
                    "lightChannels": [
                        1,
                        4
                    ]
                }
            }
        }
    },
    {
        "changes": {
            "top-right": 1
        },
        "timeout": 0.006355924999999999,
        "raw": {
            "top-right": {
                "pinValue": 1,
                "ticks": 3,
                "event": {
                    "deltaTime": 3,
                    "type": "channel",
                    "subtype": "noteOn",
                    "channel": 1,
                    "noteNumber": 38,
                    "velocity": 118,
                    "lightChannels": [
                        1
                    ]
                }
            }
        }
    },
    {
        "changes": {
            "window": 1,
            "outline": 1
        },
        "timeout": 0.0021186416666666664,
        "raw": {
            "window": {
                "pinValue": 1,
                "ticks": 2,
                "event": {
                    "deltaTime": 2,
                    "type": "channel",
                    "subtype": "noteOn",
                    "channel": 9,
                    "noteNumber": 51,
                    "velocity": 81,
                    "lightChannels": [
                        6,
                        7
                    ]
                }
            },
            "outline": {
                "pinValue": 1,
                "ticks": 2,
                "event": {
                    "deltaTime": 2,
                    "type": "channel",
                    "subtype": "noteOn",
                    "channel": 9,
                    "noteNumber": 51,
                    "velocity": 81,
                    "lightChannels": [
                        6,
                        7
                    ]
                }
            }
        }
    },
    {
        "changes": {
            "window": 0,
            "outline": 0
        },
        "timeout": 0.07097449583333332,
        "raw": {
            "window": {
                "pinValue": 0,
                "ticks": 44,
                "event": {
                    "deltaTime": 44,
                    "type": "channel",
                    "subtype": "noteOff",
                    "channel": 9,
                    "noteNumber": 51,
                    "velocity": 0,
                    "lightChannels": [
                        6,
                        7
                    ]
                }
            },
            "outline": {
                "pinValue": 0,
                "ticks": 44,
                "event": {
                    "deltaTime": 44,
                    "type": "channel",
                    "subtype": "noteOff",
                    "channel": 9,
                    "noteNumber": 51,
                    "velocity": 0,
                    "lightChannels": [
                        6,
                        7
                    ]
                }
            }
        }
    },
    {
        "changes": {
            "window": 1,
            "outline": 1
        },
        "timeout": 0.18961842916666663,
        "raw": {
            "window": {
                "pinValue": 1,
                "ticks": 3,
                "event": {
                    "deltaTime": 3,
                    "type": "channel",
                    "subtype": "noteOn",
                    "channel": 9,
                    "noteNumber": 51,
                    "velocity": 71,
                    "lightChannels": [
                        6,
                        7
                    ]
                }
            },
            "outline": {
                "pinValue": 1,
                "ticks": 3,
                "event": {
                    "deltaTime": 3,
                    "type": "channel",
                    "subtype": "noteOn",
                    "channel": 9,
                    "noteNumber": 51,
                    "velocity": 71,
                    "lightChannels": [
                        6,
                        7
                    ]
                }
            }
        }
    },
    {
        "changes": {
            "window": 0,
            "outline": 0
        },
        "timeout": 0.05720332499999999,
        "raw": {
            "window": {
                "pinValue": 0,
                "ticks": 37,
                "event": {
                    "deltaTime": 37,
                    "type": "channel",
                    "subtype": "noteOff",
                    "channel": 9,
                    "noteNumber": 51,
                    "velocity": 0,
                    "lightChannels": [
                        6,
                        7
                    ]
                }
            },
            "outline": {
                "pinValue": 0,
                "ticks": 37,
                "event": {
                    "deltaTime": 37,
                    "type": "channel",
                    "subtype": "noteOff",
                    "channel": 9,
                    "noteNumber": 51,
                    "velocity": 0,
                    "lightChannels": [
                        6,
                        7
                    ]
                }
            }
        }
    },
    {
        "changes": {
            "top-right": 0,
            "col-2": 0
        },
        "timeout": 0.08898294999999999,
        "raw": {
            "top-right": {
                "pinValue": 0,
                "ticks": 2,
                "event": {
                    "deltaTime": 2,
                    "type": "channel",
                    "subtype": "noteOff",
                    "channel": 7,
                    "noteNumber": 50,
                    "velocity": 0,
                    "lightChannels": [
                        1,
                        4
                    ]
                }
            },
            "col-2": {
                "pinValue": 0,
                "ticks": 2,
                "event": {
                    "deltaTime": 2,
                    "type": "channel",
                    "subtype": "noteOff",
                    "channel": 7,
                    "noteNumber": 50,
                    "velocity": 0,
                    "lightChannels": [
                        1,
                        4
                    ]
                }
            }
        }
    },
    {
        "changes": {
            "top-right": 0
        },
        "timeout": 0.006355924999999999,
        "raw": {
            "top-right": {
                "pinValue": 0,
                "ticks": 6,
                "event": {
                    "deltaTime": 6,
                    "type": "channel",
                    "subtype": "noteOff",
                    "channel": 1,
                    "noteNumber": 38,
                    "velocity": 0,
                    "lightChannels": [
                        1
                    ]
                }
            }
        }
    },
    {
        "changes": {
            "window": 1,
            "outline": 1
        },
        "timeout": 0.07733042083333332,
        "raw": {
            "window": {
                "pinValue": 1,
                "ticks": 1,
                "event": {
                    "deltaTime": 1,
                    "type": "channel",
                    "subtype": "noteOn",
                    "channel": 9,
                    "noteNumber": 51,
                    "velocity": 77,
                    "lightChannels": [
                        6,
                        7
                    ]
                }
            },
            "outline": {
                "pinValue": 1,
                "ticks": 1,
                "event": {
                    "deltaTime": 1,
                    "type": "channel",
                    "subtype": "noteOn",
                    "channel": 9,
                    "noteNumber": 51,
                    "velocity": 77,
                    "lightChannels": [
                        6,
                        7
                    ]
                }
            }
        }
    },
    {
        "changes": {
            "bottom-right": 1,
            "col-3": 1
        },
        "timeout": 0.007415245833333332,
        "raw": {
            "bottom-right": {
                "pinValue": 1,
                "ticks": 1,
                "event": {
                    "deltaTime": 1,
                    "type": "channel",
                    "subtype": "noteOn",
                    "channel": 7,
                    "noteNumber": 51,
                    "velocity": 122,
                    "lightChannels": [
                        2,
                        5
                    ]
                }
            },
            "col-3": {
                "pinValue": 1,
                "ticks": 1,
                "event": {
                    "deltaTime": 1,
                    "type": "channel",
                    "subtype": "noteOn",
                    "channel": 7,
                    "noteNumber": 51,
                    "velocity": 122,
                    "lightChannels": [
                        2,
                        5
                    ]
                }
            }
        }
    },
    {
        "changes": {
            "bottom-right": 1
        },
        "timeout": 0.008474566666666666,
        "raw": {
            "bottom-right": {
                "pinValue": 1,
                "ticks": 8,
                "event": {
                    "deltaTime": 8,
                    "type": "channel",
                    "subtype": "noteOn",
                    "channel": 1,
                    "noteNumber": 39,
                    "velocity": 116,
                    "lightChannels": [
                        2
                    ]
                }
            }
        }
    },
    {
        "changes": {
            "window": 0,
            "outline": 0
        },
        "timeout": 0.044491474999999996,
        "raw": {
            "window": {
                "pinValue": 0,
                "ticks": 24,
                "event": {
                    "deltaTime": 24,
                    "type": "channel",
                    "subtype": "noteOff",
                    "channel": 9,
                    "noteNumber": 51,
                    "velocity": 0,
                    "lightChannels": [
                        6,
                        7
                    ]
                }
            },
            "outline": {
                "pinValue": 0,
                "ticks": 24,
                "event": {
                    "deltaTime": 24,
                    "type": "channel",
                    "subtype": "noteOff",
                    "channel": 9,
                    "noteNumber": 51,
                    "velocity": 0,
                    "lightChannels": [
                        6,
                        7
                    ]
                }
            }
        }
    },
    {
        "changes": {
            "bottom-right": 0,
            "col-3": 0
        },
        "timeout": 0.184321825,
        "raw": {
            "bottom-right": {
                "pinValue": 0,
                "ticks": 73,
                "event": {
                    "deltaTime": 73,
                    "type": "channel",
                    "subtype": "noteOff",
                    "channel": 7,
                    "noteNumber": 51,
                    "velocity": 0,
                    "lightChannels": [
                        2,
                        5
                    ]
                }
            },
            "col-3": {
                "pinValue": 0,
                "ticks": 73,
                "event": {
                    "deltaTime": 73,
                    "type": "channel",
                    "subtype": "noteOff",
                    "channel": 7,
                    "noteNumber": 51,
                    "velocity": 0,
                    "lightChannels": [
                        2,
                        5
                    ]
                }
            }
        }
    },
    {
        "changes": {
            "window": 1,
            "outline": 1
        },
        "timeout": 0.0158898125,
        "raw": {
            "window": {
                "pinValue": 1,
                "ticks": 9,
                "event": {
                    "deltaTime": 9,
                    "type": "channel",
                    "subtype": "noteOn",
                    "channel": 9,
                    "noteNumber": 51,
                    "velocity": 77,
                    "lightChannels": [
                        6,
                        7
                    ]
                }
            },
            "outline": {
                "pinValue": 1,
                "ticks": 9,
                "event": {
                    "deltaTime": 9,
                    "type": "channel",
                    "subtype": "noteOn",
                    "channel": 9,
                    "noteNumber": 51,
                    "velocity": 77,
                    "lightChannels": [
                        6,
                        7
                    ]
                }
            }
        }
    },
    {
        "changes": {
            "bottom-right": 0
        },
        "timeout": 0.0052966041666666665,
        "raw": {
            "bottom-right": {
                "pinValue": 0,
                "ticks": 5,
                "event": {
                    "deltaTime": 5,
                    "type": "channel",
                    "subtype": "noteOff",
                    "channel": 1,
                    "noteNumber": 39,
                    "velocity": 0,
                    "lightChannels": [
                        2
                    ]
                }
            }
        }
    },
    {
        "changes": {
            "window": 0,
            "outline": 0
        },
        "timeout": 0.05296604166666666,
        "raw": {
            "window": {
                "pinValue": 0,
                "ticks": 29,
                "event": {
                    "deltaTime": 29,
                    "type": "channel",
                    "subtype": "noteOff",
                    "channel": 9,
                    "noteNumber": 51,
                    "velocity": 0,
                    "lightChannels": [
                        6,
                        7
                    ]
                }
            },
            "outline": {
                "pinValue": 0,
                "ticks": 29,
                "event": {
                    "deltaTime": 29,
                    "type": "channel",
                    "subtype": "noteOff",
                    "channel": 9,
                    "noteNumber": 51,
                    "velocity": 0,
                    "lightChannels": [
                        6,
                        7
                    ]
                }
            }
        }
    },
    {
        "changes": {
            "garage": 1,
            "garden": 1
        },
        "timeout": 0.15148287916666667,
        "raw": {
            "garage": {
                "pinValue": 1,
                "ticks": 3,
                "event": {
                    "deltaTime": 3,
                    "type": "channel",
                    "subtype": "noteOn",
                    "channel": 7,
                    "noteNumber": 52,
                    "velocity": 113,
                    "lightChannels": [
                        0,
                        8
                    ]
                }
            },
            "garden": {
                "pinValue": 1,
                "ticks": 3,
                "event": {
                    "deltaTime": 3,
                    "type": "channel",
                    "subtype": "noteOn",
                    "channel": 7,
                    "noteNumber": 52,
                    "velocity": 113,
                    "lightChannels": [
                        0,
                        8
                    ]
                }
            }
        }
    },
    {
        "changes": {
            "window": 1,
            "outline": 1
        },
        "timeout": 0.030720304166666663,
        "raw": {
            "window": {
                "pinValue": 1,
                "ticks": 4,
                "event": {
                    "deltaTime": 4,
                    "type": "channel",
                    "subtype": "noteOn",
                    "channel": 9,
                    "noteNumber": 51,
                    "velocity": 83,
                    "lightChannels": [
                        6,
                        7
                    ]
                }
            },
            "outline": {
                "pinValue": 1,
                "ticks": 4,
                "event": {
                    "deltaTime": 4,
                    "type": "channel",
                    "subtype": "noteOn",
                    "channel": 9,
                    "noteNumber": 51,
                    "velocity": 83,
                    "lightChannels": [
                        6,
                        7
                    ]
                }
            }
        }
    },
    {
        "changes": {
            "window": 0,
            "outline": 0
        },
        "timeout": 0.06038128749999999,
        "raw": {
            "window": {
                "pinValue": 0,
                "ticks": 24,
                "event": {
                    "deltaTime": 24,
                    "type": "channel",
                    "subtype": "noteOff",
                    "channel": 9,
                    "noteNumber": 51,
                    "velocity": 0,
                    "lightChannels": [
                        6,
                        7
                    ]
                }
            },
            "outline": {
                "pinValue": 0,
                "ticks": 24,
                "event": {
                    "deltaTime": 24,
                    "type": "channel",
                    "subtype": "noteOff",
                    "channel": 9,
                    "noteNumber": 51,
                    "velocity": 0,
                    "lightChannels": [
                        6,
                        7
                    ]
                }
            }
        }
    },
    {
        "changes": {
            "garage": 0,
            "garden": 0
        },
        "timeout": 0.14406763333333333,
        "raw": {
            "garage": {
                "pinValue": 0,
                "ticks": 5,
                "event": {
                    "deltaTime": 5,
                    "type": "channel",
                    "subtype": "noteOff",
                    "channel": 7,
                    "noteNumber": 52,
                    "velocity": 0,
                    "lightChannels": [
                        0,
                        8
                    ]
                }
            },
            "garden": {
                "pinValue": 0,
                "ticks": 5,
                "event": {
                    "deltaTime": 5,
                    "type": "channel",
                    "subtype": "noteOff",
                    "channel": 7,
                    "noteNumber": 52,
                    "velocity": 0,
                    "lightChannels": [
                        0,
                        8
                    ]
                }
            }
        }
    },
    {
        "changes": {
            "top-right": 1,
            "tree": 1,
            "window": 1,
            "outline": 1
        },
        "timeout": 0.0349575875,
        "raw": {
            "top-right": {
                "pinValue": 1,
                "ticks": 0,
                "event": {
                    "deltaTime": 0,
                    "type": "channel",
                    "subtype": "noteOn",
                    "channel": 7,
                    "noteNumber": 53,
                    "velocity": 113,
                    "lightChannels": [
                        1,
                        9
                    ]
                }
            },
            "tree": {
                "pinValue": 1,
                "ticks": 0,
                "event": {
                    "deltaTime": 0,
                    "type": "channel",
                    "subtype": "noteOn",
                    "channel": 7,
                    "noteNumber": 53,
                    "velocity": 113,
                    "lightChannels": [
                        1,
                        9
                    ]
                }
            },
            "window": {
                "pinValue": 1,
                "ticks": 0,
                "event": {
                    "deltaTime": 0,
                    "type": "channel",
                    "subtype": "noteOn",
                    "channel": 9,
                    "noteNumber": 51,
                    "velocity": 80,
                    "lightChannels": [
                        6,
                        7
                    ]
                }
            },
            "outline": {
                "pinValue": 1,
                "ticks": 0,
                "event": {
                    "deltaTime": 0,
                    "type": "channel",
                    "subtype": "noteOn",
                    "channel": 9,
                    "noteNumber": 51,
                    "velocity": 80,
                    "lightChannels": [
                        6,
                        7
                    ]
                }
            }
        }
    },
    {
        "changes": {
            "garage": 1,
            "top-right": 1,
            "bottom-right": 1
        },
        "timeout": 0.032838945833333334,
        "raw": {
            "garage": {
                "pinValue": 1,
                "ticks": 2,
                "event": {
                    "deltaTime": 2,
                    "type": "channel",
                    "subtype": "noteOn",
                    "channel": 1,
                    "noteNumber": 41,
                    "velocity": 121,
                    "lightChannels": [
                        0,
                        1,
                        2
                    ]
                }
            },
            "top-right": {
                "pinValue": 1,
                "ticks": 2,
                "event": {
                    "deltaTime": 2,
                    "type": "channel",
                    "subtype": "noteOn",
                    "channel": 1,
                    "noteNumber": 41,
                    "velocity": 121,
                    "lightChannels": [
                        0,
                        1,
                        2
                    ]
                }
            },
            "bottom-right": {
                "pinValue": 1,
                "ticks": 2,
                "event": {
                    "deltaTime": 2,
                    "type": "channel",
                    "subtype": "noteOn",
                    "channel": 1,
                    "noteNumber": 41,
                    "velocity": 121,
                    "lightChannels": [
                        0,
                        1,
                        2
                    ]
                }
            }
        }
    },
    {
        "changes": {
            "window": 0,
            "outline": 0
        },
        "timeout": 0.0254237,
        "raw": {
            "window": {
                "pinValue": 0,
                "ticks": 9,
                "event": {
                    "deltaTime": 9,
                    "type": "channel",
                    "subtype": "noteOff",
                    "channel": 9,
                    "noteNumber": 51,
                    "velocity": 0,
                    "lightChannels": [
                        6,
                        7
                    ]
                }
            },
            "outline": {
                "pinValue": 0,
                "ticks": 9,
                "event": {
                    "deltaTime": 9,
                    "type": "channel",
                    "subtype": "noteOff",
                    "channel": 9,
                    "noteNumber": 51,
                    "velocity": 0,
                    "lightChannels": [
                        6,
                        7
                    ]
                }
            }
        }
    },
    {
        "changes": {
            "top-right": 0,
            "tree": 0
        },
        "timeout": 0.11334732916666668,
        "raw": {
            "top-right": {
                "pinValue": 0,
                "ticks": 2,
                "event": {
                    "deltaTime": 2,
                    "type": "channel",
                    "subtype": "noteOff",
                    "channel": 7,
                    "noteNumber": 53,
                    "velocity": 0,
                    "lightChannels": [
                        1,
                        9
                    ]
                }
            },
            "tree": {
                "pinValue": 0,
                "ticks": 2,
                "event": {
                    "deltaTime": 2,
                    "type": "channel",
                    "subtype": "noteOff",
                    "channel": 7,
                    "noteNumber": 53,
                    "velocity": 0,
                    "lightChannels": [
                        1,
                        9
                    ]
                }
            }
        }
    },
    {
        "changes": {
            "garage": 0,
            "top-right": 0,
            "bottom-right": 0
        },
        "timeout": 0.059321966666666656,
        "raw": {
            "garage": {
                "pinValue": 0,
                "ticks": 56,
                "event": {
                    "deltaTime": 56,
                    "type": "channel",
                    "subtype": "noteOff",
                    "channel": 1,
                    "noteNumber": 41,
                    "velocity": 0,
                    "lightChannels": [
                        0,
                        1,
                        2
                    ]
                }
            },
            "top-right": {
                "pinValue": 0,
                "ticks": 56,
                "event": {
                    "deltaTime": 56,
                    "type": "channel",
                    "subtype": "noteOff",
                    "channel": 1,
                    "noteNumber": 41,
                    "velocity": 0,
                    "lightChannels": [
                        0,
                        1,
                        2
                    ]
                }
            },
            "bottom-right": {
                "pinValue": 0,
                "ticks": 56,
                "event": {
                    "deltaTime": 56,
                    "type": "channel",
                    "subtype": "noteOff",
                    "channel": 1,
                    "noteNumber": 41,
                    "velocity": 0,
                    "lightChannels": [
                        0,
                        1,
                        2
                    ]
                }
            }
        }
    },
    {
        "changes": {
            "window": 1,
            "outline": 1
        },
        "timeout": 0.03707622916666666,
        "raw": {
            "window": {
                "pinValue": 1,
                "ticks": 0,
                "event": {
                    "deltaTime": 0,
                    "type": "channel",
                    "subtype": "noteOn",
                    "channel": 9,
                    "noteNumber": 51,
                    "velocity": 85,
                    "lightChannels": [
                        6,
                        7
                    ]
                }
            },
            "outline": {
                "pinValue": 1,
                "ticks": 0,
                "event": {
                    "deltaTime": 0,
                    "type": "channel",
                    "subtype": "noteOn",
                    "channel": 9,
                    "noteNumber": 51,
                    "velocity": 85,
                    "lightChannels": [
                        6,
                        7
                    ]
                }
            }
        }
    },
    {
        "changes": {
            "garage": 1,
            "col-1": 1
        },
        "timeout": 0.0031779624999999996,
        "raw": {
            "garage": {
                "pinValue": 1,
                "ticks": 3,
                "event": {
                    "deltaTime": 3,
                    "type": "channel",
                    "subtype": "noteOn",
                    "channel": 7,
                    "noteNumber": 46,
                    "velocity": 114,
                    "lightChannels": [
                        0,
                        3
                    ]
                }
            },
            "col-1": {
                "pinValue": 1,
                "ticks": 3,
                "event": {
                    "deltaTime": 3,
                    "type": "channel",
                    "subtype": "noteOn",
                    "channel": 7,
                    "noteNumber": 46,
                    "velocity": 114,
                    "lightChannels": [
                        0,
                        3
                    ]
                }
            }
        }
    },
    {
        "changes": {
            "garage": 1
        },
        "timeout": 0.02012709583333333,
        "raw": {
            "garage": {
                "pinValue": 1,
                "ticks": 5,
                "event": {
                    "deltaTime": 5,
                    "type": "channel",
                    "subtype": "noteOn",
                    "channel": 1,
                    "noteNumber": 34,
                    "velocity": 108,
                    "lightChannels": [
                        0
                    ]
                }
            }
        }
    },
    {
        "changes": {
            "window": 0,
            "outline": 0
        },
        "timeout": 0.03495758749999999,
        "raw": {
            "window": {
                "pinValue": 0,
                "ticks": 31,
                "event": {
                    "deltaTime": 31,
                    "type": "channel",
                    "subtype": "noteOff",
                    "channel": 9,
                    "noteNumber": 51,
                    "velocity": 0,
                    "lightChannels": [
                        6,
                        7
                    ]
                }
            },
            "outline": {
                "pinValue": 0,
                "ticks": 31,
                "event": {
                    "deltaTime": 31,
                    "type": "channel",
                    "subtype": "noteOff",
                    "channel": 9,
                    "noteNumber": 51,
                    "velocity": 0,
                    "lightChannels": [
                        6,
                        7
                    ]
                }
            }
        }
    },
    {
        "changes": {
            "window": 1,
            "outline": 1
        },
        "timeout": 0.2044489208333333,
        "raw": {
            "window": {
                "pinValue": 1,
                "ticks": 193,
                "event": {
                    "deltaTime": 193,
                    "type": "channel",
                    "subtype": "noteOn",
                    "channel": 9,
                    "noteNumber": 51,
                    "velocity": 75,
                    "lightChannels": [
                        6,
                        7
                    ]
                }
            },
            "outline": {
                "pinValue": 1,
                "ticks": 193,
                "event": {
                    "deltaTime": 193,
                    "type": "channel",
                    "subtype": "noteOn",
                    "channel": 9,
                    "noteNumber": 51,
                    "velocity": 75,
                    "lightChannels": [
                        6,
                        7
                    ]
                }
            }
        }
    },
    {
        "changes": {
            "window": 0,
            "outline": 0
        },
        "timeout": 0.06673721249999999,
        "raw": {
            "window": {
                "pinValue": 0,
                "ticks": 35,
                "event": {
                    "deltaTime": 35,
                    "type": "channel",
                    "subtype": "noteOff",
                    "channel": 9,
                    "noteNumber": 51,
                    "velocity": 0,
                    "lightChannels": [
                        6,
                        7
                    ]
                }
            },
            "outline": {
                "pinValue": 0,
                "ticks": 35,
                "event": {
                    "deltaTime": 35,
                    "type": "channel",
                    "subtype": "noteOff",
                    "channel": 9,
                    "noteNumber": 51,
                    "velocity": 0,
                    "lightChannels": [
                        6,
                        7
                    ]
                }
            }
        }
    },
    {
        "changes": {
            "garage": 0,
            "col-1": 0
        },
        "timeout": 0.06779653333333333,
        "raw": {
            "garage": {
                "pinValue": 0,
                "ticks": 22,
                "event": {
                    "deltaTime": 22,
                    "type": "channel",
                    "subtype": "noteOff",
                    "channel": 7,
                    "noteNumber": 46,
                    "velocity": 0,
                    "lightChannels": [
                        0,
                        3
                    ]
                }
            },
            "col-1": {
                "pinValue": 0,
                "ticks": 22,
                "event": {
                    "deltaTime": 22,
                    "type": "channel",
                    "subtype": "noteOff",
                    "channel": 7,
                    "noteNumber": 46,
                    "velocity": 0,
                    "lightChannels": [
                        0,
                        3
                    ]
                }
            }
        }
    },
    {
        "changes": {
            "garage": 0
        },
        "timeout": 0.06144060833333333,
        "raw": {
            "garage": {
                "pinValue": 0,
                "ticks": 44,
                "event": {
                    "deltaTime": 44,
                    "type": "channel",
                    "subtype": "noteOff",
                    "channel": 1,
                    "noteNumber": 34,
                    "velocity": 0,
                    "lightChannels": [
                        0
                    ]
                }
            }
        }
    },
    {
        "changes": {
            "top-right": 1,
            "col-2": 1
        },
        "timeout": 0.05720332499999999,
        "raw": {
            "top-right": {
                "pinValue": 1,
                "ticks": 13,
                "event": {
                    "deltaTime": 13,
                    "type": "channel",
                    "subtype": "noteOn",
                    "channel": 7,
                    "noteNumber": 50,
                    "velocity": 122,
                    "lightChannels": [
                        1,
                        4
                    ]
                }
            },
            "col-2": {
                "pinValue": 1,
                "ticks": 13,
                "event": {
                    "deltaTime": 13,
                    "type": "channel",
                    "subtype": "noteOn",
                    "channel": 7,
                    "noteNumber": 50,
                    "velocity": 122,
                    "lightChannels": [
                        1,
                        4
                    ]
                }
            }
        }
    },
    {
        "changes": {
            "window": 1,
            "outline": 1
        },
        "timeout": 0.0095338875,
        "raw": {
            "window": {
                "pinValue": 1,
                "ticks": 8,
                "event": {
                    "deltaTime": 8,
                    "type": "channel",
                    "subtype": "noteOn",
                    "channel": 9,
                    "noteNumber": 51,
                    "velocity": 85,
                    "lightChannels": [
                        6,
                        7
                    ]
                }
            },
            "outline": {
                "pinValue": 1,
                "ticks": 8,
                "event": {
                    "deltaTime": 8,
                    "type": "channel",
                    "subtype": "noteOn",
                    "channel": 9,
                    "noteNumber": 51,
                    "velocity": 85,
                    "lightChannels": [
                        6,
                        7
                    ]
                }
            }
        }
    },
    {
        "changes": {
            "top-right": 1
        },
        "timeout": 0.010593208333333333,
        "raw": {
            "top-right": {
                "pinValue": 1,
                "ticks": 10,
                "event": {
                    "deltaTime": 10,
                    "type": "channel",
                    "subtype": "noteOn",
                    "channel": 1,
                    "noteNumber": 38,
                    "velocity": 119,
                    "lightChannels": [
                        1
                    ]
                }
            }
        }
    },
    {
        "changes": {
            "window": 0,
            "outline": 0
        },
        "timeout": 0.056144004166666664,
        "raw": {
            "window": {
                "pinValue": 0,
                "ticks": 38,
                "event": {
                    "deltaTime": 38,
                    "type": "channel",
                    "subtype": "noteOff",
                    "channel": 9,
                    "noteNumber": 51,
                    "velocity": 0,
                    "lightChannels": [
                        6,
                        7
                    ]
                }
            },
            "outline": {
                "pinValue": 0,
                "ticks": 38,
                "event": {
                    "deltaTime": 38,
                    "type": "channel",
                    "subtype": "noteOff",
                    "channel": 9,
                    "noteNumber": 51,
                    "velocity": 0,
                    "lightChannels": [
                        6,
                        7
                    ]
                }
            }
        }
    },
    {
        "changes": {
            "window": 1,
            "outline": 1
        },
        "timeout": 0.1949150333333333,
        "raw": {
            "window": {
                "pinValue": 1,
                "ticks": 1,
                "event": {
                    "deltaTime": 1,
                    "type": "channel",
                    "subtype": "noteOn",
                    "channel": 9,
                    "noteNumber": 51,
                    "velocity": 74,
                    "lightChannels": [
                        6,
                        7
                    ]
                }
            },
            "outline": {
                "pinValue": 1,
                "ticks": 1,
                "event": {
                    "deltaTime": 1,
                    "type": "channel",
                    "subtype": "noteOn",
                    "channel": 9,
                    "noteNumber": 51,
                    "velocity": 74,
                    "lightChannels": [
                        6,
                        7
                    ]
                }
            }
        }
    },
    {
        "changes": {
            "window": 0,
            "outline": 0
        },
        "timeout": 0.05296604166666666,
        "raw": {
            "window": {
                "pinValue": 0,
                "ticks": 34,
                "event": {
                    "deltaTime": 34,
                    "type": "channel",
                    "subtype": "noteOff",
                    "channel": 9,
                    "noteNumber": 51,
                    "velocity": 0,
                    "lightChannels": [
                        6,
                        7
                    ]
                }
            },
            "outline": {
                "pinValue": 0,
                "ticks": 34,
                "event": {
                    "deltaTime": 34,
                    "type": "channel",
                    "subtype": "noteOff",
                    "channel": 9,
                    "noteNumber": 51,
                    "velocity": 0,
                    "lightChannels": [
                        6,
                        7
                    ]
                }
            }
        }
    },
    {
        "changes": {
            "top-right": 0
        },
        "timeout": 0.0730931375,
        "raw": {
            "top-right": {
                "pinValue": 0,
                "ticks": 9,
                "event": {
                    "deltaTime": 9,
                    "type": "channel",
                    "subtype": "noteOff",
                    "channel": 1,
                    "noteNumber": 38,
                    "velocity": 0,
                    "lightChannels": [
                        1
                    ]
                }
            }
        }
    },
    {
        "changes": {
            "top-right": 0,
            "col-2": 0
        },
        "timeout": 0.012711849999999998,
        "raw": {
            "top-right": {
                "pinValue": 0,
                "ticks": 9,
                "event": {
                    "deltaTime": 9,
                    "type": "channel",
                    "subtype": "noteOff",
                    "channel": 7,
                    "noteNumber": 50,
                    "velocity": 0,
                    "lightChannels": [
                        1,
                        4
                    ]
                }
            },
            "col-2": {
                "pinValue": 0,
                "ticks": 9,
                "event": {
                    "deltaTime": 9,
                    "type": "channel",
                    "subtype": "noteOff",
                    "channel": 7,
                    "noteNumber": 50,
                    "velocity": 0,
                    "lightChannels": [
                        1,
                        4
                    ]
                }
            }
        }
    },
    {
        "changes": {
            "bottom-right": 1,
            "col-3": 1
        },
        "timeout": 0.09957615833333332,
        "raw": {
            "bottom-right": {
                "pinValue": 1,
                "ticks": 0,
                "event": {
                    "deltaTime": 0,
                    "type": "channel",
                    "subtype": "noteOn",
                    "channel": 7,
                    "noteNumber": 51,
                    "velocity": 122,
                    "lightChannels": [
                        2,
                        5
                    ]
                }
            },
            "col-3": {
                "pinValue": 1,
                "ticks": 0,
                "event": {
                    "deltaTime": 0,
                    "type": "channel",
                    "subtype": "noteOn",
                    "channel": 7,
                    "noteNumber": 51,
                    "velocity": 122,
                    "lightChannels": [
                        2,
                        5
                    ]
                }
            }
        }
    },
    {
        "changes": {
            "window": 1,
            "outline": 1
        },
        "timeout": 0.012711849999999998,
        "raw": {
            "window": {
                "pinValue": 1,
                "ticks": 4,
                "event": {
                    "deltaTime": 4,
                    "type": "channel",
                    "subtype": "noteOn",
                    "channel": 9,
                    "noteNumber": 51,
                    "velocity": 79,
                    "lightChannels": [
                        6,
                        7
                    ]
                }
            },
            "outline": {
                "pinValue": 1,
                "ticks": 4,
                "event": {
                    "deltaTime": 4,
                    "type": "channel",
                    "subtype": "noteOn",
                    "channel": 9,
                    "noteNumber": 51,
                    "velocity": 79,
                    "lightChannels": [
                        6,
                        7
                    ]
                }
            }
        }
    },
    {
        "changes": {
            "window": 0,
            "outline": 0
        },
        "timeout": 0.06461857083333333,
        "raw": {
            "window": {
                "pinValue": 0,
                "ticks": 14,
                "event": {
                    "deltaTime": 14,
                    "type": "channel",
                    "subtype": "noteOff",
                    "channel": 9,
                    "noteNumber": 51,
                    "velocity": 0,
                    "lightChannels": [
                        6,
                        7
                    ]
                }
            },
            "outline": {
                "pinValue": 0,
                "ticks": 14,
                "event": {
                    "deltaTime": 14,
                    "type": "channel",
                    "subtype": "noteOff",
                    "channel": 9,
                    "noteNumber": 51,
                    "velocity": 0,
                    "lightChannels": [
                        6,
                        7
                    ]
                }
            }
        }
    },
    {
        "changes": {
            "window": 1,
            "outline": 1
        },
        "timeout": 0.1758472583333333,
        "raw": {
            "window": {
                "pinValue": 1,
                "ticks": 52,
                "event": {
                    "deltaTime": 52,
                    "type": "channel",
                    "subtype": "noteOn",
                    "channel": 9,
                    "noteNumber": 51,
                    "velocity": 74,
                    "lightChannels": [
                        6,
                        7
                    ]
                }
            },
            "outline": {
                "pinValue": 1,
                "ticks": 52,
                "event": {
                    "deltaTime": 52,
                    "type": "channel",
                    "subtype": "noteOn",
                    "channel": 9,
                    "noteNumber": 51,
                    "velocity": 74,
                    "lightChannels": [
                        6,
                        7
                    ]
                }
            }
        }
    },
    {
        "changes": {
            "bottom-right": 0
        },
        "timeout": 0.009533887499999998,
        "raw": {
            "bottom-right": {
                "pinValue": 0,
                "ticks": 2,
                "event": {
                    "deltaTime": 2,
                    "type": "channel",
                    "subtype": "noteOff",
                    "channel": 1,
                    "noteNumber": 39,
                    "velocity": 0,
                    "lightChannels": [
                        2
                    ]
                }
            }
        }
    },
    {
        "changes": {
            "bottom-right": 0,
            "col-3": 0
        },
        "timeout": 0.013771170833333332,
        "raw": {
            "bottom-right": {
                "pinValue": 0,
                "ticks": 4,
                "event": {
                    "deltaTime": 4,
                    "type": "channel",
                    "subtype": "noteOff",
                    "channel": 7,
                    "noteNumber": 51,
                    "velocity": 0,
                    "lightChannels": [
                        2,
                        5
                    ]
                }
            },
            "col-3": {
                "pinValue": 0,
                "ticks": 4,
                "event": {
                    "deltaTime": 4,
                    "type": "channel",
                    "subtype": "noteOff",
                    "channel": 7,
                    "noteNumber": 51,
                    "velocity": 0,
                    "lightChannels": [
                        2,
                        5
                    ]
                }
            }
        }
    },
    {
        "changes": {
            "window": 0,
            "outline": 0
        },
        "timeout": 0.0254237,
        "raw": {
            "window": {
                "pinValue": 0,
                "ticks": 4,
                "event": {
                    "deltaTime": 4,
                    "type": "channel",
                    "subtype": "noteOff",
                    "channel": 9,
                    "noteNumber": 51,
                    "velocity": 0,
                    "lightChannels": [
                        6,
                        7
                    ]
                }
            },
            "outline": {
                "pinValue": 0,
                "ticks": 4,
                "event": {
                    "deltaTime": 4,
                    "type": "channel",
                    "subtype": "noteOff",
                    "channel": 9,
                    "noteNumber": 51,
                    "velocity": 0,
                    "lightChannels": [
                        6,
                        7
                    ]
                }
            }
        }
    },
    {
        "changes": {
            "window": 1,
            "outline": 1
        },
        "timeout": 0.1790252208333333,
        "raw": {
            "window": {
                "pinValue": 1,
                "ticks": 14,
                "event": {
                    "deltaTime": 14,
                    "type": "channel",
                    "subtype": "noteOn",
                    "channel": 9,
                    "noteNumber": 51,
                    "velocity": 80,
                    "lightChannels": [
                        6,
                        7
                    ]
                }
            },
            "outline": {
                "pinValue": 1,
                "ticks": 14,
                "event": {
                    "deltaTime": 14,
                    "type": "channel",
                    "subtype": "noteOn",
                    "channel": 9,
                    "noteNumber": 51,
                    "velocity": 80,
                    "lightChannels": [
                        6,
                        7
                    ]
                }
            }
        }
    },
    {
        "changes": {
            "garage": 1,
            "garden": 1
        },
        "timeout": 0.022245737499999998,
        "raw": {
            "garage": {
                "pinValue": 1,
                "ticks": 18,
                "event": {
                    "deltaTime": 18,
                    "type": "channel",
                    "subtype": "noteOn",
                    "channel": 7,
                    "noteNumber": 52,
                    "velocity": 112,
                    "lightChannels": [
                        0,
                        8
                    ]
                }
            },
            "garden": {
                "pinValue": 1,
                "ticks": 18,
                "event": {
                    "deltaTime": 18,
                    "type": "channel",
                    "subtype": "noteOn",
                    "channel": 7,
                    "noteNumber": 52,
                    "velocity": 112,
                    "lightChannels": [
                        0,
                        8
                    ]
                }
            }
        }
    },
    {
        "changes": {
            "window": 0,
            "outline": 0
        },
        "timeout": 0.036016908333333326,
        "raw": {
            "window": {
                "pinValue": 0,
                "ticks": 6,
                "event": {
                    "deltaTime": 6,
                    "type": "channel",
                    "subtype": "noteOff",
                    "channel": 9,
                    "noteNumber": 51,
                    "velocity": 0,
                    "lightChannels": [
                        6,
                        7
                    ]
                }
            },
            "outline": {
                "pinValue": 0,
                "ticks": 6,
                "event": {
                    "deltaTime": 6,
                    "type": "channel",
                    "subtype": "noteOff",
                    "channel": 9,
                    "noteNumber": 51,
                    "velocity": 0,
                    "lightChannels": [
                        6,
                        7
                    ]
                }
            }
        }
    },
    {
        "changes": {
            "garage": 0,
            "garden": 0
        },
        "timeout": 0.20127095833333328,
        "raw": {
            "garage": {
                "pinValue": 0,
                "ticks": 10,
                "event": {
                    "deltaTime": 10,
                    "type": "channel",
                    "subtype": "noteOff",
                    "channel": 7,
                    "noteNumber": 52,
                    "velocity": 0,
                    "lightChannels": [
                        0,
                        8
                    ]
                }
            },
            "garden": {
                "pinValue": 0,
                "ticks": 10,
                "event": {
                    "deltaTime": 10,
                    "type": "channel",
                    "subtype": "noteOff",
                    "channel": 7,
                    "noteNumber": 52,
                    "velocity": 0,
                    "lightChannels": [
                        0,
                        8
                    ]
                }
            }
        }
    },
    {
        "changes": {
            "window": 1,
            "outline": 1
        },
        "timeout": 0.008474566666666666,
        "raw": {
            "window": {
                "pinValue": 1,
                "ticks": 8,
                "event": {
                    "deltaTime": 8,
                    "type": "channel",
                    "subtype": "noteOn",
                    "channel": 9,
                    "noteNumber": 51,
                    "velocity": 83,
                    "lightChannels": [
                        6,
                        7
                    ]
                }
            },
            "outline": {
                "pinValue": 1,
                "ticks": 8,
                "event": {
                    "deltaTime": 8,
                    "type": "channel",
                    "subtype": "noteOn",
                    "channel": 9,
                    "noteNumber": 51,
                    "velocity": 83,
                    "lightChannels": [
                        6,
                        7
                    ]
                }
            }
        }
    },
    {
        "changes": {
            "garage": 1,
            "top-right": 1,
            "bottom-right": 1
        },
        "timeout": 0.013771170833333332,
        "raw": {
            "garage": {
                "pinValue": 1,
                "ticks": 7,
                "event": {
                    "deltaTime": 7,
                    "type": "channel",
                    "subtype": "noteOn",
                    "channel": 1,
                    "noteNumber": 41,
                    "velocity": 119,
                    "lightChannels": [
                        0,
                        1,
                        2
                    ]
                }
            },
            "top-right": {
                "pinValue": 1,
                "ticks": 7,
                "event": {
                    "deltaTime": 7,
                    "type": "channel",
                    "subtype": "noteOn",
                    "channel": 1,
                    "noteNumber": 41,
                    "velocity": 119,
                    "lightChannels": [
                        0,
                        1,
                        2
                    ]
                }
            },
            "bottom-right": {
                "pinValue": 1,
                "ticks": 7,
                "event": {
                    "deltaTime": 7,
                    "type": "channel",
                    "subtype": "noteOn",
                    "channel": 1,
                    "noteNumber": 41,
                    "velocity": 119,
                    "lightChannels": [
                        0,
                        1,
                        2
                    ]
                }
            }
        }
    },
    {
        "changes": {
            "top-right": 1,
            "tree": 1
        },
        "timeout": 0.029660983333333335,
        "raw": {
            "top-right": {
                "pinValue": 1,
                "ticks": 4,
                "event": {
                    "deltaTime": 4,
                    "type": "channel",
                    "subtype": "noteOn",
                    "channel": 7,
                    "noteNumber": 53,
                    "velocity": 113,
                    "lightChannels": [
                        1,
                        9
                    ]
                }
            },
            "tree": {
                "pinValue": 1,
                "ticks": 4,
                "event": {
                    "deltaTime": 4,
                    "type": "channel",
                    "subtype": "noteOn",
                    "channel": 7,
                    "noteNumber": 53,
                    "velocity": 113,
                    "lightChannels": [
                        1,
                        9
                    ]
                }
            }
        }
    },
    {
        "changes": {
            "window": 0,
            "outline": 0
        },
        "timeout": 0.013771170833333332,
        "raw": {
            "window": {
                "pinValue": 0,
                "ticks": 13,
                "event": {
                    "deltaTime": 13,
                    "type": "channel",
                    "subtype": "noteOff",
                    "channel": 9,
                    "noteNumber": 51,
                    "velocity": 0,
                    "lightChannels": [
                        6,
                        7
                    ]
                }
            },
            "outline": {
                "pinValue": 0,
                "ticks": 13,
                "event": {
                    "deltaTime": 13,
                    "type": "channel",
                    "subtype": "noteOff",
                    "channel": 9,
                    "noteNumber": 51,
                    "velocity": 0,
                    "lightChannels": [
                        6,
                        7
                    ]
                }
            }
        }
    },
    {
        "changes": {
            "top-right": 0,
            "tree": 0
        },
        "timeout": 0.15783880416666665,
        "raw": {
            "top-right": {
                "pinValue": 0,
                "ticks": 41,
                "event": {
                    "deltaTime": 41,
                    "type": "channel",
                    "subtype": "noteOff",
                    "channel": 7,
                    "noteNumber": 53,
                    "velocity": 0,
                    "lightChannels": [
                        1,
                        9
                    ]
                }
            },
            "tree": {
                "pinValue": 0,
                "ticks": 41,
                "event": {
                    "deltaTime": 41,
                    "type": "channel",
                    "subtype": "noteOff",
                    "channel": 7,
                    "noteNumber": 53,
                    "velocity": 0,
                    "lightChannels": [
                        1,
                        9
                    ]
                }
            }
        }
    },
    {
        "changes": {
            "garage": 0,
            "top-right": 0,
            "bottom-right": 0
        },
        "timeout": 0.008474566666666666,
        "raw": {
            "garage": {
                "pinValue": 0,
                "ticks": 8,
                "event": {
                    "deltaTime": 8,
                    "type": "channel",
                    "subtype": "noteOff",
                    "channel": 1,
                    "noteNumber": 41,
                    "velocity": 0,
                    "lightChannels": [
                        0,
                        1,
                        2
                    ]
                }
            },
            "top-right": {
                "pinValue": 0,
                "ticks": 8,
                "event": {
                    "deltaTime": 8,
                    "type": "channel",
                    "subtype": "noteOff",
                    "channel": 1,
                    "noteNumber": 41,
                    "velocity": 0,
                    "lightChannels": [
                        0,
                        1,
                        2
                    ]
                }
            },
            "bottom-right": {
                "pinValue": 0,
                "ticks": 8,
                "event": {
                    "deltaTime": 8,
                    "type": "channel",
                    "subtype": "noteOff",
                    "channel": 1,
                    "noteNumber": 41,
                    "velocity": 0,
                    "lightChannels": [
                        0,
                        1,
                        2
                    ]
                }
            }
        }
    },
    {
        "changes": {
            "window": 1,
            "outline": 1
        },
        "timeout": 0.05190672083333333,
        "raw": {
            "window": {
                "pinValue": 1,
                "ticks": 49,
                "event": {
                    "deltaTime": 49,
                    "type": "channel",
                    "subtype": "noteOn",
                    "channel": 9,
                    "noteNumber": 51,
                    "velocity": 84,
                    "lightChannels": [
                        6,
                        7
                    ]
                }
            },
            "outline": {
                "pinValue": 1,
                "ticks": 49,
                "event": {
                    "deltaTime": 49,
                    "type": "channel",
                    "subtype": "noteOn",
                    "channel": 9,
                    "noteNumber": 51,
                    "velocity": 84,
                    "lightChannels": [
                        6,
                        7
                    ]
                }
            }
        }
    },
    {
        "changes": {
            "garage": 1
        },
        "timeout": 0.019067775,
        "raw": {
            "garage": {
                "pinValue": 1,
                "ticks": 2,
                "event": {
                    "deltaTime": 2,
                    "type": "channel",
                    "subtype": "noteOn",
                    "channel": 1,
                    "noteNumber": 34,
                    "velocity": 126,
                    "lightChannels": [
                        0
                    ]
                }
            }
        }
    },
    {
        "changes": {
            "garage": 1,
            "col-1": 1
        },
        "timeout": 0.010593208333333333,
        "raw": {
            "garage": {
                "pinValue": 1,
                "ticks": 10,
                "event": {
                    "deltaTime": 10,
                    "type": "channel",
                    "subtype": "noteOn",
                    "channel": 7,
                    "noteNumber": 46,
                    "velocity": 114,
                    "lightChannels": [
                        0,
                        3
                    ]
                }
            },
            "col-1": {
                "pinValue": 1,
                "ticks": 10,
                "event": {
                    "deltaTime": 10,
                    "type": "channel",
                    "subtype": "noteOn",
                    "channel": 7,
                    "noteNumber": 46,
                    "velocity": 114,
                    "lightChannels": [
                        0,
                        3
                    ]
                }
            }
        }
    },
    {
        "changes": {
            "window": 0,
            "outline": 0
        },
        "timeout": 0.02648302083333333,
        "raw": {
            "window": {
                "pinValue": 0,
                "ticks": 22,
                "event": {
                    "deltaTime": 22,
                    "type": "channel",
                    "subtype": "noteOff",
                    "channel": 9,
                    "noteNumber": 51,
                    "velocity": 0,
                    "lightChannels": [
                        6,
                        7
                    ]
                }
            },
            "outline": {
                "pinValue": 0,
                "ticks": 22,
                "event": {
                    "deltaTime": 22,
                    "type": "channel",
                    "subtype": "noteOff",
                    "channel": 9,
                    "noteNumber": 51,
                    "velocity": 0,
                    "lightChannels": [
                        6,
                        7
                    ]
                }
            }
        }
    },
    {
        "changes": {
            "window": 1,
            "outline": 1
        },
        "timeout": 0.20974552499999996,
        "raw": {
            "window": {
                "pinValue": 1,
                "ticks": 0,
                "event": {
                    "deltaTime": 0,
                    "type": "channel",
                    "subtype": "noteOn",
                    "channel": 9,
                    "noteNumber": 51,
                    "velocity": 87,
                    "lightChannels": [
                        6,
                        7
                    ]
                }
            },
            "outline": {
                "pinValue": 1,
                "ticks": 0,
                "event": {
                    "deltaTime": 0,
                    "type": "channel",
                    "subtype": "noteOn",
                    "channel": 9,
                    "noteNumber": 51,
                    "velocity": 87,
                    "lightChannels": [
                        6,
                        7
                    ]
                }
            }
        }
    },
    {
        "changes": {
            "window": 0,
            "outline": 0
        },
        "timeout": 0.05932196666666666,
        "raw": {
            "window": {
                "pinValue": 0,
                "ticks": 33,
                "event": {
                    "deltaTime": 33,
                    "type": "channel",
                    "subtype": "noteOff",
                    "channel": 9,
                    "noteNumber": 51,
                    "velocity": 0,
                    "lightChannels": [
                        6,
                        7
                    ]
                }
            },
            "outline": {
                "pinValue": 0,
                "ticks": 33,
                "event": {
                    "deltaTime": 33,
                    "type": "channel",
                    "subtype": "noteOff",
                    "channel": 9,
                    "noteNumber": 51,
                    "velocity": 0,
                    "lightChannels": [
                        6,
                        7
                    ]
                }
            }
        }
    },
    {
        "changes": {
            "garage": 0,
            "col-1": 0
        },
        "timeout": 0.06673721249999999,
        "raw": {
            "garage": {
                "pinValue": 0,
                "ticks": 0,
                "event": {
                    "deltaTime": 0,
                    "type": "channel",
                    "subtype": "noteOff",
                    "channel": 7,
                    "noteNumber": 46,
                    "velocity": 0,
                    "lightChannels": [
                        0,
                        3
                    ]
                }
            },
            "col-1": {
                "pinValue": 0,
                "ticks": 0,
                "event": {
                    "deltaTime": 0,
                    "type": "channel",
                    "subtype": "noteOff",
                    "channel": 7,
                    "noteNumber": 46,
                    "velocity": 0,
                    "lightChannels": [
                        0,
                        3
                    ]
                }
            }
        }
    },
    {
        "changes": {
            "garage": 0
        },
        "timeout": 0.056144004166666664,
        "raw": {
            "garage": {
                "pinValue": 0,
                "ticks": 40,
                "event": {
                    "deltaTime": 40,
                    "type": "channel",
                    "subtype": "noteOff",
                    "channel": 1,
                    "noteNumber": 34,
                    "velocity": 0,
                    "lightChannels": [
                        0
                    ]
                }
            }
        }
    },
    {
        "changes": {
            "top-right": 1,
            "col-2": 1
        },
        "timeout": 0.05826264583333333,
        "raw": {
            "top-right": {
                "pinValue": 1,
                "ticks": 2,
                "event": {
                    "deltaTime": 2,
                    "type": "channel",
                    "subtype": "noteOn",
                    "channel": 7,
                    "noteNumber": 50,
                    "velocity": 113,
                    "lightChannels": [
                        1,
                        4
                    ]
                }
            },
            "col-2": {
                "pinValue": 1,
                "ticks": 2,
                "event": {
                    "deltaTime": 2,
                    "type": "channel",
                    "subtype": "noteOn",
                    "channel": 7,
                    "noteNumber": 50,
                    "velocity": 113,
                    "lightChannels": [
                        1,
                        4
                    ]
                }
            }
        }
    },
    {
        "changes": {
            "window": 1,
            "outline": 1
        },
        "timeout": 0.022245737499999994,
        "raw": {
            "window": {
                "pinValue": 1,
                "ticks": 4,
                "event": {
                    "deltaTime": 4,
                    "type": "channel",
                    "subtype": "noteOn",
                    "channel": 9,
                    "noteNumber": 51,
                    "velocity": 81,
                    "lightChannels": [
                        6,
                        7
                    ]
                }
            },
            "outline": {
                "pinValue": 1,
                "ticks": 4,
                "event": {
                    "deltaTime": 4,
                    "type": "channel",
                    "subtype": "noteOn",
                    "channel": 9,
                    "noteNumber": 51,
                    "velocity": 81,
                    "lightChannels": [
                        6,
                        7
                    ]
                }
            }
        }
    },
    {
        "changes": {
            "top-right": 1
        },
        "timeout": 0.02330505833333333,
        "raw": {
            "top-right": {
                "pinValue": 1,
                "ticks": 6,
                "event": {
                    "deltaTime": 6,
                    "type": "channel",
                    "subtype": "noteOn",
                    "channel": 1,
                    "noteNumber": 38,
                    "velocity": 111,
                    "lightChannels": [
                        1
                    ]
                }
            }
        }
    },
    {
        "changes": {
            "window": 0,
            "outline": 0
        },
        "timeout": 0.03813555,
        "raw": {
            "window": {
                "pinValue": 0,
                "ticks": 36,
                "event": {
                    "deltaTime": 36,
                    "type": "channel",
                    "subtype": "noteOff",
                    "channel": 9,
                    "noteNumber": 51,
                    "velocity": 0,
                    "lightChannels": [
                        6,
                        7
                    ]
                }
            },
            "outline": {
                "pinValue": 0,
                "ticks": 36,
                "event": {
                    "deltaTime": 36,
                    "type": "channel",
                    "subtype": "noteOff",
                    "channel": 9,
                    "noteNumber": 51,
                    "velocity": 0,
                    "lightChannels": [
                        6,
                        7
                    ]
                }
            }
        }
    },
    {
        "changes": {
            "window": 1,
            "outline": 1
        },
        "timeout": 0.17584725833333328,
        "raw": {
            "window": {
                "pinValue": 1,
                "ticks": 0,
                "event": {
                    "deltaTime": 0,
                    "type": "channel",
                    "subtype": "noteOn",
                    "channel": 9,
                    "noteNumber": 51,
                    "velocity": 87,
                    "lightChannels": [
                        6,
                        7
                    ]
                }
            },
            "outline": {
                "pinValue": 1,
                "ticks": 0,
                "event": {
                    "deltaTime": 0,
                    "type": "channel",
                    "subtype": "noteOn",
                    "channel": 9,
                    "noteNumber": 51,
                    "velocity": 87,
                    "lightChannels": [
                        6,
                        7
                    ]
                }
            }
        }
    },
    {
        "changes": {
            "window": 0,
            "outline": 0
        },
        "timeout": 0.05402536249999999,
        "raw": {
            "window": {
                "pinValue": 0,
                "ticks": 25,
                "event": {
                    "deltaTime": 25,
                    "type": "channel",
                    "subtype": "noteOff",
                    "channel": 9,
                    "noteNumber": 51,
                    "velocity": 0,
                    "lightChannels": [
                        6,
                        7
                    ]
                }
            },
            "outline": {
                "pinValue": 0,
                "ticks": 25,
                "event": {
                    "deltaTime": 25,
                    "type": "channel",
                    "subtype": "noteOff",
                    "channel": 9,
                    "noteNumber": 51,
                    "velocity": 0,
                    "lightChannels": [
                        6,
                        7
                    ]
                }
            }
        }
    },
    {
        "changes": {
            "top-right": 0,
            "col-2": 0
        },
        "timeout": 0.07733042083333334,
        "raw": {
            "top-right": {
                "pinValue": 0,
                "ticks": 0,
                "event": {
                    "deltaTime": 0,
                    "type": "channel",
                    "subtype": "noteOff",
                    "channel": 7,
                    "noteNumber": 50,
                    "velocity": 0,
                    "lightChannels": [
                        1,
                        4
                    ]
                }
            },
            "col-2": {
                "pinValue": 0,
                "ticks": 0,
                "event": {
                    "deltaTime": 0,
                    "type": "channel",
                    "subtype": "noteOff",
                    "channel": 7,
                    "noteNumber": 50,
                    "velocity": 0,
                    "lightChannels": [
                        1,
                        4
                    ]
                }
            }
        }
    },
    {
        "changes": {
            "top-right": 0
        },
        "timeout": 0.018008454166666667,
        "raw": {
            "top-right": {
                "pinValue": 0,
                "ticks": 12,
                "event": {
                    "deltaTime": 12,
                    "type": "channel",
                    "subtype": "noteOff",
                    "channel": 1,
                    "noteNumber": 38,
                    "velocity": 0,
                    "lightChannels": [
                        1
                    ]
                }
            }
        }
    },
    {
        "changes": {
            "bottom-right": 1,
            "col-3": 1
        },
        "timeout": 0.08368634583333333,
        "raw": {
            "bottom-right": {
                "pinValue": 1,
                "ticks": 1,
                "event": {
                    "deltaTime": 1,
                    "type": "channel",
                    "subtype": "noteOn",
                    "channel": 7,
                    "noteNumber": 51,
                    "velocity": 127,
                    "lightChannels": [
                        2,
                        5
                    ]
                }
            },
            "col-3": {
                "pinValue": 1,
                "ticks": 1,
                "event": {
                    "deltaTime": 1,
                    "type": "channel",
                    "subtype": "noteOn",
                    "channel": 7,
                    "noteNumber": 51,
                    "velocity": 127,
                    "lightChannels": [
                        2,
                        5
                    ]
                }
            }
        }
    },
    {
        "changes": {
            "window": 1,
            "outline": 1
        },
        "timeout": 0.011652529166666665,
        "raw": {
            "window": {
                "pinValue": 1,
                "ticks": 8,
                "event": {
                    "deltaTime": 8,
                    "type": "channel",
                    "subtype": "noteOn",
                    "channel": 9,
                    "noteNumber": 51,
                    "velocity": 98,
                    "lightChannels": [
                        6,
                        7
                    ]
                }
            },
            "outline": {
                "pinValue": 1,
                "ticks": 8,
                "event": {
                    "deltaTime": 8,
                    "type": "channel",
                    "subtype": "noteOn",
                    "channel": 9,
                    "noteNumber": 51,
                    "velocity": 98,
                    "lightChannels": [
                        6,
                        7
                    ]
                }
            }
        }
    },
    {
        "changes": {
            "bottom-right": 1
        },
        "timeout": 0.0158898125,
        "raw": {
            "bottom-right": {
                "pinValue": 1,
                "ticks": 1,
                "event": {
                    "deltaTime": 1,
                    "type": "channel",
                    "subtype": "noteOn",
                    "channel": 1,
                    "noteNumber": 39,
                    "velocity": 108,
                    "lightChannels": [
                        2
                    ]
                }
            }
        }
    },
    {
        "changes": {
            "window": 0,
            "outline": 0
        },
        "timeout": 0.050847399999999994,
        "raw": {
            "window": {
                "pinValue": 0,
                "ticks": 32,
                "event": {
                    "deltaTime": 32,
                    "type": "channel",
                    "subtype": "noteOff",
                    "channel": 9,
                    "noteNumber": 51,
                    "velocity": 0,
                    "lightChannels": [
                        6,
                        7
                    ]
                }
            },
            "outline": {
                "pinValue": 0,
                "ticks": 32,
                "event": {
                    "deltaTime": 32,
                    "type": "channel",
                    "subtype": "noteOff",
                    "channel": 9,
                    "noteNumber": 51,
                    "velocity": 0,
                    "lightChannels": [
                        6,
                        7
                    ]
                }
            }
        }
    },
    {
        "changes": {
            "bottom-right": 0,
            "col-3": 0
        },
        "timeout": 0.18855910833333334,
        "raw": {
            "bottom-right": {
                "pinValue": 0,
                "ticks": 0,
                "event": {
                    "deltaTime": 0,
                    "type": "channel",
                    "subtype": "noteOff",
                    "channel": 7,
                    "noteNumber": 51,
                    "velocity": 0,
                    "lightChannels": [
                        2,
                        5
                    ]
                }
            },
            "col-3": {
                "pinValue": 0,
                "ticks": 0,
                "event": {
                    "deltaTime": 0,
                    "type": "channel",
                    "subtype": "noteOff",
                    "channel": 7,
                    "noteNumber": 51,
                    "velocity": 0,
                    "lightChannels": [
                        2,
                        5
                    ]
                }
            }
        }
    },
    {
        "changes": {
            "window": 1,
            "outline": 1
        },
        "timeout": 0.0021186416666666664,
        "raw": {
            "window": {
                "pinValue": 1,
                "ticks": 2,
                "event": {
                    "deltaTime": 2,
                    "type": "channel",
                    "subtype": "noteOn",
                    "channel": 9,
                    "noteNumber": 51,
                    "velocity": 93,
                    "lightChannels": [
                        6,
                        7
                    ]
                }
            },
            "outline": {
                "pinValue": 1,
                "ticks": 2,
                "event": {
                    "deltaTime": 2,
                    "type": "channel",
                    "subtype": "noteOn",
                    "channel": 9,
                    "noteNumber": 51,
                    "velocity": 93,
                    "lightChannels": [
                        6,
                        7
                    ]
                }
            }
        }
    },
    {
        "changes": {
            "bottom-right": 0
        },
        "timeout": 0.01694913333333333,
        "raw": {
            "bottom-right": {
                "pinValue": 0,
                "ticks": 1,
                "event": {
                    "deltaTime": 1,
                    "type": "channel",
                    "subtype": "noteOff",
                    "channel": 1,
                    "noteNumber": 39,
                    "velocity": 0,
                    "lightChannels": [
                        2
                    ]
                }
            }
        }
    },
    {
        "changes": {
            "window": 0,
            "outline": 0
        },
        "timeout": 0.047669437499999995,
        "raw": {
            "window": {
                "pinValue": 0,
                "ticks": 37,
                "event": {
                    "deltaTime": 37,
                    "type": "channel",
                    "subtype": "noteOff",
                    "channel": 9,
                    "noteNumber": 51,
                    "velocity": 0,
                    "lightChannels": [
                        6,
                        7
                    ]
                }
            },
            "outline": {
                "pinValue": 0,
                "ticks": 37,
                "event": {
                    "deltaTime": 37,
                    "type": "channel",
                    "subtype": "noteOff",
                    "channel": 9,
                    "noteNumber": 51,
                    "velocity": 0,
                    "lightChannels": [
                        6,
                        7
                    ]
                }
            }
        }
    },
    {
        "changes": {
            "garage": 1,
            "garden": 1
        },
        "timeout": 0.18008454166666668,
        "raw": {
            "garage": {
                "pinValue": 1,
                "ticks": 4,
                "event": {
                    "deltaTime": 4,
                    "type": "channel",
                    "subtype": "noteOn",
                    "channel": 7,
                    "noteNumber": 52,
                    "velocity": 102,
                    "lightChannels": [
                        0,
                        8
                    ]
                }
            },
            "garden": {
                "pinValue": 1,
                "ticks": 4,
                "event": {
                    "deltaTime": 4,
                    "type": "channel",
                    "subtype": "noteOn",
                    "channel": 7,
                    "noteNumber": 52,
                    "velocity": 102,
                    "lightChannels": [
                        0,
                        8
                    ]
                }
            }
        }
    },
    {
        "changes": {
            "window": 1,
            "outline": 1
        },
        "timeout": 0.0010593208333333332,
        "raw": {
            "window": {
                "pinValue": 1,
                "ticks": 0,
                "event": {
                    "deltaTime": 0,
                    "type": "channel",
                    "subtype": "noteOn",
                    "channel": 9,
                    "noteNumber": 51,
                    "velocity": 90,
                    "lightChannels": [
                        6,
                        7
                    ]
                }
            },
            "outline": {
                "pinValue": 1,
                "ticks": 0,
                "event": {
                    "deltaTime": 0,
                    "type": "channel",
                    "subtype": "noteOn",
                    "channel": 9,
                    "noteNumber": 51,
                    "velocity": 90,
                    "lightChannels": [
                        6,
                        7
                    ]
                }
            }
        }
    },
    {
        "changes": {
            "window": 0,
            "outline": 0
        },
        "timeout": 0.059321966666666656,
        "raw": {
            "window": {
                "pinValue": 0,
                "ticks": 29,
                "event": {
                    "deltaTime": 29,
                    "type": "channel",
                    "subtype": "noteOff",
                    "channel": 9,
                    "noteNumber": 51,
                    "velocity": 0,
                    "lightChannels": [
                        6,
                        7
                    ]
                }
            },
            "outline": {
                "pinValue": 0,
                "ticks": 29,
                "event": {
                    "deltaTime": 29,
                    "type": "channel",
                    "subtype": "noteOff",
                    "channel": 9,
                    "noteNumber": 51,
                    "velocity": 0,
                    "lightChannels": [
                        6,
                        7
                    ]
                }
            }
        }
    },
    {
        "changes": {
            "window": 1,
            "outline": 1
        },
        "timeout": 0.18114386250000003,
        "raw": {
            "window": {
                "pinValue": 1,
                "ticks": 4,
                "event": {
                    "deltaTime": 4,
                    "type": "channel",
                    "subtype": "noteOn",
                    "channel": 9,
                    "noteNumber": 51,
                    "velocity": 85,
                    "lightChannels": [
                        6,
                        7
                    ]
                }
            },
            "outline": {
                "pinValue": 1,
                "ticks": 4,
                "event": {
                    "deltaTime": 4,
                    "type": "channel",
                    "subtype": "noteOn",
                    "channel": 9,
                    "noteNumber": 51,
                    "velocity": 85,
                    "lightChannels": [
                        6,
                        7
                    ]
                }
            }
        }
    },
    {
        "changes": {
            "garage": 0,
            "garden": 0
        },
        "timeout": 0.008474566666666666,
        "raw": {
            "garage": {
                "pinValue": 0,
                "ticks": 1,
                "event": {
                    "deltaTime": 1,
                    "type": "channel",
                    "subtype": "noteOff",
                    "channel": 7,
                    "noteNumber": 52,
                    "velocity": 0,
                    "lightChannels": [
                        0,
                        8
                    ]
                }
            },
            "garden": {
                "pinValue": 0,
                "ticks": 1,
                "event": {
                    "deltaTime": 1,
                    "type": "channel",
                    "subtype": "noteOff",
                    "channel": 7,
                    "noteNumber": 52,
                    "velocity": 0,
                    "lightChannels": [
                        0,
                        8
                    ]
                }
            }
        }
    },
    {
        "changes": {
            "garage": 1,
            "top-right": 1,
            "bottom-right": 1
        },
        "timeout": 0.0286016625,
        "raw": {
            "garage": {
                "pinValue": 1,
                "ticks": 4,
                "event": {
                    "deltaTime": 4,
                    "type": "channel",
                    "subtype": "noteOn",
                    "channel": 1,
                    "noteNumber": 41,
                    "velocity": 116,
                    "lightChannels": [
                        0,
                        1,
                        2
                    ]
                }
            },
            "top-right": {
                "pinValue": 1,
                "ticks": 4,
                "event": {
                    "deltaTime": 4,
                    "type": "channel",
                    "subtype": "noteOn",
                    "channel": 1,
                    "noteNumber": 41,
                    "velocity": 116,
                    "lightChannels": [
                        0,
                        1,
                        2
                    ]
                }
            },
            "bottom-right": {
                "pinValue": 1,
                "ticks": 4,
                "event": {
                    "deltaTime": 4,
                    "type": "channel",
                    "subtype": "noteOn",
                    "channel": 1,
                    "noteNumber": 41,
                    "velocity": 116,
                    "lightChannels": [
                        0,
                        1,
                        2
                    ]
                }
            }
        }
    },
    {
        "changes": {
            "window": 0,
            "outline": 0
        },
        "timeout": 0.012711849999999998,
        "raw": {
            "window": {
                "pinValue": 0,
                "ticks": 12,
                "event": {
                    "deltaTime": 12,
                    "type": "channel",
                    "subtype": "noteOff",
                    "channel": 9,
                    "noteNumber": 51,
                    "velocity": 0,
                    "lightChannels": [
                        6,
                        7
                    ]
                }
            },
            "outline": {
                "pinValue": 0,
                "ticks": 12,
                "event": {
                    "deltaTime": 12,
                    "type": "channel",
                    "subtype": "noteOff",
                    "channel": 9,
                    "noteNumber": 51,
                    "velocity": 0,
                    "lightChannels": [
                        6,
                        7
                    ]
                }
            }
        }
    },
    {
        "changes": {
            "top-right": 1,
            "tree": 1
        },
        "timeout": 0.0095338875,
        "raw": {
            "top-right": {
                "pinValue": 1,
                "ticks": 9,
                "event": {
                    "deltaTime": 9,
                    "type": "channel",
                    "subtype": "noteOn",
                    "channel": 7,
                    "noteNumber": 53,
                    "velocity": 122,
                    "lightChannels": [
                        1,
                        9
                    ]
                }
            },
            "tree": {
                "pinValue": 1,
                "ticks": 9,
                "event": {
                    "deltaTime": 9,
                    "type": "channel",
                    "subtype": "noteOn",
                    "channel": 7,
                    "noteNumber": 53,
                    "velocity": 122,
                    "lightChannels": [
                        1,
                        9
                    ]
                }
            }
        }
    },
    {
        "changes": {
            "top-right": 0,
            "tree": 0
        },
        "timeout": 0.10381344166666667,
        "raw": {
            "top-right": {
                "pinValue": 0,
                "ticks": 10,
                "event": {
                    "deltaTime": 10,
                    "type": "channel",
                    "subtype": "noteOff",
                    "channel": 7,
                    "noteNumber": 53,
                    "velocity": 0,
                    "lightChannels": [
                        1,
                        9
                    ]
                }
            },
            "tree": {
                "pinValue": 0,
                "ticks": 10,
                "event": {
                    "deltaTime": 10,
                    "type": "channel",
                    "subtype": "noteOff",
                    "channel": 7,
                    "noteNumber": 53,
                    "velocity": 0,
                    "lightChannels": [
                        1,
                        9
                    ]
                }
            }
        }
    },
    {
        "changes": {
            "window": 1,
            "outline": 1
        },
        "timeout": 0.09533887499999999,
        "raw": {
            "window": {
                "pinValue": 1,
                "ticks": 76,
                "event": {
                    "deltaTime": 76,
                    "type": "channel",
                    "subtype": "noteOn",
                    "channel": 9,
                    "noteNumber": 51,
                    "velocity": 91,
                    "lightChannels": [
                        6,
                        7
                    ]
                }
            },
            "outline": {
                "pinValue": 1,
                "ticks": 76,
                "event": {
                    "deltaTime": 76,
                    "type": "channel",
                    "subtype": "noteOn",
                    "channel": 9,
                    "noteNumber": 51,
                    "velocity": 91,
                    "lightChannels": [
                        6,
                        7
                    ]
                }
            }
        }
    },
    {
        "changes": {
            "garage": 0,
            "top-right": 0,
            "bottom-right": 0
        },
        "timeout": 0.0031779624999999996,
        "raw": {
            "garage": {
                "pinValue": 0,
                "ticks": 3,
                "event": {
                    "deltaTime": 3,
                    "type": "channel",
                    "subtype": "noteOff",
                    "channel": 1,
                    "noteNumber": 41,
                    "velocity": 0,
                    "lightChannels": [
                        0,
                        1,
                        2
                    ]
                }
            },
            "top-right": {
                "pinValue": 0,
                "ticks": 3,
                "event": {
                    "deltaTime": 3,
                    "type": "channel",
                    "subtype": "noteOff",
                    "channel": 1,
                    "noteNumber": 41,
                    "velocity": 0,
                    "lightChannels": [
                        0,
                        1,
                        2
                    ]
                }
            },
            "bottom-right": {
                "pinValue": 0,
                "ticks": 3,
                "event": {
                    "deltaTime": 3,
                    "type": "channel",
                    "subtype": "noteOff",
                    "channel": 1,
                    "noteNumber": 41,
                    "velocity": 0,
                    "lightChannels": [
                        0,
                        1,
                        2
                    ]
                }
            }
        }
    },
    {
        "changes": {
            "window": 0,
            "outline": 0
        },
        "timeout": 0.06038128749999999,
        "raw": {
            "window": {
                "pinValue": 0,
                "ticks": 23,
                "event": {
                    "deltaTime": 23,
                    "type": "channel",
                    "subtype": "noteOff",
                    "channel": 9,
                    "noteNumber": 51,
                    "velocity": 0,
                    "lightChannels": [
                        6,
                        7
                    ]
                }
            },
            "outline": {
                "pinValue": 0,
                "ticks": 23,
                "event": {
                    "deltaTime": 23,
                    "type": "channel",
                    "subtype": "noteOff",
                    "channel": 9,
                    "noteNumber": 51,
                    "velocity": 0,
                    "lightChannels": [
                        6,
                        7
                    ]
                }
            }
        }
    },
    {
        "changes": {
            "garage": 1
        },
        "timeout": 0.011652529166666665,
        "raw": {
            "garage": {
                "pinValue": 1,
                "ticks": 11,
                "event": {
                    "deltaTime": 11,
                    "type": "channel",
                    "subtype": "noteOn",
                    "channel": 1,
                    "noteNumber": 34,
                    "velocity": 110,
                    "lightChannels": [
                        0
                    ]
                }
            }
        }
    },
    {
        "changes": {
            "garage": 0
        },
        "timeout": 0.16101676666666664,
        "raw": {
            "garage": {
                "pinValue": 0,
                "ticks": 44,
                "event": {
                    "deltaTime": 44,
                    "type": "channel",
                    "subtype": "noteOff",
                    "channel": 1,
                    "noteNumber": 34,
                    "velocity": 0,
                    "lightChannels": [
                        0
                    ]
                }
            }
        }
    },
    {
        "changes": {
            "window": 1,
            "outline": 1
        },
        "timeout": 0.028601662499999996,
        "raw": {
            "window": {
                "pinValue": 1,
                "ticks": 27,
                "event": {
                    "deltaTime": 27,
                    "type": "channel",
                    "subtype": "noteOn",
                    "channel": 9,
                    "noteNumber": 51,
                    "velocity": 99,
                    "lightChannels": [
                        6,
                        7
                    ]
                }
            },
            "outline": {
                "pinValue": 1,
                "ticks": 27,
                "event": {
                    "deltaTime": 27,
                    "type": "channel",
                    "subtype": "noteOn",
                    "channel": 9,
                    "noteNumber": 51,
                    "velocity": 99,
                    "lightChannels": [
                        6,
                        7
                    ]
                }
            }
        }
    },
    {
        "changes": {
            "top-right": 1
        },
        "timeout": 0.049788079166666666,
        "raw": {
            "top-right": {
                "pinValue": 1,
                "ticks": 7,
                "event": {
                    "deltaTime": 7,
                    "type": "channel",
                    "subtype": "noteOn",
                    "channel": 1,
                    "noteNumber": 38,
                    "velocity": 115,
                    "lightChannels": [
                        1
                    ]
                }
            }
        }
    },
    {
        "changes": {
            "window": 0,
            "outline": 0
        },
        "timeout": 0.010593208333333333,
        "raw": {
            "window": {
                "pinValue": 0,
                "ticks": 10,
                "event": {
                    "deltaTime": 10,
                    "type": "channel",
                    "subtype": "noteOff",
                    "channel": 9,
                    "noteNumber": 51,
                    "velocity": 0,
                    "lightChannels": [
                        6,
                        7
                    ]
                }
            },
            "outline": {
                "pinValue": 0,
                "ticks": 10,
                "event": {
                    "deltaTime": 10,
                    "type": "channel",
                    "subtype": "noteOff",
                    "channel": 9,
                    "noteNumber": 51,
                    "velocity": 0,
                    "lightChannels": [
                        6,
                        7
                    ]
                }
            }
        }
    },
    {
        "changes": {
            "top-right": 0
        },
        "timeout": 0.13771170833333332,
        "raw": {
            "top-right": {
                "pinValue": 0,
                "ticks": 42,
                "event": {
                    "deltaTime": 42,
                    "type": "channel",
                    "subtype": "noteOff",
                    "channel": 1,
                    "noteNumber": 38,
                    "velocity": 0,
                    "lightChannels": [
                        1
                    ]
                }
            }
        }
    },
    {
        "changes": {
            "window": 1,
            "outline": 1
        },
        "timeout": 0.06355925,
        "raw": {
            "window": {
                "pinValue": 1,
                "ticks": 60,
                "event": {
                    "deltaTime": 60,
                    "type": "channel",
                    "subtype": "noteOn",
                    "channel": 9,
                    "noteNumber": 51,
                    "velocity": 103,
                    "lightChannels": [
                        6,
                        7
                    ]
                }
            },
            "outline": {
                "pinValue": 1,
                "ticks": 60,
                "event": {
                    "deltaTime": 60,
                    "type": "channel",
                    "subtype": "noteOn",
                    "channel": 9,
                    "noteNumber": 51,
                    "velocity": 103,
                    "lightChannels": [
                        6,
                        7
                    ]
                }
            }
        }
    },
    {
        "changes": {
            "bottom-right": 1
        },
        "timeout": 0.05508468333333333,
        "raw": {
            "bottom-right": {
                "pinValue": 1,
                "ticks": 10,
                "event": {
                    "deltaTime": 10,
                    "type": "channel",
                    "subtype": "noteOn",
                    "channel": 1,
                    "noteNumber": 39,
                    "velocity": 127,
                    "lightChannels": [
                        2
                    ]
                }
            }
        }
    },
    {
        "changes": {
            "window": 0,
            "outline": 0
        },
        "timeout": 0.0095338875,
        "raw": {
            "window": {
                "pinValue": 0,
                "ticks": 9,
                "event": {
                    "deltaTime": 9,
                    "type": "channel",
                    "subtype": "noteOff",
                    "channel": 9,
                    "noteNumber": 51,
                    "velocity": 0,
                    "lightChannels": [
                        6,
                        7
                    ]
                }
            },
            "outline": {
                "pinValue": 0,
                "ticks": 9,
                "event": {
                    "deltaTime": 9,
                    "type": "channel",
                    "subtype": "noteOff",
                    "channel": 9,
                    "noteNumber": 51,
                    "velocity": 0,
                    "lightChannels": [
                        6,
                        7
                    ]
                }
            }
        }
    },
    {
        "changes": {
            "bottom-right": 0
        },
        "timeout": 0.08792362916666667,
        "raw": {
            "bottom-right": {
                "pinValue": 0,
                "ticks": 13,
                "event": {
                    "deltaTime": 13,
                    "type": "channel",
                    "subtype": "noteOff",
                    "channel": 1,
                    "noteNumber": 39,
                    "velocity": 0,
                    "lightChannels": [
                        2
                    ]
                }
            }
        }
    },
    {
        "changes": {
            "window": 1,
            "outline": 1
        },
        "timeout": 0.10381344166666666,
        "raw": {
            "window": {
                "pinValue": 1,
                "ticks": 91,
                "event": {
                    "deltaTime": 91,
                    "type": "channel",
                    "subtype": "noteOn",
                    "channel": 9,
                    "noteNumber": 51,
                    "velocity": 108,
                    "lightChannels": [
                        6,
                        7
                    ]
                }
            },
            "outline": {
                "pinValue": 1,
                "ticks": 91,
                "event": {
                    "deltaTime": 91,
                    "type": "channel",
                    "subtype": "noteOn",
                    "channel": 9,
                    "noteNumber": 51,
                    "velocity": 108,
                    "lightChannels": [
                        6,
                        7
                    ]
                }
            }
        }
    },
    {
        "changes": {
            "window": 0,
            "outline": 0
        },
        "timeout": 0.08686430833333333,
        "raw": {
            "window": {
                "pinValue": 0,
                "ticks": 30,
                "event": {
                    "deltaTime": 30,
                    "type": "channel",
                    "subtype": "noteOff",
                    "channel": 9,
                    "noteNumber": 51,
                    "velocity": 0,
                    "lightChannels": [
                        6,
                        7
                    ]
                }
            },
            "outline": {
                "pinValue": 0,
                "ticks": 30,
                "event": {
                    "deltaTime": 30,
                    "type": "channel",
                    "subtype": "noteOff",
                    "channel": 9,
                    "noteNumber": 51,
                    "velocity": 0,
                    "lightChannels": [
                        6,
                        7
                    ]
                }
            }
        }
    },
    {
        "changes": {
            "window": 1,
            "outline": 1
        },
        "timeout": 0.06355924999999998,
        "raw": {
            "window": {
                "pinValue": 1,
                "ticks": 4,
                "event": {
                    "deltaTime": 4,
                    "type": "channel",
                    "subtype": "noteOn",
                    "channel": 9,
                    "noteNumber": 49,
                    "velocity": 124,
                    "lightChannels": [
                        6,
                        7
                    ]
                }
            },
            "outline": {
                "pinValue": 1,
                "ticks": 4,
                "event": {
                    "deltaTime": 4,
                    "type": "channel",
                    "subtype": "noteOn",
                    "channel": 9,
                    "noteNumber": 49,
                    "velocity": 124,
                    "lightChannels": [
                        6,
                        7
                    ]
                }
            }
        }
    },
    {
        "changes": {
            "garage": 1,
            "top-right": 1,
            "bottom-right": 1
        },
        "timeout": 0.013771170833333332,
        "raw": {
            "garage": {
                "pinValue": 1,
                "ticks": 3,
                "event": {
                    "deltaTime": 3,
                    "type": "channel",
                    "subtype": "noteOn",
                    "channel": 1,
                    "noteNumber": 41,
                    "velocity": 119,
                    "lightChannels": [
                        0,
                        1,
                        2
                    ]
                }
            },
            "top-right": {
                "pinValue": 1,
                "ticks": 3,
                "event": {
                    "deltaTime": 3,
                    "type": "channel",
                    "subtype": "noteOn",
                    "channel": 1,
                    "noteNumber": 41,
                    "velocity": 119,
                    "lightChannels": [
                        0,
                        1,
                        2
                    ]
                }
            },
            "bottom-right": {
                "pinValue": 1,
                "ticks": 3,
                "event": {
                    "deltaTime": 3,
                    "type": "channel",
                    "subtype": "noteOn",
                    "channel": 1,
                    "noteNumber": 41,
                    "velocity": 119,
                    "lightChannels": [
                        0,
                        1,
                        2
                    ]
                }
            }
        }
    },
    {
        "changes": {
            "window": 0,
            "outline": 0
        },
        "timeout": 0.04449147499999999,
        "raw": {
            "window": {
                "pinValue": 0,
                "ticks": 8,
                "event": {
                    "deltaTime": 8,
                    "type": "channel",
                    "subtype": "noteOff",
                    "channel": 9,
                    "noteNumber": 49,
                    "velocity": 0,
                    "lightChannels": [
                        6,
                        7
                    ]
                }
            },
            "outline": {
                "pinValue": 0,
                "ticks": 8,
                "event": {
                    "deltaTime": 8,
                    "type": "channel",
                    "subtype": "noteOff",
                    "channel": 9,
                    "noteNumber": 49,
                    "velocity": 0,
                    "lightChannels": [
                        6,
                        7
                    ]
                }
            }
        }
    },
    {
        "changes": {
            "garage": 0,
            "top-right": 0,
            "bottom-right": 0
        },
        "timeout": 0.06567789166666665,
        "raw": {
            "garage": {
                "pinValue": 0,
                "ticks": 12,
                "event": {
                    "deltaTime": 12,
                    "type": "channel",
                    "subtype": "noteOff",
                    "channel": 1,
                    "noteNumber": 41,
                    "velocity": 0,
                    "lightChannels": [
                        0,
                        1,
                        2
                    ]
                }
            },
            "top-right": {
                "pinValue": 0,
                "ticks": 12,
                "event": {
                    "deltaTime": 12,
                    "type": "channel",
                    "subtype": "noteOff",
                    "channel": 1,
                    "noteNumber": 41,
                    "velocity": 0,
                    "lightChannels": [
                        0,
                        1,
                        2
                    ]
                }
            },
            "bottom-right": {
                "pinValue": 0,
                "ticks": 12,
                "event": {
                    "deltaTime": 12,
                    "type": "channel",
                    "subtype": "noteOff",
                    "channel": 1,
                    "noteNumber": 41,
                    "velocity": 0,
                    "lightChannels": [
                        0,
                        1,
                        2
                    ]
                }
            }
        }
    },
    {
        "changes": {
            "garage": 1,
            "top-right": 1,
            "bottom-right": 1,
            "col-1": 1,
            "col-2": 1,
            "col-3": 1,
            "window": 1,
            "outline": 1,
            "garden": 1,
            "tree": 1
        },
        "timeout": 0.2796606999999999,
        "raw": {
            "garage": {
                "pinValue": 1,
                "ticks": 2,
                "event": {
                    "deltaTime": 2,
                    "type": "channel",
                    "subtype": "noteOn",
                    "channel": 3,
                    "noteNumber": 86,
                    "velocity": 127,
                    "lightChannels": [
                        0,
                        1,
                        2,
                        3,
                        4,
                        5,
                        6,
                        7,
                        8,
                        9
                    ]
                }
            },
            "top-right": {
                "pinValue": 1,
                "ticks": 2,
                "event": {
                    "deltaTime": 2,
                    "type": "channel",
                    "subtype": "noteOn",
                    "channel": 3,
                    "noteNumber": 86,
                    "velocity": 127,
                    "lightChannels": [
                        0,
                        1,
                        2,
                        3,
                        4,
                        5,
                        6,
                        7,
                        8,
                        9
                    ]
                }
            },
            "bottom-right": {
                "pinValue": 1,
                "ticks": 2,
                "event": {
                    "deltaTime": 2,
                    "type": "channel",
                    "subtype": "noteOn",
                    "channel": 3,
                    "noteNumber": 86,
                    "velocity": 127,
                    "lightChannels": [
                        0,
                        1,
                        2,
                        3,
                        4,
                        5,
                        6,
                        7,
                        8,
                        9
                    ]
                }
            },
            "col-1": {
                "pinValue": 1,
                "ticks": 2,
                "event": {
                    "deltaTime": 2,
                    "type": "channel",
                    "subtype": "noteOn",
                    "channel": 3,
                    "noteNumber": 86,
                    "velocity": 127,
                    "lightChannels": [
                        0,
                        1,
                        2,
                        3,
                        4,
                        5,
                        6,
                        7,
                        8,
                        9
                    ]
                }
            },
            "col-2": {
                "pinValue": 1,
                "ticks": 2,
                "event": {
                    "deltaTime": 2,
                    "type": "channel",
                    "subtype": "noteOn",
                    "channel": 3,
                    "noteNumber": 86,
                    "velocity": 127,
                    "lightChannels": [
                        0,
                        1,
                        2,
                        3,
                        4,
                        5,
                        6,
                        7,
                        8,
                        9
                    ]
                }
            },
            "col-3": {
                "pinValue": 1,
                "ticks": 2,
                "event": {
                    "deltaTime": 2,
                    "type": "channel",
                    "subtype": "noteOn",
                    "channel": 3,
                    "noteNumber": 86,
                    "velocity": 127,
                    "lightChannels": [
                        0,
                        1,
                        2,
                        3,
                        4,
                        5,
                        6,
                        7,
                        8,
                        9
                    ]
                }
            },
            "window": {
                "pinValue": 1,
                "ticks": 2,
                "event": {
                    "deltaTime": 2,
                    "type": "channel",
                    "subtype": "noteOn",
                    "channel": 3,
                    "noteNumber": 86,
                    "velocity": 127,
                    "lightChannels": [
                        0,
                        1,
                        2,
                        3,
                        4,
                        5,
                        6,
                        7,
                        8,
                        9
                    ]
                }
            },
            "outline": {
                "pinValue": 1,
                "ticks": 2,
                "event": {
                    "deltaTime": 2,
                    "type": "channel",
                    "subtype": "noteOn",
                    "channel": 3,
                    "noteNumber": 86,
                    "velocity": 127,
                    "lightChannels": [
                        0,
                        1,
                        2,
                        3,
                        4,
                        5,
                        6,
                        7,
                        8,
                        9
                    ]
                }
            },
            "garden": {
                "pinValue": 1,
                "ticks": 2,
                "event": {
                    "deltaTime": 2,
                    "type": "channel",
                    "subtype": "noteOn",
                    "channel": 3,
                    "noteNumber": 86,
                    "velocity": 127,
                    "lightChannels": [
                        0,
                        1,
                        2,
                        3,
                        4,
                        5,
                        6,
                        7,
                        8,
                        9
                    ]
                }
            },
            "tree": {
                "pinValue": 1,
                "ticks": 2,
                "event": {
                    "deltaTime": 2,
                    "type": "channel",
                    "subtype": "noteOn",
                    "channel": 3,
                    "noteNumber": 86,
                    "velocity": 127,
                    "lightChannels": [
                        0,
                        1,
                        2,
                        3,
                        4,
                        5,
                        6,
                        7,
                        8,
                        9
                    ]
                }
            }
        }
    },
    {
        "changes": {
            "garage": 0,
            "top-right": 0,
            "bottom-right": 0,
            "col-1": 0,
            "col-2": 0,
            "col-3": 0,
            "window": 0,
            "outline": 0,
            "garden": 0,
            "tree": 0
        },
        "timeout": 0.1599574458333333,
        "raw": {
            "garage": {
                "pinValue": 0,
                "ticks": 11,
                "event": {
                    "deltaTime": 11,
                    "type": "channel",
                    "subtype": "noteOff",
                    "channel": 3,
                    "noteNumber": 86,
                    "velocity": 0,
                    "lightChannels": [
                        0,
                        1,
                        2,
                        3,
                        4,
                        5,
                        6,
                        7,
                        8,
                        9
                    ]
                }
            },
            "top-right": {
                "pinValue": 0,
                "ticks": 11,
                "event": {
                    "deltaTime": 11,
                    "type": "channel",
                    "subtype": "noteOff",
                    "channel": 3,
                    "noteNumber": 86,
                    "velocity": 0,
                    "lightChannels": [
                        0,
                        1,
                        2,
                        3,
                        4,
                        5,
                        6,
                        7,
                        8,
                        9
                    ]
                }
            },
            "bottom-right": {
                "pinValue": 0,
                "ticks": 11,
                "event": {
                    "deltaTime": 11,
                    "type": "channel",
                    "subtype": "noteOff",
                    "channel": 3,
                    "noteNumber": 86,
                    "velocity": 0,
                    "lightChannels": [
                        0,
                        1,
                        2,
                        3,
                        4,
                        5,
                        6,
                        7,
                        8,
                        9
                    ]
                }
            },
            "col-1": {
                "pinValue": 0,
                "ticks": 11,
                "event": {
                    "deltaTime": 11,
                    "type": "channel",
                    "subtype": "noteOff",
                    "channel": 3,
                    "noteNumber": 86,
                    "velocity": 0,
                    "lightChannels": [
                        0,
                        1,
                        2,
                        3,
                        4,
                        5,
                        6,
                        7,
                        8,
                        9
                    ]
                }
            },
            "col-2": {
                "pinValue": 0,
                "ticks": 11,
                "event": {
                    "deltaTime": 11,
                    "type": "channel",
                    "subtype": "noteOff",
                    "channel": 3,
                    "noteNumber": 86,
                    "velocity": 0,
                    "lightChannels": [
                        0,
                        1,
                        2,
                        3,
                        4,
                        5,
                        6,
                        7,
                        8,
                        9
                    ]
                }
            },
            "col-3": {
                "pinValue": 0,
                "ticks": 11,
                "event": {
                    "deltaTime": 11,
                    "type": "channel",
                    "subtype": "noteOff",
                    "channel": 3,
                    "noteNumber": 86,
                    "velocity": 0,
                    "lightChannels": [
                        0,
                        1,
                        2,
                        3,
                        4,
                        5,
                        6,
                        7,
                        8,
                        9
                    ]
                }
            },
            "window": {
                "pinValue": 0,
                "ticks": 11,
                "event": {
                    "deltaTime": 11,
                    "type": "channel",
                    "subtype": "noteOff",
                    "channel": 3,
                    "noteNumber": 86,
                    "velocity": 0,
                    "lightChannels": [
                        0,
                        1,
                        2,
                        3,
                        4,
                        5,
                        6,
                        7,
                        8,
                        9
                    ]
                }
            },
            "outline": {
                "pinValue": 0,
                "ticks": 11,
                "event": {
                    "deltaTime": 11,
                    "type": "channel",
                    "subtype": "noteOff",
                    "channel": 3,
                    "noteNumber": 86,
                    "velocity": 0,
                    "lightChannels": [
                        0,
                        1,
                        2,
                        3,
                        4,
                        5,
                        6,
                        7,
                        8,
                        9
                    ]
                }
            },
            "garden": {
                "pinValue": 0,
                "ticks": 11,
                "event": {
                    "deltaTime": 11,
                    "type": "channel",
                    "subtype": "noteOff",
                    "channel": 3,
                    "noteNumber": 86,
                    "velocity": 0,
                    "lightChannels": [
                        0,
                        1,
                        2,
                        3,
                        4,
                        5,
                        6,
                        7,
                        8,
                        9
                    ]
                }
            },
            "tree": {
                "pinValue": 0,
                "ticks": 11,
                "event": {
                    "deltaTime": 11,
                    "type": "channel",
                    "subtype": "noteOff",
                    "channel": 3,
                    "noteNumber": 86,
                    "velocity": 0,
                    "lightChannels": [
                        0,
                        1,
                        2,
                        3,
                        4,
                        5,
                        6,
                        7,
                        8,
                        9
                    ]
                }
            }
        }
    },
    {
        "changes": {
            "col-1": 1
        },
        "timeout": 0.37076229166666663,
        "raw": {
            "col-1": {
                "pinValue": 1,
                "ticks": 15,
                "event": {
                    "deltaTime": 15,
                    "type": "channel",
                    "subtype": "noteOn",
                    "channel": 3,
                    "noteNumber": 79,
                    "velocity": 119,
                    "lightChannels": [
                        3
                    ]
                }
            }
        }
    },
    {
        "changes": {
            "window": 1,
            "outline": 1
        },
        "timeout": 0.015889812499999996,
        "raw": {
            "window": {
                "pinValue": 1,
                "ticks": 8,
                "event": {
                    "deltaTime": 8,
                    "type": "channel",
                    "subtype": "noteOn",
                    "channel": 9,
                    "noteNumber": 54,
                    "velocity": 84,
                    "lightChannels": [
                        6,
                        7
                    ]
                }
            },
            "outline": {
                "pinValue": 1,
                "ticks": 8,
                "event": {
                    "deltaTime": 8,
                    "type": "channel",
                    "subtype": "noteOn",
                    "channel": 9,
                    "noteNumber": 54,
                    "velocity": 84,
                    "lightChannels": [
                        6,
                        7
                    ]
                }
            }
        }
    },
    {
        "changes": {
            "col-1": 0
        },
        "timeout": 0.050847399999999994,
        "raw": {
            "col-1": {
                "pinValue": 0,
                "ticks": 6,
                "event": {
                    "deltaTime": 6,
                    "type": "channel",
                    "subtype": "noteOff",
                    "channel": 3,
                    "noteNumber": 79,
                    "velocity": 0,
                    "lightChannels": [
                        3
                    ]
                }
            }
        }
    },
    {
        "changes": {
            "window": 0,
            "outline": 0
        },
        "timeout": 0.014830491666666666,
        "raw": {
            "window": {
                "pinValue": 0,
                "ticks": 5,
                "event": {
                    "deltaTime": 5,
                    "type": "channel",
                    "subtype": "noteOff",
                    "channel": 9,
                    "noteNumber": 54,
                    "velocity": 0,
                    "lightChannels": [
                        6,
                        7
                    ]
                }
            },
            "outline": {
                "pinValue": 0,
                "ticks": 5,
                "event": {
                    "deltaTime": 5,
                    "type": "channel",
                    "subtype": "noteOff",
                    "channel": 9,
                    "noteNumber": 54,
                    "velocity": 0,
                    "lightChannels": [
                        6,
                        7
                    ]
                }
            }
        }
    },
    {
        "changes": {
            "col-2": 1
        },
        "timeout": 0.01694913333333333,
        "raw": {
            "col-2": {
                "pinValue": 1,
                "ticks": 16,
                "event": {
                    "deltaTime": 16,
                    "type": "channel",
                    "subtype": "noteOn",
                    "channel": 3,
                    "noteNumber": 78,
                    "velocity": 105,
                    "lightChannels": [
                        4
                    ]
                }
            }
        }
    },
    {
        "changes": {
            "col-3": 1
        },
        "timeout": 0.0603812875,
        "raw": {
            "col-3": {
                "pinValue": 1,
                "ticks": 7,
                "event": {
                    "deltaTime": 7,
                    "type": "channel",
                    "subtype": "noteOn",
                    "channel": 3,
                    "noteNumber": 79,
                    "velocity": 111,
                    "lightChannels": [
                        5
                    ]
                }
            }
        }
    },
    {
        "changes": {
            "col-2": 0
        },
        "timeout": 0.0021186416666666664,
        "raw": {
            "col-2": {
                "pinValue": 0,
                "ticks": 2,
                "event": {
                    "deltaTime": 2,
                    "type": "channel",
                    "subtype": "noteOff",
                    "channel": 3,
                    "noteNumber": 78,
                    "velocity": 0,
                    "lightChannels": [
                        4
                    ]
                }
            }
        }
    },
    {
        "changes": {
            "col-3": 0
        },
        "timeout": 0.06144060833333333,
        "raw": {
            "col-3": {
                "pinValue": 0,
                "ticks": 1,
                "event": {
                    "deltaTime": 1,
                    "type": "channel",
                    "subtype": "noteOff",
                    "channel": 3,
                    "noteNumber": 79,
                    "velocity": 0,
                    "lightChannels": [
                        5
                    ]
                }
            }
        }
    },
    {
        "changes": {
            "col-1": 1,
            "col-2": 1,
            "col-3": 1
        },
        "timeout": 0.03283894583333333,
        "raw": {
            "col-1": {
                "pinValue": 1,
                "ticks": 2,
                "event": {
                    "deltaTime": 2,
                    "type": "channel",
                    "subtype": "noteOn",
                    "channel": 3,
                    "noteNumber": 83,
                    "velocity": 126,
                    "lightChannels": [
                        3,
                        4,
                        5
                    ]
                }
            },
            "col-2": {
                "pinValue": 1,
                "ticks": 2,
                "event": {
                    "deltaTime": 2,
                    "type": "channel",
                    "subtype": "noteOn",
                    "channel": 3,
                    "noteNumber": 83,
                    "velocity": 126,
                    "lightChannels": [
                        3,
                        4,
                        5
                    ]
                }
            },
            "col-3": {
                "pinValue": 1,
                "ticks": 2,
                "event": {
                    "deltaTime": 2,
                    "type": "channel",
                    "subtype": "noteOn",
                    "channel": 3,
                    "noteNumber": 83,
                    "velocity": 126,
                    "lightChannels": [
                        3,
                        4,
                        5
                    ]
                }
            }
        }
    },
    {
        "changes": {
            "window": 1,
            "outline": 1
        },
        "timeout": 0.006355924999999999,
        "raw": {
            "window": {
                "pinValue": 1,
                "ticks": 6,
                "event": {
                    "deltaTime": 6,
                    "type": "channel",
                    "subtype": "noteOn",
                    "channel": 9,
                    "noteNumber": 54,
                    "velocity": 83,
                    "lightChannels": [
                        6,
                        7
                    ]
                }
            },
            "outline": {
                "pinValue": 1,
                "ticks": 6,
                "event": {
                    "deltaTime": 6,
                    "type": "channel",
                    "subtype": "noteOn",
                    "channel": 9,
                    "noteNumber": 54,
                    "velocity": 83,
                    "lightChannels": [
                        6,
                        7
                    ]
                }
            }
        }
    },
    {
        "changes": {
            "window": 0,
            "outline": 0
        },
        "timeout": 0.06355925,
        "raw": {
            "window": {
                "pinValue": 0,
                "ticks": 4,
                "event": {
                    "deltaTime": 4,
                    "type": "channel",
                    "subtype": "noteOff",
                    "channel": 9,
                    "noteNumber": 54,
                    "velocity": 0,
                    "lightChannels": [
                        6,
                        7
                    ]
                }
            },
            "outline": {
                "pinValue": 0,
                "ticks": 4,
                "event": {
                    "deltaTime": 4,
                    "type": "channel",
                    "subtype": "noteOff",
                    "channel": 9,
                    "noteNumber": 54,
                    "velocity": 0,
                    "lightChannels": [
                        6,
                        7
                    ]
                }
            }
        }
    },
    {
        "changes": {
            "col-1": 0,
            "col-2": 0,
            "col-3": 0
        },
        "timeout": 0.02330505833333333,
        "raw": {
            "col-1": {
                "pinValue": 0,
                "ticks": 3,
                "event": {
                    "deltaTime": 3,
                    "type": "channel",
                    "subtype": "noteOff",
                    "channel": 3,
                    "noteNumber": 83,
                    "velocity": 0,
                    "lightChannels": [
                        3,
                        4,
                        5
                    ]
                }
            },
            "col-2": {
                "pinValue": 0,
                "ticks": 3,
                "event": {
                    "deltaTime": 3,
                    "type": "channel",
                    "subtype": "noteOff",
                    "channel": 3,
                    "noteNumber": 83,
                    "velocity": 0,
                    "lightChannels": [
                        3,
                        4,
                        5
                    ]
                }
            },
            "col-3": {
                "pinValue": 0,
                "ticks": 3,
                "event": {
                    "deltaTime": 3,
                    "type": "channel",
                    "subtype": "noteOff",
                    "channel": 3,
                    "noteNumber": 83,
                    "velocity": 0,
                    "lightChannels": [
                        3,
                        4,
                        5
                    ]
                }
            }
        }
    },
    {
        "changes": {
            "col-1": 1,
            "window": 1,
            "outline": 1
        },
        "timeout": 0.13983035000000002,
        "raw": {
            "col-1": {
                "pinValue": 1,
                "ticks": 4,
                "event": {
                    "deltaTime": 4,
                    "type": "channel",
                    "subtype": "noteOn",
                    "channel": 3,
                    "noteNumber": 79,
                    "velocity": 116,
                    "lightChannels": [
                        3
                    ]
                }
            },
            "window": {
                "pinValue": 1,
                "ticks": 0,
                "event": {
                    "deltaTime": 0,
                    "type": "channel",
                    "subtype": "noteOn",
                    "channel": 9,
                    "noteNumber": 54,
                    "velocity": 81,
                    "lightChannels": [
                        6,
                        7
                    ]
                }
            },
            "outline": {
                "pinValue": 1,
                "ticks": 0,
                "event": {
                    "deltaTime": 0,
                    "type": "channel",
                    "subtype": "noteOn",
                    "channel": 9,
                    "noteNumber": 54,
                    "velocity": 81,
                    "lightChannels": [
                        6,
                        7
                    ]
                }
            }
        }
    },
    {
        "changes": {
            "window": 0,
            "outline": 0
        },
        "timeout": 0.05720332499999999,
        "raw": {
            "window": {
                "pinValue": 0,
                "ticks": 7,
                "event": {
                    "deltaTime": 7,
                    "type": "channel",
                    "subtype": "noteOff",
                    "channel": 9,
                    "noteNumber": 54,
                    "velocity": 0,
                    "lightChannels": [
                        6,
                        7
                    ]
                }
            },
            "outline": {
                "pinValue": 0,
                "ticks": 7,
                "event": {
                    "deltaTime": 7,
                    "type": "channel",
                    "subtype": "noteOff",
                    "channel": 9,
                    "noteNumber": 54,
                    "velocity": 0,
                    "lightChannels": [
                        6,
                        7
                    ]
                }
            }
        }
    },
    {
        "changes": {
            "col-1": 0
        },
        "timeout": 0.008474566666666666,
        "raw": {
            "col-1": {
                "pinValue": 0,
                "ticks": 1,
                "event": {
                    "deltaTime": 1,
                    "type": "channel",
                    "subtype": "noteOff",
                    "channel": 3,
                    "noteNumber": 79,
                    "velocity": 0,
                    "lightChannels": [
                        3
                    ]
                }
            }
        }
    },
    {
        "changes": {
            "col-2": 1
        },
        "timeout": 0.019067775,
        "raw": {
            "col-2": {
                "pinValue": 1,
                "ticks": 6,
                "event": {
                    "deltaTime": 6,
                    "type": "channel",
                    "subtype": "noteOn",
                    "channel": 3,
                    "noteNumber": 78,
                    "velocity": 101,
                    "lightChannels": [
                        4
                    ]
                }
            }
        }
    },
    {
        "changes": {
            "col-2": 0
        },
        "timeout": 0.06461857083333333,
        "raw": {
            "col-2": {
                "pinValue": 0,
                "ticks": 4,
                "event": {
                    "deltaTime": 4,
                    "type": "channel",
                    "subtype": "noteOff",
                    "channel": 3,
                    "noteNumber": 78,
                    "velocity": 0,
                    "lightChannels": [
                        4
                    ]
                }
            }
        }
    },
    {
        "changes": {
            "col-3": 1
        },
        "timeout": 0.004237283333333333,
        "raw": {
            "col-3": {
                "pinValue": 1,
                "ticks": 4,
                "event": {
                    "deltaTime": 4,
                    "type": "channel",
                    "subtype": "noteOn",
                    "channel": 3,
                    "noteNumber": 79,
                    "velocity": 113,
                    "lightChannels": [
                        5
                    ]
                }
            }
        }
    },
    {
        "changes": {
            "col-3": 0
        },
        "timeout": 0.06144060833333333,
        "raw": {
            "col-3": {
                "pinValue": 0,
                "ticks": 2,
                "event": {
                    "deltaTime": 2,
                    "type": "channel",
                    "subtype": "noteOff",
                    "channel": 3,
                    "noteNumber": 79,
                    "velocity": 0,
                    "lightChannels": [
                        5
                    ]
                }
            }
        }
    },
    {
        "changes": {
            "col-1": 1,
            "col-2": 1,
            "col-3": 1
        },
        "timeout": 0.021186416666666662,
        "raw": {
            "col-1": {
                "pinValue": 1,
                "ticks": 2,
                "event": {
                    "deltaTime": 2,
                    "type": "channel",
                    "subtype": "noteOn",
                    "channel": 3,
                    "noteNumber": 83,
                    "velocity": 123,
                    "lightChannels": [
                        3,
                        4,
                        5
                    ]
                }
            },
            "col-2": {
                "pinValue": 1,
                "ticks": 2,
                "event": {
                    "deltaTime": 2,
                    "type": "channel",
                    "subtype": "noteOn",
                    "channel": 3,
                    "noteNumber": 83,
                    "velocity": 123,
                    "lightChannels": [
                        3,
                        4,
                        5
                    ]
                }
            },
            "col-3": {
                "pinValue": 1,
                "ticks": 2,
                "event": {
                    "deltaTime": 2,
                    "type": "channel",
                    "subtype": "noteOn",
                    "channel": 3,
                    "noteNumber": 83,
                    "velocity": 123,
                    "lightChannels": [
                        3,
                        4,
                        5
                    ]
                }
            }
        }
    },
    {
        "changes": {
            "window": 1,
            "outline": 1
        },
        "timeout": 0.0010593208333333332,
        "raw": {
            "window": {
                "pinValue": 1,
                "ticks": 1,
                "event": {
                    "deltaTime": 1,
                    "type": "channel",
                    "subtype": "noteOn",
                    "channel": 9,
                    "noteNumber": 54,
                    "velocity": 84,
                    "lightChannels": [
                        6,
                        7
                    ]
                }
            },
            "outline": {
                "pinValue": 1,
                "ticks": 1,
                "event": {
                    "deltaTime": 1,
                    "type": "channel",
                    "subtype": "noteOn",
                    "channel": 9,
                    "noteNumber": 54,
                    "velocity": 84,
                    "lightChannels": [
                        6,
                        7
                    ]
                }
            }
        }
    },
    {
        "changes": {
            "window": 0,
            "outline": 0
        },
        "timeout": 0.059321966666666656,
        "raw": {
            "window": {
                "pinValue": 0,
                "ticks": 3,
                "event": {
                    "deltaTime": 3,
                    "type": "channel",
                    "subtype": "noteOff",
                    "channel": 9,
                    "noteNumber": 54,
                    "velocity": 0,
                    "lightChannels": [
                        6,
                        7
                    ]
                }
            },
            "outline": {
                "pinValue": 0,
                "ticks": 3,
                "event": {
                    "deltaTime": 3,
                    "type": "channel",
                    "subtype": "noteOff",
                    "channel": 9,
                    "noteNumber": 54,
                    "velocity": 0,
                    "lightChannels": [
                        6,
                        7
                    ]
                }
            }
        }
    },
    {
        "changes": {
            "col-1": 0,
            "col-2": 0,
            "col-3": 0
        },
        "timeout": 0.02754234166666666,
        "raw": {
            "col-1": {
                "pinValue": 0,
                "ticks": 5,
                "event": {
                    "deltaTime": 5,
                    "type": "channel",
                    "subtype": "noteOff",
                    "channel": 3,
                    "noteNumber": 83,
                    "velocity": 0,
                    "lightChannels": [
                        3,
                        4,
                        5
                    ]
                }
            },
            "col-2": {
                "pinValue": 0,
                "ticks": 5,
                "event": {
                    "deltaTime": 5,
                    "type": "channel",
                    "subtype": "noteOff",
                    "channel": 3,
                    "noteNumber": 83,
                    "velocity": 0,
                    "lightChannels": [
                        3,
                        4,
                        5
                    ]
                }
            },
            "col-3": {
                "pinValue": 0,
                "ticks": 5,
                "event": {
                    "deltaTime": 5,
                    "type": "channel",
                    "subtype": "noteOff",
                    "channel": 3,
                    "noteNumber": 83,
                    "velocity": 0,
                    "lightChannels": [
                        3,
                        4,
                        5
                    ]
                }
            }
        }
    },
    {
        "changes": {
            "col-1": 1
        },
        "timeout": 0.1599574458333333,
        "raw": {
            "col-1": {
                "pinValue": 1,
                "ticks": 3,
                "event": {
                    "deltaTime": 3,
                    "type": "channel",
                    "subtype": "noteOn",
                    "channel": 3,
                    "noteNumber": 79,
                    "velocity": 118,
                    "lightChannels": [
                        3
                    ]
                }
            }
        }
    },
    {
        "changes": {
            "window": 1,
            "outline": 1
        },
        "timeout": 0.004237283333333333,
        "raw": {
            "window": {
                "pinValue": 1,
                "ticks": 4,
                "event": {
                    "deltaTime": 4,
                    "type": "channel",
                    "subtype": "noteOn",
                    "channel": 9,
                    "noteNumber": 54,
                    "velocity": 85,
                    "lightChannels": [
                        6,
                        7
                    ]
                }
            },
            "outline": {
                "pinValue": 1,
                "ticks": 4,
                "event": {
                    "deltaTime": 4,
                    "type": "channel",
                    "subtype": "noteOn",
                    "channel": 9,
                    "noteNumber": 54,
                    "velocity": 85,
                    "lightChannels": [
                        6,
                        7
                    ]
                }
            }
        }
    },
    {
        "changes": {
            "window": 0,
            "outline": 0
        },
        "timeout": 0.06038128749999999,
        "raw": {
            "window": {
                "pinValue": 0,
                "ticks": 1,
                "event": {
                    "deltaTime": 1,
                    "type": "channel",
                    "subtype": "noteOff",
                    "channel": 9,
                    "noteNumber": 54,
                    "velocity": 0,
                    "lightChannels": [
                        6,
                        7
                    ]
                }
            },
            "outline": {
                "pinValue": 0,
                "ticks": 1,
                "event": {
                    "deltaTime": 1,
                    "type": "channel",
                    "subtype": "noteOff",
                    "channel": 9,
                    "noteNumber": 54,
                    "velocity": 0,
                    "lightChannels": [
                        6,
                        7
                    ]
                }
            }
        }
    },
    {
        "changes": {
            "col-1": 0
        },
        "timeout": 0.0031779624999999996,
        "raw": {
            "col-1": {
                "pinValue": 0,
                "ticks": 3,
                "event": {
                    "deltaTime": 3,
                    "type": "channel",
                    "subtype": "noteOff",
                    "channel": 3,
                    "noteNumber": 79,
                    "velocity": 0,
                    "lightChannels": [
                        3
                    ]
                }
            }
        }
    },
    {
        "changes": {
            "col-2": 1
        },
        "timeout": 0.022245737499999994,
        "raw": {
            "col-2": {
                "pinValue": 1,
                "ticks": 1,
                "event": {
                    "deltaTime": 1,
                    "type": "channel",
                    "subtype": "noteOn",
                    "channel": 3,
                    "noteNumber": 78,
                    "velocity": 90,
                    "lightChannels": [
                        4
                    ]
                }
            }
        }
    },
    {
        "changes": {
            "col-3": 1
        },
        "timeout": 0.05296604166666666,
        "raw": {
            "col-3": {
                "pinValue": 1,
                "ticks": 3,
                "event": {
                    "deltaTime": 3,
                    "type": "channel",
                    "subtype": "noteOn",
                    "channel": 3,
                    "noteNumber": 79,
                    "velocity": 98,
                    "lightChannels": [
                        5
                    ]
                }
            }
        }
    },
    {
        "changes": {
            "col-2": 0
        },
        "timeout": 0.004237283333333333,
        "raw": {
            "col-2": {
                "pinValue": 0,
                "ticks": 2,
                "event": {
                    "deltaTime": 2,
                    "type": "channel",
                    "subtype": "noteOff",
                    "channel": 3,
                    "noteNumber": 78,
                    "velocity": 0,
                    "lightChannels": [
                        4
                    ]
                }
            }
        }
    },
    {
        "changes": {
            "col-3": 0
        },
        "timeout": 0.06355925,
        "raw": {
            "col-3": {
                "pinValue": 0,
                "ticks": 11,
                "event": {
                    "deltaTime": 11,
                    "type": "channel",
                    "subtype": "noteOff",
                    "channel": 3,
                    "noteNumber": 79,
                    "velocity": 0,
                    "lightChannels": [
                        5
                    ]
                }
            }
        }
    },
    {
        "changes": {
            "window": 1,
            "outline": 1
        },
        "timeout": 0.03389826666666666,
        "raw": {
            "window": {
                "pinValue": 1,
                "ticks": 0,
                "event": {
                    "deltaTime": 0,
                    "type": "channel",
                    "subtype": "noteOn",
                    "channel": 9,
                    "noteNumber": 54,
                    "velocity": 83,
                    "lightChannels": [
                        6,
                        7
                    ]
                }
            },
            "outline": {
                "pinValue": 1,
                "ticks": 0,
                "event": {
                    "deltaTime": 0,
                    "type": "channel",
                    "subtype": "noteOn",
                    "channel": 9,
                    "noteNumber": 54,
                    "velocity": 83,
                    "lightChannels": [
                        6,
                        7
                    ]
                }
            }
        }
    },
    {
        "changes": {
            "col-1": 1,
            "col-2": 1,
            "col-3": 1
        },
        "timeout": 0.0031779624999999996,
        "raw": {
            "col-1": {
                "pinValue": 1,
                "ticks": 3,
                "event": {
                    "deltaTime": 3,
                    "type": "channel",
                    "subtype": "noteOn",
                    "channel": 3,
                    "noteNumber": 83,
                    "velocity": 122,
                    "lightChannels": [
                        3,
                        4,
                        5
                    ]
                }
            },
            "col-2": {
                "pinValue": 1,
                "ticks": 3,
                "event": {
                    "deltaTime": 3,
                    "type": "channel",
                    "subtype": "noteOn",
                    "channel": 3,
                    "noteNumber": 83,
                    "velocity": 122,
                    "lightChannels": [
                        3,
                        4,
                        5
                    ]
                }
            },
            "col-3": {
                "pinValue": 1,
                "ticks": 3,
                "event": {
                    "deltaTime": 3,
                    "type": "channel",
                    "subtype": "noteOn",
                    "channel": 3,
                    "noteNumber": 83,
                    "velocity": 122,
                    "lightChannels": [
                        3,
                        4,
                        5
                    ]
                }
            }
        }
    },
    {
        "changes": {
            "window": 0,
            "outline": 0
        },
        "timeout": 0.056144004166666664,
        "raw": {
            "window": {
                "pinValue": 0,
                "ticks": 1,
                "event": {
                    "deltaTime": 1,
                    "type": "channel",
                    "subtype": "noteOff",
                    "channel": 9,
                    "noteNumber": 54,
                    "velocity": 0,
                    "lightChannels": [
                        6,
                        7
                    ]
                }
            },
            "outline": {
                "pinValue": 0,
                "ticks": 1,
                "event": {
                    "deltaTime": 1,
                    "type": "channel",
                    "subtype": "noteOff",
                    "channel": 9,
                    "noteNumber": 54,
                    "velocity": 0,
                    "lightChannels": [
                        6,
                        7
                    ]
                }
            }
        }
    },
    {
        "changes": {
            "col-1": 0,
            "col-2": 0,
            "col-3": 0
        },
        "timeout": 0.021186416666666666,
        "raw": {
            "col-1": {
                "pinValue": 0,
                "ticks": 2,
                "event": {
                    "deltaTime": 2,
                    "type": "channel",
                    "subtype": "noteOff",
                    "channel": 3,
                    "noteNumber": 83,
                    "velocity": 0,
                    "lightChannels": [
                        3,
                        4,
                        5
                    ]
                }
            },
            "col-2": {
                "pinValue": 0,
                "ticks": 2,
                "event": {
                    "deltaTime": 2,
                    "type": "channel",
                    "subtype": "noteOff",
                    "channel": 3,
                    "noteNumber": 83,
                    "velocity": 0,
                    "lightChannels": [
                        3,
                        4,
                        5
                    ]
                }
            },
            "col-3": {
                "pinValue": 0,
                "ticks": 2,
                "event": {
                    "deltaTime": 2,
                    "type": "channel",
                    "subtype": "noteOff",
                    "channel": 3,
                    "noteNumber": 83,
                    "velocity": 0,
                    "lightChannels": [
                        3,
                        4,
                        5
                    ]
                }
            }
        }
    },
    {
        "changes": {
            "window": 1,
            "outline": 1
        },
        "timeout": 0.1737286166666666,
        "raw": {
            "window": {
                "pinValue": 1,
                "ticks": 7,
                "event": {
                    "deltaTime": 7,
                    "type": "channel",
                    "subtype": "noteOn",
                    "channel": 9,
                    "noteNumber": 54,
                    "velocity": 85,
                    "lightChannels": [
                        6,
                        7
                    ]
                }
            },
            "outline": {
                "pinValue": 1,
                "ticks": 7,
                "event": {
                    "deltaTime": 7,
                    "type": "channel",
                    "subtype": "noteOn",
                    "channel": 9,
                    "noteNumber": 54,
                    "velocity": 85,
                    "lightChannels": [
                        6,
                        7
                    ]
                }
            }
        }
    },
    {
        "changes": {
            "garage": 1
        },
        "timeout": 0.007415245833333333,
        "raw": {
            "garage": {
                "pinValue": 1,
                "ticks": 0,
                "event": {
                    "deltaTime": 0,
                    "type": "channel",
                    "subtype": "noteOn",
                    "channel": 8,
                    "noteNumber": 59,
                    "velocity": 127,
                    "lightChannels": [
                        0
                    ]
                }
            }
        }
    },
    {
        "changes": {
            "window": 0,
            "outline": 0
        },
        "timeout": 0.05508468333333333,
        "raw": {
            "window": {
                "pinValue": 0,
                "ticks": 3,
                "event": {
                    "deltaTime": 3,
                    "type": "channel",
                    "subtype": "noteOff",
                    "channel": 9,
                    "noteNumber": 54,
                    "velocity": 0,
                    "lightChannels": [
                        6,
                        7
                    ]
                }
            },
            "outline": {
                "pinValue": 0,
                "ticks": 3,
                "event": {
                    "deltaTime": 3,
                    "type": "channel",
                    "subtype": "noteOff",
                    "channel": 9,
                    "noteNumber": 54,
                    "velocity": 0,
                    "lightChannels": [
                        6,
                        7
                    ]
                }
            }
        }
    },
    {
        "changes": {
            "garage": 0
        },
        "timeout": 0.16525404999999999,
        "raw": {
            "garage": {
                "pinValue": 0,
                "ticks": 3,
                "event": {
                    "deltaTime": 3,
                    "type": "channel",
                    "subtype": "noteOff",
                    "channel": 8,
                    "noteNumber": 59,
                    "velocity": 0,
                    "lightChannels": [
                        0
                    ]
                }
            }
        }
    },
    {
        "changes": {
            "window": 1,
            "outline": 1
        },
        "timeout": 0.01694913333333333,
        "raw": {
            "window": {
                "pinValue": 1,
                "ticks": 16,
                "event": {
                    "deltaTime": 16,
                    "type": "channel",
                    "subtype": "noteOn",
                    "channel": 9,
                    "noteNumber": 54,
                    "velocity": 84,
                    "lightChannels": [
                        6,
                        7
                    ]
                }
            },
            "outline": {
                "pinValue": 1,
                "ticks": 16,
                "event": {
                    "deltaTime": 16,
                    "type": "channel",
                    "subtype": "noteOn",
                    "channel": 9,
                    "noteNumber": 54,
                    "velocity": 84,
                    "lightChannels": [
                        6,
                        7
                    ]
                }
            }
        }
    },
    {
        "changes": {
            "top-right": 1
        },
        "timeout": 0.008474566666666666,
        "raw": {
            "top-right": {
                "pinValue": 1,
                "ticks": 1,
                "event": {
                    "deltaTime": 1,
                    "type": "channel",
                    "subtype": "noteOn",
                    "channel": 8,
                    "noteNumber": 57,
                    "velocity": 121,
                    "lightChannels": [
                        1
                    ]
                }
            }
        }
    },
    {
        "changes": {
            "garden": 1
        },
        "timeout": 0.007415245833333333,
        "raw": {
            "garden": {
                "pinValue": 1,
                "ticks": 0,
                "event": {
                    "deltaTime": 0,
                    "type": "channel",
                    "subtype": "noteOn",
                    "channel": 9,
                    "noteNumber": 61,
                    "velocity": 116,
                    "lightChannels": [
                        8
                    ]
                }
            }
        }
    },
    {
        "changes": {
            "window": 0,
            "outline": 0
        },
        "timeout": 0.049788079166666666,
        "raw": {
            "window": {
                "pinValue": 0,
                "ticks": 43,
                "event": {
                    "deltaTime": 43,
                    "type": "channel",
                    "subtype": "noteOff",
                    "channel": 9,
                    "noteNumber": 54,
                    "velocity": 0,
                    "lightChannels": [
                        6,
                        7
                    ]
                }
            },
            "outline": {
                "pinValue": 0,
                "ticks": 43,
                "event": {
                    "deltaTime": 43,
                    "type": "channel",
                    "subtype": "noteOff",
                    "channel": 9,
                    "noteNumber": 54,
                    "velocity": 0,
                    "lightChannels": [
                        6,
                        7
                    ]
                }
            }
        }
    },
    {
        "changes": {
            "garden": 0
        },
        "timeout": 0.0158898125,
        "raw": {
            "garden": {
                "pinValue": 0,
                "ticks": 3,
                "event": {
                    "deltaTime": 3,
                    "type": "channel",
                    "subtype": "noteOff",
                    "channel": 9,
                    "noteNumber": 61,
                    "velocity": 0,
                    "lightChannels": [
                        8
                    ]
                }
            }
        }
    },
    {
        "changes": {
            "top-right": 0
        },
        "timeout": 0.13241510416666666,
        "raw": {
            "top-right": {
                "pinValue": 0,
                "ticks": 34,
                "event": {
                    "deltaTime": 34,
                    "type": "channel",
                    "subtype": "noteOff",
                    "channel": 8,
                    "noteNumber": 57,
                    "velocity": 0,
                    "lightChannels": [
                        1
                    ]
                }
            }
        }
    },
    {
        "changes": {
            "bottom-right": 1
        },
        "timeout": 0.023305058333333333,
        "raw": {
            "bottom-right": {
                "pinValue": 1,
                "ticks": 20,
                "event": {
                    "deltaTime": 20,
                    "type": "channel",
                    "subtype": "noteOn",
                    "channel": 8,
                    "noteNumber": 55,
                    "velocity": 121,
                    "lightChannels": [
                        2
                    ]
                }
            }
        }
    },
    {
        "changes": {
            "window": 1,
            "outline": 1
        },
        "timeout": 0.018008454166666667,
        "raw": {
            "window": {
                "pinValue": 1,
                "ticks": 12,
                "event": {
                    "deltaTime": 12,
                    "type": "channel",
                    "subtype": "noteOn",
                    "channel": 9,
                    "noteNumber": 54,
                    "velocity": 84,
                    "lightChannels": [
                        6,
                        7
                    ]
                }
            },
            "outline": {
                "pinValue": 1,
                "ticks": 12,
                "event": {
                    "deltaTime": 12,
                    "type": "channel",
                    "subtype": "noteOn",
                    "channel": 9,
                    "noteNumber": 54,
                    "velocity": 84,
                    "lightChannels": [
                        6,
                        7
                    ]
                }
            }
        }
    },
    {
        "changes": {
            "tree": 1
        },
        "timeout": 0.01694913333333333,
        "raw": {
            "tree": {
                "pinValue": 1,
                "ticks": 4,
                "event": {
                    "deltaTime": 4,
                    "type": "channel",
                    "subtype": "noteOn",
                    "channel": 9,
                    "noteNumber": 60,
                    "velocity": 119,
                    "lightChannels": [
                        9
                    ]
                }
            }
        }
    },
    {
        "changes": {
            "window": 0,
            "outline": 0
        },
        "timeout": 0.04555079583333333,
        "raw": {
            "window": {
                "pinValue": 0,
                "ticks": 43,
                "event": {
                    "deltaTime": 43,
                    "type": "channel",
                    "subtype": "noteOff",
                    "channel": 9,
                    "noteNumber": 54,
                    "velocity": 0,
                    "lightChannels": [
                        6,
                        7
                    ]
                }
            },
            "outline": {
                "pinValue": 0,
                "ticks": 43,
                "event": {
                    "deltaTime": 43,
                    "type": "channel",
                    "subtype": "noteOff",
                    "channel": 9,
                    "noteNumber": 54,
                    "velocity": 0,
                    "lightChannels": [
                        6,
                        7
                    ]
                }
            }
        }
    },
    {
        "changes": {
            "tree": 0
        },
        "timeout": 0.021186416666666666,
        "raw": {
            "tree": {
                "pinValue": 0,
                "ticks": 20,
                "event": {
                    "deltaTime": 20,
                    "type": "channel",
                    "subtype": "noteOff",
                    "channel": 9,
                    "noteNumber": 60,
                    "velocity": 0,
                    "lightChannels": [
                        9
                    ]
                }
            }
        }
    },
    {
        "changes": {
            "bottom-right": 0
        },
        "timeout": 0.12394053749999999,
        "raw": {
            "bottom-right": {
                "pinValue": 0,
                "ticks": 8,
                "event": {
                    "deltaTime": 8,
                    "type": "channel",
                    "subtype": "noteOff",
                    "channel": 8,
                    "noteNumber": 55,
                    "velocity": 0,
                    "lightChannels": [
                        2
                    ]
                }
            }
        }
    },
    {
        "changes": {
            "garage": 1,
            "top-right": 1,
            "bottom-right": 1
        },
        "timeout": 0.03283894583333333,
        "raw": {
            "garage": {
                "pinValue": 1,
                "ticks": 6,
                "event": {
                    "deltaTime": 6,
                    "type": "channel",
                    "subtype": "noteOn",
                    "channel": 8,
                    "noteNumber": 54,
                    "velocity": 127,
                    "lightChannels": [
                        0,
                        1,
                        2
                    ]
                }
            },
            "top-right": {
                "pinValue": 1,
                "ticks": 6,
                "event": {
                    "deltaTime": 6,
                    "type": "channel",
                    "subtype": "noteOn",
                    "channel": 8,
                    "noteNumber": 54,
                    "velocity": 127,
                    "lightChannels": [
                        0,
                        1,
                        2
                    ]
                }
            },
            "bottom-right": {
                "pinValue": 1,
                "ticks": 6,
                "event": {
                    "deltaTime": 6,
                    "type": "channel",
                    "subtype": "noteOn",
                    "channel": 8,
                    "noteNumber": 54,
                    "velocity": 127,
                    "lightChannels": [
                        0,
                        1,
                        2
                    ]
                }
            }
        }
    },
    {
        "changes": {
            "tree": 1
        },
        "timeout": 0.023305058333333326,
        "raw": {
            "tree": {
                "pinValue": 1,
                "ticks": 1,
                "event": {
                    "deltaTime": 1,
                    "type": "channel",
                    "subtype": "noteOn",
                    "channel": 9,
                    "noteNumber": 60,
                    "velocity": 122,
                    "lightChannels": [
                        9
                    ]
                }
            }
        }
    },
    {
        "changes": {
            "window": 1,
            "outline": 1
        },
        "timeout": 0.004237283333333333,
        "raw": {
            "window": {
                "pinValue": 1,
                "ticks": 4,
                "event": {
                    "deltaTime": 4,
                    "type": "channel",
                    "subtype": "noteOn",
                    "channel": 9,
                    "noteNumber": 54,
                    "velocity": 84,
                    "lightChannels": [
                        6,
                        7
                    ]
                }
            },
            "outline": {
                "pinValue": 1,
                "ticks": 4,
                "event": {
                    "deltaTime": 4,
                    "type": "channel",
                    "subtype": "noteOn",
                    "channel": 9,
                    "noteNumber": 54,
                    "velocity": 84,
                    "lightChannels": [
                        6,
                        7
                    ]
                }
            }
        }
    },
    {
        "changes": {
            "window": 0,
            "outline": 0
        },
        "timeout": 0.05826264583333333,
        "raw": {
            "window": {
                "pinValue": 0,
                "ticks": 54,
                "event": {
                    "deltaTime": 54,
                    "type": "channel",
                    "subtype": "noteOff",
                    "channel": 9,
                    "noteNumber": 54,
                    "velocity": 0,
                    "lightChannels": [
                        6,
                        7
                    ]
                }
            },
            "outline": {
                "pinValue": 0,
                "ticks": 54,
                "event": {
                    "deltaTime": 54,
                    "type": "channel",
                    "subtype": "noteOff",
                    "channel": 9,
                    "noteNumber": 54,
                    "velocity": 0,
                    "lightChannels": [
                        6,
                        7
                    ]
                }
            }
        }
    },
    {
        "changes": {
            "tree": 0
        },
        "timeout": 0.004237283333333333,
        "raw": {
            "tree": {
                "pinValue": 0,
                "ticks": 4,
                "event": {
                    "deltaTime": 4,
                    "type": "channel",
                    "subtype": "noteOff",
                    "channel": 9,
                    "noteNumber": 60,
                    "velocity": 0,
                    "lightChannels": [
                        9
                    ]
                }
            }
        }
    },
    {
        "changes": {
            "garden": 1
        },
        "timeout": 0.18114386249999997,
        "raw": {
            "garden": {
                "pinValue": 1,
                "ticks": 5,
                "event": {
                    "deltaTime": 5,
                    "type": "channel",
                    "subtype": "noteOn",
                    "channel": 9,
                    "noteNumber": 61,
                    "velocity": 118,
                    "lightChannels": [
                        8
                    ]
                }
            }
        }
    },
    {
        "changes": {
            "window": 1,
            "outline": 1
        },
        "timeout": 0.0095338875,
        "raw": {
            "window": {
                "pinValue": 1,
                "ticks": 3,
                "event": {
                    "deltaTime": 3,
                    "type": "channel",
                    "subtype": "noteOn",
                    "channel": 9,
                    "noteNumber": 54,
                    "velocity": 81,
                    "lightChannels": [
                        6,
                        7
                    ]
                }
            },
            "outline": {
                "pinValue": 1,
                "ticks": 3,
                "event": {
                    "deltaTime": 3,
                    "type": "channel",
                    "subtype": "noteOn",
                    "channel": 9,
                    "noteNumber": 54,
                    "velocity": 81,
                    "lightChannels": [
                        6,
                        7
                    ]
                }
            }
        }
    },
    {
        "changes": {
            "garden": 0
        },
        "timeout": 0.05190672083333333,
        "raw": {
            "garden": {
                "pinValue": 0,
                "ticks": 42,
                "event": {
                    "deltaTime": 42,
                    "type": "channel",
                    "subtype": "noteOff",
                    "channel": 9,
                    "noteNumber": 61,
                    "velocity": 0,
                    "lightChannels": [
                        8
                    ]
                }
            }
        }
    },
    {
        "changes": {
            "window": 0,
            "outline": 0
        },
        "timeout": 0.006355924999999999,
        "raw": {
            "window": {
                "pinValue": 0,
                "ticks": 6,
                "event": {
                    "deltaTime": 6,
                    "type": "channel",
                    "subtype": "noteOff",
                    "channel": 9,
                    "noteNumber": 54,
                    "velocity": 0,
                    "lightChannels": [
                        6,
                        7
                    ]
                }
            },
            "outline": {
                "pinValue": 0,
                "ticks": 6,
                "event": {
                    "deltaTime": 6,
                    "type": "channel",
                    "subtype": "noteOff",
                    "channel": 9,
                    "noteNumber": 54,
                    "velocity": 0,
                    "lightChannels": [
                        6,
                        7
                    ]
                }
            }
        }
    },
    {
        "changes": {
            "window": 1,
            "outline": 1
        },
        "timeout": 0.1917370708333333,
        "raw": {
            "window": {
                "pinValue": 1,
                "ticks": 0,
                "event": {
                    "deltaTime": 0,
                    "type": "channel",
                    "subtype": "noteOn",
                    "channel": 9,
                    "noteNumber": 54,
                    "velocity": 81,
                    "lightChannels": [
                        6,
                        7
                    ]
                }
            },
            "outline": {
                "pinValue": 1,
                "ticks": 0,
                "event": {
                    "deltaTime": 0,
                    "type": "channel",
                    "subtype": "noteOn",
                    "channel": 9,
                    "noteNumber": 54,
                    "velocity": 81,
                    "lightChannels": [
                        6,
                        7
                    ]
                }
            }
        }
    },
    {
        "changes": {
            "tree": 1
        },
        "timeout": 0.007415245833333332,
        "raw": {
            "tree": {
                "pinValue": 1,
                "ticks": 0,
                "event": {
                    "deltaTime": 0,
                    "type": "channel",
                    "subtype": "noteOn",
                    "channel": 9,
                    "noteNumber": 60,
                    "velocity": 116,
                    "lightChannels": [
                        9
                    ]
                }
            }
        }
    },
    {
        "changes": {
            "window": 0,
            "outline": 0
        },
        "timeout": 0.04978807916666666,
        "raw": {
            "window": {
                "pinValue": 0,
                "ticks": 35,
                "event": {
                    "deltaTime": 35,
                    "type": "channel",
                    "subtype": "noteOff",
                    "channel": 9,
                    "noteNumber": 54,
                    "velocity": 0,
                    "lightChannels": [
                        6,
                        7
                    ]
                }
            },
            "outline": {
                "pinValue": 0,
                "ticks": 35,
                "event": {
                    "deltaTime": 35,
                    "type": "channel",
                    "subtype": "noteOff",
                    "channel": 9,
                    "noteNumber": 54,
                    "velocity": 0,
                    "lightChannels": [
                        6,
                        7
                    ]
                }
            }
        }
    },
    {
        "changes": {
            "tree": 0
        },
        "timeout": 0.018008454166666663,
        "raw": {
            "tree": {
                "pinValue": 0,
                "ticks": 1,
                "event": {
                    "deltaTime": 1,
                    "type": "channel",
                    "subtype": "noteOff",
                    "channel": 9,
                    "noteNumber": 60,
                    "velocity": 0,
                    "lightChannels": [
                        9
                    ]
                }
            }
        }
    },
    {
        "changes": {
            "window": 1,
            "outline": 1
        },
        "timeout": 0.1663133708333333,
        "raw": {
            "window": {
                "pinValue": 1,
                "ticks": 1,
                "event": {
                    "deltaTime": 1,
                    "type": "channel",
                    "subtype": "noteOn",
                    "channel": 9,
                    "noteNumber": 54,
                    "velocity": 74,
                    "lightChannels": [
                        6,
                        7
                    ]
                }
            },
            "outline": {
                "pinValue": 1,
                "ticks": 1,
                "event": {
                    "deltaTime": 1,
                    "type": "channel",
                    "subtype": "noteOn",
                    "channel": 9,
                    "noteNumber": 54,
                    "velocity": 74,
                    "lightChannels": [
                        6,
                        7
                    ]
                }
            }
        }
    },
    {
        "changes": {
            "garden": 1
        },
        "timeout": 0.010593208333333333,
        "raw": {
            "garden": {
                "pinValue": 1,
                "ticks": 0,
                "event": {
                    "deltaTime": 0,
                    "type": "channel",
                    "subtype": "noteOn",
                    "channel": 9,
                    "noteNumber": 61,
                    "velocity": 116,
                    "lightChannels": [
                        8
                    ]
                }
            }
        }
    },
    {
        "changes": {
            "window": 0,
            "outline": 0
        },
        "timeout": 0.04872875833333333,
        "raw": {
            "window": {
                "pinValue": 0,
                "ticks": 5,
                "event": {
                    "deltaTime": 5,
                    "type": "channel",
                    "subtype": "noteOff",
                    "channel": 9,
                    "noteNumber": 54,
                    "velocity": 0,
                    "lightChannels": [
                        6,
                        7
                    ]
                }
            },
            "outline": {
                "pinValue": 0,
                "ticks": 5,
                "event": {
                    "deltaTime": 5,
                    "type": "channel",
                    "subtype": "noteOff",
                    "channel": 9,
                    "noteNumber": 54,
                    "velocity": 0,
                    "lightChannels": [
                        6,
                        7
                    ]
                }
            }
        }
    },
    {
        "changes": {
            "garden": 0
        },
        "timeout": 0.019067775,
        "raw": {
            "garden": {
                "pinValue": 0,
                "ticks": 18,
                "event": {
                    "deltaTime": 18,
                    "type": "channel",
                    "subtype": "noteOff",
                    "channel": 9,
                    "noteNumber": 61,
                    "velocity": 0,
                    "lightChannels": [
                        8
                    ]
                }
            }
        }
    },
    {
        "changes": {
            "window": 1,
            "outline": 1
        },
        "timeout": 0.18008454166666665,
        "raw": {
            "window": {
                "pinValue": 1,
                "ticks": 42,
                "event": {
                    "deltaTime": 42,
                    "type": "channel",
                    "subtype": "noteOn",
                    "channel": 9,
                    "noteNumber": 54,
                    "velocity": 79,
                    "lightChannels": [
                        6,
                        7
                    ]
                }
            },
            "outline": {
                "pinValue": 1,
                "ticks": 42,
                "event": {
                    "deltaTime": 42,
                    "type": "channel",
                    "subtype": "noteOn",
                    "channel": 9,
                    "noteNumber": 54,
                    "velocity": 79,
                    "lightChannels": [
                        6,
                        7
                    ]
                }
            }
        }
    },
    {
        "changes": {
            "tree": 1
        },
        "timeout": 0.01271185,
        "raw": {
            "tree": {
                "pinValue": 1,
                "ticks": 1,
                "event": {
                    "deltaTime": 1,
                    "type": "channel",
                    "subtype": "noteOn",
                    "channel": 9,
                    "noteNumber": 60,
                    "velocity": 121,
                    "lightChannels": [
                        9
                    ]
                }
            }
        }
    },
    {
        "changes": {
            "garage": 0,
            "top-right": 0,
            "bottom-right": 0
        },
        "timeout": 0.006355924999999999,
        "raw": {
            "garage": {
                "pinValue": 0,
                "ticks": 2,
                "event": {
                    "deltaTime": 2,
                    "type": "channel",
                    "subtype": "noteOff",
                    "channel": 8,
                    "noteNumber": 54,
                    "velocity": 0,
                    "lightChannels": [
                        0,
                        1,
                        2
                    ]
                }
            },
            "top-right": {
                "pinValue": 0,
                "ticks": 2,
                "event": {
                    "deltaTime": 2,
                    "type": "channel",
                    "subtype": "noteOff",
                    "channel": 8,
                    "noteNumber": 54,
                    "velocity": 0,
                    "lightChannels": [
                        0,
                        1,
                        2
                    ]
                }
            },
            "bottom-right": {
                "pinValue": 0,
                "ticks": 2,
                "event": {
                    "deltaTime": 2,
                    "type": "channel",
                    "subtype": "noteOff",
                    "channel": 8,
                    "noteNumber": 54,
                    "velocity": 0,
                    "lightChannels": [
                        0,
                        1,
                        2
                    ]
                }
            }
        }
    },
    {
        "changes": {
            "window": 0,
            "outline": 0
        },
        "timeout": 0.03813555,
        "raw": {
            "window": {
                "pinValue": 0,
                "ticks": 23,
                "event": {
                    "deltaTime": 23,
                    "type": "channel",
                    "subtype": "noteOff",
                    "channel": 9,
                    "noteNumber": 54,
                    "velocity": 0,
                    "lightChannels": [
                        6,
                        7
                    ]
                }
            },
            "outline": {
                "pinValue": 0,
                "ticks": 23,
                "event": {
                    "deltaTime": 23,
                    "type": "channel",
                    "subtype": "noteOff",
                    "channel": 9,
                    "noteNumber": 54,
                    "velocity": 0,
                    "lightChannels": [
                        6,
                        7
                    ]
                }
            }
        }
    },
    {
        "changes": {
            "tree": 0
        },
        "timeout": 0.02330505833333333,
        "raw": {
            "tree": {
                "pinValue": 0,
                "ticks": 22,
                "event": {
                    "deltaTime": 22,
                    "type": "channel",
                    "subtype": "noteOff",
                    "channel": 9,
                    "noteNumber": 60,
                    "velocity": 0,
                    "lightChannels": [
                        9
                    ]
                }
            }
        }
    },
    {
        "changes": {
            "window": 1,
            "outline": 1
        },
        "timeout": 0.1747879375,
        "raw": {
            "window": {
                "pinValue": 1,
                "ticks": 0,
                "event": {
                    "deltaTime": 0,
                    "type": "channel",
                    "subtype": "noteOn",
                    "channel": 9,
                    "noteNumber": 54,
                    "velocity": 81,
                    "lightChannels": [
                        6,
                        7
                    ]
                }
            },
            "outline": {
                "pinValue": 1,
                "ticks": 0,
                "event": {
                    "deltaTime": 0,
                    "type": "channel",
                    "subtype": "noteOn",
                    "channel": 9,
                    "noteNumber": 54,
                    "velocity": 81,
                    "lightChannels": [
                        6,
                        7
                    ]
                }
            }
        }
    },
    {
        "changes": {
            "garage": 1
        },
        "timeout": 0.004237283333333333,
        "raw": {
            "garage": {
                "pinValue": 1,
                "ticks": 4,
                "event": {
                    "deltaTime": 4,
                    "type": "channel",
                    "subtype": "noteOn",
                    "channel": 8,
                    "noteNumber": 50,
                    "velocity": 118,
                    "lightChannels": [
                        0
                    ]
                }
            }
        }
    },
    {
        "changes": {
            "garden": 1
        },
        "timeout": 0.014830491666666664,
        "raw": {
            "garden": {
                "pinValue": 1,
                "ticks": 14,
                "event": {
                    "deltaTime": 14,
                    "type": "channel",
                    "subtype": "noteOn",
                    "channel": 9,
                    "noteNumber": 61,
                    "velocity": 116,
                    "lightChannels": [
                        8
                    ]
                }
            }
        }
    },
    {
        "changes": {
            "window": 0,
            "outline": 0
        },
        "timeout": 0.039194870833333326,
        "raw": {
            "window": {
                "pinValue": 0,
                "ticks": 37,
                "event": {
                    "deltaTime": 37,
                    "type": "channel",
                    "subtype": "noteOff",
                    "channel": 9,
                    "noteNumber": 54,
                    "velocity": 0,
                    "lightChannels": [
                        6,
                        7
                    ]
                }
            },
            "outline": {
                "pinValue": 0,
                "ticks": 37,
                "event": {
                    "deltaTime": 37,
                    "type": "channel",
                    "subtype": "noteOff",
                    "channel": 9,
                    "noteNumber": 54,
                    "velocity": 0,
                    "lightChannels": [
                        6,
                        7
                    ]
                }
            }
        }
    },
    {
        "changes": {
            "garden": 0
        },
        "timeout": 0.03389826666666666,
        "raw": {
            "garden": {
                "pinValue": 0,
                "ticks": 32,
                "event": {
                    "deltaTime": 32,
                    "type": "channel",
                    "subtype": "noteOff",
                    "channel": 9,
                    "noteNumber": 61,
                    "velocity": 0,
                    "lightChannels": [
                        8
                    ]
                }
            }
        }
    },
    {
        "changes": {
            "garage": 0
        },
        "timeout": 0.12817782083333332,
        "raw": {
            "garage": {
                "pinValue": 0,
                "ticks": 31,
                "event": {
                    "deltaTime": 31,
                    "type": "channel",
                    "subtype": "noteOff",
                    "channel": 8,
                    "noteNumber": 50,
                    "velocity": 0,
                    "lightChannels": [
                        0
                    ]
                }
            }
        }
    },
    {
        "changes": {
            "window": 1,
            "outline": 1
        },
        "timeout": 0.03389826666666666,
        "raw": {
            "window": {
                "pinValue": 1,
                "ticks": 5,
                "event": {
                    "deltaTime": 5,
                    "type": "channel",
                    "subtype": "noteOn",
                    "channel": 9,
                    "noteNumber": 54,
                    "velocity": 85,
                    "lightChannels": [
                        6,
                        7
                    ]
                }
            },
            "outline": {
                "pinValue": 1,
                "ticks": 5,
                "event": {
                    "deltaTime": 5,
                    "type": "channel",
                    "subtype": "noteOn",
                    "channel": 9,
                    "noteNumber": 54,
                    "velocity": 85,
                    "lightChannels": [
                        6,
                        7
                    ]
                }
            }
        }
    },
    {
        "changes": {
            "top-right": 1
        },
        "timeout": 0.006355924999999999,
        "raw": {
            "top-right": {
                "pinValue": 1,
                "ticks": 6,
                "event": {
                    "deltaTime": 6,
                    "type": "channel",
                    "subtype": "noteOn",
                    "channel": 8,
                    "noteNumber": 54,
                    "velocity": 124,
                    "lightChannels": [
                        1
                    ]
                }
            }
        }
    },
    {
        "changes": {
            "tree": 1
        },
        "timeout": 0.013771170833333332,
        "raw": {
            "tree": {
                "pinValue": 1,
                "ticks": 12,
                "event": {
                    "deltaTime": 12,
                    "type": "channel",
                    "subtype": "noteOn",
                    "channel": 9,
                    "noteNumber": 60,
                    "velocity": 122,
                    "lightChannels": [
                        9
                    ]
                }
            }
        }
    },
    {
        "changes": {
            "window": 0,
            "outline": 0
        },
        "timeout": 0.03813555,
        "raw": {
            "window": {
                "pinValue": 0,
                "ticks": 36,
                "event": {
                    "deltaTime": 36,
                    "type": "channel",
                    "subtype": "noteOff",
                    "channel": 9,
                    "noteNumber": 54,
                    "velocity": 0,
                    "lightChannels": [
                        6,
                        7
                    ]
                }
            },
            "outline": {
                "pinValue": 0,
                "ticks": 36,
                "event": {
                    "deltaTime": 36,
                    "type": "channel",
                    "subtype": "noteOff",
                    "channel": 9,
                    "noteNumber": 54,
                    "velocity": 0,
                    "lightChannels": [
                        6,
                        7
                    ]
                }
            }
        }
    },
    {
        "changes": {
            "tree": 0
        },
        "timeout": 0.03283894583333333,
        "raw": {
            "tree": {
                "pinValue": 0,
                "ticks": 31,
                "event": {
                    "deltaTime": 31,
                    "type": "channel",
                    "subtype": "noteOff",
                    "channel": 9,
                    "noteNumber": 60,
                    "velocity": 0,
                    "lightChannels": [
                        9
                    ]
                }
            }
        }
    },
    {
        "changes": {
            "top-right": 0
        },
        "timeout": 0.146186275,
        "raw": {
            "top-right": {
                "pinValue": 0,
                "ticks": 4,
                "event": {
                    "deltaTime": 4,
                    "type": "channel",
                    "subtype": "noteOff",
                    "channel": 8,
                    "noteNumber": 54,
                    "velocity": 0,
                    "lightChannels": [
                        1
                    ]
                }
            }
        }
    },
    {
        "changes": {
            "window": 1,
            "outline": 1
        },
        "timeout": 0.014830491666666664,
        "raw": {
            "window": {
                "pinValue": 1,
                "ticks": 14,
                "event": {
                    "deltaTime": 14,
                    "type": "channel",
                    "subtype": "noteOn",
                    "channel": 9,
                    "noteNumber": 54,
                    "velocity": 83,
                    "lightChannels": [
                        6,
                        7
                    ]
                }
            },
            "outline": {
                "pinValue": 1,
                "ticks": 14,
                "event": {
                    "deltaTime": 14,
                    "type": "channel",
                    "subtype": "noteOn",
                    "channel": 9,
                    "noteNumber": 54,
                    "velocity": 83,
                    "lightChannels": [
                        6,
                        7
                    ]
                }
            }
        }
    },
    {
        "changes": {
            "bottom-right": 1
        },
        "timeout": 0.007415245833333332,
        "raw": {
            "bottom-right": {
                "pinValue": 1,
                "ticks": 7,
                "event": {
                    "deltaTime": 7,
                    "type": "channel",
                    "subtype": "noteOn",
                    "channel": 8,
                    "noteNumber": 59,
                    "velocity": 127,
                    "lightChannels": [
                        2
                    ]
                }
            }
        }
    },
    {
        "changes": {
            "garden": 1
        },
        "timeout": 0.004237283333333333,
        "raw": {
            "garden": {
                "pinValue": 1,
                "ticks": 0,
                "event": {
                    "deltaTime": 0,
                    "type": "channel",
                    "subtype": "noteOn",
                    "channel": 9,
                    "noteNumber": 61,
                    "velocity": 116,
                    "lightChannels": [
                        8
                    ]
                }
            }
        }
    },
    {
        "changes": {
            "window": 0,
            "outline": 0
        },
        "timeout": 0.04555079583333333,
        "raw": {
            "window": {
                "pinValue": 0,
                "ticks": 43,
                "event": {
                    "deltaTime": 43,
                    "type": "channel",
                    "subtype": "noteOff",
                    "channel": 9,
                    "noteNumber": 54,
                    "velocity": 0,
                    "lightChannels": [
                        6,
                        7
                    ]
                }
            },
            "outline": {
                "pinValue": 0,
                "ticks": 43,
                "event": {
                    "deltaTime": 43,
                    "type": "channel",
                    "subtype": "noteOff",
                    "channel": 9,
                    "noteNumber": 54,
                    "velocity": 0,
                    "lightChannels": [
                        6,
                        7
                    ]
                }
            }
        }
    },
    {
        "changes": {
            "garden": 0
        },
        "timeout": 0.021186416666666666,
        "raw": {
            "garden": {
                "pinValue": 0,
                "ticks": 0,
                "event": {
                    "deltaTime": 0,
                    "type": "channel",
                    "subtype": "noteOff",
                    "channel": 9,
                    "noteNumber": 61,
                    "velocity": 0,
                    "lightChannels": [
                        8
                    ]
                }
            }
        }
    },
    {
        "changes": {
            "bottom-right": 0
        },
        "timeout": 0.15042355833333332,
        "raw": {
            "bottom-right": {
                "pinValue": 0,
                "ticks": 24,
                "event": {
                    "deltaTime": 24,
                    "type": "channel",
                    "subtype": "noteOff",
                    "channel": 8,
                    "noteNumber": 59,
                    "velocity": 0,
                    "lightChannels": [
                        2
                    ]
                }
            }
        }
    },
    {
        "changes": {
            "window": 1,
            "outline": 1
        },
        "timeout": 0.024364379166666665,
        "raw": {
            "window": {
                "pinValue": 1,
                "ticks": 12,
                "event": {
                    "deltaTime": 12,
                    "type": "channel",
                    "subtype": "noteOn",
                    "channel": 9,
                    "noteNumber": 54,
                    "velocity": 83,
                    "lightChannels": [
                        6,
                        7
                    ]
                }
            },
            "outline": {
                "pinValue": 1,
                "ticks": 12,
                "event": {
                    "deltaTime": 12,
                    "type": "channel",
                    "subtype": "noteOn",
                    "channel": 9,
                    "noteNumber": 54,
                    "velocity": 83,
                    "lightChannels": [
                        6,
                        7
                    ]
                }
            }
        }
    },
    {
        "changes": {
            "garage": 1,
            "top-right": 1,
            "bottom-right": 1
        },
        "timeout": 0.008474566666666666,
        "raw": {
            "garage": {
                "pinValue": 1,
                "ticks": 8,
                "event": {
                    "deltaTime": 8,
                    "type": "channel",
                    "subtype": "noteOn",
                    "channel": 8,
                    "noteNumber": 55,
                    "velocity": 127,
                    "lightChannels": [
                        0,
                        1,
                        2
                    ]
                }
            },
            "top-right": {
                "pinValue": 1,
                "ticks": 8,
                "event": {
                    "deltaTime": 8,
                    "type": "channel",
                    "subtype": "noteOn",
                    "channel": 8,
                    "noteNumber": 55,
                    "velocity": 127,
                    "lightChannels": [
                        0,
                        1,
                        2
                    ]
                }
            },
            "bottom-right": {
                "pinValue": 1,
                "ticks": 8,
                "event": {
                    "deltaTime": 8,
                    "type": "channel",
                    "subtype": "noteOn",
                    "channel": 8,
                    "noteNumber": 55,
                    "velocity": 127,
                    "lightChannels": [
                        0,
                        1,
                        2
                    ]
                }
            }
        }
    },
    {
        "changes": {
            "tree": 1
        },
        "timeout": 0.004237283333333333,
        "raw": {
            "tree": {
                "pinValue": 1,
                "ticks": 3,
                "event": {
                    "deltaTime": 3,
                    "type": "channel",
                    "subtype": "noteOn",
                    "channel": 9,
                    "noteNumber": 60,
                    "velocity": 122,
                    "lightChannels": [
                        9
                    ]
                }
            }
        }
    },
    {
        "changes": {
            "window": 0,
            "outline": 0
        },
        "timeout": 0.047669437499999995,
        "raw": {
            "window": {
                "pinValue": 0,
                "ticks": 39,
                "event": {
                    "deltaTime": 39,
                    "type": "channel",
                    "subtype": "noteOff",
                    "channel": 9,
                    "noteNumber": 54,
                    "velocity": 0,
                    "lightChannels": [
                        6,
                        7
                    ]
                }
            },
            "outline": {
                "pinValue": 0,
                "ticks": 39,
                "event": {
                    "deltaTime": 39,
                    "type": "channel",
                    "subtype": "noteOff",
                    "channel": 9,
                    "noteNumber": 54,
                    "velocity": 0,
                    "lightChannels": [
                        6,
                        7
                    ]
                }
            }
        }
    },
    {
        "changes": {
            "tree": 0
        },
        "timeout": 0.024364379166666665,
        "raw": {
            "tree": {
                "pinValue": 0,
                "ticks": 23,
                "event": {
                    "deltaTime": 23,
                    "type": "channel",
                    "subtype": "noteOff",
                    "channel": 9,
                    "noteNumber": 60,
                    "velocity": 0,
                    "lightChannels": [
                        9
                    ]
                }
            }
        }
    },
    {
        "changes": {
            "window": 1,
            "outline": 1
        },
        "timeout": 0.1726692958333333,
        "raw": {
            "window": {
                "pinValue": 1,
                "ticks": 1,
                "event": {
                    "deltaTime": 1,
                    "type": "channel",
                    "subtype": "noteOn",
                    "channel": 9,
                    "noteNumber": 54,
                    "velocity": 80,
                    "lightChannels": [
                        6,
                        7
                    ]
                }
            },
            "outline": {
                "pinValue": 1,
                "ticks": 1,
                "event": {
                    "deltaTime": 1,
                    "type": "channel",
                    "subtype": "noteOn",
                    "channel": 9,
                    "noteNumber": 54,
                    "velocity": 80,
                    "lightChannels": [
                        6,
                        7
                    ]
                }
            }
        }
    },
    {
        "changes": {
            "garden": 1
        },
        "timeout": 0.019067775,
        "raw": {
            "garden": {
                "pinValue": 1,
                "ticks": 2,
                "event": {
                    "deltaTime": 2,
                    "type": "channel",
                    "subtype": "noteOn",
                    "channel": 9,
                    "noteNumber": 61,
                    "velocity": 116,
                    "lightChannels": [
                        8
                    ]
                }
            }
        }
    },
    {
        "changes": {
            "window": 0,
            "outline": 0
        },
        "timeout": 0.044491474999999996,
        "raw": {
            "window": {
                "pinValue": 0,
                "ticks": 36,
                "event": {
                    "deltaTime": 36,
                    "type": "channel",
                    "subtype": "noteOff",
                    "channel": 9,
                    "noteNumber": 54,
                    "velocity": 0,
                    "lightChannels": [
                        6,
                        7
                    ]
                }
            },
            "outline": {
                "pinValue": 0,
                "ticks": 36,
                "event": {
                    "deltaTime": 36,
                    "type": "channel",
                    "subtype": "noteOff",
                    "channel": 9,
                    "noteNumber": 54,
                    "velocity": 0,
                    "lightChannels": [
                        6,
                        7
                    ]
                }
            }
        }
    },
    {
        "changes": {
            "garden": 0
        },
        "timeout": 0.022245737499999998,
        "raw": {
            "garden": {
                "pinValue": 0,
                "ticks": 21,
                "event": {
                    "deltaTime": 21,
                    "type": "channel",
                    "subtype": "noteOff",
                    "channel": 9,
                    "noteNumber": 61,
                    "velocity": 0,
                    "lightChannels": [
                        8
                    ]
                }
            }
        }
    },
    {
        "changes": {
            "window": 1,
            "outline": 1
        },
        "timeout": 0.1758472583333333,
        "raw": {
            "window": {
                "pinValue": 1,
                "ticks": 1,
                "event": {
                    "deltaTime": 1,
                    "type": "channel",
                    "subtype": "noteOn",
                    "channel": 9,
                    "noteNumber": 54,
                    "velocity": 87,
                    "lightChannels": [
                        6,
                        7
                    ]
                }
            },
            "outline": {
                "pinValue": 1,
                "ticks": 1,
                "event": {
                    "deltaTime": 1,
                    "type": "channel",
                    "subtype": "noteOn",
                    "channel": 9,
                    "noteNumber": 54,
                    "velocity": 87,
                    "lightChannels": [
                        6,
                        7
                    ]
                }
            }
        }
    },
    {
        "changes": {
            "tree": 1
        },
        "timeout": 0.01271185,
        "raw": {
            "tree": {
                "pinValue": 1,
                "ticks": 1,
                "event": {
                    "deltaTime": 1,
                    "type": "channel",
                    "subtype": "noteOn",
                    "channel": 9,
                    "noteNumber": 60,
                    "velocity": 119,
                    "lightChannels": [
                        9
                    ]
                }
            }
        }
    },
    {
        "changes": {
            "window": 0,
            "outline": 0
        },
        "timeout": 0.04661011666666666,
        "raw": {
            "window": {
                "pinValue": 0,
                "ticks": 34,
                "event": {
                    "deltaTime": 34,
                    "type": "channel",
                    "subtype": "noteOff",
                    "channel": 9,
                    "noteNumber": 54,
                    "velocity": 0,
                    "lightChannels": [
                        6,
                        7
                    ]
                }
            },
            "outline": {
                "pinValue": 0,
                "ticks": 34,
                "event": {
                    "deltaTime": 34,
                    "type": "channel",
                    "subtype": "noteOff",
                    "channel": 9,
                    "noteNumber": 54,
                    "velocity": 0,
                    "lightChannels": [
                        6,
                        7
                    ]
                }
            }
        }
    },
    {
        "changes": {
            "tree": 0
        },
        "timeout": 0.024364379166666665,
        "raw": {
            "tree": {
                "pinValue": 0,
                "ticks": 23,
                "event": {
                    "deltaTime": 23,
                    "type": "channel",
                    "subtype": "noteOff",
                    "channel": 9,
                    "noteNumber": 60,
                    "velocity": 0,
                    "lightChannels": [
                        9
                    ]
                }
            }
        }
    },
    {
        "changes": {
            "window": 1,
            "outline": 1
        },
        "timeout": 0.16631337083333328,
        "raw": {
            "window": {
                "pinValue": 1,
                "ticks": 3,
                "event": {
                    "deltaTime": 3,
                    "type": "channel",
                    "subtype": "noteOn",
                    "channel": 9,
                    "noteNumber": 54,
                    "velocity": 80,
                    "lightChannels": [
                        6,
                        7
                    ]
                }
            },
            "outline": {
                "pinValue": 1,
                "ticks": 3,
                "event": {
                    "deltaTime": 3,
                    "type": "channel",
                    "subtype": "noteOn",
                    "channel": 9,
                    "noteNumber": 54,
                    "velocity": 80,
                    "lightChannels": [
                        6,
                        7
                    ]
                }
            }
        }
    },
    {
        "changes": {
            "garden": 1
        },
        "timeout": 0.018008454166666667,
        "raw": {
            "garden": {
                "pinValue": 1,
                "ticks": 2,
                "event": {
                    "deltaTime": 2,
                    "type": "channel",
                    "subtype": "noteOn",
                    "channel": 9,
                    "noteNumber": 61,
                    "velocity": 122,
                    "lightChannels": [
                        8
                    ]
                }
            }
        }
    },
    {
        "changes": {
            "window": 0,
            "outline": 0
        },
        "timeout": 0.039194870833333326,
        "raw": {
            "window": {
                "pinValue": 0,
                "ticks": 20,
                "event": {
                    "deltaTime": 20,
                    "type": "channel",
                    "subtype": "noteOff",
                    "channel": 9,
                    "noteNumber": 54,
                    "velocity": 0,
                    "lightChannels": [
                        6,
                        7
                    ]
                }
            },
            "outline": {
                "pinValue": 0,
                "ticks": 20,
                "event": {
                    "deltaTime": 20,
                    "type": "channel",
                    "subtype": "noteOff",
                    "channel": 9,
                    "noteNumber": 54,
                    "velocity": 0,
                    "lightChannels": [
                        6,
                        7
                    ]
                }
            }
        }
    },
    {
        "changes": {
            "garden": 0
        },
        "timeout": 0.025423699999999997,
        "raw": {
            "garden": {
                "pinValue": 0,
                "ticks": 24,
                "event": {
                    "deltaTime": 24,
                    "type": "channel",
                    "subtype": "noteOff",
                    "channel": 9,
                    "noteNumber": 61,
                    "velocity": 0,
                    "lightChannels": [
                        8
                    ]
                }
            }
        }
    },
    {
        "changes": {
            "window": 1,
            "outline": 1
        },
        "timeout": 0.16843201249999998,
        "raw": {
            "window": {
                "pinValue": 1,
                "ticks": 3,
                "event": {
                    "deltaTime": 3,
                    "type": "channel",
                    "subtype": "noteOn",
                    "channel": 9,
                    "noteNumber": 54,
                    "velocity": 81,
                    "lightChannels": [
                        6,
                        7
                    ]
                }
            },
            "outline": {
                "pinValue": 1,
                "ticks": 3,
                "event": {
                    "deltaTime": 3,
                    "type": "channel",
                    "subtype": "noteOn",
                    "channel": 9,
                    "noteNumber": 54,
                    "velocity": 81,
                    "lightChannels": [
                        6,
                        7
                    ]
                }
            }
        }
    },
    {
        "changes": {
            "tree": 1
        },
        "timeout": 0.01694913333333333,
        "raw": {
            "tree": {
                "pinValue": 1,
                "ticks": 0,
                "event": {
                    "deltaTime": 0,
                    "type": "channel",
                    "subtype": "noteOn",
                    "channel": 9,
                    "noteNumber": 60,
                    "velocity": 122,
                    "lightChannels": [
                        9
                    ]
                }
            }
        }
    },
    {
        "changes": {
            "window": 0,
            "outline": 0
        },
        "timeout": 0.04025419166666666,
        "raw": {
            "window": {
                "pinValue": 0,
                "ticks": 18,
                "event": {
                    "deltaTime": 18,
                    "type": "channel",
                    "subtype": "noteOff",
                    "channel": 9,
                    "noteNumber": 54,
                    "velocity": 0,
                    "lightChannels": [
                        6,
                        7
                    ]
                }
            },
            "outline": {
                "pinValue": 0,
                "ticks": 18,
                "event": {
                    "deltaTime": 18,
                    "type": "channel",
                    "subtype": "noteOff",
                    "channel": 9,
                    "noteNumber": 54,
                    "velocity": 0,
                    "lightChannels": [
                        6,
                        7
                    ]
                }
            }
        }
    },
    {
        "changes": {
            "garage": 0,
            "top-right": 0,
            "bottom-right": 0
        },
        "timeout": 0.010593208333333333,
        "raw": {
            "garage": {
                "pinValue": 0,
                "ticks": 10,
                "event": {
                    "deltaTime": 10,
                    "type": "channel",
                    "subtype": "noteOff",
                    "channel": 8,
                    "noteNumber": 55,
                    "velocity": 0,
                    "lightChannels": [
                        0,
                        1,
                        2
                    ]
                }
            },
            "top-right": {
                "pinValue": 0,
                "ticks": 10,
                "event": {
                    "deltaTime": 10,
                    "type": "channel",
                    "subtype": "noteOff",
                    "channel": 8,
                    "noteNumber": 55,
                    "velocity": 0,
                    "lightChannels": [
                        0,
                        1,
                        2
                    ]
                }
            },
            "bottom-right": {
                "pinValue": 0,
                "ticks": 10,
                "event": {
                    "deltaTime": 10,
                    "type": "channel",
                    "subtype": "noteOff",
                    "channel": 8,
                    "noteNumber": 55,
                    "velocity": 0,
                    "lightChannels": [
                        0,
                        1,
                        2
                    ]
                }
            }
        }
    },
    {
        "changes": {
            "tree": 0
        },
        "timeout": 0.019067774999999995,
        "raw": {
            "tree": {
                "pinValue": 0,
                "ticks": 1,
                "event": {
                    "deltaTime": 1,
                    "type": "channel",
                    "subtype": "noteOff",
                    "channel": 9,
                    "noteNumber": 60,
                    "velocity": 0,
                    "lightChannels": [
                        9
                    ]
                }
            }
        }
    },
    {
        "changes": {
            "window": 1,
            "outline": 1
        },
        "timeout": 0.16101676666666667,
        "raw": {
            "window": {
                "pinValue": 1,
                "ticks": 11,
                "event": {
                    "deltaTime": 11,
                    "type": "channel",
                    "subtype": "noteOn",
                    "channel": 9,
                    "noteNumber": 54,
                    "velocity": 83,
                    "lightChannels": [
                        6,
                        7
                    ]
                }
            },
            "outline": {
                "pinValue": 1,
                "ticks": 11,
                "event": {
                    "deltaTime": 11,
                    "type": "channel",
                    "subtype": "noteOn",
                    "channel": 9,
                    "noteNumber": 54,
                    "velocity": 83,
                    "lightChannels": [
                        6,
                        7
                    ]
                }
            }
        }
    },
    {
        "changes": {
            "garage": 1
        },
        "timeout": 0.022245737499999998,
        "raw": {
            "garage": {
                "pinValue": 1,
                "ticks": 1,
                "event": {
                    "deltaTime": 1,
                    "type": "channel",
                    "subtype": "noteOn",
                    "channel": 8,
                    "noteNumber": 59,
                    "velocity": 127,
                    "lightChannels": [
                        0
                    ]
                }
            }
        }
    },
    {
        "changes": {
            "garden": 1
        },
        "timeout": 0.010593208333333333,
        "raw": {
            "garden": {
                "pinValue": 1,
                "ticks": 6,
                "event": {
                    "deltaTime": 6,
                    "type": "channel",
                    "subtype": "noteOn",
                    "channel": 9,
                    "noteNumber": 61,
                    "velocity": 118,
                    "lightChannels": [
                        8
                    ]
                }
            }
        }
    },
    {
        "changes": {
            "window": 0,
            "outline": 0
        },
        "timeout": 0.0254237,
        "raw": {
            "window": {
                "pinValue": 0,
                "ticks": 20,
                "event": {
                    "deltaTime": 20,
                    "type": "channel",
                    "subtype": "noteOff",
                    "channel": 9,
                    "noteNumber": 54,
                    "velocity": 0,
                    "lightChannels": [
                        6,
                        7
                    ]
                }
            },
            "outline": {
                "pinValue": 0,
                "ticks": 20,
                "event": {
                    "deltaTime": 20,
                    "type": "channel",
                    "subtype": "noteOff",
                    "channel": 9,
                    "noteNumber": 54,
                    "velocity": 0,
                    "lightChannels": [
                        6,
                        7
                    ]
                }
            }
        }
    },
    {
        "changes": {
            "garden": 0
        },
        "timeout": 0.041313512499999996,
        "raw": {
            "garden": {
                "pinValue": 0,
                "ticks": 39,
                "event": {
                    "deltaTime": 39,
                    "type": "channel",
                    "subtype": "noteOff",
                    "channel": 9,
                    "noteNumber": 61,
                    "velocity": 0,
                    "lightChannels": [
                        8
                    ]
                }
            }
        }
    },
    {
        "changes": {
            "garage": 0
        },
        "timeout": 0.15148287916666664,
        "raw": {
            "garage": {
                "pinValue": 0,
                "ticks": 5,
                "event": {
                    "deltaTime": 5,
                    "type": "channel",
                    "subtype": "noteOff",
                    "channel": 8,
                    "noteNumber": 59,
                    "velocity": 0,
                    "lightChannels": [
                        0
                    ]
                }
            }
        }
    },
    {
        "changes": {
            "window": 1,
            "outline": 1
        },
        "timeout": 0.004237283333333333,
        "raw": {
            "window": {
                "pinValue": 1,
                "ticks": 1,
                "event": {
                    "deltaTime": 1,
                    "type": "channel",
                    "subtype": "noteOn",
                    "channel": 9,
                    "noteNumber": 54,
                    "velocity": 83,
                    "lightChannels": [
                        6,
                        7
                    ]
                }
            },
            "outline": {
                "pinValue": 1,
                "ticks": 1,
                "event": {
                    "deltaTime": 1,
                    "type": "channel",
                    "subtype": "noteOn",
                    "channel": 9,
                    "noteNumber": 54,
                    "velocity": 83,
                    "lightChannels": [
                        6,
                        7
                    ]
                }
            }
        }
    },
    {
        "changes": {
            "top-right": 1
        },
        "timeout": 0.013771170833333332,
        "raw": {
            "top-right": {
                "pinValue": 1,
                "ticks": 3,
                "event": {
                    "deltaTime": 3,
                    "type": "channel",
                    "subtype": "noteOn",
                    "channel": 8,
                    "noteNumber": 57,
                    "velocity": 119,
                    "lightChannels": [
                        1
                    ]
                }
            }
        }
    },
    {
        "changes": {
            "tree": 1
        },
        "timeout": 0.022245737499999998,
        "raw": {
            "tree": {
                "pinValue": 1,
                "ticks": 7,
                "event": {
                    "deltaTime": 7,
                    "type": "channel",
                    "subtype": "noteOn",
                    "channel": 9,
                    "noteNumber": 60,
                    "velocity": 121,
                    "lightChannels": [
                        9
                    ]
                }
            }
        }
    },
    {
        "changes": {
            "window": 0,
            "outline": 0
        },
        "timeout": 0.027542341666666664,
        "raw": {
            "window": {
                "pinValue": 0,
                "ticks": 20,
                "event": {
                    "deltaTime": 20,
                    "type": "channel",
                    "subtype": "noteOff",
                    "channel": 9,
                    "noteNumber": 54,
                    "velocity": 0,
                    "lightChannels": [
                        6,
                        7
                    ]
                }
            },
            "outline": {
                "pinValue": 0,
                "ticks": 20,
                "event": {
                    "deltaTime": 20,
                    "type": "channel",
                    "subtype": "noteOff",
                    "channel": 9,
                    "noteNumber": 54,
                    "velocity": 0,
                    "lightChannels": [
                        6,
                        7
                    ]
                }
            }
        }
    },
    {
        "changes": {
            "tree": 0
        },
        "timeout": 0.04237283333333333,
        "raw": {
            "tree": {
                "pinValue": 0,
                "ticks": 40,
                "event": {
                    "deltaTime": 40,
                    "type": "channel",
                    "subtype": "noteOff",
                    "channel": 9,
                    "noteNumber": 60,
                    "velocity": 0,
                    "lightChannels": [
                        9
                    ]
                }
            }
        }
    },
    {
        "changes": {
            "top-right": 0
        },
        "timeout": 0.108050725,
        "raw": {
            "top-right": {
                "pinValue": 0,
                "ticks": 8,
                "event": {
                    "deltaTime": 8,
                    "type": "channel",
                    "subtype": "noteOff",
                    "channel": 8,
                    "noteNumber": 57,
                    "velocity": 0,
                    "lightChannels": [
                        1
                    ]
                }
            }
        }
    },
    {
        "changes": {
            "bottom-right": 1
        },
        "timeout": 0.030720304166666663,
        "raw": {
            "bottom-right": {
                "pinValue": 1,
                "ticks": 7,
                "event": {
                    "deltaTime": 7,
                    "type": "channel",
                    "subtype": "noteOn",
                    "channel": 8,
                    "noteNumber": 55,
                    "velocity": 126,
                    "lightChannels": [
                        2
                    ]
                }
            }
        }
    },
    {
        "changes": {
            "window": 1,
            "outline": 1
        },
        "timeout": 0.019067775,
        "raw": {
            "window": {
                "pinValue": 1,
                "ticks": 1,
                "event": {
                    "deltaTime": 1,
                    "type": "channel",
                    "subtype": "noteOn",
                    "channel": 9,
                    "noteNumber": 54,
                    "velocity": 85,
                    "lightChannels": [
                        6,
                        7
                    ]
                }
            },
            "outline": {
                "pinValue": 1,
                "ticks": 1,
                "event": {
                    "deltaTime": 1,
                    "type": "channel",
                    "subtype": "noteOn",
                    "channel": 9,
                    "noteNumber": 54,
                    "velocity": 85,
                    "lightChannels": [
                        6,
                        7
                    ]
                }
            }
        }
    },
    {
        "changes": {
            "garden": 1
        },
        "timeout": 0.019067775,
        "raw": {
            "garden": {
                "pinValue": 1,
                "ticks": 3,
                "event": {
                    "deltaTime": 3,
                    "type": "channel",
                    "subtype": "noteOn",
                    "channel": 9,
                    "noteNumber": 61,
                    "velocity": 116,
                    "lightChannels": [
                        8
                    ]
                }
            }
        }
    },
    {
        "changes": {
            "window": 0,
            "outline": 0
        },
        "timeout": 0.03707622916666666,
        "raw": {
            "window": {
                "pinValue": 0,
                "ticks": 35,
                "event": {
                    "deltaTime": 35,
                    "type": "channel",
                    "subtype": "noteOff",
                    "channel": 9,
                    "noteNumber": 54,
                    "velocity": 0,
                    "lightChannels": [
                        6,
                        7
                    ]
                }
            },
            "outline": {
                "pinValue": 0,
                "ticks": 35,
                "event": {
                    "deltaTime": 35,
                    "type": "channel",
                    "subtype": "noteOff",
                    "channel": 9,
                    "noteNumber": 54,
                    "velocity": 0,
                    "lightChannels": [
                        6,
                        7
                    ]
                }
            }
        }
    },
    {
        "changes": {
            "garden": 0
        },
        "timeout": 0.027542341666666664,
        "raw": {
            "garden": {
                "pinValue": 0,
                "ticks": 26,
                "event": {
                    "deltaTime": 26,
                    "type": "channel",
                    "subtype": "noteOff",
                    "channel": 9,
                    "noteNumber": 61,
                    "velocity": 0,
                    "lightChannels": [
                        8
                    ]
                }
            }
        }
    },
    {
        "changes": {
            "bottom-right": 0
        },
        "timeout": 0.11546597083333332,
        "raw": {
            "bottom-right": {
                "pinValue": 0,
                "ticks": 109,
                "event": {
                    "deltaTime": 109,
                    "type": "channel",
                    "subtype": "noteOff",
                    "channel": 8,
                    "noteNumber": 55,
                    "velocity": 0,
                    "lightChannels": [
                        2
                    ]
                }
            }
        }
    },
    {
        "changes": {
            "garage": 1,
            "top-right": 1,
            "bottom-right": 1
        },
        "timeout": 0.045550795833333324,
        "raw": {
            "garage": {
                "pinValue": 1,
                "ticks": 0,
                "event": {
                    "deltaTime": 0,
                    "type": "channel",
                    "subtype": "noteOn",
                    "channel": 8,
                    "noteNumber": 54,
                    "velocity": 124,
                    "lightChannels": [
                        0,
                        1,
                        2
                    ]
                }
            },
            "top-right": {
                "pinValue": 1,
                "ticks": 0,
                "event": {
                    "deltaTime": 0,
                    "type": "channel",
                    "subtype": "noteOn",
                    "channel": 8,
                    "noteNumber": 54,
                    "velocity": 124,
                    "lightChannels": [
                        0,
                        1,
                        2
                    ]
                }
            },
            "bottom-right": {
                "pinValue": 1,
                "ticks": 0,
                "event": {
                    "deltaTime": 0,
                    "type": "channel",
                    "subtype": "noteOn",
                    "channel": 8,
                    "noteNumber": 54,
                    "velocity": 124,
                    "lightChannels": [
                        0,
                        1,
                        2
                    ]
                }
            }
        }
    },
    {
        "changes": {
            "window": 1,
            "outline": 1
        },
        "timeout": 0.021186416666666662,
        "raw": {
            "window": {
                "pinValue": 1,
                "ticks": 1,
                "event": {
                    "deltaTime": 1,
                    "type": "channel",
                    "subtype": "noteOn",
                    "channel": 9,
                    "noteNumber": 54,
                    "velocity": 105,
                    "lightChannels": [
                        6,
                        7
                    ]
                }
            },
            "outline": {
                "pinValue": 1,
                "ticks": 1,
                "event": {
                    "deltaTime": 1,
                    "type": "channel",
                    "subtype": "noteOn",
                    "channel": 9,
                    "noteNumber": 54,
                    "velocity": 105,
                    "lightChannels": [
                        6,
                        7
                    ]
                }
            }
        }
    },
    {
        "changes": {
            "tree": 1
        },
        "timeout": 0.015889812499999996,
        "raw": {
            "tree": {
                "pinValue": 1,
                "ticks": 8,
                "event": {
                    "deltaTime": 8,
                    "type": "channel",
                    "subtype": "noteOn",
                    "channel": 9,
                    "noteNumber": 60,
                    "velocity": 121,
                    "lightChannels": [
                        9
                    ]
                }
            }
        }
    },
    {
        "changes": {
            "window": 0,
            "outline": 0
        },
        "timeout": 0.047669437499999995,
        "raw": {
            "window": {
                "pinValue": 0,
                "ticks": 45,
                "event": {
                    "deltaTime": 45,
                    "type": "channel",
                    "subtype": "noteOff",
                    "channel": 9,
                    "noteNumber": 54,
                    "velocity": 0,
                    "lightChannels": [
                        6,
                        7
                    ]
                }
            },
            "outline": {
                "pinValue": 0,
                "ticks": 45,
                "event": {
                    "deltaTime": 45,
                    "type": "channel",
                    "subtype": "noteOff",
                    "channel": 9,
                    "noteNumber": 54,
                    "velocity": 0,
                    "lightChannels": [
                        6,
                        7
                    ]
                }
            }
        }
    },
    {
        "changes": {
            "tree": 0
        },
        "timeout": 0.018008454166666667,
        "raw": {
            "tree": {
                "pinValue": 0,
                "ticks": 10,
                "event": {
                    "deltaTime": 10,
                    "type": "channel",
                    "subtype": "noteOff",
                    "channel": 9,
                    "noteNumber": 60,
                    "velocity": 0,
                    "lightChannels": [
                        9
                    ]
                }
            }
        }
    },
    {
        "changes": {
            "garage": 0,
            "top-right": 0,
            "bottom-right": 0
        },
        "timeout": 1.0773292874999998,
        "raw": {
            "garage": {
                "pinValue": 0,
                "ticks": 8,
                "event": {
                    "deltaTime": 8,
                    "type": "channel",
                    "subtype": "noteOff",
                    "channel": 8,
                    "noteNumber": 54,
                    "velocity": 0,
                    "lightChannels": [
                        0,
                        1,
                        2
                    ]
                }
            },
            "top-right": {
                "pinValue": 0,
                "ticks": 8,
                "event": {
                    "deltaTime": 8,
                    "type": "channel",
                    "subtype": "noteOff",
                    "channel": 8,
                    "noteNumber": 54,
                    "velocity": 0,
                    "lightChannels": [
                        0,
                        1,
                        2
                    ]
                }
            },
            "bottom-right": {
                "pinValue": 0,
                "ticks": 8,
                "event": {
                    "deltaTime": 8,
                    "type": "channel",
                    "subtype": "noteOff",
                    "channel": 8,
                    "noteNumber": 54,
                    "velocity": 0,
                    "lightChannels": [
                        0,
                        1,
                        2
                    ]
                }
            }
        }
    },
    {
        "changes": {
            "col-1": 1
        },
        "timeout": 0.6324145375,
        "raw": {
            "col-1": {
                "pinValue": 1,
                "ticks": 2,
                "event": {
                    "deltaTime": 2,
                    "type": "channel",
                    "subtype": "noteOn",
                    "channel": 3,
                    "noteNumber": 77,
                    "velocity": 113,
                    "lightChannels": [
                        3
                    ]
                }
            }
        }
    },
    {
        "changes": {
            "window": 1,
            "outline": 1
        },
        "timeout": 0.0010593208333333332,
        "raw": {
            "window": {
                "pinValue": 1,
                "ticks": 1,
                "event": {
                    "deltaTime": 1,
                    "type": "channel",
                    "subtype": "noteOn",
                    "channel": 9,
                    "noteNumber": 54,
                    "velocity": 85,
                    "lightChannels": [
                        6,
                        7
                    ]
                }
            },
            "outline": {
                "pinValue": 1,
                "ticks": 1,
                "event": {
                    "deltaTime": 1,
                    "type": "channel",
                    "subtype": "noteOn",
                    "channel": 9,
                    "noteNumber": 54,
                    "velocity": 85,
                    "lightChannels": [
                        6,
                        7
                    ]
                }
            }
        }
    },
    {
        "changes": {
            "window": 0,
            "outline": 0
        },
        "timeout": 0.05826264583333332,
        "raw": {
            "window": {
                "pinValue": 0,
                "ticks": 27,
                "event": {
                    "deltaTime": 27,
                    "type": "channel",
                    "subtype": "noteOff",
                    "channel": 9,
                    "noteNumber": 54,
                    "velocity": 0,
                    "lightChannels": [
                        6,
                        7
                    ]
                }
            },
            "outline": {
                "pinValue": 0,
                "ticks": 27,
                "event": {
                    "deltaTime": 27,
                    "type": "channel",
                    "subtype": "noteOff",
                    "channel": 9,
                    "noteNumber": 54,
                    "velocity": 0,
                    "lightChannels": [
                        6,
                        7
                    ]
                }
            }
        }
    },
    {
        "changes": {
            "col-1": 0
        },
        "timeout": 0.004237283333333333,
        "raw": {
            "col-1": {
                "pinValue": 0,
                "ticks": 1,
                "event": {
                    "deltaTime": 1,
                    "type": "channel",
                    "subtype": "noteOff",
                    "channel": 3,
                    "noteNumber": 77,
                    "velocity": 0,
                    "lightChannels": [
                        3
                    ]
                }
            }
        }
    },
    {
        "changes": {
            "col-2": 1
        },
        "timeout": 0.02330505833333333,
        "raw": {
            "col-2": {
                "pinValue": 1,
                "ticks": 1,
                "event": {
                    "deltaTime": 1,
                    "type": "channel",
                    "subtype": "noteOn",
                    "channel": 3,
                    "noteNumber": 76,
                    "velocity": 108,
                    "lightChannels": [
                        4
                    ]
                }
            }
        }
    },
    {
        "changes": {
            "col-2": 0
        },
        "timeout": 0.05508468333333333,
        "raw": {
            "col-2": {
                "pinValue": 0,
                "ticks": 7,
                "event": {
                    "deltaTime": 7,
                    "type": "channel",
                    "subtype": "noteOff",
                    "channel": 3,
                    "noteNumber": 76,
                    "velocity": 0,
                    "lightChannels": [
                        4
                    ]
                }
            }
        }
    },
    {
        "changes": {
            "col-3": 1
        },
        "timeout": 0.006355924999999999,
        "raw": {
            "col-3": {
                "pinValue": 1,
                "ticks": 2,
                "event": {
                    "deltaTime": 2,
                    "type": "channel",
                    "subtype": "noteOn",
                    "channel": 3,
                    "noteNumber": 77,
                    "velocity": 111,
                    "lightChannels": [
                        5
                    ]
                }
            }
        }
    },
    {
        "changes": {
            "col-3": 0
        },
        "timeout": 0.05932196666666666,
        "raw": {
            "col-3": {
                "pinValue": 0,
                "ticks": 1,
                "event": {
                    "deltaTime": 1,
                    "type": "channel",
                    "subtype": "noteOff",
                    "channel": 3,
                    "noteNumber": 77,
                    "velocity": 0,
                    "lightChannels": [
                        5
                    ]
                }
            }
        }
    },
    {
        "changes": {
            "col-1": 1,
            "col-2": 1,
            "col-3": 1
        },
        "timeout": 0.02330505833333333,
        "raw": {
            "col-1": {
                "pinValue": 1,
                "ticks": 3,
                "event": {
                    "deltaTime": 3,
                    "type": "channel",
                    "subtype": "noteOn",
                    "channel": 3,
                    "noteNumber": 81,
                    "velocity": 118,
                    "lightChannels": [
                        3,
                        4,
                        5
                    ]
                }
            },
            "col-2": {
                "pinValue": 1,
                "ticks": 3,
                "event": {
                    "deltaTime": 3,
                    "type": "channel",
                    "subtype": "noteOn",
                    "channel": 3,
                    "noteNumber": 81,
                    "velocity": 118,
                    "lightChannels": [
                        3,
                        4,
                        5
                    ]
                }
            },
            "col-3": {
                "pinValue": 1,
                "ticks": 3,
                "event": {
                    "deltaTime": 3,
                    "type": "channel",
                    "subtype": "noteOn",
                    "channel": 3,
                    "noteNumber": 81,
                    "velocity": 118,
                    "lightChannels": [
                        3,
                        4,
                        5
                    ]
                }
            }
        }
    },
    {
        "changes": {
            "garage": 1,
            "top-right": 1,
            "bottom-right": 1
        },
        "timeout": 0.011652529166666665,
        "raw": {
            "garage": {
                "pinValue": 1,
                "ticks": 0,
                "event": {
                    "deltaTime": 0,
                    "type": "channel",
                    "subtype": "noteOn",
                    "channel": 8,
                    "noteNumber": 53,
                    "velocity": 115,
                    "lightChannels": [
                        0,
                        1,
                        2
                    ]
                }
            },
            "top-right": {
                "pinValue": 1,
                "ticks": 0,
                "event": {
                    "deltaTime": 0,
                    "type": "channel",
                    "subtype": "noteOn",
                    "channel": 8,
                    "noteNumber": 53,
                    "velocity": 115,
                    "lightChannels": [
                        0,
                        1,
                        2
                    ]
                }
            },
            "bottom-right": {
                "pinValue": 1,
                "ticks": 0,
                "event": {
                    "deltaTime": 0,
                    "type": "channel",
                    "subtype": "noteOn",
                    "channel": 8,
                    "noteNumber": 53,
                    "velocity": 115,
                    "lightChannels": [
                        0,
                        1,
                        2
                    ]
                }
            }
        }
    },
    {
        "changes": {
            "window": 1,
            "outline": 1
        },
        "timeout": 0.006355924999999999,
        "raw": {
            "window": {
                "pinValue": 1,
                "ticks": 0,
                "event": {
                    "deltaTime": 0,
                    "type": "channel",
                    "subtype": "noteOn",
                    "channel": 9,
                    "noteNumber": 54,
                    "velocity": 90,
                    "lightChannels": [
                        6,
                        7
                    ]
                }
            },
            "outline": {
                "pinValue": 1,
                "ticks": 0,
                "event": {
                    "deltaTime": 0,
                    "type": "channel",
                    "subtype": "noteOn",
                    "channel": 9,
                    "noteNumber": 54,
                    "velocity": 90,
                    "lightChannels": [
                        6,
                        7
                    ]
                }
            }
        }
    },
    {
        "changes": {
            "window": 0,
            "outline": 0
        },
        "timeout": 0.05826264583333333,
        "raw": {
            "window": {
                "pinValue": 0,
                "ticks": 44,
                "event": {
                    "deltaTime": 44,
                    "type": "channel",
                    "subtype": "noteOff",
                    "channel": 9,
                    "noteNumber": 54,
                    "velocity": 0,
                    "lightChannels": [
                        6,
                        7
                    ]
                }
            },
            "outline": {
                "pinValue": 0,
                "ticks": 44,
                "event": {
                    "deltaTime": 44,
                    "type": "channel",
                    "subtype": "noteOff",
                    "channel": 9,
                    "noteNumber": 54,
                    "velocity": 0,
                    "lightChannels": [
                        6,
                        7
                    ]
                }
            }
        }
    },
    {
        "changes": {
            "col-1": 0,
            "col-2": 0,
            "col-3": 0
        },
        "timeout": 0.025423699999999997,
        "raw": {
            "col-1": {
                "pinValue": 0,
                "ticks": 10,
                "event": {
                    "deltaTime": 10,
                    "type": "channel",
                    "subtype": "noteOff",
                    "channel": 3,
                    "noteNumber": 81,
                    "velocity": 0,
                    "lightChannels": [
                        3,
                        4,
                        5
                    ]
                }
            },
            "col-2": {
                "pinValue": 0,
                "ticks": 10,
                "event": {
                    "deltaTime": 10,
                    "type": "channel",
                    "subtype": "noteOff",
                    "channel": 3,
                    "noteNumber": 81,
                    "velocity": 0,
                    "lightChannels": [
                        3,
                        4,
                        5
                    ]
                }
            },
            "col-3": {
                "pinValue": 0,
                "ticks": 10,
                "event": {
                    "deltaTime": 10,
                    "type": "channel",
                    "subtype": "noteOff",
                    "channel": 3,
                    "noteNumber": 81,
                    "velocity": 0,
                    "lightChannels": [
                        3,
                        4,
                        5
                    ]
                }
            }
        }
    },
    {
        "changes": {
            "window": 1,
            "outline": 1
        },
        "timeout": 0.16843201249999998,
        "raw": {
            "window": {
                "pinValue": 1,
                "ticks": 9,
                "event": {
                    "deltaTime": 9,
                    "type": "channel",
                    "subtype": "noteOn",
                    "channel": 9,
                    "noteNumber": 54,
                    "velocity": 83,
                    "lightChannels": [
                        6,
                        7
                    ]
                }
            },
            "outline": {
                "pinValue": 1,
                "ticks": 9,
                "event": {
                    "deltaTime": 9,
                    "type": "channel",
                    "subtype": "noteOn",
                    "channel": 9,
                    "noteNumber": 54,
                    "velocity": 83,
                    "lightChannels": [
                        6,
                        7
                    ]
                }
            }
        }
    },
    {
        "changes": {
            "col-1": 1
        },
        "timeout": 0.007415245833333333,
        "raw": {
            "col-1": {
                "pinValue": 1,
                "ticks": 2,
                "event": {
                    "deltaTime": 2,
                    "type": "channel",
                    "subtype": "noteOn",
                    "channel": 3,
                    "noteNumber": 77,
                    "velocity": 118,
                    "lightChannels": [
                        3
                    ]
                }
            }
        }
    },
    {
        "changes": {
            "window": 0,
            "outline": 0
        },
        "timeout": 0.047669437499999995,
        "raw": {
            "window": {
                "pinValue": 0,
                "ticks": 6,
                "event": {
                    "deltaTime": 6,
                    "type": "channel",
                    "subtype": "noteOff",
                    "channel": 9,
                    "noteNumber": 54,
                    "velocity": 0,
                    "lightChannels": [
                        6,
                        7
                    ]
                }
            },
            "outline": {
                "pinValue": 0,
                "ticks": 6,
                "event": {
                    "deltaTime": 6,
                    "type": "channel",
                    "subtype": "noteOff",
                    "channel": 9,
                    "noteNumber": 54,
                    "velocity": 0,
                    "lightChannels": [
                        6,
                        7
                    ]
                }
            }
        }
    },
    {
        "changes": {
            "col-1": 0
        },
        "timeout": 0.012711849999999998,
        "raw": {
            "col-1": {
                "pinValue": 0,
                "ticks": 1,
                "event": {
                    "deltaTime": 1,
                    "type": "channel",
                    "subtype": "noteOff",
                    "channel": 3,
                    "noteNumber": 77,
                    "velocity": 0,
                    "lightChannels": [
                        3
                    ]
                }
            }
        }
    },
    {
        "changes": {
            "col-2": 1
        },
        "timeout": 0.015889812499999996,
        "raw": {
            "col-2": {
                "pinValue": 1,
                "ticks": 8,
                "event": {
                    "deltaTime": 8,
                    "type": "channel",
                    "subtype": "noteOn",
                    "channel": 3,
                    "noteNumber": 76,
                    "velocity": 101,
                    "lightChannels": [
                        4
                    ]
                }
            }
        }
    },
    {
        "changes": {
            "col-2": 0
        },
        "timeout": 0.05296604166666666,
        "raw": {
            "col-2": {
                "pinValue": 0,
                "ticks": 1,
                "event": {
                    "deltaTime": 1,
                    "type": "channel",
                    "subtype": "noteOff",
                    "channel": 3,
                    "noteNumber": 76,
                    "velocity": 0,
                    "lightChannels": [
                        4
                    ]
                }
            }
        }
    },
    {
        "changes": {
            "col-3": 1
        },
        "timeout": 0.011652529166666665,
        "raw": {
            "col-3": {
                "pinValue": 1,
                "ticks": 9,
                "event": {
                    "deltaTime": 9,
                    "type": "channel",
                    "subtype": "noteOn",
                    "channel": 3,
                    "noteNumber": 77,
                    "velocity": 107,
                    "lightChannels": [
                        5
                    ]
                }
            }
        }
    },
    {
        "changes": {
            "col-3": 0
        },
        "timeout": 0.059321966666666656,
        "raw": {
            "col-3": {
                "pinValue": 0,
                "ticks": 11,
                "event": {
                    "deltaTime": 11,
                    "type": "channel",
                    "subtype": "noteOff",
                    "channel": 3,
                    "noteNumber": 77,
                    "velocity": 0,
                    "lightChannels": [
                        5
                    ]
                }
            }
        }
    },
    {
        "changes": {
            "window": 1,
            "outline": 1
        },
        "timeout": 0.03389826666666666,
        "raw": {
            "window": {
                "pinValue": 1,
                "ticks": 7,
                "event": {
                    "deltaTime": 7,
                    "type": "channel",
                    "subtype": "noteOn",
                    "channel": 9,
                    "noteNumber": 54,
                    "velocity": 83,
                    "lightChannels": [
                        6,
                        7
                    ]
                }
            },
            "outline": {
                "pinValue": 1,
                "ticks": 7,
                "event": {
                    "deltaTime": 7,
                    "type": "channel",
                    "subtype": "noteOn",
                    "channel": 9,
                    "noteNumber": 54,
                    "velocity": 83,
                    "lightChannels": [
                        6,
                        7
                    ]
                }
            }
        }
    },
    {
        "changes": {
            "col-1": 1,
            "col-2": 1,
            "col-3": 1
        },
        "timeout": 0.0021186416666666664,
        "raw": {
            "col-1": {
                "pinValue": 1,
                "ticks": 0,
                "event": {
                    "deltaTime": 0,
                    "type": "channel",
                    "subtype": "noteOn",
                    "channel": 3,
                    "noteNumber": 81,
                    "velocity": 119,
                    "lightChannels": [
                        3,
                        4,
                        5
                    ]
                }
            },
            "col-2": {
                "pinValue": 1,
                "ticks": 0,
                "event": {
                    "deltaTime": 0,
                    "type": "channel",
                    "subtype": "noteOn",
                    "channel": 3,
                    "noteNumber": 81,
                    "velocity": 119,
                    "lightChannels": [
                        3,
                        4,
                        5
                    ]
                }
            },
            "col-3": {
                "pinValue": 1,
                "ticks": 0,
                "event": {
                    "deltaTime": 0,
                    "type": "channel",
                    "subtype": "noteOn",
                    "channel": 3,
                    "noteNumber": 81,
                    "velocity": 119,
                    "lightChannels": [
                        3,
                        4,
                        5
                    ]
                }
            }
        }
    },
    {
        "changes": {
            "window": 0,
            "outline": 0
        },
        "timeout": 0.05720332499999999,
        "raw": {
            "window": {
                "pinValue": 0,
                "ticks": 42,
                "event": {
                    "deltaTime": 42,
                    "type": "channel",
                    "subtype": "noteOff",
                    "channel": 9,
                    "noteNumber": 54,
                    "velocity": 0,
                    "lightChannels": [
                        6,
                        7
                    ]
                }
            },
            "outline": {
                "pinValue": 0,
                "ticks": 42,
                "event": {
                    "deltaTime": 42,
                    "type": "channel",
                    "subtype": "noteOff",
                    "channel": 9,
                    "noteNumber": 54,
                    "velocity": 0,
                    "lightChannels": [
                        6,
                        7
                    ]
                }
            }
        }
    },
    {
        "changes": {
            "col-1": 0,
            "col-2": 0,
            "col-3": 0
        },
        "timeout": 0.03813555,
        "raw": {
            "col-1": {
                "pinValue": 0,
                "ticks": 21,
                "event": {
                    "deltaTime": 21,
                    "type": "channel",
                    "subtype": "noteOff",
                    "channel": 3,
                    "noteNumber": 81,
                    "velocity": 0,
                    "lightChannels": [
                        3,
                        4,
                        5
                    ]
                }
            },
            "col-2": {
                "pinValue": 0,
                "ticks": 21,
                "event": {
                    "deltaTime": 21,
                    "type": "channel",
                    "subtype": "noteOff",
                    "channel": 3,
                    "noteNumber": 81,
                    "velocity": 0,
                    "lightChannels": [
                        3,
                        4,
                        5
                    ]
                }
            },
            "col-3": {
                "pinValue": 0,
                "ticks": 21,
                "event": {
                    "deltaTime": 21,
                    "type": "channel",
                    "subtype": "noteOff",
                    "channel": 3,
                    "noteNumber": 81,
                    "velocity": 0,
                    "lightChannels": [
                        3,
                        4,
                        5
                    ]
                }
            }
        }
    },
    {
        "changes": {
            "window": 1,
            "outline": 1
        },
        "timeout": 0.15042355833333332,
        "raw": {
            "window": {
                "pinValue": 1,
                "ticks": 33,
                "event": {
                    "deltaTime": 33,
                    "type": "channel",
                    "subtype": "noteOn",
                    "channel": 9,
                    "noteNumber": 54,
                    "velocity": 84,
                    "lightChannels": [
                        6,
                        7
                    ]
                }
            },
            "outline": {
                "pinValue": 1,
                "ticks": 33,
                "event": {
                    "deltaTime": 33,
                    "type": "channel",
                    "subtype": "noteOn",
                    "channel": 9,
                    "noteNumber": 54,
                    "velocity": 84,
                    "lightChannels": [
                        6,
                        7
                    ]
                }
            }
        }
    },
    {
        "changes": {
            "col-1": 1
        },
        "timeout": 0.013771170833333332,
        "raw": {
            "col-1": {
                "pinValue": 1,
                "ticks": 12,
                "event": {
                    "deltaTime": 12,
                    "type": "channel",
                    "subtype": "noteOn",
                    "channel": 3,
                    "noteNumber": 77,
                    "velocity": 113,
                    "lightChannels": [
                        3
                    ]
                }
            }
        }
    },
    {
        "changes": {
            "window": 0,
            "outline": 0
        },
        "timeout": 0.044491474999999996,
        "raw": {
            "window": {
                "pinValue": 0,
                "ticks": 7,
                "event": {
                    "deltaTime": 7,
                    "type": "channel",
                    "subtype": "noteOff",
                    "channel": 9,
                    "noteNumber": 54,
                    "velocity": 0,
                    "lightChannels": [
                        6,
                        7
                    ]
                }
            },
            "outline": {
                "pinValue": 0,
                "ticks": 7,
                "event": {
                    "deltaTime": 7,
                    "type": "channel",
                    "subtype": "noteOff",
                    "channel": 9,
                    "noteNumber": 54,
                    "velocity": 0,
                    "lightChannels": [
                        6,
                        7
                    ]
                }
            }
        }
    },
    {
        "changes": {
            "col-1": 0
        },
        "timeout": 0.014830491666666666,
        "raw": {
            "col-1": {
                "pinValue": 0,
                "ticks": 1,
                "event": {
                    "deltaTime": 1,
                    "type": "channel",
                    "subtype": "noteOff",
                    "channel": 3,
                    "noteNumber": 77,
                    "velocity": 0,
                    "lightChannels": [
                        3
                    ]
                }
            }
        }
    },
    {
        "changes": {
            "col-2": 1
        },
        "timeout": 0.010593208333333331,
        "raw": {
            "col-2": {
                "pinValue": 1,
                "ticks": 7,
                "event": {
                    "deltaTime": 7,
                    "type": "channel",
                    "subtype": "noteOn",
                    "channel": 3,
                    "noteNumber": 76,
                    "velocity": 108,
                    "lightChannels": [
                        4
                    ]
                }
            }
        }
    },
    {
        "changes": {
            "col-2": 0
        },
        "timeout": 0.06144060833333332,
        "raw": {
            "col-2": {
                "pinValue": 0,
                "ticks": 3,
                "event": {
                    "deltaTime": 3,
                    "type": "channel",
                    "subtype": "noteOff",
                    "channel": 3,
                    "noteNumber": 76,
                    "velocity": 0,
                    "lightChannels": [
                        4
                    ]
                }
            }
        }
    },
    {
        "changes": {
            "col-3": 1
        },
        "timeout": 0.008474566666666666,
        "raw": {
            "col-3": {
                "pinValue": 1,
                "ticks": 8,
                "event": {
                    "deltaTime": 8,
                    "type": "channel",
                    "subtype": "noteOn",
                    "channel": 3,
                    "noteNumber": 77,
                    "velocity": 113,
                    "lightChannels": [
                        5
                    ]
                }
            }
        }
    },
    {
        "changes": {
            "col-3": 0
        },
        "timeout": 0.06673721249999999,
        "raw": {
            "col-3": {
                "pinValue": 0,
                "ticks": 25,
                "event": {
                    "deltaTime": 25,
                    "type": "channel",
                    "subtype": "noteOff",
                    "channel": 3,
                    "noteNumber": 77,
                    "velocity": 0,
                    "lightChannels": [
                        5
                    ]
                }
            }
        }
    },
    {
        "changes": {
            "col-1": 1,
            "col-2": 1,
            "col-3": 1
        },
        "timeout": 0.025423699999999994,
        "raw": {
            "col-1": {
                "pinValue": 1,
                "ticks": 1,
                "event": {
                    "deltaTime": 1,
                    "type": "channel",
                    "subtype": "noteOn",
                    "channel": 3,
                    "noteNumber": 81,
                    "velocity": 118,
                    "lightChannels": [
                        3,
                        4,
                        5
                    ]
                }
            },
            "col-2": {
                "pinValue": 1,
                "ticks": 1,
                "event": {
                    "deltaTime": 1,
                    "type": "channel",
                    "subtype": "noteOn",
                    "channel": 3,
                    "noteNumber": 81,
                    "velocity": 118,
                    "lightChannels": [
                        3,
                        4,
                        5
                    ]
                }
            },
            "col-3": {
                "pinValue": 1,
                "ticks": 1,
                "event": {
                    "deltaTime": 1,
                    "type": "channel",
                    "subtype": "noteOn",
                    "channel": 3,
                    "noteNumber": 81,
                    "velocity": 118,
                    "lightChannels": [
                        3,
                        4,
                        5
                    ]
                }
            }
        }
    },
    {
        "changes": {
            "window": 1,
            "outline": 1
        },
        "timeout": 0.0031779624999999996,
        "raw": {
            "window": {
                "pinValue": 1,
                "ticks": 0,
                "event": {
                    "deltaTime": 0,
                    "type": "channel",
                    "subtype": "noteOn",
                    "channel": 9,
                    "noteNumber": 54,
                    "velocity": 87,
                    "lightChannels": [
                        6,
                        7
                    ]
                }
            },
            "outline": {
                "pinValue": 1,
                "ticks": 0,
                "event": {
                    "deltaTime": 0,
                    "type": "channel",
                    "subtype": "noteOn",
                    "channel": 9,
                    "noteNumber": 54,
                    "velocity": 87,
                    "lightChannels": [
                        6,
                        7
                    ]
                }
            }
        }
    },
    {
        "changes": {
            "window": 0,
            "outline": 0
        },
        "timeout": 0.058262645833333335,
        "raw": {
            "window": {
                "pinValue": 0,
                "ticks": 20,
                "event": {
                    "deltaTime": 20,
                    "type": "channel",
                    "subtype": "noteOff",
                    "channel": 9,
                    "noteNumber": 54,
                    "velocity": 0,
                    "lightChannels": [
                        6,
                        7
                    ]
                }
            },
            "outline": {
                "pinValue": 0,
                "ticks": 20,
                "event": {
                    "deltaTime": 20,
                    "type": "channel",
                    "subtype": "noteOff",
                    "channel": 9,
                    "noteNumber": 54,
                    "velocity": 0,
                    "lightChannels": [
                        6,
                        7
                    ]
                }
            }
        }
    },
    {
        "changes": {
            "col-1": 0,
            "col-2": 0,
            "col-3": 0
        },
        "timeout": 0.03389826666666666,
        "raw": {
            "col-1": {
                "pinValue": 0,
                "ticks": 8,
                "event": {
                    "deltaTime": 8,
                    "type": "channel",
                    "subtype": "noteOff",
                    "channel": 3,
                    "noteNumber": 81,
                    "velocity": 0,
                    "lightChannels": [
                        3,
                        4,
                        5
                    ]
                }
            },
            "col-2": {
                "pinValue": 0,
                "ticks": 8,
                "event": {
                    "deltaTime": 8,
                    "type": "channel",
                    "subtype": "noteOff",
                    "channel": 3,
                    "noteNumber": 81,
                    "velocity": 0,
                    "lightChannels": [
                        3,
                        4,
                        5
                    ]
                }
            },
            "col-3": {
                "pinValue": 0,
                "ticks": 8,
                "event": {
                    "deltaTime": 8,
                    "type": "channel",
                    "subtype": "noteOff",
                    "channel": 3,
                    "noteNumber": 81,
                    "velocity": 0,
                    "lightChannels": [
                        3,
                        4,
                        5
                    ]
                }
            }
        }
    },
    {
        "changes": {
            "garage": 0,
            "top-right": 0,
            "bottom-right": 0
        },
        "timeout": 0.01694913333333333,
        "raw": {
            "garage": {
                "pinValue": 0,
                "ticks": 15,
                "event": {
                    "deltaTime": 15,
                    "type": "channel",
                    "subtype": "noteOff",
                    "channel": 8,
                    "noteNumber": 53,
                    "velocity": 0,
                    "lightChannels": [
                        0,
                        1,
                        2
                    ]
                }
            },
            "top-right": {
                "pinValue": 0,
                "ticks": 15,
                "event": {
                    "deltaTime": 15,
                    "type": "channel",
                    "subtype": "noteOff",
                    "channel": 8,
                    "noteNumber": 53,
                    "velocity": 0,
                    "lightChannels": [
                        0,
                        1,
                        2
                    ]
                }
            },
            "bottom-right": {
                "pinValue": 0,
                "ticks": 15,
                "event": {
                    "deltaTime": 15,
                    "type": "channel",
                    "subtype": "noteOff",
                    "channel": 8,
                    "noteNumber": 53,
                    "velocity": 0,
                    "lightChannels": [
                        0,
                        1,
                        2
                    ]
                }
            }
        }
    },
    {
        "changes": {
            "window": 1,
            "outline": 1
        },
        "timeout": 0.1440676333333333,
        "raw": {
            "window": {
                "pinValue": 1,
                "ticks": 2,
                "event": {
                    "deltaTime": 2,
                    "type": "channel",
                    "subtype": "noteOn",
                    "channel": 9,
                    "noteNumber": 54,
                    "velocity": 84,
                    "lightChannels": [
                        6,
                        7
                    ]
                }
            },
            "outline": {
                "pinValue": 1,
                "ticks": 2,
                "event": {
                    "deltaTime": 2,
                    "type": "channel",
                    "subtype": "noteOn",
                    "channel": 9,
                    "noteNumber": 54,
                    "velocity": 84,
                    "lightChannels": [
                        6,
                        7
                    ]
                }
            }
        }
    },
    {
        "changes": {
            "garage": 1
        },
        "timeout": 0.019067775,
        "raw": {
            "garage": {
                "pinValue": 1,
                "ticks": 2,
                "event": {
                    "deltaTime": 2,
                    "type": "channel",
                    "subtype": "noteOn",
                    "channel": 8,
                    "noteNumber": 57,
                    "velocity": 127,
                    "lightChannels": [
                        0
                    ]
                }
            }
        }
    },
    {
        "changes": {
            "window": 0,
            "outline": 0
        },
        "timeout": 0.04025419166666666,
        "raw": {
            "window": {
                "pinValue": 0,
                "ticks": 35,
                "event": {
                    "deltaTime": 35,
                    "type": "channel",
                    "subtype": "noteOff",
                    "channel": 9,
                    "noteNumber": 54,
                    "velocity": 0,
                    "lightChannels": [
                        6,
                        7
                    ]
                }
            },
            "outline": {
                "pinValue": 0,
                "ticks": 35,
                "event": {
                    "deltaTime": 35,
                    "type": "channel",
                    "subtype": "noteOff",
                    "channel": 9,
                    "noteNumber": 54,
                    "velocity": 0,
                    "lightChannels": [
                        6,
                        7
                    ]
                }
            }
        }
    },
    {
        "changes": {
            "tree": 1
        },
        "timeout": 0.1874997875,
        "raw": {
            "tree": {
                "pinValue": 1,
                "ticks": 2,
                "event": {
                    "deltaTime": 2,
                    "type": "channel",
                    "subtype": "noteOn",
                    "channel": 9,
                    "noteNumber": 60,
                    "velocity": 122,
                    "lightChannels": [
                        9
                    ]
                }
            }
        }
    },
    {
        "changes": {
            "garage": 0
        },
        "timeout": 0.006355924999999999,
        "raw": {
            "garage": {
                "pinValue": 0,
                "ticks": 3,
                "event": {
                    "deltaTime": 3,
                    "type": "channel",
                    "subtype": "noteOff",
                    "channel": 8,
                    "noteNumber": 57,
                    "velocity": 0,
                    "lightChannels": [
                        0
                    ]
                }
            }
        }
    },
    {
        "changes": {
            "window": 1,
            "outline": 1
        },
        "timeout": 0.0031779624999999996,
        "raw": {
            "window": {
                "pinValue": 1,
                "ticks": 0,
                "event": {
                    "deltaTime": 0,
                    "type": "channel",
                    "subtype": "noteOn",
                    "channel": 9,
                    "noteNumber": 54,
                    "velocity": 87,
                    "lightChannels": [
                        6,
                        7
                    ]
                }
            },
            "outline": {
                "pinValue": 1,
                "ticks": 0,
                "event": {
                    "deltaTime": 0,
                    "type": "channel",
                    "subtype": "noteOn",
                    "channel": 9,
                    "noteNumber": 54,
                    "velocity": 87,
                    "lightChannels": [
                        6,
                        7
                    ]
                }
            }
        }
    },
    {
        "changes": {
            "top-right": 1
        },
        "timeout": 0.022245737499999994,
        "raw": {
            "top-right": {
                "pinValue": 1,
                "ticks": 12,
                "event": {
                    "deltaTime": 12,
                    "type": "channel",
                    "subtype": "noteOn",
                    "channel": 8,
                    "noteNumber": 59,
                    "velocity": 127,
                    "lightChannels": [
                        1
                    ]
                }
            }
        }
    },
    {
        "changes": {
            "tree": 0
        },
        "timeout": 0.036016908333333326,
        "raw": {
            "tree": {
                "pinValue": 0,
                "ticks": 34,
                "event": {
                    "deltaTime": 34,
                    "type": "channel",
                    "subtype": "noteOff",
                    "channel": 9,
                    "noteNumber": 60,
                    "velocity": 0,
                    "lightChannels": [
                        9
                    ]
                }
            }
        }
    },
    {
        "changes": {
            "window": 0,
            "outline": 0
        },
        "timeout": 0.0031779624999999996,
        "raw": {
            "window": {
                "pinValue": 0,
                "ticks": 3,
                "event": {
                    "deltaTime": 3,
                    "type": "channel",
                    "subtype": "noteOff",
                    "channel": 9,
                    "noteNumber": 54,
                    "velocity": 0,
                    "lightChannels": [
                        6,
                        7
                    ]
                }
            },
            "outline": {
                "pinValue": 0,
                "ticks": 3,
                "event": {
                    "deltaTime": 3,
                    "type": "channel",
                    "subtype": "noteOff",
                    "channel": 9,
                    "noteNumber": 54,
                    "velocity": 0,
                    "lightChannels": [
                        6,
                        7
                    ]
                }
            }
        }
    },
    {
        "changes": {
            "top-right": 0
        },
        "timeout": 0.15783880416666665,
        "raw": {
            "top-right": {
                "pinValue": 0,
                "ticks": 10,
                "event": {
                    "deltaTime": 10,
                    "type": "channel",
                    "subtype": "noteOff",
                    "channel": 8,
                    "noteNumber": 59,
                    "velocity": 0,
                    "lightChannels": [
                        1
                    ]
                }
            }
        }
    },
    {
        "changes": {
            "garden": 1
        },
        "timeout": 0.027542341666666664,
        "raw": {
            "garden": {
                "pinValue": 1,
                "ticks": 9,
                "event": {
                    "deltaTime": 9,
                    "type": "channel",
                    "subtype": "noteOn",
                    "channel": 9,
                    "noteNumber": 61,
                    "velocity": 118,
                    "lightChannels": [
                        8
                    ]
                }
            }
        }
    },
    {
        "changes": {
            "window": 1,
            "outline": 1
        },
        "timeout": 0.006355924999999999,
        "raw": {
            "window": {
                "pinValue": 1,
                "ticks": 6,
                "event": {
                    "deltaTime": 6,
                    "type": "channel",
                    "subtype": "noteOn",
                    "channel": 9,
                    "noteNumber": 54,
                    "velocity": 84,
                    "lightChannels": [
                        6,
                        7
                    ]
                }
            },
            "outline": {
                "pinValue": 1,
                "ticks": 6,
                "event": {
                    "deltaTime": 6,
                    "type": "channel",
                    "subtype": "noteOn",
                    "channel": 9,
                    "noteNumber": 54,
                    "velocity": 84,
                    "lightChannels": [
                        6,
                        7
                    ]
                }
            }
        }
    },
    {
        "changes": {
            "bottom-right": 1
        },
        "timeout": 0.006355924999999999,
        "raw": {
            "bottom-right": {
                "pinValue": 1,
                "ticks": 6,
                "event": {
                    "deltaTime": 6,
                    "type": "channel",
                    "subtype": "noteOn",
                    "channel": 8,
                    "noteNumber": 65,
                    "velocity": 127,
                    "lightChannels": [
                        2
                    ]
                }
            }
        }
    },
    {
        "changes": {
            "garden": 0,
            "window": 0,
            "outline": 0
        },
        "timeout": 0.05402536249999999,
        "raw": {
            "garden": {
                "pinValue": 0,
                "ticks": 48,
                "event": {
                    "deltaTime": 48,
                    "type": "channel",
                    "subtype": "noteOff",
                    "channel": 9,
                    "noteNumber": 61,
                    "velocity": 0,
                    "lightChannels": [
                        8
                    ]
                }
            },
            "window": {
                "pinValue": 0,
                "ticks": 0,
                "event": {
                    "deltaTime": 0,
                    "type": "channel",
                    "subtype": "noteOff",
                    "channel": 9,
                    "noteNumber": 54,
                    "velocity": 0,
                    "lightChannels": [
                        6,
                        7
                    ]
                }
            },
            "outline": {
                "pinValue": 0,
                "ticks": 0,
                "event": {
                    "deltaTime": 0,
                    "type": "channel",
                    "subtype": "noteOff",
                    "channel": 9,
                    "noteNumber": 54,
                    "velocity": 0,
                    "lightChannels": [
                        6,
                        7
                    ]
                }
            }
        }
    },
    {
        "changes": {
            "bottom-right": 0
        },
        "timeout": 0.17055065416666665,
        "raw": {
            "bottom-right": {
                "pinValue": 0,
                "ticks": 1,
                "event": {
                    "deltaTime": 1,
                    "type": "channel",
                    "subtype": "noteOff",
                    "channel": 8,
                    "noteNumber": 65,
                    "velocity": 0,
                    "lightChannels": [
                        2
                    ]
                }
            }
        }
    },
    {
        "changes": {
            "window": 1,
            "outline": 1
        },
        "timeout": 0.02330505833333333,
        "raw": {
            "window": {
                "pinValue": 1,
                "ticks": 0,
                "event": {
                    "deltaTime": 0,
                    "type": "channel",
                    "subtype": "noteOn",
                    "channel": 9,
                    "noteNumber": 54,
                    "velocity": 87,
                    "lightChannels": [
                        6,
                        7
                    ]
                }
            },
            "outline": {
                "pinValue": 1,
                "ticks": 0,
                "event": {
                    "deltaTime": 0,
                    "type": "channel",
                    "subtype": "noteOn",
                    "channel": 9,
                    "noteNumber": 54,
                    "velocity": 87,
                    "lightChannels": [
                        6,
                        7
                    ]
                }
            }
        }
    },
    {
        "changes": {
            "garage": 1,
            "top-right": 1,
            "bottom-right": 1
        },
        "timeout": 0.0095338875,
        "raw": {
            "garage": {
                "pinValue": 1,
                "ticks": 9,
                "event": {
                    "deltaTime": 9,
                    "type": "channel",
                    "subtype": "noteOn",
                    "channel": 8,
                    "noteNumber": 64,
                    "velocity": 127,
                    "lightChannels": [
                        0,
                        1,
                        2
                    ]
                }
            },
            "top-right": {
                "pinValue": 1,
                "ticks": 9,
                "event": {
                    "deltaTime": 9,
                    "type": "channel",
                    "subtype": "noteOn",
                    "channel": 8,
                    "noteNumber": 64,
                    "velocity": 127,
                    "lightChannels": [
                        0,
                        1,
                        2
                    ]
                }
            },
            "bottom-right": {
                "pinValue": 1,
                "ticks": 9,
                "event": {
                    "deltaTime": 9,
                    "type": "channel",
                    "subtype": "noteOn",
                    "channel": 8,
                    "noteNumber": 64,
                    "velocity": 127,
                    "lightChannels": [
                        0,
                        1,
                        2
                    ]
                }
            }
        }
    },
    {
        "changes": {
            "tree": 1
        },
        "timeout": 0.0010593208333333332,
        "raw": {
            "tree": {
                "pinValue": 1,
                "ticks": 1,
                "event": {
                    "deltaTime": 1,
                    "type": "channel",
                    "subtype": "noteOn",
                    "channel": 9,
                    "noteNumber": 60,
                    "velocity": 122,
                    "lightChannels": [
                        9
                    ]
                }
            }
        }
    },
    {
        "changes": {
            "window": 0,
            "outline": 0
        },
        "timeout": 0.056144004166666664,
        "raw": {
            "window": {
                "pinValue": 0,
                "ticks": 15,
                "event": {
                    "deltaTime": 15,
                    "type": "channel",
                    "subtype": "noteOff",
                    "channel": 9,
                    "noteNumber": 54,
                    "velocity": 0,
                    "lightChannels": [
                        6,
                        7
                    ]
                }
            },
            "outline": {
                "pinValue": 0,
                "ticks": 15,
                "event": {
                    "deltaTime": 15,
                    "type": "channel",
                    "subtype": "noteOff",
                    "channel": 9,
                    "noteNumber": 54,
                    "velocity": 0,
                    "lightChannels": [
                        6,
                        7
                    ]
                }
            }
        }
    },
    {
        "changes": {
            "tree": 0
        },
        "timeout": 0.013771170833333332,
        "raw": {
            "tree": {
                "pinValue": 0,
                "ticks": 10,
                "event": {
                    "deltaTime": 10,
                    "type": "channel",
                    "subtype": "noteOff",
                    "channel": 9,
                    "noteNumber": 60,
                    "velocity": 0,
                    "lightChannels": [
                        9
                    ]
                }
            }
        }
    },
    {
        "changes": {
            "window": 1,
            "outline": 1
        },
        "timeout": 0.18432182499999997,
        "raw": {
            "window": {
                "pinValue": 1,
                "ticks": 12,
                "event": {
                    "deltaTime": 12,
                    "type": "channel",
                    "subtype": "noteOn",
                    "channel": 9,
                    "noteNumber": 54,
                    "velocity": 90,
                    "lightChannels": [
                        6,
                        7
                    ]
                }
            },
            "outline": {
                "pinValue": 1,
                "ticks": 12,
                "event": {
                    "deltaTime": 12,
                    "type": "channel",
                    "subtype": "noteOn",
                    "channel": 9,
                    "noteNumber": 54,
                    "velocity": 90,
                    "lightChannels": [
                        6,
                        7
                    ]
                }
            }
        }
    },
    {
        "changes": {
            "garden": 1
        },
        "timeout": 0.007415245833333332,
        "raw": {
            "garden": {
                "pinValue": 1,
                "ticks": 0,
                "event": {
                    "deltaTime": 0,
                    "type": "channel",
                    "subtype": "noteOn",
                    "channel": 9,
                    "noteNumber": 61,
                    "velocity": 110,
                    "lightChannels": [
                        8
                    ]
                }
            }
        }
    },
    {
        "changes": {
            "window": 0,
            "outline": 0
        },
        "timeout": 0.050847399999999994,
        "raw": {
            "window": {
                "pinValue": 0,
                "ticks": 1,
                "event": {
                    "deltaTime": 1,
                    "type": "channel",
                    "subtype": "noteOff",
                    "channel": 9,
                    "noteNumber": 54,
                    "velocity": 0,
                    "lightChannels": [
                        6,
                        7
                    ]
                }
            },
            "outline": {
                "pinValue": 0,
                "ticks": 1,
                "event": {
                    "deltaTime": 1,
                    "type": "channel",
                    "subtype": "noteOff",
                    "channel": 9,
                    "noteNumber": 54,
                    "velocity": 0,
                    "lightChannels": [
                        6,
                        7
                    ]
                }
            }
        }
    },
    {
        "changes": {
            "garden": 0
        },
        "timeout": 0.014830491666666664,
        "raw": {
            "garden": {
                "pinValue": 0,
                "ticks": 14,
                "event": {
                    "deltaTime": 14,
                    "type": "channel",
                    "subtype": "noteOff",
                    "channel": 9,
                    "noteNumber": 61,
                    "velocity": 0,
                    "lightChannels": [
                        8
                    ]
                }
            }
        }
    },
    {
        "changes": {
            "window": 1,
            "outline": 1
        },
        "timeout": 0.18326250416666665,
        "raw": {
            "window": {
                "pinValue": 1,
                "ticks": 7,
                "event": {
                    "deltaTime": 7,
                    "type": "channel",
                    "subtype": "noteOn",
                    "channel": 9,
                    "noteNumber": 54,
                    "velocity": 84,
                    "lightChannels": [
                        6,
                        7
                    ]
                }
            },
            "outline": {
                "pinValue": 1,
                "ticks": 7,
                "event": {
                    "deltaTime": 7,
                    "type": "channel",
                    "subtype": "noteOn",
                    "channel": 9,
                    "noteNumber": 54,
                    "velocity": 84,
                    "lightChannels": [
                        6,
                        7
                    ]
                }
            }
        }
    },
    {
        "changes": {
            "tree": 1
        },
        "timeout": 0.0010593208333333332,
        "raw": {
            "tree": {
                "pinValue": 1,
                "ticks": 1,
                "event": {
                    "deltaTime": 1,
                    "type": "channel",
                    "subtype": "noteOn",
                    "channel": 9,
                    "noteNumber": 60,
                    "velocity": 122,
                    "lightChannels": [
                        9
                    ]
                }
            }
        }
    },
    {
        "changes": {
            "window": 0,
            "outline": 0
        },
        "timeout": 0.05402536249999999,
        "raw": {
            "window": {
                "pinValue": 0,
                "ticks": 36,
                "event": {
                    "deltaTime": 36,
                    "type": "channel",
                    "subtype": "noteOff",
                    "channel": 9,
                    "noteNumber": 54,
                    "velocity": 0,
                    "lightChannels": [
                        6,
                        7
                    ]
                }
            },
            "outline": {
                "pinValue": 0,
                "ticks": 36,
                "event": {
                    "deltaTime": 36,
                    "type": "channel",
                    "subtype": "noteOff",
                    "channel": 9,
                    "noteNumber": 54,
                    "velocity": 0,
                    "lightChannels": [
                        6,
                        7
                    ]
                }
            }
        }
    },
    {
        "changes": {
            "tree": 0
        },
        "timeout": 0.014830491666666664,
        "raw": {
            "tree": {
                "pinValue": 0,
                "ticks": 6,
                "event": {
                    "deltaTime": 6,
                    "type": "channel",
                    "subtype": "noteOff",
                    "channel": 9,
                    "noteNumber": 60,
                    "velocity": 0,
                    "lightChannels": [
                        9
                    ]
                }
            }
        }
    },
    {
        "changes": {
            "window": 1,
            "outline": 1
        },
        "timeout": 0.17690657916666666,
        "raw": {
            "window": {
                "pinValue": 1,
                "ticks": 1,
                "event": {
                    "deltaTime": 1,
                    "type": "channel",
                    "subtype": "noteOn",
                    "channel": 9,
                    "noteNumber": 54,
                    "velocity": 88,
                    "lightChannels": [
                        6,
                        7
                    ]
                }
            },
            "outline": {
                "pinValue": 1,
                "ticks": 1,
                "event": {
                    "deltaTime": 1,
                    "type": "channel",
                    "subtype": "noteOn",
                    "channel": 9,
                    "noteNumber": 54,
                    "velocity": 88,
                    "lightChannels": [
                        6,
                        7
                    ]
                }
            }
        }
    },
    {
        "changes": {
            "garden": 1
        },
        "timeout": 0.012711849999999998,
        "raw": {
            "garden": {
                "pinValue": 1,
                "ticks": 3,
                "event": {
                    "deltaTime": 3,
                    "type": "channel",
                    "subtype": "noteOn",
                    "channel": 9,
                    "noteNumber": 61,
                    "velocity": 126,
                    "lightChannels": [
                        8
                    ]
                }
            }
        }
    },
    {
        "changes": {
            "window": 0,
            "outline": 0
        },
        "timeout": 0.045550795833333324,
        "raw": {
            "window": {
                "pinValue": 0,
                "ticks": 37,
                "event": {
                    "deltaTime": 37,
                    "type": "channel",
                    "subtype": "noteOff",
                    "channel": 9,
                    "noteNumber": 54,
                    "velocity": 0,
                    "lightChannels": [
                        6,
                        7
                    ]
                }
            },
            "outline": {
                "pinValue": 0,
                "ticks": 37,
                "event": {
                    "deltaTime": 37,
                    "type": "channel",
                    "subtype": "noteOff",
                    "channel": 9,
                    "noteNumber": 54,
                    "velocity": 0,
                    "lightChannels": [
                        6,
                        7
                    ]
                }
            }
        }
    },
    {
        "changes": {
            "garden": 0
        },
        "timeout": 0.02330505833333333,
        "raw": {
            "garden": {
                "pinValue": 0,
                "ticks": 16,
                "event": {
                    "deltaTime": 16,
                    "type": "channel",
                    "subtype": "noteOff",
                    "channel": 9,
                    "noteNumber": 61,
                    "velocity": 0,
                    "lightChannels": [
                        8
                    ]
                }
            }
        }
    },
    {
        "changes": {
            "window": 1,
            "outline": 1
        },
        "timeout": 0.18432182499999994,
        "raw": {
            "window": {
                "pinValue": 1,
                "ticks": 3,
                "event": {
                    "deltaTime": 3,
                    "type": "channel",
                    "subtype": "noteOn",
                    "channel": 9,
                    "noteNumber": 54,
                    "velocity": 83,
                    "lightChannels": [
                        6,
                        7
                    ]
                }
            },
            "outline": {
                "pinValue": 1,
                "ticks": 3,
                "event": {
                    "deltaTime": 3,
                    "type": "channel",
                    "subtype": "noteOn",
                    "channel": 9,
                    "noteNumber": 54,
                    "velocity": 83,
                    "lightChannels": [
                        6,
                        7
                    ]
                }
            }
        }
    },
    {
        "changes": {
            "tree": 1
        },
        "timeout": 0.008474566666666666,
        "raw": {
            "tree": {
                "pinValue": 1,
                "ticks": 4,
                "event": {
                    "deltaTime": 4,
                    "type": "channel",
                    "subtype": "noteOn",
                    "channel": 9,
                    "noteNumber": 60,
                    "velocity": 123,
                    "lightChannels": [
                        9
                    ]
                }
            }
        }
    },
    {
        "changes": {
            "window": 0,
            "outline": 0
        },
        "timeout": 0.05190672083333333,
        "raw": {
            "window": {
                "pinValue": 0,
                "ticks": 45,
                "event": {
                    "deltaTime": 45,
                    "type": "channel",
                    "subtype": "noteOff",
                    "channel": 9,
                    "noteNumber": 54,
                    "velocity": 0,
                    "lightChannels": [
                        6,
                        7
                    ]
                }
            },
            "outline": {
                "pinValue": 0,
                "ticks": 45,
                "event": {
                    "deltaTime": 45,
                    "type": "channel",
                    "subtype": "noteOff",
                    "channel": 9,
                    "noteNumber": 54,
                    "velocity": 0,
                    "lightChannels": [
                        6,
                        7
                    ]
                }
            }
        }
    },
    {
        "changes": {
            "tree": 0
        },
        "timeout": 0.018008454166666667,
        "raw": {
            "tree": {
                "pinValue": 0,
                "ticks": 13,
                "event": {
                    "deltaTime": 13,
                    "type": "channel",
                    "subtype": "noteOff",
                    "channel": 9,
                    "noteNumber": 60,
                    "velocity": 0,
                    "lightChannels": [
                        9
                    ]
                }
            }
        }
    },
    {
        "changes": {
            "garage": 0,
            "top-right": 0,
            "bottom-right": 0
        },
        "timeout": 0.03813555,
        "raw": {
            "garage": {
                "pinValue": 0,
                "ticks": 23,
                "event": {
                    "deltaTime": 23,
                    "type": "channel",
                    "subtype": "noteOff",
                    "channel": 8,
                    "noteNumber": 64,
                    "velocity": 0,
                    "lightChannels": [
                        0,
                        1,
                        2
                    ]
                }
            },
            "top-right": {
                "pinValue": 0,
                "ticks": 23,
                "event": {
                    "deltaTime": 23,
                    "type": "channel",
                    "subtype": "noteOff",
                    "channel": 8,
                    "noteNumber": 64,
                    "velocity": 0,
                    "lightChannels": [
                        0,
                        1,
                        2
                    ]
                }
            },
            "bottom-right": {
                "pinValue": 0,
                "ticks": 23,
                "event": {
                    "deltaTime": 23,
                    "type": "channel",
                    "subtype": "noteOff",
                    "channel": 8,
                    "noteNumber": 64,
                    "velocity": 0,
                    "lightChannels": [
                        0,
                        1,
                        2
                    ]
                }
            }
        }
    },
    {
        "changes": {
            "garden": 1
        },
        "timeout": 0.14618627499999998,
        "raw": {
            "garden": {
                "pinValue": 1,
                "ticks": 8,
                "event": {
                    "deltaTime": 8,
                    "type": "channel",
                    "subtype": "noteOn",
                    "channel": 9,
                    "noteNumber": 61,
                    "velocity": 118,
                    "lightChannels": [
                        8
                    ]
                }
            }
        }
    },
    {
        "changes": {
            "window": 1,
            "outline": 1
        },
        "timeout": 0.0031779624999999996,
        "raw": {
            "window": {
                "pinValue": 1,
                "ticks": 3,
                "event": {
                    "deltaTime": 3,
                    "type": "channel",
                    "subtype": "noteOn",
                    "channel": 9,
                    "noteNumber": 54,
                    "velocity": 84,
                    "lightChannels": [
                        6,
                        7
                    ]
                }
            },
            "outline": {
                "pinValue": 1,
                "ticks": 3,
                "event": {
                    "deltaTime": 3,
                    "type": "channel",
                    "subtype": "noteOn",
                    "channel": 9,
                    "noteNumber": 54,
                    "velocity": 84,
                    "lightChannels": [
                        6,
                        7
                    ]
                }
            }
        }
    },
    {
        "changes": {
            "window": 0,
            "outline": 0
        },
        "timeout": 0.06355925,
        "raw": {
            "window": {
                "pinValue": 0,
                "ticks": 49,
                "event": {
                    "deltaTime": 49,
                    "type": "channel",
                    "subtype": "noteOff",
                    "channel": 9,
                    "noteNumber": 54,
                    "velocity": 0,
                    "lightChannels": [
                        6,
                        7
                    ]
                }
            },
            "outline": {
                "pinValue": 0,
                "ticks": 49,
                "event": {
                    "deltaTime": 49,
                    "type": "channel",
                    "subtype": "noteOff",
                    "channel": 9,
                    "noteNumber": 54,
                    "velocity": 0,
                    "lightChannels": [
                        6,
                        7
                    ]
                }
            }
        }
    },
    {
        "changes": {
            "garden": 0
        },
        "timeout": 0.0021186416666666664,
        "raw": {
            "garden": {
                "pinValue": 0,
                "ticks": 0,
                "event": {
                    "deltaTime": 0,
                    "type": "channel",
                    "subtype": "noteOff",
                    "channel": 9,
                    "noteNumber": 61,
                    "velocity": 0,
                    "lightChannels": [
                        8
                    ]
                }
            }
        }
    },
    {
        "changes": {
            "window": 1,
            "outline": 1
        },
        "timeout": 0.19067774999999998,
        "raw": {
            "window": {
                "pinValue": 1,
                "ticks": 0,
                "event": {
                    "deltaTime": 0,
                    "type": "channel",
                    "subtype": "noteOn",
                    "channel": 9,
                    "noteNumber": 54,
                    "velocity": 83,
                    "lightChannels": [
                        6,
                        7
                    ]
                }
            },
            "outline": {
                "pinValue": 1,
                "ticks": 0,
                "event": {
                    "deltaTime": 0,
                    "type": "channel",
                    "subtype": "noteOn",
                    "channel": 9,
                    "noteNumber": 54,
                    "velocity": 83,
                    "lightChannels": [
                        6,
                        7
                    ]
                }
            }
        }
    },
    {
        "changes": {
            "tree": 1
        },
        "timeout": 0.0031779624999999996,
        "raw": {
            "tree": {
                "pinValue": 1,
                "ticks": 3,
                "event": {
                    "deltaTime": 3,
                    "type": "channel",
                    "subtype": "noteOn",
                    "channel": 9,
                    "noteNumber": 60,
                    "velocity": 122,
                    "lightChannels": [
                        9
                    ]
                }
            }
        }
    },
    {
        "changes": {
            "window": 0,
            "outline": 0
        },
        "timeout": 0.06249992916666666,
        "raw": {
            "window": {
                "pinValue": 0,
                "ticks": 20,
                "event": {
                    "deltaTime": 20,
                    "type": "channel",
                    "subtype": "noteOff",
                    "channel": 9,
                    "noteNumber": 54,
                    "velocity": 0,
                    "lightChannels": [
                        6,
                        7
                    ]
                }
            },
            "outline": {
                "pinValue": 0,
                "ticks": 20,
                "event": {
                    "deltaTime": 20,
                    "type": "channel",
                    "subtype": "noteOff",
                    "channel": 9,
                    "noteNumber": 54,
                    "velocity": 0,
                    "lightChannels": [
                        6,
                        7
                    ]
                }
            }
        }
    },
    {
        "changes": {
            "tree": 0
        },
        "timeout": 0.01694913333333333,
        "raw": {
            "tree": {
                "pinValue": 0,
                "ticks": 16,
                "event": {
                    "deltaTime": 16,
                    "type": "channel",
                    "subtype": "noteOff",
                    "channel": 9,
                    "noteNumber": 60,
                    "velocity": 0,
                    "lightChannels": [
                        9
                    ]
                }
            }
        }
    },
    {
        "changes": {
            "window": 1,
            "outline": 1
        },
        "timeout": 0.16101676666666667,
        "raw": {
            "window": {
                "pinValue": 1,
                "ticks": 0,
                "event": {
                    "deltaTime": 0,
                    "type": "channel",
                    "subtype": "noteOn",
                    "channel": 9,
                    "noteNumber": 54,
                    "velocity": 84,
                    "lightChannels": [
                        6,
                        7
                    ]
                }
            },
            "outline": {
                "pinValue": 1,
                "ticks": 0,
                "event": {
                    "deltaTime": 0,
                    "type": "channel",
                    "subtype": "noteOn",
                    "channel": 9,
                    "noteNumber": 54,
                    "velocity": 84,
                    "lightChannels": [
                        6,
                        7
                    ]
                }
            }
        }
    },
    {
        "changes": {
            "garden": 1
        },
        "timeout": 0.028601662499999996,
        "raw": {
            "garden": {
                "pinValue": 1,
                "ticks": 3,
                "event": {
                    "deltaTime": 3,
                    "type": "channel",
                    "subtype": "noteOn",
                    "channel": 9,
                    "noteNumber": 61,
                    "velocity": 124,
                    "lightChannels": [
                        8
                    ]
                }
            }
        }
    },
    {
        "changes": {
            "window": 0,
            "outline": 0
        },
        "timeout": 0.03177962499999999,
        "raw": {
            "window": {
                "pinValue": 0,
                "ticks": 16,
                "event": {
                    "deltaTime": 16,
                    "type": "channel",
                    "subtype": "noteOff",
                    "channel": 9,
                    "noteNumber": 54,
                    "velocity": 0,
                    "lightChannels": [
                        6,
                        7
                    ]
                }
            },
            "outline": {
                "pinValue": 0,
                "ticks": 16,
                "event": {
                    "deltaTime": 16,
                    "type": "channel",
                    "subtype": "noteOff",
                    "channel": 9,
                    "noteNumber": 54,
                    "velocity": 0,
                    "lightChannels": [
                        6,
                        7
                    ]
                }
            }
        }
    },
    {
        "changes": {
            "garden": 0
        },
        "timeout": 0.03389826666666666,
        "raw": {
            "garden": {
                "pinValue": 0,
                "ticks": 15,
                "event": {
                    "deltaTime": 15,
                    "type": "channel",
                    "subtype": "noteOff",
                    "channel": 9,
                    "noteNumber": 61,
                    "velocity": 0,
                    "lightChannels": [
                        8
                    ]
                }
            }
        }
    },
    {
        "changes": {
            "window": 1,
            "outline": 1
        },
        "timeout": 0.16313540833333331,
        "raw": {
            "window": {
                "pinValue": 1,
                "ticks": 8,
                "event": {
                    "deltaTime": 8,
                    "type": "channel",
                    "subtype": "noteOn",
                    "channel": 9,
                    "noteNumber": 54,
                    "velocity": 105,
                    "lightChannels": [
                        6,
                        7
                    ]
                }
            },
            "outline": {
                "pinValue": 1,
                "ticks": 8,
                "event": {
                    "deltaTime": 8,
                    "type": "channel",
                    "subtype": "noteOn",
                    "channel": 9,
                    "noteNumber": 54,
                    "velocity": 105,
                    "lightChannels": [
                        6,
                        7
                    ]
                }
            }
        }
    },
    {
        "changes": {
            "window": 0,
            "outline": 0
        },
        "timeout": 0.07097449583333333,
        "raw": {
            "window": {
                "pinValue": 0,
                "ticks": 49,
                "event": {
                    "deltaTime": 49,
                    "type": "channel",
                    "subtype": "noteOff",
                    "channel": 9,
                    "noteNumber": 54,
                    "velocity": 0,
                    "lightChannels": [
                        6,
                        7
                    ]
                }
            },
            "outline": {
                "pinValue": 0,
                "ticks": 49,
                "event": {
                    "deltaTime": 49,
                    "type": "channel",
                    "subtype": "noteOff",
                    "channel": 9,
                    "noteNumber": 54,
                    "velocity": 0,
                    "lightChannels": [
                        6,
                        7
                    ]
                }
            }
        }
    },
    {
        "changes": {
            "col-1": 1
        },
        "timeout": 0.18855910833333334,
        "raw": {
            "col-1": {
                "pinValue": 1,
                "ticks": 20,
                "event": {
                    "deltaTime": 20,
                    "type": "channel",
                    "subtype": "noteOn",
                    "channel": 3,
                    "noteNumber": 84,
                    "velocity": 112,
                    "lightChannels": [
                        3
                    ]
                }
            }
        }
    },
    {
        "changes": {
            "col-1": 0
        },
        "timeout": 0.0932202333333333,
        "raw": {
            "col-1": {
                "pinValue": 0,
                "ticks": 5,
                "event": {
                    "deltaTime": 5,
                    "type": "channel",
                    "subtype": "noteOff",
                    "channel": 3,
                    "noteNumber": 84,
                    "velocity": 0,
                    "lightChannels": [
                        3
                    ]
                }
            }
        }
    },
    {
        "changes": {
            "col-2": 1
        },
        "timeout": 0.17055065416666668,
        "raw": {
            "col-2": {
                "pinValue": 1,
                "ticks": 2,
                "event": {
                    "deltaTime": 2,
                    "type": "channel",
                    "subtype": "noteOn",
                    "channel": 3,
                    "noteNumber": 79,
                    "velocity": 121,
                    "lightChannels": [
                        4
                    ]
                }
            }
        }
    },
    {
        "changes": {
            "col-2": 0
        },
        "timeout": 0.0762711,
        "raw": {
            "col-2": {
                "pinValue": 0,
                "ticks": 3,
                "event": {
                    "deltaTime": 3,
                    "type": "channel",
                    "subtype": "noteOff",
                    "channel": 3,
                    "noteNumber": 79,
                    "velocity": 0,
                    "lightChannels": [
                        4
                    ]
                }
            }
        }
    },
    {
        "changes": {
            "col-3": 1
        },
        "timeout": 0.03283894583333333,
        "raw": {
            "col-3": {
                "pinValue": 1,
                "ticks": 11,
                "event": {
                    "deltaTime": 11,
                    "type": "channel",
                    "subtype": "noteOn",
                    "channel": 3,
                    "noteNumber": 77,
                    "velocity": 111,
                    "lightChannels": [
                        5
                    ]
                }
            }
        }
    },
    {
        "changes": {
            "col-3": 0
        },
        "timeout": 0.09110159166666665,
        "raw": {
            "col-3": {
                "pinValue": 0,
                "ticks": 10,
                "event": {
                    "deltaTime": 10,
                    "type": "channel",
                    "subtype": "noteOff",
                    "channel": 3,
                    "noteNumber": 77,
                    "velocity": 0,
                    "lightChannels": [
                        5
                    ]
                }
            }
        }
    },
    {
        "changes": {
            "garden": 1
        },
        "timeout": 0.03495758749999999,
        "raw": {
            "garden": {
                "pinValue": 1,
                "ticks": 2,
                "event": {
                    "deltaTime": 2,
                    "type": "channel",
                    "subtype": "noteOn",
                    "channel": 3,
                    "noteNumber": 72,
                    "velocity": 113,
                    "lightChannels": [
                        8
                    ]
                }
            }
        }
    },
    {
        "changes": {
            "window": 1,
            "outline": 1
        },
        "timeout": 0.0095338875,
        "raw": {
            "window": {
                "pinValue": 1,
                "ticks": 4,
                "event": {
                    "deltaTime": 4,
                    "type": "channel",
                    "subtype": "noteOn",
                    "channel": 9,
                    "noteNumber": 54,
                    "velocity": 93,
                    "lightChannels": [
                        6,
                        7
                    ]
                }
            },
            "outline": {
                "pinValue": 1,
                "ticks": 4,
                "event": {
                    "deltaTime": 4,
                    "type": "channel",
                    "subtype": "noteOn",
                    "channel": 9,
                    "noteNumber": 54,
                    "velocity": 93,
                    "lightChannels": [
                        6,
                        7
                    ]
                }
            }
        }
    },
    {
        "changes": {
            "window": 0,
            "outline": 0
        },
        "timeout": 0.06038128749999999,
        "raw": {
            "window": {
                "pinValue": 0,
                "ticks": 57,
                "event": {
                    "deltaTime": 57,
                    "type": "channel",
                    "subtype": "noteOff",
                    "channel": 9,
                    "noteNumber": 54,
                    "velocity": 0,
                    "lightChannels": [
                        6,
                        7
                    ]
                }
            },
            "outline": {
                "pinValue": 0,
                "ticks": 57,
                "event": {
                    "deltaTime": 57,
                    "type": "channel",
                    "subtype": "noteOff",
                    "channel": 9,
                    "noteNumber": 54,
                    "velocity": 0,
                    "lightChannels": [
                        6,
                        7
                    ]
                }
            }
        }
    },
    {
        "changes": {
            "garden": 0
        },
        "timeout": 0.049788079166666666,
        "raw": {
            "garden": {
                "pinValue": 0,
                "ticks": 6,
                "event": {
                    "deltaTime": 6,
                    "type": "channel",
                    "subtype": "noteOff",
                    "channel": 3,
                    "noteNumber": 72,
                    "velocity": 0,
                    "lightChannels": [
                        8
                    ]
                }
            }
        }
    },
    {
        "changes": {
            "tree": 1
        },
        "timeout": 0.13559306666666665,
        "raw": {
            "tree": {
                "pinValue": 1,
                "ticks": 16,
                "event": {
                    "deltaTime": 16,
                    "type": "channel",
                    "subtype": "noteOn",
                    "channel": 3,
                    "noteNumber": 77,
                    "velocity": 123,
                    "lightChannels": [
                        9
                    ]
                }
            }
        }
    },
    {
        "changes": {
            "window": 1,
            "outline": 1
        },
        "timeout": 0.012711849999999998,
        "raw": {
            "window": {
                "pinValue": 1,
                "ticks": 1,
                "event": {
                    "deltaTime": 1,
                    "type": "channel",
                    "subtype": "noteOn",
                    "channel": 9,
                    "noteNumber": 54,
                    "velocity": 99,
                    "lightChannels": [
                        6,
                        7
                    ]
                }
            },
            "outline": {
                "pinValue": 1,
                "ticks": 1,
                "event": {
                    "deltaTime": 1,
                    "type": "channel",
                    "subtype": "noteOn",
                    "channel": 9,
                    "noteNumber": 54,
                    "velocity": 99,
                    "lightChannels": [
                        6,
                        7
                    ]
                }
            }
        }
    },
    {
        "changes": {
            "window": 0,
            "outline": 0
        },
        "timeout": 0.06673721249999999,
        "raw": {
            "window": {
                "pinValue": 0,
                "ticks": 58,
                "event": {
                    "deltaTime": 58,
                    "type": "channel",
                    "subtype": "noteOff",
                    "channel": 9,
                    "noteNumber": 54,
                    "velocity": 0,
                    "lightChannels": [
                        6,
                        7
                    ]
                }
            },
            "outline": {
                "pinValue": 0,
                "ticks": 58,
                "event": {
                    "deltaTime": 58,
                    "type": "channel",
                    "subtype": "noteOff",
                    "channel": 9,
                    "noteNumber": 54,
                    "velocity": 0,
                    "lightChannels": [
                        6,
                        7
                    ]
                }
            }
        }
    },
    {
        "changes": {
            "tree": 0
        },
        "timeout": 0.011652529166666665,
        "raw": {
            "tree": {
                "pinValue": 0,
                "ticks": 3,
                "event": {
                    "deltaTime": 3,
                    "type": "channel",
                    "subtype": "noteOff",
                    "channel": 3,
                    "noteNumber": 77,
                    "velocity": 0,
                    "lightChannels": [
                        9
                    ]
                }
            }
        }
    },
    {
        "changes": {
            "col-1": 1,
            "col-2": 1,
            "col-3": 1,
            "garden": 1,
            "tree": 1
        },
        "timeout": 0.16313540833333331,
        "raw": {
            "col-1": {
                "pinValue": 1,
                "ticks": 48,
                "event": {
                    "deltaTime": 48,
                    "type": "channel",
                    "subtype": "noteOn",
                    "channel": 3,
                    "noteNumber": 79,
                    "velocity": 122,
                    "lightChannels": [
                        3,
                        4,
                        5,
                        8,
                        9
                    ]
                }
            },
            "col-2": {
                "pinValue": 1,
                "ticks": 48,
                "event": {
                    "deltaTime": 48,
                    "type": "channel",
                    "subtype": "noteOn",
                    "channel": 3,
                    "noteNumber": 79,
                    "velocity": 122,
                    "lightChannels": [
                        3,
                        4,
                        5,
                        8,
                        9
                    ]
                }
            },
            "col-3": {
                "pinValue": 1,
                "ticks": 48,
                "event": {
                    "deltaTime": 48,
                    "type": "channel",
                    "subtype": "noteOn",
                    "channel": 3,
                    "noteNumber": 79,
                    "velocity": 122,
                    "lightChannels": [
                        3,
                        4,
                        5,
                        8,
                        9
                    ]
                }
            },
            "garden": {
                "pinValue": 1,
                "ticks": 48,
                "event": {
                    "deltaTime": 48,
                    "type": "channel",
                    "subtype": "noteOn",
                    "channel": 3,
                    "noteNumber": 79,
                    "velocity": 122,
                    "lightChannels": [
                        3,
                        4,
                        5,
                        8,
                        9
                    ]
                }
            },
            "tree": {
                "pinValue": 1,
                "ticks": 48,
                "event": {
                    "deltaTime": 48,
                    "type": "channel",
                    "subtype": "noteOn",
                    "channel": 3,
                    "noteNumber": 79,
                    "velocity": 122,
                    "lightChannels": [
                        3,
                        4,
                        5,
                        8,
                        9
                    ]
                }
            }
        }
    },
    {
        "changes": {
            "col-1": 0,
            "col-2": 0,
            "col-3": 0,
            "garden": 0,
            "tree": 0
        },
        "timeout": 0.07521177916666666,
        "raw": {
            "col-1": {
                "pinValue": 0,
                "ticks": 2,
                "event": {
                    "deltaTime": 2,
                    "type": "channel",
                    "subtype": "noteOff",
                    "channel": 3,
                    "noteNumber": 79,
                    "velocity": 0,
                    "lightChannels": [
                        3,
                        4,
                        5,
                        8,
                        9
                    ]
                }
            },
            "col-2": {
                "pinValue": 0,
                "ticks": 2,
                "event": {
                    "deltaTime": 2,
                    "type": "channel",
                    "subtype": "noteOff",
                    "channel": 3,
                    "noteNumber": 79,
                    "velocity": 0,
                    "lightChannels": [
                        3,
                        4,
                        5,
                        8,
                        9
                    ]
                }
            },
            "col-3": {
                "pinValue": 0,
                "ticks": 2,
                "event": {
                    "deltaTime": 2,
                    "type": "channel",
                    "subtype": "noteOff",
                    "channel": 3,
                    "noteNumber": 79,
                    "velocity": 0,
                    "lightChannels": [
                        3,
                        4,
                        5,
                        8,
                        9
                    ]
                }
            },
            "garden": {
                "pinValue": 0,
                "ticks": 2,
                "event": {
                    "deltaTime": 2,
                    "type": "channel",
                    "subtype": "noteOff",
                    "channel": 3,
                    "noteNumber": 79,
                    "velocity": 0,
                    "lightChannels": [
                        3,
                        4,
                        5,
                        8,
                        9
                    ]
                }
            },
            "tree": {
                "pinValue": 0,
                "ticks": 2,
                "event": {
                    "deltaTime": 2,
                    "type": "channel",
                    "subtype": "noteOff",
                    "channel": 3,
                    "noteNumber": 79,
                    "velocity": 0,
                    "lightChannels": [
                        3,
                        4,
                        5,
                        8,
                        9
                    ]
                }
            }
        }
    },
    {
        "changes": {
            "col-1": 1
        },
        "timeout": 0.047669437499999995,
        "raw": {
            "col-1": {
                "pinValue": 1,
                "ticks": 4,
                "event": {
                    "deltaTime": 4,
                    "type": "channel",
                    "subtype": "noteOn",
                    "channel": 3,
                    "noteNumber": 84,
                    "velocity": 116,
                    "lightChannels": [
                        3
                    ]
                }
            }
        }
    },
    {
        "changes": {
            "col-1": 0
        },
        "timeout": 0.08368634583333333,
        "raw": {
            "col-1": {
                "pinValue": 0,
                "ticks": 6,
                "event": {
                    "deltaTime": 6,
                    "type": "channel",
                    "subtype": "noteOff",
                    "channel": 3,
                    "noteNumber": 84,
                    "velocity": 0,
                    "lightChannels": [
                        3
                    ]
                }
            }
        }
    },
    {
        "changes": {
            "col-2": 1
        },
        "timeout": 0.04555079583333333,
        "raw": {
            "col-2": {
                "pinValue": 1,
                "ticks": 3,
                "event": {
                    "deltaTime": 3,
                    "type": "channel",
                    "subtype": "noteOn",
                    "channel": 3,
                    "noteNumber": 79,
                    "velocity": 118,
                    "lightChannels": [
                        4
                    ]
                }
            }
        }
    },
    {
        "changes": {
            "col-2": 0
        },
        "timeout": 0.0762711,
        "raw": {
            "col-2": {
                "pinValue": 0,
                "ticks": 63,
                "event": {
                    "deltaTime": 63,
                    "type": "channel",
                    "subtype": "noteOff",
                    "channel": 3,
                    "noteNumber": 79,
                    "velocity": 0,
                    "lightChannels": [
                        4
                    ]
                }
            }
        }
    },
    {
        "changes": {
            "col-3": 1
        },
        "timeout": 0.17902522083333333,
        "raw": {
            "col-3": {
                "pinValue": 1,
                "ticks": 0,
                "event": {
                    "deltaTime": 0,
                    "type": "channel",
                    "subtype": "noteOn",
                    "channel": 3,
                    "noteNumber": 77,
                    "velocity": 113,
                    "lightChannels": [
                        5
                    ]
                }
            }
        }
    },
    {
        "changes": {
            "window": 1,
            "outline": 1
        },
        "timeout": 0.0158898125,
        "raw": {
            "window": {
                "pinValue": 1,
                "ticks": 10,
                "event": {
                    "deltaTime": 10,
                    "type": "channel",
                    "subtype": "noteOn",
                    "channel": 9,
                    "noteNumber": 54,
                    "velocity": 98,
                    "lightChannels": [
                        6,
                        7
                    ]
                }
            },
            "outline": {
                "pinValue": 1,
                "ticks": 10,
                "event": {
                    "deltaTime": 10,
                    "type": "channel",
                    "subtype": "noteOn",
                    "channel": 9,
                    "noteNumber": 54,
                    "velocity": 98,
                    "lightChannels": [
                        6,
                        7
                    ]
                }
            }
        }
    },
    {
        "changes": {
            "window": 0,
            "outline": 0
        },
        "timeout": 0.06144060833333333,
        "raw": {
            "window": {
                "pinValue": 0,
                "ticks": 53,
                "event": {
                    "deltaTime": 53,
                    "type": "channel",
                    "subtype": "noteOff",
                    "channel": 9,
                    "noteNumber": 54,
                    "velocity": 0,
                    "lightChannels": [
                        6,
                        7
                    ]
                }
            },
            "outline": {
                "pinValue": 0,
                "ticks": 53,
                "event": {
                    "deltaTime": 53,
                    "type": "channel",
                    "subtype": "noteOff",
                    "channel": 9,
                    "noteNumber": 54,
                    "velocity": 0,
                    "lightChannels": [
                        6,
                        7
                    ]
                }
            }
        }
    },
    {
        "changes": {
            "col-3": 0
        },
        "timeout": 0.0021186416666666664,
        "raw": {
            "col-3": {
                "pinValue": 0,
                "ticks": 2,
                "event": {
                    "deltaTime": 2,
                    "type": "channel",
                    "subtype": "noteOff",
                    "channel": 3,
                    "noteNumber": 77,
                    "velocity": 0,
                    "lightChannels": [
                        5
                    ]
                }
            }
        }
    },
    {
        "changes": {
            "garden": 1
        },
        "timeout": 0.04025419166666666,
        "raw": {
            "garden": {
                "pinValue": 1,
                "ticks": 1,
                "event": {
                    "deltaTime": 1,
                    "type": "channel",
                    "subtype": "noteOn",
                    "channel": 3,
                    "noteNumber": 72,
                    "velocity": 107,
                    "lightChannels": [
                        8
                    ]
                }
            }
        }
    },
    {
        "changes": {
            "garden": 0
        },
        "timeout": 0.08580498749999999,
        "raw": {
            "garden": {
                "pinValue": 0,
                "ticks": 70,
                "event": {
                    "deltaTime": 70,
                    "type": "channel",
                    "subtype": "noteOff",
                    "channel": 3,
                    "noteNumber": 72,
                    "velocity": 0,
                    "lightChannels": [
                        8
                    ]
                }
            }
        }
    },
    {
        "changes": {
            "tree": 1
        },
        "timeout": 0.04343215416666666,
        "raw": {
            "tree": {
                "pinValue": 1,
                "ticks": 2,
                "event": {
                    "deltaTime": 2,
                    "type": "channel",
                    "subtype": "noteOn",
                    "channel": 3,
                    "noteNumber": 77,
                    "velocity": 111,
                    "lightChannels": [
                        9
                    ]
                }
            }
        }
    },
    {
        "changes": {
            "window": 1,
            "outline": 1
        },
        "timeout": 0.007415245833333332,
        "raw": {
            "window": {
                "pinValue": 1,
                "ticks": 7,
                "event": {
                    "deltaTime": 7,
                    "type": "channel",
                    "subtype": "noteOn",
                    "channel": 9,
                    "noteNumber": 54,
                    "velocity": 96,
                    "lightChannels": [
                        6,
                        7
                    ]
                }
            },
            "outline": {
                "pinValue": 1,
                "ticks": 7,
                "event": {
                    "deltaTime": 7,
                    "type": "channel",
                    "subtype": "noteOn",
                    "channel": 9,
                    "noteNumber": 54,
                    "velocity": 96,
                    "lightChannels": [
                        6,
                        7
                    ]
                }
            }
        }
    },
    {
        "changes": {
            "window": 0,
            "outline": 0
        },
        "timeout": 0.06673721249999999,
        "raw": {
            "window": {
                "pinValue": 0,
                "ticks": 48,
                "event": {
                    "deltaTime": 48,
                    "type": "channel",
                    "subtype": "noteOff",
                    "channel": 9,
                    "noteNumber": 54,
                    "velocity": 0,
                    "lightChannels": [
                        6,
                        7
                    ]
                }
            },
            "outline": {
                "pinValue": 0,
                "ticks": 48,
                "event": {
                    "deltaTime": 48,
                    "type": "channel",
                    "subtype": "noteOff",
                    "channel": 9,
                    "noteNumber": 54,
                    "velocity": 0,
                    "lightChannels": [
                        6,
                        7
                    ]
                }
            }
        }
    },
    {
        "changes": {
            "tree": 0
        },
        "timeout": 0.011652529166666665,
        "raw": {
            "tree": {
                "pinValue": 0,
                "ticks": 11,
                "event": {
                    "deltaTime": 11,
                    "type": "channel",
                    "subtype": "noteOff",
                    "channel": 3,
                    "noteNumber": 77,
                    "velocity": 0,
                    "lightChannels": [
                        9
                    ]
                }
            }
        }
    },
    {
        "changes": {
            "col-1": 1,
            "col-2": 1,
            "col-3": 1,
            "garden": 1,
            "tree": 1
        },
        "timeout": 0.03707622916666666,
        "raw": {
            "col-1": {
                "pinValue": 1,
                "ticks": 2,
                "event": {
                    "deltaTime": 2,
                    "type": "channel",
                    "subtype": "noteOn",
                    "channel": 3,
                    "noteNumber": 79,
                    "velocity": 115,
                    "lightChannels": [
                        3,
                        4,
                        5,
                        8,
                        9
                    ]
                }
            },
            "col-2": {
                "pinValue": 1,
                "ticks": 2,
                "event": {
                    "deltaTime": 2,
                    "type": "channel",
                    "subtype": "noteOn",
                    "channel": 3,
                    "noteNumber": 79,
                    "velocity": 115,
                    "lightChannels": [
                        3,
                        4,
                        5,
                        8,
                        9
                    ]
                }
            },
            "col-3": {
                "pinValue": 1,
                "ticks": 2,
                "event": {
                    "deltaTime": 2,
                    "type": "channel",
                    "subtype": "noteOn",
                    "channel": 3,
                    "noteNumber": 79,
                    "velocity": 115,
                    "lightChannels": [
                        3,
                        4,
                        5,
                        8,
                        9
                    ]
                }
            },
            "garden": {
                "pinValue": 1,
                "ticks": 2,
                "event": {
                    "deltaTime": 2,
                    "type": "channel",
                    "subtype": "noteOn",
                    "channel": 3,
                    "noteNumber": 79,
                    "velocity": 115,
                    "lightChannels": [
                        3,
                        4,
                        5,
                        8,
                        9
                    ]
                }
            },
            "tree": {
                "pinValue": 1,
                "ticks": 2,
                "event": {
                    "deltaTime": 2,
                    "type": "channel",
                    "subtype": "noteOn",
                    "channel": 3,
                    "noteNumber": 79,
                    "velocity": 115,
                    "lightChannels": [
                        3,
                        4,
                        5,
                        8,
                        9
                    ]
                }
            }
        }
    },
    {
        "changes": {
            "col-1": 0,
            "col-2": 0,
            "col-3": 0,
            "garden": 0,
            "tree": 0
        },
        "timeout": 0.10275412083333332,
        "raw": {
            "col-1": {
                "pinValue": 0,
                "ticks": 9,
                "event": {
                    "deltaTime": 9,
                    "type": "channel",
                    "subtype": "noteOff",
                    "channel": 3,
                    "noteNumber": 79,
                    "velocity": 0,
                    "lightChannels": [
                        3,
                        4,
                        5,
                        8,
                        9
                    ]
                }
            },
            "col-2": {
                "pinValue": 0,
                "ticks": 9,
                "event": {
                    "deltaTime": 9,
                    "type": "channel",
                    "subtype": "noteOff",
                    "channel": 3,
                    "noteNumber": 79,
                    "velocity": 0,
                    "lightChannels": [
                        3,
                        4,
                        5,
                        8,
                        9
                    ]
                }
            },
            "col-3": {
                "pinValue": 0,
                "ticks": 9,
                "event": {
                    "deltaTime": 9,
                    "type": "channel",
                    "subtype": "noteOff",
                    "channel": 3,
                    "noteNumber": 79,
                    "velocity": 0,
                    "lightChannels": [
                        3,
                        4,
                        5,
                        8,
                        9
                    ]
                }
            },
            "garden": {
                "pinValue": 0,
                "ticks": 9,
                "event": {
                    "deltaTime": 9,
                    "type": "channel",
                    "subtype": "noteOff",
                    "channel": 3,
                    "noteNumber": 79,
                    "velocity": 0,
                    "lightChannels": [
                        3,
                        4,
                        5,
                        8,
                        9
                    ]
                }
            },
            "tree": {
                "pinValue": 0,
                "ticks": 9,
                "event": {
                    "deltaTime": 9,
                    "type": "channel",
                    "subtype": "noteOff",
                    "channel": 3,
                    "noteNumber": 79,
                    "velocity": 0,
                    "lightChannels": [
                        3,
                        4,
                        5,
                        8,
                        9
                    ]
                }
            }
        }
    },
    {
        "changes": {
            "garden": 1,
            "tree": 1
        },
        "timeout": 0.011652529166666665,
        "raw": {
            "garden": {
                "pinValue": 1,
                "ticks": 3,
                "event": {
                    "deltaTime": 3,
                    "type": "channel",
                    "subtype": "noteOn",
                    "channel": 3,
                    "noteNumber": 84,
                    "velocity": 109,
                    "lightChannels": [
                        8,
                        9
                    ]
                }
            },
            "tree": {
                "pinValue": 1,
                "ticks": 3,
                "event": {
                    "deltaTime": 3,
                    "type": "channel",
                    "subtype": "noteOn",
                    "channel": 3,
                    "noteNumber": 84,
                    "velocity": 109,
                    "lightChannels": [
                        8,
                        9
                    ]
                }
            }
        }
    },
    {
        "changes": {
            "garden": 0,
            "tree": 0
        },
        "timeout": 0.09004227083333333,
        "raw": {
            "garden": {
                "pinValue": 0,
                "ticks": 1,
                "event": {
                    "deltaTime": 1,
                    "type": "channel",
                    "subtype": "noteOff",
                    "channel": 3,
                    "noteNumber": 84,
                    "velocity": 0,
                    "lightChannels": [
                        8,
                        9
                    ]
                }
            },
            "tree": {
                "pinValue": 0,
                "ticks": 1,
                "event": {
                    "deltaTime": 1,
                    "type": "channel",
                    "subtype": "noteOff",
                    "channel": 3,
                    "noteNumber": 84,
                    "velocity": 0,
                    "lightChannels": [
                        8,
                        9
                    ]
                }
            }
        }
    },
    {
        "changes": {
            "window": 1,
            "outline": 1
        },
        "timeout": 0.1726692958333333,
        "raw": {
            "window": {
                "pinValue": 1,
                "ticks": 0,
                "event": {
                    "deltaTime": 0,
                    "type": "channel",
                    "subtype": "noteOn",
                    "channel": 9,
                    "noteNumber": 54,
                    "velocity": 98,
                    "lightChannels": [
                        6,
                        7
                    ]
                }
            },
            "outline": {
                "pinValue": 1,
                "ticks": 0,
                "event": {
                    "deltaTime": 0,
                    "type": "channel",
                    "subtype": "noteOn",
                    "channel": 9,
                    "noteNumber": 54,
                    "velocity": 98,
                    "lightChannels": [
                        6,
                        7
                    ]
                }
            }
        }
    },
    {
        "changes": {
            "col-1": 1
        },
        "timeout": 0.013771170833333332,
        "raw": {
            "col-1": {
                "pinValue": 1,
                "ticks": 7,
                "event": {
                    "deltaTime": 7,
                    "type": "channel",
                    "subtype": "noteOn",
                    "channel": 3,
                    "noteNumber": 89,
                    "velocity": 113,
                    "lightChannels": [
                        3
                    ]
                }
            }
        }
    },
    {
        "changes": {
            "window": 0,
            "outline": 0
        },
        "timeout": 0.06038128749999999,
        "raw": {
            "window": {
                "pinValue": 0,
                "ticks": 54,
                "event": {
                    "deltaTime": 54,
                    "type": "channel",
                    "subtype": "noteOff",
                    "channel": 9,
                    "noteNumber": 54,
                    "velocity": 0,
                    "lightChannels": [
                        6,
                        7
                    ]
                }
            },
            "outline": {
                "pinValue": 0,
                "ticks": 54,
                "event": {
                    "deltaTime": 54,
                    "type": "channel",
                    "subtype": "noteOff",
                    "channel": 9,
                    "noteNumber": 54,
                    "velocity": 0,
                    "lightChannels": [
                        6,
                        7
                    ]
                }
            }
        }
    },
    {
        "changes": {
            "col-1": 0
        },
        "timeout": 0.012711849999999998,
        "raw": {
            "col-1": {
                "pinValue": 0,
                "ticks": 0,
                "event": {
                    "deltaTime": 0,
                    "type": "channel",
                    "subtype": "noteOff",
                    "channel": 3,
                    "noteNumber": 89,
                    "velocity": 0,
                    "lightChannels": [
                        3
                    ]
                }
            }
        }
    },
    {
        "changes": {
            "col-2": 1
        },
        "timeout": 0.18538114583333332,
        "raw": {
            "col-2": {
                "pinValue": 1,
                "ticks": 13,
                "event": {
                    "deltaTime": 13,
                    "type": "channel",
                    "subtype": "noteOn",
                    "channel": 3,
                    "noteNumber": 84,
                    "velocity": 109,
                    "lightChannels": [
                        4
                    ]
                }
            }
        }
    },
    {
        "changes": {
            "col-2": 0
        },
        "timeout": 0.08474566666666666,
        "raw": {
            "col-2": {
                "pinValue": 0,
                "ticks": 23,
                "event": {
                    "deltaTime": 23,
                    "type": "channel",
                    "subtype": "noteOff",
                    "channel": 3,
                    "noteNumber": 84,
                    "velocity": 0,
                    "lightChannels": [
                        4
                    ]
                }
            }
        }
    },
    {
        "changes": {
            "window": 1,
            "outline": 1
        },
        "timeout": 0.16737269166666663,
        "raw": {
            "window": {
                "pinValue": 1,
                "ticks": 9,
                "event": {
                    "deltaTime": 9,
                    "type": "channel",
                    "subtype": "noteOn",
                    "channel": 9,
                    "noteNumber": 54,
                    "velocity": 101,
                    "lightChannels": [
                        6,
                        7
                    ]
                }
            },
            "outline": {
                "pinValue": 1,
                "ticks": 9,
                "event": {
                    "deltaTime": 9,
                    "type": "channel",
                    "subtype": "noteOn",
                    "channel": 9,
                    "noteNumber": 54,
                    "velocity": 101,
                    "lightChannels": [
                        6,
                        7
                    ]
                }
            }
        }
    },
    {
        "changes": {
            "col-3": 1
        },
        "timeout": 0.02436437916666666,
        "raw": {
            "col-3": {
                "pinValue": 1,
                "ticks": 17,
                "event": {
                    "deltaTime": 17,
                    "type": "channel",
                    "subtype": "noteOn",
                    "channel": 3,
                    "noteNumber": 77,
                    "velocity": 122,
                    "lightChannels": [
                        5
                    ]
                }
            }
        }
    },
    {
        "changes": {
            "window": 0,
            "outline": 0
        },
        "timeout": 0.04872875833333333,
        "raw": {
            "window": {
                "pinValue": 0,
                "ticks": 15,
                "event": {
                    "deltaTime": 15,
                    "type": "channel",
                    "subtype": "noteOff",
                    "channel": 9,
                    "noteNumber": 54,
                    "velocity": 0,
                    "lightChannels": [
                        6,
                        7
                    ]
                }
            },
            "outline": {
                "pinValue": 0,
                "ticks": 15,
                "event": {
                    "deltaTime": 15,
                    "type": "channel",
                    "subtype": "noteOff",
                    "channel": 9,
                    "noteNumber": 54,
                    "velocity": 0,
                    "lightChannels": [
                        6,
                        7
                    ]
                }
            }
        }
    },
    {
        "changes": {
            "col-3": 0
        },
        "timeout": 0.031779625,
        "raw": {
            "col-3": {
                "pinValue": 0,
                "ticks": 2,
                "event": {
                    "deltaTime": 2,
                    "type": "channel",
                    "subtype": "noteOff",
                    "channel": 3,
                    "noteNumber": 77,
                    "velocity": 0,
                    "lightChannels": [
                        5
                    ]
                }
            }
        }
    },
    {
        "changes": {
            "tree": 1
        },
        "timeout": 0.16949133333333333,
        "raw": {
            "tree": {
                "pinValue": 1,
                "ticks": 23,
                "event": {
                    "deltaTime": 23,
                    "type": "channel",
                    "subtype": "noteOn",
                    "channel": 3,
                    "noteNumber": 89,
                    "velocity": 122,
                    "lightChannels": [
                        9
                    ]
                }
            }
        }
    },
    {
        "changes": {
            "tree": 0
        },
        "timeout": 0.08156770416666666,
        "raw": {
            "tree": {
                "pinValue": 0,
                "ticks": 30,
                "event": {
                    "deltaTime": 30,
                    "type": "channel",
                    "subtype": "noteOff",
                    "channel": 3,
                    "noteNumber": 89,
                    "velocity": 0,
                    "lightChannels": [
                        9
                    ]
                }
            }
        }
    },
    {
        "changes": {
            "tree": 1
        },
        "timeout": 0.1620760875,
        "raw": {
            "tree": {
                "pinValue": 1,
                "ticks": 16,
                "event": {
                    "deltaTime": 16,
                    "type": "channel",
                    "subtype": "noteOn",
                    "channel": 3,
                    "noteNumber": 89,
                    "velocity": 122,
                    "lightChannels": [
                        9
                    ]
                }
            }
        }
    },
    {
        "changes": {
            "tree": 0
        },
        "timeout": 0.08368634583333333,
        "raw": {
            "tree": {
                "pinValue": 0,
                "ticks": 14,
                "event": {
                    "deltaTime": 14,
                    "type": "channel",
                    "subtype": "noteOff",
                    "channel": 3,
                    "noteNumber": 89,
                    "velocity": 0,
                    "lightChannels": [
                        9
                    ]
                }
            }
        }
    },
    {
        "changes": {
            "tree": 1
        },
        "timeout": 0.16207608749999997,
        "raw": {
            "tree": {
                "pinValue": 1,
                "ticks": 3,
                "event": {
                    "deltaTime": 3,
                    "type": "channel",
                    "subtype": "noteOn",
                    "channel": 3,
                    "noteNumber": 89,
                    "velocity": 121,
                    "lightChannels": [
                        9
                    ]
                }
            }
        }
    },
    {
        "changes": {
            "window": 1,
            "outline": 1
        },
        "timeout": 0.030720304166666663,
        "raw": {
            "window": {
                "pinValue": 1,
                "ticks": 13,
                "event": {
                    "deltaTime": 13,
                    "type": "channel",
                    "subtype": "noteOn",
                    "channel": 9,
                    "noteNumber": 54,
                    "velocity": 87,
                    "lightChannels": [
                        6,
                        7
                    ]
                }
            },
            "outline": {
                "pinValue": 1,
                "ticks": 13,
                "event": {
                    "deltaTime": 13,
                    "type": "channel",
                    "subtype": "noteOn",
                    "channel": 9,
                    "noteNumber": 54,
                    "velocity": 87,
                    "lightChannels": [
                        6,
                        7
                    ]
                }
            }
        }
    },
    {
        "changes": {
            "tree": 0
        },
        "timeout": 0.052966041666666665,
        "raw": {
            "tree": {
                "pinValue": 0,
                "ticks": 7,
                "event": {
                    "deltaTime": 7,
                    "type": "channel",
                    "subtype": "noteOff",
                    "channel": 3,
                    "noteNumber": 89,
                    "velocity": 0,
                    "lightChannels": [
                        9
                    ]
                }
            }
        }
    },
    {
        "changes": {
            "window": 0,
            "outline": 0
        },
        "timeout": 0.011652529166666665,
        "raw": {
            "window": {
                "pinValue": 0,
                "ticks": 11,
                "event": {
                    "deltaTime": 11,
                    "type": "channel",
                    "subtype": "noteOff",
                    "channel": 9,
                    "noteNumber": 54,
                    "velocity": 0,
                    "lightChannels": [
                        6,
                        7
                    ]
                }
            },
            "outline": {
                "pinValue": 0,
                "ticks": 11,
                "event": {
                    "deltaTime": 11,
                    "type": "channel",
                    "subtype": "noteOff",
                    "channel": 9,
                    "noteNumber": 54,
                    "velocity": 0,
                    "lightChannels": [
                        6,
                        7
                    ]
                }
            }
        }
    },
    {
        "changes": {
            "col-1": 1
        },
        "timeout": 0.15572016249999998,
        "raw": {
            "col-1": {
                "pinValue": 1,
                "ticks": 2,
                "event": {
                    "deltaTime": 2,
                    "type": "channel",
                    "subtype": "noteOn",
                    "channel": 6,
                    "noteNumber": 60,
                    "velocity": 97,
                    "lightChannels": [
                        3
                    ]
                }
            }
        }
    },
    {
        "changes": {
            "tree": 1
        },
        "timeout": 0.0095338875,
        "raw": {
            "tree": {
                "pinValue": 1,
                "ticks": 9,
                "event": {
                    "deltaTime": 9,
                    "type": "channel",
                    "subtype": "noteOn",
                    "channel": 3,
                    "noteNumber": 89,
                    "velocity": 122,
                    "lightChannels": [
                        9
                    ]
                }
            }
        }
    },
    {
        "changes": {
            "garage": 1
        },
        "timeout": 0.006355924999999999,
        "raw": {
            "garage": {
                "pinValue": 1,
                "ticks": 6,
                "event": {
                    "deltaTime": 6,
                    "type": "channel",
                    "subtype": "noteOn",
                    "channel": 8,
                    "noteNumber": 57,
                    "velocity": 127,
                    "lightChannels": [
                        0
                    ]
                }
            }
        }
    },
    {
        "changes": {
            "window": 1,
            "outline": 1
        },
        "timeout": 0.0052966041666666665,
        "raw": {
            "window": {
                "pinValue": 1,
                "ticks": 5,
                "event": {
                    "deltaTime": 5,
                    "type": "channel",
                    "subtype": "noteOn",
                    "channel": 9,
                    "noteNumber": 54,
                    "velocity": 84,
                    "lightChannels": [
                        6,
                        7
                    ]
                }
            },
            "outline": {
                "pinValue": 1,
                "ticks": 5,
                "event": {
                    "deltaTime": 5,
                    "type": "channel",
                    "subtype": "noteOn",
                    "channel": 9,
                    "noteNumber": 54,
                    "velocity": 84,
                    "lightChannels": [
                        6,
                        7
                    ]
                }
            }
        }
    },
    {
        "changes": {
            "window": 0,
            "outline": 0
        },
        "timeout": 0.06567789166666665,
        "raw": {
            "window": {
                "pinValue": 0,
                "ticks": 4,
                "event": {
                    "deltaTime": 4,
                    "type": "channel",
                    "subtype": "noteOff",
                    "channel": 9,
                    "noteNumber": 54,
                    "velocity": 0,
                    "lightChannels": [
                        6,
                        7
                    ]
                }
            },
            "outline": {
                "pinValue": 0,
                "ticks": 4,
                "event": {
                    "deltaTime": 4,
                    "type": "channel",
                    "subtype": "noteOff",
                    "channel": 9,
                    "noteNumber": 54,
                    "velocity": 0,
                    "lightChannels": [
                        6,
                        7
                    ]
                }
            }
        }
    },
    {
        "changes": {
            "tree": 0
        },
        "timeout": 0.008474566666666666,
        "raw": {
            "tree": {
                "pinValue": 0,
                "ticks": 8,
                "event": {
                    "deltaTime": 8,
                    "type": "channel",
                    "subtype": "noteOff",
                    "channel": 3,
                    "noteNumber": 89,
                    "velocity": 0,
                    "lightChannels": [
                        9
                    ]
                }
            }
        }
    },
    {
        "changes": {
            "window": 1,
            "outline": 1
        },
        "timeout": 0.18644046666666664,
        "raw": {
            "window": {
                "pinValue": 1,
                "ticks": 26,
                "event": {
                    "deltaTime": 26,
                    "type": "channel",
                    "subtype": "noteOn",
                    "channel": 9,
                    "noteNumber": 54,
                    "velocity": 77,
                    "lightChannels": [
                        6,
                        7
                    ]
                }
            },
            "outline": {
                "pinValue": 1,
                "ticks": 26,
                "event": {
                    "deltaTime": 26,
                    "type": "channel",
                    "subtype": "noteOn",
                    "channel": 9,
                    "noteNumber": 54,
                    "velocity": 77,
                    "lightChannels": [
                        6,
                        7
                    ]
                }
            }
        }
    },
    {
        "changes": {
            "window": 0,
            "outline": 0
        },
        "timeout": 0.0508474,
        "raw": {
            "window": {
                "pinValue": 0,
                "ticks": 8,
                "event": {
                    "deltaTime": 8,
                    "type": "channel",
                    "subtype": "noteOff",
                    "channel": 9,
                    "noteNumber": 54,
                    "velocity": 0,
                    "lightChannels": [
                        6,
                        7
                    ]
                }
            },
            "outline": {
                "pinValue": 0,
                "ticks": 8,
                "event": {
                    "deltaTime": 8,
                    "type": "channel",
                    "subtype": "noteOff",
                    "channel": 9,
                    "noteNumber": 54,
                    "velocity": 0,
                    "lightChannels": [
                        6,
                        7
                    ]
                }
            }
        }
    },
    {
        "changes": {
            "col-1": 0
        },
        "timeout": 0.11758461249999999,
        "raw": {
            "col-1": {
                "pinValue": 0,
                "ticks": 110,
                "event": {
                    "deltaTime": 110,
                    "type": "channel",
                    "subtype": "noteOff",
                    "channel": 6,
                    "noteNumber": 60,
                    "velocity": 0,
                    "lightChannels": [
                        3
                    ]
                }
            }
        }
    },
    {
        "changes": {
            "garage": 0
        },
        "timeout": 0.004237283333333333,
        "raw": {
            "garage": {
                "pinValue": 0,
                "ticks": 4,
                "event": {
                    "deltaTime": 4,
                    "type": "channel",
                    "subtype": "noteOff",
                    "channel": 8,
                    "noteNumber": 57,
                    "velocity": 0,
                    "lightChannels": [
                        0
                    ]
                }
            }
        }
    },
    {
        "changes": {
            "col-2": 1
        },
        "timeout": 0.046610116666666666,
        "raw": {
            "col-2": {
                "pinValue": 1,
                "ticks": 1,
                "event": {
                    "deltaTime": 1,
                    "type": "channel",
                    "subtype": "noteOn",
                    "channel": 6,
                    "noteNumber": 58,
                    "velocity": 87,
                    "lightChannels": [
                        4
                    ]
                }
            }
        }
    },
    {
        "changes": {
            "top-right": 1
        },
        "timeout": 0.013771170833333332,
        "raw": {
            "top-right": {
                "pinValue": 1,
                "ticks": 0,
                "event": {
                    "deltaTime": 0,
                    "type": "channel",
                    "subtype": "noteOn",
                    "channel": 8,
                    "noteNumber": 55,
                    "velocity": 125,
                    "lightChannels": [
                        1
                    ]
                }
            }
        }
    },
    {
        "changes": {
            "window": 1,
            "outline": 1
        },
        "timeout": 0.01694913333333333,
        "raw": {
            "window": {
                "pinValue": 1,
                "ticks": 16,
                "event": {
                    "deltaTime": 16,
                    "type": "channel",
                    "subtype": "noteOn",
                    "channel": 9,
                    "noteNumber": 54,
                    "velocity": 80,
                    "lightChannels": [
                        6,
                        7
                    ]
                }
            },
            "outline": {
                "pinValue": 1,
                "ticks": 16,
                "event": {
                    "deltaTime": 16,
                    "type": "channel",
                    "subtype": "noteOn",
                    "channel": 9,
                    "noteNumber": 54,
                    "velocity": 80,
                    "lightChannels": [
                        6,
                        7
                    ]
                }
            }
        }
    },
    {
        "changes": {
            "window": 0,
            "outline": 0
        },
        "timeout": 0.06355925,
        "raw": {
            "window": {
                "pinValue": 0,
                "ticks": 2,
                "event": {
                    "deltaTime": 2,
                    "type": "channel",
                    "subtype": "noteOff",
                    "channel": 9,
                    "noteNumber": 54,
                    "velocity": 0,
                    "lightChannels": [
                        6,
                        7
                    ]
                }
            },
            "outline": {
                "pinValue": 0,
                "ticks": 2,
                "event": {
                    "deltaTime": 2,
                    "type": "channel",
                    "subtype": "noteOff",
                    "channel": 9,
                    "noteNumber": 54,
                    "velocity": 0,
                    "lightChannels": [
                        6,
                        7
                    ]
                }
            }
        }
    },
    {
        "changes": {
            "window": 1,
            "outline": 1
        },
        "timeout": 0.1747879375,
        "raw": {
            "window": {
                "pinValue": 1,
                "ticks": 17,
                "event": {
                    "deltaTime": 17,
                    "type": "channel",
                    "subtype": "noteOn",
                    "channel": 9,
                    "noteNumber": 54,
                    "velocity": 84,
                    "lightChannels": [
                        6,
                        7
                    ]
                }
            },
            "outline": {
                "pinValue": 1,
                "ticks": 17,
                "event": {
                    "deltaTime": 17,
                    "type": "channel",
                    "subtype": "noteOn",
                    "channel": 9,
                    "noteNumber": 54,
                    "velocity": 84,
                    "lightChannels": [
                        6,
                        7
                    ]
                }
            }
        }
    },
    {
        "changes": {
            "window": 0,
            "outline": 0
        },
        "timeout": 0.06144060833333333,
        "raw": {
            "window": {
                "pinValue": 0,
                "ticks": 58,
                "event": {
                    "deltaTime": 58,
                    "type": "channel",
                    "subtype": "noteOff",
                    "channel": 9,
                    "noteNumber": 54,
                    "velocity": 0,
                    "lightChannels": [
                        6,
                        7
                    ]
                }
            },
            "outline": {
                "pinValue": 0,
                "ticks": 58,
                "event": {
                    "deltaTime": 58,
                    "type": "channel",
                    "subtype": "noteOff",
                    "channel": 9,
                    "noteNumber": 54,
                    "velocity": 0,
                    "lightChannels": [
                        6,
                        7
                    ]
                }
            }
        }
    },
    {
        "changes": {
            "col-2": 0
        },
        "timeout": 0.1313557833333333,
        "raw": {
            "col-2": {
                "pinValue": 0,
                "ticks": 58,
                "event": {
                    "deltaTime": 58,
                    "type": "channel",
                    "subtype": "noteOff",
                    "channel": 6,
                    "noteNumber": 58,
                    "velocity": 0,
                    "lightChannels": [
                        4
                    ]
                }
            }
        }
    },
    {
        "changes": {
            "top-right": 0
        },
        "timeout": 0.0021186416666666664,
        "raw": {
            "top-right": {
                "pinValue": 0,
                "ticks": 2,
                "event": {
                    "deltaTime": 2,
                    "type": "channel",
                    "subtype": "noteOff",
                    "channel": 8,
                    "noteNumber": 55,
                    "velocity": 0,
                    "lightChannels": [
                        1
                    ]
                }
            }
        }
    },
    {
        "changes": {
            "col-3": 1
        },
        "timeout": 0.039194870833333326,
        "raw": {
            "col-3": {
                "pinValue": 1,
                "ticks": 3,
                "event": {
                    "deltaTime": 3,
                    "type": "channel",
                    "subtype": "noteOn",
                    "channel": 6,
                    "noteNumber": 55,
                    "velocity": 83,
                    "lightChannels": [
                        5
                    ]
                }
            }
        }
    },
    {
        "changes": {
            "bottom-right": 1
        },
        "timeout": 0.012711849999999998,
        "raw": {
            "bottom-right": {
                "pinValue": 1,
                "ticks": 4,
                "event": {
                    "deltaTime": 4,
                    "type": "channel",
                    "subtype": "noteOn",
                    "channel": 8,
                    "noteNumber": 58,
                    "velocity": 118,
                    "lightChannels": [
                        2
                    ]
                }
            }
        }
    },
    {
        "changes": {
            "window": 1,
            "outline": 1
        },
        "timeout": 0.004237283333333333,
        "raw": {
            "window": {
                "pinValue": 1,
                "ticks": 4,
                "event": {
                    "deltaTime": 4,
                    "type": "channel",
                    "subtype": "noteOn",
                    "channel": 9,
                    "noteNumber": 54,
                    "velocity": 85,
                    "lightChannels": [
                        6,
                        7
                    ]
                }
            },
            "outline": {
                "pinValue": 1,
                "ticks": 4,
                "event": {
                    "deltaTime": 4,
                    "type": "channel",
                    "subtype": "noteOn",
                    "channel": 9,
                    "noteNumber": 54,
                    "velocity": 85,
                    "lightChannels": [
                        6,
                        7
                    ]
                }
            }
        }
    },
    {
        "changes": {
            "window": 0,
            "outline": 0
        },
        "timeout": 0.06461857083333332,
        "raw": {
            "window": {
                "pinValue": 0,
                "ticks": 61,
                "event": {
                    "deltaTime": 61,
                    "type": "channel",
                    "subtype": "noteOff",
                    "channel": 9,
                    "noteNumber": 54,
                    "velocity": 0,
                    "lightChannels": [
                        6,
                        7
                    ]
                }
            },
            "outline": {
                "pinValue": 0,
                "ticks": 61,
                "event": {
                    "deltaTime": 61,
                    "type": "channel",
                    "subtype": "noteOff",
                    "channel": 9,
                    "noteNumber": 54,
                    "velocity": 0,
                    "lightChannels": [
                        6,
                        7
                    ]
                }
            }
        }
    },
    {
        "changes": {
            "window": 1,
            "outline": 1
        },
        "timeout": 0.18326250416666662,
        "raw": {
            "window": {
                "pinValue": 1,
                "ticks": 8,
                "event": {
                    "deltaTime": 8,
                    "type": "channel",
                    "subtype": "noteOn",
                    "channel": 9,
                    "noteNumber": 54,
                    "velocity": 77,
                    "lightChannels": [
                        6,
                        7
                    ]
                }
            },
            "outline": {
                "pinValue": 1,
                "ticks": 8,
                "event": {
                    "deltaTime": 8,
                    "type": "channel",
                    "subtype": "noteOn",
                    "channel": 9,
                    "noteNumber": 54,
                    "velocity": 77,
                    "lightChannels": [
                        6,
                        7
                    ]
                }
            }
        }
    },
    {
        "changes": {
            "window": 0,
            "outline": 0
        },
        "timeout": 0.06461857083333332,
        "raw": {
            "window": {
                "pinValue": 0,
                "ticks": 61,
                "event": {
                    "deltaTime": 61,
                    "type": "channel",
                    "subtype": "noteOff",
                    "channel": 9,
                    "noteNumber": 54,
                    "velocity": 0,
                    "lightChannels": [
                        6,
                        7
                    ]
                }
            },
            "outline": {
                "pinValue": 0,
                "ticks": 61,
                "event": {
                    "deltaTime": 61,
                    "type": "channel",
                    "subtype": "noteOff",
                    "channel": 9,
                    "noteNumber": 54,
                    "velocity": 0,
                    "lightChannels": [
                        6,
                        7
                    ]
                }
            }
        }
    },
    {
        "changes": {
            "bottom-right": 0
        },
        "timeout": 0.1218218958333333,
        "raw": {
            "bottom-right": {
                "pinValue": 0,
                "ticks": 93,
                "event": {
                    "deltaTime": 93,
                    "type": "channel",
                    "subtype": "noteOff",
                    "channel": 8,
                    "noteNumber": 58,
                    "velocity": 0,
                    "lightChannels": [
                        2
                    ]
                }
            }
        }
    },
    {
        "changes": {
            "col-3": 0
        },
        "timeout": 0.006355924999999999,
        "raw": {
            "col-3": {
                "pinValue": 0,
                "ticks": 6,
                "event": {
                    "deltaTime": 6,
                    "type": "channel",
                    "subtype": "noteOff",
                    "channel": 6,
                    "noteNumber": 55,
                    "velocity": 0,
                    "lightChannels": [
                        5
                    ]
                }
            }
        }
    },
    {
        "changes": {
            "garage": 1
        },
        "timeout": 0.04237283333333333,
        "raw": {
            "garage": {
                "pinValue": 1,
                "ticks": 40,
                "event": {
                    "deltaTime": 40,
                    "type": "channel",
                    "subtype": "noteOn",
                    "channel": 8,
                    "noteNumber": 57,
                    "velocity": 118,
                    "lightChannels": [
                        0
                    ]
                }
            }
        }
    },
    {
        "changes": {
            "garden": 1
        },
        "timeout": 0.0095338875,
        "raw": {
            "garden": {
                "pinValue": 1,
                "ticks": 5,
                "event": {
                    "deltaTime": 5,
                    "type": "channel",
                    "subtype": "noteOn",
                    "channel": 6,
                    "noteNumber": 57,
                    "velocity": 90,
                    "lightChannels": [
                        8
                    ]
                }
            }
        }
    },
    {
        "changes": {
            "window": 1,
            "outline": 1
        },
        "timeout": 0.0052966041666666665,
        "raw": {
            "window": {
                "pinValue": 1,
                "ticks": 0,
                "event": {
                    "deltaTime": 0,
                    "type": "channel",
                    "subtype": "noteOn",
                    "channel": 9,
                    "noteNumber": 54,
                    "velocity": 83,
                    "lightChannels": [
                        6,
                        7
                    ]
                }
            },
            "outline": {
                "pinValue": 1,
                "ticks": 0,
                "event": {
                    "deltaTime": 0,
                    "type": "channel",
                    "subtype": "noteOn",
                    "channel": 9,
                    "noteNumber": 54,
                    "velocity": 83,
                    "lightChannels": [
                        6,
                        7
                    ]
                }
            }
        }
    },
    {
        "changes": {
            "window": 0,
            "outline": 0
        },
        "timeout": 0.06144060833333333,
        "raw": {
            "window": {
                "pinValue": 0,
                "ticks": 57,
                "event": {
                    "deltaTime": 57,
                    "type": "channel",
                    "subtype": "noteOff",
                    "channel": 9,
                    "noteNumber": 54,
                    "velocity": 0,
                    "lightChannels": [
                        6,
                        7
                    ]
                }
            },
            "outline": {
                "pinValue": 0,
                "ticks": 57,
                "event": {
                    "deltaTime": 57,
                    "type": "channel",
                    "subtype": "noteOff",
                    "channel": 9,
                    "noteNumber": 54,
                    "velocity": 0,
                    "lightChannels": [
                        6,
                        7
                    ]
                }
            }
        }
    },
    {
        "changes": {
            "window": 1,
            "outline": 1
        },
        "timeout": 0.1853811458333333,
        "raw": {
            "window": {
                "pinValue": 1,
                "ticks": 16,
                "event": {
                    "deltaTime": 16,
                    "type": "channel",
                    "subtype": "noteOn",
                    "channel": 9,
                    "noteNumber": 54,
                    "velocity": 84,
                    "lightChannels": [
                        6,
                        7
                    ]
                }
            },
            "outline": {
                "pinValue": 1,
                "ticks": 16,
                "event": {
                    "deltaTime": 16,
                    "type": "channel",
                    "subtype": "noteOn",
                    "channel": 9,
                    "noteNumber": 54,
                    "velocity": 84,
                    "lightChannels": [
                        6,
                        7
                    ]
                }
            }
        }
    },
    {
        "changes": {
            "window": 0,
            "outline": 0
        },
        "timeout": 0.06144060833333333,
        "raw": {
            "window": {
                "pinValue": 0,
                "ticks": 48,
                "event": {
                    "deltaTime": 48,
                    "type": "channel",
                    "subtype": "noteOff",
                    "channel": 9,
                    "noteNumber": 54,
                    "velocity": 0,
                    "lightChannels": [
                        6,
                        7
                    ]
                }
            },
            "outline": {
                "pinValue": 0,
                "ticks": 48,
                "event": {
                    "deltaTime": 48,
                    "type": "channel",
                    "subtype": "noteOff",
                    "channel": 9,
                    "noteNumber": 54,
                    "velocity": 0,
                    "lightChannels": [
                        6,
                        7
                    ]
                }
            }
        }
    },
    {
        "changes": {
            "garage": 0
        },
        "timeout": 0.04872875833333333,
        "raw": {
            "garage": {
                "pinValue": 0,
                "ticks": 46,
                "event": {
                    "deltaTime": 46,
                    "type": "channel",
                    "subtype": "noteOff",
                    "channel": 8,
                    "noteNumber": 57,
                    "velocity": 0,
                    "lightChannels": [
                        0
                    ]
                }
            }
        }
    },
    {
        "changes": {
            "garden": 0
        },
        "timeout": 0.09427955416666665,
        "raw": {
            "garden": {
                "pinValue": 0,
                "ticks": 78,
                "event": {
                    "deltaTime": 78,
                    "type": "channel",
                    "subtype": "noteOff",
                    "channel": 6,
                    "noteNumber": 57,
                    "velocity": 0,
                    "lightChannels": [
                        8
                    ]
                }
            }
        }
    },
    {
        "changes": {
            "top-right": 1
        },
        "timeout": 0.044491474999999996,
        "raw": {
            "top-right": {
                "pinValue": 1,
                "ticks": 4,
                "event": {
                    "deltaTime": 4,
                    "type": "channel",
                    "subtype": "noteOn",
                    "channel": 8,
                    "noteNumber": 57,
                    "velocity": 127,
                    "lightChannels": [
                        1
                    ]
                }
            }
        }
    },
    {
        "changes": {
            "window": 1,
            "outline": 1
        },
        "timeout": 0.0052966041666666665,
        "raw": {
            "window": {
                "pinValue": 1,
                "ticks": 5,
                "event": {
                    "deltaTime": 5,
                    "type": "channel",
                    "subtype": "noteOn",
                    "channel": 9,
                    "noteNumber": 54,
                    "velocity": 85,
                    "lightChannels": [
                        6,
                        7
                    ]
                }
            },
            "outline": {
                "pinValue": 1,
                "ticks": 5,
                "event": {
                    "deltaTime": 5,
                    "type": "channel",
                    "subtype": "noteOn",
                    "channel": 9,
                    "noteNumber": 54,
                    "velocity": 85,
                    "lightChannels": [
                        6,
                        7
                    ]
                }
            }
        }
    },
    {
        "changes": {
            "col-1": 1
        },
        "timeout": 0.0052966041666666665,
        "raw": {
            "col-1": {
                "pinValue": 1,
                "ticks": 5,
                "event": {
                    "deltaTime": 5,
                    "type": "channel",
                    "subtype": "noteOn",
                    "channel": 6,
                    "noteNumber": 60,
                    "velocity": 90,
                    "lightChannels": [
                        3
                    ]
                }
            }
        }
    },
    {
        "changes": {
            "window": 0,
            "outline": 0
        },
        "timeout": 0.059321966666666656,
        "raw": {
            "window": {
                "pinValue": 0,
                "ticks": 34,
                "event": {
                    "deltaTime": 34,
                    "type": "channel",
                    "subtype": "noteOff",
                    "channel": 9,
                    "noteNumber": 54,
                    "velocity": 0,
                    "lightChannels": [
                        6,
                        7
                    ]
                }
            },
            "outline": {
                "pinValue": 0,
                "ticks": 34,
                "event": {
                    "deltaTime": 34,
                    "type": "channel",
                    "subtype": "noteOff",
                    "channel": 9,
                    "noteNumber": 54,
                    "velocity": 0,
                    "lightChannels": [
                        6,
                        7
                    ]
                }
            }
        }
    },
    {
        "changes": {
            "window": 1,
            "outline": 1
        },
        "timeout": 0.19491503333333332,
        "raw": {
            "window": {
                "pinValue": 1,
                "ticks": 54,
                "event": {
                    "deltaTime": 54,
                    "type": "channel",
                    "subtype": "noteOn",
                    "channel": 9,
                    "noteNumber": 54,
                    "velocity": 83,
                    "lightChannels": [
                        6,
                        7
                    ]
                }
            },
            "outline": {
                "pinValue": 1,
                "ticks": 54,
                "event": {
                    "deltaTime": 54,
                    "type": "channel",
                    "subtype": "noteOn",
                    "channel": 9,
                    "noteNumber": 54,
                    "velocity": 83,
                    "lightChannels": [
                        6,
                        7
                    ]
                }
            }
        }
    },
    {
        "changes": {
            "window": 0,
            "outline": 0
        },
        "timeout": 0.06461857083333332,
        "raw": {
            "window": {
                "pinValue": 0,
                "ticks": 61,
                "event": {
                    "deltaTime": 61,
                    "type": "channel",
                    "subtype": "noteOff",
                    "channel": 9,
                    "noteNumber": 54,
                    "velocity": 0,
                    "lightChannels": [
                        6,
                        7
                    ]
                }
            },
            "outline": {
                "pinValue": 0,
                "ticks": 61,
                "event": {
                    "deltaTime": 61,
                    "type": "channel",
                    "subtype": "noteOff",
                    "channel": 9,
                    "noteNumber": 54,
                    "velocity": 0,
                    "lightChannels": [
                        6,
                        7
                    ]
                }
            }
        }
    },
    {
        "changes": {
            "top-right": 0
        },
        "timeout": 0.11652529166666666,
        "raw": {
            "top-right": {
                "pinValue": 0,
                "ticks": 110,
                "event": {
                    "deltaTime": 110,
                    "type": "channel",
                    "subtype": "noteOff",
                    "channel": 8,
                    "noteNumber": 57,
                    "velocity": 0,
                    "lightChannels": [
                        1
                    ]
                }
            }
        }
    },
    {
        "changes": {
            "col-1": 0
        },
        "timeout": 0.03283894583333333,
        "raw": {
            "col-1": {
                "pinValue": 0,
                "ticks": 31,
                "event": {
                    "deltaTime": 31,
                    "type": "channel",
                    "subtype": "noteOff",
                    "channel": 6,
                    "noteNumber": 60,
                    "velocity": 0,
                    "lightChannels": [
                        3
                    ]
                }
            }
        }
    },
    {
        "changes": {
            "bottom-right": 1
        },
        "timeout": 0.02648302083333333,
        "raw": {
            "bottom-right": {
                "pinValue": 1,
                "ticks": 19,
                "event": {
                    "deltaTime": 19,
                    "type": "channel",
                    "subtype": "noteOn",
                    "channel": 8,
                    "noteNumber": 55,
                    "velocity": 123,
                    "lightChannels": [
                        2
                    ]
                }
            }
        }
    },
    {
        "changes": {
            "col-2": 1
        },
        "timeout": 0.0095338875,
        "raw": {
            "col-2": {
                "pinValue": 1,
                "ticks": 9,
                "event": {
                    "deltaTime": 9,
                    "type": "channel",
                    "subtype": "noteOn",
                    "channel": 6,
                    "noteNumber": 58,
                    "velocity": 79,
                    "lightChannels": [
                        4
                    ]
                }
            }
        }
    },
    {
        "changes": {
            "window": 1,
            "outline": 1
        },
        "timeout": 0.011652529166666665,
        "raw": {
            "window": {
                "pinValue": 1,
                "ticks": 11,
                "event": {
                    "deltaTime": 11,
                    "type": "channel",
                    "subtype": "noteOn",
                    "channel": 9,
                    "noteNumber": 54,
                    "velocity": 81,
                    "lightChannels": [
                        6,
                        7
                    ]
                }
            },
            "outline": {
                "pinValue": 1,
                "ticks": 11,
                "event": {
                    "deltaTime": 11,
                    "type": "channel",
                    "subtype": "noteOn",
                    "channel": 9,
                    "noteNumber": 54,
                    "velocity": 81,
                    "lightChannels": [
                        6,
                        7
                    ]
                }
            }
        }
    },
    {
        "changes": {
            "window": 0,
            "outline": 0
        },
        "timeout": 0.06249992916666666,
        "raw": {
            "window": {
                "pinValue": 0,
                "ticks": 59,
                "event": {
                    "deltaTime": 59,
                    "type": "channel",
                    "subtype": "noteOff",
                    "channel": 9,
                    "noteNumber": 54,
                    "velocity": 0,
                    "lightChannels": [
                        6,
                        7
                    ]
                }
            },
            "outline": {
                "pinValue": 0,
                "ticks": 59,
                "event": {
                    "deltaTime": 59,
                    "type": "channel",
                    "subtype": "noteOff",
                    "channel": 9,
                    "noteNumber": 54,
                    "velocity": 0,
                    "lightChannels": [
                        6,
                        7
                    ]
                }
            }
        }
    },
    {
        "changes": {
            "window": 1,
            "outline": 1
        },
        "timeout": 0.184321825,
        "raw": {
            "window": {
                "pinValue": 1,
                "ticks": 84,
                "event": {
                    "deltaTime": 84,
                    "type": "channel",
                    "subtype": "noteOn",
                    "channel": 9,
                    "noteNumber": 54,
                    "velocity": 84,
                    "lightChannels": [
                        6,
                        7
                    ]
                }
            },
            "outline": {
                "pinValue": 1,
                "ticks": 84,
                "event": {
                    "deltaTime": 84,
                    "type": "channel",
                    "subtype": "noteOn",
                    "channel": 9,
                    "noteNumber": 54,
                    "velocity": 84,
                    "lightChannels": [
                        6,
                        7
                    ]
                }
            }
        }
    },
    {
        "changes": {
            "window": 0,
            "outline": 0
        },
        "timeout": 0.06144060833333333,
        "raw": {
            "window": {
                "pinValue": 0,
                "ticks": 58,
                "event": {
                    "deltaTime": 58,
                    "type": "channel",
                    "subtype": "noteOff",
                    "channel": 9,
                    "noteNumber": 54,
                    "velocity": 0,
                    "lightChannels": [
                        6,
                        7
                    ]
                }
            },
            "outline": {
                "pinValue": 0,
                "ticks": 58,
                "event": {
                    "deltaTime": 58,
                    "type": "channel",
                    "subtype": "noteOff",
                    "channel": 9,
                    "noteNumber": 54,
                    "velocity": 0,
                    "lightChannels": [
                        6,
                        7
                    ]
                }
            }
        }
    },
    {
        "changes": {
            "col-2": 0
        },
        "timeout": 0.11228800833333333,
        "raw": {
            "col-2": {
                "pinValue": 0,
                "ticks": 46,
                "event": {
                    "deltaTime": 46,
                    "type": "channel",
                    "subtype": "noteOff",
                    "channel": 6,
                    "noteNumber": 58,
                    "velocity": 0,
                    "lightChannels": [
                        4
                    ]
                }
            }
        }
    },
    {
        "changes": {
            "bottom-right": 0
        },
        "timeout": 0.024364379166666665,
        "raw": {
            "bottom-right": {
                "pinValue": 0,
                "ticks": 23,
                "event": {
                    "deltaTime": 23,
                    "type": "channel",
                    "subtype": "noteOff",
                    "channel": 8,
                    "noteNumber": 55,
                    "velocity": 0,
                    "lightChannels": [
                        2
                    ]
                }
            }
        }
    },
    {
        "changes": {
            "col-3": 1
        },
        "timeout": 0.02012709583333333,
        "raw": {
            "col-3": {
                "pinValue": 1,
                "ticks": 3,
                "event": {
                    "deltaTime": 3,
                    "type": "channel",
                    "subtype": "noteOn",
                    "channel": 6,
                    "noteNumber": 55,
                    "velocity": 91,
                    "lightChannels": [
                        5
                    ]
                }
            }
        }
    },
    {
        "changes": {
            "garage": 1
        },
        "timeout": 0.021186416666666666,
        "raw": {
            "garage": {
                "pinValue": 1,
                "ticks": 10,
                "event": {
                    "deltaTime": 10,
                    "type": "channel",
                    "subtype": "noteOn",
                    "channel": 8,
                    "noteNumber": 58,
                    "velocity": 118,
                    "lightChannels": [
                        0
                    ]
                }
            }
        }
    },
    {
        "changes": {
            "window": 1,
            "outline": 1
        },
        "timeout": 0.0010593208333333332,
        "raw": {
            "window": {
                "pinValue": 1,
                "ticks": 1,
                "event": {
                    "deltaTime": 1,
                    "type": "channel",
                    "subtype": "noteOn",
                    "channel": 9,
                    "noteNumber": 54,
                    "velocity": 87,
                    "lightChannels": [
                        6,
                        7
                    ]
                }
            },
            "outline": {
                "pinValue": 1,
                "ticks": 1,
                "event": {
                    "deltaTime": 1,
                    "type": "channel",
                    "subtype": "noteOn",
                    "channel": 9,
                    "noteNumber": 54,
                    "velocity": 87,
                    "lightChannels": [
                        6,
                        7
                    ]
                }
            }
        }
    },
    {
        "changes": {
            "window": 0,
            "outline": 0
        },
        "timeout": 0.06885585416666666,
        "raw": {
            "window": {
                "pinValue": 0,
                "ticks": 43,
                "event": {
                    "deltaTime": 43,
                    "type": "channel",
                    "subtype": "noteOff",
                    "channel": 9,
                    "noteNumber": 54,
                    "velocity": 0,
                    "lightChannels": [
                        6,
                        7
                    ]
                }
            },
            "outline": {
                "pinValue": 0,
                "ticks": 43,
                "event": {
                    "deltaTime": 43,
                    "type": "channel",
                    "subtype": "noteOff",
                    "channel": 9,
                    "noteNumber": 54,
                    "velocity": 0,
                    "lightChannels": [
                        6,
                        7
                    ]
                }
            }
        }
    },
    {
        "changes": {
            "window": 1,
            "outline": 1
        },
        "timeout": 0.18008454166666665,
        "raw": {
            "window": {
                "pinValue": 1,
                "ticks": 28,
                "event": {
                    "deltaTime": 28,
                    "type": "channel",
                    "subtype": "noteOn",
                    "channel": 9,
                    "noteNumber": 54,
                    "velocity": 77,
                    "lightChannels": [
                        6,
                        7
                    ]
                }
            },
            "outline": {
                "pinValue": 1,
                "ticks": 28,
                "event": {
                    "deltaTime": 28,
                    "type": "channel",
                    "subtype": "noteOn",
                    "channel": 9,
                    "noteNumber": 54,
                    "velocity": 77,
                    "lightChannels": [
                        6,
                        7
                    ]
                }
            }
        }
    },
    {
        "changes": {
            "window": 0,
            "outline": 0
        },
        "timeout": 0.06461857083333333,
        "raw": {
            "window": {
                "pinValue": 0,
                "ticks": 34,
                "event": {
                    "deltaTime": 34,
                    "type": "channel",
                    "subtype": "noteOff",
                    "channel": 9,
                    "noteNumber": 54,
                    "velocity": 0,
                    "lightChannels": [
                        6,
                        7
                    ]
                }
            },
            "outline": {
                "pinValue": 0,
                "ticks": 34,
                "event": {
                    "deltaTime": 34,
                    "type": "channel",
                    "subtype": "noteOff",
                    "channel": 9,
                    "noteNumber": 54,
                    "velocity": 0,
                    "lightChannels": [
                        6,
                        7
                    ]
                }
            }
        }
    },
    {
        "changes": {
            "garage": 0
        },
        "timeout": 0.14194899166666664,
        "raw": {
            "garage": {
                "pinValue": 0,
                "ticks": 52,
                "event": {
                    "deltaTime": 52,
                    "type": "channel",
                    "subtype": "noteOff",
                    "channel": 8,
                    "noteNumber": 58,
                    "velocity": 0,
                    "lightChannels": [
                        0
                    ]
                }
            }
        }
    },
    {
        "changes": {
            "col-3": 0
        },
        "timeout": 0.008474566666666666,
        "raw": {
            "col-3": {
                "pinValue": 0,
                "ticks": 8,
                "event": {
                    "deltaTime": 8,
                    "type": "channel",
                    "subtype": "noteOff",
                    "channel": 6,
                    "noteNumber": 55,
                    "velocity": 0,
                    "lightChannels": [
                        5
                    ]
                }
            }
        }
    },
    {
        "changes": {
            "window": 1,
            "outline": 1
        },
        "timeout": 0.045550795833333324,
        "raw": {
            "window": {
                "pinValue": 1,
                "ticks": 7,
                "event": {
                    "deltaTime": 7,
                    "type": "channel",
                    "subtype": "noteOn",
                    "channel": 9,
                    "noteNumber": 54,
                    "velocity": 85,
                    "lightChannels": [
                        6,
                        7
                    ]
                }
            },
            "outline": {
                "pinValue": 1,
                "ticks": 7,
                "event": {
                    "deltaTime": 7,
                    "type": "channel",
                    "subtype": "noteOn",
                    "channel": 9,
                    "noteNumber": 54,
                    "velocity": 85,
                    "lightChannels": [
                        6,
                        7
                    ]
                }
            }
        }
    },
    {
        "changes": {
            "top-right": 1
        },
        "timeout": 0.0010593208333333332,
        "raw": {
            "top-right": {
                "pinValue": 1,
                "ticks": 1,
                "event": {
                    "deltaTime": 1,
                    "type": "channel",
                    "subtype": "noteOn",
                    "channel": 8,
                    "noteNumber": 57,
                    "velocity": 118,
                    "lightChannels": [
                        1
                    ]
                }
            }
        }
    },
    {
        "changes": {
            "garden": 1
        },
        "timeout": 0.006355924999999999,
        "raw": {
            "garden": {
                "pinValue": 1,
                "ticks": 3,
                "event": {
                    "deltaTime": 3,
                    "type": "channel",
                    "subtype": "noteOn",
                    "channel": 6,
                    "noteNumber": 57,
                    "velocity": 89,
                    "lightChannels": [
                        8
                    ]
                }
            }
        }
    },
    {
        "changes": {
            "window": 0,
            "outline": 0
        },
        "timeout": 0.05402536249999999,
        "raw": {
            "window": {
                "pinValue": 0,
                "ticks": 44,
                "event": {
                    "deltaTime": 44,
                    "type": "channel",
                    "subtype": "noteOff",
                    "channel": 9,
                    "noteNumber": 54,
                    "velocity": 0,
                    "lightChannels": [
                        6,
                        7
                    ]
                }
            },
            "outline": {
                "pinValue": 0,
                "ticks": 44,
                "event": {
                    "deltaTime": 44,
                    "type": "channel",
                    "subtype": "noteOff",
                    "channel": 9,
                    "noteNumber": 54,
                    "velocity": 0,
                    "lightChannels": [
                        6,
                        7
                    ]
                }
            }
        }
    },
    {
        "changes": {
            "window": 1,
            "outline": 1
        },
        "timeout": 0.19491503333333332,
        "raw": {
            "window": {
                "pinValue": 1,
                "ticks": 7,
                "event": {
                    "deltaTime": 7,
                    "type": "channel",
                    "subtype": "noteOn",
                    "channel": 9,
                    "noteNumber": 54,
                    "velocity": 83,
                    "lightChannels": [
                        6,
                        7
                    ]
                }
            },
            "outline": {
                "pinValue": 1,
                "ticks": 7,
                "event": {
                    "deltaTime": 7,
                    "type": "channel",
                    "subtype": "noteOn",
                    "channel": 9,
                    "noteNumber": 54,
                    "velocity": 83,
                    "lightChannels": [
                        6,
                        7
                    ]
                }
            }
        }
    },
    {
        "changes": {
            "window": 0,
            "outline": 0
        },
        "timeout": 0.06038128749999999,
        "raw": {
            "window": {
                "pinValue": 0,
                "ticks": 44,
                "event": {
                    "deltaTime": 44,
                    "type": "channel",
                    "subtype": "noteOff",
                    "channel": 9,
                    "noteNumber": 54,
                    "velocity": 0,
                    "lightChannels": [
                        6,
                        7
                    ]
                }
            },
            "outline": {
                "pinValue": 0,
                "ticks": 44,
                "event": {
                    "deltaTime": 44,
                    "type": "channel",
                    "subtype": "noteOff",
                    "channel": 9,
                    "noteNumber": 54,
                    "velocity": 0,
                    "lightChannels": [
                        6,
                        7
                    ]
                }
            }
        }
    },
    {
        "changes": {
            "top-right": 0
        },
        "timeout": 0.04555079583333333,
        "raw": {
            "top-right": {
                "pinValue": 0,
                "ticks": 1,
                "event": {
                    "deltaTime": 1,
                    "type": "channel",
                    "subtype": "noteOff",
                    "channel": 8,
                    "noteNumber": 57,
                    "velocity": 0,
                    "lightChannels": [
                        1
                    ]
                }
            }
        }
    },
    {
        "changes": {
            "garden": 0
        },
        "timeout": 0.09957615833333332,
        "raw": {
            "garden": {
                "pinValue": 0,
                "ticks": 70,
                "event": {
                    "deltaTime": 70,
                    "type": "channel",
                    "subtype": "noteOff",
                    "channel": 6,
                    "noteNumber": 57,
                    "velocity": 0,
                    "lightChannels": [
                        8
                    ]
                }
            }
        }
    },
    {
        "changes": {
            "bottom-right": 1
        },
        "timeout": 0.04661011666666666,
        "raw": {
            "bottom-right": {
                "pinValue": 1,
                "ticks": 4,
                "event": {
                    "deltaTime": 4,
                    "type": "channel",
                    "subtype": "noteOn",
                    "channel": 8,
                    "noteNumber": 57,
                    "velocity": 127,
                    "lightChannels": [
                        2
                    ]
                }
            }
        }
    },
    {
        "changes": {
            "col-1": 1
        },
        "timeout": 0.004237283333333333,
        "raw": {
            "col-1": {
                "pinValue": 1,
                "ticks": 4,
                "event": {
                    "deltaTime": 4,
                    "type": "channel",
                    "subtype": "noteOn",
                    "channel": 6,
                    "noteNumber": 60,
                    "velocity": 89,
                    "lightChannels": [
                        3
                    ]
                }
            }
        }
    },
    {
        "changes": {
            "window": 1,
            "outline": 1
        },
        "timeout": 0.004237283333333333,
        "raw": {
            "window": {
                "pinValue": 1,
                "ticks": 4,
                "event": {
                    "deltaTime": 4,
                    "type": "channel",
                    "subtype": "noteOn",
                    "channel": 9,
                    "noteNumber": 54,
                    "velocity": 87,
                    "lightChannels": [
                        6,
                        7
                    ]
                }
            },
            "outline": {
                "pinValue": 1,
                "ticks": 4,
                "event": {
                    "deltaTime": 4,
                    "type": "channel",
                    "subtype": "noteOn",
                    "channel": 9,
                    "noteNumber": 54,
                    "velocity": 87,
                    "lightChannels": [
                        6,
                        7
                    ]
                }
            }
        }
    },
    {
        "changes": {
            "window": 0,
            "outline": 0
        },
        "timeout": 0.06461857083333333,
        "raw": {
            "window": {
                "pinValue": 0,
                "ticks": 55,
                "event": {
                    "deltaTime": 55,
                    "type": "channel",
                    "subtype": "noteOff",
                    "channel": 9,
                    "noteNumber": 54,
                    "velocity": 0,
                    "lightChannels": [
                        6,
                        7
                    ]
                }
            },
            "outline": {
                "pinValue": 0,
                "ticks": 55,
                "event": {
                    "deltaTime": 55,
                    "type": "channel",
                    "subtype": "noteOff",
                    "channel": 9,
                    "noteNumber": 54,
                    "velocity": 0,
                    "lightChannels": [
                        6,
                        7
                    ]
                }
            }
        }
    },
    {
        "changes": {
            "window": 1,
            "outline": 1
        },
        "timeout": 0.1980929958333333,
        "raw": {
            "window": {
                "pinValue": 1,
                "ticks": 7,
                "event": {
                    "deltaTime": 7,
                    "type": "channel",
                    "subtype": "noteOn",
                    "channel": 9,
                    "noteNumber": 54,
                    "velocity": 83,
                    "lightChannels": [
                        6,
                        7
                    ]
                }
            },
            "outline": {
                "pinValue": 1,
                "ticks": 7,
                "event": {
                    "deltaTime": 7,
                    "type": "channel",
                    "subtype": "noteOn",
                    "channel": 9,
                    "noteNumber": 54,
                    "velocity": 83,
                    "lightChannels": [
                        6,
                        7
                    ]
                }
            }
        }
    },
    {
        "changes": {
            "window": 0,
            "outline": 0
        },
        "timeout": 0.06461857083333333,
        "raw": {
            "window": {
                "pinValue": 0,
                "ticks": 1,
                "event": {
                    "deltaTime": 1,
                    "type": "channel",
                    "subtype": "noteOff",
                    "channel": 9,
                    "noteNumber": 54,
                    "velocity": 0,
                    "lightChannels": [
                        6,
                        7
                    ]
                }
            },
            "outline": {
                "pinValue": 0,
                "ticks": 1,
                "event": {
                    "deltaTime": 1,
                    "type": "channel",
                    "subtype": "noteOff",
                    "channel": 9,
                    "noteNumber": 54,
                    "velocity": 0,
                    "lightChannels": [
                        6,
                        7
                    ]
                }
            }
        }
    },
    {
        "changes": {
            "col-1": 0
        },
        "timeout": 0.11758461249999999,
        "raw": {
            "col-1": {
                "pinValue": 0,
                "ticks": 98,
                "event": {
                    "deltaTime": 98,
                    "type": "channel",
                    "subtype": "noteOff",
                    "channel": 6,
                    "noteNumber": 60,
                    "velocity": 0,
                    "lightChannels": [
                        3
                    ]
                }
            }
        }
    },
    {
        "changes": {
            "bottom-right": 0
        },
        "timeout": 0.004237283333333333,
        "raw": {
            "bottom-right": {
                "pinValue": 0,
                "ticks": 4,
                "event": {
                    "deltaTime": 4,
                    "type": "channel",
                    "subtype": "noteOff",
                    "channel": 8,
                    "noteNumber": 57,
                    "velocity": 0,
                    "lightChannels": [
                        2
                    ]
                }
            }
        }
    },
    {
        "changes": {
            "col-2": 1
        },
        "timeout": 0.04025419166666666,
        "raw": {
            "col-2": {
                "pinValue": 1,
                "ticks": 38,
                "event": {
                    "deltaTime": 38,
                    "type": "channel",
                    "subtype": "noteOn",
                    "channel": 6,
                    "noteNumber": 58,
                    "velocity": 83,
                    "lightChannels": [
                        4
                    ]
                }
            }
        }
    },
    {
        "changes": {
            "window": 1,
            "outline": 1
        },
        "timeout": 0.021186416666666666,
        "raw": {
            "window": {
                "pinValue": 1,
                "ticks": 3,
                "event": {
                    "deltaTime": 3,
                    "type": "channel",
                    "subtype": "noteOn",
                    "channel": 9,
                    "noteNumber": 54,
                    "velocity": 83,
                    "lightChannels": [
                        6,
                        7
                    ]
                }
            },
            "outline": {
                "pinValue": 1,
                "ticks": 3,
                "event": {
                    "deltaTime": 3,
                    "type": "channel",
                    "subtype": "noteOn",
                    "channel": 9,
                    "noteNumber": 54,
                    "velocity": 83,
                    "lightChannels": [
                        6,
                        7
                    ]
                }
            }
        }
    },
    {
        "changes": {
            "garage": 1
        },
        "timeout": 0.0010593208333333332,
        "raw": {
            "garage": {
                "pinValue": 1,
                "ticks": 0,
                "event": {
                    "deltaTime": 0,
                    "type": "channel",
                    "subtype": "noteOn",
                    "channel": 8,
                    "noteNumber": 55,
                    "velocity": 122,
                    "lightChannels": [
                        0
                    ]
                }
            }
        }
    },
    {
        "changes": {
            "window": 0,
            "outline": 0
        },
        "timeout": 0.06249992916666666,
        "raw": {
            "window": {
                "pinValue": 0,
                "ticks": 59,
                "event": {
                    "deltaTime": 59,
                    "type": "channel",
                    "subtype": "noteOff",
                    "channel": 9,
                    "noteNumber": 54,
                    "velocity": 0,
                    "lightChannels": [
                        6,
                        7
                    ]
                }
            },
            "outline": {
                "pinValue": 0,
                "ticks": 59,
                "event": {
                    "deltaTime": 59,
                    "type": "channel",
                    "subtype": "noteOff",
                    "channel": 9,
                    "noteNumber": 54,
                    "velocity": 0,
                    "lightChannels": [
                        6,
                        7
                    ]
                }
            }
        }
    },
    {
        "changes": {
            "window": 1,
            "outline": 1
        },
        "timeout": 0.18961842916666666,
        "raw": {
            "window": {
                "pinValue": 1,
                "ticks": 5,
                "event": {
                    "deltaTime": 5,
                    "type": "channel",
                    "subtype": "noteOn",
                    "channel": 9,
                    "noteNumber": 54,
                    "velocity": 83,
                    "lightChannels": [
                        6,
                        7
                    ]
                }
            },
            "outline": {
                "pinValue": 1,
                "ticks": 5,
                "event": {
                    "deltaTime": 5,
                    "type": "channel",
                    "subtype": "noteOn",
                    "channel": 9,
                    "noteNumber": 54,
                    "velocity": 83,
                    "lightChannels": [
                        6,
                        7
                    ]
                }
            }
        }
    },
    {
        "changes": {
            "window": 0,
            "outline": 0
        },
        "timeout": 0.06355925,
        "raw": {
            "window": {
                "pinValue": 0,
                "ticks": 60,
                "event": {
                    "deltaTime": 60,
                    "type": "channel",
                    "subtype": "noteOff",
                    "channel": 9,
                    "noteNumber": 54,
                    "velocity": 0,
                    "lightChannels": [
                        6,
                        7
                    ]
                }
            },
            "outline": {
                "pinValue": 0,
                "ticks": 60,
                "event": {
                    "deltaTime": 60,
                    "type": "channel",
                    "subtype": "noteOff",
                    "channel": 9,
                    "noteNumber": 54,
                    "velocity": 0,
                    "lightChannels": [
                        6,
                        7
                    ]
                }
            }
        }
    },
    {
        "changes": {
            "col-2": 0
        },
        "timeout": 0.1218218958333333,
        "raw": {
            "col-2": {
                "pinValue": 0,
                "ticks": 41,
                "event": {
                    "deltaTime": 41,
                    "type": "channel",
                    "subtype": "noteOff",
                    "channel": 6,
                    "noteNumber": 58,
                    "velocity": 0,
                    "lightChannels": [
                        4
                    ]
                }
            }
        }
    },
    {
        "changes": {
            "garage": 0
        },
        "timeout": 0.010593208333333333,
        "raw": {
            "garage": {
                "pinValue": 0,
                "ticks": 10,
                "event": {
                    "deltaTime": 10,
                    "type": "channel",
                    "subtype": "noteOff",
                    "channel": 8,
                    "noteNumber": 55,
                    "velocity": 0,
                    "lightChannels": [
                        0
                    ]
                }
            }
        }
    },
    {
        "changes": {
            "col-3": 1
        },
        "timeout": 0.046610116666666666,
        "raw": {
            "col-3": {
                "pinValue": 1,
                "ticks": 4,
                "event": {
                    "deltaTime": 4,
                    "type": "channel",
                    "subtype": "noteOn",
                    "channel": 6,
                    "noteNumber": 55,
                    "velocity": 86,
                    "lightChannels": [
                        5
                    ]
                }
            }
        }
    },
    {
        "changes": {
            "window": 1,
            "outline": 1
        },
        "timeout": 0.014830491666666666,
        "raw": {
            "window": {
                "pinValue": 1,
                "ticks": 0,
                "event": {
                    "deltaTime": 0,
                    "type": "channel",
                    "subtype": "noteOn",
                    "channel": 9,
                    "noteNumber": 54,
                    "velocity": 84,
                    "lightChannels": [
                        6,
                        7
                    ]
                }
            },
            "outline": {
                "pinValue": 1,
                "ticks": 0,
                "event": {
                    "deltaTime": 0,
                    "type": "channel",
                    "subtype": "noteOn",
                    "channel": 9,
                    "noteNumber": 54,
                    "velocity": 84,
                    "lightChannels": [
                        6,
                        7
                    ]
                }
            }
        }
    },
    {
        "changes": {
            "garage": 1
        },
        "timeout": 0.0031779624999999996,
        "raw": {
            "garage": {
                "pinValue": 1,
                "ticks": 0,
                "event": {
                    "deltaTime": 0,
                    "type": "channel",
                    "subtype": "noteOn",
                    "channel": 8,
                    "noteNumber": 58,
                    "velocity": 118,
                    "lightChannels": [
                        0
                    ]
                }
            }
        }
    },
    {
        "changes": {
            "window": 0,
            "outline": 0
        },
        "timeout": 0.05720332499999999,
        "raw": {
            "window": {
                "pinValue": 0,
                "ticks": 54,
                "event": {
                    "deltaTime": 54,
                    "type": "channel",
                    "subtype": "noteOff",
                    "channel": 9,
                    "noteNumber": 54,
                    "velocity": 0,
                    "lightChannels": [
                        6,
                        7
                    ]
                }
            },
            "outline": {
                "pinValue": 0,
                "ticks": 54,
                "event": {
                    "deltaTime": 54,
                    "type": "channel",
                    "subtype": "noteOff",
                    "channel": 9,
                    "noteNumber": 54,
                    "velocity": 0,
                    "lightChannels": [
                        6,
                        7
                    ]
                }
            }
        }
    },
    {
        "changes": {
            "window": 1,
            "outline": 1
        },
        "timeout": 0.18961842916666663,
        "raw": {
            "window": {
                "pinValue": 1,
                "ticks": 69,
                "event": {
                    "deltaTime": 69,
                    "type": "channel",
                    "subtype": "noteOn",
                    "channel": 9,
                    "noteNumber": 54,
                    "velocity": 85,
                    "lightChannels": [
                        6,
                        7
                    ]
                }
            },
            "outline": {
                "pinValue": 1,
                "ticks": 69,
                "event": {
                    "deltaTime": 69,
                    "type": "channel",
                    "subtype": "noteOn",
                    "channel": 9,
                    "noteNumber": 54,
                    "velocity": 85,
                    "lightChannels": [
                        6,
                        7
                    ]
                }
            }
        }
    },
    {
        "changes": {
            "window": 0,
            "outline": 0
        },
        "timeout": 0.06461857083333332,
        "raw": {
            "window": {
                "pinValue": 0,
                "ticks": 53,
                "event": {
                    "deltaTime": 53,
                    "type": "channel",
                    "subtype": "noteOff",
                    "channel": 9,
                    "noteNumber": 54,
                    "velocity": 0,
                    "lightChannels": [
                        6,
                        7
                    ]
                }
            },
            "outline": {
                "pinValue": 0,
                "ticks": 53,
                "event": {
                    "deltaTime": 53,
                    "type": "channel",
                    "subtype": "noteOff",
                    "channel": 9,
                    "noteNumber": 54,
                    "velocity": 0,
                    "lightChannels": [
                        6,
                        7
                    ]
                }
            }
        }
    },
    {
        "changes": {
            "col-3": 0
        },
        "timeout": 0.12817782083333334,
        "raw": {
            "col-3": {
                "pinValue": 0,
                "ticks": 50,
                "event": {
                    "deltaTime": 50,
                    "type": "channel",
                    "subtype": "noteOff",
                    "channel": 6,
                    "noteNumber": 55,
                    "velocity": 0,
                    "lightChannels": [
                        5
                    ]
                }
            }
        }
    },
    {
        "changes": {
            "garage": 0
        },
        "timeout": 0.010593208333333333,
        "raw": {
            "garage": {
                "pinValue": 0,
                "ticks": 10,
                "event": {
                    "deltaTime": 10,
                    "type": "channel",
                    "subtype": "noteOff",
                    "channel": 8,
                    "noteNumber": 58,
                    "velocity": 0,
                    "lightChannels": [
                        0
                    ]
                }
            }
        }
    },
    {
        "changes": {
            "garden": 1
        },
        "timeout": 0.04237283333333333,
        "raw": {
            "garden": {
                "pinValue": 1,
                "ticks": 0,
                "event": {
                    "deltaTime": 0,
                    "type": "channel",
                    "subtype": "noteOn",
                    "channel": 6,
                    "noteNumber": 57,
                    "velocity": 90,
                    "lightChannels": [
                        8
                    ]
                }
            }
        }
    },
    {
        "changes": {
            "top-right": 1,
            "window": 1,
            "outline": 1
        },
        "timeout": 0.0095338875,
        "raw": {
            "top-right": {
                "pinValue": 1,
                "ticks": 8,
                "event": {
                    "deltaTime": 8,
                    "type": "channel",
                    "subtype": "noteOn",
                    "channel": 8,
                    "noteNumber": 57,
                    "velocity": 116,
                    "lightChannels": [
                        1
                    ]
                }
            },
            "window": {
                "pinValue": 1,
                "ticks": 0,
                "event": {
                    "deltaTime": 0,
                    "type": "channel",
                    "subtype": "noteOn",
                    "channel": 9,
                    "noteNumber": 54,
                    "velocity": 84,
                    "lightChannels": [
                        6,
                        7
                    ]
                }
            },
            "outline": {
                "pinValue": 1,
                "ticks": 0,
                "event": {
                    "deltaTime": 0,
                    "type": "channel",
                    "subtype": "noteOn",
                    "channel": 9,
                    "noteNumber": 54,
                    "velocity": 84,
                    "lightChannels": [
                        6,
                        7
                    ]
                }
            }
        }
    },
    {
        "changes": {
            "window": 0,
            "outline": 0
        },
        "timeout": 0.06038128749999999,
        "raw": {
            "window": {
                "pinValue": 0,
                "ticks": 41,
                "event": {
                    "deltaTime": 41,
                    "type": "channel",
                    "subtype": "noteOff",
                    "channel": 9,
                    "noteNumber": 54,
                    "velocity": 0,
                    "lightChannels": [
                        6,
                        7
                    ]
                }
            },
            "outline": {
                "pinValue": 0,
                "ticks": 41,
                "event": {
                    "deltaTime": 41,
                    "type": "channel",
                    "subtype": "noteOff",
                    "channel": 9,
                    "noteNumber": 54,
                    "velocity": 0,
                    "lightChannels": [
                        6,
                        7
                    ]
                }
            }
        }
    },
    {
        "changes": {
            "window": 1,
            "outline": 1
        },
        "timeout": 0.19279639166666665,
        "raw": {
            "window": {
                "pinValue": 1,
                "ticks": 6,
                "event": {
                    "deltaTime": 6,
                    "type": "channel",
                    "subtype": "noteOn",
                    "channel": 9,
                    "noteNumber": 54,
                    "velocity": 81,
                    "lightChannels": [
                        6,
                        7
                    ]
                }
            },
            "outline": {
                "pinValue": 1,
                "ticks": 6,
                "event": {
                    "deltaTime": 6,
                    "type": "channel",
                    "subtype": "noteOn",
                    "channel": 9,
                    "noteNumber": 54,
                    "velocity": 81,
                    "lightChannels": [
                        6,
                        7
                    ]
                }
            }
        }
    },
    {
        "changes": {
            "window": 0,
            "outline": 0
        },
        "timeout": 0.059321966666666656,
        "raw": {
            "window": {
                "pinValue": 0,
                "ticks": 44,
                "event": {
                    "deltaTime": 44,
                    "type": "channel",
                    "subtype": "noteOff",
                    "channel": 9,
                    "noteNumber": 54,
                    "velocity": 0,
                    "lightChannels": [
                        6,
                        7
                    ]
                }
            },
            "outline": {
                "pinValue": 0,
                "ticks": 44,
                "event": {
                    "deltaTime": 44,
                    "type": "channel",
                    "subtype": "noteOff",
                    "channel": 9,
                    "noteNumber": 54,
                    "velocity": 0,
                    "lightChannels": [
                        6,
                        7
                    ]
                }
            }
        }
    },
    {
        "changes": {
            "top-right": 0
        },
        "timeout": 0.09004227083333333,
        "raw": {
            "top-right": {
                "pinValue": 0,
                "ticks": 24,
                "event": {
                    "deltaTime": 24,
                    "type": "channel",
                    "subtype": "noteOff",
                    "channel": 8,
                    "noteNumber": 57,
                    "velocity": 0,
                    "lightChannels": [
                        1
                    ]
                }
            }
        }
    },
    {
        "changes": {
            "garden": 0
        },
        "timeout": 0.03389826666666666,
        "raw": {
            "garden": {
                "pinValue": 0,
                "ticks": 32,
                "event": {
                    "deltaTime": 32,
                    "type": "channel",
                    "subtype": "noteOff",
                    "channel": 6,
                    "noteNumber": 57,
                    "velocity": 0,
                    "lightChannels": [
                        8
                    ]
                }
            }
        }
    },
    {
        "changes": {
            "col-1": 1,
            "col-2": 1,
            "col-3": 1,
            "garden": 1,
            "tree": 1
        },
        "timeout": 0.05720332499999999,
        "raw": {
            "col-1": {
                "pinValue": 1,
                "ticks": 54,
                "event": {
                    "deltaTime": 54,
                    "type": "channel",
                    "subtype": "noteOn",
                    "channel": 6,
                    "noteNumber": 58,
                    "velocity": 87,
                    "lightChannels": [
                        3,
                        4,
                        5,
                        8,
                        9
                    ]
                }
            },
            "col-2": {
                "pinValue": 1,
                "ticks": 54,
                "event": {
                    "deltaTime": 54,
                    "type": "channel",
                    "subtype": "noteOn",
                    "channel": 6,
                    "noteNumber": 58,
                    "velocity": 87,
                    "lightChannels": [
                        3,
                        4,
                        5,
                        8,
                        9
                    ]
                }
            },
            "col-3": {
                "pinValue": 1,
                "ticks": 54,
                "event": {
                    "deltaTime": 54,
                    "type": "channel",
                    "subtype": "noteOn",
                    "channel": 6,
                    "noteNumber": 58,
                    "velocity": 87,
                    "lightChannels": [
                        3,
                        4,
                        5,
                        8,
                        9
                    ]
                }
            },
            "garden": {
                "pinValue": 1,
                "ticks": 54,
                "event": {
                    "deltaTime": 54,
                    "type": "channel",
                    "subtype": "noteOn",
                    "channel": 6,
                    "noteNumber": 58,
                    "velocity": 87,
                    "lightChannels": [
                        3,
                        4,
                        5,
                        8,
                        9
                    ]
                }
            },
            "tree": {
                "pinValue": 1,
                "ticks": 54,
                "event": {
                    "deltaTime": 54,
                    "type": "channel",
                    "subtype": "noteOn",
                    "channel": 6,
                    "noteNumber": 58,
                    "velocity": 87,
                    "lightChannels": [
                        3,
                        4,
                        5,
                        8,
                        9
                    ]
                }
            }
        }
    },
    {
        "changes": {
            "window": 1,
            "outline": 1
        },
        "timeout": 0.02012709583333333,
        "raw": {
            "window": {
                "pinValue": 1,
                "ticks": 0,
                "event": {
                    "deltaTime": 0,
                    "type": "channel",
                    "subtype": "noteOn",
                    "channel": 9,
                    "noteNumber": 54,
                    "velocity": 87,
                    "lightChannels": [
                        6,
                        7
                    ]
                }
            },
            "outline": {
                "pinValue": 1,
                "ticks": 0,
                "event": {
                    "deltaTime": 0,
                    "type": "channel",
                    "subtype": "noteOn",
                    "channel": 9,
                    "noteNumber": 54,
                    "velocity": 87,
                    "lightChannels": [
                        6,
                        7
                    ]
                }
            }
        }
    },
    {
        "changes": {
            "window": 0,
            "outline": 0
        },
        "timeout": 0.06567789166666665,
        "raw": {
            "window": {
                "pinValue": 0,
                "ticks": 52,
                "event": {
                    "deltaTime": 52,
                    "type": "channel",
                    "subtype": "noteOff",
                    "channel": 9,
                    "noteNumber": 54,
                    "velocity": 0,
                    "lightChannels": [
                        6,
                        7
                    ]
                }
            },
            "outline": {
                "pinValue": 0,
                "ticks": 52,
                "event": {
                    "deltaTime": 52,
                    "type": "channel",
                    "subtype": "noteOff",
                    "channel": 9,
                    "noteNumber": 54,
                    "velocity": 0,
                    "lightChannels": [
                        6,
                        7
                    ]
                }
            }
        }
    },
    {
        "changes": {
            "window": 1,
            "outline": 1
        },
        "timeout": 0.19809299583333329,
        "raw": {
            "window": {
                "pinValue": 1,
                "ticks": 39,
                "event": {
                    "deltaTime": 39,
                    "type": "channel",
                    "subtype": "noteOn",
                    "channel": 9,
                    "noteNumber": 54,
                    "velocity": 83,
                    "lightChannels": [
                        6,
                        7
                    ]
                }
            },
            "outline": {
                "pinValue": 1,
                "ticks": 39,
                "event": {
                    "deltaTime": 39,
                    "type": "channel",
                    "subtype": "noteOn",
                    "channel": 9,
                    "noteNumber": 54,
                    "velocity": 83,
                    "lightChannels": [
                        6,
                        7
                    ]
                }
            }
        }
    },
    {
        "changes": {
            "window": 0,
            "outline": 0
        },
        "timeout": 0.06355925,
        "raw": {
            "window": {
                "pinValue": 0,
                "ticks": 27,
                "event": {
                    "deltaTime": 27,
                    "type": "channel",
                    "subtype": "noteOff",
                    "channel": 9,
                    "noteNumber": 54,
                    "velocity": 0,
                    "lightChannels": [
                        6,
                        7
                    ]
                }
            },
            "outline": {
                "pinValue": 0,
                "ticks": 27,
                "event": {
                    "deltaTime": 27,
                    "type": "channel",
                    "subtype": "noteOff",
                    "channel": 9,
                    "noteNumber": 54,
                    "velocity": 0,
                    "lightChannels": [
                        6,
                        7
                    ]
                }
            }
        }
    },
    {
        "changes": {
            "garage": 1
        },
        "timeout": 0.17796589999999998,
        "raw": {
            "garage": {
                "pinValue": 1,
                "ticks": 23,
                "event": {
                    "deltaTime": 23,
                    "type": "channel",
                    "subtype": "noteOn",
                    "channel": 8,
                    "noteNumber": 55,
                    "velocity": 126,
                    "lightChannels": [
                        0
                    ]
                }
            }
        }
    },
    {
        "changes": {
            "window": 1,
            "outline": 1
        },
        "timeout": 0.015889812499999996,
        "raw": {
            "window": {
                "pinValue": 1,
                "ticks": 0,
                "event": {
                    "deltaTime": 0,
                    "type": "channel",
                    "subtype": "noteOn",
                    "channel": 9,
                    "noteNumber": 54,
                    "velocity": 87,
                    "lightChannels": [
                        6,
                        7
                    ]
                }
            },
            "outline": {
                "pinValue": 1,
                "ticks": 0,
                "event": {
                    "deltaTime": 0,
                    "type": "channel",
                    "subtype": "noteOn",
                    "channel": 9,
                    "noteNumber": 54,
                    "velocity": 87,
                    "lightChannels": [
                        6,
                        7
                    ]
                }
            }
        }
    },
    {
        "changes": {
            "window": 0,
            "outline": 0
        },
        "timeout": 0.06144060833333333,
        "raw": {
            "window": {
                "pinValue": 0,
                "ticks": 58,
                "event": {
                    "deltaTime": 58,
                    "type": "channel",
                    "subtype": "noteOff",
                    "channel": 9,
                    "noteNumber": 54,
                    "velocity": 0,
                    "lightChannels": [
                        6,
                        7
                    ]
                }
            },
            "outline": {
                "pinValue": 0,
                "ticks": 58,
                "event": {
                    "deltaTime": 58,
                    "type": "channel",
                    "subtype": "noteOff",
                    "channel": 9,
                    "noteNumber": 54,
                    "velocity": 0,
                    "lightChannels": [
                        6,
                        7
                    ]
                }
            }
        }
    },
    {
        "changes": {
            "garage": 0
        },
        "timeout": 0.14512695416666666,
        "raw": {
            "garage": {
                "pinValue": 0,
                "ticks": 16,
                "event": {
                    "deltaTime": 16,
                    "type": "channel",
                    "subtype": "noteOff",
                    "channel": 8,
                    "noteNumber": 55,
                    "velocity": 0,
                    "lightChannels": [
                        0
                    ]
                }
            }
        }
    },
    {
        "changes": {
            "window": 1,
            "outline": 1
        },
        "timeout": 0.039194870833333326,
        "raw": {
            "window": {
                "pinValue": 1,
                "ticks": 11,
                "event": {
                    "deltaTime": 11,
                    "type": "channel",
                    "subtype": "noteOn",
                    "channel": 9,
                    "noteNumber": 54,
                    "velocity": 83,
                    "lightChannels": [
                        6,
                        7
                    ]
                }
            },
            "outline": {
                "pinValue": 1,
                "ticks": 11,
                "event": {
                    "deltaTime": 11,
                    "type": "channel",
                    "subtype": "noteOn",
                    "channel": 9,
                    "noteNumber": 54,
                    "velocity": 83,
                    "lightChannels": [
                        6,
                        7
                    ]
                }
            }
        }
    },
    {
        "changes": {
            "window": 0,
            "outline": 0
        },
        "timeout": 0.06038128749999999,
        "raw": {
            "window": {
                "pinValue": 0,
                "ticks": 5,
                "event": {
                    "deltaTime": 5,
                    "type": "channel",
                    "subtype": "noteOff",
                    "channel": 9,
                    "noteNumber": 54,
                    "velocity": 0,
                    "lightChannels": [
                        6,
                        7
                    ]
                }
            },
            "outline": {
                "pinValue": 0,
                "ticks": 5,
                "event": {
                    "deltaTime": 5,
                    "type": "channel",
                    "subtype": "noteOff",
                    "channel": 9,
                    "noteNumber": 54,
                    "velocity": 0,
                    "lightChannels": [
                        6,
                        7
                    ]
                }
            }
        }
    },
    {
        "changes": {
            "col-1": 0,
            "col-2": 0,
            "col-3": 0,
            "garden": 0,
            "tree": 0
        },
        "timeout": 0.0730931375,
        "raw": {
            "col-1": {
                "pinValue": 0,
                "ticks": 60,
                "event": {
                    "deltaTime": 60,
                    "type": "channel",
                    "subtype": "noteOff",
                    "channel": 6,
                    "noteNumber": 58,
                    "velocity": 0,
                    "lightChannels": [
                        3,
                        4,
                        5,
                        8,
                        9
                    ]
                }
            },
            "col-2": {
                "pinValue": 0,
                "ticks": 60,
                "event": {
                    "deltaTime": 60,
                    "type": "channel",
                    "subtype": "noteOff",
                    "channel": 6,
                    "noteNumber": 58,
                    "velocity": 0,
                    "lightChannels": [
                        3,
                        4,
                        5,
                        8,
                        9
                    ]
                }
            },
            "col-3": {
                "pinValue": 0,
                "ticks": 60,
                "event": {
                    "deltaTime": 60,
                    "type": "channel",
                    "subtype": "noteOff",
                    "channel": 6,
                    "noteNumber": 58,
                    "velocity": 0,
                    "lightChannels": [
                        3,
                        4,
                        5,
                        8,
                        9
                    ]
                }
            },
            "garden": {
                "pinValue": 0,
                "ticks": 60,
                "event": {
                    "deltaTime": 60,
                    "type": "channel",
                    "subtype": "noteOff",
                    "channel": 6,
                    "noteNumber": 58,
                    "velocity": 0,
                    "lightChannels": [
                        3,
                        4,
                        5,
                        8,
                        9
                    ]
                }
            },
            "tree": {
                "pinValue": 0,
                "ticks": 60,
                "event": {
                    "deltaTime": 60,
                    "type": "channel",
                    "subtype": "noteOff",
                    "channel": 6,
                    "noteNumber": 58,
                    "velocity": 0,
                    "lightChannels": [
                        3,
                        4,
                        5,
                        8,
                        9
                    ]
                }
            }
        }
    },
    {
        "changes": {
            "col-3": 1
        },
        "timeout": 0.09639819583333331,
        "raw": {
            "col-3": {
                "pinValue": 1,
                "ticks": 22,
                "event": {
                    "deltaTime": 22,
                    "type": "channel",
                    "subtype": "noteOn",
                    "channel": 6,
                    "noteNumber": 56,
                    "velocity": 95,
                    "lightChannels": [
                        5
                    ]
                }
            }
        }
    },
    {
        "changes": {
            "top-right": 1
        },
        "timeout": 0.006355924999999999,
        "raw": {
            "top-right": {
                "pinValue": 1,
                "ticks": 6,
                "event": {
                    "deltaTime": 6,
                    "type": "channel",
                    "subtype": "noteOn",
                    "channel": 8,
                    "noteNumber": 56,
                    "velocity": 120,
                    "lightChannels": [
                        1
                    ]
                }
            }
        }
    },
    {
        "changes": {
            "window": 1,
            "outline": 1
        },
        "timeout": 0.011652529166666667,
        "raw": {
            "window": {
                "pinValue": 1,
                "ticks": 10,
                "event": {
                    "deltaTime": 10,
                    "type": "channel",
                    "subtype": "noteOn",
                    "channel": 9,
                    "noteNumber": 54,
                    "velocity": 84,
                    "lightChannels": [
                        6,
                        7
                    ]
                }
            },
            "outline": {
                "pinValue": 1,
                "ticks": 10,
                "event": {
                    "deltaTime": 10,
                    "type": "channel",
                    "subtype": "noteOn",
                    "channel": 9,
                    "noteNumber": 54,
                    "velocity": 84,
                    "lightChannels": [
                        6,
                        7
                    ]
                }
            }
        }
    },
    {
        "changes": {
            "window": 0,
            "outline": 0
        },
        "timeout": 0.057203325,
        "raw": {
            "window": {
                "pinValue": 0,
                "ticks": 4,
                "event": {
                    "deltaTime": 4,
                    "type": "channel",
                    "subtype": "noteOff",
                    "channel": 9,
                    "noteNumber": 54,
                    "velocity": 0,
                    "lightChannels": [
                        6,
                        7
                    ]
                }
            },
            "outline": {
                "pinValue": 0,
                "ticks": 4,
                "event": {
                    "deltaTime": 4,
                    "type": "channel",
                    "subtype": "noteOff",
                    "channel": 9,
                    "noteNumber": 54,
                    "velocity": 0,
                    "lightChannels": [
                        6,
                        7
                    ]
                }
            }
        }
    },
    {
        "changes": {
            "top-right": 0
        },
        "timeout": 0.1663133708333333,
        "raw": {
            "top-right": {
                "pinValue": 0,
                "ticks": 17,
                "event": {
                    "deltaTime": 17,
                    "type": "channel",
                    "subtype": "noteOff",
                    "channel": 8,
                    "noteNumber": 56,
                    "velocity": 0,
                    "lightChannels": [
                        1
                    ]
                }
            }
        }
    },
    {
        "changes": {
            "window": 1,
            "outline": 1
        },
        "timeout": 0.024364379166666665,
        "raw": {
            "window": {
                "pinValue": 1,
                "ticks": 0,
                "event": {
                    "deltaTime": 0,
                    "type": "channel",
                    "subtype": "noteOn",
                    "channel": 9,
                    "noteNumber": 54,
                    "velocity": 83,
                    "lightChannels": [
                        6,
                        7
                    ]
                }
            },
            "outline": {
                "pinValue": 1,
                "ticks": 0,
                "event": {
                    "deltaTime": 0,
                    "type": "channel",
                    "subtype": "noteOn",
                    "channel": 9,
                    "noteNumber": 54,
                    "velocity": 83,
                    "lightChannels": [
                        6,
                        7
                    ]
                }
            }
        }
    },
    {
        "changes": {
            "window": 0,
            "outline": 0
        },
        "timeout": 0.059321966666666656,
        "raw": {
            "window": {
                "pinValue": 0,
                "ticks": 56,
                "event": {
                    "deltaTime": 56,
                    "type": "channel",
                    "subtype": "noteOff",
                    "channel": 9,
                    "noteNumber": 54,
                    "velocity": 0,
                    "lightChannels": [
                        6,
                        7
                    ]
                }
            },
            "outline": {
                "pinValue": 0,
                "ticks": 56,
                "event": {
                    "deltaTime": 56,
                    "type": "channel",
                    "subtype": "noteOff",
                    "channel": 9,
                    "noteNumber": 54,
                    "velocity": 0,
                    "lightChannels": [
                        6,
                        7
                    ]
                }
            }
        }
    },
    {
        "changes": {
            "col-3": 0
        },
        "timeout": 0.11758461249999999,
        "raw": {
            "col-3": {
                "pinValue": 0,
                "ticks": 60,
                "event": {
                    "deltaTime": 60,
                    "type": "channel",
                    "subtype": "noteOff",
                    "channel": 6,
                    "noteNumber": 56,
                    "velocity": 0,
                    "lightChannels": [
                        5
                    ]
                }
            }
        }
    },
    {
        "changes": {
            "garden": 1
        },
        "timeout": 0.05508468333333332,
        "raw": {
            "garden": {
                "pinValue": 1,
                "ticks": 10,
                "event": {
                    "deltaTime": 10,
                    "type": "channel",
                    "subtype": "noteOn",
                    "channel": 6,
                    "noteNumber": 57,
                    "velocity": 88,
                    "lightChannels": [
                        8
                    ]
                }
            }
        }
    },
    {
        "changes": {
            "window": 1,
            "outline": 1
        },
        "timeout": 0.01694913333333333,
        "raw": {
            "window": {
                "pinValue": 1,
                "ticks": 1,
                "event": {
                    "deltaTime": 1,
                    "type": "channel",
                    "subtype": "noteOn",
                    "channel": 9,
                    "noteNumber": 54,
                    "velocity": 85,
                    "lightChannels": [
                        6,
                        7
                    ]
                }
            },
            "outline": {
                "pinValue": 1,
                "ticks": 1,
                "event": {
                    "deltaTime": 1,
                    "type": "channel",
                    "subtype": "noteOn",
                    "channel": 9,
                    "noteNumber": 54,
                    "velocity": 85,
                    "lightChannels": [
                        6,
                        7
                    ]
                }
            }
        }
    },
    {
        "changes": {
            "bottom-right": 1
        },
        "timeout": 0.004237283333333333,
        "raw": {
            "bottom-right": {
                "pinValue": 1,
                "ticks": 4,
                "event": {
                    "deltaTime": 4,
                    "type": "channel",
                    "subtype": "noteOn",
                    "channel": 8,
                    "noteNumber": 57,
                    "velocity": 126,
                    "lightChannels": [
                        2
                    ]
                }
            }
        }
    },
    {
        "changes": {
            "window": 0,
            "outline": 0
        },
        "timeout": 0.05614400416666666,
        "raw": {
            "window": {
                "pinValue": 0,
                "ticks": 50,
                "event": {
                    "deltaTime": 50,
                    "type": "channel",
                    "subtype": "noteOff",
                    "channel": 9,
                    "noteNumber": 54,
                    "velocity": 0,
                    "lightChannels": [
                        6,
                        7
                    ]
                }
            },
            "outline": {
                "pinValue": 0,
                "ticks": 50,
                "event": {
                    "deltaTime": 50,
                    "type": "channel",
                    "subtype": "noteOff",
                    "channel": 9,
                    "noteNumber": 54,
                    "velocity": 0,
                    "lightChannels": [
                        6,
                        7
                    ]
                }
            }
        }
    },
    {
        "changes": {
            "bottom-right": 0
        },
        "timeout": 0.17796589999999998,
        "raw": {
            "bottom-right": {
                "pinValue": 0,
                "ticks": 2,
                "event": {
                    "deltaTime": 2,
                    "type": "channel",
                    "subtype": "noteOff",
                    "channel": 8,
                    "noteNumber": 57,
                    "velocity": 0,
                    "lightChannels": [
                        2
                    ]
                }
            }
        }
    },
    {
        "changes": {
            "window": 1,
            "outline": 1
        },
        "timeout": 0.014830491666666666,
        "raw": {
            "window": {
                "pinValue": 1,
                "ticks": 1,
                "event": {
                    "deltaTime": 1,
                    "type": "channel",
                    "subtype": "noteOn",
                    "channel": 9,
                    "noteNumber": 54,
                    "velocity": 74,
                    "lightChannels": [
                        6,
                        7
                    ]
                }
            },
            "outline": {
                "pinValue": 1,
                "ticks": 1,
                "event": {
                    "deltaTime": 1,
                    "type": "channel",
                    "subtype": "noteOn",
                    "channel": 9,
                    "noteNumber": 54,
                    "velocity": 74,
                    "lightChannels": [
                        6,
                        7
                    ]
                }
            }
        }
    },
    {
        "changes": {
            "window": 0,
            "outline": 0
        },
        "timeout": 0.05720332499999999,
        "raw": {
            "window": {
                "pinValue": 0,
                "ticks": 41,
                "event": {
                    "deltaTime": 41,
                    "type": "channel",
                    "subtype": "noteOff",
                    "channel": 9,
                    "noteNumber": 54,
                    "velocity": 0,
                    "lightChannels": [
                        6,
                        7
                    ]
                }
            },
            "outline": {
                "pinValue": 0,
                "ticks": 41,
                "event": {
                    "deltaTime": 41,
                    "type": "channel",
                    "subtype": "noteOff",
                    "channel": 9,
                    "noteNumber": 54,
                    "velocity": 0,
                    "lightChannels": [
                        6,
                        7
                    ]
                }
            }
        }
    },
    {
        "changes": {
            "garden": 0
        },
        "timeout": 0.1747879375,
        "raw": {
            "garden": {
                "pinValue": 0,
                "ticks": 0,
                "event": {
                    "deltaTime": 0,
                    "type": "channel",
                    "subtype": "noteOff",
                    "channel": 6,
                    "noteNumber": 57,
                    "velocity": 0,
                    "lightChannels": [
                        8
                    ]
                }
            }
        }
    },
    {
        "changes": {
            "window": 1,
            "outline": 1
        },
        "timeout": 0.014830491666666664,
        "raw": {
            "window": {
                "pinValue": 1,
                "ticks": 14,
                "event": {
                    "deltaTime": 14,
                    "type": "channel",
                    "subtype": "noteOn",
                    "channel": 9,
                    "noteNumber": 54,
                    "velocity": 84,
                    "lightChannels": [
                        6,
                        7
                    ]
                }
            },
            "outline": {
                "pinValue": 1,
                "ticks": 14,
                "event": {
                    "deltaTime": 14,
                    "type": "channel",
                    "subtype": "noteOn",
                    "channel": 9,
                    "noteNumber": 54,
                    "velocity": 84,
                    "lightChannels": [
                        6,
                        7
                    ]
                }
            }
        }
    },
    {
        "changes": {
            "col-1": 1
        },
        "timeout": 0.02012709583333333,
        "raw": {
            "col-1": {
                "pinValue": 1,
                "ticks": 5,
                "event": {
                    "deltaTime": 5,
                    "type": "channel",
                    "subtype": "noteOn",
                    "channel": 6,
                    "noteNumber": 60,
                    "velocity": 89,
                    "lightChannels": [
                        3
                    ]
                }
            }
        }
    },
    {
        "changes": {
            "garage": 1
        },
        "timeout": 0.0052966041666666665,
        "raw": {
            "garage": {
                "pinValue": 1,
                "ticks": 2,
                "event": {
                    "deltaTime": 2,
                    "type": "channel",
                    "subtype": "noteOn",
                    "channel": 8,
                    "noteNumber": 57,
                    "velocity": 127,
                    "lightChannels": [
                        0
                    ]
                }
            }
        }
    },
    {
        "changes": {
            "window": 0,
            "outline": 0
        },
        "timeout": 0.03389826666666666,
        "raw": {
            "window": {
                "pinValue": 0,
                "ticks": 8,
                "event": {
                    "deltaTime": 8,
                    "type": "channel",
                    "subtype": "noteOff",
                    "channel": 9,
                    "noteNumber": 54,
                    "velocity": 0,
                    "lightChannels": [
                        6,
                        7
                    ]
                }
            },
            "outline": {
                "pinValue": 0,
                "ticks": 8,
                "event": {
                    "deltaTime": 8,
                    "type": "channel",
                    "subtype": "noteOff",
                    "channel": 9,
                    "noteNumber": 54,
                    "velocity": 0,
                    "lightChannels": [
                        6,
                        7
                    ]
                }
            }
        }
    },
    {
        "changes": {
            "window": 1,
            "outline": 1
        },
        "timeout": 0.20021163749999996,
        "raw": {
            "window": {
                "pinValue": 1,
                "ticks": 45,
                "event": {
                    "deltaTime": 45,
                    "type": "channel",
                    "subtype": "noteOn",
                    "channel": 9,
                    "noteNumber": 54,
                    "velocity": 71,
                    "lightChannels": [
                        6,
                        7
                    ]
                }
            },
            "outline": {
                "pinValue": 1,
                "ticks": 45,
                "event": {
                    "deltaTime": 45,
                    "type": "channel",
                    "subtype": "noteOn",
                    "channel": 9,
                    "noteNumber": 54,
                    "velocity": 71,
                    "lightChannels": [
                        6,
                        7
                    ]
                }
            }
        }
    },
    {
        "changes": {
            "window": 0,
            "outline": 0
        },
        "timeout": 0.057203325,
        "raw": {
            "window": {
                "pinValue": 0,
                "ticks": 43,
                "event": {
                    "deltaTime": 43,
                    "type": "channel",
                    "subtype": "noteOff",
                    "channel": 9,
                    "noteNumber": 54,
                    "velocity": 0,
                    "lightChannels": [
                        6,
                        7
                    ]
                }
            },
            "outline": {
                "pinValue": 0,
                "ticks": 43,
                "event": {
                    "deltaTime": 43,
                    "type": "channel",
                    "subtype": "noteOff",
                    "channel": 9,
                    "noteNumber": 54,
                    "velocity": 0,
                    "lightChannels": [
                        6,
                        7
                    ]
                }
            }
        }
    },
    {
        "changes": {
            "col-1": 0
        },
        "timeout": 0.1472455958333333,
        "raw": {
            "col-1": {
                "pinValue": 0,
                "ticks": 87,
                "event": {
                    "deltaTime": 87,
                    "type": "channel",
                    "subtype": "noteOff",
                    "channel": 6,
                    "noteNumber": 60,
                    "velocity": 0,
                    "lightChannels": [
                        3
                    ]
                }
            }
        }
    },
    {
        "changes": {
            "garage": 0
        },
        "timeout": 0.014830491666666664,
        "raw": {
            "garage": {
                "pinValue": 0,
                "ticks": 14,
                "event": {
                    "deltaTime": 14,
                    "type": "channel",
                    "subtype": "noteOff",
                    "channel": 8,
                    "noteNumber": 57,
                    "velocity": 0,
                    "lightChannels": [
                        0
                    ]
                }
            }
        }
    },
    {
        "changes": {
            "col-2": 1
        },
        "timeout": 0.030720304166666663,
        "raw": {
            "col-2": {
                "pinValue": 1,
                "ticks": 10,
                "event": {
                    "deltaTime": 10,
                    "type": "channel",
                    "subtype": "noteOn",
                    "channel": 6,
                    "noteNumber": 58,
                    "velocity": 81,
                    "lightChannels": [
                        4
                    ]
                }
            }
        }
    },
    {
        "changes": {
            "window": 1,
            "outline": 1
        },
        "timeout": 0.014830491666666664,
        "raw": {
            "window": {
                "pinValue": 1,
                "ticks": 3,
                "event": {
                    "deltaTime": 3,
                    "type": "channel",
                    "subtype": "noteOn",
                    "channel": 9,
                    "noteNumber": 54,
                    "velocity": 80,
                    "lightChannels": [
                        6,
                        7
                    ]
                }
            },
            "outline": {
                "pinValue": 1,
                "ticks": 3,
                "event": {
                    "deltaTime": 3,
                    "type": "channel",
                    "subtype": "noteOn",
                    "channel": 9,
                    "noteNumber": 54,
                    "velocity": 80,
                    "lightChannels": [
                        6,
                        7
                    ]
                }
            }
        }
    },
    {
        "changes": {
            "top-right": 1
        },
        "timeout": 0.0021186416666666664,
        "raw": {
            "top-right": {
                "pinValue": 1,
                "ticks": 2,
                "event": {
                    "deltaTime": 2,
                    "type": "channel",
                    "subtype": "noteOn",
                    "channel": 8,
                    "noteNumber": 55,
                    "velocity": 122,
                    "lightChannels": [
                        1
                    ]
                }
            }
        }
    },
    {
        "changes": {
            "window": 0,
            "outline": 0
        },
        "timeout": 0.06038128749999999,
        "raw": {
            "window": {
                "pinValue": 0,
                "ticks": 57,
                "event": {
                    "deltaTime": 57,
                    "type": "channel",
                    "subtype": "noteOff",
                    "channel": 9,
                    "noteNumber": 54,
                    "velocity": 0,
                    "lightChannels": [
                        6,
                        7
                    ]
                }
            },
            "outline": {
                "pinValue": 0,
                "ticks": 57,
                "event": {
                    "deltaTime": 57,
                    "type": "channel",
                    "subtype": "noteOff",
                    "channel": 9,
                    "noteNumber": 54,
                    "velocity": 0,
                    "lightChannels": [
                        6,
                        7
                    ]
                }
            }
        }
    },
    {
        "changes": {
            "window": 1,
            "outline": 1
        },
        "timeout": 0.19597435416666664,
        "raw": {
            "window": {
                "pinValue": 1,
                "ticks": 5,
                "event": {
                    "deltaTime": 5,
                    "type": "channel",
                    "subtype": "noteOn",
                    "channel": 9,
                    "noteNumber": 54,
                    "velocity": 72,
                    "lightChannels": [
                        6,
                        7
                    ]
                }
            },
            "outline": {
                "pinValue": 1,
                "ticks": 5,
                "event": {
                    "deltaTime": 5,
                    "type": "channel",
                    "subtype": "noteOn",
                    "channel": 9,
                    "noteNumber": 54,
                    "velocity": 72,
                    "lightChannels": [
                        6,
                        7
                    ]
                }
            }
        }
    },
    {
        "changes": {
            "window": 0,
            "outline": 0
        },
        "timeout": 0.04978807916666666,
        "raw": {
            "window": {
                "pinValue": 0,
                "ticks": 47,
                "event": {
                    "deltaTime": 47,
                    "type": "channel",
                    "subtype": "noteOff",
                    "channel": 9,
                    "noteNumber": 54,
                    "velocity": 0,
                    "lightChannels": [
                        6,
                        7
                    ]
                }
            },
            "outline": {
                "pinValue": 0,
                "ticks": 47,
                "event": {
                    "deltaTime": 47,
                    "type": "channel",
                    "subtype": "noteOff",
                    "channel": 9,
                    "noteNumber": 54,
                    "velocity": 0,
                    "lightChannels": [
                        6,
                        7
                    ]
                }
            }
        }
    },
    {
        "changes": {
            "col-2": 0
        },
        "timeout": 0.12499985833333332,
        "raw": {
            "col-2": {
                "pinValue": 0,
                "ticks": 52,
                "event": {
                    "deltaTime": 52,
                    "type": "channel",
                    "subtype": "noteOff",
                    "channel": 6,
                    "noteNumber": 58,
                    "velocity": 0,
                    "lightChannels": [
                        4
                    ]
                }
            }
        }
    },
    {
        "changes": {
            "top-right": 0
        },
        "timeout": 0.01694913333333333,
        "raw": {
            "top-right": {
                "pinValue": 0,
                "ticks": 16,
                "event": {
                    "deltaTime": 16,
                    "type": "channel",
                    "subtype": "noteOff",
                    "channel": 8,
                    "noteNumber": 55,
                    "velocity": 0,
                    "lightChannels": [
                        1
                    ]
                }
            }
        }
    },
    {
        "changes": {
            "col-3": 1
        },
        "timeout": 0.022245737499999994,
        "raw": {
            "col-3": {
                "pinValue": 1,
                "ticks": 4,
                "event": {
                    "deltaTime": 4,
                    "type": "channel",
                    "subtype": "noteOn",
                    "channel": 6,
                    "noteNumber": 55,
                    "velocity": 87,
                    "lightChannels": [
                        5
                    ]
                }
            }
        }
    },
    {
        "changes": {
            "bottom-right": 1
        },
        "timeout": 0.02330505833333333,
        "raw": {
            "bottom-right": {
                "pinValue": 1,
                "ticks": 22,
                "event": {
                    "deltaTime": 22,
                    "type": "channel",
                    "subtype": "noteOn",
                    "channel": 8,
                    "noteNumber": 58,
                    "velocity": 116,
                    "lightChannels": [
                        2
                    ]
                }
            }
        }
    },
    {
        "changes": {
            "window": 1,
            "outline": 1
        },
        "timeout": 0.013771170833333332,
        "raw": {
            "window": {
                "pinValue": 1,
                "ticks": 5,
                "event": {
                    "deltaTime": 5,
                    "type": "channel",
                    "subtype": "noteOn",
                    "channel": 9,
                    "noteNumber": 54,
                    "velocity": 84,
                    "lightChannels": [
                        6,
                        7
                    ]
                }
            },
            "outline": {
                "pinValue": 1,
                "ticks": 5,
                "event": {
                    "deltaTime": 5,
                    "type": "channel",
                    "subtype": "noteOn",
                    "channel": 9,
                    "noteNumber": 54,
                    "velocity": 84,
                    "lightChannels": [
                        6,
                        7
                    ]
                }
            }
        }
    },
    {
        "changes": {
            "window": 0,
            "outline": 0
        },
        "timeout": 0.06144060833333333,
        "raw": {
            "window": {
                "pinValue": 0,
                "ticks": 57,
                "event": {
                    "deltaTime": 57,
                    "type": "channel",
                    "subtype": "noteOff",
                    "channel": 9,
                    "noteNumber": 54,
                    "velocity": 0,
                    "lightChannels": [
                        6,
                        7
                    ]
                }
            },
            "outline": {
                "pinValue": 0,
                "ticks": 57,
                "event": {
                    "deltaTime": 57,
                    "type": "channel",
                    "subtype": "noteOff",
                    "channel": 9,
                    "noteNumber": 54,
                    "velocity": 0,
                    "lightChannels": [
                        6,
                        7
                    ]
                }
            }
        }
    },
    {
        "changes": {
            "window": 1,
            "outline": 1
        },
        "timeout": 0.20338959999999998,
        "raw": {
            "window": {
                "pinValue": 1,
                "ticks": 19,
                "event": {
                    "deltaTime": 19,
                    "type": "channel",
                    "subtype": "noteOn",
                    "channel": 9,
                    "noteNumber": 54,
                    "velocity": 81,
                    "lightChannels": [
                        6,
                        7
                    ]
                }
            },
            "outline": {
                "pinValue": 1,
                "ticks": 19,
                "event": {
                    "deltaTime": 19,
                    "type": "channel",
                    "subtype": "noteOn",
                    "channel": 9,
                    "noteNumber": 54,
                    "velocity": 81,
                    "lightChannels": [
                        6,
                        7
                    ]
                }
            }
        }
    },
    {
        "changes": {
            "window": 0,
            "outline": 0
        },
        "timeout": 0.06144060833333333,
        "raw": {
            "window": {
                "pinValue": 0,
                "ticks": 58,
                "event": {
                    "deltaTime": 58,
                    "type": "channel",
                    "subtype": "noteOff",
                    "channel": 9,
                    "noteNumber": 54,
                    "velocity": 0,
                    "lightChannels": [
                        6,
                        7
                    ]
                }
            },
            "outline": {
                "pinValue": 0,
                "ticks": 58,
                "event": {
                    "deltaTime": 58,
                    "type": "channel",
                    "subtype": "noteOff",
                    "channel": 9,
                    "noteNumber": 54,
                    "velocity": 0,
                    "lightChannels": [
                        6,
                        7
                    ]
                }
            }
        }
    },
    {
        "changes": {
            "col-3": 0
        },
        "timeout": 0.11016936666666666,
        "raw": {
            "col-3": {
                "pinValue": 0,
                "ticks": 81,
                "event": {
                    "deltaTime": 81,
                    "type": "channel",
                    "subtype": "noteOff",
                    "channel": 6,
                    "noteNumber": 55,
                    "velocity": 0,
                    "lightChannels": [
                        5
                    ]
                }
            }
        }
    },
    {
        "changes": {
            "bottom-right": 0
        },
        "timeout": 0.019067775,
        "raw": {
            "bottom-right": {
                "pinValue": 0,
                "ticks": 18,
                "event": {
                    "deltaTime": 18,
                    "type": "channel",
                    "subtype": "noteOff",
                    "channel": 8,
                    "noteNumber": 58,
                    "velocity": 0,
                    "lightChannels": [
                        2
                    ]
                }
            }
        }
    },
    {
        "changes": {
            "garden": 1
        },
        "timeout": 0.03389826666666666,
        "raw": {
            "garden": {
                "pinValue": 1,
                "ticks": 32,
                "event": {
                    "deltaTime": 32,
                    "type": "channel",
                    "subtype": "noteOn",
                    "channel": 6,
                    "noteNumber": 57,
                    "velocity": 86,
                    "lightChannels": [
                        8
                    ]
                }
            }
        }
    },
    {
        "changes": {
            "garage": 1
        },
        "timeout": 0.027542341666666664,
        "raw": {
            "garage": {
                "pinValue": 1,
                "ticks": 3,
                "event": {
                    "deltaTime": 3,
                    "type": "channel",
                    "subtype": "noteOn",
                    "channel": 8,
                    "noteNumber": 57,
                    "velocity": 123,
                    "lightChannels": [
                        0
                    ]
                }
            }
        }
    },
    {
        "changes": {
            "window": 1,
            "outline": 1
        },
        "timeout": 0.0052966041666666665,
        "raw": {
            "window": {
                "pinValue": 1,
                "ticks": 5,
                "event": {
                    "deltaTime": 5,
                    "type": "channel",
                    "subtype": "noteOn",
                    "channel": 9,
                    "noteNumber": 54,
                    "velocity": 83,
                    "lightChannels": [
                        6,
                        7
                    ]
                }
            },
            "outline": {
                "pinValue": 1,
                "ticks": 5,
                "event": {
                    "deltaTime": 5,
                    "type": "channel",
                    "subtype": "noteOn",
                    "channel": 9,
                    "noteNumber": 54,
                    "velocity": 83,
                    "lightChannels": [
                        6,
                        7
                    ]
                }
            }
        }
    },
    {
        "changes": {
            "window": 0,
            "outline": 0
        },
        "timeout": 0.06355925,
        "raw": {
            "window": {
                "pinValue": 0,
                "ticks": 60,
                "event": {
                    "deltaTime": 60,
                    "type": "channel",
                    "subtype": "noteOff",
                    "channel": 9,
                    "noteNumber": 54,
                    "velocity": 0,
                    "lightChannels": [
                        6,
                        7
                    ]
                }
            },
            "outline": {
                "pinValue": 0,
                "ticks": 60,
                "event": {
                    "deltaTime": 60,
                    "type": "channel",
                    "subtype": "noteOff",
                    "channel": 9,
                    "noteNumber": 54,
                    "velocity": 0,
                    "lightChannels": [
                        6,
                        7
                    ]
                }
            }
        }
    },
    {
        "changes": {
            "window": 1,
            "outline": 1
        },
        "timeout": 0.17690657916666666,
        "raw": {
            "window": {
                "pinValue": 1,
                "ticks": 2,
                "event": {
                    "deltaTime": 2,
                    "type": "channel",
                    "subtype": "noteOn",
                    "channel": 9,
                    "noteNumber": 54,
                    "velocity": 83,
                    "lightChannels": [
                        6,
                        7
                    ]
                }
            },
            "outline": {
                "pinValue": 1,
                "ticks": 2,
                "event": {
                    "deltaTime": 2,
                    "type": "channel",
                    "subtype": "noteOn",
                    "channel": 9,
                    "noteNumber": 54,
                    "velocity": 83,
                    "lightChannels": [
                        6,
                        7
                    ]
                }
            }
        }
    },
    {
        "changes": {
            "window": 0,
            "outline": 0
        },
        "timeout": 0.06355925,
        "raw": {
            "window": {
                "pinValue": 0,
                "ticks": 60,
                "event": {
                    "deltaTime": 60,
                    "type": "channel",
                    "subtype": "noteOff",
                    "channel": 9,
                    "noteNumber": 54,
                    "velocity": 0,
                    "lightChannels": [
                        6,
                        7
                    ]
                }
            },
            "outline": {
                "pinValue": 0,
                "ticks": 60,
                "event": {
                    "deltaTime": 60,
                    "type": "channel",
                    "subtype": "noteOff",
                    "channel": 9,
                    "noteNumber": 54,
                    "velocity": 0,
                    "lightChannels": [
                        6,
                        7
                    ]
                }
            }
        }
    },
    {
        "changes": {
            "garage": 0
        },
        "timeout": 0.059321966666666656,
        "raw": {
            "garage": {
                "pinValue": 0,
                "ticks": 28,
                "event": {
                    "deltaTime": 28,
                    "type": "channel",
                    "subtype": "noteOff",
                    "channel": 8,
                    "noteNumber": 57,
                    "velocity": 0,
                    "lightChannels": [
                        0
                    ]
                }
            }
        }
    },
    {
        "changes": {
            "garden": 0
        },
        "timeout": 0.08262702499999999,
        "raw": {
            "garden": {
                "pinValue": 0,
                "ticks": 60,
                "event": {
                    "deltaTime": 60,
                    "type": "channel",
                    "subtype": "noteOff",
                    "channel": 6,
                    "noteNumber": 57,
                    "velocity": 0,
                    "lightChannels": [
                        8
                    ]
                }
            }
        }
    },
    {
        "changes": {
            "top-right": 1
        },
        "timeout": 0.04872875833333333,
        "raw": {
            "top-right": {
                "pinValue": 1,
                "ticks": 5,
                "event": {
                    "deltaTime": 5,
                    "type": "channel",
                    "subtype": "noteOn",
                    "channel": 8,
                    "noteNumber": 57,
                    "velocity": 127,
                    "lightChannels": [
                        1
                    ]
                }
            }
        }
    },
    {
        "changes": {
            "col-1": 1
        },
        "timeout": 0.0031779624999999996,
        "raw": {
            "col-1": {
                "pinValue": 1,
                "ticks": 3,
                "event": {
                    "deltaTime": 3,
                    "type": "channel",
                    "subtype": "noteOn",
                    "channel": 6,
                    "noteNumber": 60,
                    "velocity": 83,
                    "lightChannels": [
                        3
                    ]
                }
            }
        }
    },
    {
        "changes": {
            "window": 1,
            "outline": 1
        },
        "timeout": 0.008474566666666666,
        "raw": {
            "window": {
                "pinValue": 1,
                "ticks": 3,
                "event": {
                    "deltaTime": 3,
                    "type": "channel",
                    "subtype": "noteOn",
                    "channel": 9,
                    "noteNumber": 54,
                    "velocity": 87,
                    "lightChannels": [
                        6,
                        7
                    ]
                }
            },
            "outline": {
                "pinValue": 1,
                "ticks": 3,
                "event": {
                    "deltaTime": 3,
                    "type": "channel",
                    "subtype": "noteOn",
                    "channel": 9,
                    "noteNumber": 54,
                    "velocity": 87,
                    "lightChannels": [
                        6,
                        7
                    ]
                }
            }
        }
    },
    {
        "changes": {
            "window": 0,
            "outline": 0
        },
        "timeout": 0.06673721249999999,
        "raw": {
            "window": {
                "pinValue": 0,
                "ticks": 63,
                "event": {
                    "deltaTime": 63,
                    "type": "channel",
                    "subtype": "noteOff",
                    "channel": 9,
                    "noteNumber": 54,
                    "velocity": 0,
                    "lightChannels": [
                        6,
                        7
                    ]
                }
            },
            "outline": {
                "pinValue": 0,
                "ticks": 63,
                "event": {
                    "deltaTime": 63,
                    "type": "channel",
                    "subtype": "noteOff",
                    "channel": 9,
                    "noteNumber": 54,
                    "velocity": 0,
                    "lightChannels": [
                        6,
                        7
                    ]
                }
            }
        }
    },
    {
        "changes": {
            "window": 1,
            "outline": 1
        },
        "timeout": 0.19703367499999996,
        "raw": {
            "window": {
                "pinValue": 1,
                "ticks": 96,
                "event": {
                    "deltaTime": 96,
                    "type": "channel",
                    "subtype": "noteOn",
                    "channel": 9,
                    "noteNumber": 54,
                    "velocity": 71,
                    "lightChannels": [
                        6,
                        7
                    ]
                }
            },
            "outline": {
                "pinValue": 1,
                "ticks": 96,
                "event": {
                    "deltaTime": 96,
                    "type": "channel",
                    "subtype": "noteOn",
                    "channel": 9,
                    "noteNumber": 54,
                    "velocity": 71,
                    "lightChannels": [
                        6,
                        7
                    ]
                }
            }
        }
    },
    {
        "changes": {
            "window": 0,
            "outline": 0
        },
        "timeout": 0.05402536249999999,
        "raw": {
            "window": {
                "pinValue": 0,
                "ticks": 51,
                "event": {
                    "deltaTime": 51,
                    "type": "channel",
                    "subtype": "noteOff",
                    "channel": 9,
                    "noteNumber": 54,
                    "velocity": 0,
                    "lightChannels": [
                        6,
                        7
                    ]
                }
            },
            "outline": {
                "pinValue": 0,
                "ticks": 51,
                "event": {
                    "deltaTime": 51,
                    "type": "channel",
                    "subtype": "noteOff",
                    "channel": 9,
                    "noteNumber": 54,
                    "velocity": 0,
                    "lightChannels": [
                        6,
                        7
                    ]
                }
            }
        }
    },
    {
        "changes": {
            "top-right": 0
        },
        "timeout": 0.11758461249999999,
        "raw": {
            "top-right": {
                "pinValue": 0,
                "ticks": 111,
                "event": {
                    "deltaTime": 111,
                    "type": "channel",
                    "subtype": "noteOff",
                    "channel": 8,
                    "noteNumber": 57,
                    "velocity": 0,
                    "lightChannels": [
                        1
                    ]
                }
            }
        }
    },
    {
        "changes": {
            "col-1": 0
        },
        "timeout": 0.0095338875,
        "raw": {
            "col-1": {
                "pinValue": 0,
                "ticks": 9,
                "event": {
                    "deltaTime": 9,
                    "type": "channel",
                    "subtype": "noteOff",
                    "channel": 6,
                    "noteNumber": 60,
                    "velocity": 0,
                    "lightChannels": [
                        3
                    ]
                }
            }
        }
    },
    {
        "changes": {
            "bottom-right": 1
        },
        "timeout": 0.03707622916666666,
        "raw": {
            "bottom-right": {
                "pinValue": 1,
                "ticks": 35,
                "event": {
                    "deltaTime": 35,
                    "type": "channel",
                    "subtype": "noteOn",
                    "channel": 8,
                    "noteNumber": 55,
                    "velocity": 119,
                    "lightChannels": [
                        2
                    ]
                }
            }
        }
    },
    {
        "changes": {
            "col-2": 1
        },
        "timeout": 0.0095338875,
        "raw": {
            "col-2": {
                "pinValue": 1,
                "ticks": 9,
                "event": {
                    "deltaTime": 9,
                    "type": "channel",
                    "subtype": "noteOn",
                    "channel": 6,
                    "noteNumber": 58,
                    "velocity": 80,
                    "lightChannels": [
                        4
                    ]
                }
            }
        }
    },
    {
        "changes": {
            "window": 1,
            "outline": 1
        },
        "timeout": 0.021186416666666666,
        "raw": {
            "window": {
                "pinValue": 1,
                "ticks": 13,
                "event": {
                    "deltaTime": 13,
                    "type": "channel",
                    "subtype": "noteOn",
                    "channel": 9,
                    "noteNumber": 54,
                    "velocity": 77,
                    "lightChannels": [
                        6,
                        7
                    ]
                }
            },
            "outline": {
                "pinValue": 1,
                "ticks": 13,
                "event": {
                    "deltaTime": 13,
                    "type": "channel",
                    "subtype": "noteOn",
                    "channel": 9,
                    "noteNumber": 54,
                    "velocity": 77,
                    "lightChannels": [
                        6,
                        7
                    ]
                }
            }
        }
    },
    {
        "changes": {
            "window": 0,
            "outline": 0
        },
        "timeout": 0.05720332499999999,
        "raw": {
            "window": {
                "pinValue": 0,
                "ticks": 54,
                "event": {
                    "deltaTime": 54,
                    "type": "channel",
                    "subtype": "noteOff",
                    "channel": 9,
                    "noteNumber": 54,
                    "velocity": 0,
                    "lightChannels": [
                        6,
                        7
                    ]
                }
            },
            "outline": {
                "pinValue": 0,
                "ticks": 54,
                "event": {
                    "deltaTime": 54,
                    "type": "channel",
                    "subtype": "noteOff",
                    "channel": 9,
                    "noteNumber": 54,
                    "velocity": 0,
                    "lightChannels": [
                        6,
                        7
                    ]
                }
            }
        }
    },
    {
        "changes": {
            "window": 1,
            "outline": 1
        },
        "timeout": 0.19279639166666662,
        "raw": {
            "window": {
                "pinValue": 1,
                "ticks": 87,
                "event": {
                    "deltaTime": 87,
                    "type": "channel",
                    "subtype": "noteOn",
                    "channel": 9,
                    "noteNumber": 54,
                    "velocity": 79,
                    "lightChannels": [
                        6,
                        7
                    ]
                }
            },
            "outline": {
                "pinValue": 1,
                "ticks": 87,
                "event": {
                    "deltaTime": 87,
                    "type": "channel",
                    "subtype": "noteOn",
                    "channel": 9,
                    "noteNumber": 54,
                    "velocity": 79,
                    "lightChannels": [
                        6,
                        7
                    ]
                }
            }
        }
    },
    {
        "changes": {
            "window": 0,
            "outline": 0
        },
        "timeout": 0.04661011666666666,
        "raw": {
            "window": {
                "pinValue": 0,
                "ticks": 44,
                "event": {
                    "deltaTime": 44,
                    "type": "channel",
                    "subtype": "noteOff",
                    "channel": 9,
                    "noteNumber": 54,
                    "velocity": 0,
                    "lightChannels": [
                        6,
                        7
                    ]
                }
            },
            "outline": {
                "pinValue": 0,
                "ticks": 44,
                "event": {
                    "deltaTime": 44,
                    "type": "channel",
                    "subtype": "noteOff",
                    "channel": 9,
                    "noteNumber": 54,
                    "velocity": 0,
                    "lightChannels": [
                        6,
                        7
                    ]
                }
            }
        }
    },
    {
        "changes": {
            "bottom-right": 0
        },
        "timeout": 0.12499985833333332,
        "raw": {
            "bottom-right": {
                "pinValue": 0,
                "ticks": 65,
                "event": {
                    "deltaTime": 65,
                    "type": "channel",
                    "subtype": "noteOff",
                    "channel": 8,
                    "noteNumber": 55,
                    "velocity": 0,
                    "lightChannels": [
                        2
                    ]
                }
            }
        }
    },
    {
        "changes": {
            "col-2": 0
        },
        "timeout": 0.0031779624999999996,
        "raw": {
            "col-2": {
                "pinValue": 0,
                "ticks": 3,
                "event": {
                    "deltaTime": 3,
                    "type": "channel",
                    "subtype": "noteOff",
                    "channel": 6,
                    "noteNumber": 58,
                    "velocity": 0,
                    "lightChannels": [
                        4
                    ]
                }
            }
        }
    },
    {
        "changes": {
            "garage": 1
        },
        "timeout": 0.039194870833333326,
        "raw": {
            "garage": {
                "pinValue": 1,
                "ticks": 15,
                "event": {
                    "deltaTime": 15,
                    "type": "channel",
                    "subtype": "noteOn",
                    "channel": 8,
                    "noteNumber": 58,
                    "velocity": 116,
                    "lightChannels": [
                        0
                    ]
                }
            }
        }
    },
    {
        "changes": {
            "col-3": 1
        },
        "timeout": 0.010593208333333333,
        "raw": {
            "col-3": {
                "pinValue": 1,
                "ticks": 10,
                "event": {
                    "deltaTime": 10,
                    "type": "channel",
                    "subtype": "noteOn",
                    "channel": 6,
                    "noteNumber": 55,
                    "velocity": 82,
                    "lightChannels": [
                        5
                    ]
                }
            }
        }
    },
    {
        "changes": {
            "window": 1,
            "outline": 1
        },
        "timeout": 0.025423699999999997,
        "raw": {
            "window": {
                "pinValue": 1,
                "ticks": 14,
                "event": {
                    "deltaTime": 14,
                    "type": "channel",
                    "subtype": "noteOn",
                    "channel": 9,
                    "noteNumber": 54,
                    "velocity": 96,
                    "lightChannels": [
                        6,
                        7
                    ]
                }
            },
            "outline": {
                "pinValue": 1,
                "ticks": 14,
                "event": {
                    "deltaTime": 14,
                    "type": "channel",
                    "subtype": "noteOn",
                    "channel": 9,
                    "noteNumber": 54,
                    "velocity": 96,
                    "lightChannels": [
                        6,
                        7
                    ]
                }
            }
        }
    },
    {
        "changes": {
            "window": 0,
            "outline": 0
        },
        "timeout": 0.06038128749999999,
        "raw": {
            "window": {
                "pinValue": 0,
                "ticks": 57,
                "event": {
                    "deltaTime": 57,
                    "type": "channel",
                    "subtype": "noteOff",
                    "channel": 9,
                    "noteNumber": 54,
                    "velocity": 0,
                    "lightChannels": [
                        6,
                        7
                    ]
                }
            },
            "outline": {
                "pinValue": 0,
                "ticks": 57,
                "event": {
                    "deltaTime": 57,
                    "type": "channel",
                    "subtype": "noteOff",
                    "channel": 9,
                    "noteNumber": 54,
                    "velocity": 0,
                    "lightChannels": [
                        6,
                        7
                    ]
                }
            }
        }
    },
    {
        "changes": {
            "window": 1,
            "outline": 1
        },
        "timeout": 0.19279639166666668,
        "raw": {
            "window": {
                "pinValue": 1,
                "ticks": 51,
                "event": {
                    "deltaTime": 51,
                    "type": "channel",
                    "subtype": "noteOn",
                    "channel": 9,
                    "noteNumber": 54,
                    "velocity": 83,
                    "lightChannels": [
                        6,
                        7
                    ]
                }
            },
            "outline": {
                "pinValue": 1,
                "ticks": 51,
                "event": {
                    "deltaTime": 51,
                    "type": "channel",
                    "subtype": "noteOn",
                    "channel": 9,
                    "noteNumber": 54,
                    "velocity": 83,
                    "lightChannels": [
                        6,
                        7
                    ]
                }
            }
        }
    },
    {
        "changes": {
            "window": 0,
            "outline": 0
        },
        "timeout": 0.06249992916666666,
        "raw": {
            "window": {
                "pinValue": 0,
                "ticks": 44,
                "event": {
                    "deltaTime": 44,
                    "type": "channel",
                    "subtype": "noteOff",
                    "channel": 9,
                    "noteNumber": 54,
                    "velocity": 0,
                    "lightChannels": [
                        6,
                        7
                    ]
                }
            },
            "outline": {
                "pinValue": 0,
                "ticks": 44,
                "event": {
                    "deltaTime": 44,
                    "type": "channel",
                    "subtype": "noteOff",
                    "channel": 9,
                    "noteNumber": 54,
                    "velocity": 0,
                    "lightChannels": [
                        6,
                        7
                    ]
                }
            }
        }
    },
    {
        "changes": {
            "col-3": 0
        },
        "timeout": 0.1271185,
        "raw": {
            "col-3": {
                "pinValue": 0,
                "ticks": 57,
                "event": {
                    "deltaTime": 57,
                    "type": "channel",
                    "subtype": "noteOff",
                    "channel": 6,
                    "noteNumber": 55,
                    "velocity": 0,
                    "lightChannels": [
                        5
                    ]
                }
            }
        }
    },
    {
        "changes": {
            "garage": 0
        },
        "timeout": 0.0021186416666666664,
        "raw": {
            "garage": {
                "pinValue": 0,
                "ticks": 2,
                "event": {
                    "deltaTime": 2,
                    "type": "channel",
                    "subtype": "noteOff",
                    "channel": 8,
                    "noteNumber": 58,
                    "velocity": 0,
                    "lightChannels": [
                        0
                    ]
                }
            }
        }
    },
    {
        "changes": {
            "top-right": 1
        },
        "timeout": 0.041313512499999996,
        "raw": {
            "top-right": {
                "pinValue": 1,
                "ticks": 1,
                "event": {
                    "deltaTime": 1,
                    "type": "channel",
                    "subtype": "noteOn",
                    "channel": 8,
                    "noteNumber": 57,
                    "velocity": 116,
                    "lightChannels": [
                        1
                    ]
                }
            }
        }
    },
    {
        "changes": {
            "garden": 1
        },
        "timeout": 0.0021186416666666664,
        "raw": {
            "garden": {
                "pinValue": 1,
                "ticks": 2,
                "event": {
                    "deltaTime": 2,
                    "type": "channel",
                    "subtype": "noteOn",
                    "channel": 6,
                    "noteNumber": 57,
                    "velocity": 74,
                    "lightChannels": [
                        8
                    ]
                }
            }
        }
    },
    {
        "changes": {
            "window": 1,
            "outline": 1
        },
        "timeout": 0.02012709583333333,
        "raw": {
            "window": {
                "pinValue": 1,
                "ticks": 19,
                "event": {
                    "deltaTime": 19,
                    "type": "channel",
                    "subtype": "noteOn",
                    "channel": 9,
                    "noteNumber": 54,
                    "velocity": 81,
                    "lightChannels": [
                        6,
                        7
                    ]
                }
            },
            "outline": {
                "pinValue": 1,
                "ticks": 19,
                "event": {
                    "deltaTime": 19,
                    "type": "channel",
                    "subtype": "noteOn",
                    "channel": 9,
                    "noteNumber": 54,
                    "velocity": 81,
                    "lightChannels": [
                        6,
                        7
                    ]
                }
            }
        }
    },
    {
        "changes": {
            "window": 0,
            "outline": 0
        },
        "timeout": 0.052966041666666665,
        "raw": {
            "window": {
                "pinValue": 0,
                "ticks": 46,
                "event": {
                    "deltaTime": 46,
                    "type": "channel",
                    "subtype": "noteOff",
                    "channel": 9,
                    "noteNumber": 54,
                    "velocity": 0,
                    "lightChannels": [
                        6,
                        7
                    ]
                }
            },
            "outline": {
                "pinValue": 0,
                "ticks": 46,
                "event": {
                    "deltaTime": 46,
                    "type": "channel",
                    "subtype": "noteOff",
                    "channel": 9,
                    "noteNumber": 54,
                    "velocity": 0,
                    "lightChannels": [
                        6,
                        7
                    ]
                }
            }
        }
    },
    {
        "changes": {
            "window": 1,
            "outline": 1
        },
        "timeout": 0.19279639166666668,
        "raw": {
            "window": {
                "pinValue": 1,
                "ticks": 13,
                "event": {
                    "deltaTime": 13,
                    "type": "channel",
                    "subtype": "noteOn",
                    "channel": 9,
                    "noteNumber": 54,
                    "velocity": 79,
                    "lightChannels": [
                        6,
                        7
                    ]
                }
            },
            "outline": {
                "pinValue": 1,
                "ticks": 13,
                "event": {
                    "deltaTime": 13,
                    "type": "channel",
                    "subtype": "noteOn",
                    "channel": 9,
                    "noteNumber": 54,
                    "velocity": 79,
                    "lightChannels": [
                        6,
                        7
                    ]
                }
            }
        }
    },
    {
        "changes": {
            "top-right": 0
        },
        "timeout": 0.06144060833333332,
        "raw": {
            "top-right": {
                "pinValue": 0,
                "ticks": 56,
                "event": {
                    "deltaTime": 56,
                    "type": "channel",
                    "subtype": "noteOff",
                    "channel": 8,
                    "noteNumber": 57,
                    "velocity": 0,
                    "lightChannels": [
                        1
                    ]
                }
            }
        }
    },
    {
        "changes": {
            "window": 0,
            "outline": 0
        },
        "timeout": 0.0031779624999999996,
        "raw": {
            "window": {
                "pinValue": 0,
                "ticks": 3,
                "event": {
                    "deltaTime": 3,
                    "type": "channel",
                    "subtype": "noteOff",
                    "channel": 9,
                    "noteNumber": 54,
                    "velocity": 0,
                    "lightChannels": [
                        6,
                        7
                    ]
                }
            },
            "outline": {
                "pinValue": 0,
                "ticks": 3,
                "event": {
                    "deltaTime": 3,
                    "type": "channel",
                    "subtype": "noteOff",
                    "channel": 9,
                    "noteNumber": 54,
                    "velocity": 0,
                    "lightChannels": [
                        6,
                        7
                    ]
                }
            }
        }
    },
    {
        "changes": {
            "garden": 0
        },
        "timeout": 0.11864393333333331,
        "raw": {
            "garden": {
                "pinValue": 0,
                "ticks": 56,
                "event": {
                    "deltaTime": 56,
                    "type": "channel",
                    "subtype": "noteOff",
                    "channel": 6,
                    "noteNumber": 57,
                    "velocity": 0,
                    "lightChannels": [
                        8
                    ]
                }
            }
        }
    },
    {
        "changes": {
            "bottom-right": 1
        },
        "timeout": 0.04872875833333333,
        "raw": {
            "bottom-right": {
                "pinValue": 1,
                "ticks": 11,
                "event": {
                    "deltaTime": 11,
                    "type": "channel",
                    "subtype": "noteOn",
                    "channel": 8,
                    "noteNumber": 57,
                    "velocity": 127,
                    "lightChannels": [
                        2
                    ]
                }
            }
        }
    },
    {
        "changes": {
            "col-1": 1
        },
        "timeout": 0.0052966041666666665,
        "raw": {
            "col-1": {
                "pinValue": 1,
                "ticks": 5,
                "event": {
                    "deltaTime": 5,
                    "type": "channel",
                    "subtype": "noteOn",
                    "channel": 6,
                    "noteNumber": 60,
                    "velocity": 87,
                    "lightChannels": [
                        3
                    ]
                }
            }
        }
    },
    {
        "changes": {
            "window": 1,
            "outline": 1
        },
        "timeout": 0.013771170833333332,
        "raw": {
            "window": {
                "pinValue": 1,
                "ticks": 2,
                "event": {
                    "deltaTime": 2,
                    "type": "channel",
                    "subtype": "noteOn",
                    "channel": 9,
                    "noteNumber": 54,
                    "velocity": 85,
                    "lightChannels": [
                        6,
                        7
                    ]
                }
            },
            "outline": {
                "pinValue": 1,
                "ticks": 2,
                "event": {
                    "deltaTime": 2,
                    "type": "channel",
                    "subtype": "noteOn",
                    "channel": 9,
                    "noteNumber": 54,
                    "velocity": 85,
                    "lightChannels": [
                        6,
                        7
                    ]
                }
            }
        }
    },
    {
        "changes": {
            "window": 0,
            "outline": 0
        },
        "timeout": 0.06355925,
        "raw": {
            "window": {
                "pinValue": 0,
                "ticks": 60,
                "event": {
                    "deltaTime": 60,
                    "type": "channel",
                    "subtype": "noteOff",
                    "channel": 9,
                    "noteNumber": 54,
                    "velocity": 0,
                    "lightChannels": [
                        6,
                        7
                    ]
                }
            },
            "outline": {
                "pinValue": 0,
                "ticks": 60,
                "event": {
                    "deltaTime": 60,
                    "type": "channel",
                    "subtype": "noteOff",
                    "channel": 9,
                    "noteNumber": 54,
                    "velocity": 0,
                    "lightChannels": [
                        6,
                        7
                    ]
                }
            }
        }
    },
    {
        "changes": {
            "window": 1,
            "outline": 1
        },
        "timeout": 0.18644046666666664,
        "raw": {
            "window": {
                "pinValue": 1,
                "ticks": 8,
                "event": {
                    "deltaTime": 8,
                    "type": "channel",
                    "subtype": "noteOn",
                    "channel": 9,
                    "noteNumber": 54,
                    "velocity": 81,
                    "lightChannels": [
                        6,
                        7
                    ]
                }
            },
            "outline": {
                "pinValue": 1,
                "ticks": 8,
                "event": {
                    "deltaTime": 8,
                    "type": "channel",
                    "subtype": "noteOn",
                    "channel": 9,
                    "noteNumber": 54,
                    "velocity": 81,
                    "lightChannels": [
                        6,
                        7
                    ]
                }
            }
        }
    },
    {
        "changes": {
            "window": 0,
            "outline": 0
        },
        "timeout": 0.06249992916666666,
        "raw": {
            "window": {
                "pinValue": 0,
                "ticks": 32,
                "event": {
                    "deltaTime": 32,
                    "type": "channel",
                    "subtype": "noteOff",
                    "channel": 9,
                    "noteNumber": 54,
                    "velocity": 0,
                    "lightChannels": [
                        6,
                        7
                    ]
                }
            },
            "outline": {
                "pinValue": 0,
                "ticks": 32,
                "event": {
                    "deltaTime": 32,
                    "type": "channel",
                    "subtype": "noteOff",
                    "channel": 9,
                    "noteNumber": 54,
                    "velocity": 0,
                    "lightChannels": [
                        6,
                        7
                    ]
                }
            }
        }
    },
    {
        "changes": {
            "bottom-right": 0
        },
        "timeout": 0.12394053749999998,
        "raw": {
            "bottom-right": {
                "pinValue": 0,
                "ticks": 75,
                "event": {
                    "deltaTime": 75,
                    "type": "channel",
                    "subtype": "noteOff",
                    "channel": 8,
                    "noteNumber": 57,
                    "velocity": 0,
                    "lightChannels": [
                        2
                    ]
                }
            }
        }
    },
    {
        "changes": {
            "col-1": 0
        },
        "timeout": 0.006355924999999999,
        "raw": {
            "col-1": {
                "pinValue": 0,
                "ticks": 6,
                "event": {
                    "deltaTime": 6,
                    "type": "channel",
                    "subtype": "noteOff",
                    "channel": 6,
                    "noteNumber": 60,
                    "velocity": 0,
                    "lightChannels": [
                        3
                    ]
                }
            }
        }
    },
    {
        "changes": {
            "garage": 1
        },
        "timeout": 0.04343215416666666,
        "raw": {
            "garage": {
                "pinValue": 1,
                "ticks": 41,
                "event": {
                    "deltaTime": 41,
                    "type": "channel",
                    "subtype": "noteOn",
                    "channel": 8,
                    "noteNumber": 55,
                    "velocity": 122,
                    "lightChannels": [
                        0
                    ]
                }
            }
        }
    },
    {
        "changes": {
            "col-2": 1
        },
        "timeout": 0.0095338875,
        "raw": {
            "col-2": {
                "pinValue": 1,
                "ticks": 9,
                "event": {
                    "deltaTime": 9,
                    "type": "channel",
                    "subtype": "noteOn",
                    "channel": 6,
                    "noteNumber": 58,
                    "velocity": 90,
                    "lightChannels": [
                        4
                    ]
                }
            }
        }
    },
    {
        "changes": {
            "window": 1,
            "outline": 1
        },
        "timeout": 0.0095338875,
        "raw": {
            "window": {
                "pinValue": 1,
                "ticks": 9,
                "event": {
                    "deltaTime": 9,
                    "type": "channel",
                    "subtype": "noteOn",
                    "channel": 9,
                    "noteNumber": 54,
                    "velocity": 85,
                    "lightChannels": [
                        6,
                        7
                    ]
                }
            },
            "outline": {
                "pinValue": 1,
                "ticks": 9,
                "event": {
                    "deltaTime": 9,
                    "type": "channel",
                    "subtype": "noteOn",
                    "channel": 9,
                    "noteNumber": 54,
                    "velocity": 85,
                    "lightChannels": [
                        6,
                        7
                    ]
                }
            }
        }
    },
    {
        "changes": {
            "window": 0,
            "outline": 0
        },
        "timeout": 0.06885585416666666,
        "raw": {
            "window": {
                "pinValue": 0,
                "ticks": 62,
                "event": {
                    "deltaTime": 62,
                    "type": "channel",
                    "subtype": "noteOff",
                    "channel": 9,
                    "noteNumber": 54,
                    "velocity": 0,
                    "lightChannels": [
                        6,
                        7
                    ]
                }
            },
            "outline": {
                "pinValue": 0,
                "ticks": 62,
                "event": {
                    "deltaTime": 62,
                    "type": "channel",
                    "subtype": "noteOff",
                    "channel": 9,
                    "noteNumber": 54,
                    "velocity": 0,
                    "lightChannels": [
                        6,
                        7
                    ]
                }
            }
        }
    },
    {
        "changes": {
            "window": 1,
            "outline": 1
        },
        "timeout": 0.1864404666666666,
        "raw": {
            "window": {
                "pinValue": 1,
                "ticks": 0,
                "event": {
                    "deltaTime": 0,
                    "type": "channel",
                    "subtype": "noteOn",
                    "channel": 9,
                    "noteNumber": 54,
                    "velocity": 83,
                    "lightChannels": [
                        6,
                        7
                    ]
                }
            },
            "outline": {
                "pinValue": 1,
                "ticks": 0,
                "event": {
                    "deltaTime": 0,
                    "type": "channel",
                    "subtype": "noteOn",
                    "channel": 9,
                    "noteNumber": 54,
                    "velocity": 83,
                    "lightChannels": [
                        6,
                        7
                    ]
                }
            }
        }
    },
    {
        "changes": {
            "window": 0,
            "outline": 0
        },
        "timeout": 0.05826264583333332,
        "raw": {
            "window": {
                "pinValue": 0,
                "ticks": 44,
                "event": {
                    "deltaTime": 44,
                    "type": "channel",
                    "subtype": "noteOff",
                    "channel": 9,
                    "noteNumber": 54,
                    "velocity": 0,
                    "lightChannels": [
                        6,
                        7
                    ]
                }
            },
            "outline": {
                "pinValue": 0,
                "ticks": 44,
                "event": {
                    "deltaTime": 44,
                    "type": "channel",
                    "subtype": "noteOff",
                    "channel": 9,
                    "noteNumber": 54,
                    "velocity": 0,
                    "lightChannels": [
                        6,
                        7
                    ]
                }
            }
        }
    },
    {
        "changes": {
            "col-2": 0
        },
        "timeout": 0.045550795833333324,
        "raw": {
            "col-2": {
                "pinValue": 0,
                "ticks": 16,
                "event": {
                    "deltaTime": 16,
                    "type": "channel",
                    "subtype": "noteOff",
                    "channel": 6,
                    "noteNumber": 58,
                    "velocity": 0,
                    "lightChannels": [
                        4
                    ]
                }
            }
        }
    },
    {
        "changes": {
            "garage": 0
        },
        "timeout": 0.09322023333333332,
        "raw": {
            "garage": {
                "pinValue": 0,
                "ticks": 49,
                "event": {
                    "deltaTime": 49,
                    "type": "channel",
                    "subtype": "noteOff",
                    "channel": 8,
                    "noteNumber": 55,
                    "velocity": 0,
                    "lightChannels": [
                        0
                    ]
                }
            }
        }
    },
    {
        "changes": {
            "garage": 1,
            "top-right": 1,
            "bottom-right": 1
        },
        "timeout": 0.06461857083333333,
        "raw": {
            "garage": {
                "pinValue": 1,
                "ticks": 3,
                "event": {
                    "deltaTime": 3,
                    "type": "channel",
                    "subtype": "noteOn",
                    "channel": 8,
                    "noteNumber": 57,
                    "velocity": 115,
                    "lightChannels": [
                        0,
                        1,
                        2
                    ]
                }
            },
            "top-right": {
                "pinValue": 1,
                "ticks": 3,
                "event": {
                    "deltaTime": 3,
                    "type": "channel",
                    "subtype": "noteOn",
                    "channel": 8,
                    "noteNumber": 57,
                    "velocity": 115,
                    "lightChannels": [
                        0,
                        1,
                        2
                    ]
                }
            },
            "bottom-right": {
                "pinValue": 1,
                "ticks": 3,
                "event": {
                    "deltaTime": 3,
                    "type": "channel",
                    "subtype": "noteOn",
                    "channel": 8,
                    "noteNumber": 57,
                    "velocity": 115,
                    "lightChannels": [
                        0,
                        1,
                        2
                    ]
                }
            }
        }
    },
    {
        "changes": {
            "window": 1,
            "outline": 1
        },
        "timeout": 0.004237283333333333,
        "raw": {
            "window": {
                "pinValue": 1,
                "ticks": 2,
                "event": {
                    "deltaTime": 2,
                    "type": "channel",
                    "subtype": "noteOn",
                    "channel": 9,
                    "noteNumber": 54,
                    "velocity": 105,
                    "lightChannels": [
                        6,
                        7
                    ]
                }
            },
            "outline": {
                "pinValue": 1,
                "ticks": 2,
                "event": {
                    "deltaTime": 2,
                    "type": "channel",
                    "subtype": "noteOn",
                    "channel": 9,
                    "noteNumber": 54,
                    "velocity": 105,
                    "lightChannels": [
                        6,
                        7
                    ]
                }
            }
        }
    },
    {
        "changes": {
            "col-2": 1
        },
        "timeout": 0.018008454166666667,
        "raw": {
            "col-2": {
                "pinValue": 1,
                "ticks": 4,
                "event": {
                    "deltaTime": 4,
                    "type": "channel",
                    "subtype": "noteOn",
                    "channel": 6,
                    "noteNumber": 66,
                    "velocity": 124,
                    "lightChannels": [
                        4
                    ]
                }
            }
        }
    },
    {
        "changes": {
            "window": 0,
            "outline": 0
        },
        "timeout": 0.069915175,
        "raw": {
            "window": {
                "pinValue": 0,
                "ticks": 3,
                "event": {
                    "deltaTime": 3,
                    "type": "channel",
                    "subtype": "noteOff",
                    "channel": 9,
                    "noteNumber": 54,
                    "velocity": 0,
                    "lightChannels": [
                        6,
                        7
                    ]
                }
            },
            "outline": {
                "pinValue": 0,
                "ticks": 3,
                "event": {
                    "deltaTime": 3,
                    "type": "channel",
                    "subtype": "noteOff",
                    "channel": 9,
                    "noteNumber": 54,
                    "velocity": 0,
                    "lightChannels": [
                        6,
                        7
                    ]
                }
            }
        }
    },
    {
        "changes": {
            "col-2": 0
        },
        "timeout": 0.014830491666666664,
        "raw": {
            "col-2": {
                "pinValue": 0,
                "ticks": 14,
                "event": {
                    "deltaTime": 14,
                    "type": "channel",
                    "subtype": "noteOff",
                    "channel": 6,
                    "noteNumber": 66,
                    "velocity": 0,
                    "lightChannels": [
                        4
                    ]
                }
            }
        }
    },
    {
        "changes": {
            "col-3": 1
        },
        "timeout": 0.15677948333333333,
        "raw": {
            "col-3": {
                "pinValue": 1,
                "ticks": 2,
                "event": {
                    "deltaTime": 2,
                    "type": "channel",
                    "subtype": "noteOn",
                    "channel": 6,
                    "noteNumber": 68,
                    "velocity": 99,
                    "lightChannels": [
                        5
                    ]
                }
            }
        }
    },
    {
        "changes": {
            "col-3": 0
        },
        "timeout": 0.09216091249999998,
        "raw": {
            "col-3": {
                "pinValue": 0,
                "ticks": 17,
                "event": {
                    "deltaTime": 17,
                    "type": "channel",
                    "subtype": "noteOff",
                    "channel": 6,
                    "noteNumber": 68,
                    "velocity": 0,
                    "lightChannels": [
                        5
                    ]
                }
            }
        }
    },
    {
        "changes": {
            "col-2": 1
        },
        "timeout": 0.14512695416666666,
        "raw": {
            "col-2": {
                "pinValue": 1,
                "ticks": 131,
                "event": {
                    "deltaTime": 131,
                    "type": "channel",
                    "subtype": "noteOn",
                    "channel": 6,
                    "noteNumber": 66,
                    "velocity": 103,
                    "lightChannels": [
                        4
                    ]
                }
            }
        }
    },
    {
        "changes": {
            "col-2": 0
        },
        "timeout": 0.10699140416666665,
        "raw": {
            "col-2": {
                "pinValue": 0,
                "ticks": 1,
                "event": {
                    "deltaTime": 1,
                    "type": "channel",
                    "subtype": "noteOff",
                    "channel": 6,
                    "noteNumber": 66,
                    "velocity": 0,
                    "lightChannels": [
                        4
                    ]
                }
            }
        }
    },
    {
        "changes": {
            "col-1": 1
        },
        "timeout": 0.0095338875,
        "raw": {
            "col-1": {
                "pinValue": 1,
                "ticks": 0,
                "event": {
                    "deltaTime": 0,
                    "type": "channel",
                    "subtype": "noteOn",
                    "channel": 6,
                    "noteNumber": 63,
                    "velocity": 112,
                    "lightChannels": [
                        3
                    ]
                }
            }
        }
    },
    {
        "changes": {
            "col-1": 0
        },
        "timeout": 0.08686430833333332,
        "raw": {
            "col-1": {
                "pinValue": 0,
                "ticks": 71,
                "event": {
                    "deltaTime": 71,
                    "type": "channel",
                    "subtype": "noteOff",
                    "channel": 6,
                    "noteNumber": 63,
                    "velocity": 0,
                    "lightChannels": [
                        3
                    ]
                }
            }
        }
    },
    {
        "changes": {
            "garden": 1,
            "tree": 1
        },
        "timeout": 0.047669437499999995,
        "raw": {
            "garden": {
                "pinValue": 1,
                "ticks": 11,
                "event": {
                    "deltaTime": 11,
                    "type": "channel",
                    "subtype": "noteOn",
                    "channel": 6,
                    "noteNumber": 59,
                    "velocity": 121,
                    "lightChannels": [
                        8,
                        9
                    ]
                }
            },
            "tree": {
                "pinValue": 1,
                "ticks": 11,
                "event": {
                    "deltaTime": 11,
                    "type": "channel",
                    "subtype": "noteOn",
                    "channel": 6,
                    "noteNumber": 59,
                    "velocity": 121,
                    "lightChannels": [
                        8,
                        9
                    ]
                }
            }
        }
    },
    {
        "changes": {
            "garage": 0,
            "top-right": 0,
            "bottom-right": 0
        },
        "timeout": 0.08050838333333332,
        "raw": {
            "garage": {
                "pinValue": 0,
                "ticks": 32,
                "event": {
                    "deltaTime": 32,
                    "type": "channel",
                    "subtype": "noteOff",
                    "channel": 8,
                    "noteNumber": 57,
                    "velocity": 0,
                    "lightChannels": [
                        0,
                        1,
                        2
                    ]
                }
            },
            "top-right": {
                "pinValue": 0,
                "ticks": 32,
                "event": {
                    "deltaTime": 32,
                    "type": "channel",
                    "subtype": "noteOff",
                    "channel": 8,
                    "noteNumber": 57,
                    "velocity": 0,
                    "lightChannels": [
                        0,
                        1,
                        2
                    ]
                }
            },
            "bottom-right": {
                "pinValue": 0,
                "ticks": 32,
                "event": {
                    "deltaTime": 32,
                    "type": "channel",
                    "subtype": "noteOff",
                    "channel": 8,
                    "noteNumber": 57,
                    "velocity": 0,
                    "lightChannels": [
                        0,
                        1,
                        2
                    ]
                }
            }
        }
    },
    {
        "changes": {
            "garden": 0,
            "tree": 0
        },
        "timeout": 0.0052966041666666665,
        "raw": {
            "garden": {
                "pinValue": 0,
                "ticks": 4,
                "event": {
                    "deltaTime": 4,
                    "type": "channel",
                    "subtype": "noteOff",
                    "channel": 6,
                    "noteNumber": 59,
                    "velocity": 0,
                    "lightChannels": [
                        8,
                        9
                    ]
                }
            },
            "tree": {
                "pinValue": 0,
                "ticks": 4,
                "event": {
                    "deltaTime": 4,
                    "type": "channel",
                    "subtype": "noteOff",
                    "channel": 6,
                    "noteNumber": 59,
                    "velocity": 0,
                    "lightChannels": [
                        8,
                        9
                    ]
                }
            }
        }
    },
    {
        "changes": {
            "window": 1,
            "outline": 1
        },
        "timeout": 0.16313540833333331,
        "raw": {
            "window": {
                "pinValue": 1,
                "ticks": 5,
                "event": {
                    "deltaTime": 5,
                    "type": "channel",
                    "subtype": "noteOn",
                    "channel": 9,
                    "noteNumber": 54,
                    "velocity": 90,
                    "lightChannels": [
                        6,
                        7
                    ]
                }
            },
            "outline": {
                "pinValue": 1,
                "ticks": 5,
                "event": {
                    "deltaTime": 5,
                    "type": "channel",
                    "subtype": "noteOn",
                    "channel": 9,
                    "noteNumber": 54,
                    "velocity": 90,
                    "lightChannels": [
                        6,
                        7
                    ]
                }
            }
        }
    },
    {
        "changes": {
            "garage": 1,
            "top-right": 1,
            "bottom-right": 1
        },
        "timeout": 0.0031779624999999996,
        "raw": {
            "garage": {
                "pinValue": 1,
                "ticks": 0,
                "event": {
                    "deltaTime": 0,
                    "type": "channel",
                    "subtype": "noteOn",
                    "channel": 8,
                    "noteNumber": 56,
                    "velocity": 114,
                    "lightChannels": [
                        0,
                        1,
                        2
                    ]
                }
            },
            "top-right": {
                "pinValue": 1,
                "ticks": 0,
                "event": {
                    "deltaTime": 0,
                    "type": "channel",
                    "subtype": "noteOn",
                    "channel": 8,
                    "noteNumber": 56,
                    "velocity": 114,
                    "lightChannels": [
                        0,
                        1,
                        2
                    ]
                }
            },
            "bottom-right": {
                "pinValue": 1,
                "ticks": 0,
                "event": {
                    "deltaTime": 0,
                    "type": "channel",
                    "subtype": "noteOn",
                    "channel": 8,
                    "noteNumber": 56,
                    "velocity": 114,
                    "lightChannels": [
                        0,
                        1,
                        2
                    ]
                }
            }
        }
    },
    {
        "changes": {
            "col-2": 1
        },
        "timeout": 0.0158898125,
        "raw": {
            "col-2": {
                "pinValue": 1,
                "ticks": 9,
                "event": {
                    "deltaTime": 9,
                    "type": "channel",
                    "subtype": "noteOn",
                    "channel": 4,
                    "noteNumber": 71,
                    "velocity": 126,
                    "lightChannels": [
                        4
                    ]
                }
            }
        }
    },
    {
        "changes": {
            "window": 0,
            "outline": 0
        },
        "timeout": 0.04025419166666666,
        "raw": {
            "window": {
                "pinValue": 0,
                "ticks": 4,
                "event": {
                    "deltaTime": 4,
                    "type": "channel",
                    "subtype": "noteOff",
                    "channel": 9,
                    "noteNumber": 54,
                    "velocity": 0,
                    "lightChannels": [
                        6,
                        7
                    ]
                }
            },
            "outline": {
                "pinValue": 0,
                "ticks": 4,
                "event": {
                    "deltaTime": 4,
                    "type": "channel",
                    "subtype": "noteOff",
                    "channel": 9,
                    "noteNumber": 54,
                    "velocity": 0,
                    "lightChannels": [
                        6,
                        7
                    ]
                }
            }
        }
    },
    {
        "changes": {
            "col-2": 0
        },
        "timeout": 0.06249992916666666,
        "raw": {
            "col-2": {
                "pinValue": 0,
                "ticks": 10,
                "event": {
                    "deltaTime": 10,
                    "type": "channel",
                    "subtype": "noteOff",
                    "channel": 4,
                    "noteNumber": 71,
                    "velocity": 0,
                    "lightChannels": [
                        4
                    ]
                }
            }
        }
    },
    {
        "changes": {
            "window": 1,
            "outline": 1
        },
        "timeout": 0.13241510416666666,
        "raw": {
            "window": {
                "pinValue": 1,
                "ticks": 28,
                "event": {
                    "deltaTime": 28,
                    "type": "channel",
                    "subtype": "noteOn",
                    "channel": 9,
                    "noteNumber": 54,
                    "velocity": 95,
                    "lightChannels": [
                        6,
                        7
                    ]
                }
            },
            "outline": {
                "pinValue": 1,
                "ticks": 28,
                "event": {
                    "deltaTime": 28,
                    "type": "channel",
                    "subtype": "noteOn",
                    "channel": 9,
                    "noteNumber": 54,
                    "velocity": 95,
                    "lightChannels": [
                        6,
                        7
                    ]
                }
            }
        }
    },
    {
        "changes": {
            "col-3": 1
        },
        "timeout": 0.021186416666666666,
        "raw": {
            "col-3": {
                "pinValue": 1,
                "ticks": 20,
                "event": {
                    "deltaTime": 20,
                    "type": "channel",
                    "subtype": "noteOn",
                    "channel": 4,
                    "noteNumber": 73,
                    "velocity": 116,
                    "lightChannels": [
                        5
                    ]
                }
            }
        }
    },
    {
        "changes": {
            "window": 0,
            "outline": 0
        },
        "timeout": 0.04978807916666666,
        "raw": {
            "window": {
                "pinValue": 0,
                "ticks": 31,
                "event": {
                    "deltaTime": 31,
                    "type": "channel",
                    "subtype": "noteOff",
                    "channel": 9,
                    "noteNumber": 54,
                    "velocity": 0,
                    "lightChannels": [
                        6,
                        7
                    ]
                }
            },
            "outline": {
                "pinValue": 0,
                "ticks": 31,
                "event": {
                    "deltaTime": 31,
                    "type": "channel",
                    "subtype": "noteOff",
                    "channel": 9,
                    "noteNumber": 54,
                    "velocity": 0,
                    "lightChannels": [
                        6,
                        7
                    ]
                }
            }
        }
    },
    {
        "changes": {
            "col-3": 0
        },
        "timeout": 0.05826264583333332,
        "raw": {
            "col-3": {
                "pinValue": 0,
                "ticks": 6,
                "event": {
                    "deltaTime": 6,
                    "type": "channel",
                    "subtype": "noteOff",
                    "channel": 4,
                    "noteNumber": 73,
                    "velocity": 0,
                    "lightChannels": [
                        5
                    ]
                }
            }
        }
    },
    {
        "changes": {
            "window": 1,
            "outline": 1
        },
        "timeout": 0.12288121666666665,
        "raw": {
            "window": {
                "pinValue": 1,
                "ticks": 106,
                "event": {
                    "deltaTime": 106,
                    "type": "channel",
                    "subtype": "noteOn",
                    "channel": 9,
                    "noteNumber": 54,
                    "velocity": 90,
                    "lightChannels": [
                        6,
                        7
                    ]
                }
            },
            "outline": {
                "pinValue": 1,
                "ticks": 106,
                "event": {
                    "deltaTime": 106,
                    "type": "channel",
                    "subtype": "noteOn",
                    "channel": 9,
                    "noteNumber": 54,
                    "velocity": 90,
                    "lightChannels": [
                        6,
                        7
                    ]
                }
            }
        }
    },
    {
        "changes": {
            "col-2": 1
        },
        "timeout": 0.044491474999999996,
        "raw": {
            "col-2": {
                "pinValue": 1,
                "ticks": 27,
                "event": {
                    "deltaTime": 27,
                    "type": "channel",
                    "subtype": "noteOn",
                    "channel": 4,
                    "noteNumber": 71,
                    "velocity": 123,
                    "lightChannels": [
                        4
                    ]
                }
            }
        }
    },
    {
        "changes": {
            "window": 0,
            "outline": 0
        },
        "timeout": 0.02648302083333333,
        "raw": {
            "window": {
                "pinValue": 0,
                "ticks": 17,
                "event": {
                    "deltaTime": 17,
                    "type": "channel",
                    "subtype": "noteOff",
                    "channel": 9,
                    "noteNumber": 54,
                    "velocity": 0,
                    "lightChannels": [
                        6,
                        7
                    ]
                }
            },
            "outline": {
                "pinValue": 0,
                "ticks": 17,
                "event": {
                    "deltaTime": 17,
                    "type": "channel",
                    "subtype": "noteOff",
                    "channel": 9,
                    "noteNumber": 54,
                    "velocity": 0,
                    "lightChannels": [
                        6,
                        7
                    ]
                }
            }
        }
    },
    {
        "changes": {
            "col-2": 0
        },
        "timeout": 0.06673721249999999,
        "raw": {
            "col-2": {
                "pinValue": 0,
                "ticks": 63,
                "event": {
                    "deltaTime": 63,
                    "type": "channel",
                    "subtype": "noteOff",
                    "channel": 4,
                    "noteNumber": 71,
                    "velocity": 0,
                    "lightChannels": [
                        4
                    ]
                }
            }
        }
    },
    {
        "changes": {
            "col-1": 1
        },
        "timeout": 0.01694913333333333,
        "raw": {
            "col-1": {
                "pinValue": 1,
                "ticks": 16,
                "event": {
                    "deltaTime": 16,
                    "type": "channel",
                    "subtype": "noteOn",
                    "channel": 4,
                    "noteNumber": 68,
                    "velocity": 105,
                    "lightChannels": [
                        3
                    ]
                }
            }
        }
    },
    {
        "changes": {
            "col-1": 0
        },
        "timeout": 0.10487276249999998,
        "raw": {
            "col-1": {
                "pinValue": 0,
                "ticks": 5,
                "event": {
                    "deltaTime": 5,
                    "type": "channel",
                    "subtype": "noteOff",
                    "channel": 4,
                    "noteNumber": 68,
                    "velocity": 0,
                    "lightChannels": [
                        3
                    ]
                }
            }
        }
    },
    {
        "changes": {
            "window": 1,
            "outline": 1
        },
        "timeout": 0.0052966041666666665,
        "raw": {
            "window": {
                "pinValue": 1,
                "ticks": 3,
                "event": {
                    "deltaTime": 3,
                    "type": "channel",
                    "subtype": "noteOn",
                    "channel": 9,
                    "noteNumber": 54,
                    "velocity": 90,
                    "lightChannels": [
                        6,
                        7
                    ]
                }
            },
            "outline": {
                "pinValue": 1,
                "ticks": 3,
                "event": {
                    "deltaTime": 3,
                    "type": "channel",
                    "subtype": "noteOn",
                    "channel": 9,
                    "noteNumber": 54,
                    "velocity": 90,
                    "lightChannels": [
                        6,
                        7
                    ]
                }
            }
        }
    },
    {
        "changes": {
            "garden": 1,
            "tree": 1
        },
        "timeout": 0.024364379166666665,
        "raw": {
            "garden": {
                "pinValue": 1,
                "ticks": 23,
                "event": {
                    "deltaTime": 23,
                    "type": "channel",
                    "subtype": "noteOn",
                    "channel": 4,
                    "noteNumber": 64,
                    "velocity": 108,
                    "lightChannels": [
                        8,
                        9
                    ]
                }
            },
            "tree": {
                "pinValue": 1,
                "ticks": 23,
                "event": {
                    "deltaTime": 23,
                    "type": "channel",
                    "subtype": "noteOn",
                    "channel": 4,
                    "noteNumber": 64,
                    "velocity": 108,
                    "lightChannels": [
                        8,
                        9
                    ]
                }
            }
        }
    },
    {
        "changes": {
            "window": 0,
            "outline": 0
        },
        "timeout": 0.04025419166666666,
        "raw": {
            "window": {
                "pinValue": 0,
                "ticks": 7,
                "event": {
                    "deltaTime": 7,
                    "type": "channel",
                    "subtype": "noteOff",
                    "channel": 9,
                    "noteNumber": 54,
                    "velocity": 0,
                    "lightChannels": [
                        6,
                        7
                    ]
                }
            },
            "outline": {
                "pinValue": 0,
                "ticks": 7,
                "event": {
                    "deltaTime": 7,
                    "type": "channel",
                    "subtype": "noteOff",
                    "channel": 9,
                    "noteNumber": 54,
                    "velocity": 0,
                    "lightChannels": [
                        6,
                        7
                    ]
                }
            }
        }
    },
    {
        "changes": {
            "garage": 0,
            "top-right": 0,
            "bottom-right": 0
        },
        "timeout": 0.08580498749999999,
        "raw": {
            "garage": {
                "pinValue": 0,
                "ticks": 49,
                "event": {
                    "deltaTime": 49,
                    "type": "channel",
                    "subtype": "noteOff",
                    "channel": 8,
                    "noteNumber": 56,
                    "velocity": 0,
                    "lightChannels": [
                        0,
                        1,
                        2
                    ]
                }
            },
            "top-right": {
                "pinValue": 0,
                "ticks": 49,
                "event": {
                    "deltaTime": 49,
                    "type": "channel",
                    "subtype": "noteOff",
                    "channel": 8,
                    "noteNumber": 56,
                    "velocity": 0,
                    "lightChannels": [
                        0,
                        1,
                        2
                    ]
                }
            },
            "bottom-right": {
                "pinValue": 0,
                "ticks": 49,
                "event": {
                    "deltaTime": 49,
                    "type": "channel",
                    "subtype": "noteOff",
                    "channel": 8,
                    "noteNumber": 56,
                    "velocity": 0,
                    "lightChannels": [
                        0,
                        1,
                        2
                    ]
                }
            }
        }
    },
    {
        "changes": {
            "garden": 0,
            "tree": 0
        },
        "timeout": 0.007415245833333332,
        "raw": {
            "garden": {
                "pinValue": 0,
                "ticks": 7,
                "event": {
                    "deltaTime": 7,
                    "type": "channel",
                    "subtype": "noteOff",
                    "channel": 4,
                    "noteNumber": 64,
                    "velocity": 0,
                    "lightChannels": [
                        8,
                        9
                    ]
                }
            },
            "tree": {
                "pinValue": 0,
                "ticks": 7,
                "event": {
                    "deltaTime": 7,
                    "type": "channel",
                    "subtype": "noteOff",
                    "channel": 4,
                    "noteNumber": 64,
                    "velocity": 0,
                    "lightChannels": [
                        8,
                        9
                    ]
                }
            }
        }
    },
    {
        "changes": {
            "garage": 1,
            "top-right": 1,
            "bottom-right": 1
        },
        "timeout": 0.095338875,
        "raw": {
            "garage": {
                "pinValue": 1,
                "ticks": 0,
                "event": {
                    "deltaTime": 0,
                    "type": "channel",
                    "subtype": "noteOn",
                    "channel": 8,
                    "noteNumber": 55,
                    "velocity": 121,
                    "lightChannels": [
                        0,
                        1,
                        2
                    ]
                }
            },
            "top-right": {
                "pinValue": 1,
                "ticks": 0,
                "event": {
                    "deltaTime": 0,
                    "type": "channel",
                    "subtype": "noteOn",
                    "channel": 8,
                    "noteNumber": 55,
                    "velocity": 121,
                    "lightChannels": [
                        0,
                        1,
                        2
                    ]
                }
            },
            "bottom-right": {
                "pinValue": 1,
                "ticks": 0,
                "event": {
                    "deltaTime": 0,
                    "type": "channel",
                    "subtype": "noteOn",
                    "channel": 8,
                    "noteNumber": 55,
                    "velocity": 121,
                    "lightChannels": [
                        0,
                        1,
                        2
                    ]
                }
            }
        }
    },
    {
        "changes": {
            "window": 1,
            "outline": 1
        },
        "timeout": 0.022245737499999994,
        "raw": {
            "window": {
                "pinValue": 1,
                "ticks": 12,
                "event": {
                    "deltaTime": 12,
                    "type": "channel",
                    "subtype": "noteOn",
                    "channel": 9,
                    "noteNumber": 54,
                    "velocity": 96,
                    "lightChannels": [
                        6,
                        7
                    ]
                }
            },
            "outline": {
                "pinValue": 1,
                "ticks": 12,
                "event": {
                    "deltaTime": 12,
                    "type": "channel",
                    "subtype": "noteOn",
                    "channel": 9,
                    "noteNumber": 54,
                    "velocity": 96,
                    "lightChannels": [
                        6,
                        7
                    ]
                }
            }
        }
    },
    {
        "changes": {
            "col-2": 1
        },
        "timeout": 0.01271185,
        "raw": {
            "col-2": {
                "pinValue": 1,
                "ticks": 10,
                "event": {
                    "deltaTime": 10,
                    "type": "channel",
                    "subtype": "noteOn",
                    "channel": 6,
                    "noteNumber": 64,
                    "velocity": 121,
                    "lightChannels": [
                        4
                    ]
                }
            }
        }
    },
    {
        "changes": {
            "window": 0,
            "outline": 0
        },
        "timeout": 0.0730931375,
        "raw": {
            "window": {
                "pinValue": 0,
                "ticks": 66,
                "event": {
                    "deltaTime": 66,
                    "type": "channel",
                    "subtype": "noteOff",
                    "channel": 9,
                    "noteNumber": 54,
                    "velocity": 0,
                    "lightChannels": [
                        6,
                        7
                    ]
                }
            },
            "outline": {
                "pinValue": 0,
                "ticks": 66,
                "event": {
                    "deltaTime": 66,
                    "type": "channel",
                    "subtype": "noteOff",
                    "channel": 9,
                    "noteNumber": 54,
                    "velocity": 0,
                    "lightChannels": [
                        6,
                        7
                    ]
                }
            }
        }
    },
    {
        "changes": {
            "col-2": 0
        },
        "timeout": 0.012711849999999998,
        "raw": {
            "col-2": {
                "pinValue": 0,
                "ticks": 12,
                "event": {
                    "deltaTime": 12,
                    "type": "channel",
                    "subtype": "noteOff",
                    "channel": 6,
                    "noteNumber": 64,
                    "velocity": 0,
                    "lightChannels": [
                        4
                    ]
                }
            }
        }
    },
    {
        "changes": {
            "col-3": 1
        },
        "timeout": 0.1440676333333333,
        "raw": {
            "col-3": {
                "pinValue": 1,
                "ticks": 124,
                "event": {
                    "deltaTime": 124,
                    "type": "channel",
                    "subtype": "noteOn",
                    "channel": 6,
                    "noteNumber": 66,
                    "velocity": 105,
                    "lightChannels": [
                        5
                    ]
                }
            }
        }
    },
    {
        "changes": {
            "col-3": 0
        },
        "timeout": 0.08474566666666666,
        "raw": {
            "col-3": {
                "pinValue": 0,
                "ticks": 67,
                "event": {
                    "deltaTime": 67,
                    "type": "channel",
                    "subtype": "noteOff",
                    "channel": 6,
                    "noteNumber": 66,
                    "velocity": 0,
                    "lightChannels": [
                        5
                    ]
                }
            }
        }
    },
    {
        "changes": {
            "col-2": 1
        },
        "timeout": 0.19067774999999998,
        "raw": {
            "col-2": {
                "pinValue": 1,
                "ticks": 1,
                "event": {
                    "deltaTime": 1,
                    "type": "channel",
                    "subtype": "noteOn",
                    "channel": 6,
                    "noteNumber": 64,
                    "velocity": 115,
                    "lightChannels": [
                        4
                    ]
                }
            }
        }
    },
    {
        "changes": {
            "col-2": 0
        },
        "timeout": 0.0858049875,
        "raw": {
            "col-2": {
                "pinValue": 0,
                "ticks": 3,
                "event": {
                    "deltaTime": 3,
                    "type": "channel",
                    "subtype": "noteOff",
                    "channel": 6,
                    "noteNumber": 64,
                    "velocity": 0,
                    "lightChannels": [
                        4
                    ]
                }
            }
        }
    },
    {
        "changes": {
            "col-1": 1
        },
        "timeout": 0.027542341666666664,
        "raw": {
            "col-1": {
                "pinValue": 1,
                "ticks": 13,
                "event": {
                    "deltaTime": 13,
                    "type": "channel",
                    "subtype": "noteOn",
                    "channel": 6,
                    "noteNumber": 61,
                    "velocity": 95,
                    "lightChannels": [
                        3
                    ]
                }
            }
        }
    },
    {
        "changes": {
            "col-1": 0
        },
        "timeout": 0.09745751666666666,
        "raw": {
            "col-1": {
                "pinValue": 0,
                "ticks": 0,
                "event": {
                    "deltaTime": 0,
                    "type": "channel",
                    "subtype": "noteOff",
                    "channel": 6,
                    "noteNumber": 61,
                    "velocity": 0,
                    "lightChannels": [
                        3
                    ]
                }
            }
        }
    },
    {
        "changes": {
            "garden": 1,
            "tree": 1
        },
        "timeout": 0.008474566666666666,
        "raw": {
            "garden": {
                "pinValue": 1,
                "ticks": 8,
                "event": {
                    "deltaTime": 8,
                    "type": "channel",
                    "subtype": "noteOn",
                    "channel": 6,
                    "noteNumber": 57,
                    "velocity": 106,
                    "lightChannels": [
                        8,
                        9
                    ]
                }
            },
            "tree": {
                "pinValue": 1,
                "ticks": 8,
                "event": {
                    "deltaTime": 8,
                    "type": "channel",
                    "subtype": "noteOn",
                    "channel": 6,
                    "noteNumber": 57,
                    "velocity": 106,
                    "lightChannels": [
                        8,
                        9
                    ]
                }
            }
        }
    },
    {
        "changes": {
            "garage": 0,
            "top-right": 0,
            "bottom-right": 0
        },
        "timeout": 0.05296604166666666,
        "raw": {
            "garage": {
                "pinValue": 0,
                "ticks": 9,
                "event": {
                    "deltaTime": 9,
                    "type": "channel",
                    "subtype": "noteOff",
                    "channel": 8,
                    "noteNumber": 55,
                    "velocity": 0,
                    "lightChannels": [
                        0,
                        1,
                        2
                    ]
                }
            },
            "top-right": {
                "pinValue": 0,
                "ticks": 9,
                "event": {
                    "deltaTime": 9,
                    "type": "channel",
                    "subtype": "noteOff",
                    "channel": 8,
                    "noteNumber": 55,
                    "velocity": 0,
                    "lightChannels": [
                        0,
                        1,
                        2
                    ]
                }
            },
            "bottom-right": {
                "pinValue": 0,
                "ticks": 9,
                "event": {
                    "deltaTime": 9,
                    "type": "channel",
                    "subtype": "noteOff",
                    "channel": 8,
                    "noteNumber": 55,
                    "velocity": 0,
                    "lightChannels": [
                        0,
                        1,
                        2
                    ]
                }
            }
        }
    },
    {
        "changes": {
            "garden": 0,
            "tree": 0
        },
        "timeout": 0.030720304166666663,
        "raw": {
            "garden": {
                "pinValue": 0,
                "ticks": 7,
                "event": {
                    "deltaTime": 7,
                    "type": "channel",
                    "subtype": "noteOff",
                    "channel": 6,
                    "noteNumber": 57,
                    "velocity": 0,
                    "lightChannels": [
                        8,
                        9
                    ]
                }
            },
            "tree": {
                "pinValue": 0,
                "ticks": 7,
                "event": {
                    "deltaTime": 7,
                    "type": "channel",
                    "subtype": "noteOff",
                    "channel": 6,
                    "noteNumber": 57,
                    "velocity": 0,
                    "lightChannels": [
                        8,
                        9
                    ]
                }
            }
        }
    },
    {
        "changes": {
            "col-2": 1
        },
        "timeout": 0.158898125,
        "raw": {
            "col-2": {
                "pinValue": 1,
                "ticks": 137,
                "event": {
                    "deltaTime": 137,
                    "type": "channel",
                    "subtype": "noteOn",
                    "channel": 4,
                    "noteNumber": 69,
                    "velocity": 126,
                    "lightChannels": [
                        4
                    ]
                }
            }
        }
    },
    {
        "changes": {
            "garage": 1,
            "top-right": 1,
            "bottom-right": 1
        },
        "timeout": 0.010593208333333333,
        "raw": {
            "garage": {
                "pinValue": 1,
                "ticks": 6,
                "event": {
                    "deltaTime": 6,
                    "type": "channel",
                    "subtype": "noteOn",
                    "channel": 8,
                    "noteNumber": 54,
                    "velocity": 101,
                    "lightChannels": [
                        0,
                        1,
                        2
                    ]
                }
            },
            "top-right": {
                "pinValue": 1,
                "ticks": 6,
                "event": {
                    "deltaTime": 6,
                    "type": "channel",
                    "subtype": "noteOn",
                    "channel": 8,
                    "noteNumber": 54,
                    "velocity": 101,
                    "lightChannels": [
                        0,
                        1,
                        2
                    ]
                }
            },
            "bottom-right": {
                "pinValue": 1,
                "ticks": 6,
                "event": {
                    "deltaTime": 6,
                    "type": "channel",
                    "subtype": "noteOn",
                    "channel": 8,
                    "noteNumber": 54,
                    "velocity": 101,
                    "lightChannels": [
                        0,
                        1,
                        2
                    ]
                }
            }
        }
    },
    {
        "changes": {
            "window": 1,
            "outline": 1
        },
        "timeout": 0.006355924999999999,
        "raw": {
            "window": {
                "pinValue": 1,
                "ticks": 6,
                "event": {
                    "deltaTime": 6,
                    "type": "channel",
                    "subtype": "noteOn",
                    "channel": 9,
                    "noteNumber": 54,
                    "velocity": 81,
                    "lightChannels": [
                        6,
                        7
                    ]
                }
            },
            "outline": {
                "pinValue": 1,
                "ticks": 6,
                "event": {
                    "deltaTime": 6,
                    "type": "channel",
                    "subtype": "noteOn",
                    "channel": 9,
                    "noteNumber": 54,
                    "velocity": 81,
                    "lightChannels": [
                        6,
                        7
                    ]
                }
            }
        }
    },
    {
        "changes": {
            "window": 0,
            "outline": 0
        },
        "timeout": 0.056144004166666664,
        "raw": {
            "window": {
                "pinValue": 0,
                "ticks": 33,
                "event": {
                    "deltaTime": 33,
                    "type": "channel",
                    "subtype": "noteOff",
                    "channel": 9,
                    "noteNumber": 54,
                    "velocity": 0,
                    "lightChannels": [
                        6,
                        7
                    ]
                }
            },
            "outline": {
                "pinValue": 0,
                "ticks": 33,
                "event": {
                    "deltaTime": 33,
                    "type": "channel",
                    "subtype": "noteOff",
                    "channel": 9,
                    "noteNumber": 54,
                    "velocity": 0,
                    "lightChannels": [
                        6,
                        7
                    ]
                }
            }
        }
    },
    {
        "changes": {
            "col-2": 0
        },
        "timeout": 0.013771170833333332,
        "raw": {
            "col-2": {
                "pinValue": 0,
                "ticks": 13,
                "event": {
                    "deltaTime": 13,
                    "type": "channel",
                    "subtype": "noteOff",
                    "channel": 4,
                    "noteNumber": 69,
                    "velocity": 0,
                    "lightChannels": [
                        4
                    ]
                }
            }
        }
    },
    {
        "changes": {
            "window": 1,
            "outline": 1
        },
        "timeout": 0.18220318333333332,
        "raw": {
            "window": {
                "pinValue": 1,
                "ticks": 2,
                "event": {
                    "deltaTime": 2,
                    "type": "channel",
                    "subtype": "noteOn",
                    "channel": 9,
                    "noteNumber": 54,
                    "velocity": 77,
                    "lightChannels": [
                        6,
                        7
                    ]
                }
            },
            "outline": {
                "pinValue": 1,
                "ticks": 2,
                "event": {
                    "deltaTime": 2,
                    "type": "channel",
                    "subtype": "noteOn",
                    "channel": 9,
                    "noteNumber": 54,
                    "velocity": 77,
                    "lightChannels": [
                        6,
                        7
                    ]
                }
            }
        }
    },
    {
        "changes": {
            "col-3": 1
        },
        "timeout": 0.0095338875,
        "raw": {
            "col-3": {
                "pinValue": 1,
                "ticks": 9,
                "event": {
                    "deltaTime": 9,
                    "type": "channel",
                    "subtype": "noteOn",
                    "channel": 4,
                    "noteNumber": 71,
                    "velocity": 121,
                    "lightChannels": [
                        5
                    ]
                }
            }
        }
    },
    {
        "changes": {
            "window": 0,
            "outline": 0
        },
        "timeout": 0.04978807916666666,
        "raw": {
            "window": {
                "pinValue": 0,
                "ticks": 45,
                "event": {
                    "deltaTime": 45,
                    "type": "channel",
                    "subtype": "noteOff",
                    "channel": 9,
                    "noteNumber": 54,
                    "velocity": 0,
                    "lightChannels": [
                        6,
                        7
                    ]
                }
            },
            "outline": {
                "pinValue": 0,
                "ticks": 45,
                "event": {
                    "deltaTime": 45,
                    "type": "channel",
                    "subtype": "noteOff",
                    "channel": 9,
                    "noteNumber": 54,
                    "velocity": 0,
                    "lightChannels": [
                        6,
                        7
                    ]
                }
            }
        }
    },
    {
        "changes": {
            "col-3": 0
        },
        "timeout": 0.047669437499999995,
        "raw": {
            "col-3": {
                "pinValue": 0,
                "ticks": 8,
                "event": {
                    "deltaTime": 8,
                    "type": "channel",
                    "subtype": "noteOff",
                    "channel": 4,
                    "noteNumber": 71,
                    "velocity": 0,
                    "lightChannels": [
                        5
                    ]
                }
            }
        }
    },
    {
        "changes": {
            "garage": 0,
            "top-right": 0,
            "bottom-right": 0
        },
        "timeout": 0.10169479999999999,
        "raw": {
            "garage": {
                "pinValue": 0,
                "ticks": 0,
                "event": {
                    "deltaTime": 0,
                    "type": "channel",
                    "subtype": "noteOff",
                    "channel": 8,
                    "noteNumber": 54,
                    "velocity": 0,
                    "lightChannels": [
                        0,
                        1,
                        2
                    ]
                }
            },
            "top-right": {
                "pinValue": 0,
                "ticks": 0,
                "event": {
                    "deltaTime": 0,
                    "type": "channel",
                    "subtype": "noteOff",
                    "channel": 8,
                    "noteNumber": 54,
                    "velocity": 0,
                    "lightChannels": [
                        0,
                        1,
                        2
                    ]
                }
            },
            "bottom-right": {
                "pinValue": 0,
                "ticks": 0,
                "event": {
                    "deltaTime": 0,
                    "type": "channel",
                    "subtype": "noteOff",
                    "channel": 8,
                    "noteNumber": 54,
                    "velocity": 0,
                    "lightChannels": [
                        0,
                        1,
                        2
                    ]
                }
            }
        }
    },
    {
        "changes": {
            "col-2": 1,
            "garage": 1,
            "top-right": 1,
            "bottom-right": 1
        },
        "timeout": 0.044491474999999996,
        "raw": {
            "col-2": {
                "pinValue": 1,
                "ticks": 2,
                "event": {
                    "deltaTime": 2,
                    "type": "channel",
                    "subtype": "noteOn",
                    "channel": 4,
                    "noteNumber": 69,
                    "velocity": 126,
                    "lightChannels": [
                        4
                    ]
                }
            },
            "garage": {
                "pinValue": 1,
                "ticks": 0,
                "event": {
                    "deltaTime": 0,
                    "type": "channel",
                    "subtype": "noteOn",
                    "channel": 8,
                    "noteNumber": 53,
                    "velocity": 111,
                    "lightChannels": [
                        0,
                        1,
                        2
                    ]
                }
            },
            "top-right": {
                "pinValue": 1,
                "ticks": 0,
                "event": {
                    "deltaTime": 0,
                    "type": "channel",
                    "subtype": "noteOn",
                    "channel": 8,
                    "noteNumber": 53,
                    "velocity": 111,
                    "lightChannels": [
                        0,
                        1,
                        2
                    ]
                }
            },
            "bottom-right": {
                "pinValue": 1,
                "ticks": 0,
                "event": {
                    "deltaTime": 0,
                    "type": "channel",
                    "subtype": "noteOn",
                    "channel": 8,
                    "noteNumber": 53,
                    "velocity": 111,
                    "lightChannels": [
                        0,
                        1,
                        2
                    ]
                }
            }
        }
    },
    {
        "changes": {
            "window": 1,
            "outline": 1
        },
        "timeout": 0.006355924999999999,
        "raw": {
            "window": {
                "pinValue": 1,
                "ticks": 3,
                "event": {
                    "deltaTime": 3,
                    "type": "channel",
                    "subtype": "noteOn",
                    "channel": 9,
                    "noteNumber": 54,
                    "velocity": 81,
                    "lightChannels": [
                        6,
                        7
                    ]
                }
            },
            "outline": {
                "pinValue": 1,
                "ticks": 3,
                "event": {
                    "deltaTime": 3,
                    "type": "channel",
                    "subtype": "noteOn",
                    "channel": 9,
                    "noteNumber": 54,
                    "velocity": 81,
                    "lightChannels": [
                        6,
                        7
                    ]
                }
            }
        }
    },
    {
        "changes": {
            "window": 0,
            "outline": 0
        },
        "timeout": 0.06038128749999999,
        "raw": {
            "window": {
                "pinValue": 0,
                "ticks": 57,
                "event": {
                    "deltaTime": 57,
                    "type": "channel",
                    "subtype": "noteOff",
                    "channel": 9,
                    "noteNumber": 54,
                    "velocity": 0,
                    "lightChannels": [
                        6,
                        7
                    ]
                }
            },
            "outline": {
                "pinValue": 0,
                "ticks": 57,
                "event": {
                    "deltaTime": 57,
                    "type": "channel",
                    "subtype": "noteOff",
                    "channel": 9,
                    "noteNumber": 54,
                    "velocity": 0,
                    "lightChannels": [
                        6,
                        7
                    ]
                }
            }
        }
    },
    {
        "changes": {
            "col-2": 0
        },
        "timeout": 0.0158898125,
        "raw": {
            "col-2": {
                "pinValue": 0,
                "ticks": 15,
                "event": {
                    "deltaTime": 15,
                    "type": "channel",
                    "subtype": "noteOff",
                    "channel": 4,
                    "noteNumber": 69,
                    "velocity": 0,
                    "lightChannels": [
                        4
                    ]
                }
            }
        }
    },
    {
        "changes": {
            "col-1": 1
        },
        "timeout": 0.02648302083333333,
        "raw": {
            "col-1": {
                "pinValue": 1,
                "ticks": 2,
                "event": {
                    "deltaTime": 2,
                    "type": "channel",
                    "subtype": "noteOn",
                    "channel": 4,
                    "noteNumber": 65,
                    "velocity": 118,
                    "lightChannels": [
                        3
                    ]
                }
            }
        }
    },
    {
        "changes": {
            "col-1": 0
        },
        "timeout": 0.08792362916666666,
        "raw": {
            "col-1": {
                "pinValue": 0,
                "ticks": 57,
                "event": {
                    "deltaTime": 57,
                    "type": "channel",
                    "subtype": "noteOff",
                    "channel": 4,
                    "noteNumber": 65,
                    "velocity": 0,
                    "lightChannels": [
                        3
                    ]
                }
            }
        }
    },
    {
        "changes": {
            "window": 1,
            "outline": 1
        },
        "timeout": 0.03707622916666666,
        "raw": {
            "window": {
                "pinValue": 1,
                "ticks": 18,
                "event": {
                    "deltaTime": 18,
                    "type": "channel",
                    "subtype": "noteOn",
                    "channel": 9,
                    "noteNumber": 54,
                    "velocity": 83,
                    "lightChannels": [
                        6,
                        7
                    ]
                }
            },
            "outline": {
                "pinValue": 1,
                "ticks": 18,
                "event": {
                    "deltaTime": 18,
                    "type": "channel",
                    "subtype": "noteOn",
                    "channel": 9,
                    "noteNumber": 54,
                    "velocity": 83,
                    "lightChannels": [
                        6,
                        7
                    ]
                }
            }
        }
    },
    {
        "changes": {
            "garden": 1,
            "tree": 1
        },
        "timeout": 0.0010593208333333332,
        "raw": {
            "garden": {
                "pinValue": 1,
                "ticks": 1,
                "event": {
                    "deltaTime": 1,
                    "type": "channel",
                    "subtype": "noteOn",
                    "channel": 4,
                    "noteNumber": 62,
                    "velocity": 111,
                    "lightChannels": [
                        8,
                        9
                    ]
                }
            },
            "tree": {
                "pinValue": 1,
                "ticks": 1,
                "event": {
                    "deltaTime": 1,
                    "type": "channel",
                    "subtype": "noteOn",
                    "channel": 4,
                    "noteNumber": 62,
                    "velocity": 111,
                    "lightChannels": [
                        8,
                        9
                    ]
                }
            }
        }
    },
    {
        "changes": {
            "window": 0,
            "outline": 0
        },
        "timeout": 0.059321966666666656,
        "raw": {
            "window": {
                "pinValue": 0,
                "ticks": 21,
                "event": {
                    "deltaTime": 21,
                    "type": "channel",
                    "subtype": "noteOff",
                    "channel": 9,
                    "noteNumber": 54,
                    "velocity": 0,
                    "lightChannels": [
                        6,
                        7
                    ]
                }
            },
            "outline": {
                "pinValue": 0,
                "ticks": 21,
                "event": {
                    "deltaTime": 21,
                    "type": "channel",
                    "subtype": "noteOff",
                    "channel": 9,
                    "noteNumber": 54,
                    "velocity": 0,
                    "lightChannels": [
                        6,
                        7
                    ]
                }
            }
        }
    },
    {
        "changes": {
            "garden": 0,
            "tree": 0
        },
        "timeout": 0.05932196666666666,
        "raw": {
            "garden": {
                "pinValue": 0,
                "ticks": 16,
                "event": {
                    "deltaTime": 16,
                    "type": "channel",
                    "subtype": "noteOff",
                    "channel": 4,
                    "noteNumber": 62,
                    "velocity": 0,
                    "lightChannels": [
                        8,
                        9
                    ]
                }
            },
            "tree": {
                "pinValue": 0,
                "ticks": 16,
                "event": {
                    "deltaTime": 16,
                    "type": "channel",
                    "subtype": "noteOff",
                    "channel": 4,
                    "noteNumber": 62,
                    "velocity": 0,
                    "lightChannels": [
                        8,
                        9
                    ]
                }
            }
        }
    },
    {
        "changes": {
            "garage": 0,
            "top-right": 0,
            "bottom-right": 0
        },
        "timeout": 0.09004227083333333,
        "raw": {
            "garage": {
                "pinValue": 0,
                "ticks": 1,
                "event": {
                    "deltaTime": 1,
                    "type": "channel",
                    "subtype": "noteOff",
                    "channel": 8,
                    "noteNumber": 53,
                    "velocity": 0,
                    "lightChannels": [
                        0,
                        1,
                        2
                    ]
                }
            },
            "top-right": {
                "pinValue": 0,
                "ticks": 1,
                "event": {
                    "deltaTime": 1,
                    "type": "channel",
                    "subtype": "noteOff",
                    "channel": 8,
                    "noteNumber": 53,
                    "velocity": 0,
                    "lightChannels": [
                        0,
                        1,
                        2
                    ]
                }
            },
            "bottom-right": {
                "pinValue": 0,
                "ticks": 1,
                "event": {
                    "deltaTime": 1,
                    "type": "channel",
                    "subtype": "noteOff",
                    "channel": 8,
                    "noteNumber": 53,
                    "velocity": 0,
                    "lightChannels": [
                        0,
                        1,
                        2
                    ]
                }
            }
        }
    },
    {
        "changes": {
            "garage": 1,
            "top-right": 1,
            "bottom-right": 1
        },
        "timeout": 0.05402536249999999,
        "raw": {
            "garage": {
                "pinValue": 1,
                "ticks": 4,
                "event": {
                    "deltaTime": 4,
                    "type": "channel",
                    "subtype": "noteOn",
                    "channel": 8,
                    "noteNumber": 52,
                    "velocity": 108,
                    "lightChannels": [
                        0,
                        1,
                        2
                    ]
                }
            },
            "top-right": {
                "pinValue": 1,
                "ticks": 4,
                "event": {
                    "deltaTime": 4,
                    "type": "channel",
                    "subtype": "noteOn",
                    "channel": 8,
                    "noteNumber": 52,
                    "velocity": 108,
                    "lightChannels": [
                        0,
                        1,
                        2
                    ]
                }
            },
            "bottom-right": {
                "pinValue": 1,
                "ticks": 4,
                "event": {
                    "deltaTime": 4,
                    "type": "channel",
                    "subtype": "noteOn",
                    "channel": 8,
                    "noteNumber": 52,
                    "velocity": 108,
                    "lightChannels": [
                        0,
                        1,
                        2
                    ]
                }
            }
        }
    },
    {
        "changes": {
            "window": 1,
            "outline": 1
        },
        "timeout": 0.0010593208333333332,
        "raw": {
            "window": {
                "pinValue": 1,
                "ticks": 1,
                "event": {
                    "deltaTime": 1,
                    "type": "channel",
                    "subtype": "noteOn",
                    "channel": 9,
                    "noteNumber": 54,
                    "velocity": 85,
                    "lightChannels": [
                        6,
                        7
                    ]
                }
            },
            "outline": {
                "pinValue": 1,
                "ticks": 1,
                "event": {
                    "deltaTime": 1,
                    "type": "channel",
                    "subtype": "noteOn",
                    "channel": 9,
                    "noteNumber": 54,
                    "velocity": 85,
                    "lightChannels": [
                        6,
                        7
                    ]
                }
            }
        }
    },
    {
        "changes": {
            "col-2": 1
        },
        "timeout": 0.015889812499999996,
        "raw": {
            "col-2": {
                "pinValue": 1,
                "ticks": 4,
                "event": {
                    "deltaTime": 4,
                    "type": "channel",
                    "subtype": "noteOn",
                    "channel": 4,
                    "noteNumber": 67,
                    "velocity": 126,
                    "lightChannels": [
                        4
                    ]
                }
            }
        }
    },
    {
        "changes": {
            "window": 0,
            "outline": 0
        },
        "timeout": 0.039194870833333326,
        "raw": {
            "window": {
                "pinValue": 0,
                "ticks": 23,
                "event": {
                    "deltaTime": 23,
                    "type": "channel",
                    "subtype": "noteOff",
                    "channel": 9,
                    "noteNumber": 54,
                    "velocity": 0,
                    "lightChannels": [
                        6,
                        7
                    ]
                }
            },
            "outline": {
                "pinValue": 0,
                "ticks": 23,
                "event": {
                    "deltaTime": 23,
                    "type": "channel",
                    "subtype": "noteOff",
                    "channel": 9,
                    "noteNumber": 54,
                    "velocity": 0,
                    "lightChannels": [
                        6,
                        7
                    ]
                }
            }
        }
    },
    {
        "changes": {
            "col-2": 0
        },
        "timeout": 0.056144004166666664,
        "raw": {
            "col-2": {
                "pinValue": 0,
                "ticks": 11,
                "event": {
                    "deltaTime": 11,
                    "type": "channel",
                    "subtype": "noteOff",
                    "channel": 4,
                    "noteNumber": 67,
                    "velocity": 0,
                    "lightChannels": [
                        4
                    ]
                }
            }
        }
    },
    {
        "changes": {
            "window": 1,
            "outline": 1
        },
        "timeout": 0.14300831249999998,
        "raw": {
            "window": {
                "pinValue": 1,
                "ticks": 20,
                "event": {
                    "deltaTime": 20,
                    "type": "channel",
                    "subtype": "noteOn",
                    "channel": 9,
                    "noteNumber": 54,
                    "velocity": 77,
                    "lightChannels": [
                        6,
                        7
                    ]
                }
            },
            "outline": {
                "pinValue": 1,
                "ticks": 20,
                "event": {
                    "deltaTime": 20,
                    "type": "channel",
                    "subtype": "noteOn",
                    "channel": 9,
                    "noteNumber": 54,
                    "velocity": 77,
                    "lightChannels": [
                        6,
                        7
                    ]
                }
            }
        }
    },
    {
        "changes": {
            "col-3": 1
        },
        "timeout": 0.022245737499999998,
        "raw": {
            "col-3": {
                "pinValue": 1,
                "ticks": 5,
                "event": {
                    "deltaTime": 5,
                    "type": "channel",
                    "subtype": "noteOn",
                    "channel": 4,
                    "noteNumber": 69,
                    "velocity": 125,
                    "lightChannels": [
                        5
                    ]
                }
            }
        }
    },
    {
        "changes": {
            "window": 0,
            "outline": 0
        },
        "timeout": 0.04237283333333333,
        "raw": {
            "window": {
                "pinValue": 0,
                "ticks": 25,
                "event": {
                    "deltaTime": 25,
                    "type": "channel",
                    "subtype": "noteOff",
                    "channel": 9,
                    "noteNumber": 54,
                    "velocity": 0,
                    "lightChannels": [
                        6,
                        7
                    ]
                }
            },
            "outline": {
                "pinValue": 0,
                "ticks": 25,
                "event": {
                    "deltaTime": 25,
                    "type": "channel",
                    "subtype": "noteOff",
                    "channel": 9,
                    "noteNumber": 54,
                    "velocity": 0,
                    "lightChannels": [
                        6,
                        7
                    ]
                }
            }
        }
    },
    {
        "changes": {
            "col-3": 0
        },
        "timeout": 0.045550795833333324,
        "raw": {
            "col-3": {
                "pinValue": 0,
                "ticks": 16,
                "event": {
                    "deltaTime": 16,
                    "type": "channel",
                    "subtype": "noteOff",
                    "channel": 4,
                    "noteNumber": 69,
                    "velocity": 0,
                    "lightChannels": [
                        5
                    ]
                }
            }
        }
    },
    {
        "changes": {
            "garage": 0,
            "top-right": 0,
            "bottom-right": 0
        },
        "timeout": 0.08474566666666666,
        "raw": {
            "garage": {
                "pinValue": 0,
                "ticks": 8,
                "event": {
                    "deltaTime": 8,
                    "type": "channel",
                    "subtype": "noteOff",
                    "channel": 8,
                    "noteNumber": 52,
                    "velocity": 0,
                    "lightChannels": [
                        0,
                        1,
                        2
                    ]
                }
            },
            "top-right": {
                "pinValue": 0,
                "ticks": 8,
                "event": {
                    "deltaTime": 8,
                    "type": "channel",
                    "subtype": "noteOff",
                    "channel": 8,
                    "noteNumber": 52,
                    "velocity": 0,
                    "lightChannels": [
                        0,
                        1,
                        2
                    ]
                }
            },
            "bottom-right": {
                "pinValue": 0,
                "ticks": 8,
                "event": {
                    "deltaTime": 8,
                    "type": "channel",
                    "subtype": "noteOff",
                    "channel": 8,
                    "noteNumber": 52,
                    "velocity": 0,
                    "lightChannels": [
                        0,
                        1,
                        2
                    ]
                }
            }
        }
    },
    {
        "changes": {
            "garage": 1,
            "top-right": 1,
            "bottom-right": 1
        },
        "timeout": 0.05614400416666667,
        "raw": {
            "garage": {
                "pinValue": 1,
                "ticks": 0,
                "event": {
                    "deltaTime": 0,
                    "type": "channel",
                    "subtype": "noteOn",
                    "channel": 8,
                    "noteNumber": 53,
                    "velocity": 106,
                    "lightChannels": [
                        0,
                        1,
                        2
                    ]
                }
            },
            "top-right": {
                "pinValue": 1,
                "ticks": 0,
                "event": {
                    "deltaTime": 0,
                    "type": "channel",
                    "subtype": "noteOn",
                    "channel": 8,
                    "noteNumber": 53,
                    "velocity": 106,
                    "lightChannels": [
                        0,
                        1,
                        2
                    ]
                }
            },
            "bottom-right": {
                "pinValue": 1,
                "ticks": 0,
                "event": {
                    "deltaTime": 0,
                    "type": "channel",
                    "subtype": "noteOn",
                    "channel": 8,
                    "noteNumber": 53,
                    "velocity": 106,
                    "lightChannels": [
                        0,
                        1,
                        2
                    ]
                }
            }
        }
    },
    {
        "changes": {
            "window": 1,
            "outline": 1
        },
        "timeout": 0.006355924999999999,
        "raw": {
            "window": {
                "pinValue": 1,
                "ticks": 4,
                "event": {
                    "deltaTime": 4,
                    "type": "channel",
                    "subtype": "noteOn",
                    "channel": 9,
                    "noteNumber": 54,
                    "velocity": 80,
                    "lightChannels": [
                        6,
                        7
                    ]
                }
            },
            "outline": {
                "pinValue": 1,
                "ticks": 4,
                "event": {
                    "deltaTime": 4,
                    "type": "channel",
                    "subtype": "noteOn",
                    "channel": 9,
                    "noteNumber": 54,
                    "velocity": 80,
                    "lightChannels": [
                        6,
                        7
                    ]
                }
            }
        }
    },
    {
        "changes": {
            "col-2": 1
        },
        "timeout": 0.01694913333333333,
        "raw": {
            "col-2": {
                "pinValue": 1,
                "ticks": 6,
                "event": {
                    "deltaTime": 6,
                    "type": "channel",
                    "subtype": "noteOn",
                    "channel": 4,
                    "noteNumber": 67,
                    "velocity": 125,
                    "lightChannels": [
                        4
                    ]
                }
            }
        }
    },
    {
        "changes": {
            "window": 0,
            "outline": 0
        },
        "timeout": 0.04343215416666667,
        "raw": {
            "window": {
                "pinValue": 0,
                "ticks": 40,
                "event": {
                    "deltaTime": 40,
                    "type": "channel",
                    "subtype": "noteOff",
                    "channel": 9,
                    "noteNumber": 54,
                    "velocity": 0,
                    "lightChannels": [
                        6,
                        7
                    ]
                }
            },
            "outline": {
                "pinValue": 0,
                "ticks": 40,
                "event": {
                    "deltaTime": 40,
                    "type": "channel",
                    "subtype": "noteOff",
                    "channel": 9,
                    "noteNumber": 54,
                    "velocity": 0,
                    "lightChannels": [
                        6,
                        7
                    ]
                }
            }
        }
    },
    {
        "changes": {
            "col-2": 0
        },
        "timeout": 0.041313512499999996,
        "raw": {
            "col-2": {
                "pinValue": 0,
                "ticks": 0,
                "event": {
                    "deltaTime": 0,
                    "type": "channel",
                    "subtype": "noteOff",
                    "channel": 4,
                    "noteNumber": 67,
                    "velocity": 0,
                    "lightChannels": [
                        4
                    ]
                }
            }
        }
    },
    {
        "changes": {
            "col-1": 1
        },
        "timeout": 0.02966098333333333,
        "raw": {
            "col-1": {
                "pinValue": 1,
                "ticks": 13,
                "event": {
                    "deltaTime": 13,
                    "type": "channel",
                    "subtype": "noteOn",
                    "channel": 4,
                    "noteNumber": 63,
                    "velocity": 106,
                    "lightChannels": [
                        3
                    ]
                }
            }
        }
    },
    {
        "changes": {
            "window": 1,
            "outline": 1
        },
        "timeout": 0.11122868749999999,
        "raw": {
            "window": {
                "pinValue": 1,
                "ticks": 8,
                "event": {
                    "deltaTime": 8,
                    "type": "channel",
                    "subtype": "noteOn",
                    "channel": 9,
                    "noteNumber": 54,
                    "velocity": 85,
                    "lightChannels": [
                        6,
                        7
                    ]
                }
            },
            "outline": {
                "pinValue": 1,
                "ticks": 8,
                "event": {
                    "deltaTime": 8,
                    "type": "channel",
                    "subtype": "noteOn",
                    "channel": 9,
                    "noteNumber": 54,
                    "velocity": 85,
                    "lightChannels": [
                        6,
                        7
                    ]
                }
            }
        }
    },
    {
        "changes": {
            "col-1": 0,
            "garden": 1,
            "tree": 1
        },
        "timeout": 0.0010593208333333332,
        "raw": {
            "col-1": {
                "pinValue": 0,
                "ticks": 1,
                "event": {
                    "deltaTime": 1,
                    "type": "channel",
                    "subtype": "noteOff",
                    "channel": 4,
                    "noteNumber": 63,
                    "velocity": 0,
                    "lightChannels": [
                        3
                    ]
                }
            },
            "garden": {
                "pinValue": 1,
                "ticks": 0,
                "event": {
                    "deltaTime": 0,
                    "type": "channel",
                    "subtype": "noteOn",
                    "channel": 4,
                    "noteNumber": 60,
                    "velocity": 113,
                    "lightChannels": [
                        8,
                        9
                    ]
                }
            },
            "tree": {
                "pinValue": 1,
                "ticks": 0,
                "event": {
                    "deltaTime": 0,
                    "type": "channel",
                    "subtype": "noteOn",
                    "channel": 4,
                    "noteNumber": 60,
                    "velocity": 113,
                    "lightChannels": [
                        8,
                        9
                    ]
                }
            }
        }
    },
    {
        "changes": {
            "window": 0,
            "outline": 0
        },
        "timeout": 0.05402536249999999,
        "raw": {
            "window": {
                "pinValue": 0,
                "ticks": 39,
                "event": {
                    "deltaTime": 39,
                    "type": "channel",
                    "subtype": "noteOff",
                    "channel": 9,
                    "noteNumber": 54,
                    "velocity": 0,
                    "lightChannels": [
                        6,
                        7
                    ]
                }
            },
            "outline": {
                "pinValue": 0,
                "ticks": 39,
                "event": {
                    "deltaTime": 39,
                    "type": "channel",
                    "subtype": "noteOff",
                    "channel": 9,
                    "noteNumber": 54,
                    "velocity": 0,
                    "lightChannels": [
                        6,
                        7
                    ]
                }
            }
        }
    },
    {
        "changes": {
            "garden": 0,
            "tree": 0
        },
        "timeout": 0.045550795833333324,
        "raw": {
            "garden": {
                "pinValue": 0,
                "ticks": 9,
                "event": {
                    "deltaTime": 9,
                    "type": "channel",
                    "subtype": "noteOff",
                    "channel": 4,
                    "noteNumber": 60,
                    "velocity": 0,
                    "lightChannels": [
                        8,
                        9
                    ]
                }
            },
            "tree": {
                "pinValue": 0,
                "ticks": 9,
                "event": {
                    "deltaTime": 9,
                    "type": "channel",
                    "subtype": "noteOff",
                    "channel": 4,
                    "noteNumber": 60,
                    "velocity": 0,
                    "lightChannels": [
                        8,
                        9
                    ]
                }
            }
        }
    },
    {
        "changes": {
            "garage": 0,
            "top-right": 0,
            "bottom-right": 0
        },
        "timeout": 0.05084739999999999,
        "raw": {
            "garage": {
                "pinValue": 0,
                "ticks": 34,
                "event": {
                    "deltaTime": 34,
                    "type": "channel",
                    "subtype": "noteOff",
                    "channel": 8,
                    "noteNumber": 53,
                    "velocity": 0,
                    "lightChannels": [
                        0,
                        1,
                        2
                    ]
                }
            },
            "top-right": {
                "pinValue": 0,
                "ticks": 34,
                "event": {
                    "deltaTime": 34,
                    "type": "channel",
                    "subtype": "noteOff",
                    "channel": 8,
                    "noteNumber": 53,
                    "velocity": 0,
                    "lightChannels": [
                        0,
                        1,
                        2
                    ]
                }
            },
            "bottom-right": {
                "pinValue": 0,
                "ticks": 34,
                "event": {
                    "deltaTime": 34,
                    "type": "channel",
                    "subtype": "noteOff",
                    "channel": 8,
                    "noteNumber": 53,
                    "velocity": 0,
                    "lightChannels": [
                        0,
                        1,
                        2
                    ]
                }
            }
        }
    },
    {
        "changes": {
            "window": 1,
            "outline": 1
        },
        "timeout": 0.12076257499999998,
        "raw": {
            "window": {
                "pinValue": 1,
                "ticks": 0,
                "event": {
                    "deltaTime": 0,
                    "type": "channel",
                    "subtype": "noteOn",
                    "channel": 9,
                    "noteNumber": 54,
                    "velocity": 101,
                    "lightChannels": [
                        6,
                        7
                    ]
                }
            },
            "outline": {
                "pinValue": 1,
                "ticks": 0,
                "event": {
                    "deltaTime": 0,
                    "type": "channel",
                    "subtype": "noteOn",
                    "channel": 9,
                    "noteNumber": 54,
                    "velocity": 101,
                    "lightChannels": [
                        6,
                        7
                    ]
                }
            }
        }
    },
    {
        "changes": {
            "garage": 1,
            "top-right": 1,
            "bottom-right": 1
        },
        "timeout": 0.025423699999999997,
        "raw": {
            "garage": {
                "pinValue": 1,
                "ticks": 10,
                "event": {
                    "deltaTime": 10,
                    "type": "channel",
                    "subtype": "noteOn",
                    "channel": 8,
                    "noteNumber": 53,
                    "velocity": 104,
                    "lightChannels": [
                        0,
                        1,
                        2
                    ]
                }
            },
            "top-right": {
                "pinValue": 1,
                "ticks": 10,
                "event": {
                    "deltaTime": 10,
                    "type": "channel",
                    "subtype": "noteOn",
                    "channel": 8,
                    "noteNumber": 53,
                    "velocity": 104,
                    "lightChannels": [
                        0,
                        1,
                        2
                    ]
                }
            },
            "bottom-right": {
                "pinValue": 1,
                "ticks": 10,
                "event": {
                    "deltaTime": 10,
                    "type": "channel",
                    "subtype": "noteOn",
                    "channel": 8,
                    "noteNumber": 53,
                    "velocity": 104,
                    "lightChannels": [
                        0,
                        1,
                        2
                    ]
                }
            }
        }
    },
    {
        "changes": {
            "window": 0,
            "outline": 0
        },
        "timeout": 0.050847399999999994,
        "raw": {
            "window": {
                "pinValue": 0,
                "ticks": 41,
                "event": {
                    "deltaTime": 41,
                    "type": "channel",
                    "subtype": "noteOff",
                    "channel": 9,
                    "noteNumber": 54,
                    "velocity": 0,
                    "lightChannels": [
                        6,
                        7
                    ]
                }
            },
            "outline": {
                "pinValue": 0,
                "ticks": 41,
                "event": {
                    "deltaTime": 41,
                    "type": "channel",
                    "subtype": "noteOff",
                    "channel": 9,
                    "noteNumber": 54,
                    "velocity": 0,
                    "lightChannels": [
                        6,
                        7
                    ]
                }
            }
        }
    },
    {
        "changes": {
            "garden": 1,
            "tree": 1
        },
        "timeout": 0.20021163749999996,
        "raw": {
            "garden": {
                "pinValue": 1,
                "ticks": 0,
                "event": {
                    "deltaTime": 0,
                    "type": "channel",
                    "subtype": "noteOn",
                    "channel": 4,
                    "noteNumber": 65,
                    "velocity": 108,
                    "lightChannels": [
                        8,
                        9
                    ]
                }
            },
            "tree": {
                "pinValue": 1,
                "ticks": 0,
                "event": {
                    "deltaTime": 0,
                    "type": "channel",
                    "subtype": "noteOn",
                    "channel": 4,
                    "noteNumber": 65,
                    "velocity": 108,
                    "lightChannels": [
                        8,
                        9
                    ]
                }
            }
        }
    },
    {
        "changes": {
            "garden": 0,
            "tree": 0
        },
        "timeout": 0.09745751666666666,
        "raw": {
            "garden": {
                "pinValue": 0,
                "ticks": 10,
                "event": {
                    "deltaTime": 10,
                    "type": "channel",
                    "subtype": "noteOff",
                    "channel": 4,
                    "noteNumber": 65,
                    "velocity": 0,
                    "lightChannels": [
                        8,
                        9
                    ]
                }
            },
            "tree": {
                "pinValue": 0,
                "ticks": 10,
                "event": {
                    "deltaTime": 10,
                    "type": "channel",
                    "subtype": "noteOff",
                    "channel": 4,
                    "noteNumber": 65,
                    "velocity": 0,
                    "lightChannels": [
                        8,
                        9
                    ]
                }
            }
        }
    },
    {
        "changes": {
            "garden": 1,
            "tree": 1
        },
        "timeout": 0.16949133333333333,
        "raw": {
            "garden": {
                "pinValue": 1,
                "ticks": 16,
                "event": {
                    "deltaTime": 16,
                    "type": "channel",
                    "subtype": "noteOn",
                    "channel": 4,
                    "noteNumber": 65,
                    "velocity": 119,
                    "lightChannels": [
                        8,
                        9
                    ]
                }
            },
            "tree": {
                "pinValue": 1,
                "ticks": 16,
                "event": {
                    "deltaTime": 16,
                    "type": "channel",
                    "subtype": "noteOn",
                    "channel": 4,
                    "noteNumber": 65,
                    "velocity": 119,
                    "lightChannels": [
                        8,
                        9
                    ]
                }
            }
        }
    },
    {
        "changes": {
            "garden": 0,
            "tree": 0
        },
        "timeout": 0.08580498749999999,
        "raw": {
            "garden": {
                "pinValue": 0,
                "ticks": 4,
                "event": {
                    "deltaTime": 4,
                    "type": "channel",
                    "subtype": "noteOff",
                    "channel": 4,
                    "noteNumber": 65,
                    "velocity": 0,
                    "lightChannels": [
                        8,
                        9
                    ]
                }
            },
            "tree": {
                "pinValue": 0,
                "ticks": 4,
                "event": {
                    "deltaTime": 4,
                    "type": "channel",
                    "subtype": "noteOff",
                    "channel": 4,
                    "noteNumber": 65,
                    "velocity": 0,
                    "lightChannels": [
                        8,
                        9
                    ]
                }
            }
        }
    },
    {
        "changes": {
            "garden": 1,
            "tree": 1
        },
        "timeout": 0.15889812499999997,
        "raw": {
            "garden": {
                "pinValue": 1,
                "ticks": 1,
                "event": {
                    "deltaTime": 1,
                    "type": "channel",
                    "subtype": "noteOn",
                    "channel": 4,
                    "noteNumber": 65,
                    "velocity": 118,
                    "lightChannels": [
                        8,
                        9
                    ]
                }
            },
            "tree": {
                "pinValue": 1,
                "ticks": 1,
                "event": {
                    "deltaTime": 1,
                    "type": "channel",
                    "subtype": "noteOn",
                    "channel": 4,
                    "noteNumber": 65,
                    "velocity": 118,
                    "lightChannels": [
                        8,
                        9
                    ]
                }
            }
        }
    },
    {
        "changes": {
            "window": 1,
            "outline": 1
        },
        "timeout": 0.0031779624999999996,
        "raw": {
            "window": {
                "pinValue": 1,
                "ticks": 3,
                "event": {
                    "deltaTime": 3,
                    "type": "channel",
                    "subtype": "noteOn",
                    "channel": 9,
                    "noteNumber": 54,
                    "velocity": 83,
                    "lightChannels": [
                        6,
                        7
                    ]
                }
            },
            "outline": {
                "pinValue": 1,
                "ticks": 3,
                "event": {
                    "deltaTime": 3,
                    "type": "channel",
                    "subtype": "noteOn",
                    "channel": 9,
                    "noteNumber": 54,
                    "velocity": 83,
                    "lightChannels": [
                        6,
                        7
                    ]
                }
            }
        }
    },
    {
        "changes": {
            "window": 0,
            "outline": 0
        },
        "timeout": 0.06249992916666666,
        "raw": {
            "window": {
                "pinValue": 0,
                "ticks": 5,
                "event": {
                    "deltaTime": 5,
                    "type": "channel",
                    "subtype": "noteOff",
                    "channel": 9,
                    "noteNumber": 54,
                    "velocity": 0,
                    "lightChannels": [
                        6,
                        7
                    ]
                }
            },
            "outline": {
                "pinValue": 0,
                "ticks": 5,
                "event": {
                    "deltaTime": 5,
                    "type": "channel",
                    "subtype": "noteOff",
                    "channel": 9,
                    "noteNumber": 54,
                    "velocity": 0,
                    "lightChannels": [
                        6,
                        7
                    ]
                }
            }
        }
    },
    {
        "changes": {
            "garden": 0,
            "tree": 0
        },
        "timeout": 0.022245737499999994,
        "raw": {
            "garden": {
                "pinValue": 0,
                "ticks": 14,
                "event": {
                    "deltaTime": 14,
                    "type": "channel",
                    "subtype": "noteOff",
                    "channel": 4,
                    "noteNumber": 65,
                    "velocity": 0,
                    "lightChannels": [
                        8,
                        9
                    ]
                }
            },
            "tree": {
                "pinValue": 0,
                "ticks": 14,
                "event": {
                    "deltaTime": 14,
                    "type": "channel",
                    "subtype": "noteOff",
                    "channel": 4,
                    "noteNumber": 65,
                    "velocity": 0,
                    "lightChannels": [
                        8,
                        9
                    ]
                }
            }
        }
    },
    {
        "changes": {
            "garden": 1,
            "tree": 1
        },
        "timeout": 0.1663133708333333,
        "raw": {
            "garden": {
                "pinValue": 1,
                "ticks": 10,
                "event": {
                    "deltaTime": 10,
                    "type": "channel",
                    "subtype": "noteOn",
                    "channel": 4,
                    "noteNumber": 65,
                    "velocity": 121,
                    "lightChannels": [
                        8,
                        9
                    ]
                }
            },
            "tree": {
                "pinValue": 1,
                "ticks": 10,
                "event": {
                    "deltaTime": 10,
                    "type": "channel",
                    "subtype": "noteOn",
                    "channel": 4,
                    "noteNumber": 65,
                    "velocity": 121,
                    "lightChannels": [
                        8,
                        9
                    ]
                }
            }
        }
    },
    {
        "changes": {
            "window": 1,
            "outline": 1
        },
        "timeout": 0.0031779624999999996,
        "raw": {
            "window": {
                "pinValue": 1,
                "ticks": 3,
                "event": {
                    "deltaTime": 3,
                    "type": "channel",
                    "subtype": "noteOn",
                    "channel": 9,
                    "noteNumber": 54,
                    "velocity": 90,
                    "lightChannels": [
                        6,
                        7
                    ]
                }
            },
            "outline": {
                "pinValue": 1,
                "ticks": 3,
                "event": {
                    "deltaTime": 3,
                    "type": "channel",
                    "subtype": "noteOn",
                    "channel": 9,
                    "noteNumber": 54,
                    "velocity": 90,
                    "lightChannels": [
                        6,
                        7
                    ]
                }
            }
        }
    },
    {
        "changes": {
            "window": 0,
            "outline": 0
        },
        "timeout": 0.06885585416666666,
        "raw": {
            "window": {
                "pinValue": 0,
                "ticks": 1,
                "event": {
                    "deltaTime": 1,
                    "type": "channel",
                    "subtype": "noteOff",
                    "channel": 9,
                    "noteNumber": 54,
                    "velocity": 0,
                    "lightChannels": [
                        6,
                        7
                    ]
                }
            },
            "outline": {
                "pinValue": 0,
                "ticks": 1,
                "event": {
                    "deltaTime": 1,
                    "type": "channel",
                    "subtype": "noteOff",
                    "channel": 9,
                    "noteNumber": 54,
                    "velocity": 0,
                    "lightChannels": [
                        6,
                        7
                    ]
                }
            }
        }
    },
    {
        "changes": {
            "garden": 0,
            "tree": 0
        },
        "timeout": 0.025423699999999997,
        "raw": {
            "garden": {
                "pinValue": 0,
                "ticks": 5,
                "event": {
                    "deltaTime": 5,
                    "type": "channel",
                    "subtype": "noteOff",
                    "channel": 4,
                    "noteNumber": 65,
                    "velocity": 0,
                    "lightChannels": [
                        8,
                        9
                    ]
                }
            },
            "tree": {
                "pinValue": 0,
                "ticks": 5,
                "event": {
                    "deltaTime": 5,
                    "type": "channel",
                    "subtype": "noteOff",
                    "channel": 4,
                    "noteNumber": 65,
                    "velocity": 0,
                    "lightChannels": [
                        8,
                        9
                    ]
                }
            }
        }
    },
    {
        "changes": {
            "col-1": 1,
            "col-3": 1,
            "garden": 1,
            "tree": 1
        },
        "timeout": 0.13983035,
        "raw": {
            "col-1": {
                "pinValue": 1,
                "ticks": 1,
                "event": {
                    "deltaTime": 1,
                    "type": "channel",
                    "subtype": "noteOn",
                    "channel": 4,
                    "noteNumber": 72,
                    "velocity": 123,
                    "lightChannels": [
                        3,
                        5,
                        8,
                        9
                    ]
                }
            },
            "col-3": {
                "pinValue": 1,
                "ticks": 1,
                "event": {
                    "deltaTime": 1,
                    "type": "channel",
                    "subtype": "noteOn",
                    "channel": 4,
                    "noteNumber": 72,
                    "velocity": 123,
                    "lightChannels": [
                        3,
                        5,
                        8,
                        9
                    ]
                }
            },
            "garden": {
                "pinValue": 1,
                "ticks": 1,
                "event": {
                    "deltaTime": 1,
                    "type": "channel",
                    "subtype": "noteOn",
                    "channel": 4,
                    "noteNumber": 72,
                    "velocity": 123,
                    "lightChannels": [
                        3,
                        5,
                        8,
                        9
                    ]
                }
            },
            "tree": {
                "pinValue": 1,
                "ticks": 1,
                "event": {
                    "deltaTime": 1,
                    "type": "channel",
                    "subtype": "noteOn",
                    "channel": 4,
                    "noteNumber": 72,
                    "velocity": 123,
                    "lightChannels": [
                        3,
                        5,
                        8,
                        9
                    ]
                }
            }
        }
    },
    {
        "changes": {
            "col-1": 0,
            "col-3": 0,
            "garden": 0,
            "tree": 0
        },
        "timeout": 0.10063547916666665,
        "raw": {
            "col-1": {
                "pinValue": 0,
                "ticks": 11,
                "event": {
                    "deltaTime": 11,
                    "type": "channel",
                    "subtype": "noteOff",
                    "channel": 4,
                    "noteNumber": 72,
                    "velocity": 0,
                    "lightChannels": [
                        3,
                        5,
                        8,
                        9
                    ]
                }
            },
            "col-3": {
                "pinValue": 0,
                "ticks": 11,
                "event": {
                    "deltaTime": 11,
                    "type": "channel",
                    "subtype": "noteOff",
                    "channel": 4,
                    "noteNumber": 72,
                    "velocity": 0,
                    "lightChannels": [
                        3,
                        5,
                        8,
                        9
                    ]
                }
            },
            "garden": {
                "pinValue": 0,
                "ticks": 11,
                "event": {
                    "deltaTime": 11,
                    "type": "channel",
                    "subtype": "noteOff",
                    "channel": 4,
                    "noteNumber": 72,
                    "velocity": 0,
                    "lightChannels": [
                        3,
                        5,
                        8,
                        9
                    ]
                }
            },
            "tree": {
                "pinValue": 0,
                "ticks": 11,
                "event": {
                    "deltaTime": 11,
                    "type": "channel",
                    "subtype": "noteOff",
                    "channel": 4,
                    "noteNumber": 72,
                    "velocity": 0,
                    "lightChannels": [
                        3,
                        5,
                        8,
                        9
                    ]
                }
            }
        }
    },
    {
        "changes": {
            "col-1": 1,
            "col-3": 1,
            "garden": 1,
            "tree": 1
        },
        "timeout": 0.15677948333333333,
        "raw": {
            "col-1": {
                "pinValue": 1,
                "ticks": 0,
                "event": {
                    "deltaTime": 0,
                    "type": "channel",
                    "subtype": "noteOn",
                    "channel": 4,
                    "noteNumber": 72,
                    "velocity": 121,
                    "lightChannels": [
                        3,
                        5,
                        8,
                        9
                    ]
                }
            },
            "col-3": {
                "pinValue": 1,
                "ticks": 0,
                "event": {
                    "deltaTime": 0,
                    "type": "channel",
                    "subtype": "noteOn",
                    "channel": 4,
                    "noteNumber": 72,
                    "velocity": 121,
                    "lightChannels": [
                        3,
                        5,
                        8,
                        9
                    ]
                }
            },
            "garden": {
                "pinValue": 1,
                "ticks": 0,
                "event": {
                    "deltaTime": 0,
                    "type": "channel",
                    "subtype": "noteOn",
                    "channel": 4,
                    "noteNumber": 72,
                    "velocity": 121,
                    "lightChannels": [
                        3,
                        5,
                        8,
                        9
                    ]
                }
            },
            "tree": {
                "pinValue": 1,
                "ticks": 0,
                "event": {
                    "deltaTime": 0,
                    "type": "channel",
                    "subtype": "noteOn",
                    "channel": 4,
                    "noteNumber": 72,
                    "velocity": 121,
                    "lightChannels": [
                        3,
                        5,
                        8,
                        9
                    ]
                }
            }
        }
    },
    {
        "changes": {
            "col-1": 0,
            "col-3": 0,
            "garden": 0,
            "tree": 0
        },
        "timeout": 0.095338875,
        "raw": {
            "col-1": {
                "pinValue": 0,
                "ticks": 9,
                "event": {
                    "deltaTime": 9,
                    "type": "channel",
                    "subtype": "noteOff",
                    "channel": 4,
                    "noteNumber": 72,
                    "velocity": 0,
                    "lightChannels": [
                        3,
                        5,
                        8,
                        9
                    ]
                }
            },
            "col-3": {
                "pinValue": 0,
                "ticks": 9,
                "event": {
                    "deltaTime": 9,
                    "type": "channel",
                    "subtype": "noteOff",
                    "channel": 4,
                    "noteNumber": 72,
                    "velocity": 0,
                    "lightChannels": [
                        3,
                        5,
                        8,
                        9
                    ]
                }
            },
            "garden": {
                "pinValue": 0,
                "ticks": 9,
                "event": {
                    "deltaTime": 9,
                    "type": "channel",
                    "subtype": "noteOff",
                    "channel": 4,
                    "noteNumber": 72,
                    "velocity": 0,
                    "lightChannels": [
                        3,
                        5,
                        8,
                        9
                    ]
                }
            },
            "tree": {
                "pinValue": 0,
                "ticks": 9,
                "event": {
                    "deltaTime": 9,
                    "type": "channel",
                    "subtype": "noteOff",
                    "channel": 4,
                    "noteNumber": 72,
                    "velocity": 0,
                    "lightChannels": [
                        3,
                        5,
                        8,
                        9
                    ]
                }
            }
        }
    },
    {
        "changes": {
            "col-1": 1,
            "col-3": 1,
            "garden": 1,
            "tree": 1
        },
        "timeout": 0.1472455958333333,
        "raw": {
            "col-1": {
                "pinValue": 1,
                "ticks": 0,
                "event": {
                    "deltaTime": 0,
                    "type": "channel",
                    "subtype": "noteOn",
                    "channel": 4,
                    "noteNumber": 72,
                    "velocity": 125,
                    "lightChannels": [
                        3,
                        5,
                        8,
                        9
                    ]
                }
            },
            "col-3": {
                "pinValue": 1,
                "ticks": 0,
                "event": {
                    "deltaTime": 0,
                    "type": "channel",
                    "subtype": "noteOn",
                    "channel": 4,
                    "noteNumber": 72,
                    "velocity": 125,
                    "lightChannels": [
                        3,
                        5,
                        8,
                        9
                    ]
                }
            },
            "garden": {
                "pinValue": 1,
                "ticks": 0,
                "event": {
                    "deltaTime": 0,
                    "type": "channel",
                    "subtype": "noteOn",
                    "channel": 4,
                    "noteNumber": 72,
                    "velocity": 125,
                    "lightChannels": [
                        3,
                        5,
                        8,
                        9
                    ]
                }
            },
            "tree": {
                "pinValue": 1,
                "ticks": 0,
                "event": {
                    "deltaTime": 0,
                    "type": "channel",
                    "subtype": "noteOn",
                    "channel": 4,
                    "noteNumber": 72,
                    "velocity": 125,
                    "lightChannels": [
                        3,
                        5,
                        8,
                        9
                    ]
                }
            }
        }
    },
    {
        "changes": {
            "window": 1,
            "outline": 1
        },
        "timeout": 0.022245737499999998,
        "raw": {
            "window": {
                "pinValue": 1,
                "ticks": 2,
                "event": {
                    "deltaTime": 2,
                    "type": "channel",
                    "subtype": "noteOn",
                    "channel": 9,
                    "noteNumber": 54,
                    "velocity": 85,
                    "lightChannels": [
                        6,
                        7
                    ]
                }
            },
            "outline": {
                "pinValue": 1,
                "ticks": 2,
                "event": {
                    "deltaTime": 2,
                    "type": "channel",
                    "subtype": "noteOn",
                    "channel": 9,
                    "noteNumber": 54,
                    "velocity": 85,
                    "lightChannels": [
                        6,
                        7
                    ]
                }
            }
        }
    },
    {
        "changes": {
            "window": 0,
            "outline": 0
        },
        "timeout": 0.06249992916666666,
        "raw": {
            "window": {
                "pinValue": 0,
                "ticks": 59,
                "event": {
                    "deltaTime": 59,
                    "type": "channel",
                    "subtype": "noteOff",
                    "channel": 9,
                    "noteNumber": 54,
                    "velocity": 0,
                    "lightChannels": [
                        6,
                        7
                    ]
                }
            },
            "outline": {
                "pinValue": 0,
                "ticks": 59,
                "event": {
                    "deltaTime": 59,
                    "type": "channel",
                    "subtype": "noteOff",
                    "channel": 9,
                    "noteNumber": 54,
                    "velocity": 0,
                    "lightChannels": [
                        6,
                        7
                    ]
                }
            }
        }
    },
    {
        "changes": {
            "col-1": 0,
            "col-3": 0,
            "garden": 0,
            "tree": 0
        },
        "timeout": 0.02012709583333333,
        "raw": {
            "col-1": {
                "pinValue": 0,
                "ticks": 14,
                "event": {
                    "deltaTime": 14,
                    "type": "channel",
                    "subtype": "noteOff",
                    "channel": 4,
                    "noteNumber": 72,
                    "velocity": 0,
                    "lightChannels": [
                        3,
                        5,
                        8,
                        9
                    ]
                }
            },
            "col-3": {
                "pinValue": 0,
                "ticks": 14,
                "event": {
                    "deltaTime": 14,
                    "type": "channel",
                    "subtype": "noteOff",
                    "channel": 4,
                    "noteNumber": 72,
                    "velocity": 0,
                    "lightChannels": [
                        3,
                        5,
                        8,
                        9
                    ]
                }
            },
            "garden": {
                "pinValue": 0,
                "ticks": 14,
                "event": {
                    "deltaTime": 14,
                    "type": "channel",
                    "subtype": "noteOff",
                    "channel": 4,
                    "noteNumber": 72,
                    "velocity": 0,
                    "lightChannels": [
                        3,
                        5,
                        8,
                        9
                    ]
                }
            },
            "tree": {
                "pinValue": 0,
                "ticks": 14,
                "event": {
                    "deltaTime": 14,
                    "type": "channel",
                    "subtype": "noteOff",
                    "channel": 4,
                    "noteNumber": 72,
                    "velocity": 0,
                    "lightChannels": [
                        3,
                        5,
                        8,
                        9
                    ]
                }
            }
        }
    },
    {
        "changes": {
            "col-1": 1,
            "col-3": 1,
            "garden": 1,
            "tree": 1
        },
        "timeout": 0.15572016249999998,
        "raw": {
            "col-1": {
                "pinValue": 1,
                "ticks": 3,
                "event": {
                    "deltaTime": 3,
                    "type": "channel",
                    "subtype": "noteOn",
                    "channel": 4,
                    "noteNumber": 72,
                    "velocity": 122,
                    "lightChannels": [
                        3,
                        5,
                        8,
                        9
                    ]
                }
            },
            "col-3": {
                "pinValue": 1,
                "ticks": 3,
                "event": {
                    "deltaTime": 3,
                    "type": "channel",
                    "subtype": "noteOn",
                    "channel": 4,
                    "noteNumber": 72,
                    "velocity": 122,
                    "lightChannels": [
                        3,
                        5,
                        8,
                        9
                    ]
                }
            },
            "garden": {
                "pinValue": 1,
                "ticks": 3,
                "event": {
                    "deltaTime": 3,
                    "type": "channel",
                    "subtype": "noteOn",
                    "channel": 4,
                    "noteNumber": 72,
                    "velocity": 122,
                    "lightChannels": [
                        3,
                        5,
                        8,
                        9
                    ]
                }
            },
            "tree": {
                "pinValue": 1,
                "ticks": 3,
                "event": {
                    "deltaTime": 3,
                    "type": "channel",
                    "subtype": "noteOn",
                    "channel": 4,
                    "noteNumber": 72,
                    "velocity": 122,
                    "lightChannels": [
                        3,
                        5,
                        8,
                        9
                    ]
                }
            }
        }
    },
    {
        "changes": {
            "window": 1,
            "outline": 1
        },
        "timeout": 0.01694913333333333,
        "raw": {
            "window": {
                "pinValue": 1,
                "ticks": 15,
                "event": {
                    "deltaTime": 15,
                    "type": "channel",
                    "subtype": "noteOn",
                    "channel": 9,
                    "noteNumber": 54,
                    "velocity": 99,
                    "lightChannels": [
                        6,
                        7
                    ]
                }
            },
            "outline": {
                "pinValue": 1,
                "ticks": 15,
                "event": {
                    "deltaTime": 15,
                    "type": "channel",
                    "subtype": "noteOn",
                    "channel": 9,
                    "noteNumber": 54,
                    "velocity": 99,
                    "lightChannels": [
                        6,
                        7
                    ]
                }
            }
        }
    },
    {
        "changes": {
            "window": 0,
            "outline": 0
        },
        "timeout": 0.0730931375,
        "raw": {
            "window": {
                "pinValue": 0,
                "ticks": 3,
                "event": {
                    "deltaTime": 3,
                    "type": "channel",
                    "subtype": "noteOff",
                    "channel": 9,
                    "noteNumber": 54,
                    "velocity": 0,
                    "lightChannels": [
                        6,
                        7
                    ]
                }
            },
            "outline": {
                "pinValue": 0,
                "ticks": 3,
                "event": {
                    "deltaTime": 3,
                    "type": "channel",
                    "subtype": "noteOff",
                    "channel": 9,
                    "noteNumber": 54,
                    "velocity": 0,
                    "lightChannels": [
                        6,
                        7
                    ]
                }
            }
        }
    },
    {
        "changes": {
            "col-1": 0,
            "col-3": 0,
            "garden": 0,
            "tree": 0
        },
        "timeout": 0.011652529166666665,
        "raw": {
            "col-1": {
                "pinValue": 0,
                "ticks": 11,
                "event": {
                    "deltaTime": 11,
                    "type": "channel",
                    "subtype": "noteOff",
                    "channel": 4,
                    "noteNumber": 72,
                    "velocity": 0,
                    "lightChannels": [
                        3,
                        5,
                        8,
                        9
                    ]
                }
            },
            "col-3": {
                "pinValue": 0,
                "ticks": 11,
                "event": {
                    "deltaTime": 11,
                    "type": "channel",
                    "subtype": "noteOff",
                    "channel": 4,
                    "noteNumber": 72,
                    "velocity": 0,
                    "lightChannels": [
                        3,
                        5,
                        8,
                        9
                    ]
                }
            },
            "garden": {
                "pinValue": 0,
                "ticks": 11,
                "event": {
                    "deltaTime": 11,
                    "type": "channel",
                    "subtype": "noteOff",
                    "channel": 4,
                    "noteNumber": 72,
                    "velocity": 0,
                    "lightChannels": [
                        3,
                        5,
                        8,
                        9
                    ]
                }
            },
            "tree": {
                "pinValue": 0,
                "ticks": 11,
                "event": {
                    "deltaTime": 11,
                    "type": "channel",
                    "subtype": "noteOff",
                    "channel": 4,
                    "noteNumber": 72,
                    "velocity": 0,
                    "lightChannels": [
                        3,
                        5,
                        8,
                        9
                    ]
                }
            }
        }
    },
    {
        "changes": {
            "col-1": 1,
            "col-2": 1,
            "col-3": 1,
            "garden": 1,
            "tree": 1
        },
        "timeout": 0.14936423749999997,
        "raw": {
            "col-1": {
                "pinValue": 1,
                "ticks": 1,
                "event": {
                    "deltaTime": 1,
                    "type": "channel",
                    "subtype": "noteOn",
                    "channel": 4,
                    "noteNumber": 77,
                    "velocity": 125,
                    "lightChannels": [
                        3,
                        4,
                        5,
                        8,
                        9
                    ]
                }
            },
            "col-2": {
                "pinValue": 1,
                "ticks": 1,
                "event": {
                    "deltaTime": 1,
                    "type": "channel",
                    "subtype": "noteOn",
                    "channel": 4,
                    "noteNumber": 77,
                    "velocity": 125,
                    "lightChannels": [
                        3,
                        4,
                        5,
                        8,
                        9
                    ]
                }
            },
            "col-3": {
                "pinValue": 1,
                "ticks": 1,
                "event": {
                    "deltaTime": 1,
                    "type": "channel",
                    "subtype": "noteOn",
                    "channel": 4,
                    "noteNumber": 77,
                    "velocity": 125,
                    "lightChannels": [
                        3,
                        4,
                        5,
                        8,
                        9
                    ]
                }
            },
            "garden": {
                "pinValue": 1,
                "ticks": 1,
                "event": {
                    "deltaTime": 1,
                    "type": "channel",
                    "subtype": "noteOn",
                    "channel": 4,
                    "noteNumber": 77,
                    "velocity": 125,
                    "lightChannels": [
                        3,
                        4,
                        5,
                        8,
                        9
                    ]
                }
            },
            "tree": {
                "pinValue": 1,
                "ticks": 1,
                "event": {
                    "deltaTime": 1,
                    "type": "channel",
                    "subtype": "noteOn",
                    "channel": 4,
                    "noteNumber": 77,
                    "velocity": 125,
                    "lightChannels": [
                        3,
                        4,
                        5,
                        8,
                        9
                    ]
                }
            }
        }
    },
    {
        "changes": {
            "col-1": 0,
            "col-2": 0,
            "col-3": 0,
            "garden": 0,
            "tree": 0
        },
        "timeout": 0.09639819583333331,
        "raw": {
            "col-1": {
                "pinValue": 0,
                "ticks": 3,
                "event": {
                    "deltaTime": 3,
                    "type": "channel",
                    "subtype": "noteOff",
                    "channel": 4,
                    "noteNumber": 77,
                    "velocity": 0,
                    "lightChannels": [
                        3,
                        4,
                        5,
                        8,
                        9
                    ]
                }
            },
            "col-2": {
                "pinValue": 0,
                "ticks": 3,
                "event": {
                    "deltaTime": 3,
                    "type": "channel",
                    "subtype": "noteOff",
                    "channel": 4,
                    "noteNumber": 77,
                    "velocity": 0,
                    "lightChannels": [
                        3,
                        4,
                        5,
                        8,
                        9
                    ]
                }
            },
            "col-3": {
                "pinValue": 0,
                "ticks": 3,
                "event": {
                    "deltaTime": 3,
                    "type": "channel",
                    "subtype": "noteOff",
                    "channel": 4,
                    "noteNumber": 77,
                    "velocity": 0,
                    "lightChannels": [
                        3,
                        4,
                        5,
                        8,
                        9
                    ]
                }
            },
            "garden": {
                "pinValue": 0,
                "ticks": 3,
                "event": {
                    "deltaTime": 3,
                    "type": "channel",
                    "subtype": "noteOff",
                    "channel": 4,
                    "noteNumber": 77,
                    "velocity": 0,
                    "lightChannels": [
                        3,
                        4,
                        5,
                        8,
                        9
                    ]
                }
            },
            "tree": {
                "pinValue": 0,
                "ticks": 3,
                "event": {
                    "deltaTime": 3,
                    "type": "channel",
                    "subtype": "noteOff",
                    "channel": 4,
                    "noteNumber": 77,
                    "velocity": 0,
                    "lightChannels": [
                        3,
                        4,
                        5,
                        8,
                        9
                    ]
                }
            }
        }
    },
    {
        "changes": {
            "col-1": 1,
            "col-2": 1,
            "col-3": 1,
            "garden": 1,
            "tree": 1
        },
        "timeout": 0.15148287916666664,
        "raw": {
            "col-1": {
                "pinValue": 1,
                "ticks": 1,
                "event": {
                    "deltaTime": 1,
                    "type": "channel",
                    "subtype": "noteOn",
                    "channel": 4,
                    "noteNumber": 77,
                    "velocity": 116,
                    "lightChannels": [
                        3,
                        4,
                        5,
                        8,
                        9
                    ]
                }
            },
            "col-2": {
                "pinValue": 1,
                "ticks": 1,
                "event": {
                    "deltaTime": 1,
                    "type": "channel",
                    "subtype": "noteOn",
                    "channel": 4,
                    "noteNumber": 77,
                    "velocity": 116,
                    "lightChannels": [
                        3,
                        4,
                        5,
                        8,
                        9
                    ]
                }
            },
            "col-3": {
                "pinValue": 1,
                "ticks": 1,
                "event": {
                    "deltaTime": 1,
                    "type": "channel",
                    "subtype": "noteOn",
                    "channel": 4,
                    "noteNumber": 77,
                    "velocity": 116,
                    "lightChannels": [
                        3,
                        4,
                        5,
                        8,
                        9
                    ]
                }
            },
            "garden": {
                "pinValue": 1,
                "ticks": 1,
                "event": {
                    "deltaTime": 1,
                    "type": "channel",
                    "subtype": "noteOn",
                    "channel": 4,
                    "noteNumber": 77,
                    "velocity": 116,
                    "lightChannels": [
                        3,
                        4,
                        5,
                        8,
                        9
                    ]
                }
            },
            "tree": {
                "pinValue": 1,
                "ticks": 1,
                "event": {
                    "deltaTime": 1,
                    "type": "channel",
                    "subtype": "noteOn",
                    "channel": 4,
                    "noteNumber": 77,
                    "velocity": 116,
                    "lightChannels": [
                        3,
                        4,
                        5,
                        8,
                        9
                    ]
                }
            }
        }
    },
    {
        "changes": {
            "col-1": 0,
            "col-2": 0,
            "col-3": 0,
            "garden": 0,
            "tree": 0
        },
        "timeout": 0.10063547916666667,
        "raw": {
            "col-1": {
                "pinValue": 0,
                "ticks": 11,
                "event": {
                    "deltaTime": 11,
                    "type": "channel",
                    "subtype": "noteOff",
                    "channel": 4,
                    "noteNumber": 77,
                    "velocity": 0,
                    "lightChannels": [
                        3,
                        4,
                        5,
                        8,
                        9
                    ]
                }
            },
            "col-2": {
                "pinValue": 0,
                "ticks": 11,
                "event": {
                    "deltaTime": 11,
                    "type": "channel",
                    "subtype": "noteOff",
                    "channel": 4,
                    "noteNumber": 77,
                    "velocity": 0,
                    "lightChannels": [
                        3,
                        4,
                        5,
                        8,
                        9
                    ]
                }
            },
            "col-3": {
                "pinValue": 0,
                "ticks": 11,
                "event": {
                    "deltaTime": 11,
                    "type": "channel",
                    "subtype": "noteOff",
                    "channel": 4,
                    "noteNumber": 77,
                    "velocity": 0,
                    "lightChannels": [
                        3,
                        4,
                        5,
                        8,
                        9
                    ]
                }
            },
            "garden": {
                "pinValue": 0,
                "ticks": 11,
                "event": {
                    "deltaTime": 11,
                    "type": "channel",
                    "subtype": "noteOff",
                    "channel": 4,
                    "noteNumber": 77,
                    "velocity": 0,
                    "lightChannels": [
                        3,
                        4,
                        5,
                        8,
                        9
                    ]
                }
            },
            "tree": {
                "pinValue": 0,
                "ticks": 11,
                "event": {
                    "deltaTime": 11,
                    "type": "channel",
                    "subtype": "noteOff",
                    "channel": 4,
                    "noteNumber": 77,
                    "velocity": 0,
                    "lightChannels": [
                        3,
                        4,
                        5,
                        8,
                        9
                    ]
                }
            }
        }
    },
    {
        "changes": {
            "window": 1,
            "outline": 1
        },
        "timeout": 0.14936423749999997,
        "raw": {
            "window": {
                "pinValue": 1,
                "ticks": 10,
                "event": {
                    "deltaTime": 10,
                    "type": "channel",
                    "subtype": "noteOn",
                    "channel": 9,
                    "noteNumber": 54,
                    "velocity": 99,
                    "lightChannels": [
                        6,
                        7
                    ]
                }
            },
            "outline": {
                "pinValue": 1,
                "ticks": 10,
                "event": {
                    "deltaTime": 10,
                    "type": "channel",
                    "subtype": "noteOn",
                    "channel": 9,
                    "noteNumber": 54,
                    "velocity": 99,
                    "lightChannels": [
                        6,
                        7
                    ]
                }
            }
        }
    },
    {
        "changes": {
            "col-1": 1,
            "col-2": 1,
            "col-3": 1,
            "garden": 1,
            "tree": 1
        },
        "timeout": 0.008474566666666666,
        "raw": {
            "col-1": {
                "pinValue": 1,
                "ticks": 0,
                "event": {
                    "deltaTime": 0,
                    "type": "channel",
                    "subtype": "noteOn",
                    "channel": 4,
                    "noteNumber": 77,
                    "velocity": 118,
                    "lightChannels": [
                        3,
                        4,
                        5,
                        8,
                        9
                    ]
                }
            },
            "col-2": {
                "pinValue": 1,
                "ticks": 0,
                "event": {
                    "deltaTime": 0,
                    "type": "channel",
                    "subtype": "noteOn",
                    "channel": 4,
                    "noteNumber": 77,
                    "velocity": 118,
                    "lightChannels": [
                        3,
                        4,
                        5,
                        8,
                        9
                    ]
                }
            },
            "col-3": {
                "pinValue": 1,
                "ticks": 0,
                "event": {
                    "deltaTime": 0,
                    "type": "channel",
                    "subtype": "noteOn",
                    "channel": 4,
                    "noteNumber": 77,
                    "velocity": 118,
                    "lightChannels": [
                        3,
                        4,
                        5,
                        8,
                        9
                    ]
                }
            },
            "garden": {
                "pinValue": 1,
                "ticks": 0,
                "event": {
                    "deltaTime": 0,
                    "type": "channel",
                    "subtype": "noteOn",
                    "channel": 4,
                    "noteNumber": 77,
                    "velocity": 118,
                    "lightChannels": [
                        3,
                        4,
                        5,
                        8,
                        9
                    ]
                }
            },
            "tree": {
                "pinValue": 1,
                "ticks": 0,
                "event": {
                    "deltaTime": 0,
                    "type": "channel",
                    "subtype": "noteOn",
                    "channel": 4,
                    "noteNumber": 77,
                    "velocity": 118,
                    "lightChannels": [
                        3,
                        4,
                        5,
                        8,
                        9
                    ]
                }
            }
        }
    },
    {
        "changes": {
            "window": 0,
            "outline": 0
        },
        "timeout": 0.05826264583333333,
        "raw": {
            "window": {
                "pinValue": 0,
                "ticks": 51,
                "event": {
                    "deltaTime": 51,
                    "type": "channel",
                    "subtype": "noteOff",
                    "channel": 9,
                    "noteNumber": 54,
                    "velocity": 0,
                    "lightChannels": [
                        6,
                        7
                    ]
                }
            },
            "outline": {
                "pinValue": 0,
                "ticks": 51,
                "event": {
                    "deltaTime": 51,
                    "type": "channel",
                    "subtype": "noteOff",
                    "channel": 9,
                    "noteNumber": 54,
                    "velocity": 0,
                    "lightChannels": [
                        6,
                        7
                    ]
                }
            }
        }
    },
    {
        "changes": {
            "col-1": 0,
            "col-2": 0,
            "col-3": 0,
            "garden": 0,
            "tree": 0
        },
        "timeout": 0.03707622916666666,
        "raw": {
            "col-1": {
                "pinValue": 0,
                "ticks": 4,
                "event": {
                    "deltaTime": 4,
                    "type": "channel",
                    "subtype": "noteOff",
                    "channel": 4,
                    "noteNumber": 77,
                    "velocity": 0,
                    "lightChannels": [
                        3,
                        4,
                        5,
                        8,
                        9
                    ]
                }
            },
            "col-2": {
                "pinValue": 0,
                "ticks": 4,
                "event": {
                    "deltaTime": 4,
                    "type": "channel",
                    "subtype": "noteOff",
                    "channel": 4,
                    "noteNumber": 77,
                    "velocity": 0,
                    "lightChannels": [
                        3,
                        4,
                        5,
                        8,
                        9
                    ]
                }
            },
            "col-3": {
                "pinValue": 0,
                "ticks": 4,
                "event": {
                    "deltaTime": 4,
                    "type": "channel",
                    "subtype": "noteOff",
                    "channel": 4,
                    "noteNumber": 77,
                    "velocity": 0,
                    "lightChannels": [
                        3,
                        4,
                        5,
                        8,
                        9
                    ]
                }
            },
            "garden": {
                "pinValue": 0,
                "ticks": 4,
                "event": {
                    "deltaTime": 4,
                    "type": "channel",
                    "subtype": "noteOff",
                    "channel": 4,
                    "noteNumber": 77,
                    "velocity": 0,
                    "lightChannels": [
                        3,
                        4,
                        5,
                        8,
                        9
                    ]
                }
            },
            "tree": {
                "pinValue": 0,
                "ticks": 4,
                "event": {
                    "deltaTime": 4,
                    "type": "channel",
                    "subtype": "noteOff",
                    "channel": 4,
                    "noteNumber": 77,
                    "velocity": 0,
                    "lightChannels": [
                        3,
                        4,
                        5,
                        8,
                        9
                    ]
                }
            }
        }
    },
    {
        "changes": {
            "window": 1,
            "outline": 1
        },
        "timeout": 0.1504235583333333,
        "raw": {
            "window": {
                "pinValue": 1,
                "ticks": 1,
                "event": {
                    "deltaTime": 1,
                    "type": "channel",
                    "subtype": "noteOn",
                    "channel": 9,
                    "noteNumber": 54,
                    "velocity": 99,
                    "lightChannels": [
                        6,
                        7
                    ]
                }
            },
            "outline": {
                "pinValue": 1,
                "ticks": 1,
                "event": {
                    "deltaTime": 1,
                    "type": "channel",
                    "subtype": "noteOn",
                    "channel": 9,
                    "noteNumber": 54,
                    "velocity": 99,
                    "lightChannels": [
                        6,
                        7
                    ]
                }
            }
        }
    },
    {
        "changes": {
            "col-1": 1,
            "col-2": 1,
            "col-3": 1,
            "garden": 1,
            "tree": 1
        },
        "timeout": 0.006355924999999999,
        "raw": {
            "col-1": {
                "pinValue": 1,
                "ticks": 3,
                "event": {
                    "deltaTime": 3,
                    "type": "channel",
                    "subtype": "noteOn",
                    "channel": 4,
                    "noteNumber": 77,
                    "velocity": 115,
                    "lightChannels": [
                        3,
                        4,
                        5,
                        8,
                        9
                    ]
                }
            },
            "col-2": {
                "pinValue": 1,
                "ticks": 3,
                "event": {
                    "deltaTime": 3,
                    "type": "channel",
                    "subtype": "noteOn",
                    "channel": 4,
                    "noteNumber": 77,
                    "velocity": 115,
                    "lightChannels": [
                        3,
                        4,
                        5,
                        8,
                        9
                    ]
                }
            },
            "col-3": {
                "pinValue": 1,
                "ticks": 3,
                "event": {
                    "deltaTime": 3,
                    "type": "channel",
                    "subtype": "noteOn",
                    "channel": 4,
                    "noteNumber": 77,
                    "velocity": 115,
                    "lightChannels": [
                        3,
                        4,
                        5,
                        8,
                        9
                    ]
                }
            },
            "garden": {
                "pinValue": 1,
                "ticks": 3,
                "event": {
                    "deltaTime": 3,
                    "type": "channel",
                    "subtype": "noteOn",
                    "channel": 4,
                    "noteNumber": 77,
                    "velocity": 115,
                    "lightChannels": [
                        3,
                        4,
                        5,
                        8,
                        9
                    ]
                }
            },
            "tree": {
                "pinValue": 1,
                "ticks": 3,
                "event": {
                    "deltaTime": 3,
                    "type": "channel",
                    "subtype": "noteOn",
                    "channel": 4,
                    "noteNumber": 77,
                    "velocity": 115,
                    "lightChannels": [
                        3,
                        4,
                        5,
                        8,
                        9
                    ]
                }
            }
        }
    },
    {
        "changes": {
            "window": 0,
            "outline": 0
        },
        "timeout": 0.06567789166666667,
        "raw": {
            "window": {
                "pinValue": 0,
                "ticks": 3,
                "event": {
                    "deltaTime": 3,
                    "type": "channel",
                    "subtype": "noteOff",
                    "channel": 9,
                    "noteNumber": 54,
                    "velocity": 0,
                    "lightChannels": [
                        6,
                        7
                    ]
                }
            },
            "outline": {
                "pinValue": 0,
                "ticks": 3,
                "event": {
                    "deltaTime": 3,
                    "type": "channel",
                    "subtype": "noteOff",
                    "channel": 9,
                    "noteNumber": 54,
                    "velocity": 0,
                    "lightChannels": [
                        6,
                        7
                    ]
                }
            }
        }
    },
    {
        "changes": {
            "col-1": 0,
            "col-2": 0,
            "col-3": 0,
            "garden": 0,
            "tree": 0
        },
        "timeout": 0.029660983333333328,
        "raw": {
            "col-1": {
                "pinValue": 0,
                "ticks": 3,
                "event": {
                    "deltaTime": 3,
                    "type": "channel",
                    "subtype": "noteOff",
                    "channel": 4,
                    "noteNumber": 77,
                    "velocity": 0,
                    "lightChannels": [
                        3,
                        4,
                        5,
                        8,
                        9
                    ]
                }
            },
            "col-2": {
                "pinValue": 0,
                "ticks": 3,
                "event": {
                    "deltaTime": 3,
                    "type": "channel",
                    "subtype": "noteOff",
                    "channel": 4,
                    "noteNumber": 77,
                    "velocity": 0,
                    "lightChannels": [
                        3,
                        4,
                        5,
                        8,
                        9
                    ]
                }
            },
            "col-3": {
                "pinValue": 0,
                "ticks": 3,
                "event": {
                    "deltaTime": 3,
                    "type": "channel",
                    "subtype": "noteOff",
                    "channel": 4,
                    "noteNumber": 77,
                    "velocity": 0,
                    "lightChannels": [
                        3,
                        4,
                        5,
                        8,
                        9
                    ]
                }
            },
            "garden": {
                "pinValue": 0,
                "ticks": 3,
                "event": {
                    "deltaTime": 3,
                    "type": "channel",
                    "subtype": "noteOff",
                    "channel": 4,
                    "noteNumber": 77,
                    "velocity": 0,
                    "lightChannels": [
                        3,
                        4,
                        5,
                        8,
                        9
                    ]
                }
            },
            "tree": {
                "pinValue": 0,
                "ticks": 3,
                "event": {
                    "deltaTime": 3,
                    "type": "channel",
                    "subtype": "noteOff",
                    "channel": 4,
                    "noteNumber": 77,
                    "velocity": 0,
                    "lightChannels": [
                        3,
                        4,
                        5,
                        8,
                        9
                    ]
                }
            }
        }
    },
    {
        "changes": {
            "col-1": 1,
            "col-2": 1,
            "col-3": 1,
            "window": 1,
            "outline": 1,
            "garden": 1,
            "tree": 1
        },
        "timeout": 0.15148287916666664,
        "raw": {
            "col-1": {
                "pinValue": 1,
                "ticks": 1,
                "event": {
                    "deltaTime": 1,
                    "type": "channel",
                    "subtype": "noteOn",
                    "channel": 4,
                    "noteNumber": 84,
                    "velocity": 116,
                    "lightChannels": [
                        3,
                        4,
                        5,
                        6,
                        7,
                        8,
                        9
                    ]
                }
            },
            "col-2": {
                "pinValue": 1,
                "ticks": 1,
                "event": {
                    "deltaTime": 1,
                    "type": "channel",
                    "subtype": "noteOn",
                    "channel": 4,
                    "noteNumber": 84,
                    "velocity": 116,
                    "lightChannels": [
                        3,
                        4,
                        5,
                        6,
                        7,
                        8,
                        9
                    ]
                }
            },
            "col-3": {
                "pinValue": 1,
                "ticks": 1,
                "event": {
                    "deltaTime": 1,
                    "type": "channel",
                    "subtype": "noteOn",
                    "channel": 4,
                    "noteNumber": 84,
                    "velocity": 116,
                    "lightChannels": [
                        3,
                        4,
                        5,
                        6,
                        7,
                        8,
                        9
                    ]
                }
            },
            "window": {
                "pinValue": 1,
                "ticks": 1,
                "event": {
                    "deltaTime": 1,
                    "type": "channel",
                    "subtype": "noteOn",
                    "channel": 4,
                    "noteNumber": 84,
                    "velocity": 116,
                    "lightChannels": [
                        3,
                        4,
                        5,
                        6,
                        7,
                        8,
                        9
                    ]
                }
            },
            "outline": {
                "pinValue": 1,
                "ticks": 1,
                "event": {
                    "deltaTime": 1,
                    "type": "channel",
                    "subtype": "noteOn",
                    "channel": 4,
                    "noteNumber": 84,
                    "velocity": 116,
                    "lightChannels": [
                        3,
                        4,
                        5,
                        6,
                        7,
                        8,
                        9
                    ]
                }
            },
            "garden": {
                "pinValue": 1,
                "ticks": 1,
                "event": {
                    "deltaTime": 1,
                    "type": "channel",
                    "subtype": "noteOn",
                    "channel": 4,
                    "noteNumber": 84,
                    "velocity": 116,
                    "lightChannels": [
                        3,
                        4,
                        5,
                        6,
                        7,
                        8,
                        9
                    ]
                }
            },
            "tree": {
                "pinValue": 1,
                "ticks": 1,
                "event": {
                    "deltaTime": 1,
                    "type": "channel",
                    "subtype": "noteOn",
                    "channel": 4,
                    "noteNumber": 84,
                    "velocity": 116,
                    "lightChannels": [
                        3,
                        4,
                        5,
                        6,
                        7,
                        8,
                        9
                    ]
                }
            }
        }
    },
    {
        "changes": {
            "col-1": 0,
            "col-2": 0,
            "col-3": 0,
            "window": 0,
            "outline": 0,
            "garden": 0,
            "tree": 0
        },
        "timeout": 0.0858049875,
        "raw": {
            "col-1": {
                "pinValue": 0,
                "ticks": 0,
                "event": {
                    "deltaTime": 0,
                    "type": "channel",
                    "subtype": "noteOff",
                    "channel": 4,
                    "noteNumber": 84,
                    "velocity": 0,
                    "lightChannels": [
                        3,
                        4,
                        5,
                        6,
                        7,
                        8,
                        9
                    ]
                }
            },
            "col-2": {
                "pinValue": 0,
                "ticks": 0,
                "event": {
                    "deltaTime": 0,
                    "type": "channel",
                    "subtype": "noteOff",
                    "channel": 4,
                    "noteNumber": 84,
                    "velocity": 0,
                    "lightChannels": [
                        3,
                        4,
                        5,
                        6,
                        7,
                        8,
                        9
                    ]
                }
            },
            "col-3": {
                "pinValue": 0,
                "ticks": 0,
                "event": {
                    "deltaTime": 0,
                    "type": "channel",
                    "subtype": "noteOff",
                    "channel": 4,
                    "noteNumber": 84,
                    "velocity": 0,
                    "lightChannels": [
                        3,
                        4,
                        5,
                        6,
                        7,
                        8,
                        9
                    ]
                }
            },
            "window": {
                "pinValue": 0,
                "ticks": 0,
                "event": {
                    "deltaTime": 0,
                    "type": "channel",
                    "subtype": "noteOff",
                    "channel": 4,
                    "noteNumber": 84,
                    "velocity": 0,
                    "lightChannels": [
                        3,
                        4,
                        5,
                        6,
                        7,
                        8,
                        9
                    ]
                }
            },
            "outline": {
                "pinValue": 0,
                "ticks": 0,
                "event": {
                    "deltaTime": 0,
                    "type": "channel",
                    "subtype": "noteOff",
                    "channel": 4,
                    "noteNumber": 84,
                    "velocity": 0,
                    "lightChannels": [
                        3,
                        4,
                        5,
                        6,
                        7,
                        8,
                        9
                    ]
                }
            },
            "garden": {
                "pinValue": 0,
                "ticks": 0,
                "event": {
                    "deltaTime": 0,
                    "type": "channel",
                    "subtype": "noteOff",
                    "channel": 4,
                    "noteNumber": 84,
                    "velocity": 0,
                    "lightChannels": [
                        3,
                        4,
                        5,
                        6,
                        7,
                        8,
                        9
                    ]
                }
            },
            "tree": {
                "pinValue": 0,
                "ticks": 0,
                "event": {
                    "deltaTime": 0,
                    "type": "channel",
                    "subtype": "noteOff",
                    "channel": 4,
                    "noteNumber": 84,
                    "velocity": 0,
                    "lightChannels": [
                        3,
                        4,
                        5,
                        6,
                        7,
                        8,
                        9
                    ]
                }
            }
        }
    },
    {
        "changes": {
            "garage": 0,
            "top-right": 0,
            "bottom-right": 0
        },
        "timeout": 0.08580498749999999,
        "raw": {
            "garage": {
                "pinValue": 0,
                "ticks": 62,
                "event": {
                    "deltaTime": 62,
                    "type": "channel",
                    "subtype": "noteOff",
                    "channel": 8,
                    "noteNumber": 53,
                    "velocity": 0,
                    "lightChannels": [
                        0,
                        1,
                        2
                    ]
                }
            },
            "top-right": {
                "pinValue": 0,
                "ticks": 62,
                "event": {
                    "deltaTime": 62,
                    "type": "channel",
                    "subtype": "noteOff",
                    "channel": 8,
                    "noteNumber": 53,
                    "velocity": 0,
                    "lightChannels": [
                        0,
                        1,
                        2
                    ]
                }
            },
            "bottom-right": {
                "pinValue": 0,
                "ticks": 62,
                "event": {
                    "deltaTime": 62,
                    "type": "channel",
                    "subtype": "noteOff",
                    "channel": 8,
                    "noteNumber": 53,
                    "velocity": 0,
                    "lightChannels": [
                        0,
                        1,
                        2
                    ]
                }
            }
        }
    },
    {
        "changes": {
            "col-1": 1,
            "col-2": 1,
            "col-3": 1,
            "window": 1,
            "outline": 1,
            "garden": 1,
            "tree": 1
        },
        "timeout": 0.08898294999999999,
        "raw": {
            "col-1": {
                "pinValue": 1,
                "ticks": 1,
                "event": {
                    "deltaTime": 1,
                    "type": "channel",
                    "subtype": "noteOn",
                    "channel": 4,
                    "noteNumber": 84,
                    "velocity": 116,
                    "lightChannels": [
                        3,
                        4,
                        5,
                        6,
                        7,
                        8,
                        9
                    ]
                }
            },
            "col-2": {
                "pinValue": 1,
                "ticks": 1,
                "event": {
                    "deltaTime": 1,
                    "type": "channel",
                    "subtype": "noteOn",
                    "channel": 4,
                    "noteNumber": 84,
                    "velocity": 116,
                    "lightChannels": [
                        3,
                        4,
                        5,
                        6,
                        7,
                        8,
                        9
                    ]
                }
            },
            "col-3": {
                "pinValue": 1,
                "ticks": 1,
                "event": {
                    "deltaTime": 1,
                    "type": "channel",
                    "subtype": "noteOn",
                    "channel": 4,
                    "noteNumber": 84,
                    "velocity": 116,
                    "lightChannels": [
                        3,
                        4,
                        5,
                        6,
                        7,
                        8,
                        9
                    ]
                }
            },
            "window": {
                "pinValue": 1,
                "ticks": 1,
                "event": {
                    "deltaTime": 1,
                    "type": "channel",
                    "subtype": "noteOn",
                    "channel": 4,
                    "noteNumber": 84,
                    "velocity": 116,
                    "lightChannels": [
                        3,
                        4,
                        5,
                        6,
                        7,
                        8,
                        9
                    ]
                }
            },
            "outline": {
                "pinValue": 1,
                "ticks": 1,
                "event": {
                    "deltaTime": 1,
                    "type": "channel",
                    "subtype": "noteOn",
                    "channel": 4,
                    "noteNumber": 84,
                    "velocity": 116,
                    "lightChannels": [
                        3,
                        4,
                        5,
                        6,
                        7,
                        8,
                        9
                    ]
                }
            },
            "garden": {
                "pinValue": 1,
                "ticks": 1,
                "event": {
                    "deltaTime": 1,
                    "type": "channel",
                    "subtype": "noteOn",
                    "channel": 4,
                    "noteNumber": 84,
                    "velocity": 116,
                    "lightChannels": [
                        3,
                        4,
                        5,
                        6,
                        7,
                        8,
                        9
                    ]
                }
            },
            "tree": {
                "pinValue": 1,
                "ticks": 1,
                "event": {
                    "deltaTime": 1,
                    "type": "channel",
                    "subtype": "noteOn",
                    "channel": 4,
                    "noteNumber": 84,
                    "velocity": 116,
                    "lightChannels": [
                        3,
                        4,
                        5,
                        6,
                        7,
                        8,
                        9
                    ]
                }
            }
        }
    },
    {
        "changes": {
            "col-1": 0,
            "col-2": 0,
            "col-3": 0,
            "window": 0,
            "outline": 0,
            "garden": 0,
            "tree": 0
        },
        "timeout": 0.08898295,
        "raw": {
            "col-1": {
                "pinValue": 0,
                "ticks": 2,
                "event": {
                    "deltaTime": 2,
                    "type": "channel",
                    "subtype": "noteOff",
                    "channel": 4,
                    "noteNumber": 84,
                    "velocity": 0,
                    "lightChannels": [
                        3,
                        4,
                        5,
                        6,
                        7,
                        8,
                        9
                    ]
                }
            },
            "col-2": {
                "pinValue": 0,
                "ticks": 2,
                "event": {
                    "deltaTime": 2,
                    "type": "channel",
                    "subtype": "noteOff",
                    "channel": 4,
                    "noteNumber": 84,
                    "velocity": 0,
                    "lightChannels": [
                        3,
                        4,
                        5,
                        6,
                        7,
                        8,
                        9
                    ]
                }
            },
            "col-3": {
                "pinValue": 0,
                "ticks": 2,
                "event": {
                    "deltaTime": 2,
                    "type": "channel",
                    "subtype": "noteOff",
                    "channel": 4,
                    "noteNumber": 84,
                    "velocity": 0,
                    "lightChannels": [
                        3,
                        4,
                        5,
                        6,
                        7,
                        8,
                        9
                    ]
                }
            },
            "window": {
                "pinValue": 0,
                "ticks": 2,
                "event": {
                    "deltaTime": 2,
                    "type": "channel",
                    "subtype": "noteOff",
                    "channel": 4,
                    "noteNumber": 84,
                    "velocity": 0,
                    "lightChannels": [
                        3,
                        4,
                        5,
                        6,
                        7,
                        8,
                        9
                    ]
                }
            },
            "outline": {
                "pinValue": 0,
                "ticks": 2,
                "event": {
                    "deltaTime": 2,
                    "type": "channel",
                    "subtype": "noteOff",
                    "channel": 4,
                    "noteNumber": 84,
                    "velocity": 0,
                    "lightChannels": [
                        3,
                        4,
                        5,
                        6,
                        7,
                        8,
                        9
                    ]
                }
            },
            "garden": {
                "pinValue": 0,
                "ticks": 2,
                "event": {
                    "deltaTime": 2,
                    "type": "channel",
                    "subtype": "noteOff",
                    "channel": 4,
                    "noteNumber": 84,
                    "velocity": 0,
                    "lightChannels": [
                        3,
                        4,
                        5,
                        6,
                        7,
                        8,
                        9
                    ]
                }
            },
            "tree": {
                "pinValue": 0,
                "ticks": 2,
                "event": {
                    "deltaTime": 2,
                    "type": "channel",
                    "subtype": "noteOff",
                    "channel": 4,
                    "noteNumber": 84,
                    "velocity": 0,
                    "lightChannels": [
                        3,
                        4,
                        5,
                        6,
                        7,
                        8,
                        9
                    ]
                }
            }
        }
    },
    {
        "changes": {
            "col-1": 1,
            "col-2": 1,
            "col-3": 1,
            "window": 1,
            "outline": 1,
            "garden": 1,
            "tree": 1
        },
        "timeout": 0.15995744583333332,
        "raw": {
            "col-1": {
                "pinValue": 1,
                "ticks": 4,
                "event": {
                    "deltaTime": 4,
                    "type": "channel",
                    "subtype": "noteOn",
                    "channel": 4,
                    "noteNumber": 84,
                    "velocity": 115,
                    "lightChannels": [
                        3,
                        4,
                        5,
                        6,
                        7,
                        8,
                        9
                    ]
                }
            },
            "col-2": {
                "pinValue": 1,
                "ticks": 4,
                "event": {
                    "deltaTime": 4,
                    "type": "channel",
                    "subtype": "noteOn",
                    "channel": 4,
                    "noteNumber": 84,
                    "velocity": 115,
                    "lightChannels": [
                        3,
                        4,
                        5,
                        6,
                        7,
                        8,
                        9
                    ]
                }
            },
            "col-3": {
                "pinValue": 1,
                "ticks": 4,
                "event": {
                    "deltaTime": 4,
                    "type": "channel",
                    "subtype": "noteOn",
                    "channel": 4,
                    "noteNumber": 84,
                    "velocity": 115,
                    "lightChannels": [
                        3,
                        4,
                        5,
                        6,
                        7,
                        8,
                        9
                    ]
                }
            },
            "window": {
                "pinValue": 1,
                "ticks": 4,
                "event": {
                    "deltaTime": 4,
                    "type": "channel",
                    "subtype": "noteOn",
                    "channel": 4,
                    "noteNumber": 84,
                    "velocity": 115,
                    "lightChannels": [
                        3,
                        4,
                        5,
                        6,
                        7,
                        8,
                        9
                    ]
                }
            },
            "outline": {
                "pinValue": 1,
                "ticks": 4,
                "event": {
                    "deltaTime": 4,
                    "type": "channel",
                    "subtype": "noteOn",
                    "channel": 4,
                    "noteNumber": 84,
                    "velocity": 115,
                    "lightChannels": [
                        3,
                        4,
                        5,
                        6,
                        7,
                        8,
                        9
                    ]
                }
            },
            "garden": {
                "pinValue": 1,
                "ticks": 4,
                "event": {
                    "deltaTime": 4,
                    "type": "channel",
                    "subtype": "noteOn",
                    "channel": 4,
                    "noteNumber": 84,
                    "velocity": 115,
                    "lightChannels": [
                        3,
                        4,
                        5,
                        6,
                        7,
                        8,
                        9
                    ]
                }
            },
            "tree": {
                "pinValue": 1,
                "ticks": 4,
                "event": {
                    "deltaTime": 4,
                    "type": "channel",
                    "subtype": "noteOn",
                    "channel": 4,
                    "noteNumber": 84,
                    "velocity": 115,
                    "lightChannels": [
                        3,
                        4,
                        5,
                        6,
                        7,
                        8,
                        9
                    ]
                }
            }
        }
    },
    {
        "changes": {
            "window": 1,
            "outline": 1
        },
        "timeout": 0.006355924999999999,
        "raw": {
            "window": {
                "pinValue": 1,
                "ticks": 2,
                "event": {
                    "deltaTime": 2,
                    "type": "channel",
                    "subtype": "noteOn",
                    "channel": 9,
                    "noteNumber": 54,
                    "velocity": 101,
                    "lightChannels": [
                        6,
                        7
                    ]
                }
            },
            "outline": {
                "pinValue": 1,
                "ticks": 2,
                "event": {
                    "deltaTime": 2,
                    "type": "channel",
                    "subtype": "noteOn",
                    "channel": 9,
                    "noteNumber": 54,
                    "velocity": 101,
                    "lightChannels": [
                        6,
                        7
                    ]
                }
            }
        }
    },
    {
        "changes": {
            "window": 0,
            "outline": 0
        },
        "timeout": 0.06461857083333332,
        "raw": {
            "window": {
                "pinValue": 0,
                "ticks": 38,
                "event": {
                    "deltaTime": 38,
                    "type": "channel",
                    "subtype": "noteOff",
                    "channel": 9,
                    "noteNumber": 54,
                    "velocity": 0,
                    "lightChannels": [
                        6,
                        7
                    ]
                }
            },
            "outline": {
                "pinValue": 0,
                "ticks": 38,
                "event": {
                    "deltaTime": 38,
                    "type": "channel",
                    "subtype": "noteOff",
                    "channel": 9,
                    "noteNumber": 54,
                    "velocity": 0,
                    "lightChannels": [
                        6,
                        7
                    ]
                }
            }
        }
    },
    {
        "changes": {
            "col-1": 0,
            "col-2": 0,
            "col-3": 0,
            "window": 0,
            "outline": 0,
            "garden": 0,
            "tree": 0
        },
        "timeout": 0.03389826666666666,
        "raw": {
            "col-1": {
                "pinValue": 0,
                "ticks": 2,
                "event": {
                    "deltaTime": 2,
                    "type": "channel",
                    "subtype": "noteOff",
                    "channel": 4,
                    "noteNumber": 84,
                    "velocity": 0,
                    "lightChannels": [
                        3,
                        4,
                        5,
                        6,
                        7,
                        8,
                        9
                    ]
                }
            },
            "col-2": {
                "pinValue": 0,
                "ticks": 2,
                "event": {
                    "deltaTime": 2,
                    "type": "channel",
                    "subtype": "noteOff",
                    "channel": 4,
                    "noteNumber": 84,
                    "velocity": 0,
                    "lightChannels": [
                        3,
                        4,
                        5,
                        6,
                        7,
                        8,
                        9
                    ]
                }
            },
            "col-3": {
                "pinValue": 0,
                "ticks": 2,
                "event": {
                    "deltaTime": 2,
                    "type": "channel",
                    "subtype": "noteOff",
                    "channel": 4,
                    "noteNumber": 84,
                    "velocity": 0,
                    "lightChannels": [
                        3,
                        4,
                        5,
                        6,
                        7,
                        8,
                        9
                    ]
                }
            },
            "window": {
                "pinValue": 0,
                "ticks": 2,
                "event": {
                    "deltaTime": 2,
                    "type": "channel",
                    "subtype": "noteOff",
                    "channel": 4,
                    "noteNumber": 84,
                    "velocity": 0,
                    "lightChannels": [
                        3,
                        4,
                        5,
                        6,
                        7,
                        8,
                        9
                    ]
                }
            },
            "outline": {
                "pinValue": 0,
                "ticks": 2,
                "event": {
                    "deltaTime": 2,
                    "type": "channel",
                    "subtype": "noteOff",
                    "channel": 4,
                    "noteNumber": 84,
                    "velocity": 0,
                    "lightChannels": [
                        3,
                        4,
                        5,
                        6,
                        7,
                        8,
                        9
                    ]
                }
            },
            "garden": {
                "pinValue": 0,
                "ticks": 2,
                "event": {
                    "deltaTime": 2,
                    "type": "channel",
                    "subtype": "noteOff",
                    "channel": 4,
                    "noteNumber": 84,
                    "velocity": 0,
                    "lightChannels": [
                        3,
                        4,
                        5,
                        6,
                        7,
                        8,
                        9
                    ]
                }
            },
            "tree": {
                "pinValue": 0,
                "ticks": 2,
                "event": {
                    "deltaTime": 2,
                    "type": "channel",
                    "subtype": "noteOff",
                    "channel": 4,
                    "noteNumber": 84,
                    "velocity": 0,
                    "lightChannels": [
                        3,
                        4,
                        5,
                        6,
                        7,
                        8,
                        9
                    ]
                }
            }
        }
    },
    {
        "changes": {
            "col-1": 1,
            "col-2": 1,
            "col-3": 1,
            "window": 1,
            "outline": 1,
            "garden": 1,
            "tree": 1
        },
        "timeout": 0.15783880416666665,
        "raw": {
            "col-1": {
                "pinValue": 1,
                "ticks": 0,
                "event": {
                    "deltaTime": 0,
                    "type": "channel",
                    "subtype": "noteOn",
                    "channel": 4,
                    "noteNumber": 86,
                    "velocity": 116,
                    "lightChannels": [
                        3,
                        4,
                        5,
                        6,
                        7,
                        8,
                        9
                    ]
                }
            },
            "col-2": {
                "pinValue": 1,
                "ticks": 0,
                "event": {
                    "deltaTime": 0,
                    "type": "channel",
                    "subtype": "noteOn",
                    "channel": 4,
                    "noteNumber": 86,
                    "velocity": 116,
                    "lightChannels": [
                        3,
                        4,
                        5,
                        6,
                        7,
                        8,
                        9
                    ]
                }
            },
            "col-3": {
                "pinValue": 1,
                "ticks": 0,
                "event": {
                    "deltaTime": 0,
                    "type": "channel",
                    "subtype": "noteOn",
                    "channel": 4,
                    "noteNumber": 86,
                    "velocity": 116,
                    "lightChannels": [
                        3,
                        4,
                        5,
                        6,
                        7,
                        8,
                        9
                    ]
                }
            },
            "window": {
                "pinValue": 1,
                "ticks": 0,
                "event": {
                    "deltaTime": 0,
                    "type": "channel",
                    "subtype": "noteOn",
                    "channel": 4,
                    "noteNumber": 86,
                    "velocity": 116,
                    "lightChannels": [
                        3,
                        4,
                        5,
                        6,
                        7,
                        8,
                        9
                    ]
                }
            },
            "outline": {
                "pinValue": 1,
                "ticks": 0,
                "event": {
                    "deltaTime": 0,
                    "type": "channel",
                    "subtype": "noteOn",
                    "channel": 4,
                    "noteNumber": 86,
                    "velocity": 116,
                    "lightChannels": [
                        3,
                        4,
                        5,
                        6,
                        7,
                        8,
                        9
                    ]
                }
            },
            "garden": {
                "pinValue": 1,
                "ticks": 0,
                "event": {
                    "deltaTime": 0,
                    "type": "channel",
                    "subtype": "noteOn",
                    "channel": 4,
                    "noteNumber": 86,
                    "velocity": 116,
                    "lightChannels": [
                        3,
                        4,
                        5,
                        6,
                        7,
                        8,
                        9
                    ]
                }
            },
            "tree": {
                "pinValue": 1,
                "ticks": 0,
                "event": {
                    "deltaTime": 0,
                    "type": "channel",
                    "subtype": "noteOn",
                    "channel": 4,
                    "noteNumber": 86,
                    "velocity": 116,
                    "lightChannels": [
                        3,
                        4,
                        5,
                        6,
                        7,
                        8,
                        9
                    ]
                }
            }
        }
    },
    {
        "changes": {
            "garage": 1,
            "top-right": 1,
            "bottom-right": 1,
            "col-1": 1,
            "col-2": 1,
            "col-3": 1,
            "window": 1,
            "outline": 1,
            "garden": 1,
            "tree": 1
        },
        "timeout": 0.0010593208333333332,
        "raw": {
            "garage": {
                "pinValue": 1,
                "ticks": 1,
                "event": {
                    "deltaTime": 1,
                    "type": "channel",
                    "subtype": "noteOn",
                    "channel": 8,
                    "noteNumber": 53,
                    "velocity": 127,
                    "lightChannels": [
                        0,
                        1,
                        2,
                        3,
                        4,
                        5,
                        6,
                        7,
                        8,
                        9
                    ]
                }
            },
            "top-right": {
                "pinValue": 1,
                "ticks": 1,
                "event": {
                    "deltaTime": 1,
                    "type": "channel",
                    "subtype": "noteOn",
                    "channel": 8,
                    "noteNumber": 53,
                    "velocity": 127,
                    "lightChannels": [
                        0,
                        1,
                        2,
                        3,
                        4,
                        5,
                        6,
                        7,
                        8,
                        9
                    ]
                }
            },
            "bottom-right": {
                "pinValue": 1,
                "ticks": 1,
                "event": {
                    "deltaTime": 1,
                    "type": "channel",
                    "subtype": "noteOn",
                    "channel": 8,
                    "noteNumber": 53,
                    "velocity": 127,
                    "lightChannels": [
                        0,
                        1,
                        2,
                        3,
                        4,
                        5,
                        6,
                        7,
                        8,
                        9
                    ]
                }
            },
            "col-1": {
                "pinValue": 1,
                "ticks": 1,
                "event": {
                    "deltaTime": 1,
                    "type": "channel",
                    "subtype": "noteOn",
                    "channel": 8,
                    "noteNumber": 53,
                    "velocity": 127,
                    "lightChannels": [
                        0,
                        1,
                        2,
                        3,
                        4,
                        5,
                        6,
                        7,
                        8,
                        9
                    ]
                }
            },
            "col-2": {
                "pinValue": 1,
                "ticks": 1,
                "event": {
                    "deltaTime": 1,
                    "type": "channel",
                    "subtype": "noteOn",
                    "channel": 8,
                    "noteNumber": 53,
                    "velocity": 127,
                    "lightChannels": [
                        0,
                        1,
                        2,
                        3,
                        4,
                        5,
                        6,
                        7,
                        8,
                        9
                    ]
                }
            },
            "col-3": {
                "pinValue": 1,
                "ticks": 1,
                "event": {
                    "deltaTime": 1,
                    "type": "channel",
                    "subtype": "noteOn",
                    "channel": 8,
                    "noteNumber": 53,
                    "velocity": 127,
                    "lightChannels": [
                        0,
                        1,
                        2,
                        3,
                        4,
                        5,
                        6,
                        7,
                        8,
                        9
                    ]
                }
            },
            "window": {
                "pinValue": 1,
                "ticks": 0,
                "event": {
                    "deltaTime": 0,
                    "type": "channel",
                    "subtype": "noteOn",
                    "channel": 9,
                    "noteNumber": 54,
                    "velocity": 91,
                    "lightChannels": [
                        6,
                        7
                    ]
                }
            },
            "outline": {
                "pinValue": 1,
                "ticks": 0,
                "event": {
                    "deltaTime": 0,
                    "type": "channel",
                    "subtype": "noteOn",
                    "channel": 9,
                    "noteNumber": 54,
                    "velocity": 91,
                    "lightChannels": [
                        6,
                        7
                    ]
                }
            },
            "garden": {
                "pinValue": 1,
                "ticks": 1,
                "event": {
                    "deltaTime": 1,
                    "type": "channel",
                    "subtype": "noteOn",
                    "channel": 8,
                    "noteNumber": 53,
                    "velocity": 127,
                    "lightChannels": [
                        0,
                        1,
                        2,
                        3,
                        4,
                        5,
                        6,
                        7,
                        8,
                        9
                    ]
                }
            },
            "tree": {
                "pinValue": 1,
                "ticks": 1,
                "event": {
                    "deltaTime": 1,
                    "type": "channel",
                    "subtype": "noteOn",
                    "channel": 8,
                    "noteNumber": 53,
                    "velocity": 127,
                    "lightChannels": [
                        0,
                        1,
                        2,
                        3,
                        4,
                        5,
                        6,
                        7,
                        8,
                        9
                    ]
                }
            }
        }
    },
    {
        "changes": {
            "window": 0,
            "outline": 0
        },
        "timeout": 0.07838974166666667,
        "raw": {
            "window": {
                "pinValue": 0,
                "ticks": 60,
                "event": {
                    "deltaTime": 60,
                    "type": "channel",
                    "subtype": "noteOff",
                    "channel": 9,
                    "noteNumber": 54,
                    "velocity": 0,
                    "lightChannels": [
                        6,
                        7
                    ]
                }
            },
            "outline": {
                "pinValue": 0,
                "ticks": 60,
                "event": {
                    "deltaTime": 60,
                    "type": "channel",
                    "subtype": "noteOff",
                    "channel": 9,
                    "noteNumber": 54,
                    "velocity": 0,
                    "lightChannels": [
                        6,
                        7
                    ]
                }
            }
        }
    },
    {
        "changes": {
            "col-1": 0,
            "col-2": 0,
            "col-3": 0,
            "window": 0,
            "outline": 0,
            "garden": 0,
            "tree": 0
        },
        "timeout": 0.04025419166666666,
        "raw": {
            "col-1": {
                "pinValue": 0,
                "ticks": 1,
                "event": {
                    "deltaTime": 1,
                    "type": "channel",
                    "subtype": "noteOff",
                    "channel": 4,
                    "noteNumber": 86,
                    "velocity": 0,
                    "lightChannels": [
                        3,
                        4,
                        5,
                        6,
                        7,
                        8,
                        9
                    ]
                }
            },
            "col-2": {
                "pinValue": 0,
                "ticks": 1,
                "event": {
                    "deltaTime": 1,
                    "type": "channel",
                    "subtype": "noteOff",
                    "channel": 4,
                    "noteNumber": 86,
                    "velocity": 0,
                    "lightChannels": [
                        3,
                        4,
                        5,
                        6,
                        7,
                        8,
                        9
                    ]
                }
            },
            "col-3": {
                "pinValue": 0,
                "ticks": 1,
                "event": {
                    "deltaTime": 1,
                    "type": "channel",
                    "subtype": "noteOff",
                    "channel": 4,
                    "noteNumber": 86,
                    "velocity": 0,
                    "lightChannels": [
                        3,
                        4,
                        5,
                        6,
                        7,
                        8,
                        9
                    ]
                }
            },
            "window": {
                "pinValue": 0,
                "ticks": 1,
                "event": {
                    "deltaTime": 1,
                    "type": "channel",
                    "subtype": "noteOff",
                    "channel": 4,
                    "noteNumber": 86,
                    "velocity": 0,
                    "lightChannels": [
                        3,
                        4,
                        5,
                        6,
                        7,
                        8,
                        9
                    ]
                }
            },
            "outline": {
                "pinValue": 0,
                "ticks": 1,
                "event": {
                    "deltaTime": 1,
                    "type": "channel",
                    "subtype": "noteOff",
                    "channel": 4,
                    "noteNumber": 86,
                    "velocity": 0,
                    "lightChannels": [
                        3,
                        4,
                        5,
                        6,
                        7,
                        8,
                        9
                    ]
                }
            },
            "garden": {
                "pinValue": 0,
                "ticks": 1,
                "event": {
                    "deltaTime": 1,
                    "type": "channel",
                    "subtype": "noteOff",
                    "channel": 4,
                    "noteNumber": 86,
                    "velocity": 0,
                    "lightChannels": [
                        3,
                        4,
                        5,
                        6,
                        7,
                        8,
                        9
                    ]
                }
            },
            "tree": {
                "pinValue": 0,
                "ticks": 1,
                "event": {
                    "deltaTime": 1,
                    "type": "channel",
                    "subtype": "noteOff",
                    "channel": 4,
                    "noteNumber": 86,
                    "velocity": 0,
                    "lightChannels": [
                        3,
                        4,
                        5,
                        6,
                        7,
                        8,
                        9
                    ]
                }
            }
        }
    },
    {
        "changes": {
            "garage": 0,
            "top-right": 0,
            "bottom-right": 0,
            "col-1": 0,
            "col-2": 0,
            "col-3": 0,
            "window": 0,
            "outline": 0,
            "garden": 0,
            "tree": 0
        },
        "timeout": 0.07309313749999999,
        "raw": {
            "garage": {
                "pinValue": 0,
                "ticks": 15,
                "event": {
                    "deltaTime": 15,
                    "type": "channel",
                    "subtype": "noteOff",
                    "channel": 8,
                    "noteNumber": 53,
                    "velocity": 0,
                    "lightChannels": [
                        0,
                        1,
                        2,
                        3,
                        4,
                        5,
                        6,
                        7,
                        8,
                        9
                    ]
                }
            },
            "top-right": {
                "pinValue": 0,
                "ticks": 15,
                "event": {
                    "deltaTime": 15,
                    "type": "channel",
                    "subtype": "noteOff",
                    "channel": 8,
                    "noteNumber": 53,
                    "velocity": 0,
                    "lightChannels": [
                        0,
                        1,
                        2,
                        3,
                        4,
                        5,
                        6,
                        7,
                        8,
                        9
                    ]
                }
            },
            "bottom-right": {
                "pinValue": 0,
                "ticks": 15,
                "event": {
                    "deltaTime": 15,
                    "type": "channel",
                    "subtype": "noteOff",
                    "channel": 8,
                    "noteNumber": 53,
                    "velocity": 0,
                    "lightChannels": [
                        0,
                        1,
                        2,
                        3,
                        4,
                        5,
                        6,
                        7,
                        8,
                        9
                    ]
                }
            },
            "col-1": {
                "pinValue": 0,
                "ticks": 15,
                "event": {
                    "deltaTime": 15,
                    "type": "channel",
                    "subtype": "noteOff",
                    "channel": 8,
                    "noteNumber": 53,
                    "velocity": 0,
                    "lightChannels": [
                        0,
                        1,
                        2,
                        3,
                        4,
                        5,
                        6,
                        7,
                        8,
                        9
                    ]
                }
            },
            "col-2": {
                "pinValue": 0,
                "ticks": 15,
                "event": {
                    "deltaTime": 15,
                    "type": "channel",
                    "subtype": "noteOff",
                    "channel": 8,
                    "noteNumber": 53,
                    "velocity": 0,
                    "lightChannels": [
                        0,
                        1,
                        2,
                        3,
                        4,
                        5,
                        6,
                        7,
                        8,
                        9
                    ]
                }
            },
            "col-3": {
                "pinValue": 0,
                "ticks": 15,
                "event": {
                    "deltaTime": 15,
                    "type": "channel",
                    "subtype": "noteOff",
                    "channel": 8,
                    "noteNumber": 53,
                    "velocity": 0,
                    "lightChannels": [
                        0,
                        1,
                        2,
                        3,
                        4,
                        5,
                        6,
                        7,
                        8,
                        9
                    ]
                }
            },
            "window": {
                "pinValue": 0,
                "ticks": 15,
                "event": {
                    "deltaTime": 15,
                    "type": "channel",
                    "subtype": "noteOff",
                    "channel": 8,
                    "noteNumber": 53,
                    "velocity": 0,
                    "lightChannels": [
                        0,
                        1,
                        2,
                        3,
                        4,
                        5,
                        6,
                        7,
                        8,
                        9
                    ]
                }
            },
            "outline": {
                "pinValue": 0,
                "ticks": 15,
                "event": {
                    "deltaTime": 15,
                    "type": "channel",
                    "subtype": "noteOff",
                    "channel": 8,
                    "noteNumber": 53,
                    "velocity": 0,
                    "lightChannels": [
                        0,
                        1,
                        2,
                        3,
                        4,
                        5,
                        6,
                        7,
                        8,
                        9
                    ]
                }
            },
            "garden": {
                "pinValue": 0,
                "ticks": 15,
                "event": {
                    "deltaTime": 15,
                    "type": "channel",
                    "subtype": "noteOff",
                    "channel": 8,
                    "noteNumber": 53,
                    "velocity": 0,
                    "lightChannels": [
                        0,
                        1,
                        2,
                        3,
                        4,
                        5,
                        6,
                        7,
                        8,
                        9
                    ]
                }
            },
            "tree": {
                "pinValue": 0,
                "ticks": 15,
                "event": {
                    "deltaTime": 15,
                    "type": "channel",
                    "subtype": "noteOff",
                    "channel": 8,
                    "noteNumber": 53,
                    "velocity": 0,
                    "lightChannels": [
                        0,
                        1,
                        2,
                        3,
                        4,
                        5,
                        6,
                        7,
                        8,
                        9
                    ]
                }
            }
        }
    },
    {
        "changes": {
            "garage": 1,
            "top-right": 1,
            "bottom-right": 1,
            "col-1": 1,
            "col-2": 1,
            "col-3": 1,
            "window": 1,
            "outline": 1,
            "garden": 1,
            "tree": 1
        },
        "timeout": 0.32733013749999995,
        "raw": {
            "garage": {
                "pinValue": 1,
                "ticks": 1,
                "event": {
                    "deltaTime": 1,
                    "type": "channel",
                    "subtype": "noteOn",
                    "channel": 4,
                    "noteNumber": 65,
                    "velocity": 127,
                    "lightChannels": [
                        0,
                        1,
                        2,
                        3,
                        4,
                        5,
                        6,
                        7,
                        8,
                        9
                    ]
                }
            },
            "top-right": {
                "pinValue": 1,
                "ticks": 1,
                "event": {
                    "deltaTime": 1,
                    "type": "channel",
                    "subtype": "noteOn",
                    "channel": 4,
                    "noteNumber": 65,
                    "velocity": 127,
                    "lightChannels": [
                        0,
                        1,
                        2,
                        3,
                        4,
                        5,
                        6,
                        7,
                        8,
                        9
                    ]
                }
            },
            "bottom-right": {
                "pinValue": 1,
                "ticks": 1,
                "event": {
                    "deltaTime": 1,
                    "type": "channel",
                    "subtype": "noteOn",
                    "channel": 4,
                    "noteNumber": 65,
                    "velocity": 127,
                    "lightChannels": [
                        0,
                        1,
                        2,
                        3,
                        4,
                        5,
                        6,
                        7,
                        8,
                        9
                    ]
                }
            },
            "col-1": {
                "pinValue": 1,
                "ticks": 1,
                "event": {
                    "deltaTime": 1,
                    "type": "channel",
                    "subtype": "noteOn",
                    "channel": 4,
                    "noteNumber": 65,
                    "velocity": 127,
                    "lightChannels": [
                        0,
                        1,
                        2,
                        3,
                        4,
                        5,
                        6,
                        7,
                        8,
                        9
                    ]
                }
            },
            "col-2": {
                "pinValue": 1,
                "ticks": 1,
                "event": {
                    "deltaTime": 1,
                    "type": "channel",
                    "subtype": "noteOn",
                    "channel": 4,
                    "noteNumber": 65,
                    "velocity": 127,
                    "lightChannels": [
                        0,
                        1,
                        2,
                        3,
                        4,
                        5,
                        6,
                        7,
                        8,
                        9
                    ]
                }
            },
            "col-3": {
                "pinValue": 1,
                "ticks": 1,
                "event": {
                    "deltaTime": 1,
                    "type": "channel",
                    "subtype": "noteOn",
                    "channel": 4,
                    "noteNumber": 65,
                    "velocity": 127,
                    "lightChannels": [
                        0,
                        1,
                        2,
                        3,
                        4,
                        5,
                        6,
                        7,
                        8,
                        9
                    ]
                }
            },
            "window": {
                "pinValue": 1,
                "ticks": 1,
                "event": {
                    "deltaTime": 1,
                    "type": "channel",
                    "subtype": "noteOn",
                    "channel": 4,
                    "noteNumber": 65,
                    "velocity": 127,
                    "lightChannels": [
                        0,
                        1,
                        2,
                        3,
                        4,
                        5,
                        6,
                        7,
                        8,
                        9
                    ]
                }
            },
            "outline": {
                "pinValue": 1,
                "ticks": 1,
                "event": {
                    "deltaTime": 1,
                    "type": "channel",
                    "subtype": "noteOn",
                    "channel": 4,
                    "noteNumber": 65,
                    "velocity": 127,
                    "lightChannels": [
                        0,
                        1,
                        2,
                        3,
                        4,
                        5,
                        6,
                        7,
                        8,
                        9
                    ]
                }
            },
            "garden": {
                "pinValue": 1,
                "ticks": 1,
                "event": {
                    "deltaTime": 1,
                    "type": "channel",
                    "subtype": "noteOn",
                    "channel": 4,
                    "noteNumber": 65,
                    "velocity": 127,
                    "lightChannels": [
                        0,
                        1,
                        2,
                        3,
                        4,
                        5,
                        6,
                        7,
                        8,
                        9
                    ]
                }
            },
            "tree": {
                "pinValue": 1,
                "ticks": 1,
                "event": {
                    "deltaTime": 1,
                    "type": "channel",
                    "subtype": "noteOn",
                    "channel": 4,
                    "noteNumber": 65,
                    "velocity": 127,
                    "lightChannels": [
                        0,
                        1,
                        2,
                        3,
                        4,
                        5,
                        6,
                        7,
                        8,
                        9
                    ]
                }
            }
        }
    },
    {
        "changes": {
            "garage": 1,
            "top-right": 1,
            "bottom-right": 1,
            "col-1": 1,
            "col-2": 1,
            "col-3": 1,
            "window": 1,
            "outline": 1,
            "garden": 1,
            "tree": 1
        },
        "timeout": 0.014830491666666666,
        "raw": {
            "garage": {
                "pinValue": 1,
                "ticks": 1,
                "event": {
                    "deltaTime": 1,
                    "type": "channel",
                    "subtype": "noteOn",
                    "channel": 4,
                    "noteNumber": 63,
                    "velocity": 114,
                    "lightChannels": [
                        0,
                        1,
                        2,
                        3,
                        4,
                        5,
                        6,
                        7,
                        8,
                        9
                    ]
                }
            },
            "top-right": {
                "pinValue": 1,
                "ticks": 1,
                "event": {
                    "deltaTime": 1,
                    "type": "channel",
                    "subtype": "noteOn",
                    "channel": 4,
                    "noteNumber": 63,
                    "velocity": 114,
                    "lightChannels": [
                        0,
                        1,
                        2,
                        3,
                        4,
                        5,
                        6,
                        7,
                        8,
                        9
                    ]
                }
            },
            "bottom-right": {
                "pinValue": 1,
                "ticks": 1,
                "event": {
                    "deltaTime": 1,
                    "type": "channel",
                    "subtype": "noteOn",
                    "channel": 4,
                    "noteNumber": 63,
                    "velocity": 114,
                    "lightChannels": [
                        0,
                        1,
                        2,
                        3,
                        4,
                        5,
                        6,
                        7,
                        8,
                        9
                    ]
                }
            },
            "col-1": {
                "pinValue": 1,
                "ticks": 1,
                "event": {
                    "deltaTime": 1,
                    "type": "channel",
                    "subtype": "noteOn",
                    "channel": 4,
                    "noteNumber": 63,
                    "velocity": 114,
                    "lightChannels": [
                        0,
                        1,
                        2,
                        3,
                        4,
                        5,
                        6,
                        7,
                        8,
                        9
                    ]
                }
            },
            "col-2": {
                "pinValue": 1,
                "ticks": 1,
                "event": {
                    "deltaTime": 1,
                    "type": "channel",
                    "subtype": "noteOn",
                    "channel": 4,
                    "noteNumber": 63,
                    "velocity": 114,
                    "lightChannels": [
                        0,
                        1,
                        2,
                        3,
                        4,
                        5,
                        6,
                        7,
                        8,
                        9
                    ]
                }
            },
            "col-3": {
                "pinValue": 1,
                "ticks": 1,
                "event": {
                    "deltaTime": 1,
                    "type": "channel",
                    "subtype": "noteOn",
                    "channel": 4,
                    "noteNumber": 63,
                    "velocity": 114,
                    "lightChannels": [
                        0,
                        1,
                        2,
                        3,
                        4,
                        5,
                        6,
                        7,
                        8,
                        9
                    ]
                }
            },
            "window": {
                "pinValue": 1,
                "ticks": 1,
                "event": {
                    "deltaTime": 1,
                    "type": "channel",
                    "subtype": "noteOn",
                    "channel": 4,
                    "noteNumber": 63,
                    "velocity": 114,
                    "lightChannels": [
                        0,
                        1,
                        2,
                        3,
                        4,
                        5,
                        6,
                        7,
                        8,
                        9
                    ]
                }
            },
            "outline": {
                "pinValue": 1,
                "ticks": 1,
                "event": {
                    "deltaTime": 1,
                    "type": "channel",
                    "subtype": "noteOn",
                    "channel": 4,
                    "noteNumber": 63,
                    "velocity": 114,
                    "lightChannels": [
                        0,
                        1,
                        2,
                        3,
                        4,
                        5,
                        6,
                        7,
                        8,
                        9
                    ]
                }
            },
            "garden": {
                "pinValue": 1,
                "ticks": 1,
                "event": {
                    "deltaTime": 1,
                    "type": "channel",
                    "subtype": "noteOn",
                    "channel": 4,
                    "noteNumber": 63,
                    "velocity": 114,
                    "lightChannels": [
                        0,
                        1,
                        2,
                        3,
                        4,
                        5,
                        6,
                        7,
                        8,
                        9
                    ]
                }
            },
            "tree": {
                "pinValue": 1,
                "ticks": 1,
                "event": {
                    "deltaTime": 1,
                    "type": "channel",
                    "subtype": "noteOn",
                    "channel": 4,
                    "noteNumber": 63,
                    "velocity": 114,
                    "lightChannels": [
                        0,
                        1,
                        2,
                        3,
                        4,
                        5,
                        6,
                        7,
                        8,
                        9
                    ]
                }
            }
        }
    },
    {
        "changes": {
            "window": 1,
            "outline": 1
        },
        "timeout": 2.5285988291666666,
        "raw": {
            "window": {
                "pinValue": 1,
                "ticks": 2375,
                "event": {
                    "deltaTime": 2375,
                    "type": "channel",
                    "subtype": "noteOn",
                    "channel": 9,
                    "noteNumber": 54,
                    "velocity": 96,
                    "lightChannels": [
                        6,
                        7
                    ]
                }
            },
            "outline": {
                "pinValue": 1,
                "ticks": 2375,
                "event": {
                    "deltaTime": 2375,
                    "type": "channel",
                    "subtype": "noteOn",
                    "channel": 9,
                    "noteNumber": 54,
                    "velocity": 96,
                    "lightChannels": [
                        6,
                        7
                    ]
                }
            }
        }
    },
    {
        "changes": {
            "window": 0,
            "outline": 0
        },
        "timeout": 0.06567789166666665,
        "raw": {
            "window": {
                "pinValue": 0,
                "ticks": 54,
                "event": {
                    "deltaTime": 54,
                    "type": "channel",
                    "subtype": "noteOff",
                    "channel": 9,
                    "noteNumber": 54,
                    "velocity": 0,
                    "lightChannels": [
                        6,
                        7
                    ]
                }
            },
            "outline": {
                "pinValue": 0,
                "ticks": 54,
                "event": {
                    "deltaTime": 54,
                    "type": "channel",
                    "subtype": "noteOff",
                    "channel": 9,
                    "noteNumber": 54,
                    "velocity": 0,
                    "lightChannels": [
                        6,
                        7
                    ]
                }
            }
        }
    },
    {
        "changes": {
            "window": 1,
            "outline": 1
        },
        "timeout": 0.1822031833333333,
        "raw": {
            "window": {
                "pinValue": 1,
                "ticks": 109,
                "event": {
                    "deltaTime": 109,
                    "type": "channel",
                    "subtype": "noteOn",
                    "channel": 9,
                    "noteNumber": 54,
                    "velocity": 88,
                    "lightChannels": [
                        6,
                        7
                    ]
                }
            },
            "outline": {
                "pinValue": 1,
                "ticks": 109,
                "event": {
                    "deltaTime": 109,
                    "type": "channel",
                    "subtype": "noteOn",
                    "channel": 9,
                    "noteNumber": 54,
                    "velocity": 88,
                    "lightChannels": [
                        6,
                        7
                    ]
                }
            }
        }
    },
    {
        "changes": {
            "window": 0,
            "outline": 0
        },
        "timeout": 0.07415245833333332,
        "raw": {
            "window": {
                "pinValue": 0,
                "ticks": 58,
                "event": {
                    "deltaTime": 58,
                    "type": "channel",
                    "subtype": "noteOff",
                    "channel": 9,
                    "noteNumber": 54,
                    "velocity": 0,
                    "lightChannels": [
                        6,
                        7
                    ]
                }
            },
            "outline": {
                "pinValue": 0,
                "ticks": 58,
                "event": {
                    "deltaTime": 58,
                    "type": "channel",
                    "subtype": "noteOff",
                    "channel": 9,
                    "noteNumber": 54,
                    "velocity": 0,
                    "lightChannels": [
                        6,
                        7
                    ]
                }
            }
        }
    },
    {
        "changes": {
            "window": 1,
            "outline": 1
        },
        "timeout": 0.17478793749999996,
        "raw": {
            "window": {
                "pinValue": 1,
                "ticks": 81,
                "event": {
                    "deltaTime": 81,
                    "type": "channel",
                    "subtype": "noteOn",
                    "channel": 9,
                    "noteNumber": 54,
                    "velocity": 98,
                    "lightChannels": [
                        6,
                        7
                    ]
                }
            },
            "outline": {
                "pinValue": 1,
                "ticks": 81,
                "event": {
                    "deltaTime": 81,
                    "type": "channel",
                    "subtype": "noteOn",
                    "channel": 9,
                    "noteNumber": 54,
                    "velocity": 98,
                    "lightChannels": [
                        6,
                        7
                    ]
                }
            }
        }
    },
    {
        "changes": {
            "window": 0,
            "outline": 0
        },
        "timeout": 0.07521177916666666,
        "raw": {
            "window": {
                "pinValue": 0,
                "ticks": 43,
                "event": {
                    "deltaTime": 43,
                    "type": "channel",
                    "subtype": "noteOff",
                    "channel": 9,
                    "noteNumber": 54,
                    "velocity": 0,
                    "lightChannels": [
                        6,
                        7
                    ]
                }
            },
            "outline": {
                "pinValue": 0,
                "ticks": 43,
                "event": {
                    "deltaTime": 43,
                    "type": "channel",
                    "subtype": "noteOff",
                    "channel": 9,
                    "noteNumber": 54,
                    "velocity": 0,
                    "lightChannels": [
                        6,
                        7
                    ]
                }
            }
        }
    },
    {
        "changes": {
            "garage": 0,
            "top-right": 0,
            "bottom-right": 0,
            "col-1": 0,
            "col-2": 0,
            "col-3": 0,
            "window": 0,
            "outline": 0,
            "garden": 0,
            "tree": 0
        },
        "timeout": 0.08898294999999999,
        "raw": {
            "garage": {
                "pinValue": 0,
                "ticks": 9,
                "event": {
                    "deltaTime": 9,
                    "type": "channel",
                    "subtype": "noteOff",
                    "channel": 4,
                    "noteNumber": 63,
                    "velocity": 0,
                    "lightChannels": [
                        0,
                        1,
                        2,
                        3,
                        4,
                        5,
                        6,
                        7,
                        8,
                        9
                    ]
                }
            },
            "top-right": {
                "pinValue": 0,
                "ticks": 9,
                "event": {
                    "deltaTime": 9,
                    "type": "channel",
                    "subtype": "noteOff",
                    "channel": 4,
                    "noteNumber": 63,
                    "velocity": 0,
                    "lightChannels": [
                        0,
                        1,
                        2,
                        3,
                        4,
                        5,
                        6,
                        7,
                        8,
                        9
                    ]
                }
            },
            "bottom-right": {
                "pinValue": 0,
                "ticks": 9,
                "event": {
                    "deltaTime": 9,
                    "type": "channel",
                    "subtype": "noteOff",
                    "channel": 4,
                    "noteNumber": 63,
                    "velocity": 0,
                    "lightChannels": [
                        0,
                        1,
                        2,
                        3,
                        4,
                        5,
                        6,
                        7,
                        8,
                        9
                    ]
                }
            },
            "col-1": {
                "pinValue": 0,
                "ticks": 9,
                "event": {
                    "deltaTime": 9,
                    "type": "channel",
                    "subtype": "noteOff",
                    "channel": 4,
                    "noteNumber": 63,
                    "velocity": 0,
                    "lightChannels": [
                        0,
                        1,
                        2,
                        3,
                        4,
                        5,
                        6,
                        7,
                        8,
                        9
                    ]
                }
            },
            "col-2": {
                "pinValue": 0,
                "ticks": 9,
                "event": {
                    "deltaTime": 9,
                    "type": "channel",
                    "subtype": "noteOff",
                    "channel": 4,
                    "noteNumber": 63,
                    "velocity": 0,
                    "lightChannels": [
                        0,
                        1,
                        2,
                        3,
                        4,
                        5,
                        6,
                        7,
                        8,
                        9
                    ]
                }
            },
            "col-3": {
                "pinValue": 0,
                "ticks": 9,
                "event": {
                    "deltaTime": 9,
                    "type": "channel",
                    "subtype": "noteOff",
                    "channel": 4,
                    "noteNumber": 63,
                    "velocity": 0,
                    "lightChannels": [
                        0,
                        1,
                        2,
                        3,
                        4,
                        5,
                        6,
                        7,
                        8,
                        9
                    ]
                }
            },
            "window": {
                "pinValue": 0,
                "ticks": 9,
                "event": {
                    "deltaTime": 9,
                    "type": "channel",
                    "subtype": "noteOff",
                    "channel": 4,
                    "noteNumber": 63,
                    "velocity": 0,
                    "lightChannels": [
                        0,
                        1,
                        2,
                        3,
                        4,
                        5,
                        6,
                        7,
                        8,
                        9
                    ]
                }
            },
            "outline": {
                "pinValue": 0,
                "ticks": 9,
                "event": {
                    "deltaTime": 9,
                    "type": "channel",
                    "subtype": "noteOff",
                    "channel": 4,
                    "noteNumber": 63,
                    "velocity": 0,
                    "lightChannels": [
                        0,
                        1,
                        2,
                        3,
                        4,
                        5,
                        6,
                        7,
                        8,
                        9
                    ]
                }
            },
            "garden": {
                "pinValue": 0,
                "ticks": 9,
                "event": {
                    "deltaTime": 9,
                    "type": "channel",
                    "subtype": "noteOff",
                    "channel": 4,
                    "noteNumber": 63,
                    "velocity": 0,
                    "lightChannels": [
                        0,
                        1,
                        2,
                        3,
                        4,
                        5,
                        6,
                        7,
                        8,
                        9
                    ]
                }
            },
            "tree": {
                "pinValue": 0,
                "ticks": 9,
                "event": {
                    "deltaTime": 9,
                    "type": "channel",
                    "subtype": "noteOff",
                    "channel": 4,
                    "noteNumber": 63,
                    "velocity": 0,
                    "lightChannels": [
                        0,
                        1,
                        2,
                        3,
                        4,
                        5,
                        6,
                        7,
                        8,
                        9
                    ]
                }
            }
        }
    },
    {
        "changes": {
            "window": 1,
            "outline": 1
        },
        "timeout": 0.08898294999999998,
        "raw": {
            "window": {
                "pinValue": 1,
                "ticks": 34,
                "event": {
                    "deltaTime": 34,
                    "type": "channel",
                    "subtype": "noteOn",
                    "channel": 9,
                    "noteNumber": 54,
                    "velocity": 96,
                    "lightChannels": [
                        6,
                        7
                    ]
                }
            },
            "outline": {
                "pinValue": 1,
                "ticks": 34,
                "event": {
                    "deltaTime": 34,
                    "type": "channel",
                    "subtype": "noteOn",
                    "channel": 9,
                    "noteNumber": 54,
                    "velocity": 96,
                    "lightChannels": [
                        6,
                        7
                    ]
                }
            }
        }
    },
    {
        "changes": {
            "garage": 0,
            "top-right": 0,
            "bottom-right": 0,
            "col-1": 0,
            "col-2": 0,
            "col-3": 0,
            "window": 0,
            "outline": 0,
            "garden": 0,
            "tree": 0
        },
        "timeout": 0.050847399999999994,
        "raw": {
            "garage": {
                "pinValue": 0,
                "ticks": 28,
                "event": {
                    "deltaTime": 28,
                    "type": "channel",
                    "subtype": "noteOff",
                    "channel": 4,
                    "noteNumber": 65,
                    "velocity": 0,
                    "lightChannels": [
                        0,
                        1,
                        2,
                        3,
                        4,
                        5,
                        6,
                        7,
                        8,
                        9
                    ]
                }
            },
            "top-right": {
                "pinValue": 0,
                "ticks": 28,
                "event": {
                    "deltaTime": 28,
                    "type": "channel",
                    "subtype": "noteOff",
                    "channel": 4,
                    "noteNumber": 65,
                    "velocity": 0,
                    "lightChannels": [
                        0,
                        1,
                        2,
                        3,
                        4,
                        5,
                        6,
                        7,
                        8,
                        9
                    ]
                }
            },
            "bottom-right": {
                "pinValue": 0,
                "ticks": 28,
                "event": {
                    "deltaTime": 28,
                    "type": "channel",
                    "subtype": "noteOff",
                    "channel": 4,
                    "noteNumber": 65,
                    "velocity": 0,
                    "lightChannels": [
                        0,
                        1,
                        2,
                        3,
                        4,
                        5,
                        6,
                        7,
                        8,
                        9
                    ]
                }
            },
            "col-1": {
                "pinValue": 0,
                "ticks": 28,
                "event": {
                    "deltaTime": 28,
                    "type": "channel",
                    "subtype": "noteOff",
                    "channel": 4,
                    "noteNumber": 65,
                    "velocity": 0,
                    "lightChannels": [
                        0,
                        1,
                        2,
                        3,
                        4,
                        5,
                        6,
                        7,
                        8,
                        9
                    ]
                }
            },
            "col-2": {
                "pinValue": 0,
                "ticks": 28,
                "event": {
                    "deltaTime": 28,
                    "type": "channel",
                    "subtype": "noteOff",
                    "channel": 4,
                    "noteNumber": 65,
                    "velocity": 0,
                    "lightChannels": [
                        0,
                        1,
                        2,
                        3,
                        4,
                        5,
                        6,
                        7,
                        8,
                        9
                    ]
                }
            },
            "col-3": {
                "pinValue": 0,
                "ticks": 28,
                "event": {
                    "deltaTime": 28,
                    "type": "channel",
                    "subtype": "noteOff",
                    "channel": 4,
                    "noteNumber": 65,
                    "velocity": 0,
                    "lightChannels": [
                        0,
                        1,
                        2,
                        3,
                        4,
                        5,
                        6,
                        7,
                        8,
                        9
                    ]
                }
            },
            "window": {
                "pinValue": 0,
                "ticks": 28,
                "event": {
                    "deltaTime": 28,
                    "type": "channel",
                    "subtype": "noteOff",
                    "channel": 4,
                    "noteNumber": 65,
                    "velocity": 0,
                    "lightChannels": [
                        0,
                        1,
                        2,
                        3,
                        4,
                        5,
                        6,
                        7,
                        8,
                        9
                    ]
                }
            },
            "outline": {
                "pinValue": 0,
                "ticks": 28,
                "event": {
                    "deltaTime": 28,
                    "type": "channel",
                    "subtype": "noteOff",
                    "channel": 4,
                    "noteNumber": 65,
                    "velocity": 0,
                    "lightChannels": [
                        0,
                        1,
                        2,
                        3,
                        4,
                        5,
                        6,
                        7,
                        8,
                        9
                    ]
                }
            },
            "garden": {
                "pinValue": 0,
                "ticks": 28,
                "event": {
                    "deltaTime": 28,
                    "type": "channel",
                    "subtype": "noteOff",
                    "channel": 4,
                    "noteNumber": 65,
                    "velocity": 0,
                    "lightChannels": [
                        0,
                        1,
                        2,
                        3,
                        4,
                        5,
                        6,
                        7,
                        8,
                        9
                    ]
                }
            },
            "tree": {
                "pinValue": 0,
                "ticks": 28,
                "event": {
                    "deltaTime": 28,
                    "type": "channel",
                    "subtype": "noteOff",
                    "channel": 4,
                    "noteNumber": 65,
                    "velocity": 0,
                    "lightChannels": [
                        0,
                        1,
                        2,
                        3,
                        4,
                        5,
                        6,
                        7,
                        8,
                        9
                    ]
                }
            }
        }
    },
    {
        "changes": {
            "window": 0,
            "outline": 0
        },
        "timeout": 0.02330505833333333,
        "raw": {
            "window": {
                "pinValue": 0,
                "ticks": 22,
                "event": {
                    "deltaTime": 22,
                    "type": "channel",
                    "subtype": "noteOff",
                    "channel": 9,
                    "noteNumber": 54,
                    "velocity": 0,
                    "lightChannels": [
                        6,
                        7
                    ]
                }
            },
            "outline": {
                "pinValue": 0,
                "ticks": 22,
                "event": {
                    "deltaTime": 22,
                    "type": "channel",
                    "subtype": "noteOff",
                    "channel": 9,
                    "noteNumber": 54,
                    "velocity": 0,
                    "lightChannels": [
                        6,
                        7
                    ]
                }
            }
        }
    },
    {
        "changes": {
            "garage": 1,
            "top-right": 1,
            "bottom-right": 1,
            "col-1": 1,
            "col-2": 1,
            "col-3": 1,
            "window": 1,
            "outline": 1,
            "garden": 1,
            "tree": 1
        },
        "timeout": 0.19279639166666665,
        "raw": {
            "garage": {
                "pinValue": 1,
                "ticks": 47,
                "event": {
                    "deltaTime": 47,
                    "type": "channel",
                    "subtype": "noteOn",
                    "channel": 4,
                    "noteNumber": 62,
                    "velocity": 109,
                    "lightChannels": [
                        0,
                        1,
                        2,
                        3,
                        4,
                        5,
                        6,
                        7,
                        8,
                        9
                    ]
                }
            },
            "top-right": {
                "pinValue": 1,
                "ticks": 47,
                "event": {
                    "deltaTime": 47,
                    "type": "channel",
                    "subtype": "noteOn",
                    "channel": 4,
                    "noteNumber": 62,
                    "velocity": 109,
                    "lightChannels": [
                        0,
                        1,
                        2,
                        3,
                        4,
                        5,
                        6,
                        7,
                        8,
                        9
                    ]
                }
            },
            "bottom-right": {
                "pinValue": 1,
                "ticks": 47,
                "event": {
                    "deltaTime": 47,
                    "type": "channel",
                    "subtype": "noteOn",
                    "channel": 4,
                    "noteNumber": 62,
                    "velocity": 109,
                    "lightChannels": [
                        0,
                        1,
                        2,
                        3,
                        4,
                        5,
                        6,
                        7,
                        8,
                        9
                    ]
                }
            },
            "col-1": {
                "pinValue": 1,
                "ticks": 47,
                "event": {
                    "deltaTime": 47,
                    "type": "channel",
                    "subtype": "noteOn",
                    "channel": 4,
                    "noteNumber": 62,
                    "velocity": 109,
                    "lightChannels": [
                        0,
                        1,
                        2,
                        3,
                        4,
                        5,
                        6,
                        7,
                        8,
                        9
                    ]
                }
            },
            "col-2": {
                "pinValue": 1,
                "ticks": 47,
                "event": {
                    "deltaTime": 47,
                    "type": "channel",
                    "subtype": "noteOn",
                    "channel": 4,
                    "noteNumber": 62,
                    "velocity": 109,
                    "lightChannels": [
                        0,
                        1,
                        2,
                        3,
                        4,
                        5,
                        6,
                        7,
                        8,
                        9
                    ]
                }
            },
            "col-3": {
                "pinValue": 1,
                "ticks": 47,
                "event": {
                    "deltaTime": 47,
                    "type": "channel",
                    "subtype": "noteOn",
                    "channel": 4,
                    "noteNumber": 62,
                    "velocity": 109,
                    "lightChannels": [
                        0,
                        1,
                        2,
                        3,
                        4,
                        5,
                        6,
                        7,
                        8,
                        9
                    ]
                }
            },
            "window": {
                "pinValue": 1,
                "ticks": 47,
                "event": {
                    "deltaTime": 47,
                    "type": "channel",
                    "subtype": "noteOn",
                    "channel": 4,
                    "noteNumber": 62,
                    "velocity": 109,
                    "lightChannels": [
                        0,
                        1,
                        2,
                        3,
                        4,
                        5,
                        6,
                        7,
                        8,
                        9
                    ]
                }
            },
            "outline": {
                "pinValue": 1,
                "ticks": 47,
                "event": {
                    "deltaTime": 47,
                    "type": "channel",
                    "subtype": "noteOn",
                    "channel": 4,
                    "noteNumber": 62,
                    "velocity": 109,
                    "lightChannels": [
                        0,
                        1,
                        2,
                        3,
                        4,
                        5,
                        6,
                        7,
                        8,
                        9
                    ]
                }
            },
            "garden": {
                "pinValue": 1,
                "ticks": 47,
                "event": {
                    "deltaTime": 47,
                    "type": "channel",
                    "subtype": "noteOn",
                    "channel": 4,
                    "noteNumber": 62,
                    "velocity": 109,
                    "lightChannels": [
                        0,
                        1,
                        2,
                        3,
                        4,
                        5,
                        6,
                        7,
                        8,
                        9
                    ]
                }
            },
            "tree": {
                "pinValue": 1,
                "ticks": 47,
                "event": {
                    "deltaTime": 47,
                    "type": "channel",
                    "subtype": "noteOn",
                    "channel": 4,
                    "noteNumber": 62,
                    "velocity": 109,
                    "lightChannels": [
                        0,
                        1,
                        2,
                        3,
                        4,
                        5,
                        6,
                        7,
                        8,
                        9
                    ]
                }
            }
        }
    },
    {
        "changes": {
            "garage": 0,
            "top-right": 0,
            "bottom-right": 0,
            "col-1": 0,
            "col-2": 0,
            "col-3": 0,
            "window": 0,
            "outline": 0,
            "garden": 0,
            "tree": 0
        },
        "timeout": 0.18749978750000001,
        "raw": {
            "garage": {
                "pinValue": 0,
                "ticks": 2,
                "event": {
                    "deltaTime": 2,
                    "type": "channel",
                    "subtype": "noteOff",
                    "channel": 4,
                    "noteNumber": 62,
                    "velocity": 0,
                    "lightChannels": [
                        0,
                        1,
                        2,
                        3,
                        4,
                        5,
                        6,
                        7,
                        8,
                        9
                    ]
                }
            },
            "top-right": {
                "pinValue": 0,
                "ticks": 2,
                "event": {
                    "deltaTime": 2,
                    "type": "channel",
                    "subtype": "noteOff",
                    "channel": 4,
                    "noteNumber": 62,
                    "velocity": 0,
                    "lightChannels": [
                        0,
                        1,
                        2,
                        3,
                        4,
                        5,
                        6,
                        7,
                        8,
                        9
                    ]
                }
            },
            "bottom-right": {
                "pinValue": 0,
                "ticks": 2,
                "event": {
                    "deltaTime": 2,
                    "type": "channel",
                    "subtype": "noteOff",
                    "channel": 4,
                    "noteNumber": 62,
                    "velocity": 0,
                    "lightChannels": [
                        0,
                        1,
                        2,
                        3,
                        4,
                        5,
                        6,
                        7,
                        8,
                        9
                    ]
                }
            },
            "col-1": {
                "pinValue": 0,
                "ticks": 2,
                "event": {
                    "deltaTime": 2,
                    "type": "channel",
                    "subtype": "noteOff",
                    "channel": 4,
                    "noteNumber": 62,
                    "velocity": 0,
                    "lightChannels": [
                        0,
                        1,
                        2,
                        3,
                        4,
                        5,
                        6,
                        7,
                        8,
                        9
                    ]
                }
            },
            "col-2": {
                "pinValue": 0,
                "ticks": 2,
                "event": {
                    "deltaTime": 2,
                    "type": "channel",
                    "subtype": "noteOff",
                    "channel": 4,
                    "noteNumber": 62,
                    "velocity": 0,
                    "lightChannels": [
                        0,
                        1,
                        2,
                        3,
                        4,
                        5,
                        6,
                        7,
                        8,
                        9
                    ]
                }
            },
            "col-3": {
                "pinValue": 0,
                "ticks": 2,
                "event": {
                    "deltaTime": 2,
                    "type": "channel",
                    "subtype": "noteOff",
                    "channel": 4,
                    "noteNumber": 62,
                    "velocity": 0,
                    "lightChannels": [
                        0,
                        1,
                        2,
                        3,
                        4,
                        5,
                        6,
                        7,
                        8,
                        9
                    ]
                }
            },
            "window": {
                "pinValue": 0,
                "ticks": 2,
                "event": {
                    "deltaTime": 2,
                    "type": "channel",
                    "subtype": "noteOff",
                    "channel": 4,
                    "noteNumber": 62,
                    "velocity": 0,
                    "lightChannels": [
                        0,
                        1,
                        2,
                        3,
                        4,
                        5,
                        6,
                        7,
                        8,
                        9
                    ]
                }
            },
            "outline": {
                "pinValue": 0,
                "ticks": 2,
                "event": {
                    "deltaTime": 2,
                    "type": "channel",
                    "subtype": "noteOff",
                    "channel": 4,
                    "noteNumber": 62,
                    "velocity": 0,
                    "lightChannels": [
                        0,
                        1,
                        2,
                        3,
                        4,
                        5,
                        6,
                        7,
                        8,
                        9
                    ]
                }
            },
            "garden": {
                "pinValue": 0,
                "ticks": 2,
                "event": {
                    "deltaTime": 2,
                    "type": "channel",
                    "subtype": "noteOff",
                    "channel": 4,
                    "noteNumber": 62,
                    "velocity": 0,
                    "lightChannels": [
                        0,
                        1,
                        2,
                        3,
                        4,
                        5,
                        6,
                        7,
                        8,
                        9
                    ]
                }
            },
            "tree": {
                "pinValue": 0,
                "ticks": 2,
                "event": {
                    "deltaTime": 2,
                    "type": "channel",
                    "subtype": "noteOff",
                    "channel": 4,
                    "noteNumber": 62,
                    "velocity": 0,
                    "lightChannels": [
                        0,
                        1,
                        2,
                        3,
                        4,
                        5,
                        6,
                        7,
                        8,
                        9
                    ]
                }
            }
        }
    },
    {
        "changes": {
            "garage": 1,
            "top-right": 1,
            "bottom-right": 1,
            "col-1": 1,
            "col-2": 1,
            "col-3": 1,
            "window": 1,
            "outline": 1,
            "garden": 1,
            "tree": 1
        },
        "timeout": 0.8273295708333332,
        "raw": {
            "garage": {
                "pinValue": 1,
                "ticks": 0,
                "event": {
                    "deltaTime": 0,
                    "type": "channel",
                    "subtype": "noteOn",
                    "channel": 4,
                    "noteNumber": 58,
                    "velocity": 127,
                    "lightChannels": [
                        0,
                        1,
                        2,
                        3,
                        4,
                        5,
                        6,
                        7,
                        8,
                        9
                    ]
                }
            },
            "top-right": {
                "pinValue": 1,
                "ticks": 0,
                "event": {
                    "deltaTime": 0,
                    "type": "channel",
                    "subtype": "noteOn",
                    "channel": 4,
                    "noteNumber": 58,
                    "velocity": 127,
                    "lightChannels": [
                        0,
                        1,
                        2,
                        3,
                        4,
                        5,
                        6,
                        7,
                        8,
                        9
                    ]
                }
            },
            "bottom-right": {
                "pinValue": 1,
                "ticks": 0,
                "event": {
                    "deltaTime": 0,
                    "type": "channel",
                    "subtype": "noteOn",
                    "channel": 4,
                    "noteNumber": 58,
                    "velocity": 127,
                    "lightChannels": [
                        0,
                        1,
                        2,
                        3,
                        4,
                        5,
                        6,
                        7,
                        8,
                        9
                    ]
                }
            },
            "col-1": {
                "pinValue": 1,
                "ticks": 0,
                "event": {
                    "deltaTime": 0,
                    "type": "channel",
                    "subtype": "noteOn",
                    "channel": 4,
                    "noteNumber": 58,
                    "velocity": 127,
                    "lightChannels": [
                        0,
                        1,
                        2,
                        3,
                        4,
                        5,
                        6,
                        7,
                        8,
                        9
                    ]
                }
            },
            "col-2": {
                "pinValue": 1,
                "ticks": 0,
                "event": {
                    "deltaTime": 0,
                    "type": "channel",
                    "subtype": "noteOn",
                    "channel": 4,
                    "noteNumber": 58,
                    "velocity": 127,
                    "lightChannels": [
                        0,
                        1,
                        2,
                        3,
                        4,
                        5,
                        6,
                        7,
                        8,
                        9
                    ]
                }
            },
            "col-3": {
                "pinValue": 1,
                "ticks": 0,
                "event": {
                    "deltaTime": 0,
                    "type": "channel",
                    "subtype": "noteOn",
                    "channel": 4,
                    "noteNumber": 58,
                    "velocity": 127,
                    "lightChannels": [
                        0,
                        1,
                        2,
                        3,
                        4,
                        5,
                        6,
                        7,
                        8,
                        9
                    ]
                }
            },
            "window": {
                "pinValue": 1,
                "ticks": 0,
                "event": {
                    "deltaTime": 0,
                    "type": "channel",
                    "subtype": "noteOn",
                    "channel": 4,
                    "noteNumber": 58,
                    "velocity": 127,
                    "lightChannels": [
                        0,
                        1,
                        2,
                        3,
                        4,
                        5,
                        6,
                        7,
                        8,
                        9
                    ]
                }
            },
            "outline": {
                "pinValue": 1,
                "ticks": 0,
                "event": {
                    "deltaTime": 0,
                    "type": "channel",
                    "subtype": "noteOn",
                    "channel": 4,
                    "noteNumber": 58,
                    "velocity": 127,
                    "lightChannels": [
                        0,
                        1,
                        2,
                        3,
                        4,
                        5,
                        6,
                        7,
                        8,
                        9
                    ]
                }
            },
            "garden": {
                "pinValue": 1,
                "ticks": 0,
                "event": {
                    "deltaTime": 0,
                    "type": "channel",
                    "subtype": "noteOn",
                    "channel": 4,
                    "noteNumber": 58,
                    "velocity": 127,
                    "lightChannels": [
                        0,
                        1,
                        2,
                        3,
                        4,
                        5,
                        6,
                        7,
                        8,
                        9
                    ]
                }
            },
            "tree": {
                "pinValue": 1,
                "ticks": 0,
                "event": {
                    "deltaTime": 0,
                    "type": "channel",
                    "subtype": "noteOn",
                    "channel": 4,
                    "noteNumber": 58,
                    "velocity": 127,
                    "lightChannels": [
                        0,
                        1,
                        2,
                        3,
                        4,
                        5,
                        6,
                        7,
                        8,
                        9
                    ]
                }
            }
        }
    },
    {
        "changes": {
            "garage": 1,
            "top-right": 1,
            "bottom-right": 1,
            "col-1": 1,
            "col-2": 1,
            "col-3": 1,
            "window": 1,
            "outline": 1,
            "garden": 1,
            "tree": 1
        },
        "timeout": 0.03919487083333333,
        "raw": {
            "garage": {
                "pinValue": 1,
                "ticks": 3,
                "event": {
                    "deltaTime": 3,
                    "type": "channel",
                    "subtype": "noteOn",
                    "channel": 8,
                    "noteNumber": 46,
                    "velocity": 127,
                    "lightChannels": [
                        0,
                        1,
                        2,
                        3,
                        4,
                        5,
                        6,
                        7,
                        8,
                        9
                    ]
                }
            },
            "top-right": {
                "pinValue": 1,
                "ticks": 3,
                "event": {
                    "deltaTime": 3,
                    "type": "channel",
                    "subtype": "noteOn",
                    "channel": 8,
                    "noteNumber": 46,
                    "velocity": 127,
                    "lightChannels": [
                        0,
                        1,
                        2,
                        3,
                        4,
                        5,
                        6,
                        7,
                        8,
                        9
                    ]
                }
            },
            "bottom-right": {
                "pinValue": 1,
                "ticks": 3,
                "event": {
                    "deltaTime": 3,
                    "type": "channel",
                    "subtype": "noteOn",
                    "channel": 8,
                    "noteNumber": 46,
                    "velocity": 127,
                    "lightChannels": [
                        0,
                        1,
                        2,
                        3,
                        4,
                        5,
                        6,
                        7,
                        8,
                        9
                    ]
                }
            },
            "col-1": {
                "pinValue": 1,
                "ticks": 3,
                "event": {
                    "deltaTime": 3,
                    "type": "channel",
                    "subtype": "noteOn",
                    "channel": 8,
                    "noteNumber": 46,
                    "velocity": 127,
                    "lightChannels": [
                        0,
                        1,
                        2,
                        3,
                        4,
                        5,
                        6,
                        7,
                        8,
                        9
                    ]
                }
            },
            "col-2": {
                "pinValue": 1,
                "ticks": 3,
                "event": {
                    "deltaTime": 3,
                    "type": "channel",
                    "subtype": "noteOn",
                    "channel": 8,
                    "noteNumber": 46,
                    "velocity": 127,
                    "lightChannels": [
                        0,
                        1,
                        2,
                        3,
                        4,
                        5,
                        6,
                        7,
                        8,
                        9
                    ]
                }
            },
            "col-3": {
                "pinValue": 1,
                "ticks": 3,
                "event": {
                    "deltaTime": 3,
                    "type": "channel",
                    "subtype": "noteOn",
                    "channel": 8,
                    "noteNumber": 46,
                    "velocity": 127,
                    "lightChannels": [
                        0,
                        1,
                        2,
                        3,
                        4,
                        5,
                        6,
                        7,
                        8,
                        9
                    ]
                }
            },
            "window": {
                "pinValue": 1,
                "ticks": 3,
                "event": {
                    "deltaTime": 3,
                    "type": "channel",
                    "subtype": "noteOn",
                    "channel": 8,
                    "noteNumber": 46,
                    "velocity": 127,
                    "lightChannels": [
                        0,
                        1,
                        2,
                        3,
                        4,
                        5,
                        6,
                        7,
                        8,
                        9
                    ]
                }
            },
            "outline": {
                "pinValue": 1,
                "ticks": 3,
                "event": {
                    "deltaTime": 3,
                    "type": "channel",
                    "subtype": "noteOn",
                    "channel": 8,
                    "noteNumber": 46,
                    "velocity": 127,
                    "lightChannels": [
                        0,
                        1,
                        2,
                        3,
                        4,
                        5,
                        6,
                        7,
                        8,
                        9
                    ]
                }
            },
            "garden": {
                "pinValue": 1,
                "ticks": 3,
                "event": {
                    "deltaTime": 3,
                    "type": "channel",
                    "subtype": "noteOn",
                    "channel": 8,
                    "noteNumber": 46,
                    "velocity": 127,
                    "lightChannels": [
                        0,
                        1,
                        2,
                        3,
                        4,
                        5,
                        6,
                        7,
                        8,
                        9
                    ]
                }
            },
            "tree": {
                "pinValue": 1,
                "ticks": 3,
                "event": {
                    "deltaTime": 3,
                    "type": "channel",
                    "subtype": "noteOn",
                    "channel": 8,
                    "noteNumber": 46,
                    "velocity": 127,
                    "lightChannels": [
                        0,
                        1,
                        2,
                        3,
                        4,
                        5,
                        6,
                        7,
                        8,
                        9
                    ]
                }
            }
        }
    },
    {
        "changes": {
            "garage": 0,
            "top-right": 0,
            "bottom-right": 0,
            "col-1": 0,
            "col-2": 0,
            "col-3": 0,
            "window": 0,
            "outline": 0,
            "garden": 0,
            "tree": 0
        },
        "timeout": 0.05084739999999999,
        "raw": {
            "garage": {
                "pinValue": 0,
                "ticks": 11,
                "event": {
                    "deltaTime": 11,
                    "type": "channel",
                    "subtype": "noteOff",
                    "channel": 4,
                    "noteNumber": 58,
                    "velocity": 0,
                    "lightChannels": [
                        0,
                        1,
                        2,
                        3,
                        4,
                        5,
                        6,
                        7,
                        8,
                        9
                    ]
                }
            },
            "top-right": {
                "pinValue": 0,
                "ticks": 11,
                "event": {
                    "deltaTime": 11,
                    "type": "channel",
                    "subtype": "noteOff",
                    "channel": 4,
                    "noteNumber": 58,
                    "velocity": 0,
                    "lightChannels": [
                        0,
                        1,
                        2,
                        3,
                        4,
                        5,
                        6,
                        7,
                        8,
                        9
                    ]
                }
            },
            "bottom-right": {
                "pinValue": 0,
                "ticks": 11,
                "event": {
                    "deltaTime": 11,
                    "type": "channel",
                    "subtype": "noteOff",
                    "channel": 4,
                    "noteNumber": 58,
                    "velocity": 0,
                    "lightChannels": [
                        0,
                        1,
                        2,
                        3,
                        4,
                        5,
                        6,
                        7,
                        8,
                        9
                    ]
                }
            },
            "col-1": {
                "pinValue": 0,
                "ticks": 11,
                "event": {
                    "deltaTime": 11,
                    "type": "channel",
                    "subtype": "noteOff",
                    "channel": 4,
                    "noteNumber": 58,
                    "velocity": 0,
                    "lightChannels": [
                        0,
                        1,
                        2,
                        3,
                        4,
                        5,
                        6,
                        7,
                        8,
                        9
                    ]
                }
            },
            "col-2": {
                "pinValue": 0,
                "ticks": 11,
                "event": {
                    "deltaTime": 11,
                    "type": "channel",
                    "subtype": "noteOff",
                    "channel": 4,
                    "noteNumber": 58,
                    "velocity": 0,
                    "lightChannels": [
                        0,
                        1,
                        2,
                        3,
                        4,
                        5,
                        6,
                        7,
                        8,
                        9
                    ]
                }
            },
            "col-3": {
                "pinValue": 0,
                "ticks": 11,
                "event": {
                    "deltaTime": 11,
                    "type": "channel",
                    "subtype": "noteOff",
                    "channel": 4,
                    "noteNumber": 58,
                    "velocity": 0,
                    "lightChannels": [
                        0,
                        1,
                        2,
                        3,
                        4,
                        5,
                        6,
                        7,
                        8,
                        9
                    ]
                }
            },
            "window": {
                "pinValue": 0,
                "ticks": 11,
                "event": {
                    "deltaTime": 11,
                    "type": "channel",
                    "subtype": "noteOff",
                    "channel": 4,
                    "noteNumber": 58,
                    "velocity": 0,
                    "lightChannels": [
                        0,
                        1,
                        2,
                        3,
                        4,
                        5,
                        6,
                        7,
                        8,
                        9
                    ]
                }
            },
            "outline": {
                "pinValue": 0,
                "ticks": 11,
                "event": {
                    "deltaTime": 11,
                    "type": "channel",
                    "subtype": "noteOff",
                    "channel": 4,
                    "noteNumber": 58,
                    "velocity": 0,
                    "lightChannels": [
                        0,
                        1,
                        2,
                        3,
                        4,
                        5,
                        6,
                        7,
                        8,
                        9
                    ]
                }
            },
            "garden": {
                "pinValue": 0,
                "ticks": 11,
                "event": {
                    "deltaTime": 11,
                    "type": "channel",
                    "subtype": "noteOff",
                    "channel": 4,
                    "noteNumber": 58,
                    "velocity": 0,
                    "lightChannels": [
                        0,
                        1,
                        2,
                        3,
                        4,
                        5,
                        6,
                        7,
                        8,
                        9
                    ]
                }
            },
            "tree": {
                "pinValue": 0,
                "ticks": 11,
                "event": {
                    "deltaTime": 11,
                    "type": "channel",
                    "subtype": "noteOff",
                    "channel": 4,
                    "noteNumber": 58,
                    "velocity": 0,
                    "lightChannels": [
                        0,
                        1,
                        2,
                        3,
                        4,
                        5,
                        6,
                        7,
                        8,
                        9
                    ]
                }
            }
        }
    },
    {
        "changes": {
            "garage": 0,
            "top-right": 0,
            "bottom-right": 0,
            "col-1": 0,
            "col-2": 0,
            "col-3": 0,
            "window": 0,
            "outline": 0,
            "garden": 0,
            "tree": 0
        },
        "timeout": 0.014830491666666664,
        "raw": {
            "garage": {
                "pinValue": 0,
                "ticks": 7,
                "event": {
                    "deltaTime": 7,
                    "type": "channel",
                    "subtype": "noteOff",
                    "channel": 4,
                    "noteNumber": 58,
                    "velocity": 0,
                    "lightChannels": [
                        0,
                        1,
                        2,
                        3,
                        4,
                        5,
                        6,
                        7,
                        8,
                        9
                    ]
                }
            },
            "top-right": {
                "pinValue": 0,
                "ticks": 7,
                "event": {
                    "deltaTime": 7,
                    "type": "channel",
                    "subtype": "noteOff",
                    "channel": 4,
                    "noteNumber": 58,
                    "velocity": 0,
                    "lightChannels": [
                        0,
                        1,
                        2,
                        3,
                        4,
                        5,
                        6,
                        7,
                        8,
                        9
                    ]
                }
            },
            "bottom-right": {
                "pinValue": 0,
                "ticks": 7,
                "event": {
                    "deltaTime": 7,
                    "type": "channel",
                    "subtype": "noteOff",
                    "channel": 4,
                    "noteNumber": 58,
                    "velocity": 0,
                    "lightChannels": [
                        0,
                        1,
                        2,
                        3,
                        4,
                        5,
                        6,
                        7,
                        8,
                        9
                    ]
                }
            },
            "col-1": {
                "pinValue": 0,
                "ticks": 7,
                "event": {
                    "deltaTime": 7,
                    "type": "channel",
                    "subtype": "noteOff",
                    "channel": 4,
                    "noteNumber": 58,
                    "velocity": 0,
                    "lightChannels": [
                        0,
                        1,
                        2,
                        3,
                        4,
                        5,
                        6,
                        7,
                        8,
                        9
                    ]
                }
            },
            "col-2": {
                "pinValue": 0,
                "ticks": 7,
                "event": {
                    "deltaTime": 7,
                    "type": "channel",
                    "subtype": "noteOff",
                    "channel": 4,
                    "noteNumber": 58,
                    "velocity": 0,
                    "lightChannels": [
                        0,
                        1,
                        2,
                        3,
                        4,
                        5,
                        6,
                        7,
                        8,
                        9
                    ]
                }
            },
            "col-3": {
                "pinValue": 0,
                "ticks": 7,
                "event": {
                    "deltaTime": 7,
                    "type": "channel",
                    "subtype": "noteOff",
                    "channel": 4,
                    "noteNumber": 58,
                    "velocity": 0,
                    "lightChannels": [
                        0,
                        1,
                        2,
                        3,
                        4,
                        5,
                        6,
                        7,
                        8,
                        9
                    ]
                }
            },
            "window": {
                "pinValue": 0,
                "ticks": 7,
                "event": {
                    "deltaTime": 7,
                    "type": "channel",
                    "subtype": "noteOff",
                    "channel": 4,
                    "noteNumber": 58,
                    "velocity": 0,
                    "lightChannels": [
                        0,
                        1,
                        2,
                        3,
                        4,
                        5,
                        6,
                        7,
                        8,
                        9
                    ]
                }
            },
            "outline": {
                "pinValue": 0,
                "ticks": 7,
                "event": {
                    "deltaTime": 7,
                    "type": "channel",
                    "subtype": "noteOff",
                    "channel": 4,
                    "noteNumber": 58,
                    "velocity": 0,
                    "lightChannels": [
                        0,
                        1,
                        2,
                        3,
                        4,
                        5,
                        6,
                        7,
                        8,
                        9
                    ]
                }
            },
            "garden": {
                "pinValue": 0,
                "ticks": 7,
                "event": {
                    "deltaTime": 7,
                    "type": "channel",
                    "subtype": "noteOff",
                    "channel": 4,
                    "noteNumber": 58,
                    "velocity": 0,
                    "lightChannels": [
                        0,
                        1,
                        2,
                        3,
                        4,
                        5,
                        6,
                        7,
                        8,
                        9
                    ]
                }
            },
            "tree": {
                "pinValue": 0,
                "ticks": 7,
                "event": {
                    "deltaTime": 7,
                    "type": "channel",
                    "subtype": "noteOff",
                    "channel": 4,
                    "noteNumber": 58,
                    "velocity": 0,
                    "lightChannels": [
                        0,
                        1,
                        2,
                        3,
                        4,
                        5,
                        6,
                        7,
                        8,
                        9
                    ]
                }
            }
        }
    },
    {
        "changes": {
            "garage": 0,
            "top-right": 0,
            "bottom-right": 0,
            "col-1": 0,
            "col-2": 0,
            "col-3": 0,
            "window": 0,
            "outline": 0,
            "garden": 0,
            "tree": 0
        },
        "timeout": 0.023305058333333333,
        "raw": {
            "garage": {
                "pinValue": 0,
                "ticks": 2,
                "event": {
                    "deltaTime": 2,
                    "type": "channel",
                    "subtype": "noteOff",
                    "channel": 8,
                    "noteNumber": 46,
                    "velocity": 0,
                    "lightChannels": [
                        0,
                        1,
                        2,
                        3,
                        4,
                        5,
                        6,
                        7,
                        8,
                        9
                    ]
                }
            },
            "top-right": {
                "pinValue": 0,
                "ticks": 2,
                "event": {
                    "deltaTime": 2,
                    "type": "channel",
                    "subtype": "noteOff",
                    "channel": 8,
                    "noteNumber": 46,
                    "velocity": 0,
                    "lightChannels": [
                        0,
                        1,
                        2,
                        3,
                        4,
                        5,
                        6,
                        7,
                        8,
                        9
                    ]
                }
            },
            "bottom-right": {
                "pinValue": 0,
                "ticks": 2,
                "event": {
                    "deltaTime": 2,
                    "type": "channel",
                    "subtype": "noteOff",
                    "channel": 8,
                    "noteNumber": 46,
                    "velocity": 0,
                    "lightChannels": [
                        0,
                        1,
                        2,
                        3,
                        4,
                        5,
                        6,
                        7,
                        8,
                        9
                    ]
                }
            },
            "col-1": {
                "pinValue": 0,
                "ticks": 2,
                "event": {
                    "deltaTime": 2,
                    "type": "channel",
                    "subtype": "noteOff",
                    "channel": 8,
                    "noteNumber": 46,
                    "velocity": 0,
                    "lightChannels": [
                        0,
                        1,
                        2,
                        3,
                        4,
                        5,
                        6,
                        7,
                        8,
                        9
                    ]
                }
            },
            "col-2": {
                "pinValue": 0,
                "ticks": 2,
                "event": {
                    "deltaTime": 2,
                    "type": "channel",
                    "subtype": "noteOff",
                    "channel": 8,
                    "noteNumber": 46,
                    "velocity": 0,
                    "lightChannels": [
                        0,
                        1,
                        2,
                        3,
                        4,
                        5,
                        6,
                        7,
                        8,
                        9
                    ]
                }
            },
            "col-3": {
                "pinValue": 0,
                "ticks": 2,
                "event": {
                    "deltaTime": 2,
                    "type": "channel",
                    "subtype": "noteOff",
                    "channel": 8,
                    "noteNumber": 46,
                    "velocity": 0,
                    "lightChannels": [
                        0,
                        1,
                        2,
                        3,
                        4,
                        5,
                        6,
                        7,
                        8,
                        9
                    ]
                }
            },
            "window": {
                "pinValue": 0,
                "ticks": 2,
                "event": {
                    "deltaTime": 2,
                    "type": "channel",
                    "subtype": "noteOff",
                    "channel": 8,
                    "noteNumber": 46,
                    "velocity": 0,
                    "lightChannels": [
                        0,
                        1,
                        2,
                        3,
                        4,
                        5,
                        6,
                        7,
                        8,
                        9
                    ]
                }
            },
            "outline": {
                "pinValue": 0,
                "ticks": 2,
                "event": {
                    "deltaTime": 2,
                    "type": "channel",
                    "subtype": "noteOff",
                    "channel": 8,
                    "noteNumber": 46,
                    "velocity": 0,
                    "lightChannels": [
                        0,
                        1,
                        2,
                        3,
                        4,
                        5,
                        6,
                        7,
                        8,
                        9
                    ]
                }
            },
            "garden": {
                "pinValue": 0,
                "ticks": 2,
                "event": {
                    "deltaTime": 2,
                    "type": "channel",
                    "subtype": "noteOff",
                    "channel": 8,
                    "noteNumber": 46,
                    "velocity": 0,
                    "lightChannels": [
                        0,
                        1,
                        2,
                        3,
                        4,
                        5,
                        6,
                        7,
                        8,
                        9
                    ]
                }
            },
            "tree": {
                "pinValue": 0,
                "ticks": 2,
                "event": {
                    "deltaTime": 2,
                    "type": "channel",
                    "subtype": "noteOff",
                    "channel": 8,
                    "noteNumber": 46,
                    "velocity": 0,
                    "lightChannels": [
                        0,
                        1,
                        2,
                        3,
                        4,
                        5,
                        6,
                        7,
                        8,
                        9
                    ]
                }
            }
        }
    },
    {
        "changes": {
            "garage": 1,
            "top-right": 1,
            "bottom-right": 1,
            "col-1": 1,
            "col-2": 1,
            "col-3": 1,
            "window": 1,
            "outline": 1,
            "garden": 1,
            "tree": 1
        },
        "timeout": 0.13665238749999997,
        "raw": {
            "garage": {
                "pinValue": 1,
                "ticks": 1,
                "event": {
                    "deltaTime": 1,
                    "type": "channel",
                    "subtype": "noteOn",
                    "channel": 4,
                    "noteNumber": 58,
                    "velocity": 127,
                    "lightChannels": [
                        0,
                        1,
                        2,
                        3,
                        4,
                        5,
                        6,
                        7,
                        8,
                        9
                    ]
                }
            },
            "top-right": {
                "pinValue": 1,
                "ticks": 1,
                "event": {
                    "deltaTime": 1,
                    "type": "channel",
                    "subtype": "noteOn",
                    "channel": 4,
                    "noteNumber": 58,
                    "velocity": 127,
                    "lightChannels": [
                        0,
                        1,
                        2,
                        3,
                        4,
                        5,
                        6,
                        7,
                        8,
                        9
                    ]
                }
            },
            "bottom-right": {
                "pinValue": 1,
                "ticks": 1,
                "event": {
                    "deltaTime": 1,
                    "type": "channel",
                    "subtype": "noteOn",
                    "channel": 4,
                    "noteNumber": 58,
                    "velocity": 127,
                    "lightChannels": [
                        0,
                        1,
                        2,
                        3,
                        4,
                        5,
                        6,
                        7,
                        8,
                        9
                    ]
                }
            },
            "col-1": {
                "pinValue": 1,
                "ticks": 1,
                "event": {
                    "deltaTime": 1,
                    "type": "channel",
                    "subtype": "noteOn",
                    "channel": 4,
                    "noteNumber": 58,
                    "velocity": 127,
                    "lightChannels": [
                        0,
                        1,
                        2,
                        3,
                        4,
                        5,
                        6,
                        7,
                        8,
                        9
                    ]
                }
            },
            "col-2": {
                "pinValue": 1,
                "ticks": 1,
                "event": {
                    "deltaTime": 1,
                    "type": "channel",
                    "subtype": "noteOn",
                    "channel": 4,
                    "noteNumber": 58,
                    "velocity": 127,
                    "lightChannels": [
                        0,
                        1,
                        2,
                        3,
                        4,
                        5,
                        6,
                        7,
                        8,
                        9
                    ]
                }
            },
            "col-3": {
                "pinValue": 1,
                "ticks": 1,
                "event": {
                    "deltaTime": 1,
                    "type": "channel",
                    "subtype": "noteOn",
                    "channel": 4,
                    "noteNumber": 58,
                    "velocity": 127,
                    "lightChannels": [
                        0,
                        1,
                        2,
                        3,
                        4,
                        5,
                        6,
                        7,
                        8,
                        9
                    ]
                }
            },
            "window": {
                "pinValue": 1,
                "ticks": 1,
                "event": {
                    "deltaTime": 1,
                    "type": "channel",
                    "subtype": "noteOn",
                    "channel": 4,
                    "noteNumber": 58,
                    "velocity": 127,
                    "lightChannels": [
                        0,
                        1,
                        2,
                        3,
                        4,
                        5,
                        6,
                        7,
                        8,
                        9
                    ]
                }
            },
            "outline": {
                "pinValue": 1,
                "ticks": 1,
                "event": {
                    "deltaTime": 1,
                    "type": "channel",
                    "subtype": "noteOn",
                    "channel": 4,
                    "noteNumber": 58,
                    "velocity": 127,
                    "lightChannels": [
                        0,
                        1,
                        2,
                        3,
                        4,
                        5,
                        6,
                        7,
                        8,
                        9
                    ]
                }
            },
            "garden": {
                "pinValue": 1,
                "ticks": 1,
                "event": {
                    "deltaTime": 1,
                    "type": "channel",
                    "subtype": "noteOn",
                    "channel": 4,
                    "noteNumber": 58,
                    "velocity": 127,
                    "lightChannels": [
                        0,
                        1,
                        2,
                        3,
                        4,
                        5,
                        6,
                        7,
                        8,
                        9
                    ]
                }
            },
            "tree": {
                "pinValue": 1,
                "ticks": 1,
                "event": {
                    "deltaTime": 1,
                    "type": "channel",
                    "subtype": "noteOn",
                    "channel": 4,
                    "noteNumber": 58,
                    "velocity": 127,
                    "lightChannels": [
                        0,
                        1,
                        2,
                        3,
                        4,
                        5,
                        6,
                        7,
                        8,
                        9
                    ]
                }
            }
        }
    },
    {
        "changes": {
            "garage": 1,
            "top-right": 1,
            "bottom-right": 1,
            "col-1": 1,
            "col-2": 1,
            "col-3": 1,
            "window": 1,
            "outline": 1,
            "garden": 1,
            "tree": 1
        },
        "timeout": 0.008474566666666666,
        "raw": {
            "garage": {
                "pinValue": 1,
                "ticks": 8,
                "event": {
                    "deltaTime": 8,
                    "type": "channel",
                    "subtype": "noteOn",
                    "channel": 4,
                    "noteNumber": 58,
                    "velocity": 127,
                    "lightChannels": [
                        0,
                        1,
                        2,
                        3,
                        4,
                        5,
                        6,
                        7,
                        8,
                        9
                    ]
                }
            },
            "top-right": {
                "pinValue": 1,
                "ticks": 8,
                "event": {
                    "deltaTime": 8,
                    "type": "channel",
                    "subtype": "noteOn",
                    "channel": 4,
                    "noteNumber": 58,
                    "velocity": 127,
                    "lightChannels": [
                        0,
                        1,
                        2,
                        3,
                        4,
                        5,
                        6,
                        7,
                        8,
                        9
                    ]
                }
            },
            "bottom-right": {
                "pinValue": 1,
                "ticks": 8,
                "event": {
                    "deltaTime": 8,
                    "type": "channel",
                    "subtype": "noteOn",
                    "channel": 4,
                    "noteNumber": 58,
                    "velocity": 127,
                    "lightChannels": [
                        0,
                        1,
                        2,
                        3,
                        4,
                        5,
                        6,
                        7,
                        8,
                        9
                    ]
                }
            },
            "col-1": {
                "pinValue": 1,
                "ticks": 8,
                "event": {
                    "deltaTime": 8,
                    "type": "channel",
                    "subtype": "noteOn",
                    "channel": 4,
                    "noteNumber": 58,
                    "velocity": 127,
                    "lightChannels": [
                        0,
                        1,
                        2,
                        3,
                        4,
                        5,
                        6,
                        7,
                        8,
                        9
                    ]
                }
            },
            "col-2": {
                "pinValue": 1,
                "ticks": 8,
                "event": {
                    "deltaTime": 8,
                    "type": "channel",
                    "subtype": "noteOn",
                    "channel": 4,
                    "noteNumber": 58,
                    "velocity": 127,
                    "lightChannels": [
                        0,
                        1,
                        2,
                        3,
                        4,
                        5,
                        6,
                        7,
                        8,
                        9
                    ]
                }
            },
            "col-3": {
                "pinValue": 1,
                "ticks": 8,
                "event": {
                    "deltaTime": 8,
                    "type": "channel",
                    "subtype": "noteOn",
                    "channel": 4,
                    "noteNumber": 58,
                    "velocity": 127,
                    "lightChannels": [
                        0,
                        1,
                        2,
                        3,
                        4,
                        5,
                        6,
                        7,
                        8,
                        9
                    ]
                }
            },
            "window": {
                "pinValue": 1,
                "ticks": 8,
                "event": {
                    "deltaTime": 8,
                    "type": "channel",
                    "subtype": "noteOn",
                    "channel": 4,
                    "noteNumber": 58,
                    "velocity": 127,
                    "lightChannels": [
                        0,
                        1,
                        2,
                        3,
                        4,
                        5,
                        6,
                        7,
                        8,
                        9
                    ]
                }
            },
            "outline": {
                "pinValue": 1,
                "ticks": 8,
                "event": {
                    "deltaTime": 8,
                    "type": "channel",
                    "subtype": "noteOn",
                    "channel": 4,
                    "noteNumber": 58,
                    "velocity": 127,
                    "lightChannels": [
                        0,
                        1,
                        2,
                        3,
                        4,
                        5,
                        6,
                        7,
                        8,
                        9
                    ]
                }
            },
            "garden": {
                "pinValue": 1,
                "ticks": 8,
                "event": {
                    "deltaTime": 8,
                    "type": "channel",
                    "subtype": "noteOn",
                    "channel": 4,
                    "noteNumber": 58,
                    "velocity": 127,
                    "lightChannels": [
                        0,
                        1,
                        2,
                        3,
                        4,
                        5,
                        6,
                        7,
                        8,
                        9
                    ]
                }
            },
            "tree": {
                "pinValue": 1,
                "ticks": 8,
                "event": {
                    "deltaTime": 8,
                    "type": "channel",
                    "subtype": "noteOn",
                    "channel": 4,
                    "noteNumber": 58,
                    "velocity": 127,
                    "lightChannels": [
                        0,
                        1,
                        2,
                        3,
                        4,
                        5,
                        6,
                        7,
                        8,
                        9
                    ]
                }
            }
        }
    },
    {
        "changes": {
            "garage": 1,
            "top-right": 1,
            "bottom-right": 1,
            "col-1": 1,
            "col-2": 1,
            "col-3": 1,
            "window": 1,
            "outline": 1,
            "garden": 1,
            "tree": 1
        },
        "timeout": 0.0021186416666666664,
        "raw": {
            "garage": {
                "pinValue": 1,
                "ticks": 2,
                "event": {
                    "deltaTime": 2,
                    "type": "channel",
                    "subtype": "noteOn",
                    "channel": 8,
                    "noteNumber": 46,
                    "velocity": 127,
                    "lightChannels": [
                        0,
                        1,
                        2,
                        3,
                        4,
                        5,
                        6,
                        7,
                        8,
                        9
                    ]
                }
            },
            "top-right": {
                "pinValue": 1,
                "ticks": 2,
                "event": {
                    "deltaTime": 2,
                    "type": "channel",
                    "subtype": "noteOn",
                    "channel": 8,
                    "noteNumber": 46,
                    "velocity": 127,
                    "lightChannels": [
                        0,
                        1,
                        2,
                        3,
                        4,
                        5,
                        6,
                        7,
                        8,
                        9
                    ]
                }
            },
            "bottom-right": {
                "pinValue": 1,
                "ticks": 2,
                "event": {
                    "deltaTime": 2,
                    "type": "channel",
                    "subtype": "noteOn",
                    "channel": 8,
                    "noteNumber": 46,
                    "velocity": 127,
                    "lightChannels": [
                        0,
                        1,
                        2,
                        3,
                        4,
                        5,
                        6,
                        7,
                        8,
                        9
                    ]
                }
            },
            "col-1": {
                "pinValue": 1,
                "ticks": 2,
                "event": {
                    "deltaTime": 2,
                    "type": "channel",
                    "subtype": "noteOn",
                    "channel": 8,
                    "noteNumber": 46,
                    "velocity": 127,
                    "lightChannels": [
                        0,
                        1,
                        2,
                        3,
                        4,
                        5,
                        6,
                        7,
                        8,
                        9
                    ]
                }
            },
            "col-2": {
                "pinValue": 1,
                "ticks": 2,
                "event": {
                    "deltaTime": 2,
                    "type": "channel",
                    "subtype": "noteOn",
                    "channel": 8,
                    "noteNumber": 46,
                    "velocity": 127,
                    "lightChannels": [
                        0,
                        1,
                        2,
                        3,
                        4,
                        5,
                        6,
                        7,
                        8,
                        9
                    ]
                }
            },
            "col-3": {
                "pinValue": 1,
                "ticks": 2,
                "event": {
                    "deltaTime": 2,
                    "type": "channel",
                    "subtype": "noteOn",
                    "channel": 8,
                    "noteNumber": 46,
                    "velocity": 127,
                    "lightChannels": [
                        0,
                        1,
                        2,
                        3,
                        4,
                        5,
                        6,
                        7,
                        8,
                        9
                    ]
                }
            },
            "window": {
                "pinValue": 1,
                "ticks": 2,
                "event": {
                    "deltaTime": 2,
                    "type": "channel",
                    "subtype": "noteOn",
                    "channel": 8,
                    "noteNumber": 46,
                    "velocity": 127,
                    "lightChannels": [
                        0,
                        1,
                        2,
                        3,
                        4,
                        5,
                        6,
                        7,
                        8,
                        9
                    ]
                }
            },
            "outline": {
                "pinValue": 1,
                "ticks": 2,
                "event": {
                    "deltaTime": 2,
                    "type": "channel",
                    "subtype": "noteOn",
                    "channel": 8,
                    "noteNumber": 46,
                    "velocity": 127,
                    "lightChannels": [
                        0,
                        1,
                        2,
                        3,
                        4,
                        5,
                        6,
                        7,
                        8,
                        9
                    ]
                }
            },
            "garden": {
                "pinValue": 1,
                "ticks": 2,
                "event": {
                    "deltaTime": 2,
                    "type": "channel",
                    "subtype": "noteOn",
                    "channel": 8,
                    "noteNumber": 46,
                    "velocity": 127,
                    "lightChannels": [
                        0,
                        1,
                        2,
                        3,
                        4,
                        5,
                        6,
                        7,
                        8,
                        9
                    ]
                }
            },
            "tree": {
                "pinValue": 1,
                "ticks": 2,
                "event": {
                    "deltaTime": 2,
                    "type": "channel",
                    "subtype": "noteOn",
                    "channel": 8,
                    "noteNumber": 46,
                    "velocity": 127,
                    "lightChannels": [
                        0,
                        1,
                        2,
                        3,
                        4,
                        5,
                        6,
                        7,
                        8,
                        9
                    ]
                }
            }
        }
    },
    {
        "changes": {
            "garage": 0,
            "top-right": 0,
            "bottom-right": 0,
            "col-1": 0,
            "col-2": 0,
            "col-3": 0,
            "window": 0,
            "outline": 0,
            "garden": 0,
            "tree": 0
        },
        "timeout": 0.07521177916666666,
        "raw": {
            "garage": {
                "pinValue": 0,
                "ticks": 1,
                "event": {
                    "deltaTime": 1,
                    "type": "channel",
                    "subtype": "noteOff",
                    "channel": 4,
                    "noteNumber": 58,
                    "velocity": 0,
                    "lightChannels": [
                        0,
                        1,
                        2,
                        3,
                        4,
                        5,
                        6,
                        7,
                        8,
                        9
                    ]
                }
            },
            "top-right": {
                "pinValue": 0,
                "ticks": 1,
                "event": {
                    "deltaTime": 1,
                    "type": "channel",
                    "subtype": "noteOff",
                    "channel": 4,
                    "noteNumber": 58,
                    "velocity": 0,
                    "lightChannels": [
                        0,
                        1,
                        2,
                        3,
                        4,
                        5,
                        6,
                        7,
                        8,
                        9
                    ]
                }
            },
            "bottom-right": {
                "pinValue": 0,
                "ticks": 1,
                "event": {
                    "deltaTime": 1,
                    "type": "channel",
                    "subtype": "noteOff",
                    "channel": 4,
                    "noteNumber": 58,
                    "velocity": 0,
                    "lightChannels": [
                        0,
                        1,
                        2,
                        3,
                        4,
                        5,
                        6,
                        7,
                        8,
                        9
                    ]
                }
            },
            "col-1": {
                "pinValue": 0,
                "ticks": 1,
                "event": {
                    "deltaTime": 1,
                    "type": "channel",
                    "subtype": "noteOff",
                    "channel": 4,
                    "noteNumber": 58,
                    "velocity": 0,
                    "lightChannels": [
                        0,
                        1,
                        2,
                        3,
                        4,
                        5,
                        6,
                        7,
                        8,
                        9
                    ]
                }
            },
            "col-2": {
                "pinValue": 0,
                "ticks": 1,
                "event": {
                    "deltaTime": 1,
                    "type": "channel",
                    "subtype": "noteOff",
                    "channel": 4,
                    "noteNumber": 58,
                    "velocity": 0,
                    "lightChannels": [
                        0,
                        1,
                        2,
                        3,
                        4,
                        5,
                        6,
                        7,
                        8,
                        9
                    ]
                }
            },
            "col-3": {
                "pinValue": 0,
                "ticks": 1,
                "event": {
                    "deltaTime": 1,
                    "type": "channel",
                    "subtype": "noteOff",
                    "channel": 4,
                    "noteNumber": 58,
                    "velocity": 0,
                    "lightChannels": [
                        0,
                        1,
                        2,
                        3,
                        4,
                        5,
                        6,
                        7,
                        8,
                        9
                    ]
                }
            },
            "window": {
                "pinValue": 0,
                "ticks": 1,
                "event": {
                    "deltaTime": 1,
                    "type": "channel",
                    "subtype": "noteOff",
                    "channel": 4,
                    "noteNumber": 58,
                    "velocity": 0,
                    "lightChannels": [
                        0,
                        1,
                        2,
                        3,
                        4,
                        5,
                        6,
                        7,
                        8,
                        9
                    ]
                }
            },
            "outline": {
                "pinValue": 0,
                "ticks": 1,
                "event": {
                    "deltaTime": 1,
                    "type": "channel",
                    "subtype": "noteOff",
                    "channel": 4,
                    "noteNumber": 58,
                    "velocity": 0,
                    "lightChannels": [
                        0,
                        1,
                        2,
                        3,
                        4,
                        5,
                        6,
                        7,
                        8,
                        9
                    ]
                }
            },
            "garden": {
                "pinValue": 0,
                "ticks": 1,
                "event": {
                    "deltaTime": 1,
                    "type": "channel",
                    "subtype": "noteOff",
                    "channel": 4,
                    "noteNumber": 58,
                    "velocity": 0,
                    "lightChannels": [
                        0,
                        1,
                        2,
                        3,
                        4,
                        5,
                        6,
                        7,
                        8,
                        9
                    ]
                }
            },
            "tree": {
                "pinValue": 0,
                "ticks": 1,
                "event": {
                    "deltaTime": 1,
                    "type": "channel",
                    "subtype": "noteOff",
                    "channel": 4,
                    "noteNumber": 58,
                    "velocity": 0,
                    "lightChannels": [
                        0,
                        1,
                        2,
                        3,
                        4,
                        5,
                        6,
                        7,
                        8,
                        9
                    ]
                }
            }
        }
    },
    {
        "changes": {
            "garage": 0,
            "top-right": 0,
            "bottom-right": 0,
            "col-1": 0,
            "col-2": 0,
            "col-3": 0,
            "window": 0,
            "outline": 0,
            "garden": 0,
            "tree": 0
        },
        "timeout": 0.044491474999999996,
        "raw": {
            "garage": {
                "pinValue": 0,
                "ticks": 0,
                "event": {
                    "deltaTime": 0,
                    "type": "channel",
                    "subtype": "noteOff",
                    "channel": 4,
                    "noteNumber": 58,
                    "velocity": 0,
                    "lightChannels": [
                        0,
                        1,
                        2,
                        3,
                        4,
                        5,
                        6,
                        7,
                        8,
                        9
                    ]
                }
            },
            "top-right": {
                "pinValue": 0,
                "ticks": 0,
                "event": {
                    "deltaTime": 0,
                    "type": "channel",
                    "subtype": "noteOff",
                    "channel": 4,
                    "noteNumber": 58,
                    "velocity": 0,
                    "lightChannels": [
                        0,
                        1,
                        2,
                        3,
                        4,
                        5,
                        6,
                        7,
                        8,
                        9
                    ]
                }
            },
            "bottom-right": {
                "pinValue": 0,
                "ticks": 0,
                "event": {
                    "deltaTime": 0,
                    "type": "channel",
                    "subtype": "noteOff",
                    "channel": 4,
                    "noteNumber": 58,
                    "velocity": 0,
                    "lightChannels": [
                        0,
                        1,
                        2,
                        3,
                        4,
                        5,
                        6,
                        7,
                        8,
                        9
                    ]
                }
            },
            "col-1": {
                "pinValue": 0,
                "ticks": 0,
                "event": {
                    "deltaTime": 0,
                    "type": "channel",
                    "subtype": "noteOff",
                    "channel": 4,
                    "noteNumber": 58,
                    "velocity": 0,
                    "lightChannels": [
                        0,
                        1,
                        2,
                        3,
                        4,
                        5,
                        6,
                        7,
                        8,
                        9
                    ]
                }
            },
            "col-2": {
                "pinValue": 0,
                "ticks": 0,
                "event": {
                    "deltaTime": 0,
                    "type": "channel",
                    "subtype": "noteOff",
                    "channel": 4,
                    "noteNumber": 58,
                    "velocity": 0,
                    "lightChannels": [
                        0,
                        1,
                        2,
                        3,
                        4,
                        5,
                        6,
                        7,
                        8,
                        9
                    ]
                }
            },
            "col-3": {
                "pinValue": 0,
                "ticks": 0,
                "event": {
                    "deltaTime": 0,
                    "type": "channel",
                    "subtype": "noteOff",
                    "channel": 4,
                    "noteNumber": 58,
                    "velocity": 0,
                    "lightChannels": [
                        0,
                        1,
                        2,
                        3,
                        4,
                        5,
                        6,
                        7,
                        8,
                        9
                    ]
                }
            },
            "window": {
                "pinValue": 0,
                "ticks": 0,
                "event": {
                    "deltaTime": 0,
                    "type": "channel",
                    "subtype": "noteOff",
                    "channel": 4,
                    "noteNumber": 58,
                    "velocity": 0,
                    "lightChannels": [
                        0,
                        1,
                        2,
                        3,
                        4,
                        5,
                        6,
                        7,
                        8,
                        9
                    ]
                }
            },
            "outline": {
                "pinValue": 0,
                "ticks": 0,
                "event": {
                    "deltaTime": 0,
                    "type": "channel",
                    "subtype": "noteOff",
                    "channel": 4,
                    "noteNumber": 58,
                    "velocity": 0,
                    "lightChannels": [
                        0,
                        1,
                        2,
                        3,
                        4,
                        5,
                        6,
                        7,
                        8,
                        9
                    ]
                }
            },
            "garden": {
                "pinValue": 0,
                "ticks": 0,
                "event": {
                    "deltaTime": 0,
                    "type": "channel",
                    "subtype": "noteOff",
                    "channel": 4,
                    "noteNumber": 58,
                    "velocity": 0,
                    "lightChannels": [
                        0,
                        1,
                        2,
                        3,
                        4,
                        5,
                        6,
                        7,
                        8,
                        9
                    ]
                }
            },
            "tree": {
                "pinValue": 0,
                "ticks": 0,
                "event": {
                    "deltaTime": 0,
                    "type": "channel",
                    "subtype": "noteOff",
                    "channel": 4,
                    "noteNumber": 58,
                    "velocity": 0,
                    "lightChannels": [
                        0,
                        1,
                        2,
                        3,
                        4,
                        5,
                        6,
                        7,
                        8,
                        9
                    ]
                }
            }
        }
    },
    {
        "changes": {
            "garage": 0,
            "top-right": 0,
            "bottom-right": 0,
            "col-1": 0,
            "col-2": 0,
            "col-3": 0,
            "window": 0,
            "outline": 0,
            "garden": 0,
            "tree": 0
        },
        "timeout": 0.022245737499999998,
        "raw": {
            "garage": {
                "pinValue": 0,
                "ticks": 21,
                "event": {
                    "deltaTime": 21,
                    "type": "channel",
                    "subtype": "noteOff",
                    "channel": 8,
                    "noteNumber": 46,
                    "velocity": 0,
                    "lightChannels": [
                        0,
                        1,
                        2,
                        3,
                        4,
                        5,
                        6,
                        7,
                        8,
                        9
                    ]
                }
            },
            "top-right": {
                "pinValue": 0,
                "ticks": 21,
                "event": {
                    "deltaTime": 21,
                    "type": "channel",
                    "subtype": "noteOff",
                    "channel": 8,
                    "noteNumber": 46,
                    "velocity": 0,
                    "lightChannels": [
                        0,
                        1,
                        2,
                        3,
                        4,
                        5,
                        6,
                        7,
                        8,
                        9
                    ]
                }
            },
            "bottom-right": {
                "pinValue": 0,
                "ticks": 21,
                "event": {
                    "deltaTime": 21,
                    "type": "channel",
                    "subtype": "noteOff",
                    "channel": 8,
                    "noteNumber": 46,
                    "velocity": 0,
                    "lightChannels": [
                        0,
                        1,
                        2,
                        3,
                        4,
                        5,
                        6,
                        7,
                        8,
                        9
                    ]
                }
            },
            "col-1": {
                "pinValue": 0,
                "ticks": 21,
                "event": {
                    "deltaTime": 21,
                    "type": "channel",
                    "subtype": "noteOff",
                    "channel": 8,
                    "noteNumber": 46,
                    "velocity": 0,
                    "lightChannels": [
                        0,
                        1,
                        2,
                        3,
                        4,
                        5,
                        6,
                        7,
                        8,
                        9
                    ]
                }
            },
            "col-2": {
                "pinValue": 0,
                "ticks": 21,
                "event": {
                    "deltaTime": 21,
                    "type": "channel",
                    "subtype": "noteOff",
                    "channel": 8,
                    "noteNumber": 46,
                    "velocity": 0,
                    "lightChannels": [
                        0,
                        1,
                        2,
                        3,
                        4,
                        5,
                        6,
                        7,
                        8,
                        9
                    ]
                }
            },
            "col-3": {
                "pinValue": 0,
                "ticks": 21,
                "event": {
                    "deltaTime": 21,
                    "type": "channel",
                    "subtype": "noteOff",
                    "channel": 8,
                    "noteNumber": 46,
                    "velocity": 0,
                    "lightChannels": [
                        0,
                        1,
                        2,
                        3,
                        4,
                        5,
                        6,
                        7,
                        8,
                        9
                    ]
                }
            },
            "window": {
                "pinValue": 0,
                "ticks": 21,
                "event": {
                    "deltaTime": 21,
                    "type": "channel",
                    "subtype": "noteOff",
                    "channel": 8,
                    "noteNumber": 46,
                    "velocity": 0,
                    "lightChannels": [
                        0,
                        1,
                        2,
                        3,
                        4,
                        5,
                        6,
                        7,
                        8,
                        9
                    ]
                }
            },
            "outline": {
                "pinValue": 0,
                "ticks": 21,
                "event": {
                    "deltaTime": 21,
                    "type": "channel",
                    "subtype": "noteOff",
                    "channel": 8,
                    "noteNumber": 46,
                    "velocity": 0,
                    "lightChannels": [
                        0,
                        1,
                        2,
                        3,
                        4,
                        5,
                        6,
                        7,
                        8,
                        9
                    ]
                }
            },
            "garden": {
                "pinValue": 0,
                "ticks": 21,
                "event": {
                    "deltaTime": 21,
                    "type": "channel",
                    "subtype": "noteOff",
                    "channel": 8,
                    "noteNumber": 46,
                    "velocity": 0,
                    "lightChannels": [
                        0,
                        1,
                        2,
                        3,
                        4,
                        5,
                        6,
                        7,
                        8,
                        9
                    ]
                }
            },
            "tree": {
                "pinValue": 0,
                "ticks": 21,
                "event": {
                    "deltaTime": 21,
                    "type": "channel",
                    "subtype": "noteOff",
                    "channel": 8,
                    "noteNumber": 46,
                    "velocity": 0,
                    "lightChannels": [
                        0,
                        1,
                        2,
                        3,
                        4,
                        5,
                        6,
                        7,
                        8,
                        9
                    ]
                }
            }
        }
    },
    {
        "changes": {},
        "timeout": 0.06038128749999999,
        "raw": {}
    }
  ]